<?xml version="1.0" encoding="us-ascii" standalone="no"?><svg xmlns="http://www.w3.org/2000/svg" xmlns:xlink="http://www.w3.org/1999/xlink" contentStyleType="text/css" height="1273px" preserveAspectRatio="none" style="width:1491px;height:1273px;background:#FFFFFF;" version="1.1" viewBox="0 0 1491 1273" width="1491px" zoomAndPan="magnify"><defs/><g><!--class EducationPlatform--><g id="elem_EducationPlatform"><rect codeLine="2" fill="#F1F1F1" height="48" id="EducationPlatform" rx="2.5" ry="2.5" style="stroke:#181818;stroke-width:0.5;" width="158" x="552" y="7"/><ellipse cx="567" cy="23" fill="#ADD1B2" rx="11" ry="11" style="stroke:#181818;stroke-width:1.0;"/><path d="M569.4731,29.1431 Q568.8921,29.4419 568.2529,29.5913 Q567.6138,29.7407 566.9082,29.7407 Q564.4014,29.7407 563.0815,28.0889 Q561.7617,26.437 561.7617,23.3159 Q561.7617,20.1865 563.0815,18.5347 Q564.4014,16.8828 566.9082,16.8828 Q567.6138,16.8828 568.2612,17.0322 Q568.9087,17.1816 569.4731,17.4805 L569.4731,20.2031 Q568.8423,19.6221 568.2488,19.3523 Q567.6553,19.0825 567.0244,19.0825 Q565.6797,19.0825 564.9949,20.1492 Q564.3101,21.2158 564.3101,23.3159 Q564.3101,25.4077 564.9949,26.4744 Q565.6797,27.541 567.0244,27.541 Q567.6553,27.541 568.2488,27.2712 Q568.8423,27.0015 569.4731,26.4204 Z " fill="#000000"/><text fill="#000000" font-family="sans-serif" font-size="14" lengthAdjust="spacing" textLength="126" x="581" y="28.291">EducationPlatform</text><line style="stroke:#181818;stroke-width:0.5;" x1="553" x2="709" y1="39" y2="39"/><line style="stroke:#181818;stroke-width:0.5;" x1="553" x2="709" y1="47" y2="47"/></g><!--class Teacher--><g id="elem_Teacher"><rect fill="#F1F1F1" height="48" id="Teacher" rx="2.5" ry="2.5" style="stroke:#181818;stroke-width:0.5;" width="87" x="312.5" y="140.24"/><ellipse cx="327.5" cy="156.24" fill="#ADD1B2" rx="11" ry="11" style="stroke:#181818;stroke-width:1.0;"/><path d="M329.9731,162.3831 Q329.3921,162.6819 328.7529,162.8313 Q328.1138,162.9807 327.4082,162.9807 Q324.9014,162.9807 323.5815,161.3289 Q322.2617,159.677 322.2617,156.5559 Q322.2617,153.4265 323.5815,151.7747 Q324.9014,150.1228 327.4082,150.1228 Q328.1138,150.1228 328.7612,150.2722 Q329.4087,150.4216 329.9731,150.7205 L329.9731,153.4431 Q329.3423,152.8621 328.7488,152.5923 Q328.1553,152.3225 327.5244,152.3225 Q326.1797,152.3225 325.4949,153.3892 Q324.8101,154.4558 324.8101,156.5559 Q324.8101,158.6477 325.4949,159.7144 Q326.1797,160.781 327.5244,160.781 Q328.1553,160.781 328.7488,160.5112 Q329.3423,160.2415 329.9731,159.6604 Z " fill="#000000"/><text fill="#000000" font-family="sans-serif" font-size="14" lengthAdjust="spacing" textLength="55" x="341.5" y="161.531">Teacher</text><line style="stroke:#181818;stroke-width:0.5;" x1="313.5" x2="398.5" y1="172.24" y2="172.24"/><line style="stroke:#181818;stroke-width:0.5;" x1="313.5" x2="398.5" y1="180.24" y2="180.24"/></g><!--class Student--><g id="elem_Student"><rect fill="#F1F1F1" height="48" id="Student" rx="2.5" ry="2.5" style="stroke:#181818;stroke-width:0.5;" width="85" x="434.5" y="140.24"/><ellipse cx="449.5" cy="156.24" fill="#ADD1B2" rx="11" ry="11" style="stroke:#181818;stroke-width:1.0;"/><path d="M451.9731,162.3831 Q451.3921,162.6819 450.7529,162.8313 Q450.1138,162.9807 449.4082,162.9807 Q446.9014,162.9807 445.5815,161.3289 Q444.2617,159.677 444.2617,156.5559 Q444.2617,153.4265 445.5815,151.7747 Q446.9014,150.1228 449.4082,150.1228 Q450.1138,150.1228 450.7612,150.2722 Q451.4087,150.4216 451.9731,150.7205 L451.9731,153.4431 Q451.3423,152.8621 450.7488,152.5923 Q450.1553,152.3225 449.5244,152.3225 Q448.1797,152.3225 447.4949,153.3892 Q446.8101,154.4558 446.8101,156.5559 Q446.8101,158.6477 447.4949,159.7144 Q448.1797,160.781 449.5244,160.781 Q450.1553,160.781 450.7488,160.5112 Q451.3423,160.2415 451.9731,159.6604 Z " fill="#000000"/><text fill="#000000" font-family="sans-serif" font-size="14" lengthAdjust="spacing" textLength="53" x="463.5" y="161.531">Student</text><line style="stroke:#181818;stroke-width:0.5;" x1="435.5" x2="518.5" y1="172.24" y2="172.24"/><line style="stroke:#181818;stroke-width:0.5;" x1="435.5" x2="518.5" y1="180.24" y2="180.24"/></g><!--class Topic--><g id="elem_Topic"><rect codeLine="23" fill="#F1F1F1" height="48" id="Topic" rx="2.5" ry="2.5" style="stroke:#181818;stroke-width:0.5;" width="70" x="470" y="304.49"/><ellipse cx="485" cy="320.49" fill="#A9DCDF" rx="11" ry="11" style="stroke:#181818;stroke-width:1.0;"/><path d="M485.1133,316.0881 L483.9595,321.1599 L486.2754,321.1599 Z M483.6191,313.8469 L486.6157,313.8469 L489.9609,326.24 L487.5122,326.24 L486.7485,323.177 L483.4697,323.177 L482.7227,326.24 L480.2739,326.24 Z " fill="#000000"/><text fill="#000000" font-family="sans-serif" font-size="14" font-style="italic" lengthAdjust="spacing" textLength="38" x="499" y="325.781">Topic</text><line style="stroke:#181818;stroke-width:0.5;" x1="471" x2="539" y1="336.49" y2="336.49"/><line style="stroke:#181818;stroke-width:0.5;" x1="471" x2="539" y1="344.49" y2="344.49"/></g><!--class Itinerary--><g id="elem_Itinerary"><rect codeLine="18" fill="#F1F1F1" height="64.4883" id="Itinerary" rx="2.5" ry="2.5" style="stroke:#181818;stroke-width:0.5;" width="144" x="626" y="132"/><ellipse cx="665.75" cy="148" fill="#ADD1B2" rx="11" ry="11" style="stroke:#181818;stroke-width:1.0;"/><path d="M668.2231,154.1431 Q667.6421,154.4419 667.0029,154.5913 Q666.3638,154.7407 665.6582,154.7407 Q663.1514,154.7407 661.8315,153.0889 Q660.5117,151.437 660.5117,148.3159 Q660.5117,145.1865 661.8315,143.5347 Q663.1514,141.8828 665.6582,141.8828 Q666.3638,141.8828 667.0112,142.0322 Q667.6587,142.1816 668.2231,142.4805 L668.2231,145.2031 Q667.5923,144.6221 666.9988,144.3523 Q666.4053,144.0825 665.7744,144.0825 Q664.4297,144.0825 663.7449,145.1492 Q663.0601,146.2158 663.0601,148.3159 Q663.0601,150.4077 663.7449,151.4744 Q664.4297,152.541 665.7744,152.541 Q666.4053,152.541 666.9988,152.2712 Q667.5923,152.0015 668.2231,151.4204 Z " fill="#000000"/><text fill="#000000" font-family="sans-serif" font-size="14" lengthAdjust="spacing" textLength="57" x="685.25" y="153.291">Itinerary</text><line style="stroke:#181818;stroke-width:0.5;" x1="627" x2="769" y1="164" y2="164"/><rect fill="none" height="6" style="stroke:#C82930;stroke-width:1.0;" width="6" x="634" y="174.7441"/><text fill="#000000" font-family="sans-serif" font-size="14" lengthAdjust="spacing" textLength="118" x="646" y="181.5352">custom : boolean</text><line style="stroke:#181818;stroke-width:0.5;" x1="627" x2="769" y1="188.4883" y2="188.4883"/></g><!--class Chat--><g id="elem_Chat"><rect codeLine="13" fill="#F1F1F1" height="48" id="Chat" rx="2.5" ry="2.5" style="stroke:#181818;stroke-width:0.5;" width="64" x="802" y="226.49"/><ellipse cx="817" cy="242.49" fill="#ADD1B2" rx="11" ry="11" style="stroke:#181818;stroke-width:1.0;"/><path d="M819.4731,248.6331 Q818.8921,248.9319 818.2529,249.0813 Q817.6138,249.2307 816.9082,249.2307 Q814.4014,249.2307 813.0815,247.5789 Q811.7617,245.927 811.7617,242.8059 Q811.7617,239.6765 813.0815,238.0247 Q814.4014,236.3728 816.9082,236.3728 Q817.6138,236.3728 818.2612,236.5222 Q818.9087,236.6716 819.4731,236.9705 L819.4731,239.6931 Q818.8423,239.1121 818.2488,238.8423 Q817.6553,238.5725 817.0244,238.5725 Q815.6797,238.5725 814.9949,239.6392 Q814.3101,240.7058 814.3101,242.8059 Q814.3101,244.8977 814.9949,245.9644 Q815.6797,247.031 817.0244,247.031 Q817.6553,247.031 818.2488,246.7612 Q818.8423,246.4915 819.4731,245.9104 Z " fill="#000000"/><text fill="#000000" font-family="sans-serif" font-size="14" lengthAdjust="spacing" textLength="32" x="831" y="247.781">Chat</text><line style="stroke:#181818;stroke-width:0.5;" x1="803" x2="865" y1="258.49" y2="258.49"/><line style="stroke:#181818;stroke-width:0.5;" x1="803" x2="865" y1="266.49" y2="266.49"/></g><!--class Domain--><g id="elem_Domain"><rect codeLine="38" fill="#F1F1F1" height="80.9766" id="Domain" rx="2.5" ry="2.5" style="stroke:#181818;stroke-width:0.5;" width="118" x="1154" y="585.98"/><ellipse cx="1183.85" cy="601.98" fill="#ADD1B2" rx="11" ry="11" style="stroke:#181818;stroke-width:1.0;"/><path d="M1186.3231,608.1231 Q1185.7421,608.4219 1185.1029,608.5713 Q1184.4638,608.7207 1183.7582,608.7207 Q1181.2514,608.7207 1179.9315,607.0689 Q1178.6117,605.417 1178.6117,602.2959 Q1178.6117,599.1665 1179.9315,597.5147 Q1181.2514,595.8628 1183.7582,595.8628 Q1184.4638,595.8628 1185.1112,596.0122 Q1185.7587,596.1616 1186.3231,596.4605 L1186.3231,599.1831 Q1185.6923,598.6021 1185.0988,598.3323 Q1184.5053,598.0625 1183.8744,598.0625 Q1182.5297,598.0625 1181.8449,599.1292 Q1181.1601,600.1958 1181.1601,602.2959 Q1181.1601,604.3877 1181.8449,605.4544 Q1182.5297,606.521 1183.8744,606.521 Q1184.5053,606.521 1185.0988,606.2512 Q1185.6923,605.9815 1186.3231,605.4004 Z " fill="#000000"/><text fill="#000000" font-family="sans-serif" font-size="14" lengthAdjust="spacing" textLength="53" x="1201.15" y="607.271">Domain</text><line style="stroke:#181818;stroke-width:0.5;" x1="1155" x2="1271" y1="617.98" y2="617.98"/><rect fill="none" height="6" style="stroke:#C82930;stroke-width:1.0;" width="6" x="1162" y="628.7241"/><text fill="#000000" font-family="sans-serif" font-size="14" lengthAdjust="spacing" textLength="50" x="1174" y="635.5152">version</text><rect fill="none" height="6" style="stroke:#C82930;stroke-width:1.0;" width="6" x="1162" y="645.2124"/><text fill="#000000" font-family="sans-serif" font-size="14" lengthAdjust="spacing" textLength="92" x="1174" y="652.0034">requirements</text><line style="stroke:#181818;stroke-width:0.5;" x1="1155" x2="1271" y1="658.9566" y2="658.9566"/></g><!--class Question--><g id="elem_Question"><rect codeLine="51" fill="#F1F1F1" height="64.4883" id="Question" rx="2.5" ry="2.5" style="stroke:#181818;stroke-width:0.5;" width="208" x="766" y="594.22"/><ellipse cx="834.75" cy="610.22" fill="#ADD1B2" rx="11" ry="11" style="stroke:#181818;stroke-width:1.0;"/><path d="M837.2231,616.3631 Q836.6421,616.6619 836.0029,616.8113 Q835.3638,616.9607 834.6582,616.9607 Q832.1514,616.9607 830.8315,615.3089 Q829.5117,613.657 829.5117,610.5359 Q829.5117,607.4065 830.8315,605.7547 Q832.1514,604.1028 834.6582,604.1028 Q835.3638,604.1028 836.0112,604.2522 Q836.6587,604.4016 837.2231,604.7005 L837.2231,607.4231 Q836.5923,606.8421 835.9988,606.5723 Q835.4053,606.3025 834.7744,606.3025 Q833.4297,606.3025 832.7449,607.3692 Q832.0601,608.4358 832.0601,610.5359 Q832.0601,612.6277 832.7449,613.6944 Q833.4297,614.761 834.7744,614.761 Q835.4053,614.761 835.9988,614.4912 Q836.5923,614.2215 837.2231,613.6404 Z " fill="#000000"/><text fill="#000000" font-family="sans-serif" font-size="14" lengthAdjust="spacing" textLength="62" x="855.25" y="615.511">Question</text><line style="stroke:#181818;stroke-width:0.5;" x1="767" x2="973" y1="626.22" y2="626.22"/><rect fill="none" height="6" style="stroke:#C82930;stroke-width:1.0;" width="6" x="774" y="636.9641"/><text fill="#000000" font-family="sans-serif" font-size="14" lengthAdjust="spacing" textLength="182" x="786" y="643.7552">statement : StatementType</text><line style="stroke:#181818;stroke-width:0.5;" x1="767" x2="973" y1="650.7083" y2="650.7083"/></g><!--class CompositeTopic--><g id="elem_CompositeTopic"><rect codeLine="33" fill="#F1F1F1" height="64.4883" id="CompositeTopic" rx="2.5" ry="2.5" style="stroke:#181818;stroke-width:0.5;" width="162" x="256" y="413.49"/><ellipse cx="279.1" cy="429.49" fill="#ADD1B2" rx="11" ry="11" style="stroke:#181818;stroke-width:1.0;"/><path d="M281.5731,435.6331 Q280.9921,435.9319 280.3529,436.0813 Q279.7138,436.2307 279.0082,436.2307 Q276.5014,436.2307 275.1815,434.5789 Q273.8617,432.927 273.8617,429.8059 Q273.8617,426.6765 275.1815,425.0247 Q276.5014,423.3728 279.0082,423.3728 Q279.7138,423.3728 280.3612,423.5222 Q281.0087,423.6716 281.5731,423.9705 L281.5731,426.6931 Q280.9423,426.1121 280.3488,425.8423 Q279.7553,425.5725 279.1244,425.5725 Q277.7797,425.5725 277.0949,426.6392 Q276.4101,427.7058 276.4101,429.8059 Q276.4101,431.8977 277.0949,432.9644 Q277.7797,434.031 279.1244,434.031 Q279.7553,434.031 280.3488,433.7612 Q280.9423,433.4915 281.5731,432.9104 Z " fill="#000000"/><text fill="#000000" font-family="sans-serif" font-size="14" lengthAdjust="spacing" textLength="112" x="294.9" y="434.781">CompositeTopic</text><line style="stroke:#181818;stroke-width:0.5;" x1="257" x2="417" y1="445.49" y2="445.49"/><rect fill="none" height="6" style="stroke:#C82930;stroke-width:1.0;" width="6" x="264" y="456.2341"/><text fill="#000000" font-family="sans-serif" font-size="14" lengthAdjust="spacing" textLength="136" x="276" y="463.0252">topics : List&lt;Topic&gt;</text><line style="stroke:#181818;stroke-width:0.5;" x1="257" x2="417" y1="469.9783" y2="469.9783"/></g><!--class SimpleTopic--><g id="elem_SimpleTopic"><rect codeLine="29" fill="#F1F1F1" height="48" id="SimpleTopic" rx="2.5" ry="2.5" style="stroke:#181818;stroke-width:0.5;" width="116" x="342" y="507.98"/><ellipse cx="357" cy="523.98" fill="#ADD1B2" rx="11" ry="11" style="stroke:#181818;stroke-width:1.0;"/><path d="M359.4731,530.1231 Q358.8921,530.4219 358.2529,530.5713 Q357.6138,530.7207 356.9082,530.7207 Q354.4014,530.7207 353.0815,529.0689 Q351.7617,527.417 351.7617,524.2959 Q351.7617,521.1665 353.0815,519.5147 Q354.4014,517.8628 356.9082,517.8628 Q357.6138,517.8628 358.2612,518.0122 Q358.9087,518.1616 359.4731,518.4605 L359.4731,521.1831 Q358.8423,520.6021 358.2488,520.3323 Q357.6553,520.0625 357.0244,520.0625 Q355.6797,520.0625 354.9949,521.1292 Q354.3101,522.1958 354.3101,524.2959 Q354.3101,526.3877 354.9949,527.4544 Q355.6797,528.521 357.0244,528.521 Q357.6553,528.521 358.2488,528.2512 Q358.8423,527.9815 359.4731,527.4004 Z " fill="#000000"/><text fill="#000000" font-family="sans-serif" font-size="14" lengthAdjust="spacing" textLength="84" x="371" y="529.271">SimpleTopic</text><line style="stroke:#181818;stroke-width:0.5;" x1="343" x2="457" y1="539.98" y2="539.98"/><line style="stroke:#181818;stroke-width:0.5;" x1="343" x2="457" y1="547.98" y2="547.98"/></g><!--class Multimedia--><g id="elem_Multimedia"><rect codeLine="93" fill="#F1F1F1" height="48" id="Multimedia" rx="2.5" ry="2.5" style="stroke:#181818;stroke-width:0.5;" width="108" x="524" y="421.73"/><ellipse cx="539" cy="437.73" fill="#ADD1B2" rx="11" ry="11" style="stroke:#181818;stroke-width:1.0;"/><path d="M541.4731,443.8731 Q540.8921,444.1719 540.2529,444.3213 Q539.6138,444.4707 538.9082,444.4707 Q536.4014,444.4707 535.0815,442.8189 Q533.7617,441.167 533.7617,438.0459 Q533.7617,434.9165 535.0815,433.2647 Q536.4014,431.6128 538.9082,431.6128 Q539.6138,431.6128 540.2612,431.7622 Q540.9087,431.9116 541.4731,432.2105 L541.4731,434.9331 Q540.8423,434.3521 540.2488,434.0823 Q539.6553,433.8125 539.0244,433.8125 Q537.6797,433.8125 536.9949,434.8792 Q536.3101,435.9458 536.3101,438.0459 Q536.3101,440.1377 536.9949,441.2044 Q537.6797,442.271 539.0244,442.271 Q539.6553,442.271 540.2488,442.0012 Q540.8423,441.7315 541.4731,441.1504 Z " fill="#000000"/><text fill="#000000" font-family="sans-serif" font-size="14" lengthAdjust="spacing" textLength="76" x="553" y="443.021">Multimedia</text><line style="stroke:#181818;stroke-width:0.5;" x1="525" x2="631" y1="453.73" y2="453.73"/><line style="stroke:#181818;stroke-width:0.5;" x1="525" x2="631" y1="461.73" y2="461.73"/></g><!--class Concept--><g id="elem_Concept"><rect codeLine="79" fill="#F1F1F1" height="48" id="Concept" rx="2.5" ry="2.5" style="stroke:#181818;stroke-width:0.5;" width="89" x="361.5" y="935.39"/><ellipse cx="376.5" cy="951.39" fill="#ADD1B2" rx="11" ry="11" style="stroke:#181818;stroke-width:1.0;"/><path d="M378.9731,957.5331 Q378.3921,957.8319 377.7529,957.9813 Q377.1138,958.1307 376.4082,958.1307 Q373.9014,958.1307 372.5815,956.4789 Q371.2617,954.827 371.2617,951.7059 Q371.2617,948.5765 372.5815,946.9247 Q373.9014,945.2728 376.4082,945.2728 Q377.1138,945.2728 377.7612,945.4222 Q378.4087,945.5716 378.9731,945.8705 L378.9731,948.5931 Q378.3423,948.0121 377.7488,947.7423 Q377.1553,947.4725 376.5244,947.4725 Q375.1797,947.4725 374.4949,948.5392 Q373.8101,949.6058 373.8101,951.7059 Q373.8101,953.7977 374.4949,954.8644 Q375.1797,955.931 376.5244,955.931 Q377.1553,955.931 377.7488,955.6612 Q378.3423,955.3915 378.9731,954.8104 Z " fill="#000000"/><text fill="#000000" font-family="sans-serif" font-size="14" lengthAdjust="spacing" textLength="57" x="390.5" y="956.681">Concept</text><line style="stroke:#181818;stroke-width:0.5;" x1="362.5" x2="449.5" y1="967.39" y2="967.39"/><line style="stroke:#181818;stroke-width:0.5;" x1="362.5" x2="449.5" y1="975.39" y2="975.39"/></g><!--class Application--><g id="elem_Application"><rect codeLine="45" fill="#F1F1F1" height="80.9766" id="Application" rx="2.5" ry="2.5" style="stroke:#181818;stroke-width:0.5;" width="156" x="1135" y="752.68"/><ellipse cx="1170.7" cy="768.68" fill="#ADD1B2" rx="11" ry="11" style="stroke:#181818;stroke-width:1.0;"/><path d="M1173.1731,774.8231 Q1172.5921,775.1219 1171.9529,775.2713 Q1171.3138,775.4207 1170.6082,775.4207 Q1168.1014,775.4207 1166.7815,773.7689 Q1165.4617,772.117 1165.4617,768.9959 Q1165.4617,765.8665 1166.7815,764.2147 Q1168.1014,762.5628 1170.6082,762.5628 Q1171.3138,762.5628 1171.9612,762.7122 Q1172.6087,762.8616 1173.1731,763.1605 L1173.1731,765.8831 Q1172.5423,765.3021 1171.9488,765.0323 Q1171.3553,764.7625 1170.7244,764.7625 Q1169.3797,764.7625 1168.6949,765.8292 Q1168.0101,766.8958 1168.0101,768.9959 Q1168.0101,771.0877 1168.6949,772.1544 Q1169.3797,773.221 1170.7244,773.221 Q1171.3553,773.221 1171.9488,772.9512 Q1172.5423,772.6815 1173.1731,772.1004 Z " fill="#000000"/><text fill="#000000" font-family="sans-serif" font-size="14" lengthAdjust="spacing" textLength="78" x="1189.3" y="773.971">Application</text><line style="stroke:#181818;stroke-width:0.5;" x1="1136" x2="1290" y1="784.68" y2="784.68"/><rect fill="none" height="6" style="stroke:#C82930;stroke-width:1.0;" width="6" x="1143" y="795.4241"/><text fill="#000000" font-family="sans-serif" font-size="14" lengthAdjust="spacing" textLength="116" x="1155" y="802.2152">correct : boolean</text><rect fill="none" height="6" style="stroke:#C82930;stroke-width:1.0;" width="6" x="1143" y="811.9124"/><text fill="#000000" font-family="sans-serif" font-size="14" lengthAdjust="spacing" textLength="130" x="1155" y="818.7034">evaluated: boolean</text><line style="stroke:#181818;stroke-width:0.5;" x1="1136" x2="1290" y1="825.6566" y2="825.6566"/></g><!--class Solution--><g id="elem_Solution"><rect codeLine="101" fill="#F1F1F1" height="80.9766" id="Solution" rx="2.5" ry="2.5" style="stroke:#181818;stroke-width:0.5;" width="158" x="1326" y="752.68"/><ellipse cx="1372.25" cy="768.68" fill="#ADD1B2" rx="11" ry="11" style="stroke:#181818;stroke-width:1.0;"/><path d="M1374.7231,774.8231 Q1374.1421,775.1219 1373.5029,775.2713 Q1372.8638,775.4207 1372.1582,775.4207 Q1369.6514,775.4207 1368.3315,773.7689 Q1367.0117,772.117 1367.0117,768.9959 Q1367.0117,765.8665 1368.3315,764.2147 Q1369.6514,762.5628 1372.1582,762.5628 Q1372.8638,762.5628 1373.5112,762.7122 Q1374.1587,762.8616 1374.7231,763.1605 L1374.7231,765.8831 Q1374.0923,765.3021 1373.4988,765.0323 Q1372.9053,764.7625 1372.2744,764.7625 Q1370.9297,764.7625 1370.2449,765.8292 Q1369.5601,766.8958 1369.5601,768.9959 Q1369.5601,771.0877 1370.2449,772.1544 Q1370.9297,773.221 1372.2744,773.221 Q1372.9053,773.221 1373.4988,772.9512 Q1374.0923,772.6815 1374.7231,772.1004 Z " fill="#000000"/><text fill="#000000" font-family="sans-serif" font-size="14" lengthAdjust="spacing" textLength="57" x="1392.75" y="773.971">Solution</text><line style="stroke:#181818;stroke-width:0.5;" x1="1327" x2="1483" y1="784.68" y2="784.68"/><rect fill="none" height="6" style="stroke:#C82930;stroke-width:1.0;" width="6" x="1334" y="795.4241"/><text fill="#000000" font-family="sans-serif" font-size="14" lengthAdjust="spacing" textLength="116" x="1346" y="802.2152">correct : boolean</text><rect fill="none" height="6" style="stroke:#C82930;stroke-width:1.0;" width="6" x="1334" y="811.9124"/><text fill="#000000" font-family="sans-serif" font-size="14" lengthAdjust="spacing" textLength="132" x="1346" y="818.7034">type: QuestionType</text><line style="stroke:#181818;stroke-width:0.5;" x1="1327" x2="1483" y1="825.6566" y2="825.6566"/></g><!--class Answer--><g id="elem_Answer"><rect codeLine="107" fill="#F1F1F1" height="80.9766" id="Answer" rx="2.5" ry="2.5" style="stroke:#181818;stroke-width:0.5;" width="160" x="608" y="752.68"/><ellipse cx="658.25" cy="768.68" fill="#ADD1B2" rx="11" ry="11" style="stroke:#181818;stroke-width:1.0;"/><path d="M660.7231,774.8231 Q660.1421,775.1219 659.5029,775.2713 Q658.8638,775.4207 658.1582,775.4207 Q655.6514,775.4207 654.3315,773.7689 Q653.0117,772.117 653.0117,768.9959 Q653.0117,765.8665 654.3315,764.2147 Q655.6514,762.5628 658.1582,762.5628 Q658.8638,762.5628 659.5112,762.7122 Q660.1587,762.8616 660.7231,763.1605 L660.7231,765.8831 Q660.0923,765.3021 659.4988,765.0323 Q658.9053,764.7625 658.2744,764.7625 Q656.9297,764.7625 656.2449,765.8292 Q655.5601,766.8958 655.5601,768.9959 Q655.5601,771.0877 656.2449,772.1544 Q656.9297,773.221 658.2744,773.221 Q658.9053,773.221 659.4988,772.9512 Q660.0923,772.6815 660.7231,772.1004 Z " fill="#000000"/><text fill="#000000" font-family="sans-serif" font-size="14" lengthAdjust="spacing" textLength="51" x="678.75" y="773.971">Answer</text><line style="stroke:#181818;stroke-width:0.5;" x1="609" x2="767" y1="784.68" y2="784.68"/><rect fill="none" height="6" style="stroke:#C82930;stroke-width:1.0;" width="6" x="616" y="795.4241"/><text fill="#000000" font-family="sans-serif" font-size="14" lengthAdjust="spacing" textLength="116" x="628" y="802.2152">correct : boolean</text><rect fill="none" height="6" style="stroke:#C82930;stroke-width:1.0;" width="6" x="616" y="811.9124"/><text fill="#000000" font-family="sans-serif" font-size="14" lengthAdjust="spacing" textLength="134" x="628" y="818.7034">evaluated : boolean</text><line style="stroke:#181818;stroke-width:0.5;" x1="609" x2="767" y1="825.6566" y2="825.6566"/></g><!--class StatementType--><g id="elem_StatementType"><rect codeLine="66" fill="#F1F1F1" height="113.9531" id="StatementType" rx="2.5" ry="2.5" style="stroke:#181818;stroke-width:0.5;" width="134" x="803" y="736.2"/><ellipse cx="818" cy="752.2" fill="#EB937F" rx="11" ry="11" style="stroke:#181818;stroke-width:1.0;"/><path d="M821.6143,758.7 L813.8945,758.7 L813.8945,746.3069 L821.6143,746.3069 L821.6143,748.4651 L816.3433,748.4651 L816.3433,751.138 L821.1162,751.138 L821.1162,753.2962 L816.3433,753.2962 L816.3433,756.5418 L821.6143,756.5418 Z " fill="#000000"/><text fill="#000000" font-family="sans-serif" font-size="14" lengthAdjust="spacing" textLength="102" x="832" y="757.491">StatementType</text><line style="stroke:#181818;stroke-width:0.5;" x1="804" x2="936" y1="768.2" y2="768.2"/><text fill="#000000" font-family="sans-serif" font-size="14" lengthAdjust="spacing" textLength="68" x="809" y="785.7352">ClozeTest</text><text fill="#000000" font-family="sans-serif" font-size="14" lengthAdjust="spacing" textLength="67" x="809" y="802.2234">Definition</text><text fill="#000000" font-family="sans-serif" font-size="14" lengthAdjust="spacing" textLength="56" x="809" y="818.7117">Relation</text><text fill="#000000" font-family="sans-serif" font-size="14" lengthAdjust="spacing" textLength="119" x="809" y="835.2">JustifyApplication</text><line style="stroke:#181818;stroke-width:0.5;" x1="804" x2="936" y1="842.1531" y2="842.1531"/></g><!--class QuestionType--><g id="elem_QuestionType"><rect codeLine="61" fill="#F1F1F1" height="97.4648" id="QuestionType" rx="2.5" ry="2.5" style="stroke:#181818;stroke-width:0.5;" width="127" x="972.5" y="744.44"/><ellipse cx="987.5" cy="760.44" fill="#EB937F" rx="11" ry="11" style="stroke:#181818;stroke-width:1.0;"/><path d="M991.1143,766.94 L983.3945,766.94 L983.3945,754.5469 L991.1143,754.5469 L991.1143,756.7051 L985.8433,756.7051 L985.8433,759.378 L990.6162,759.378 L990.6162,761.5362 L985.8433,761.5362 L985.8433,764.7818 L991.1143,764.7818 Z " fill="#000000"/><text fill="#000000" font-family="sans-serif" font-size="14" lengthAdjust="spacing" textLength="95" x="1001.5" y="765.731">QuestionType</text><line style="stroke:#181818;stroke-width:0.5;" x1="973.5" x2="1098.5" y1="776.44" y2="776.44"/><text fill="#000000" font-family="sans-serif" font-size="14" lengthAdjust="spacing" textLength="37" x="978.5" y="793.9752">Open</text><text fill="#000000" font-family="sans-serif" font-size="14" lengthAdjust="spacing" textLength="102" x="978.5" y="810.4634">MultipleChoice</text><text fill="#000000" font-family="sans-serif" font-size="14" lengthAdjust="spacing" textLength="114" x="978.5" y="826.9517">ApplicationCode</text><line style="stroke:#181818;stroke-width:0.5;" x1="973.5" x2="1098.5" y1="833.9048" y2="833.9048"/></g><!--class Text--><g id="elem_Text"><rect codeLine="74" fill="#F1F1F1" height="64.4883" id="Text" rx="2.5" ry="2.5" style="stroke:#181818;stroke-width:0.5;" width="75" x="426.5" y="760.93"/><ellipse cx="446.9" cy="776.93" fill="#ADD1B2" rx="11" ry="11" style="stroke:#181818;stroke-width:1.0;"/><path d="M449.3731,783.0731 Q448.7921,783.3719 448.1529,783.5213 Q447.5138,783.6707 446.8082,783.6707 Q444.3014,783.6707 442.9815,782.0189 Q441.6617,780.367 441.6617,777.2459 Q441.6617,774.1165 442.9815,772.4647 Q444.3014,770.8128 446.8082,770.8128 Q447.5138,770.8128 448.1612,770.9622 Q448.8087,771.1116 449.3731,771.4105 L449.3731,774.1331 Q448.7423,773.5521 448.1488,773.2823 Q447.5553,773.0125 446.9244,773.0125 Q445.5797,773.0125 444.8949,774.0792 Q444.2101,775.1458 444.2101,777.2459 Q444.2101,779.3377 444.8949,780.4044 Q445.5797,781.471 446.9244,781.471 Q447.5553,781.471 448.1488,781.2012 Q448.7423,780.9315 449.3731,780.3504 Z " fill="#000000"/><text fill="#000000" font-family="sans-serif" font-size="14" lengthAdjust="spacing" textLength="31" x="462.1" y="782.221">Text</text><line style="stroke:#181818;stroke-width:0.5;" x1="427.5" x2="500.5" y1="792.93" y2="792.93"/><rect fill="none" height="6" style="stroke:#C82930;stroke-width:1.0;" width="6" x="434.5" y="803.6741"/><text fill="#000000" font-family="sans-serif" font-size="14" lengthAdjust="spacing" textLength="49" x="446.5" y="810.4652">images</text><line style="stroke:#181818;stroke-width:0.5;" x1="427.5" x2="500.5" y1="817.4183" y2="817.4183"/></g><!--class Definition--><g id="elem_Definition"><rect codeLine="127" fill="#F1F1F1" height="64.4883" id="Definition" rx="2.5" ry="2.5" style="stroke:#181818;stroke-width:0.5;" width="142" x="421" y="1060.39"/><ellipse cx="455.35" cy="1076.39" fill="#ADD1B2" rx="11" ry="11" style="stroke:#181818;stroke-width:1.0;"/><path d="M457.8231,1082.5331 Q457.2421,1082.8319 456.6029,1082.9813 Q455.9638,1083.1307 455.2582,1083.1307 Q452.7514,1083.1307 451.4315,1081.4789 Q450.1117,1079.827 450.1117,1076.7059 Q450.1117,1073.5765 451.4315,1071.9247 Q452.7514,1070.2728 455.2582,1070.2728 Q455.9638,1070.2728 456.6112,1070.4222 Q457.2587,1070.5716 457.8231,1070.8705 L457.8231,1073.5931 Q457.1923,1073.0121 456.5988,1072.7423 Q456.0053,1072.4725 455.3744,1072.4725 Q454.0297,1072.4725 453.3449,1073.5392 Q452.6601,1074.6058 452.6601,1076.7059 Q452.6601,1078.7977 453.3449,1079.8644 Q454.0297,1080.931 455.3744,1080.931 Q456.0053,1080.931 456.5988,1080.6612 Q457.1923,1080.3915 457.8231,1079.8104 Z " fill="#000000"/><text fill="#000000" font-family="sans-serif" font-size="14" lengthAdjust="spacing" textLength="67" x="473.65" y="1081.681">Definition</text><line style="stroke:#181818;stroke-width:0.5;" x1="422" x2="562" y1="1092.39" y2="1092.39"/><rect fill="none" height="6" style="stroke:#C82930;stroke-width:1.0;" width="6" x="429" y="1103.1341"/><text fill="#000000" font-family="sans-serif" font-size="14" lengthAdjust="spacing" textLength="116" x="441" y="1109.9252">correct : boolean</text><line style="stroke:#181818;stroke-width:0.5;" x1="422" x2="562" y1="1116.8783" y2="1116.8783"/></g><!--class Relation--><g id="elem_Relation"><rect codeLine="112" fill="#F1F1F1" height="64.4883" id="Relation" rx="2.5" ry="2.5" style="stroke:#181818;stroke-width:0.5;" width="156" x="7" y="760.93"/><ellipse cx="52.75" cy="776.93" fill="#ADD1B2" rx="11" ry="11" style="stroke:#181818;stroke-width:1.0;"/><path d="M55.2231,783.0731 Q54.6421,783.3719 54.0029,783.5213 Q53.3638,783.6707 52.6582,783.6707 Q50.1514,783.6707 48.8315,782.0189 Q47.5117,780.367 47.5117,777.2459 Q47.5117,774.1165 48.8315,772.4647 Q50.1514,770.8128 52.6582,770.8128 Q53.3638,770.8128 54.0112,770.9622 Q54.6587,771.1116 55.2231,771.4105 L55.2231,774.1331 Q54.5923,773.5521 53.9988,773.2823 Q53.4053,773.0125 52.7744,773.0125 Q51.4297,773.0125 50.7449,774.0792 Q50.0601,775.1458 50.0601,777.2459 Q50.0601,779.3377 50.7449,780.4044 Q51.4297,781.471 52.7744,781.471 Q53.4053,781.471 53.9988,781.2012 Q54.5923,780.9315 55.2231,780.3504 Z " fill="#000000"/><text fill="#000000" font-family="sans-serif" font-size="14" lengthAdjust="spacing" textLength="56" x="73.25" y="782.221">Relation</text><line style="stroke:#181818;stroke-width:0.5;" x1="8" x2="162" y1="792.93" y2="792.93"/><rect fill="none" height="6" style="stroke:#C82930;stroke-width:1.0;" width="6" x="15" y="803.6741"/><text fill="#000000" font-family="sans-serif" font-size="14" lengthAdjust="spacing" textLength="130" x="27" y="810.4652">type : RelationType</text><line style="stroke:#181818;stroke-width:0.5;" x1="8" x2="162" y1="817.4183" y2="817.4183"/></g><!--class Justification--><g id="elem_Justification"><rect codeLine="89" fill="#F1F1F1" height="64.4883" id="Justification" rx="2.5" ry="2.5" style="stroke:#181818;stroke-width:0.5;" width="142" x="746" y="1201.88"/><ellipse cx="774.5" cy="1217.88" fill="#ADD1B2" rx="11" ry="11" style="stroke:#181818;stroke-width:1.0;"/><path d="M776.9731,1224.0231 Q776.3921,1224.3219 775.7529,1224.4713 Q775.1138,1224.6207 774.4082,1224.6207 Q771.9014,1224.6207 770.5815,1222.9689 Q769.2617,1221.317 769.2617,1218.1959 Q769.2617,1215.0665 770.5815,1213.4147 Q771.9014,1211.7628 774.4082,1211.7628 Q775.1138,1211.7628 775.7612,1211.9122 Q776.4087,1212.0616 776.9731,1212.3605 L776.9731,1215.0831 Q776.3423,1214.5021 775.7488,1214.2323 Q775.1553,1213.9625 774.5244,1213.9625 Q773.1797,1213.9625 772.4949,1215.0292 Q771.8101,1216.0958 771.8101,1218.1959 Q771.8101,1220.2877 772.4949,1221.3544 Q773.1797,1222.421 774.5244,1222.421 Q775.1553,1222.421 775.7488,1222.1512 Q776.3423,1221.8815 776.9731,1221.3004 Z " fill="#000000"/><text fill="#000000" font-family="sans-serif" font-size="14" lengthAdjust="spacing" textLength="80" x="791.5" y="1223.171">Justification</text><line style="stroke:#181818;stroke-width:0.5;" x1="747" x2="887" y1="1233.88" y2="1233.88"/><rect fill="none" height="6" style="stroke:#C82930;stroke-width:1.0;" width="6" x="754" y="1244.6241"/><text fill="#000000" font-family="sans-serif" font-size="14" lengthAdjust="spacing" textLength="116" x="766" y="1251.4152">correct : boolean</text><line style="stroke:#181818;stroke-width:0.5;" x1="747" x2="887" y1="1258.3683" y2="1258.3683"/></g><!--class Podcast--><g id="elem_Podcast"><rect fill="#F1F1F1" height="48" id="Podcast" rx="2.5" ry="2.5" style="stroke:#181818;stroke-width:0.5;" width="85" x="602.5" y="602.46"/><ellipse cx="617.5" cy="618.46" fill="#ADD1B2" rx="11" ry="11" style="stroke:#181818;stroke-width:1.0;"/><path d="M619.9731,624.6031 Q619.3921,624.9019 618.7529,625.0513 Q618.1138,625.2007 617.4082,625.2007 Q614.9014,625.2007 613.5815,623.5489 Q612.2617,621.897 612.2617,618.7759 Q612.2617,615.6465 613.5815,613.9947 Q614.9014,612.3428 617.4082,612.3428 Q618.1138,612.3428 618.7612,612.4922 Q619.4087,612.6416 619.9731,612.9405 L619.9731,615.6631 Q619.3423,615.0821 618.7488,614.8123 Q618.1553,614.5425 617.5244,614.5425 Q616.1797,614.5425 615.4949,615.6092 Q614.8101,616.6758 614.8101,618.7759 Q614.8101,620.8677 615.4949,621.9344 Q616.1797,623.001 617.5244,623.001 Q618.1553,623.001 618.7488,622.7312 Q619.3423,622.4615 619.9731,621.8804 Z " fill="#000000"/><text fill="#000000" font-family="sans-serif" font-size="14" lengthAdjust="spacing" textLength="53" x="631.5" y="623.751">Podcast</text><line style="stroke:#181818;stroke-width:0.5;" x1="603.5" x2="686.5" y1="634.46" y2="634.46"/><line style="stroke:#181818;stroke-width:0.5;" x1="603.5" x2="686.5" y1="642.46" y2="642.46"/></g><!--class Video--><g id="elem_Video"><rect fill="#F1F1F1" height="48" id="Video" rx="2.5" ry="2.5" style="stroke:#181818;stroke-width:0.5;" width="71" x="425.5" y="602.46"/><ellipse cx="440.5" cy="618.46" fill="#ADD1B2" rx="11" ry="11" style="stroke:#181818;stroke-width:1.0;"/><path d="M442.9731,624.6031 Q442.3921,624.9019 441.7529,625.0513 Q441.1138,625.2007 440.4082,625.2007 Q437.9014,625.2007 436.5815,623.5489 Q435.2617,621.897 435.2617,618.7759 Q435.2617,615.6465 436.5815,613.9947 Q437.9014,612.3428 440.4082,612.3428 Q441.1138,612.3428 441.7612,612.4922 Q442.4087,612.6416 442.9731,612.9405 L442.9731,615.6631 Q442.3423,615.0821 441.7488,614.8123 Q441.1553,614.5425 440.5244,614.5425 Q439.1797,614.5425 438.4949,615.6092 Q437.8101,616.6758 437.8101,618.7759 Q437.8101,620.8677 438.4949,621.9344 Q439.1797,623.001 440.5244,623.001 Q441.1553,623.001 441.7488,622.7312 Q442.3423,622.4615 442.9731,621.8804 Z " fill="#000000"/><text fill="#000000" font-family="sans-serif" font-size="14" lengthAdjust="spacing" textLength="39" x="454.5" y="623.751">Video</text><line style="stroke:#181818;stroke-width:0.5;" x1="426.5" x2="495.5" y1="634.46" y2="634.46"/><line style="stroke:#181818;stroke-width:0.5;" x1="426.5" x2="495.5" y1="642.46" y2="642.46"/></g><!--class RelationType--><g id="elem_RelationType"><rect codeLine="119" fill="#F1F1F1" height="130.4414" id="RelationType" rx="2.5" ry="2.5" style="stroke:#181818;stroke-width:0.5;" width="121" x="198.5" y="727.95"/><ellipse cx="213.5" cy="743.95" fill="#EB937F" rx="11" ry="11" style="stroke:#181818;stroke-width:1.0;"/><path d="M217.1143,750.45 L209.3945,750.45 L209.3945,738.0569 L217.1143,738.0569 L217.1143,740.2151 L211.8433,740.2151 L211.8433,742.888 L216.6162,742.888 L216.6162,745.0462 L211.8433,745.0462 L211.8433,748.2918 L217.1143,748.2918 Z " fill="#000000"/><text fill="#000000" font-family="sans-serif" font-size="14" lengthAdjust="spacing" textLength="89" x="227.5" y="749.241">RelationType</text><line style="stroke:#181818;stroke-width:0.5;" x1="199.5" x2="318.5" y1="759.95" y2="759.95"/><text fill="#000000" font-family="sans-serif" font-size="14" lengthAdjust="spacing" textLength="25" x="204.5" y="777.4852">Use</text><text fill="#000000" font-family="sans-serif" font-size="14" lengthAdjust="spacing" textLength="79" x="204.5" y="793.9734">Association</text><text fill="#000000" font-family="sans-serif" font-size="14" lengthAdjust="spacing" textLength="88" x="204.5" y="810.4617">Composition</text><text fill="#000000" font-family="sans-serif" font-size="14" lengthAdjust="spacing" textLength="77" x="204.5" y="826.95">Inheritance</text><text fill="#000000" font-family="sans-serif" font-size="14" lengthAdjust="spacing" textLength="86" x="204.5" y="843.4383">Aggregation</text><line style="stroke:#181818;stroke-width:0.5;" x1="199.5" x2="318.5" y1="850.3914" y2="850.3914"/></g><!--link EducationPlatform to Teacher--><g id="link_EducationPlatform_Teacher"><path codeLine="5" d="M568.822,60.3215 C525.312,80.2715 472.25,104.95 417,132 C411.44,134.72 410.9853,134.9144 405.2453,137.8144 " fill="none" id="EducationPlatform-Teacher" style="stroke:#181818;stroke-width:1.0;"/><polygon fill="#181818" points="579.73,55.32,572.6088,54.1847,568.822,60.3215,575.9432,61.4568,579.73,55.32" style="stroke:#181818;stroke-width:1.0;"/><polygon fill="#181818" points="399.89,140.52,409.7267,140.0317,404.3528,138.2653,406.1192,132.8913,399.89,140.52" style="stroke:#181818;stroke-width:1.0;"/><text fill="#000000" font-family="sans-serif" font-size="13" lengthAdjust="spacing" textLength="10" x="407.3763" y="133.3316">+</text></g><!--link EducationPlatform to Student--><g id="link_EducationPlatform_Student"><path codeLine="6" d="M578.5943,61.7197 C564.7043,70.2497 559.77,74.2 547,85 C527.51,101.47 512.1899,118.6704 498.8699,135.0904 " fill="none" id="EducationPlatform-Student" style="stroke:#181818;stroke-width:1.0;"/><polygon fill="#181818" points="588.82,55.44,581.6139,55.1713,578.5943,61.7197,585.8004,61.9884,588.82,55.44" style="stroke:#181818;stroke-width:1.0;"/><polygon fill="#181818" points="495.09,139.75,503.8663,135.2805,498.2399,135.867,497.6535,130.2406,495.09,139.75" style="stroke:#181818;stroke-width:1.0;"/><text fill="#000000" font-family="sans-serif" font-size="13" lengthAdjust="spacing" textLength="10" x="488.2807" y="129.5586">+</text></g><!--link EducationPlatform to Topic--><g id="link_EducationPlatform_Topic"><path codeLine="7" d="M616.404,66.2287 C592.914,121.3287 540.9932,243.0807 517.3732,298.4807 " fill="none" id="EducationPlatform-Topic" style="stroke:#181818;stroke-width:1.0;"/><polygon fill="#181818" points="621.11,55.19,615.0774,59.1407,616.404,66.2287,622.4366,62.278,621.11,55.19" style="stroke:#181818;stroke-width:1.0;"/><polygon fill="#181818" points="515.02,304,522.2293,297.2898,516.981,299.4006,514.8702,294.1523,515.02,304" style="stroke:#181818;stroke-width:1.0;"/></g><!--link EducationPlatform to Itinerary--><g id="link_EducationPlatform_Itinerary"><path codeLine="8" d="M666.7151,63.9152 C675.1451,72.4452 675.28,74.14 681,85 C688.58,99.39 691.8639,111.0419 694.1839,125.8919 " fill="none" id="EducationPlatform-Itinerary" style="stroke:#181818;stroke-width:1.0;"/><polygon fill="#181818" points="658.28,55.38,659.6525,62.4593,666.7151,63.9152,665.3426,56.8359,658.28,55.38" style="stroke:#181818;stroke-width:1.0;"/><polygon fill="#181818" points="695.11,131.82,697.6729,122.3104,694.3382,126.8799,689.7687,123.5453,695.11,131.82" style="stroke:#181818;stroke-width:1.0;"/><text fill="#000000" font-family="sans-serif" font-size="13" lengthAdjust="spacing" textLength="67" x="689" y="98.5684">predefined</text></g><!--link EducationPlatform to Itinerary--><g id="link_EducationPlatform_Itinerary"><path codeLine="9" d="M619.8086,67.0439 C616.2386,81.1639 617.19,87.52 624,102 C629.32,113.32 633.3976,119.2715 642.8376,127.6715 " fill="none" id="EducationPlatform-Itinerary-1" style="stroke:#181818;stroke-width:1.0;"/><polygon fill="none" points="622.75,55.41,617.4013,60.2465,619.8086,67.0439,625.1573,62.2074,622.75,55.41" style="stroke:#181818;stroke-width:1.0;"/><polygon fill="#181818" points="647.32,131.66,643.2555,122.6889,643.5847,128.3362,637.9374,128.6654,647.32,131.66" style="stroke:#181818;stroke-width:1.0;"/><text fill="#000000" font-family="sans-serif" font-size="13" lengthAdjust="spacing" textLength="47" x="625" y="98.5684">custom</text><text fill="#000000" font-family="sans-serif" font-size="13" lengthAdjust="spacing" textLength="6" x="630.7518" y="121.3674">*</text></g><!--link EducationPlatform to Chat--><g id="link_EducationPlatform_Chat"><path codeLine="10" d="M721.6029,56.5837 C741.1429,64.3937 749.69,70.6 765,85 C806.17,123.72 822.5856,184.9344 829.2656,220.2744 " fill="none" id="EducationPlatform-Chat" style="stroke:#181818;stroke-width:1.0;"/><polygon fill="none" points="710.46,52.13,714.5469,58.0712,721.6029,56.5837,717.516,50.6426,710.46,52.13" style="stroke:#181818;stroke-width:1.0;"/><polygon fill="#181818" points="830.38,226.17,832.6388,216.5837,829.4513,221.257,824.778,218.0695,830.38,226.17" style="stroke:#181818;stroke-width:1.0;"/></g><!--link EducationPlatform to Domain--><g id="link_EducationPlatform_Domain"><path codeLine="11" d="M722.3767,38.1418 C803.9167,47.8018 907,75.56 907,163.24 C907,163.24 907,163.24 907,446.73 C907,559.78 1058.7354,601.6111 1147.7254,616.7911 " fill="none" id="EducationPlatform-Domain" style="stroke:#181818;stroke-width:1.0;"/><polygon fill="none" points="710.46,36.73,715.9477,41.4081,722.3767,38.1418,716.8889,33.4637,710.46,36.73" style="stroke:#181818;stroke-width:1.0;"/><polygon fill="#181818" points="1153.64,617.8,1145.4408,612.3436,1148.7112,616.9592,1144.0955,620.2297,1153.64,617.8" style="stroke:#181818;stroke-width:1.0;"/></g><!--link Chat to Question--><g id="link_Chat_Question"><path codeLine="16" d="M837.4001,286.8248 C843.6201,351.4248 859.3152,514.4376 866.3852,587.8976 " fill="none" id="Chat-Question" style="stroke:#181818;stroke-width:1.0;"/><polygon fill="none" points="836.25,274.88,832.8435,281.2357,837.4001,286.8248,840.8066,280.469,836.25,274.88" style="stroke:#181818;stroke-width:1.0;"/><polygon fill="#181818" points="866.96,593.87,870.0794,584.5282,866.481,588.893,862.1162,585.2946,866.96,593.87" style="stroke:#181818;stroke-width:1.0;"/><text fill="#000000" font-family="sans-serif" font-size="13" lengthAdjust="spacing" textLength="10" x="855.3771" y="583.5754">+</text></g><!--link Itinerary to Topic--><g id="link_Itinerary_Topic"><path codeLine="21" d="M666.3533,206.3061 C647.6133,229.5761 627.6,251.64 599,274.49 C580.99,288.87 563.9332,298.9404 545.5132,308.3504 " fill="none" id="Itinerary-Topic" style="stroke:#181818;stroke-width:1.0;"/><polygon fill="none" points="673.88,196.96,667.0013,199.1242,666.3533,206.3061,673.232,204.1419,673.88,196.96" style="stroke:#181818;stroke-width:1.0;"/><polygon fill="#181818" points="540.17,311.08,550.0045,310.5477,544.6226,308.8053,546.365,303.4235,540.17,311.08" style="stroke:#181818;stroke-width:1.0;"/><text fill="#000000" font-family="sans-serif" font-size="13" lengthAdjust="spacing" textLength="10" x="548.0785" y="303.7748">+</text></g><!--reverse link Topic to CompositeTopic--><g id="link_Topic_CompositeTopic"><path codeLine="25" d="M454.1991,356.5408 C425.2191,374.0308 400.45,391.83 371.7,413.02 " fill="none" id="Topic-backto-CompositeTopic" style="stroke:#181818;stroke-width:1.0;stroke-dasharray:7.0,7.0;"/><polygon fill="none" points="469.61,347.24,451.0989,351.4038,457.2994,361.6777,469.61,347.24" style="stroke:#181818;stroke-width:1.0;"/></g><!--link CompositeTopic to Topic--><g id="link_CompositeTopic_Topic"><path codeLine="36" d="M405.3519,406.6887 C435.2119,387.6087 454.8172,373.8321 477.3472,356.4721 " fill="none" id="CompositeTopic-Topic" style="stroke:#181818;stroke-width:1.0;"/><polygon fill="none" points="395.24,413.15,402.4497,413.29,405.3519,406.6887,398.1422,406.5487,395.24,413.15" style="stroke:#181818;stroke-width:1.0;"/><polygon fill="#181818" points="482.1,352.81,472.5294,355.1347,478.1394,355.8618,477.4123,361.4717,482.1,352.81" style="stroke:#181818;stroke-width:1.0;"/><text fill="#000000" font-family="sans-serif" font-size="13" lengthAdjust="spacing" textLength="10" x="465.2994" y="373.1723">+</text></g><!--reverse link Topic to SimpleTopic--><g id="link_Topic_SimpleTopic"><path codeLine="26" d="M488.1282,369.4484 C475.4182,399.1484 459.09,435.12 435,477.98 C429.38,487.97 422.55,498.59 416.42,507.68 " fill="none" id="Topic-backto-SimpleTopic" style="stroke:#181818;stroke-width:1.0;stroke-dasharray:7.0,7.0;"/><polygon fill="none" points="495.21,352.9,482.6121,367.0878,493.6443,371.809,495.21,352.9" style="stroke:#181818;stroke-width:1.0;"/></g><!--link Topic to Multimedia--><g id="link_Topic_Multimedia"><path codeLine="27" d="M526.1941,362.9456 C538.8641,382.9356 547.3786,396.3918 560.0386,416.3718 " fill="none" id="Topic-Multimedia" style="stroke:#181818;stroke-width:1.0;"/><polygon fill="none" points="519.77,352.81,519.6035,360.0192,526.1941,362.9456,526.3606,355.7364,519.77,352.81" style="stroke:#181818;stroke-width:1.0;"/><polygon fill="#181818" points="563.25,421.44,561.8117,411.6967,560.5738,417.2165,555.0541,415.9786,563.25,421.44" style="stroke:#181818;stroke-width:1.0;"/><text fill="#000000" font-family="sans-serif" font-size="13" lengthAdjust="spacing" textLength="10" x="548.1891" y="410.902">+</text></g><!--link SimpleTopic to Concept--><g id="link_SimpleTopic_Concept"><path codeLine="31" d="M400.4994,568.4488 C401.5494,642.8288 404.5352,854.7106 405.5852,928.9906 " fill="none" id="SimpleTopic-Concept" style="stroke:#181818;stroke-width:1.0;"/><polygon fill="none" points="400.33,556.45,396.4151,562.5059,400.4994,568.4488,404.4143,562.3929,400.33,556.45" style="stroke:#181818;stroke-width:1.0;"/><polygon fill="#181818" points="405.67,934.99,409.5424,925.9344,405.5993,929.9905,401.5432,926.0474,405.67,934.99" style="stroke:#181818;stroke-width:1.0;"/><text fill="#000000" font-family="sans-serif" font-size="13" lengthAdjust="spacing" textLength="10" x="394.3708" y="924.8206">+</text></g><!--link Domain to Application--><g id="link_Domain_Application"><path codeLine="42" d="M1213,679.34 C1213,705.14 1213,720.6 1213,746.38 " fill="none" id="Domain-Application" style="stroke:#181818;stroke-width:1.0;"/><polygon fill="none" points="1213,667.34,1209,673.34,1213,679.34,1217,673.34,1213,667.34" style="stroke:#181818;stroke-width:1.0;"/><polygon fill="#181818" points="1213,752.38,1217,743.38,1213,747.38,1209,743.38,1213,752.38" style="stroke:#181818;stroke-width:1.0;"/><text fill="#000000" font-family="sans-serif" font-size="13" lengthAdjust="spacing" textLength="6" x="1206.5031" y="741.9763">*</text></g><!--link Domain to Solution--><g id="link_Domain_Solution"><path codeLine="43" d="M1268.5872,675.154 C1298.6572,700.954 1324.0055,722.694 1354.0655,748.474 " fill="none" id="Domain-Solution" style="stroke:#181818;stroke-width:1.0;"/><polygon fill="none" points="1259.48,667.34,1261.429,674.2827,1268.5872,675.154,1266.6383,668.2112,1259.48,667.34" style="stroke:#181818;stroke-width:1.0;"/><polygon fill="#181818" points="1358.62,752.38,1354.3923,743.4847,1354.8246,749.125,1349.1843,749.5573,1358.62,752.38" style="stroke:#181818;stroke-width:1.0;"/><text fill="#000000" font-family="sans-serif" font-size="13" lengthAdjust="spacing" textLength="6" x="1351.4352" y="741.9763">*</text></g><!--link Application to Concept--><g id="link_Application_Concept"><path codeLine="49" d="M1162.54,834.05 C1148.48,843.41 1132.74,852.39 1117,858.39 C878.27,949.53 571.95,958.8253 456.99,958.9153 " fill="none" id="Application-to-Concept" style="stroke:#181818;stroke-width:1.0;"/><polygon fill="#181818" points="450.99,958.92,459.99,962.92,455.99,958.92,459.99,954.92,450.99,958.92" style="stroke:#181818;stroke-width:1.0;"/><text fill="#000000" font-family="sans-serif" font-size="13" lengthAdjust="spacing" textLength="10" x="458.6447" y="955.2917">+</text></g><!--link Question to Concept--><g id="link_Question_Concept"><path codeLine="54" d="M765.86,656.59 C698.43,677.01 618.28,704.69 591,727.95 C540.61,770.92 560.4,806.71 519,858.39 C495.25,888.04 466.8866,912.497 442.6566,931.337 " fill="none" id="Question-to-Concept" style="stroke:#181818;stroke-width:1.0;"/><polygon fill="#181818" points="437.92,935.02,447.4803,932.6533,441.8672,931.9509,442.5696,926.3378,437.92,935.02" style="stroke:#181818;stroke-width:1.0;"/><text fill="#000000" font-family="sans-serif" font-size="13" lengthAdjust="spacing" textLength="10" x="434.8183" y="924.4615">+</text></g><!--link Question to Application--><g id="link_Question_Application"><path codeLine="55" d="M960.3,659.14 C1007.96,677.11 1066.81,701.31 1117,727.95 C1130.55,735.14 1139.5594,740.4694 1152.5694,749.0394 " fill="none" id="Question-to-Application" style="stroke:#181818;stroke-width:1.0;"/><polygon fill="#181818" points="1157.58,752.34,1152.2645,744.0487,1153.4045,749.5895,1147.8637,750.7295,1157.58,752.34" style="stroke:#181818;stroke-width:1.0;"/><text fill="#000000" font-family="sans-serif" font-size="13" lengthAdjust="spacing" textLength="6" x="1141.9042" y="741.9297">*</text></g><!--link Question to Answer--><g id="link_Question_Answer"><path codeLine="56" d="M826.4429,666.8825 C797.0529,693.4825 768.0689,719.7142 736.3189,748.4442 " fill="none" id="Question-Answer" style="stroke:#181818;stroke-width:1.0;"/><polygon fill="none" points="835.34,658.83,828.2073,659.8905,826.4429,666.8825,833.5756,665.8219,835.34,658.83" style="stroke:#181818;stroke-width:1.0;"/><polygon fill="#181818" points="731.87,752.47,741.2273,749.3973,735.5775,749.1152,735.8596,743.4654,731.87,752.47" style="stroke:#181818;stroke-width:1.0;"/><text fill="#000000" font-family="sans-serif" font-size="13" lengthAdjust="spacing" textLength="6" x="732.6391" y="742.0812">*</text></g><!--link Question to StatementType--><g id="link_Question_StatementType"><path codeLine="57" d="M870,670.83 C870,692.58 870,704.15 870,729.91 " fill="none" id="Question-StatementType" style="stroke:#181818;stroke-width:1.0;"/><polygon fill="#181818" points="870,658.83,866,664.83,870,670.83,874,664.83,870,658.83" style="stroke:#181818;stroke-width:1.0;"/><polygon fill="#181818" points="870,735.91,874,726.91,870,730.91,866,726.91,870,735.91" style="stroke:#181818;stroke-width:1.0;"/></g><!--link Question to Solution--><g id="link_Question_Solution"><path codeLine="58" d="M986.3239,642.2322 C1077.4339,656.0722 1199.88,680.87 1309,727.95 C1323.91,734.39 1333.9914,739.8764 1347.6514,748.8864 " fill="none" id="Question-Solution" style="stroke:#181818;stroke-width:1.0;"/><polygon fill="none" points="974.46,640.43,979.7912,645.2857,986.3239,642.2322,980.9927,637.3765,974.46,640.43" style="stroke:#181818;stroke-width:1.0;"/><polygon fill="#181818" points="1352.66,752.19,1347.3495,743.8955,1348.4862,749.437,1342.9447,750.5736,1352.66,752.19" style="stroke:#181818;stroke-width:1.0;"/><text fill="#000000" font-family="sans-serif" font-size="13" lengthAdjust="spacing" textLength="6" x="1337.8402" y="742.0569">*</text></g><!--link Question to QuestionType--><g id="link_Question_QuestionType"><path codeLine="59" d="M910.1286,667.2819 C934.3986,691.3619 955.5612,712.3535 983.2512,739.8335 " fill="none" id="Question-QuestionType" style="stroke:#181818;stroke-width:1.0;"/><polygon fill="#181818" points="901.61,658.83,903.052,665.8955,910.1286,667.2819,908.6866,660.2164,901.61,658.83" style="stroke:#181818;stroke-width:1.0;"/><polygon fill="#181818" points="987.51,744.06,983.9395,734.8811,983.961,740.5379,978.3042,740.5595,987.51,744.06" style="stroke:#181818;stroke-width:1.0;"/></g><!--link Text to Concept--><g id="link_Text_Concept"><path codeLine="77" d="M452.82,825.84 C441.53,857.81 426.3485,900.7726 416.2385,929.3926 " fill="none" id="Text-to-Concept" style="stroke:#181818;stroke-width:1.0;"/><polygon fill="#181818" points="414.24,935.05,421.0093,927.8962,415.9054,930.3355,413.4661,925.2316,414.24,935.05" style="stroke:#181818;stroke-width:1.0;"/><text fill="#000000" font-family="sans-serif" font-size="13" lengthAdjust="spacing" textLength="6" x="409.5828" y="924.4991">*</text></g><!--link Concept to Definition--><g id="link_Concept_Definition"><path codeLine="81" d="M397.0377,995.5329 C394.2877,1009.7929 395.53,1016.18 403,1030.39 C409.11,1042.01 413.7997,1048.1689 424.2697,1056.3389 " fill="none" id="Concept-Definition" style="stroke:#181818;stroke-width:1.0;"/><polygon fill="#181818" points="399.31,983.75,394.2462,988.884,397.0377,995.5329,402.1015,990.3989,399.31,983.75" style="stroke:#181818;stroke-width:1.0;"/><polygon fill="#181818" points="429,1060.03,424.3654,1051.3398,425.0581,1056.954,419.4438,1057.6468,429,1060.03" style="stroke:#181818;stroke-width:1.0;"/><text fill="#000000" font-family="sans-serif" font-size="13" lengthAdjust="spacing" textLength="44" x="404" y="1026.9584">correct</text><text fill="#000000" font-family="sans-serif" font-size="13" lengthAdjust="spacing" textLength="10" x="405.6125" y="1049.7334">+</text></g><!--link Concept to Definition--><g id="link_Concept_Definition"><path codeLine="82" d="M437.2765,992.6871 C445.3665,1001.5371 446.05,1003.1 453,1013.39 C462.85,1027.98 469.2518,1039.9787 476.0818,1054.6787 " fill="none" id="Concept-Definition-1" style="stroke:#181818;stroke-width:1.0;"/><polygon fill="#181818" points="429.18,983.83,430.2759,990.9573,437.2765,992.6871,436.1806,985.5597,429.18,983.83" style="stroke:#181818;stroke-width:1.0;"/><polygon fill="#181818" points="478.61,1060.12,478.4453,1050.2725,476.5032,1055.5855,471.1902,1053.6434,478.61,1060.12" style="stroke:#181818;stroke-width:1.0;"/><text fill="#000000" font-family="sans-serif" font-size="13" lengthAdjust="spacing" textLength="56" x="465" y="1026.9584">incorrect</text><text fill="#000000" font-family="sans-serif" font-size="13" lengthAdjust="spacing" textLength="6" x="469.2296" y="1049.4675">*</text></g><!--link Concept to Relation--><g id="link_Concept_Relation"><path codeLine="83" d="M357.7336,928.9342 C332.7736,914.2142 309.37,901.67 278,888.39 C236.44,870.81 221.74,877.81 181,858.39 C162.17,849.42 147.7209,840.5729 131.3509,829.1529 " fill="none" id="Concept-Relation" style="stroke:#181818;stroke-width:1.0;"/><polygon fill="#181818" points="368.07,935.03,364.9337,928.5366,357.7336,928.9342,360.8699,935.4276,368.07,935.03" style="stroke:#181818;stroke-width:1.0;"/><polygon fill="#181818" points="126.43,825.72,131.5227,834.1499,130.5307,828.5808,136.0999,827.5888,126.43,825.72" style="stroke:#181818;stroke-width:1.0;"/><text fill="#000000" font-family="sans-serif" font-size="13" lengthAdjust="spacing" textLength="6" x="127.7557" y="845.9517">*</text></g><!--link Relation to Concept--><g id="link_Relation_Concept"><path codeLine="115" d="M95,825.77 C104.72,851.23 122.01,885.88 149,905.39 C182.36,929.52 290.7714,945.2964 355.1314,952.8964 " fill="none" id="Relation-to-Concept" style="stroke:#181818;stroke-width:1.0;"/><polygon fill="#181818" points="361.09,953.6,352.6212,948.5722,356.1245,953.0136,351.683,956.517,361.09,953.6" style="stroke:#181818;stroke-width:1.0;"/><text fill="#000000" font-family="sans-serif" font-size="13" lengthAdjust="spacing" textLength="37" x="150" y="901.9584">origin</text></g><!--link Relation to Concept--><g id="link_Relation_Concept"><path codeLine="116" d="M119.18,825.9 C147.34,850.57 189.29,884.07 231,905.39 C272.83,926.78 318.9409,939.8127 355.3309,948.1327 " fill="none" id="Relation-to-Concept-1" style="stroke:#181818;stroke-width:1.0;"/><polygon fill="#181818" points="361.18,949.47,353.2979,943.5647,356.3058,948.3556,351.5149,951.3634,361.18,949.47" style="stroke:#181818;stroke-width:1.0;"/><text fill="#000000" font-family="sans-serif" font-size="13" lengthAdjust="spacing" textLength="37" x="232" y="901.9584">target</text></g><!--reverse link Multimedia to Podcast--><g id="link_Multimedia_Podcast"><path codeLine="95" d="M593.0786,486.9545 C605.9186,521.2045 623.4,567.83 636.24,602.09 " fill="none" id="Multimedia-backto-Podcast" style="stroke:#181818;stroke-width:1.0;"/><polygon fill="none" points="586.76,470.1,587.4604,489.0607,598.6968,484.8483,586.76,470.1" style="stroke:#181818;stroke-width:1.0;"/></g><!--reverse link Multimedia to Video--><g id="link_Multimedia_Video"><path codeLine="96" d="M542.2471,483.1122 C531.8871,494.0922 532.31,494.61 523,507.98 C501.64,538.63 482.48,577.53 471.3,601.97 " fill="none" id="Multimedia-backto-Video" style="stroke:#181818;stroke-width:1.0;"/><polygon fill="none" points="554.6,470.02,537.883,478.9945,546.6111,487.2298,554.6,470.02" style="stroke:#181818;stroke-width:1.0;"/></g><!--reverse link Multimedia to Text--><g id="link_Multimedia_Text"><path codeLine="97" d="M567.4654,487.5268 C556.9054,527.9968 538.35,596.17 514,666.95 C502.88,699.27 488.18,735.45 477.6,760.58 " fill="none" id="Multimedia-backto-Text" style="stroke:#181818;stroke-width:1.0;"/><polygon fill="none" points="572.01,470.11,561.6597,486.012,573.271,489.0417,572.01,470.11" style="stroke:#181818;stroke-width:1.0;"/></g><!--link Podcast to Text--><g id="link_Podcast_Text"><path codeLine="98" d="M607.7174,658.6571 C583.9474,678.7071 558.34,700.81 529,727.95 C517.71,738.4 509.8946,745.9194 499.2646,756.4894 " fill="none" id="Podcast-Text" style="stroke:#181818;stroke-width:1.0;"/><polygon fill="none" points="616.89,650.92,609.7246,651.731,607.7174,658.6571,614.8827,657.8461,616.89,650.92" style="stroke:#181818;stroke-width:1.0;"/><polygon fill="#181818" points="495.01,760.72,504.2124,757.2105,498.5555,757.1945,498.5715,751.5377,495.01,760.72" style="stroke:#181818;stroke-width:1.0;"/></g><!--link Video to Text--><g id="link_Video_Text"><path codeLine="99" d="M461.6413,662.708 C462.1713,691.438 462.7317,722.461 463.3117,754.581 " fill="none" id="Video-Text" style="stroke:#181818;stroke-width:1.0;"/><polygon fill="none" points="461.42,650.71,457.5313,656.7828,461.6413,662.708,465.53,656.6352,461.42,650.71" style="stroke:#181818;stroke-width:1.0;"/><polygon fill="#181818" points="463.42,760.58,467.2569,751.5092,463.3297,755.5808,459.2582,751.6537,463.42,760.58" style="stroke:#181818;stroke-width:1.0;"/></g><!--link Solution to Justification--><g id="link_Solution_Justification"><path codeLine="105" d="M1341.9038,841.2783 C1226.2538,927.6083 969.3182,1119.4209 864.3282,1197.7909 " fill="none" id="Solution-Justification" style="stroke:#181818;stroke-width:1.0;"/><polygon fill="none" points="1351.52,834.1,1344.3191,834.4837,1341.9038,841.2783,1349.1046,840.8946,1351.52,834.1" style="stroke:#181818;stroke-width:1.0;"/><polygon fill="#181818" points="859.52,1201.38,869.125,1199.2018,863.5268,1198.3891,864.3395,1192.7909,859.52,1201.38" style="stroke:#181818;stroke-width:1.0;"/><text fill="#000000" font-family="sans-serif" font-size="13" lengthAdjust="spacing" textLength="92" x="1112" y="1026.9584">correct = false</text><text fill="#000000" font-family="sans-serif" font-size="13" lengthAdjust="spacing" textLength="5" x="862.3989" y="1191.0559">?</text></g><!--link Relation to RelationType--><g id="link_Relation_RelationType"><path codeLine="117" d="M175.16,793.17 C186.89,793.17 180.62,793.17 192.35,793.17 " fill="none" id="Relation-RelationType" style="stroke:#181818;stroke-width:1.0;"/><polygon fill="#181818" points="163.16,793.17,169.16,797.17,175.16,793.17,169.16,789.17,163.16,793.17" style="stroke:#181818;stroke-width:1.0;"/><polygon fill="#181818" points="198.35,793.17,189.35,789.17,193.35,793.17,189.35,797.17,198.35,793.17" style="stroke:#181818;stroke-width:1.0;"/></g><!--link Definition to Justification--><g id="link_Definition_Justification"><path codeLine="130" d="M574.3472,1128.9829 C628.4472,1152.2029 685.9264,1176.8734 740.0464,1200.1034 " fill="none" id="Definition-Justification" style="stroke:#181818;stroke-width:1.0;"/><polygon fill="none" points="563.32,1124.25,567.256,1130.2922,574.3472,1128.9829,570.4112,1122.9407,563.32,1124.25" style="stroke:#181818;stroke-width:1.0;"/><polygon fill="#181818" points="745.56,1202.47,738.8674,1195.2444,740.9654,1200.4978,735.7119,1202.5958,745.56,1202.47" style="stroke:#181818;stroke-width:1.0;"/><text fill="#000000" font-family="sans-serif" font-size="13" lengthAdjust="spacing" textLength="92" x="675" y="1168.4484">correct = false</text><text fill="#000000" font-family="sans-serif" font-size="13" lengthAdjust="spacing" textLength="6" x="731.8834" y="1196.0166">*</text></g><!--SRC=[ZLLDSzCm4BtxLsXo3EF-W4memxWSoi1GIE2ksXj7Cx9bf7KXfFtlwDkI4rDoygxUhdRVlbLgJfKY7vgnfiX4_y0f7eJioBaeNefBzxeiRydgpOhiWTP7aF-2x71ieCSbo5uCh5uwl4VMWwJoH3PaaD30GTlD5RImjwrNMKGzAXJT4hewKbmwknCTPNrHr9OMWtHCs2yHEliwWZAn0JVTVIw8_fM-0btAen0SQAzJJA2Onr5Gq4U5ajRexBF6sW-oVRwv8PNe1g4OWWCd9plM3JnpnyIVHuwiWuRHK682DXSavXHLYRw60MFtsSsXCpI6qfrzOWgtzkYM68Ooz4MFBgMZDxBq158P6fqbuUV897HQCqedz5YJoCpt_J1mvaQM7jdPxmGVqtaas6aYGahG74yZSNvuedoa24qwgpI1kV-Id221c5-XJc9grpVimlV-D81E5y6pN9b_rcCyYmJqwfTUkEYtUvBVbCNapEHXmR9H1VHZbxbyKry6S2nPEMczL4V1Qh2kfDHADAP9coMhnwUfkFW3UvtTMdTcbHc6iNy3JgFnKMyDEvnI6bwAmFWUVcDactMq1QCIw_KCNUZNckHirUc-u-CqbM7U2wUD6MezGx5-4HUx23gVufRrznBGhktN1Hi3flMspINczhaioODeQghfdlj_i0R4XTSmMFWG9nphiU343k-85zHhQuLw_fjSLERPyT5UeEzMizxZACXRSg1SGTneA_x_N-Phh8KXnIocHWqCVh-i4MR_A_oaDqH8rkf_XeLJfB85d4xNfOOVKMEox6v9KfSlvhloQwMKgDcq4U5L3VPzh_zq6T8-h67RIcZzgf2hyZDFwMI7rsJ6-vpslm00]--></g></svg>