<?xml version="1.0" encoding="us-ascii" standalone="no"?><svg xmlns="http://www.w3.org/2000/svg" xmlns:xlink="http://www.w3.org/1999/xlink" contentStyleType="text/css" height="1633px" preserveAspectRatio="none" style="width:1162px;height:1633px;background:#FFFFFF;" version="1.1" viewBox="0 0 1162 1633" width="1162px" zoomAndPan="magnify"><defs/><g><!--class Itinerary--><g id="elem_Itinerary"><rect codeLine="2" fill="#F1F1F1" height="80.9766" id="Itinerary" rx="2.5" ry="2.5" style="stroke:#181818;stroke-width:0.5;" width="144" x="760" y="373.94"/><ellipse cx="799.75" cy="389.94" fill="#ADD1B2" rx="11" ry="11" style="stroke:#181818;stroke-width:1.0;"/><path d="M802.2231,396.0831 Q801.6421,396.3819 801.0029,396.5313 Q800.3638,396.6807 799.6582,396.6807 Q797.1514,396.6807 795.8315,395.0289 Q794.5117,393.377 794.5117,390.2559 Q794.5117,387.1265 795.8315,385.4747 Q797.1514,383.8228 799.6582,383.8228 Q800.3638,383.8228 801.0112,383.9722 Q801.6587,384.1216 802.2231,384.4205 L802.2231,387.1431 Q801.5923,386.5621 800.9988,386.2923 Q800.4053,386.0225 799.7744,386.0225 Q798.4297,386.0225 797.7449,387.0892 Q797.0601,388.1558 797.0601,390.2559 Q797.0601,392.3477 797.7449,393.4144 Q798.4297,394.481 799.7744,394.481 Q800.4053,394.481 800.9988,394.2112 Q801.5923,393.9415 802.2231,393.3604 Z " fill="#000000"/><text fill="#000000" font-family="sans-serif" font-size="14" lengthAdjust="spacing" textLength="57" x="819.25" y="395.231">Itinerary</text><line style="stroke:#181818;stroke-width:0.5;" x1="761" x2="903" y1="405.94" y2="405.94"/><rect fill="none" height="6" style="stroke:#C82930;stroke-width:1.0;" width="6" x="768" y="416.6841"/><text fill="#000000" font-family="sans-serif" font-size="14" lengthAdjust="spacing" textLength="118" x="780" y="423.4752">custom : boolean</text><line style="stroke:#181818;stroke-width:0.5;" x1="761" x2="903" y1="430.4283" y2="430.4283"/><ellipse cx="771" cy="444.1724" fill="#84BE84" rx="3" ry="3" style="stroke:#038048;stroke-width:1.0;"/><text fill="#000000" font-family="sans-serif" font-size="14" lengthAdjust="spacing" textLength="36" x="780" y="447.9634">Edit()</text></g><!--class Topic--><g id="elem_Topic"><rect codeLine="7" fill="#F1F1F1" height="113.9531" id="Topic" rx="2.5" ry="2.5" style="stroke:#181818;stroke-width:0.5;" width="190" x="870" y="515.91"/><ellipse cx="941.75" cy="531.91" fill="#A9DCDF" rx="11" ry="11" style="stroke:#181818;stroke-width:1.0;"/><path d="M941.8633,527.5081 L940.7095,532.5799 L943.0254,532.5799 Z M940.3691,525.2669 L943.3657,525.2669 L946.7109,537.66 L944.2622,537.66 L943.4985,534.597 L940.2197,534.597 L939.4727,537.66 L937.0239,537.66 Z " fill="#000000"/><text fill="#000000" font-family="sans-serif" font-size="14" font-style="italic" lengthAdjust="spacing" textLength="38" x="962.25" y="537.201">Topic</text><line style="stroke:#181818;stroke-width:0.5;" x1="871" x2="1059" y1="547.91" y2="547.91"/><line style="stroke:#181818;stroke-width:0.5;" x1="871" x2="1059" y1="555.91" y2="555.91"/><ellipse cx="881" cy="569.6541" fill="#84BE84" rx="3" ry="3" style="stroke:#038048;stroke-width:1.0;"/><text fill="#000000" font-family="sans-serif" font-size="14" lengthAdjust="spacing" textLength="148" x="890" y="573.4452">getTableOfContents()</text><ellipse cx="881" cy="586.1424" fill="#84BE84" rx="3" ry="3" style="stroke:#038048;stroke-width:1.0;"/><text fill="#000000" font-family="sans-serif" font-size="14" lengthAdjust="spacing" textLength="164" x="890" y="589.9334">getSyllabus() : Concepts</text><ellipse cx="881" cy="602.6307" fill="#84BE84" rx="3" ry="3" style="stroke:#038048;stroke-width:1.0;"/><text fill="#000000" font-family="sans-serif" font-size="14" lengthAdjust="spacing" textLength="36" x="890" y="606.4217">Edit()</text><ellipse cx="881" cy="619.119" fill="#84BE84" rx="3" ry="3" style="stroke:#038048;stroke-width:1.0;"/><text fill="#000000" font-family="sans-serif" font-size="14" lengthAdjust="spacing" textLength="44" x="890" y="622.91">Read()</text></g><!--class SimpleTopic--><g id="elem_SimpleTopic"><rect codeLine="15" fill="#F1F1F1" height="48" id="SimpleTopic" rx="2.5" ry="2.5" style="stroke:#181818;stroke-width:0.5;" width="116" x="1039" y="785.35"/><ellipse cx="1054" cy="801.35" fill="#ADD1B2" rx="11" ry="11" style="stroke:#181818;stroke-width:1.0;"/><path d="M1056.4731,807.4931 Q1055.8921,807.7919 1055.2529,807.9413 Q1054.6138,808.0907 1053.9082,808.0907 Q1051.4014,808.0907 1050.0815,806.4389 Q1048.7617,804.787 1048.7617,801.6659 Q1048.7617,798.5365 1050.0815,796.8847 Q1051.4014,795.2328 1053.9082,795.2328 Q1054.6138,795.2328 1055.2612,795.3822 Q1055.9087,795.5316 1056.4731,795.8305 L1056.4731,798.5531 Q1055.8423,797.9721 1055.2488,797.7023 Q1054.6553,797.4325 1054.0244,797.4325 Q1052.6797,797.4325 1051.9949,798.4992 Q1051.3101,799.5658 1051.3101,801.6659 Q1051.3101,803.7577 1051.9949,804.8244 Q1052.6797,805.891 1054.0244,805.891 Q1054.6553,805.891 1055.2488,805.6212 Q1055.8423,805.3515 1056.4731,804.7704 Z " fill="#000000"/><text fill="#000000" font-family="sans-serif" font-size="14" lengthAdjust="spacing" textLength="84" x="1068" y="806.641">SimpleTopic</text><line style="stroke:#181818;stroke-width:0.5;" x1="1040" x2="1154" y1="817.35" y2="817.35"/><line style="stroke:#181818;stroke-width:0.5;" x1="1040" x2="1154" y1="825.35" y2="825.35"/></g><!--class CompositeTopic--><g id="elem_CompositeTopic"><rect codeLine="18" fill="#F1F1F1" height="64.4883" id="CompositeTopic" rx="2.5" ry="2.5" style="stroke:#181818;stroke-width:0.5;" width="162" x="884" y="690.87"/><ellipse cx="907.1" cy="706.87" fill="#ADD1B2" rx="11" ry="11" style="stroke:#181818;stroke-width:1.0;"/><path d="M909.5731,713.0131 Q908.9921,713.3119 908.3529,713.4613 Q907.7138,713.6107 907.0082,713.6107 Q904.5014,713.6107 903.1815,711.9589 Q901.8617,710.307 901.8617,707.1859 Q901.8617,704.0565 903.1815,702.4047 Q904.5014,700.7528 907.0082,700.7528 Q907.7138,700.7528 908.3612,700.9022 Q909.0087,701.0516 909.5731,701.3505 L909.5731,704.0731 Q908.9423,703.4921 908.3488,703.2223 Q907.7553,702.9525 907.1244,702.9525 Q905.7797,702.9525 905.0949,704.0192 Q904.4101,705.0858 904.4101,707.1859 Q904.4101,709.2777 905.0949,710.3444 Q905.7797,711.411 907.1244,711.411 Q907.7553,711.411 908.3488,711.1412 Q908.9423,710.8715 909.5731,710.2904 Z " fill="#000000"/><text fill="#000000" font-family="sans-serif" font-size="14" lengthAdjust="spacing" textLength="112" x="922.9" y="712.161">CompositeTopic</text><line style="stroke:#181818;stroke-width:0.5;" x1="885" x2="1045" y1="722.87" y2="722.87"/><rect fill="none" height="6" style="stroke:#C82930;stroke-width:1.0;" width="6" x="892" y="733.6141"/><text fill="#000000" font-family="sans-serif" font-size="14" lengthAdjust="spacing" textLength="136" x="904" y="740.4052">topics : List&lt;Topic&gt;</text><line style="stroke:#181818;stroke-width:0.5;" x1="885" x2="1045" y1="747.3583" y2="747.3583"/></g><!--class Excercise--><g id="elem_Excercise"><rect codeLine="22" fill="#F1F1F1" height="48" id="Excercise" rx="2.5" ry="2.5" style="stroke:#181818;stroke-width:0.5;" width="96" x="474" y="699.11"/><ellipse cx="489" cy="715.11" fill="#A9DCDF" rx="11" ry="11" style="stroke:#181818;stroke-width:1.0;"/><path d="M489.1133,710.7081 L487.9595,715.7799 L490.2754,715.7799 Z M487.6191,708.4669 L490.6157,708.4669 L493.9609,720.86 L491.5122,720.86 L490.7485,717.797 L487.4697,717.797 L486.7227,720.86 L484.2739,720.86 Z " fill="#000000"/><text fill="#000000" font-family="sans-serif" font-size="14" font-style="italic" lengthAdjust="spacing" textLength="64" x="503" y="720.401">Excercise</text><line style="stroke:#181818;stroke-width:0.5;" x1="475" x2="569" y1="731.11" y2="731.11"/><line style="stroke:#181818;stroke-width:0.5;" x1="475" x2="569" y1="739.11" y2="739.11"/></g><!--class Domain--><g id="elem_Domain"><rect codeLine="25" fill="#F1F1F1" height="48" id="Domain" rx="2.5" ry="2.5" style="stroke:#181818;stroke-width:0.5;" width="85" x="586.5" y="871.6"/><ellipse cx="601.5" cy="887.6" fill="#ADD1B2" rx="11" ry="11" style="stroke:#181818;stroke-width:1.0;"/><path d="M603.9731,893.7431 Q603.3921,894.0419 602.7529,894.1913 Q602.1138,894.3407 601.4082,894.3407 Q598.9014,894.3407 597.5815,892.6889 Q596.2617,891.037 596.2617,887.9159 Q596.2617,884.7865 597.5815,883.1347 Q598.9014,881.4828 601.4082,881.4828 Q602.1138,881.4828 602.7612,881.6322 Q603.4087,881.7816 603.9731,882.0805 L603.9731,884.8031 Q603.3423,884.2221 602.7488,883.9523 Q602.1553,883.6825 601.5244,883.6825 Q600.1797,883.6825 599.4949,884.7492 Q598.8101,885.8158 598.8101,887.9159 Q598.8101,890.0077 599.4949,891.0744 Q600.1797,892.141 601.5244,892.141 Q602.1553,892.141 602.7488,891.8712 Q603.3423,891.6015 603.9731,891.0204 Z " fill="#000000"/><text fill="#000000" font-family="sans-serif" font-size="14" lengthAdjust="spacing" textLength="53" x="615.5" y="892.891">Domain</text><line style="stroke:#181818;stroke-width:0.5;" x1="587.5" x2="670.5" y1="903.6" y2="903.6"/><line style="stroke:#181818;stroke-width:0.5;" x1="587.5" x2="670.5" y1="911.6" y2="911.6"/></g><!--class Application--><g id="elem_Application"><rect codeLine="28" fill="#F1F1F1" height="97.4648" id="Application" rx="2.5" ry="2.5" style="stroke:#181818;stroke-width:0.5;" width="156" x="630" y="1013.09"/><ellipse cx="665.7" cy="1029.09" fill="#ADD1B2" rx="11" ry="11" style="stroke:#181818;stroke-width:1.0;"/><path d="M668.1731,1035.2331 Q667.5921,1035.5319 666.9529,1035.6813 Q666.3138,1035.8307 665.6082,1035.8307 Q663.1014,1035.8307 661.7815,1034.1789 Q660.4617,1032.527 660.4617,1029.4059 Q660.4617,1026.2765 661.7815,1024.6247 Q663.1014,1022.9728 665.6082,1022.9728 Q666.3138,1022.9728 666.9612,1023.1222 Q667.6087,1023.2716 668.1731,1023.5705 L668.1731,1026.2931 Q667.5423,1025.7121 666.9488,1025.4423 Q666.3553,1025.1725 665.7244,1025.1725 Q664.3797,1025.1725 663.6949,1026.2392 Q663.0101,1027.3058 663.0101,1029.4059 Q663.0101,1031.4977 663.6949,1032.5644 Q664.3797,1033.631 665.7244,1033.631 Q666.3553,1033.631 666.9488,1033.3612 Q667.5423,1033.0915 668.1731,1032.5104 Z " fill="#000000"/><text fill="#000000" font-family="sans-serif" font-size="14" lengthAdjust="spacing" textLength="78" x="684.3" y="1034.381">Application</text><line style="stroke:#181818;stroke-width:0.5;" x1="631" x2="785" y1="1045.09" y2="1045.09"/><rect fill="none" height="6" style="stroke:#C82930;stroke-width:1.0;" width="6" x="638" y="1055.8341"/><text fill="#000000" font-family="sans-serif" font-size="14" lengthAdjust="spacing" textLength="116" x="650" y="1062.6252">correct : boolean</text><rect fill="none" height="6" style="stroke:#C82930;stroke-width:1.0;" width="6" x="638" y="1072.3224"/><text fill="#000000" font-family="sans-serif" font-size="14" lengthAdjust="spacing" textLength="130" x="650" y="1079.1134">evaluated: boolean</text><rect fill="none" height="6" style="stroke:#C82930;stroke-width:1.0;" width="6" x="638" y="1088.8107"/><text fill="#000000" font-family="sans-serif" font-size="14" lengthAdjust="spacing" textLength="52" x="650" y="1095.6017">Version</text><line style="stroke:#181818;stroke-width:0.5;" x1="631" x2="785" y1="1102.5548" y2="1102.5548"/></g><!--class Question--><g id="elem_Question"><rect codeLine="34" fill="#F1F1F1" height="64.4883" id="Question" rx="2.5" ry="2.5" style="stroke:#181818;stroke-width:0.5;" width="208" x="343" y="863.35"/><ellipse cx="411.75" cy="879.35" fill="#ADD1B2" rx="11" ry="11" style="stroke:#181818;stroke-width:1.0;"/><path d="M414.2231,885.4931 Q413.6421,885.7919 413.0029,885.9413 Q412.3638,886.0907 411.6582,886.0907 Q409.1514,886.0907 407.8315,884.4389 Q406.5117,882.787 406.5117,879.6659 Q406.5117,876.5365 407.8315,874.8847 Q409.1514,873.2328 411.6582,873.2328 Q412.3638,873.2328 413.0112,873.3822 Q413.6587,873.5316 414.2231,873.8305 L414.2231,876.5531 Q413.5923,875.9721 412.9988,875.7023 Q412.4053,875.4325 411.7744,875.4325 Q410.4297,875.4325 409.7449,876.4992 Q409.0601,877.5658 409.0601,879.6659 Q409.0601,881.7577 409.7449,882.8244 Q410.4297,883.891 411.7744,883.891 Q412.4053,883.891 412.9988,883.6212 Q413.5923,883.3515 414.2231,882.7704 Z " fill="#000000"/><text fill="#000000" font-family="sans-serif" font-size="14" lengthAdjust="spacing" textLength="62" x="432.25" y="884.641">Question</text><line style="stroke:#181818;stroke-width:0.5;" x1="344" x2="550" y1="895.35" y2="895.35"/><rect fill="none" height="6" style="stroke:#C82930;stroke-width:1.0;" width="6" x="351" y="906.0941"/><text fill="#000000" font-family="sans-serif" font-size="14" lengthAdjust="spacing" textLength="182" x="363" y="912.8852">statement : StatementType</text><line style="stroke:#181818;stroke-width:0.5;" x1="344" x2="550" y1="919.8383" y2="919.8383"/></g><!--class StatementType--><g id="elem_StatementType"><rect codeLine="38" fill="#F1F1F1" height="113.9531" id="StatementType" rx="2.5" ry="2.5" style="stroke:#181818;stroke-width:0.5;" width="134" x="202" y="1004.84"/><ellipse cx="217" cy="1020.84" fill="#EB937F" rx="11" ry="11" style="stroke:#181818;stroke-width:1.0;"/><path d="M220.6143,1027.34 L212.8945,1027.34 L212.8945,1014.9469 L220.6143,1014.9469 L220.6143,1017.1051 L215.3433,1017.1051 L215.3433,1019.778 L220.1162,1019.778 L220.1162,1021.9362 L215.3433,1021.9362 L215.3433,1025.1818 L220.6143,1025.1818 Z " fill="#000000"/><text fill="#000000" font-family="sans-serif" font-size="14" lengthAdjust="spacing" textLength="102" x="231" y="1026.131">StatementType</text><line style="stroke:#181818;stroke-width:0.5;" x1="203" x2="335" y1="1036.84" y2="1036.84"/><text fill="#000000" font-family="sans-serif" font-size="14" lengthAdjust="spacing" textLength="68" x="208" y="1054.3752">ClozeTest</text><text fill="#000000" font-family="sans-serif" font-size="14" lengthAdjust="spacing" textLength="67" x="208" y="1070.8634">Definition</text><text fill="#000000" font-family="sans-serif" font-size="14" lengthAdjust="spacing" textLength="56" x="208" y="1087.3517">Relation</text><text fill="#000000" font-family="sans-serif" font-size="14" lengthAdjust="spacing" textLength="119" x="208" y="1103.84">JustifyApplication</text><line style="stroke:#181818;stroke-width:0.5;" x1="203" x2="335" y1="1110.7931" y2="1110.7931"/></g><!--class Text--><g id="elem_Text"><rect codeLine="45" fill="#F1F1F1" height="80.9766" id="Text" rx="2.5" ry="2.5" style="stroke:#181818;stroke-width:0.5;" width="138" x="822" y="1021.33"/><ellipse cx="871.25" cy="1037.33" fill="#ADD1B2" rx="11" ry="11" style="stroke:#181818;stroke-width:1.0;"/><path d="M873.7231,1043.4731 Q873.1421,1043.7719 872.5029,1043.9213 Q871.8638,1044.0707 871.1582,1044.0707 Q868.6514,1044.0707 867.3315,1042.4189 Q866.0117,1040.767 866.0117,1037.6459 Q866.0117,1034.5165 867.3315,1032.8647 Q868.6514,1031.2128 871.1582,1031.2128 Q871.8638,1031.2128 872.5112,1031.3622 Q873.1587,1031.5116 873.7231,1031.8105 L873.7231,1034.5331 Q873.0923,1033.9521 872.4988,1033.6823 Q871.9053,1033.4125 871.2744,1033.4125 Q869.9297,1033.4125 869.2449,1034.4792 Q868.5601,1035.5458 868.5601,1037.6459 Q868.5601,1039.7377 869.2449,1040.8044 Q869.9297,1041.871 871.2744,1041.871 Q871.9053,1041.871 872.4988,1041.6012 Q873.0923,1041.3315 873.7231,1040.7504 Z " fill="#000000"/><text fill="#000000" font-family="sans-serif" font-size="14" lengthAdjust="spacing" textLength="31" x="891.75" y="1042.621">Text</text><line style="stroke:#181818;stroke-width:0.5;" x1="823" x2="959" y1="1053.33" y2="1053.33"/><rect fill="none" height="6" style="stroke:#C82930;stroke-width:1.0;" width="6" x="830" y="1064.0741"/><text fill="#000000" font-family="sans-serif" font-size="14" lengthAdjust="spacing" textLength="112" x="842" y="1070.8652">tableOfContents</text><rect fill="none" height="6" style="stroke:#C82930;stroke-width:1.0;" width="6" x="830" y="1080.5624"/><text fill="#000000" font-family="sans-serif" font-size="14" lengthAdjust="spacing" textLength="49" x="842" y="1087.3534">images</text><line style="stroke:#181818;stroke-width:0.5;" x1="823" x2="959" y1="1094.3066" y2="1094.3066"/></g><!--class Concept--><g id="elem_Concept"><rect codeLine="50" fill="#F1F1F1" height="48" id="Concept" rx="2.5" ry="2.5" style="stroke:#181818;stroke-width:0.5;" width="89" x="671.5" y="1204.53"/><ellipse cx="686.5" cy="1220.53" fill="#ADD1B2" rx="11" ry="11" style="stroke:#181818;stroke-width:1.0;"/><path d="M688.9731,1226.6731 Q688.3921,1226.9719 687.7529,1227.1213 Q687.1138,1227.2707 686.4082,1227.2707 Q683.9014,1227.2707 682.5815,1225.6189 Q681.2617,1223.967 681.2617,1220.8459 Q681.2617,1217.7165 682.5815,1216.0647 Q683.9014,1214.4128 686.4082,1214.4128 Q687.1138,1214.4128 687.7612,1214.5622 Q688.4087,1214.7116 688.9731,1215.0105 L688.9731,1217.7331 Q688.3423,1217.1521 687.7488,1216.8823 Q687.1553,1216.6125 686.5244,1216.6125 Q685.1797,1216.6125 684.4949,1217.6792 Q683.8101,1218.7458 683.8101,1220.8459 Q683.8101,1222.9377 684.4949,1224.0044 Q685.1797,1225.071 686.5244,1225.071 Q687.1553,1225.071 687.7488,1224.8012 Q688.3423,1224.5315 688.9731,1223.9504 Z " fill="#000000"/><text fill="#000000" font-family="sans-serif" font-size="14" lengthAdjust="spacing" textLength="57" x="700.5" y="1225.821">Concept</text><line style="stroke:#181818;stroke-width:0.5;" x1="672.5" x2="759.5" y1="1236.53" y2="1236.53"/><line style="stroke:#181818;stroke-width:0.5;" x1="672.5" x2="759.5" y1="1244.53" y2="1244.53"/></g><!--class Definition--><g id="elem_Definition"><rect codeLine="53" fill="#F1F1F1" height="64.4883" id="Definition" rx="2.5" ry="2.5" style="stroke:#181818;stroke-width:0.5;" width="142" x="476" y="1387.24"/><ellipse cx="510.35" cy="1403.24" fill="#ADD1B2" rx="11" ry="11" style="stroke:#181818;stroke-width:1.0;"/><path d="M512.8231,1409.3831 Q512.2421,1409.6819 511.6029,1409.8313 Q510.9638,1409.9807 510.2582,1409.9807 Q507.7514,1409.9807 506.4315,1408.3289 Q505.1117,1406.677 505.1117,1403.5559 Q505.1117,1400.4265 506.4315,1398.7747 Q507.7514,1397.1228 510.2582,1397.1228 Q510.9638,1397.1228 511.6112,1397.2722 Q512.2587,1397.4216 512.8231,1397.7205 L512.8231,1400.4431 Q512.1923,1399.8621 511.5988,1399.5923 Q511.0053,1399.3225 510.3744,1399.3225 Q509.0297,1399.3225 508.3449,1400.3892 Q507.6601,1401.4558 507.6601,1403.5559 Q507.6601,1405.6477 508.3449,1406.7144 Q509.0297,1407.781 510.3744,1407.781 Q511.0053,1407.781 511.5988,1407.5112 Q512.1923,1407.2415 512.8231,1406.6604 Z " fill="#000000"/><text fill="#000000" font-family="sans-serif" font-size="14" lengthAdjust="spacing" textLength="67" x="528.65" y="1408.531">Definition</text><line style="stroke:#181818;stroke-width:0.5;" x1="477" x2="617" y1="1419.24" y2="1419.24"/><rect fill="none" height="6" style="stroke:#C82930;stroke-width:1.0;" width="6" x="484" y="1429.9841"/><text fill="#000000" font-family="sans-serif" font-size="14" lengthAdjust="spacing" textLength="116" x="496" y="1436.7752">correct : boolean</text><line style="stroke:#181818;stroke-width:0.5;" x1="477" x2="617" y1="1443.7283" y2="1443.7283"/></g><!--class Justification--><g id="elem_Justification"><rect codeLine="57" fill="#F1F1F1" height="64.4883" id="Justification" rx="2.5" ry="2.5" style="stroke:#181818;stroke-width:0.5;" width="142" x="371" y="1561.7"/><ellipse cx="399.5" cy="1577.7" fill="#ADD1B2" rx="11" ry="11" style="stroke:#181818;stroke-width:1.0;"/><path d="M401.9731,1583.8431 Q401.3921,1584.1419 400.7529,1584.2913 Q400.1138,1584.4407 399.4082,1584.4407 Q396.9014,1584.4407 395.5815,1582.7889 Q394.2617,1581.137 394.2617,1578.0159 Q394.2617,1574.8865 395.5815,1573.2347 Q396.9014,1571.5828 399.4082,1571.5828 Q400.1138,1571.5828 400.7612,1571.7322 Q401.4087,1571.8816 401.9731,1572.1805 L401.9731,1574.9031 Q401.3423,1574.3221 400.7488,1574.0523 Q400.1553,1573.7825 399.5244,1573.7825 Q398.1797,1573.7825 397.4949,1574.8492 Q396.8101,1575.9158 396.8101,1578.0159 Q396.8101,1580.1077 397.4949,1581.1744 Q398.1797,1582.241 399.5244,1582.241 Q400.1553,1582.241 400.7488,1581.9712 Q401.3423,1581.7015 401.9731,1581.1204 Z " fill="#000000"/><text fill="#000000" font-family="sans-serif" font-size="14" lengthAdjust="spacing" textLength="80" x="416.5" y="1582.991">Justification</text><line style="stroke:#181818;stroke-width:0.5;" x1="372" x2="512" y1="1593.7" y2="1593.7"/><rect fill="none" height="6" style="stroke:#C82930;stroke-width:1.0;" width="6" x="379" y="1604.4441"/><text fill="#000000" font-family="sans-serif" font-size="14" lengthAdjust="spacing" textLength="116" x="391" y="1611.2352">correct : boolean</text><line style="stroke:#181818;stroke-width:0.5;" x1="372" x2="512" y1="1618.1883" y2="1618.1883"/></g><!--class Multimedia--><g id="elem_Multimedia"><rect codeLine="61" fill="#F1F1F1" height="48" id="Multimedia" rx="2.5" ry="2.5" style="stroke:#181818;stroke-width:0.5;" width="108" x="741" y="699.11"/><ellipse cx="756" cy="715.11" fill="#ADD1B2" rx="11" ry="11" style="stroke:#181818;stroke-width:1.0;"/><path d="M758.4731,721.2531 Q757.8921,721.5519 757.2529,721.7013 Q756.6138,721.8507 755.9082,721.8507 Q753.4014,721.8507 752.0815,720.1989 Q750.7617,718.547 750.7617,715.4259 Q750.7617,712.2965 752.0815,710.6447 Q753.4014,708.9928 755.9082,708.9928 Q756.6138,708.9928 757.2612,709.1422 Q757.9087,709.2916 758.4731,709.5905 L758.4731,712.3131 Q757.8423,711.7321 757.2488,711.4623 Q756.6553,711.1925 756.0244,711.1925 Q754.6797,711.1925 753.9949,712.2592 Q753.3101,713.3258 753.3101,715.4259 Q753.3101,717.5177 753.9949,718.5844 Q754.6797,719.651 756.0244,719.651 Q756.6553,719.651 757.2488,719.3812 Q757.8423,719.1115 758.4731,718.5304 Z " fill="#000000"/><text fill="#000000" font-family="sans-serif" font-size="14" lengthAdjust="spacing" textLength="76" x="770" y="720.401">Multimedia</text><line style="stroke:#181818;stroke-width:0.5;" x1="742" x2="848" y1="731.11" y2="731.11"/><line style="stroke:#181818;stroke-width:0.5;" x1="742" x2="848" y1="739.11" y2="739.11"/></g><!--class Solution--><g id="elem_Solution"><rect codeLine="65" fill="#F1F1F1" height="80.9766" id="Solution" rx="2.5" ry="2.5" style="stroke:#181818;stroke-width:0.5;" width="153" x="370.5" y="1021.33"/><ellipse cx="414.3" cy="1037.33" fill="#ADD1B2" rx="11" ry="11" style="stroke:#181818;stroke-width:1.0;"/><path d="M416.7731,1043.4731 Q416.1921,1043.7719 415.5529,1043.9213 Q414.9138,1044.0707 414.2082,1044.0707 Q411.7014,1044.0707 410.3815,1042.4189 Q409.0617,1040.767 409.0617,1037.6459 Q409.0617,1034.5165 410.3815,1032.8647 Q411.7014,1031.2128 414.2082,1031.2128 Q414.9138,1031.2128 415.5612,1031.3622 Q416.2087,1031.5116 416.7731,1031.8105 L416.7731,1034.5331 Q416.1423,1033.9521 415.5488,1033.6823 Q414.9553,1033.4125 414.3244,1033.4125 Q412.9797,1033.4125 412.2949,1034.4792 Q411.6101,1035.5458 411.6101,1037.6459 Q411.6101,1039.7377 412.2949,1040.8044 Q412.9797,1041.871 414.3244,1041.871 Q414.9553,1041.871 415.5488,1041.6012 Q416.1423,1041.3315 416.7731,1040.7504 Z " fill="#000000"/><text fill="#000000" font-family="sans-serif" font-size="14" lengthAdjust="spacing" textLength="57" x="434.7" y="1042.621">Solution</text><line style="stroke:#181818;stroke-width:0.5;" x1="371.5" x2="522.5" y1="1053.33" y2="1053.33"/><rect fill="none" height="6" style="stroke:#C82930;stroke-width:1.0;" width="6" x="378.5" y="1064.0741"/><text fill="#000000" font-family="sans-serif" font-size="14" lengthAdjust="spacing" textLength="116" x="390.5" y="1070.8652">correct : boolean</text><rect fill="none" height="6" style="stroke:#C82930;stroke-width:1.0;" width="6" x="378.5" y="1080.5624"/><text fill="#000000" font-family="sans-serif" font-size="14" lengthAdjust="spacing" textLength="127" x="390.5" y="1087.3534">type: SolutionType</text><line style="stroke:#181818;stroke-width:0.5;" x1="371.5" x2="522.5" y1="1094.3066" y2="1094.3066"/></g><!--class SolutionType--><g id="elem_SolutionType"><rect codeLine="70" fill="#F1F1F1" height="97.4648" id="SolutionType" rx="2.5" ry="2.5" style="stroke:#181818;stroke-width:0.5;" width="126" x="466" y="1179.8"/><ellipse cx="482.8" cy="1195.8" fill="#EB937F" rx="11" ry="11" style="stroke:#181818;stroke-width:1.0;"/><path d="M486.4143,1202.3 L478.6945,1202.3 L478.6945,1189.9069 L486.4143,1189.9069 L486.4143,1192.0651 L481.1433,1192.0651 L481.1433,1194.738 L485.9162,1194.738 L485.9162,1196.8962 L481.1433,1196.8962 L481.1433,1200.1418 L486.4143,1200.1418 Z " fill="#000000"/><text fill="#000000" font-family="sans-serif" font-size="14" lengthAdjust="spacing" textLength="90" x="497.2" y="1201.091">SolutionType</text><line style="stroke:#181818;stroke-width:0.5;" x1="467" x2="591" y1="1211.8" y2="1211.8"/><text fill="#000000" font-family="sans-serif" font-size="14" lengthAdjust="spacing" textLength="37" x="472" y="1229.3352">Open</text><text fill="#000000" font-family="sans-serif" font-size="14" lengthAdjust="spacing" textLength="102" x="472" y="1245.8234">MultipleChoice</text><text fill="#000000" font-family="sans-serif" font-size="14" lengthAdjust="spacing" textLength="114" x="472" y="1262.3117">ApplicationCode</text><line style="stroke:#181818;stroke-width:0.5;" x1="467" x2="591" y1="1269.2648" y2="1269.2648"/></g><!--class Answer--><g id="elem_Answer"><rect codeLine="76" fill="#F1F1F1" height="80.9766" id="Answer" rx="2.5" ry="2.5" style="stroke:#181818;stroke-width:0.5;" width="160" x="7" y="1021.33"/><ellipse cx="57.25" cy="1037.33" fill="#ADD1B2" rx="11" ry="11" style="stroke:#181818;stroke-width:1.0;"/><path d="M59.7231,1043.4731 Q59.1421,1043.7719 58.5029,1043.9213 Q57.8638,1044.0707 57.1582,1044.0707 Q54.6514,1044.0707 53.3315,1042.4189 Q52.0117,1040.767 52.0117,1037.6459 Q52.0117,1034.5165 53.3315,1032.8647 Q54.6514,1031.2128 57.1582,1031.2128 Q57.8638,1031.2128 58.5112,1031.3622 Q59.1587,1031.5116 59.7231,1031.8105 L59.7231,1034.5331 Q59.0923,1033.9521 58.4988,1033.6823 Q57.9053,1033.4125 57.2744,1033.4125 Q55.9297,1033.4125 55.2449,1034.4792 Q54.5601,1035.5458 54.5601,1037.6459 Q54.5601,1039.7377 55.2449,1040.8044 Q55.9297,1041.871 57.2744,1041.871 Q57.9053,1041.871 58.4988,1041.6012 Q59.0923,1041.3315 59.7231,1040.7504 Z " fill="#000000"/><text fill="#000000" font-family="sans-serif" font-size="14" lengthAdjust="spacing" textLength="51" x="77.75" y="1042.621">Answer</text><line style="stroke:#181818;stroke-width:0.5;" x1="8" x2="166" y1="1053.33" y2="1053.33"/><rect fill="none" height="6" style="stroke:#C82930;stroke-width:1.0;" width="6" x="15" y="1064.0741"/><text fill="#000000" font-family="sans-serif" font-size="14" lengthAdjust="spacing" textLength="116" x="27" y="1070.8652">correct : boolean</text><rect fill="none" height="6" style="stroke:#C82930;stroke-width:1.0;" width="6" x="15" y="1080.5624"/><text fill="#000000" font-family="sans-serif" font-size="14" lengthAdjust="spacing" textLength="134" x="27" y="1087.3534">evaluated : boolean</text><line style="stroke:#181818;stroke-width:0.5;" x1="8" x2="166" y1="1094.3066" y2="1094.3066"/></g><!--class EducationPlatform--><g id="elem_EducationPlatform"><rect fill="#F1F1F1" height="48" id="EducationPlatform" rx="2.5" ry="2.5" style="stroke:#181818;stroke-width:0.5;" width="158" x="717" y="7"/><ellipse cx="732" cy="23" fill="#ADD1B2" rx="11" ry="11" style="stroke:#181818;stroke-width:1.0;"/><path d="M734.4731,29.1431 Q733.8921,29.4419 733.2529,29.5913 Q732.6138,29.7407 731.9082,29.7407 Q729.4014,29.7407 728.0815,28.0889 Q726.7617,26.437 726.7617,23.3159 Q726.7617,20.1865 728.0815,18.5347 Q729.4014,16.8828 731.9082,16.8828 Q732.6138,16.8828 733.2612,17.0322 Q733.9087,17.1816 734.4731,17.4805 L734.4731,20.2031 Q733.8423,19.6221 733.2488,19.3523 Q732.6553,19.0825 732.0244,19.0825 Q730.6797,19.0825 729.9949,20.1492 Q729.3101,21.2158 729.3101,23.3159 Q729.3101,25.4077 729.9949,26.4744 Q730.6797,27.541 732.0244,27.541 Q732.6553,27.541 733.2488,27.2712 Q733.8423,27.0015 734.4731,26.4204 Z " fill="#000000"/><text fill="#000000" font-family="sans-serif" font-size="14" lengthAdjust="spacing" textLength="126" x="746" y="28.291">EducationPlatform</text><line style="stroke:#181818;stroke-width:0.5;" x1="718" x2="874" y1="39" y2="39"/><line style="stroke:#181818;stroke-width:0.5;" x1="718" x2="874" y1="47" y2="47"/></g><!--class Teacher--><g id="elem_Teacher"><rect fill="#F1F1F1" height="48" id="Teacher" rx="2.5" ry="2.5" style="stroke:#181818;stroke-width:0.5;" width="87" x="583.5" y="248.94"/><ellipse cx="598.5" cy="264.94" fill="#ADD1B2" rx="11" ry="11" style="stroke:#181818;stroke-width:1.0;"/><path d="M600.9731,271.0831 Q600.3921,271.3819 599.7529,271.5313 Q599.1138,271.6807 598.4082,271.6807 Q595.9014,271.6807 594.5815,270.0289 Q593.2617,268.377 593.2617,265.2559 Q593.2617,262.1265 594.5815,260.4747 Q595.9014,258.8228 598.4082,258.8228 Q599.1138,258.8228 599.7612,258.9722 Q600.4087,259.1216 600.9731,259.4205 L600.9731,262.1431 Q600.3423,261.5621 599.7488,261.2923 Q599.1553,261.0225 598.5244,261.0225 Q597.1797,261.0225 596.4949,262.0892 Q595.8101,263.1558 595.8101,265.2559 Q595.8101,267.3477 596.4949,268.4144 Q597.1797,269.481 598.5244,269.481 Q599.1553,269.481 599.7488,269.2112 Q600.3423,268.9415 600.9731,268.3604 Z " fill="#000000"/><text fill="#000000" font-family="sans-serif" font-size="14" lengthAdjust="spacing" textLength="55" x="612.5" y="270.231">Teacher</text><line style="stroke:#181818;stroke-width:0.5;" x1="584.5" x2="669.5" y1="280.94" y2="280.94"/><line style="stroke:#181818;stroke-width:0.5;" x1="584.5" x2="669.5" y1="288.94" y2="288.94"/></g><!--class Student--><g id="elem_Student"><rect fill="#F1F1F1" height="48" id="Student" rx="2.5" ry="2.5" style="stroke:#181818;stroke-width:0.5;" width="85" x="392.5" y="119.97"/><ellipse cx="407.5" cy="135.97" fill="#ADD1B2" rx="11" ry="11" style="stroke:#181818;stroke-width:1.0;"/><path d="M409.9731,142.1131 Q409.3921,142.4119 408.7529,142.5613 Q408.1138,142.7107 407.4082,142.7107 Q404.9014,142.7107 403.5815,141.0589 Q402.2617,139.407 402.2617,136.2859 Q402.2617,133.1565 403.5815,131.5047 Q404.9014,129.8528 407.4082,129.8528 Q408.1138,129.8528 408.7612,130.0022 Q409.4087,130.1516 409.9731,130.4505 L409.9731,133.1731 Q409.3423,132.5921 408.7488,132.3223 Q408.1553,132.0525 407.5244,132.0525 Q406.1797,132.0525 405.4949,133.1192 Q404.8101,134.1858 404.8101,136.2859 Q404.8101,138.3777 405.4949,139.4444 Q406.1797,140.511 407.5244,140.511 Q408.1553,140.511 408.7488,140.2412 Q409.3423,139.9715 409.9731,139.3904 Z " fill="#000000"/><text fill="#000000" font-family="sans-serif" font-size="14" lengthAdjust="spacing" textLength="53" x="421.5" y="141.261">Student</text><line style="stroke:#181818;stroke-width:0.5;" x1="393.5" x2="476.5" y1="151.97" y2="151.97"/><line style="stroke:#181818;stroke-width:0.5;" x1="393.5" x2="476.5" y1="159.97" y2="159.97"/></g><!--class Chat--><g id="elem_Chat"><rect fill="#F1F1F1" height="48" id="Chat" rx="2.5" ry="2.5" style="stroke:#181818;stroke-width:0.5;" width="64" x="490" y="390.42"/><ellipse cx="505" cy="406.42" fill="#ADD1B2" rx="11" ry="11" style="stroke:#181818;stroke-width:1.0;"/><path d="M507.4731,412.5631 Q506.8921,412.8619 506.2529,413.0113 Q505.6138,413.1607 504.9082,413.1607 Q502.4014,413.1607 501.0815,411.5089 Q499.7617,409.857 499.7617,406.7359 Q499.7617,403.6065 501.0815,401.9547 Q502.4014,400.3028 504.9082,400.3028 Q505.6138,400.3028 506.2612,400.4522 Q506.9087,400.6016 507.4731,400.9005 L507.4731,403.6231 Q506.8423,403.0421 506.2488,402.7723 Q505.6553,402.5025 505.0244,402.5025 Q503.6797,402.5025 502.9949,403.5692 Q502.3101,404.6358 502.3101,406.7359 Q502.3101,408.8277 502.9949,409.8944 Q503.6797,410.961 505.0244,410.961 Q505.6553,410.961 506.2488,410.6912 Q506.8423,410.4215 507.4731,409.8404 Z " fill="#000000"/><text fill="#000000" font-family="sans-serif" font-size="14" lengthAdjust="spacing" textLength="32" x="519" y="411.711">Chat</text><line style="stroke:#181818;stroke-width:0.5;" x1="491" x2="553" y1="422.42" y2="422.42"/><line style="stroke:#181818;stroke-width:0.5;" x1="491" x2="553" y1="430.42" y2="430.42"/></g><g id="elem_GMN48"><path d="M263,116 L263,171.9316 A0,0 0 0 0 263,171.9316 L357,171.9316 A0,0 0 0 0 357,171.9316 L357,147.97 L392.24,143.97 L357,139.97 L357,126 L347,116 L263,116 A0,0 0 0 0 263,116 " fill="#FEFFDD" style="stroke:#181818;stroke-width:0.5;"/><path d="M347,116 L347,126 L357,126 L347,116 " fill="#FEFFDD" style="stroke:#181818;stroke-width:0.5;"/><text fill="#000000" font-family="sans-serif" font-size="13" lengthAdjust="spacing" textLength="68" x="269" y="133.5684">Editor only</text><text fill="#000000" font-family="sans-serif" font-size="13" lengthAdjust="spacing" textLength="69" x="269" y="148.8789">for custom</text><text fill="#000000" font-family="sans-serif" font-size="13" lengthAdjust="spacing" textLength="63" x="269" y="164.1895">itineraries</text></g><!--class Relation--><g id="elem_Relation"><rect codeLine="147" fill="#F1F1F1" height="64.4883" id="Relation" rx="2.5" ry="2.5" style="stroke:#181818;stroke-width:0.5;" width="156" x="692" y="1387.24"/><ellipse cx="737.75" cy="1403.24" fill="#ADD1B2" rx="11" ry="11" style="stroke:#181818;stroke-width:1.0;"/><path d="M740.2231,1409.3831 Q739.6421,1409.6819 739.0029,1409.8313 Q738.3638,1409.9807 737.6582,1409.9807 Q735.1514,1409.9807 733.8315,1408.3289 Q732.5117,1406.677 732.5117,1403.5559 Q732.5117,1400.4265 733.8315,1398.7747 Q735.1514,1397.1228 737.6582,1397.1228 Q738.3638,1397.1228 739.0112,1397.2722 Q739.6587,1397.4216 740.2231,1397.7205 L740.2231,1400.4431 Q739.5923,1399.8621 738.9988,1399.5923 Q738.4053,1399.3225 737.7744,1399.3225 Q736.4297,1399.3225 735.7449,1400.3892 Q735.0601,1401.4558 735.0601,1403.5559 Q735.0601,1405.6477 735.7449,1406.7144 Q736.4297,1407.781 737.7744,1407.781 Q738.4053,1407.781 738.9988,1407.5112 Q739.5923,1407.2415 740.2231,1406.6604 Z " fill="#000000"/><text fill="#000000" font-family="sans-serif" font-size="14" lengthAdjust="spacing" textLength="56" x="758.25" y="1408.531">Relation</text><line style="stroke:#181818;stroke-width:0.5;" x1="693" x2="847" y1="1419.24" y2="1419.24"/><rect fill="none" height="6" style="stroke:#C82930;stroke-width:1.0;" width="6" x="700" y="1429.9841"/><text fill="#000000" font-family="sans-serif" font-size="14" lengthAdjust="spacing" textLength="130" x="712" y="1436.7752">type : RelationType</text><line style="stroke:#181818;stroke-width:0.5;" x1="693" x2="847" y1="1443.7283" y2="1443.7283"/></g><!--class RelationType--><g id="elem_RelationType"><rect codeLine="139" fill="#F1F1F1" height="130.4414" id="RelationType" rx="2.5" ry="2.5" style="stroke:#181818;stroke-width:0.5;" width="121" x="883.5" y="1354.26"/><ellipse cx="898.5" cy="1370.26" fill="#EB937F" rx="11" ry="11" style="stroke:#181818;stroke-width:1.0;"/><path d="M902.1143,1376.76 L894.3945,1376.76 L894.3945,1364.3669 L902.1143,1364.3669 L902.1143,1366.5251 L896.8433,1366.5251 L896.8433,1369.198 L901.6162,1369.198 L901.6162,1371.3562 L896.8433,1371.3562 L896.8433,1374.6018 L902.1143,1374.6018 Z " fill="#000000"/><text fill="#000000" font-family="sans-serif" font-size="14" lengthAdjust="spacing" textLength="89" x="912.5" y="1375.551">RelationType</text><line style="stroke:#181818;stroke-width:0.5;" x1="884.5" x2="1003.5" y1="1386.26" y2="1386.26"/><text fill="#000000" font-family="sans-serif" font-size="14" lengthAdjust="spacing" textLength="25" x="889.5" y="1403.7952">Use</text><text fill="#000000" font-family="sans-serif" font-size="14" lengthAdjust="spacing" textLength="79" x="889.5" y="1420.2834">Association</text><text fill="#000000" font-family="sans-serif" font-size="14" lengthAdjust="spacing" textLength="88" x="889.5" y="1436.7717">Composition</text><text fill="#000000" font-family="sans-serif" font-size="14" lengthAdjust="spacing" textLength="77" x="889.5" y="1453.26">Inheritance</text><text fill="#000000" font-family="sans-serif" font-size="14" lengthAdjust="spacing" textLength="86" x="889.5" y="1469.7483">Aggregation</text><line style="stroke:#181818;stroke-width:0.5;" x1="884.5" x2="1003.5" y1="1476.7014" y2="1476.7014"/></g><!--class Podcast--><g id="elem_Podcast"><rect fill="#F1F1F1" height="48" id="Podcast" rx="2.5" ry="2.5" style="stroke:#181818;stroke-width:0.5;" width="85" x="848.5" y="871.6"/><ellipse cx="863.5" cy="887.6" fill="#ADD1B2" rx="11" ry="11" style="stroke:#181818;stroke-width:1.0;"/><path d="M865.9731,893.7431 Q865.3921,894.0419 864.7529,894.1913 Q864.1138,894.3407 863.4082,894.3407 Q860.9014,894.3407 859.5815,892.6889 Q858.2617,891.037 858.2617,887.9159 Q858.2617,884.7865 859.5815,883.1347 Q860.9014,881.4828 863.4082,881.4828 Q864.1138,881.4828 864.7612,881.6322 Q865.4087,881.7816 865.9731,882.0805 L865.9731,884.8031 Q865.3423,884.2221 864.7488,883.9523 Q864.1553,883.6825 863.5244,883.6825 Q862.1797,883.6825 861.4949,884.7492 Q860.8101,885.8158 860.8101,887.9159 Q860.8101,890.0077 861.4949,891.0744 Q862.1797,892.141 863.5244,892.141 Q864.1553,892.141 864.7488,891.8712 Q865.3423,891.6015 865.9731,891.0204 Z " fill="#000000"/><text fill="#000000" font-family="sans-serif" font-size="14" lengthAdjust="spacing" textLength="53" x="877.5" y="892.891">Podcast</text><line style="stroke:#181818;stroke-width:0.5;" x1="849.5" x2="932.5" y1="903.6" y2="903.6"/><line style="stroke:#181818;stroke-width:0.5;" x1="849.5" x2="932.5" y1="911.6" y2="911.6"/></g><!--class Video--><g id="elem_Video"><rect fill="#F1F1F1" height="48" id="Video" rx="2.5" ry="2.5" style="stroke:#181818;stroke-width:0.5;" width="71" x="968.5" y="871.6"/><ellipse cx="983.5" cy="887.6" fill="#ADD1B2" rx="11" ry="11" style="stroke:#181818;stroke-width:1.0;"/><path d="M985.9731,893.7431 Q985.3921,894.0419 984.7529,894.1913 Q984.1138,894.3407 983.4082,894.3407 Q980.9014,894.3407 979.5815,892.6889 Q978.2617,891.037 978.2617,887.9159 Q978.2617,884.7865 979.5815,883.1347 Q980.9014,881.4828 983.4082,881.4828 Q984.1138,881.4828 984.7612,881.6322 Q985.4087,881.7816 985.9731,882.0805 L985.9731,884.8031 Q985.3423,884.2221 984.7488,883.9523 Q984.1553,883.6825 983.5244,883.6825 Q982.1797,883.6825 981.4949,884.7492 Q980.8101,885.8158 980.8101,887.9159 Q980.8101,890.0077 981.4949,891.0744 Q982.1797,892.141 983.5244,892.141 Q984.1553,892.141 984.7488,891.8712 Q985.3423,891.6015 985.9731,891.0204 Z " fill="#000000"/><text fill="#000000" font-family="sans-serif" font-size="14" lengthAdjust="spacing" textLength="39" x="997.5" y="892.891">Video</text><line style="stroke:#181818;stroke-width:0.5;" x1="969.5" x2="1038.5" y1="903.6" y2="903.6"/><line style="stroke:#181818;stroke-width:0.5;" x1="969.5" x2="1038.5" y1="911.6" y2="911.6"/></g><!--link EducationPlatform to Teacher--><g id="link_EducationPlatform_Teacher"><path codeLine="81" d="M772.5793,65.2603 C740.1893,111.2403 679.0354,198.0649 646.7854,243.8449 " fill="none" id="EducationPlatform-Teacher" style="stroke:#181818;stroke-width:1.0;"/><polygon fill="#181818" points="779.49,55.45,772.7645,58.0516,772.5793,65.2603,779.3047,62.6587,779.49,55.45" style="stroke:#181818;stroke-width:1.0;"/><polygon fill="#181818" points="643.33,248.75,651.7832,243.696,646.2095,244.6624,645.2431,239.0887,643.33,248.75" style="stroke:#181818;stroke-width:1.0;"/><text fill="#000000" font-family="sans-serif" font-size="13" lengthAdjust="spacing" textLength="10" x="636.2333" y="238.2376">+</text></g><!--link EducationPlatform to Student--><g id="link_EducationPlatform_Student"><path codeLine="82" d="M704.805,36.6183 C644.355,41.8683 572.26,53.67 505,85 C487.12,93.33 474.3632,103.2209 461.5432,115.3809 " fill="none" id="EducationPlatform-Student" style="stroke:#181818;stroke-width:1.0;"/><polygon fill="#181818" points="716.76,35.58,710.4364,32.1141,704.805,36.6183,711.1286,40.0841,716.76,35.58" style="stroke:#181818;stroke-width:1.0;"/><polygon fill="#181818" points="457.19,119.51,466.4726,116.2185,460.8177,116.0691,460.9671,110.4142,457.19,119.51" style="stroke:#181818;stroke-width:1.0;"/><text fill="#000000" font-family="sans-serif" font-size="13" lengthAdjust="spacing" textLength="10" x="451.3801" y="109.326">+</text></g><!--link EducationPlatform to Topic--><g id="link_EducationPlatform_Topic"><path codeLine="83" d="M887.0597,42.5733 C949.0497,54.0433 1013,78.97 1013,142.97 C1013,142.97 1013,142.97 1013,415.42 C1013,449.66 1004.5275,480.7413 993.2675,509.9613 " fill="none" id="EducationPlatform-Topic" style="stroke:#181818;stroke-width:1.0;"/><polygon fill="#181818" points="875.26,40.39,880.4321,45.4149,887.0597,42.5733,881.8876,37.5484,875.26,40.39" style="stroke:#181818;stroke-width:1.0;"/><polygon fill="#181818" points="991.11,515.56,998.0787,508.6003,992.9079,510.8944,990.6137,505.7237,991.11,515.56" style="stroke:#181818;stroke-width:1.0;"/></g><!--link EducationPlatform to Itinerary--><g id="link_EducationPlatform_Itinerary"><path codeLine="84" d="M840.5269,62.934 C850.5669,71.194 851.31,73.66 858,85 C884.96,130.7 876.64,149.15 882,201.94 C888.2,262.93 868.5992,326.1355 851.8392,368.2355 " fill="none" id="EducationPlatform-Itinerary" style="stroke:#181818;stroke-width:1.0;"/><polygon fill="#181818" points="831.26,55.31,833.3521,62.2109,840.5269,62.934,838.4348,56.033,831.26,55.31" style="stroke:#181818;stroke-width:1.0;"/><polygon fill="#181818" points="849.62,373.81,856.6652,366.9277,851.4693,369.1646,849.2325,363.9688,849.62,373.81" style="stroke:#181818;stroke-width:1.0;"/><text fill="#000000" font-family="sans-serif" font-size="13" lengthAdjust="spacing" textLength="67" x="884" y="215.5084">predefined</text></g><!--link EducationPlatform to Itinerary--><g id="link_EducationPlatform_Itinerary"><path codeLine="85" d="M799.3278,67.2369 C805.2978,130.4769 820.166,288.0666 827.666,367.4966 " fill="none" id="EducationPlatform-Itinerary-1" style="stroke:#181818;stroke-width:1.0;"/><polygon fill="none" points="798.2,55.29,794.7816,61.6394,799.3278,67.2369,802.7462,60.8875,798.2,55.29" style="stroke:#181818;stroke-width:1.0;"/><polygon fill="#181818" points="828.23,373.47,831.3662,364.1338,827.76,368.4921,823.4017,364.8859,828.23,373.47" style="stroke:#181818;stroke-width:1.0;"/><text fill="#000000" font-family="sans-serif" font-size="13" lengthAdjust="spacing" textLength="47" x="815" y="215.5084">custom</text><text fill="#000000" font-family="sans-serif" font-size="13" lengthAdjust="spacing" textLength="6" x="821.151" y="363.3401">*</text></g><!--link EducationPlatform to Chat--><g id="link_EducationPlatform_Chat"><path codeLine="86" d="M749.5345,62.2089 C697.7045,97.5389 613.76,162.76 566,248.94 C540.42,295.09 529.9266,350.9045 525.4266,384.0745 " fill="none" id="EducationPlatform-Chat" style="stroke:#181818;stroke-width:1.0;"/><polygon fill="none" points="759.45,55.45,752.2393,55.5243,749.5345,62.2089,756.7452,62.1346,759.45,55.45" style="stroke:#181818;stroke-width:1.0;"/><polygon fill="#181818" points="524.62,390.02,529.7936,381.6394,525.2922,385.0654,521.8662,380.564,524.62,390.02" style="stroke:#181818;stroke-width:1.0;"/></g><!--link Chat to Excercise--><g id="link_Chat_Excercise"><path codeLine="87" d="M522,450.73 C522,507.76 522,635.85 522,692.84 " fill="none" id="Chat-Excercise" style="stroke:#181818;stroke-width:1.0;"/><polygon fill="none" points="522,438.73,518,444.73,522,450.73,526,444.73,522,438.73" style="stroke:#181818;stroke-width:1.0;"/><polygon fill="#181818" points="522,698.84,526,689.84,522,693.84,518,689.84,522,698.84" style="stroke:#181818;stroke-width:1.0;"/><text fill="#000000" font-family="sans-serif" font-size="13" lengthAdjust="spacing" textLength="10" x="510.7188" y="688.3071">+</text></g><!--link Teacher to Chat--><g id="link_Teacher_Chat"><path codeLine="91" d="M609.43,297.28 C590.04,323.03 562.6489,359.4267 543.2389,385.2067 " fill="none" id="Teacher-to-Chat" style="stroke:#181818;stroke-width:1.0;stroke-dasharray:7.0,7.0;"/><polygon fill="#181818" points="539.63,390,548.2389,385.216,542.6374,386.0056,541.8478,380.4041,539.63,390" style="stroke:#181818;stroke-width:1.0;"/></g><!--link Student to Chat--><g id="link_Student_Chat"><path codeLine="92" d="M442.57,168.32 C459.02,219.1 496.0395,333.3325 512.5395,384.2225 " fill="none" id="Student-to-Chat" style="stroke:#181818;stroke-width:1.0;stroke-dasharray:7.0,7.0;"/><polygon fill="#181818" points="514.39,389.93,515.4192,380.1351,512.8479,385.1738,507.8092,382.6024,514.39,389.93" style="stroke:#181818;stroke-width:1.0;"/></g><!--link Student to Answer--><g id="link_Student_Answer"><path codeLine="93" d="M381.2131,169.4058 C375.4531,171.9358 380.59,169.62 375,171.94 C259.47,219.81 112,146.88 112,271.94 C112,271.94 112,271.94 112,896.6 C112,939.42 104.8433,981.9524 97.7733,1015.0524 " fill="none" id="Student-Answer" style="stroke:#181818;stroke-width:1.0;"/><polygon fill="none" points="392.2,164.58,385.098,163.3306,381.2131,169.4058,388.3152,170.6552,392.2,164.58" style="stroke:#181818;stroke-width:1.0;"/><polygon fill="#181818" points="96.52,1020.92,102.3117,1012.9541,97.5644,1016.0303,94.4882,1011.283,96.52,1020.92" style="stroke:#181818;stroke-width:1.0;"/><text fill="#000000" font-family="sans-serif" font-size="13" lengthAdjust="spacing" textLength="6" x="91.5999" y="1010.4981">*</text></g><!--reverse link Excercise to Domain--><g id="link_Excercise_Domain"><path codeLine="95" d="M546.2203,762.705 C566.6603,795.265 593.92,838.71 614.35,871.26 " fill="none" id="Excercise-backto-Domain" style="stroke:#181818;stroke-width:1.0;"/><polygon fill="none" points="536.65,747.46,541.1386,765.8951,551.3019,759.5149,536.65,747.46" style="stroke:#181818;stroke-width:1.0;"/></g><!--reverse link Excercise to Question--><g id="link_Excercise_Question"><path codeLine="96" d="M504.4807,763.9357 C491.2807,793.9357 475.57,829.66 460.84,863.14 " fill="none" id="Excercise-backto-Question" style="stroke:#181818;stroke-width:1.0;"/><polygon fill="none" points="511.73,747.46,498.9888,761.5192,509.9726,766.3521,511.73,747.46" style="stroke:#181818;stroke-width:1.0;"/></g><!--link Domain to Application--><g id="link_Domain_Application"><path codeLine="98" d="M645.3523,930.5937 C656.9223,954.6437 667.549,976.7231 682.279,1007.3431 " fill="none" id="Domain-Application" style="stroke:#181818;stroke-width:1.0;"/><polygon fill="none" points="640.15,919.78,639.1466,926.9209,645.3523,930.5937,646.3557,923.4528,640.15,919.78" style="stroke:#181818;stroke-width:1.0;"/><polygon fill="#181818" points="684.88,1012.75,684.583,1002.9056,682.7125,1008.2442,677.3738,1006.3737,684.88,1012.75" style="stroke:#181818;stroke-width:1.0;"/><text fill="#000000" font-family="sans-serif" font-size="13" lengthAdjust="spacing" textLength="83" x="668" y="971.4084">requirements</text><text fill="#000000" font-family="sans-serif" font-size="13" lengthAdjust="spacing" textLength="6" x="675.2069" y="1002.3847">*</text></g><!--link Application to Concept--><g id="link_Application_Concept"><path codeLine="99" d="M710.34,1110.9 C711.83,1141.67 713.4097,1174.207 714.5797,1198.357 " fill="none" id="Application-to-Concept" style="stroke:#181818;stroke-width:1.0;"/><polygon fill="#181818" points="714.87,1204.35,718.4298,1195.167,714.628,1199.3559,710.4392,1195.5541,714.87,1204.35" style="stroke:#181818;stroke-width:1.0;"/><text fill="#000000" font-family="sans-serif" font-size="13" lengthAdjust="spacing" textLength="10" x="703.2992" y="1193.8401">+</text></g><!--link Domain to Solution--><g id="link_Domain_Solution"><path codeLine="100" d="M594.4011,927.8194 C565.3011,954.0794 530.724,985.2698 495.604,1016.9698 " fill="none" id="Domain-Solution" style="stroke:#181818;stroke-width:1.0;"/><polygon fill="none" points="603.31,919.78,596.1758,920.8301,594.4011,927.8194,601.5354,926.7693,603.31,919.78" style="stroke:#181818;stroke-width:1.0;"/><polygon fill="#181818" points="491.15,1020.99,500.5111,1017.929,494.8616,1017.6398,495.1508,1011.9903,491.15,1020.99" style="stroke:#181818;stroke-width:1.0;"/><text fill="#000000" font-family="sans-serif" font-size="13" lengthAdjust="spacing" textLength="6" x="491.9655" y="1010.5797">*</text></g><!--link Question to Concept--><g id="link_Question_Concept"><path codeLine="102" d="M476.77,928.17 C495.99,949.19 521.04,977.81 541,1004.84 C576.45,1052.84 575.41,1071.66 612,1118.8 C636.51,1150.36 664.541,1178.8855 686.611,1200.0655 " fill="none" id="Question-to-Concept" style="stroke:#181818;stroke-width:1.0;"/><polygon fill="#181818" points="690.94,1204.22,687.2161,1195.1023,687.3325,1200.758,681.6768,1200.8743,690.94,1204.22" style="stroke:#181818;stroke-width:1.0;"/><text fill="#000000" font-family="sans-serif" font-size="13" lengthAdjust="spacing" textLength="10" x="673.2371" y="1193.6768">+</text></g><!--link Question to Application--><g id="link_Question_Application"><path codeLine="103" d="M512.84,928.22 C530.41,937.27 549.18,947.5 566,957.84 C593.11,974.51 616.9311,991.1553 641.3311,1009.2553 " fill="none" id="Question-to-Application" style="stroke:#181818;stroke-width:1.0;"/><polygon fill="#181818" points="646.15,1012.83,641.3048,1004.2554,642.1343,1009.8511,636.5385,1010.6806,646.15,1012.83" style="stroke:#181818;stroke-width:1.0;"/><text fill="#000000" font-family="sans-serif" font-size="13" lengthAdjust="spacing" textLength="6" x="631.0305" y="1002.4759">*</text></g><!--link Question to Answer--><g id="link_Question_Answer"><path codeLine="104" d="M351.4323,932.6757 C299.4823,952.9657 243.12,976.38 185,1004.84 C174.97,1009.75 169.8044,1012.3533 159.6644,1017.9433 " fill="none" id="Question-Answer" style="stroke:#181818;stroke-width:1.0;"/><polygon fill="none" points="362.61,928.31,355.5659,926.7669,351.4323,932.6757,358.4764,934.2187,362.61,928.31" style="stroke:#181818;stroke-width:1.0;"/><polygon fill="#181818" points="154.41,1020.84,164.2228,1019.9979,158.7887,1018.4261,160.3606,1012.992,154.41,1020.84" style="stroke:#181818;stroke-width:1.0;"/><text fill="#000000" font-family="sans-serif" font-size="13" lengthAdjust="spacing" textLength="6" x="158.6753" y="1010.7069">*</text></g><!--link Question to StatementType--><g id="link_Question_StatementType"><path codeLine="105" d="M403.8611,936.398 C380.4211,958.028 361.9498,975.0614 334.2898,1000.5814 " fill="none" id="Question-StatementType" style="stroke:#181818;stroke-width:1.0;"/><polygon fill="#181818" points="412.68,928.26,405.5579,929.3893,403.8611,936.398,410.9832,935.2686,412.68,928.26" style="stroke:#181818;stroke-width:1.0;"/><polygon fill="#181818" points="329.88,1004.65,339.2071,1001.4869,333.5548,1001.2595,333.7823,995.6072,329.88,1004.65" style="stroke:#181818;stroke-width:1.0;"/></g><!--link Question to Solution--><g id="link_Question_Solution"><path codeLine="106" d="M447,940.26 C447,966.73 447,986.62 447,1015.12 " fill="none" id="Question-Solution" style="stroke:#181818;stroke-width:1.0;"/><polygon fill="none" points="447,928.26,443,934.26,447,940.26,451,934.26,447,928.26" style="stroke:#181818;stroke-width:1.0;"/><polygon fill="#181818" points="447,1021.12,451,1012.12,447,1016.12,443,1012.12,447,1021.12" style="stroke:#181818;stroke-width:1.0;"/><text fill="#000000" font-family="sans-serif" font-size="13" lengthAdjust="spacing" textLength="6" x="440.5031" y="1010.7312">*</text></g><!--link Solution to SolutionType--><g id="link_Solution_SolutionType"><path codeLine="107" d="M472.198,1113.4324 C483.718,1136.5724 490.2755,1149.749 502.4255,1174.149 " fill="none" id="Solution-SolutionType" style="stroke:#181818;stroke-width:1.0;"/><polygon fill="#181818" points="466.85,1102.69,465.9432,1109.8439,472.198,1113.4324,473.1048,1106.2785,466.85,1102.69" style="stroke:#181818;stroke-width:1.0;"/><polygon fill="#181818" points="505.1,1179.52,504.6689,1169.6806,502.8713,1175.0442,497.5077,1173.2465,505.1,1179.52" style="stroke:#181818;stroke-width:1.0;"/></g><!--link Solution to Justification--><g id="link_Solution_Justification"><path codeLine="108" d="M446.5074,1114.6595 C445.5574,1215.9195 443.2163,1463.5603 442.3563,1555.2703 " fill="none" id="Solution-Justification" style="stroke:#181818;stroke-width:1.0;"/><polygon fill="none" points="446.62,1102.66,442.5639,1108.6222,446.5074,1114.6595,450.5635,1108.6973,446.62,1102.66" style="stroke:#181818;stroke-width:1.0;"/><polygon fill="#181818" points="442.3,1561.27,446.3842,1552.3079,442.3469,1556.2702,438.3846,1552.2329,442.3,1561.27" style="stroke:#181818;stroke-width:1.0;"/><text fill="#000000" font-family="sans-serif" font-size="13" lengthAdjust="spacing" textLength="92" x="446" y="1320.8284">correct = false</text><text fill="#000000" font-family="sans-serif" font-size="13" lengthAdjust="spacing" textLength="5" x="436.8669" y="1550.9596">?</text></g><!--link Teacher to Topic--><g id="link_Teacher_Topic"><path codeLine="110" d="M631.01,297.32 C638.62,335.13 658.56,409.95 703,454.91 C748.35,500.79 809.1564,528.3274 863.8164,546.1774 " fill="none" id="Teacher-to-Topic" style="stroke:#181818;stroke-width:1.0;stroke-dasharray:7.0,7.0;"/><polygon fill="#181818" points="869.52,548.04,862.2064,541.4437,864.767,546.4878,859.7229,549.0485,869.52,548.04" style="stroke:#181818;stroke-width:1.0;"/><text fill="#000000" font-family="sans-serif" font-size="13" lengthAdjust="spacing" textLength="37" x="704" y="419.4884">editor</text></g><!--link Teacher to Itinerary--><g id="link_Teacher_Itinerary"><path codeLine="111" d="M640,297.13 C649.3,312.06 662.98,331 679,343.94 C702.72,363.08 727.0244,375.8895 754.0444,387.0495 " fill="none" id="Teacher-to-Itinerary" style="stroke:#181818;stroke-width:1.0;stroke-dasharray:7.0,7.0;"/><polygon fill="#181818" points="759.59,389.34,752.7986,382.2072,754.9687,387.4313,749.7446,389.6013,759.59,389.34" style="stroke:#181818;stroke-width:1.0;"/><text fill="#000000" font-family="sans-serif" font-size="13" lengthAdjust="spacing" textLength="37" x="680" y="340.5084">editor</text></g><!--link Student to Itinerary--><g id="link_Student_Itinerary"><path codeLine="112" d="M477.84,155.99 C530.72,171 621.75,201.56 688,248.94 C736.16,283.38 775.6071,332.0415 801.7971,368.6215 " fill="none" id="Student-to-Itinerary" style="stroke:#181818;stroke-width:1.0;stroke-dasharray:7.0,7.0;"/><polygon fill="#181818" points="805.29,373.5,803.3031,363.8536,802.3793,369.4346,796.7984,368.5108,805.29,373.5" style="stroke:#181818;stroke-width:1.0;"/><text fill="#000000" font-family="sans-serif" font-size="13" lengthAdjust="spacing" textLength="37" x="742" y="278.0084">editor</text></g><!--reverse link Topic to CompositeTopic--><g id="link_Topic_CompositeTopic"><path codeLine="121" d="M951.9027,648.3373 C951.1327,668.7873 952.4,673.16 954.36,690.68 " fill="none" id="Topic-backto-CompositeTopic" style="stroke:#181818;stroke-width:1.0;stroke-dasharray:7.0,7.0;"/><polygon fill="none" points="952.58,630.35,945.907,648.1115,957.8985,648.563,952.58,630.35" style="stroke:#181818;stroke-width:1.0;"/></g><!--link CompositeTopic to Topic--><g id="link_CompositeTopic_Topic"><path codeLine="123" d="M977.678,678.7629 C979.748,661.2429 979.2104,656.7952 978.3904,636.3452 " fill="none" id="CompositeTopic-Topic" style="stroke:#181818;stroke-width:1.0;"/><polygon fill="none" points="976.27,690.68,980.9464,685.1908,977.678,678.7629,973.0016,684.2521,976.27,690.68" style="stroke:#181818;stroke-width:1.0;"/><polygon fill="#181818" points="978.15,630.35,974.5138,639.503,978.3503,635.346,982.5074,639.1825,978.15,630.35" style="stroke:#181818;stroke-width:1.0;"/><text fill="#000000" font-family="sans-serif" font-size="13" lengthAdjust="spacing" textLength="10" x="969.0923" y="650.4477">+</text></g><!--reverse link Topic to SimpleTopic--><g id="link_Topic_SimpleTopic"><path codeLine="122" d="M1032.7222,643.7053 C1048.4422,661.9153 1052.58,669.36 1064,690.87 C1080.19,721.37 1089.14,760.66 1093.51,785.18 " fill="none" id="Topic-backto-SimpleTopic" style="stroke:#181818;stroke-width:1.0;stroke-dasharray:7.0,7.0;"/><polygon fill="none" points="1020.96,630.08,1028.1805,647.6261,1037.264,639.7846,1020.96,630.08" style="stroke:#181818;stroke-width:1.0;"/></g><!--link Itinerary to Topic--><g id="link_Itinerary_Topic"><path codeLine="128" d="M873.6799,464.4549 C889.2199,482.7449 896.2751,491.0275 913.2251,510.9775 " fill="none" id="Itinerary-Topic" style="stroke:#181818;stroke-width:1.0;"/><polygon fill="none" points="865.91,455.31,866.7467,462.4724,873.6799,464.4549,872.8432,457.2925,865.91,455.31" style="stroke:#181818;stroke-width:1.0;"/><polygon fill="#181818" points="917.11,515.55,914.331,506.1013,913.8726,511.7396,908.2343,511.2812,917.11,515.55" style="stroke:#181818;stroke-width:1.0;"/><text fill="#000000" font-family="sans-serif" font-size="13" lengthAdjust="spacing" textLength="10" x="900.664" y="505.2353">+</text></g><!--link SimpleTopic to Concept--><g id="link_SimpleTopic_Concept"><path codeLine="132" d="M1093.0548,845.5352 C1085.8848,902.2452 1061.38,1037 978,1118.8 C916.83,1178.81 823.6478,1206.2172 766.4578,1218.4272 " fill="none" id="SimpleTopic-Concept" style="stroke:#181818;stroke-width:1.0;"/><polygon fill="none" points="1094.56,833.63,1089.839,839.0809,1093.0548,845.5352,1097.7758,840.0843,1094.56,833.63" style="stroke:#181818;stroke-width:1.0;"/><polygon fill="#181818" points="760.59,1219.68,770.2268,1221.7127,765.4798,1218.636,768.5565,1213.889,760.59,1219.68" style="stroke:#181818;stroke-width:1.0;"/><text fill="#000000" font-family="sans-serif" font-size="13" lengthAdjust="spacing" textLength="10" x="768.4934" y="1214.6673">+</text></g><!--link Topic to Multimedia--><g id="link_Topic_Multimedia"><path codeLine="133" d="M891.203,638.2337 C863.983,661.9537 847.402,676.4164 826.372,694.7564 " fill="none" id="Topic-Multimedia" style="stroke:#181818;stroke-width:1.0;"/><polygon fill="none" points="900.25,630.35,893.0986,631.2762,891.203,638.2337,898.3544,637.3075,900.25,630.35" style="stroke:#181818;stroke-width:1.0;"/><polygon fill="#181818" points="821.85,698.7,831.262,695.7993,825.6183,695.4137,826.0039,689.77,821.85,698.7" style="stroke:#181818;stroke-width:1.0;"/><text fill="#000000" font-family="sans-serif" font-size="13" lengthAdjust="spacing" textLength="10" x="817.1759" y="688.5281">+</text></g><!--link Concept to Definition--><g id="link_Concept_Definition"><path codeLine="134" d="M687.2788,1261.6432 C657.1288,1295.3432 613.0999,1344.5778 579.2199,1382.4578 " fill="none" id="Concept-Definition" style="stroke:#181818;stroke-width:1.0;"/><polygon fill="#181818" points="695.28,1252.7,688.2983,1254.5046,687.2788,1261.6432,694.2605,1259.8387,695.28,1252.7" style="stroke:#181818;stroke-width:1.0;"/><polygon fill="#181818" points="575.22,1386.93,584.2014,1382.8883,578.5533,1383.2032,578.2385,1377.5551,575.22,1386.93" style="stroke:#181818;stroke-width:1.0;"/><text fill="#000000" font-family="sans-serif" font-size="13" lengthAdjust="spacing" textLength="44" x="643" y="1320.8284">correct</text><text fill="#000000" font-family="sans-serif" font-size="13" lengthAdjust="spacing" textLength="10" x="570.0091" y="1376.2692">+</text></g><!--link Concept to Definition--><g id="link_Concept_Definition"><path codeLine="135" d="M660.2187,1255.4334 C618.5787,1275.0934 572.9,1297.82 566,1307.26 C549.24,1330.2 545.42,1356.8302 545.22,1380.8202 " fill="none" id="Concept-Definition-1" style="stroke:#181818;stroke-width:1.0;"/><polygon fill="#181818" points="671.07,1250.31,663.9366,1249.2546,660.2187,1255.4334,667.3521,1256.4888,671.07,1250.31" style="stroke:#181818;stroke-width:1.0;"/><polygon fill="#181818" points="545.17,1386.82,549.2449,1377.8537,545.2117,1381.8202,541.2452,1377.787,545.17,1386.82" style="stroke:#181818;stroke-width:1.0;"/><text fill="#000000" font-family="sans-serif" font-size="13" lengthAdjust="spacing" textLength="56" x="567" y="1320.8284">incorrect</text><text fill="#000000" font-family="sans-serif" font-size="13" lengthAdjust="spacing" textLength="6" x="538.2191" y="1376.5116">*</text></g><!--link Relation to RelationType--><g id="link_Relation_RelationType"><path codeLine="136" d="M860.16,1419.48 C871.89,1419.48 865.62,1419.48 877.35,1419.48 " fill="none" id="Relation-RelationType" style="stroke:#181818;stroke-width:1.0;"/><polygon fill="#181818" points="848.16,1419.48,854.16,1423.48,860.16,1419.48,854.16,1415.48,848.16,1419.48" style="stroke:#181818;stroke-width:1.0;"/><polygon fill="#181818" points="883.35,1419.48,874.35,1415.48,878.35,1419.48,874.35,1423.48,883.35,1419.48" style="stroke:#181818;stroke-width:1.0;"/></g><!--link Concept to Relation--><g id="link_Concept_Relation"><path codeLine="137" d="M717.8642,1264.8423 C719.1842,1284.2523 721.35,1300.47 728,1324.26 C734.08,1345.99 741.6908,1363.7815 750.5508,1381.7015 " fill="none" id="Concept-Relation" style="stroke:#181818;stroke-width:1.0;"/><polygon fill="#181818" points="717.05,1252.87,713.4663,1259.1276,717.8642,1264.8423,721.4479,1258.5848,717.05,1252.87" style="stroke:#181818;stroke-width:1.0;"/><polygon fill="#181818" points="753.21,1387.08,752.8068,1377.2394,750.994,1382.5979,745.6355,1380.7851,753.21,1387.08" style="stroke:#181818;stroke-width:1.0;"/><text fill="#000000" font-family="sans-serif" font-size="13" lengthAdjust="spacing" textLength="37" x="729" y="1320.8284">origin</text><text fill="#000000" font-family="sans-serif" font-size="13" lengthAdjust="spacing" textLength="6" x="743.1283" y="1376.4502">*</text></g><!--link Relation to Concept--><g id="link_Relation_Concept"><path codeLine="152" d="M775.42,1387.02 C778.11,1364.31 779.25,1333.21 771,1307.26 C764.54,1286.94 754.4957,1271.9403 742.2857,1257.5103 " fill="none" id="Relation-to-Concept" style="stroke:#181818;stroke-width:1.0;"/><polygon fill="#181818" points="738.41,1252.93,741.1699,1262.3842,741.6397,1256.7469,747.277,1257.2167,738.41,1252.93" style="stroke:#181818;stroke-width:1.0;"/><text fill="#000000" font-family="sans-serif" font-size="13" lengthAdjust="spacing" textLength="37" x="776" y="1320.8284">target</text><text fill="#000000" font-family="sans-serif" font-size="13" lengthAdjust="spacing" textLength="10" x="732.4361" y="1272.9111">+</text></g><!--link Definition to Justification--><g id="link_Definition_Justification"><path codeLine="153" d="M521.5011,1462.3606 C502.6211,1493.3806 483.3409,1525.0455 464.4309,1556.0955 " fill="none" id="Definition-Justification" style="stroke:#181818;stroke-width:1.0;"/><polygon fill="none" points="527.74,1452.11,521.2036,1455.1557,521.5011,1462.3606,528.0374,1459.315,527.74,1452.11" style="stroke:#181818;stroke-width:1.0;"/><polygon fill="#181818" points="461.31,1561.22,469.4076,1555.6139,463.9107,1556.9496,462.575,1551.4527,461.31,1561.22" style="stroke:#181818;stroke-width:1.0;"/><text fill="#000000" font-family="sans-serif" font-size="13" lengthAdjust="spacing" textLength="92" x="490" y="1528.2684">correct = false</text><text fill="#000000" font-family="sans-serif" font-size="13" lengthAdjust="spacing" textLength="6" x="458.521" y="1550.8998">*</text></g><!--reverse link Multimedia to Podcast--><g id="link_Multimedia_Podcast"><path codeLine="158" d="M816.9802,763.1453 C835.3102,795.7053 859.53,838.71 877.86,871.26 " fill="none" id="Multimedia-backto-Podcast" style="stroke:#181818;stroke-width:1.0;"/><polygon fill="none" points="808.15,747.46,811.7518,766.0887,822.2086,760.2019,808.15,747.46" style="stroke:#181818;stroke-width:1.0;"/></g><!--reverse link Multimedia to Video--><g id="link_Multimedia_Video"><path codeLine="159" d="M837.5673,758.8387 C877.4773,791.3987 935.48,838.71 975.39,871.26 " fill="none" id="Multimedia-backto-Video" style="stroke:#181818;stroke-width:1.0;"/><polygon fill="none" points="823.62,747.46,833.7744,763.4878,841.3601,754.1896,823.62,747.46" style="stroke:#181818;stroke-width:1.0;"/></g><!--link Podcast to Text--><g id="link_Podcast_Text"><path codeLine="161" d="M891,931.78 C891,958.04 891,983.29 891,1014.99 " fill="none" id="Podcast-Text" style="stroke:#181818;stroke-width:1.0;"/><polygon fill="none" points="891,919.78,887,925.78,891,931.78,895,925.78,891,919.78" style="stroke:#181818;stroke-width:1.0;"/><polygon fill="#181818" points="891,1020.99,895,1011.99,891,1015.99,887,1011.99,891,1020.99" style="stroke:#181818;stroke-width:1.0;"/><text fill="#000000" font-family="sans-serif" font-size="13" lengthAdjust="spacing" textLength="61" x="892" y="971.4084">transcript</text></g><!--link Video to Text--><g id="link_Video_Text"><path codeLine="162" d="M986.6627,930.4099 C978.3027,946.2999 972.04,957.02 960,974.84 C949.39,990.54 940.465,1002.3126 928.845,1016.5426 " fill="none" id="Video-Text" style="stroke:#181818;stroke-width:1.0;"/><polygon fill="none" points="992.25,919.79,985.9164,923.2375,986.6627,930.4099,992.9963,926.9624,992.25,919.79" style="stroke:#181818;stroke-width:1.0;"/><polygon fill="#181818" points="925.05,1021.19,933.8407,1016.7489,928.2125,1017.3172,927.6442,1011.6889,925.05,1021.19" style="stroke:#181818;stroke-width:1.0;"/><text fill="#000000" font-family="sans-serif" font-size="13" lengthAdjust="spacing" textLength="61" x="971" y="971.4084">transcript</text></g><!--reverse link Multimedia to Text--><g id="link_Multimedia_Text"><path codeLine="164" d="M799.1109,765.3704 C803.1609,803.7104 811.35,864.18 831,927.84 C841.01,960.27 856.98,995.19 869.93,1021.1 " fill="none" id="Multimedia-backto-Text" style="stroke:#181818;stroke-width:1.0;"/><polygon fill="none" points="797.22,747.47,793.1441,766.0007,805.0777,764.7401,797.22,747.47" style="stroke:#181818;stroke-width:1.0;"/></g><!--link Text to Concept--><g id="link_Text_Concept"><path codeLine="166" d="M848.64,1102.69 C814.95,1134.39 773.3493,1173.5579 745.3193,1199.9379 " fill="none" id="Text-to-Concept" style="stroke:#181818;stroke-width:1.0;"/><polygon fill="#181818" points="740.95,1204.05,750.2453,1200.7947,744.5911,1200.6233,744.7625,1194.969,740.95,1204.05" style="stroke:#181818;stroke-width:1.0;"/><text fill="#000000" font-family="sans-serif" font-size="13" lengthAdjust="spacing" textLength="6" x="740.3003" y="1193.8611">*</text></g><!--SRC=[ZLRDRXen4BxxAQnSQ1F10w0qLKKuf6gLDD3SpUu0bdRjhUrjGvEyUsVzxoKavO3mp3VVZEVFL0tJcjuOBa0nTQ1FXE9dIgjU6zdIETr8sG0JLdn1bpKt7pwI5qBOHXl5AaFNikFLazVlmApPfe7RxK8A0y9eH4VLwj0qRDEZ38aHK45dTCdi3lV0QkU6L3R05M-x1hohbo1ToBQJcXl8OfXICnmqUlZ6jRcqgYjQXBnyh41LN0FDoAvboxZ89L-whk4LCroAb1Uf5215cPWfXT-iwPc1Ugnu0AMH8B7-w44NbDgWNOkvGj9L-Bq-T33OWEZRKkhj5ety2skaigThs7B11rfxl8U6nSDNB2NV7hBRf63My6XY8AQid9Vobkr0vqctTIjI5xs_aQU8Tl6ydzXeyBrl36-XvWpHIRoIJJzGl5SQWqcRHxHDOSfiBdL4jnquI-iMkswnbxm2Ayfok90rPAqYz1zG_zybvJMNTUz8xx1iMwbQUZwTNj6pYpCi4AlseDw2h4nVOxrEGUm0d5AcmP_JJa4z51BgLz3IUZi_AopSaZY5NkoP8SENDyPGu-3XO1D_DJgRUQo_oB5Wi1zykonZlkByNZvFftvonz8uPuJuqOuqgOfpgk1NpvMTBatoYH_06B9lzvp3vY5q3Y7HqSYYa9TkasvqjIYtrIctGM5JnX1-UBEigPFAMNq-6ytVF3Rh9xfbpL2Ql32sUn24qsUaAbHv9tXrgk3hUY4Dq0QsMD9jxDjXD9PMJwLe3lQCNHIU87lcdek3MqiWQZgGaKdXSX5UBUyFxsBZltoUpKQlHQx9NXTIebBhEYsPf5lPBdCUZyHtQPP8Ket89Wbrv8TaCILbQAsHE2r84hPpt0xPRewb7g7EHoWk0Ywy8mXKVBStY0uYsrn7FD5WJYLQu5IwFPjR-ItvK_kTghMiU7gkGW72-KPWmt73HDZ1kvs2dN_7Q5Z0qV5JjlKnYYBSuVz418voYbZ35Fv98LakmdIEHkPeOYObGFfDK4ZHT_QGkIwHTSNm1H_B7tWDaX2lTdMsBpN6g9ZGbUBO11PrIdd4EK26qKQWlrHefdy0]--></g></svg>