<?xml version="1.0" encoding="UTF-8" standalone="no"?><svg xmlns="http://www.w3.org/2000/svg" xmlns:xlink="http://www.w3.org/1999/xlink" contentStyleType="text/css" height="2004px" preserveAspectRatio="none" style="width:979px;height:2004px;background:#FFFFFF;" version="1.1" viewBox="0 0 979 2004" width="979px" zoomAndPan="magnify"><defs/><g><!--class Itinerary--><g id="elem_Itinerary"><rect codeLine="1" fill="#F1F1F1" height="80.9766" id="Itinerary" rx="2.5" ry="2.5" style="stroke:#181818;stroke-width:0.5;" width="144" x="415" y="506.93"/><ellipse cx="454.75" cy="522.93" fill="#ADD1B2" rx="11" ry="11" style="stroke:#181818;stroke-width:1.0;"/><path d="M457.2231,529.0731 Q456.6421,529.3719 456.0029,529.5213 Q455.3638,529.6707 454.6582,529.6707 Q452.1514,529.6707 450.8315,528.0189 Q449.5117,526.367 449.5117,523.2459 Q449.5117,520.1165 450.8315,518.4647 Q452.1514,516.8128 454.6582,516.8128 Q455.3638,516.8128 456.0112,516.9622 Q456.6587,517.1116 457.2231,517.4105 L457.2231,520.1331 Q456.5923,519.5521 455.9988,519.2823 Q455.4053,519.0125 454.7744,519.0125 Q453.4297,519.0125 452.7449,520.0792 Q452.0601,521.1458 452.0601,523.2459 Q452.0601,525.3377 452.7449,526.4044 Q453.4297,527.471 454.7744,527.471 Q455.4053,527.471 455.9988,527.2012 Q456.5923,526.9315 457.2231,526.3504 Z " fill="#000000"/><text fill="#000000" font-family="sans-serif" font-size="14" lengthAdjust="spacing" textLength="57" x="474.25" y="528.221">Itinerary</text><line style="stroke:#181818;stroke-width:0.5;" x1="416" x2="558" y1="538.93" y2="538.93"/><rect fill="none" height="6" style="stroke:#C82930;stroke-width:1.0;" width="6" x="423" y="549.6741"/><text fill="#000000" font-family="sans-serif" font-size="14" lengthAdjust="spacing" textLength="118" x="435" y="556.4652">custom : boolean</text><line style="stroke:#181818;stroke-width:0.5;" x1="416" x2="558" y1="563.4183" y2="563.4183"/><ellipse cx="426" cy="577.1624" fill="#84BE84" rx="3" ry="3" style="stroke:#038048;stroke-width:1.0;"/><text fill="#000000" font-family="sans-serif" font-size="14" lengthAdjust="spacing" textLength="36" x="435" y="580.9534">Edit()</text></g><!--class Topic--><g id="elem_Topic"><rect codeLine="6" fill="#F1F1F1" height="113.9531" id="Topic" rx="2.5" ry="2.5" style="stroke:#181818;stroke-width:0.5;" width="190" x="392" y="648.91"/><ellipse cx="463.75" cy="664.91" fill="#A9DCDF" rx="11" ry="11" style="stroke:#181818;stroke-width:1.0;"/><path d="M463.6133,660.2581 L462.4595,665.3299 L464.7754,665.3299 Z M462.1191,658.0169 L465.1157,658.0169 L468.4609,670.41 L466.0122,670.41 L465.2485,667.347 L461.9697,667.347 L461.2227,670.41 L458.7739,670.41 Z " fill="#000000"/><text fill="#000000" font-family="sans-serif" font-size="14" font-style="italic" lengthAdjust="spacing" textLength="38" x="484.25" y="670.201">Topic</text><line style="stroke:#181818;stroke-width:0.5;" x1="393" x2="581" y1="680.91" y2="680.91"/><line style="stroke:#181818;stroke-width:0.5;" x1="393" x2="581" y1="688.91" y2="688.91"/><ellipse cx="403" cy="702.6541" fill="#84BE84" rx="3" ry="3" style="stroke:#038048;stroke-width:1.0;"/><text fill="#000000" font-family="sans-serif" font-size="14" lengthAdjust="spacing" textLength="148" x="412" y="706.4452">getTableOfContents()</text><ellipse cx="403" cy="719.1424" fill="#84BE84" rx="3" ry="3" style="stroke:#038048;stroke-width:1.0;"/><text fill="#000000" font-family="sans-serif" font-size="14" lengthAdjust="spacing" textLength="164" x="412" y="722.9334">getSyllabus() : Concepts</text><ellipse cx="403" cy="735.6307" fill="#84BE84" rx="3" ry="3" style="stroke:#038048;stroke-width:1.0;"/><text fill="#000000" font-family="sans-serif" font-size="14" lengthAdjust="spacing" textLength="36" x="412" y="739.4217">Edit()</text><ellipse cx="403" cy="752.119" fill="#84BE84" rx="3" ry="3" style="stroke:#038048;stroke-width:1.0;"/><text fill="#000000" font-family="sans-serif" font-size="14" lengthAdjust="spacing" textLength="44" x="412" y="755.91">Read()</text></g><!--class Document--><g id="elem_Document"><rect codeLine="67" fill="#F1F1F1" height="48" id="Document" rx="2.5" ry="2.5" style="stroke:#181818;stroke-width:0.5;" width="102" x="714" y="1584.96"/><ellipse cx="729" cy="1600.96" fill="#ADD1B2" rx="11" ry="11" style="stroke:#181818;stroke-width:1.0;"/><path d="M731.4731,1607.1031 Q730.8921,1607.4019 730.2529,1607.5513 Q729.6138,1607.7007 728.9082,1607.7007 Q726.4014,1607.7007 725.0815,1606.0489 Q723.7617,1604.397 723.7617,1601.2759 Q723.7617,1598.1465 725.0815,1596.4947 Q726.4014,1594.8428 728.9082,1594.8428 Q729.6138,1594.8428 730.2612,1594.9922 Q730.9087,1595.1416 731.4731,1595.4405 L731.4731,1598.1631 Q730.8423,1597.5821 730.2488,1597.3123 Q729.6553,1597.0425 729.0244,1597.0425 Q727.6797,1597.0425 726.9949,1598.1092 Q726.3101,1599.1758 726.3101,1601.2759 Q726.3101,1603.3677 726.9949,1604.4344 Q727.6797,1605.501 729.0244,1605.501 Q729.6553,1605.501 730.2488,1605.2312 Q730.8423,1604.9615 731.4731,1604.3804 Z " fill="#000000"/><text fill="#000000" font-family="sans-serif" font-size="14" lengthAdjust="spacing" textLength="70" x="743" y="1606.251">Document</text><line style="stroke:#181818;stroke-width:0.5;" x1="715" x2="815" y1="1616.96" y2="1616.96"/><line style="stroke:#181818;stroke-width:0.5;" x1="715" x2="815" y1="1624.96" y2="1624.96"/></g><!--class SimpleTopic--><g id="elem_SimpleTopic"><rect codeLine="17" fill="#F1F1F1" height="48" id="SimpleTopic" rx="2.5" ry="2.5" style="stroke:#181818;stroke-width:0.5;" width="116" x="540" y="934.35"/><ellipse cx="555" cy="950.35" fill="#ADD1B2" rx="11" ry="11" style="stroke:#181818;stroke-width:1.0;"/><path d="M557.4731,956.4931 Q556.8921,956.7919 556.2529,956.9413 Q555.6138,957.0907 554.9082,957.0907 Q552.4014,957.0907 551.0815,955.4389 Q549.7617,953.787 549.7617,950.6659 Q549.7617,947.5365 551.0815,945.8847 Q552.4014,944.2328 554.9082,944.2328 Q555.6138,944.2328 556.2612,944.3822 Q556.9087,944.5316 557.4731,944.8305 L557.4731,947.5531 Q556.8423,946.9721 556.2488,946.7023 Q555.6553,946.4325 555.0244,946.4325 Q553.6797,946.4325 552.9949,947.4992 Q552.3101,948.5658 552.3101,950.6659 Q552.3101,952.7577 552.9949,953.8244 Q553.6797,954.891 555.0244,954.891 Q555.6553,954.891 556.2488,954.6212 Q556.8423,954.3515 557.4731,953.7704 Z " fill="#000000"/><text fill="#000000" font-family="sans-serif" font-size="14" lengthAdjust="spacing" textLength="84" x="569" y="955.641">SimpleTopic</text><line style="stroke:#181818;stroke-width:0.5;" x1="541" x2="655" y1="966.35" y2="966.35"/><line style="stroke:#181818;stroke-width:0.5;" x1="541" x2="655" y1="974.35" y2="974.35"/></g><!--class CompositeTopic--><g id="elem_CompositeTopic"><rect codeLine="20" fill="#F1F1F1" height="64.4883" id="CompositeTopic" rx="2.5" ry="2.5" style="stroke:#181818;stroke-width:0.5;" width="162" x="295" y="839.86"/><ellipse cx="318.1" cy="855.86" fill="#ADD1B2" rx="11" ry="11" style="stroke:#181818;stroke-width:1.0;"/><path d="M320.5731,862.0031 Q319.9921,862.3019 319.3529,862.4513 Q318.7138,862.6007 318.0082,862.6007 Q315.5014,862.6007 314.1815,860.9489 Q312.8617,859.297 312.8617,856.1759 Q312.8617,853.0465 314.1815,851.3947 Q315.5014,849.7428 318.0082,849.7428 Q318.7138,849.7428 319.3612,849.8922 Q320.0087,850.0416 320.5731,850.3405 L320.5731,853.0631 Q319.9423,852.4821 319.3488,852.2123 Q318.7553,851.9425 318.1244,851.9425 Q316.7797,851.9425 316.0949,853.0092 Q315.4101,854.0758 315.4101,856.1759 Q315.4101,858.2677 316.0949,859.3344 Q316.7797,860.401 318.1244,860.401 Q318.7553,860.401 319.3488,860.1312 Q319.9423,859.8615 320.5731,859.2804 Z " fill="#000000"/><text fill="#000000" font-family="sans-serif" font-size="14" lengthAdjust="spacing" textLength="112" x="333.9" y="861.151">CompositeTopic</text><line style="stroke:#181818;stroke-width:0.5;" x1="296" x2="456" y1="871.86" y2="871.86"/><rect fill="none" height="6" style="stroke:#C82930;stroke-width:1.0;" width="6" x="303" y="882.6041"/><text fill="#000000" font-family="sans-serif" font-size="14" lengthAdjust="spacing" textLength="136" x="315" y="889.3952">topics : List&lt;Topic&gt;</text><line style="stroke:#181818;stroke-width:0.5;" x1="296" x2="456" y1="896.3483" y2="896.3483"/></g><!--class Excercise--><g id="elem_Excercise"><rect codeLine="24" fill="#F1F1F1" height="64.4883" id="Excercise" rx="2.5" ry="2.5" style="stroke:#181818;stroke-width:0.5;" width="96" x="492" y="839.86"/><ellipse cx="507" cy="855.86" fill="#ADD1B2" rx="11" ry="11" style="stroke:#181818;stroke-width:1.0;"/><path d="M509.4731,862.0031 Q508.8921,862.3019 508.2529,862.4513 Q507.6138,862.6007 506.9082,862.6007 Q504.4014,862.6007 503.0815,860.9489 Q501.7617,859.297 501.7617,856.1759 Q501.7617,853.0465 503.0815,851.3947 Q504.4014,849.7428 506.9082,849.7428 Q507.6138,849.7428 508.2612,849.8922 Q508.9087,850.0416 509.4731,850.3405 L509.4731,853.0631 Q508.8423,852.4821 508.2488,852.2123 Q507.6553,851.9425 507.0244,851.9425 Q505.6797,851.9425 504.9949,853.0092 Q504.3101,854.0758 504.3101,856.1759 Q504.3101,858.2677 504.9949,859.3344 Q505.6797,860.401 507.0244,860.401 Q507.6553,860.401 508.2488,860.1312 Q508.8423,859.8615 509.4731,859.2804 Z " fill="#000000"/><text fill="#000000" font-family="sans-serif" font-size="14" lengthAdjust="spacing" textLength="64" x="521" y="861.151">Excercise</text><line style="stroke:#181818;stroke-width:0.5;" x1="493" x2="587" y1="871.86" y2="871.86"/><rect fill="none" height="6" style="stroke:#C82930;stroke-width:1.0;" width="6" x="500" y="882.6041"/><text fill="#000000" font-family="sans-serif" font-size="14" lengthAdjust="spacing" textLength="50" x="512" y="889.3952">version</text><line style="stroke:#181818;stroke-width:0.5;" x1="493" x2="587" y1="896.3483" y2="896.3483"/></g><!--class Domain--><g id="elem_Domain"><rect codeLine="37" fill="#F1F1F1" height="80.9766" id="Domain" rx="2.5" ry="2.5" style="stroke:#181818;stroke-width:0.5;" width="216" x="321" y="1012.35"/><ellipse cx="398.25" cy="1028.35" fill="#ADD1B2" rx="11" ry="11" style="stroke:#181818;stroke-width:1.0;"/><path d="M400.7231,1034.4931 Q400.1421,1034.7919 399.5029,1034.9413 Q398.8638,1035.0907 398.1582,1035.0907 Q395.6514,1035.0907 394.3315,1033.4389 Q393.0117,1031.787 393.0117,1028.6659 Q393.0117,1025.5365 394.3315,1023.8847 Q395.6514,1022.2328 398.1582,1022.2328 Q398.8638,1022.2328 399.5112,1022.3822 Q400.1587,1022.5316 400.7231,1022.8305 L400.7231,1025.5531 Q400.0923,1024.9721 399.4988,1024.7023 Q398.9053,1024.4325 398.2744,1024.4325 Q396.9297,1024.4325 396.2449,1025.4992 Q395.5601,1026.5658 395.5601,1028.6659 Q395.5601,1030.7577 396.2449,1031.8244 Q396.9297,1032.891 398.2744,1032.891 Q398.9053,1032.891 399.4988,1032.6212 Q400.0923,1032.3515 400.7231,1031.7704 Z " fill="#000000"/><text fill="#000000" font-family="sans-serif" font-size="14" lengthAdjust="spacing" textLength="53" x="418.75" y="1033.641">Domain</text><line style="stroke:#181818;stroke-width:0.5;" x1="322" x2="536" y1="1044.35" y2="1044.35"/><rect fill="none" height="6" style="stroke:#C82930;stroke-width:1.0;" width="6" x="329" y="1055.0941"/><text fill="#000000" font-family="sans-serif" font-size="14" lengthAdjust="spacing" textLength="190" x="341" y="1061.8852">requirements : List&lt;String&gt;</text><rect fill="none" height="6" style="stroke:#C82930;stroke-width:1.0;" width="6" x="329" y="1071.5824"/><text fill="#000000" font-family="sans-serif" font-size="14" lengthAdjust="spacing" textLength="182" x="341" y="1078.3734">statement : StatementType</text><line style="stroke:#181818;stroke-width:0.5;" x1="322" x2="536" y1="1085.3266" y2="1085.3266"/></g><!--class Application--><g id="elem_Application"><rect codeLine="32" fill="#F1F1F1" height="80.9766" id="Application" rx="2.5" ry="2.5" style="stroke:#181818;stroke-width:0.5;" width="156" x="8" y="1195.54"/><ellipse cx="43.7" cy="1211.54" fill="#ADD1B2" rx="11" ry="11" style="stroke:#181818;stroke-width:1.0;"/><path d="M46.1731,1217.6831 Q45.5921,1217.9819 44.9529,1218.1313 Q44.3138,1218.2807 43.6082,1218.2807 Q41.1014,1218.2807 39.7815,1216.6289 Q38.4617,1214.977 38.4617,1211.8559 Q38.4617,1208.7265 39.7815,1207.0747 Q41.1014,1205.4228 43.6082,1205.4228 Q44.3138,1205.4228 44.9612,1205.5722 Q45.6087,1205.7216 46.1731,1206.0205 L46.1731,1208.7431 Q45.5423,1208.1621 44.9488,1207.8923 Q44.3553,1207.6225 43.7244,1207.6225 Q42.3797,1207.6225 41.6949,1208.6892 Q41.0101,1209.7558 41.0101,1211.8559 Q41.0101,1213.9477 41.6949,1215.0144 Q42.3797,1216.081 43.7244,1216.081 Q44.3553,1216.081 44.9488,1215.8112 Q45.5423,1215.5415 46.1731,1214.9604 Z " fill="#000000"/><text fill="#000000" font-family="sans-serif" font-size="14" lengthAdjust="spacing" textLength="78" x="62.3" y="1216.831">Application</text><line style="stroke:#181818;stroke-width:0.5;" x1="9" x2="163" y1="1227.54" y2="1227.54"/><rect fill="none" height="6" style="stroke:#C82930;stroke-width:1.0;" width="6" x="16" y="1238.2841"/><text fill="#000000" font-family="sans-serif" font-size="14" lengthAdjust="spacing" textLength="116" x="28" y="1245.0752">correct : boolean</text><rect fill="none" height="6" style="stroke:#C82930;stroke-width:1.0;" width="6" x="16" y="1254.7724"/><text fill="#000000" font-family="sans-serif" font-size="14" lengthAdjust="spacing" textLength="130" x="28" y="1261.5634">evaluated: boolean</text><line style="stroke:#181818;stroke-width:0.5;" x1="9" x2="163" y1="1268.5166" y2="1268.5166"/></g><!--class StatementType--><g id="elem_StatementType"><rect codeLine="41" fill="#F1F1F1" height="163.418" id="StatementType" rx="2.5" ry="2.5" style="stroke:#181818;stroke-width:0.5;" width="134" x="274" y="1154.32"/><ellipse cx="289" cy="1170.32" fill="#EB937F" rx="11" ry="11" style="stroke:#181818;stroke-width:1.0;"/><path d="M292.6143,1176.82 L284.8945,1176.82 L284.8945,1164.4269 L292.6143,1164.4269 L292.6143,1166.5851 L287.3433,1166.5851 L287.3433,1169.258 L292.1162,1169.258 L292.1162,1171.4162 L287.3433,1171.4162 L287.3433,1174.6618 L292.6143,1174.6618 Z " fill="#000000"/><text fill="#000000" font-family="sans-serif" font-size="14" lengthAdjust="spacing" textLength="102" x="303" y="1175.611">StatementType</text><line style="stroke:#181818;stroke-width:0.5;" x1="275" x2="407" y1="1186.32" y2="1186.32"/><text fill="#000000" font-family="sans-serif" font-size="14" lengthAdjust="spacing" textLength="68" x="280" y="1203.8552">ClozeTest</text><text fill="#000000" font-family="sans-serif" font-size="14" lengthAdjust="spacing" textLength="67" x="280" y="1220.3434">Definition</text><text fill="#000000" font-family="sans-serif" font-size="14" lengthAdjust="spacing" textLength="56" x="280" y="1236.8317">Relation</text><text fill="#000000" font-family="sans-serif" font-size="14" lengthAdjust="spacing" textLength="37" x="280" y="1253.32">Open</text><text fill="#000000" font-family="sans-serif" font-size="14" lengthAdjust="spacing" textLength="102" x="280" y="1269.8083">MultipleChoice</text><text fill="#000000" font-family="sans-serif" font-size="14" lengthAdjust="spacing" textLength="119" x="280" y="1286.2966">JustifyApplication</text><text fill="#000000" font-family="sans-serif" font-size="14" lengthAdjust="spacing" textLength="114" x="280" y="1302.7848">ApplicationCode</text><line style="stroke:#181818;stroke-width:0.5;" x1="275" x2="407" y1="1309.738" y2="1309.738"/></g><!--class Text--><g id="elem_Text"><rect codeLine="51" fill="#F1F1F1" height="80.9766" id="Text" rx="2.5" ry="2.5" style="stroke:#181818;stroke-width:0.5;" width="138" x="428" y="1916.18"/><ellipse cx="477.25" cy="1932.18" fill="#ADD1B2" rx="11" ry="11" style="stroke:#181818;stroke-width:1.0;"/><path d="M479.7231,1938.3231 Q479.1421,1938.6219 478.5029,1938.7713 Q477.8638,1938.9207 477.1582,1938.9207 Q474.6514,1938.9207 473.3315,1937.2689 Q472.0117,1935.617 472.0117,1932.4959 Q472.0117,1929.3665 473.3315,1927.7147 Q474.6514,1926.0628 477.1582,1926.0628 Q477.8638,1926.0628 478.5112,1926.2122 Q479.1587,1926.3616 479.7231,1926.6605 L479.7231,1929.3831 Q479.0923,1928.8021 478.4988,1928.5323 Q477.9053,1928.2625 477.2744,1928.2625 Q475.9297,1928.2625 475.2449,1929.3292 Q474.5601,1930.3958 474.5601,1932.4959 Q474.5601,1934.5877 475.2449,1935.6544 Q475.9297,1936.721 477.2744,1936.721 Q477.9053,1936.721 478.4988,1936.4512 Q479.0923,1936.1815 479.7231,1935.6004 Z " fill="#000000"/><text fill="#000000" font-family="sans-serif" font-size="14" lengthAdjust="spacing" textLength="31" x="497.75" y="1937.471">Text</text><line style="stroke:#181818;stroke-width:0.5;" x1="429" x2="565" y1="1948.18" y2="1948.18"/><rect fill="none" height="6" style="stroke:#C82930;stroke-width:1.0;" width="6" x="436" y="1958.9241"/><text fill="#000000" font-family="sans-serif" font-size="14" lengthAdjust="spacing" textLength="112" x="448" y="1965.7152">tableOfContents</text><rect fill="none" height="6" style="stroke:#C82930;stroke-width:1.0;" width="6" x="436" y="1975.4124"/><text fill="#000000" font-family="sans-serif" font-size="14" lengthAdjust="spacing" textLength="49" x="448" y="1982.2034">images</text><line style="stroke:#181818;stroke-width:0.5;" x1="429" x2="565" y1="1989.1566" y2="1989.1566"/></g><!--class Concept--><g id="elem_Concept"><rect codeLine="56" fill="#F1F1F1" height="48" id="Concept" rx="2.5" ry="2.5" style="stroke:#181818;stroke-width:0.5;" width="89" x="416.5" y="1398.74"/><ellipse cx="431.5" cy="1414.74" fill="#ADD1B2" rx="11" ry="11" style="stroke:#181818;stroke-width:1.0;"/><path d="M433.9731,1420.8831 Q433.3921,1421.1819 432.7529,1421.3313 Q432.1138,1421.4807 431.4082,1421.4807 Q428.9014,1421.4807 427.5815,1419.8289 Q426.2617,1418.177 426.2617,1415.0559 Q426.2617,1411.9265 427.5815,1410.2747 Q428.9014,1408.6228 431.4082,1408.6228 Q432.1138,1408.6228 432.7612,1408.7722 Q433.4087,1408.9216 433.9731,1409.2205 L433.9731,1411.9431 Q433.3423,1411.3621 432.7488,1411.0923 Q432.1553,1410.8225 431.5244,1410.8225 Q430.1797,1410.8225 429.4949,1411.8892 Q428.8101,1412.9558 428.8101,1415.0559 Q428.8101,1417.1477 429.4949,1418.2144 Q430.1797,1419.281 431.5244,1419.281 Q432.1553,1419.281 432.7488,1419.0112 Q433.3423,1418.7415 433.9731,1418.1604 Z " fill="#000000"/><text fill="#000000" font-family="sans-serif" font-size="14" lengthAdjust="spacing" textLength="57" x="445.5" y="1420.031">Concept</text><line style="stroke:#181818;stroke-width:0.5;" x1="417.5" x2="504.5" y1="1430.74" y2="1430.74"/><line style="stroke:#181818;stroke-width:0.5;" x1="417.5" x2="504.5" y1="1438.74" y2="1438.74"/></g><!--class Definition--><g id="elem_Definition"><rect codeLine="59" fill="#F1F1F1" height="64.4883" id="Definition" rx="2.5" ry="2.5" style="stroke:#181818;stroke-width:0.5;" width="142" x="141" y="1576.96"/><ellipse cx="175.35" cy="1592.96" fill="#ADD1B2" rx="11" ry="11" style="stroke:#181818;stroke-width:1.0;"/><path d="M177.8231,1599.1031 Q177.2421,1599.4019 176.6029,1599.5513 Q175.9638,1599.7007 175.2582,1599.7007 Q172.7514,1599.7007 171.4315,1598.0489 Q170.1117,1596.397 170.1117,1593.2759 Q170.1117,1590.1465 171.4315,1588.4947 Q172.7514,1586.8428 175.2582,1586.8428 Q175.9638,1586.8428 176.6112,1586.9922 Q177.2587,1587.1416 177.8231,1587.4405 L177.8231,1590.1631 Q177.1923,1589.5821 176.5988,1589.3123 Q176.0053,1589.0425 175.3744,1589.0425 Q174.0297,1589.0425 173.3449,1590.1092 Q172.6601,1591.1758 172.6601,1593.2759 Q172.6601,1595.3677 173.3449,1596.4344 Q174.0297,1597.501 175.3744,1597.501 Q176.0053,1597.501 176.5988,1597.2312 Q177.1923,1596.9615 177.8231,1596.3804 Z " fill="#000000"/><text fill="#000000" font-family="sans-serif" font-size="14" lengthAdjust="spacing" textLength="67" x="193.65" y="1598.251">Definition</text><line style="stroke:#181818;stroke-width:0.5;" x1="142" x2="282" y1="1608.96" y2="1608.96"/><rect fill="none" height="6" style="stroke:#C82930;stroke-width:1.0;" width="6" x="149" y="1619.7041"/><text fill="#000000" font-family="sans-serif" font-size="14" lengthAdjust="spacing" textLength="116" x="161" y="1626.4952">correct : boolean</text><line style="stroke:#181818;stroke-width:0.5;" x1="142" x2="282" y1="1633.4483" y2="1633.4483"/></g><!--class Justification--><g id="elem_Justification"><rect codeLine="63" fill="#F1F1F1" height="64.4883" id="Justification" rx="2.5" ry="2.5" style="stroke:#181818;stroke-width:0.5;" width="142" x="45" y="1771.18"/><ellipse cx="73.5" cy="1787.18" fill="#ADD1B2" rx="11" ry="11" style="stroke:#181818;stroke-width:1.0;"/><path d="M75.9731,1793.3231 Q75.3921,1793.6219 74.7529,1793.7713 Q74.1138,1793.9207 73.4082,1793.9207 Q70.9014,1793.9207 69.5815,1792.2689 Q68.2617,1790.617 68.2617,1787.4959 Q68.2617,1784.3665 69.5815,1782.7147 Q70.9014,1781.0628 73.4082,1781.0628 Q74.1138,1781.0628 74.7612,1781.2122 Q75.4087,1781.3616 75.9731,1781.6605 L75.9731,1784.3831 Q75.3423,1783.8021 74.7488,1783.5323 Q74.1553,1783.2625 73.5244,1783.2625 Q72.1797,1783.2625 71.4949,1784.3292 Q70.8101,1785.3958 70.8101,1787.4959 Q70.8101,1789.5877 71.4949,1790.6544 Q72.1797,1791.721 73.5244,1791.721 Q74.1553,1791.721 74.7488,1791.4512 Q75.3423,1791.1815 75.9731,1790.6004 Z " fill="#000000"/><text fill="#000000" font-family="sans-serif" font-size="14" lengthAdjust="spacing" textLength="80" x="90.5" y="1792.471">Justification</text><line style="stroke:#181818;stroke-width:0.5;" x1="46" x2="186" y1="1803.18" y2="1803.18"/><rect fill="none" height="6" style="stroke:#C82930;stroke-width:1.0;" width="6" x="53" y="1813.9241"/><text fill="#000000" font-family="sans-serif" font-size="14" lengthAdjust="spacing" textLength="116" x="65" y="1820.7152">correct : boolean</text><line style="stroke:#181818;stroke-width:0.5;" x1="46" x2="186" y1="1827.6683" y2="1827.6683"/></g><!--class Media--><g id="elem_Media"><rect codeLine="71" fill="#F1F1F1" height="48" id="Media" rx="2.5" ry="2.5" style="stroke:#181818;stroke-width:0.5;" width="73" x="728.5" y="1779.18"/><ellipse cx="743.5" cy="1795.18" fill="#ADD1B2" rx="11" ry="11" style="stroke:#181818;stroke-width:1.0;"/><path d="M745.9731,1801.3231 Q745.3921,1801.6219 744.7529,1801.7713 Q744.1138,1801.9207 743.4082,1801.9207 Q740.9014,1801.9207 739.5815,1800.2689 Q738.2617,1798.617 738.2617,1795.4959 Q738.2617,1792.3665 739.5815,1790.7147 Q740.9014,1789.0628 743.4082,1789.0628 Q744.1138,1789.0628 744.7612,1789.2122 Q745.4087,1789.3616 745.9731,1789.6605 L745.9731,1792.3831 Q745.3423,1791.8021 744.7488,1791.5323 Q744.1553,1791.2625 743.5244,1791.2625 Q742.1797,1791.2625 741.4949,1792.3292 Q740.8101,1793.3958 740.8101,1795.4959 Q740.8101,1797.5877 741.4949,1798.6544 Q742.1797,1799.721 743.5244,1799.721 Q744.1553,1799.721 744.7488,1799.4512 Q745.3423,1799.1815 745.9731,1798.6004 Z " fill="#000000"/><text fill="#000000" font-family="sans-serif" font-size="14" lengthAdjust="spacing" textLength="41" x="757.5" y="1800.471">Media</text><line style="stroke:#181818;stroke-width:0.5;" x1="729.5" x2="800.5" y1="1811.18" y2="1811.18"/><line style="stroke:#181818;stroke-width:0.5;" x1="729.5" x2="800.5" y1="1819.18" y2="1819.18"/></g><!--class EducationPlatform--><g id="elem_EducationPlatform"><rect fill="#F1F1F1" height="48" id="EducationPlatform" rx="2.5" ry="2.5" style="stroke:#181818;stroke-width:0.5;" width="158" x="386" y="7"/><ellipse cx="401" cy="23" fill="#ADD1B2" rx="11" ry="11" style="stroke:#181818;stroke-width:1.0;"/><path d="M403.4731,29.1431 Q402.8921,29.4419 402.2529,29.5913 Q401.6138,29.7407 400.9082,29.7407 Q398.4014,29.7407 397.0815,28.0889 Q395.7617,26.437 395.7617,23.3159 Q395.7617,20.1865 397.0815,18.5347 Q398.4014,16.8828 400.9082,16.8828 Q401.6138,16.8828 402.2612,17.0322 Q402.9087,17.1816 403.4731,17.4805 L403.4731,20.2031 Q402.8423,19.6221 402.2488,19.3523 Q401.6553,19.0825 401.0244,19.0825 Q399.6797,19.0825 398.9949,20.1492 Q398.3101,21.2158 398.3101,23.3159 Q398.3101,25.4077 398.9949,26.4744 Q399.6797,27.541 401.0244,27.541 Q401.6553,27.541 402.2488,27.2712 Q402.8423,27.0015 403.4731,26.4204 Z " fill="#000000"/><text fill="#000000" font-family="sans-serif" font-size="14" lengthAdjust="spacing" textLength="126" x="415" y="28.291">EducationPlatform</text><line style="stroke:#181818;stroke-width:0.5;" x1="387" x2="543" y1="39" y2="39"/><line style="stroke:#181818;stroke-width:0.5;" x1="387" x2="543" y1="47" y2="47"/></g><!--class User--><g id="elem_User"><rect codeLine="77" fill="#F1F1F1" height="48" id="User" rx="2.5" ry="2.5" style="stroke:#181818;stroke-width:0.5;" width="63" x="17.5" y="136"/><ellipse cx="32.5" cy="152" fill="#A9DCDF" rx="11" ry="11" style="stroke:#181818;stroke-width:1.0;"/><path d="M32.3633,147.3481 L31.2095,152.4199 L33.5254,152.4199 Z M30.8691,145.1069 L33.8657,145.1069 L37.2109,157.5 L34.7622,157.5 L33.9985,154.437 L30.7197,154.437 L29.9727,157.5 L27.5239,157.5 Z " fill="#000000"/><text fill="#000000" font-family="sans-serif" font-size="14" font-style="italic" lengthAdjust="spacing" textLength="31" x="46.5" y="157.291">User</text><line style="stroke:#181818;stroke-width:0.5;" x1="18.5" x2="79.5" y1="168" y2="168"/><line style="stroke:#181818;stroke-width:0.5;" x1="18.5" x2="79.5" y1="176" y2="176"/></g><!--class Teacher--><g id="elem_Teacher"><rect fill="#F1F1F1" height="48" id="Teacher" rx="2.5" ry="2.5" style="stroke:#181818;stroke-width:0.5;" width="87" x="107.5" y="381.93"/><ellipse cx="122.5" cy="397.93" fill="#ADD1B2" rx="11" ry="11" style="stroke:#181818;stroke-width:1.0;"/><path d="M124.9731,404.0731 Q124.3921,404.3719 123.7529,404.5213 Q123.1138,404.6707 122.4082,404.6707 Q119.9014,404.6707 118.5815,403.0189 Q117.2617,401.367 117.2617,398.2459 Q117.2617,395.1165 118.5815,393.4647 Q119.9014,391.8128 122.4082,391.8128 Q123.1138,391.8128 123.7612,391.9622 Q124.4087,392.1116 124.9731,392.4105 L124.9731,395.1331 Q124.3423,394.5521 123.7488,394.2823 Q123.1553,394.0125 122.5244,394.0125 Q121.1797,394.0125 120.4949,395.0792 Q119.8101,396.1458 119.8101,398.2459 Q119.8101,400.3377 120.4949,401.4044 Q121.1797,402.471 122.5244,402.471 Q123.1553,402.471 123.7488,402.2012 Q124.3423,401.9315 124.9731,401.3504 Z " fill="#000000"/><text fill="#000000" font-family="sans-serif" font-size="14" lengthAdjust="spacing" textLength="55" x="136.5" y="403.221">Teacher</text><line style="stroke:#181818;stroke-width:0.5;" x1="108.5" x2="193.5" y1="413.93" y2="413.93"/><line style="stroke:#181818;stroke-width:0.5;" x1="108.5" x2="193.5" y1="421.93" y2="421.93"/></g><!--class Student--><g id="elem_Student"><rect fill="#F1F1F1" height="48" id="Student" rx="2.5" ry="2.5" style="stroke:#181818;stroke-width:0.5;" width="85" x="422.5" y="268.96"/><ellipse cx="437.5" cy="284.96" fill="#ADD1B2" rx="11" ry="11" style="stroke:#181818;stroke-width:1.0;"/><path d="M439.9731,291.1031 Q439.3921,291.4019 438.7529,291.5513 Q438.1138,291.7007 437.4082,291.7007 Q434.9014,291.7007 433.5815,290.0489 Q432.2617,288.397 432.2617,285.2759 Q432.2617,282.1465 433.5815,280.4947 Q434.9014,278.8428 437.4082,278.8428 Q438.1138,278.8428 438.7612,278.9922 Q439.4087,279.1416 439.9731,279.4405 L439.9731,282.1631 Q439.3423,281.5821 438.7488,281.3123 Q438.1553,281.0425 437.5244,281.0425 Q436.1797,281.0425 435.4949,282.1092 Q434.8101,283.1758 434.8101,285.2759 Q434.8101,287.3677 435.4949,288.4344 Q436.1797,289.501 437.5244,289.501 Q438.1553,289.501 438.7488,289.2312 Q439.3423,288.9615 439.9731,288.3804 Z " fill="#000000"/><text fill="#000000" font-family="sans-serif" font-size="14" lengthAdjust="spacing" textLength="53" x="451.5" y="290.251">Student</text><line style="stroke:#181818;stroke-width:0.5;" x1="423.5" x2="506.5" y1="300.96" y2="300.96"/><line style="stroke:#181818;stroke-width:0.5;" x1="423.5" x2="506.5" y1="308.96" y2="308.96"/></g><!--class Chat--><g id="elem_Chat"><rect fill="#F1F1F1" height="48" id="Chat" rx="2.5" ry="2.5" style="stroke:#181818;stroke-width:0.5;" width="64" x="239" y="523.42"/><ellipse cx="254" cy="539.42" fill="#ADD1B2" rx="11" ry="11" style="stroke:#181818;stroke-width:1.0;"/><path d="M256.4731,545.5631 Q255.8921,545.8619 255.2529,546.0113 Q254.6138,546.1607 253.9082,546.1607 Q251.4014,546.1607 250.0815,544.5089 Q248.7617,542.857 248.7617,539.7359 Q248.7617,536.6065 250.0815,534.9547 Q251.4014,533.3028 253.9082,533.3028 Q254.6138,533.3028 255.2612,533.4522 Q255.9087,533.6016 256.4731,533.9005 L256.4731,536.6231 Q255.8423,536.0421 255.2488,535.7723 Q254.6553,535.5025 254.0244,535.5025 Q252.6797,535.5025 251.9949,536.5692 Q251.3101,537.6358 251.3101,539.7359 Q251.3101,541.8277 251.9949,542.8944 Q252.6797,543.961 254.0244,543.961 Q254.6553,543.961 255.2488,543.6912 Q255.8423,543.4215 256.4731,542.8404 Z " fill="#000000"/><text fill="#000000" font-family="sans-serif" font-size="14" lengthAdjust="spacing" textLength="32" x="268" y="544.711">Chat</text><line style="stroke:#181818;stroke-width:0.5;" x1="240" x2="302" y1="555.42" y2="555.42"/><line style="stroke:#181818;stroke-width:0.5;" x1="240" x2="302" y1="563.42" y2="563.42"/></g><g id="elem_GMN46"><path d="M293,265 L293,320.9316 A0,0 0 0 0 293,320.9316 L387,320.9316 A0,0 0 0 0 387,320.9316 L387,296.96 L422.24,292.96 L387,288.96 L387,275 L377,265 L293,265 A0,0 0 0 0 293,265 " fill="#FEFFDD" style="stroke:#181818;stroke-width:0.5;"/><path d="M377,265 L377,275 L387,275 L377,265 " fill="#FEFFDD" style="stroke:#181818;stroke-width:0.5;"/><text fill="#000000" font-family="sans-serif" font-size="13" lengthAdjust="spacing" textLength="68" x="299" y="282.5684">Editor only</text><text fill="#000000" font-family="sans-serif" font-size="13" lengthAdjust="spacing" textLength="69" x="299" y="297.8789">for custom</text><text fill="#000000" font-family="sans-serif" font-size="13" lengthAdjust="spacing" textLength="63" x="299" y="313.1895">itineraries</text></g><!--class Relation--><g id="elem_Relation"><rect codeLine="149" fill="#F1F1F1" height="64.4883" id="Relation" rx="2.5" ry="2.5" style="stroke:#181818;stroke-width:0.5;" width="156" x="499" y="1576.72"/><ellipse cx="544.75" cy="1592.72" fill="#ADD1B2" rx="11" ry="11" style="stroke:#181818;stroke-width:1.0;"/><path d="M547.2231,1598.8631 Q546.6421,1599.1619 546.0029,1599.3113 Q545.3638,1599.4607 544.6582,1599.4607 Q542.1514,1599.4607 540.8315,1597.8089 Q539.5117,1596.157 539.5117,1593.0359 Q539.5117,1589.9065 540.8315,1588.2547 Q542.1514,1586.6028 544.6582,1586.6028 Q545.3638,1586.6028 546.0112,1586.7522 Q546.6587,1586.9016 547.2231,1587.2005 L547.2231,1589.9231 Q546.5923,1589.3421 545.9988,1589.0723 Q545.4053,1588.8025 544.7744,1588.8025 Q543.4297,1588.8025 542.7449,1589.8692 Q542.0601,1590.9358 542.0601,1593.0359 Q542.0601,1595.1277 542.7449,1596.1944 Q543.4297,1597.261 544.7744,1597.261 Q545.4053,1597.261 545.9988,1596.9912 Q546.5923,1596.7215 547.2231,1596.1404 Z " fill="#000000"/><text fill="#000000" font-family="sans-serif" font-size="14" lengthAdjust="spacing" textLength="56" x="565.25" y="1598.011">Relation</text><line style="stroke:#181818;stroke-width:0.5;" x1="500" x2="654" y1="1608.72" y2="1608.72"/><rect fill="none" height="6" style="stroke:#C82930;stroke-width:1.0;" width="6" x="507" y="1619.4641"/><text fill="#000000" font-family="sans-serif" font-size="14" lengthAdjust="spacing" textLength="130" x="519" y="1626.2552">type : RelationType</text><line style="stroke:#181818;stroke-width:0.5;" x1="500" x2="654" y1="1633.2083" y2="1633.2083"/></g><!--class RelationType--><g id="elem_RelationType"><rect codeLine="141" fill="#F1F1F1" height="130.4414" id="RelationType" rx="2.5" ry="2.5" style="stroke:#181818;stroke-width:0.5;" width="121" x="342.5" y="1543.74"/><ellipse cx="357.5" cy="1559.74" fill="#EB937F" rx="11" ry="11" style="stroke:#181818;stroke-width:1.0;"/><path d="M361.1143,1566.24 L353.3945,1566.24 L353.3945,1553.8469 L361.1143,1553.8469 L361.1143,1556.0051 L355.8433,1556.0051 L355.8433,1558.678 L360.6162,1558.678 L360.6162,1560.8362 L355.8433,1560.8362 L355.8433,1564.0818 L361.1143,1564.0818 Z " fill="#000000"/><text fill="#000000" font-family="sans-serif" font-size="14" lengthAdjust="spacing" textLength="89" x="371.5" y="1565.031">RelationType</text><line style="stroke:#181818;stroke-width:0.5;" x1="343.5" x2="462.5" y1="1575.74" y2="1575.74"/><text fill="#000000" font-family="sans-serif" font-size="14" lengthAdjust="spacing" textLength="25" x="348.5" y="1593.2752">Use</text><text fill="#000000" font-family="sans-serif" font-size="14" lengthAdjust="spacing" textLength="79" x="348.5" y="1609.7634">Association</text><text fill="#000000" font-family="sans-serif" font-size="14" lengthAdjust="spacing" textLength="88" x="348.5" y="1626.2517">Composition</text><text fill="#000000" font-family="sans-serif" font-size="14" lengthAdjust="spacing" textLength="77" x="348.5" y="1642.74">Inheritance</text><text fill="#000000" font-family="sans-serif" font-size="14" lengthAdjust="spacing" textLength="86" x="348.5" y="1659.2283">Aggregation</text><line style="stroke:#181818;stroke-width:0.5;" x1="343.5" x2="462.5" y1="1666.1814" y2="1666.1814"/></g><!--class Audio--><g id="elem_Audio"><rect fill="#F1F1F1" height="48" id="Audio" rx="2.5" ry="2.5" style="stroke:#181818;stroke-width:0.5;" width="73" x="683.5" y="1932.67"/><ellipse cx="698.5" cy="1948.67" fill="#ADD1B2" rx="11" ry="11" style="stroke:#181818;stroke-width:1.0;"/><path d="M700.9731,1954.8131 Q700.3921,1955.1119 699.7529,1955.2613 Q699.1138,1955.4107 698.4082,1955.4107 Q695.9014,1955.4107 694.5815,1953.7589 Q693.2617,1952.107 693.2617,1948.9859 Q693.2617,1945.8565 694.5815,1944.2047 Q695.9014,1942.5528 698.4082,1942.5528 Q699.1138,1942.5528 699.7612,1942.7022 Q700.4087,1942.8516 700.9731,1943.1505 L700.9731,1945.8731 Q700.3423,1945.2921 699.7488,1945.0223 Q699.1553,1944.7525 698.5244,1944.7525 Q697.1797,1944.7525 696.4949,1945.8192 Q695.8101,1946.8858 695.8101,1948.9859 Q695.8101,1951.0777 696.4949,1952.1444 Q697.1797,1953.211 698.5244,1953.211 Q699.1553,1953.211 699.7488,1952.9412 Q700.3423,1952.6715 700.9731,1952.0904 Z " fill="#000000"/><text fill="#000000" font-family="sans-serif" font-size="14" lengthAdjust="spacing" textLength="41" x="712.5" y="1953.961">Audio</text><line style="stroke:#181818;stroke-width:0.5;" x1="684.5" x2="755.5" y1="1964.67" y2="1964.67"/><line style="stroke:#181818;stroke-width:0.5;" x1="684.5" x2="755.5" y1="1972.67" y2="1972.67"/></g><!--class Video--><g id="elem_Video"><rect fill="#F1F1F1" height="48" id="Video" rx="2.5" ry="2.5" style="stroke:#181818;stroke-width:0.5;" width="71" x="791.5" y="1932.67"/><ellipse cx="806.5" cy="1948.67" fill="#ADD1B2" rx="11" ry="11" style="stroke:#181818;stroke-width:1.0;"/><path d="M808.9731,1954.8131 Q808.3921,1955.1119 807.7529,1955.2613 Q807.1138,1955.4107 806.4082,1955.4107 Q803.9014,1955.4107 802.5815,1953.7589 Q801.2617,1952.107 801.2617,1948.9859 Q801.2617,1945.8565 802.5815,1944.2047 Q803.9014,1942.5528 806.4082,1942.5528 Q807.1138,1942.5528 807.7612,1942.7022 Q808.4087,1942.8516 808.9731,1943.1505 L808.9731,1945.8731 Q808.3423,1945.2921 807.7488,1945.0223 Q807.1553,1944.7525 806.5244,1944.7525 Q805.1797,1944.7525 804.4949,1945.8192 Q803.8101,1946.8858 803.8101,1948.9859 Q803.8101,1951.0777 804.4949,1952.1444 Q805.1797,1953.211 806.5244,1953.211 Q807.1553,1953.211 807.7488,1952.9412 Q808.3423,1952.6715 808.9731,1952.0904 Z " fill="#000000"/><text fill="#000000" font-family="sans-serif" font-size="14" lengthAdjust="spacing" textLength="39" x="820.5" y="1953.961">Video</text><line style="stroke:#181818;stroke-width:0.5;" x1="792.5" x2="861.5" y1="1964.67" y2="1964.67"/><line style="stroke:#181818;stroke-width:0.5;" x1="792.5" x2="861.5" y1="1972.67" y2="1972.67"/></g><!--class Image--><g id="elem_Image"><rect fill="#F1F1F1" height="48" id="Image" rx="2.5" ry="2.5" style="stroke:#181818;stroke-width:0.5;" width="74" x="898" y="1932.67"/><ellipse cx="913" cy="1948.67" fill="#ADD1B2" rx="11" ry="11" style="stroke:#181818;stroke-width:1.0;"/><path d="M915.4731,1954.8131 Q914.8921,1955.1119 914.2529,1955.2613 Q913.6138,1955.4107 912.9082,1955.4107 Q910.4014,1955.4107 909.0815,1953.7589 Q907.7617,1952.107 907.7617,1948.9859 Q907.7617,1945.8565 909.0815,1944.2047 Q910.4014,1942.5528 912.9082,1942.5528 Q913.6138,1942.5528 914.2612,1942.7022 Q914.9087,1942.8516 915.4731,1943.1505 L915.4731,1945.8731 Q914.8423,1945.2921 914.2488,1945.0223 Q913.6553,1944.7525 913.0244,1944.7525 Q911.6797,1944.7525 910.9949,1945.8192 Q910.3101,1946.8858 910.3101,1948.9859 Q910.3101,1951.0777 910.9949,1952.1444 Q911.6797,1953.211 913.0244,1953.211 Q913.6553,1953.211 914.2488,1952.9412 Q914.8423,1952.6715 915.4731,1952.0904 Z " fill="#000000"/><text fill="#000000" font-family="sans-serif" font-size="14" lengthAdjust="spacing" textLength="42" x="927" y="1953.961">Image</text><line style="stroke:#181818;stroke-width:0.5;" x1="899" x2="971" y1="1964.67" y2="1964.67"/><line style="stroke:#181818;stroke-width:0.5;" x1="899" x2="971" y1="1972.67" y2="1972.67"/></g><!--link Topic to Document--><g id="link_Topic_Document"><path codeLine="13" d="M594.7408,738.794 C594.7408,738.794 717,805.99 717,871.1 C717,871.1 717,871.1 717,1423.74 C717,1476.55 735.7,1535.21 749.76,1571.84 " fill="none" id="Topic-Document" style="stroke:#181818;stroke-width:1.0;"/><polygon fill="#181818" points="583.61,734.31,587.6807,740.2622,594.7408,738.794,590.67,732.8417,583.61,734.31" style="stroke:#181818;stroke-width:1.0;"/><polygon fill="#181818" points="754.5,1583.79,754.9055,1573.9495,752.6592,1579.1412,747.4675,1576.8948,754.5,1583.79" style="stroke:#181818;stroke-width:1.0;"/><line style="stroke:#181818;stroke-width:1.0;" x1="752.6592" x2="749.7" y1="1579.1412" y2="1571.705"/><text fill="#000000" font-family="sans-serif" font-size="13" lengthAdjust="spacing" textLength="6" x="745.5697" y="1574.409">*</text></g><!--link EducationPlatform to User--><g id="link_EducationPlatform_User"><path codeLine="75" d="M372.1153,32.8865 C372.1153,32.8865 207.42,49.21 132,85 C111.65,94.65 92.61,110.88 77.91,125.68 " fill="none" id="EducationPlatform-User" style="stroke:#181818;stroke-width:1.0;"/><polygon fill="#181818" points="384.1,32.28,377.9055,28.5884,372.1153,32.8865,378.3098,36.5781,384.1,32.28" style="stroke:#181818;stroke-width:1.0;"/><polygon fill="#181818" points="69.06,135,78.1557,131.2228,72.5009,131.3723,72.3514,125.7174,69.06,135" style="stroke:#181818;stroke-width:1.0;"/><line style="stroke:#181818;stroke-width:1.0;" x1="72.5009" x2="78.01" y1="131.3723" y2="125.57"/><text fill="#000000" font-family="sans-serif" font-size="13" lengthAdjust="spacing" textLength="6" x="66.3254" y="125.2587">*</text></g><!--reverse link User to Teacher--><g id="link_User_Teacher"><path codeLine="79" d="M66.77,203.49 C88.37,255.14 124.06,340.5 141.21,381.51 " fill="none" id="User-backto-Teacher" style="stroke:#181818;stroke-width:1.0;"/><polygon fill="none" points="60.44,206.5,59.18,185.34,73.35,201.09,60.44,206.5" style="stroke:#181818;stroke-width:1.0;"/></g><!--reverse link User to Student--><g id="link_User_Student"><path codeLine="80" d="M101.01,173.78 C171,191.53 298.97,225.9 405,265 C410.57,267.05 416.36,269.39 422.04,271.8 " fill="none" id="User-backto-Student" style="stroke:#181818;stroke-width:1.0;"/><polygon fill="none" points="99.59,180.64,81.89,168.99,102.99,167.06,99.59,180.64" style="stroke:#181818;stroke-width:1.0;"/></g><!--link EducationPlatform to Teacher--><g id="link_EducationPlatform_Teacher"><path codeLine="82" d="M372.0981,40.9111 C372.0981,40.9111 235.98,62.72 214,85 C138.39,161.65 140.35,300.99 146.36,367.56 " fill="none" id="EducationPlatform-Teacher" style="stroke:#181818;stroke-width:1.0;"/><polygon fill="#181818" points="384.01,39.46,377.5703,36.2149,372.0981,40.9111,378.5377,44.1562,384.01,39.46" style="stroke:#181818;stroke-width:1.0;"/><polygon fill="#181818" points="147.65,380.23,150.7101,370.8686,147.1394,375.2561,142.7519,371.6855,147.65,380.23" style="stroke:#181818;stroke-width:1.0;"/><line style="stroke:#181818;stroke-width:1.0;" x1="147.1394" x2="146.33" y1="375.2561" y2="367.295"/><text fill="#000000" font-family="sans-serif" font-size="13" lengthAdjust="spacing" textLength="10" x="135.6988" y="371.215">+</text></g><!--link EducationPlatform to Student--><g id="link_EducationPlatform_Student"><path codeLine="83" d="M465,68.58 C465,68.58 465,204.8 465,254.2 " fill="none" id="EducationPlatform-Student" style="stroke:#181818;stroke-width:1.0;"/><polygon fill="#181818" points="465,56.58,461,62.58,465,68.58,469,62.58,465,56.58" style="stroke:#181818;stroke-width:1.0;"/><polygon fill="#181818" points="465,267.06,469,258.06,465,262.06,461,258.06,465,267.06" style="stroke:#181818;stroke-width:1.0;"/><line style="stroke:#181818;stroke-width:1.0;" x1="465" x2="465" y1="262.06" y2="254.06"/><text fill="#000000" font-family="sans-serif" font-size="13" lengthAdjust="spacing" textLength="10" x="453.7813" y="258.403">+</text></g><!--link EducationPlatform to Topic--><g id="link_EducationPlatform_Topic"><path codeLine="84" d="M557.7431,46.5295 C557.7431,46.5295 819,103.6 819,159 C819,159 819,159 819,548.42 C819,648.83 693.2,684.91 596.48,697.81 " fill="none" id="EducationPlatform-Topic" style="stroke:#181818;stroke-width:1.0;"/><polygon fill="#181818" points="545.93,44.42,551.1334,49.4125,557.7431,46.5295,552.5397,41.537,545.93,44.42" style="stroke:#181818;stroke-width:1.0;"/><polygon fill="#181818" points="583.64,699.4,593.0639,702.2618,588.602,698.7846,592.0792,694.3226,583.64,699.4" style="stroke:#181818;stroke-width:1.0;"/><line style="stroke:#181818;stroke-width:1.0;" x1="588.602" x2="596.54" y1="698.7846" y2="697.805"/></g><!--link EducationPlatform to Itinerary--><g id="link_EducationPlatform_Itinerary"><path codeLine="85" d="M557.3913,45.231 C557.3913,45.231 697,92.48 697,159 C697,159 697,159 697,406.93 C697,469.74 631.02,505.96 573.03,525.67 " fill="none" id="EducationPlatform-Itinerary" style="stroke:#181818;stroke-width:1.0;"/><polygon fill="#181818" points="545.67,42.66,550.6737,47.8526,557.3913,45.231,552.3877,40.0384,545.67,42.66" style="stroke:#181818;stroke-width:1.0;"/><polygon fill="#181818" points="560.71,529.63,570.503,530.6774,565.4691,528.0968,568.0498,523.0629,560.71,529.63" style="stroke:#181818;stroke-width:1.0;"/><line style="stroke:#181818;stroke-width:1.0;" x1="565.4691" x2="573.085" y1="528.0968" y2="525.65"/><text fill="#000000" font-family="sans-serif" font-size="13" lengthAdjust="spacing" textLength="67" x="698" y="298.0284">predefined</text></g><!--link EducationPlatform to Itinerary--><g id="link_EducationPlatform_Itinerary"><path codeLine="86" d="M516.4552,63.3023 C516.4552,63.3023 578,119.27 578,159 C578,159 578,159 578,406.93 C578,439.9 559.94,471.18 539.92,495.73 " fill="none" id="EducationPlatform-Itinerary-1" style="stroke:#181818;stroke-width:1.0;"/><polygon fill="none" points="506.71,56.3,509.2485,63.0495,516.4552,63.3023,513.9167,56.5527,506.71,56.3" style="stroke:#181818;stroke-width:1.0;"/><polygon fill="#181818" points="531.62,505.37,540.5232,501.1589,534.8821,501.5807,534.4603,495.9396,531.62,505.37" style="stroke:#181818;stroke-width:1.0;"/><line style="stroke:#181818;stroke-width:1.0;" x1="534.8821" x2="540.1" y1="501.5807" y2="495.51"/><text fill="#000000" font-family="sans-serif" font-size="13" lengthAdjust="spacing" textLength="47" x="579" y="298.0284">custom</text><text fill="#000000" font-family="sans-serif" font-size="13" lengthAdjust="spacing" textLength="6" x="531.3593" y="496.0865">*</text></g><!--link EducationPlatform to Chat--><g id="link_EducationPlatform_Chat"><path codeLine="87" d="M426.4289,64.1333 C426.4289,64.1333 305.7,181.5 275,265 C244.56,347.79 255.06,453.76 263.9,509.05 " fill="none" id="EducationPlatform-Chat" style="stroke:#181818;stroke-width:1.0;"/><polygon fill="none" points="435.45,56.22,428.3017,57.1696,426.4289,64.1333,433.5772,63.1837,435.45,56.22" style="stroke:#181818;stroke-width:1.0;"/><polygon fill="#181818" points="266.06,521.74,268.5001,512.1982,265.2246,516.8103,260.6126,513.5348,266.06,521.74" style="stroke:#181818;stroke-width:1.0;"/><line style="stroke:#181818;stroke-width:1.0;" x1="265.2246" x2="263.885" y1="516.8103" y2="508.93"/></g><!--link Chat to Topic--><g id="link_Chat_Topic"><path codeLine="88" d="M303.34,571.84 C329.92,591.1 368.8,619.26 403.95,644.72 " fill="none" id="Chat-to-Topic" style="stroke:#181818;stroke-width:1.0;stroke-dasharray:7.0,7.0;"/><polygon fill="#181818" points="407.88,647.57,402.9576,639.0394,403.8376,644.6274,398.2496,645.5074,407.88,647.57" style="stroke:#181818;stroke-width:1.0;"/></g><!--link Chat to Application--><g id="link_Chat_Application"><path codeLine="89" d="M254.43,571.82 C235.17,601.36 206,654.44 206,704.88 C206,704.88 206,704.88 206,1053.84 C206,1107.28 169.27,1157.05 136.45,1190.86 " fill="none" id="Chat-to-Application" style="stroke:#181818;stroke-width:1.0;stroke-dasharray:7.0,7.0;"/><polygon fill="#181818" points="133.11,1194.23,142.2808,1190.6388,136.624,1190.6731,136.5898,1185.0164,133.11,1194.23" style="stroke:#181818;stroke-width:1.0;"/><text fill="#000000" font-family="sans-serif" font-size="13" lengthAdjust="spacing" textLength="52" x="207" y="877.1684">contrast</text></g><!--link Teacher to Chat--><g id="link_Teacher_Chat"><path codeLine="90" d="M171.09,430.28 C191.94,454.52 224.56,492.44 246.82,518.31 " fill="none" id="Teacher-to-Chat" style="stroke:#181818;stroke-width:1.0;stroke-dasharray:7.0,7.0;"/><polygon fill="#181818" points="249.86,521.85,247.0399,512.4135,246.606,518.0537,240.9659,517.6199,249.86,521.85" style="stroke:#181818;stroke-width:1.0;"/></g><!--link Student to Chat--><g id="link_Student_Chat"><path codeLine="91" d="M454.2,317.27 C436.64,353.72 399.36,425.37 355,476.93 C341.24,492.92 323.54,508.16 307.93,520.27 " fill="none" id="Student-to-Chat" style="stroke:#181818;stroke-width:1.0;stroke-dasharray:7.0,7.0;"/><polygon fill="#181818" points="304.37,523.01,313.9429,520.6948,308.3337,519.9621,309.0663,514.3529,304.37,523.01" style="stroke:#181818;stroke-width:1.0;"/></g><!--link Teacher to Application--><g id="link_Teacher_Application"><path codeLine="93" d="M129.6,430.13 C107.74,456.31 77,501.19 77,546.42 C77,546.42 77,546.42 77,1053.84 C77,1099.84 79.93,1152.33 82.45,1188.93 " fill="none" id="Teacher-to-Application" style="stroke:#181818;stroke-width:1.0;stroke-dasharray:7.0,7.0;"/><polygon fill="#181818" points="82.77,1193.61,86.1431,1184.3568,82.427,1188.6218,78.162,1184.9056,82.77,1193.61" style="stroke:#181818;stroke-width:1.0;"/><text fill="#000000" font-family="sans-serif" font-size="13" lengthAdjust="spacing" textLength="52" x="78" y="806.4284">evaluate</text></g><!--link User to Application--><g id="link_User_Application"><path codeLine="94" d="M30.7713,196.124 C30.7713,196.124 6,258.49 6,291.96 C6,291.96 6,291.96 6,1053.84 C6,1100.23 28.22,1148.06 49.25,1182.92 " fill="none" id="User-Application" style="stroke:#181818;stroke-width:1.0;"/><polygon fill="#181818" points="35.91,185.28,29.7259,188.9891,30.7713,196.124,36.9553,192.4149,35.91,185.28" style="stroke:#181818;stroke-width:1.0;"/><polygon fill="#181818" points="56.09,1193.86,54.7109,1184.1082,53.4395,1189.6203,47.9274,1188.349,56.09,1193.86" style="stroke:#181818;stroke-width:1.0;"/><line style="stroke:#181818;stroke-width:1.0;" x1="53.4395" x2="49.195" y1="1189.6203" y2="1182.84"/></g><!--link Excercise to Domain--><g id="link_Excercise_Domain"><path codeLine="96" d="M513.2702,916.1185 C513.2702,916.1185 477.5,973.75 461.13,1000.1 " fill="none" id="Excercise-Domain" style="stroke:#181818;stroke-width:1.0;"/><polygon fill="#181818" points="519.61,905.93,513.0439,908.911,513.2702,916.1185,519.8363,913.1376,519.61,905.93" style="stroke:#181818;stroke-width:1.0;"/><polygon fill="#181818" points="454.43,1010.88,462.5759,1005.3443,457.0676,1006.6323,455.7796,1001.124,454.43,1010.88" style="stroke:#181818;stroke-width:1.0;"/><line style="stroke:#181818;stroke-width:1.0;" x1="457.0676" x2="461.295" y1="1006.6323" y2="999.84"/></g><!--link Application to Concept--><g id="link_Application_Concept"><path codeLine="99" d="M164.16,1275.53 C238.44,1312.12 347.91,1366.04 411.07,1397.15 " fill="none" id="Application-to-Concept" style="stroke:#181818;stroke-width:1.0;"/><polygon fill="#181818" points="415.31,1399.24,408.9909,1391.6856,410.8208,1397.0383,405.4682,1398.8683,415.31,1399.24" style="stroke:#181818;stroke-width:1.0;"/><text fill="#000000" font-family="sans-serif" font-size="13" lengthAdjust="spacing" textLength="10" x="398.4881" y="1392.469">+</text></g><!--link Application to Justification--><g id="link_Application_Justification"><path codeLine="101" d="M85.82,1276.89 C85.78,1353.83 87.16,1528.12 99,1674.18 C101.49,1704.88 106.2,1739.48 110.03,1764.97 " fill="none" id="Application-to-Justification" style="stroke:#181818;stroke-width:1.0;"/><polygon fill="#181818" points="110.76,1769.74,113.378,1760.2455,110.0169,1764.7955,105.4668,1761.4344,110.76,1769.74" style="stroke:#181818;stroke-width:1.0;"/><text fill="#000000" font-family="sans-serif" font-size="13" lengthAdjust="spacing" textLength="143" x="90.91" y="1510.3084">[!application.isCorrect]</text><text fill="#000000" font-family="sans-serif" font-size="13" lengthAdjust="spacing" textLength="5" x="104.4411" y="1760.6555">?</text></g><!--link Domain to Concept--><g id="link_Domain_Concept"><path codeLine="103" d="M432.45,1093.56 C438.94,1168.11 452.79,1327.35 458.48,1392.77 " fill="none" id="Domain-to-Concept" style="stroke:#181818;stroke-width:1.0;"/><polygon fill="#181818" points="458.91,1397.66,462.1245,1388.3505,458.4818,1392.6784,454.1539,1389.0356,458.91,1397.66" style="stroke:#181818;stroke-width:1.0;"/><text fill="#000000" font-family="sans-serif" font-size="13" lengthAdjust="spacing" textLength="10" x="438.774" y="1388.2641">+</text></g><!--link Domain to Application--><g id="link_Domain_Application"><path codeLine="104" d="M341.781,1099.918 C341.781,1099.918 225.64,1161.26 174.42,1188.33 " fill="none" id="Domain-Application" style="stroke:#181818;stroke-width:1.0;"/><polygon fill="none" points="352.39,1094.31,345.2162,1093.5777,341.781,1099.918,348.9548,1100.6503,352.39,1094.31" style="stroke:#181818;stroke-width:1.0;"/><polygon fill="#181818" points="163.03,1194.34,172.8561,1193.6703,167.4504,1192.0033,169.1174,1186.5977,163.03,1194.34" style="stroke:#181818;stroke-width:1.0;"/><line style="stroke:#181818;stroke-width:1.0;" x1="167.4504" x2="174.525" y1="1192.0033" y2="1188.27"/><text fill="#000000" font-family="sans-serif" font-size="13" lengthAdjust="spacing" textLength="6" x="167.275" y="1184.9169">*</text></g><!--link Domain to StatementType--><g id="link_Domain_StatementType"><path codeLine="106" d="M403.7957,1105.7582 C403.7957,1105.7582 392.43,1129.13 386.61,1141.11 " fill="none" id="Domain-StatementType" style="stroke:#181818;stroke-width:1.0;"/><polygon fill="#181818" points="409.03,1094.96,402.8134,1098.6143,403.7957,1105.7582,410.0123,1102.1039,409.03,1094.96" style="stroke:#181818;stroke-width:1.0;"/><polygon fill="#181818" points="380.97,1152.74,388.5045,1146.3971,383.1576,1148.2439,381.3108,1142.897,380.97,1152.74" style="stroke:#181818;stroke-width:1.0;"/><line style="stroke:#181818;stroke-width:1.0;" x1="383.1576" x2="386.65" y1="1148.2439" y2="1141.04"/></g><!--link Teacher to Topic--><g id="link_Teacher_Topic"><path codeLine="109" d="M148.22,430.14 C145.06,467.7 144.49,542.19 182,587.91 C232.02,648.87 317.69,678.12 385.52,692.12 " fill="none" id="Teacher-to-Topic" style="stroke:#181818;stroke-width:1.0;stroke-dasharray:7.0,7.0;"/><polygon fill="#181818" points="390.13,693.05,382.0956,687.3536,385.2282,692.0639,380.5179,695.1965,390.13,693.05" style="stroke:#181818;stroke-width:1.0;"/><text fill="#000000" font-family="sans-serif" font-size="13" lengthAdjust="spacing" textLength="37" x="183" y="552.4884">editor</text></g><!--link Teacher to Itinerary--><g id="link_Teacher_Itinerary"><path codeLine="110" d="M194.93,425.17 C249.15,447.67 342.32,486.36 408.85,513.98 " fill="none" id="Teacher-to-Itinerary" style="stroke:#181818;stroke-width:1.0;stroke-dasharray:7.0,7.0;"/><polygon fill="#181818" points="413.41,515.87,406.6298,508.7266,408.7917,513.954,403.5642,516.1159,413.41,515.87" style="stroke:#181818;stroke-width:1.0;"/><text fill="#000000" font-family="sans-serif" font-size="13" lengthAdjust="spacing" textLength="37" x="320" y="473.4984">editor</text></g><!--link Student to Itinerary--><g id="link_Student_Itinerary"><path codeLine="111" d="M467.03,317.26 C470.65,358.78 478.27,446.29 482.98,500.34 " fill="none" id="Student-to-Itinerary" style="stroke:#181818;stroke-width:1.0;stroke-dasharray:7.0,7.0;"/><polygon fill="#181818" points="483.41,505.26,486.5957,495.9406,482.9664,500.2797,478.6272,496.6504,483.41,505.26" style="stroke:#181818;stroke-width:1.0;"/><text fill="#000000" font-family="sans-serif" font-size="13" lengthAdjust="spacing" textLength="37" x="477.82" y="410.9984">editor</text></g><!--reverse link Topic to CompositeTopic--><g id="link_Topic_CompositeTopic"><path codeLine="122" d="M424.18,780.5 C409.81,801.3 396.08,822.84 386.65,839.69 " fill="none" id="Topic-backto-CompositeTopic" style="stroke:#181818;stroke-width:1.0;"/><polygon fill="none" points="418.46,776.47,435.72,764.17,429.89,784.55,418.46,776.47" style="stroke:#181818;stroke-width:1.0;"/></g><!--link CompositeTopic to Topic--><g id="link_CompositeTopic_Topic"><path codeLine="124" d="M416.0744,828.9923 C416.0744,828.9923 442.21,792.98 453.99,774.88 " fill="none" id="CompositeTopic-Topic" style="stroke:#181818;stroke-width:1.0;"/><polygon fill="none" points="408.74,838.49,415.5731,836.1859,416.0744,828.9923,409.2413,831.2963,408.74,838.49" style="stroke:#181818;stroke-width:1.0;"/><polygon fill="#181818" points="460.81,764.21,452.5856,769.6284,458.1118,768.4195,459.3208,773.9456,460.81,764.21" style="stroke:#181818;stroke-width:1.0;"/><line style="stroke:#181818;stroke-width:1.0;" x1="458.1118" x2="453.81" y1="768.4195" y2="775.165"/><text fill="#000000" font-family="sans-serif" font-size="13" lengthAdjust="spacing" textLength="10" x="447.9287" y="783.3947">+</text></g><!--reverse link Topic to SimpleTopic--><g id="link_Topic_SimpleTopic"><path codeLine="123" d="M567.75,779.28 C582.96,797.41 596.7,817.99 605,839.86 C616.75,870.81 610.83,909.63 604.89,933.98 " fill="none" id="Topic-backto-SimpleTopic" style="stroke:#181818;stroke-width:1.0;"/><polygon fill="none" points="562.61,784.04,554.48,764.47,573.04,774.7,562.61,784.04" style="stroke:#181818;stroke-width:1.0;"/></g><!--link Itinerary to Topic--><g id="link_Itinerary_Topic"><path codeLine="129" d="M487,601.82 C487,601.82 487,623.64 487,634.25 " fill="none" id="Itinerary-Topic" style="stroke:#181818;stroke-width:1.0;"/><polygon fill="none" points="487,589.82,483,595.82,487,601.82,491,595.82,487,589.82" style="stroke:#181818;stroke-width:1.0;"/><polygon fill="#181818" points="487,647.03,491,638.03,487,642.03,483,638.03,487,647.03" style="stroke:#181818;stroke-width:1.0;"/><line style="stroke:#181818;stroke-width:1.0;" x1="487" x2="487" y1="642.03" y2="634.03"/><text fill="#000000" font-family="sans-serif" font-size="13" lengthAdjust="spacing" textLength="10" x="476.3906" y="638.2241">+</text></g><!--link SimpleTopic to Concept--><g id="link_SimpleTopic_Concept"><path codeLine="133" d="M587.2754,995.5569 C587.2754,995.5569 497.45,1298.73 471.85,1385.12 " fill="none" id="SimpleTopic-Concept" style="stroke:#181818;stroke-width:1.0;"/><polygon fill="none" points="590.68,984.05,585.1421,988.6686,587.2754,995.5569,592.8134,990.9383,590.68,984.05" style="stroke:#181818;stroke-width:1.0;"/><polygon fill="#181818" points="468.17,1397.54,474.5591,1390.0447,469.5886,1392.7455,466.8878,1387.775,468.17,1397.54" style="stroke:#181818;stroke-width:1.0;"/><line style="stroke:#181818;stroke-width:1.0;" x1="469.5886" x2="471.86" y1="1392.7455" y2="1385.08"/><text fill="#000000" font-family="sans-serif" font-size="13" lengthAdjust="spacing" textLength="10" x="458.2294" y="1387.8258">+</text></g><!--link Document to Media--><g id="link_Document_Media"><path codeLine="134" d="M765,1646.28 C765,1646.28 765,1731.08 765,1765.05 " fill="none" id="Document-Media" style="stroke:#181818;stroke-width:1.0;"/><polygon fill="none" points="765,1634.28,761,1640.28,765,1646.28,769,1640.28,765,1634.28" style="stroke:#181818;stroke-width:1.0;"/><polygon fill="#181818" points="765,1777.89,769,1768.89,765,1772.89,761,1768.89,765,1777.89" style="stroke:#181818;stroke-width:1.0;"/><line style="stroke:#181818;stroke-width:1.0;" x1="765" x2="765" y1="1772.89" y2="1764.89"/><text fill="#000000" font-family="sans-serif" font-size="13" lengthAdjust="spacing" textLength="6" x="758.1938" y="1768.6163">*</text></g><!--link Concept to Definition--><g id="link_Concept_Definition"><path codeLine="135" d="M419.1106,1454.7471 C419.1106,1454.7471 310.99,1534.73 265.29,1568.54 " fill="none" id="Concept-Definition" style="stroke:#181818;stroke-width:1.0;"/><polygon fill="#181818" points="428.75,1447.6,421.5479,1447.9604,419.1106,1454.7471,426.3127,1454.3867,428.75,1447.6" style="stroke:#181818;stroke-width:1.0;"/><polygon fill="#181818" points="255.04,1576.12,264.6533,1573.9791,259.0584,1573.1447,259.8928,1567.5497,255.04,1576.12" style="stroke:#181818;stroke-width:1.0;"/><line style="stroke:#181818;stroke-width:1.0;" x1="259.0584" x2="265.49" y1="1573.1447" y2="1568.39"/><text fill="#000000" font-family="sans-serif" font-size="13" lengthAdjust="spacing" textLength="44" x="359.8" y="1510.3084">correct</text><text fill="#000000" font-family="sans-serif" font-size="13" lengthAdjust="spacing" textLength="10" x="251.4141" y="1566.4355">+</text></g><!--link Concept to Definition--><g id="link_Concept_Definition"><path codeLine="136" d="M403.7797,1436.2314 C403.7797,1436.2314 313.81,1466.12 278,1496.74 C256.84,1514.83 240.7,1541.48 229.68,1564.16 " fill="none" id="Concept-Definition-1" style="stroke:#181818;stroke-width:1.0;"/><polygon fill="#181818" points="415.38,1433.16,408.5561,1430.829,403.7797,1436.2314,410.6037,1438.5625,415.38,1433.16" style="stroke:#181818;stroke-width:1.0;"/><polygon fill="#181818" points="224.26,1575.93,231.6589,1569.4295,226.3522,1571.3888,224.3929,1566.082,224.26,1575.93" style="stroke:#181818;stroke-width:1.0;"/><line style="stroke:#181818;stroke-width:1.0;" x1="226.3522" x2="229.695" y1="1571.3888" y2="1564.125"/><text fill="#000000" font-family="sans-serif" font-size="13" lengthAdjust="spacing" textLength="56" x="279" y="1510.3084">incorrect</text><text fill="#000000" font-family="sans-serif" font-size="13" lengthAdjust="spacing" textLength="6" x="219.5178" y="1566.2949">*</text></g><!--link RelationType to Relation--><g id="link_RelationType_Relation"><path codeLine="137" d="M478.29,1608.96 C480.32,1608.96 485.24,1608.96 485.24,1608.96 " fill="none" id="RelationType-Relation" style="stroke:#181818;stroke-width:1.0;"/><polygon fill="#181818" points="465.35,1608.96,474.35,1612.96,470.35,1608.96,474.35,1604.96,465.35,1608.96" style="stroke:#181818;stroke-width:1.0;"/><line style="stroke:#181818;stroke-width:1.0;" x1="470.35" x2="478.35" y1="1608.96" y2="1608.96"/><polygon fill="#181818" points="497.24,1608.96,491.24,1604.96,485.24,1608.96,491.24,1612.96,497.24,1608.96" style="stroke:#181818;stroke-width:1.0;"/></g><!--link Concept to Relation--><g id="link_Concept_Relation"><path codeLine="138" d="M455.6226,1459.8824 C455.6226,1459.8824 456.08,1497.53 464,1513.74 C474.36,1534.93 491.94,1553.09 510.19,1567.66 " fill="none" id="Concept-Relation" style="stroke:#181818;stroke-width:1.0;"/><polygon fill="#181818" points="456.69,1447.93,452.1721,1453.5504,455.6226,1459.8824,460.1404,1454.262,456.69,1447.93" style="stroke:#181818;stroke-width:1.0;"/><polygon fill="#181818" points="520.38,1575.34,515.6065,1566.7253,516.3893,1572.3277,510.7868,1573.1105,520.38,1575.34" style="stroke:#181818;stroke-width:1.0;"/><line style="stroke:#181818;stroke-width:1.0;" x1="516.3893" x2="510" y1="1572.3277" y2="1567.51"/><text fill="#000000" font-family="sans-serif" font-size="13" lengthAdjust="spacing" textLength="6" x="504.0905" y="1565.9318">*</text></g><!--link Relation to Concept--><g id="link_Relation_Concept"><path codeLine="139" d="M545.69,1576.4 C529.62,1558.98 510.62,1536.35 497,1513.74 C485.37,1494.45 476.06,1470.72 469.83,1452.47 " fill="none" id="Relation-to-Concept" style="stroke:#181818;stroke-width:1.0;"/><polygon fill="#181818" points="468.31,1447.95,467.3702,1457.7539,469.8954,1452.692,474.9574,1455.2172,468.31,1447.95" style="stroke:#181818;stroke-width:1.0;"/><text fill="#000000" font-family="sans-serif" font-size="13" lengthAdjust="spacing" textLength="37" x="498" y="1510.3084">origin</text></g><!--link Relation to Concept--><g id="link_Relation_Concept"><path codeLine="154" d="M570.96,1576.38 C565.47,1553.03 555.78,1521.19 540,1496.74 C528.72,1479.26 512.3,1463.17 497.34,1450.57 " fill="none" id="Relation-to-Concept-1" style="stroke:#181818;stroke-width:1.0;"/><polygon fill="#181818" points="493.5,1447.4,497.892,1456.2154,497.3551,1450.584,502.9864,1450.0472,493.5,1447.4" style="stroke:#181818;stroke-width:1.0;"/><text fill="#000000" font-family="sans-serif" font-size="13" lengthAdjust="spacing" textLength="37" x="550.34" y="1510.3084">target</text></g><!--link Definition to Justification--><g id="link_Definition_Justification"><path codeLine="155" d="M190.544,1652.9384 C190.544,1652.9384 153.48,1727.14 137.76,1758.62 " fill="none" id="Definition-Justification" style="stroke:#181818;stroke-width:1.0;"/><polygon fill="none" points="195.9,1642.2,189.6425,1645.7839,190.544,1652.9384,196.8015,1649.3545,195.9,1642.2" style="stroke:#181818;stroke-width:1.0;"/><polygon fill="#181818" points="132.06,1770.02,139.6626,1763.759,134.2961,1765.5479,132.5072,1760.1813,132.06,1770.02" style="stroke:#181818;stroke-width:1.0;"/><line style="stroke:#181818;stroke-width:1.0;" x1="134.2961" x2="137.87" y1="1765.5479" y2="1758.395"/><text fill="#000000" font-family="sans-serif" font-size="13" lengthAdjust="spacing" textLength="92" x="165" y="1717.7484">correct = false</text><text fill="#000000" font-family="sans-serif" font-size="13" lengthAdjust="spacing" textLength="6" x="128.1003" y="1760.332">*</text></g><!--reverse link Media to Audio--><g id="link_Media_Audio"><path codeLine="160" d="M752.24,1847.13 C744.03,1874.79 733.66,1909.7 726.93,1932.34 " fill="none" id="Media-backto-Audio" style="stroke:#181818;stroke-width:1.0;"/><polygon fill="none" points="745.43,1845.49,757.83,1828.31,758.85,1849.48,745.43,1845.49" style="stroke:#181818;stroke-width:1.0;"/></g><!--reverse link Media to Video--><g id="link_Media_Video"><path codeLine="161" d="M782.41,1846.72 C793.76,1874.45 808.14,1909.58 817.45,1932.34 " fill="none" id="Media-backto-Video" style="stroke:#181818;stroke-width:1.0;"/><polygon fill="none" points="775.95,1849.42,774.86,1828.26,788.91,1844.12,775.95,1849.42" style="stroke:#181818;stroke-width:1.0;"/></g><!--reverse link Audio to Video--><g id="link_Audio_Video"><path codeLine="162" d="M763.21,1956.67 C772.5,1956.67 781.78,1956.67 791.07,1956.67 " fill="none" id="Audio-backto-Video" style="stroke:#181818;stroke-width:1.0;"/><polygon fill="#181818" points="758.29,1956.67,767.29,1960.67,763.29,1956.67,767.29,1952.67,758.29,1956.67" style="stroke:#181818;stroke-width:1.0;"/><text fill="#000000" font-family="sans-serif" font-size="13" lengthAdjust="spacing" textLength="5" x="764.5133" y="1952.7924">?</text></g><!--reverse link Media to Image--><g id="link_Media_Image"><path codeLine="164" d="M806.42,1841.09 C838.35,1869.54 881.52,1908.01 908.82,1932.34 " fill="none" id="Media-backto-Image" style="stroke:#181818;stroke-width:1.0;"/><polygon fill="none" points="801.86,1846.4,791.58,1827.87,811.17,1835.95,801.86,1846.4" style="stroke:#181818;stroke-width:1.0;"/></g><!--reverse link Media to Text--><g id="link_Media_Text"><path codeLine="165" d="M709.86,1835.35 C668.32,1858.83 611.1,1891.17 566.45,1916.42 " fill="none" id="Media-backto-Text" style="stroke:#181818;stroke-width:1.0;"/><polygon fill="none" points="706.4,1829.26,727.26,1825.52,713.29,1841.45,706.4,1829.26" style="stroke:#181818;stroke-width:1.0;"/></g><!--link Text to Audio--><g id="link_Text_Audio"><path codeLine="167" d="M566.34,1956.67 C602.38,1956.67 645.33,1956.67 676.64,1956.67 " fill="none" id="Text-to-Audio" style="stroke:#181818;stroke-width:1.0;"/><polygon fill="#181818" points="681.63,1956.67,672.63,1952.67,676.63,1956.67,672.63,1960.67,681.63,1956.67" style="stroke:#181818;stroke-width:1.0;"/><text fill="#000000" font-family="sans-serif" font-size="13" lengthAdjust="spacing" textLength="81" x="584.25" y="1950.2384">transcription</text><text fill="#000000" font-family="sans-serif" font-size="13" lengthAdjust="spacing" textLength="5" x="670.391" y="1952.7924">?</text></g><!--link Concept to Document--><g id="link_Concept_Document"><path codeLine="169" d="M516.9197,1452.8843 C516.9197,1452.8843 621.87,1510.34 673,1543.74 C689.08,1554.25 706.43,1566.19 721.68,1576.91 " fill="none" id="Concept-Document" style="stroke:#181818;stroke-width:1.0;"/><polygon fill="none" points="506.33,1447.24,509.7434,1453.5921,516.9197,1452.8843,513.5063,1446.5323,506.33,1447.24" style="stroke:#181818;stroke-width:1.0;"/><polygon fill="#181818" points="732.16,1584.31,727.1127,1575.8528,728.0747,1581.4272,722.5003,1582.3893,732.16,1584.31" style="stroke:#181818;stroke-width:1.0;"/><line style="stroke:#181818;stroke-width:1.0;" x1="728.0747" x2="721.545" y1="1581.4272" y2="1576.81"/><text fill="#000000" font-family="sans-serif" font-size="13" lengthAdjust="spacing" textLength="6" x="718.1012" y="1574.3963">*</text></g><!--link Topic to Excercise--><g id="link_Topic_Excercise"><path codeLine="171" d="M509.2517,775.798 C509.2517,775.798 520.62,811.04 525.55,826.34 " fill="none" id="Topic-Excercise" style="stroke:#181818;stroke-width:1.0;"/><polygon fill="none" points="505.56,764.38,503.5999,771.3196,509.2517,775.798,511.2119,768.8584,505.56,764.38" style="stroke:#181818;stroke-width:1.0;"/><polygon fill="#181818" points="529.4,838.25,530.4372,828.4559,527.8618,833.4925,522.8252,830.9171,529.4,838.25" style="stroke:#181818;stroke-width:1.0;"/><line style="stroke:#181818;stroke-width:1.0;" x1="527.8618" x2="525.4" y1="833.4925" y2="825.88"/><text fill="#000000" font-family="sans-serif" font-size="13" lengthAdjust="spacing" textLength="6" x="521.1499" y="829.0581">*</text></g><!--SRC=[XLRDRjim3BxhARHSihLm7o3eEXHf3XrMj6YoNOOT59j91DYM9yb5iwplFkfVIflEXy0YFr8apOzCtJAbwAtcFKWcz_H0A3uLhKUbHKTdT2r42wotudEwQBZ- -8cy4CBMIajMQxeI0wyFNhy5lMBh5kutSz5hwBL2T5GjzstBrYFAq342QXYqAZsxmoEmnbrZlTEpghgYaxC9lH7rsA5RWazjGr_oRcZ11_4If7FH3K9n3Lbq5TNceF3kRrpfIwkweibeyLo3hBc2M8Kda8gBFa5kHCTu7_KIVezSWeaekbrgoVljLRAv7eQMrqoZerHU8ILWyShwLXIUM3io3KrIdBfRQSIPcz79CholzWCO2-Z7hfHwktah_i0AbBQd6zZmdfl8xF4HMXOFzmEubxknrHnhFDy9NeCLVSNku9jzbfaLP-UvQ225le9d7GFNPODuAU_O5bJ-1MrxqEoZfcZVgMD4knZ_N_Yilgwt3YJ9xg3XZ3h9eXcTimUiqaR8BhNbTmKoeuGv7bu89UQ5NlwjAgm0gtS8IfAb7XlRoQVyda-YrJkGuEO4n3RvAMMY_OmE4XfJNsZUG8kGQ6xXHiGfz7p7D34_zE8YX16FEING4NQ2PDYIFbqBiVO-kIGe88MNm1nNOPjUtfuaaTlg79a8cNfMcPXDWfdDhA0toMypOAozxr5ohAEJBvEZ_flHdnzOGbrmDNUT-8iG7yAHqzE1HGkRISdzia9kUiueTh4Mib3bNzAhKxNVrlT20srXewdOnBupj5fOFHLzkxTdx8AmGEoPUryS7DkXRwXnHgR5bVEmS_nzvd4PMCAKCptNP3k0b2ZVkOPALakcAI_dr3NniVWXiO4arP6pQKAzkeTaCILb-hPkr2HYsK53mj2BxCv6tYpChYFKsH6Azm4NnZa2pLT3S93OLddb9ex_Q6Y9x64pAYJV6ixOvPAxyjCLcUVMW5AYvcajX4yIphSzDY7NhFVRv7gxbR1r-1SQHcyC8kuDSzEip077ygbeDPFubuDajGbKEc9cM0cVwOQrc0APbW3XYLb8yLwt6soxN8yD5xdW1sz04FjBG_7DKB10MjZUciMN2yooD3J6bLbXnNUbBIOcMQzgoGSNHyXOlFwFb7SVAk88_0S0]--></g></svg>