<?xml version="1.0" encoding="us-ascii" standalone="no"?><svg xmlns="http://www.w3.org/2000/svg" xmlns:xlink="http://www.w3.org/1999/xlink" contentStyleType="text/css" height="1094px" preserveAspectRatio="none" style="width:1518px;height:1094px;background:#FFFFFF;" version="1.1" viewBox="0 0 1518 1094" width="1518px" zoomAndPan="magnify"><defs/><g><!--cluster ExerciseBattery--><g id="cluster_ExerciseBattery"><path d="M313.71,228 L425.71,228 A3.75,3.75 0 0 1 428.21,230.5 L435.21,251.6094 L926.71,251.6094 A2.5,2.5 0 0 1 929.21,254.1094 L929.21,740.5 A2.5,2.5 0 0 1 926.71,743 L313.71,743 A2.5,2.5 0 0 1 311.21,740.5 L311.21,230.5 A2.5,2.5 0 0 1 313.71,228 " fill="#FFFF00" style="stroke:#000000;stroke-width:1.5;"/><line style="stroke:#000000;stroke-width:1.5;" x1="311.21" x2="435.21" y1="251.6094" y2="251.6094"/><text fill="#000000" font-family="sans-serif" font-size="14" font-weight="bold" lengthAdjust="spacing" textLength="111" x="315.21" y="244.5332">ExerciseBattery</text></g><!--class Exercise--><g id="elem_Exercise"><rect codeLine="81" fill="#F1F1F1" height="48" id="Exercise" rx="2.5" ry="2.5" style="stroke:#181818;stroke-width:0.5;" width="85" x="600.71" y="264"/><ellipse cx="615.71" cy="280" fill="#A9DCDF" rx="11" ry="11" style="stroke:#181818;stroke-width:1.0;"/><path d="M617.8975,281.7656 L613.7569,281.7656 L613.335,282.7969 L613.7569,282.7969 Q614.3663,282.7969 614.6319,283.0313 Q614.8975,283.2656 614.8975,283.6563 Q614.8975,284.0313 614.6319,284.2656 Q614.3663,284.5 613.7569,284.5 L611.46,284.5 Q610.8506,284.5 610.6006,284.2656 Q610.335,284.0313 610.335,283.6406 Q610.335,283.2656 610.6163,283.0313 Q610.8819,282.7813 611.5069,282.7969 L614.1788,276.1406 L613.0694,276.1406 Q612.46,276.1406 612.1944,275.9063 Q611.9288,275.6719 611.9288,275.2813 Q611.9288,274.9063 612.1944,274.6719 Q612.46,274.4375 613.0694,274.4375 L616.7413,274.4375 L620.1319,282.7969 Q620.7256,282.7969 620.9131,282.9375 Q621.3038,283.2031 621.3038,283.6563 Q621.3038,284.0313 621.0381,284.2656 Q620.7881,284.5 620.1788,284.5 L617.8819,284.5 Q617.2725,284.5 617.0069,284.2656 Q616.7413,284.0313 616.7413,283.6406 Q616.7413,283.2656 617.0069,283.0313 Q617.2725,282.7969 617.8819,282.7969 L618.3038,282.7969 L617.8975,281.7656 Z M617.1788,280.0625 L615.8194,276.6875 L614.4444,280.0625 L617.1788,280.0625 Z " fill="#000000"/><text fill="#000000" font-family="sans-serif" font-size="14" font-style="italic" lengthAdjust="spacing" textLength="53" x="629.71" y="285.7285">Exercise</text><line style="stroke:#181818;stroke-width:0.5;" x1="601.71" x2="684.71" y1="296" y2="296"/><line style="stroke:#181818;stroke-width:0.5;" x1="601.71" x2="684.71" y1="304" y2="304"/></g><!--class Domain--><g id="elem_Domain"><rect codeLine="92" fill="#F1F1F1" height="65.6094" id="Domain" rx="2.5" ry="2.5" style="stroke:#181818;stroke-width:0.5;" width="163" x="327.71" y="517"/><ellipse cx="380.96" cy="533" fill="#ADD1B2" rx="11" ry="11" style="stroke:#181818;stroke-width:1.0;"/><path d="M383.7256,528.875 Q383.8819,528.6563 384.0694,528.5469 Q384.2569,528.4375 384.4756,528.4375 Q384.8506,528.4375 385.085,528.7031 Q385.3194,528.9531 385.3194,529.5625 L385.3194,531.0156 Q385.3194,531.625 385.085,531.8906 Q384.8506,532.1563 384.4756,532.1563 Q384.1319,532.1563 383.9288,531.9531 Q383.7256,531.7656 383.6163,531.25 Q383.5694,530.8906 383.3819,530.7031 Q383.0538,530.3281 382.4444,530.1094 Q381.835,529.8906 381.21,529.8906 Q380.4444,529.8906 379.8038,530.2188 Q379.1788,530.5469 378.6788,531.2969 Q378.1944,532.0469 378.1944,533.0781 L378.1944,534.1719 Q378.1944,535.4063 379.085,536.2344 Q379.9756,537.0469 381.5694,537.0469 Q382.5069,537.0469 383.1631,536.7969 Q383.5538,536.6406 383.9756,536.2031 Q384.2413,535.9375 384.3819,535.8594 Q384.5381,535.7813 384.7413,535.7813 Q385.0694,535.7813 385.3194,536.0469 Q385.585,536.2969 385.585,536.6406 Q385.585,536.9844 385.2413,537.3906 Q384.7413,537.9688 383.9444,538.2969 Q382.8663,538.75 381.5694,538.75 Q380.0538,538.75 378.8506,538.125 Q377.8663,537.625 377.1788,536.5625 Q376.4913,535.4844 376.4913,534.2031 L376.4913,533.0469 Q376.4913,531.7188 377.1006,530.5781 Q377.7256,529.4219 378.8194,528.8125 Q379.9131,528.1875 381.1475,528.1875 Q381.8819,528.1875 382.5225,528.3594 Q383.1788,528.5156 383.7256,528.875 Z " fill="#000000"/><text fill="#000000" font-family="sans-serif" font-size="14" lengthAdjust="spacing" textLength="48" x="401.46" y="538.7285">Domain</text><line style="stroke:#181818;stroke-width:0.5;" x1="328.71" x2="489.71" y1="549" y2="549"/><text fill="#000000" font-family="sans-serif" font-size="14" lengthAdjust="spacing" textLength="151" x="333.71" y="567.5332">versions : List&lt;Domain&gt;</text><line style="stroke:#181818;stroke-width:0.5;" x1="328.71" x2="489.71" y1="574.6094" y2="574.6094"/></g><!--class Application--><g id="elem_Application"><rect codeLine="121" fill="#F1F1F1" height="83.2188" id="Application" rx="2.5" ry="2.5" style="stroke:#181818;stroke-width:0.5;" width="151" x="349.71" y="373"/><ellipse cx="387.21" cy="389" fill="#ADD1B2" rx="11" ry="11" style="stroke:#181818;stroke-width:1.0;"/><path d="M389.9756,384.875 Q390.1319,384.6563 390.3194,384.5469 Q390.5069,384.4375 390.7256,384.4375 Q391.1006,384.4375 391.335,384.7031 Q391.5694,384.9531 391.5694,385.5625 L391.5694,387.0156 Q391.5694,387.625 391.335,387.8906 Q391.1006,388.1563 390.7256,388.1563 Q390.3819,388.1563 390.1788,387.9531 Q389.9756,387.7656 389.8663,387.25 Q389.8194,386.8906 389.6319,386.7031 Q389.3038,386.3281 388.6944,386.1094 Q388.085,385.8906 387.46,385.8906 Q386.6944,385.8906 386.0538,386.2188 Q385.4288,386.5469 384.9288,387.2969 Q384.4444,388.0469 384.4444,389.0781 L384.4444,390.1719 Q384.4444,391.4063 385.335,392.2344 Q386.2256,393.0469 387.8194,393.0469 Q388.7569,393.0469 389.4131,392.7969 Q389.8038,392.6406 390.2256,392.2031 Q390.4913,391.9375 390.6319,391.8594 Q390.7881,391.7813 390.9913,391.7813 Q391.3194,391.7813 391.5694,392.0469 Q391.835,392.2969 391.835,392.6406 Q391.835,392.9844 391.4913,393.3906 Q390.9913,393.9688 390.1944,394.2969 Q389.1163,394.75 387.8194,394.75 Q386.3038,394.75 385.1006,394.125 Q384.1163,393.625 383.4288,392.5625 Q382.7413,391.4844 382.7413,390.2031 L382.7413,389.0469 Q382.7413,387.7188 383.3506,386.5781 Q383.9756,385.4219 385.0694,384.8125 Q386.1631,384.1875 387.3975,384.1875 Q388.1319,384.1875 388.7725,384.3594 Q389.4288,384.5156 389.9756,384.875 Z " fill="#000000"/><text fill="#000000" font-family="sans-serif" font-size="14" lengthAdjust="spacing" textLength="69" x="406.21" y="394.7285">Application</text><line style="stroke:#181818;stroke-width:0.5;" x1="350.71" x2="499.71" y1="405" y2="405"/><rect fill="none" height="6" style="stroke:#C82930;stroke-width:1.0;" width="6" x="357.71" y="416.3047"/><text fill="#000000" font-family="sans-serif" font-size="14" lengthAdjust="spacing" textLength="107" x="369.71" y="423.5332">correct : boolean</text><rect fill="none" height="6" style="stroke:#C82930;stroke-width:1.0;" width="6" x="357.71" y="433.9141"/><text fill="#000000" font-family="sans-serif" font-size="14" lengthAdjust="spacing" textLength="125" x="369.71" y="441.1426">evaluated : boolean</text><line style="stroke:#181818;stroke-width:0.5;" x1="350.71" x2="499.71" y1="448.2188" y2="448.2188"/></g><!--class QuestionExercise--><g id="elem_QuestionExercise"><rect codeLine="98" fill="#F1F1F1" height="65.6094" id="QuestionExercise" rx="2.5" ry="2.5" style="stroke:#181818;stroke-width:0.5;" width="142" x="756.21" y="381.5"/><ellipse cx="771.21" cy="397.5" fill="#ADD1B2" rx="11" ry="11" style="stroke:#181818;stroke-width:1.0;"/><path d="M773.9756,393.375 Q774.1319,393.1563 774.3194,393.0469 Q774.5069,392.9375 774.7256,392.9375 Q775.1006,392.9375 775.335,393.2031 Q775.5694,393.4531 775.5694,394.0625 L775.5694,395.5156 Q775.5694,396.125 775.335,396.3906 Q775.1006,396.6563 774.7256,396.6563 Q774.3819,396.6563 774.1788,396.4531 Q773.9756,396.2656 773.8663,395.75 Q773.8194,395.3906 773.6319,395.2031 Q773.3038,394.8281 772.6944,394.6094 Q772.085,394.3906 771.46,394.3906 Q770.6944,394.3906 770.0538,394.7188 Q769.4288,395.0469 768.9288,395.7969 Q768.4444,396.5469 768.4444,397.5781 L768.4444,398.6719 Q768.4444,399.9063 769.335,400.7344 Q770.2256,401.5469 771.8194,401.5469 Q772.7569,401.5469 773.4131,401.2969 Q773.8038,401.1406 774.2256,400.7031 Q774.4913,400.4375 774.6319,400.3594 Q774.7881,400.2813 774.9913,400.2813 Q775.3194,400.2813 775.5694,400.5469 Q775.835,400.7969 775.835,401.1406 Q775.835,401.4844 775.4913,401.8906 Q774.9913,402.4688 774.1944,402.7969 Q773.1163,403.25 771.8194,403.25 Q770.3038,403.25 769.1006,402.625 Q768.1163,402.125 767.4288,401.0625 Q766.7413,399.9844 766.7413,398.7031 L766.7413,397.5469 Q766.7413,396.2188 767.3506,395.0781 Q767.9756,393.9219 769.0694,393.3125 Q770.1631,392.6875 771.3975,392.6875 Q772.1319,392.6875 772.7725,392.8594 Q773.4288,393.0156 773.9756,393.375 Z " fill="#000000"/><text fill="#000000" font-family="sans-serif" font-size="14" lengthAdjust="spacing" textLength="110" x="785.21" y="403.2285">QuestionExercise</text><line style="stroke:#181818;stroke-width:0.5;" x1="757.21" x2="897.21" y1="413.5" y2="413.5"/><text fill="#000000" font-family="sans-serif" font-size="14" lengthAdjust="spacing" textLength="111" x="762.21" y="432.0332">statement : String</text><line style="stroke:#181818;stroke-width:0.5;" x1="757.21" x2="897.21" y1="439.1094" y2="439.1094"/></g><!--class DomainExercise--><g id="elem_DomainExercise"><rect codeLine="86" fill="#F1F1F1" height="48" id="DomainExercise" rx="2.5" ry="2.5" style="stroke:#181818;stroke-width:0.5;" width="133" x="576.71" y="390.5"/><ellipse cx="591.71" cy="406.5" fill="#ADD1B2" rx="11" ry="11" style="stroke:#181818;stroke-width:1.0;"/><path d="M594.4756,402.375 Q594.6319,402.1563 594.8194,402.0469 Q595.0069,401.9375 595.2256,401.9375 Q595.6006,401.9375 595.835,402.2031 Q596.0694,402.4531 596.0694,403.0625 L596.0694,404.5156 Q596.0694,405.125 595.835,405.3906 Q595.6006,405.6563 595.2256,405.6563 Q594.8819,405.6563 594.6788,405.4531 Q594.4756,405.2656 594.3663,404.75 Q594.3194,404.3906 594.1319,404.2031 Q593.8038,403.8281 593.1944,403.6094 Q592.585,403.3906 591.96,403.3906 Q591.1944,403.3906 590.5538,403.7188 Q589.9288,404.0469 589.4288,404.7969 Q588.9444,405.5469 588.9444,406.5781 L588.9444,407.6719 Q588.9444,408.9063 589.835,409.7344 Q590.7256,410.5469 592.3194,410.5469 Q593.2569,410.5469 593.9131,410.2969 Q594.3038,410.1406 594.7256,409.7031 Q594.9913,409.4375 595.1319,409.3594 Q595.2881,409.2813 595.4913,409.2813 Q595.8194,409.2813 596.0694,409.5469 Q596.335,409.7969 596.335,410.1406 Q596.335,410.4844 595.9913,410.8906 Q595.4913,411.4688 594.6944,411.7969 Q593.6163,412.25 592.3194,412.25 Q590.8038,412.25 589.6006,411.625 Q588.6163,411.125 587.9288,410.0625 Q587.2413,408.9844 587.2413,407.7031 L587.2413,406.5469 Q587.2413,405.2188 587.8506,404.0781 Q588.4756,402.9219 589.5694,402.3125 Q590.6631,401.6875 591.8975,401.6875 Q592.6319,401.6875 593.2725,401.8594 Q593.9288,402.0156 594.4756,402.375 Z " fill="#000000"/><text fill="#000000" font-family="sans-serif" font-size="14" lengthAdjust="spacing" textLength="101" x="605.71" y="412.2285">DomainExercise</text><line style="stroke:#181818;stroke-width:0.5;" x1="577.71" x2="708.71" y1="422.5" y2="422.5"/><line style="stroke:#181818;stroke-width:0.5;" x1="577.71" x2="708.71" y1="430.5" y2="430.5"/></g><!--class MultipleChoice--><g id="elem_MultipleChoice"><rect codeLine="118" fill="#F1F1F1" height="48" id="MultipleChoice" rx="2.5" ry="2.5" style="stroke:#181818;stroke-width:0.5;" width="124" x="544.21" y="526"/><ellipse cx="559.21" cy="542" fill="#ADD1B2" rx="11" ry="11" style="stroke:#181818;stroke-width:1.0;"/><path d="M561.9756,537.875 Q562.1319,537.6563 562.3194,537.5469 Q562.5069,537.4375 562.7256,537.4375 Q563.1006,537.4375 563.335,537.7031 Q563.5694,537.9531 563.5694,538.5625 L563.5694,540.0156 Q563.5694,540.625 563.335,540.8906 Q563.1006,541.1563 562.7256,541.1563 Q562.3819,541.1563 562.1788,540.9531 Q561.9756,540.7656 561.8663,540.25 Q561.8194,539.8906 561.6319,539.7031 Q561.3038,539.3281 560.6944,539.1094 Q560.085,538.8906 559.46,538.8906 Q558.6944,538.8906 558.0538,539.2188 Q557.4288,539.5469 556.9288,540.2969 Q556.4444,541.0469 556.4444,542.0781 L556.4444,543.1719 Q556.4444,544.4063 557.335,545.2344 Q558.2256,546.0469 559.8194,546.0469 Q560.7569,546.0469 561.4131,545.7969 Q561.8038,545.6406 562.2256,545.2031 Q562.4913,544.9375 562.6319,544.8594 Q562.7881,544.7813 562.9913,544.7813 Q563.3194,544.7813 563.5694,545.0469 Q563.835,545.2969 563.835,545.6406 Q563.835,545.9844 563.4913,546.3906 Q562.9913,546.9688 562.1944,547.2969 Q561.1163,547.75 559.8194,547.75 Q558.3038,547.75 557.1006,547.125 Q556.1163,546.625 555.4288,545.5625 Q554.7413,544.4844 554.7413,543.2031 L554.7413,542.0469 Q554.7413,540.7188 555.3506,539.5781 Q555.9756,538.4219 557.0694,537.8125 Q558.1631,537.1875 559.3975,537.1875 Q560.1319,537.1875 560.7725,537.3594 Q561.4288,537.5156 561.9756,537.875 Z " fill="#000000"/><text fill="#000000" font-family="sans-serif" font-size="14" lengthAdjust="spacing" textLength="92" x="573.21" y="547.7285">MultipleChoice</text><line style="stroke:#181818;stroke-width:0.5;" x1="545.21" x2="667.21" y1="558" y2="558"/><line style="stroke:#181818;stroke-width:0.5;" x1="545.21" x2="667.21" y1="566" y2="566"/></g><!--class Cloze--><g id="elem_Cloze"><rect codeLine="114" fill="#F1F1F1" height="65.6094" id="Cloze" rx="2.5" ry="2.5" style="stroke:#181818;stroke-width:0.5;" width="107" x="703.71" y="517"/><ellipse cx="736.71" cy="533" fill="#ADD1B2" rx="11" ry="11" style="stroke:#181818;stroke-width:1.0;"/><path d="M739.4756,528.875 Q739.6319,528.6563 739.8194,528.5469 Q740.0069,528.4375 740.2256,528.4375 Q740.6006,528.4375 740.835,528.7031 Q741.0694,528.9531 741.0694,529.5625 L741.0694,531.0156 Q741.0694,531.625 740.835,531.8906 Q740.6006,532.1563 740.2256,532.1563 Q739.8819,532.1563 739.6788,531.9531 Q739.4756,531.7656 739.3663,531.25 Q739.3194,530.8906 739.1319,530.7031 Q738.8038,530.3281 738.1944,530.1094 Q737.585,529.8906 736.96,529.8906 Q736.1944,529.8906 735.5538,530.2188 Q734.9288,530.5469 734.4288,531.2969 Q733.9444,532.0469 733.9444,533.0781 L733.9444,534.1719 Q733.9444,535.4063 734.835,536.2344 Q735.7256,537.0469 737.3194,537.0469 Q738.2569,537.0469 738.9131,536.7969 Q739.3038,536.6406 739.7256,536.2031 Q739.9913,535.9375 740.1319,535.8594 Q740.2881,535.7813 740.4913,535.7813 Q740.8194,535.7813 741.0694,536.0469 Q741.335,536.2969 741.335,536.6406 Q741.335,536.9844 740.9913,537.3906 Q740.4913,537.9688 739.6944,538.2969 Q738.6163,538.75 737.3194,538.75 Q735.8038,538.75 734.6006,538.125 Q733.6163,537.625 732.9288,536.5625 Q732.2413,535.4844 732.2413,534.2031 L732.2413,533.0469 Q732.2413,531.7188 732.8506,530.5781 Q733.4756,529.4219 734.5694,528.8125 Q735.6631,528.1875 736.8975,528.1875 Q737.6319,528.1875 738.2725,528.3594 Q738.9288,528.5156 739.4756,528.875 Z " fill="#000000"/><text fill="#000000" font-family="sans-serif" font-size="14" lengthAdjust="spacing" textLength="35" x="754.71" y="538.7285">Cloze</text><line style="stroke:#181818;stroke-width:0.5;" x1="704.71" x2="809.71" y1="549" y2="549"/><text fill="#000000" font-family="sans-serif" font-size="14" lengthAdjust="spacing" textLength="95" x="709.71" y="567.5332">blankCount: int</text><line style="stroke:#181818;stroke-width:0.5;" x1="704.71" x2="809.71" y1="574.6094" y2="574.6094"/></g><!--class Open--><g id="elem_Open"><rect fill="#F1F1F1" height="48" id="Open" rx="2.5" ry="2.5" style="stroke:#181818;stroke-width:0.5;" width="67" x="845.71" y="526"/><ellipse cx="860.71" cy="542" fill="#ADD1B2" rx="11" ry="11" style="stroke:#181818;stroke-width:1.0;"/><path d="M863.4756,537.875 Q863.6319,537.6563 863.8194,537.5469 Q864.0069,537.4375 864.2256,537.4375 Q864.6006,537.4375 864.835,537.7031 Q865.0694,537.9531 865.0694,538.5625 L865.0694,540.0156 Q865.0694,540.625 864.835,540.8906 Q864.6006,541.1563 864.2256,541.1563 Q863.8819,541.1563 863.6788,540.9531 Q863.4756,540.7656 863.3663,540.25 Q863.3194,539.8906 863.1319,539.7031 Q862.8038,539.3281 862.1944,539.1094 Q861.585,538.8906 860.96,538.8906 Q860.1944,538.8906 859.5538,539.2188 Q858.9288,539.5469 858.4288,540.2969 Q857.9444,541.0469 857.9444,542.0781 L857.9444,543.1719 Q857.9444,544.4063 858.835,545.2344 Q859.7256,546.0469 861.3194,546.0469 Q862.2569,546.0469 862.9131,545.7969 Q863.3038,545.6406 863.7256,545.2031 Q863.9913,544.9375 864.1319,544.8594 Q864.2881,544.7813 864.4913,544.7813 Q864.8194,544.7813 865.0694,545.0469 Q865.335,545.2969 865.335,545.6406 Q865.335,545.9844 864.9913,546.3906 Q864.4913,546.9688 863.6944,547.2969 Q862.6163,547.75 861.3194,547.75 Q859.8038,547.75 858.6006,547.125 Q857.6163,546.625 856.9288,545.5625 Q856.2413,544.4844 856.2413,543.2031 L856.2413,542.0469 Q856.2413,540.7188 856.8506,539.5781 Q857.4756,538.4219 858.5694,537.8125 Q859.6631,537.1875 860.8975,537.1875 Q861.6319,537.1875 862.2725,537.3594 Q862.9288,537.5156 863.4756,537.875 Z " fill="#000000"/><text fill="#000000" font-family="sans-serif" font-size="14" lengthAdjust="spacing" textLength="35" x="874.71" y="547.7285">Open</text><line style="stroke:#181818;stroke-width:0.5;" x1="846.71" x2="911.71" y1="558" y2="558"/><line style="stroke:#181818;stroke-width:0.5;" x1="846.71" x2="911.71" y1="566" y2="566"/></g><!--class Answer--><g id="elem_Answer"><rect codeLine="108" fill="#F1F1F1" height="83.2188" id="Answer" rx="2.5" ry="2.5" style="stroke:#181818;stroke-width:0.5;" width="151" x="738.71" y="644"/><ellipse cx="786.96" cy="660" fill="#ADD1B2" rx="11" ry="11" style="stroke:#181818;stroke-width:1.0;"/><path d="M789.7256,655.875 Q789.8819,655.6563 790.0694,655.5469 Q790.2569,655.4375 790.4756,655.4375 Q790.8506,655.4375 791.085,655.7031 Q791.3194,655.9531 791.3194,656.5625 L791.3194,658.0156 Q791.3194,658.625 791.085,658.8906 Q790.8506,659.1563 790.4756,659.1563 Q790.1319,659.1563 789.9288,658.9531 Q789.7256,658.7656 789.6163,658.25 Q789.5694,657.8906 789.3819,657.7031 Q789.0538,657.3281 788.4444,657.1094 Q787.835,656.8906 787.21,656.8906 Q786.4444,656.8906 785.8038,657.2188 Q785.1788,657.5469 784.6788,658.2969 Q784.1944,659.0469 784.1944,660.0781 L784.1944,661.1719 Q784.1944,662.4063 785.085,663.2344 Q785.9756,664.0469 787.5694,664.0469 Q788.5069,664.0469 789.1631,663.7969 Q789.5538,663.6406 789.9756,663.2031 Q790.2413,662.9375 790.3819,662.8594 Q790.5381,662.7813 790.7413,662.7813 Q791.0694,662.7813 791.3194,663.0469 Q791.585,663.2969 791.585,663.6406 Q791.585,663.9844 791.2413,664.3906 Q790.7413,664.9688 789.9444,665.2969 Q788.8663,665.75 787.5694,665.75 Q786.0538,665.75 784.8506,665.125 Q783.8663,664.625 783.1788,663.5625 Q782.4913,662.4844 782.4913,661.2031 L782.4913,660.0469 Q782.4913,658.7188 783.1006,657.5781 Q783.7256,656.4219 784.8194,655.8125 Q785.9131,655.1875 787.1475,655.1875 Q787.8819,655.1875 788.5225,655.3594 Q789.1788,655.5156 789.7256,655.875 Z " fill="#000000"/><text fill="#000000" font-family="sans-serif" font-size="14" lengthAdjust="spacing" textLength="46" x="807.46" y="665.7285">Answer</text><line style="stroke:#181818;stroke-width:0.5;" x1="739.71" x2="888.71" y1="676" y2="676"/><rect fill="none" height="6" style="stroke:#C82930;stroke-width:1.0;" width="6" x="746.71" y="687.3047"/><text fill="#000000" font-family="sans-serif" font-size="14" lengthAdjust="spacing" textLength="107" x="758.71" y="694.5332">correct : boolean</text><rect fill="none" height="6" style="stroke:#C82930;stroke-width:1.0;" width="6" x="746.71" y="704.9141"/><text fill="#000000" font-family="sans-serif" font-size="14" lengthAdjust="spacing" textLength="125" x="758.71" y="712.1426">evaluated : boolean</text><line style="stroke:#181818;stroke-width:0.5;" x1="739.71" x2="888.71" y1="719.2188" y2="719.2188"/></g><!--class EducationPlatform--><g id="elem_EducationPlatform"><rect fill="#F1F1F1" height="48" id="EducationPlatform" rx="2.5" ry="2.5" style="stroke:#181818;stroke-width:0.5;" width="147" x="714.71" y="7"/><ellipse cx="729.71" cy="23" fill="#ADD1B2" rx="11" ry="11" style="stroke:#181818;stroke-width:1.0;"/><path d="M732.4756,18.875 Q732.6319,18.6563 732.8194,18.5469 Q733.0069,18.4375 733.2256,18.4375 Q733.6006,18.4375 733.835,18.7031 Q734.0694,18.9531 734.0694,19.5625 L734.0694,21.0156 Q734.0694,21.625 733.835,21.8906 Q733.6006,22.1563 733.2256,22.1563 Q732.8819,22.1563 732.6788,21.9531 Q732.4756,21.7656 732.3663,21.25 Q732.3194,20.8906 732.1319,20.7031 Q731.8038,20.3281 731.1944,20.1094 Q730.585,19.8906 729.96,19.8906 Q729.1944,19.8906 728.5538,20.2188 Q727.9288,20.5469 727.4288,21.2969 Q726.9444,22.0469 726.9444,23.0781 L726.9444,24.1719 Q726.9444,25.4063 727.835,26.2344 Q728.7256,27.0469 730.3194,27.0469 Q731.2569,27.0469 731.9131,26.7969 Q732.3038,26.6406 732.7256,26.2031 Q732.9913,25.9375 733.1319,25.8594 Q733.2881,25.7813 733.4913,25.7813 Q733.8194,25.7813 734.0694,26.0469 Q734.335,26.2969 734.335,26.6406 Q734.335,26.9844 733.9913,27.3906 Q733.4913,27.9688 732.6944,28.2969 Q731.6163,28.75 730.3194,28.75 Q728.8038,28.75 727.6006,28.125 Q726.6163,27.625 725.9288,26.5625 Q725.2413,25.4844 725.2413,24.2031 L725.2413,23.0469 Q725.2413,21.7188 725.8506,20.5781 Q726.4756,19.4219 727.5694,18.8125 Q728.6631,18.1875 729.8975,18.1875 Q730.6319,18.1875 731.2725,18.3594 Q731.9288,18.5156 732.4756,18.875 Z " fill="#000000"/><text fill="#000000" font-family="sans-serif" font-size="14" lengthAdjust="spacing" textLength="115" x="743.71" y="28.7285">EducationPlatform</text><line style="stroke:#181818;stroke-width:0.5;" x1="715.71" x2="860.71" y1="39" y2="39"/><line style="stroke:#181818;stroke-width:0.5;" x1="715.71" x2="860.71" y1="47" y2="47"/></g><!--class User--><g id="elem_User"><rect codeLine="11" fill="#F1F1F1" height="48" id="User" rx="2.5" ry="2.5" style="stroke:#181818;stroke-width:0.5;" width="62" x="223.21" y="133"/><ellipse cx="238.21" cy="149" fill="#A9DCDF" rx="11" ry="11" style="stroke:#181818;stroke-width:1.0;"/><path d="M240.3975,150.7656 L236.2569,150.7656 L235.835,151.7969 L236.2569,151.7969 Q236.8662,151.7969 237.1319,152.0313 Q237.3975,152.2656 237.3975,152.6563 Q237.3975,153.0313 237.1319,153.2656 Q236.8662,153.5 236.2569,153.5 L233.96,153.5 Q233.3506,153.5 233.1006,153.2656 Q232.835,153.0313 232.835,152.6406 Q232.835,152.2656 233.1162,152.0313 Q233.3819,151.7813 234.0069,151.7969 L236.6787,145.1406 L235.5694,145.1406 Q234.96,145.1406 234.6944,144.9063 Q234.4287,144.6719 234.4287,144.2813 Q234.4287,143.9063 234.6944,143.6719 Q234.96,143.4375 235.5694,143.4375 L239.2412,143.4375 L242.6319,151.7969 Q243.2256,151.7969 243.4131,151.9375 Q243.8037,152.2031 243.8037,152.6563 Q243.8037,153.0313 243.5381,153.2656 Q243.2881,153.5 242.6787,153.5 L240.3819,153.5 Q239.7725,153.5 239.5069,153.2656 Q239.2412,153.0313 239.2412,152.6406 Q239.2412,152.2656 239.5069,152.0313 Q239.7725,151.7969 240.3819,151.7969 L240.8037,151.7969 L240.3975,150.7656 Z M239.6787,149.0625 L238.3194,145.6875 L236.9444,149.0625 L239.6787,149.0625 Z " fill="#000000"/><text fill="#000000" font-family="sans-serif" font-size="14" font-style="italic" lengthAdjust="spacing" textLength="30" x="252.21" y="154.7285">User</text><line style="stroke:#181818;stroke-width:0.5;" x1="224.21" x2="284.21" y1="165" y2="165"/><line style="stroke:#181818;stroke-width:0.5;" x1="224.21" x2="284.21" y1="173" y2="173"/></g><!--class Topic--><g id="elem_Topic"><rect codeLine="40" fill="#F1F1F1" height="48" id="Topic" rx="2.5" ry="2.5" style="stroke:#181818;stroke-width:0.5;" width="67" x="1247.71" y="390.5"/><ellipse cx="1262.71" cy="406.5" fill="#A9DCDF" rx="11" ry="11" style="stroke:#181818;stroke-width:1.0;"/><path d="M1264.8975,408.2656 L1260.7569,408.2656 L1260.335,409.2969 L1260.7569,409.2969 Q1261.3663,409.2969 1261.6319,409.5313 Q1261.8975,409.7656 1261.8975,410.1563 Q1261.8975,410.5313 1261.6319,410.7656 Q1261.3663,411 1260.7569,411 L1258.46,411 Q1257.8506,411 1257.6006,410.7656 Q1257.335,410.5313 1257.335,410.1406 Q1257.335,409.7656 1257.6163,409.5313 Q1257.8819,409.2813 1258.5069,409.2969 L1261.1788,402.6406 L1260.0694,402.6406 Q1259.46,402.6406 1259.1944,402.4063 Q1258.9288,402.1719 1258.9288,401.7813 Q1258.9288,401.4063 1259.1944,401.1719 Q1259.46,400.9375 1260.0694,400.9375 L1263.7413,400.9375 L1267.1319,409.2969 Q1267.7256,409.2969 1267.9131,409.4375 Q1268.3038,409.7031 1268.3038,410.1563 Q1268.3038,410.5313 1268.0381,410.7656 Q1267.7881,411 1267.1788,411 L1264.8819,411 Q1264.2725,411 1264.0069,410.7656 Q1263.7413,410.5313 1263.7413,410.1406 Q1263.7413,409.7656 1264.0069,409.5313 Q1264.2725,409.2969 1264.8819,409.2969 L1265.3038,409.2969 L1264.8975,408.2656 Z M1264.1788,406.5625 L1262.8194,403.1875 L1261.4444,406.5625 L1264.1788,406.5625 Z " fill="#000000"/><text fill="#000000" font-family="sans-serif" font-size="14" font-style="italic" lengthAdjust="spacing" textLength="35" x="1276.71" y="412.2285">Topic</text><line style="stroke:#181818;stroke-width:0.5;" x1="1248.71" x2="1313.71" y1="422.5" y2="422.5"/><line style="stroke:#181818;stroke-width:0.5;" x1="1248.71" x2="1313.71" y1="430.5" y2="430.5"/></g><!--class Itinerary--><g id="elem_Itinerary"><rect codeLine="28" fill="#F1F1F1" height="48" id="Itinerary" rx="2.5" ry="2.5" style="stroke:#181818;stroke-width:0.5;" width="83" x="1080.71" y="133"/><ellipse cx="1095.71" cy="149" fill="#ADD1B2" rx="11" ry="11" style="stroke:#181818;stroke-width:1.0;"/><path d="M1098.4756,144.875 Q1098.6319,144.6563 1098.8194,144.5469 Q1099.0069,144.4375 1099.2256,144.4375 Q1099.6006,144.4375 1099.835,144.7031 Q1100.0694,144.9531 1100.0694,145.5625 L1100.0694,147.0156 Q1100.0694,147.625 1099.835,147.8906 Q1099.6006,148.1563 1099.2256,148.1563 Q1098.8819,148.1563 1098.6788,147.9531 Q1098.4756,147.7656 1098.3663,147.25 Q1098.3194,146.8906 1098.1319,146.7031 Q1097.8038,146.3281 1097.1944,146.1094 Q1096.585,145.8906 1095.96,145.8906 Q1095.1944,145.8906 1094.5538,146.2188 Q1093.9288,146.5469 1093.4288,147.2969 Q1092.9444,148.0469 1092.9444,149.0781 L1092.9444,150.1719 Q1092.9444,151.4063 1093.835,152.2344 Q1094.7256,153.0469 1096.3194,153.0469 Q1097.2569,153.0469 1097.9131,152.7969 Q1098.3038,152.6406 1098.7256,152.2031 Q1098.9913,151.9375 1099.1319,151.8594 Q1099.2881,151.7813 1099.4913,151.7813 Q1099.8194,151.7813 1100.0694,152.0469 Q1100.335,152.2969 1100.335,152.6406 Q1100.335,152.9844 1099.9913,153.3906 Q1099.4913,153.9688 1098.6944,154.2969 Q1097.6163,154.75 1096.3194,154.75 Q1094.8038,154.75 1093.6006,154.125 Q1092.6163,153.625 1091.9288,152.5625 Q1091.2413,151.4844 1091.2413,150.2031 L1091.2413,149.0469 Q1091.2413,147.7188 1091.8506,146.5781 Q1092.4756,145.4219 1093.5694,144.8125 Q1094.6631,144.1875 1095.8975,144.1875 Q1096.6319,144.1875 1097.2725,144.3594 Q1097.9288,144.5156 1098.4756,144.875 Z " fill="#000000"/><text fill="#000000" font-family="sans-serif" font-size="14" lengthAdjust="spacing" textLength="51" x="1109.71" y="154.7285">Itinerary</text><line style="stroke:#181818;stroke-width:0.5;" x1="1081.71" x2="1162.71" y1="165" y2="165"/><line style="stroke:#181818;stroke-width:0.5;" x1="1081.71" x2="1162.71" y1="173" y2="173"/></g><!--class Evaluator--><g id="elem_Evaluator"><rect codeLine="24" fill="#F1F1F1" height="48" id="Evaluator" rx="2.5" ry="2.5" style="stroke:#181818;stroke-width:0.5;" width="92" x="792.21" y="133"/><ellipse cx="807.21" cy="149" fill="#ADD1B2" rx="11" ry="11" style="stroke:#181818;stroke-width:1.0;"/><path d="M809.9756,144.875 Q810.1319,144.6563 810.3194,144.5469 Q810.5069,144.4375 810.7256,144.4375 Q811.1006,144.4375 811.335,144.7031 Q811.5694,144.9531 811.5694,145.5625 L811.5694,147.0156 Q811.5694,147.625 811.335,147.8906 Q811.1006,148.1563 810.7256,148.1563 Q810.3819,148.1563 810.1788,147.9531 Q809.9756,147.7656 809.8663,147.25 Q809.8194,146.8906 809.6319,146.7031 Q809.3038,146.3281 808.6944,146.1094 Q808.085,145.8906 807.46,145.8906 Q806.6944,145.8906 806.0538,146.2188 Q805.4288,146.5469 804.9288,147.2969 Q804.4444,148.0469 804.4444,149.0781 L804.4444,150.1719 Q804.4444,151.4063 805.335,152.2344 Q806.2256,153.0469 807.8194,153.0469 Q808.7569,153.0469 809.4131,152.7969 Q809.8038,152.6406 810.2256,152.2031 Q810.4913,151.9375 810.6319,151.8594 Q810.7881,151.7813 810.9913,151.7813 Q811.3194,151.7813 811.5694,152.0469 Q811.835,152.2969 811.835,152.6406 Q811.835,152.9844 811.4913,153.3906 Q810.9913,153.9688 810.1944,154.2969 Q809.1163,154.75 807.8194,154.75 Q806.3038,154.75 805.1006,154.125 Q804.1163,153.625 803.4288,152.5625 Q802.7413,151.4844 802.7413,150.2031 L802.7413,149.0469 Q802.7413,147.7188 803.3506,146.5781 Q803.9756,145.4219 805.0694,144.8125 Q806.1631,144.1875 807.3975,144.1875 Q808.1319,144.1875 808.7725,144.3594 Q809.4288,144.5156 809.9756,144.875 Z " fill="#000000"/><text fill="#000000" font-family="sans-serif" font-size="14" lengthAdjust="spacing" textLength="60" x="821.21" y="154.7285">Evaluator</text><line style="stroke:#181818;stroke-width:0.5;" x1="793.21" x2="883.21" y1="165" y2="165"/><line style="stroke:#181818;stroke-width:0.5;" x1="793.21" x2="883.21" y1="173" y2="173"/></g><!--class Teacher--><g id="elem_Teacher"><rect codeLine="17" fill="#F1F1F1" height="48" id="Teacher" rx="2.5" ry="2.5" style="stroke:#181818;stroke-width:0.5;" width="85" x="93.71" y="264"/><ellipse cx="108.71" cy="280" fill="#ADD1B2" rx="11" ry="11" style="stroke:#181818;stroke-width:1.0;"/><path d="M111.4756,275.875 Q111.6319,275.6563 111.8194,275.5469 Q112.0069,275.4375 112.2256,275.4375 Q112.6006,275.4375 112.835,275.7031 Q113.0694,275.9531 113.0694,276.5625 L113.0694,278.0156 Q113.0694,278.625 112.835,278.8906 Q112.6006,279.1563 112.2256,279.1563 Q111.8819,279.1563 111.6788,278.9531 Q111.4756,278.7656 111.3663,278.25 Q111.3194,277.8906 111.1319,277.7031 Q110.8038,277.3281 110.1944,277.1094 Q109.585,276.8906 108.96,276.8906 Q108.1944,276.8906 107.5538,277.2188 Q106.9288,277.5469 106.4288,278.2969 Q105.9444,279.0469 105.9444,280.0781 L105.9444,281.1719 Q105.9444,282.4063 106.835,283.2344 Q107.7256,284.0469 109.3194,284.0469 Q110.2569,284.0469 110.9131,283.7969 Q111.3038,283.6406 111.7256,283.2031 Q111.9913,282.9375 112.1319,282.8594 Q112.2881,282.7813 112.4913,282.7813 Q112.8194,282.7813 113.0694,283.0469 Q113.335,283.2969 113.335,283.6406 Q113.335,283.9844 112.9913,284.3906 Q112.4913,284.9688 111.6944,285.2969 Q110.6163,285.75 109.3194,285.75 Q107.8038,285.75 106.6006,285.125 Q105.6163,284.625 104.9288,283.5625 Q104.2413,282.4844 104.2413,281.2031 L104.2413,280.0469 Q104.2413,278.7188 104.8506,277.5781 Q105.4756,276.4219 106.5694,275.8125 Q107.6631,275.1875 108.8975,275.1875 Q109.6319,275.1875 110.2725,275.3594 Q110.9288,275.5156 111.4756,275.875 Z " fill="#000000"/><text fill="#000000" font-family="sans-serif" font-size="14" lengthAdjust="spacing" textLength="53" x="122.71" y="285.7285">Teacher</text><line style="stroke:#181818;stroke-width:0.5;" x1="94.71" x2="177.71" y1="296" y2="296"/><line style="stroke:#181818;stroke-width:0.5;" x1="94.71" x2="177.71" y1="304" y2="304"/></g><!--class Student--><g id="elem_Student"><rect codeLine="20" fill="#F1F1F1" height="48" id="Student" rx="2.5" ry="2.5" style="stroke:#181818;stroke-width:0.5;" width="81" x="213.71" y="264"/><ellipse cx="228.71" cy="280" fill="#ADD1B2" rx="11" ry="11" style="stroke:#181818;stroke-width:1.0;"/><path d="M231.4756,275.875 Q231.6319,275.6563 231.8194,275.5469 Q232.0069,275.4375 232.2256,275.4375 Q232.6006,275.4375 232.835,275.7031 Q233.0694,275.9531 233.0694,276.5625 L233.0694,278.0156 Q233.0694,278.625 232.835,278.8906 Q232.6006,279.1563 232.2256,279.1563 Q231.8819,279.1563 231.6787,278.9531 Q231.4756,278.7656 231.3662,278.25 Q231.3194,277.8906 231.1319,277.7031 Q230.8037,277.3281 230.1944,277.1094 Q229.585,276.8906 228.96,276.8906 Q228.1944,276.8906 227.5537,277.2188 Q226.9287,277.5469 226.4287,278.2969 Q225.9444,279.0469 225.9444,280.0781 L225.9444,281.1719 Q225.9444,282.4063 226.835,283.2344 Q227.7256,284.0469 229.3194,284.0469 Q230.2569,284.0469 230.9131,283.7969 Q231.3037,283.6406 231.7256,283.2031 Q231.9912,282.9375 232.1319,282.8594 Q232.2881,282.7813 232.4912,282.7813 Q232.8194,282.7813 233.0694,283.0469 Q233.335,283.2969 233.335,283.6406 Q233.335,283.9844 232.9912,284.3906 Q232.4912,284.9688 231.6944,285.2969 Q230.6162,285.75 229.3194,285.75 Q227.8037,285.75 226.6006,285.125 Q225.6162,284.625 224.9287,283.5625 Q224.2412,282.4844 224.2412,281.2031 L224.2412,280.0469 Q224.2412,278.7188 224.8506,277.5781 Q225.4756,276.4219 226.5694,275.8125 Q227.6631,275.1875 228.8975,275.1875 Q229.6319,275.1875 230.2725,275.3594 Q230.9287,275.5156 231.4756,275.875 Z " fill="#000000"/><text fill="#000000" font-family="sans-serif" font-size="14" lengthAdjust="spacing" textLength="49" x="242.71" y="285.7285">Student</text><line style="stroke:#181818;stroke-width:0.5;" x1="214.71" x2="293.71" y1="296" y2="296"/><line style="stroke:#181818;stroke-width:0.5;" x1="214.71" x2="293.71" y1="304" y2="304"/></g><!--class Definition--><g id="elem_Definition"><rect codeLine="32" fill="#F1F1F1" height="65.6094" id="Definition" rx="2.5" ry="2.5" style="stroke:#181818;stroke-width:0.5;" width="133" x="1018.71" y="807"/><ellipse cx="1052.61" cy="823" fill="#ADD1B2" rx="11" ry="11" style="stroke:#181818;stroke-width:1.0;"/><path d="M1055.3756,818.875 Q1055.5319,818.6563 1055.7194,818.5469 Q1055.9069,818.4375 1056.1256,818.4375 Q1056.5006,818.4375 1056.735,818.7031 Q1056.9694,818.9531 1056.9694,819.5625 L1056.9694,821.0156 Q1056.9694,821.625 1056.735,821.8906 Q1056.5006,822.1563 1056.1256,822.1563 Q1055.7819,822.1563 1055.5788,821.9531 Q1055.3756,821.7656 1055.2663,821.25 Q1055.2194,820.8906 1055.0319,820.7031 Q1054.7038,820.3281 1054.0944,820.1094 Q1053.485,819.8906 1052.86,819.8906 Q1052.0944,819.8906 1051.4538,820.2188 Q1050.8288,820.5469 1050.3288,821.2969 Q1049.8444,822.0469 1049.8444,823.0781 L1049.8444,824.1719 Q1049.8444,825.4063 1050.735,826.2344 Q1051.6256,827.0469 1053.2194,827.0469 Q1054.1569,827.0469 1054.8131,826.7969 Q1055.2038,826.6406 1055.6256,826.2031 Q1055.8913,825.9375 1056.0319,825.8594 Q1056.1881,825.7813 1056.3913,825.7813 Q1056.7194,825.7813 1056.9694,826.0469 Q1057.235,826.2969 1057.235,826.6406 Q1057.235,826.9844 1056.8913,827.3906 Q1056.3913,827.9688 1055.5944,828.2969 Q1054.5163,828.75 1053.2194,828.75 Q1051.7038,828.75 1050.5006,828.125 Q1049.5163,827.625 1048.8288,826.5625 Q1048.1413,825.4844 1048.1413,824.2031 L1048.1413,823.0469 Q1048.1413,821.7188 1048.7506,820.5781 Q1049.3756,819.4219 1050.4694,818.8125 Q1051.5631,818.1875 1052.7975,818.1875 Q1053.5319,818.1875 1054.1725,818.3594 Q1054.8288,818.5156 1055.3756,818.875 Z " fill="#000000"/><text fill="#000000" font-family="sans-serif" font-size="14" lengthAdjust="spacing" textLength="59" x="1070.81" y="828.7285">Definition</text><line style="stroke:#181818;stroke-width:0.5;" x1="1019.71" x2="1150.71" y1="839" y2="839"/><rect fill="none" height="6" style="stroke:#C82930;stroke-width:1.0;" width="6" x="1026.71" y="850.3047"/><text fill="#000000" font-family="sans-serif" font-size="14" lengthAdjust="spacing" textLength="107" x="1038.71" y="857.5332">correct : boolean</text><line style="stroke:#181818;stroke-width:0.5;" x1="1019.71" x2="1150.71" y1="864.6094" y2="864.6094"/></g><!--class Justification--><g id="elem_Justification"><rect codeLine="37" fill="#F1F1F1" height="48" id="Justification" rx="2.5" ry="2.5" style="stroke:#181818;stroke-width:0.5;" width="105" x="912.71" y="995"/><ellipse cx="927.71" cy="1011" fill="#ADD1B2" rx="11" ry="11" style="stroke:#181818;stroke-width:1.0;"/><path d="M930.4756,1006.875 Q930.6319,1006.6563 930.8194,1006.5469 Q931.0069,1006.4375 931.2256,1006.4375 Q931.6006,1006.4375 931.835,1006.7031 Q932.0694,1006.9531 932.0694,1007.5625 L932.0694,1009.0156 Q932.0694,1009.625 931.835,1009.8906 Q931.6006,1010.1563 931.2256,1010.1563 Q930.8819,1010.1563 930.6788,1009.9531 Q930.4756,1009.7656 930.3663,1009.25 Q930.3194,1008.8906 930.1319,1008.7031 Q929.8038,1008.3281 929.1944,1008.1094 Q928.585,1007.8906 927.96,1007.8906 Q927.1944,1007.8906 926.5538,1008.2188 Q925.9288,1008.5469 925.4288,1009.2969 Q924.9444,1010.0469 924.9444,1011.0781 L924.9444,1012.1719 Q924.9444,1013.4063 925.835,1014.2344 Q926.7256,1015.0469 928.3194,1015.0469 Q929.2569,1015.0469 929.9131,1014.7969 Q930.3038,1014.6406 930.7256,1014.2031 Q930.9913,1013.9375 931.1319,1013.8594 Q931.2881,1013.7813 931.4913,1013.7813 Q931.8194,1013.7813 932.0694,1014.0469 Q932.335,1014.2969 932.335,1014.6406 Q932.335,1014.9844 931.9913,1015.3906 Q931.4913,1015.9688 930.6944,1016.2969 Q929.6163,1016.75 928.3194,1016.75 Q926.8038,1016.75 925.6006,1016.125 Q924.6163,1015.625 923.9288,1014.5625 Q923.2413,1013.4844 923.2413,1012.2031 L923.2413,1011.0469 Q923.2413,1009.7188 923.8506,1008.5781 Q924.4756,1007.4219 925.5694,1006.8125 Q926.6631,1006.1875 927.8975,1006.1875 Q928.6319,1006.1875 929.2725,1006.3594 Q929.9288,1006.5156 930.4756,1006.875 Z " fill="#000000"/><text fill="#000000" font-family="sans-serif" font-size="14" lengthAdjust="spacing" textLength="73" x="941.71" y="1016.7285">Justification</text><line style="stroke:#181818;stroke-width:0.5;" x1="913.71" x2="1016.71" y1="1027" y2="1027"/><line style="stroke:#181818;stroke-width:0.5;" x1="913.71" x2="1016.71" y1="1035" y2="1035"/></g><!--class CompositeTopic--><g id="elem_CompositeTopic"><rect codeLine="54" fill="#F1F1F1" height="48" id="CompositeTopic" rx="2.5" ry="2.5" style="stroke:#181818;stroke-width:0.5;" width="134" x="1377.21" y="526"/><ellipse cx="1392.21" cy="542" fill="#ADD1B2" rx="11" ry="11" style="stroke:#181818;stroke-width:1.0;"/><path d="M1394.9756,537.875 Q1395.1319,537.6563 1395.3194,537.5469 Q1395.5069,537.4375 1395.7256,537.4375 Q1396.1006,537.4375 1396.335,537.7031 Q1396.5694,537.9531 1396.5694,538.5625 L1396.5694,540.0156 Q1396.5694,540.625 1396.335,540.8906 Q1396.1006,541.1563 1395.7256,541.1563 Q1395.3819,541.1563 1395.1788,540.9531 Q1394.9756,540.7656 1394.8663,540.25 Q1394.8194,539.8906 1394.6319,539.7031 Q1394.3038,539.3281 1393.6944,539.1094 Q1393.085,538.8906 1392.46,538.8906 Q1391.6944,538.8906 1391.0538,539.2188 Q1390.4288,539.5469 1389.9288,540.2969 Q1389.4444,541.0469 1389.4444,542.0781 L1389.4444,543.1719 Q1389.4444,544.4063 1390.335,545.2344 Q1391.2256,546.0469 1392.8194,546.0469 Q1393.7569,546.0469 1394.4131,545.7969 Q1394.8038,545.6406 1395.2256,545.2031 Q1395.4913,544.9375 1395.6319,544.8594 Q1395.7881,544.7813 1395.9913,544.7813 Q1396.3194,544.7813 1396.5694,545.0469 Q1396.835,545.2969 1396.835,545.6406 Q1396.835,545.9844 1396.4913,546.3906 Q1395.9913,546.9688 1395.1944,547.2969 Q1394.1163,547.75 1392.8194,547.75 Q1391.3038,547.75 1390.1006,547.125 Q1389.1163,546.625 1388.4288,545.5625 Q1387.7413,544.4844 1387.7413,543.2031 L1387.7413,542.0469 Q1387.7413,540.7188 1388.3506,539.5781 Q1388.9756,538.4219 1390.0694,537.8125 Q1391.1631,537.1875 1392.3975,537.1875 Q1393.1319,537.1875 1393.7725,537.3594 Q1394.4288,537.5156 1394.9756,537.875 Z " fill="#000000"/><text fill="#000000" font-family="sans-serif" font-size="14" lengthAdjust="spacing" textLength="102" x="1406.21" y="547.7285">CompositeTopic</text><line style="stroke:#181818;stroke-width:0.5;" x1="1378.21" x2="1510.21" y1="558" y2="558"/><line style="stroke:#181818;stroke-width:0.5;" x1="1378.21" x2="1510.21" y1="566" y2="566"/></g><!--class SimpleTopic--><g id="elem_SimpleTopic"><rect codeLine="50" fill="#F1F1F1" height="48" id="SimpleTopic" rx="2.5" ry="2.5" style="stroke:#181818;stroke-width:0.5;" width="109" x="1107.71" y="526"/><ellipse cx="1122.71" cy="542" fill="#ADD1B2" rx="11" ry="11" style="stroke:#181818;stroke-width:1.0;"/><path d="M1125.4756,537.875 Q1125.6319,537.6563 1125.8194,537.5469 Q1126.0069,537.4375 1126.2256,537.4375 Q1126.6006,537.4375 1126.835,537.7031 Q1127.0694,537.9531 1127.0694,538.5625 L1127.0694,540.0156 Q1127.0694,540.625 1126.835,540.8906 Q1126.6006,541.1563 1126.2256,541.1563 Q1125.8819,541.1563 1125.6788,540.9531 Q1125.4756,540.7656 1125.3663,540.25 Q1125.3194,539.8906 1125.1319,539.7031 Q1124.8038,539.3281 1124.1944,539.1094 Q1123.585,538.8906 1122.96,538.8906 Q1122.1944,538.8906 1121.5538,539.2188 Q1120.9288,539.5469 1120.4288,540.2969 Q1119.9444,541.0469 1119.9444,542.0781 L1119.9444,543.1719 Q1119.9444,544.4063 1120.835,545.2344 Q1121.7256,546.0469 1123.3194,546.0469 Q1124.2569,546.0469 1124.9131,545.7969 Q1125.3038,545.6406 1125.7256,545.2031 Q1125.9913,544.9375 1126.1319,544.8594 Q1126.2881,544.7813 1126.4913,544.7813 Q1126.8194,544.7813 1127.0694,545.0469 Q1127.335,545.2969 1127.335,545.6406 Q1127.335,545.9844 1126.9913,546.3906 Q1126.4913,546.9688 1125.6944,547.2969 Q1124.6163,547.75 1123.3194,547.75 Q1121.8038,547.75 1120.6006,547.125 Q1119.6163,546.625 1118.9288,545.5625 Q1118.2413,544.4844 1118.2413,543.2031 L1118.2413,542.0469 Q1118.2413,540.7188 1118.8506,539.5781 Q1119.4756,538.4219 1120.5694,537.8125 Q1121.6631,537.1875 1122.8975,537.1875 Q1123.6319,537.1875 1124.2725,537.3594 Q1124.9288,537.5156 1125.4756,537.875 Z " fill="#000000"/><text fill="#000000" font-family="sans-serif" font-size="14" lengthAdjust="spacing" textLength="77" x="1136.71" y="547.7285">SimpleTopic</text><line style="stroke:#181818;stroke-width:0.5;" x1="1108.71" x2="1215.71" y1="558" y2="558"/><line style="stroke:#181818;stroke-width:0.5;" x1="1108.71" x2="1215.71" y1="566" y2="566"/></g><!--class Attachment--><g id="elem_Attachment"><rect codeLine="46" fill="#F1F1F1" height="48" id="Attachment" rx="2.5" ry="2.5" style="stroke:#181818;stroke-width:0.5;" width="103" x="1306.71" y="816"/><ellipse cx="1321.71" cy="832" fill="#ADD1B2" rx="11" ry="11" style="stroke:#181818;stroke-width:1.0;"/><path d="M1324.4756,827.875 Q1324.6319,827.6563 1324.8194,827.5469 Q1325.0069,827.4375 1325.2256,827.4375 Q1325.6006,827.4375 1325.835,827.7031 Q1326.0694,827.9531 1326.0694,828.5625 L1326.0694,830.0156 Q1326.0694,830.625 1325.835,830.8906 Q1325.6006,831.1563 1325.2256,831.1563 Q1324.8819,831.1563 1324.6788,830.9531 Q1324.4756,830.7656 1324.3663,830.25 Q1324.3194,829.8906 1324.1319,829.7031 Q1323.8038,829.3281 1323.1944,829.1094 Q1322.585,828.8906 1321.96,828.8906 Q1321.1944,828.8906 1320.5538,829.2188 Q1319.9288,829.5469 1319.4288,830.2969 Q1318.9444,831.0469 1318.9444,832.0781 L1318.9444,833.1719 Q1318.9444,834.4063 1319.835,835.2344 Q1320.7256,836.0469 1322.3194,836.0469 Q1323.2569,836.0469 1323.9131,835.7969 Q1324.3038,835.6406 1324.7256,835.2031 Q1324.9913,834.9375 1325.1319,834.8594 Q1325.2881,834.7813 1325.4913,834.7813 Q1325.8194,834.7813 1326.0694,835.0469 Q1326.335,835.2969 1326.335,835.6406 Q1326.335,835.9844 1325.9913,836.3906 Q1325.4913,836.9688 1324.6944,837.2969 Q1323.6163,837.75 1322.3194,837.75 Q1320.8038,837.75 1319.6006,837.125 Q1318.6163,836.625 1317.9288,835.5625 Q1317.2413,834.4844 1317.2413,833.2031 L1317.2413,832.0469 Q1317.2413,830.7188 1317.8506,829.5781 Q1318.4756,828.4219 1319.5694,827.8125 Q1320.6631,827.1875 1321.8975,827.1875 Q1322.6319,827.1875 1323.2725,827.3594 Q1323.9288,827.5156 1324.4756,827.875 Z " fill="#000000"/><text fill="#000000" font-family="sans-serif" font-size="14" lengthAdjust="spacing" textLength="71" x="1335.71" y="837.7285">Attachment</text><line style="stroke:#181818;stroke-width:0.5;" x1="1307.71" x2="1408.71" y1="848" y2="848"/><line style="stroke:#181818;stroke-width:0.5;" x1="1307.71" x2="1408.71" y1="856" y2="856"/></g><!--class Document--><g id="elem_Document"><rect codeLine="58" fill="#F1F1F1" height="48" id="Document" rx="2.5" ry="2.5" style="stroke:#181818;stroke-width:0.5;" width="96" x="1316.21" y="995"/><ellipse cx="1331.21" cy="1011" fill="#ADD1B2" rx="11" ry="11" style="stroke:#181818;stroke-width:1.0;"/><path d="M1333.9756,1006.875 Q1334.1319,1006.6563 1334.3194,1006.5469 Q1334.5069,1006.4375 1334.7256,1006.4375 Q1335.1006,1006.4375 1335.335,1006.7031 Q1335.5694,1006.9531 1335.5694,1007.5625 L1335.5694,1009.0156 Q1335.5694,1009.625 1335.335,1009.8906 Q1335.1006,1010.1563 1334.7256,1010.1563 Q1334.3819,1010.1563 1334.1788,1009.9531 Q1333.9756,1009.7656 1333.8663,1009.25 Q1333.8194,1008.8906 1333.6319,1008.7031 Q1333.3038,1008.3281 1332.6944,1008.1094 Q1332.085,1007.8906 1331.46,1007.8906 Q1330.6944,1007.8906 1330.0538,1008.2188 Q1329.4288,1008.5469 1328.9288,1009.2969 Q1328.4444,1010.0469 1328.4444,1011.0781 L1328.4444,1012.1719 Q1328.4444,1013.4063 1329.335,1014.2344 Q1330.2256,1015.0469 1331.8194,1015.0469 Q1332.7569,1015.0469 1333.4131,1014.7969 Q1333.8038,1014.6406 1334.2256,1014.2031 Q1334.4913,1013.9375 1334.6319,1013.8594 Q1334.7881,1013.7813 1334.9913,1013.7813 Q1335.3194,1013.7813 1335.5694,1014.0469 Q1335.835,1014.2969 1335.835,1014.6406 Q1335.835,1014.9844 1335.4913,1015.3906 Q1334.9913,1015.9688 1334.1944,1016.2969 Q1333.1163,1016.75 1331.8194,1016.75 Q1330.3038,1016.75 1329.1006,1016.125 Q1328.1163,1015.625 1327.4288,1014.5625 Q1326.7413,1013.4844 1326.7413,1012.2031 L1326.7413,1011.0469 Q1326.7413,1009.7188 1327.3506,1008.5781 Q1327.9756,1007.4219 1329.0694,1006.8125 Q1330.1631,1006.1875 1331.3975,1006.1875 Q1332.1319,1006.1875 1332.7725,1006.3594 Q1333.4288,1006.5156 1333.9756,1006.875 Z " fill="#000000"/><text fill="#000000" font-family="sans-serif" font-size="14" lengthAdjust="spacing" textLength="64" x="1345.21" y="1016.7285">Document</text><line style="stroke:#181818;stroke-width:0.5;" x1="1317.21" x2="1411.21" y1="1027" y2="1027"/><line style="stroke:#181818;stroke-width:0.5;" x1="1317.21" x2="1411.21" y1="1035" y2="1035"/></g><!--class Concept--><g id="elem_Concept"><rect codeLine="60" fill="#F1F1F1" height="48" id="Concept" rx="2.5" ry="2.5" style="stroke:#181818;stroke-width:0.5;" width="85" x="1119.71" y="661.5"/><ellipse cx="1134.71" cy="677.5" fill="#ADD1B2" rx="11" ry="11" style="stroke:#181818;stroke-width:1.0;"/><path d="M1137.4756,673.375 Q1137.6319,673.1563 1137.8194,673.0469 Q1138.0069,672.9375 1138.2256,672.9375 Q1138.6006,672.9375 1138.835,673.2031 Q1139.0694,673.4531 1139.0694,674.0625 L1139.0694,675.5156 Q1139.0694,676.125 1138.835,676.3906 Q1138.6006,676.6563 1138.2256,676.6563 Q1137.8819,676.6563 1137.6788,676.4531 Q1137.4756,676.2656 1137.3663,675.75 Q1137.3194,675.3906 1137.1319,675.2031 Q1136.8038,674.8281 1136.1944,674.6094 Q1135.585,674.3906 1134.96,674.3906 Q1134.1944,674.3906 1133.5538,674.7188 Q1132.9288,675.0469 1132.4288,675.7969 Q1131.9444,676.5469 1131.9444,677.5781 L1131.9444,678.6719 Q1131.9444,679.9063 1132.835,680.7344 Q1133.7256,681.5469 1135.3194,681.5469 Q1136.2569,681.5469 1136.9131,681.2969 Q1137.3038,681.1406 1137.7256,680.7031 Q1137.9913,680.4375 1138.1319,680.3594 Q1138.2881,680.2813 1138.4913,680.2813 Q1138.8194,680.2813 1139.0694,680.5469 Q1139.335,680.7969 1139.335,681.1406 Q1139.335,681.4844 1138.9913,681.8906 Q1138.4913,682.4688 1137.6944,682.7969 Q1136.6163,683.25 1135.3194,683.25 Q1133.8038,683.25 1132.6006,682.625 Q1131.6163,682.125 1130.9288,681.0625 Q1130.2413,679.9844 1130.2413,678.7031 L1130.2413,677.5469 Q1130.2413,676.2188 1130.8506,675.0781 Q1131.4756,673.9219 1132.5694,673.3125 Q1133.6631,672.6875 1134.8975,672.6875 Q1135.6319,672.6875 1136.2725,672.8594 Q1136.9288,673.0156 1137.4756,673.375 Z " fill="#000000"/><text fill="#000000" font-family="sans-serif" font-size="14" lengthAdjust="spacing" textLength="53" x="1148.71" y="683.2285">Concept</text><line style="stroke:#181818;stroke-width:0.5;" x1="1120.71" x2="1203.71" y1="693.5" y2="693.5"/><line style="stroke:#181818;stroke-width:0.5;" x1="1120.71" x2="1203.71" y1="701.5" y2="701.5"/></g><!--class Relation--><g id="elem_Relation"><rect codeLine="66" fill="#F1F1F1" height="48" id="Relation" rx="2.5" ry="2.5" style="stroke:#181818;stroke-width:0.5;" width="84" x="1187.21" y="816"/><ellipse cx="1202.21" cy="832" fill="#ADD1B2" rx="11" ry="11" style="stroke:#181818;stroke-width:1.0;"/><path d="M1204.9756,827.875 Q1205.1319,827.6563 1205.3194,827.5469 Q1205.5069,827.4375 1205.7256,827.4375 Q1206.1006,827.4375 1206.335,827.7031 Q1206.5694,827.9531 1206.5694,828.5625 L1206.5694,830.0156 Q1206.5694,830.625 1206.335,830.8906 Q1206.1006,831.1563 1205.7256,831.1563 Q1205.3819,831.1563 1205.1788,830.9531 Q1204.9756,830.7656 1204.8663,830.25 Q1204.8194,829.8906 1204.6319,829.7031 Q1204.3038,829.3281 1203.6944,829.1094 Q1203.085,828.8906 1202.46,828.8906 Q1201.6944,828.8906 1201.0538,829.2188 Q1200.4288,829.5469 1199.9288,830.2969 Q1199.4444,831.0469 1199.4444,832.0781 L1199.4444,833.1719 Q1199.4444,834.4063 1200.335,835.2344 Q1201.2256,836.0469 1202.8194,836.0469 Q1203.7569,836.0469 1204.4131,835.7969 Q1204.8038,835.6406 1205.2256,835.2031 Q1205.4913,834.9375 1205.6319,834.8594 Q1205.7881,834.7813 1205.9913,834.7813 Q1206.3194,834.7813 1206.5694,835.0469 Q1206.835,835.2969 1206.835,835.6406 Q1206.835,835.9844 1206.4913,836.3906 Q1205.9913,836.9688 1205.1944,837.2969 Q1204.1163,837.75 1202.8194,837.75 Q1201.3038,837.75 1200.1006,837.125 Q1199.1163,836.625 1198.4288,835.5625 Q1197.7413,834.4844 1197.7413,833.2031 L1197.7413,832.0469 Q1197.7413,830.7188 1198.3506,829.5781 Q1198.9756,828.4219 1200.0694,827.8125 Q1201.1631,827.1875 1202.3975,827.1875 Q1203.1319,827.1875 1203.7725,827.3594 Q1204.4288,827.5156 1204.9756,827.875 Z " fill="#000000"/><text fill="#000000" font-family="sans-serif" font-size="14" lengthAdjust="spacing" textLength="52" x="1216.21" y="837.7285">Relation</text><line style="stroke:#181818;stroke-width:0.5;" x1="1188.21" x2="1270.21" y1="848" y2="848"/><line style="stroke:#181818;stroke-width:0.5;" x1="1188.21" x2="1270.21" y1="856" y2="856"/></g><!--class RelationType--><g id="elem_RelationType"><rect codeLine="71" fill="#F1F1F1" height="136.0469" id="RelationType" rx="2.5" ry="2.5" style="stroke:#181818;stroke-width:0.5;" width="116" x="1165.21" y="951"/><ellipse cx="1180.21" cy="967" fill="#EB937F" rx="11" ry="11" style="stroke:#181818;stroke-width:1.0;"/><path d="M1179.0694,967.7969 L1179.0694,970.2969 L1183.3975,970.2969 L1183.3975,969.375 Q1183.3975,968.7656 1183.6319,968.5 Q1183.8819,968.2344 1184.2569,968.2344 Q1184.6319,968.2344 1184.8663,968.5 Q1185.1006,968.7656 1185.1006,969.375 L1185.1006,972 L1177.1006,972 Q1176.4756,972 1176.21,971.7656 Q1175.96,971.5313 1175.96,971.1406 Q1175.96,970.7656 1176.2256,970.5313 Q1176.4913,970.2969 1177.1006,970.2969 L1177.3663,970.2969 L1177.3663,963.6406 L1177.1006,963.6406 Q1176.4756,963.6406 1176.21,963.4063 Q1175.96,963.1719 1175.96,962.7813 Q1175.96,962.4063 1176.21,962.1719 Q1176.4756,961.9375 1177.1006,961.9375 L1184.7256,961.9375 L1184.7256,964.5313 Q1184.7256,965.1406 1184.4913,965.4063 Q1184.2725,965.6563 1183.8819,965.6563 Q1183.5069,965.6563 1183.2725,965.4063 Q1183.0381,965.1406 1183.0381,964.5313 L1183.0381,963.6406 L1179.0694,963.6406 L1179.0694,966.0938 L1180.5538,966.0938 Q1180.5538,965.4375 1180.6788,965.25 Q1180.9444,964.8438 1181.4131,964.8438 Q1181.7881,964.8438 1182.0225,965.1094 Q1182.2569,965.3594 1182.2569,965.9688 L1182.2569,967.9375 Q1182.2569,968.4844 1182.1319,968.6719 Q1181.8663,969.0625 1181.4131,969.0625 Q1180.9444,969.0625 1180.6788,968.6563 Q1180.5538,968.4688 1180.5538,967.7969 L1179.0694,967.7969 Z " fill="#000000"/><text fill="#000000" font-family="sans-serif" font-size="14" lengthAdjust="spacing" textLength="84" x="1194.21" y="972.7285">RelationType</text><line style="stroke:#181818;stroke-width:0.5;" x1="1166.21" x2="1280.21" y1="983" y2="983"/><text fill="#000000" font-family="sans-serif" font-size="14" lengthAdjust="spacing" textLength="24" x="1171.21" y="1001.5332">Use</text><text fill="#000000" font-family="sans-serif" font-size="14" lengthAdjust="spacing" textLength="72" x="1171.21" y="1019.1426">Association</text><text fill="#000000" font-family="sans-serif" font-size="14" lengthAdjust="spacing" textLength="78" x="1171.21" y="1036.752">Composition</text><text fill="#000000" font-family="sans-serif" font-size="14" lengthAdjust="spacing" textLength="70" x="1171.21" y="1054.3613">Inheritance</text><text fill="#000000" font-family="sans-serif" font-size="14" lengthAdjust="spacing" textLength="77" x="1171.21" y="1071.9707">Aggregation</text><line style="stroke:#181818;stroke-width:0.5;" x1="1166.21" x2="1280.21" y1="1079.0469" y2="1079.0469"/></g><!--link EducationPlatform to User--><g id="link_EducationPlatform_User"><path codeLine="2" d="M702.8311,51.8247 C584.3811,79.3347 374.0546,128.1732 291.1746,147.4132 " fill="none" id="EducationPlatform-User" style="stroke:#FF0000;stroke-width:1.0;"/><polygon fill="#FF0000" points="714.52,49.11,707.7706,46.5711,702.8311,51.8247,709.5805,54.3637,714.52,49.11" style="stroke:#FF0000;stroke-width:1.0;"/><polygon fill="#FF0000" points="285.33,148.77,295.0014,150.6312,290.2005,147.6394,293.1924,142.8384,285.33,148.77" style="stroke:#FF0000;stroke-width:1.0;"/><text fill="#000000" font-family="sans-serif" font-size="13" lengthAdjust="spacing" textLength="8" x="293.0125" y="142.7533">+</text></g><!--link EducationPlatform to Topic--><g id="link_EducationPlatform_Topic"><path codeLine="3" d="M827.4304,62.3539 C915.2804,130.3339 1158.7948,318.768 1246.6948,386.788 " fill="none" id="EducationPlatform-Topic" style="stroke:#FF0000;stroke-width:1.0;"/><polygon fill="#FF0000" points="817.94,55.01,820.2373,61.8454,827.4304,62.3539,825.1332,55.5185,817.94,55.01" style="stroke:#FF0000;stroke-width:1.0;"/><polygon fill="#FF0000" points="1251.44,390.46,1246.7702,381.7886,1247.4857,387.4,1241.8743,388.1155,1251.44,390.46" style="stroke:#FF0000;stroke-width:1.0;"/></g><!--link EducationPlatform to Itinerary--><g id="link_EducationPlatform_Itinerary"><path codeLine="4" d="M873.7669,51.3395 C910.4469,60.4395 943.44,70.05 982.21,85 C984.78,85.99 1034.814,111.436 1075.144,131.986 " fill="none" id="EducationPlatform-Itinerary" style="stroke:#FF0000;stroke-width:1.0;"/><polygon fill="#FF0000" points="862.12,48.45,866.9803,53.7771,873.7669,51.3395,868.9066,46.0124,862.12,48.45" style="stroke:#FF0000;stroke-width:1.0;"/><polygon fill="#FF0000" points="1080.49,134.71,1074.287,127.06,1076.035,132.44,1070.655,134.1879,1080.49,134.71" style="stroke:#FF0000;stroke-width:1.0;"/><text fill="#000000" font-family="sans-serif" font-size="13" lengthAdjust="spacing" textLength="59" x="1018.21" y="99.4951">predefined</text></g><!--link EducationPlatform to Itinerary--><g id="link_EducationPlatform_Itinerary"><path codeLine="5" d="M873.9828,39.1699 C949.5228,46.5699 1048.61,60.14 1083.21,85 C1099.31,96.57 1107.4265,111.3134 1113.3365,127.2734 " fill="none" id="EducationPlatform-Itinerary-1" style="stroke:#FF0000;stroke-width:1.0;"/><polygon fill="none" points="862.04,38,867.6214,42.5659,873.9828,39.1699,868.4014,34.604,862.04,38" style="stroke:#FF0000;stroke-width:1.0;"/><polygon fill="#FF0000" points="1115.42,132.9,1116.0458,123.071,1113.6837,128.2111,1108.5436,125.8491,1115.42,132.9" style="stroke:#FF0000;stroke-width:1.0;"/><text fill="#000000" font-family="sans-serif" font-size="13" lengthAdjust="spacing" textLength="43" x="1100.21" y="99.4951">custom</text><text fill="#000000" font-family="sans-serif" font-size="13" lengthAdjust="spacing" textLength="5" x="1108.0394" y="122.2145">*</text></g><!--link EducationPlatform to Evaluator--><g id="link_EducationPlatform_Evaluator"><path codeLine="6" d="M801.9844,66.1606 C810.9044,88.3006 817.597,104.875 826.557,127.105 " fill="none" id="EducationPlatform-Evaluator" style="stroke:#FF0000;stroke-width:1.0;"/><polygon fill="#FF0000" points="797.5,55.03,796.032,62.0901,801.9844,66.1606,803.4524,59.1005,797.5,55.03" style="stroke:#FF0000;stroke-width:1.0;"/><polygon fill="#FF0000" points="828.8,132.67,829.1455,122.8272,826.9308,128.0325,821.7255,125.8179,828.8,132.67" style="stroke:#FF0000;stroke-width:1.0;"/></g><!--link EducationPlatform to Exercise--><g id="link_EducationPlatform_Exercise"><path codeLine="7" d="M735.8749,62.0088 C724.0249,70.1388 721.93,73.4 713.21,85 C671.17,140.92 654.0713,218.0908 647.4513,258.0208 " fill="none" id="EducationPlatform-Exercise" style="stroke:#FF0000;stroke-width:1.0;"/><polygon fill="none" points="745.77,55.22,738.5595,55.316,735.8749,62.0088,743.0854,61.9127,745.77,55.22" style="stroke:#FF0000;stroke-width:1.0;"/><polygon fill="#FF0000" points="646.47,263.94,651.8882,255.7154,647.2878,259.0073,643.9959,254.407,646.47,263.94" style="stroke:#FF0000;stroke-width:1.0;"/><text fill="#000000" font-family="sans-serif" font-size="13" lengthAdjust="spacing" textLength="5" x="641.6648" y="253.2648">*</text></g><!--link EducationPlatform to Domain--><g id="link_EducationPlatform_Domain"><path codeLine="8" d="M702.6602,35.5759 C589.3802,42.1559 379.11,62.98 205.21,133 C141.06,158.83 108.68,158.94 76.21,220 C6,352.03 203.259,461.8116 322.849,514.4816 " fill="none" id="EducationPlatform-Domain" style="stroke:#FF0000;stroke-width:1.0;"/><polygon fill="none" points="714.64,34.88,708.4181,31.2347,702.6602,35.5759,708.8821,39.2212,714.64,34.88" style="stroke:#FF0000;stroke-width:1.0;"/><polygon fill="#FF0000" points="328.34,516.9,321.7157,509.6118,323.7641,514.8847,318.4912,516.9331,328.34,516.9" style="stroke:#FF0000;stroke-width:1.0;"/><text fill="#000000" font-family="sans-serif" font-size="13" lengthAdjust="spacing" textLength="5" x="314.7425" y="510.1949">*</text></g><!--link EducationPlatform to Application--><g id="link_EducationPlatform_Application"><path codeLine="9" d="M781.693,66.8658 C770.203,126.8658 739.26,273.9 703.21,312 C688.69,327.35 583.7512,363.0411 506.5112,387.9111 " fill="none" id="EducationPlatform-Application" style="stroke:#FF0000;stroke-width:1.0;"/><polygon fill="none" points="783.95,55.08,778.8929,60.2206,781.693,66.8658,786.7501,61.7252,783.95,55.08" style="stroke:#FF0000;stroke-width:1.0;"/><polygon fill="#FF0000" points="500.8,389.75,510.5928,390.7991,505.5594,388.2176,508.1409,383.1841,500.8,389.75" style="stroke:#FF0000;stroke-width:1.0;"/><text fill="#000000" font-family="sans-serif" font-size="13" lengthAdjust="spacing" textLength="5" x="508.853" y="383.8746">*</text></g><!--reverse link User to Teacher--><g id="link_User_Teacher"><path codeLine="14" d="M219.998,194.2619 C209.088,205.8619 208.05,207.06 196.21,220 C182.93,234.51 168.18,250.97 156.64,263.94 " fill="none" id="User-backto-Teacher" style="stroke:#181818;stroke-width:1.0;"/><polygon fill="none" points="232.33,181.15,215.6274,190.1513,224.3687,198.3726,232.33,181.15" style="stroke:#181818;stroke-width:1.0;"/></g><!--reverse link User to Student--><g id="link_User_Student"><path codeLine="15" d="M254.21,199.06 C254.21,222.4 254.21,240.28 254.21,263.7 " fill="none" id="User-backto-Student" style="stroke:#181818;stroke-width:1.0;"/><polygon fill="none" points="254.21,181.06,248.21,199.06,260.21,199.06,254.21,181.06" style="stroke:#181818;stroke-width:1.0;"/></g><!--link Student to Application--><g id="link_Student_Application"><path codeLine="22" d="M295.6736,319.1898 C319.0536,336.1998 336.8796,349.1883 364.5396,369.3283 " fill="none" id="Student-Application" style="stroke:#181818;stroke-width:1.0;"/><polygon fill="none" points="285.97,312.13,288.4685,318.8944,295.6736,319.1898,293.1751,312.4254,285.97,312.13" style="stroke:#181818;stroke-width:1.0;"/><polygon fill="#181818" points="369.39,372.86,364.4688,364.3288,365.348,369.9169,359.7598,370.796,369.39,372.86" style="stroke:#181818;stroke-width:1.0;"/><text fill="#000000" font-family="sans-serif" font-size="13" lengthAdjust="spacing" textLength="5" x="354.7308" y="362.1445">*</text></g><!--link Evaluator to QuestionExercise--><g id="link_Evaluator_QuestionExercise"><path codeLine="26" d="M837.21,181.12 C835.25,226.82 831.1188,322.7856 828.8588,375.1356 " fill="none" id="Evaluator-to-QuestionExercise" style="stroke:#181818;stroke-width:1.0;"/><polygon fill="#181818" points="828.6,381.13,832.9845,372.3109,828.8157,376.1347,824.9919,371.9659,828.6,381.13" style="stroke:#181818;stroke-width:1.0;"/></g><!--link Itinerary to Topic--><g id="link_Itinerary_Topic"><path codeLine="30" d="M1142.9402,191.3083 C1173.1402,239.8383 1233.2993,336.5162 1263.5693,385.1462 " fill="none" id="Itinerary-Topic" style="stroke:#181818;stroke-width:1.0;"/><polygon fill="none" points="1136.6,181.12,1136.374,188.3276,1142.9402,191.3083,1143.1662,184.1008,1136.6,181.12" style="stroke:#181818;stroke-width:1.0;"/><polygon fill="#181818" points="1266.74,390.24,1265.3799,380.4855,1264.0978,385.9952,1258.5881,384.7131,1266.74,390.24" style="stroke:#181818;stroke-width:1.0;"/><text fill="#000000" font-family="sans-serif" font-size="13" lengthAdjust="spacing" textLength="8" x="1254.0071" y="379.5135">+</text></g><!--link Definition to Justification--><g id="link_Definition_Justification"><path codeLine="35" d="M1056.7469,882.983 C1032.9069,918.153 1005.3264,958.8234 984.2264,989.9534 " fill="none" id="Definition-Justification" style="stroke:#181818;stroke-width:1.0;"/><polygon fill="#181818" points="1063.48,873.05,1056.8024,875.7721,1056.7469,882.983,1063.4245,880.2609,1063.48,873.05" style="stroke:#181818;stroke-width:1.0;"/><polygon fill="#181818" points="980.86,994.92,989.2207,989.7143,983.6653,990.7811,982.5985,985.2258,980.86,994.92" style="stroke:#181818;stroke-width:1.0;"/><text fill="#000000" font-family="sans-serif" font-size="13" lengthAdjust="spacing" textLength="106" x="1043.21" y="917.4951">[!definition.correct]</text><text fill="#000000" font-family="sans-serif" font-size="13" lengthAdjust="spacing" textLength="5" x="979.2297" y="984.2397">*</text></g><!--reverse link Topic to CompositeTopic--><g id="link_Topic_CompositeTopic"><path codeLine="42" d="M1312.789,451.0531 C1338.879,475.4831 1372.38,501.38 1405.93,525.79 " fill="none" id="Topic-backto-CompositeTopic" style="stroke:#181818;stroke-width:1.0;"/><polygon fill="none" points="1299.65,438.75,1308.688,455.4327,1316.8901,446.6734,1299.65,438.75" style="stroke:#181818;stroke-width:1.0;"/></g><!--link CompositeTopic to Topic--><g id="link_CompositeTopic_Topic"><path codeLine="56" d="M1417.8808,517.7352 C1390.6808,492.0152 1353.7867,462.5373 1319.6667,438.3773 " fill="none" id="CompositeTopic-Topic" style="stroke:#181818;stroke-width:1.0;"/><polygon fill="none" points="1426.6,525.98,1424.9887,518.9512,1417.8808,517.7352,1419.4922,524.764,1426.6,525.98" style="stroke:#181818;stroke-width:1.0;"/><polygon fill="#181818" points="1314.77,434.91,1319.8035,443.3754,1318.8506,437.7994,1324.4266,436.8465,1314.77,434.91" style="stroke:#181818;stroke-width:1.0;"/><text fill="#000000" font-family="sans-serif" font-size="13" lengthAdjust="spacing" textLength="8" x="1322.5168" y="435.0009">+</text></g><!--reverse link Topic to SimpleTopic--><g id="link_Topic_SimpleTopic"><path codeLine="43" d="M1248.504,452.1878 C1226.794,476.5478 1204.87,501.14 1183.1,525.56 " fill="none" id="Topic-backto-SimpleTopic" style="stroke:#181818;stroke-width:1.0;"/><polygon fill="none" points="1260.48,438.75,1244.0247,448.1958,1252.9833,456.1798,1260.48,438.75" style="stroke:#181818;stroke-width:1.0;"/></g><!--link Topic to Attachment--><g id="link_Topic_Attachment"><path codeLine="44" d="M1287.5472,450.3763 C1300.9672,524.1663 1339.5168,736.1868 1352.9368,810.0068 " fill="none" id="Topic-Attachment" style="stroke:#181818;stroke-width:1.0;"/><polygon fill="#181818" points="1285.4,438.57,1282.5381,445.1889,1287.5472,450.3763,1290.409,443.7574,1285.4,438.57" style="stroke:#181818;stroke-width:1.0;"/><polygon fill="#181818" points="1354.01,815.91,1356.3357,806.3397,1353.1157,810.9906,1348.4647,807.7706,1354.01,815.91" style="stroke:#181818;stroke-width:1.0;"/><text fill="#000000" font-family="sans-serif" font-size="13" lengthAdjust="spacing" textLength="5" x="1347.2931" y="805.2271">*</text></g><!--link Attachment to Document--><g id="link_Attachment_Document"><path codeLine="48" d="M1359.3966,876.1331 C1360.5466,910.0531 1362.0667,954.9334 1363.2167,988.8534 " fill="none" id="Attachment-Document" style="stroke:#181818;stroke-width:1.0;"/><polygon fill="#181818" points="1358.99,864.14,1355.1956,870.2721,1359.3966,876.1331,1363.191,870.001,1358.99,864.14" style="stroke:#181818;stroke-width:1.0;"/><polygon fill="#181818" points="1363.42,994.85,1367.1127,985.7196,1363.2506,989.8529,1359.1173,985.9907,1363.42,994.85" style="stroke:#181818;stroke-width:1.0;"/><text fill="#000000" font-family="sans-serif" font-size="13" lengthAdjust="spacing" textLength="8" x="1354.1926" y="984.1517">+</text></g><!--link SimpleTopic to Concept--><g id="link_SimpleTopic_Concept"><path codeLine="52" d="M1162.21,586.25 C1162.21,610.61 1162.21,630.64 1162.21,655.06 " fill="none" id="SimpleTopic-Concept" style="stroke:#181818;stroke-width:1.0;"/><polygon fill="none" points="1162.21,574.25,1158.21,580.25,1162.21,586.25,1166.21,580.25,1162.21,574.25" style="stroke:#181818;stroke-width:1.0;"/><polygon fill="#181818" points="1162.21,661.06,1166.21,652.06,1162.21,656.06,1158.21,652.06,1162.21,661.06" style="stroke:#181818;stroke-width:1.0;"/><text fill="#000000" font-family="sans-serif" font-size="13" lengthAdjust="spacing" textLength="8" x="1153.235" y="650.6907">+</text></g><!--link Concept to Definition--><g id="link_Concept_Definition"><path codeLine="62" d="M1145.1021,720.3724 C1132.0221,746.2824 1118.8553,772.3745 1104.1553,801.4745 " fill="none" id="Concept-Definition" style="stroke:#181818;stroke-width:1.0;"/><polygon fill="#181818" points="1150.51,709.66,1144.2353,713.2136,1145.1021,720.3724,1151.3769,716.8188,1150.51,709.66" style="stroke:#181818;stroke-width:1.0;"/><polygon fill="#181818" points="1101.45,806.83,1109.0783,800.6003,1103.7045,802.3671,1101.9377,796.9932,1101.45,806.83" style="stroke:#181818;stroke-width:1.0;"/><text fill="#000000" font-family="sans-serif" font-size="13" lengthAdjust="spacing" textLength="8" x="1095.9745" y="795.9103">+</text></g><!--link Concept to Relation--><g id="link_Concept_Relation"><path codeLine="63" d="M1147.73,720.8542 C1140.8,739.8642 1138.8,755.76 1149.21,777 C1157.33,793.57 1167.291,803.5924 1182.061,813.6524 " fill="none" id="Concept-Relation" style="stroke:#181818;stroke-width:1.0;"/><polygon fill="#181818" points="1151.84,709.58,1146.0269,713.8471,1147.73,720.8542,1153.5431,716.5871,1151.84,709.58" style="stroke:#181818;stroke-width:1.0;"/><polygon fill="#181818" points="1187.02,817.03,1181.8333,808.6576,1182.8875,814.2153,1177.3298,815.2696,1187.02,817.03" style="stroke:#181818;stroke-width:1.0;"/><text fill="#000000" font-family="sans-serif" font-size="13" lengthAdjust="spacing" textLength="31" x="1150.21" y="773.4951">origin</text><text fill="#000000" font-family="sans-serif" font-size="13" lengthAdjust="spacing" textLength="5" x="1174.3389" y="809.2324">*</text></g><!--link Relation to Concept--><g id="link_Relation_Concept"><path codeLine="68" d="M1218.94,815.62 C1206.3,786.86 1187.3932,743.8133 1174.8032,715.1533 " fill="none" id="Relation-to-Concept" style="stroke:#181818;stroke-width:1.0;"/><polygon fill="#181818" points="1172.39,709.66,1172.3475,719.5088,1174.401,714.2378,1179.672,716.2912,1172.39,709.66" style="stroke:#181818;stroke-width:1.0;"/><text fill="#000000" font-family="sans-serif" font-size="13" lengthAdjust="spacing" textLength="33" x="1202.21" y="773.4951">target</text></g><!--link Concept to Attachment--><g id="link_Concept_Attachment"><path codeLine="64" d="M1201.4499,717.0303 C1238.3899,745.7803 1286.8248,783.4552 1323.7448,812.1852 " fill="none" id="Concept-Attachment" style="stroke:#181818;stroke-width:1.0;"/><polygon fill="#181818" points="1191.98,709.66,1194.2582,716.5018,1201.4499,717.0303,1199.1717,710.1885,1191.98,709.66" style="stroke:#181818;stroke-width:1.0;"/><polygon fill="#181818" points="1328.48,815.87,1323.8337,807.186,1324.534,812.7993,1318.9206,813.4996,1328.48,815.87" style="stroke:#181818;stroke-width:1.0;"/><text fill="#000000" font-family="sans-serif" font-size="13" lengthAdjust="spacing" textLength="5" x="1315.2211" y="805.1768">*</text></g><!--link Relation to RelationType--><g id="link_Relation_RelationType"><path codeLine="69" d="M1228.0215,876.133 C1227.2715,898.153 1226.7239,914.3835 1225.6839,944.9635 " fill="none" id="Relation-RelationType" style="stroke:#181818;stroke-width:1.0;"/><polygon fill="#181818" points="1228.43,864.14,1224.2281,870.0004,1228.0215,876.133,1232.2234,870.2727,1228.43,864.14" style="stroke:#181818;stroke-width:1.0;"/><polygon fill="#181818" points="1225.48,950.96,1229.7836,942.1012,1225.6499,945.9629,1221.7882,941.8292,1225.48,950.96" style="stroke:#181818;stroke-width:1.0;"/></g><!--reverse link Exercise to QuestionExercise--><g id="link_Exercise_QuestionExercise"><path codeLine="83" d="M692.3004,322.2136 C721.0904,341.6836 747.67,359.68 779.69,381.35 " fill="none" id="Exercise-backto-QuestionExercise" style="stroke:#181818;stroke-width:1.0;"/><polygon fill="none" points="677.39,312.13,688.9393,327.1837,695.6616,317.2434,677.39,312.13" style="stroke:#181818;stroke-width:1.0;"/></g><!--reverse link Exercise to DomainExercise--><g id="link_Exercise_DomainExercise"><path codeLine="84" d="M643.21,330.13 C643.21,352.49 643.21,368.18 643.21,390.5 " fill="none" id="Exercise-backto-DomainExercise" style="stroke:#181818;stroke-width:1.0;"/><polygon fill="none" points="643.21,312.13,637.21,330.13,649.21,330.13,643.21,312.13" style="stroke:#181818;stroke-width:1.0;"/></g><!--link DomainExercise to Domain--><g id="link_DomainExercise_Domain"><path codeLine="89" d="M602.72,438.6 C564.78,460.24 512.9515,489.8167 470.6215,513.9667 " fill="none" id="DomainExercise-to-Domain" style="stroke:#181818;stroke-width:1.0;"/><polygon fill="#181818" points="465.41,516.94,475.2094,515.9545,469.7529,514.4623,471.2451,509.0058,465.41,516.94" style="stroke:#181818;stroke-width:1.0;"/><text fill="#000000" font-family="sans-serif" font-size="13" lengthAdjust="spacing" textLength="8" x="468.1763" y="506.043">+</text></g><!--link DomainExercise to SimpleTopic--><g id="link_DomainExercise_SimpleTopic"><path codeLine="90" d="M690.63,438.59 C705.84,445.15 722.95,451.67 739.21,456 C846.08,484.43 878.6,460.54 986.21,486 C1027.9,495.86 1067.8138,510.0851 1102.1038,523.7051 " fill="none" id="DomainExercise-to-SimpleTopic" style="stroke:#181818;stroke-width:1.0;"/><polygon fill="#181818" points="1107.68,525.92,1100.7922,518.8802,1103.0331,524.0743,1097.8391,526.3152,1107.68,525.92" style="stroke:#181818;stroke-width:1.0;"/><text fill="#000000" font-family="sans-serif" font-size="13" lengthAdjust="spacing" textLength="8" x="1091.815" y="519.128">+</text></g><!--reverse link Domain to Domain--><g id="link_Domain_Domain"><path codeLine="95" d="M502.8594,539.0643 C522.8294,539.9043 525.71,543.22 525.71,550 C525.71,556.78 510.84,560.6 490.87,561.44 " fill="none" id="Domain-backto-Domain" style="stroke:#181818;stroke-width:1.0;"/><polygon fill="#181818" points="490.87,538.56,496.6966,542.8086,502.8594,539.0643,497.0328,534.8157,490.87,538.56" style="stroke:#181818;stroke-width:1.0;"/><text fill="#000000" font-family="sans-serif" font-size="13" lengthAdjust="spacing" textLength="5" x="498.6285" y="559.2865">*</text></g><!--link Application to Domain--><g id="link_Application_Domain"><path codeLine="97" d="M420.32,456.28 C417.99,475.76 415.9436,492.7726 413.7636,510.9726 " fill="none" id="Application-to-Domain" style="stroke:#181818;stroke-width:1.0;"/><polygon fill="#181818" points="413.05,516.93,418.092,508.4696,413.6447,511.9655,410.1488,507.5182,413.05,516.93" style="stroke:#181818;stroke-width:1.0;"/><text fill="#000000" font-family="sans-serif" font-size="13" lengthAdjust="spacing" textLength="5" x="408.3264" y="506.031">*</text></g><!--reverse link QuestionExercise to MultipleChoice--><g id="link_QuestionExercise_MultipleChoice"><path codeLine="101" d="M758.5838,456.9585 C718.6138,481.1085 680.21,504.3 644.43,525.91 " fill="none" id="QuestionExercise-backto-MultipleChoice" style="stroke:#181818;stroke-width:1.0;"/><polygon fill="none" points="773.99,447.65,755.4809,451.8231,761.6866,462.0939,773.99,447.65" style="stroke:#181818;stroke-width:1.0;"/></g><!--reverse link QuestionExercise to Cloze--><g id="link_QuestionExercise_Cloze"><path codeLine="102" d="M801.9048,463.7633 C790.9048,484.7533 784.97,496.05 774,516.98 " fill="none" id="QuestionExercise-backto-Cloze" style="stroke:#181818;stroke-width:1.0;"/><polygon fill="none" points="810.26,447.82,796.5903,460.9782,807.2192,466.5484,810.26,447.82" style="stroke:#181818;stroke-width:1.0;"/></g><!--reverse link QuestionExercise to Open--><g id="link_QuestionExercise_Open"><path codeLine="103" d="M846.3358,464.5915 C855.7158,488.6615 861.76,504.2 870.16,525.77 " fill="none" id="QuestionExercise-backto-Open" style="stroke:#181818;stroke-width:1.0;"/><polygon fill="none" points="839.8,447.82,840.7453,466.7701,851.9263,462.4129,839.8,447.82" style="stroke:#181818;stroke-width:1.0;"/></g><!--link QuestionExercise to Concept--><g id="link_QuestionExercise_Concept"><path codeLine="104" d="M898.4,437.73 C928.99,449.28 964.08,465.36 992.21,486 C1028.05,512.31 1105.0009,609.9349 1140.8209,656.4849 " fill="none" id="QuestionExercise-to-Concept" style="stroke:#181818;stroke-width:1.0;"/><polygon fill="#181818" points="1144.48,661.24,1142.1615,651.6679,1141.4308,657.2774,1135.8213,656.5467,1144.48,661.24" style="stroke:#181818;stroke-width:1.0;"/><text fill="#000000" font-family="sans-serif" font-size="13" lengthAdjust="spacing" textLength="8" x="1130.9117" y="650.5135">+</text></g><!--reverse link Open to Answer--><g id="link_Open_Answer"><path codeLine="105" d="M862.6361,585.0387 C853.2861,604.2387 845.05,621.16 833.93,643.99 " fill="none" id="Open-backto-Answer" style="stroke:#181818;stroke-width:1.0;"/><polygon fill="#181818" points="867.89,574.25,861.6668,577.8931,862.6361,585.0387,868.8593,581.3957,867.89,574.25" style="stroke:#181818;stroke-width:1.0;"/><text fill="#000000" font-family="sans-serif" font-size="13" lengthAdjust="spacing" textLength="8" x="828.5336" y="633.296">+</text></g><!--reverse link Student to Answer--><g id="link_Student_Answer"><path codeLine="106" d="M249.4133,324.2661 C242.8233,379.6961 236.2,508.21 310.21,583 C369.18,642.6 613.05,669.39 738.66,679.42 " fill="none" id="Student-backto-Answer" style="stroke:#181818;stroke-width:1.0;"/><polygon fill="none" points="250.83,312.35,246.1496,317.8358,249.4133,324.2661,254.0937,318.7803,250.83,312.35" style="stroke:#181818;stroke-width:1.0;"/><text fill="#000000" font-family="sans-serif" font-size="13" lengthAdjust="spacing" textLength="5" x="725.6111" y="675.47">*</text></g><!--reverse link Answer to Justification--><g id="link_Answer_Justification"><path codeLine="112" d="M813.9688,739.2365 C814.9088,778.2865 819.93,826.07 841.21,873 C863.78,922.78 908.76,968.62 937.9,994.93 " fill="none" id="Answer-backto-Justification" style="stroke:#181818;stroke-width:1.0;"/><polygon fill="#181818" points="813.68,727.24,809.8255,733.3345,813.9688,739.2365,817.8232,733.142,813.68,727.24" style="stroke:#181818;stroke-width:1.0;"/><text fill="#000000" font-family="sans-serif" font-size="13" lengthAdjust="spacing" textLength="96" x="842.21" y="845.4951">[!answer.correct]</text><text fill="#000000" font-family="sans-serif" font-size="13" lengthAdjust="spacing" textLength="5" x="925.2612" y="984.2522">*</text></g><!--link Application to Justification--><g id="link_Application_Justification"><path codeLine="125" d="M512.4144,443.7065 C531.3244,449.3765 540.15,451.57 559.21,456 C640.59,474.9 873.95,455.23 930.21,517 C994.72,587.82 974.7478,900.2391 967.6578,988.9891 " fill="none" id="Application-Justification" style="stroke:#181818;stroke-width:1.0;"/><polygon fill="#181818" points="500.92,440.26,505.5184,445.8147,512.4144,443.7065,507.816,438.1518,500.92,440.26" style="stroke:#181818;stroke-width:1.0;"/><polygon fill="#181818" points="967.18,994.97,971.884,986.3171,967.5782,989.9859,963.9094,985.68,967.18,994.97" style="stroke:#181818;stroke-width:1.0;"/><text fill="#000000" font-family="sans-serif" font-size="13" lengthAdjust="spacing" textLength="117" x="976.21" y="690.9951">[!application.correct]</text><text fill="#000000" font-family="sans-serif" font-size="13" lengthAdjust="spacing" textLength="5" x="962.0442" y="984.3025">*</text></g><!--SRC=[hLN9Rjim4BthAnZdKC21ym524C2rVKZHealSav43BOqL8X8fa5HSr_M_bukuI9QL1gWEjZZpPkRnSOPQvKs69M7qMudbZl4AJMURQmxvq-mUJMucwAS0dgp6K6jMasmSyY091Oxv0QMeLZROgNK-4CEYujD99ovhX6JLU9tLAouRB1b_E_Ng5_2C2FY8fGH-k7NhzqSkMOK9VN_SlAvBOaEI16-5v3YJHkzZSaeI_OBk_incQ0quUrQd42oFiic1oYJ9IYo40vWmQsa1sjA-AZR_miE6Unrr0hz0EaC_-di3GeTw_TeKuUXqZh2oD5HZsRPfqKlT4KJdKN2adXdA6EUW14dHbh4IC5Lf8jZKRUUJwWkoQpUGRgvoZxbjKpovAXseuHLqDtIqoRnOcHUigfaW4YpNoFD8ghhic3sVkPJgDAheU895vm-hDaPfiMHP4qT4wSqHXcNGRy5e1hKFwNBLKLtB9U7RoiTJI6JosWpcLV7CsPuwhbxV0R_Q_myehRufOfmKv0BiN2OVg4lxXMRj4gH8Obw035wVqbdMXrgr8D2cwfZQhb8JPFxdGh2Cs9RNQoULMpzGDKv4ObNMuek2Gs7n9vGaDSvUS07zOK3N1oXBjZyc9ihtbeErB4xcrnjDGxqvLkSXzju9SwSHxb1ZJyl6LkswK6X0SuUD8EAEFojbzwMVL-12qHRgh3uJ8U-i__wCWUvzqmTHvG-nwsRyeehK670ZDunHTikthsjWBYIMOCOoLTSd9xI8IFV3x0byQKf9b2gBPqRQJXa6BahsUyp_jGOwxEvFkmPfjEjyuvnJiLVV1-sBRdixPjOLAM0jOTz3DstmWRty8UzvhImsbp_BxlsQeiqLDe3e8WuyZ2Q1nhR4z6N16YfJHAYCYaGnNS7TDCMR2ptmdtOODTN5JmuEeB3Lqry0]--></g></svg>