<?xml version="1.0" encoding="us-ascii" standalone="no"?><svg xmlns="http://www.w3.org/2000/svg" xmlns:xlink="http://www.w3.org/1999/xlink" contentStyleType="text/css" height="1106px" preserveAspectRatio="none" style="width:1568px;height:1106px;background:#FFFFFF;" version="1.1" viewBox="0 0 1568 1106" width="1568px" zoomAndPan="magnify"><defs/><g><!--cluster ContentBattery--><g id="cluster_ContentBattery"><path d="M1178,211 L1285,211 A3.75,3.75 0 0 1 1287.5,213.5 L1294.5,234.6094 L1484,234.6094 A2.5,2.5 0 0 1 1486.5,237.1094 L1486.5,583.5 A2.5,2.5 0 0 1 1484,586 L1178,586 A2.5,2.5 0 0 1 1175.5,583.5 L1175.5,213.5 A2.5,2.5 0 0 1 1178,211 " fill="#90EE90" style="stroke:#000000;stroke-width:1.5;"/><line style="stroke:#000000;stroke-width:1.5;" x1="1175.5" x2="1294.5" y1="234.6094" y2="234.6094"/><text fill="#000000" font-family="sans-serif" font-size="14" font-weight="bold" lengthAdjust="spacing" textLength="106" x="1179.5" y="227.5332">ContentBattery</text></g><!--cluster ExerciseBattery--><g id="cluster_ExerciseBattery"><path d="M227,211 L339,211 A3.75,3.75 0 0 1 341.5,213.5 L348.5,234.6094 L840,234.6094 A2.5,2.5 0 0 1 842.5,237.1094 L842.5,736.5 A2.5,2.5 0 0 1 840,739 L227,739 A2.5,2.5 0 0 1 224.5,736.5 L224.5,213.5 A2.5,2.5 0 0 1 227,211 " fill="#FFFF00" style="stroke:#000000;stroke-width:1.5;"/><line style="stroke:#000000;stroke-width:1.5;" x1="224.5" x2="348.5" y1="234.6094" y2="234.6094"/><text fill="#000000" font-family="sans-serif" font-size="14" font-weight="bold" lengthAdjust="spacing" textLength="111" x="228.5" y="227.5332">ExerciseBattery</text></g><!--cluster KnowlegeBattery--><g id="cluster_KnowlegeBattery"><path d="M869,486 L990,486 A3.75,3.75 0 0 1 992.5,488.5 L999.5,509.6094 L1149,509.6094 A2.5,2.5 0 0 1 1151.5,512.1094 L1151.5,1096.5 A2.5,2.5 0 0 1 1149,1099 L869,1099 A2.5,2.5 0 0 1 866.5,1096.5 L866.5,488.5 A2.5,2.5 0 0 1 869,486 " fill="#ADD8E6" style="stroke:#000000;stroke-width:1.5;"/><line style="stroke:#000000;stroke-width:1.5;" x1="866.5" x2="999.5" y1="509.6094" y2="509.6094"/><text fill="#000000" font-family="sans-serif" font-size="14" font-weight="bold" lengthAdjust="spacing" textLength="120" x="870.5" y="502.5332">KnowlegeBattery</text></g><!--class Topic--><g id="elem_Topic"><rect codeLine="45" fill="#F1F1F1" height="48" id="Topic" rx="2.5" ry="2.5" style="stroke:#181818;stroke-width:0.5;" width="67" x="1273" y="373.5"/><ellipse cx="1288" cy="389.5" fill="#A9DCDF" rx="11" ry="11" style="stroke:#181818;stroke-width:1.0;"/><path d="M1290.1875,391.2656 L1286.0469,391.2656 L1285.625,392.2969 L1286.0469,392.2969 Q1286.6563,392.2969 1286.9219,392.5313 Q1287.1875,392.7656 1287.1875,393.1563 Q1287.1875,393.5313 1286.9219,393.7656 Q1286.6563,394 1286.0469,394 L1283.75,394 Q1283.1406,394 1282.8906,393.7656 Q1282.625,393.5313 1282.625,393.1406 Q1282.625,392.7656 1282.9063,392.5313 Q1283.1719,392.2813 1283.7969,392.2969 L1286.4688,385.6406 L1285.3594,385.6406 Q1284.75,385.6406 1284.4844,385.4063 Q1284.2188,385.1719 1284.2188,384.7813 Q1284.2188,384.4063 1284.4844,384.1719 Q1284.75,383.9375 1285.3594,383.9375 L1289.0313,383.9375 L1292.4219,392.2969 Q1293.0156,392.2969 1293.2031,392.4375 Q1293.5938,392.7031 1293.5938,393.1563 Q1293.5938,393.5313 1293.3281,393.7656 Q1293.0781,394 1292.4688,394 L1290.1719,394 Q1289.5625,394 1289.2969,393.7656 Q1289.0313,393.5313 1289.0313,393.1406 Q1289.0313,392.7656 1289.2969,392.5313 Q1289.5625,392.2969 1290.1719,392.2969 L1290.5938,392.2969 L1290.1875,391.2656 Z M1289.4688,389.5625 L1288.1094,386.1875 L1286.7344,389.5625 L1289.4688,389.5625 Z " fill="#000000"/><text fill="#000000" font-family="sans-serif" font-size="14" font-style="italic" lengthAdjust="spacing" textLength="35" x="1302" y="395.2285">Topic</text><line style="stroke:#181818;stroke-width:0.5;" x1="1274" x2="1339" y1="405.5" y2="405.5"/><line style="stroke:#181818;stroke-width:0.5;" x1="1274" x2="1339" y1="413.5" y2="413.5"/></g><!--class Itinerary--><g id="elem_Itinerary"><rect codeLine="41" fill="#F1F1F1" height="48" id="Itinerary" rx="2.5" ry="2.5" style="stroke:#181818;stroke-width:0.5;" width="83" x="1194" y="247"/><ellipse cx="1209" cy="263" fill="#ADD1B2" rx="11" ry="11" style="stroke:#181818;stroke-width:1.0;"/><path d="M1211.7656,258.875 Q1211.9219,258.6563 1212.1094,258.5469 Q1212.2969,258.4375 1212.5156,258.4375 Q1212.8906,258.4375 1213.125,258.7031 Q1213.3594,258.9531 1213.3594,259.5625 L1213.3594,261.0156 Q1213.3594,261.625 1213.125,261.8906 Q1212.8906,262.1563 1212.5156,262.1563 Q1212.1719,262.1563 1211.9688,261.9531 Q1211.7656,261.7656 1211.6563,261.25 Q1211.6094,260.8906 1211.4219,260.7031 Q1211.0938,260.3281 1210.4844,260.1094 Q1209.875,259.8906 1209.25,259.8906 Q1208.4844,259.8906 1207.8438,260.2188 Q1207.2188,260.5469 1206.7188,261.2969 Q1206.2344,262.0469 1206.2344,263.0781 L1206.2344,264.1719 Q1206.2344,265.4063 1207.125,266.2344 Q1208.0156,267.0469 1209.6094,267.0469 Q1210.5469,267.0469 1211.2031,266.7969 Q1211.5938,266.6406 1212.0156,266.2031 Q1212.2813,265.9375 1212.4219,265.8594 Q1212.5781,265.7813 1212.7813,265.7813 Q1213.1094,265.7813 1213.3594,266.0469 Q1213.625,266.2969 1213.625,266.6406 Q1213.625,266.9844 1213.2813,267.3906 Q1212.7813,267.9688 1211.9844,268.2969 Q1210.9063,268.75 1209.6094,268.75 Q1208.0938,268.75 1206.8906,268.125 Q1205.9063,267.625 1205.2188,266.5625 Q1204.5313,265.4844 1204.5313,264.2031 L1204.5313,263.0469 Q1204.5313,261.7188 1205.1406,260.5781 Q1205.7656,259.4219 1206.8594,258.8125 Q1207.9531,258.1875 1209.1875,258.1875 Q1209.9219,258.1875 1210.5625,258.3594 Q1211.2188,258.5156 1211.7656,258.875 Z " fill="#000000"/><text fill="#000000" font-family="sans-serif" font-size="14" lengthAdjust="spacing" textLength="51" x="1223" y="268.7285">Itinerary</text><line style="stroke:#181818;stroke-width:0.5;" x1="1195" x2="1276" y1="279" y2="279"/><line style="stroke:#181818;stroke-width:0.5;" x1="1195" x2="1276" y1="287" y2="287"/></g><!--class CompositeTopic--><g id="elem_CompositeTopic"><rect codeLine="56" fill="#F1F1F1" height="48" id="CompositeTopic" rx="2.5" ry="2.5" style="stroke:#181818;stroke-width:0.5;" width="134" x="1336.5" y="522"/><ellipse cx="1351.5" cy="538" fill="#ADD1B2" rx="11" ry="11" style="stroke:#181818;stroke-width:1.0;"/><path d="M1354.2656,533.875 Q1354.4219,533.6563 1354.6094,533.5469 Q1354.7969,533.4375 1355.0156,533.4375 Q1355.3906,533.4375 1355.625,533.7031 Q1355.8594,533.9531 1355.8594,534.5625 L1355.8594,536.0156 Q1355.8594,536.625 1355.625,536.8906 Q1355.3906,537.1563 1355.0156,537.1563 Q1354.6719,537.1563 1354.4688,536.9531 Q1354.2656,536.7656 1354.1563,536.25 Q1354.1094,535.8906 1353.9219,535.7031 Q1353.5938,535.3281 1352.9844,535.1094 Q1352.375,534.8906 1351.75,534.8906 Q1350.9844,534.8906 1350.3438,535.2188 Q1349.7188,535.5469 1349.2188,536.2969 Q1348.7344,537.0469 1348.7344,538.0781 L1348.7344,539.1719 Q1348.7344,540.4063 1349.625,541.2344 Q1350.5156,542.0469 1352.1094,542.0469 Q1353.0469,542.0469 1353.7031,541.7969 Q1354.0938,541.6406 1354.5156,541.2031 Q1354.7813,540.9375 1354.9219,540.8594 Q1355.0781,540.7813 1355.2813,540.7813 Q1355.6094,540.7813 1355.8594,541.0469 Q1356.125,541.2969 1356.125,541.6406 Q1356.125,541.9844 1355.7813,542.3906 Q1355.2813,542.9688 1354.4844,543.2969 Q1353.4063,543.75 1352.1094,543.75 Q1350.5938,543.75 1349.3906,543.125 Q1348.4063,542.625 1347.7188,541.5625 Q1347.0313,540.4844 1347.0313,539.2031 L1347.0313,538.0469 Q1347.0313,536.7188 1347.6406,535.5781 Q1348.2656,534.4219 1349.3594,533.8125 Q1350.4531,533.1875 1351.6875,533.1875 Q1352.4219,533.1875 1353.0625,533.3594 Q1353.7188,533.5156 1354.2656,533.875 Z " fill="#000000"/><text fill="#000000" font-family="sans-serif" font-size="14" lengthAdjust="spacing" textLength="102" x="1365.5" y="543.7285">CompositeTopic</text><line style="stroke:#181818;stroke-width:0.5;" x1="1337.5" x2="1469.5" y1="554" y2="554"/><line style="stroke:#181818;stroke-width:0.5;" x1="1337.5" x2="1469.5" y1="562" y2="562"/></g><!--class SimpleTopic--><g id="elem_SimpleTopic"><rect codeLine="52" fill="#F1F1F1" height="48" id="SimpleTopic" rx="2.5" ry="2.5" style="stroke:#181818;stroke-width:0.5;" width="109" x="1192" y="522"/><ellipse cx="1207" cy="538" fill="#ADD1B2" rx="11" ry="11" style="stroke:#181818;stroke-width:1.0;"/><path d="M1209.7656,533.875 Q1209.9219,533.6563 1210.1094,533.5469 Q1210.2969,533.4375 1210.5156,533.4375 Q1210.8906,533.4375 1211.125,533.7031 Q1211.3594,533.9531 1211.3594,534.5625 L1211.3594,536.0156 Q1211.3594,536.625 1211.125,536.8906 Q1210.8906,537.1563 1210.5156,537.1563 Q1210.1719,537.1563 1209.9688,536.9531 Q1209.7656,536.7656 1209.6563,536.25 Q1209.6094,535.8906 1209.4219,535.7031 Q1209.0938,535.3281 1208.4844,535.1094 Q1207.875,534.8906 1207.25,534.8906 Q1206.4844,534.8906 1205.8438,535.2188 Q1205.2188,535.5469 1204.7188,536.2969 Q1204.2344,537.0469 1204.2344,538.0781 L1204.2344,539.1719 Q1204.2344,540.4063 1205.125,541.2344 Q1206.0156,542.0469 1207.6094,542.0469 Q1208.5469,542.0469 1209.2031,541.7969 Q1209.5938,541.6406 1210.0156,541.2031 Q1210.2813,540.9375 1210.4219,540.8594 Q1210.5781,540.7813 1210.7813,540.7813 Q1211.1094,540.7813 1211.3594,541.0469 Q1211.625,541.2969 1211.625,541.6406 Q1211.625,541.9844 1211.2813,542.3906 Q1210.7813,542.9688 1209.9844,543.2969 Q1208.9063,543.75 1207.6094,543.75 Q1206.0938,543.75 1204.8906,543.125 Q1203.9063,542.625 1203.2188,541.5625 Q1202.5313,540.4844 1202.5313,539.2031 L1202.5313,538.0469 Q1202.5313,536.7188 1203.1406,535.5781 Q1203.7656,534.4219 1204.8594,533.8125 Q1205.9531,533.1875 1207.1875,533.1875 Q1207.9219,533.1875 1208.5625,533.3594 Q1209.2188,533.5156 1209.7656,533.875 Z " fill="#000000"/><text fill="#000000" font-family="sans-serif" font-size="14" lengthAdjust="spacing" textLength="77" x="1221" y="543.7285">SimpleTopic</text><line style="stroke:#181818;stroke-width:0.5;" x1="1193" x2="1300" y1="554" y2="554"/><line style="stroke:#181818;stroke-width:0.5;" x1="1193" x2="1300" y1="562" y2="562"/></g><!--class Exercise--><g id="elem_Exercise"><rect codeLine="98" fill="#F1F1F1" height="48" id="Exercise" rx="2.5" ry="2.5" style="stroke:#181818;stroke-width:0.5;" width="85" x="544" y="247"/><ellipse cx="559" cy="263" fill="#A9DCDF" rx="11" ry="11" style="stroke:#181818;stroke-width:1.0;"/><path d="M561.1875,264.7656 L557.0469,264.7656 L556.625,265.7969 L557.0469,265.7969 Q557.6563,265.7969 557.9219,266.0313 Q558.1875,266.2656 558.1875,266.6563 Q558.1875,267.0313 557.9219,267.2656 Q557.6563,267.5 557.0469,267.5 L554.75,267.5 Q554.1406,267.5 553.8906,267.2656 Q553.625,267.0313 553.625,266.6406 Q553.625,266.2656 553.9063,266.0313 Q554.1719,265.7813 554.7969,265.7969 L557.4688,259.1406 L556.3594,259.1406 Q555.75,259.1406 555.4844,258.9063 Q555.2188,258.6719 555.2188,258.2813 Q555.2188,257.9063 555.4844,257.6719 Q555.75,257.4375 556.3594,257.4375 L560.0313,257.4375 L563.4219,265.7969 Q564.0156,265.7969 564.2031,265.9375 Q564.5938,266.2031 564.5938,266.6563 Q564.5938,267.0313 564.3281,267.2656 Q564.0781,267.5 563.4688,267.5 L561.1719,267.5 Q560.5625,267.5 560.2969,267.2656 Q560.0313,267.0313 560.0313,266.6406 Q560.0313,266.2656 560.2969,266.0313 Q560.5625,265.7969 561.1719,265.7969 L561.5938,265.7969 L561.1875,264.7656 Z M560.4688,263.0625 L559.1094,259.6875 L557.7344,263.0625 L560.4688,263.0625 Z " fill="#000000"/><text fill="#000000" font-family="sans-serif" font-size="14" font-style="italic" lengthAdjust="spacing" textLength="53" x="573" y="268.7285">Exercise</text><line style="stroke:#181818;stroke-width:0.5;" x1="545" x2="628" y1="279" y2="279"/><line style="stroke:#181818;stroke-width:0.5;" x1="545" x2="628" y1="287" y2="287"/></g><!--class Domain--><g id="elem_Domain"><rect codeLine="109" fill="#F1F1F1" height="65.6094" id="Domain" rx="2.5" ry="2.5" style="stroke:#181818;stroke-width:0.5;" width="163" x="241" y="513"/><ellipse cx="294.25" cy="529" fill="#ADD1B2" rx="11" ry="11" style="stroke:#181818;stroke-width:1.0;"/><path d="M297.0156,524.875 Q297.1719,524.6563 297.3594,524.5469 Q297.5469,524.4375 297.7656,524.4375 Q298.1406,524.4375 298.375,524.7031 Q298.6094,524.9531 298.6094,525.5625 L298.6094,527.0156 Q298.6094,527.625 298.375,527.8906 Q298.1406,528.1563 297.7656,528.1563 Q297.4219,528.1563 297.2188,527.9531 Q297.0156,527.7656 296.9063,527.25 Q296.8594,526.8906 296.6719,526.7031 Q296.3438,526.3281 295.7344,526.1094 Q295.125,525.8906 294.5,525.8906 Q293.7344,525.8906 293.0938,526.2188 Q292.4688,526.5469 291.9688,527.2969 Q291.4844,528.0469 291.4844,529.0781 L291.4844,530.1719 Q291.4844,531.4063 292.375,532.2344 Q293.2656,533.0469 294.8594,533.0469 Q295.7969,533.0469 296.4531,532.7969 Q296.8438,532.6406 297.2656,532.2031 Q297.5313,531.9375 297.6719,531.8594 Q297.8281,531.7813 298.0313,531.7813 Q298.3594,531.7813 298.6094,532.0469 Q298.875,532.2969 298.875,532.6406 Q298.875,532.9844 298.5313,533.3906 Q298.0313,533.9688 297.2344,534.2969 Q296.1563,534.75 294.8594,534.75 Q293.3438,534.75 292.1406,534.125 Q291.1563,533.625 290.4688,532.5625 Q289.7813,531.4844 289.7813,530.2031 L289.7813,529.0469 Q289.7813,527.7188 290.3906,526.5781 Q291.0156,525.4219 292.1094,524.8125 Q293.2031,524.1875 294.4375,524.1875 Q295.1719,524.1875 295.8125,524.3594 Q296.4688,524.5156 297.0156,524.875 Z " fill="#000000"/><text fill="#000000" font-family="sans-serif" font-size="14" lengthAdjust="spacing" textLength="48" x="314.75" y="534.7285">Domain</text><line style="stroke:#181818;stroke-width:0.5;" x1="242" x2="403" y1="545" y2="545"/><text fill="#000000" font-family="sans-serif" font-size="14" lengthAdjust="spacing" textLength="151" x="247" y="563.5332">versions : List&lt;Domain&gt;</text><line style="stroke:#181818;stroke-width:0.5;" x1="242" x2="403" y1="570.6094" y2="570.6094"/></g><!--class Application--><g id="elem_Application"><rect codeLine="137" fill="#F1F1F1" height="83.2188" id="Application" rx="2.5" ry="2.5" style="stroke:#181818;stroke-width:0.5;" width="151" x="313" y="356"/><ellipse cx="350.5" cy="372" fill="#ADD1B2" rx="11" ry="11" style="stroke:#181818;stroke-width:1.0;"/><path d="M353.2656,367.875 Q353.4219,367.6563 353.6094,367.5469 Q353.7969,367.4375 354.0156,367.4375 Q354.3906,367.4375 354.625,367.7031 Q354.8594,367.9531 354.8594,368.5625 L354.8594,370.0156 Q354.8594,370.625 354.625,370.8906 Q354.3906,371.1563 354.0156,371.1563 Q353.6719,371.1563 353.4688,370.9531 Q353.2656,370.7656 353.1563,370.25 Q353.1094,369.8906 352.9219,369.7031 Q352.5938,369.3281 351.9844,369.1094 Q351.375,368.8906 350.75,368.8906 Q349.9844,368.8906 349.3438,369.2188 Q348.7188,369.5469 348.2188,370.2969 Q347.7344,371.0469 347.7344,372.0781 L347.7344,373.1719 Q347.7344,374.4063 348.625,375.2344 Q349.5156,376.0469 351.1094,376.0469 Q352.0469,376.0469 352.7031,375.7969 Q353.0938,375.6406 353.5156,375.2031 Q353.7813,374.9375 353.9219,374.8594 Q354.0781,374.7813 354.2813,374.7813 Q354.6094,374.7813 354.8594,375.0469 Q355.125,375.2969 355.125,375.6406 Q355.125,375.9844 354.7813,376.3906 Q354.2813,376.9688 353.4844,377.2969 Q352.4063,377.75 351.1094,377.75 Q349.5938,377.75 348.3906,377.125 Q347.4063,376.625 346.7188,375.5625 Q346.0313,374.4844 346.0313,373.2031 L346.0313,372.0469 Q346.0313,370.7188 346.6406,369.5781 Q347.2656,368.4219 348.3594,367.8125 Q349.4531,367.1875 350.6875,367.1875 Q351.4219,367.1875 352.0625,367.3594 Q352.7188,367.5156 353.2656,367.875 Z " fill="#000000"/><text fill="#000000" font-family="sans-serif" font-size="14" lengthAdjust="spacing" textLength="69" x="369.5" y="377.7285">Application</text><line style="stroke:#181818;stroke-width:0.5;" x1="314" x2="463" y1="388" y2="388"/><rect fill="none" height="6" style="stroke:#C82930;stroke-width:1.0;" width="6" x="321" y="399.3047"/><text fill="#000000" font-family="sans-serif" font-size="14" lengthAdjust="spacing" textLength="107" x="333" y="406.5332">correct : boolean</text><rect fill="none" height="6" style="stroke:#C82930;stroke-width:1.0;" width="6" x="321" y="416.9141"/><text fill="#000000" font-family="sans-serif" font-size="14" lengthAdjust="spacing" textLength="125" x="333" y="424.1426">evaluated : boolean</text><line style="stroke:#181818;stroke-width:0.5;" x1="314" x2="463" y1="431.2188" y2="431.2188"/></g><!--class QuestionExercise--><g id="elem_QuestionExercise"><rect codeLine="114" fill="#F1F1F1" height="65.6094" id="QuestionExercise" rx="2.5" ry="2.5" style="stroke:#181818;stroke-width:0.5;" width="142" x="684.5" y="364.5"/><ellipse cx="699.5" cy="380.5" fill="#ADD1B2" rx="11" ry="11" style="stroke:#181818;stroke-width:1.0;"/><path d="M702.2656,376.375 Q702.4219,376.1563 702.6094,376.0469 Q702.7969,375.9375 703.0156,375.9375 Q703.3906,375.9375 703.625,376.2031 Q703.8594,376.4531 703.8594,377.0625 L703.8594,378.5156 Q703.8594,379.125 703.625,379.3906 Q703.3906,379.6563 703.0156,379.6563 Q702.6719,379.6563 702.4688,379.4531 Q702.2656,379.2656 702.1563,378.75 Q702.1094,378.3906 701.9219,378.2031 Q701.5938,377.8281 700.9844,377.6094 Q700.375,377.3906 699.75,377.3906 Q698.9844,377.3906 698.3438,377.7188 Q697.7188,378.0469 697.2188,378.7969 Q696.7344,379.5469 696.7344,380.5781 L696.7344,381.6719 Q696.7344,382.9063 697.625,383.7344 Q698.5156,384.5469 700.1094,384.5469 Q701.0469,384.5469 701.7031,384.2969 Q702.0938,384.1406 702.5156,383.7031 Q702.7813,383.4375 702.9219,383.3594 Q703.0781,383.2813 703.2813,383.2813 Q703.6094,383.2813 703.8594,383.5469 Q704.125,383.7969 704.125,384.1406 Q704.125,384.4844 703.7813,384.8906 Q703.2813,385.4688 702.4844,385.7969 Q701.4063,386.25 700.1094,386.25 Q698.5938,386.25 697.3906,385.625 Q696.4063,385.125 695.7188,384.0625 Q695.0313,382.9844 695.0313,381.7031 L695.0313,380.5469 Q695.0313,379.2188 695.6406,378.0781 Q696.2656,376.9219 697.3594,376.3125 Q698.4531,375.6875 699.6875,375.6875 Q700.4219,375.6875 701.0625,375.8594 Q701.7188,376.0156 702.2656,376.375 Z " fill="#000000"/><text fill="#000000" font-family="sans-serif" font-size="14" lengthAdjust="spacing" textLength="110" x="713.5" y="386.2285">QuestionExercise</text><line style="stroke:#181818;stroke-width:0.5;" x1="685.5" x2="825.5" y1="396.5" y2="396.5"/><text fill="#000000" font-family="sans-serif" font-size="14" lengthAdjust="spacing" textLength="111" x="690.5" y="415.0332">statement : String</text><line style="stroke:#181818;stroke-width:0.5;" x1="685.5" x2="825.5" y1="422.1094" y2="422.1094"/></g><!--class DomainExercise--><g id="elem_DomainExercise"><rect codeLine="103" fill="#F1F1F1" height="48" id="DomainExercise" rx="2.5" ry="2.5" style="stroke:#181818;stroke-width:0.5;" width="133" x="516" y="373.5"/><ellipse cx="531" cy="389.5" fill="#ADD1B2" rx="11" ry="11" style="stroke:#181818;stroke-width:1.0;"/><path d="M533.7656,385.375 Q533.9219,385.1563 534.1094,385.0469 Q534.2969,384.9375 534.5156,384.9375 Q534.8906,384.9375 535.125,385.2031 Q535.3594,385.4531 535.3594,386.0625 L535.3594,387.5156 Q535.3594,388.125 535.125,388.3906 Q534.8906,388.6563 534.5156,388.6563 Q534.1719,388.6563 533.9688,388.4531 Q533.7656,388.2656 533.6563,387.75 Q533.6094,387.3906 533.4219,387.2031 Q533.0938,386.8281 532.4844,386.6094 Q531.875,386.3906 531.25,386.3906 Q530.4844,386.3906 529.8438,386.7188 Q529.2188,387.0469 528.7188,387.7969 Q528.2344,388.5469 528.2344,389.5781 L528.2344,390.6719 Q528.2344,391.9063 529.125,392.7344 Q530.0156,393.5469 531.6094,393.5469 Q532.5469,393.5469 533.2031,393.2969 Q533.5938,393.1406 534.0156,392.7031 Q534.2813,392.4375 534.4219,392.3594 Q534.5781,392.2813 534.7813,392.2813 Q535.1094,392.2813 535.3594,392.5469 Q535.625,392.7969 535.625,393.1406 Q535.625,393.4844 535.2813,393.8906 Q534.7813,394.4688 533.9844,394.7969 Q532.9063,395.25 531.6094,395.25 Q530.0938,395.25 528.8906,394.625 Q527.9063,394.125 527.2188,393.0625 Q526.5313,391.9844 526.5313,390.7031 L526.5313,389.5469 Q526.5313,388.2188 527.1406,387.0781 Q527.7656,385.9219 528.8594,385.3125 Q529.9531,384.6875 531.1875,384.6875 Q531.9219,384.6875 532.5625,384.8594 Q533.2188,385.0156 533.7656,385.375 Z " fill="#000000"/><text fill="#000000" font-family="sans-serif" font-size="14" lengthAdjust="spacing" textLength="101" x="545" y="395.2285">DomainExercise</text><line style="stroke:#181818;stroke-width:0.5;" x1="517" x2="648" y1="405.5" y2="405.5"/><line style="stroke:#181818;stroke-width:0.5;" x1="517" x2="648" y1="413.5" y2="413.5"/></g><!--class MultipleChoice--><g id="elem_MultipleChoice"><rect codeLine="134" fill="#F1F1F1" height="48" id="MultipleChoice" rx="2.5" ry="2.5" style="stroke:#181818;stroke-width:0.5;" width="124" x="457.5" y="522"/><ellipse cx="472.5" cy="538" fill="#ADD1B2" rx="11" ry="11" style="stroke:#181818;stroke-width:1.0;"/><path d="M475.2656,533.875 Q475.4219,533.6563 475.6094,533.5469 Q475.7969,533.4375 476.0156,533.4375 Q476.3906,533.4375 476.625,533.7031 Q476.8594,533.9531 476.8594,534.5625 L476.8594,536.0156 Q476.8594,536.625 476.625,536.8906 Q476.3906,537.1563 476.0156,537.1563 Q475.6719,537.1563 475.4688,536.9531 Q475.2656,536.7656 475.1563,536.25 Q475.1094,535.8906 474.9219,535.7031 Q474.5938,535.3281 473.9844,535.1094 Q473.375,534.8906 472.75,534.8906 Q471.9844,534.8906 471.3438,535.2188 Q470.7188,535.5469 470.2188,536.2969 Q469.7344,537.0469 469.7344,538.0781 L469.7344,539.1719 Q469.7344,540.4063 470.625,541.2344 Q471.5156,542.0469 473.1094,542.0469 Q474.0469,542.0469 474.7031,541.7969 Q475.0938,541.6406 475.5156,541.2031 Q475.7813,540.9375 475.9219,540.8594 Q476.0781,540.7813 476.2813,540.7813 Q476.6094,540.7813 476.8594,541.0469 Q477.125,541.2969 477.125,541.6406 Q477.125,541.9844 476.7813,542.3906 Q476.2813,542.9688 475.4844,543.2969 Q474.4063,543.75 473.1094,543.75 Q471.5938,543.75 470.3906,543.125 Q469.4063,542.625 468.7188,541.5625 Q468.0313,540.4844 468.0313,539.2031 L468.0313,538.0469 Q468.0313,536.7188 468.6406,535.5781 Q469.2656,534.4219 470.3594,533.8125 Q471.4531,533.1875 472.6875,533.1875 Q473.4219,533.1875 474.0625,533.3594 Q474.7188,533.5156 475.2656,533.875 Z " fill="#000000"/><text fill="#000000" font-family="sans-serif" font-size="14" lengthAdjust="spacing" textLength="92" x="486.5" y="543.7285">MultipleChoice</text><line style="stroke:#181818;stroke-width:0.5;" x1="458.5" x2="580.5" y1="554" y2="554"/><line style="stroke:#181818;stroke-width:0.5;" x1="458.5" x2="580.5" y1="562" y2="562"/></g><!--class Cloze--><g id="elem_Cloze"><rect codeLine="130" fill="#F1F1F1" height="65.6094" id="Cloze" rx="2.5" ry="2.5" style="stroke:#181818;stroke-width:0.5;" width="107" x="617" y="513"/><ellipse cx="650" cy="529" fill="#ADD1B2" rx="11" ry="11" style="stroke:#181818;stroke-width:1.0;"/><path d="M652.7656,524.875 Q652.9219,524.6563 653.1094,524.5469 Q653.2969,524.4375 653.5156,524.4375 Q653.8906,524.4375 654.125,524.7031 Q654.3594,524.9531 654.3594,525.5625 L654.3594,527.0156 Q654.3594,527.625 654.125,527.8906 Q653.8906,528.1563 653.5156,528.1563 Q653.1719,528.1563 652.9688,527.9531 Q652.7656,527.7656 652.6563,527.25 Q652.6094,526.8906 652.4219,526.7031 Q652.0938,526.3281 651.4844,526.1094 Q650.875,525.8906 650.25,525.8906 Q649.4844,525.8906 648.8438,526.2188 Q648.2188,526.5469 647.7188,527.2969 Q647.2344,528.0469 647.2344,529.0781 L647.2344,530.1719 Q647.2344,531.4063 648.125,532.2344 Q649.0156,533.0469 650.6094,533.0469 Q651.5469,533.0469 652.2031,532.7969 Q652.5938,532.6406 653.0156,532.2031 Q653.2813,531.9375 653.4219,531.8594 Q653.5781,531.7813 653.7813,531.7813 Q654.1094,531.7813 654.3594,532.0469 Q654.625,532.2969 654.625,532.6406 Q654.625,532.9844 654.2813,533.3906 Q653.7813,533.9688 652.9844,534.2969 Q651.9063,534.75 650.6094,534.75 Q649.0938,534.75 647.8906,534.125 Q646.9063,533.625 646.2188,532.5625 Q645.5313,531.4844 645.5313,530.2031 L645.5313,529.0469 Q645.5313,527.7188 646.1406,526.5781 Q646.7656,525.4219 647.8594,524.8125 Q648.9531,524.1875 650.1875,524.1875 Q650.9219,524.1875 651.5625,524.3594 Q652.2188,524.5156 652.7656,524.875 Z " fill="#000000"/><text fill="#000000" font-family="sans-serif" font-size="14" lengthAdjust="spacing" textLength="35" x="668" y="534.7285">Cloze</text><line style="stroke:#181818;stroke-width:0.5;" x1="618" x2="723" y1="545" y2="545"/><text fill="#000000" font-family="sans-serif" font-size="14" lengthAdjust="spacing" textLength="95" x="623" y="563.5332">blankCount: int</text><line style="stroke:#181818;stroke-width:0.5;" x1="618" x2="723" y1="570.6094" y2="570.6094"/></g><!--class Open--><g id="elem_Open"><rect fill="#F1F1F1" height="48" id="Open" rx="2.5" ry="2.5" style="stroke:#181818;stroke-width:0.5;" width="67" x="759" y="522"/><ellipse cx="774" cy="538" fill="#ADD1B2" rx="11" ry="11" style="stroke:#181818;stroke-width:1.0;"/><path d="M776.7656,533.875 Q776.9219,533.6563 777.1094,533.5469 Q777.2969,533.4375 777.5156,533.4375 Q777.8906,533.4375 778.125,533.7031 Q778.3594,533.9531 778.3594,534.5625 L778.3594,536.0156 Q778.3594,536.625 778.125,536.8906 Q777.8906,537.1563 777.5156,537.1563 Q777.1719,537.1563 776.9688,536.9531 Q776.7656,536.7656 776.6563,536.25 Q776.6094,535.8906 776.4219,535.7031 Q776.0938,535.3281 775.4844,535.1094 Q774.875,534.8906 774.25,534.8906 Q773.4844,534.8906 772.8438,535.2188 Q772.2188,535.5469 771.7188,536.2969 Q771.2344,537.0469 771.2344,538.0781 L771.2344,539.1719 Q771.2344,540.4063 772.125,541.2344 Q773.0156,542.0469 774.6094,542.0469 Q775.5469,542.0469 776.2031,541.7969 Q776.5938,541.6406 777.0156,541.2031 Q777.2813,540.9375 777.4219,540.8594 Q777.5781,540.7813 777.7813,540.7813 Q778.1094,540.7813 778.3594,541.0469 Q778.625,541.2969 778.625,541.6406 Q778.625,541.9844 778.2813,542.3906 Q777.7813,542.9688 776.9844,543.2969 Q775.9063,543.75 774.6094,543.75 Q773.0938,543.75 771.8906,543.125 Q770.9063,542.625 770.2188,541.5625 Q769.5313,540.4844 769.5313,539.2031 L769.5313,538.0469 Q769.5313,536.7188 770.1406,535.5781 Q770.7656,534.4219 771.8594,533.8125 Q772.9531,533.1875 774.1875,533.1875 Q774.9219,533.1875 775.5625,533.3594 Q776.2188,533.5156 776.7656,533.875 Z " fill="#000000"/><text fill="#000000" font-family="sans-serif" font-size="14" lengthAdjust="spacing" textLength="35" x="788" y="543.7285">Open</text><line style="stroke:#181818;stroke-width:0.5;" x1="760" x2="825" y1="554" y2="554"/><line style="stroke:#181818;stroke-width:0.5;" x1="760" x2="825" y1="562" y2="562"/></g><!--class Answer--><g id="elem_Answer"><rect codeLine="124" fill="#F1F1F1" height="83.2188" id="Answer" rx="2.5" ry="2.5" style="stroke:#181818;stroke-width:0.5;" width="151" x="407" y="640"/><ellipse cx="455.25" cy="656" fill="#ADD1B2" rx="11" ry="11" style="stroke:#181818;stroke-width:1.0;"/><path d="M458.0156,651.875 Q458.1719,651.6563 458.3594,651.5469 Q458.5469,651.4375 458.7656,651.4375 Q459.1406,651.4375 459.375,651.7031 Q459.6094,651.9531 459.6094,652.5625 L459.6094,654.0156 Q459.6094,654.625 459.375,654.8906 Q459.1406,655.1563 458.7656,655.1563 Q458.4219,655.1563 458.2188,654.9531 Q458.0156,654.7656 457.9063,654.25 Q457.8594,653.8906 457.6719,653.7031 Q457.3438,653.3281 456.7344,653.1094 Q456.125,652.8906 455.5,652.8906 Q454.7344,652.8906 454.0938,653.2188 Q453.4688,653.5469 452.9688,654.2969 Q452.4844,655.0469 452.4844,656.0781 L452.4844,657.1719 Q452.4844,658.4063 453.375,659.2344 Q454.2656,660.0469 455.8594,660.0469 Q456.7969,660.0469 457.4531,659.7969 Q457.8438,659.6406 458.2656,659.2031 Q458.5313,658.9375 458.6719,658.8594 Q458.8281,658.7813 459.0313,658.7813 Q459.3594,658.7813 459.6094,659.0469 Q459.875,659.2969 459.875,659.6406 Q459.875,659.9844 459.5313,660.3906 Q459.0313,660.9688 458.2344,661.2969 Q457.1563,661.75 455.8594,661.75 Q454.3438,661.75 453.1406,661.125 Q452.1563,660.625 451.4688,659.5625 Q450.7813,658.4844 450.7813,657.2031 L450.7813,656.0469 Q450.7813,654.7188 451.3906,653.5781 Q452.0156,652.4219 453.1094,651.8125 Q454.2031,651.1875 455.4375,651.1875 Q456.1719,651.1875 456.8125,651.3594 Q457.4688,651.5156 458.0156,651.875 Z " fill="#000000"/><text fill="#000000" font-family="sans-serif" font-size="14" lengthAdjust="spacing" textLength="46" x="475.75" y="661.7285">Answer</text><line style="stroke:#181818;stroke-width:0.5;" x1="408" x2="557" y1="672" y2="672"/><rect fill="none" height="6" style="stroke:#C82930;stroke-width:1.0;" width="6" x="415" y="683.3047"/><text fill="#000000" font-family="sans-serif" font-size="14" lengthAdjust="spacing" textLength="107" x="427" y="690.5332">correct : boolean</text><rect fill="none" height="6" style="stroke:#C82930;stroke-width:1.0;" width="6" x="415" y="700.9141"/><text fill="#000000" font-family="sans-serif" font-size="14" lengthAdjust="spacing" textLength="125" x="427" y="708.1426">evaluated : boolean</text><line style="stroke:#181818;stroke-width:0.5;" x1="408" x2="557" y1="715.2188" y2="715.2188"/></g><!--class ConceptGraph--><g id="elem_ConceptGraph"><rect codeLine="63" fill="#F1F1F1" height="48" id="ConceptGraph" rx="2.5" ry="2.5" style="stroke:#181818;stroke-width:0.5;" width="125" x="944" y="522"/><ellipse cx="959" cy="538" fill="#ADD1B2" rx="11" ry="11" style="stroke:#181818;stroke-width:1.0;"/><path d="M961.7656,533.875 Q961.9219,533.6563 962.1094,533.5469 Q962.2969,533.4375 962.5156,533.4375 Q962.8906,533.4375 963.125,533.7031 Q963.3594,533.9531 963.3594,534.5625 L963.3594,536.0156 Q963.3594,536.625 963.125,536.8906 Q962.8906,537.1563 962.5156,537.1563 Q962.1719,537.1563 961.9688,536.9531 Q961.7656,536.7656 961.6563,536.25 Q961.6094,535.8906 961.4219,535.7031 Q961.0938,535.3281 960.4844,535.1094 Q959.875,534.8906 959.25,534.8906 Q958.4844,534.8906 957.8438,535.2188 Q957.2188,535.5469 956.7188,536.2969 Q956.2344,537.0469 956.2344,538.0781 L956.2344,539.1719 Q956.2344,540.4063 957.125,541.2344 Q958.0156,542.0469 959.6094,542.0469 Q960.5469,542.0469 961.2031,541.7969 Q961.5938,541.6406 962.0156,541.2031 Q962.2813,540.9375 962.4219,540.8594 Q962.5781,540.7813 962.7813,540.7813 Q963.1094,540.7813 963.3594,541.0469 Q963.625,541.2969 963.625,541.6406 Q963.625,541.9844 963.2813,542.3906 Q962.7813,542.9688 961.9844,543.2969 Q960.9063,543.75 959.6094,543.75 Q958.0938,543.75 956.8906,543.125 Q955.9063,542.625 955.2188,541.5625 Q954.5313,540.4844 954.5313,539.2031 L954.5313,538.0469 Q954.5313,536.7188 955.1406,535.5781 Q955.7656,534.4219 956.8594,533.8125 Q957.9531,533.1875 959.1875,533.1875 Q959.9219,533.1875 960.5625,533.3594 Q961.2188,533.5156 961.7656,533.875 Z " fill="#000000"/><text fill="#000000" font-family="sans-serif" font-size="14" lengthAdjust="spacing" textLength="93" x="973" y="543.7285">ConceptGraph</text><line style="stroke:#181818;stroke-width:0.5;" x1="945" x2="1068" y1="554" y2="554"/><line style="stroke:#181818;stroke-width:0.5;" x1="945" x2="1068" y1="562" y2="562"/></g><!--class Concept--><g id="elem_Concept"><rect codeLine="68" fill="#F1F1F1" height="48" id="Concept" rx="2.5" ry="2.5" style="stroke:#181818;stroke-width:0.5;" width="85" x="976" y="657.5"/><ellipse cx="991" cy="673.5" fill="#ADD1B2" rx="11" ry="11" style="stroke:#181818;stroke-width:1.0;"/><path d="M993.7656,669.375 Q993.9219,669.1563 994.1094,669.0469 Q994.2969,668.9375 994.5156,668.9375 Q994.8906,668.9375 995.125,669.2031 Q995.3594,669.4531 995.3594,670.0625 L995.3594,671.5156 Q995.3594,672.125 995.125,672.3906 Q994.8906,672.6563 994.5156,672.6563 Q994.1719,672.6563 993.9688,672.4531 Q993.7656,672.2656 993.6563,671.75 Q993.6094,671.3906 993.4219,671.2031 Q993.0938,670.8281 992.4844,670.6094 Q991.875,670.3906 991.25,670.3906 Q990.4844,670.3906 989.8438,670.7188 Q989.2188,671.0469 988.7188,671.7969 Q988.2344,672.5469 988.2344,673.5781 L988.2344,674.6719 Q988.2344,675.9063 989.125,676.7344 Q990.0156,677.5469 991.6094,677.5469 Q992.5469,677.5469 993.2031,677.2969 Q993.5938,677.1406 994.0156,676.7031 Q994.2813,676.4375 994.4219,676.3594 Q994.5781,676.2813 994.7813,676.2813 Q995.1094,676.2813 995.3594,676.5469 Q995.625,676.7969 995.625,677.1406 Q995.625,677.4844 995.2813,677.8906 Q994.7813,678.4688 993.9844,678.7969 Q992.9063,679.25 991.6094,679.25 Q990.0938,679.25 988.8906,678.625 Q987.9063,678.125 987.2188,677.0625 Q986.5313,675.9844 986.5313,674.7031 L986.5313,673.5469 Q986.5313,672.2188 987.1406,671.0781 Q987.7656,669.9219 988.8594,669.3125 Q989.9531,668.6875 991.1875,668.6875 Q991.9219,668.6875 992.5625,668.8594 Q993.2188,669.0156 993.7656,669.375 Z " fill="#000000"/><text fill="#000000" font-family="sans-serif" font-size="14" lengthAdjust="spacing" textLength="53" x="1005" y="679.2285">Concept</text><line style="stroke:#181818;stroke-width:0.5;" x1="977" x2="1060" y1="689.5" y2="689.5"/><line style="stroke:#181818;stroke-width:0.5;" x1="977" x2="1060" y1="697.5" y2="697.5"/></g><!--class Definition--><g id="elem_Definition"><rect codeLine="74" fill="#F1F1F1" height="65.6094" id="Definition" rx="2.5" ry="2.5" style="stroke:#181818;stroke-width:0.5;" width="133" x="883" y="803"/><ellipse cx="916.9" cy="819" fill="#ADD1B2" rx="11" ry="11" style="stroke:#181818;stroke-width:1.0;"/><path d="M919.6656,814.875 Q919.8219,814.6563 920.0094,814.5469 Q920.1969,814.4375 920.4156,814.4375 Q920.7906,814.4375 921.025,814.7031 Q921.2594,814.9531 921.2594,815.5625 L921.2594,817.0156 Q921.2594,817.625 921.025,817.8906 Q920.7906,818.1563 920.4156,818.1563 Q920.0719,818.1563 919.8688,817.9531 Q919.6656,817.7656 919.5563,817.25 Q919.5094,816.8906 919.3219,816.7031 Q918.9938,816.3281 918.3844,816.1094 Q917.775,815.8906 917.15,815.8906 Q916.3844,815.8906 915.7438,816.2188 Q915.1188,816.5469 914.6188,817.2969 Q914.1344,818.0469 914.1344,819.0781 L914.1344,820.1719 Q914.1344,821.4063 915.025,822.2344 Q915.9156,823.0469 917.5094,823.0469 Q918.4469,823.0469 919.1031,822.7969 Q919.4938,822.6406 919.9156,822.2031 Q920.1813,821.9375 920.3219,821.8594 Q920.4781,821.7813 920.6813,821.7813 Q921.0094,821.7813 921.2594,822.0469 Q921.525,822.2969 921.525,822.6406 Q921.525,822.9844 921.1813,823.3906 Q920.6813,823.9688 919.8844,824.2969 Q918.8063,824.75 917.5094,824.75 Q915.9938,824.75 914.7906,824.125 Q913.8063,823.625 913.1188,822.5625 Q912.4313,821.4844 912.4313,820.2031 L912.4313,819.0469 Q912.4313,817.7188 913.0406,816.5781 Q913.6656,815.4219 914.7594,814.8125 Q915.8531,814.1875 917.0875,814.1875 Q917.8219,814.1875 918.4625,814.3594 Q919.1188,814.5156 919.6656,814.875 Z " fill="#000000"/><text fill="#000000" font-family="sans-serif" font-size="14" lengthAdjust="spacing" textLength="59" x="935.1" y="824.7285">Definition</text><line style="stroke:#181818;stroke-width:0.5;" x1="884" x2="1015" y1="835" y2="835"/><rect fill="none" height="6" style="stroke:#C82930;stroke-width:1.0;" width="6" x="891" y="846.3047"/><text fill="#000000" font-family="sans-serif" font-size="14" lengthAdjust="spacing" textLength="107" x="903" y="853.5332">correct : boolean</text><line style="stroke:#181818;stroke-width:0.5;" x1="884" x2="1015" y1="860.6094" y2="860.6094"/></g><!--class Relation--><g id="elem_Relation"><rect codeLine="79" fill="#F1F1F1" height="48" id="Relation" rx="2.5" ry="2.5" style="stroke:#181818;stroke-width:0.5;" width="84" x="1051.5" y="812"/><ellipse cx="1066.5" cy="828" fill="#ADD1B2" rx="11" ry="11" style="stroke:#181818;stroke-width:1.0;"/><path d="M1069.2656,823.875 Q1069.4219,823.6563 1069.6094,823.5469 Q1069.7969,823.4375 1070.0156,823.4375 Q1070.3906,823.4375 1070.625,823.7031 Q1070.8594,823.9531 1070.8594,824.5625 L1070.8594,826.0156 Q1070.8594,826.625 1070.625,826.8906 Q1070.3906,827.1563 1070.0156,827.1563 Q1069.6719,827.1563 1069.4688,826.9531 Q1069.2656,826.7656 1069.1563,826.25 Q1069.1094,825.8906 1068.9219,825.7031 Q1068.5938,825.3281 1067.9844,825.1094 Q1067.375,824.8906 1066.75,824.8906 Q1065.9844,824.8906 1065.3438,825.2188 Q1064.7188,825.5469 1064.2188,826.2969 Q1063.7344,827.0469 1063.7344,828.0781 L1063.7344,829.1719 Q1063.7344,830.4063 1064.625,831.2344 Q1065.5156,832.0469 1067.1094,832.0469 Q1068.0469,832.0469 1068.7031,831.7969 Q1069.0938,831.6406 1069.5156,831.2031 Q1069.7813,830.9375 1069.9219,830.8594 Q1070.0781,830.7813 1070.2813,830.7813 Q1070.6094,830.7813 1070.8594,831.0469 Q1071.125,831.2969 1071.125,831.6406 Q1071.125,831.9844 1070.7813,832.3906 Q1070.2813,832.9688 1069.4844,833.2969 Q1068.4063,833.75 1067.1094,833.75 Q1065.5938,833.75 1064.3906,833.125 Q1063.4063,832.625 1062.7188,831.5625 Q1062.0313,830.4844 1062.0313,829.2031 L1062.0313,828.0469 Q1062.0313,826.7188 1062.6406,825.5781 Q1063.2656,824.4219 1064.3594,823.8125 Q1065.4531,823.1875 1066.6875,823.1875 Q1067.4219,823.1875 1068.0625,823.3594 Q1068.7188,823.5156 1069.2656,823.875 Z " fill="#000000"/><text fill="#000000" font-family="sans-serif" font-size="14" lengthAdjust="spacing" textLength="52" x="1080.5" y="833.7285">Relation</text><line style="stroke:#181818;stroke-width:0.5;" x1="1052.5" x2="1134.5" y1="844" y2="844"/><line style="stroke:#181818;stroke-width:0.5;" x1="1052.5" x2="1134.5" y1="852" y2="852"/></g><!--class RelationType--><g id="elem_RelationType"><rect codeLine="84" fill="#F1F1F1" height="136.0469" id="RelationType" rx="2.5" ry="2.5" style="stroke:#181818;stroke-width:0.5;" width="116" x="1019.5" y="947"/><ellipse cx="1034.5" cy="963" fill="#EB937F" rx="11" ry="11" style="stroke:#181818;stroke-width:1.0;"/><path d="M1033.3594,963.7969 L1033.3594,966.2969 L1037.6875,966.2969 L1037.6875,965.375 Q1037.6875,964.7656 1037.9219,964.5 Q1038.1719,964.2344 1038.5469,964.2344 Q1038.9219,964.2344 1039.1563,964.5 Q1039.3906,964.7656 1039.3906,965.375 L1039.3906,968 L1031.3906,968 Q1030.7656,968 1030.5,967.7656 Q1030.25,967.5313 1030.25,967.1406 Q1030.25,966.7656 1030.5156,966.5313 Q1030.7813,966.2969 1031.3906,966.2969 L1031.6563,966.2969 L1031.6563,959.6406 L1031.3906,959.6406 Q1030.7656,959.6406 1030.5,959.4063 Q1030.25,959.1719 1030.25,958.7813 Q1030.25,958.4063 1030.5,958.1719 Q1030.7656,957.9375 1031.3906,957.9375 L1039.0156,957.9375 L1039.0156,960.5313 Q1039.0156,961.1406 1038.7813,961.4063 Q1038.5625,961.6563 1038.1719,961.6563 Q1037.7969,961.6563 1037.5625,961.4063 Q1037.3281,961.1406 1037.3281,960.5313 L1037.3281,959.6406 L1033.3594,959.6406 L1033.3594,962.0938 L1034.8438,962.0938 Q1034.8438,961.4375 1034.9688,961.25 Q1035.2344,960.8438 1035.7031,960.8438 Q1036.0781,960.8438 1036.3125,961.1094 Q1036.5469,961.3594 1036.5469,961.9688 L1036.5469,963.9375 Q1036.5469,964.4844 1036.4219,964.6719 Q1036.1563,965.0625 1035.7031,965.0625 Q1035.2344,965.0625 1034.9688,964.6563 Q1034.8438,964.4688 1034.8438,963.7969 L1033.3594,963.7969 Z " fill="#000000"/><text fill="#000000" font-family="sans-serif" font-size="14" lengthAdjust="spacing" textLength="84" x="1048.5" y="968.7285">RelationType</text><line style="stroke:#181818;stroke-width:0.5;" x1="1020.5" x2="1134.5" y1="979" y2="979"/><text fill="#000000" font-family="sans-serif" font-size="14" lengthAdjust="spacing" textLength="24" x="1025.5" y="997.5332">Use</text><text fill="#000000" font-family="sans-serif" font-size="14" lengthAdjust="spacing" textLength="72" x="1025.5" y="1015.1426">Association</text><text fill="#000000" font-family="sans-serif" font-size="14" lengthAdjust="spacing" textLength="78" x="1025.5" y="1032.752">Composition</text><text fill="#000000" font-family="sans-serif" font-size="14" lengthAdjust="spacing" textLength="70" x="1025.5" y="1050.3613">Inheritance</text><text fill="#000000" font-family="sans-serif" font-size="14" lengthAdjust="spacing" textLength="77" x="1025.5" y="1067.9707">Aggregation</text><line style="stroke:#181818;stroke-width:0.5;" x1="1020.5" x2="1134.5" y1="1075.0469" y2="1075.0469"/></g><!--class EducationPlatform--><g id="elem_EducationPlatform"><rect fill="#F1F1F1" height="48" id="EducationPlatform" rx="2.5" ry="2.5" style="stroke:#181818;stroke-width:0.5;" width="147" x="708" y="7"/><ellipse cx="723" cy="23" fill="#ADD1B2" rx="11" ry="11" style="stroke:#181818;stroke-width:1.0;"/><path d="M725.7656,18.875 Q725.9219,18.6563 726.1094,18.5469 Q726.2969,18.4375 726.5156,18.4375 Q726.8906,18.4375 727.125,18.7031 Q727.3594,18.9531 727.3594,19.5625 L727.3594,21.0156 Q727.3594,21.625 727.125,21.8906 Q726.8906,22.1563 726.5156,22.1563 Q726.1719,22.1563 725.9688,21.9531 Q725.7656,21.7656 725.6563,21.25 Q725.6094,20.8906 725.4219,20.7031 Q725.0938,20.3281 724.4844,20.1094 Q723.875,19.8906 723.25,19.8906 Q722.4844,19.8906 721.8438,20.2188 Q721.2188,20.5469 720.7188,21.2969 Q720.2344,22.0469 720.2344,23.0781 L720.2344,24.1719 Q720.2344,25.4063 721.125,26.2344 Q722.0156,27.0469 723.6094,27.0469 Q724.5469,27.0469 725.2031,26.7969 Q725.5938,26.6406 726.0156,26.2031 Q726.2813,25.9375 726.4219,25.8594 Q726.5781,25.7813 726.7813,25.7813 Q727.1094,25.7813 727.3594,26.0469 Q727.625,26.2969 727.625,26.6406 Q727.625,26.9844 727.2813,27.3906 Q726.7813,27.9688 725.9844,28.2969 Q724.9063,28.75 723.6094,28.75 Q722.0938,28.75 720.8906,28.125 Q719.9063,27.625 719.2188,26.5625 Q718.5313,25.4844 718.5313,24.2031 L718.5313,23.0469 Q718.5313,21.7188 719.1406,20.5781 Q719.7656,19.4219 720.8594,18.8125 Q721.9531,18.1875 723.1875,18.1875 Q723.9219,18.1875 724.5625,18.3594 Q725.2188,18.5156 725.7656,18.875 Z " fill="#000000"/><text fill="#000000" font-family="sans-serif" font-size="14" lengthAdjust="spacing" textLength="115" x="737" y="28.7285">EducationPlatform</text><line style="stroke:#181818;stroke-width:0.5;" x1="709" x2="854" y1="39" y2="39"/><line style="stroke:#181818;stroke-width:0.5;" x1="709" x2="854" y1="47" y2="47"/></g><!--class User--><g id="elem_User"><rect codeLine="12" fill="#F1F1F1" height="48" id="User" rx="2.5" ry="2.5" style="stroke:#181818;stroke-width:0.5;" width="62" x="134.5" y="116"/><ellipse cx="149.5" cy="132" fill="#A9DCDF" rx="11" ry="11" style="stroke:#181818;stroke-width:1.0;"/><path d="M151.6875,133.7656 L147.5469,133.7656 L147.125,134.7969 L147.5469,134.7969 Q148.1563,134.7969 148.4219,135.0313 Q148.6875,135.2656 148.6875,135.6563 Q148.6875,136.0313 148.4219,136.2656 Q148.1563,136.5 147.5469,136.5 L145.25,136.5 Q144.6406,136.5 144.3906,136.2656 Q144.125,136.0313 144.125,135.6406 Q144.125,135.2656 144.4063,135.0313 Q144.6719,134.7813 145.2969,134.7969 L147.9688,128.1406 L146.8594,128.1406 Q146.25,128.1406 145.9844,127.9063 Q145.7188,127.6719 145.7188,127.2813 Q145.7188,126.9063 145.9844,126.6719 Q146.25,126.4375 146.8594,126.4375 L150.5313,126.4375 L153.9219,134.7969 Q154.5156,134.7969 154.7031,134.9375 Q155.0938,135.2031 155.0938,135.6563 Q155.0938,136.0313 154.8281,136.2656 Q154.5781,136.5 153.9688,136.5 L151.6719,136.5 Q151.0625,136.5 150.7969,136.2656 Q150.5313,136.0313 150.5313,135.6406 Q150.5313,135.2656 150.7969,135.0313 Q151.0625,134.7969 151.6719,134.7969 L152.0938,134.7969 L151.6875,133.7656 Z M150.9688,132.0625 L149.6094,128.6875 L148.2344,132.0625 L150.9688,132.0625 Z " fill="#000000"/><text fill="#000000" font-family="sans-serif" font-size="14" font-style="italic" lengthAdjust="spacing" textLength="30" x="163.5" y="137.7285">User</text><line style="stroke:#181818;stroke-width:0.5;" x1="135.5" x2="195.5" y1="148" y2="148"/><line style="stroke:#181818;stroke-width:0.5;" x1="135.5" x2="195.5" y1="156" y2="156"/></g><!--class Evaluator--><g id="elem_Evaluator"><rect codeLine="25" fill="#F1F1F1" height="48" id="Evaluator" rx="2.5" ry="2.5" style="stroke:#181818;stroke-width:0.5;" width="92" x="735.5" y="116"/><ellipse cx="750.5" cy="132" fill="#ADD1B2" rx="11" ry="11" style="stroke:#181818;stroke-width:1.0;"/><path d="M753.2656,127.875 Q753.4219,127.6563 753.6094,127.5469 Q753.7969,127.4375 754.0156,127.4375 Q754.3906,127.4375 754.625,127.7031 Q754.8594,127.9531 754.8594,128.5625 L754.8594,130.0156 Q754.8594,130.625 754.625,130.8906 Q754.3906,131.1563 754.0156,131.1563 Q753.6719,131.1563 753.4688,130.9531 Q753.2656,130.7656 753.1563,130.25 Q753.1094,129.8906 752.9219,129.7031 Q752.5938,129.3281 751.9844,129.1094 Q751.375,128.8906 750.75,128.8906 Q749.9844,128.8906 749.3438,129.2188 Q748.7188,129.5469 748.2188,130.2969 Q747.7344,131.0469 747.7344,132.0781 L747.7344,133.1719 Q747.7344,134.4063 748.625,135.2344 Q749.5156,136.0469 751.1094,136.0469 Q752.0469,136.0469 752.7031,135.7969 Q753.0938,135.6406 753.5156,135.2031 Q753.7813,134.9375 753.9219,134.8594 Q754.0781,134.7813 754.2813,134.7813 Q754.6094,134.7813 754.8594,135.0469 Q755.125,135.2969 755.125,135.6406 Q755.125,135.9844 754.7813,136.3906 Q754.2813,136.9688 753.4844,137.2969 Q752.4063,137.75 751.1094,137.75 Q749.5938,137.75 748.3906,137.125 Q747.4063,136.625 746.7188,135.5625 Q746.0313,134.4844 746.0313,133.2031 L746.0313,132.0469 Q746.0313,130.7188 746.6406,129.5781 Q747.2656,128.4219 748.3594,127.8125 Q749.4531,127.1875 750.6875,127.1875 Q751.4219,127.1875 752.0625,127.3594 Q752.7188,127.5156 753.2656,127.875 Z " fill="#000000"/><text fill="#000000" font-family="sans-serif" font-size="14" lengthAdjust="spacing" textLength="60" x="764.5" y="137.7285">Evaluator</text><line style="stroke:#181818;stroke-width:0.5;" x1="736.5" x2="826.5" y1="148" y2="148"/><line style="stroke:#181818;stroke-width:0.5;" x1="736.5" x2="826.5" y1="156" y2="156"/></g><!--class Teacher--><g id="elem_Teacher"><rect codeLine="18" fill="#F1F1F1" height="48" id="Teacher" rx="2.5" ry="2.5" style="stroke:#181818;stroke-width:0.5;" width="85" x="123" y="247"/><ellipse cx="138" cy="263" fill="#ADD1B2" rx="11" ry="11" style="stroke:#181818;stroke-width:1.0;"/><path d="M140.7656,258.875 Q140.9219,258.6563 141.1094,258.5469 Q141.2969,258.4375 141.5156,258.4375 Q141.8906,258.4375 142.125,258.7031 Q142.3594,258.9531 142.3594,259.5625 L142.3594,261.0156 Q142.3594,261.625 142.125,261.8906 Q141.8906,262.1563 141.5156,262.1563 Q141.1719,262.1563 140.9688,261.9531 Q140.7656,261.7656 140.6563,261.25 Q140.6094,260.8906 140.4219,260.7031 Q140.0938,260.3281 139.4844,260.1094 Q138.875,259.8906 138.25,259.8906 Q137.4844,259.8906 136.8438,260.2188 Q136.2188,260.5469 135.7188,261.2969 Q135.2344,262.0469 135.2344,263.0781 L135.2344,264.1719 Q135.2344,265.4063 136.125,266.2344 Q137.0156,267.0469 138.6094,267.0469 Q139.5469,267.0469 140.2031,266.7969 Q140.5938,266.6406 141.0156,266.2031 Q141.2813,265.9375 141.4219,265.8594 Q141.5781,265.7813 141.7813,265.7813 Q142.1094,265.7813 142.3594,266.0469 Q142.625,266.2969 142.625,266.6406 Q142.625,266.9844 142.2813,267.3906 Q141.7813,267.9688 140.9844,268.2969 Q139.9063,268.75 138.6094,268.75 Q137.0938,268.75 135.8906,268.125 Q134.9063,267.625 134.2188,266.5625 Q133.5313,265.4844 133.5313,264.2031 L133.5313,263.0469 Q133.5313,261.7188 134.1406,260.5781 Q134.7656,259.4219 135.8594,258.8125 Q136.9531,258.1875 138.1875,258.1875 Q138.9219,258.1875 139.5625,258.3594 Q140.2188,258.5156 140.7656,258.875 Z " fill="#000000"/><text fill="#000000" font-family="sans-serif" font-size="14" lengthAdjust="spacing" textLength="53" x="152" y="268.7285">Teacher</text><line style="stroke:#181818;stroke-width:0.5;" x1="124" x2="207" y1="279" y2="279"/><line style="stroke:#181818;stroke-width:0.5;" x1="124" x2="207" y1="287" y2="287"/></g><!--class Student--><g id="elem_Student"><rect codeLine="21" fill="#F1F1F1" height="48" id="Student" rx="2.5" ry="2.5" style="stroke:#181818;stroke-width:0.5;" width="81" x="7" y="247"/><ellipse cx="22" cy="263" fill="#ADD1B2" rx="11" ry="11" style="stroke:#181818;stroke-width:1.0;"/><path d="M24.7656,258.875 Q24.9219,258.6563 25.1094,258.5469 Q25.2969,258.4375 25.5156,258.4375 Q25.8906,258.4375 26.125,258.7031 Q26.3594,258.9531 26.3594,259.5625 L26.3594,261.0156 Q26.3594,261.625 26.125,261.8906 Q25.8906,262.1563 25.5156,262.1563 Q25.1719,262.1563 24.9688,261.9531 Q24.7656,261.7656 24.6563,261.25 Q24.6094,260.8906 24.4219,260.7031 Q24.0938,260.3281 23.4844,260.1094 Q22.875,259.8906 22.25,259.8906 Q21.4844,259.8906 20.8438,260.2188 Q20.2188,260.5469 19.7188,261.2969 Q19.2344,262.0469 19.2344,263.0781 L19.2344,264.1719 Q19.2344,265.4063 20.125,266.2344 Q21.0156,267.0469 22.6094,267.0469 Q23.5469,267.0469 24.2031,266.7969 Q24.5938,266.6406 25.0156,266.2031 Q25.2813,265.9375 25.4219,265.8594 Q25.5781,265.7813 25.7813,265.7813 Q26.1094,265.7813 26.3594,266.0469 Q26.625,266.2969 26.625,266.6406 Q26.625,266.9844 26.2813,267.3906 Q25.7813,267.9688 24.9844,268.2969 Q23.9063,268.75 22.6094,268.75 Q21.0938,268.75 19.8906,268.125 Q18.9063,267.625 18.2188,266.5625 Q17.5313,265.4844 17.5313,264.2031 L17.5313,263.0469 Q17.5313,261.7188 18.1406,260.5781 Q18.7656,259.4219 19.8594,258.8125 Q20.9531,258.1875 22.1875,258.1875 Q22.9219,258.1875 23.5625,258.3594 Q24.2188,258.5156 24.7656,258.875 Z " fill="#000000"/><text fill="#000000" font-family="sans-serif" font-size="14" lengthAdjust="spacing" textLength="49" x="36" y="268.7285">Student</text><line style="stroke:#181818;stroke-width:0.5;" x1="8" x2="87" y1="279" y2="279"/><line style="stroke:#181818;stroke-width:0.5;" x1="8" x2="87" y1="287" y2="287"/></g><!--class Document--><g id="elem_Document"><rect codeLine="30" fill="#F1F1F1" height="48" id="Document" rx="2.5" ry="2.5" style="stroke:#181818;stroke-width:0.5;" width="96" x="1324.5" y="991"/><ellipse cx="1339.5" cy="1007" fill="#ADD1B2" rx="11" ry="11" style="stroke:#181818;stroke-width:1.0;"/><path d="M1342.2656,1002.875 Q1342.4219,1002.6563 1342.6094,1002.5469 Q1342.7969,1002.4375 1343.0156,1002.4375 Q1343.3906,1002.4375 1343.625,1002.7031 Q1343.8594,1002.9531 1343.8594,1003.5625 L1343.8594,1005.0156 Q1343.8594,1005.625 1343.625,1005.8906 Q1343.3906,1006.1563 1343.0156,1006.1563 Q1342.6719,1006.1563 1342.4688,1005.9531 Q1342.2656,1005.7656 1342.1563,1005.25 Q1342.1094,1004.8906 1341.9219,1004.7031 Q1341.5938,1004.3281 1340.9844,1004.1094 Q1340.375,1003.8906 1339.75,1003.8906 Q1338.9844,1003.8906 1338.3438,1004.2188 Q1337.7188,1004.5469 1337.2188,1005.2969 Q1336.7344,1006.0469 1336.7344,1007.0781 L1336.7344,1008.1719 Q1336.7344,1009.4063 1337.625,1010.2344 Q1338.5156,1011.0469 1340.1094,1011.0469 Q1341.0469,1011.0469 1341.7031,1010.7969 Q1342.0938,1010.6406 1342.5156,1010.2031 Q1342.7813,1009.9375 1342.9219,1009.8594 Q1343.0781,1009.7813 1343.2813,1009.7813 Q1343.6094,1009.7813 1343.8594,1010.0469 Q1344.125,1010.2969 1344.125,1010.6406 Q1344.125,1010.9844 1343.7813,1011.3906 Q1343.2813,1011.9688 1342.4844,1012.2969 Q1341.4063,1012.75 1340.1094,1012.75 Q1338.5938,1012.75 1337.3906,1012.125 Q1336.4063,1011.625 1335.7188,1010.5625 Q1335.0313,1009.4844 1335.0313,1008.2031 L1335.0313,1007.0469 Q1335.0313,1005.7188 1335.6406,1004.5781 Q1336.2656,1003.4219 1337.3594,1002.8125 Q1338.4531,1002.1875 1339.6875,1002.1875 Q1340.4219,1002.1875 1341.0625,1002.3594 Q1341.7188,1002.5156 1342.2656,1002.875 Z " fill="#000000"/><text fill="#000000" font-family="sans-serif" font-size="14" lengthAdjust="spacing" textLength="64" x="1353.5" y="1012.7285">Document</text><line style="stroke:#181818;stroke-width:0.5;" x1="1325.5" x2="1419.5" y1="1023" y2="1023"/><line style="stroke:#181818;stroke-width:0.5;" x1="1325.5" x2="1419.5" y1="1031" y2="1031"/></g><!--class Attachment--><g id="elem_Attachment"><rect codeLine="32" fill="#F1F1F1" height="48" id="Attachment" rx="2.5" ry="2.5" style="stroke:#181818;stroke-width:0.5;" width="103" x="1321" y="812"/><ellipse cx="1336" cy="828" fill="#ADD1B2" rx="11" ry="11" style="stroke:#181818;stroke-width:1.0;"/><path d="M1338.7656,823.875 Q1338.9219,823.6563 1339.1094,823.5469 Q1339.2969,823.4375 1339.5156,823.4375 Q1339.8906,823.4375 1340.125,823.7031 Q1340.3594,823.9531 1340.3594,824.5625 L1340.3594,826.0156 Q1340.3594,826.625 1340.125,826.8906 Q1339.8906,827.1563 1339.5156,827.1563 Q1339.1719,827.1563 1338.9688,826.9531 Q1338.7656,826.7656 1338.6563,826.25 Q1338.6094,825.8906 1338.4219,825.7031 Q1338.0938,825.3281 1337.4844,825.1094 Q1336.875,824.8906 1336.25,824.8906 Q1335.4844,824.8906 1334.8438,825.2188 Q1334.2188,825.5469 1333.7188,826.2969 Q1333.2344,827.0469 1333.2344,828.0781 L1333.2344,829.1719 Q1333.2344,830.4063 1334.125,831.2344 Q1335.0156,832.0469 1336.6094,832.0469 Q1337.5469,832.0469 1338.2031,831.7969 Q1338.5938,831.6406 1339.0156,831.2031 Q1339.2813,830.9375 1339.4219,830.8594 Q1339.5781,830.7813 1339.7813,830.7813 Q1340.1094,830.7813 1340.3594,831.0469 Q1340.625,831.2969 1340.625,831.6406 Q1340.625,831.9844 1340.2813,832.3906 Q1339.7813,832.9688 1338.9844,833.2969 Q1337.9063,833.75 1336.6094,833.75 Q1335.0938,833.75 1333.8906,833.125 Q1332.9063,832.625 1332.2188,831.5625 Q1331.5313,830.4844 1331.5313,829.2031 L1331.5313,828.0469 Q1331.5313,826.7188 1332.1406,825.5781 Q1332.7656,824.4219 1333.8594,823.8125 Q1334.9531,823.1875 1336.1875,823.1875 Q1336.9219,823.1875 1337.5625,823.3594 Q1338.2188,823.5156 1338.7656,823.875 Z " fill="#000000"/><text fill="#000000" font-family="sans-serif" font-size="14" lengthAdjust="spacing" textLength="71" x="1350" y="833.7285">Attachment</text><line style="stroke:#181818;stroke-width:0.5;" x1="1322" x2="1423" y1="844" y2="844"/><line style="stroke:#181818;stroke-width:0.5;" x1="1322" x2="1423" y1="852" y2="852"/></g><!--class Justification--><g id="elem_Justification"><rect codeLine="36" fill="#F1F1F1" height="48" id="Justification" rx="2.5" ry="2.5" style="stroke:#181818;stroke-width:0.5;" width="105" x="430" y="991"/><ellipse cx="445" cy="1007" fill="#ADD1B2" rx="11" ry="11" style="stroke:#181818;stroke-width:1.0;"/><path d="M447.7656,1002.875 Q447.9219,1002.6563 448.1094,1002.5469 Q448.2969,1002.4375 448.5156,1002.4375 Q448.8906,1002.4375 449.125,1002.7031 Q449.3594,1002.9531 449.3594,1003.5625 L449.3594,1005.0156 Q449.3594,1005.625 449.125,1005.8906 Q448.8906,1006.1563 448.5156,1006.1563 Q448.1719,1006.1563 447.9688,1005.9531 Q447.7656,1005.7656 447.6563,1005.25 Q447.6094,1004.8906 447.4219,1004.7031 Q447.0938,1004.3281 446.4844,1004.1094 Q445.875,1003.8906 445.25,1003.8906 Q444.4844,1003.8906 443.8438,1004.2188 Q443.2188,1004.5469 442.7188,1005.2969 Q442.2344,1006.0469 442.2344,1007.0781 L442.2344,1008.1719 Q442.2344,1009.4063 443.125,1010.2344 Q444.0156,1011.0469 445.6094,1011.0469 Q446.5469,1011.0469 447.2031,1010.7969 Q447.5938,1010.6406 448.0156,1010.2031 Q448.2813,1009.9375 448.4219,1009.8594 Q448.5781,1009.7813 448.7813,1009.7813 Q449.1094,1009.7813 449.3594,1010.0469 Q449.625,1010.2969 449.625,1010.6406 Q449.625,1010.9844 449.2813,1011.3906 Q448.7813,1011.9688 447.9844,1012.2969 Q446.9063,1012.75 445.6094,1012.75 Q444.0938,1012.75 442.8906,1012.125 Q441.9063,1011.625 441.2188,1010.5625 Q440.5313,1009.4844 440.5313,1008.2031 L440.5313,1007.0469 Q440.5313,1005.7188 441.1406,1004.5781 Q441.7656,1003.4219 442.8594,1002.8125 Q443.9531,1002.1875 445.1875,1002.1875 Q445.9219,1002.1875 446.5625,1002.3594 Q447.2188,1002.5156 447.7656,1002.875 Z " fill="#000000"/><text fill="#000000" font-family="sans-serif" font-size="14" lengthAdjust="spacing" textLength="73" x="459" y="1012.7285">Justification</text><line style="stroke:#181818;stroke-width:0.5;" x1="431" x2="534" y1="1023" y2="1023"/><line style="stroke:#181818;stroke-width:0.5;" x1="431" x2="534" y1="1031" y2="1031"/></g><!--link EducationPlatform to User--><g id="link_EducationPlatform_User"><path codeLine="2" d="M695.9282,34.7146 C567.8182,39.4646 321.43,52.42 237.5,85 C219.73,91.9 207.0897,100.5784 193.9697,111.8584 " fill="none" id="EducationPlatform-User" style="stroke:#FF0000;stroke-width:1.0;"/><polygon fill="#FF0000" points="707.92,34.27,701.7759,30.4951,695.9282,34.7146,702.0723,38.4896,707.92,34.27" style="stroke:#FF0000;stroke-width:1.0;"/><polygon fill="#FF0000" points="189.42,115.77,198.8522,112.9357,193.2114,112.5103,193.6368,106.8695,189.42,115.77" style="stroke:#FF0000;stroke-width:1.0;"/><text fill="#000000" font-family="sans-serif" font-size="13" lengthAdjust="spacing" textLength="8" x="186.5245" y="105.0512">+</text></g><!--link EducationPlatform to Topic--><g id="link_EducationPlatform_Topic"><path codeLine="3" d="M866.9726,42.346 C908.2026,49.516 947.39,60.69 987.5,85 C1094.88,150.09 1084.66,209.37 1176.5,295 C1207.7,324.1 1241.7649,350.1847 1268.8549,369.8547 " fill="none" id="EducationPlatform-Topic" style="stroke:#FF0000;stroke-width:1.0;"/><polygon fill="#FF0000" points="855.15,40.29,860.376,45.2588,866.9726,42.346,861.7466,37.3771,855.15,40.29" style="stroke:#FF0000;stroke-width:1.0;"/><polygon fill="#FF0000" points="1273.71,373.38,1268.7775,364.8553,1269.6641,370.4423,1264.0771,371.3288,1273.71,373.38" style="stroke:#FF0000;stroke-width:1.0;"/></g><!--link EducationPlatform to Itinerary--><g id="link_EducationPlatform_Itinerary"><path codeLine="4" d="M867.167,37.5392 C958.947,44.3592 1097.66,58.37 1146.5,85 C1206.42,117.68 1225.6069,199.0568 1231.9169,240.9768 " fill="none" id="EducationPlatform-Itinerary" style="stroke:#FF0000;stroke-width:1.0;"/><polygon fill="#FF0000" points="855.2,36.65,860.8871,41.0836,867.167,37.5392,861.4799,33.1056,855.2,36.65" style="stroke:#FF0000;stroke-width:1.0;"/><polygon fill="#FF0000" points="1232.81,246.91,1235.4258,237.4149,1232.0658,241.9657,1227.5149,238.6057,1232.81,246.91" style="stroke:#FF0000;stroke-width:1.0;"/><text fill="#000000" font-family="sans-serif" font-size="13" lengthAdjust="spacing" textLength="59" x="1210.5" y="145.4951">predefined</text></g><!--link EducationPlatform to Itinerary--><g id="link_EducationPlatform_Itinerary"><path codeLine="5" d="M866.9723,34.1944 C925.4823,38.1744 995.71,49.56 1058.5,85 C1099.61,108.2 1097.02,129.74 1129.5,164 C1157.08,193.09 1185.5393,221.346 1207.2693,242.586 " fill="none" id="EducationPlatform-Itinerary-1" style="stroke:#FF0000;stroke-width:1.0;"/><polygon fill="none" points="855,33.38,860.7147,37.778,866.9723,34.1944,861.2576,29.7964,855,33.38" style="stroke:#FF0000;stroke-width:1.0;"/><polygon fill="#FF0000" points="1211.56,246.78,1207.9199,237.6285,1207.9844,243.285,1202.3279,243.3495,1211.56,246.78" style="stroke:#FF0000;stroke-width:1.0;"/><text fill="#000000" font-family="sans-serif" font-size="13" lengthAdjust="spacing" textLength="43" x="1130.5" y="145.4951">custom</text><text fill="#000000" font-family="sans-serif" font-size="13" lengthAdjust="spacing" textLength="5" x="1199.7848" y="236.0638">*</text></g><!--link EducationPlatform to Evaluator--><g id="link_EducationPlatform_Evaluator"><path codeLine="6" d="M781.5,67.22 C781.5,85.16 781.5,91.89 781.5,109.83 " fill="none" id="EducationPlatform-Evaluator" style="stroke:#FF0000;stroke-width:1.0;"/><polygon fill="#FF0000" points="781.5,55.22,777.5,61.22,781.5,67.22,785.5,61.22,781.5,55.22" style="stroke:#FF0000;stroke-width:1.0;"/><polygon fill="#FF0000" points="781.5,115.83,785.5,106.83,781.5,110.83,777.5,106.83,781.5,115.83" style="stroke:#FF0000;stroke-width:1.0;"/></g><!--link EducationPlatform to Exercise--><g id="link_EducationPlatform_Exercise"><path codeLine="7" d="M696.8732,56.4033 C678.2132,64.2733 670.55,70.39 656.5,85 C612.11,131.17 596.1583,202.3191 590.2683,240.7791 " fill="none" id="EducationPlatform-Exercise" style="stroke:#FF0000;stroke-width:1.0;"/><polygon fill="#FF0000" points="707.93,51.74,700.8471,50.386,696.8732,56.4033,703.956,57.7573,707.93,51.74" style="stroke:#FF0000;stroke-width:1.0;"/><polygon fill="#FF0000" points="589.36,246.71,594.6763,238.4192,590.1169,241.7676,586.7685,237.2082,589.36,246.71" style="stroke:#FF0000;stroke-width:1.0;"/><text fill="#000000" font-family="sans-serif" font-size="13" lengthAdjust="spacing" textLength="5" x="584.4523" y="235.9758">*</text></g><!--link EducationPlatform to Domain--><g id="link_EducationPlatform_Domain"><path codeLine="8" d="M696.2854,58.4016 C581.7254,97.9016 377.25,187.99 295.5,356 C270.77,406.82 288.6565,468.2398 304.8965,507.2998 " fill="none" id="EducationPlatform-Domain" style="stroke:#FF0000;stroke-width:1.0;"/><polygon fill="#FF0000" points="707.63,54.49,700.6538,52.6643,696.2854,58.4016,703.2616,60.2273,707.63,54.49" style="stroke:#FF0000;stroke-width:1.0;"/><polygon fill="#FF0000" points="307.2,512.84,307.4383,502.994,305.2804,508.2231,300.0513,506.0653,307.2,512.84" style="stroke:#FF0000;stroke-width:1.0;"/><text fill="#000000" font-family="sans-serif" font-size="13" lengthAdjust="spacing" textLength="5" x="298.5288" y="501.9224">*</text></g><!--link EducationPlatform to Application--><g id="link_EducationPlatform_Application"><path codeLine="9" d="M753.9319,64.3917 C740.5719,80.6517 730.85,94.08 718.5,116 C676.42,190.71 707.37,234.6 646.5,295 C639.57,301.88 543.4084,338.7044 469.7884,366.2944 " fill="none" id="EducationPlatform-Application" style="stroke:#FF0000;stroke-width:1.0;"/><polygon fill="#FF0000" points="761.55,55.12,754.6504,57.2165,753.9319,64.3917,760.8315,62.2952,761.55,55.12" style="stroke:#FF0000;stroke-width:1.0;"/><polygon fill="#FF0000" points="464.17,368.4,474.0013,368.9873,468.852,366.6454,471.1939,361.496,464.17,368.4" style="stroke:#FF0000;stroke-width:1.0;"/><text fill="#000000" font-family="sans-serif" font-size="13" lengthAdjust="spacing" textLength="5" x="472.2313" y="362.076">*</text></g><!--link EducationPlatform to ConceptGraph--><g id="link_EducationPlatform_ConceptGraph"><path codeLine="10" d="M866.7855,48.8458 C916.4955,62.7658 961.5,86.83 961.5,139 C961.5,139 961.5,139 961.5,398.5 C961.5,443.73 978.7839,488.0617 992.1239,516.3917 " fill="none" id="EducationPlatform-ConceptGraph" style="stroke:#FF0000;stroke-width:1.0;"/><polygon fill="#FF0000" points="855.23,45.61,859.9291,51.0797,866.7855,48.8458,862.0864,43.3761,855.23,45.61" style="stroke:#FF0000;stroke-width:1.0;"/><polygon fill="#FF0000" points="994.68,521.82,994.4648,511.9735,992.5499,517.2964,987.227,515.3816,994.68,521.82" style="stroke:#FF0000;stroke-width:1.0;"/></g><!--reverse link User to Teacher--><g id="link_User_Teacher"><path codeLine="15" d="M165.5,182.06 C165.5,205.4 165.5,223.28 165.5,246.7 " fill="none" id="User-backto-Teacher" style="stroke:#181818;stroke-width:1.0;"/><polygon fill="none" points="165.5,164.06,159.5,182.06,171.5,182.06,165.5,164.06" style="stroke:#181818;stroke-width:1.0;"/></g><!--reverse link User to Student--><g id="link_User_Student"><path codeLine="16" d="M129.7955,177.1101 C118.5055,188.6201 117.43,189.96 105.5,203 C92.41,217.3 78.16,233.75 67.05,246.78 " fill="none" id="User-backto-Student" style="stroke:#181818;stroke-width:1.0;"/><polygon fill="none" points="142.4,164.26,125.5121,172.9086,134.0789,181.3116,142.4,164.26" style="stroke:#181818;stroke-width:1.0;"/></g><!--link Student to Application--><g id="link_Student_Application"><path codeLine="23" d="M99.4396,292.889 C105.2096,295.109 99.89,293 105.5,295 C147.22,309.84 158.68,310.46 200.5,325 C237.77,337.96 273.1742,351.245 307.3442,364.465 " fill="none" id="Student-Application" style="stroke:#181818;stroke-width:1.0;"/><polygon fill="none" points="88.24,288.58,92.4035,294.4677,99.4396,292.889,95.2762,287.0013,88.24,288.58" style="stroke:#181818;stroke-width:1.0;"/><polygon fill="#181818" points="312.94,366.63,305.9896,359.652,308.2768,364.8259,303.103,367.1131,312.94,366.63" style="stroke:#181818;stroke-width:1.0;"/><text fill="#000000" font-family="sans-serif" font-size="13" lengthAdjust="spacing" textLength="5" x="299.8901" y="360.1235">*</text></g><!--link Evaluator to QuestionExercise--><g id="link_Evaluator_QuestionExercise"><path codeLine="27" d="M779.15,164.12 C774.5,209.82 764.7277,305.8109 759.3977,358.1609 " fill="none" id="Evaluator-to-QuestionExercise" style="stroke:#181818;stroke-width:1.0;"/><polygon fill="#181818" points="758.79,364.13,763.681,355.5815,759.2965,359.1557,755.7222,354.7711,758.79,364.13" style="stroke:#181818;stroke-width:1.0;"/></g><!--link Attachment to Document--><g id="link_Attachment_Document"><path codeLine="34" d="M1372.5,872.14 C1372.5,906.06 1372.5,950.93 1372.5,984.85 " fill="none" id="Attachment-Document" style="stroke:#181818;stroke-width:1.0;"/><polygon fill="#181818" points="1372.5,860.14,1368.5,866.14,1372.5,872.14,1376.5,866.14,1372.5,860.14" style="stroke:#181818;stroke-width:1.0;"/><polygon fill="#181818" points="1372.5,990.85,1376.5,981.85,1372.5,985.85,1368.5,981.85,1372.5,990.85" style="stroke:#181818;stroke-width:1.0;"/><text fill="#000000" font-family="sans-serif" font-size="13" lengthAdjust="spacing" textLength="8" x="1363.475" y="980.1517">+</text></g><!--link Itinerary to Topic--><g id="link_Itinerary_Topic"><path codeLine="43" d="M1254.6341,305.5544 C1267.3841,327.9144 1277.6774,345.9681 1290.4074,368.2881 " fill="none" id="Itinerary-Topic" style="stroke:#181818;stroke-width:1.0;"/><polygon fill="none" points="1248.69,295.13,1248.1873,302.3236,1254.6341,305.5544,1255.1369,298.3608,1248.69,295.13" style="stroke:#181818;stroke-width:1.0;"/><polygon fill="#181818" points="1293.38,373.5,1292.3958,363.7004,1290.9029,369.1568,1285.4466,367.6639,1293.38,373.5" style="stroke:#181818;stroke-width:1.0;"/><text fill="#000000" font-family="sans-serif" font-size="13" lengthAdjust="spacing" textLength="8" x="1280.993" y="362.8402">+</text></g><!--reverse link Topic to CompositeTopic--><g id="link_Topic_CompositeTopic"><path codeLine="47" d="M1320.4265,437.7508 C1334.3965,465.1908 1356.27,494.51 1378.61,521.9 " fill="none" id="Topic-backto-CompositeTopic" style="stroke:#181818;stroke-width:1.0;"/><polygon fill="none" points="1312.26,421.71,1315.0796,440.473,1325.7735,435.0286,1312.26,421.71" style="stroke:#181818;stroke-width:1.0;"/></g><!--link CompositeTopic to Topic--><g id="link_CompositeTopic_Topic"><path codeLine="58" d="M1392.9981,511.1645 C1379.3181,483.7745 1358.4645,453.7814 1335.8645,426.3414 " fill="none" id="CompositeTopic-Topic" style="stroke:#181818;stroke-width:1.0;"/><polygon fill="none" points="1398.36,521.9,1399.2576,514.745,1392.9981,511.1645,1392.1006,518.3195,1398.36,521.9" style="stroke:#181818;stroke-width:1.0;"/><polygon fill="#181818" points="1332.05,421.71,1334.6841,431.2001,1335.2287,425.5695,1340.8593,426.1141,1332.05,421.71" style="stroke:#181818;stroke-width:1.0;"/><text fill="#000000" font-family="sans-serif" font-size="13" lengthAdjust="spacing" textLength="8" x="1329.3028" y="443.0992">+</text></g><!--reverse link Topic to SimpleTopic--><g id="link_Topic_SimpleTopic"><path codeLine="48" d="M1290.1722,438.3689 C1278.9422,465.8089 1267.18,494.51 1255.96,521.9 " fill="none" id="Topic-backto-SimpleTopic" style="stroke:#181818;stroke-width:1.0;"/><polygon fill="none" points="1296.99,421.71,1284.6193,436.0963,1295.7252,440.6415,1296.99,421.71" style="stroke:#181818;stroke-width:1.0;"/></g><!--link Topic to Attachment--><g id="link_Topic_Attachment"><path codeLine="49" d="M1351.9328,404.1041 C1394.8128,410.8841 1455.55,427.65 1488.5,478 C1561.83,590.06 1446.5288,747.6571 1396.6688,807.2871 " fill="none" id="Topic-Attachment" style="stroke:#181818;stroke-width:1.0;"/><polygon fill="#181818" points="1340.08,402.23,1345.3817,407.118,1351.9328,404.1041,1346.6311,399.2161,1340.08,402.23" style="stroke:#181818;stroke-width:1.0;"/><polygon fill="#181818" points="1392.82,811.89,1401.6618,807.5515,1396.0273,808.0542,1395.5245,802.4198,1392.82,811.89" style="stroke:#181818;stroke-width:1.0;"/><text fill="#000000" font-family="sans-serif" font-size="13" lengthAdjust="spacing" textLength="5" x="1392.3864" y="801.202">*</text></g><!--link SimpleTopic to Concept--><g id="link_SimpleTopic_Concept"><path codeLine="54" d="M1196.6945,576.1632 C1154.8845,600.6432 1104.7976,629.9681 1063.0276,654.4281 " fill="none" id="SimpleTopic-Concept" style="stroke:#181818;stroke-width:1.0;"/><polygon fill="none" points="1207.05,570.1,1199.8512,569.6798,1196.6945,576.1632,1203.8933,576.5835,1207.05,570.1" style="stroke:#181818;stroke-width:1.0;"/><polygon fill="#181818" points="1057.85,657.46,1067.6377,656.3638,1062.1647,654.9334,1063.5951,649.4604,1057.85,657.46" style="stroke:#181818;stroke-width:1.0;"/><text fill="#000000" font-family="sans-serif" font-size="13" lengthAdjust="spacing" textLength="8" x="1058.9084" y="646.7899">+</text></g><!--reverse link ConceptGraph to Concept--><g id="link_ConceptGraph_Concept"><path codeLine="66" d="M1009.6645,582.2018 C1011.8545,606.5618 1014.2,632.64 1016.39,657.06 " fill="none" id="ConceptGraph-backto-Concept" style="stroke:#181818;stroke-width:1.0;"/><polygon fill="#181818" points="1008.59,570.25,1005.1433,576.5841,1009.6645,582.2018,1013.1112,575.8677,1008.59,570.25" style="stroke:#181818;stroke-width:1.0;"/><text fill="#000000" font-family="sans-serif" font-size="13" lengthAdjust="spacing" textLength="8" x="1006.9007" y="646.6907">+</text></g><!--link Concept to Definition--><g id="link_Concept_Definition"><path codeLine="70" d="M996.5467,715.747 C987.6867,729.637 983.28,737.8 975.5,755 C968.58,770.3 964.3559,782.2536 959.8959,797.1036 " fill="none" id="Concept-Definition" style="stroke:#181818;stroke-width:1.0;"/><polygon fill="#181818" points="1003,705.63,996.401,708.5374,996.5467,715.747,1003.1457,712.8396,1003,705.63" style="stroke:#181818;stroke-width:1.0;"/><polygon fill="#181818" points="958.17,802.85,964.5897,795.3809,959.6082,798.0613,956.9278,793.0798,958.17,802.85" style="stroke:#181818;stroke-width:1.0;"/><text fill="#000000" font-family="sans-serif" font-size="13" lengthAdjust="spacing" textLength="8" x="951.1332" y="791.9345">+</text></g><!--link Concept to Relation--><g id="link_Concept_Relation"><path codeLine="71" d="M1035.4045,716.3992 C1042.4945,730.6192 1046.37,738.48 1054.5,755 C1063.91,774.13 1071.8876,790.4834 1079.6576,806.4734 " fill="none" id="Concept-Relation" style="stroke:#181818;stroke-width:1.0;"/><polygon fill="#181818" points="1030.05,705.66,1029.1475,712.8144,1035.4045,716.3992,1036.307,709.2448,1030.05,705.66" style="stroke:#181818;stroke-width:1.0;"/><polygon fill="#181818" points="1082.28,811.87,1081.9442,802.0269,1080.0947,807.3728,1074.7487,805.5233,1082.28,811.87" style="stroke:#181818;stroke-width:1.0;"/><text fill="#000000" font-family="sans-serif" font-size="13" lengthAdjust="spacing" textLength="31" x="1063.5" y="769.4951">origin</text><text fill="#000000" font-family="sans-serif" font-size="13" lengthAdjust="spacing" textLength="5" x="1073.7643" y="801.1768">*</text></g><!--link Relation to Concept--><g id="link_Relation_Concept"><path codeLine="81" d="M1051.15,813.82 C1035.73,803.73 1020.01,790.1 1011.5,773 C1001.04,751.98 1003.5403,730.5556 1008.7803,711.4856 " fill="none" id="Relation-to-Concept" style="stroke:#181818;stroke-width:1.0;"/><polygon fill="#181818" points="1010.37,705.7,1004.1283,713.3185,1009.0452,710.5213,1011.8424,715.4382,1010.37,705.7" style="stroke:#181818;stroke-width:1.0;"/><text fill="#000000" font-family="sans-serif" font-size="13" lengthAdjust="spacing" textLength="33" x="1012.5" y="769.4951">target</text></g><!--link Concept to Attachment--><g id="link_Concept_Attachment"><path codeLine="72" d="M1072.2211,705.6472 C1137.4111,733.7272 1245.0296,780.0862 1315.2496,810.3362 " fill="none" id="Concept-Attachment" style="stroke:#181818;stroke-width:1.0;"/><polygon fill="#181818" points="1061.2,700.9,1065.1281,706.9473,1072.2211,705.6472,1068.2929,699.5999,1061.2,700.9" style="stroke:#181818;stroke-width:1.0;"/><polygon fill="#181818" points="1320.76,812.71,1314.0769,805.4756,1316.168,810.7318,1310.9118,812.8229,1320.76,812.71" style="stroke:#181818;stroke-width:1.0;"/><text fill="#000000" font-family="sans-serif" font-size="13" lengthAdjust="spacing" textLength="5" x="1308.1325" y="805.8297">*</text></g><!--link Definition to Justification--><g id="link_Definition_Justification"><path codeLine="77" d="M871.3689,866.613 C777.6789,902.123 626.1405,959.5535 540.7905,991.9035 " fill="none" id="Definition-Justification" style="stroke:#181818;stroke-width:1.0;"/><polygon fill="#181818" points="882.59,862.36,875.5618,860.7461,871.3689,866.613,878.3971,868.2268,882.59,862.36" style="stroke:#181818;stroke-width:1.0;"/><polygon fill="#181818" points="535.18,994.03,545.0135,994.5805,539.8554,992.2579,542.1781,987.0999,535.18,994.03" style="stroke:#181818;stroke-width:1.0;"/><text fill="#000000" font-family="sans-serif" font-size="13" lengthAdjust="spacing" textLength="106" x="785.5" y="913.4951">[!definition.correct]</text><text fill="#000000" font-family="sans-serif" font-size="13" lengthAdjust="spacing" textLength="5" x="542.9397" y="987.4759">*</text></g><!--link Relation to RelationType--><g id="link_Relation_RelationType"><path codeLine="82" d="M1090.3299,872.0913 C1088.3399,894.1113 1086.8593,910.4043 1084.0993,940.9843 " fill="none" id="Relation-RelationType" style="stroke:#181818;stroke-width:1.0;"/><polygon fill="#181818" points="1091.41,860.14,1086.8862,865.7556,1090.3299,872.0913,1094.8537,866.4757,1091.41,860.14" style="stroke:#181818;stroke-width:1.0;"/><polygon fill="#181818" points="1083.56,946.96,1088.3528,938.356,1084.0094,941.9802,1080.3852,937.6369,1083.56,946.96" style="stroke:#181818;stroke-width:1.0;"/></g><!--reverse link Exercise to QuestionExercise--><g id="link_Exercise_QuestionExercise"><path codeLine="100" d="M632.3842,305.8033 C658.8242,325.2733 682.44,342.68 711.85,364.35 " fill="none" id="Exercise-backto-QuestionExercise" style="stroke:#181818;stroke-width:1.0;"/><polygon fill="none" points="617.89,295.13,628.8264,310.6347,635.9419,300.9719,617.89,295.13" style="stroke:#181818;stroke-width:1.0;"/></g><!--reverse link Exercise to DomainExercise--><g id="link_Exercise_DomainExercise"><path codeLine="101" d="M585.1807,313.1207 C584.4607,335.4807 583.96,351.18 583.24,373.5 " fill="none" id="Exercise-backto-DomainExercise" style="stroke:#181818;stroke-width:1.0;"/><polygon fill="none" points="585.76,295.13,579.1838,312.9276,591.1776,313.3138,585.76,295.13" style="stroke:#181818;stroke-width:1.0;"/></g><!--link DomainExercise to Domain--><g id="link_DomainExercise_Domain"><path codeLine="106" d="M541.14,421.57 C512.79,437.4 474.34,458.92 440.5,478 C420.39,489.34 403.5955,498.8438 384.0955,509.9338 " fill="none" id="DomainExercise-to-Domain" style="stroke:#181818;stroke-width:1.0;"/><polygon fill="#181818" points="378.88,512.9,388.6808,511.9278,383.2263,510.4282,384.7259,504.9737,378.88,512.9" style="stroke:#181818;stroke-width:1.0;"/><text fill="#000000" font-family="sans-serif" font-size="13" lengthAdjust="spacing" textLength="8" x="381.6834" y="501.9948">+</text></g><!--link DomainExercise to SimpleTopic--><g id="link_DomainExercise_SimpleTopic"><path codeLine="107" d="M623.28,421.63 C636.93,428.35 652.5,434.97 667.5,439 C875.91,495.01 948.58,404.54 1151.5,478 C1177.88,487.55 1199.0475,502.5951 1217.0675,517.9051 " fill="none" id="DomainExercise-to-SimpleTopic" style="stroke:#181818;stroke-width:1.0;"/><polygon fill="#181818" points="1221.64,521.79,1217.3711,512.9144,1217.8296,518.5526,1212.1913,519.0111,1221.64,521.79" style="stroke:#181818;stroke-width:1.0;"/><text fill="#000000" font-family="sans-serif" font-size="13" lengthAdjust="spacing" textLength="8" x="1206.2446" y="511.0763">+</text></g><!--reverse link Domain to Domain--><g id="link_Domain_Domain"><path codeLine="112" d="M416.1494,535.0643 C436.1194,535.9043 439,539.22 439,546 C439,552.78 424.13,556.6 404.16,557.44 " fill="none" id="Domain-backto-Domain" style="stroke:#181818;stroke-width:1.0;"/><polygon fill="#181818" points="404.16,534.56,409.9866,538.8086,416.1494,535.0643,410.3228,530.8157,404.16,534.56" style="stroke:#181818;stroke-width:1.0;"/><text fill="#000000" font-family="sans-serif" font-size="13" lengthAdjust="spacing" textLength="5" x="411.9185" y="555.2865">*</text></g><!--link Application to Domain--><g id="link_Application_Domain"><path codeLine="113" d="M370.12,439.31 C359.66,462.51 349.2224,485.6686 339.4924,507.2886 " fill="none" id="Application-to-Domain" style="stroke:#181818;stroke-width:1.0;"/><polygon fill="#181818" points="337.03,512.76,344.3712,506.1944,339.082,508.2005,337.076,502.9112,337.03,512.76" style="stroke:#181818;stroke-width:1.0;"/><text fill="#000000" font-family="sans-serif" font-size="13" lengthAdjust="spacing" textLength="5" x="334.3984" y="502.2091">*</text></g><!--reverse link QuestionExercise to MultipleChoice--><g id="link_QuestionExercise_MultipleChoice"><path codeLine="117" d="M668.3246,438.3871 C640.9846,451.7771 626.12,460.4 599.5,478 C579.86,490.99 559.53,508.06 544.29,521.73 " fill="none" id="QuestionExercise-backto-MultipleChoice" style="stroke:#181818;stroke-width:1.0;"/><polygon fill="none" points="684.49,430.47,665.6856,432.9987,670.9637,443.7756,684.49,430.47" style="stroke:#181818;stroke-width:1.0;"/></g><!--reverse link QuestionExercise to Cloze--><g id="link_QuestionExercise_Cloze"><path codeLine="118" d="M727.814,446.2176 C713.634,470.6476 703.27,488.52 689.11,512.92 " fill="none" id="QuestionExercise-backto-Cloze" style="stroke:#181818;stroke-width:1.0;"/><polygon fill="none" points="736.85,430.65,722.6248,443.2056,733.0032,449.2296,736.85,430.65" style="stroke:#181818;stroke-width:1.0;"/></g><!--reverse link QuestionExercise to Open--><g id="link_QuestionExercise_Open"><path codeLine="119" d="M768.0245,448.1028 C774.9545,475.5628 780.37,496.96 786.58,521.56 " fill="none" id="QuestionExercise-backto-Open" style="stroke:#181818;stroke-width:1.0;"/><polygon fill="none" points="763.62,430.65,762.2069,449.571,773.8421,446.6346,763.62,430.65" style="stroke:#181818;stroke-width:1.0;"/></g><!--link QuestionExercise to Concept--><g id="link_QuestionExercise_Concept"><path codeLine="120" d="M794.88,430.86 C810.72,444.67 828.69,461.41 843.5,478 C885.71,525.3 884.76,546.28 926.5,594 C946.56,616.94 967.4514,636.5111 986.4814,653.2211 " fill="none" id="QuestionExercise-to-Concept" style="stroke:#181818;stroke-width:1.0;"/><polygon fill="#181818" points="990.99,657.18,986.8664,648.2359,987.2329,653.8809,981.5879,654.2473,990.99,657.18" style="stroke:#181818;stroke-width:1.0;"/><text fill="#000000" font-family="sans-serif" font-size="13" lengthAdjust="spacing" textLength="8" x="975.3094" y="646.84">+</text></g><!--reverse link Open to Answer--><g id="link_Open_Answer"><path codeLine="121" d="M762.7255,578.6746 C754.1255,587.0546 752.28,587.63 741.5,594 C684.15,627.87 611.74,650.62 558.07,664.25 " fill="none" id="Open-backto-Answer" style="stroke:#181818;stroke-width:1.0;"/><polygon fill="#181818" points="771.32,570.3,764.2312,571.6225,762.7255,578.6746,769.8143,577.3522,771.32,570.3" style="stroke:#181818;stroke-width:1.0;"/><text fill="#000000" font-family="sans-serif" font-size="13" lengthAdjust="spacing" textLength="8" x="565.9027" y="659.2661">+</text></g><!--reverse link Student to Answer--><g id="link_Student_Answer"><path codeLine="122" d="M57.0656,306.8 C74.0456,365.67 123.31,510.22 223.5,594 C275.78,637.72 351.01,659.61 406.93,670.41 " fill="none" id="Student-backto-Answer" style="stroke:#181818;stroke-width:1.0;"/><polygon fill="none" points="53.74,295.27,51.5595,302.1435,57.0656,306.8,59.2461,299.9264,53.74,295.27" style="stroke:#181818;stroke-width:1.0;"/><text fill="#000000" font-family="sans-serif" font-size="13" lengthAdjust="spacing" textLength="5" x="393.879" y="665.9433">*</text></g><!--reverse link Answer to Justification--><g id="link_Answer_Justification"><path codeLine="128" d="M482.5,735.15 C482.5,805.34 482.5,935.1 482.5,990.79 " fill="none" id="Answer-backto-Justification" style="stroke:#181818;stroke-width:1.0;"/><polygon fill="#181818" points="482.5,723.15,478.5,729.15,482.5,735.15,486.5,729.15,482.5,723.15" style="stroke:#181818;stroke-width:1.0;"/><text fill="#000000" font-family="sans-serif" font-size="13" lengthAdjust="spacing" textLength="96" x="483.5" y="841.4951">[!answer.correct]</text><text fill="#000000" font-family="sans-serif" font-size="13" lengthAdjust="spacing" textLength="5" x="476.8594" y="980.0763">*</text></g><!--link Application to Justification--><g id="link_Application_Justification"><path codeLine="141" d="M301.4455,425.0617 C220.9655,454.1717 116.5,509.28 116.5,609 C116.5,609 116.5,609 116.5,837 C116.5,974.46 322.3237,1004.8054 423.6837,1011.6554 " fill="none" id="Application-Justification" style="stroke:#181818;stroke-width:1.0;"/><polygon fill="#181818" points="312.73,420.98,305.7272,419.2593,301.4455,425.0617,308.4483,426.7823,312.73,420.98" style="stroke:#181818;stroke-width:1.0;"/><polygon fill="#181818" points="429.67,1012.06,420.9602,1007.4623,424.6814,1011.7229,420.4208,1015.4441,429.67,1012.06" style="stroke:#181818;stroke-width:1.0;"/><text fill="#000000" font-family="sans-serif" font-size="13" lengthAdjust="spacing" textLength="117" x="117.5" y="686.9951">[!application.correct]</text><text fill="#000000" font-family="sans-serif" font-size="13" lengthAdjust="spacing" textLength="5" x="416.8892" y="1008.0414">*</text></g><!--SRC=[hLNRJkCm47tFLvZorbNvW0WXTKk5s8ls0lk4U72J8RLmxCXsw7Qx_FiwlYSD0QIDgYgPwvcPu_6wR0ki26VVALOFNDHelhWx5L3UBoxGxCCC_P8WilMKrOep1Knzn4g1s9_TyeOKx_AuLeI1m6AFSjHe4tZGt-L829v0cy-cmXIjLBoUHh5-mhJ5YhzINfTf_Hj4GIJuLFxx_PwNlCQ4lTzlsJIKM9Tfvy-CxoXKmL4tgO16NGdSRBCCRwGIk51ch8ViESkw5tJ-Tx50ju2BhHvsbDoejjGDphA2OYczWN6p4cVGITohdj4RAd3kOG9TWF21kWX3xnyjoCurTDx7kEH5MtSO0gYbKXfdxN35Bzqbnsdlupq-QRQG1mSEcVeQN3pY2WOSGwUKL5jL2G1so3Aa7niXSkzWfC_cFqgvJprwM8nn68sHfM6Cm4vanUk6IwB0EWwqDwHkw95gxYSIMv6bs1ElD6iYZl1VO5SQhWynZTZNnA0MSDBqGHRNzGrjuT3F5AdjyxX4KT6L_tReHjJ7R4GwIibtpFEdsr34C7dSHZVx9r1BfnnnGIeoOPhE9OA9IHodkcU12Yu4Q9RaQCCv1SmIi8bB67gFs_dTIHbipboe-pHhW9qs8GWNTdcR4dAaiAX0zIr2OLvoks_09W3MrZrnKfVUEU5zAIKl20xjJQcJogwPNaP4OGqd-bRwR5RHLnD2_oAp1ci5dUw1Khux38wWD-jr8GZDMNjrGHsxsDqVDrWowvx6eN4pxQbGN67c7fcmI9V1KQhO-ISGKiEMUfvVY5JdLdznXC2UetalyyIAHvv_YRa5C6nKX28LLc0sTQvl5a5ObQ0OkjcMVcsf8hhCrPOJHuDnmnNbVwRqtnfWu-faSvjzqHbrrfxgHhbaSgUlJhCtuqLeJxTL9HsmajSFjTM1lHUX73toDbOOJlycoz7T2JO6esVTz2J2s53C7bUyPIf7XAbqeLhxVhCFnmR9_FzJTGcXNjneE1h5Cf__0G00]--></g></svg>