<?xml version="1.0" encoding="us-ascii" standalone="no"?><svg xmlns="http://www.w3.org/2000/svg" xmlns:xlink="http://www.w3.org/1999/xlink" contentStyleType="text/css" height="1594px" preserveAspectRatio="none" style="width:1050px;height:1594px;background:#FFFFFF;" version="1.1" viewBox="0 0 1050 1594" width="1050px" zoomAndPan="magnify"><defs/><g><!--class Itinerary--><g id="elem_Itinerary"><rect codeLine="2" fill="#F1F1F1" height="83.2188" id="Itinerary" rx="2.5" ry="2.5" style="stroke:#181818;stroke-width:0.5;" width="134" x="318.5" y="379"/><ellipse cx="356.45" cy="395" fill="#ADD1B2" rx="11" ry="11" style="stroke:#181818;stroke-width:1.0;"/><path d="M359.2156,390.875 Q359.3719,390.6563 359.5594,390.5469 Q359.7469,390.4375 359.9656,390.4375 Q360.3406,390.4375 360.575,390.7031 Q360.8094,390.9531 360.8094,391.5625 L360.8094,393.0156 Q360.8094,393.625 360.575,393.8906 Q360.3406,394.1563 359.9656,394.1563 Q359.6219,394.1563 359.4188,393.9531 Q359.2156,393.7656 359.1063,393.25 Q359.0594,392.8906 358.8719,392.7031 Q358.5438,392.3281 357.9344,392.1094 Q357.325,391.8906 356.7,391.8906 Q355.9344,391.8906 355.2938,392.2188 Q354.6688,392.5469 354.1688,393.2969 Q353.6844,394.0469 353.6844,395.0781 L353.6844,396.1719 Q353.6844,397.4063 354.575,398.2344 Q355.4656,399.0469 357.0594,399.0469 Q357.9969,399.0469 358.6531,398.7969 Q359.0438,398.6406 359.4656,398.2031 Q359.7313,397.9375 359.8719,397.8594 Q360.0281,397.7813 360.2313,397.7813 Q360.5594,397.7813 360.8094,398.0469 Q361.075,398.2969 361.075,398.6406 Q361.075,398.9844 360.7313,399.3906 Q360.2313,399.9688 359.4344,400.2969 Q358.3563,400.75 357.0594,400.75 Q355.5438,400.75 354.3406,400.125 Q353.3563,399.625 352.6688,398.5625 Q351.9813,397.4844 351.9813,396.2031 L351.9813,395.0469 Q351.9813,393.7188 352.5906,392.5781 Q353.2156,391.4219 354.3094,390.8125 Q355.4031,390.1875 356.6375,390.1875 Q357.3719,390.1875 358.0125,390.3594 Q358.6688,390.5156 359.2156,390.875 Z " fill="#000000"/><text fill="#000000" font-family="sans-serif" font-size="14" lengthAdjust="spacing" textLength="51" x="375.55" y="400.7285">Itinerary</text><line style="stroke:#181818;stroke-width:0.5;" x1="319.5" x2="451.5" y1="411" y2="411"/><rect fill="none" height="6" style="stroke:#C82930;stroke-width:1.0;" width="6" x="326.5" y="422.3047"/><text fill="#000000" font-family="sans-serif" font-size="14" lengthAdjust="spacing" textLength="108" x="338.5" y="429.5332">custom : boolean</text><line style="stroke:#181818;stroke-width:0.5;" x1="319.5" x2="451.5" y1="436.6094" y2="436.6094"/><ellipse cx="329.5" cy="450.9141" fill="#84BE84" rx="3" ry="3" style="stroke:#038048;stroke-width:1.0;"/><text fill="#000000" font-family="sans-serif" font-size="14" lengthAdjust="spacing" textLength="34" x="338.5" y="455.1426">Edit()</text></g><!--class Topic--><g id="elem_Topic"><rect codeLine="7" fill="#F1F1F1" height="118.4375" id="Topic" rx="2.5" ry="2.5" style="stroke:#181818;stroke-width:0.5;" width="181" x="145" y="523"/><ellipse cx="213.75" cy="539" fill="#B4A7E5" rx="11" ry="11" style="stroke:#181818;stroke-width:1.0;"/><path d="M214.7031,535.6406 L214.7031,542.2969 L216.4219,542.2969 Q217.0313,542.2969 217.2969,542.5313 Q217.5625,542.7656 217.5625,543.1563 Q217.5625,543.5313 217.2969,543.7656 Q217.0313,544 216.4219,544 L211.2813,544 Q210.6719,544 210.4063,543.7656 Q210.1406,543.5313 210.1406,543.1406 Q210.1406,542.7656 210.4063,542.5313 Q210.6719,542.2969 211.2813,542.2969 L213,542.2969 L213,535.6406 L211.2813,535.6406 Q210.6719,535.6406 210.4063,535.4063 Q210.1406,535.1719 210.1406,534.7813 Q210.1406,534.4063 210.4063,534.1719 Q210.6719,533.9375 211.2813,533.9375 L216.4219,533.9375 Q217.0313,533.9375 217.2969,534.1719 Q217.5625,534.4063 217.5625,534.7813 Q217.5625,535.1719 217.2969,535.4063 Q217.0313,535.6406 216.4219,535.6406 L214.7031,535.6406 Z " fill="#000000"/><text fill="#000000" font-family="sans-serif" font-size="14" font-style="italic" lengthAdjust="spacing" textLength="35" x="234.25" y="544.7285">Topic</text><line style="stroke:#181818;stroke-width:0.5;" x1="146" x2="325" y1="555" y2="555"/><line style="stroke:#181818;stroke-width:0.5;" x1="146" x2="325" y1="563" y2="563"/><ellipse cx="156" cy="577.3047" fill="#84BE84" rx="3" ry="3" style="stroke:#038048;stroke-width:1.0;"/><text fill="#000000" font-family="sans-serif" font-size="14" lengthAdjust="spacing" textLength="138" x="165" y="581.5332">getTableOfContents()</text><ellipse cx="156" cy="594.9141" fill="#84BE84" rx="3" ry="3" style="stroke:#038048;stroke-width:1.0;"/><text fill="#000000" font-family="sans-serif" font-size="14" lengthAdjust="spacing" textLength="155" x="165" y="599.1426">getSyllabus() : Concepts</text><ellipse cx="156" cy="612.5234" fill="#84BE84" rx="3" ry="3" style="stroke:#038048;stroke-width:1.0;"/><text fill="#000000" font-family="sans-serif" font-size="14" lengthAdjust="spacing" textLength="34" x="165" y="616.752">Edit()</text><ellipse cx="156" cy="630.1328" fill="#84BE84" rx="3" ry="3" style="stroke:#038048;stroke-width:1.0;"/><text fill="#000000" font-family="sans-serif" font-size="14" lengthAdjust="spacing" textLength="44" x="165" y="634.3613">Read()</text></g><!--class SimpleTopic--><g id="elem_SimpleTopic"><rect codeLine="15" fill="#F1F1F1" height="48" id="SimpleTopic" rx="2.5" ry="2.5" style="stroke:#181818;stroke-width:0.5;" width="109" x="7" y="798"/><ellipse cx="22" cy="814" fill="#ADD1B2" rx="11" ry="11" style="stroke:#181818;stroke-width:1.0;"/><path d="M24.7656,809.875 Q24.9219,809.6563 25.1094,809.5469 Q25.2969,809.4375 25.5156,809.4375 Q25.8906,809.4375 26.125,809.7031 Q26.3594,809.9531 26.3594,810.5625 L26.3594,812.0156 Q26.3594,812.625 26.125,812.8906 Q25.8906,813.1563 25.5156,813.1563 Q25.1719,813.1563 24.9688,812.9531 Q24.7656,812.7656 24.6563,812.25 Q24.6094,811.8906 24.4219,811.7031 Q24.0938,811.3281 23.4844,811.1094 Q22.875,810.8906 22.25,810.8906 Q21.4844,810.8906 20.8438,811.2188 Q20.2188,811.5469 19.7188,812.2969 Q19.2344,813.0469 19.2344,814.0781 L19.2344,815.1719 Q19.2344,816.4063 20.125,817.2344 Q21.0156,818.0469 22.6094,818.0469 Q23.5469,818.0469 24.2031,817.7969 Q24.5938,817.6406 25.0156,817.2031 Q25.2813,816.9375 25.4219,816.8594 Q25.5781,816.7813 25.7813,816.7813 Q26.1094,816.7813 26.3594,817.0469 Q26.625,817.2969 26.625,817.6406 Q26.625,817.9844 26.2813,818.3906 Q25.7813,818.9688 24.9844,819.2969 Q23.9063,819.75 22.6094,819.75 Q21.0938,819.75 19.8906,819.125 Q18.9063,818.625 18.2188,817.5625 Q17.5313,816.4844 17.5313,815.2031 L17.5313,814.0469 Q17.5313,812.7188 18.1406,811.5781 Q18.7656,810.4219 19.8594,809.8125 Q20.9531,809.1875 22.1875,809.1875 Q22.9219,809.1875 23.5625,809.3594 Q24.2188,809.5156 24.7656,809.875 Z " fill="#000000"/><text fill="#000000" font-family="sans-serif" font-size="14" lengthAdjust="spacing" textLength="77" x="36" y="819.7285">SimpleTopic</text><line style="stroke:#181818;stroke-width:0.5;" x1="8" x2="115" y1="830" y2="830"/><line style="stroke:#181818;stroke-width:0.5;" x1="8" x2="115" y1="838" y2="838"/></g><!--class CompositeTopic--><g id="elem_CompositeTopic"><rect codeLine="18" fill="#F1F1F1" height="65.6094" id="CompositeTopic" rx="2.5" ry="2.5" style="stroke:#181818;stroke-width:0.5;" width="148" x="113.5" y="702"/><ellipse cx="134.8" cy="718" fill="#ADD1B2" rx="11" ry="11" style="stroke:#181818;stroke-width:1.0;"/><path d="M137.5656,713.875 Q137.7219,713.6563 137.9094,713.5469 Q138.0969,713.4375 138.3156,713.4375 Q138.6906,713.4375 138.925,713.7031 Q139.1594,713.9531 139.1594,714.5625 L139.1594,716.0156 Q139.1594,716.625 138.925,716.8906 Q138.6906,717.1563 138.3156,717.1563 Q137.9719,717.1563 137.7688,716.9531 Q137.5656,716.7656 137.4563,716.25 Q137.4094,715.8906 137.2219,715.7031 Q136.8938,715.3281 136.2844,715.1094 Q135.675,714.8906 135.05,714.8906 Q134.2844,714.8906 133.6438,715.2188 Q133.0188,715.5469 132.5188,716.2969 Q132.0344,717.0469 132.0344,718.0781 L132.0344,719.1719 Q132.0344,720.4063 132.925,721.2344 Q133.8156,722.0469 135.4094,722.0469 Q136.3469,722.0469 137.0031,721.7969 Q137.3938,721.6406 137.8156,721.2031 Q138.0813,720.9375 138.2219,720.8594 Q138.3781,720.7813 138.5813,720.7813 Q138.9094,720.7813 139.1594,721.0469 Q139.425,721.2969 139.425,721.6406 Q139.425,721.9844 139.0813,722.3906 Q138.5813,722.9688 137.7844,723.2969 Q136.7063,723.75 135.4094,723.75 Q133.8938,723.75 132.6906,723.125 Q131.7063,722.625 131.0188,721.5625 Q130.3313,720.4844 130.3313,719.2031 L130.3313,718.0469 Q130.3313,716.7188 130.9406,715.5781 Q131.5656,714.4219 132.6594,713.8125 Q133.7531,713.1875 134.9875,713.1875 Q135.7219,713.1875 136.3625,713.3594 Q137.0188,713.5156 137.5656,713.875 Z " fill="#000000"/><text fill="#000000" font-family="sans-serif" font-size="14" lengthAdjust="spacing" textLength="102" x="150.2" y="723.7285">CompositeTopic</text><line style="stroke:#181818;stroke-width:0.5;" x1="114.5" x2="260.5" y1="734" y2="734"/><rect fill="none" height="6" style="stroke:#C82930;stroke-width:1.0;" width="6" x="121.5" y="745.3047"/><text fill="#000000" font-family="sans-serif" font-size="14" lengthAdjust="spacing" textLength="122" x="133.5" y="752.5332">topics : List&lt;Topic&gt;</text><line style="stroke:#181818;stroke-width:0.5;" x1="114.5" x2="260.5" y1="759.6094" y2="759.6094"/></g><!--class Excercise--><g id="elem_Excercise"><rect codeLine="22" fill="#F1F1F1" height="48" id="Excercise" rx="2.5" ry="2.5" style="stroke:#181818;stroke-width:0.5;" width="92" x="576.5" y="711"/><ellipse cx="591.5" cy="727" fill="#A9DCDF" rx="11" ry="11" style="stroke:#181818;stroke-width:1.0;"/><path d="M593.6875,728.7656 L589.5469,728.7656 L589.125,729.7969 L589.5469,729.7969 Q590.1563,729.7969 590.4219,730.0313 Q590.6875,730.2656 590.6875,730.6563 Q590.6875,731.0313 590.4219,731.2656 Q590.1563,731.5 589.5469,731.5 L587.25,731.5 Q586.6406,731.5 586.3906,731.2656 Q586.125,731.0313 586.125,730.6406 Q586.125,730.2656 586.4063,730.0313 Q586.6719,729.7813 587.2969,729.7969 L589.9688,723.1406 L588.8594,723.1406 Q588.25,723.1406 587.9844,722.9063 Q587.7188,722.6719 587.7188,722.2813 Q587.7188,721.9063 587.9844,721.6719 Q588.25,721.4375 588.8594,721.4375 L592.5313,721.4375 L595.9219,729.7969 Q596.5156,729.7969 596.7031,729.9375 Q597.0938,730.2031 597.0938,730.6563 Q597.0938,731.0313 596.8281,731.2656 Q596.5781,731.5 595.9688,731.5 L593.6719,731.5 Q593.0625,731.5 592.7969,731.2656 Q592.5313,731.0313 592.5313,730.6406 Q592.5313,730.2656 592.7969,730.0313 Q593.0625,729.7969 593.6719,729.7969 L594.0938,729.7969 L593.6875,728.7656 Z M592.9688,727.0625 L591.6094,723.6875 L590.2344,727.0625 L592.9688,727.0625 Z " fill="#000000"/><text fill="#000000" font-family="sans-serif" font-size="14" font-style="italic" lengthAdjust="spacing" textLength="60" x="605.5" y="732.7285">Excercise</text><line style="stroke:#181818;stroke-width:0.5;" x1="577.5" x2="667.5" y1="743" y2="743"/><line style="stroke:#181818;stroke-width:0.5;" x1="577.5" x2="667.5" y1="751" y2="751"/></g><!--class Domain--><g id="elem_Domain"><rect codeLine="25" fill="#F1F1F1" height="48" id="Domain" rx="2.5" ry="2.5" style="stroke:#181818;stroke-width:0.5;" width="80" x="414.5" y="885"/><ellipse cx="429.5" cy="901" fill="#ADD1B2" rx="11" ry="11" style="stroke:#181818;stroke-width:1.0;"/><path d="M432.2656,896.875 Q432.4219,896.6563 432.6094,896.5469 Q432.7969,896.4375 433.0156,896.4375 Q433.3906,896.4375 433.625,896.7031 Q433.8594,896.9531 433.8594,897.5625 L433.8594,899.0156 Q433.8594,899.625 433.625,899.8906 Q433.3906,900.1563 433.0156,900.1563 Q432.6719,900.1563 432.4688,899.9531 Q432.2656,899.7656 432.1563,899.25 Q432.1094,898.8906 431.9219,898.7031 Q431.5938,898.3281 430.9844,898.1094 Q430.375,897.8906 429.75,897.8906 Q428.9844,897.8906 428.3438,898.2188 Q427.7188,898.5469 427.2188,899.2969 Q426.7344,900.0469 426.7344,901.0781 L426.7344,902.1719 Q426.7344,903.4063 427.625,904.2344 Q428.5156,905.0469 430.1094,905.0469 Q431.0469,905.0469 431.7031,904.7969 Q432.0938,904.6406 432.5156,904.2031 Q432.7813,903.9375 432.9219,903.8594 Q433.0781,903.7813 433.2813,903.7813 Q433.6094,903.7813 433.8594,904.0469 Q434.125,904.2969 434.125,904.6406 Q434.125,904.9844 433.7813,905.3906 Q433.2813,905.9688 432.4844,906.2969 Q431.4063,906.75 430.1094,906.75 Q428.5938,906.75 427.3906,906.125 Q426.4063,905.625 425.7188,904.5625 Q425.0313,903.4844 425.0313,902.2031 L425.0313,901.0469 Q425.0313,899.7188 425.6406,898.5781 Q426.2656,897.4219 427.3594,896.8125 Q428.4531,896.1875 429.6875,896.1875 Q430.4219,896.1875 431.0625,896.3594 Q431.7188,896.5156 432.2656,896.875 Z " fill="#000000"/><text fill="#000000" font-family="sans-serif" font-size="14" lengthAdjust="spacing" textLength="48" x="443.5" y="906.7285">Domain</text><line style="stroke:#181818;stroke-width:0.5;" x1="415.5" x2="493.5" y1="917" y2="917"/><line style="stroke:#181818;stroke-width:0.5;" x1="415.5" x2="493.5" y1="925" y2="925"/></g><!--class Application--><g id="elem_Application"><rect codeLine="28" fill="#F1F1F1" height="83.2188" id="Application" rx="2.5" ry="2.5" style="stroke:#181818;stroke-width:0.5;" width="133" x="321" y="1037.5"/><ellipse cx="350.4" cy="1053.5" fill="#ADD1B2" rx="11" ry="11" style="stroke:#181818;stroke-width:1.0;"/><path d="M353.1656,1049.375 Q353.3219,1049.1563 353.5094,1049.0469 Q353.6969,1048.9375 353.9156,1048.9375 Q354.2906,1048.9375 354.525,1049.2031 Q354.7594,1049.4531 354.7594,1050.0625 L354.7594,1051.5156 Q354.7594,1052.125 354.525,1052.3906 Q354.2906,1052.6563 353.9156,1052.6563 Q353.5719,1052.6563 353.3688,1052.4531 Q353.1656,1052.2656 353.0563,1051.75 Q353.0094,1051.3906 352.8219,1051.2031 Q352.4938,1050.8281 351.8844,1050.6094 Q351.275,1050.3906 350.65,1050.3906 Q349.8844,1050.3906 349.2438,1050.7188 Q348.6188,1051.0469 348.1188,1051.7969 Q347.6344,1052.5469 347.6344,1053.5781 L347.6344,1054.6719 Q347.6344,1055.9063 348.525,1056.7344 Q349.4156,1057.5469 351.0094,1057.5469 Q351.9469,1057.5469 352.6031,1057.2969 Q352.9938,1057.1406 353.4156,1056.7031 Q353.6813,1056.4375 353.8219,1056.3594 Q353.9781,1056.2813 354.1813,1056.2813 Q354.5094,1056.2813 354.7594,1056.5469 Q355.025,1056.7969 355.025,1057.1406 Q355.025,1057.4844 354.6813,1057.8906 Q354.1813,1058.4688 353.3844,1058.7969 Q352.3063,1059.25 351.0094,1059.25 Q349.4938,1059.25 348.2906,1058.625 Q347.3063,1058.125 346.6188,1057.0625 Q345.9313,1055.9844 345.9313,1054.7031 L345.9313,1053.5469 Q345.9313,1052.2188 346.5406,1051.0781 Q347.1656,1049.9219 348.2594,1049.3125 Q349.3531,1048.6875 350.5875,1048.6875 Q351.3219,1048.6875 351.9625,1048.8594 Q352.6188,1049.0156 353.1656,1049.375 Z " fill="#000000"/><text fill="#000000" font-family="sans-serif" font-size="14" lengthAdjust="spacing" textLength="69" x="367.6" y="1059.2285">Application</text><line style="stroke:#181818;stroke-width:0.5;" x1="322" x2="453" y1="1069.5" y2="1069.5"/><rect fill="none" height="6" style="stroke:#C82930;stroke-width:1.0;" width="6" x="329" y="1080.8047"/><text fill="#000000" font-family="sans-serif" font-size="14" lengthAdjust="spacing" textLength="107" x="341" y="1088.0332">correct : boolean</text><rect fill="none" height="6" style="stroke:#C82930;stroke-width:1.0;" width="6" x="329" y="1098.4141"/><text fill="#000000" font-family="sans-serif" font-size="14" lengthAdjust="spacing" textLength="48" x="341" y="1105.6426">Version</text><line style="stroke:#181818;stroke-width:0.5;" x1="322" x2="453" y1="1112.7188" y2="1112.7188"/></g><!--class Question--><g id="elem_Question"><rect codeLine="33" fill="#F1F1F1" height="65.6094" id="Question" rx="2.5" ry="2.5" style="stroke:#181818;stroke-width:0.5;" width="196" x="529.5" y="876"/><ellipse cx="594.75" cy="892" fill="#ADD1B2" rx="11" ry="11" style="stroke:#181818;stroke-width:1.0;"/><path d="M597.5156,887.875 Q597.6719,887.6563 597.8594,887.5469 Q598.0469,887.4375 598.2656,887.4375 Q598.6406,887.4375 598.875,887.7031 Q599.1094,887.9531 599.1094,888.5625 L599.1094,890.0156 Q599.1094,890.625 598.875,890.8906 Q598.6406,891.1563 598.2656,891.1563 Q597.9219,891.1563 597.7188,890.9531 Q597.5156,890.7656 597.4063,890.25 Q597.3594,889.8906 597.1719,889.7031 Q596.8438,889.3281 596.2344,889.1094 Q595.625,888.8906 595,888.8906 Q594.2344,888.8906 593.5938,889.2188 Q592.9688,889.5469 592.4688,890.2969 Q591.9844,891.0469 591.9844,892.0781 L591.9844,893.1719 Q591.9844,894.4063 592.875,895.2344 Q593.7656,896.0469 595.3594,896.0469 Q596.2969,896.0469 596.9531,895.7969 Q597.3438,895.6406 597.7656,895.2031 Q598.0313,894.9375 598.1719,894.8594 Q598.3281,894.7813 598.5313,894.7813 Q598.8594,894.7813 599.1094,895.0469 Q599.375,895.2969 599.375,895.6406 Q599.375,895.9844 599.0313,896.3906 Q598.5313,896.9688 597.7344,897.2969 Q596.6563,897.75 595.3594,897.75 Q593.8438,897.75 592.6406,897.125 Q591.6563,896.625 590.9688,895.5625 Q590.2813,894.4844 590.2813,893.2031 L590.2813,892.0469 Q590.2813,890.7188 590.8906,889.5781 Q591.5156,888.4219 592.6094,887.8125 Q593.7031,887.1875 594.9375,887.1875 Q595.6719,887.1875 596.3125,887.3594 Q596.9688,887.5156 597.5156,887.875 Z " fill="#000000"/><text fill="#000000" font-family="sans-serif" font-size="14" lengthAdjust="spacing" textLength="57" x="615.25" y="897.7285">Question</text><line style="stroke:#181818;stroke-width:0.5;" x1="530.5" x2="724.5" y1="908" y2="908"/><rect fill="none" height="6" style="stroke:#C82930;stroke-width:1.0;" width="6" x="537.5" y="919.3047"/><text fill="#000000" font-family="sans-serif" font-size="14" lengthAdjust="spacing" textLength="170" x="549.5" y="926.5332">statement : StatementType</text><line style="stroke:#181818;stroke-width:0.5;" x1="530.5" x2="724.5" y1="933.6094" y2="933.6094"/></g><!--class StatementType--><g id="elem_StatementType"><rect codeLine="37" fill="#F1F1F1" height="118.4375" id="StatementType" rx="2.5" ry="2.5" style="stroke:#181818;stroke-width:0.5;" width="128" x="915.5" y="1020"/><ellipse cx="930.5" cy="1036" fill="#EB937F" rx="11" ry="11" style="stroke:#181818;stroke-width:1.0;"/><path d="M929.3594,1036.7969 L929.3594,1039.2969 L933.6875,1039.2969 L933.6875,1038.375 Q933.6875,1037.7656 933.9219,1037.5 Q934.1719,1037.2344 934.5469,1037.2344 Q934.9219,1037.2344 935.1563,1037.5 Q935.3906,1037.7656 935.3906,1038.375 L935.3906,1041 L927.3906,1041 Q926.7656,1041 926.5,1040.7656 Q926.25,1040.5313 926.25,1040.1406 Q926.25,1039.7656 926.5156,1039.5313 Q926.7813,1039.2969 927.3906,1039.2969 L927.6563,1039.2969 L927.6563,1032.6406 L927.3906,1032.6406 Q926.7656,1032.6406 926.5,1032.4063 Q926.25,1032.1719 926.25,1031.7813 Q926.25,1031.4063 926.5,1031.1719 Q926.7656,1030.9375 927.3906,1030.9375 L935.0156,1030.9375 L935.0156,1033.5313 Q935.0156,1034.1406 934.7813,1034.4063 Q934.5625,1034.6563 934.1719,1034.6563 Q933.7969,1034.6563 933.5625,1034.4063 Q933.3281,1034.1406 933.3281,1033.5313 L933.3281,1032.6406 L929.3594,1032.6406 L929.3594,1035.0938 L930.8438,1035.0938 Q930.8438,1034.4375 930.9688,1034.25 Q931.2344,1033.8438 931.7031,1033.8438 Q932.0781,1033.8438 932.3125,1034.1094 Q932.5469,1034.3594 932.5469,1034.9688 L932.5469,1036.9375 Q932.5469,1037.4844 932.4219,1037.6719 Q932.1563,1038.0625 931.7031,1038.0625 Q931.2344,1038.0625 930.9688,1037.6563 Q930.8438,1037.4688 930.8438,1036.7969 L929.3594,1036.7969 Z " fill="#000000"/><text fill="#000000" font-family="sans-serif" font-size="14" lengthAdjust="spacing" textLength="96" x="944.5" y="1041.7285">StatementType</text><line style="stroke:#181818;stroke-width:0.5;" x1="916.5" x2="1042.5" y1="1052" y2="1052"/><text fill="#000000" font-family="sans-serif" font-size="14" lengthAdjust="spacing" textLength="63" x="921.5" y="1070.5332">ClozeTest</text><text fill="#000000" font-family="sans-serif" font-size="14" lengthAdjust="spacing" textLength="59" x="921.5" y="1088.1426">Definition</text><text fill="#000000" font-family="sans-serif" font-size="14" lengthAdjust="spacing" textLength="52" x="921.5" y="1105.752">Relation</text><text fill="#000000" font-family="sans-serif" font-size="14" lengthAdjust="spacing" textLength="108" x="921.5" y="1123.3613">JustifyApplication</text><line style="stroke:#181818;stroke-width:0.5;" x1="916.5" x2="1042.5" y1="1130.4375" y2="1130.4375"/></g><!--class Text--><g id="elem_Text"><rect codeLine="44" fill="#F1F1F1" height="83.2188" id="Text" rx="2.5" ry="2.5" style="stroke:#181818;stroke-width:0.5;" width="129" x="145" y="1037.5"/><ellipse cx="191.75" cy="1053.5" fill="#ADD1B2" rx="11" ry="11" style="stroke:#181818;stroke-width:1.0;"/><path d="M194.5156,1049.375 Q194.6719,1049.1563 194.8594,1049.0469 Q195.0469,1048.9375 195.2656,1048.9375 Q195.6406,1048.9375 195.875,1049.2031 Q196.1094,1049.4531 196.1094,1050.0625 L196.1094,1051.5156 Q196.1094,1052.125 195.875,1052.3906 Q195.6406,1052.6563 195.2656,1052.6563 Q194.9219,1052.6563 194.7188,1052.4531 Q194.5156,1052.2656 194.4063,1051.75 Q194.3594,1051.3906 194.1719,1051.2031 Q193.8438,1050.8281 193.2344,1050.6094 Q192.625,1050.3906 192,1050.3906 Q191.2344,1050.3906 190.5938,1050.7188 Q189.9688,1051.0469 189.4688,1051.7969 Q188.9844,1052.5469 188.9844,1053.5781 L188.9844,1054.6719 Q188.9844,1055.9063 189.875,1056.7344 Q190.7656,1057.5469 192.3594,1057.5469 Q193.2969,1057.5469 193.9531,1057.2969 Q194.3438,1057.1406 194.7656,1056.7031 Q195.0313,1056.4375 195.1719,1056.3594 Q195.3281,1056.2813 195.5313,1056.2813 Q195.8594,1056.2813 196.1094,1056.5469 Q196.375,1056.7969 196.375,1057.1406 Q196.375,1057.4844 196.0313,1057.8906 Q195.5313,1058.4688 194.7344,1058.7969 Q193.6563,1059.25 192.3594,1059.25 Q190.8438,1059.25 189.6406,1058.625 Q188.6563,1058.125 187.9688,1057.0625 Q187.2813,1055.9844 187.2813,1054.7031 L187.2813,1053.5469 Q187.2813,1052.2188 187.8906,1051.0781 Q188.5156,1049.9219 189.6094,1049.3125 Q190.7031,1048.6875 191.9375,1048.6875 Q192.6719,1048.6875 193.3125,1048.8594 Q193.9688,1049.0156 194.5156,1049.375 Z " fill="#000000"/><text fill="#000000" font-family="sans-serif" font-size="14" lengthAdjust="spacing" textLength="27" x="212.25" y="1059.2285">Text</text><line style="stroke:#181818;stroke-width:0.5;" x1="146" x2="273" y1="1069.5" y2="1069.5"/><rect fill="none" height="6" style="stroke:#C82930;stroke-width:1.0;" width="6" x="153" y="1080.8047"/><text fill="#000000" font-family="sans-serif" font-size="14" lengthAdjust="spacing" textLength="103" x="165" y="1088.0332">tableOfContents</text><rect fill="none" height="6" style="stroke:#C82930;stroke-width:1.0;" width="6" x="153" y="1098.4141"/><text fill="#000000" font-family="sans-serif" font-size="14" lengthAdjust="spacing" textLength="45" x="165" y="1105.6426">images</text><line style="stroke:#181818;stroke-width:0.5;" x1="146" x2="273" y1="1112.7188" y2="1112.7188"/></g><!--class Concept--><g id="elem_Concept"><rect codeLine="49" fill="#F1F1F1" height="48" id="Concept" rx="2.5" ry="2.5" style="stroke:#181818;stroke-width:0.5;" width="85" x="245" y="1199"/><ellipse cx="260" cy="1215" fill="#ADD1B2" rx="11" ry="11" style="stroke:#181818;stroke-width:1.0;"/><path d="M262.7656,1210.875 Q262.9219,1210.6563 263.1094,1210.5469 Q263.2969,1210.4375 263.5156,1210.4375 Q263.8906,1210.4375 264.125,1210.7031 Q264.3594,1210.9531 264.3594,1211.5625 L264.3594,1213.0156 Q264.3594,1213.625 264.125,1213.8906 Q263.8906,1214.1563 263.5156,1214.1563 Q263.1719,1214.1563 262.9688,1213.9531 Q262.7656,1213.7656 262.6563,1213.25 Q262.6094,1212.8906 262.4219,1212.7031 Q262.0938,1212.3281 261.4844,1212.1094 Q260.875,1211.8906 260.25,1211.8906 Q259.4844,1211.8906 258.8438,1212.2188 Q258.2188,1212.5469 257.7188,1213.2969 Q257.2344,1214.0469 257.2344,1215.0781 L257.2344,1216.1719 Q257.2344,1217.4063 258.125,1218.2344 Q259.0156,1219.0469 260.6094,1219.0469 Q261.5469,1219.0469 262.2031,1218.7969 Q262.5938,1218.6406 263.0156,1218.2031 Q263.2813,1217.9375 263.4219,1217.8594 Q263.5781,1217.7813 263.7813,1217.7813 Q264.1094,1217.7813 264.3594,1218.0469 Q264.625,1218.2969 264.625,1218.6406 Q264.625,1218.9844 264.2813,1219.3906 Q263.7813,1219.9688 262.9844,1220.2969 Q261.9063,1220.75 260.6094,1220.75 Q259.0938,1220.75 257.8906,1220.125 Q256.9063,1219.625 256.2188,1218.5625 Q255.5313,1217.4844 255.5313,1216.2031 L255.5313,1215.0469 Q255.5313,1213.7188 256.1406,1212.5781 Q256.7656,1211.4219 257.8594,1210.8125 Q258.9531,1210.1875 260.1875,1210.1875 Q260.9219,1210.1875 261.5625,1210.3594 Q262.2188,1210.5156 262.7656,1210.875 Z " fill="#000000"/><text fill="#000000" font-family="sans-serif" font-size="14" lengthAdjust="spacing" textLength="53" x="274" y="1220.7285">Concept</text><line style="stroke:#181818;stroke-width:0.5;" x1="246" x2="329" y1="1231" y2="1231"/><line style="stroke:#181818;stroke-width:0.5;" x1="246" x2="329" y1="1239" y2="1239"/></g><!--class Definition--><g id="elem_Definition"><rect codeLine="52" fill="#F1F1F1" height="65.6094" id="Definition" rx="2.5" ry="2.5" style="stroke:#181818;stroke-width:0.5;" width="133" x="124" y="1360"/><ellipse cx="157.9" cy="1376" fill="#ADD1B2" rx="11" ry="11" style="stroke:#181818;stroke-width:1.0;"/><path d="M160.6656,1371.875 Q160.8219,1371.6563 161.0094,1371.5469 Q161.1969,1371.4375 161.4156,1371.4375 Q161.7906,1371.4375 162.025,1371.7031 Q162.2594,1371.9531 162.2594,1372.5625 L162.2594,1374.0156 Q162.2594,1374.625 162.025,1374.8906 Q161.7906,1375.1563 161.4156,1375.1563 Q161.0719,1375.1563 160.8688,1374.9531 Q160.6656,1374.7656 160.5563,1374.25 Q160.5094,1373.8906 160.3219,1373.7031 Q159.9938,1373.3281 159.3844,1373.1094 Q158.775,1372.8906 158.15,1372.8906 Q157.3844,1372.8906 156.7438,1373.2188 Q156.1188,1373.5469 155.6188,1374.2969 Q155.1344,1375.0469 155.1344,1376.0781 L155.1344,1377.1719 Q155.1344,1378.4063 156.025,1379.2344 Q156.9156,1380.0469 158.5094,1380.0469 Q159.4469,1380.0469 160.1031,1379.7969 Q160.4938,1379.6406 160.9156,1379.2031 Q161.1813,1378.9375 161.3219,1378.8594 Q161.4781,1378.7813 161.6813,1378.7813 Q162.0094,1378.7813 162.2594,1379.0469 Q162.525,1379.2969 162.525,1379.6406 Q162.525,1379.9844 162.1813,1380.3906 Q161.6813,1380.9688 160.8844,1381.2969 Q159.8063,1381.75 158.5094,1381.75 Q156.9938,1381.75 155.7906,1381.125 Q154.8063,1380.625 154.1188,1379.5625 Q153.4313,1378.4844 153.4313,1377.2031 L153.4313,1376.0469 Q153.4313,1374.7188 154.0406,1373.5781 Q154.6656,1372.4219 155.7594,1371.8125 Q156.8531,1371.1875 158.0875,1371.1875 Q158.8219,1371.1875 159.4625,1371.3594 Q160.1188,1371.5156 160.6656,1371.875 Z " fill="#000000"/><text fill="#000000" font-family="sans-serif" font-size="14" lengthAdjust="spacing" textLength="59" x="176.1" y="1381.7285">Definition</text><line style="stroke:#181818;stroke-width:0.5;" x1="125" x2="256" y1="1392" y2="1392"/><rect fill="none" height="6" style="stroke:#C82930;stroke-width:1.0;" width="6" x="132" y="1403.3047"/><text fill="#000000" font-family="sans-serif" font-size="14" lengthAdjust="spacing" textLength="107" x="144" y="1410.5332">correct : boolean</text><line style="stroke:#181818;stroke-width:0.5;" x1="125" x2="256" y1="1417.6094" y2="1417.6094"/></g><!--class Justification--><g id="elem_Justification"><rect codeLine="56" fill="#F1F1F1" height="65.6094" id="Justification" rx="2.5" ry="2.5" style="stroke:#181818;stroke-width:0.5;" width="133" x="351" y="1522"/><ellipse cx="378.6" cy="1538" fill="#ADD1B2" rx="11" ry="11" style="stroke:#181818;stroke-width:1.0;"/><path d="M381.3656,1533.875 Q381.5219,1533.6563 381.7094,1533.5469 Q381.8969,1533.4375 382.1156,1533.4375 Q382.4906,1533.4375 382.725,1533.7031 Q382.9594,1533.9531 382.9594,1534.5625 L382.9594,1536.0156 Q382.9594,1536.625 382.725,1536.8906 Q382.4906,1537.1563 382.1156,1537.1563 Q381.7719,1537.1563 381.5688,1536.9531 Q381.3656,1536.7656 381.2563,1536.25 Q381.2094,1535.8906 381.0219,1535.7031 Q380.6938,1535.3281 380.0844,1535.1094 Q379.475,1534.8906 378.85,1534.8906 Q378.0844,1534.8906 377.4438,1535.2188 Q376.8188,1535.5469 376.3188,1536.2969 Q375.8344,1537.0469 375.8344,1538.0781 L375.8344,1539.1719 Q375.8344,1540.4063 376.725,1541.2344 Q377.6156,1542.0469 379.2094,1542.0469 Q380.1469,1542.0469 380.8031,1541.7969 Q381.1938,1541.6406 381.6156,1541.2031 Q381.8813,1540.9375 382.0219,1540.8594 Q382.1781,1540.7813 382.3813,1540.7813 Q382.7094,1540.7813 382.9594,1541.0469 Q383.225,1541.2969 383.225,1541.6406 Q383.225,1541.9844 382.8813,1542.3906 Q382.3813,1542.9688 381.5844,1543.2969 Q380.5063,1543.75 379.2094,1543.75 Q377.6938,1543.75 376.4906,1543.125 Q375.5063,1542.625 374.8188,1541.5625 Q374.1313,1540.4844 374.1313,1539.2031 L374.1313,1538.0469 Q374.1313,1536.7188 374.7406,1535.5781 Q375.3656,1534.4219 376.4594,1533.8125 Q377.5531,1533.1875 378.7875,1533.1875 Q379.5219,1533.1875 380.1625,1533.3594 Q380.8188,1533.5156 381.3656,1533.875 Z " fill="#000000"/><text fill="#000000" font-family="sans-serif" font-size="14" lengthAdjust="spacing" textLength="73" x="395.4" y="1543.7285">Justification</text><line style="stroke:#181818;stroke-width:0.5;" x1="352" x2="483" y1="1554" y2="1554"/><rect fill="none" height="6" style="stroke:#C82930;stroke-width:1.0;" width="6" x="359" y="1565.3047"/><text fill="#000000" font-family="sans-serif" font-size="14" lengthAdjust="spacing" textLength="107" x="371" y="1572.5332">correct : boolean</text><line style="stroke:#181818;stroke-width:0.5;" x1="352" x2="483" y1="1579.6094" y2="1579.6094"/></g><!--class Multimedia--><g id="elem_Multimedia"><rect codeLine="60" fill="#F1F1F1" height="48" id="Multimedia" rx="2.5" ry="2.5" style="stroke:#181818;stroke-width:0.5;" width="99" x="297" y="711"/><ellipse cx="312" cy="727" fill="#ADD1B2" rx="11" ry="11" style="stroke:#181818;stroke-width:1.0;"/><path d="M314.7656,722.875 Q314.9219,722.6563 315.1094,722.5469 Q315.2969,722.4375 315.5156,722.4375 Q315.8906,722.4375 316.125,722.7031 Q316.3594,722.9531 316.3594,723.5625 L316.3594,725.0156 Q316.3594,725.625 316.125,725.8906 Q315.8906,726.1563 315.5156,726.1563 Q315.1719,726.1563 314.9688,725.9531 Q314.7656,725.7656 314.6563,725.25 Q314.6094,724.8906 314.4219,724.7031 Q314.0938,724.3281 313.4844,724.1094 Q312.875,723.8906 312.25,723.8906 Q311.4844,723.8906 310.8438,724.2188 Q310.2188,724.5469 309.7188,725.2969 Q309.2344,726.0469 309.2344,727.0781 L309.2344,728.1719 Q309.2344,729.4063 310.125,730.2344 Q311.0156,731.0469 312.6094,731.0469 Q313.5469,731.0469 314.2031,730.7969 Q314.5938,730.6406 315.0156,730.2031 Q315.2813,729.9375 315.4219,729.8594 Q315.5781,729.7813 315.7813,729.7813 Q316.1094,729.7813 316.3594,730.0469 Q316.625,730.2969 316.625,730.6406 Q316.625,730.9844 316.2813,731.3906 Q315.7813,731.9688 314.9844,732.2969 Q313.9063,732.75 312.6094,732.75 Q311.0938,732.75 309.8906,732.125 Q308.9063,731.625 308.2188,730.5625 Q307.5313,729.4844 307.5313,728.2031 L307.5313,727.0469 Q307.5313,725.7188 308.1406,724.5781 Q308.7656,723.4219 309.8594,722.8125 Q310.9531,722.1875 312.1875,722.1875 Q312.9219,722.1875 313.5625,722.3594 Q314.2188,722.5156 314.7656,722.875 Z " fill="#000000"/><text fill="#000000" font-family="sans-serif" font-size="14" lengthAdjust="spacing" textLength="67" x="326" y="732.7285">Multimedia</text><line style="stroke:#181818;stroke-width:0.5;" x1="298" x2="395" y1="743" y2="743"/><line style="stroke:#181818;stroke-width:0.5;" x1="298" x2="395" y1="751" y2="751"/></g><!--class Solution--><g id="elem_Solution"><rect codeLine="64" fill="#F1F1F1" height="65.6094" id="Solution" rx="2.5" ry="2.5" style="stroke:#181818;stroke-width:0.5;" width="133" x="561" y="1046"/><ellipse cx="598.5" cy="1062" fill="#A9DCDF" rx="11" ry="11" style="stroke:#181818;stroke-width:1.0;"/><path d="M600.6875,1063.7656 L596.5469,1063.7656 L596.125,1064.7969 L596.5469,1064.7969 Q597.1563,1064.7969 597.4219,1065.0313 Q597.6875,1065.2656 597.6875,1065.6563 Q597.6875,1066.0313 597.4219,1066.2656 Q597.1563,1066.5 596.5469,1066.5 L594.25,1066.5 Q593.6406,1066.5 593.3906,1066.2656 Q593.125,1066.0313 593.125,1065.6406 Q593.125,1065.2656 593.4063,1065.0313 Q593.6719,1064.7813 594.2969,1064.7969 L596.9688,1058.1406 L595.8594,1058.1406 Q595.25,1058.1406 594.9844,1057.9063 Q594.7188,1057.6719 594.7188,1057.2813 Q594.7188,1056.9063 594.9844,1056.6719 Q595.25,1056.4375 595.8594,1056.4375 L599.5313,1056.4375 L602.9219,1064.7969 Q603.5156,1064.7969 603.7031,1064.9375 Q604.0938,1065.2031 604.0938,1065.6563 Q604.0938,1066.0313 603.8281,1066.2656 Q603.5781,1066.5 602.9688,1066.5 L600.6719,1066.5 Q600.0625,1066.5 599.7969,1066.2656 Q599.5313,1066.0313 599.5313,1065.6406 Q599.5313,1065.2656 599.7969,1065.0313 Q600.0625,1064.7969 600.6719,1064.7969 L601.0938,1064.7969 L600.6875,1063.7656 Z M599.9688,1062.0625 L598.6094,1058.6875 L597.2344,1062.0625 L599.9688,1062.0625 Z " fill="#000000"/><text fill="#000000" font-family="sans-serif" font-size="14" font-style="italic" lengthAdjust="spacing" textLength="51" x="617.5" y="1067.7285">Solution</text><line style="stroke:#181818;stroke-width:0.5;" x1="562" x2="693" y1="1078" y2="1078"/><rect fill="none" height="6" style="stroke:#C82930;stroke-width:1.0;" width="6" x="569" y="1089.3047"/><text fill="#000000" font-family="sans-serif" font-size="14" lengthAdjust="spacing" textLength="107" x="581" y="1096.5332">correct : boolean</text><line style="stroke:#181818;stroke-width:0.5;" x1="562" x2="693" y1="1103.6094" y2="1103.6094"/></g><!--class Answer--><g id="elem_Answer"><rect codeLine="68" fill="#F1F1F1" height="83.2188" id="Answer" rx="2.5" ry="2.5" style="stroke:#181818;stroke-width:0.5;" width="151" x="729" y="1037.5"/><ellipse cx="777.25" cy="1053.5" fill="#ADD1B2" rx="11" ry="11" style="stroke:#181818;stroke-width:1.0;"/><path d="M780.0156,1049.375 Q780.1719,1049.1563 780.3594,1049.0469 Q780.5469,1048.9375 780.7656,1048.9375 Q781.1406,1048.9375 781.375,1049.2031 Q781.6094,1049.4531 781.6094,1050.0625 L781.6094,1051.5156 Q781.6094,1052.125 781.375,1052.3906 Q781.1406,1052.6563 780.7656,1052.6563 Q780.4219,1052.6563 780.2188,1052.4531 Q780.0156,1052.2656 779.9063,1051.75 Q779.8594,1051.3906 779.6719,1051.2031 Q779.3438,1050.8281 778.7344,1050.6094 Q778.125,1050.3906 777.5,1050.3906 Q776.7344,1050.3906 776.0938,1050.7188 Q775.4688,1051.0469 774.9688,1051.7969 Q774.4844,1052.5469 774.4844,1053.5781 L774.4844,1054.6719 Q774.4844,1055.9063 775.375,1056.7344 Q776.2656,1057.5469 777.8594,1057.5469 Q778.7969,1057.5469 779.4531,1057.2969 Q779.8438,1057.1406 780.2656,1056.7031 Q780.5313,1056.4375 780.6719,1056.3594 Q780.8281,1056.2813 781.0313,1056.2813 Q781.3594,1056.2813 781.6094,1056.5469 Q781.875,1056.7969 781.875,1057.1406 Q781.875,1057.4844 781.5313,1057.8906 Q781.0313,1058.4688 780.2344,1058.7969 Q779.1563,1059.25 777.8594,1059.25 Q776.3438,1059.25 775.1406,1058.625 Q774.1563,1058.125 773.4688,1057.0625 Q772.7813,1055.9844 772.7813,1054.7031 L772.7813,1053.5469 Q772.7813,1052.2188 773.3906,1051.0781 Q774.0156,1049.9219 775.1094,1049.3125 Q776.2031,1048.6875 777.4375,1048.6875 Q778.1719,1048.6875 778.8125,1048.8594 Q779.4688,1049.0156 780.0156,1049.375 Z " fill="#000000"/><text fill="#000000" font-family="sans-serif" font-size="14" lengthAdjust="spacing" textLength="46" x="797.75" y="1059.2285">Answer</text><line style="stroke:#181818;stroke-width:0.5;" x1="730" x2="879" y1="1069.5" y2="1069.5"/><rect fill="none" height="6" style="stroke:#C82930;stroke-width:1.0;" width="6" x="737" y="1080.8047"/><text fill="#000000" font-family="sans-serif" font-size="14" lengthAdjust="spacing" textLength="107" x="749" y="1088.0332">correct : boolean</text><rect fill="none" height="6" style="stroke:#C82930;stroke-width:1.0;" width="6" x="737" y="1098.4141"/><text fill="#000000" font-family="sans-serif" font-size="14" lengthAdjust="spacing" textLength="125" x="749" y="1105.6426">evaluated : boolean</text><line style="stroke:#181818;stroke-width:0.5;" x1="730" x2="879" y1="1112.7188" y2="1112.7188"/></g><!--class EducationPlatform--><g id="elem_EducationPlatform"><rect fill="#F1F1F1" height="48" id="EducationPlatform" rx="2.5" ry="2.5" style="stroke:#181818;stroke-width:0.5;" width="147" x="369" y="7"/><ellipse cx="384" cy="23" fill="#ADD1B2" rx="11" ry="11" style="stroke:#181818;stroke-width:1.0;"/><path d="M386.7656,18.875 Q386.9219,18.6563 387.1094,18.5469 Q387.2969,18.4375 387.5156,18.4375 Q387.8906,18.4375 388.125,18.7031 Q388.3594,18.9531 388.3594,19.5625 L388.3594,21.0156 Q388.3594,21.625 388.125,21.8906 Q387.8906,22.1563 387.5156,22.1563 Q387.1719,22.1563 386.9688,21.9531 Q386.7656,21.7656 386.6563,21.25 Q386.6094,20.8906 386.4219,20.7031 Q386.0938,20.3281 385.4844,20.1094 Q384.875,19.8906 384.25,19.8906 Q383.4844,19.8906 382.8438,20.2188 Q382.2188,20.5469 381.7188,21.2969 Q381.2344,22.0469 381.2344,23.0781 L381.2344,24.1719 Q381.2344,25.4063 382.125,26.2344 Q383.0156,27.0469 384.6094,27.0469 Q385.5469,27.0469 386.2031,26.7969 Q386.5938,26.6406 387.0156,26.2031 Q387.2813,25.9375 387.4219,25.8594 Q387.5781,25.7813 387.7813,25.7813 Q388.1094,25.7813 388.3594,26.0469 Q388.625,26.2969 388.625,26.6406 Q388.625,26.9844 388.2813,27.3906 Q387.7813,27.9688 386.9844,28.2969 Q385.9063,28.75 384.6094,28.75 Q383.0938,28.75 381.8906,28.125 Q380.9063,27.625 380.2188,26.5625 Q379.5313,25.4844 379.5313,24.2031 L379.5313,23.0469 Q379.5313,21.7188 380.1406,20.5781 Q380.7656,19.4219 381.8594,18.8125 Q382.9531,18.1875 384.1875,18.1875 Q384.9219,18.1875 385.5625,18.3594 Q386.2188,18.5156 386.7656,18.875 Z " fill="#000000"/><text fill="#000000" font-family="sans-serif" font-size="14" lengthAdjust="spacing" textLength="115" x="398" y="28.7285">EducationPlatform</text><line style="stroke:#181818;stroke-width:0.5;" x1="370" x2="515" y1="39" y2="39"/><line style="stroke:#181818;stroke-width:0.5;" x1="370" x2="515" y1="47" y2="47"/></g><!--class Teacher--><g id="elem_Teacher"><rect fill="#F1F1F1" height="48" id="Teacher" rx="2.5" ry="2.5" style="stroke:#181818;stroke-width:0.5;" width="85" x="464" y="253"/><ellipse cx="479" cy="269" fill="#ADD1B2" rx="11" ry="11" style="stroke:#181818;stroke-width:1.0;"/><path d="M481.7656,264.875 Q481.9219,264.6563 482.1094,264.5469 Q482.2969,264.4375 482.5156,264.4375 Q482.8906,264.4375 483.125,264.7031 Q483.3594,264.9531 483.3594,265.5625 L483.3594,267.0156 Q483.3594,267.625 483.125,267.8906 Q482.8906,268.1563 482.5156,268.1563 Q482.1719,268.1563 481.9688,267.9531 Q481.7656,267.7656 481.6563,267.25 Q481.6094,266.8906 481.4219,266.7031 Q481.0938,266.3281 480.4844,266.1094 Q479.875,265.8906 479.25,265.8906 Q478.4844,265.8906 477.8438,266.2188 Q477.2188,266.5469 476.7188,267.2969 Q476.2344,268.0469 476.2344,269.0781 L476.2344,270.1719 Q476.2344,271.4063 477.125,272.2344 Q478.0156,273.0469 479.6094,273.0469 Q480.5469,273.0469 481.2031,272.7969 Q481.5938,272.6406 482.0156,272.2031 Q482.2813,271.9375 482.4219,271.8594 Q482.5781,271.7813 482.7813,271.7813 Q483.1094,271.7813 483.3594,272.0469 Q483.625,272.2969 483.625,272.6406 Q483.625,272.9844 483.2813,273.3906 Q482.7813,273.9688 481.9844,274.2969 Q480.9063,274.75 479.6094,274.75 Q478.0938,274.75 476.8906,274.125 Q475.9063,273.625 475.2188,272.5625 Q474.5313,271.4844 474.5313,270.2031 L474.5313,269.0469 Q474.5313,267.7188 475.1406,266.5781 Q475.7656,265.4219 476.8594,264.8125 Q477.9531,264.1875 479.1875,264.1875 Q479.9219,264.1875 480.5625,264.3594 Q481.2188,264.5156 481.7656,264.875 Z " fill="#000000"/><text fill="#000000" font-family="sans-serif" font-size="14" lengthAdjust="spacing" textLength="53" x="493" y="274.7285">Teacher</text><line style="stroke:#181818;stroke-width:0.5;" x1="465" x2="548" y1="285" y2="285"/><line style="stroke:#181818;stroke-width:0.5;" x1="465" x2="548" y1="293" y2="293"/></g><!--class Student--><g id="elem_Student"><rect fill="#F1F1F1" height="48" id="Student" rx="2.5" ry="2.5" style="stroke:#181818;stroke-width:0.5;" width="81" x="653" y="121.5"/><ellipse cx="668" cy="137.5" fill="#ADD1B2" rx="11" ry="11" style="stroke:#181818;stroke-width:1.0;"/><path d="M670.7656,133.375 Q670.9219,133.1563 671.1094,133.0469 Q671.2969,132.9375 671.5156,132.9375 Q671.8906,132.9375 672.125,133.2031 Q672.3594,133.4531 672.3594,134.0625 L672.3594,135.5156 Q672.3594,136.125 672.125,136.3906 Q671.8906,136.6563 671.5156,136.6563 Q671.1719,136.6563 670.9688,136.4531 Q670.7656,136.2656 670.6563,135.75 Q670.6094,135.3906 670.4219,135.2031 Q670.0938,134.8281 669.4844,134.6094 Q668.875,134.3906 668.25,134.3906 Q667.4844,134.3906 666.8438,134.7188 Q666.2188,135.0469 665.7188,135.7969 Q665.2344,136.5469 665.2344,137.5781 L665.2344,138.6719 Q665.2344,139.9063 666.125,140.7344 Q667.0156,141.5469 668.6094,141.5469 Q669.5469,141.5469 670.2031,141.2969 Q670.5938,141.1406 671.0156,140.7031 Q671.2813,140.4375 671.4219,140.3594 Q671.5781,140.2813 671.7813,140.2813 Q672.1094,140.2813 672.3594,140.5469 Q672.625,140.7969 672.625,141.1406 Q672.625,141.4844 672.2813,141.8906 Q671.7813,142.4688 670.9844,142.7969 Q669.9063,143.25 668.6094,143.25 Q667.0938,143.25 665.8906,142.625 Q664.9063,142.125 664.2188,141.0625 Q663.5313,139.9844 663.5313,138.7031 L663.5313,137.5469 Q663.5313,136.2188 664.1406,135.0781 Q664.7656,133.9219 665.8594,133.3125 Q666.9531,132.6875 668.1875,132.6875 Q668.9219,132.6875 669.5625,132.8594 Q670.2188,133.0156 670.7656,133.375 Z " fill="#000000"/><text fill="#000000" font-family="sans-serif" font-size="14" lengthAdjust="spacing" textLength="49" x="682" y="143.2285">Student</text><line style="stroke:#181818;stroke-width:0.5;" x1="654" x2="733" y1="153.5" y2="153.5"/><line style="stroke:#181818;stroke-width:0.5;" x1="654" x2="733" y1="161.5" y2="161.5"/></g><!--class Chat--><g id="elem_Chat"><rect fill="#F1F1F1" height="48" id="Chat" rx="2.5" ry="2.5" style="stroke:#181818;stroke-width:0.5;" width="62" x="591.5" y="396.5"/><ellipse cx="606.5" cy="412.5" fill="#ADD1B2" rx="11" ry="11" style="stroke:#181818;stroke-width:1.0;"/><path d="M609.2656,408.375 Q609.4219,408.1563 609.6094,408.0469 Q609.7969,407.9375 610.0156,407.9375 Q610.3906,407.9375 610.625,408.2031 Q610.8594,408.4531 610.8594,409.0625 L610.8594,410.5156 Q610.8594,411.125 610.625,411.3906 Q610.3906,411.6563 610.0156,411.6563 Q609.6719,411.6563 609.4688,411.4531 Q609.2656,411.2656 609.1563,410.75 Q609.1094,410.3906 608.9219,410.2031 Q608.5938,409.8281 607.9844,409.6094 Q607.375,409.3906 606.75,409.3906 Q605.9844,409.3906 605.3438,409.7188 Q604.7188,410.0469 604.2188,410.7969 Q603.7344,411.5469 603.7344,412.5781 L603.7344,413.6719 Q603.7344,414.9063 604.625,415.7344 Q605.5156,416.5469 607.1094,416.5469 Q608.0469,416.5469 608.7031,416.2969 Q609.0938,416.1406 609.5156,415.7031 Q609.7813,415.4375 609.9219,415.3594 Q610.0781,415.2813 610.2813,415.2813 Q610.6094,415.2813 610.8594,415.5469 Q611.125,415.7969 611.125,416.1406 Q611.125,416.4844 610.7813,416.8906 Q610.2813,417.4688 609.4844,417.7969 Q608.4063,418.25 607.1094,418.25 Q605.5938,418.25 604.3906,417.625 Q603.4063,417.125 602.7188,416.0625 Q602.0313,414.9844 602.0313,413.7031 L602.0313,412.5469 Q602.0313,411.2188 602.6406,410.0781 Q603.2656,408.9219 604.3594,408.3125 Q605.4531,407.6875 606.6875,407.6875 Q607.4219,407.6875 608.0625,407.8594 Q608.7188,408.0156 609.2656,408.375 Z " fill="#000000"/><text fill="#000000" font-family="sans-serif" font-size="14" lengthAdjust="spacing" textLength="30" x="620.5" y="418.2285">Chat</text><line style="stroke:#181818;stroke-width:0.5;" x1="592.5" x2="652.5" y1="428.5" y2="428.5"/><line style="stroke:#181818;stroke-width:0.5;" x1="592.5" x2="652.5" y1="436.5" y2="436.5"/></g><!--class Open--><g id="elem_Open"><rect fill="#F1F1F1" height="48" id="Open" rx="2.5" ry="2.5" style="stroke:#181818;stroke-width:0.5;" width="67" x="699" y="1199"/><ellipse cx="714" cy="1215" fill="#ADD1B2" rx="11" ry="11" style="stroke:#181818;stroke-width:1.0;"/><path d="M716.7656,1210.875 Q716.9219,1210.6563 717.1094,1210.5469 Q717.2969,1210.4375 717.5156,1210.4375 Q717.8906,1210.4375 718.125,1210.7031 Q718.3594,1210.9531 718.3594,1211.5625 L718.3594,1213.0156 Q718.3594,1213.625 718.125,1213.8906 Q717.8906,1214.1563 717.5156,1214.1563 Q717.1719,1214.1563 716.9688,1213.9531 Q716.7656,1213.7656 716.6563,1213.25 Q716.6094,1212.8906 716.4219,1212.7031 Q716.0938,1212.3281 715.4844,1212.1094 Q714.875,1211.8906 714.25,1211.8906 Q713.4844,1211.8906 712.8438,1212.2188 Q712.2188,1212.5469 711.7188,1213.2969 Q711.2344,1214.0469 711.2344,1215.0781 L711.2344,1216.1719 Q711.2344,1217.4063 712.125,1218.2344 Q713.0156,1219.0469 714.6094,1219.0469 Q715.5469,1219.0469 716.2031,1218.7969 Q716.5938,1218.6406 717.0156,1218.2031 Q717.2813,1217.9375 717.4219,1217.8594 Q717.5781,1217.7813 717.7813,1217.7813 Q718.1094,1217.7813 718.3594,1218.0469 Q718.625,1218.2969 718.625,1218.6406 Q718.625,1218.9844 718.2813,1219.3906 Q717.7813,1219.9688 716.9844,1220.2969 Q715.9063,1220.75 714.6094,1220.75 Q713.0938,1220.75 711.8906,1220.125 Q710.9063,1219.625 710.2188,1218.5625 Q709.5313,1217.4844 709.5313,1216.2031 L709.5313,1215.0469 Q709.5313,1213.7188 710.1406,1212.5781 Q710.7656,1211.4219 711.8594,1210.8125 Q712.9531,1210.1875 714.1875,1210.1875 Q714.9219,1210.1875 715.5625,1210.3594 Q716.2188,1210.5156 716.7656,1210.875 Z " fill="#000000"/><text fill="#000000" font-family="sans-serif" font-size="14" lengthAdjust="spacing" textLength="35" x="728" y="1220.7285">Open</text><line style="stroke:#181818;stroke-width:0.5;" x1="700" x2="765" y1="1231" y2="1231"/><line style="stroke:#181818;stroke-width:0.5;" x1="700" x2="765" y1="1239" y2="1239"/></g><!--class MultipleChoice--><g id="elem_MultipleChoice"><rect fill="#F1F1F1" height="48" id="MultipleChoice" rx="2.5" ry="2.5" style="stroke:#181818;stroke-width:0.5;" width="124" x="468.5" y="1199"/><ellipse cx="483.5" cy="1215" fill="#ADD1B2" rx="11" ry="11" style="stroke:#181818;stroke-width:1.0;"/><path d="M486.2656,1210.875 Q486.4219,1210.6563 486.6094,1210.5469 Q486.7969,1210.4375 487.0156,1210.4375 Q487.3906,1210.4375 487.625,1210.7031 Q487.8594,1210.9531 487.8594,1211.5625 L487.8594,1213.0156 Q487.8594,1213.625 487.625,1213.8906 Q487.3906,1214.1563 487.0156,1214.1563 Q486.6719,1214.1563 486.4688,1213.9531 Q486.2656,1213.7656 486.1563,1213.25 Q486.1094,1212.8906 485.9219,1212.7031 Q485.5938,1212.3281 484.9844,1212.1094 Q484.375,1211.8906 483.75,1211.8906 Q482.9844,1211.8906 482.3438,1212.2188 Q481.7188,1212.5469 481.2188,1213.2969 Q480.7344,1214.0469 480.7344,1215.0781 L480.7344,1216.1719 Q480.7344,1217.4063 481.625,1218.2344 Q482.5156,1219.0469 484.1094,1219.0469 Q485.0469,1219.0469 485.7031,1218.7969 Q486.0938,1218.6406 486.5156,1218.2031 Q486.7813,1217.9375 486.9219,1217.8594 Q487.0781,1217.7813 487.2813,1217.7813 Q487.6094,1217.7813 487.8594,1218.0469 Q488.125,1218.2969 488.125,1218.6406 Q488.125,1218.9844 487.7813,1219.3906 Q487.2813,1219.9688 486.4844,1220.2969 Q485.4063,1220.75 484.1094,1220.75 Q482.5938,1220.75 481.3906,1220.125 Q480.4063,1219.625 479.7188,1218.5625 Q479.0313,1217.4844 479.0313,1216.2031 L479.0313,1215.0469 Q479.0313,1213.7188 479.6406,1212.5781 Q480.2656,1211.4219 481.3594,1210.8125 Q482.4531,1210.1875 483.6875,1210.1875 Q484.4219,1210.1875 485.0625,1210.3594 Q485.7188,1210.5156 486.2656,1210.875 Z " fill="#000000"/><text fill="#000000" font-family="sans-serif" font-size="14" lengthAdjust="spacing" textLength="92" x="497.5" y="1220.7285">MultipleChoice</text><line style="stroke:#181818;stroke-width:0.5;" x1="469.5" x2="591.5" y1="1231" y2="1231"/><line style="stroke:#181818;stroke-width:0.5;" x1="469.5" x2="591.5" y1="1239" y2="1239"/></g><g id="elem_GMN49"><path d="M531.5,116 L531.5,175.0547 A0,0 0 0 0 531.5,175.0547 L617.5,175.0547 A0,0 0 0 0 617.5,175.0547 L617.5,149.5 L652.95,145.5 L617.5,141.5 L617.5,126 L607.5,116 L531.5,116 A0,0 0 0 0 531.5,116 " fill="#FEFFDD" style="stroke:#181818;stroke-width:0.5;"/><path d="M607.5,116 L607.5,126 L617.5,126 L607.5,116 " fill="#FEFFDD" style="stroke:#181818;stroke-width:0.5;"/><text fill="#000000" font-family="sans-serif" font-size="13" lengthAdjust="spacing" textLength="62" x="537.5" y="134.4951">Editor only</text><text fill="#000000" font-family="sans-serif" font-size="13" lengthAdjust="spacing" textLength="61" x="537.5" y="150.8467">for custom</text><text fill="#000000" font-family="sans-serif" font-size="13" lengthAdjust="spacing" textLength="56" x="537.5" y="167.1982">itineraries</text></g><!--class Relation--><g id="elem_Relation"><rect codeLine="139" fill="#F1F1F1" height="65.6094" id="Relation" rx="2.5" ry="2.5" style="stroke:#181818;stroke-width:0.5;" width="149" x="292" y="1360"/><ellipse cx="336.25" cy="1376" fill="#ADD1B2" rx="11" ry="11" style="stroke:#181818;stroke-width:1.0;"/><path d="M339.0156,1371.875 Q339.1719,1371.6563 339.3594,1371.5469 Q339.5469,1371.4375 339.7656,1371.4375 Q340.1406,1371.4375 340.375,1371.7031 Q340.6094,1371.9531 340.6094,1372.5625 L340.6094,1374.0156 Q340.6094,1374.625 340.375,1374.8906 Q340.1406,1375.1563 339.7656,1375.1563 Q339.4219,1375.1563 339.2188,1374.9531 Q339.0156,1374.7656 338.9063,1374.25 Q338.8594,1373.8906 338.6719,1373.7031 Q338.3438,1373.3281 337.7344,1373.1094 Q337.125,1372.8906 336.5,1372.8906 Q335.7344,1372.8906 335.0938,1373.2188 Q334.4688,1373.5469 333.9688,1374.2969 Q333.4844,1375.0469 333.4844,1376.0781 L333.4844,1377.1719 Q333.4844,1378.4063 334.375,1379.2344 Q335.2656,1380.0469 336.8594,1380.0469 Q337.7969,1380.0469 338.4531,1379.7969 Q338.8438,1379.6406 339.2656,1379.2031 Q339.5313,1378.9375 339.6719,1378.8594 Q339.8281,1378.7813 340.0313,1378.7813 Q340.3594,1378.7813 340.6094,1379.0469 Q340.875,1379.2969 340.875,1379.6406 Q340.875,1379.9844 340.5313,1380.3906 Q340.0313,1380.9688 339.2344,1381.2969 Q338.1563,1381.75 336.8594,1381.75 Q335.3438,1381.75 334.1406,1381.125 Q333.1563,1380.625 332.4688,1379.5625 Q331.7813,1378.4844 331.7813,1377.2031 L331.7813,1376.0469 Q331.7813,1374.7188 332.3906,1373.5781 Q333.0156,1372.4219 334.1094,1371.8125 Q335.2031,1371.1875 336.4375,1371.1875 Q337.1719,1371.1875 337.8125,1371.3594 Q338.4688,1371.5156 339.0156,1371.875 Z " fill="#000000"/><text fill="#000000" font-family="sans-serif" font-size="14" lengthAdjust="spacing" textLength="52" x="356.75" y="1381.7285">Relation</text><line style="stroke:#181818;stroke-width:0.5;" x1="293" x2="440" y1="1392" y2="1392"/><rect fill="none" height="6" style="stroke:#C82930;stroke-width:1.0;" width="6" x="300" y="1403.3047"/><text fill="#000000" font-family="sans-serif" font-size="14" lengthAdjust="spacing" textLength="123" x="312" y="1410.5332">type : RelationType</text><line style="stroke:#181818;stroke-width:0.5;" x1="293" x2="440" y1="1417.6094" y2="1417.6094"/></g><!--class RelationType--><g id="elem_RelationType"><rect codeLine="131" fill="#F1F1F1" height="136.0469" id="RelationType" rx="2.5" ry="2.5" style="stroke:#181818;stroke-width:0.5;" width="116" x="476.5" y="1325"/><ellipse cx="491.5" cy="1341" fill="#EB937F" rx="11" ry="11" style="stroke:#181818;stroke-width:1.0;"/><path d="M490.3594,1341.7969 L490.3594,1344.2969 L494.6875,1344.2969 L494.6875,1343.375 Q494.6875,1342.7656 494.9219,1342.5 Q495.1719,1342.2344 495.5469,1342.2344 Q495.9219,1342.2344 496.1563,1342.5 Q496.3906,1342.7656 496.3906,1343.375 L496.3906,1346 L488.3906,1346 Q487.7656,1346 487.5,1345.7656 Q487.25,1345.5313 487.25,1345.1406 Q487.25,1344.7656 487.5156,1344.5313 Q487.7813,1344.2969 488.3906,1344.2969 L488.6563,1344.2969 L488.6563,1337.6406 L488.3906,1337.6406 Q487.7656,1337.6406 487.5,1337.4063 Q487.25,1337.1719 487.25,1336.7813 Q487.25,1336.4063 487.5,1336.1719 Q487.7656,1335.9375 488.3906,1335.9375 L496.0156,1335.9375 L496.0156,1338.5313 Q496.0156,1339.1406 495.7813,1339.4063 Q495.5625,1339.6563 495.1719,1339.6563 Q494.7969,1339.6563 494.5625,1339.4063 Q494.3281,1339.1406 494.3281,1338.5313 L494.3281,1337.6406 L490.3594,1337.6406 L490.3594,1340.0938 L491.8438,1340.0938 Q491.8438,1339.4375 491.9688,1339.25 Q492.2344,1338.8438 492.7031,1338.8438 Q493.0781,1338.8438 493.3125,1339.1094 Q493.5469,1339.3594 493.5469,1339.9688 L493.5469,1341.9375 Q493.5469,1342.4844 493.4219,1342.6719 Q493.1563,1343.0625 492.7031,1343.0625 Q492.2344,1343.0625 491.9688,1342.6563 Q491.8438,1342.4688 491.8438,1341.7969 L490.3594,1341.7969 Z " fill="#000000"/><text fill="#000000" font-family="sans-serif" font-size="14" lengthAdjust="spacing" textLength="84" x="505.5" y="1346.7285">RelationType</text><line style="stroke:#181818;stroke-width:0.5;" x1="477.5" x2="591.5" y1="1357" y2="1357"/><text fill="#000000" font-family="sans-serif" font-size="14" lengthAdjust="spacing" textLength="24" x="482.5" y="1375.5332">Use</text><text fill="#000000" font-family="sans-serif" font-size="14" lengthAdjust="spacing" textLength="72" x="482.5" y="1393.1426">Association</text><text fill="#000000" font-family="sans-serif" font-size="14" lengthAdjust="spacing" textLength="78" x="482.5" y="1410.752">Composition</text><text fill="#000000" font-family="sans-serif" font-size="14" lengthAdjust="spacing" textLength="70" x="482.5" y="1428.3613">Inheritance</text><text fill="#000000" font-family="sans-serif" font-size="14" lengthAdjust="spacing" textLength="77" x="482.5" y="1445.9707">Aggregation</text><line style="stroke:#181818;stroke-width:0.5;" x1="477.5" x2="591.5" y1="1453.0469" y2="1453.0469"/></g><!--class Podcast--><g id="elem_Podcast"><rect fill="#F1F1F1" height="48" id="Podcast" rx="2.5" ry="2.5" style="stroke:#181818;stroke-width:0.5;" width="83" x="193" y="885"/><ellipse cx="208" cy="901" fill="#ADD1B2" rx="11" ry="11" style="stroke:#181818;stroke-width:1.0;"/><path d="M210.7656,896.875 Q210.9219,896.6563 211.1094,896.5469 Q211.2969,896.4375 211.5156,896.4375 Q211.8906,896.4375 212.125,896.7031 Q212.3594,896.9531 212.3594,897.5625 L212.3594,899.0156 Q212.3594,899.625 212.125,899.8906 Q211.8906,900.1563 211.5156,900.1563 Q211.1719,900.1563 210.9688,899.9531 Q210.7656,899.7656 210.6563,899.25 Q210.6094,898.8906 210.4219,898.7031 Q210.0938,898.3281 209.4844,898.1094 Q208.875,897.8906 208.25,897.8906 Q207.4844,897.8906 206.8438,898.2188 Q206.2188,898.5469 205.7188,899.2969 Q205.2344,900.0469 205.2344,901.0781 L205.2344,902.1719 Q205.2344,903.4063 206.125,904.2344 Q207.0156,905.0469 208.6094,905.0469 Q209.5469,905.0469 210.2031,904.7969 Q210.5938,904.6406 211.0156,904.2031 Q211.2813,903.9375 211.4219,903.8594 Q211.5781,903.7813 211.7813,903.7813 Q212.1094,903.7813 212.3594,904.0469 Q212.625,904.2969 212.625,904.6406 Q212.625,904.9844 212.2813,905.3906 Q211.7813,905.9688 210.9844,906.2969 Q209.9063,906.75 208.6094,906.75 Q207.0938,906.75 205.8906,906.125 Q204.9063,905.625 204.2188,904.5625 Q203.5313,903.4844 203.5313,902.2031 L203.5313,901.0469 Q203.5313,899.7188 204.1406,898.5781 Q204.7656,897.4219 205.8594,896.8125 Q206.9531,896.1875 208.1875,896.1875 Q208.9219,896.1875 209.5625,896.3594 Q210.2188,896.5156 210.7656,896.875 Z " fill="#000000"/><text fill="#000000" font-family="sans-serif" font-size="14" lengthAdjust="spacing" textLength="51" x="222" y="906.7285">Podcast</text><line style="stroke:#181818;stroke-width:0.5;" x1="194" x2="275" y1="917" y2="917"/><line style="stroke:#181818;stroke-width:0.5;" x1="194" x2="275" y1="925" y2="925"/></g><!--class Video--><g id="elem_Video"><rect fill="#F1F1F1" height="48" id="Video" rx="2.5" ry="2.5" style="stroke:#181818;stroke-width:0.5;" width="68" x="311.5" y="885"/><ellipse cx="326.5" cy="901" fill="#ADD1B2" rx="11" ry="11" style="stroke:#181818;stroke-width:1.0;"/><path d="M329.2656,896.875 Q329.4219,896.6563 329.6094,896.5469 Q329.7969,896.4375 330.0156,896.4375 Q330.3906,896.4375 330.625,896.7031 Q330.8594,896.9531 330.8594,897.5625 L330.8594,899.0156 Q330.8594,899.625 330.625,899.8906 Q330.3906,900.1563 330.0156,900.1563 Q329.6719,900.1563 329.4688,899.9531 Q329.2656,899.7656 329.1563,899.25 Q329.1094,898.8906 328.9219,898.7031 Q328.5938,898.3281 327.9844,898.1094 Q327.375,897.8906 326.75,897.8906 Q325.9844,897.8906 325.3438,898.2188 Q324.7188,898.5469 324.2188,899.2969 Q323.7344,900.0469 323.7344,901.0781 L323.7344,902.1719 Q323.7344,903.4063 324.625,904.2344 Q325.5156,905.0469 327.1094,905.0469 Q328.0469,905.0469 328.7031,904.7969 Q329.0938,904.6406 329.5156,904.2031 Q329.7813,903.9375 329.9219,903.8594 Q330.0781,903.7813 330.2813,903.7813 Q330.6094,903.7813 330.8594,904.0469 Q331.125,904.2969 331.125,904.6406 Q331.125,904.9844 330.7813,905.3906 Q330.2813,905.9688 329.4844,906.2969 Q328.4063,906.75 327.1094,906.75 Q325.5938,906.75 324.3906,906.125 Q323.4063,905.625 322.7188,904.5625 Q322.0313,903.4844 322.0313,902.2031 L322.0313,901.0469 Q322.0313,899.7188 322.6406,898.5781 Q323.2656,897.4219 324.3594,896.8125 Q325.4531,896.1875 326.6875,896.1875 Q327.4219,896.1875 328.0625,896.3594 Q328.7188,896.5156 329.2656,896.875 Z " fill="#000000"/><text fill="#000000" font-family="sans-serif" font-size="14" lengthAdjust="spacing" textLength="36" x="340.5" y="906.7285">Video</text><line style="stroke:#181818;stroke-width:0.5;" x1="312.5" x2="378.5" y1="917" y2="917"/><line style="stroke:#181818;stroke-width:0.5;" x1="312.5" x2="378.5" y1="925" y2="925"/></g><!--link EducationPlatform to Teacher--><g id="link_EducationPlatform_Teacher"><path codeLine="73" d="M451.6844,67.0074 C463.9144,113.6374 486.6378,200.2863 498.8578,246.8763 " fill="none" id="EducationPlatform-Teacher" style="stroke:#181818;stroke-width:1.0;"/><polygon fill="#181818" points="448.64,55.4,446.293,62.2185,451.6844,67.0074,454.0313,60.1889,448.64,55.4" style="stroke:#181818;stroke-width:1.0;"/><polygon fill="#181818" points="500.38,252.68,501.9658,242.9596,499.1115,247.8436,494.2275,244.9893,500.38,252.68" style="stroke:#181818;stroke-width:1.0;"/><text fill="#000000" font-family="sans-serif" font-size="13" lengthAdjust="spacing" textLength="8" x="489.9133" y="242.34">+</text></g><!--link EducationPlatform to Student--><g id="link_EducationPlatform_Student"><path codeLine="74" d="M508.3319,59.7485 C547.1319,76.2585 589.24,94.58 635.5,116 C641.1,118.59 641.5683,118.7781 647.3383,121.5681 " fill="none" id="EducationPlatform-Student" style="stroke:#181818;stroke-width:1.0;"/><polygon fill="#181818" points="497.29,55.05,501.2448,61.0799,508.3319,59.7485,504.3771,53.7186,497.29,55.05" style="stroke:#181818;stroke-width:1.0;"/><polygon fill="#181818" points="652.74,124.18,646.3788,116.661,648.2386,122.0034,642.8962,123.8633,652.74,124.18" style="stroke:#181818;stroke-width:1.0;"/><text fill="#000000" font-family="sans-serif" font-size="13" lengthAdjust="spacing" textLength="8" x="637.0469" y="116.666">+</text></g><!--link EducationPlatform to Topic--><g id="link_EducationPlatform_Topic"><path codeLine="75" d="M357.1912,44.0326 C297.6912,56.4026 235.5,81.92 235.5,144.5 C235.5,144.5 235.5,144.5 235.5,421.5 C235.5,455.01 235.5,486.47 235.5,516.67 " fill="none" id="EducationPlatform-Topic" style="stroke:#181818;stroke-width:1.0;"/><polygon fill="#181818" points="368.94,41.59,362.2514,38.895,357.1912,44.0326,363.8798,46.7275,368.94,41.59" style="stroke:#181818;stroke-width:1.0;"/><polygon fill="#181818" points="235.5,522.67,239.5,513.67,235.5,517.67,231.5,513.67,235.5,522.67" style="stroke:#181818;stroke-width:1.0;"/></g><!--link EducationPlatform to Itinerary--><g id="link_EducationPlatform_Itinerary"><path codeLine="76" d="M403.5374,62.7253 C393.0774,71.5253 390.8,74.31 381.5,85 C339.75,132.99 321.58,144.01 303.5,205 C285.2,266.73 319.1602,331.038 349.2902,373.728 " fill="none" id="EducationPlatform-Itinerary" style="stroke:#181818;stroke-width:1.0;"/><polygon fill="#181818" points="412.72,55,405.5536,55.8018,403.5374,62.7253,410.7038,61.9235,412.72,55" style="stroke:#181818;stroke-width:1.0;"/><polygon fill="#181818" points="352.75,378.63,350.8283,368.9704,349.8668,374.545,344.2923,373.5835,352.75,378.63" style="stroke:#181818;stroke-width:1.0;"/><text fill="#000000" font-family="sans-serif" font-size="13" lengthAdjust="spacing" textLength="59" x="304.5" y="219.4951">predefined</text></g><!--link EducationPlatform to Itinerary--><g id="link_EducationPlatform_Itinerary"><path codeLine="77" d="M437.3621,66.952 C427.9821,130.662 404.2827,291.7838 392.3727,372.7938 " fill="none" id="EducationPlatform-Itinerary-1" style="stroke:#181818;stroke-width:1.0;"/><polygon fill="none" points="439.11,55.08,434.2787,60.4334,437.3621,66.952,442.1934,61.5986,439.11,55.08" style="stroke:#181818;stroke-width:1.0;"/><polygon fill="#181818" points="391.5,378.73,396.7666,370.4075,392.2273,373.7832,388.8516,369.2439,391.5,378.73" style="stroke:#181818;stroke-width:1.0;"/><text fill="#000000" font-family="sans-serif" font-size="13" lengthAdjust="spacing" textLength="43" x="417.5" y="219.4951">custom</text><text fill="#000000" font-family="sans-serif" font-size="13" lengthAdjust="spacing" textLength="5" x="387.0797" y="367.993">*</text></g><!--link EducationPlatform to Chat--><g id="link_EducationPlatform_Chat"><path codeLine="78" d="M528.1927,38.1601 C595.3427,45.8201 682.34,64.36 751.5,116 C788.76,143.82 793.79,160.27 806.5,205 C832.58,296.8 718.1221,370.1114 659.0721,401.3914 " fill="none" id="EducationPlatform-Chat" style="stroke:#181818;stroke-width:1.0;"/><polygon fill="none" points="516.27,36.8,521.778,41.4543,528.1927,38.1601,522.6847,33.5058,516.27,36.8" style="stroke:#181818;stroke-width:1.0;"/><polygon fill="#181818" points="653.77,404.2,663.5955,403.5218,658.1884,401.8595,659.8507,396.4524,653.77,404.2" style="stroke:#181818;stroke-width:1.0;"/></g><!--link Chat to Excercise--><g id="link_Chat_Excercise"><path codeLine="79" d="M622.5,456.73 C622.5,514.59 622.5,646.6 622.5,704.61 " fill="none" id="Chat-Excercise" style="stroke:#181818;stroke-width:1.0;"/><polygon fill="none" points="622.5,444.73,618.5,450.73,622.5,456.73,626.5,450.73,622.5,444.73" style="stroke:#181818;stroke-width:1.0;"/><polygon fill="#181818" points="622.5,710.61,626.5,701.61,622.5,705.61,618.5,701.61,622.5,710.61" style="stroke:#181818;stroke-width:1.0;"/><text fill="#000000" font-family="sans-serif" font-size="13" lengthAdjust="spacing" textLength="8" x="613.525" y="700.2529">+</text></g><!--link Teacher to Chat--><g id="link_Teacher_Chat"><path codeLine="83" d="M525.4,301.05 C546.97,327.36 578.236,365.51 599.806,391.82 " fill="none" id="Teacher-to-Chat" style="stroke:#181818;stroke-width:1.0;stroke-dasharray:7.0,7.0;"/><polygon fill="#181818" points="603.61,396.46,600.9973,386.964,600.44,392.5934,594.8106,392.0361,603.61,396.46" style="stroke:#181818;stroke-width:1.0;"/></g><!--link Student to Chat--><g id="link_Student_Chat"><path codeLine="84" d="M682.71,169.67 C677.86,180.34 672.19,193.23 667.5,205 C659.12,226.02 656.18,231.09 650.5,253 C637.45,303.37 629.7641,357.9739 625.8241,390.3839 " fill="none" id="Student-to-Chat" style="stroke:#181818;stroke-width:1.0;stroke-dasharray:7.0,7.0;"/><polygon fill="#181818" points="625.1,396.34,630.1569,387.8885,625.7034,391.3765,622.2153,386.9231,625.1,396.34" style="stroke:#181818;stroke-width:1.0;"/></g><!--link Student to Answer--><g id="link_Student_Answer"><path codeLine="85" d="M730.2766,177.8343 C755.7066,201.6043 780.5,232.93 780.5,276 C780.5,276 780.5,276 780.5,910 C780.5,953.9 787.4493,997.7273 794.2493,1031.6073 " fill="none" id="Student-Answer" style="stroke:#181818;stroke-width:1.0;"/><polygon fill="none" points="721.51,169.64,723.1619,176.6594,730.2766,177.8343,728.6247,170.815,721.51,169.64" style="stroke:#181818;stroke-width:1.0;"/><polygon fill="#181818" points="795.43,1037.49,797.5807,1027.8788,794.4461,1032.5878,789.7372,1029.4531,795.43,1037.49" style="stroke:#181818;stroke-width:1.0;"/><text fill="#000000" font-family="sans-serif" font-size="13" lengthAdjust="spacing" textLength="5" x="788.5137" y="1026.796">*</text></g><!--reverse link Excercise to Domain--><g id="link_Excercise_Domain"><path codeLine="87" d="M587.2636,772.0776 C555.1136,804.9976 509.17,852.03 477.07,884.9 " fill="none" id="Excercise-backto-Domain" style="stroke:#181818;stroke-width:1.0;"/><polygon fill="none" points="599.84,759.2,582.971,767.8855,591.5561,776.2698,599.84,759.2" style="stroke:#181818;stroke-width:1.0;"/></g><!--reverse link Excercise to Question--><g id="link_Excercise_Question"><path codeLine="88" d="M623.6965,777.1923 C624.5765,807.2623 625.58,841.88 626.56,875.81 " fill="none" id="Excercise-backto-Question" style="stroke:#181818;stroke-width:1.0;"/><polygon fill="none" points="623.17,759.2,617.6991,777.3678,629.694,777.0168,623.17,759.2" style="stroke:#181818;stroke-width:1.0;"/></g><!--link Domain to Application--><g id="link_Domain_Application"><path codeLine="90" d="M409.1962,940.8166 C396.6162,951.0366 393.28,956.65 386.5,972 C377.54,992.29 376.6008,1010.9941 378.7908,1031.4341 " fill="none" id="Domain-Application" style="stroke:#181818;stroke-width:1.0;"/><polygon fill="#181818" points="418.51,933.25,411.3309,933.9287,409.1962,940.8166,416.3753,940.1379,418.51,933.25" style="stroke:#181818;stroke-width:1.0;"/><polygon fill="#181818" points="379.43,1037.4,382.4484,1028.0251,378.8973,1032.4285,374.494,1028.8774,379.43,1037.4" style="stroke:#181818;stroke-width:1.0;"/><text fill="#000000" font-family="sans-serif" font-size="13" lengthAdjust="spacing" textLength="75" x="387.5" y="986.4951">requirements</text><text fill="#000000" font-family="sans-serif" font-size="13" lengthAdjust="spacing" textLength="5" x="372.6793" y="1026.6911">*</text></g><!--link Application to Concept--><g id="link_Application_Concept"><path codeLine="91" d="M358.84,1120.69 C340.95,1146.1 322.0242,1172.974 307.1542,1194.094 " fill="none" id="Application-to-Concept" style="stroke:#181818;stroke-width:1.0;"/><polygon fill="#181818" points="303.7,1199,312.1519,1193.9438,306.5785,1194.9117,305.6106,1189.3382,303.7,1199" style="stroke:#181818;stroke-width:1.0;"/><text fill="#000000" font-family="sans-serif" font-size="13" lengthAdjust="spacing" textLength="8" x="298.8262" y="1188.3402">+</text></g><!--link Question to Concept--><g id="link_Question_Concept"><path codeLine="93" d="M601.6,942.07 C584.51,963.67 561.95,993.03 543.5,1020 C508.81,1070.7 517.46,1097.23 471.5,1138 C430.26,1174.58 376.1266,1196.0995 335.9866,1208.6495 " fill="none" id="Question-to-Concept" style="stroke:#181818;stroke-width:1.0;"/><polygon fill="#181818" points="330.26,1210.44,340.0436,1211.5721,335.0322,1208.9479,337.6563,1203.9366,330.26,1210.44" style="stroke:#181818;stroke-width:1.0;"/><text fill="#000000" font-family="sans-serif" font-size="13" lengthAdjust="spacing" textLength="8" x="338.0046" y="1204.559">+</text></g><!--link Question to Application--><g id="link_Question_Application"><path codeLine="94" d="M561.62,942.03 C544.85,951.04 527.15,961.31 511.5,972 C482.96,991.48 457.9243,1012.4501 434.8543,1033.2701 " fill="none" id="Question-to-Application" style="stroke:#181818;stroke-width:1.0;"/><polygon fill="#181818" points="430.4,1037.29,439.7613,1034.2297,434.1119,1033.9401,434.4015,1028.2907,430.4,1037.29" style="stroke:#181818;stroke-width:1.0;"/><text fill="#000000" font-family="sans-serif" font-size="13" lengthAdjust="spacing" textLength="5" x="432.0913" y="1026.5629">*</text></g><!--link Question to Answer--><g id="link_Question_Answer"><path codeLine="95" d="M670.3336,950.6512 C698.8636,977.7312 726.649,1004.0986 757.359,1033.2586 " fill="none" id="Question-Answer" style="stroke:#181818;stroke-width:1.0;"/><polygon fill="#181818" points="661.63,942.39,663.228,949.4218,670.3336,950.6512,668.7355,943.6194,661.63,942.39" style="stroke:#181818;stroke-width:1.0;"/><polygon fill="#181818" points="761.71,1037.39,757.9377,1028.2922,758.0841,1033.9472,752.4292,1034.0936,761.71,1037.39" style="stroke:#181818;stroke-width:1.0;"/></g><!--link Question to StatementType--><g id="link_Question_StatementType"><path codeLine="96" d="M732.3914,946.2821 C785.4914,965.9721 841.13,989.11 897.5,1020 C903.46,1023.27 904.4383,1023.6841 910.4183,1027.4641 " fill="none" id="Question-StatementType" style="stroke:#181818;stroke-width:1.0;"/><polygon fill="#181818" points="721.14,942.11,725.375,947.9465,732.3914,946.2821,728.1564,940.4456,721.14,942.11" style="stroke:#181818;stroke-width:1.0;"/><polygon fill="#181818" points="915.49,1030.67,910.0197,1022.48,911.2636,1027.9984,905.7452,1029.2423,915.49,1030.67" style="stroke:#181818;stroke-width:1.0;"/></g><!--link Question to Solution--><g id="link_Question_Solution"><path codeLine="97" d="M627.5,954.39 C627.5,984.24 627.5,1010.27 627.5,1039.99 " fill="none" id="Question-Solution" style="stroke:#181818;stroke-width:1.0;"/><polygon fill="#181818" points="627.5,942.39,623.5,948.39,627.5,954.39,631.5,948.39,627.5,942.39" style="stroke:#181818;stroke-width:1.0;"/><polygon fill="#181818" points="627.5,1045.99,631.5,1036.99,627.5,1040.99,623.5,1036.99,627.5,1045.99" style="stroke:#181818;stroke-width:1.0;"/><text fill="#000000" font-family="sans-serif" font-size="13" lengthAdjust="spacing" textLength="5" x="621.9844" y="1035.1033">*</text></g><!--reverse link Solution to Open--><g id="link_Solution_Open"><path codeLine="98" d="M662.0304,1126.6941 C681.5104,1153.0441 697.89,1175.2 715.31,1198.75 " fill="none" id="Solution-backto-Open" style="stroke:#181818;stroke-width:1.0;"/><polygon fill="none" points="651.33,1112.22,657.2057,1130.261,666.8551,1123.1273,651.33,1112.22" style="stroke:#181818;stroke-width:1.0;"/></g><!--reverse link Solution to MultipleChoice--><g id="link_Solution_MultipleChoice"><path codeLine="99" d="M595.3368,1127.0831 C577.3368,1153.4331 562.47,1175.2 546.38,1198.75 " fill="none" id="Solution-backto-MultipleChoice" style="stroke:#181818;stroke-width:1.0;"/><polygon fill="none" points="605.49,1112.22,590.3824,1123.6987,600.2912,1130.4675,605.49,1112.22" style="stroke:#181818;stroke-width:1.0;"/></g><!--link Solution to Justification--><g id="link_Solution_Justification"><path codeLine="100" d="M639.0234,1123.8231 C655.9834,1193.8831 682.97,1351.15 610.5,1461 C582.13,1504 533.7325,1526.0185 489.9825,1538.7085 " fill="none" id="Solution-Justification" style="stroke:#181818;stroke-width:1.0;"/><polygon fill="none" points="636.2,1112.16,633.724,1118.9327,639.0234,1123.8231,641.4994,1117.0504,636.2,1112.16" style="stroke:#181818;stroke-width:1.0;"/><polygon fill="#181818" points="484.22,1540.38,493.978,1541.7145,489.0221,1538.9871,491.7494,1534.0312,484.22,1540.38" style="stroke:#181818;stroke-width:1.0;"/><text fill="#000000" font-family="sans-serif" font-size="13" lengthAdjust="spacing" textLength="83" x="657.5" y="1291.4951">correct = false</text><text fill="#000000" font-family="sans-serif" font-size="13" lengthAdjust="spacing" textLength="7" x="491.9003" y="1535.4416">?</text></g><!--link Teacher to Topic--><g id="link_Teacher_Topic"><path codeLine="102" d="M508.44,301.2 C510.34,339.14 508.61,414.95 470.5,462 C433.87,507.22 381.2221,534.7942 331.8621,553.1942 " fill="none" id="Teacher-to-Topic" style="stroke:#181818;stroke-width:1.0;stroke-dasharray:7.0,7.0;"/><polygon fill="#181818" points="326.24,555.29,336.0703,555.8944,330.9251,553.5435,333.276,548.3983,326.24,555.29" style="stroke:#181818;stroke-width:1.0;"/><text fill="#000000" font-family="sans-serif" font-size="13" lengthAdjust="spacing" textLength="32" x="504.5" y="425.9951">editor</text></g><!--link Teacher to Itinerary--><g id="link_Teacher_Itinerary"><path codeLine="103" d="M486.79,301.05 C468.84,322.04 445.8289,348.9495 424.2589,374.1795 " fill="none" id="Teacher-to-Itinerary" style="stroke:#181818;stroke-width:1.0;stroke-dasharray:7.0,7.0;"/><polygon fill="#181818" points="420.36,378.74,429.2488,374.4985,423.6091,374.9396,423.1681,369.2999,420.36,378.74" style="stroke:#181818;stroke-width:1.0;"/><text fill="#000000" font-family="sans-serif" font-size="13" lengthAdjust="spacing" textLength="32" x="460.5" y="345.4951">editor</text></g><!--link Student to Itinerary--><g id="link_Student_Itinerary"><path codeLine="104" d="M690.83,169.59 C688.07,185.71 682.52,207.1 671.5,223 C642.59,264.72 533.0075,333.601 457.9275,377.901 " fill="none" id="Student-to-Itinerary" style="stroke:#181818;stroke-width:1.0;stroke-dasharray:7.0,7.0;"/><polygon fill="#181818" points="452.76,380.95,462.544,379.8215,457.0663,378.4091,458.4786,372.9314,452.76,380.95" style="stroke:#181818;stroke-width:1.0;"/><text fill="#000000" font-family="sans-serif" font-size="13" lengthAdjust="spacing" textLength="32" x="641.5" y="282.4951">editor</text></g><!--reverse link Topic to CompositeTopic--><g id="link_Topic_CompositeTopic"><path codeLine="113" d="M198.4945,658.3522 C191.2245,678.9322 190.71,684.34 187.04,701.94 " fill="none" id="Topic-backto-CompositeTopic" style="stroke:#181818;stroke-width:1.0;stroke-dasharray:7.0,7.0;"/><polygon fill="none" points="204.49,641.38,192.8371,656.3536,204.1519,660.3507,204.49,641.38" style="stroke:#181818;stroke-width:1.0;"/></g><!--link CompositeTopic to Topic--><g id="link_CompositeTopic_Topic"><path codeLine="115" d="M213.743,690.9301 C221.373,673.3301 222.7276,667.7365 228.5076,647.1565 " fill="none" id="CompositeTopic-Topic" style="stroke:#181818;stroke-width:1.0;"/><polygon fill="none" points="208.97,701.94,215.0265,698.0261,213.743,690.9301,207.6866,694.844,208.97,701.94" style="stroke:#181818;stroke-width:1.0;"/><polygon fill="#181818" points="230.13,641.38,223.8455,648.9632,228.778,646.1937,231.5475,651.1263,230.13,641.38" style="stroke:#181818;stroke-width:1.0;"/><text fill="#000000" font-family="sans-serif" font-size="13" lengthAdjust="spacing" textLength="8" x="220.988" y="663.0818">+</text></g><!--reverse link Topic to SimpleTopic--><g id="link_Topic_SimpleTopic"><path codeLine="114" d="M137.148,652.8346 C116.618,670.3546 110.1,679.34 95.5,702 C76.3,731.8 67.73,772.62 64.06,797.88 " fill="none" id="Topic-backto-SimpleTopic" style="stroke:#181818;stroke-width:1.0;stroke-dasharray:7.0,7.0;"/><polygon fill="none" points="150.84,641.15,133.2531,648.2706,141.0428,657.3986,150.84,641.15" style="stroke:#181818;stroke-width:1.0;"/></g><!--link Itinerary to Topic--><g id="link_Itinerary_Topic"><path codeLine="120" d="M339.0392,470.9017 C321.6792,489.3617 313.1606,498.4193 294.1906,518.5893 " fill="none" id="Itinerary-Topic" style="stroke:#181818;stroke-width:1.0;"/><polygon fill="none" points="347.26,462.16,340.2357,463.7906,339.0392,470.9017,346.0635,469.2711,347.26,462.16" style="stroke:#181818;stroke-width:1.0;"/><polygon fill="#181818" points="290.08,522.96,299.1597,519.1444,293.5055,519.3178,293.3322,513.6636,290.08,522.96" style="stroke:#181818;stroke-width:1.0;"/><text fill="#000000" font-family="sans-serif" font-size="13" lengthAdjust="spacing" textLength="8" x="288.2444" y="512.2794">+</text></g><!--link SimpleTopic to Concept--><g id="link_SimpleTopic_Concept"><path codeLine="124" d="M59.5227,858.2697 C57.1927,914.4397 59.13,1047.49 127.5,1138 C156.43,1176.3 202.223,1196.9679 238.983,1208.8979 " fill="none" id="SimpleTopic-Concept" style="stroke:#181818;stroke-width:1.0;"/><polygon fill="none" points="60.02,846.28,55.7748,852.1091,59.5227,858.2697,63.7679,852.4406,60.02,846.28" style="stroke:#181818;stroke-width:1.0;"/><polygon fill="#181818" points="244.69,1210.75,237.3643,1204.1672,239.9342,1209.2066,234.8948,1211.7765,244.69,1210.75" style="stroke:#181818;stroke-width:1.0;"/><text fill="#000000" font-family="sans-serif" font-size="13" lengthAdjust="spacing" textLength="8" x="228.9371" y="1204.9203">+</text></g><!--link Topic to Multimedia--><g id="link_Topic_Multimedia"><path codeLine="125" d="M285.5271,651.049 C303.3371,675.279 312.3166,687.4954 325.9066,705.9854 " fill="none" id="Topic-Multimedia" style="stroke:#181818;stroke-width:1.0;"/><polygon fill="none" points="278.42,641.38,278.7505,648.5835,285.5271,651.049,285.1965,643.8455,278.42,641.38" style="stroke:#181818;stroke-width:1.0;"/><polygon fill="#181818" points="329.46,710.82,327.353,701.1992,326.4988,706.7912,320.9068,705.937,329.46,710.82" style="stroke:#181818;stroke-width:1.0;"/><text fill="#000000" font-family="sans-serif" font-size="13" lengthAdjust="spacing" textLength="8" x="316.0685" y="700.114">+</text></g><!--link Concept to Definition--><g id="link_Concept_Definition"><path codeLine="126" d="M233.1947,1231.7992 C203.7747,1237.9592 178.41,1248.7 159.5,1277 C142.84,1301.93 152.0711,1330.2735 165.7411,1354.7135 " fill="none" id="Concept-Definition" style="stroke:#181818;stroke-width:1.0;"/><polygon fill="#181818" points="244.94,1229.34,238.2476,1226.6545,233.1947,1231.7992,239.8871,1234.4847,244.94,1229.34" style="stroke:#181818;stroke-width:1.0;"/><polygon fill="#181818" points="168.67,1359.95,167.7676,1350.1426,166.2292,1355.5862,160.7856,1354.0478,168.67,1359.95" style="stroke:#181818;stroke-width:1.0;"/><text fill="#000000" font-family="sans-serif" font-size="13" lengthAdjust="spacing" textLength="40" x="160.5" y="1291.4951">correct</text><text fill="#000000" font-family="sans-serif" font-size="13" lengthAdjust="spacing" textLength="8" x="155.3426" y="1349.0551">+</text></g><!--link Concept to Definition--><g id="link_Concept_Definition"><path codeLine="127" d="M264.8635,1257.1612 C258.7235,1266.3312 258.44,1267.06 252.5,1277 C236.08,1304.45 221.7034,1331.2243 209.6134,1354.5243 " fill="none" id="Concept-Definition-1" style="stroke:#181818;stroke-width:1.0;"/><polygon fill="#181818" points="271.54,1247.19,264.878,1249.9501,264.8635,1257.1612,271.5255,1254.4011,271.54,1247.19" style="stroke:#181818;stroke-width:1.0;"/><polygon fill="#181818" points="206.85,1359.85,214.5456,1353.7037,209.1529,1355.4119,207.4447,1350.0191,206.85,1359.85" style="stroke:#181818;stroke-width:1.0;"/><text fill="#000000" font-family="sans-serif" font-size="13" lengthAdjust="spacing" textLength="50" x="253.5" y="1291.4951">incorrect</text><text fill="#000000" font-family="sans-serif" font-size="13" lengthAdjust="spacing" textLength="5" x="204.7066" y="1348.9345">*</text></g><!--link Relation to RelationType--><g id="link_Relation_RelationType"><path codeLine="128" d="M453.31,1393 C464.96,1393 458.61,1393 470.26,1393 " fill="none" id="Relation-RelationType" style="stroke:#181818;stroke-width:1.0;"/><polygon fill="#181818" points="441.31,1393,447.31,1397,453.31,1393,447.31,1389,441.31,1393" style="stroke:#181818;stroke-width:1.0;"/><polygon fill="#181818" points="476.26,1393,467.26,1389,471.26,1393,467.26,1397,476.26,1393" style="stroke:#181818;stroke-width:1.0;"/></g><!--link Concept to Relation--><g id="link_Concept_Relation"><path codeLine="129" d="M340.9486,1245.4731 C357.1886,1253.8731 363.3,1260.43 372.5,1277 C386.52,1302.26 384.2162,1329.8095 378.3162,1354.0995 " fill="none" id="Concept-Relation" style="stroke:#181818;stroke-width:1.0;"/><polygon fill="#181818" points="330.29,1239.96,333.7816,1246.2694,340.9486,1245.4731,337.457,1239.1637,330.29,1239.96" style="stroke:#181818;stroke-width:1.0;"/><polygon fill="#181818" points="376.9,1359.93,382.9113,1352.1284,378.0802,1355.0713,375.1373,1350.2402,376.9,1359.93" style="stroke:#181818;stroke-width:1.0;"/><text fill="#000000" font-family="sans-serif" font-size="13" lengthAdjust="spacing" textLength="31" x="379.5" y="1291.4951">origin</text><text fill="#000000" font-family="sans-serif" font-size="13" lengthAdjust="spacing" textLength="5" x="373.5294" y="1349.031">*</text></g><!--link Relation to Concept--><g id="link_Relation_Concept"><path codeLine="144" d="M351.35,1359.79 C335.82,1326.76 314.6031,1281.6397 300.8731,1252.4397 " fill="none" id="Relation-to-Concept" style="stroke:#181818;stroke-width:1.0;"/><polygon fill="#181818" points="298.32,1247.01,298.5298,1256.8566,300.4476,1251.5348,305.7694,1253.4525,298.32,1247.01" style="stroke:#181818;stroke-width:1.0;"/><text fill="#000000" font-family="sans-serif" font-size="13" lengthAdjust="spacing" textLength="33" x="320.5" y="1291.4951">target</text><text fill="#000000" font-family="sans-serif" font-size="13" lengthAdjust="spacing" textLength="8" x="291.9824" y="1268.3504">+</text></g><!--link Definition to Justification--><g id="link_Definition_Justification"><path codeLine="145" d="M238.5518,1433.692 C252.5918,1445.012 259.37,1450.09 274.5,1461 C303.92,1482.22 332.8604,1501.2207 360.3304,1518.6107 " fill="none" id="Definition-Justification" style="stroke:#181818;stroke-width:1.0;"/><polygon fill="none" points="229.21,1426.16,231.3702,1433.0399,238.5518,1433.692,236.3916,1426.8121,229.21,1426.16" style="stroke:#181818;stroke-width:1.0;"/><polygon fill="#181818" points="365.4,1521.82,359.9352,1513.6263,361.1754,1519.1456,355.6561,1520.3857,365.4,1521.82" style="stroke:#181818;stroke-width:1.0;"/><text fill="#000000" font-family="sans-serif" font-size="13" lengthAdjust="spacing" textLength="5" x="349.1387" y="1510.8983">*</text></g><!--reverse link Multimedia to Podcast--><g id="link_Multimedia_Podcast"><path codeLine="150" d="M321.5767,774.2832 C300.1367,807.2032 270.95,852.03 249.54,884.9 " fill="none" id="Multimedia-backto-Podcast" style="stroke:#181818;stroke-width:1.0;"/><polygon fill="none" points="331.4,759.2,316.549,771.0087,326.6044,777.5576,331.4,759.2" style="stroke:#181818;stroke-width:1.0;"/></g><!--reverse link Multimedia to Video--><g id="link_Multimedia_Video"><path codeLine="151" d="M346.2606,777.1997 C346.0606,810.1197 345.83,852.03 345.63,884.9 " fill="none" id="Multimedia-backto-Video" style="stroke:#181818;stroke-width:1.0;"/><polygon fill="none" points="346.37,759.2,340.2608,777.1632,352.2605,777.2361,346.37,759.2" style="stroke:#181818;stroke-width:1.0;"/></g><!--link Podcast to Text--><g id="link_Podcast_Text"><path codeLine="153" d="M207.9772,942.8414 C199.9472,953.8714 198.63,957.99 194.5,972 C188.28,993.13 189.6423,1011.5727 194.3923,1031.5527 " fill="none" id="Podcast-Text" style="stroke:#181818;stroke-width:1.0;"/><polygon fill="none" points="215.04,933.14,208.2748,935.6364,207.9772,942.8414,214.7424,940.345,215.04,933.14" style="stroke:#181818;stroke-width:1.0;"/><polygon fill="#181818" points="195.78,1037.39,197.5899,1027.7089,194.6235,1032.5256,189.8068,1029.5592,195.78,1037.39" style="stroke:#181818;stroke-width:1.0;"/><text fill="#000000" font-family="sans-serif" font-size="13" lengthAdjust="spacing" textLength="54" x="195.5" y="986.4951">transcript</text></g><!--link Video to Text--><g id="link_Video_Text"><path codeLine="154" d="M319.3215,942.3385 C297.6515,969.1185 272.7652,999.8466 246.2852,1032.5566 " fill="none" id="Video-Text" style="stroke:#181818;stroke-width:1.0;"/><polygon fill="none" points="326.87,933.01,319.9863,935.1581,319.3215,942.3385,326.2053,940.1904,326.87,933.01" style="stroke:#181818;stroke-width:1.0;"/><polygon fill="#181818" points="242.51,1037.22,251.2818,1032.7417,245.656,1033.3338,245.0639,1027.708,242.51,1037.22" style="stroke:#181818;stroke-width:1.0;"/><text fill="#000000" font-family="sans-serif" font-size="13" lengthAdjust="spacing" textLength="54" x="294.5" y="986.4951">transcript</text></g><!--reverse link Multimedia to Text--><g id="link_Multimedia_Text"><path codeLine="156" d="M283.6805,767.797 C242.3105,790.937 200.64,822.1 175.5,876 C151.15,928.21 171.23,995.23 189.26,1037.41 " fill="none" id="Multimedia-backto-Text" style="stroke:#181818;stroke-width:1.0;"/><polygon fill="none" points="299.39,759.01,280.7515,762.5605,286.6095,773.0335,299.39,759.01" style="stroke:#181818;stroke-width:1.0;"/></g><!--link Text to Concept--><g id="link_Text_Concept"><path codeLine="158" d="M231.85,1120.69 C245.81,1146.1 260.3696,1172.6221 271.9796,1193.7421 " fill="none" id="Text-to-Concept" style="stroke:#181818;stroke-width:1.0;"/><polygon fill="#181818" points="274.87,1199,274.0397,1189.1862,272.4614,1194.6184,267.0292,1193.04,274.87,1199" style="stroke:#181818;stroke-width:1.0;"/><text fill="#000000" font-family="sans-serif" font-size="13" lengthAdjust="spacing" textLength="5" x="265.9929" y="1188.3402">*</text></g><!--SRC=[ZLRRKjim47tNLsZoGXic-O0CfSE4FD1f1qfItXLxdMZ6jbn9Rac1V-_gRZa4o0E9TizUTFOYYfefHMyqRq4oUQ1FXE9dHejUQT7G1TqAKGDhhVYShagkFtqcBuJmLeEiM05q8pfUF7d03lI6RMkuhPO24QrM28-gzQ6ksRP76Nf6G06TLhbhTxW7LheufB0PhddJrU13lGJfKZITK5p388SPrUQWCC9thlI5LLrIOyIsIajMQBfwB40MN04TEBiM3UFjK7BLTJKlcEQYJSG8AG5TvCpCw0D8XRXa_BC7bLagpJGqI0dQhiFlpQ43OmDjt-HIRxUinJ_Oe2jxkeQAjzoujSTxg5ayVCEIyUemI3ebiu577HFHUO6yb3Ti1sh8hIrFnb2C_WOT4UtoUP-_QF2ZhpLleEGCqLczrgBkZPSFEBbgrL-GxvOB_h2wHxRBtCUgx5s-TqXi9MH3fxFP9PsSJv12Lkn1lWLPwxv4Haz1R2UUKgOHND1EGcceXl8LjB3HffFCmethAVHoppGnVxmnfXed02UC-AlH-TnZ_KME1SRUn7Oi8rzna2wUPpC_GcDfd0H2_8nDWvlKgmiguNVFfUr_HOQZPy2Oicz8GgA_aIAJvzwJpfBjqy-5-KpcEkCkD249FzpjRZiOYsmZuxfQxWKl82aT-rydez5On2xzGYjMcveCAsBR1a4u65h8J3Li0QzEfNjTtmeDj8OAQrd5XZKpiR9wAjhwOC_OFk4Li6VkVN5m6mFQaXfdv2mBkGmFXu-7Tx7vNppFvwDzFTGCzZl9KQbddPQSfLjPjbt48_5T6YAIL2DdPmbr58SCSahAq6mZSTfT92pEk1O6QpEMUeIQZb2y3RYmuX4e-Mwl4Hr4ja-F_4I31HLeWUFe7fUXbL-Flx3LpFULKgBWwIK91GZdcnORZck6aHn-jvEmyqyC3Pit1exlZ8cqoDCrBte4ZZX5h6OI_qqW0ox2nib61fiW7o7XLy48HGPFYciAKHOCtzAn_86N80ZnQbTM-sPYIfArgf0SQsvHfvH7FWt4J382_Hr2x_m7]--></g></svg>