<?xml version="1.0" encoding="us-ascii" standalone="no"?><svg xmlns="http://www.w3.org/2000/svg" xmlns:xlink="http://www.w3.org/1999/xlink" contentStyleType="text/css" height="1059px" preserveAspectRatio="none" style="width:1312px;height:1059px;background:#FFFFFF;" version="1.1" viewBox="0 0 1312 1059" width="1312px" zoomAndPan="magnify"><defs/><g><!--cluster ExerciseBattery--><g id="cluster_ExerciseBattery"><path d="M86.5,228 L198.5,228 A3.75,3.75 0 0 1 201,230.5 L208,251.6094 L765.5,251.6094 A2.5,2.5 0 0 1 768,254.1094 L768,596.5 A2.5,2.5 0 0 1 765.5,599 L86.5,599 A2.5,2.5 0 0 1 84,596.5 L84,230.5 A2.5,2.5 0 0 1 86.5,228 " fill="#FFFF00" style="stroke:#000000;stroke-width:1.5;"/><line style="stroke:#000000;stroke-width:1.5;" x1="84" x2="208" y1="251.6094" y2="251.6094"/><text fill="#000000" font-family="sans-serif" font-size="14" font-weight="bold" lengthAdjust="spacing" textLength="111" x="88" y="244.5332">ExerciseBattery</text></g><!--class Exercise--><g id="elem_Exercise"><rect codeLine="81" fill="#F1F1F1" height="48" id="Exercise" rx="2.5" ry="2.5" style="stroke:#181818;stroke-width:0.5;" width="85" x="592.5" y="264"/><ellipse cx="607.5" cy="280" fill="#A9DCDF" rx="11" ry="11" style="stroke:#181818;stroke-width:1.0;"/><path d="M609.6875,281.7656 L605.5469,281.7656 L605.125,282.7969 L605.5469,282.7969 Q606.1563,282.7969 606.4219,283.0313 Q606.6875,283.2656 606.6875,283.6563 Q606.6875,284.0313 606.4219,284.2656 Q606.1563,284.5 605.5469,284.5 L603.25,284.5 Q602.6406,284.5 602.3906,284.2656 Q602.125,284.0313 602.125,283.6406 Q602.125,283.2656 602.4063,283.0313 Q602.6719,282.7813 603.2969,282.7969 L605.9688,276.1406 L604.8594,276.1406 Q604.25,276.1406 603.9844,275.9063 Q603.7188,275.6719 603.7188,275.2813 Q603.7188,274.9063 603.9844,274.6719 Q604.25,274.4375 604.8594,274.4375 L608.5313,274.4375 L611.9219,282.7969 Q612.5156,282.7969 612.7031,282.9375 Q613.0938,283.2031 613.0938,283.6563 Q613.0938,284.0313 612.8281,284.2656 Q612.5781,284.5 611.9688,284.5 L609.6719,284.5 Q609.0625,284.5 608.7969,284.2656 Q608.5313,284.0313 608.5313,283.6406 Q608.5313,283.2656 608.7969,283.0313 Q609.0625,282.7969 609.6719,282.7969 L610.0938,282.7969 L609.6875,281.7656 Z M608.9688,280.0625 L607.6094,276.6875 L606.2344,280.0625 L608.9688,280.0625 Z " fill="#000000"/><text fill="#000000" font-family="sans-serif" font-size="14" font-style="italic" lengthAdjust="spacing" textLength="53" x="621.5" y="285.7285">Exercise</text><line style="stroke:#181818;stroke-width:0.5;" x1="593.5" x2="676.5" y1="296" y2="296"/><line style="stroke:#181818;stroke-width:0.5;" x1="593.5" x2="676.5" y1="304" y2="304"/></g><!--class Domain--><g id="elem_Domain"><rect codeLine="92" fill="#F1F1F1" height="65.6094" id="Domain" rx="2.5" ry="2.5" style="stroke:#181818;stroke-width:0.5;" width="163" x="100.5" y="517"/><ellipse cx="153.75" cy="533" fill="#ADD1B2" rx="11" ry="11" style="stroke:#181818;stroke-width:1.0;"/><path d="M156.5156,528.875 Q156.6719,528.6563 156.8594,528.5469 Q157.0469,528.4375 157.2656,528.4375 Q157.6406,528.4375 157.875,528.7031 Q158.1094,528.9531 158.1094,529.5625 L158.1094,531.0156 Q158.1094,531.625 157.875,531.8906 Q157.6406,532.1563 157.2656,532.1563 Q156.9219,532.1563 156.7188,531.9531 Q156.5156,531.7656 156.4063,531.25 Q156.3594,530.8906 156.1719,530.7031 Q155.8438,530.3281 155.2344,530.1094 Q154.625,529.8906 154,529.8906 Q153.2344,529.8906 152.5938,530.2188 Q151.9688,530.5469 151.4688,531.2969 Q150.9844,532.0469 150.9844,533.0781 L150.9844,534.1719 Q150.9844,535.4063 151.875,536.2344 Q152.7656,537.0469 154.3594,537.0469 Q155.2969,537.0469 155.9531,536.7969 Q156.3438,536.6406 156.7656,536.2031 Q157.0313,535.9375 157.1719,535.8594 Q157.3281,535.7813 157.5313,535.7813 Q157.8594,535.7813 158.1094,536.0469 Q158.375,536.2969 158.375,536.6406 Q158.375,536.9844 158.0313,537.3906 Q157.5313,537.9688 156.7344,538.2969 Q155.6563,538.75 154.3594,538.75 Q152.8438,538.75 151.6406,538.125 Q150.6563,537.625 149.9688,536.5625 Q149.2813,535.4844 149.2813,534.2031 L149.2813,533.0469 Q149.2813,531.7188 149.8906,530.5781 Q150.5156,529.4219 151.6094,528.8125 Q152.7031,528.1875 153.9375,528.1875 Q154.6719,528.1875 155.3125,528.3594 Q155.9688,528.5156 156.5156,528.875 Z " fill="#000000"/><text fill="#000000" font-family="sans-serif" font-size="14" lengthAdjust="spacing" textLength="48" x="174.25" y="538.7285">Domain</text><line style="stroke:#181818;stroke-width:0.5;" x1="101.5" x2="262.5" y1="549" y2="549"/><text fill="#000000" font-family="sans-serif" font-size="14" lengthAdjust="spacing" textLength="151" x="106.5" y="567.5332">versions : List&lt;Domain&gt;</text><line style="stroke:#181818;stroke-width:0.5;" x1="101.5" x2="262.5" y1="574.6094" y2="574.6094"/></g><!--class Application--><g id="elem_Application"><rect codeLine="119" fill="#F1F1F1" height="83.2188" id="Application" rx="2.5" ry="2.5" style="stroke:#181818;stroke-width:0.5;" width="151" x="100.5" y="373"/><ellipse cx="138" cy="389" fill="#ADD1B2" rx="11" ry="11" style="stroke:#181818;stroke-width:1.0;"/><path d="M140.7656,384.875 Q140.9219,384.6563 141.1094,384.5469 Q141.2969,384.4375 141.5156,384.4375 Q141.8906,384.4375 142.125,384.7031 Q142.3594,384.9531 142.3594,385.5625 L142.3594,387.0156 Q142.3594,387.625 142.125,387.8906 Q141.8906,388.1563 141.5156,388.1563 Q141.1719,388.1563 140.9688,387.9531 Q140.7656,387.7656 140.6563,387.25 Q140.6094,386.8906 140.4219,386.7031 Q140.0938,386.3281 139.4844,386.1094 Q138.875,385.8906 138.25,385.8906 Q137.4844,385.8906 136.8438,386.2188 Q136.2188,386.5469 135.7188,387.2969 Q135.2344,388.0469 135.2344,389.0781 L135.2344,390.1719 Q135.2344,391.4063 136.125,392.2344 Q137.0156,393.0469 138.6094,393.0469 Q139.5469,393.0469 140.2031,392.7969 Q140.5938,392.6406 141.0156,392.2031 Q141.2813,391.9375 141.4219,391.8594 Q141.5781,391.7813 141.7813,391.7813 Q142.1094,391.7813 142.3594,392.0469 Q142.625,392.2969 142.625,392.6406 Q142.625,392.9844 142.2813,393.3906 Q141.7813,393.9688 140.9844,394.2969 Q139.9063,394.75 138.6094,394.75 Q137.0938,394.75 135.8906,394.125 Q134.9063,393.625 134.2188,392.5625 Q133.5313,391.4844 133.5313,390.2031 L133.5313,389.0469 Q133.5313,387.7188 134.1406,386.5781 Q134.7656,385.4219 135.8594,384.8125 Q136.9531,384.1875 138.1875,384.1875 Q138.9219,384.1875 139.5625,384.3594 Q140.2188,384.5156 140.7656,384.875 Z " fill="#000000"/><text fill="#000000" font-family="sans-serif" font-size="14" lengthAdjust="spacing" textLength="69" x="157" y="394.7285">Application</text><line style="stroke:#181818;stroke-width:0.5;" x1="101.5" x2="250.5" y1="405" y2="405"/><rect fill="none" height="6" style="stroke:#C82930;stroke-width:1.0;" width="6" x="108.5" y="416.3047"/><text fill="#000000" font-family="sans-serif" font-size="14" lengthAdjust="spacing" textLength="107" x="120.5" y="423.5332">correct : boolean</text><rect fill="none" height="6" style="stroke:#C82930;stroke-width:1.0;" width="6" x="108.5" y="433.9141"/><text fill="#000000" font-family="sans-serif" font-size="14" lengthAdjust="spacing" textLength="125" x="120.5" y="441.1426">evaluated : boolean</text><line style="stroke:#181818;stroke-width:0.5;" x1="101.5" x2="250.5" y1="448.2188" y2="448.2188"/></g><!--class QuestionExercise--><g id="elem_QuestionExercise"><rect codeLine="98" fill="#F1F1F1" height="65.6094" id="QuestionExercise" rx="2.5" ry="2.5" style="stroke:#181818;stroke-width:0.5;" width="142" x="287" y="381.5"/><ellipse cx="302" cy="397.5" fill="#ADD1B2" rx="11" ry="11" style="stroke:#181818;stroke-width:1.0;"/><path d="M304.7656,393.375 Q304.9219,393.1563 305.1094,393.0469 Q305.2969,392.9375 305.5156,392.9375 Q305.8906,392.9375 306.125,393.2031 Q306.3594,393.4531 306.3594,394.0625 L306.3594,395.5156 Q306.3594,396.125 306.125,396.3906 Q305.8906,396.6563 305.5156,396.6563 Q305.1719,396.6563 304.9688,396.4531 Q304.7656,396.2656 304.6563,395.75 Q304.6094,395.3906 304.4219,395.2031 Q304.0938,394.8281 303.4844,394.6094 Q302.875,394.3906 302.25,394.3906 Q301.4844,394.3906 300.8438,394.7188 Q300.2188,395.0469 299.7188,395.7969 Q299.2344,396.5469 299.2344,397.5781 L299.2344,398.6719 Q299.2344,399.9063 300.125,400.7344 Q301.0156,401.5469 302.6094,401.5469 Q303.5469,401.5469 304.2031,401.2969 Q304.5938,401.1406 305.0156,400.7031 Q305.2813,400.4375 305.4219,400.3594 Q305.5781,400.2813 305.7813,400.2813 Q306.1094,400.2813 306.3594,400.5469 Q306.625,400.7969 306.625,401.1406 Q306.625,401.4844 306.2813,401.8906 Q305.7813,402.4688 304.9844,402.7969 Q303.9063,403.25 302.6094,403.25 Q301.0938,403.25 299.8906,402.625 Q298.9063,402.125 298.2188,401.0625 Q297.5313,399.9844 297.5313,398.7031 L297.5313,397.5469 Q297.5313,396.2188 298.1406,395.0781 Q298.7656,393.9219 299.8594,393.3125 Q300.9531,392.6875 302.1875,392.6875 Q302.9219,392.6875 303.5625,392.8594 Q304.2188,393.0156 304.7656,393.375 Z " fill="#000000"/><text fill="#000000" font-family="sans-serif" font-size="14" lengthAdjust="spacing" textLength="110" x="316" y="403.2285">QuestionExercise</text><line style="stroke:#181818;stroke-width:0.5;" x1="288" x2="428" y1="413.5" y2="413.5"/><text fill="#000000" font-family="sans-serif" font-size="14" lengthAdjust="spacing" textLength="111" x="293" y="432.0332">statement : String</text><line style="stroke:#181818;stroke-width:0.5;" x1="288" x2="428" y1="439.1094" y2="439.1094"/></g><!--class DomainExercise--><g id="elem_DomainExercise"><rect codeLine="86" fill="#F1F1F1" height="48" id="DomainExercise" rx="2.5" ry="2.5" style="stroke:#181818;stroke-width:0.5;" width="133" x="618.5" y="390.5"/><ellipse cx="633.5" cy="406.5" fill="#ADD1B2" rx="11" ry="11" style="stroke:#181818;stroke-width:1.0;"/><path d="M636.2656,402.375 Q636.4219,402.1563 636.6094,402.0469 Q636.7969,401.9375 637.0156,401.9375 Q637.3906,401.9375 637.625,402.2031 Q637.8594,402.4531 637.8594,403.0625 L637.8594,404.5156 Q637.8594,405.125 637.625,405.3906 Q637.3906,405.6563 637.0156,405.6563 Q636.6719,405.6563 636.4688,405.4531 Q636.2656,405.2656 636.1563,404.75 Q636.1094,404.3906 635.9219,404.2031 Q635.5938,403.8281 634.9844,403.6094 Q634.375,403.3906 633.75,403.3906 Q632.9844,403.3906 632.3438,403.7188 Q631.7188,404.0469 631.2188,404.7969 Q630.7344,405.5469 630.7344,406.5781 L630.7344,407.6719 Q630.7344,408.9063 631.625,409.7344 Q632.5156,410.5469 634.1094,410.5469 Q635.0469,410.5469 635.7031,410.2969 Q636.0938,410.1406 636.5156,409.7031 Q636.7813,409.4375 636.9219,409.3594 Q637.0781,409.2813 637.2813,409.2813 Q637.6094,409.2813 637.8594,409.5469 Q638.125,409.7969 638.125,410.1406 Q638.125,410.4844 637.7813,410.8906 Q637.2813,411.4688 636.4844,411.7969 Q635.4063,412.25 634.1094,412.25 Q632.5938,412.25 631.3906,411.625 Q630.4063,411.125 629.7188,410.0625 Q629.0313,408.9844 629.0313,407.7031 L629.0313,406.5469 Q629.0313,405.2188 629.6406,404.0781 Q630.2656,402.9219 631.3594,402.3125 Q632.4531,401.6875 633.6875,401.6875 Q634.4219,401.6875 635.0625,401.8594 Q635.7188,402.0156 636.2656,402.375 Z " fill="#000000"/><text fill="#000000" font-family="sans-serif" font-size="14" lengthAdjust="spacing" textLength="101" x="647.5" y="412.2285">DomainExercise</text><line style="stroke:#181818;stroke-width:0.5;" x1="619.5" x2="750.5" y1="422.5" y2="422.5"/><line style="stroke:#181818;stroke-width:0.5;" x1="619.5" x2="750.5" y1="430.5" y2="430.5"/></g><!--class MultipleChoice--><g id="elem_MultipleChoice"><rect codeLine="116" fill="#F1F1F1" height="48" id="MultipleChoice" rx="2.5" ry="2.5" style="stroke:#181818;stroke-width:0.5;" width="124" x="419" y="526"/><ellipse cx="434" cy="542" fill="#ADD1B2" rx="11" ry="11" style="stroke:#181818;stroke-width:1.0;"/><path d="M436.7656,537.875 Q436.9219,537.6563 437.1094,537.5469 Q437.2969,537.4375 437.5156,537.4375 Q437.8906,537.4375 438.125,537.7031 Q438.3594,537.9531 438.3594,538.5625 L438.3594,540.0156 Q438.3594,540.625 438.125,540.8906 Q437.8906,541.1563 437.5156,541.1563 Q437.1719,541.1563 436.9688,540.9531 Q436.7656,540.7656 436.6563,540.25 Q436.6094,539.8906 436.4219,539.7031 Q436.0938,539.3281 435.4844,539.1094 Q434.875,538.8906 434.25,538.8906 Q433.4844,538.8906 432.8438,539.2188 Q432.2188,539.5469 431.7188,540.2969 Q431.2344,541.0469 431.2344,542.0781 L431.2344,543.1719 Q431.2344,544.4063 432.125,545.2344 Q433.0156,546.0469 434.6094,546.0469 Q435.5469,546.0469 436.2031,545.7969 Q436.5938,545.6406 437.0156,545.2031 Q437.2813,544.9375 437.4219,544.8594 Q437.5781,544.7813 437.7813,544.7813 Q438.1094,544.7813 438.3594,545.0469 Q438.625,545.2969 438.625,545.6406 Q438.625,545.9844 438.2813,546.3906 Q437.7813,546.9688 436.9844,547.2969 Q435.9063,547.75 434.6094,547.75 Q433.0938,547.75 431.8906,547.125 Q430.9063,546.625 430.2188,545.5625 Q429.5313,544.4844 429.5313,543.2031 L429.5313,542.0469 Q429.5313,540.7188 430.1406,539.5781 Q430.7656,538.4219 431.8594,537.8125 Q432.9531,537.1875 434.1875,537.1875 Q434.9219,537.1875 435.5625,537.3594 Q436.2188,537.5156 436.7656,537.875 Z " fill="#000000"/><text fill="#000000" font-family="sans-serif" font-size="14" lengthAdjust="spacing" textLength="92" x="448" y="547.7285">MultipleChoice</text><line style="stroke:#181818;stroke-width:0.5;" x1="420" x2="542" y1="558" y2="558"/><line style="stroke:#181818;stroke-width:0.5;" x1="420" x2="542" y1="566" y2="566"/></g><!--class Cloze--><g id="elem_Cloze"><rect codeLine="112" fill="#F1F1F1" height="65.6094" id="Cloze" rx="2.5" ry="2.5" style="stroke:#181818;stroke-width:0.5;" width="107" x="578.5" y="517"/><ellipse cx="611.5" cy="533" fill="#ADD1B2" rx="11" ry="11" style="stroke:#181818;stroke-width:1.0;"/><path d="M614.2656,528.875 Q614.4219,528.6563 614.6094,528.5469 Q614.7969,528.4375 615.0156,528.4375 Q615.3906,528.4375 615.625,528.7031 Q615.8594,528.9531 615.8594,529.5625 L615.8594,531.0156 Q615.8594,531.625 615.625,531.8906 Q615.3906,532.1563 615.0156,532.1563 Q614.6719,532.1563 614.4688,531.9531 Q614.2656,531.7656 614.1563,531.25 Q614.1094,530.8906 613.9219,530.7031 Q613.5938,530.3281 612.9844,530.1094 Q612.375,529.8906 611.75,529.8906 Q610.9844,529.8906 610.3438,530.2188 Q609.7188,530.5469 609.2188,531.2969 Q608.7344,532.0469 608.7344,533.0781 L608.7344,534.1719 Q608.7344,535.4063 609.625,536.2344 Q610.5156,537.0469 612.1094,537.0469 Q613.0469,537.0469 613.7031,536.7969 Q614.0938,536.6406 614.5156,536.2031 Q614.7813,535.9375 614.9219,535.8594 Q615.0781,535.7813 615.2813,535.7813 Q615.6094,535.7813 615.8594,536.0469 Q616.125,536.2969 616.125,536.6406 Q616.125,536.9844 615.7813,537.3906 Q615.2813,537.9688 614.4844,538.2969 Q613.4063,538.75 612.1094,538.75 Q610.5938,538.75 609.3906,538.125 Q608.4063,537.625 607.7188,536.5625 Q607.0313,535.4844 607.0313,534.2031 L607.0313,533.0469 Q607.0313,531.7188 607.6406,530.5781 Q608.2656,529.4219 609.3594,528.8125 Q610.4531,528.1875 611.6875,528.1875 Q612.4219,528.1875 613.0625,528.3594 Q613.7188,528.5156 614.2656,528.875 Z " fill="#000000"/><text fill="#000000" font-family="sans-serif" font-size="14" lengthAdjust="spacing" textLength="35" x="629.5" y="538.7285">Cloze</text><line style="stroke:#181818;stroke-width:0.5;" x1="579.5" x2="684.5" y1="549" y2="549"/><text fill="#000000" font-family="sans-serif" font-size="14" lengthAdjust="spacing" textLength="95" x="584.5" y="567.5332">blankCount: int</text><line style="stroke:#181818;stroke-width:0.5;" x1="579.5" x2="684.5" y1="574.6094" y2="574.6094"/></g><!--class Open--><g id="elem_Open"><rect fill="#F1F1F1" height="48" id="Open" rx="2.5" ry="2.5" style="stroke:#181818;stroke-width:0.5;" width="67" x="316.5" y="526"/><ellipse cx="331.5" cy="542" fill="#ADD1B2" rx="11" ry="11" style="stroke:#181818;stroke-width:1.0;"/><path d="M334.2656,537.875 Q334.4219,537.6563 334.6094,537.5469 Q334.7969,537.4375 335.0156,537.4375 Q335.3906,537.4375 335.625,537.7031 Q335.8594,537.9531 335.8594,538.5625 L335.8594,540.0156 Q335.8594,540.625 335.625,540.8906 Q335.3906,541.1563 335.0156,541.1563 Q334.6719,541.1563 334.4688,540.9531 Q334.2656,540.7656 334.1563,540.25 Q334.1094,539.8906 333.9219,539.7031 Q333.5938,539.3281 332.9844,539.1094 Q332.375,538.8906 331.75,538.8906 Q330.9844,538.8906 330.3438,539.2188 Q329.7188,539.5469 329.2188,540.2969 Q328.7344,541.0469 328.7344,542.0781 L328.7344,543.1719 Q328.7344,544.4063 329.625,545.2344 Q330.5156,546.0469 332.1094,546.0469 Q333.0469,546.0469 333.7031,545.7969 Q334.0938,545.6406 334.5156,545.2031 Q334.7813,544.9375 334.9219,544.8594 Q335.0781,544.7813 335.2813,544.7813 Q335.6094,544.7813 335.8594,545.0469 Q336.125,545.2969 336.125,545.6406 Q336.125,545.9844 335.7813,546.3906 Q335.2813,546.9688 334.4844,547.2969 Q333.4063,547.75 332.1094,547.75 Q330.5938,547.75 329.3906,547.125 Q328.4063,546.625 327.7188,545.5625 Q327.0313,544.4844 327.0313,543.2031 L327.0313,542.0469 Q327.0313,540.7188 327.6406,539.5781 Q328.2656,538.4219 329.3594,537.8125 Q330.4531,537.1875 331.6875,537.1875 Q332.4219,537.1875 333.0625,537.3594 Q333.7188,537.5156 334.2656,537.875 Z " fill="#000000"/><text fill="#000000" font-family="sans-serif" font-size="14" lengthAdjust="spacing" textLength="35" x="345.5" y="547.7285">Open</text><line style="stroke:#181818;stroke-width:0.5;" x1="317.5" x2="382.5" y1="558" y2="558"/><line style="stroke:#181818;stroke-width:0.5;" x1="317.5" x2="382.5" y1="566" y2="566"/></g><!--class Answer--><g id="elem_Answer"><rect codeLine="107" fill="#F1F1F1" height="65.6094" id="Answer" rx="2.5" ry="2.5" style="stroke:#181818;stroke-width:0.5;" width="119" x="464.5" y="381.5"/><ellipse cx="497.95" cy="397.5" fill="#ADD1B2" rx="11" ry="11" style="stroke:#181818;stroke-width:1.0;"/><path d="M500.7156,393.375 Q500.8719,393.1563 501.0594,393.0469 Q501.2469,392.9375 501.4656,392.9375 Q501.8406,392.9375 502.075,393.2031 Q502.3094,393.4531 502.3094,394.0625 L502.3094,395.5156 Q502.3094,396.125 502.075,396.3906 Q501.8406,396.6563 501.4656,396.6563 Q501.1219,396.6563 500.9188,396.4531 Q500.7156,396.2656 500.6063,395.75 Q500.5594,395.3906 500.3719,395.2031 Q500.0438,394.8281 499.4344,394.6094 Q498.825,394.3906 498.2,394.3906 Q497.4344,394.3906 496.7938,394.7188 Q496.1688,395.0469 495.6688,395.7969 Q495.1844,396.5469 495.1844,397.5781 L495.1844,398.6719 Q495.1844,399.9063 496.075,400.7344 Q496.9656,401.5469 498.5594,401.5469 Q499.4969,401.5469 500.1531,401.2969 Q500.5438,401.1406 500.9656,400.7031 Q501.2313,400.4375 501.3719,400.3594 Q501.5281,400.2813 501.7313,400.2813 Q502.0594,400.2813 502.3094,400.5469 Q502.575,400.7969 502.575,401.1406 Q502.575,401.4844 502.2313,401.8906 Q501.7313,402.4688 500.9344,402.7969 Q499.8563,403.25 498.5594,403.25 Q497.0438,403.25 495.8406,402.625 Q494.8563,402.125 494.1688,401.0625 Q493.4813,399.9844 493.4813,398.7031 L493.4813,397.5469 Q493.4813,396.2188 494.0906,395.0781 Q494.7156,393.9219 495.8094,393.3125 Q496.9031,392.6875 498.1375,392.6875 Q498.8719,392.6875 499.5125,392.8594 Q500.1688,393.0156 500.7156,393.375 Z " fill="#000000"/><text fill="#000000" font-family="sans-serif" font-size="14" lengthAdjust="spacing" textLength="46" x="516.05" y="403.2285">Answer</text><line style="stroke:#181818;stroke-width:0.5;" x1="465.5" x2="582.5" y1="413.5" y2="413.5"/><text fill="#000000" font-family="sans-serif" font-size="14" lengthAdjust="spacing" textLength="107" x="470.5" y="432.0332">correct : boolean</text><line style="stroke:#181818;stroke-width:0.5;" x1="465.5" x2="582.5" y1="439.1094" y2="439.1094"/></g><!--class EducationPlatform--><g id="elem_EducationPlatform"><rect fill="#F1F1F1" height="48" id="EducationPlatform" rx="2.5" ry="2.5" style="stroke:#181818;stroke-width:0.5;" width="147" x="804.5" y="7"/><ellipse cx="819.5" cy="23" fill="#ADD1B2" rx="11" ry="11" style="stroke:#181818;stroke-width:1.0;"/><path d="M822.2656,18.875 Q822.4219,18.6563 822.6094,18.5469 Q822.7969,18.4375 823.0156,18.4375 Q823.3906,18.4375 823.625,18.7031 Q823.8594,18.9531 823.8594,19.5625 L823.8594,21.0156 Q823.8594,21.625 823.625,21.8906 Q823.3906,22.1563 823.0156,22.1563 Q822.6719,22.1563 822.4688,21.9531 Q822.2656,21.7656 822.1563,21.25 Q822.1094,20.8906 821.9219,20.7031 Q821.5938,20.3281 820.9844,20.1094 Q820.375,19.8906 819.75,19.8906 Q818.9844,19.8906 818.3438,20.2188 Q817.7188,20.5469 817.2188,21.2969 Q816.7344,22.0469 816.7344,23.0781 L816.7344,24.1719 Q816.7344,25.4063 817.625,26.2344 Q818.5156,27.0469 820.1094,27.0469 Q821.0469,27.0469 821.7031,26.7969 Q822.0938,26.6406 822.5156,26.2031 Q822.7813,25.9375 822.9219,25.8594 Q823.0781,25.7813 823.2813,25.7813 Q823.6094,25.7813 823.8594,26.0469 Q824.125,26.2969 824.125,26.6406 Q824.125,26.9844 823.7813,27.3906 Q823.2813,27.9688 822.4844,28.2969 Q821.4063,28.75 820.1094,28.75 Q818.5938,28.75 817.3906,28.125 Q816.4063,27.625 815.7188,26.5625 Q815.0313,25.4844 815.0313,24.2031 L815.0313,23.0469 Q815.0313,21.7188 815.6406,20.5781 Q816.2656,19.4219 817.3594,18.8125 Q818.4531,18.1875 819.6875,18.1875 Q820.4219,18.1875 821.0625,18.3594 Q821.7188,18.5156 822.2656,18.875 Z " fill="#000000"/><text fill="#000000" font-family="sans-serif" font-size="14" lengthAdjust="spacing" textLength="115" x="833.5" y="28.7285">EducationPlatform</text><line style="stroke:#181818;stroke-width:0.5;" x1="805.5" x2="950.5" y1="39" y2="39"/><line style="stroke:#181818;stroke-width:0.5;" x1="805.5" x2="950.5" y1="47" y2="47"/></g><!--class User--><g id="elem_User"><rect codeLine="11" fill="#F1F1F1" height="48" id="User" rx="2.5" ry="2.5" style="stroke:#181818;stroke-width:0.5;" width="62" x="818" y="133"/><ellipse cx="833" cy="149" fill="#A9DCDF" rx="11" ry="11" style="stroke:#181818;stroke-width:1.0;"/><path d="M835.1875,150.7656 L831.0469,150.7656 L830.625,151.7969 L831.0469,151.7969 Q831.6563,151.7969 831.9219,152.0313 Q832.1875,152.2656 832.1875,152.6563 Q832.1875,153.0313 831.9219,153.2656 Q831.6563,153.5 831.0469,153.5 L828.75,153.5 Q828.1406,153.5 827.8906,153.2656 Q827.625,153.0313 827.625,152.6406 Q827.625,152.2656 827.9063,152.0313 Q828.1719,151.7813 828.7969,151.7969 L831.4688,145.1406 L830.3594,145.1406 Q829.75,145.1406 829.4844,144.9063 Q829.2188,144.6719 829.2188,144.2813 Q829.2188,143.9063 829.4844,143.6719 Q829.75,143.4375 830.3594,143.4375 L834.0313,143.4375 L837.4219,151.7969 Q838.0156,151.7969 838.2031,151.9375 Q838.5938,152.2031 838.5938,152.6563 Q838.5938,153.0313 838.3281,153.2656 Q838.0781,153.5 837.4688,153.5 L835.1719,153.5 Q834.5625,153.5 834.2969,153.2656 Q834.0313,153.0313 834.0313,152.6406 Q834.0313,152.2656 834.2969,152.0313 Q834.5625,151.7969 835.1719,151.7969 L835.5938,151.7969 L835.1875,150.7656 Z M834.4688,149.0625 L833.1094,145.6875 L831.7344,149.0625 L834.4688,149.0625 Z " fill="#000000"/><text fill="#000000" font-family="sans-serif" font-size="14" font-style="italic" lengthAdjust="spacing" textLength="30" x="847" y="154.7285">User</text><line style="stroke:#181818;stroke-width:0.5;" x1="819" x2="879" y1="165" y2="165"/><line style="stroke:#181818;stroke-width:0.5;" x1="819" x2="879" y1="173" y2="173"/></g><!--class Topic--><g id="elem_Topic"><rect codeLine="40" fill="#F1F1F1" height="48" id="Topic" rx="2.5" ry="2.5" style="stroke:#181818;stroke-width:0.5;" width="67" x="1055.5" y="390.5"/><ellipse cx="1070.5" cy="406.5" fill="#A9DCDF" rx="11" ry="11" style="stroke:#181818;stroke-width:1.0;"/><path d="M1072.6875,408.2656 L1068.5469,408.2656 L1068.125,409.2969 L1068.5469,409.2969 Q1069.1563,409.2969 1069.4219,409.5313 Q1069.6875,409.7656 1069.6875,410.1563 Q1069.6875,410.5313 1069.4219,410.7656 Q1069.1563,411 1068.5469,411 L1066.25,411 Q1065.6406,411 1065.3906,410.7656 Q1065.125,410.5313 1065.125,410.1406 Q1065.125,409.7656 1065.4063,409.5313 Q1065.6719,409.2813 1066.2969,409.2969 L1068.9688,402.6406 L1067.8594,402.6406 Q1067.25,402.6406 1066.9844,402.4063 Q1066.7188,402.1719 1066.7188,401.7813 Q1066.7188,401.4063 1066.9844,401.1719 Q1067.25,400.9375 1067.8594,400.9375 L1071.5313,400.9375 L1074.9219,409.2969 Q1075.5156,409.2969 1075.7031,409.4375 Q1076.0938,409.7031 1076.0938,410.1563 Q1076.0938,410.5313 1075.8281,410.7656 Q1075.5781,411 1074.9688,411 L1072.6719,411 Q1072.0625,411 1071.7969,410.7656 Q1071.5313,410.5313 1071.5313,410.1406 Q1071.5313,409.7656 1071.7969,409.5313 Q1072.0625,409.2969 1072.6719,409.2969 L1073.0938,409.2969 L1072.6875,408.2656 Z M1071.9688,406.5625 L1070.6094,403.1875 L1069.2344,406.5625 L1071.9688,406.5625 Z " fill="#000000"/><text fill="#000000" font-family="sans-serif" font-size="14" font-style="italic" lengthAdjust="spacing" textLength="35" x="1084.5" y="412.2285">Topic</text><line style="stroke:#181818;stroke-width:0.5;" x1="1056.5" x2="1121.5" y1="422.5" y2="422.5"/><line style="stroke:#181818;stroke-width:0.5;" x1="1056.5" x2="1121.5" y1="430.5" y2="430.5"/></g><!--class Itinerary--><g id="elem_Itinerary"><rect codeLine="28" fill="#F1F1F1" height="48" id="Itinerary" rx="2.5" ry="2.5" style="stroke:#181818;stroke-width:0.5;" width="83" x="950.5" y="133"/><ellipse cx="965.5" cy="149" fill="#ADD1B2" rx="11" ry="11" style="stroke:#181818;stroke-width:1.0;"/><path d="M968.2656,144.875 Q968.4219,144.6563 968.6094,144.5469 Q968.7969,144.4375 969.0156,144.4375 Q969.3906,144.4375 969.625,144.7031 Q969.8594,144.9531 969.8594,145.5625 L969.8594,147.0156 Q969.8594,147.625 969.625,147.8906 Q969.3906,148.1563 969.0156,148.1563 Q968.6719,148.1563 968.4688,147.9531 Q968.2656,147.7656 968.1563,147.25 Q968.1094,146.8906 967.9219,146.7031 Q967.5938,146.3281 966.9844,146.1094 Q966.375,145.8906 965.75,145.8906 Q964.9844,145.8906 964.3438,146.2188 Q963.7188,146.5469 963.2188,147.2969 Q962.7344,148.0469 962.7344,149.0781 L962.7344,150.1719 Q962.7344,151.4063 963.625,152.2344 Q964.5156,153.0469 966.1094,153.0469 Q967.0469,153.0469 967.7031,152.7969 Q968.0938,152.6406 968.5156,152.2031 Q968.7813,151.9375 968.9219,151.8594 Q969.0781,151.7813 969.2813,151.7813 Q969.6094,151.7813 969.8594,152.0469 Q970.125,152.2969 970.125,152.6406 Q970.125,152.9844 969.7813,153.3906 Q969.2813,153.9688 968.4844,154.2969 Q967.4063,154.75 966.1094,154.75 Q964.5938,154.75 963.3906,154.125 Q962.4063,153.625 961.7188,152.5625 Q961.0313,151.4844 961.0313,150.2031 L961.0313,149.0469 Q961.0313,147.7188 961.6406,146.5781 Q962.2656,145.4219 963.3594,144.8125 Q964.4531,144.1875 965.6875,144.1875 Q966.4219,144.1875 967.0625,144.3594 Q967.7188,144.5156 968.2656,144.875 Z " fill="#000000"/><text fill="#000000" font-family="sans-serif" font-size="14" lengthAdjust="spacing" textLength="51" x="979.5" y="154.7285">Itinerary</text><line style="stroke:#181818;stroke-width:0.5;" x1="951.5" x2="1032.5" y1="165" y2="165"/><line style="stroke:#181818;stroke-width:0.5;" x1="951.5" x2="1032.5" y1="173" y2="173"/></g><!--class Evaluator--><g id="elem_Evaluator"><rect codeLine="24" fill="#F1F1F1" height="48" id="Evaluator" rx="2.5" ry="2.5" style="stroke:#181818;stroke-width:0.5;" width="92" x="1176" y="133"/><ellipse cx="1191" cy="149" fill="#ADD1B2" rx="11" ry="11" style="stroke:#181818;stroke-width:1.0;"/><path d="M1193.7656,144.875 Q1193.9219,144.6563 1194.1094,144.5469 Q1194.2969,144.4375 1194.5156,144.4375 Q1194.8906,144.4375 1195.125,144.7031 Q1195.3594,144.9531 1195.3594,145.5625 L1195.3594,147.0156 Q1195.3594,147.625 1195.125,147.8906 Q1194.8906,148.1563 1194.5156,148.1563 Q1194.1719,148.1563 1193.9688,147.9531 Q1193.7656,147.7656 1193.6563,147.25 Q1193.6094,146.8906 1193.4219,146.7031 Q1193.0938,146.3281 1192.4844,146.1094 Q1191.875,145.8906 1191.25,145.8906 Q1190.4844,145.8906 1189.8438,146.2188 Q1189.2188,146.5469 1188.7188,147.2969 Q1188.2344,148.0469 1188.2344,149.0781 L1188.2344,150.1719 Q1188.2344,151.4063 1189.125,152.2344 Q1190.0156,153.0469 1191.6094,153.0469 Q1192.5469,153.0469 1193.2031,152.7969 Q1193.5938,152.6406 1194.0156,152.2031 Q1194.2813,151.9375 1194.4219,151.8594 Q1194.5781,151.7813 1194.7813,151.7813 Q1195.1094,151.7813 1195.3594,152.0469 Q1195.625,152.2969 1195.625,152.6406 Q1195.625,152.9844 1195.2813,153.3906 Q1194.7813,153.9688 1193.9844,154.2969 Q1192.9063,154.75 1191.6094,154.75 Q1190.0938,154.75 1188.8906,154.125 Q1187.9063,153.625 1187.2188,152.5625 Q1186.5313,151.4844 1186.5313,150.2031 L1186.5313,149.0469 Q1186.5313,147.7188 1187.1406,146.5781 Q1187.7656,145.4219 1188.8594,144.8125 Q1189.9531,144.1875 1191.1875,144.1875 Q1191.9219,144.1875 1192.5625,144.3594 Q1193.2188,144.5156 1193.7656,144.875 Z " fill="#000000"/><text fill="#000000" font-family="sans-serif" font-size="14" lengthAdjust="spacing" textLength="60" x="1205" y="154.7285">Evaluator</text><line style="stroke:#181818;stroke-width:0.5;" x1="1177" x2="1267" y1="165" y2="165"/><line style="stroke:#181818;stroke-width:0.5;" x1="1177" x2="1267" y1="173" y2="173"/></g><!--class Teacher--><g id="elem_Teacher"><rect codeLine="17" fill="#F1F1F1" height="48" id="Teacher" rx="2.5" ry="2.5" style="stroke:#181818;stroke-width:0.5;" width="85" x="784.5" y="264"/><ellipse cx="799.5" cy="280" fill="#ADD1B2" rx="11" ry="11" style="stroke:#181818;stroke-width:1.0;"/><path d="M802.2656,275.875 Q802.4219,275.6563 802.6094,275.5469 Q802.7969,275.4375 803.0156,275.4375 Q803.3906,275.4375 803.625,275.7031 Q803.8594,275.9531 803.8594,276.5625 L803.8594,278.0156 Q803.8594,278.625 803.625,278.8906 Q803.3906,279.1563 803.0156,279.1563 Q802.6719,279.1563 802.4688,278.9531 Q802.2656,278.7656 802.1563,278.25 Q802.1094,277.8906 801.9219,277.7031 Q801.5938,277.3281 800.9844,277.1094 Q800.375,276.8906 799.75,276.8906 Q798.9844,276.8906 798.3438,277.2188 Q797.7188,277.5469 797.2188,278.2969 Q796.7344,279.0469 796.7344,280.0781 L796.7344,281.1719 Q796.7344,282.4063 797.625,283.2344 Q798.5156,284.0469 800.1094,284.0469 Q801.0469,284.0469 801.7031,283.7969 Q802.0938,283.6406 802.5156,283.2031 Q802.7813,282.9375 802.9219,282.8594 Q803.0781,282.7813 803.2813,282.7813 Q803.6094,282.7813 803.8594,283.0469 Q804.125,283.2969 804.125,283.6406 Q804.125,283.9844 803.7813,284.3906 Q803.2813,284.9688 802.4844,285.2969 Q801.4063,285.75 800.1094,285.75 Q798.5938,285.75 797.3906,285.125 Q796.4063,284.625 795.7188,283.5625 Q795.0313,282.4844 795.0313,281.2031 L795.0313,280.0469 Q795.0313,278.7188 795.6406,277.5781 Q796.2656,276.4219 797.3594,275.8125 Q798.4531,275.1875 799.6875,275.1875 Q800.4219,275.1875 801.0625,275.3594 Q801.7188,275.5156 802.2656,275.875 Z " fill="#000000"/><text fill="#000000" font-family="sans-serif" font-size="14" lengthAdjust="spacing" textLength="53" x="813.5" y="285.7285">Teacher</text><line style="stroke:#181818;stroke-width:0.5;" x1="785.5" x2="868.5" y1="296" y2="296"/><line style="stroke:#181818;stroke-width:0.5;" x1="785.5" x2="868.5" y1="304" y2="304"/></g><!--class Student--><g id="elem_Student"><rect codeLine="20" fill="#F1F1F1" height="48" id="Student" rx="2.5" ry="2.5" style="stroke:#181818;stroke-width:0.5;" width="81" x="904.5" y="264"/><ellipse cx="919.5" cy="280" fill="#ADD1B2" rx="11" ry="11" style="stroke:#181818;stroke-width:1.0;"/><path d="M922.2656,275.875 Q922.4219,275.6563 922.6094,275.5469 Q922.7969,275.4375 923.0156,275.4375 Q923.3906,275.4375 923.625,275.7031 Q923.8594,275.9531 923.8594,276.5625 L923.8594,278.0156 Q923.8594,278.625 923.625,278.8906 Q923.3906,279.1563 923.0156,279.1563 Q922.6719,279.1563 922.4688,278.9531 Q922.2656,278.7656 922.1563,278.25 Q922.1094,277.8906 921.9219,277.7031 Q921.5938,277.3281 920.9844,277.1094 Q920.375,276.8906 919.75,276.8906 Q918.9844,276.8906 918.3438,277.2188 Q917.7188,277.5469 917.2188,278.2969 Q916.7344,279.0469 916.7344,280.0781 L916.7344,281.1719 Q916.7344,282.4063 917.625,283.2344 Q918.5156,284.0469 920.1094,284.0469 Q921.0469,284.0469 921.7031,283.7969 Q922.0938,283.6406 922.5156,283.2031 Q922.7813,282.9375 922.9219,282.8594 Q923.0781,282.7813 923.2813,282.7813 Q923.6094,282.7813 923.8594,283.0469 Q924.125,283.2969 924.125,283.6406 Q924.125,283.9844 923.7813,284.3906 Q923.2813,284.9688 922.4844,285.2969 Q921.4063,285.75 920.1094,285.75 Q918.5938,285.75 917.3906,285.125 Q916.4063,284.625 915.7188,283.5625 Q915.0313,282.4844 915.0313,281.2031 L915.0313,280.0469 Q915.0313,278.7188 915.6406,277.5781 Q916.2656,276.4219 917.3594,275.8125 Q918.4531,275.1875 919.6875,275.1875 Q920.4219,275.1875 921.0625,275.3594 Q921.7188,275.5156 922.2656,275.875 Z " fill="#000000"/><text fill="#000000" font-family="sans-serif" font-size="14" lengthAdjust="spacing" textLength="49" x="933.5" y="285.7285">Student</text><line style="stroke:#181818;stroke-width:0.5;" x1="905.5" x2="984.5" y1="296" y2="296"/><line style="stroke:#181818;stroke-width:0.5;" x1="905.5" x2="984.5" y1="304" y2="304"/></g><!--class QuestionExercise--><g id="elem_QuestionExercise"><rect fill="#F1F1F1" height="48" id="QuestionExercise" rx="2.5" ry="2.5" style="stroke:#181818;stroke-width:0.5;" width="142" x="1163" y="264"/><ellipse cx="1178" cy="280" fill="#ADD1B2" rx="11" ry="11" style="stroke:#181818;stroke-width:1.0;"/><path d="M1180.7656,275.875 Q1180.9219,275.6563 1181.1094,275.5469 Q1181.2969,275.4375 1181.5156,275.4375 Q1181.8906,275.4375 1182.125,275.7031 Q1182.3594,275.9531 1182.3594,276.5625 L1182.3594,278.0156 Q1182.3594,278.625 1182.125,278.8906 Q1181.8906,279.1563 1181.5156,279.1563 Q1181.1719,279.1563 1180.9688,278.9531 Q1180.7656,278.7656 1180.6563,278.25 Q1180.6094,277.8906 1180.4219,277.7031 Q1180.0938,277.3281 1179.4844,277.1094 Q1178.875,276.8906 1178.25,276.8906 Q1177.4844,276.8906 1176.8438,277.2188 Q1176.2188,277.5469 1175.7188,278.2969 Q1175.2344,279.0469 1175.2344,280.0781 L1175.2344,281.1719 Q1175.2344,282.4063 1176.125,283.2344 Q1177.0156,284.0469 1178.6094,284.0469 Q1179.5469,284.0469 1180.2031,283.7969 Q1180.5938,283.6406 1181.0156,283.2031 Q1181.2813,282.9375 1181.4219,282.8594 Q1181.5781,282.7813 1181.7813,282.7813 Q1182.1094,282.7813 1182.3594,283.0469 Q1182.625,283.2969 1182.625,283.6406 Q1182.625,283.9844 1182.2813,284.3906 Q1181.7813,284.9688 1180.9844,285.2969 Q1179.9063,285.75 1178.6094,285.75 Q1177.0938,285.75 1175.8906,285.125 Q1174.9063,284.625 1174.2188,283.5625 Q1173.5313,282.4844 1173.5313,281.2031 L1173.5313,280.0469 Q1173.5313,278.7188 1174.1406,277.5781 Q1174.7656,276.4219 1175.8594,275.8125 Q1176.9531,275.1875 1178.1875,275.1875 Q1178.9219,275.1875 1179.5625,275.3594 Q1180.2188,275.5156 1180.7656,275.875 Z " fill="#000000"/><text fill="#000000" font-family="sans-serif" font-size="14" lengthAdjust="spacing" textLength="110" x="1192" y="285.7285">QuestionExercise</text><line style="stroke:#181818;stroke-width:0.5;" x1="1164" x2="1304" y1="296" y2="296"/><line style="stroke:#181818;stroke-width:0.5;" x1="1164" x2="1304" y1="304" y2="304"/></g><!--class Definition--><g id="elem_Definition"><rect codeLine="32" fill="#F1F1F1" height="65.6094" id="Definition" rx="2.5" ry="2.5" style="stroke:#181818;stroke-width:0.5;" width="133" x="863.5" y="772"/><ellipse cx="897.4" cy="788" fill="#ADD1B2" rx="11" ry="11" style="stroke:#181818;stroke-width:1.0;"/><path d="M900.1656,783.875 Q900.3219,783.6563 900.5094,783.5469 Q900.6969,783.4375 900.9156,783.4375 Q901.2906,783.4375 901.525,783.7031 Q901.7594,783.9531 901.7594,784.5625 L901.7594,786.0156 Q901.7594,786.625 901.525,786.8906 Q901.2906,787.1563 900.9156,787.1563 Q900.5719,787.1563 900.3688,786.9531 Q900.1656,786.7656 900.0563,786.25 Q900.0094,785.8906 899.8219,785.7031 Q899.4938,785.3281 898.8844,785.1094 Q898.275,784.8906 897.65,784.8906 Q896.8844,784.8906 896.2438,785.2188 Q895.6188,785.5469 895.1188,786.2969 Q894.6344,787.0469 894.6344,788.0781 L894.6344,789.1719 Q894.6344,790.4063 895.525,791.2344 Q896.4156,792.0469 898.0094,792.0469 Q898.9469,792.0469 899.6031,791.7969 Q899.9938,791.6406 900.4156,791.2031 Q900.6813,790.9375 900.8219,790.8594 Q900.9781,790.7813 901.1813,790.7813 Q901.5094,790.7813 901.7594,791.0469 Q902.025,791.2969 902.025,791.6406 Q902.025,791.9844 901.6813,792.3906 Q901.1813,792.9688 900.3844,793.2969 Q899.3063,793.75 898.0094,793.75 Q896.4938,793.75 895.2906,793.125 Q894.3063,792.625 893.6188,791.5625 Q892.9313,790.4844 892.9313,789.2031 L892.9313,788.0469 Q892.9313,786.7188 893.5406,785.5781 Q894.1656,784.4219 895.2594,783.8125 Q896.3531,783.1875 897.5875,783.1875 Q898.3219,783.1875 898.9625,783.3594 Q899.6188,783.5156 900.1656,783.875 Z " fill="#000000"/><text fill="#000000" font-family="sans-serif" font-size="14" lengthAdjust="spacing" textLength="59" x="915.6" y="793.7285">Definition</text><line style="stroke:#181818;stroke-width:0.5;" x1="864.5" x2="995.5" y1="804" y2="804"/><rect fill="none" height="6" style="stroke:#C82930;stroke-width:1.0;" width="6" x="871.5" y="815.3047"/><text fill="#000000" font-family="sans-serif" font-size="14" lengthAdjust="spacing" textLength="107" x="883.5" y="822.5332">correct : boolean</text><line style="stroke:#181818;stroke-width:0.5;" x1="864.5" x2="995.5" y1="829.6094" y2="829.6094"/></g><!--class Justification--><g id="elem_Justification"><rect codeLine="37" fill="#F1F1F1" height="48" id="Justification" rx="2.5" ry="2.5" style="stroke:#181818;stroke-width:0.5;" width="105" x="757.5" y="960"/><ellipse cx="772.5" cy="976" fill="#ADD1B2" rx="11" ry="11" style="stroke:#181818;stroke-width:1.0;"/><path d="M775.2656,971.875 Q775.4219,971.6563 775.6094,971.5469 Q775.7969,971.4375 776.0156,971.4375 Q776.3906,971.4375 776.625,971.7031 Q776.8594,971.9531 776.8594,972.5625 L776.8594,974.0156 Q776.8594,974.625 776.625,974.8906 Q776.3906,975.1563 776.0156,975.1563 Q775.6719,975.1563 775.4688,974.9531 Q775.2656,974.7656 775.1563,974.25 Q775.1094,973.8906 774.9219,973.7031 Q774.5938,973.3281 773.9844,973.1094 Q773.375,972.8906 772.75,972.8906 Q771.9844,972.8906 771.3438,973.2188 Q770.7188,973.5469 770.2188,974.2969 Q769.7344,975.0469 769.7344,976.0781 L769.7344,977.1719 Q769.7344,978.4063 770.625,979.2344 Q771.5156,980.0469 773.1094,980.0469 Q774.0469,980.0469 774.7031,979.7969 Q775.0938,979.6406 775.5156,979.2031 Q775.7813,978.9375 775.9219,978.8594 Q776.0781,978.7813 776.2813,978.7813 Q776.6094,978.7813 776.8594,979.0469 Q777.125,979.2969 777.125,979.6406 Q777.125,979.9844 776.7813,980.3906 Q776.2813,980.9688 775.4844,981.2969 Q774.4063,981.75 773.1094,981.75 Q771.5938,981.75 770.3906,981.125 Q769.4063,980.625 768.7188,979.5625 Q768.0313,978.4844 768.0313,977.2031 L768.0313,976.0469 Q768.0313,974.7188 768.6406,973.5781 Q769.2656,972.4219 770.3594,971.8125 Q771.4531,971.1875 772.6875,971.1875 Q773.4219,971.1875 774.0625,971.3594 Q774.7188,971.5156 775.2656,971.875 Z " fill="#000000"/><text fill="#000000" font-family="sans-serif" font-size="14" lengthAdjust="spacing" textLength="73" x="786.5" y="981.7285">Justification</text><line style="stroke:#181818;stroke-width:0.5;" x1="758.5" x2="861.5" y1="992" y2="992"/><line style="stroke:#181818;stroke-width:0.5;" x1="758.5" x2="861.5" y1="1000" y2="1000"/></g><!--class CompositeTopic--><g id="elem_CompositeTopic"><rect codeLine="54" fill="#F1F1F1" height="48" id="CompositeTopic" rx="2.5" ry="2.5" style="stroke:#181818;stroke-width:0.5;" width="134" x="1022" y="526"/><ellipse cx="1037" cy="542" fill="#ADD1B2" rx="11" ry="11" style="stroke:#181818;stroke-width:1.0;"/><path d="M1039.7656,537.875 Q1039.9219,537.6563 1040.1094,537.5469 Q1040.2969,537.4375 1040.5156,537.4375 Q1040.8906,537.4375 1041.125,537.7031 Q1041.3594,537.9531 1041.3594,538.5625 L1041.3594,540.0156 Q1041.3594,540.625 1041.125,540.8906 Q1040.8906,541.1563 1040.5156,541.1563 Q1040.1719,541.1563 1039.9688,540.9531 Q1039.7656,540.7656 1039.6563,540.25 Q1039.6094,539.8906 1039.4219,539.7031 Q1039.0938,539.3281 1038.4844,539.1094 Q1037.875,538.8906 1037.25,538.8906 Q1036.4844,538.8906 1035.8438,539.2188 Q1035.2188,539.5469 1034.7188,540.2969 Q1034.2344,541.0469 1034.2344,542.0781 L1034.2344,543.1719 Q1034.2344,544.4063 1035.125,545.2344 Q1036.0156,546.0469 1037.6094,546.0469 Q1038.5469,546.0469 1039.2031,545.7969 Q1039.5938,545.6406 1040.0156,545.2031 Q1040.2813,544.9375 1040.4219,544.8594 Q1040.5781,544.7813 1040.7813,544.7813 Q1041.1094,544.7813 1041.3594,545.0469 Q1041.625,545.2969 1041.625,545.6406 Q1041.625,545.9844 1041.2813,546.3906 Q1040.7813,546.9688 1039.9844,547.2969 Q1038.9063,547.75 1037.6094,547.75 Q1036.0938,547.75 1034.8906,547.125 Q1033.9063,546.625 1033.2188,545.5625 Q1032.5313,544.4844 1032.5313,543.2031 L1032.5313,542.0469 Q1032.5313,540.7188 1033.1406,539.5781 Q1033.7656,538.4219 1034.8594,537.8125 Q1035.9531,537.1875 1037.1875,537.1875 Q1037.9219,537.1875 1038.5625,537.3594 Q1039.2188,537.5156 1039.7656,537.875 Z " fill="#000000"/><text fill="#000000" font-family="sans-serif" font-size="14" lengthAdjust="spacing" textLength="102" x="1051" y="547.7285">CompositeTopic</text><line style="stroke:#181818;stroke-width:0.5;" x1="1023" x2="1155" y1="558" y2="558"/><line style="stroke:#181818;stroke-width:0.5;" x1="1023" x2="1155" y1="566" y2="566"/></g><!--class SimpleTopic--><g id="elem_SimpleTopic"><rect codeLine="50" fill="#F1F1F1" height="48" id="SimpleTopic" rx="2.5" ry="2.5" style="stroke:#181818;stroke-width:0.5;" width="109" x="877.5" y="526"/><ellipse cx="892.5" cy="542" fill="#ADD1B2" rx="11" ry="11" style="stroke:#181818;stroke-width:1.0;"/><path d="M895.2656,537.875 Q895.4219,537.6563 895.6094,537.5469 Q895.7969,537.4375 896.0156,537.4375 Q896.3906,537.4375 896.625,537.7031 Q896.8594,537.9531 896.8594,538.5625 L896.8594,540.0156 Q896.8594,540.625 896.625,540.8906 Q896.3906,541.1563 896.0156,541.1563 Q895.6719,541.1563 895.4688,540.9531 Q895.2656,540.7656 895.1563,540.25 Q895.1094,539.8906 894.9219,539.7031 Q894.5938,539.3281 893.9844,539.1094 Q893.375,538.8906 892.75,538.8906 Q891.9844,538.8906 891.3438,539.2188 Q890.7188,539.5469 890.2188,540.2969 Q889.7344,541.0469 889.7344,542.0781 L889.7344,543.1719 Q889.7344,544.4063 890.625,545.2344 Q891.5156,546.0469 893.1094,546.0469 Q894.0469,546.0469 894.7031,545.7969 Q895.0938,545.6406 895.5156,545.2031 Q895.7813,544.9375 895.9219,544.8594 Q896.0781,544.7813 896.2813,544.7813 Q896.6094,544.7813 896.8594,545.0469 Q897.125,545.2969 897.125,545.6406 Q897.125,545.9844 896.7813,546.3906 Q896.2813,546.9688 895.4844,547.2969 Q894.4063,547.75 893.1094,547.75 Q891.5938,547.75 890.3906,547.125 Q889.4063,546.625 888.7188,545.5625 Q888.0313,544.4844 888.0313,543.2031 L888.0313,542.0469 Q888.0313,540.7188 888.6406,539.5781 Q889.2656,538.4219 890.3594,537.8125 Q891.4531,537.1875 892.6875,537.1875 Q893.4219,537.1875 894.0625,537.3594 Q894.7188,537.5156 895.2656,537.875 Z " fill="#000000"/><text fill="#000000" font-family="sans-serif" font-size="14" lengthAdjust="spacing" textLength="77" x="906.5" y="547.7285">SimpleTopic</text><line style="stroke:#181818;stroke-width:0.5;" x1="878.5" x2="985.5" y1="558" y2="558"/><line style="stroke:#181818;stroke-width:0.5;" x1="878.5" x2="985.5" y1="566" y2="566"/></g><!--class Attachment--><g id="elem_Attachment"><rect codeLine="46" fill="#F1F1F1" height="48" id="Attachment" rx="2.5" ry="2.5" style="stroke:#181818;stroke-width:0.5;" width="103" x="1157.5" y="781"/><ellipse cx="1172.5" cy="797" fill="#ADD1B2" rx="11" ry="11" style="stroke:#181818;stroke-width:1.0;"/><path d="M1175.2656,792.875 Q1175.4219,792.6563 1175.6094,792.5469 Q1175.7969,792.4375 1176.0156,792.4375 Q1176.3906,792.4375 1176.625,792.7031 Q1176.8594,792.9531 1176.8594,793.5625 L1176.8594,795.0156 Q1176.8594,795.625 1176.625,795.8906 Q1176.3906,796.1563 1176.0156,796.1563 Q1175.6719,796.1563 1175.4688,795.9531 Q1175.2656,795.7656 1175.1563,795.25 Q1175.1094,794.8906 1174.9219,794.7031 Q1174.5938,794.3281 1173.9844,794.1094 Q1173.375,793.8906 1172.75,793.8906 Q1171.9844,793.8906 1171.3438,794.2188 Q1170.7188,794.5469 1170.2188,795.2969 Q1169.7344,796.0469 1169.7344,797.0781 L1169.7344,798.1719 Q1169.7344,799.4063 1170.625,800.2344 Q1171.5156,801.0469 1173.1094,801.0469 Q1174.0469,801.0469 1174.7031,800.7969 Q1175.0938,800.6406 1175.5156,800.2031 Q1175.7813,799.9375 1175.9219,799.8594 Q1176.0781,799.7813 1176.2813,799.7813 Q1176.6094,799.7813 1176.8594,800.0469 Q1177.125,800.2969 1177.125,800.6406 Q1177.125,800.9844 1176.7813,801.3906 Q1176.2813,801.9688 1175.4844,802.2969 Q1174.4063,802.75 1173.1094,802.75 Q1171.5938,802.75 1170.3906,802.125 Q1169.4063,801.625 1168.7188,800.5625 Q1168.0313,799.4844 1168.0313,798.2031 L1168.0313,797.0469 Q1168.0313,795.7188 1168.6406,794.5781 Q1169.2656,793.4219 1170.3594,792.8125 Q1171.4531,792.1875 1172.6875,792.1875 Q1173.4219,792.1875 1174.0625,792.3594 Q1174.7188,792.5156 1175.2656,792.875 Z " fill="#000000"/><text fill="#000000" font-family="sans-serif" font-size="14" lengthAdjust="spacing" textLength="71" x="1186.5" y="802.7285">Attachment</text><line style="stroke:#181818;stroke-width:0.5;" x1="1158.5" x2="1259.5" y1="813" y2="813"/><line style="stroke:#181818;stroke-width:0.5;" x1="1158.5" x2="1259.5" y1="821" y2="821"/></g><!--class Document--><g id="elem_Document"><rect codeLine="58" fill="#F1F1F1" height="48" id="Document" rx="2.5" ry="2.5" style="stroke:#181818;stroke-width:0.5;" width="96" x="1164" y="960"/><ellipse cx="1179" cy="976" fill="#ADD1B2" rx="11" ry="11" style="stroke:#181818;stroke-width:1.0;"/><path d="M1181.7656,971.875 Q1181.9219,971.6563 1182.1094,971.5469 Q1182.2969,971.4375 1182.5156,971.4375 Q1182.8906,971.4375 1183.125,971.7031 Q1183.3594,971.9531 1183.3594,972.5625 L1183.3594,974.0156 Q1183.3594,974.625 1183.125,974.8906 Q1182.8906,975.1563 1182.5156,975.1563 Q1182.1719,975.1563 1181.9688,974.9531 Q1181.7656,974.7656 1181.6563,974.25 Q1181.6094,973.8906 1181.4219,973.7031 Q1181.0938,973.3281 1180.4844,973.1094 Q1179.875,972.8906 1179.25,972.8906 Q1178.4844,972.8906 1177.8438,973.2188 Q1177.2188,973.5469 1176.7188,974.2969 Q1176.2344,975.0469 1176.2344,976.0781 L1176.2344,977.1719 Q1176.2344,978.4063 1177.125,979.2344 Q1178.0156,980.0469 1179.6094,980.0469 Q1180.5469,980.0469 1181.2031,979.7969 Q1181.5938,979.6406 1182.0156,979.2031 Q1182.2813,978.9375 1182.4219,978.8594 Q1182.5781,978.7813 1182.7813,978.7813 Q1183.1094,978.7813 1183.3594,979.0469 Q1183.625,979.2969 1183.625,979.6406 Q1183.625,979.9844 1183.2813,980.3906 Q1182.7813,980.9688 1181.9844,981.2969 Q1180.9063,981.75 1179.6094,981.75 Q1178.0938,981.75 1176.8906,981.125 Q1175.9063,980.625 1175.2188,979.5625 Q1174.5313,978.4844 1174.5313,977.2031 L1174.5313,976.0469 Q1174.5313,974.7188 1175.1406,973.5781 Q1175.7656,972.4219 1176.8594,971.8125 Q1177.9531,971.1875 1179.1875,971.1875 Q1179.9219,971.1875 1180.5625,971.3594 Q1181.2188,971.5156 1181.7656,971.875 Z " fill="#000000"/><text fill="#000000" font-family="sans-serif" font-size="14" lengthAdjust="spacing" textLength="64" x="1193" y="981.7285">Document</text><line style="stroke:#181818;stroke-width:0.5;" x1="1165" x2="1259" y1="992" y2="992"/><line style="stroke:#181818;stroke-width:0.5;" x1="1165" x2="1259" y1="1000" y2="1000"/></g><!--class Concept--><g id="elem_Concept"><rect codeLine="60" fill="#F1F1F1" height="48" id="Concept" rx="2.5" ry="2.5" style="stroke:#181818;stroke-width:0.5;" width="85" x="947.5" y="646"/><ellipse cx="962.5" cy="662" fill="#ADD1B2" rx="11" ry="11" style="stroke:#181818;stroke-width:1.0;"/><path d="M965.2656,657.875 Q965.4219,657.6563 965.6094,657.5469 Q965.7969,657.4375 966.0156,657.4375 Q966.3906,657.4375 966.625,657.7031 Q966.8594,657.9531 966.8594,658.5625 L966.8594,660.0156 Q966.8594,660.625 966.625,660.8906 Q966.3906,661.1563 966.0156,661.1563 Q965.6719,661.1563 965.4688,660.9531 Q965.2656,660.7656 965.1563,660.25 Q965.1094,659.8906 964.9219,659.7031 Q964.5938,659.3281 963.9844,659.1094 Q963.375,658.8906 962.75,658.8906 Q961.9844,658.8906 961.3438,659.2188 Q960.7188,659.5469 960.2188,660.2969 Q959.7344,661.0469 959.7344,662.0781 L959.7344,663.1719 Q959.7344,664.4063 960.625,665.2344 Q961.5156,666.0469 963.1094,666.0469 Q964.0469,666.0469 964.7031,665.7969 Q965.0938,665.6406 965.5156,665.2031 Q965.7813,664.9375 965.9219,664.8594 Q966.0781,664.7813 966.2813,664.7813 Q966.6094,664.7813 966.8594,665.0469 Q967.125,665.2969 967.125,665.6406 Q967.125,665.9844 966.7813,666.3906 Q966.2813,666.9688 965.4844,667.2969 Q964.4063,667.75 963.1094,667.75 Q961.5938,667.75 960.3906,667.125 Q959.4063,666.625 958.7188,665.5625 Q958.0313,664.4844 958.0313,663.2031 L958.0313,662.0469 Q958.0313,660.7188 958.6406,659.5781 Q959.2656,658.4219 960.3594,657.8125 Q961.4531,657.1875 962.6875,657.1875 Q963.4219,657.1875 964.0625,657.3594 Q964.7188,657.5156 965.2656,657.875 Z " fill="#000000"/><text fill="#000000" font-family="sans-serif" font-size="14" lengthAdjust="spacing" textLength="53" x="976.5" y="667.7285">Concept</text><line style="stroke:#181818;stroke-width:0.5;" x1="948.5" x2="1031.5" y1="678" y2="678"/><line style="stroke:#181818;stroke-width:0.5;" x1="948.5" x2="1031.5" y1="686" y2="686"/></g><!--class Relation--><g id="elem_Relation"><rect codeLine="66" fill="#F1F1F1" height="48" id="Relation" rx="2.5" ry="2.5" style="stroke:#181818;stroke-width:0.5;" width="84" x="1032" y="781"/><ellipse cx="1047" cy="797" fill="#ADD1B2" rx="11" ry="11" style="stroke:#181818;stroke-width:1.0;"/><path d="M1049.7656,792.875 Q1049.9219,792.6563 1050.1094,792.5469 Q1050.2969,792.4375 1050.5156,792.4375 Q1050.8906,792.4375 1051.125,792.7031 Q1051.3594,792.9531 1051.3594,793.5625 L1051.3594,795.0156 Q1051.3594,795.625 1051.125,795.8906 Q1050.8906,796.1563 1050.5156,796.1563 Q1050.1719,796.1563 1049.9688,795.9531 Q1049.7656,795.7656 1049.6563,795.25 Q1049.6094,794.8906 1049.4219,794.7031 Q1049.0938,794.3281 1048.4844,794.1094 Q1047.875,793.8906 1047.25,793.8906 Q1046.4844,793.8906 1045.8438,794.2188 Q1045.2188,794.5469 1044.7188,795.2969 Q1044.2344,796.0469 1044.2344,797.0781 L1044.2344,798.1719 Q1044.2344,799.4063 1045.125,800.2344 Q1046.0156,801.0469 1047.6094,801.0469 Q1048.5469,801.0469 1049.2031,800.7969 Q1049.5938,800.6406 1050.0156,800.2031 Q1050.2813,799.9375 1050.4219,799.8594 Q1050.5781,799.7813 1050.7813,799.7813 Q1051.1094,799.7813 1051.3594,800.0469 Q1051.625,800.2969 1051.625,800.6406 Q1051.625,800.9844 1051.2813,801.3906 Q1050.7813,801.9688 1049.9844,802.2969 Q1048.9063,802.75 1047.6094,802.75 Q1046.0938,802.75 1044.8906,802.125 Q1043.9063,801.625 1043.2188,800.5625 Q1042.5313,799.4844 1042.5313,798.2031 L1042.5313,797.0469 Q1042.5313,795.7188 1043.1406,794.5781 Q1043.7656,793.4219 1044.8594,792.8125 Q1045.9531,792.1875 1047.1875,792.1875 Q1047.9219,792.1875 1048.5625,792.3594 Q1049.2188,792.5156 1049.7656,792.875 Z " fill="#000000"/><text fill="#000000" font-family="sans-serif" font-size="14" lengthAdjust="spacing" textLength="52" x="1061" y="802.7285">Relation</text><line style="stroke:#181818;stroke-width:0.5;" x1="1033" x2="1115" y1="813" y2="813"/><line style="stroke:#181818;stroke-width:0.5;" x1="1033" x2="1115" y1="821" y2="821"/></g><!--class RelationType--><g id="elem_RelationType"><rect codeLine="71" fill="#F1F1F1" height="136.0469" id="RelationType" rx="2.5" ry="2.5" style="stroke:#181818;stroke-width:0.5;" width="116" x="1013" y="916"/><ellipse cx="1028" cy="932" fill="#EB937F" rx="11" ry="11" style="stroke:#181818;stroke-width:1.0;"/><path d="M1026.8594,932.7969 L1026.8594,935.2969 L1031.1875,935.2969 L1031.1875,934.375 Q1031.1875,933.7656 1031.4219,933.5 Q1031.6719,933.2344 1032.0469,933.2344 Q1032.4219,933.2344 1032.6563,933.5 Q1032.8906,933.7656 1032.8906,934.375 L1032.8906,937 L1024.8906,937 Q1024.2656,937 1024,936.7656 Q1023.75,936.5313 1023.75,936.1406 Q1023.75,935.7656 1024.0156,935.5313 Q1024.2813,935.2969 1024.8906,935.2969 L1025.1563,935.2969 L1025.1563,928.6406 L1024.8906,928.6406 Q1024.2656,928.6406 1024,928.4063 Q1023.75,928.1719 1023.75,927.7813 Q1023.75,927.4063 1024,927.1719 Q1024.2656,926.9375 1024.8906,926.9375 L1032.5156,926.9375 L1032.5156,929.5313 Q1032.5156,930.1406 1032.2813,930.4063 Q1032.0625,930.6563 1031.6719,930.6563 Q1031.2969,930.6563 1031.0625,930.4063 Q1030.8281,930.1406 1030.8281,929.5313 L1030.8281,928.6406 L1026.8594,928.6406 L1026.8594,931.0938 L1028.3438,931.0938 Q1028.3438,930.4375 1028.4688,930.25 Q1028.7344,929.8438 1029.2031,929.8438 Q1029.5781,929.8438 1029.8125,930.1094 Q1030.0469,930.3594 1030.0469,930.9688 L1030.0469,932.9375 Q1030.0469,933.4844 1029.9219,933.6719 Q1029.6563,934.0625 1029.2031,934.0625 Q1028.7344,934.0625 1028.4688,933.6563 Q1028.3438,933.4688 1028.3438,932.7969 L1026.8594,932.7969 Z " fill="#000000"/><text fill="#000000" font-family="sans-serif" font-size="14" lengthAdjust="spacing" textLength="84" x="1042" y="937.7285">RelationType</text><line style="stroke:#181818;stroke-width:0.5;" x1="1014" x2="1128" y1="948" y2="948"/><text fill="#000000" font-family="sans-serif" font-size="14" lengthAdjust="spacing" textLength="24" x="1019" y="966.5332">Use</text><text fill="#000000" font-family="sans-serif" font-size="14" lengthAdjust="spacing" textLength="72" x="1019" y="984.1426">Association</text><text fill="#000000" font-family="sans-serif" font-size="14" lengthAdjust="spacing" textLength="78" x="1019" y="1001.752">Composition</text><text fill="#000000" font-family="sans-serif" font-size="14" lengthAdjust="spacing" textLength="70" x="1019" y="1019.3613">Inheritance</text><text fill="#000000" font-family="sans-serif" font-size="14" lengthAdjust="spacing" textLength="77" x="1019" y="1036.9707">Aggregation</text><line style="stroke:#181818;stroke-width:0.5;" x1="1014" x2="1128" y1="1044.0469" y2="1044.0469"/></g><!--link EducationPlatform to User--><g id="link_EducationPlatform_User"><path codeLine="2" d="M869.8812,66.7156 C864.7112,88.8556 861.0266,104.5977 855.8266,126.8277 " fill="none" id="EducationPlatform-User" style="stroke:#FF0000;stroke-width:1.0;"/><polygon fill="#FF0000" points="872.61,55.03,867.3504,59.9632,869.8812,66.7156,875.1408,61.7824,872.61,55.03" style="stroke:#FF0000;stroke-width:1.0;"/><polygon fill="#FF0000" points="854.46,132.67,860.4048,124.8176,855.5988,127.8014,852.6151,122.9955,854.46,132.67" style="stroke:#FF0000;stroke-width:1.0;"/><text fill="#000000" font-family="sans-serif" font-size="13" lengthAdjust="spacing" textLength="8" x="846.8159" y="122.3275">+</text></g><!--link EducationPlatform to Topic--><g id="link_EducationPlatform_Topic"><path codeLine="3" d="M963.1864,45.2511 C992.4564,52.7311 1012.77,62.68 1035,85 C1119.03,169.35 1103.7364,324.7351 1094.1864,384.5251 " fill="none" id="EducationPlatform-Topic" style="stroke:#FF0000;stroke-width:1.0;"/><polygon fill="#FF0000" points="951.56,42.28,956.3828,47.641,963.1864,45.2511,958.3636,39.8901,951.56,42.28" style="stroke:#FF0000;stroke-width:1.0;"/><polygon fill="#FF0000" points="1093.24,390.45,1098.6095,382.1936,1094.0286,385.5126,1090.7096,380.9317,1093.24,390.45" style="stroke:#FF0000;stroke-width:1.0;"/></g><!--link EducationPlatform to Itinerary--><g id="link_EducationPlatform_Itinerary"><path codeLine="4" d="M927.6232,61.8823 C939.8932,70.2523 942.91,73.7 953,85 C965.65,99.16 973.2999,112.6757 980.0699,127.4457 " fill="none" id="EducationPlatform-Itinerary" style="stroke:#FF0000;stroke-width:1.0;"/><polygon fill="#FF0000" points="917.71,55.12,920.4125,61.8055,927.6232,61.8823,924.9207,55.1968,917.71,55.12" style="stroke:#FF0000;stroke-width:1.0;"/><polygon fill="#FF0000" points="982.57,132.9,982.4561,123.0518,980.4866,128.3547,975.1837,126.3852,982.57,132.9" style="stroke:#FF0000;stroke-width:1.0;"/><text fill="#000000" font-family="sans-serif" font-size="13" lengthAdjust="spacing" textLength="59" x="967" y="99.4951">predefined</text></g><!--link EducationPlatform to Itinerary--><g id="link_EducationPlatform_Itinerary"><path codeLine="5" d="M882.9334,66.9397 C885.7034,81.9097 889.04,89.29 900,103 C913.01,119.27 927.0538,128.8767 944.7238,137.4667 " fill="none" id="EducationPlatform-Itinerary-1" style="stroke:#FF0000;stroke-width:1.0;"/><polygon fill="none" points="880.75,55.14,877.9085,61.7676,882.9334,66.9397,885.7749,60.3121,880.75,55.14" style="stroke:#FF0000;stroke-width:1.0;"/><polygon fill="#FF0000" points="950.12,140.09,943.7746,132.5577,945.6232,137.904,940.2769,139.7525,950.12,140.09" style="stroke:#FF0000;stroke-width:1.0;"/><text fill="#000000" font-family="sans-serif" font-size="13" lengthAdjust="spacing" textLength="43" x="901" y="99.4951">custom</text><text fill="#000000" font-family="sans-serif" font-size="13" lengthAdjust="spacing" textLength="5" x="937.4922" y="133.3339">*</text></g><!--link EducationPlatform to Evaluator--><g id="link_EducationPlatform_Evaluator"><path codeLine="6" d="M963.5582,38.959 C1016.8882,45.219 1077.64,57.07 1136,85 C1160.45,96.7 1179.59,112.6453 1195.8,128.4953 " fill="none" id="EducationPlatform-Evaluator" style="stroke:#FF0000;stroke-width:1.0;"/><polygon fill="#FF0000" points="951.64,37.56,957.1328,42.2322,963.5582,38.959,958.0654,34.2868,951.64,37.56" style="stroke:#FF0000;stroke-width:1.0;"/><polygon fill="#FF0000" points="1200.09,132.69,1196.4515,123.5379,1196.515,129.1944,1190.8585,129.2579,1200.09,132.69" style="stroke:#FF0000;stroke-width:1.0;"/></g><!--link EducationPlatform to Exercise--><g id="link_EducationPlatform_Exercise"><path codeLine="7" d="M792.4461,41.6287 C758.4261,48.4787 731.57,59.38 705,85 C654.1,134.08 640.7309,215.9944 636.9509,257.7544 " fill="none" id="EducationPlatform-Exercise" style="stroke:#FF0000;stroke-width:1.0;"/><polygon fill="none" points="804.21,39.26,797.5385,36.523,792.4461,41.6287,799.1176,44.3656,804.21,39.26" style="stroke:#FF0000;stroke-width:1.0;"/><polygon fill="#FF0000" points="636.41,263.73,641.2051,255.1272,636.8607,258.7504,633.2376,254.4061,636.41,263.73" style="stroke:#FF0000;stroke-width:1.0;"/><text fill="#000000" font-family="sans-serif" font-size="13" lengthAdjust="spacing" textLength="5" x="631.1307" y="253.001">*</text></g><!--link EducationPlatform to Domain--><g id="link_EducationPlatform_Domain"><path codeLine="8" d="M792.4207,35.2659 C582.1907,44.1359 6,75.63 6,156 C6,156 6,156 6,415.5 C6,466.99 48.9357,498.7118 94.9757,519.5918 " fill="none" id="EducationPlatform-Domain" style="stroke:#FF0000;stroke-width:1.0;"/><polygon fill="none" points="804.41,34.76,798.2467,31.0165,792.4207,35.2659,798.584,39.0094,804.41,34.76" style="stroke:#FF0000;stroke-width:1.0;"/><polygon fill="#FF0000" points="100.44,522.07,93.8956,514.7099,95.8864,520.0049,90.5914,521.9956,100.44,522.07" style="stroke:#FF0000;stroke-width:1.0;"/><text fill="#000000" font-family="sans-serif" font-size="13" lengthAdjust="spacing" textLength="5" x="87.428" y="516.1759">*</text></g><!--link EducationPlatform to Application--><g id="link_EducationPlatform_Application"><path codeLine="9" d="M851.6574,64.4654 C835.5474,84.5754 819.61,105.39 801,133 C749.33,209.67 771.86,260.61 695,312 C536.37,418.06 453.67,321.24 270,373 C263.93,374.71 263.3815,374.7149 257.2115,376.9149 " fill="none" id="EducationPlatform-Application" style="stroke:#FF0000;stroke-width:1.0;"/><polygon fill="none" points="859.16,55.1,852.2869,57.2819,851.6574,64.4654,858.5305,62.2836,859.16,55.1" style="stroke:#FF0000;stroke-width:1.0;"/><polygon fill="#FF0000" points="251.56,378.93,261.3806,379.675,256.2696,377.2507,258.6938,372.1397,251.56,378.93" style="stroke:#FF0000;stroke-width:1.0;"/><text fill="#000000" font-family="sans-serif" font-size="13" lengthAdjust="spacing" textLength="5" x="259.6099" y="389.5888">*</text></g><!--reverse link User to Teacher--><g id="link_User_Teacher"><path codeLine="14" d="M842.0443,198.8039 C838.0643,222.1439 834.97,240.28 830.97,263.7 " fill="none" id="User-backto-Teacher" style="stroke:#181818;stroke-width:1.0;"/><polygon fill="none" points="845.07,181.06,836.1296,197.7953,847.9589,199.8124,845.07,181.06" style="stroke:#181818;stroke-width:1.0;"/></g><!--reverse link User to Student--><g id="link_User_Student"><path codeLine="15" d="M876.9065,195.5 C894.2765,218.84 910.23,240.28 927.66,263.7 " fill="none" id="User-backto-Student" style="stroke:#181818;stroke-width:1.0;"/><polygon fill="none" points="866.16,181.06,872.0931,199.0821,881.7198,191.9178,866.16,181.06" style="stroke:#181818;stroke-width:1.0;"/></g><!--link Student to Application--><g id="link_Student_Application"><path codeLine="22" d="M893.1533,310.1614 C887.3633,312.3314 892.68,310.21 887,312 C830.36,329.88 815.75,334.25 757,343 C542.51,374.94 480.94,322.68 270,373 C263.95,374.44 263.4921,374.3526 257.3721,376.3926 " fill="none" id="Student-Application" style="stroke:#181818;stroke-width:1.0;"/><polygon fill="none" points="904.39,305.95,897.3678,304.3101,893.1533,310.1614,900.1754,311.8013,904.39,305.95" style="stroke:#181818;stroke-width:1.0;"/><polygon fill="#181818" points="251.68,378.29,261.4831,379.2387,256.4234,376.7089,258.9532,371.6492,251.68,378.29" style="stroke:#181818;stroke-width:1.0;"/><text fill="#000000" font-family="sans-serif" font-size="13" lengthAdjust="spacing" textLength="5" x="259.7423" y="371.2328">*</text></g><!--link Evaluator to QuestionExercise--><g id="link_Evaluator_QuestionExercise"><path codeLine="26" d="M1224.15,181.06 C1226.32,204.4 1229.0939,234.3058 1231.2739,257.7258 " fill="none" id="Evaluator-to-QuestionExercise" style="stroke:#181818;stroke-width:1.0;"/><polygon fill="#181818" points="1231.83,263.7,1234.9786,254.368,1231.3666,258.7215,1227.0131,255.1095,1231.83,263.7" style="stroke:#181818;stroke-width:1.0;"/></g><!--link Itinerary to Topic--><g id="link_Itinerary_Topic"><path codeLine="30" d="M1005.0383,192.339 C1023.4583,240.869 1059.5806,336.0006 1078.0406,384.6306 " fill="none" id="Itinerary-Topic" style="stroke:#181818;stroke-width:1.0;"/><polygon fill="none" points="1000.78,181.12,999.1695,188.149,1005.0383,192.339,1006.6488,185.3101,1000.78,181.12" style="stroke:#181818;stroke-width:1.0;"/><polygon fill="#181818" points="1080.17,390.24,1080.7156,380.4063,1078.3955,385.5655,1073.2363,383.2454,1080.17,390.24" style="stroke:#181818;stroke-width:1.0;"/><text fill="#000000" font-family="sans-serif" font-size="13" lengthAdjust="spacing" textLength="8" x="1068.8823" y="379.5135">+</text></g><!--link Definition to Justification--><g id="link_Definition_Justification"><path codeLine="35" d="M901.5369,847.983 C877.6969,883.153 850.1164,923.8234 829.0164,954.9534 " fill="none" id="Definition-Justification" style="stroke:#181818;stroke-width:1.0;"/><polygon fill="#181818" points="908.27,838.05,901.5924,840.7721,901.5369,847.983,908.2145,845.2609,908.27,838.05" style="stroke:#181818;stroke-width:1.0;"/><polygon fill="#181818" points="825.65,959.92,834.0107,954.7143,828.4553,955.7811,827.3885,950.2258,825.65,959.92" style="stroke:#181818;stroke-width:1.0;"/><text fill="#000000" font-family="sans-serif" font-size="13" lengthAdjust="spacing" textLength="106" x="888" y="882.4951">[!definition.correct]</text><text fill="#000000" font-family="sans-serif" font-size="13" lengthAdjust="spacing" textLength="5" x="824.0197" y="949.2397">*</text></g><!--reverse link Topic to CompositeTopic--><g id="link_Topic_CompositeTopic"><path codeLine="42" d="M1076.3327,456.5437 C1072.6127,480.9037 1075.32,501.14 1079.02,525.56 " fill="none" id="Topic-backto-CompositeTopic" style="stroke:#181818;stroke-width:1.0;"/><polygon fill="none" points="1079.05,438.75,1070.4015,455.638,1082.264,457.4495,1079.05,438.75" style="stroke:#181818;stroke-width:1.0;"/></g><!--link CompositeTopic to Topic--><g id="link_CompositeTopic_Topic"><path codeLine="56" d="M1101.4667,513.7124 C1105.3967,489.2924 1104.4404,469.0326 1100.4904,444.6726 " fill="none" id="CompositeTopic-Topic" style="stroke:#181818;stroke-width:1.0;"/><polygon fill="none" points="1099.56,525.56,1104.4625,520.2718,1101.4667,513.7124,1096.5641,519.0007,1099.56,525.56" style="stroke:#181818;stroke-width:1.0;"/><polygon fill="#181818" points="1099.53,438.75,1097.0221,448.2742,1100.3303,443.6855,1104.919,446.9937,1099.53,438.75" style="stroke:#181818;stroke-width:1.0;"/><text fill="#000000" font-family="sans-serif" font-size="13" lengthAdjust="spacing" textLength="8" x="1093.1217" y="460.1489">+</text></g><!--reverse link Topic to SimpleTopic--><g id="link_Topic_SimpleTopic"><path codeLine="43" d="M1047.9373,450.4103 C1019.2073,474.8403 988.01,501.38 959.3,525.79 " fill="none" id="Topic-backto-SimpleTopic" style="stroke:#181818;stroke-width:1.0;"/><polygon fill="none" points="1061.65,438.75,1044.0506,445.8394,1051.8241,454.9812,1061.65,438.75" style="stroke:#181818;stroke-width:1.0;"/></g><!--link Topic to Attachment--><g id="link_Topic_Attachment"><path codeLine="44" d="M1123.8397,446.888 C1143.5197,465.858 1160.65,486.21 1174,517 C1213.65,608.41 1213.1301,724.6265 1210.7801,774.9065 " fill="none" id="Topic-Attachment" style="stroke:#181818;stroke-width:1.0;"/><polygon fill="#181818" points="1115.2,438.56,1116.7438,445.6039,1123.8397,446.888,1122.2958,439.8441,1115.2,438.56" style="stroke:#181818;stroke-width:1.0;"/><polygon fill="#181818" points="1210.5,780.9,1214.9158,772.0966,1210.7334,775.9055,1206.9245,771.7231,1210.5,780.9" style="stroke:#181818;stroke-width:1.0;"/><text fill="#000000" font-family="sans-serif" font-size="13" lengthAdjust="spacing" textLength="5" x="1205.2438" y="770.2145">*</text></g><!--link Attachment to Document--><g id="link_Attachment_Document"><path codeLine="48" d="M1209.5952,841.1382 C1210.1752,875.0582 1210.9274,919.9309 1211.5074,953.8509 " fill="none" id="Attachment-Document" style="stroke:#181818;stroke-width:1.0;"/><polygon fill="#181818" points="1209.39,829.14,1205.4932,835.2075,1209.5952,841.1382,1213.492,835.0707,1209.39,829.14" style="stroke:#181818;stroke-width:1.0;"/><polygon fill="#181818" points="1211.61,959.85,1215.4555,950.7829,1211.5245,954.8507,1207.4567,950.9197,1211.61,959.85" style="stroke:#181818;stroke-width:1.0;"/><text fill="#000000" font-family="sans-serif" font-size="13" lengthAdjust="spacing" textLength="8" x="1202.4851" y="949.1517">+</text></g><!--link SimpleTopic to Concept--><g id="link_SimpleTopic_Concept"><path codeLine="52" d="M948.6114,584.8004 C958.7614,605.4604 965.652,619.4759 975.862,640.2359 " fill="none" id="SimpleTopic-Concept" style="stroke:#181818;stroke-width:1.0;"/><polygon fill="none" points="943.32,574.03,942.3755,581.179,948.6114,584.8004,949.5558,577.6514,943.32,574.03" style="stroke:#181818;stroke-width:1.0;"/><polygon fill="#181818" points="978.51,645.62,978.1275,635.7786,976.3034,641.1333,970.9487,639.3092,978.51,645.62" style="stroke:#181818;stroke-width:1.0;"/><text fill="#000000" font-family="sans-serif" font-size="13" lengthAdjust="spacing" textLength="8" x="966.7343" y="635.2653">+</text></g><!--link Concept to Definition--><g id="link_Concept_Definition"><path codeLine="62" d="M965.1293,703.8691 C958.7693,712.8391 958.92,713.65 954,724 C946.84,739.06 942.8148,750.9323 938.8448,765.8323 " fill="none" id="Concept-Definition" style="stroke:#181818;stroke-width:1.0;"/><polygon fill="#181818" points="972.07,694.08,965.3366,696.661,965.1293,703.8691,971.8627,701.2881,972.07,694.08" style="stroke:#181818;stroke-width:1.0;"/><polygon fill="#181818" points="937.3,771.63,943.4823,763.9632,938.5873,766.7986,935.752,761.9036,937.3,771.63" style="stroke:#181818;stroke-width:1.0;"/><text fill="#000000" font-family="sans-serif" font-size="13" lengthAdjust="spacing" textLength="8" x="929.9497" y="761.0535">+</text></g><!--link Concept to Relation--><g id="link_Concept_Relation"><path codeLine="63" d="M986.9991,706.0411 C986.4391,720.6111 988.17,727.39 996,742 C1004.41,757.71 1013.7999,767.3193 1027.8499,777.3693 " fill="none" id="Concept-Relation" style="stroke:#181818;stroke-width:1.0;"/><polygon fill="#181818" points="987.46,694.05,983.2325,699.8919,986.9991,706.0411,991.2266,700.1992,987.46,694.05" style="stroke:#181818;stroke-width:1.0;"/><polygon fill="#181818" points="1032.73,780.86,1027.7371,772.3706,1028.6633,777.9511,1023.0828,778.8773,1032.73,780.86" style="stroke:#181818;stroke-width:1.0;"/><text fill="#000000" font-family="sans-serif" font-size="13" lengthAdjust="spacing" textLength="31" x="997" y="738.4951">origin</text><text fill="#000000" font-family="sans-serif" font-size="13" lengthAdjust="spacing" textLength="5" x="1019.1128" y="772.0622">*</text></g><!--link Relation to Concept--><g id="link_Relation_Concept"><path codeLine="68" d="M1063.72,780.88 C1056.07,764.51 1044.93,742.3 1033,724 C1026.34,713.78 1021.9106,707.8097 1014.4206,698.8197 " fill="none" id="Relation-to-Concept" style="stroke:#181818;stroke-width:1.0;"/><polygon fill="#181818" points="1010.58,694.21,1013.2677,703.685,1013.7805,698.0515,1019.4141,698.5642,1010.58,694.21" style="stroke:#181818;stroke-width:1.0;"/><text fill="#000000" font-family="sans-serif" font-size="13" lengthAdjust="spacing" textLength="33" x="1044" y="738.4951">target</text></g><!--link Concept to Attachment--><g id="link_Concept_Attachment"><path codeLine="64" d="M1043.4447,699.5762 C1060.1647,708.6962 1068.86,713.71 1086,724 C1116.58,742.35 1145.5118,761.2257 1169.9718,777.5757 " fill="none" id="Concept-Attachment" style="stroke:#181818;stroke-width:1.0;"/><polygon fill="#181818" points="1032.91,693.83,1036.262,700.2147,1043.4447,699.5762,1040.0928,693.1915,1032.91,693.83" style="stroke:#181818;stroke-width:1.0;"/><polygon fill="#181818" points="1174.96,780.91,1169.7005,772.583,1170.8032,778.1314,1165.2548,779.234,1174.96,780.91" style="stroke:#181818;stroke-width:1.0;"/><text fill="#000000" font-family="sans-serif" font-size="13" lengthAdjust="spacing" textLength="5" x="1160.5966" y="770.2271">*</text></g><!--link Relation to RelationType--><g id="link_Relation_RelationType"><path codeLine="69" d="M1073.4029,841.1382 C1073.0229,863.1582 1072.7501,879.3808 1072.2401,909.9608 " fill="none" id="Relation-RelationType" style="stroke:#181818;stroke-width:1.0;"/><polygon fill="#181818" points="1073.61,829.14,1069.5071,835.0701,1073.4029,841.1382,1077.5059,835.2081,1073.61,829.14" style="stroke:#181818;stroke-width:1.0;"/><polygon fill="#181818" points="1072.14,915.96,1076.2895,907.028,1072.2234,910.9607,1068.2906,906.8946,1072.14,915.96" style="stroke:#181818;stroke-width:1.0;"/></g><!--reverse link Exercise to QuestionExercise--><g id="link_Exercise_QuestionExercise"><path codeLine="83" d="M575.9551,315.2489 C537.8251,332.2189 496.86,350.52 447,373 C440.96,375.72 434.7,378.55 428.42,381.4 " fill="none" id="Exercise-backto-QuestionExercise" style="stroke:#181818;stroke-width:1.0;"/><polygon fill="none" points="592.4,307.93,573.5155,309.7673,578.3948,320.7305,592.4,307.93" style="stroke:#181818;stroke-width:1.0;"/></g><!--reverse link Exercise to DomainExercise--><g id="link_Exercise_DomainExercise"><path codeLine="84" d="M650.9982,328.8333 C659.9782,351.1933 666.8,368.18 675.76,390.5 " fill="none" id="Exercise-backto-DomainExercise" style="stroke:#181818;stroke-width:1.0;"/><polygon fill="none" points="644.29,312.13,645.4304,331.0694,656.566,326.5972,644.29,312.13" style="stroke:#181818;stroke-width:1.0;"/></g><!--link DomainExercise to Domain--><g id="link_DomainExercise_Domain"><path codeLine="89" d="M642.27,438.65 C629.29,444.97 614.81,451.36 601,456 C471.2,499.63 432.23,485.36 299,517 C287.53,519.72 281.2716,521.2599 269.4416,524.3799 " fill="none" id="DomainExercise-to-Domain" style="stroke:#181818;stroke-width:1.0;"/><polygon fill="#181818" points="263.64,525.91,273.3625,527.4826,268.4747,524.6349,271.3224,519.7471,263.64,525.91" style="stroke:#181818;stroke-width:1.0;"/><text fill="#000000" font-family="sans-serif" font-size="13" lengthAdjust="spacing" textLength="8" x="271.5349" y="520.481">+</text></g><!--link DomainExercise to SimpleTopic--><g id="link_DomainExercise_SimpleTopic"><path codeLine="90" d="M739.4,438.62 C768.56,451.58 804.79,468.6 836,486 C857.76,498.14 876.2086,510.0513 894.4586,522.5413 " fill="none" id="DomainExercise-to-SimpleTopic" style="stroke:#181818;stroke-width:1.0;"/><polygon fill="#181818" points="899.41,525.93,894.242,517.546,895.2838,523.1061,889.7237,524.1479,899.41,525.93" style="stroke:#181818;stroke-width:1.0;"/><text fill="#000000" font-family="sans-serif" font-size="13" lengthAdjust="spacing" textLength="8" x="882.0338" y="515.2522">+</text></g><!--reverse link Domain to Domain--><g id="link_Domain_Domain"><path codeLine="95" d="M275.6494,539.0643 C295.6194,539.9043 298.5,543.22 298.5,550 C298.5,556.78 283.63,560.6 263.66,561.44 " fill="none" id="Domain-backto-Domain" style="stroke:#181818;stroke-width:1.0;"/><polygon fill="#181818" points="263.66,538.56,269.4866,542.8086,275.6494,539.0643,269.8228,534.8157,263.66,538.56" style="stroke:#181818;stroke-width:1.0;"/><text fill="#000000" font-family="sans-serif" font-size="13" lengthAdjust="spacing" textLength="5" x="271.4185" y="559.2865">*</text></g><!--link Application to Domain--><g id="link_Application_Domain"><path codeLine="97" d="M177.83,456.28 C178.71,475.76 179.4699,492.7361 180.2899,510.9361 " fill="none" id="Application-to-Domain" style="stroke:#181818;stroke-width:1.0;"/><polygon fill="#181818" points="180.56,516.93,184.1509,507.7591,180.335,511.9351,176.159,508.1192,180.56,516.93" style="stroke:#181818;stroke-width:1.0;"/><text fill="#000000" font-family="sans-serif" font-size="13" lengthAdjust="spacing" textLength="5" x="174.7474" y="506.031">*</text></g><!--reverse link QuestionExercise to MultipleChoice--><g id="link_QuestionExercise_MultipleChoice"><path codeLine="101" d="M399.9706,461.0543 C422.1606,485.1243 439.72,504.2 459.59,525.77 " fill="none" id="QuestionExercise-backto-MultipleChoice" style="stroke:#181818;stroke-width:1.0;"/><polygon fill="none" points="387.77,447.82,395.5592,465.1211,404.382,456.9874,387.77,447.82" style="stroke:#181818;stroke-width:1.0;"/></g><!--reverse link QuestionExercise to Cloze--><g id="link_QuestionExercise_Cloze"><path codeLine="102" d="M440.1618,455.5334 C487.3518,478.5234 533.89,501.2 578.09,522.73 " fill="none" id="QuestionExercise-backto-Cloze" style="stroke:#181818;stroke-width:1.0;"/><polygon fill="none" points="423.98,447.65,437.534,460.9274,442.7896,450.1395,423.98,447.65" style="stroke:#181818;stroke-width:1.0;"/></g><!--reverse link QuestionExercise to Open--><g id="link_QuestionExercise_Open"><path codeLine="103" d="M354.9851,465.7879 C353.5451,489.8579 352.68,504.2 351.39,525.77 " fill="none" id="QuestionExercise-backto-Open" style="stroke:#181818;stroke-width:1.0;"/><polygon fill="none" points="356.06,447.82,348.9958,465.4296,360.9744,466.1462,356.06,447.82" style="stroke:#181818;stroke-width:1.0;"/></g><!--link QuestionExercise to Concept--><g id="link_QuestionExercise_Concept"><path codeLine="104" d="M424.99,447.63 C432.34,450.66 439.77,453.52 447,456 C557.63,493.95 594.26,473.92 703,517 C777.77,546.63 788.76,569.66 860,607 C888.79,622.09 916.4154,635.3188 942.0054,647.1688 " fill="none" id="QuestionExercise-to-Concept" style="stroke:#181818;stroke-width:1.0;"/><polygon fill="#181818" points="947.45,649.69,940.964,642.2784,942.9129,647.589,937.6023,649.5379,947.45,649.69" style="stroke:#181818;stroke-width:1.0;"/><text fill="#000000" font-family="sans-serif" font-size="13" lengthAdjust="spacing" textLength="8" x="931.4492" y="642.3495">+</text></g><!--link Answer to QuestionExercise--><g id="link_Answer_QuestionExercise"><path codeLine="105" d="M464.26,414.5 C452.51,414.5 452.75,414.5 441,414.5 " fill="none" id="Answer-to-QuestionExercise" style="stroke:#181818;stroke-width:1.0;"/><polygon fill="#181818" points="429,414.5,435,418.5,441,414.5,435,410.5,429,414.5" style="stroke:#181818;stroke-width:1.0;"/><text fill="#000000" font-family="sans-serif" font-size="13" lengthAdjust="spacing" textLength="8" x="448.4917" y="411.0653">+</text></g><!--reverse link Answer to Justification--><g id="link_Answer_Justification"><path codeLine="110" d="M594.6194,452.9334 C600.3694,455.8534 595.43,453.3 601,456 C692.48,500.35 810,447.33 810,549 C810,549 810,549 810,806 C810,861.16 810,925.99 810,959.81 " fill="none" id="Answer-backto-Justification" style="stroke:#181818;stroke-width:1.0;"/><polygon fill="#181818" points="583.92,447.5,587.4586,453.7832,594.6194,452.9334,591.0809,446.6502,583.92,447.5" style="stroke:#181818;stroke-width:1.0;"/><text fill="#000000" font-family="sans-serif" font-size="13" lengthAdjust="spacing" textLength="96" x="811" y="675.4951">[!answer.correct]</text><text fill="#000000" font-family="sans-serif" font-size="13" lengthAdjust="spacing" textLength="5" x="804.3594" y="949.1015">*</text></g><!--link Application to Justification--><g id="link_Application_Justification"><path codeLine="123" d="M95.5296,463.3056 C65.5596,486.1056 47,510.49 47,549 C47,549 47,549 47,806 C47,952.1 578.552,977.4858 751.252,981.9258 " fill="none" id="Application-Justification" style="stroke:#181818;stroke-width:1.0;"/><polygon fill="#181818" points="105.08,456.04,97.8829,456.4893,95.5296,463.3056,102.7266,462.8563,105.08,456.04" style="stroke:#181818;stroke-width:1.0;"/><polygon fill="#181818" points="757.25,982.08,748.3558,977.85,752.2517,981.9515,748.1502,985.8474,757.25,982.08" style="stroke:#181818;stroke-width:1.0;"/><text fill="#000000" font-family="sans-serif" font-size="13" lengthAdjust="spacing" textLength="117" x="48" y="675.4951">[!application.correct]</text><text fill="#000000" font-family="sans-serif" font-size="13" lengthAdjust="spacing" textLength="5" x="744.4805" y="978.2048">*</text></g><!--SRC=[bLN9Rjim4BthAnZdKC21yW524C2rVKZHealSKv03BOqL8XGfa5HSr_M_bukuo9RTHWTRd7apy_WuGoshhiIASFQDOhNXea7J_EbQGFMStwF9pGJzb22ovINKYhUal0nvK8I1m6A72jHg6spqkXg9uKdnwMGGLtPIyUPodUKRfXrMNFmxzV8NY998-8YL0h6xzUltHovuWmbxVzoiRIbn8Lc6rr89N2ghzpuxP9bvGNT_yXoj09Sl-XIYvL5r5J2LPIN5Kdg03NEM7c0i_QjcypyyN7ZGqIG82sGoVEz06cZGgm-9HsLYuigLrOtasgH7Bqm749D7mv5-SbHo8K0BKA0rvnGmqsaIsDJJ_wJxW6nwmiNJLHKmjtsAPrzb0BMyeiwMZZ7P5oVhd3SjbqI1uvfu7adJqe4vy9affTLlakE85fC_hleOhSM2brqQaQItHnQNKRyvPoMq8MJ8rKGDBUU4xoll3p6HpUios5VDi-9Rvha6VKVyUly_W3fz2yG5gSaPsAbC8T2K3Wl3sYSeaCAY1XMz8QMth7QjRa5WNJCmzLsb9yR-pwJa9N4jRjPUAhz-O7fyYCAwhCFNjO3QuGyeorfSlk8QZaS7NU-0KhxTPpOgz9Q7zImEzZSORKCT3-79M9s6k7icpfr1-4DDFJqRLtNeGh41xPrr0P5s_4afjo_pl86GchRKP_MPI7Nd_FSd34plspv8Adz8NJUNBwP4ZH4tyiEOP7TyZtMDpAN22knO5lgw58JL2UdZC7S2NpggY5Pb_i99todZm3dblo_vlxR0njt7qpuAckOKDig9DcDogxyDoPQT9Mxqz6AD-tJOS3Z32xD0JrVO0fARDTQncunbrXIprpdlc2eGOIefaiGC5VJZaPAFXnfJvsVsu7pWlazGZUymwPAptn0SGN6hXxy0]--></g></svg>