<?xml version="1.0" encoding="us-ascii" standalone="no"?><svg xmlns="http://www.w3.org/2000/svg" xmlns:xlink="http://www.w3.org/1999/xlink" contentStyleType="text/css" height="1106px" preserveAspectRatio="none" style="width:1602px;height:1106px;background:#FFFFFF;" version="1.1" viewBox="0 0 1602 1106" width="1602px" zoomAndPan="magnify"><defs/><g><!--cluster ContentBattery--><g id="cluster_ContentBattery"><path d="M8.5,211 L115.5,211 A3.75,3.75 0 0 1 118,213.5 L125,234.6094 L452.5,234.6094 A2.5,2.5 0 0 1 455,237.1094 L455,719 A2.5,2.5 0 0 1 452.5,721.5 L8.5,721.5 A2.5,2.5 0 0 1 6,719 L6,213.5 A2.5,2.5 0 0 1 8.5,211 " fill="#90EE90" style="stroke:#000000;stroke-width:1.5;"/><line style="stroke:#000000;stroke-width:1.5;" x1="6" x2="125" y1="234.6094" y2="234.6094"/><text fill="#000000" font-family="sans-serif" font-size="14" font-weight="bold" lengthAdjust="spacing" textLength="106" x="10" y="227.5332">ContentBattery</text></g><!--cluster ExerciseBattery--><g id="cluster_ExerciseBattery"><path d="M979.5,211 L1091.5,211 A3.75,3.75 0 0 1 1094,213.5 L1101,234.6094 L1592.5,234.6094 A2.5,2.5 0 0 1 1595,237.1094 L1595,736.5 A2.5,2.5 0 0 1 1592.5,739 L979.5,739 A2.5,2.5 0 0 1 977,736.5 L977,213.5 A2.5,2.5 0 0 1 979.5,211 " fill="#FFFF00" style="stroke:#000000;stroke-width:1.5;"/><line style="stroke:#000000;stroke-width:1.5;" x1="977" x2="1101" y1="234.6094" y2="234.6094"/><text fill="#000000" font-family="sans-serif" font-size="14" font-weight="bold" lengthAdjust="spacing" textLength="111" x="981" y="227.5332">ExerciseBattery</text></g><!--cluster KnowlegeBattery--><g id="cluster_KnowlegeBattery"><path d="M481.5,486 L602.5,486 A3.75,3.75 0 0 1 605,488.5 L612,509.6094 L761.5,509.6094 A2.5,2.5 0 0 1 764,512.1094 L764,1096.5 A2.5,2.5 0 0 1 761.5,1099 L481.5,1099 A2.5,2.5 0 0 1 479,1096.5 L479,488.5 A2.5,2.5 0 0 1 481.5,486 " fill="#ADD8E6" style="stroke:#000000;stroke-width:1.5;"/><line style="stroke:#000000;stroke-width:1.5;" x1="479" x2="612" y1="509.6094" y2="509.6094"/><text fill="#000000" font-family="sans-serif" font-size="14" font-weight="bold" lengthAdjust="spacing" textLength="120" x="483" y="502.5332">KnowlegeBattery</text></g><!--class Topic--><g id="elem_Topic"><rect codeLine="38" fill="#F1F1F1" height="48" id="Topic" rx="2.5" ry="2.5" style="stroke:#181818;stroke-width:0.5;" width="67" x="229.5" y="373.5"/><ellipse cx="244.5" cy="389.5" fill="#A9DCDF" rx="11" ry="11" style="stroke:#181818;stroke-width:1.0;"/><path d="M246.6875,391.2656 L242.5469,391.2656 L242.125,392.2969 L242.5469,392.2969 Q243.1563,392.2969 243.4219,392.5313 Q243.6875,392.7656 243.6875,393.1563 Q243.6875,393.5313 243.4219,393.7656 Q243.1563,394 242.5469,394 L240.25,394 Q239.6406,394 239.3906,393.7656 Q239.125,393.5313 239.125,393.1406 Q239.125,392.7656 239.4063,392.5313 Q239.6719,392.2813 240.2969,392.2969 L242.9688,385.6406 L241.8594,385.6406 Q241.25,385.6406 240.9844,385.4063 Q240.7188,385.1719 240.7188,384.7813 Q240.7188,384.4063 240.9844,384.1719 Q241.25,383.9375 241.8594,383.9375 L245.5313,383.9375 L248.9219,392.2969 Q249.5156,392.2969 249.7031,392.4375 Q250.0938,392.7031 250.0938,393.1563 Q250.0938,393.5313 249.8281,393.7656 Q249.5781,394 248.9688,394 L246.6719,394 Q246.0625,394 245.7969,393.7656 Q245.5313,393.5313 245.5313,393.1406 Q245.5313,392.7656 245.7969,392.5313 Q246.0625,392.2969 246.6719,392.2969 L247.0938,392.2969 L246.6875,391.2656 Z M245.9688,389.5625 L244.6094,386.1875 L243.2344,389.5625 L245.9688,389.5625 Z " fill="#000000"/><text fill="#000000" font-family="sans-serif" font-size="14" font-style="italic" lengthAdjust="spacing" textLength="35" x="258.5" y="395.2285">Topic</text><line style="stroke:#181818;stroke-width:0.5;" x1="230.5" x2="295.5" y1="405.5" y2="405.5"/><line style="stroke:#181818;stroke-width:0.5;" x1="230.5" x2="295.5" y1="413.5" y2="413.5"/></g><!--class Itinerary--><g id="elem_Itinerary"><rect codeLine="34" fill="#F1F1F1" height="48" id="Itinerary" rx="2.5" ry="2.5" style="stroke:#181818;stroke-width:0.5;" width="83" x="355.5" y="247"/><ellipse cx="370.5" cy="263" fill="#ADD1B2" rx="11" ry="11" style="stroke:#181818;stroke-width:1.0;"/><path d="M373.2656,258.875 Q373.4219,258.6563 373.6094,258.5469 Q373.7969,258.4375 374.0156,258.4375 Q374.3906,258.4375 374.625,258.7031 Q374.8594,258.9531 374.8594,259.5625 L374.8594,261.0156 Q374.8594,261.625 374.625,261.8906 Q374.3906,262.1563 374.0156,262.1563 Q373.6719,262.1563 373.4688,261.9531 Q373.2656,261.7656 373.1563,261.25 Q373.1094,260.8906 372.9219,260.7031 Q372.5938,260.3281 371.9844,260.1094 Q371.375,259.8906 370.75,259.8906 Q369.9844,259.8906 369.3438,260.2188 Q368.7188,260.5469 368.2188,261.2969 Q367.7344,262.0469 367.7344,263.0781 L367.7344,264.1719 Q367.7344,265.4063 368.625,266.2344 Q369.5156,267.0469 371.1094,267.0469 Q372.0469,267.0469 372.7031,266.7969 Q373.0938,266.6406 373.5156,266.2031 Q373.7813,265.9375 373.9219,265.8594 Q374.0781,265.7813 374.2813,265.7813 Q374.6094,265.7813 374.8594,266.0469 Q375.125,266.2969 375.125,266.6406 Q375.125,266.9844 374.7813,267.3906 Q374.2813,267.9688 373.4844,268.2969 Q372.4063,268.75 371.1094,268.75 Q369.5938,268.75 368.3906,268.125 Q367.4063,267.625 366.7188,266.5625 Q366.0313,265.4844 366.0313,264.2031 L366.0313,263.0469 Q366.0313,261.7188 366.6406,260.5781 Q367.2656,259.4219 368.3594,258.8125 Q369.4531,258.1875 370.6875,258.1875 Q371.4219,258.1875 372.0625,258.3594 Q372.7188,258.5156 373.2656,258.875 Z " fill="#000000"/><text fill="#000000" font-family="sans-serif" font-size="14" lengthAdjust="spacing" textLength="51" x="384.5" y="268.7285">Itinerary</text><line style="stroke:#181818;stroke-width:0.5;" x1="356.5" x2="437.5" y1="279" y2="279"/><line style="stroke:#181818;stroke-width:0.5;" x1="356.5" x2="437.5" y1="287" y2="287"/></g><!--class CompositeTopic--><g id="elem_CompositeTopic"><rect codeLine="55" fill="#F1F1F1" height="48" id="CompositeTopic" rx="2.5" ry="2.5" style="stroke:#181818;stroke-width:0.5;" width="134" x="22" y="522"/><ellipse cx="37" cy="538" fill="#ADD1B2" rx="11" ry="11" style="stroke:#181818;stroke-width:1.0;"/><path d="M39.7656,533.875 Q39.9219,533.6563 40.1094,533.5469 Q40.2969,533.4375 40.5156,533.4375 Q40.8906,533.4375 41.125,533.7031 Q41.3594,533.9531 41.3594,534.5625 L41.3594,536.0156 Q41.3594,536.625 41.125,536.8906 Q40.8906,537.1563 40.5156,537.1563 Q40.1719,537.1563 39.9688,536.9531 Q39.7656,536.7656 39.6563,536.25 Q39.6094,535.8906 39.4219,535.7031 Q39.0938,535.3281 38.4844,535.1094 Q37.875,534.8906 37.25,534.8906 Q36.4844,534.8906 35.8438,535.2188 Q35.2188,535.5469 34.7188,536.2969 Q34.2344,537.0469 34.2344,538.0781 L34.2344,539.1719 Q34.2344,540.4063 35.125,541.2344 Q36.0156,542.0469 37.6094,542.0469 Q38.5469,542.0469 39.2031,541.7969 Q39.5938,541.6406 40.0156,541.2031 Q40.2813,540.9375 40.4219,540.8594 Q40.5781,540.7813 40.7813,540.7813 Q41.1094,540.7813 41.3594,541.0469 Q41.625,541.2969 41.625,541.6406 Q41.625,541.9844 41.2813,542.3906 Q40.7813,542.9688 39.9844,543.2969 Q38.9063,543.75 37.6094,543.75 Q36.0938,543.75 34.8906,543.125 Q33.9063,542.625 33.2188,541.5625 Q32.5313,540.4844 32.5313,539.2031 L32.5313,538.0469 Q32.5313,536.7188 33.1406,535.5781 Q33.7656,534.4219 34.8594,533.8125 Q35.9531,533.1875 37.1875,533.1875 Q37.9219,533.1875 38.5625,533.3594 Q39.2188,533.5156 39.7656,533.875 Z " fill="#000000"/><text fill="#000000" font-family="sans-serif" font-size="14" lengthAdjust="spacing" textLength="102" x="51" y="543.7285">CompositeTopic</text><line style="stroke:#181818;stroke-width:0.5;" x1="23" x2="155" y1="554" y2="554"/><line style="stroke:#181818;stroke-width:0.5;" x1="23" x2="155" y1="562" y2="562"/></g><!--class SimpleTopic--><g id="elem_SimpleTopic"><rect codeLine="51" fill="#F1F1F1" height="48" id="SimpleTopic" rx="2.5" ry="2.5" style="stroke:#181818;stroke-width:0.5;" width="109" x="329.5" y="522"/><ellipse cx="344.5" cy="538" fill="#ADD1B2" rx="11" ry="11" style="stroke:#181818;stroke-width:1.0;"/><path d="M347.2656,533.875 Q347.4219,533.6563 347.6094,533.5469 Q347.7969,533.4375 348.0156,533.4375 Q348.3906,533.4375 348.625,533.7031 Q348.8594,533.9531 348.8594,534.5625 L348.8594,536.0156 Q348.8594,536.625 348.625,536.8906 Q348.3906,537.1563 348.0156,537.1563 Q347.6719,537.1563 347.4688,536.9531 Q347.2656,536.7656 347.1563,536.25 Q347.1094,535.8906 346.9219,535.7031 Q346.5938,535.3281 345.9844,535.1094 Q345.375,534.8906 344.75,534.8906 Q343.9844,534.8906 343.3438,535.2188 Q342.7188,535.5469 342.2188,536.2969 Q341.7344,537.0469 341.7344,538.0781 L341.7344,539.1719 Q341.7344,540.4063 342.625,541.2344 Q343.5156,542.0469 345.1094,542.0469 Q346.0469,542.0469 346.7031,541.7969 Q347.0938,541.6406 347.5156,541.2031 Q347.7813,540.9375 347.9219,540.8594 Q348.0781,540.7813 348.2813,540.7813 Q348.6094,540.7813 348.8594,541.0469 Q349.125,541.2969 349.125,541.6406 Q349.125,541.9844 348.7813,542.3906 Q348.2813,542.9688 347.4844,543.2969 Q346.4063,543.75 345.1094,543.75 Q343.5938,543.75 342.3906,543.125 Q341.4063,542.625 340.7188,541.5625 Q340.0313,540.4844 340.0313,539.2031 L340.0313,538.0469 Q340.0313,536.7188 340.6406,535.5781 Q341.2656,534.4219 342.3594,533.8125 Q343.4531,533.1875 344.6875,533.1875 Q345.4219,533.1875 346.0625,533.3594 Q346.7188,533.5156 347.2656,533.875 Z " fill="#000000"/><text fill="#000000" font-family="sans-serif" font-size="14" lengthAdjust="spacing" textLength="77" x="358.5" y="543.7285">SimpleTopic</text><line style="stroke:#181818;stroke-width:0.5;" x1="330.5" x2="437.5" y1="554" y2="554"/><line style="stroke:#181818;stroke-width:0.5;" x1="330.5" x2="437.5" y1="562" y2="562"/></g><!--class Attachment--><g id="elem_Attachment"><rect codeLine="46" fill="#F1F1F1" height="48" id="Attachment" rx="2.5" ry="2.5" style="stroke:#181818;stroke-width:0.5;" width="103" x="191.5" y="522"/><ellipse cx="206.5" cy="538" fill="#ADD1B2" rx="11" ry="11" style="stroke:#181818;stroke-width:1.0;"/><path d="M209.2656,533.875 Q209.4219,533.6563 209.6094,533.5469 Q209.7969,533.4375 210.0156,533.4375 Q210.3906,533.4375 210.625,533.7031 Q210.8594,533.9531 210.8594,534.5625 L210.8594,536.0156 Q210.8594,536.625 210.625,536.8906 Q210.3906,537.1563 210.0156,537.1563 Q209.6719,537.1563 209.4688,536.9531 Q209.2656,536.7656 209.1563,536.25 Q209.1094,535.8906 208.9219,535.7031 Q208.5938,535.3281 207.9844,535.1094 Q207.375,534.8906 206.75,534.8906 Q205.9844,534.8906 205.3438,535.2188 Q204.7188,535.5469 204.2188,536.2969 Q203.7344,537.0469 203.7344,538.0781 L203.7344,539.1719 Q203.7344,540.4063 204.625,541.2344 Q205.5156,542.0469 207.1094,542.0469 Q208.0469,542.0469 208.7031,541.7969 Q209.0938,541.6406 209.5156,541.2031 Q209.7813,540.9375 209.9219,540.8594 Q210.0781,540.7813 210.2813,540.7813 Q210.6094,540.7813 210.8594,541.0469 Q211.125,541.2969 211.125,541.6406 Q211.125,541.9844 210.7813,542.3906 Q210.2813,542.9688 209.4844,543.2969 Q208.4063,543.75 207.1094,543.75 Q205.5938,543.75 204.3906,543.125 Q203.4063,542.625 202.7188,541.5625 Q202.0313,540.4844 202.0313,539.2031 L202.0313,538.0469 Q202.0313,536.7188 202.6406,535.5781 Q203.2656,534.4219 204.3594,533.8125 Q205.4531,533.1875 206.6875,533.1875 Q207.4219,533.1875 208.0625,533.3594 Q208.7188,533.5156 209.2656,533.875 Z " fill="#000000"/><text fill="#000000" font-family="sans-serif" font-size="14" lengthAdjust="spacing" textLength="71" x="220.5" y="543.7285">Attachment</text><line style="stroke:#181818;stroke-width:0.5;" x1="192.5" x2="293.5" y1="554" y2="554"/><line style="stroke:#181818;stroke-width:0.5;" x1="192.5" x2="293.5" y1="562" y2="562"/></g><!--class Document--><g id="elem_Document"><rect codeLine="44" fill="#F1F1F1" height="48" id="Document" rx="2.5" ry="2.5" style="stroke:#181818;stroke-width:0.5;" width="96" x="195" y="657.5"/><ellipse cx="210" cy="673.5" fill="#ADD1B2" rx="11" ry="11" style="stroke:#181818;stroke-width:1.0;"/><path d="M212.7656,669.375 Q212.9219,669.1563 213.1094,669.0469 Q213.2969,668.9375 213.5156,668.9375 Q213.8906,668.9375 214.125,669.2031 Q214.3594,669.4531 214.3594,670.0625 L214.3594,671.5156 Q214.3594,672.125 214.125,672.3906 Q213.8906,672.6563 213.5156,672.6563 Q213.1719,672.6563 212.9688,672.4531 Q212.7656,672.2656 212.6563,671.75 Q212.6094,671.3906 212.4219,671.2031 Q212.0938,670.8281 211.4844,670.6094 Q210.875,670.3906 210.25,670.3906 Q209.4844,670.3906 208.8438,670.7188 Q208.2188,671.0469 207.7188,671.7969 Q207.2344,672.5469 207.2344,673.5781 L207.2344,674.6719 Q207.2344,675.9063 208.125,676.7344 Q209.0156,677.5469 210.6094,677.5469 Q211.5469,677.5469 212.2031,677.2969 Q212.5938,677.1406 213.0156,676.7031 Q213.2813,676.4375 213.4219,676.3594 Q213.5781,676.2813 213.7813,676.2813 Q214.1094,676.2813 214.3594,676.5469 Q214.625,676.7969 214.625,677.1406 Q214.625,677.4844 214.2813,677.8906 Q213.7813,678.4688 212.9844,678.7969 Q211.9063,679.25 210.6094,679.25 Q209.0938,679.25 207.8906,678.625 Q206.9063,678.125 206.2188,677.0625 Q205.5313,675.9844 205.5313,674.7031 L205.5313,673.5469 Q205.5313,672.2188 206.1406,671.0781 Q206.7656,669.9219 207.8594,669.3125 Q208.9531,668.6875 210.1875,668.6875 Q210.9219,668.6875 211.5625,668.8594 Q212.2188,669.0156 212.7656,669.375 Z " fill="#000000"/><text fill="#000000" font-family="sans-serif" font-size="14" lengthAdjust="spacing" textLength="64" x="224" y="679.2285">Document</text><line style="stroke:#181818;stroke-width:0.5;" x1="196" x2="290" y1="689.5" y2="689.5"/><line style="stroke:#181818;stroke-width:0.5;" x1="196" x2="290" y1="697.5" y2="697.5"/></g><!--class Exercise--><g id="elem_Exercise"><rect codeLine="96" fill="#F1F1F1" height="48" id="Exercise" rx="2.5" ry="2.5" style="stroke:#181818;stroke-width:0.5;" width="85" x="1203.5" y="247"/><ellipse cx="1218.5" cy="263" fill="#A9DCDF" rx="11" ry="11" style="stroke:#181818;stroke-width:1.0;"/><path d="M1220.6875,264.7656 L1216.5469,264.7656 L1216.125,265.7969 L1216.5469,265.7969 Q1217.1563,265.7969 1217.4219,266.0313 Q1217.6875,266.2656 1217.6875,266.6563 Q1217.6875,267.0313 1217.4219,267.2656 Q1217.1563,267.5 1216.5469,267.5 L1214.25,267.5 Q1213.6406,267.5 1213.3906,267.2656 Q1213.125,267.0313 1213.125,266.6406 Q1213.125,266.2656 1213.4063,266.0313 Q1213.6719,265.7813 1214.2969,265.7969 L1216.9688,259.1406 L1215.8594,259.1406 Q1215.25,259.1406 1214.9844,258.9063 Q1214.7188,258.6719 1214.7188,258.2813 Q1214.7188,257.9063 1214.9844,257.6719 Q1215.25,257.4375 1215.8594,257.4375 L1219.5313,257.4375 L1222.9219,265.7969 Q1223.5156,265.7969 1223.7031,265.9375 Q1224.0938,266.2031 1224.0938,266.6563 Q1224.0938,267.0313 1223.8281,267.2656 Q1223.5781,267.5 1222.9688,267.5 L1220.6719,267.5 Q1220.0625,267.5 1219.7969,267.2656 Q1219.5313,267.0313 1219.5313,266.6406 Q1219.5313,266.2656 1219.7969,266.0313 Q1220.0625,265.7969 1220.6719,265.7969 L1221.0938,265.7969 L1220.6875,264.7656 Z M1219.9688,263.0625 L1218.6094,259.6875 L1217.2344,263.0625 L1219.9688,263.0625 Z " fill="#000000"/><text fill="#000000" font-family="sans-serif" font-size="14" font-style="italic" lengthAdjust="spacing" textLength="53" x="1232.5" y="268.7285">Exercise</text><line style="stroke:#181818;stroke-width:0.5;" x1="1204.5" x2="1287.5" y1="279" y2="279"/><line style="stroke:#181818;stroke-width:0.5;" x1="1204.5" x2="1287.5" y1="287" y2="287"/></g><!--class Domain--><g id="elem_Domain"><rect codeLine="107" fill="#F1F1F1" height="65.6094" id="Domain" rx="2.5" ry="2.5" style="stroke:#181818;stroke-width:0.5;" width="163" x="993.5" y="513"/><ellipse cx="1046.75" cy="529" fill="#ADD1B2" rx="11" ry="11" style="stroke:#181818;stroke-width:1.0;"/><path d="M1049.5156,524.875 Q1049.6719,524.6563 1049.8594,524.5469 Q1050.0469,524.4375 1050.2656,524.4375 Q1050.6406,524.4375 1050.875,524.7031 Q1051.1094,524.9531 1051.1094,525.5625 L1051.1094,527.0156 Q1051.1094,527.625 1050.875,527.8906 Q1050.6406,528.1563 1050.2656,528.1563 Q1049.9219,528.1563 1049.7188,527.9531 Q1049.5156,527.7656 1049.4063,527.25 Q1049.3594,526.8906 1049.1719,526.7031 Q1048.8438,526.3281 1048.2344,526.1094 Q1047.625,525.8906 1047,525.8906 Q1046.2344,525.8906 1045.5938,526.2188 Q1044.9688,526.5469 1044.4688,527.2969 Q1043.9844,528.0469 1043.9844,529.0781 L1043.9844,530.1719 Q1043.9844,531.4063 1044.875,532.2344 Q1045.7656,533.0469 1047.3594,533.0469 Q1048.2969,533.0469 1048.9531,532.7969 Q1049.3438,532.6406 1049.7656,532.2031 Q1050.0313,531.9375 1050.1719,531.8594 Q1050.3281,531.7813 1050.5313,531.7813 Q1050.8594,531.7813 1051.1094,532.0469 Q1051.375,532.2969 1051.375,532.6406 Q1051.375,532.9844 1051.0313,533.3906 Q1050.5313,533.9688 1049.7344,534.2969 Q1048.6563,534.75 1047.3594,534.75 Q1045.8438,534.75 1044.6406,534.125 Q1043.6563,533.625 1042.9688,532.5625 Q1042.2813,531.4844 1042.2813,530.2031 L1042.2813,529.0469 Q1042.2813,527.7188 1042.8906,526.5781 Q1043.5156,525.4219 1044.6094,524.8125 Q1045.7031,524.1875 1046.9375,524.1875 Q1047.6719,524.1875 1048.3125,524.3594 Q1048.9688,524.5156 1049.5156,524.875 Z " fill="#000000"/><text fill="#000000" font-family="sans-serif" font-size="14" lengthAdjust="spacing" textLength="48" x="1067.25" y="534.7285">Domain</text><line style="stroke:#181818;stroke-width:0.5;" x1="994.5" x2="1155.5" y1="545" y2="545"/><text fill="#000000" font-family="sans-serif" font-size="14" lengthAdjust="spacing" textLength="151" x="999.5" y="563.5332">versions : List&lt;Domain&gt;</text><line style="stroke:#181818;stroke-width:0.5;" x1="994.5" x2="1155.5" y1="570.6094" y2="570.6094"/></g><!--class Application--><g id="elem_Application"><rect codeLine="135" fill="#F1F1F1" height="83.2188" id="Application" rx="2.5" ry="2.5" style="stroke:#181818;stroke-width:0.5;" width="151" x="993.5" y="356"/><ellipse cx="1031" cy="372" fill="#ADD1B2" rx="11" ry="11" style="stroke:#181818;stroke-width:1.0;"/><path d="M1033.7656,367.875 Q1033.9219,367.6563 1034.1094,367.5469 Q1034.2969,367.4375 1034.5156,367.4375 Q1034.8906,367.4375 1035.125,367.7031 Q1035.3594,367.9531 1035.3594,368.5625 L1035.3594,370.0156 Q1035.3594,370.625 1035.125,370.8906 Q1034.8906,371.1563 1034.5156,371.1563 Q1034.1719,371.1563 1033.9688,370.9531 Q1033.7656,370.7656 1033.6563,370.25 Q1033.6094,369.8906 1033.4219,369.7031 Q1033.0938,369.3281 1032.4844,369.1094 Q1031.875,368.8906 1031.25,368.8906 Q1030.4844,368.8906 1029.8438,369.2188 Q1029.2188,369.5469 1028.7188,370.2969 Q1028.2344,371.0469 1028.2344,372.0781 L1028.2344,373.1719 Q1028.2344,374.4063 1029.125,375.2344 Q1030.0156,376.0469 1031.6094,376.0469 Q1032.5469,376.0469 1033.2031,375.7969 Q1033.5938,375.6406 1034.0156,375.2031 Q1034.2813,374.9375 1034.4219,374.8594 Q1034.5781,374.7813 1034.7813,374.7813 Q1035.1094,374.7813 1035.3594,375.0469 Q1035.625,375.2969 1035.625,375.6406 Q1035.625,375.9844 1035.2813,376.3906 Q1034.7813,376.9688 1033.9844,377.2969 Q1032.9063,377.75 1031.6094,377.75 Q1030.0938,377.75 1028.8906,377.125 Q1027.9063,376.625 1027.2188,375.5625 Q1026.5313,374.4844 1026.5313,373.2031 L1026.5313,372.0469 Q1026.5313,370.7188 1027.1406,369.5781 Q1027.7656,368.4219 1028.8594,367.8125 Q1029.9531,367.1875 1031.1875,367.1875 Q1031.9219,367.1875 1032.5625,367.3594 Q1033.2188,367.5156 1033.7656,367.875 Z " fill="#000000"/><text fill="#000000" font-family="sans-serif" font-size="14" lengthAdjust="spacing" textLength="69" x="1050" y="377.7285">Application</text><line style="stroke:#181818;stroke-width:0.5;" x1="994.5" x2="1143.5" y1="388" y2="388"/><rect fill="none" height="6" style="stroke:#C82930;stroke-width:1.0;" width="6" x="1001.5" y="399.3047"/><text fill="#000000" font-family="sans-serif" font-size="14" lengthAdjust="spacing" textLength="107" x="1013.5" y="406.5332">correct : boolean</text><rect fill="none" height="6" style="stroke:#C82930;stroke-width:1.0;" width="6" x="1001.5" y="416.9141"/><text fill="#000000" font-family="sans-serif" font-size="14" lengthAdjust="spacing" textLength="125" x="1013.5" y="424.1426">evaluated : boolean</text><line style="stroke:#181818;stroke-width:0.5;" x1="994.5" x2="1143.5" y1="431.2188" y2="431.2188"/></g><!--class QuestionExercise--><g id="elem_QuestionExercise"><rect codeLine="112" fill="#F1F1F1" height="65.6094" id="QuestionExercise" rx="2.5" ry="2.5" style="stroke:#181818;stroke-width:0.5;" width="142" x="1348" y="364.5"/><ellipse cx="1363" cy="380.5" fill="#ADD1B2" rx="11" ry="11" style="stroke:#181818;stroke-width:1.0;"/><path d="M1365.7656,376.375 Q1365.9219,376.1563 1366.1094,376.0469 Q1366.2969,375.9375 1366.5156,375.9375 Q1366.8906,375.9375 1367.125,376.2031 Q1367.3594,376.4531 1367.3594,377.0625 L1367.3594,378.5156 Q1367.3594,379.125 1367.125,379.3906 Q1366.8906,379.6563 1366.5156,379.6563 Q1366.1719,379.6563 1365.9688,379.4531 Q1365.7656,379.2656 1365.6563,378.75 Q1365.6094,378.3906 1365.4219,378.2031 Q1365.0938,377.8281 1364.4844,377.6094 Q1363.875,377.3906 1363.25,377.3906 Q1362.4844,377.3906 1361.8438,377.7188 Q1361.2188,378.0469 1360.7188,378.7969 Q1360.2344,379.5469 1360.2344,380.5781 L1360.2344,381.6719 Q1360.2344,382.9063 1361.125,383.7344 Q1362.0156,384.5469 1363.6094,384.5469 Q1364.5469,384.5469 1365.2031,384.2969 Q1365.5938,384.1406 1366.0156,383.7031 Q1366.2813,383.4375 1366.4219,383.3594 Q1366.5781,383.2813 1366.7813,383.2813 Q1367.1094,383.2813 1367.3594,383.5469 Q1367.625,383.7969 1367.625,384.1406 Q1367.625,384.4844 1367.2813,384.8906 Q1366.7813,385.4688 1365.9844,385.7969 Q1364.9063,386.25 1363.6094,386.25 Q1362.0938,386.25 1360.8906,385.625 Q1359.9063,385.125 1359.2188,384.0625 Q1358.5313,382.9844 1358.5313,381.7031 L1358.5313,380.5469 Q1358.5313,379.2188 1359.1406,378.0781 Q1359.7656,376.9219 1360.8594,376.3125 Q1361.9531,375.6875 1363.1875,375.6875 Q1363.9219,375.6875 1364.5625,375.8594 Q1365.2188,376.0156 1365.7656,376.375 Z " fill="#000000"/><text fill="#000000" font-family="sans-serif" font-size="14" lengthAdjust="spacing" textLength="110" x="1377" y="386.2285">QuestionExercise</text><line style="stroke:#181818;stroke-width:0.5;" x1="1349" x2="1489" y1="396.5" y2="396.5"/><text fill="#000000" font-family="sans-serif" font-size="14" lengthAdjust="spacing" textLength="111" x="1354" y="415.0332">statement : String</text><line style="stroke:#181818;stroke-width:0.5;" x1="1349" x2="1489" y1="422.1094" y2="422.1094"/></g><!--class DomainExercise--><g id="elem_DomainExercise"><rect codeLine="101" fill="#F1F1F1" height="48" id="DomainExercise" rx="2.5" ry="2.5" style="stroke:#181818;stroke-width:0.5;" width="133" x="1179.5" y="373.5"/><ellipse cx="1194.5" cy="389.5" fill="#ADD1B2" rx="11" ry="11" style="stroke:#181818;stroke-width:1.0;"/><path d="M1197.2656,385.375 Q1197.4219,385.1563 1197.6094,385.0469 Q1197.7969,384.9375 1198.0156,384.9375 Q1198.3906,384.9375 1198.625,385.2031 Q1198.8594,385.4531 1198.8594,386.0625 L1198.8594,387.5156 Q1198.8594,388.125 1198.625,388.3906 Q1198.3906,388.6563 1198.0156,388.6563 Q1197.6719,388.6563 1197.4688,388.4531 Q1197.2656,388.2656 1197.1563,387.75 Q1197.1094,387.3906 1196.9219,387.2031 Q1196.5938,386.8281 1195.9844,386.6094 Q1195.375,386.3906 1194.75,386.3906 Q1193.9844,386.3906 1193.3438,386.7188 Q1192.7188,387.0469 1192.2188,387.7969 Q1191.7344,388.5469 1191.7344,389.5781 L1191.7344,390.6719 Q1191.7344,391.9063 1192.625,392.7344 Q1193.5156,393.5469 1195.1094,393.5469 Q1196.0469,393.5469 1196.7031,393.2969 Q1197.0938,393.1406 1197.5156,392.7031 Q1197.7813,392.4375 1197.9219,392.3594 Q1198.0781,392.2813 1198.2813,392.2813 Q1198.6094,392.2813 1198.8594,392.5469 Q1199.125,392.7969 1199.125,393.1406 Q1199.125,393.4844 1198.7813,393.8906 Q1198.2813,394.4688 1197.4844,394.7969 Q1196.4063,395.25 1195.1094,395.25 Q1193.5938,395.25 1192.3906,394.625 Q1191.4063,394.125 1190.7188,393.0625 Q1190.0313,391.9844 1190.0313,390.7031 L1190.0313,389.5469 Q1190.0313,388.2188 1190.6406,387.0781 Q1191.2656,385.9219 1192.3594,385.3125 Q1193.4531,384.6875 1194.6875,384.6875 Q1195.4219,384.6875 1196.0625,384.8594 Q1196.7188,385.0156 1197.2656,385.375 Z " fill="#000000"/><text fill="#000000" font-family="sans-serif" font-size="14" lengthAdjust="spacing" textLength="101" x="1208.5" y="395.2285">DomainExercise</text><line style="stroke:#181818;stroke-width:0.5;" x1="1180.5" x2="1311.5" y1="405.5" y2="405.5"/><line style="stroke:#181818;stroke-width:0.5;" x1="1180.5" x2="1311.5" y1="413.5" y2="413.5"/></g><!--class MultipleChoice--><g id="elem_MultipleChoice"><rect codeLine="132" fill="#F1F1F1" height="48" id="MultipleChoice" rx="2.5" ry="2.5" style="stroke:#181818;stroke-width:0.5;" width="124" x="1210" y="522"/><ellipse cx="1225" cy="538" fill="#ADD1B2" rx="11" ry="11" style="stroke:#181818;stroke-width:1.0;"/><path d="M1227.7656,533.875 Q1227.9219,533.6563 1228.1094,533.5469 Q1228.2969,533.4375 1228.5156,533.4375 Q1228.8906,533.4375 1229.125,533.7031 Q1229.3594,533.9531 1229.3594,534.5625 L1229.3594,536.0156 Q1229.3594,536.625 1229.125,536.8906 Q1228.8906,537.1563 1228.5156,537.1563 Q1228.1719,537.1563 1227.9688,536.9531 Q1227.7656,536.7656 1227.6563,536.25 Q1227.6094,535.8906 1227.4219,535.7031 Q1227.0938,535.3281 1226.4844,535.1094 Q1225.875,534.8906 1225.25,534.8906 Q1224.4844,534.8906 1223.8438,535.2188 Q1223.2188,535.5469 1222.7188,536.2969 Q1222.2344,537.0469 1222.2344,538.0781 L1222.2344,539.1719 Q1222.2344,540.4063 1223.125,541.2344 Q1224.0156,542.0469 1225.6094,542.0469 Q1226.5469,542.0469 1227.2031,541.7969 Q1227.5938,541.6406 1228.0156,541.2031 Q1228.2813,540.9375 1228.4219,540.8594 Q1228.5781,540.7813 1228.7813,540.7813 Q1229.1094,540.7813 1229.3594,541.0469 Q1229.625,541.2969 1229.625,541.6406 Q1229.625,541.9844 1229.2813,542.3906 Q1228.7813,542.9688 1227.9844,543.2969 Q1226.9063,543.75 1225.6094,543.75 Q1224.0938,543.75 1222.8906,543.125 Q1221.9063,542.625 1221.2188,541.5625 Q1220.5313,540.4844 1220.5313,539.2031 L1220.5313,538.0469 Q1220.5313,536.7188 1221.1406,535.5781 Q1221.7656,534.4219 1222.8594,533.8125 Q1223.9531,533.1875 1225.1875,533.1875 Q1225.9219,533.1875 1226.5625,533.3594 Q1227.2188,533.5156 1227.7656,533.875 Z " fill="#000000"/><text fill="#000000" font-family="sans-serif" font-size="14" lengthAdjust="spacing" textLength="92" x="1239" y="543.7285">MultipleChoice</text><line style="stroke:#181818;stroke-width:0.5;" x1="1211" x2="1333" y1="554" y2="554"/><line style="stroke:#181818;stroke-width:0.5;" x1="1211" x2="1333" y1="562" y2="562"/></g><!--class Cloze--><g id="elem_Cloze"><rect codeLine="128" fill="#F1F1F1" height="65.6094" id="Cloze" rx="2.5" ry="2.5" style="stroke:#181818;stroke-width:0.5;" width="107" x="1369.5" y="513"/><ellipse cx="1402.5" cy="529" fill="#ADD1B2" rx="11" ry="11" style="stroke:#181818;stroke-width:1.0;"/><path d="M1405.2656,524.875 Q1405.4219,524.6563 1405.6094,524.5469 Q1405.7969,524.4375 1406.0156,524.4375 Q1406.3906,524.4375 1406.625,524.7031 Q1406.8594,524.9531 1406.8594,525.5625 L1406.8594,527.0156 Q1406.8594,527.625 1406.625,527.8906 Q1406.3906,528.1563 1406.0156,528.1563 Q1405.6719,528.1563 1405.4688,527.9531 Q1405.2656,527.7656 1405.1563,527.25 Q1405.1094,526.8906 1404.9219,526.7031 Q1404.5938,526.3281 1403.9844,526.1094 Q1403.375,525.8906 1402.75,525.8906 Q1401.9844,525.8906 1401.3438,526.2188 Q1400.7188,526.5469 1400.2188,527.2969 Q1399.7344,528.0469 1399.7344,529.0781 L1399.7344,530.1719 Q1399.7344,531.4063 1400.625,532.2344 Q1401.5156,533.0469 1403.1094,533.0469 Q1404.0469,533.0469 1404.7031,532.7969 Q1405.0938,532.6406 1405.5156,532.2031 Q1405.7813,531.9375 1405.9219,531.8594 Q1406.0781,531.7813 1406.2813,531.7813 Q1406.6094,531.7813 1406.8594,532.0469 Q1407.125,532.2969 1407.125,532.6406 Q1407.125,532.9844 1406.7813,533.3906 Q1406.2813,533.9688 1405.4844,534.2969 Q1404.4063,534.75 1403.1094,534.75 Q1401.5938,534.75 1400.3906,534.125 Q1399.4063,533.625 1398.7188,532.5625 Q1398.0313,531.4844 1398.0313,530.2031 L1398.0313,529.0469 Q1398.0313,527.7188 1398.6406,526.5781 Q1399.2656,525.4219 1400.3594,524.8125 Q1401.4531,524.1875 1402.6875,524.1875 Q1403.4219,524.1875 1404.0625,524.3594 Q1404.7188,524.5156 1405.2656,524.875 Z " fill="#000000"/><text fill="#000000" font-family="sans-serif" font-size="14" lengthAdjust="spacing" textLength="35" x="1420.5" y="534.7285">Cloze</text><line style="stroke:#181818;stroke-width:0.5;" x1="1370.5" x2="1475.5" y1="545" y2="545"/><text fill="#000000" font-family="sans-serif" font-size="14" lengthAdjust="spacing" textLength="95" x="1375.5" y="563.5332">blankCount: int</text><line style="stroke:#181818;stroke-width:0.5;" x1="1370.5" x2="1475.5" y1="570.6094" y2="570.6094"/></g><!--class Open--><g id="elem_Open"><rect fill="#F1F1F1" height="48" id="Open" rx="2.5" ry="2.5" style="stroke:#181818;stroke-width:0.5;" width="67" x="1511.5" y="522"/><ellipse cx="1526.5" cy="538" fill="#ADD1B2" rx="11" ry="11" style="stroke:#181818;stroke-width:1.0;"/><path d="M1529.2656,533.875 Q1529.4219,533.6563 1529.6094,533.5469 Q1529.7969,533.4375 1530.0156,533.4375 Q1530.3906,533.4375 1530.625,533.7031 Q1530.8594,533.9531 1530.8594,534.5625 L1530.8594,536.0156 Q1530.8594,536.625 1530.625,536.8906 Q1530.3906,537.1563 1530.0156,537.1563 Q1529.6719,537.1563 1529.4688,536.9531 Q1529.2656,536.7656 1529.1563,536.25 Q1529.1094,535.8906 1528.9219,535.7031 Q1528.5938,535.3281 1527.9844,535.1094 Q1527.375,534.8906 1526.75,534.8906 Q1525.9844,534.8906 1525.3438,535.2188 Q1524.7188,535.5469 1524.2188,536.2969 Q1523.7344,537.0469 1523.7344,538.0781 L1523.7344,539.1719 Q1523.7344,540.4063 1524.625,541.2344 Q1525.5156,542.0469 1527.1094,542.0469 Q1528.0469,542.0469 1528.7031,541.7969 Q1529.0938,541.6406 1529.5156,541.2031 Q1529.7813,540.9375 1529.9219,540.8594 Q1530.0781,540.7813 1530.2813,540.7813 Q1530.6094,540.7813 1530.8594,541.0469 Q1531.125,541.2969 1531.125,541.6406 Q1531.125,541.9844 1530.7813,542.3906 Q1530.2813,542.9688 1529.4844,543.2969 Q1528.4063,543.75 1527.1094,543.75 Q1525.5938,543.75 1524.3906,543.125 Q1523.4063,542.625 1522.7188,541.5625 Q1522.0313,540.4844 1522.0313,539.2031 L1522.0313,538.0469 Q1522.0313,536.7188 1522.6406,535.5781 Q1523.2656,534.4219 1524.3594,533.8125 Q1525.4531,533.1875 1526.6875,533.1875 Q1527.4219,533.1875 1528.0625,533.3594 Q1528.7188,533.5156 1529.2656,533.875 Z " fill="#000000"/><text fill="#000000" font-family="sans-serif" font-size="14" lengthAdjust="spacing" textLength="35" x="1540.5" y="543.7285">Open</text><line style="stroke:#181818;stroke-width:0.5;" x1="1512.5" x2="1577.5" y1="554" y2="554"/><line style="stroke:#181818;stroke-width:0.5;" x1="1512.5" x2="1577.5" y1="562" y2="562"/></g><!--class Answer--><g id="elem_Answer"><rect codeLine="122" fill="#F1F1F1" height="83.2188" id="Answer" rx="2.5" ry="2.5" style="stroke:#181818;stroke-width:0.5;" width="151" x="1034.5" y="640"/><ellipse cx="1082.75" cy="656" fill="#ADD1B2" rx="11" ry="11" style="stroke:#181818;stroke-width:1.0;"/><path d="M1085.5156,651.875 Q1085.6719,651.6563 1085.8594,651.5469 Q1086.0469,651.4375 1086.2656,651.4375 Q1086.6406,651.4375 1086.875,651.7031 Q1087.1094,651.9531 1087.1094,652.5625 L1087.1094,654.0156 Q1087.1094,654.625 1086.875,654.8906 Q1086.6406,655.1563 1086.2656,655.1563 Q1085.9219,655.1563 1085.7188,654.9531 Q1085.5156,654.7656 1085.4063,654.25 Q1085.3594,653.8906 1085.1719,653.7031 Q1084.8438,653.3281 1084.2344,653.1094 Q1083.625,652.8906 1083,652.8906 Q1082.2344,652.8906 1081.5938,653.2188 Q1080.9688,653.5469 1080.4688,654.2969 Q1079.9844,655.0469 1079.9844,656.0781 L1079.9844,657.1719 Q1079.9844,658.4063 1080.875,659.2344 Q1081.7656,660.0469 1083.3594,660.0469 Q1084.2969,660.0469 1084.9531,659.7969 Q1085.3438,659.6406 1085.7656,659.2031 Q1086.0313,658.9375 1086.1719,658.8594 Q1086.3281,658.7813 1086.5313,658.7813 Q1086.8594,658.7813 1087.1094,659.0469 Q1087.375,659.2969 1087.375,659.6406 Q1087.375,659.9844 1087.0313,660.3906 Q1086.5313,660.9688 1085.7344,661.2969 Q1084.6563,661.75 1083.3594,661.75 Q1081.8438,661.75 1080.6406,661.125 Q1079.6563,660.625 1078.9688,659.5625 Q1078.2813,658.4844 1078.2813,657.2031 L1078.2813,656.0469 Q1078.2813,654.7188 1078.8906,653.5781 Q1079.5156,652.4219 1080.6094,651.8125 Q1081.7031,651.1875 1082.9375,651.1875 Q1083.6719,651.1875 1084.3125,651.3594 Q1084.9688,651.5156 1085.5156,651.875 Z " fill="#000000"/><text fill="#000000" font-family="sans-serif" font-size="14" lengthAdjust="spacing" textLength="46" x="1103.25" y="661.7285">Answer</text><line style="stroke:#181818;stroke-width:0.5;" x1="1035.5" x2="1184.5" y1="672" y2="672"/><rect fill="none" height="6" style="stroke:#C82930;stroke-width:1.0;" width="6" x="1042.5" y="683.3047"/><text fill="#000000" font-family="sans-serif" font-size="14" lengthAdjust="spacing" textLength="107" x="1054.5" y="690.5332">correct : boolean</text><rect fill="none" height="6" style="stroke:#C82930;stroke-width:1.0;" width="6" x="1042.5" y="700.9141"/><text fill="#000000" font-family="sans-serif" font-size="14" lengthAdjust="spacing" textLength="125" x="1054.5" y="708.1426">evaluated : boolean</text><line style="stroke:#181818;stroke-width:0.5;" x1="1035.5" x2="1184.5" y1="715.2188" y2="715.2188"/></g><!--class ConceptGraph--><g id="elem_ConceptGraph"><rect codeLine="62" fill="#F1F1F1" height="48" id="ConceptGraph" rx="2.5" ry="2.5" style="stroke:#181818;stroke-width:0.5;" width="125" x="583.5" y="522"/><ellipse cx="598.5" cy="538" fill="#ADD1B2" rx="11" ry="11" style="stroke:#181818;stroke-width:1.0;"/><path d="M601.2656,533.875 Q601.4219,533.6563 601.6094,533.5469 Q601.7969,533.4375 602.0156,533.4375 Q602.3906,533.4375 602.625,533.7031 Q602.8594,533.9531 602.8594,534.5625 L602.8594,536.0156 Q602.8594,536.625 602.625,536.8906 Q602.3906,537.1563 602.0156,537.1563 Q601.6719,537.1563 601.4688,536.9531 Q601.2656,536.7656 601.1563,536.25 Q601.1094,535.8906 600.9219,535.7031 Q600.5938,535.3281 599.9844,535.1094 Q599.375,534.8906 598.75,534.8906 Q597.9844,534.8906 597.3438,535.2188 Q596.7188,535.5469 596.2188,536.2969 Q595.7344,537.0469 595.7344,538.0781 L595.7344,539.1719 Q595.7344,540.4063 596.625,541.2344 Q597.5156,542.0469 599.1094,542.0469 Q600.0469,542.0469 600.7031,541.7969 Q601.0938,541.6406 601.5156,541.2031 Q601.7813,540.9375 601.9219,540.8594 Q602.0781,540.7813 602.2813,540.7813 Q602.6094,540.7813 602.8594,541.0469 Q603.125,541.2969 603.125,541.6406 Q603.125,541.9844 602.7813,542.3906 Q602.2813,542.9688 601.4844,543.2969 Q600.4063,543.75 599.1094,543.75 Q597.5938,543.75 596.3906,543.125 Q595.4063,542.625 594.7188,541.5625 Q594.0313,540.4844 594.0313,539.2031 L594.0313,538.0469 Q594.0313,536.7188 594.6406,535.5781 Q595.2656,534.4219 596.3594,533.8125 Q597.4531,533.1875 598.6875,533.1875 Q599.4219,533.1875 600.0625,533.3594 Q600.7188,533.5156 601.2656,533.875 Z " fill="#000000"/><text fill="#000000" font-family="sans-serif" font-size="14" lengthAdjust="spacing" textLength="93" x="612.5" y="543.7285">ConceptGraph</text><line style="stroke:#181818;stroke-width:0.5;" x1="584.5" x2="707.5" y1="554" y2="554"/><line style="stroke:#181818;stroke-width:0.5;" x1="584.5" x2="707.5" y1="562" y2="562"/></g><!--class Concept--><g id="elem_Concept"><rect codeLine="66" fill="#F1F1F1" height="48" id="Concept" rx="2.5" ry="2.5" style="stroke:#181818;stroke-width:0.5;" width="85" x="594.5" y="657.5"/><ellipse cx="609.5" cy="673.5" fill="#ADD1B2" rx="11" ry="11" style="stroke:#181818;stroke-width:1.0;"/><path d="M612.2656,669.375 Q612.4219,669.1563 612.6094,669.0469 Q612.7969,668.9375 613.0156,668.9375 Q613.3906,668.9375 613.625,669.2031 Q613.8594,669.4531 613.8594,670.0625 L613.8594,671.5156 Q613.8594,672.125 613.625,672.3906 Q613.3906,672.6563 613.0156,672.6563 Q612.6719,672.6563 612.4688,672.4531 Q612.2656,672.2656 612.1563,671.75 Q612.1094,671.3906 611.9219,671.2031 Q611.5938,670.8281 610.9844,670.6094 Q610.375,670.3906 609.75,670.3906 Q608.9844,670.3906 608.3438,670.7188 Q607.7188,671.0469 607.2188,671.7969 Q606.7344,672.5469 606.7344,673.5781 L606.7344,674.6719 Q606.7344,675.9063 607.625,676.7344 Q608.5156,677.5469 610.1094,677.5469 Q611.0469,677.5469 611.7031,677.2969 Q612.0938,677.1406 612.5156,676.7031 Q612.7813,676.4375 612.9219,676.3594 Q613.0781,676.2813 613.2813,676.2813 Q613.6094,676.2813 613.8594,676.5469 Q614.125,676.7969 614.125,677.1406 Q614.125,677.4844 613.7813,677.8906 Q613.2813,678.4688 612.4844,678.7969 Q611.4063,679.25 610.1094,679.25 Q608.5938,679.25 607.3906,678.625 Q606.4063,678.125 605.7188,677.0625 Q605.0313,675.9844 605.0313,674.7031 L605.0313,673.5469 Q605.0313,672.2188 605.6406,671.0781 Q606.2656,669.9219 607.3594,669.3125 Q608.4531,668.6875 609.6875,668.6875 Q610.4219,668.6875 611.0625,668.8594 Q611.7188,669.0156 612.2656,669.375 Z " fill="#000000"/><text fill="#000000" font-family="sans-serif" font-size="14" lengthAdjust="spacing" textLength="53" x="623.5" y="679.2285">Concept</text><line style="stroke:#181818;stroke-width:0.5;" x1="595.5" x2="678.5" y1="689.5" y2="689.5"/><line style="stroke:#181818;stroke-width:0.5;" x1="595.5" x2="678.5" y1="697.5" y2="697.5"/></g><!--class Definition--><g id="elem_Definition"><rect codeLine="72" fill="#F1F1F1" height="65.6094" id="Definition" rx="2.5" ry="2.5" style="stroke:#181818;stroke-width:0.5;" width="133" x="614.5" y="803"/><ellipse cx="648.4" cy="819" fill="#ADD1B2" rx="11" ry="11" style="stroke:#181818;stroke-width:1.0;"/><path d="M651.1656,814.875 Q651.3219,814.6563 651.5094,814.5469 Q651.6969,814.4375 651.9156,814.4375 Q652.2906,814.4375 652.525,814.7031 Q652.7594,814.9531 652.7594,815.5625 L652.7594,817.0156 Q652.7594,817.625 652.525,817.8906 Q652.2906,818.1563 651.9156,818.1563 Q651.5719,818.1563 651.3688,817.9531 Q651.1656,817.7656 651.0563,817.25 Q651.0094,816.8906 650.8219,816.7031 Q650.4938,816.3281 649.8844,816.1094 Q649.275,815.8906 648.65,815.8906 Q647.8844,815.8906 647.2438,816.2188 Q646.6188,816.5469 646.1188,817.2969 Q645.6344,818.0469 645.6344,819.0781 L645.6344,820.1719 Q645.6344,821.4063 646.525,822.2344 Q647.4156,823.0469 649.0094,823.0469 Q649.9469,823.0469 650.6031,822.7969 Q650.9938,822.6406 651.4156,822.2031 Q651.6813,821.9375 651.8219,821.8594 Q651.9781,821.7813 652.1813,821.7813 Q652.5094,821.7813 652.7594,822.0469 Q653.025,822.2969 653.025,822.6406 Q653.025,822.9844 652.6813,823.3906 Q652.1813,823.9688 651.3844,824.2969 Q650.3063,824.75 649.0094,824.75 Q647.4938,824.75 646.2906,824.125 Q645.3063,823.625 644.6188,822.5625 Q643.9313,821.4844 643.9313,820.2031 L643.9313,819.0469 Q643.9313,817.7188 644.5406,816.5781 Q645.1656,815.4219 646.2594,814.8125 Q647.3531,814.1875 648.5875,814.1875 Q649.3219,814.1875 649.9625,814.3594 Q650.6188,814.5156 651.1656,814.875 Z " fill="#000000"/><text fill="#000000" font-family="sans-serif" font-size="14" lengthAdjust="spacing" textLength="59" x="666.6" y="824.7285">Definition</text><line style="stroke:#181818;stroke-width:0.5;" x1="615.5" x2="746.5" y1="835" y2="835"/><rect fill="none" height="6" style="stroke:#C82930;stroke-width:1.0;" width="6" x="622.5" y="846.3047"/><text fill="#000000" font-family="sans-serif" font-size="14" lengthAdjust="spacing" textLength="107" x="634.5" y="853.5332">correct : boolean</text><line style="stroke:#181818;stroke-width:0.5;" x1="615.5" x2="746.5" y1="860.6094" y2="860.6094"/></g><!--class Relation--><g id="elem_Relation"><rect codeLine="77" fill="#F1F1F1" height="48" id="Relation" rx="2.5" ry="2.5" style="stroke:#181818;stroke-width:0.5;" width="84" x="495" y="812"/><ellipse cx="510" cy="828" fill="#ADD1B2" rx="11" ry="11" style="stroke:#181818;stroke-width:1.0;"/><path d="M512.7656,823.875 Q512.9219,823.6563 513.1094,823.5469 Q513.2969,823.4375 513.5156,823.4375 Q513.8906,823.4375 514.125,823.7031 Q514.3594,823.9531 514.3594,824.5625 L514.3594,826.0156 Q514.3594,826.625 514.125,826.8906 Q513.8906,827.1563 513.5156,827.1563 Q513.1719,827.1563 512.9688,826.9531 Q512.7656,826.7656 512.6563,826.25 Q512.6094,825.8906 512.4219,825.7031 Q512.0938,825.3281 511.4844,825.1094 Q510.875,824.8906 510.25,824.8906 Q509.4844,824.8906 508.8438,825.2188 Q508.2188,825.5469 507.7188,826.2969 Q507.2344,827.0469 507.2344,828.0781 L507.2344,829.1719 Q507.2344,830.4063 508.125,831.2344 Q509.0156,832.0469 510.6094,832.0469 Q511.5469,832.0469 512.2031,831.7969 Q512.5938,831.6406 513.0156,831.2031 Q513.2813,830.9375 513.4219,830.8594 Q513.5781,830.7813 513.7813,830.7813 Q514.1094,830.7813 514.3594,831.0469 Q514.625,831.2969 514.625,831.6406 Q514.625,831.9844 514.2813,832.3906 Q513.7813,832.9688 512.9844,833.2969 Q511.9063,833.75 510.6094,833.75 Q509.0938,833.75 507.8906,833.125 Q506.9063,832.625 506.2188,831.5625 Q505.5313,830.4844 505.5313,829.2031 L505.5313,828.0469 Q505.5313,826.7188 506.1406,825.5781 Q506.7656,824.4219 507.8594,823.8125 Q508.9531,823.1875 510.1875,823.1875 Q510.9219,823.1875 511.5625,823.3594 Q512.2188,823.5156 512.7656,823.875 Z " fill="#000000"/><text fill="#000000" font-family="sans-serif" font-size="14" lengthAdjust="spacing" textLength="52" x="524" y="833.7285">Relation</text><line style="stroke:#181818;stroke-width:0.5;" x1="496" x2="578" y1="844" y2="844"/><line style="stroke:#181818;stroke-width:0.5;" x1="496" x2="578" y1="852" y2="852"/></g><!--class RelationType--><g id="elem_RelationType"><rect codeLine="82" fill="#F1F1F1" height="136.0469" id="RelationType" rx="2.5" ry="2.5" style="stroke:#181818;stroke-width:0.5;" width="116" x="495" y="947"/><ellipse cx="510" cy="963" fill="#EB937F" rx="11" ry="11" style="stroke:#181818;stroke-width:1.0;"/><path d="M508.8594,963.7969 L508.8594,966.2969 L513.1875,966.2969 L513.1875,965.375 Q513.1875,964.7656 513.4219,964.5 Q513.6719,964.2344 514.0469,964.2344 Q514.4219,964.2344 514.6563,964.5 Q514.8906,964.7656 514.8906,965.375 L514.8906,968 L506.8906,968 Q506.2656,968 506,967.7656 Q505.75,967.5313 505.75,967.1406 Q505.75,966.7656 506.0156,966.5313 Q506.2813,966.2969 506.8906,966.2969 L507.1563,966.2969 L507.1563,959.6406 L506.8906,959.6406 Q506.2656,959.6406 506,959.4063 Q505.75,959.1719 505.75,958.7813 Q505.75,958.4063 506,958.1719 Q506.2656,957.9375 506.8906,957.9375 L514.5156,957.9375 L514.5156,960.5313 Q514.5156,961.1406 514.2813,961.4063 Q514.0625,961.6563 513.6719,961.6563 Q513.2969,961.6563 513.0625,961.4063 Q512.8281,961.1406 512.8281,960.5313 L512.8281,959.6406 L508.8594,959.6406 L508.8594,962.0938 L510.3438,962.0938 Q510.3438,961.4375 510.4688,961.25 Q510.7344,960.8438 511.2031,960.8438 Q511.5781,960.8438 511.8125,961.1094 Q512.0469,961.3594 512.0469,961.9688 L512.0469,963.9375 Q512.0469,964.4844 511.9219,964.6719 Q511.6563,965.0625 511.2031,965.0625 Q510.7344,965.0625 510.4688,964.6563 Q510.3438,964.4688 510.3438,963.7969 L508.8594,963.7969 Z " fill="#000000"/><text fill="#000000" font-family="sans-serif" font-size="14" lengthAdjust="spacing" textLength="84" x="524" y="968.7285">RelationType</text><line style="stroke:#181818;stroke-width:0.5;" x1="496" x2="610" y1="979" y2="979"/><text fill="#000000" font-family="sans-serif" font-size="14" lengthAdjust="spacing" textLength="24" x="501" y="997.5332">Use</text><text fill="#000000" font-family="sans-serif" font-size="14" lengthAdjust="spacing" textLength="72" x="501" y="1015.1426">Association</text><text fill="#000000" font-family="sans-serif" font-size="14" lengthAdjust="spacing" textLength="78" x="501" y="1032.752">Composition</text><text fill="#000000" font-family="sans-serif" font-size="14" lengthAdjust="spacing" textLength="70" x="501" y="1050.3613">Inheritance</text><text fill="#000000" font-family="sans-serif" font-size="14" lengthAdjust="spacing" textLength="77" x="501" y="1067.9707">Aggregation</text><line style="stroke:#181818;stroke-width:0.5;" x1="496" x2="610" y1="1075.0469" y2="1075.0469"/></g><!--class EducationPlatform--><g id="elem_EducationPlatform"><rect fill="#F1F1F1" height="48" id="EducationPlatform" rx="2.5" ry="2.5" style="stroke:#181818;stroke-width:0.5;" width="147" x="775.5" y="7"/><ellipse cx="790.5" cy="23" fill="#ADD1B2" rx="11" ry="11" style="stroke:#181818;stroke-width:1.0;"/><path d="M793.2656,18.875 Q793.4219,18.6563 793.6094,18.5469 Q793.7969,18.4375 794.0156,18.4375 Q794.3906,18.4375 794.625,18.7031 Q794.8594,18.9531 794.8594,19.5625 L794.8594,21.0156 Q794.8594,21.625 794.625,21.8906 Q794.3906,22.1563 794.0156,22.1563 Q793.6719,22.1563 793.4688,21.9531 Q793.2656,21.7656 793.1563,21.25 Q793.1094,20.8906 792.9219,20.7031 Q792.5938,20.3281 791.9844,20.1094 Q791.375,19.8906 790.75,19.8906 Q789.9844,19.8906 789.3438,20.2188 Q788.7188,20.5469 788.2188,21.2969 Q787.7344,22.0469 787.7344,23.0781 L787.7344,24.1719 Q787.7344,25.4063 788.625,26.2344 Q789.5156,27.0469 791.1094,27.0469 Q792.0469,27.0469 792.7031,26.7969 Q793.0938,26.6406 793.5156,26.2031 Q793.7813,25.9375 793.9219,25.8594 Q794.0781,25.7813 794.2813,25.7813 Q794.6094,25.7813 794.8594,26.0469 Q795.125,26.2969 795.125,26.6406 Q795.125,26.9844 794.7813,27.3906 Q794.2813,27.9688 793.4844,28.2969 Q792.4063,28.75 791.1094,28.75 Q789.5938,28.75 788.3906,28.125 Q787.4063,27.625 786.7188,26.5625 Q786.0313,25.4844 786.0313,24.2031 L786.0313,23.0469 Q786.0313,21.7188 786.6406,20.5781 Q787.2656,19.4219 788.3594,18.8125 Q789.4531,18.1875 790.6875,18.1875 Q791.4219,18.1875 792.0625,18.3594 Q792.7188,18.5156 793.2656,18.875 Z " fill="#000000"/><text fill="#000000" font-family="sans-serif" font-size="14" lengthAdjust="spacing" textLength="115" x="804.5" y="28.7285">EducationPlatform</text><line style="stroke:#181818;stroke-width:0.5;" x1="776.5" x2="921.5" y1="39" y2="39"/><line style="stroke:#181818;stroke-width:0.5;" x1="776.5" x2="921.5" y1="47" y2="47"/></g><!--class User--><g id="elem_User"><rect codeLine="12" fill="#F1F1F1" height="48" id="User" rx="2.5" ry="2.5" style="stroke:#181818;stroke-width:0.5;" width="62" x="818" y="116"/><ellipse cx="833" cy="132" fill="#A9DCDF" rx="11" ry="11" style="stroke:#181818;stroke-width:1.0;"/><path d="M835.1875,133.7656 L831.0469,133.7656 L830.625,134.7969 L831.0469,134.7969 Q831.6563,134.7969 831.9219,135.0313 Q832.1875,135.2656 832.1875,135.6563 Q832.1875,136.0313 831.9219,136.2656 Q831.6563,136.5 831.0469,136.5 L828.75,136.5 Q828.1406,136.5 827.8906,136.2656 Q827.625,136.0313 827.625,135.6406 Q827.625,135.2656 827.9063,135.0313 Q828.1719,134.7813 828.7969,134.7969 L831.4688,128.1406 L830.3594,128.1406 Q829.75,128.1406 829.4844,127.9063 Q829.2188,127.6719 829.2188,127.2813 Q829.2188,126.9063 829.4844,126.6719 Q829.75,126.4375 830.3594,126.4375 L834.0313,126.4375 L837.4219,134.7969 Q838.0156,134.7969 838.2031,134.9375 Q838.5938,135.2031 838.5938,135.6563 Q838.5938,136.0313 838.3281,136.2656 Q838.0781,136.5 837.4688,136.5 L835.1719,136.5 Q834.5625,136.5 834.2969,136.2656 Q834.0313,136.0313 834.0313,135.6406 Q834.0313,135.2656 834.2969,135.0313 Q834.5625,134.7969 835.1719,134.7969 L835.5938,134.7969 L835.1875,133.7656 Z M834.4688,132.0625 L833.1094,128.6875 L831.7344,132.0625 L834.4688,132.0625 Z " fill="#000000"/><text fill="#000000" font-family="sans-serif" font-size="14" font-style="italic" lengthAdjust="spacing" textLength="30" x="847" y="137.7285">User</text><line style="stroke:#181818;stroke-width:0.5;" x1="819" x2="879" y1="148" y2="148"/><line style="stroke:#181818;stroke-width:0.5;" x1="819" x2="879" y1="156" y2="156"/></g><!--class Evaluator--><g id="elem_Evaluator"><rect codeLine="25" fill="#F1F1F1" height="48" id="Evaluator" rx="2.5" ry="2.5" style="stroke:#181818;stroke-width:0.5;" width="92" x="1077" y="116"/><ellipse cx="1092" cy="132" fill="#ADD1B2" rx="11" ry="11" style="stroke:#181818;stroke-width:1.0;"/><path d="M1094.7656,127.875 Q1094.9219,127.6563 1095.1094,127.5469 Q1095.2969,127.4375 1095.5156,127.4375 Q1095.8906,127.4375 1096.125,127.7031 Q1096.3594,127.9531 1096.3594,128.5625 L1096.3594,130.0156 Q1096.3594,130.625 1096.125,130.8906 Q1095.8906,131.1563 1095.5156,131.1563 Q1095.1719,131.1563 1094.9688,130.9531 Q1094.7656,130.7656 1094.6563,130.25 Q1094.6094,129.8906 1094.4219,129.7031 Q1094.0938,129.3281 1093.4844,129.1094 Q1092.875,128.8906 1092.25,128.8906 Q1091.4844,128.8906 1090.8438,129.2188 Q1090.2188,129.5469 1089.7188,130.2969 Q1089.2344,131.0469 1089.2344,132.0781 L1089.2344,133.1719 Q1089.2344,134.4063 1090.125,135.2344 Q1091.0156,136.0469 1092.6094,136.0469 Q1093.5469,136.0469 1094.2031,135.7969 Q1094.5938,135.6406 1095.0156,135.2031 Q1095.2813,134.9375 1095.4219,134.8594 Q1095.5781,134.7813 1095.7813,134.7813 Q1096.1094,134.7813 1096.3594,135.0469 Q1096.625,135.2969 1096.625,135.6406 Q1096.625,135.9844 1096.2813,136.3906 Q1095.7813,136.9688 1094.9844,137.2969 Q1093.9063,137.75 1092.6094,137.75 Q1091.0938,137.75 1089.8906,137.125 Q1088.9063,136.625 1088.2188,135.5625 Q1087.5313,134.4844 1087.5313,133.2031 L1087.5313,132.0469 Q1087.5313,130.7188 1088.1406,129.5781 Q1088.7656,128.4219 1089.8594,127.8125 Q1090.9531,127.1875 1092.1875,127.1875 Q1092.9219,127.1875 1093.5625,127.3594 Q1094.2188,127.5156 1094.7656,127.875 Z " fill="#000000"/><text fill="#000000" font-family="sans-serif" font-size="14" lengthAdjust="spacing" textLength="60" x="1106" y="137.7285">Evaluator</text><line style="stroke:#181818;stroke-width:0.5;" x1="1078" x2="1168" y1="148" y2="148"/><line style="stroke:#181818;stroke-width:0.5;" x1="1078" x2="1168" y1="156" y2="156"/></g><!--class Teacher--><g id="elem_Teacher"><rect codeLine="18" fill="#F1F1F1" height="48" id="Teacher" rx="2.5" ry="2.5" style="stroke:#181818;stroke-width:0.5;" width="85" x="747.5" y="247"/><ellipse cx="762.5" cy="263" fill="#ADD1B2" rx="11" ry="11" style="stroke:#181818;stroke-width:1.0;"/><path d="M765.2656,258.875 Q765.4219,258.6563 765.6094,258.5469 Q765.7969,258.4375 766.0156,258.4375 Q766.3906,258.4375 766.625,258.7031 Q766.8594,258.9531 766.8594,259.5625 L766.8594,261.0156 Q766.8594,261.625 766.625,261.8906 Q766.3906,262.1563 766.0156,262.1563 Q765.6719,262.1563 765.4688,261.9531 Q765.2656,261.7656 765.1563,261.25 Q765.1094,260.8906 764.9219,260.7031 Q764.5938,260.3281 763.9844,260.1094 Q763.375,259.8906 762.75,259.8906 Q761.9844,259.8906 761.3438,260.2188 Q760.7188,260.5469 760.2188,261.2969 Q759.7344,262.0469 759.7344,263.0781 L759.7344,264.1719 Q759.7344,265.4063 760.625,266.2344 Q761.5156,267.0469 763.1094,267.0469 Q764.0469,267.0469 764.7031,266.7969 Q765.0938,266.6406 765.5156,266.2031 Q765.7813,265.9375 765.9219,265.8594 Q766.0781,265.7813 766.2813,265.7813 Q766.6094,265.7813 766.8594,266.0469 Q767.125,266.2969 767.125,266.6406 Q767.125,266.9844 766.7813,267.3906 Q766.2813,267.9688 765.4844,268.2969 Q764.4063,268.75 763.1094,268.75 Q761.5938,268.75 760.3906,268.125 Q759.4063,267.625 758.7188,266.5625 Q758.0313,265.4844 758.0313,264.2031 L758.0313,263.0469 Q758.0313,261.7188 758.6406,260.5781 Q759.2656,259.4219 760.3594,258.8125 Q761.4531,258.1875 762.6875,258.1875 Q763.4219,258.1875 764.0625,258.3594 Q764.7188,258.5156 765.2656,258.875 Z " fill="#000000"/><text fill="#000000" font-family="sans-serif" font-size="14" lengthAdjust="spacing" textLength="53" x="776.5" y="268.7285">Teacher</text><line style="stroke:#181818;stroke-width:0.5;" x1="748.5" x2="831.5" y1="279" y2="279"/><line style="stroke:#181818;stroke-width:0.5;" x1="748.5" x2="831.5" y1="287" y2="287"/></g><!--class Student--><g id="elem_Student"><rect codeLine="21" fill="#F1F1F1" height="48" id="Student" rx="2.5" ry="2.5" style="stroke:#181818;stroke-width:0.5;" width="81" x="867.5" y="247"/><ellipse cx="882.5" cy="263" fill="#ADD1B2" rx="11" ry="11" style="stroke:#181818;stroke-width:1.0;"/><path d="M885.2656,258.875 Q885.4219,258.6563 885.6094,258.5469 Q885.7969,258.4375 886.0156,258.4375 Q886.3906,258.4375 886.625,258.7031 Q886.8594,258.9531 886.8594,259.5625 L886.8594,261.0156 Q886.8594,261.625 886.625,261.8906 Q886.3906,262.1563 886.0156,262.1563 Q885.6719,262.1563 885.4688,261.9531 Q885.2656,261.7656 885.1563,261.25 Q885.1094,260.8906 884.9219,260.7031 Q884.5938,260.3281 883.9844,260.1094 Q883.375,259.8906 882.75,259.8906 Q881.9844,259.8906 881.3438,260.2188 Q880.7188,260.5469 880.2188,261.2969 Q879.7344,262.0469 879.7344,263.0781 L879.7344,264.1719 Q879.7344,265.4063 880.625,266.2344 Q881.5156,267.0469 883.1094,267.0469 Q884.0469,267.0469 884.7031,266.7969 Q885.0938,266.6406 885.5156,266.2031 Q885.7813,265.9375 885.9219,265.8594 Q886.0781,265.7813 886.2813,265.7813 Q886.6094,265.7813 886.8594,266.0469 Q887.125,266.2969 887.125,266.6406 Q887.125,266.9844 886.7813,267.3906 Q886.2813,267.9688 885.4844,268.2969 Q884.4063,268.75 883.1094,268.75 Q881.5938,268.75 880.3906,268.125 Q879.4063,267.625 878.7188,266.5625 Q878.0313,265.4844 878.0313,264.2031 L878.0313,263.0469 Q878.0313,261.7188 878.6406,260.5781 Q879.2656,259.4219 880.3594,258.8125 Q881.4531,258.1875 882.6875,258.1875 Q883.4219,258.1875 884.0625,258.3594 Q884.7188,258.5156 885.2656,258.875 Z " fill="#000000"/><text fill="#000000" font-family="sans-serif" font-size="14" lengthAdjust="spacing" textLength="49" x="896.5" y="268.7285">Student</text><line style="stroke:#181818;stroke-width:0.5;" x1="868.5" x2="947.5" y1="279" y2="279"/><line style="stroke:#181818;stroke-width:0.5;" x1="868.5" x2="947.5" y1="287" y2="287"/></g><!--class Justification--><g id="elem_Justification"><rect codeLine="29" fill="#F1F1F1" height="48" id="Justification" rx="2.5" ry="2.5" style="stroke:#181818;stroke-width:0.5;" width="105" x="827.5" y="991"/><ellipse cx="842.5" cy="1007" fill="#ADD1B2" rx="11" ry="11" style="stroke:#181818;stroke-width:1.0;"/><path d="M845.2656,1002.875 Q845.4219,1002.6563 845.6094,1002.5469 Q845.7969,1002.4375 846.0156,1002.4375 Q846.3906,1002.4375 846.625,1002.7031 Q846.8594,1002.9531 846.8594,1003.5625 L846.8594,1005.0156 Q846.8594,1005.625 846.625,1005.8906 Q846.3906,1006.1563 846.0156,1006.1563 Q845.6719,1006.1563 845.4688,1005.9531 Q845.2656,1005.7656 845.1563,1005.25 Q845.1094,1004.8906 844.9219,1004.7031 Q844.5938,1004.3281 843.9844,1004.1094 Q843.375,1003.8906 842.75,1003.8906 Q841.9844,1003.8906 841.3438,1004.2188 Q840.7188,1004.5469 840.2188,1005.2969 Q839.7344,1006.0469 839.7344,1007.0781 L839.7344,1008.1719 Q839.7344,1009.4063 840.625,1010.2344 Q841.5156,1011.0469 843.1094,1011.0469 Q844.0469,1011.0469 844.7031,1010.7969 Q845.0938,1010.6406 845.5156,1010.2031 Q845.7813,1009.9375 845.9219,1009.8594 Q846.0781,1009.7813 846.2813,1009.7813 Q846.6094,1009.7813 846.8594,1010.0469 Q847.125,1010.2969 847.125,1010.6406 Q847.125,1010.9844 846.7813,1011.3906 Q846.2813,1011.9688 845.4844,1012.2969 Q844.4063,1012.75 843.1094,1012.75 Q841.5938,1012.75 840.3906,1012.125 Q839.4063,1011.625 838.7188,1010.5625 Q838.0313,1009.4844 838.0313,1008.2031 L838.0313,1007.0469 Q838.0313,1005.7188 838.6406,1004.5781 Q839.2656,1003.4219 840.3594,1002.8125 Q841.4531,1002.1875 842.6875,1002.1875 Q843.4219,1002.1875 844.0625,1002.3594 Q844.7188,1002.5156 845.2656,1002.875 Z " fill="#000000"/><text fill="#000000" font-family="sans-serif" font-size="14" lengthAdjust="spacing" textLength="73" x="856.5" y="1012.7285">Justification</text><line style="stroke:#181818;stroke-width:0.5;" x1="828.5" x2="931.5" y1="1023" y2="1023"/><line style="stroke:#181818;stroke-width:0.5;" x1="828.5" x2="931.5" y1="1031" y2="1031"/></g><!--link EducationPlatform to User--><g id="link_EducationPlatform_User"><path codeLine="2" d="M849,67.22 C849,85.16 849,91.89 849,109.83 " fill="none" id="EducationPlatform-User" style="stroke:#FF0000;stroke-width:1.0;"/><polygon fill="#FF0000" points="849,55.22,845,61.22,849,67.22,853,61.22,849,55.22" style="stroke:#FF0000;stroke-width:1.0;"/><polygon fill="#FF0000" points="849,115.83,853,106.83,849,110.83,845,106.83,849,115.83" style="stroke:#FF0000;stroke-width:1.0;"/><text fill="#000000" font-family="sans-serif" font-size="13" lengthAdjust="spacing" textLength="8" x="839.975" y="105.1266">+</text></g><!--link EducationPlatform to Topic--><g id="link_EducationPlatform_Topic"><path codeLine="3" d="M763.3007,40.5406 C655.3407,52.3106 472.78,76.95 415,116 C322.07,178.8 282.4311,311.9211 269.3411,367.2611 " fill="none" id="EducationPlatform-Topic" style="stroke:#FF0000;stroke-width:1.0;"/><polygon fill="#FF0000" points="775.23,39.24,768.8318,35.9138,763.3007,40.5406,769.6989,43.8667,775.23,39.24" style="stroke:#FF0000;stroke-width:1.0;"/><polygon fill="#FF0000" points="267.96,373.1,273.9243,365.2624,269.1109,368.2343,266.1391,363.4209,267.96,373.1" style="stroke:#FF0000;stroke-width:1.0;"/></g><!--link EducationPlatform to Itinerary--><g id="link_EducationPlatform_Itinerary"><path codeLine="4" d="M763.4675,39.2831 C662.0675,49.2431 498.86,71.34 455,116 C419.07,152.59 405.937,207.652 400.747,240.842 " fill="none" id="EducationPlatform-Itinerary" style="stroke:#FF0000;stroke-width:1.0;"/><polygon fill="#FF0000" points="775.41,38.11,769.0477,34.7157,763.4675,39.2831,769.8298,42.6774,775.41,38.11" style="stroke:#FF0000;stroke-width:1.0;"/><polygon fill="#FF0000" points="399.82,246.77,405.1624,238.496,400.5925,241.83,397.2585,237.2601,399.82,246.77" style="stroke:#FF0000;stroke-width:1.0;"/><text fill="#000000" font-family="sans-serif" font-size="13" lengthAdjust="spacing" textLength="59" x="456" y="145.4951">predefined</text></g><!--link EducationPlatform to Itinerary--><g id="link_EducationPlatform_Itinerary"><path codeLine="5" d="M763.3025,46.2007 C721.8025,54.4907 681.54,65.31 638,85 C591.26,106.13 480.9925,198.0434 428.5125,242.8634 " fill="none" id="EducationPlatform-Itinerary-1" style="stroke:#FF0000;stroke-width:1.0;"/><polygon fill="none" points="775.07,43.85,768.4027,41.1028,763.3025,46.2007,769.9698,48.9478,775.07,43.85" style="stroke:#FF0000;stroke-width:1.0;"/><polygon fill="#FF0000" points="423.95,246.76,433.3915,243.9568,427.7521,243.5129,428.1961,237.8734,423.95,246.76" style="stroke:#FF0000;stroke-width:1.0;"/><text fill="#000000" font-family="sans-serif" font-size="13" lengthAdjust="spacing" textLength="43" x="588" y="145.4951">custom</text><text fill="#000000" font-family="sans-serif" font-size="13" lengthAdjust="spacing" textLength="5" x="425.2153" y="236.0387">*</text></g><!--link EducationPlatform to Evaluator--><g id="link_EducationPlatform_Evaluator"><path codeLine="6" d="M934.2198,50.7182 C969.3598,59.5282 999.88,69.05 1036,85 C1055.03,93.4 1069.8319,102.0805 1085.7319,112.6405 " fill="none" id="EducationPlatform-Evaluator" style="stroke:#FF0000;stroke-width:1.0;"/><polygon fill="#FF0000" points="922.58,47.8,927.4271,53.139,934.2198,50.7182,929.3726,45.3792,922.58,47.8" style="stroke:#FF0000;stroke-width:1.0;"/><polygon fill="#FF0000" points="1090.73,115.96,1085.4458,107.6487,1086.5649,113.1938,1081.0199,114.3128,1090.73,115.96" style="stroke:#FF0000;stroke-width:1.0;"/></g><!--link EducationPlatform to Exercise--><g id="link_EducationPlatform_Exercise"><path codeLine="7" d="M934.7096,44.0702 C1021.9296,57.5302 1148.22,81.7 1187,116 C1225.81,150.34 1238.4437,207.1531 1242.9737,240.9831 " fill="none" id="EducationPlatform-Exercise" style="stroke:#FF0000;stroke-width:1.0;"/><polygon fill="#FF0000" points="922.85,42.24,928.1697,47.1083,934.7096,44.0702,929.3899,39.2019,922.85,42.24" style="stroke:#FF0000;stroke-width:1.0;"/><polygon fill="#FF0000" points="1243.77,246.93,1246.5401,237.4787,1243.1064,241.9742,1238.6109,238.5405,1243.77,246.93" style="stroke:#FF0000;stroke-width:1.0;"/><text fill="#000000" font-family="sans-serif" font-size="13" lengthAdjust="spacing" textLength="5" x="1237.5579" y="236.2522">*</text></g><!--link EducationPlatform to Domain--><g id="link_EducationPlatform_Domain"><path codeLine="8" d="M934.5912,36.3908 C1113.2012,46.3908 1543,76.75 1543,139 C1543,139 1543,139 1543,398.5 C1543,422.29 1528.98,427.79 1508,439 C1383.57,505.47 1326.92,433.65 1193,478 C1168.06,486.26 1147.5776,496.8816 1126.6176,509.8016 " fill="none" id="EducationPlatform-Domain" style="stroke:#FF0000;stroke-width:1.0;"/><polygon fill="#FF0000" points="922.61,35.72,928.377,40.0491,934.5912,36.3908,928.8242,32.0617,922.61,35.72" style="stroke:#FF0000;stroke-width:1.0;"/><polygon fill="#FF0000" points="1121.51,512.95,1131.2703,511.6325,1125.7663,510.3263,1127.0725,504.8223,1121.51,512.95" style="stroke:#FF0000;stroke-width:1.0;"/><text fill="#000000" font-family="sans-serif" font-size="13" lengthAdjust="spacing" textLength="5" x="1125.5871" y="502.0551">*</text></g><!--link EducationPlatform to Application--><g id="link_EducationPlatform_Application"><path codeLine="9" d="M873.1913,64.9425 C896.7713,97.3425 933.01,148.54 966,203 C997.15,254.43 1026.4019,310.7159 1046.2819,350.3859 " fill="none" id="EducationPlatform-Application" style="stroke:#FF0000;stroke-width:1.0;"/><polygon fill="#FF0000" points="866.13,55.24,866.4265,62.445,873.1913,64.9425,872.8948,57.7375,866.13,55.24" style="stroke:#FF0000;stroke-width:1.0;"/><polygon fill="#FF0000" points="1048.97,355.75,1048.5139,345.9117,1046.7299,351.2799,1041.3617,349.4959,1048.97,355.75" style="stroke:#FF0000;stroke-width:1.0;"/><text fill="#000000" font-family="sans-serif" font-size="13" lengthAdjust="spacing" textLength="5" x="1040.2385" y="345.0163">*</text></g><!--link EducationPlatform to ConceptGraph--><g id="link_EducationPlatform_ConceptGraph"><path codeLine="10" d="M763.7359,47.4389 C712.1459,60.8489 664,85.01 664,139 C664,139 664,139 664,398.5 C664,442.32 657.0615,487.0601 651.7315,515.8701 " fill="none" id="EducationPlatform-ConceptGraph" style="stroke:#FF0000;stroke-width:1.0;"/><polygon fill="#FF0000" points="775.35,44.42,768.5367,42.0581,763.7359,47.4389,770.5493,49.8008,775.35,44.42" style="stroke:#FF0000;stroke-width:1.0;"/><polygon fill="#FF0000" points="650.64,521.77,656.2105,513.6478,651.5496,516.8534,648.344,512.1925,650.64,521.77" style="stroke:#FF0000;stroke-width:1.0;"/></g><!--reverse link User to Teacher--><g id="link_User_Teacher"><path codeLine="15" d="M830.9662,180.4305 C820.2962,203.7705 811.37,223.28 800.66,246.7 " fill="none" id="User-backto-Teacher" style="stroke:#181818;stroke-width:1.0;"/><polygon fill="none" points="838.45,164.06,825.5093,177.9359,836.423,182.9251,838.45,164.06" style="stroke:#181818;stroke-width:1.0;"/></g><!--reverse link User to Student--><g id="link_User_Student"><path codeLine="16" d="M867.0338,180.4305 C877.7038,203.7705 886.63,223.28 897.34,246.7 " fill="none" id="User-backto-Student" style="stroke:#181818;stroke-width:1.0;"/><polygon fill="none" points="859.55,164.06,861.577,182.9251,872.4907,177.9359,859.55,164.06" style="stroke:#181818;stroke-width:1.0;"/></g><!--link Student to Application--><g id="link_Student_Application"><path codeLine="23" d="M947.4033,302.4701 C969.4033,319.4801 985.6539,332.0492 1011.6939,352.1892 " fill="none" id="Student-Application" style="stroke:#181818;stroke-width:1.0;"/><polygon fill="none" points="937.91,295.13,940.21,301.9645,947.4033,302.4701,945.1034,295.6356,937.91,295.13" style="stroke:#181818;stroke-width:1.0;"/><polygon fill="#181818" points="1016.44,355.86,1011.768,347.1898,1012.4849,352.801,1006.8737,353.5179,1016.44,355.86" style="stroke:#181818;stroke-width:1.0;"/><text fill="#000000" font-family="sans-serif" font-size="13" lengthAdjust="spacing" textLength="5" x="1002.3207" y="345.1445">*</text></g><!--link Evaluator to QuestionExercise--><g id="link_Evaluator_QuestionExercise"><path codeLine="27" d="M1126.75,164.15 C1133.25,197.24 1149.56,258.11 1186,295 C1234.84,344.45 1266.36,328.05 1330,356 C1336.22,358.73 1337.1831,359.1498 1343.6431,362.0398 " fill="none" id="Evaluator-to-QuestionExercise" style="stroke:#181818;stroke-width:1.0;"/><polygon fill="#181818" points="1349.12,364.49,1342.5381,357.1634,1344.5559,362.4482,1339.2712,364.466,1349.12,364.49" style="stroke:#181818;stroke-width:1.0;"/></g><!--link Itinerary to Topic--><g id="link_Itinerary_Topic"><path codeLine="36" d="M363.3182,303.2972 C339.2482,325.6572 316.1753,347.0957 292.1553,369.4157 " fill="none" id="Itinerary-Topic" style="stroke:#181818;stroke-width:1.0;"/><polygon fill="none" points="372.11,295.13,364.9917,296.283,363.3182,303.2972,370.4365,302.1442,372.11,295.13" style="stroke:#181818;stroke-width:1.0;"/><polygon fill="#181818" points="287.76,373.5,297.0758,370.3038,291.4228,370.0965,291.6302,364.4434,287.76,373.5" style="stroke:#181818;stroke-width:1.0;"/><text fill="#000000" font-family="sans-serif" font-size="13" lengthAdjust="spacing" textLength="8" x="285.0798" y="362.8402">+</text></g><!--reverse link Topic to CompositeTopic--><g id="link_Topic_CompositeTopic"><path codeLine="40" d="M214.7391,429.8577 C178.0291,456.9077 136.23,493.51 106.98,521.77 " fill="none" id="Topic-backto-CompositeTopic" style="stroke:#181818;stroke-width:1.0;"/><polygon fill="none" points="229.23,419.18,211.1799,425.0274,218.2983,434.688,229.23,419.18" style="stroke:#181818;stroke-width:1.0;"/></g><!--link CompositeTopic to Topic--><g id="link_CompositeTopic_Topic"><path codeLine="57" d="M136.2421,514.7565 C173.2121,487.3665 213.1635,453.3381 241.3135,425.8981 " fill="none" id="CompositeTopic-Topic" style="stroke:#181818;stroke-width:1.0;"/><polygon fill="none" points="126.6,521.9,133.8022,521.5423,136.2421,514.7565,129.0399,515.1142,126.6,521.9" style="stroke:#181818;stroke-width:1.0;"/><polygon fill="#181818" points="245.61,421.71,236.3732,425.1278,242.0296,425.2001,241.9574,430.8565,245.61,421.71" style="stroke:#181818;stroke-width:1.0;"/><text fill="#000000" font-family="sans-serif" font-size="13" lengthAdjust="spacing" textLength="8" x="232.3962" y="443.0992">+</text></g><!--reverse link Topic to SimpleTopic--><g id="link_Topic_SimpleTopic"><path codeLine="41" d="M293.6315,435.5893 C316.2915,463.0293 342.3,494.51 364.92,521.9 " fill="none" id="Topic-backto-SimpleTopic" style="stroke:#181818;stroke-width:1.0;"/><polygon fill="none" points="282.17,421.71,289.0051,439.4098,298.2579,431.7688,282.17,421.71" style="stroke:#181818;stroke-width:1.0;"/></g><!--link Topic to Attachment--><g id="link_Topic_Attachment"><path codeLine="42" d="M258.2094,433.6001 C254.4694,461.0401 250.7017,488.5652 246.9617,515.9552 " fill="none" id="Topic-Attachment" style="stroke:#181818;stroke-width:1.0;"/><polygon fill="#181818" points="259.83,421.71,255.0564,427.1148,258.2094,433.6001,262.9831,428.1952,259.83,421.71" style="stroke:#181818;stroke-width:1.0;"/><polygon fill="#181818" points="246.15,521.9,251.3308,513.5239,246.8265,516.946,243.4044,512.4416,246.15,521.9" style="stroke:#181818;stroke-width:1.0;"/><text fill="#000000" font-family="sans-serif" font-size="13" lengthAdjust="spacing" textLength="5" x="241.3166" y="511.2145">*</text></g><!--link Attachment to Document--><g id="link_Attachment_Document"><path codeLine="48" d="M243,582.25 C243,606.61 243,626.64 243,651.06 " fill="none" id="Attachment-Document" style="stroke:#181818;stroke-width:1.0;"/><polygon fill="#181818" points="243,570.25,239,576.25,243,582.25,247,576.25,243,570.25" style="stroke:#181818;stroke-width:1.0;"/><polygon fill="#181818" points="243,657.06,247,648.06,243,652.06,239,648.06,243,657.06" style="stroke:#181818;stroke-width:1.0;"/><text fill="#000000" font-family="sans-serif" font-size="13" lengthAdjust="spacing" textLength="8" x="234.025" y="646.6907">+</text></g><!--link SimpleTopic to Concept--><g id="link_SimpleTopic_Concept"><path codeLine="53" d="M438.3927,575.7009 C485.0627,600.3309 542.5734,630.67 588.8734,655.1 " fill="none" id="SimpleTopic-Concept" style="stroke:#181818;stroke-width:1.0;"/><polygon fill="none" points="427.78,570.1,431.2194,576.438,438.3927,575.7009,434.9533,569.3628,427.78,570.1" style="stroke:#181818;stroke-width:1.0;"/><polygon fill="#181818" points="594.18,657.9,588.0868,650.1623,589.7578,655.5667,584.3534,657.2377,594.18,657.9" style="stroke:#181818;stroke-width:1.0;"/><text fill="#000000" font-family="sans-serif" font-size="13" lengthAdjust="spacing" textLength="8" x="578.4254" y="650.1905">+</text></g><!--reverse link ConceptGraph to Concept--><g id="link_ConceptGraph_Concept"><path codeLine="64" d="M643.6239,582.2229 C641.9839,606.5829 640.23,632.64 638.58,657.06 " fill="none" id="ConceptGraph-backto-Concept" style="stroke:#181818;stroke-width:1.0;"/><polygon fill="#181818" points="644.43,570.25,640.036,575.9678,643.6239,582.2229,648.0179,576.5051,644.43,570.25" style="stroke:#181818;stroke-width:1.0;"/><text fill="#000000" font-family="sans-serif" font-size="13" lengthAdjust="spacing" textLength="8" x="629.9901" y="646.6907">+</text></g><!--link Concept to Definition--><g id="link_Concept_Definition"><path codeLine="68" d="M656.3372,716.0697 C663.8872,729.9397 667,737.68 672,755 C676.46,770.44 678.2558,782.178 679.4058,796.998 " fill="none" id="Concept-Definition" style="stroke:#181818;stroke-width:1.0;"/><polygon fill="#181818" points="650.6,705.53,649.9554,712.7122,656.3372,716.0697,656.9818,708.8874,650.6,705.53" style="stroke:#181818;stroke-width:1.0;"/><polygon fill="#181818" points="679.87,802.98,683.1617,793.6975,679.4832,797.995,675.1857,794.3164,679.87,802.98" style="stroke:#181818;stroke-width:1.0;"/><text fill="#000000" font-family="sans-serif" font-size="13" lengthAdjust="spacing" textLength="8" x="670.8119" y="792.0913">+</text></g><!--link Concept to Relation--><g id="link_Concept_Relation"><path codeLine="69" d="M590.8586,712.6945 C573.8686,725.2845 564.55,735.2 553,755 C542.87,772.37 539.5453,789.1105 538.1553,805.8905 " fill="none" id="Concept-Relation" style="stroke:#181818;stroke-width:1.0;"/><polygon fill="#181818" points="600.5,705.55,593.2978,705.9085,590.8586,712.6945,598.0608,712.336,600.5,705.55" style="stroke:#181818;stroke-width:1.0;"/><polygon fill="#181818" points="537.66,811.87,542.3893,803.2309,538.0728,806.8871,534.4166,802.5705,537.66,811.87" style="stroke:#181818;stroke-width:1.0;"/><text fill="#000000" font-family="sans-serif" font-size="13" lengthAdjust="spacing" textLength="31" x="554" y="769.4951">origin</text><text fill="#000000" font-family="sans-serif" font-size="13" lengthAdjust="spacing" textLength="5" x="532.1885" y="801.1768">*</text></g><!--link Relation to Concept--><g id="link_Relation_Concept"><path codeLine="79" d="M558.98,811.87 C569.08,800.63 580.82,786.62 590,773 C604.65,751.27 615.5467,729.8636 624.2567,711.0736 " fill="none" id="Relation-to-Concept" style="stroke:#181818;stroke-width:1.0;"/><polygon fill="#181818" points="626.78,705.63,619.3659,712.1132,624.6772,710.1663,626.624,715.4776,626.78,705.63" style="stroke:#181818;stroke-width:1.0;"/><text fill="#000000" font-family="sans-serif" font-size="13" lengthAdjust="spacing" textLength="33" x="601" y="769.4951">target</text></g><!--link Definition to Justification--><g id="link_Definition_Justification"><path codeLine="75" d="M711.2182,878.5632 C722.9382,893.8932 730.66,902.49 746,917 C776.05,945.42 809.6643,969.2824 837.7243,987.5824 " fill="none" id="Definition-Justification" style="stroke:#181818;stroke-width:1.0;"/><polygon fill="#181818" points="703.93,869.03,704.3964,876.226,711.2182,878.5632,710.7518,871.3672,703.93,869.03" style="stroke:#181818;stroke-width:1.0;"/><polygon fill="#181818" points="842.75,990.86,837.3966,982.5931,838.5619,988.1287,833.0264,989.294,842.75,990.86" style="stroke:#181818;stroke-width:1.0;"/><text fill="#000000" font-family="sans-serif" font-size="13" lengthAdjust="spacing" textLength="106" x="747" y="913.4951">[!definition.correct]</text><text fill="#000000" font-family="sans-serif" font-size="13" lengthAdjust="spacing" textLength="5" x="827.5641" y="980.1643">*</text></g><!--link Relation to RelationType--><g id="link_Relation_RelationType"><path codeLine="80" d="M540.1701,872.0913 C542.1601,894.1113 543.6407,910.4043 546.4007,940.9843 " fill="none" id="Relation-RelationType" style="stroke:#181818;stroke-width:1.0;"/><polygon fill="#181818" points="539.09,860.14,535.6463,866.4757,540.1701,872.0913,543.6138,865.7556,539.09,860.14" style="stroke:#181818;stroke-width:1.0;"/><polygon fill="#181818" points="546.94,946.96,550.1148,937.6369,546.4906,941.9802,542.1472,938.356,546.94,946.96" style="stroke:#181818;stroke-width:1.0;"/></g><!--reverse link Exercise to QuestionExercise--><g id="link_Exercise_QuestionExercise"><path codeLine="98" d="M1292.7428,305.6402 C1319.8128,325.1102 1344.21,342.68 1374.32,364.35 " fill="none" id="Exercise-backto-QuestionExercise" style="stroke:#181818;stroke-width:1.0;"/><polygon fill="none" points="1278.13,295.13,1289.2394,310.5112,1296.2462,300.7693,1278.13,295.13" style="stroke:#181818;stroke-width:1.0;"/></g><!--reverse link Exercise to DomainExercise--><g id="link_Exercise_DomainExercise"><path codeLine="99" d="M1246,313.13 C1246,335.49 1246,351.18 1246,373.5 " fill="none" id="Exercise-backto-DomainExercise" style="stroke:#181818;stroke-width:1.0;"/><polygon fill="none" points="1246,295.13,1240,313.13,1252,313.13,1246,295.13" style="stroke:#181818;stroke-width:1.0;"/></g><!--link DomainExercise to Domain--><g id="link_DomainExercise_Domain"><path codeLine="104" d="M1218.9,421.71 C1190.18,446.32 1149.166,481.4558 1117.016,509.0058 " fill="none" id="DomainExercise-to-Domain" style="stroke:#181818;stroke-width:1.0;"/><polygon fill="#181818" points="1112.46,512.91,1121.8968,510.0911,1116.2567,509.6565,1116.6913,504.0164,1112.46,512.91" style="stroke:#181818;stroke-width:1.0;"/><text fill="#000000" font-family="sans-serif" font-size="13" lengthAdjust="spacing" textLength="8" x="1111.3611" y="502.0068">+</text></g><!--link DomainExercise to SimpleTopic--><g id="link_DomainExercise_SimpleTopic"><path codeLine="105" d="M1206.21,421.62 C1192.62,428.44 1177.05,435.11 1162,439 C867.64,515.15 766.08,377.85 479,478 C452.32,487.31 430.9616,502.5607 412.9616,518.0207 " fill="none" id="DomainExercise-to-SimpleTopic" style="stroke:#181818;stroke-width:1.0;"/><polygon fill="#181818" points="408.41,521.93,417.8436,519.1004,412.203,518.6722,412.6312,513.0316,408.41,521.93" style="stroke:#181818;stroke-width:1.0;"/><text fill="#000000" font-family="sans-serif" font-size="13" lengthAdjust="spacing" textLength="8" x="405.6401" y="511.2522">+</text></g><!--reverse link Domain to Domain--><g id="link_Domain_Domain"><path codeLine="110" d="M1168.6494,535.0643 C1188.6194,535.9043 1191.5,539.22 1191.5,546 C1191.5,552.78 1176.63,556.6 1156.66,557.44 " fill="none" id="Domain-backto-Domain" style="stroke:#181818;stroke-width:1.0;"/><polygon fill="#181818" points="1156.66,534.56,1162.4866,538.8086,1168.6494,535.0643,1162.8228,530.8157,1156.66,534.56" style="stroke:#181818;stroke-width:1.0;"/><text fill="#000000" font-family="sans-serif" font-size="13" lengthAdjust="spacing" textLength="5" x="1164.4185" y="555.2865">*</text></g><!--link Application to Domain--><g id="link_Application_Domain"><path codeLine="111" d="M1070.67,439.31 C1071.62,462.51 1072.5432,485.1451 1073.4332,506.7651 " fill="none" id="Application-to-Domain" style="stroke:#181818;stroke-width:1.0;"/><polygon fill="#181818" points="1073.68,512.76,1077.3064,503.6031,1073.4743,507.7642,1069.3132,503.9321,1073.68,512.76" style="stroke:#181818;stroke-width:1.0;"/><text fill="#000000" font-family="sans-serif" font-size="13" lengthAdjust="spacing" textLength="5" x="1067.9279" y="502.2091">*</text></g><!--reverse link QuestionExercise to MultipleChoice--><g id="link_QuestionExercise_MultipleChoice"><path codeLine="115" d="M1373.9913,443.3571 C1346.4413,470.8171 1320.21,496.96 1295.52,521.56 " fill="none" id="QuestionExercise-backto-MultipleChoice" style="stroke:#181818;stroke-width:1.0;"/><polygon fill="none" points="1386.74,430.65,1369.7556,439.1075,1378.227,447.6067,1386.74,430.65" style="stroke:#181818;stroke-width:1.0;"/></g><!--reverse link QuestionExercise to Cloze--><g id="link_QuestionExercise_Cloze"><path codeLine="116" d="M1420.3661,448.6434 C1421.0261,473.0734 1421.46,488.52 1422.12,512.92 " fill="none" id="QuestionExercise-backto-Cloze" style="stroke:#181818;stroke-width:1.0;"/><polygon fill="none" points="1419.88,430.65,1414.3683,448.8055,1426.3639,448.4814,1419.88,430.65" style="stroke:#181818;stroke-width:1.0;"/></g><!--reverse link QuestionExercise to Open--><g id="link_QuestionExercise_Open"><path codeLine="117" d="M1463.2889,443.6322 C1476.9489,457.8322 1480.38,461.94 1494,478 C1506.01,492.16 1518.65,508.76 1528.35,521.89 " fill="none" id="QuestionExercise-backto-Open" style="stroke:#181818;stroke-width:1.0;"/><polygon fill="none" points="1450.81,430.66,1458.9648,447.7918,1467.6129,439.4726,1450.81,430.66" style="stroke:#181818;stroke-width:1.0;"/></g><!--link QuestionExercise to Concept--><g id="link_QuestionExercise_Concept"><path codeLine="118" d="M1354.76,430.6 C1346.57,433.83 1338.18,436.75 1330,439 C1177.38,480.97 1126.04,427.59 976,478 C850.58,520.13 726.322,610.1411 670.432,653.7111 " fill="none" id="QuestionExercise-to-Concept" style="stroke:#181818;stroke-width:1.0;"/><polygon fill="#181818" points="665.7,657.4,675.2573,655.0213,669.6433,654.3259,670.3387,648.712,665.7,657.4" style="stroke:#181818;stroke-width:1.0;"/><text fill="#000000" font-family="sans-serif" font-size="13" lengthAdjust="spacing" textLength="8" x="664.0294" y="646.7145">+</text></g><!--reverse link Open to Answer--><g id="link_Open_Answer"><path codeLine="119" d="M1501.1299,576.0555 C1495.4499,579.3755 1499.85,576.46 1494,579 C1391.52,623.47 1264.97,652.3 1185.85,667.48 " fill="none" id="Open-backto-Answer" style="stroke:#181818;stroke-width:1.0;"/><polygon fill="#181818" points="1511.49,570,1504.2915,569.5744,1501.1299,576.0555,1508.3285,576.4811,1511.49,570" style="stroke:#181818;stroke-width:1.0;"/><text fill="#000000" font-family="sans-serif" font-size="13" lengthAdjust="spacing" textLength="8" x="1193.4607" y="662.8827">+</text></g><!--reverse link Student to Answer--><g id="link_Student_Answer"><path codeLine="120" d="M882.0043,304.9056 C853.8943,342.6656 814.36,409.5 843,470 C881.7,551.76 969.75,611.07 1034.2,645.5 " fill="none" id="Student-backto-Answer" style="stroke:#181818;stroke-width:1.0;"/><polygon fill="none" points="889.17,295.28,882.3786,297.7043,882.0043,304.9056,888.7957,302.4814,889.17,295.28" style="stroke:#181818;stroke-width:1.0;"/><text fill="#000000" font-family="sans-serif" font-size="13" lengthAdjust="spacing" textLength="5" x="1021.4923" y="638.6704">*</text></g><!--reverse link Answer to Justification--><g id="link_Answer_Justification"><path codeLine="126" d="M1074.9593,733.0093 C1026.2593,803.1993 934.74,935.1 896.1,990.79 " fill="none" id="Answer-backto-Justification" style="stroke:#181818;stroke-width:1.0;"/><polygon fill="#181818" points="1081.8,723.15,1075.0932,725.7994,1074.9593,733.0093,1081.6661,730.3599,1081.8,723.15" style="stroke:#181818;stroke-width:1.0;"/><text fill="#000000" font-family="sans-serif" font-size="13" lengthAdjust="spacing" textLength="96" x="1026" y="841.4951">[!answer.correct]</text><text fill="#000000" font-family="sans-serif" font-size="13" lengthAdjust="spacing" textLength="5" x="894.585" y="980.0763">*</text></g><!--link Application to Justification--><g id="link_Application_Justification"><path codeLine="139" d="M1004.6276,447.0413 C991.2176,458.5913 986.76,464.03 976,478 C927.25,541.32 917.65,562.54 898,640 C865.24,769.17 872.9413,925.3076 877.5013,984.7776 " fill="none" id="Application-Justification" style="stroke:#181818;stroke-width:1.0;"/><polygon fill="#181818" points="1013.72,439.21,1006.5634,440.0948,1004.6276,447.0413,1011.7842,446.1564,1013.72,439.21" style="stroke:#181818;stroke-width:1.0;"/><polygon fill="#181818" points="877.96,990.76,881.2602,981.4805,877.5777,985.7746,873.2836,982.0922,877.96,990.76" style="stroke:#181818;stroke-width:1.0;"/><text fill="#000000" font-family="sans-serif" font-size="13" lengthAdjust="spacing" textLength="117" x="899" y="686.9951">[!application.correct]</text><text fill="#000000" font-family="sans-serif" font-size="13" lengthAdjust="spacing" textLength="5" x="871.7966" y="980.0387">*</text></g><!--SRC=[hLNRJkCm47tFLvZoi59H-O088NLBXTYBzWBxX7Xmao6rSEt8TkXsi_ttTUp4dgIXWBHHLIKpvupdxcLUPTGmARvpQXwbsf3fxFvKGVumkoIJimdvfK4bosEeXHG6XFb8ZG6rEx-J9SlUnRWnJ82YQaTIKbe8FDhlVCI4HAvD9yVCP9KsSdFSY-KpvHKryfNmcfEMlq5bJ4DtLFVzVkQLt50cti-RboLdddAS_5d8BOSY46sICYZDjQBbEadeIXj5C-FAMYVx96bUoCNVsOpS0StMjjXHSckgt2OuIJ9EjUu0ZkObBQ2HjA-sHc-8eAM72ZG6mWTfB0pPFohG3JLalZNnoHQQFRPsYNEjfDaJBM3G7kIKis9j2WKWwYGXzl4MOjlKJhft_r7g0pgRZFUv0uUiEXasumG-cGkvAQLc1ZnneBrbcv8VgAPTCkV6sDnlN36YwrSognfPlSVIYCMUH6bhrKRKyHDCHvvWFXB7bBpGRDXSFsniiQ-9HdqIK247fxILNF4Awlv9iTFxvqHv4_lRFNUY4LFMIYwteijYiw-Ow-jnZAtVJ-2-GrCY5IkOXtuOnRvGwt1AswVDCoEPL0fivwLa9IK7Af2tY18QgJSlwVr97Z3dhQa7V6hm6sSX26T-bxiGKcAeAi3q4I6mJdAtAy4V0ABQzCGeBhk2mljSQvan6lABMmVBReJTJSnGwqxa5dRUYyYrJML_iRC6MuQSxe1pkQq7Ozt1Uba8GZU_h-whGug_2k92mtEDDQqtRKrxAX8dsLqhHn1umHmS5JF_34fRjxMjvnUcpONNNnvuu0TfsZlvoCOdNVyXk7TWcAZeYZRKW5jOgRre51C5yc98yodzMd73R9YBjMHj6um35rp-EQR_Le8OLwFRm2sC1jIWkrPtohdGMtkJkhqPxqK_tLw5zxMJl3xKNWV-ceHyTEIzhL2S_ksOaliJwW2Zi-vo4jrOSIgU5h8I9YLCc6v-8hwVxFeGWEh_dw933VNYHgCH5CFS_mC0]--></g></svg>