<?xml version="1.0" encoding="us-ascii" standalone="no"?><svg xmlns="http://www.w3.org/2000/svg" xmlns:xlink="http://www.w3.org/1999/xlink" contentStyleType="text/css" height="1111px" preserveAspectRatio="none" style="width:1820px;height:1111px;background:#FFFFFF;" version="1.1" viewBox="0 0 1820 1111" width="1820px" zoomAndPan="magnify"><defs/><g><!--cluster content--><g id="cluster_content"><path d="M8.5,246 L63.5,246 A3.75,3.75 0 0 1 66,248.5 L73,269.6094 L445.5,269.6094 A2.5,2.5 0 0 1 448,272.1094 L448,623.5 A2.5,2.5 0 0 1 445.5,626 L8.5,626 A2.5,2.5 0 0 1 6,623.5 L6,248.5 A2.5,2.5 0 0 1 8.5,246 " fill="#90EE90" style="stroke:#000000;stroke-width:1.5;"/><line style="stroke:#000000;stroke-width:1.5;" x1="6" x2="73" y1="269.6094" y2="269.6094"/><text fill="#000000" font-family="sans-serif" font-size="14" font-weight="bold" lengthAdjust="spacing" textLength="54" x="10" y="262.5332">content</text></g><!--cluster question_battery--><g id="cluster_question_battery"><path d="M1105.5,377 L1225.5,377 A3.75,3.75 0 0 1 1228,379.5 L1235,400.6094 L1501.5,400.6094 A2.5,2.5 0 0 1 1504,403.1094 L1504,632.5 A2.5,2.5 0 0 1 1501.5,635 L1105.5,635 A2.5,2.5 0 0 1 1103,632.5 L1103,379.5 A2.5,2.5 0 0 1 1105.5,377 " fill="#FFFF00" style="stroke:#000000;stroke-width:1.5;"/><line style="stroke:#000000;stroke-width:1.5;" x1="1103" x2="1235" y1="400.6094" y2="400.6094"/><text fill="#000000" font-family="sans-serif" font-size="14" font-weight="bold" lengthAdjust="spacing" textLength="119" x="1107" y="393.5332">question_battery</text></g><!--cluster knowledge_base--><g id="cluster_knowledge_base"><path d="M1530.5,526 L1650.5,526 A3.75,3.75 0 0 1 1653,528.5 L1660,549.6094 L1810.5,549.6094 A2.5,2.5 0 0 1 1813,552.1094 L1813,1101.5 A2.5,2.5 0 0 1 1810.5,1104 L1530.5,1104 A2.5,2.5 0 0 1 1528,1101.5 L1528,528.5 A2.5,2.5 0 0 1 1530.5,526 " fill="#ADD8E6" style="stroke:#000000;stroke-width:1.5;"/><line style="stroke:#000000;stroke-width:1.5;" x1="1528" x2="1660" y1="549.6094" y2="549.6094"/><text fill="#000000" font-family="sans-serif" font-size="14" font-weight="bold" lengthAdjust="spacing" textLength="119" x="1532" y="542.5332">knowledge_base</text></g><!--class Topic--><g id="elem_Topic"><rect codeLine="41" fill="#F1F1F1" height="48" id="Topic" rx="2.5" ry="2.5" style="stroke:#181818;stroke-width:0.5;" width="67" x="186.5" y="422"/><ellipse cx="201.5" cy="438" fill="#A9DCDF" rx="11" ry="11" style="stroke:#181818;stroke-width:1.0;"/><path d="M203.6875,439.7656 L199.5469,439.7656 L199.125,440.7969 L199.5469,440.7969 Q200.1563,440.7969 200.4219,441.0313 Q200.6875,441.2656 200.6875,441.6563 Q200.6875,442.0313 200.4219,442.2656 Q200.1563,442.5 199.5469,442.5 L197.25,442.5 Q196.6406,442.5 196.3906,442.2656 Q196.125,442.0313 196.125,441.6406 Q196.125,441.2656 196.4063,441.0313 Q196.6719,440.7813 197.2969,440.7969 L199.9688,434.1406 L198.8594,434.1406 Q198.25,434.1406 197.9844,433.9063 Q197.7188,433.6719 197.7188,433.2813 Q197.7188,432.9063 197.9844,432.6719 Q198.25,432.4375 198.8594,432.4375 L202.5313,432.4375 L205.9219,440.7969 Q206.5156,440.7969 206.7031,440.9375 Q207.0938,441.2031 207.0938,441.6563 Q207.0938,442.0313 206.8281,442.2656 Q206.5781,442.5 205.9688,442.5 L203.6719,442.5 Q203.0625,442.5 202.7969,442.2656 Q202.5313,442.0313 202.5313,441.6406 Q202.5313,441.2656 202.7969,441.0313 Q203.0625,440.7969 203.6719,440.7969 L204.0938,440.7969 L203.6875,439.7656 Z M202.9688,438.0625 L201.6094,434.6875 L200.2344,438.0625 L202.9688,438.0625 Z " fill="#000000"/><text fill="#000000" font-family="sans-serif" font-size="14" font-style="italic" lengthAdjust="spacing" textLength="35" x="215.5" y="443.7285">Topic</text><line style="stroke:#181818;stroke-width:0.5;" x1="187.5" x2="252.5" y1="454" y2="454"/><line style="stroke:#181818;stroke-width:0.5;" x1="187.5" x2="252.5" y1="462" y2="462"/></g><!--class Itinerary--><g id="elem_Itinerary"><rect codeLine="37" fill="#F1F1F1" height="48" id="Itinerary" rx="2.5" ry="2.5" style="stroke:#181818;stroke-width:0.5;" width="83" x="260.5" y="282"/><ellipse cx="275.5" cy="298" fill="#ADD1B2" rx="11" ry="11" style="stroke:#181818;stroke-width:1.0;"/><path d="M278.2656,293.875 Q278.4219,293.6563 278.6094,293.5469 Q278.7969,293.4375 279.0156,293.4375 Q279.3906,293.4375 279.625,293.7031 Q279.8594,293.9531 279.8594,294.5625 L279.8594,296.0156 Q279.8594,296.625 279.625,296.8906 Q279.3906,297.1563 279.0156,297.1563 Q278.6719,297.1563 278.4688,296.9531 Q278.2656,296.7656 278.1563,296.25 Q278.1094,295.8906 277.9219,295.7031 Q277.5938,295.3281 276.9844,295.1094 Q276.375,294.8906 275.75,294.8906 Q274.9844,294.8906 274.3438,295.2188 Q273.7188,295.5469 273.2188,296.2969 Q272.7344,297.0469 272.7344,298.0781 L272.7344,299.1719 Q272.7344,300.4063 273.625,301.2344 Q274.5156,302.0469 276.1094,302.0469 Q277.0469,302.0469 277.7031,301.7969 Q278.0938,301.6406 278.5156,301.2031 Q278.7813,300.9375 278.9219,300.8594 Q279.0781,300.7813 279.2813,300.7813 Q279.6094,300.7813 279.8594,301.0469 Q280.125,301.2969 280.125,301.6406 Q280.125,301.9844 279.7813,302.3906 Q279.2813,302.9688 278.4844,303.2969 Q277.4063,303.75 276.1094,303.75 Q274.5938,303.75 273.3906,303.125 Q272.4063,302.625 271.7188,301.5625 Q271.0313,300.4844 271.0313,299.2031 L271.0313,298.0469 Q271.0313,296.7188 271.6406,295.5781 Q272.2656,294.4219 273.3594,293.8125 Q274.4531,293.1875 275.6875,293.1875 Q276.4219,293.1875 277.0625,293.3594 Q277.7188,293.5156 278.2656,293.875 Z " fill="#000000"/><text fill="#000000" font-family="sans-serif" font-size="14" lengthAdjust="spacing" textLength="51" x="289.5" y="303.7285">Itinerary</text><line style="stroke:#181818;stroke-width:0.5;" x1="261.5" x2="342.5" y1="314" y2="314"/><line style="stroke:#181818;stroke-width:0.5;" x1="261.5" x2="342.5" y1="322" y2="322"/></g><!--class CompositeTopic--><g id="elem_CompositeTopic"><rect codeLine="53" fill="#F1F1F1" height="48" id="CompositeTopic" rx="2.5" ry="2.5" style="stroke:#181818;stroke-width:0.5;" width="134" x="153" y="562"/><ellipse cx="168" cy="578" fill="#ADD1B2" rx="11" ry="11" style="stroke:#181818;stroke-width:1.0;"/><path d="M170.7656,573.875 Q170.9219,573.6563 171.1094,573.5469 Q171.2969,573.4375 171.5156,573.4375 Q171.8906,573.4375 172.125,573.7031 Q172.3594,573.9531 172.3594,574.5625 L172.3594,576.0156 Q172.3594,576.625 172.125,576.8906 Q171.8906,577.1563 171.5156,577.1563 Q171.1719,577.1563 170.9688,576.9531 Q170.7656,576.7656 170.6563,576.25 Q170.6094,575.8906 170.4219,575.7031 Q170.0938,575.3281 169.4844,575.1094 Q168.875,574.8906 168.25,574.8906 Q167.4844,574.8906 166.8438,575.2188 Q166.2188,575.5469 165.7188,576.2969 Q165.2344,577.0469 165.2344,578.0781 L165.2344,579.1719 Q165.2344,580.4063 166.125,581.2344 Q167.0156,582.0469 168.6094,582.0469 Q169.5469,582.0469 170.2031,581.7969 Q170.5938,581.6406 171.0156,581.2031 Q171.2813,580.9375 171.4219,580.8594 Q171.5781,580.7813 171.7813,580.7813 Q172.1094,580.7813 172.3594,581.0469 Q172.625,581.2969 172.625,581.6406 Q172.625,581.9844 172.2813,582.3906 Q171.7813,582.9688 170.9844,583.2969 Q169.9063,583.75 168.6094,583.75 Q167.0938,583.75 165.8906,583.125 Q164.9063,582.625 164.2188,581.5625 Q163.5313,580.4844 163.5313,579.2031 L163.5313,578.0469 Q163.5313,576.7188 164.1406,575.5781 Q164.7656,574.4219 165.8594,573.8125 Q166.9531,573.1875 168.1875,573.1875 Q168.9219,573.1875 169.5625,573.3594 Q170.2188,573.5156 170.7656,573.875 Z " fill="#000000"/><text fill="#000000" font-family="sans-serif" font-size="14" lengthAdjust="spacing" textLength="102" x="182" y="583.7285">CompositeTopic</text><line style="stroke:#181818;stroke-width:0.5;" x1="154" x2="286" y1="594" y2="594"/><line style="stroke:#181818;stroke-width:0.5;" x1="154" x2="286" y1="602" y2="602"/></g><!--class SimpleTopic--><g id="elem_SimpleTopic"><rect codeLine="49" fill="#F1F1F1" height="48" id="SimpleTopic" rx="2.5" ry="2.5" style="stroke:#181818;stroke-width:0.5;" width="109" x="322.5" y="562"/><ellipse cx="337.5" cy="578" fill="#ADD1B2" rx="11" ry="11" style="stroke:#181818;stroke-width:1.0;"/><path d="M340.2656,573.875 Q340.4219,573.6563 340.6094,573.5469 Q340.7969,573.4375 341.0156,573.4375 Q341.3906,573.4375 341.625,573.7031 Q341.8594,573.9531 341.8594,574.5625 L341.8594,576.0156 Q341.8594,576.625 341.625,576.8906 Q341.3906,577.1563 341.0156,577.1563 Q340.6719,577.1563 340.4688,576.9531 Q340.2656,576.7656 340.1563,576.25 Q340.1094,575.8906 339.9219,575.7031 Q339.5938,575.3281 338.9844,575.1094 Q338.375,574.8906 337.75,574.8906 Q336.9844,574.8906 336.3438,575.2188 Q335.7188,575.5469 335.2188,576.2969 Q334.7344,577.0469 334.7344,578.0781 L334.7344,579.1719 Q334.7344,580.4063 335.625,581.2344 Q336.5156,582.0469 338.1094,582.0469 Q339.0469,582.0469 339.7031,581.7969 Q340.0938,581.6406 340.5156,581.2031 Q340.7813,580.9375 340.9219,580.8594 Q341.0781,580.7813 341.2813,580.7813 Q341.6094,580.7813 341.8594,581.0469 Q342.125,581.2969 342.125,581.6406 Q342.125,581.9844 341.7813,582.3906 Q341.2813,582.9688 340.4844,583.2969 Q339.4063,583.75 338.1094,583.75 Q336.5938,583.75 335.3906,583.125 Q334.4063,582.625 333.7188,581.5625 Q333.0313,580.4844 333.0313,579.2031 L333.0313,578.0469 Q333.0313,576.7188 333.6406,575.5781 Q334.2656,574.4219 335.3594,573.8125 Q336.4531,573.1875 337.6875,573.1875 Q338.4219,573.1875 339.0625,573.3594 Q339.7188,573.5156 340.2656,573.875 Z " fill="#000000"/><text fill="#000000" font-family="sans-serif" font-size="14" lengthAdjust="spacing" textLength="77" x="351.5" y="583.7285">SimpleTopic</text><line style="stroke:#181818;stroke-width:0.5;" x1="323.5" x2="430.5" y1="594" y2="594"/><line style="stroke:#181818;stroke-width:0.5;" x1="323.5" x2="430.5" y1="602" y2="602"/></g><!--class Document--><g id="elem_Document"><rect codeLine="47" fill="#FF0000" height="48" id="Document" rx="2.5" ry="2.5" style="stroke:#181818;stroke-width:0.5;" width="96" x="22" y="562"/><ellipse cx="37" cy="578" fill="#ADD1B2" rx="11" ry="11" style="stroke:#181818;stroke-width:1.0;"/><path d="M39.7656,573.875 Q39.9219,573.6563 40.1094,573.5469 Q40.2969,573.4375 40.5156,573.4375 Q40.8906,573.4375 41.125,573.7031 Q41.3594,573.9531 41.3594,574.5625 L41.3594,576.0156 Q41.3594,576.625 41.125,576.8906 Q40.8906,577.1563 40.5156,577.1563 Q40.1719,577.1563 39.9688,576.9531 Q39.7656,576.7656 39.6563,576.25 Q39.6094,575.8906 39.4219,575.7031 Q39.0938,575.3281 38.4844,575.1094 Q37.875,574.8906 37.25,574.8906 Q36.4844,574.8906 35.8438,575.2188 Q35.2188,575.5469 34.7188,576.2969 Q34.2344,577.0469 34.2344,578.0781 L34.2344,579.1719 Q34.2344,580.4063 35.125,581.2344 Q36.0156,582.0469 37.6094,582.0469 Q38.5469,582.0469 39.2031,581.7969 Q39.5938,581.6406 40.0156,581.2031 Q40.2813,580.9375 40.4219,580.8594 Q40.5781,580.7813 40.7813,580.7813 Q41.1094,580.7813 41.3594,581.0469 Q41.625,581.2969 41.625,581.6406 Q41.625,581.9844 41.2813,582.3906 Q40.7813,582.9688 39.9844,583.2969 Q38.9063,583.75 37.6094,583.75 Q36.0938,583.75 34.8906,583.125 Q33.9063,582.625 33.2188,581.5625 Q32.5313,580.4844 32.5313,579.2031 L32.5313,578.0469 Q32.5313,576.7188 33.1406,575.5781 Q33.7656,574.4219 34.8594,573.8125 Q35.9531,573.1875 37.1875,573.1875 Q37.9219,573.1875 38.5625,573.3594 Q39.2188,573.5156 39.7656,573.875 Z " fill="#000000"/><text fill="#000000" font-family="sans-serif" font-size="14" lengthAdjust="spacing" textLength="64" x="51" y="583.7285">Document</text><line style="stroke:#181818;stroke-width:0.5;" x1="23" x2="117" y1="594" y2="594"/><line style="stroke:#181818;stroke-width:0.5;" x1="23" x2="117" y1="602" y2="602"/></g><!--class Question--><g id="elem_Question"><rect codeLine="103" fill="#F1F1F1" height="65.6094" id="Question" rx="2.5" ry="2.5" style="stroke:#181818;stroke-width:0.5;" width="123" x="1119.5" y="413"/><ellipse cx="1149.8" cy="429" fill="#ADD1B2" rx="11" ry="11" style="stroke:#181818;stroke-width:1.0;"/><path d="M1152.5656,424.875 Q1152.7219,424.6563 1152.9094,424.5469 Q1153.0969,424.4375 1153.3156,424.4375 Q1153.6906,424.4375 1153.925,424.7031 Q1154.1594,424.9531 1154.1594,425.5625 L1154.1594,427.0156 Q1154.1594,427.625 1153.925,427.8906 Q1153.6906,428.1563 1153.3156,428.1563 Q1152.9719,428.1563 1152.7688,427.9531 Q1152.5656,427.7656 1152.4563,427.25 Q1152.4094,426.8906 1152.2219,426.7031 Q1151.8938,426.3281 1151.2844,426.1094 Q1150.675,425.8906 1150.05,425.8906 Q1149.2844,425.8906 1148.6438,426.2188 Q1148.0188,426.5469 1147.5188,427.2969 Q1147.0344,428.0469 1147.0344,429.0781 L1147.0344,430.1719 Q1147.0344,431.4063 1147.925,432.2344 Q1148.8156,433.0469 1150.4094,433.0469 Q1151.3469,433.0469 1152.0031,432.7969 Q1152.3938,432.6406 1152.8156,432.2031 Q1153.0813,431.9375 1153.2219,431.8594 Q1153.3781,431.7813 1153.5813,431.7813 Q1153.9094,431.7813 1154.1594,432.0469 Q1154.425,432.2969 1154.425,432.6406 Q1154.425,432.9844 1154.0813,433.3906 Q1153.5813,433.9688 1152.7844,434.2969 Q1151.7063,434.75 1150.4094,434.75 Q1148.8938,434.75 1147.6906,434.125 Q1146.7063,433.625 1146.0188,432.5625 Q1145.3313,431.4844 1145.3313,430.2031 L1145.3313,429.0469 Q1145.3313,427.7188 1145.9406,426.5781 Q1146.5656,425.4219 1147.6594,424.8125 Q1148.7531,424.1875 1149.9875,424.1875 Q1150.7219,424.1875 1151.3625,424.3594 Q1152.0188,424.5156 1152.5656,424.875 Z " fill="#000000"/><text fill="#000000" font-family="sans-serif" font-size="14" lengthAdjust="spacing" textLength="57" x="1167.2" y="434.7285">Question</text><line style="stroke:#181818;stroke-width:0.5;" x1="1120.5" x2="1241.5" y1="445" y2="445"/><text fill="#000000" font-family="sans-serif" font-size="14" lengthAdjust="spacing" textLength="111" x="1125.5" y="463.5332">statement : String</text><line style="stroke:#181818;stroke-width:0.5;" x1="1120.5" x2="1241.5" y1="470.6094" y2="470.6094"/></g><!--class MultipleChoice--><g id="elem_MultipleChoice"><rect codeLine="116" fill="#F1F1F1" height="48" id="MultipleChoice" rx="2.5" ry="2.5" style="stroke:#181818;stroke-width:0.5;" width="124" x="1119" y="562"/><ellipse cx="1134" cy="578" fill="#ADD1B2" rx="11" ry="11" style="stroke:#181818;stroke-width:1.0;"/><path d="M1136.7656,573.875 Q1136.9219,573.6563 1137.1094,573.5469 Q1137.2969,573.4375 1137.5156,573.4375 Q1137.8906,573.4375 1138.125,573.7031 Q1138.3594,573.9531 1138.3594,574.5625 L1138.3594,576.0156 Q1138.3594,576.625 1138.125,576.8906 Q1137.8906,577.1563 1137.5156,577.1563 Q1137.1719,577.1563 1136.9688,576.9531 Q1136.7656,576.7656 1136.6563,576.25 Q1136.6094,575.8906 1136.4219,575.7031 Q1136.0938,575.3281 1135.4844,575.1094 Q1134.875,574.8906 1134.25,574.8906 Q1133.4844,574.8906 1132.8438,575.2188 Q1132.2188,575.5469 1131.7188,576.2969 Q1131.2344,577.0469 1131.2344,578.0781 L1131.2344,579.1719 Q1131.2344,580.4063 1132.125,581.2344 Q1133.0156,582.0469 1134.6094,582.0469 Q1135.5469,582.0469 1136.2031,581.7969 Q1136.5938,581.6406 1137.0156,581.2031 Q1137.2813,580.9375 1137.4219,580.8594 Q1137.5781,580.7813 1137.7813,580.7813 Q1138.1094,580.7813 1138.3594,581.0469 Q1138.625,581.2969 1138.625,581.6406 Q1138.625,581.9844 1138.2813,582.3906 Q1137.7813,582.9688 1136.9844,583.2969 Q1135.9063,583.75 1134.6094,583.75 Q1133.0938,583.75 1131.8906,583.125 Q1130.9063,582.625 1130.2188,581.5625 Q1129.5313,580.4844 1129.5313,579.2031 L1129.5313,578.0469 Q1129.5313,576.7188 1130.1406,575.5781 Q1130.7656,574.4219 1131.8594,573.8125 Q1132.9531,573.1875 1134.1875,573.1875 Q1134.9219,573.1875 1135.5625,573.3594 Q1136.2188,573.5156 1136.7656,573.875 Z " fill="#000000"/><text fill="#000000" font-family="sans-serif" font-size="14" lengthAdjust="spacing" textLength="92" x="1148" y="583.7285">MultipleChoice</text><line style="stroke:#181818;stroke-width:0.5;" x1="1120" x2="1242" y1="594" y2="594"/><line style="stroke:#181818;stroke-width:0.5;" x1="1120" x2="1242" y1="602" y2="602"/></g><!--class Cloze--><g id="elem_Cloze"><rect codeLine="112" fill="#F1F1F1" height="65.6094" id="Cloze" rx="2.5" ry="2.5" style="stroke:#181818;stroke-width:0.5;" width="107" x="1278.5" y="553"/><ellipse cx="1311.5" cy="569" fill="#ADD1B2" rx="11" ry="11" style="stroke:#181818;stroke-width:1.0;"/><path d="M1314.2656,564.875 Q1314.4219,564.6563 1314.6094,564.5469 Q1314.7969,564.4375 1315.0156,564.4375 Q1315.3906,564.4375 1315.625,564.7031 Q1315.8594,564.9531 1315.8594,565.5625 L1315.8594,567.0156 Q1315.8594,567.625 1315.625,567.8906 Q1315.3906,568.1563 1315.0156,568.1563 Q1314.6719,568.1563 1314.4688,567.9531 Q1314.2656,567.7656 1314.1563,567.25 Q1314.1094,566.8906 1313.9219,566.7031 Q1313.5938,566.3281 1312.9844,566.1094 Q1312.375,565.8906 1311.75,565.8906 Q1310.9844,565.8906 1310.3438,566.2188 Q1309.7188,566.5469 1309.2188,567.2969 Q1308.7344,568.0469 1308.7344,569.0781 L1308.7344,570.1719 Q1308.7344,571.4063 1309.625,572.2344 Q1310.5156,573.0469 1312.1094,573.0469 Q1313.0469,573.0469 1313.7031,572.7969 Q1314.0938,572.6406 1314.5156,572.2031 Q1314.7813,571.9375 1314.9219,571.8594 Q1315.0781,571.7813 1315.2813,571.7813 Q1315.6094,571.7813 1315.8594,572.0469 Q1316.125,572.2969 1316.125,572.6406 Q1316.125,572.9844 1315.7813,573.3906 Q1315.2813,573.9688 1314.4844,574.2969 Q1313.4063,574.75 1312.1094,574.75 Q1310.5938,574.75 1309.3906,574.125 Q1308.4063,573.625 1307.7188,572.5625 Q1307.0313,571.4844 1307.0313,570.2031 L1307.0313,569.0469 Q1307.0313,567.7188 1307.6406,566.5781 Q1308.2656,565.4219 1309.3594,564.8125 Q1310.4531,564.1875 1311.6875,564.1875 Q1312.4219,564.1875 1313.0625,564.3594 Q1313.7188,564.5156 1314.2656,564.875 Z " fill="#000000"/><text fill="#000000" font-family="sans-serif" font-size="14" lengthAdjust="spacing" textLength="35" x="1329.5" y="574.7285">Cloze</text><line style="stroke:#181818;stroke-width:0.5;" x1="1279.5" x2="1384.5" y1="585" y2="585"/><text fill="#000000" font-family="sans-serif" font-size="14" lengthAdjust="spacing" textLength="95" x="1284.5" y="603.5332">blankCount: int</text><line style="stroke:#181818;stroke-width:0.5;" x1="1279.5" x2="1384.5" y1="610.6094" y2="610.6094"/></g><!--class Open--><g id="elem_Open"><rect fill="#F1F1F1" height="48" id="Open" rx="2.5" ry="2.5" style="stroke:#181818;stroke-width:0.5;" width="67" x="1420.5" y="562"/><ellipse cx="1435.5" cy="578" fill="#ADD1B2" rx="11" ry="11" style="stroke:#181818;stroke-width:1.0;"/><path d="M1438.2656,573.875 Q1438.4219,573.6563 1438.6094,573.5469 Q1438.7969,573.4375 1439.0156,573.4375 Q1439.3906,573.4375 1439.625,573.7031 Q1439.8594,573.9531 1439.8594,574.5625 L1439.8594,576.0156 Q1439.8594,576.625 1439.625,576.8906 Q1439.3906,577.1563 1439.0156,577.1563 Q1438.6719,577.1563 1438.4688,576.9531 Q1438.2656,576.7656 1438.1563,576.25 Q1438.1094,575.8906 1437.9219,575.7031 Q1437.5938,575.3281 1436.9844,575.1094 Q1436.375,574.8906 1435.75,574.8906 Q1434.9844,574.8906 1434.3438,575.2188 Q1433.7188,575.5469 1433.2188,576.2969 Q1432.7344,577.0469 1432.7344,578.0781 L1432.7344,579.1719 Q1432.7344,580.4063 1433.625,581.2344 Q1434.5156,582.0469 1436.1094,582.0469 Q1437.0469,582.0469 1437.7031,581.7969 Q1438.0938,581.6406 1438.5156,581.2031 Q1438.7813,580.9375 1438.9219,580.8594 Q1439.0781,580.7813 1439.2813,580.7813 Q1439.6094,580.7813 1439.8594,581.0469 Q1440.125,581.2969 1440.125,581.6406 Q1440.125,581.9844 1439.7813,582.3906 Q1439.2813,582.9688 1438.4844,583.2969 Q1437.4063,583.75 1436.1094,583.75 Q1434.5938,583.75 1433.3906,583.125 Q1432.4063,582.625 1431.7188,581.5625 Q1431.0313,580.4844 1431.0313,579.2031 L1431.0313,578.0469 Q1431.0313,576.7188 1431.6406,575.5781 Q1432.2656,574.4219 1433.3594,573.8125 Q1434.4531,573.1875 1435.6875,573.1875 Q1436.4219,573.1875 1437.0625,573.3594 Q1437.7188,573.5156 1438.2656,573.875 Z " fill="#000000"/><text fill="#000000" font-family="sans-serif" font-size="14" lengthAdjust="spacing" textLength="35" x="1449.5" y="583.7285">Open</text><line style="stroke:#181818;stroke-width:0.5;" x1="1421.5" x2="1486.5" y1="594" y2="594"/><line style="stroke:#181818;stroke-width:0.5;" x1="1421.5" x2="1486.5" y1="602" y2="602"/></g><!--class KnowledgeBase--><g id="elem_KnowledgeBase"><rect codeLine="60" fill="#FF0000" height="48" id="KnowledgeBase" rx="2.5" ry="2.5" style="stroke:#181818;stroke-width:0.5;" width="133" x="1544.5" y="562"/><ellipse cx="1559.5" cy="578" fill="#ADD1B2" rx="11" ry="11" style="stroke:#181818;stroke-width:1.0;"/><path d="M1562.2656,573.875 Q1562.4219,573.6563 1562.6094,573.5469 Q1562.7969,573.4375 1563.0156,573.4375 Q1563.3906,573.4375 1563.625,573.7031 Q1563.8594,573.9531 1563.8594,574.5625 L1563.8594,576.0156 Q1563.8594,576.625 1563.625,576.8906 Q1563.3906,577.1563 1563.0156,577.1563 Q1562.6719,577.1563 1562.4688,576.9531 Q1562.2656,576.7656 1562.1563,576.25 Q1562.1094,575.8906 1561.9219,575.7031 Q1561.5938,575.3281 1560.9844,575.1094 Q1560.375,574.8906 1559.75,574.8906 Q1558.9844,574.8906 1558.3438,575.2188 Q1557.7188,575.5469 1557.2188,576.2969 Q1556.7344,577.0469 1556.7344,578.0781 L1556.7344,579.1719 Q1556.7344,580.4063 1557.625,581.2344 Q1558.5156,582.0469 1560.1094,582.0469 Q1561.0469,582.0469 1561.7031,581.7969 Q1562.0938,581.6406 1562.5156,581.2031 Q1562.7813,580.9375 1562.9219,580.8594 Q1563.0781,580.7813 1563.2813,580.7813 Q1563.6094,580.7813 1563.8594,581.0469 Q1564.125,581.2969 1564.125,581.6406 Q1564.125,581.9844 1563.7813,582.3906 Q1563.2813,582.9688 1562.4844,583.2969 Q1561.4063,583.75 1560.1094,583.75 Q1558.5938,583.75 1557.3906,583.125 Q1556.4063,582.625 1555.7188,581.5625 Q1555.0313,580.4844 1555.0313,579.2031 L1555.0313,578.0469 Q1555.0313,576.7188 1555.6406,575.5781 Q1556.2656,574.4219 1557.3594,573.8125 Q1558.4531,573.1875 1559.6875,573.1875 Q1560.4219,573.1875 1561.0625,573.3594 Q1561.7188,573.5156 1562.2656,573.875 Z " fill="#000000"/><text fill="#000000" font-family="sans-serif" font-size="14" lengthAdjust="spacing" textLength="101" x="1573.5" y="583.7285">KnowledgeBase</text><line style="stroke:#181818;stroke-width:0.5;" x1="1545.5" x2="1676.5" y1="594" y2="594"/><line style="stroke:#181818;stroke-width:0.5;" x1="1545.5" x2="1676.5" y1="602" y2="602"/></g><!--class Concept--><g id="elem_Concept"><rect codeLine="64" fill="#F1F1F1" height="48" id="Concept" rx="2.5" ry="2.5" style="stroke:#181818;stroke-width:0.5;" width="85" x="1568.5" y="682"/><ellipse cx="1583.5" cy="698" fill="#ADD1B2" rx="11" ry="11" style="stroke:#181818;stroke-width:1.0;"/><path d="M1586.2656,693.875 Q1586.4219,693.6563 1586.6094,693.5469 Q1586.7969,693.4375 1587.0156,693.4375 Q1587.3906,693.4375 1587.625,693.7031 Q1587.8594,693.9531 1587.8594,694.5625 L1587.8594,696.0156 Q1587.8594,696.625 1587.625,696.8906 Q1587.3906,697.1563 1587.0156,697.1563 Q1586.6719,697.1563 1586.4688,696.9531 Q1586.2656,696.7656 1586.1563,696.25 Q1586.1094,695.8906 1585.9219,695.7031 Q1585.5938,695.3281 1584.9844,695.1094 Q1584.375,694.8906 1583.75,694.8906 Q1582.9844,694.8906 1582.3438,695.2188 Q1581.7188,695.5469 1581.2188,696.2969 Q1580.7344,697.0469 1580.7344,698.0781 L1580.7344,699.1719 Q1580.7344,700.4063 1581.625,701.2344 Q1582.5156,702.0469 1584.1094,702.0469 Q1585.0469,702.0469 1585.7031,701.7969 Q1586.0938,701.6406 1586.5156,701.2031 Q1586.7813,700.9375 1586.9219,700.8594 Q1587.0781,700.7813 1587.2813,700.7813 Q1587.6094,700.7813 1587.8594,701.0469 Q1588.125,701.2969 1588.125,701.6406 Q1588.125,701.9844 1587.7813,702.3906 Q1587.2813,702.9688 1586.4844,703.2969 Q1585.4063,703.75 1584.1094,703.75 Q1582.5938,703.75 1581.3906,703.125 Q1580.4063,702.625 1579.7188,701.5625 Q1579.0313,700.4844 1579.0313,699.2031 L1579.0313,698.0469 Q1579.0313,696.7188 1579.6406,695.5781 Q1580.2656,694.4219 1581.3594,693.8125 Q1582.4531,693.1875 1583.6875,693.1875 Q1584.4219,693.1875 1585.0625,693.3594 Q1585.7188,693.5156 1586.2656,693.875 Z " fill="#000000"/><text fill="#000000" font-family="sans-serif" font-size="14" lengthAdjust="spacing" textLength="53" x="1597.5" y="703.7285">Concept</text><line style="stroke:#181818;stroke-width:0.5;" x1="1569.5" x2="1652.5" y1="714" y2="714"/><line style="stroke:#181818;stroke-width:0.5;" x1="1569.5" x2="1652.5" y1="722" y2="722"/></g><!--class Definition--><g id="elem_Definition"><rect codeLine="70" fill="#F1F1F1" height="65.6094" id="Definition" rx="2.5" ry="2.5" style="stroke:#181818;stroke-width:0.5;" width="133" x="1544.5" y="808"/><ellipse cx="1578.4" cy="824" fill="#ADD1B2" rx="11" ry="11" style="stroke:#181818;stroke-width:1.0;"/><path d="M1581.1656,819.875 Q1581.3219,819.6563 1581.5094,819.5469 Q1581.6969,819.4375 1581.9156,819.4375 Q1582.2906,819.4375 1582.525,819.7031 Q1582.7594,819.9531 1582.7594,820.5625 L1582.7594,822.0156 Q1582.7594,822.625 1582.525,822.8906 Q1582.2906,823.1563 1581.9156,823.1563 Q1581.5719,823.1563 1581.3688,822.9531 Q1581.1656,822.7656 1581.0563,822.25 Q1581.0094,821.8906 1580.8219,821.7031 Q1580.4938,821.3281 1579.8844,821.1094 Q1579.275,820.8906 1578.65,820.8906 Q1577.8844,820.8906 1577.2438,821.2188 Q1576.6188,821.5469 1576.1188,822.2969 Q1575.6344,823.0469 1575.6344,824.0781 L1575.6344,825.1719 Q1575.6344,826.4063 1576.525,827.2344 Q1577.4156,828.0469 1579.0094,828.0469 Q1579.9469,828.0469 1580.6031,827.7969 Q1580.9938,827.6406 1581.4156,827.2031 Q1581.6813,826.9375 1581.8219,826.8594 Q1581.9781,826.7813 1582.1813,826.7813 Q1582.5094,826.7813 1582.7594,827.0469 Q1583.025,827.2969 1583.025,827.6406 Q1583.025,827.9844 1582.6813,828.3906 Q1582.1813,828.9688 1581.3844,829.2969 Q1580.3063,829.75 1579.0094,829.75 Q1577.4938,829.75 1576.2906,829.125 Q1575.3063,828.625 1574.6188,827.5625 Q1573.9313,826.4844 1573.9313,825.2031 L1573.9313,824.0469 Q1573.9313,822.7188 1574.5406,821.5781 Q1575.1656,820.4219 1576.2594,819.8125 Q1577.3531,819.1875 1578.5875,819.1875 Q1579.3219,819.1875 1579.9625,819.3594 Q1580.6188,819.5156 1581.1656,819.875 Z " fill="#000000"/><text fill="#000000" font-family="sans-serif" font-size="14" lengthAdjust="spacing" textLength="59" x="1596.6" y="829.7285">Definition</text><line style="stroke:#181818;stroke-width:0.5;" x1="1545.5" x2="1676.5" y1="840" y2="840"/><rect fill="none" height="6" style="stroke:#C82930;stroke-width:1.0;" width="6" x="1552.5" y="851.3047"/><text fill="#000000" font-family="sans-serif" font-size="14" lengthAdjust="spacing" textLength="107" x="1564.5" y="858.5332">correct : boolean</text><line style="stroke:#181818;stroke-width:0.5;" x1="1545.5" x2="1676.5" y1="865.6094" y2="865.6094"/></g><!--class Relation--><g id="elem_Relation"><rect codeLine="75" fill="#F1F1F1" height="48" id="Relation" rx="2.5" ry="2.5" style="stroke:#181818;stroke-width:0.5;" width="84" x="1713" y="817"/><ellipse cx="1728" cy="833" fill="#ADD1B2" rx="11" ry="11" style="stroke:#181818;stroke-width:1.0;"/><path d="M1730.7656,828.875 Q1730.9219,828.6563 1731.1094,828.5469 Q1731.2969,828.4375 1731.5156,828.4375 Q1731.8906,828.4375 1732.125,828.7031 Q1732.3594,828.9531 1732.3594,829.5625 L1732.3594,831.0156 Q1732.3594,831.625 1732.125,831.8906 Q1731.8906,832.1563 1731.5156,832.1563 Q1731.1719,832.1563 1730.9688,831.9531 Q1730.7656,831.7656 1730.6563,831.25 Q1730.6094,830.8906 1730.4219,830.7031 Q1730.0938,830.3281 1729.4844,830.1094 Q1728.875,829.8906 1728.25,829.8906 Q1727.4844,829.8906 1726.8438,830.2188 Q1726.2188,830.5469 1725.7188,831.2969 Q1725.2344,832.0469 1725.2344,833.0781 L1725.2344,834.1719 Q1725.2344,835.4063 1726.125,836.2344 Q1727.0156,837.0469 1728.6094,837.0469 Q1729.5469,837.0469 1730.2031,836.7969 Q1730.5938,836.6406 1731.0156,836.2031 Q1731.2813,835.9375 1731.4219,835.8594 Q1731.5781,835.7813 1731.7813,835.7813 Q1732.1094,835.7813 1732.3594,836.0469 Q1732.625,836.2969 1732.625,836.6406 Q1732.625,836.9844 1732.2813,837.3906 Q1731.7813,837.9688 1730.9844,838.2969 Q1729.9063,838.75 1728.6094,838.75 Q1727.0938,838.75 1725.8906,838.125 Q1724.9063,837.625 1724.2188,836.5625 Q1723.5313,835.4844 1723.5313,834.2031 L1723.5313,833.0469 Q1723.5313,831.7188 1724.1406,830.5781 Q1724.7656,829.4219 1725.8594,828.8125 Q1726.9531,828.1875 1728.1875,828.1875 Q1728.9219,828.1875 1729.5625,828.3594 Q1730.2188,828.5156 1730.7656,828.875 Z " fill="#000000"/><text fill="#000000" font-family="sans-serif" font-size="14" lengthAdjust="spacing" textLength="52" x="1742" y="838.7285">Relation</text><line style="stroke:#181818;stroke-width:0.5;" x1="1714" x2="1796" y1="849" y2="849"/><line style="stroke:#181818;stroke-width:0.5;" x1="1714" x2="1796" y1="857" y2="857"/></g><!--class RelationType--><g id="elem_RelationType"><rect codeLine="80" fill="#F1F1F1" height="136.0469" id="RelationType" rx="2.5" ry="2.5" style="stroke:#181818;stroke-width:0.5;" width="116" x="1681" y="952"/><ellipse cx="1696" cy="968" fill="#EB937F" rx="11" ry="11" style="stroke:#181818;stroke-width:1.0;"/><path d="M1694.8594,968.7969 L1694.8594,971.2969 L1699.1875,971.2969 L1699.1875,970.375 Q1699.1875,969.7656 1699.4219,969.5 Q1699.6719,969.2344 1700.0469,969.2344 Q1700.4219,969.2344 1700.6563,969.5 Q1700.8906,969.7656 1700.8906,970.375 L1700.8906,973 L1692.8906,973 Q1692.2656,973 1692,972.7656 Q1691.75,972.5313 1691.75,972.1406 Q1691.75,971.7656 1692.0156,971.5313 Q1692.2813,971.2969 1692.8906,971.2969 L1693.1563,971.2969 L1693.1563,964.6406 L1692.8906,964.6406 Q1692.2656,964.6406 1692,964.4063 Q1691.75,964.1719 1691.75,963.7813 Q1691.75,963.4063 1692,963.1719 Q1692.2656,962.9375 1692.8906,962.9375 L1700.5156,962.9375 L1700.5156,965.5313 Q1700.5156,966.1406 1700.2813,966.4063 Q1700.0625,966.6563 1699.6719,966.6563 Q1699.2969,966.6563 1699.0625,966.4063 Q1698.8281,966.1406 1698.8281,965.5313 L1698.8281,964.6406 L1694.8594,964.6406 L1694.8594,967.0938 L1696.3438,967.0938 Q1696.3438,966.4375 1696.4688,966.25 Q1696.7344,965.8438 1697.2031,965.8438 Q1697.5781,965.8438 1697.8125,966.1094 Q1698.0469,966.3594 1698.0469,966.9688 L1698.0469,968.9375 Q1698.0469,969.4844 1697.9219,969.6719 Q1697.6563,970.0625 1697.2031,970.0625 Q1696.7344,970.0625 1696.4688,969.6563 Q1696.3438,969.4688 1696.3438,968.7969 L1694.8594,968.7969 Z " fill="#000000"/><text fill="#000000" font-family="sans-serif" font-size="14" lengthAdjust="spacing" textLength="84" x="1710" y="973.7285">RelationType</text><line style="stroke:#181818;stroke-width:0.5;" x1="1682" x2="1796" y1="984" y2="984"/><text fill="#000000" font-family="sans-serif" font-size="14" lengthAdjust="spacing" textLength="24" x="1687" y="1002.5332">Use</text><text fill="#000000" font-family="sans-serif" font-size="14" lengthAdjust="spacing" textLength="72" x="1687" y="1020.1426">Association</text><text fill="#000000" font-family="sans-serif" font-size="14" lengthAdjust="spacing" textLength="78" x="1687" y="1037.752">Composition</text><text fill="#000000" font-family="sans-serif" font-size="14" lengthAdjust="spacing" textLength="70" x="1687" y="1055.3613">Inheritance</text><text fill="#000000" font-family="sans-serif" font-size="14" lengthAdjust="spacing" textLength="77" x="1687" y="1072.9707">Aggregation</text><line style="stroke:#181818;stroke-width:0.5;" x1="1682" x2="1796" y1="1080.0469" y2="1080.0469"/></g><!--class EducationPlatform--><g id="elem_EducationPlatform"><rect fill="#F1F1F1" height="48" id="EducationPlatform" rx="2.5" ry="2.5" style="stroke:#181818;stroke-width:0.5;" width="147" x="563.5" y="7"/><ellipse cx="578.5" cy="23" fill="#ADD1B2" rx="11" ry="11" style="stroke:#181818;stroke-width:1.0;"/><path d="M581.2656,18.875 Q581.4219,18.6563 581.6094,18.5469 Q581.7969,18.4375 582.0156,18.4375 Q582.3906,18.4375 582.625,18.7031 Q582.8594,18.9531 582.8594,19.5625 L582.8594,21.0156 Q582.8594,21.625 582.625,21.8906 Q582.3906,22.1563 582.0156,22.1563 Q581.6719,22.1563 581.4688,21.9531 Q581.2656,21.7656 581.1563,21.25 Q581.1094,20.8906 580.9219,20.7031 Q580.5938,20.3281 579.9844,20.1094 Q579.375,19.8906 578.75,19.8906 Q577.9844,19.8906 577.3438,20.2188 Q576.7188,20.5469 576.2188,21.2969 Q575.7344,22.0469 575.7344,23.0781 L575.7344,24.1719 Q575.7344,25.4063 576.625,26.2344 Q577.5156,27.0469 579.1094,27.0469 Q580.0469,27.0469 580.7031,26.7969 Q581.0938,26.6406 581.5156,26.2031 Q581.7813,25.9375 581.9219,25.8594 Q582.0781,25.7813 582.2813,25.7813 Q582.6094,25.7813 582.8594,26.0469 Q583.125,26.2969 583.125,26.6406 Q583.125,26.9844 582.7813,27.3906 Q582.2813,27.9688 581.4844,28.2969 Q580.4063,28.75 579.1094,28.75 Q577.5938,28.75 576.3906,28.125 Q575.4063,27.625 574.7188,26.5625 Q574.0313,25.4844 574.0313,24.2031 L574.0313,23.0469 Q574.0313,21.7188 574.6406,20.5781 Q575.2656,19.4219 576.3594,18.8125 Q577.4531,18.1875 578.6875,18.1875 Q579.4219,18.1875 580.0625,18.3594 Q580.7188,18.5156 581.2656,18.875 Z " fill="#000000"/><text fill="#000000" font-family="sans-serif" font-size="14" lengthAdjust="spacing" textLength="115" x="592.5" y="28.7285">EducationPlatform</text><line style="stroke:#181818;stroke-width:0.5;" x1="564.5" x2="709.5" y1="39" y2="39"/><line style="stroke:#181818;stroke-width:0.5;" x1="564.5" x2="709.5" y1="47" y2="47"/></g><!--class User--><g id="elem_User"><rect codeLine="21" fill="#F1F1F1" height="48" id="User" rx="2.5" ry="2.5" style="stroke:#181818;stroke-width:0.5;" width="62" x="606" y="133.5"/><ellipse cx="621" cy="149.5" fill="#A9DCDF" rx="11" ry="11" style="stroke:#181818;stroke-width:1.0;"/><path d="M623.1875,151.2656 L619.0469,151.2656 L618.625,152.2969 L619.0469,152.2969 Q619.6563,152.2969 619.9219,152.5313 Q620.1875,152.7656 620.1875,153.1563 Q620.1875,153.5313 619.9219,153.7656 Q619.6563,154 619.0469,154 L616.75,154 Q616.1406,154 615.8906,153.7656 Q615.625,153.5313 615.625,153.1406 Q615.625,152.7656 615.9063,152.5313 Q616.1719,152.2813 616.7969,152.2969 L619.4688,145.6406 L618.3594,145.6406 Q617.75,145.6406 617.4844,145.4063 Q617.2188,145.1719 617.2188,144.7813 Q617.2188,144.4063 617.4844,144.1719 Q617.75,143.9375 618.3594,143.9375 L622.0313,143.9375 L625.4219,152.2969 Q626.0156,152.2969 626.2031,152.4375 Q626.5938,152.7031 626.5938,153.1563 Q626.5938,153.5313 626.3281,153.7656 Q626.0781,154 625.4688,154 L623.1719,154 Q622.5625,154 622.2969,153.7656 Q622.0313,153.5313 622.0313,153.1406 Q622.0313,152.7656 622.2969,152.5313 Q622.5625,152.2969 623.1719,152.2969 L623.5938,152.2969 L623.1875,151.2656 Z M622.4688,149.5625 L621.1094,146.1875 L619.7344,149.5625 L622.4688,149.5625 Z " fill="#000000"/><text fill="#000000" font-family="sans-serif" font-size="14" font-style="italic" lengthAdjust="spacing" textLength="30" x="635" y="155.2285">User</text><line style="stroke:#181818;stroke-width:0.5;" x1="607" x2="667" y1="165.5" y2="165.5"/><line style="stroke:#181818;stroke-width:0.5;" x1="607" x2="667" y1="173.5" y2="173.5"/></g><!--class Evaluator--><g id="elem_Evaluator"><rect codeLine="124" fill="#F1F1F1" height="48" id="Evaluator" rx="2.5" ry="2.5" style="stroke:#181818;stroke-width:0.5;" width="92" x="972" y="133.5"/><ellipse cx="987" cy="149.5" fill="#ADD1B2" rx="11" ry="11" style="stroke:#181818;stroke-width:1.0;"/><path d="M989.7656,145.375 Q989.9219,145.1563 990.1094,145.0469 Q990.2969,144.9375 990.5156,144.9375 Q990.8906,144.9375 991.125,145.2031 Q991.3594,145.4531 991.3594,146.0625 L991.3594,147.5156 Q991.3594,148.125 991.125,148.3906 Q990.8906,148.6563 990.5156,148.6563 Q990.1719,148.6563 989.9688,148.4531 Q989.7656,148.2656 989.6563,147.75 Q989.6094,147.3906 989.4219,147.2031 Q989.0938,146.8281 988.4844,146.6094 Q987.875,146.3906 987.25,146.3906 Q986.4844,146.3906 985.8438,146.7188 Q985.2188,147.0469 984.7188,147.7969 Q984.2344,148.5469 984.2344,149.5781 L984.2344,150.6719 Q984.2344,151.9063 985.125,152.7344 Q986.0156,153.5469 987.6094,153.5469 Q988.5469,153.5469 989.2031,153.2969 Q989.5938,153.1406 990.0156,152.7031 Q990.2813,152.4375 990.4219,152.3594 Q990.5781,152.2813 990.7813,152.2813 Q991.1094,152.2813 991.3594,152.5469 Q991.625,152.7969 991.625,153.1406 Q991.625,153.4844 991.2813,153.8906 Q990.7813,154.4688 989.9844,154.7969 Q988.9063,155.25 987.6094,155.25 Q986.0938,155.25 984.8906,154.625 Q983.9063,154.125 983.2188,153.0625 Q982.5313,151.9844 982.5313,150.7031 L982.5313,149.5469 Q982.5313,148.2188 983.1406,147.0781 Q983.7656,145.9219 984.8594,145.3125 Q985.9531,144.6875 987.1875,144.6875 Q987.9219,144.6875 988.5625,144.8594 Q989.2188,145.0156 989.7656,145.375 Z " fill="#000000"/><text fill="#000000" font-family="sans-serif" font-size="14" lengthAdjust="spacing" textLength="60" x="1001" y="155.2285">Evaluator</text><line style="stroke:#181818;stroke-width:0.5;" x1="973" x2="1063" y1="165.5" y2="165.5"/><line style="stroke:#181818;stroke-width:0.5;" x1="973" x2="1063" y1="173.5" y2="173.5"/></g><!--class Domain--><g id="elem_Domain"><rect codeLine="90" fill="#F1F1F1" height="65.6094" id="Domain" rx="2.5" ry="2.5" style="stroke:#181818;stroke-width:0.5;" width="80" x="464" y="413"/><ellipse cx="479" cy="429" fill="#ADD1B2" rx="11" ry="11" style="stroke:#181818;stroke-width:1.0;"/><path d="M481.7656,424.875 Q481.9219,424.6563 482.1094,424.5469 Q482.2969,424.4375 482.5156,424.4375 Q482.8906,424.4375 483.125,424.7031 Q483.3594,424.9531 483.3594,425.5625 L483.3594,427.0156 Q483.3594,427.625 483.125,427.8906 Q482.8906,428.1563 482.5156,428.1563 Q482.1719,428.1563 481.9688,427.9531 Q481.7656,427.7656 481.6563,427.25 Q481.6094,426.8906 481.4219,426.7031 Q481.0938,426.3281 480.4844,426.1094 Q479.875,425.8906 479.25,425.8906 Q478.4844,425.8906 477.8438,426.2188 Q477.2188,426.5469 476.7188,427.2969 Q476.2344,428.0469 476.2344,429.0781 L476.2344,430.1719 Q476.2344,431.4063 477.125,432.2344 Q478.0156,433.0469 479.6094,433.0469 Q480.5469,433.0469 481.2031,432.7969 Q481.5938,432.6406 482.0156,432.2031 Q482.2813,431.9375 482.4219,431.8594 Q482.5781,431.7813 482.7813,431.7813 Q483.1094,431.7813 483.3594,432.0469 Q483.625,432.2969 483.625,432.6406 Q483.625,432.9844 483.2813,433.3906 Q482.7813,433.9688 481.9844,434.2969 Q480.9063,434.75 479.6094,434.75 Q478.0938,434.75 476.8906,434.125 Q475.9063,433.625 475.2188,432.5625 Q474.5313,431.4844 474.5313,430.2031 L474.5313,429.0469 Q474.5313,427.7188 475.1406,426.5781 Q475.7656,425.4219 476.8594,424.8125 Q477.9531,424.1875 479.1875,424.1875 Q479.9219,424.1875 480.5625,424.3594 Q481.2188,424.5156 481.7656,424.875 Z " fill="#000000"/><text fill="#000000" font-family="sans-serif" font-size="14" lengthAdjust="spacing" textLength="48" x="493" y="434.7285">Domain</text><line style="stroke:#181818;stroke-width:0.5;" x1="465" x2="543" y1="445" y2="445"/><text fill="#000000" font-family="sans-serif" font-size="14" lengthAdjust="spacing" textLength="55" x="470" y="463.5332">category</text><line style="stroke:#181818;stroke-width:0.5;" x1="465" x2="543" y1="470.6094" y2="470.6094"/></g><!--class Solution--><g id="elem_Solution"><rect codeLine="12" fill="#F1F1F1" height="83.2188" id="Solution" rx="2.5" ry="2.5" style="stroke:#181818;stroke-width:0.5;" width="151" x="746.5" y="116"/><ellipse cx="792.25" cy="132" fill="#A9DCDF" rx="11" ry="11" style="stroke:#181818;stroke-width:1.0;"/><path d="M794.4375,133.7656 L790.2969,133.7656 L789.875,134.7969 L790.2969,134.7969 Q790.9063,134.7969 791.1719,135.0313 Q791.4375,135.2656 791.4375,135.6563 Q791.4375,136.0313 791.1719,136.2656 Q790.9063,136.5 790.2969,136.5 L788,136.5 Q787.3906,136.5 787.1406,136.2656 Q786.875,136.0313 786.875,135.6406 Q786.875,135.2656 787.1563,135.0313 Q787.4219,134.7813 788.0469,134.7969 L790.7188,128.1406 L789.6094,128.1406 Q789,128.1406 788.7344,127.9063 Q788.4688,127.6719 788.4688,127.2813 Q788.4688,126.9063 788.7344,126.6719 Q789,126.4375 789.6094,126.4375 L793.2813,126.4375 L796.6719,134.7969 Q797.2656,134.7969 797.4531,134.9375 Q797.8438,135.2031 797.8438,135.6563 Q797.8438,136.0313 797.5781,136.2656 Q797.3281,136.5 796.7188,136.5 L794.4219,136.5 Q793.8125,136.5 793.5469,136.2656 Q793.2813,136.0313 793.2813,135.6406 Q793.2813,135.2656 793.5469,135.0313 Q793.8125,134.7969 794.4219,134.7969 L794.8438,134.7969 L794.4375,133.7656 Z M793.7188,132.0625 L792.3594,128.6875 L790.9844,132.0625 L793.7188,132.0625 Z " fill="#000000"/><text fill="#000000" font-family="sans-serif" font-size="14" font-style="italic" lengthAdjust="spacing" textLength="51" x="812.75" y="137.7285">Solution</text><line style="stroke:#181818;stroke-width:0.5;" x1="747.5" x2="896.5" y1="148" y2="148"/><rect fill="none" height="6" style="stroke:#C82930;stroke-width:1.0;" width="6" x="754.5" y="159.3047"/><text fill="#000000" font-family="sans-serif" font-size="14" lengthAdjust="spacing" textLength="107" x="766.5" y="166.5332">correct : boolean</text><rect fill="none" height="6" style="stroke:#C82930;stroke-width:1.0;" width="6" x="754.5" y="176.9141"/><text fill="#000000" font-family="sans-serif" font-size="14" lengthAdjust="spacing" textLength="125" x="766.5" y="184.1426">evaluated : boolean</text><line style="stroke:#181818;stroke-width:0.5;" x1="747.5" x2="896.5" y1="191.2188" y2="191.2188"/></g><!--class Application--><g id="elem_Application"><rect codeLine="96" fill="#F1F1F1" height="48" id="Application" rx="2.5" ry="2.5" style="stroke:#181818;stroke-width:0.5;" width="101" x="771.5" y="282"/><ellipse cx="786.5" cy="298" fill="#ADD1B2" rx="11" ry="11" style="stroke:#181818;stroke-width:1.0;"/><path d="M789.2656,293.875 Q789.4219,293.6563 789.6094,293.5469 Q789.7969,293.4375 790.0156,293.4375 Q790.3906,293.4375 790.625,293.7031 Q790.8594,293.9531 790.8594,294.5625 L790.8594,296.0156 Q790.8594,296.625 790.625,296.8906 Q790.3906,297.1563 790.0156,297.1563 Q789.6719,297.1563 789.4688,296.9531 Q789.2656,296.7656 789.1563,296.25 Q789.1094,295.8906 788.9219,295.7031 Q788.5938,295.3281 787.9844,295.1094 Q787.375,294.8906 786.75,294.8906 Q785.9844,294.8906 785.3438,295.2188 Q784.7188,295.5469 784.2188,296.2969 Q783.7344,297.0469 783.7344,298.0781 L783.7344,299.1719 Q783.7344,300.4063 784.625,301.2344 Q785.5156,302.0469 787.1094,302.0469 Q788.0469,302.0469 788.7031,301.7969 Q789.0938,301.6406 789.5156,301.2031 Q789.7813,300.9375 789.9219,300.8594 Q790.0781,300.7813 790.2813,300.7813 Q790.6094,300.7813 790.8594,301.0469 Q791.125,301.2969 791.125,301.6406 Q791.125,301.9844 790.7813,302.3906 Q790.2813,302.9688 789.4844,303.2969 Q788.4063,303.75 787.1094,303.75 Q785.5938,303.75 784.3906,303.125 Q783.4063,302.625 782.7188,301.5625 Q782.0313,300.4844 782.0313,299.2031 L782.0313,298.0469 Q782.0313,296.7188 782.6406,295.5781 Q783.2656,294.4219 784.3594,293.8125 Q785.4531,293.1875 786.6875,293.1875 Q787.4219,293.1875 788.0625,293.3594 Q788.7188,293.5156 789.2656,293.875 Z " fill="#000000"/><text fill="#000000" font-family="sans-serif" font-size="14" lengthAdjust="spacing" textLength="69" x="800.5" y="303.7285">Application</text><line style="stroke:#181818;stroke-width:0.5;" x1="772.5" x2="871.5" y1="314" y2="314"/><line style="stroke:#181818;stroke-width:0.5;" x1="772.5" x2="871.5" y1="322" y2="322"/></g><!--class Answer--><g id="elem_Answer"><rect codeLine="120" fill="#F1F1F1" height="48" id="Answer" rx="2.5" ry="2.5" style="stroke:#181818;stroke-width:0.5;" width="78" x="979" y="282"/><ellipse cx="994" cy="298" fill="#ADD1B2" rx="11" ry="11" style="stroke:#181818;stroke-width:1.0;"/><path d="M996.7656,293.875 Q996.9219,293.6563 997.1094,293.5469 Q997.2969,293.4375 997.5156,293.4375 Q997.8906,293.4375 998.125,293.7031 Q998.3594,293.9531 998.3594,294.5625 L998.3594,296.0156 Q998.3594,296.625 998.125,296.8906 Q997.8906,297.1563 997.5156,297.1563 Q997.1719,297.1563 996.9688,296.9531 Q996.7656,296.7656 996.6563,296.25 Q996.6094,295.8906 996.4219,295.7031 Q996.0938,295.3281 995.4844,295.1094 Q994.875,294.8906 994.25,294.8906 Q993.4844,294.8906 992.8438,295.2188 Q992.2188,295.5469 991.7188,296.2969 Q991.2344,297.0469 991.2344,298.0781 L991.2344,299.1719 Q991.2344,300.4063 992.125,301.2344 Q993.0156,302.0469 994.6094,302.0469 Q995.5469,302.0469 996.2031,301.7969 Q996.5938,301.6406 997.0156,301.2031 Q997.2813,300.9375 997.4219,300.8594 Q997.5781,300.7813 997.7813,300.7813 Q998.1094,300.7813 998.3594,301.0469 Q998.625,301.2969 998.625,301.6406 Q998.625,301.9844 998.2813,302.3906 Q997.7813,302.9688 996.9844,303.2969 Q995.9063,303.75 994.6094,303.75 Q993.0938,303.75 991.8906,303.125 Q990.9063,302.625 990.2188,301.5625 Q989.5313,300.4844 989.5313,299.2031 L989.5313,298.0469 Q989.5313,296.7188 990.1406,295.5781 Q990.7656,294.4219 991.8594,293.8125 Q992.9531,293.1875 994.1875,293.1875 Q994.9219,293.1875 995.5625,293.3594 Q996.2188,293.5156 996.7656,293.875 Z " fill="#000000"/><text fill="#000000" font-family="sans-serif" font-size="14" lengthAdjust="spacing" textLength="46" x="1008" y="303.7285">Answer</text><line style="stroke:#181818;stroke-width:0.5;" x1="980" x2="1056" y1="314" y2="314"/><line style="stroke:#181818;stroke-width:0.5;" x1="980" x2="1056" y1="322" y2="322"/></g><!--class Student--><g id="elem_Student"><rect codeLine="29" fill="#F1F1F1" height="48" id="Student" rx="2.5" ry="2.5" style="stroke:#181818;stroke-width:0.5;" width="81" x="655.5" y="282"/><ellipse cx="670.5" cy="298" fill="#ADD1B2" rx="11" ry="11" style="stroke:#181818;stroke-width:1.0;"/><path d="M673.2656,293.875 Q673.4219,293.6563 673.6094,293.5469 Q673.7969,293.4375 674.0156,293.4375 Q674.3906,293.4375 674.625,293.7031 Q674.8594,293.9531 674.8594,294.5625 L674.8594,296.0156 Q674.8594,296.625 674.625,296.8906 Q674.3906,297.1563 674.0156,297.1563 Q673.6719,297.1563 673.4688,296.9531 Q673.2656,296.7656 673.1563,296.25 Q673.1094,295.8906 672.9219,295.7031 Q672.5938,295.3281 671.9844,295.1094 Q671.375,294.8906 670.75,294.8906 Q669.9844,294.8906 669.3438,295.2188 Q668.7188,295.5469 668.2188,296.2969 Q667.7344,297.0469 667.7344,298.0781 L667.7344,299.1719 Q667.7344,300.4063 668.625,301.2344 Q669.5156,302.0469 671.1094,302.0469 Q672.0469,302.0469 672.7031,301.7969 Q673.0938,301.6406 673.5156,301.2031 Q673.7813,300.9375 673.9219,300.8594 Q674.0781,300.7813 674.2813,300.7813 Q674.6094,300.7813 674.8594,301.0469 Q675.125,301.2969 675.125,301.6406 Q675.125,301.9844 674.7813,302.3906 Q674.2813,302.9688 673.4844,303.2969 Q672.4063,303.75 671.1094,303.75 Q669.5938,303.75 668.3906,303.125 Q667.4063,302.625 666.7188,301.5625 Q666.0313,300.4844 666.0313,299.2031 L666.0313,298.0469 Q666.0313,296.7188 666.6406,295.5781 Q667.2656,294.4219 668.3594,293.8125 Q669.4531,293.1875 670.6875,293.1875 Q671.4219,293.1875 672.0625,293.3594 Q672.7188,293.5156 673.2656,293.875 Z " fill="#000000"/><text fill="#000000" font-family="sans-serif" font-size="14" lengthAdjust="spacing" textLength="49" x="684.5" y="303.7285">Student</text><line style="stroke:#181818;stroke-width:0.5;" x1="656.5" x2="735.5" y1="314" y2="314"/><line style="stroke:#181818;stroke-width:0.5;" x1="656.5" x2="735.5" y1="322" y2="322"/></g><!--class Justification--><g id="elem_Justification"><rect codeLine="32" fill="#F1F1F1" height="48" id="Justification" rx="2.5" ry="2.5" style="stroke:#181818;stroke-width:0.5;" width="105" x="887.5" y="996"/><ellipse cx="902.5" cy="1012" fill="#ADD1B2" rx="11" ry="11" style="stroke:#181818;stroke-width:1.0;"/><path d="M905.2656,1007.875 Q905.4219,1007.6563 905.6094,1007.5469 Q905.7969,1007.4375 906.0156,1007.4375 Q906.3906,1007.4375 906.625,1007.7031 Q906.8594,1007.9531 906.8594,1008.5625 L906.8594,1010.0156 Q906.8594,1010.625 906.625,1010.8906 Q906.3906,1011.1563 906.0156,1011.1563 Q905.6719,1011.1563 905.4688,1010.9531 Q905.2656,1010.7656 905.1563,1010.25 Q905.1094,1009.8906 904.9219,1009.7031 Q904.5938,1009.3281 903.9844,1009.1094 Q903.375,1008.8906 902.75,1008.8906 Q901.9844,1008.8906 901.3438,1009.2188 Q900.7188,1009.5469 900.2188,1010.2969 Q899.7344,1011.0469 899.7344,1012.0781 L899.7344,1013.1719 Q899.7344,1014.4063 900.625,1015.2344 Q901.5156,1016.0469 903.1094,1016.0469 Q904.0469,1016.0469 904.7031,1015.7969 Q905.0938,1015.6406 905.5156,1015.2031 Q905.7813,1014.9375 905.9219,1014.8594 Q906.0781,1014.7813 906.2813,1014.7813 Q906.6094,1014.7813 906.8594,1015.0469 Q907.125,1015.2969 907.125,1015.6406 Q907.125,1015.9844 906.7813,1016.3906 Q906.2813,1016.9688 905.4844,1017.2969 Q904.4063,1017.75 903.1094,1017.75 Q901.5938,1017.75 900.3906,1017.125 Q899.4063,1016.625 898.7188,1015.5625 Q898.0313,1014.4844 898.0313,1013.2031 L898.0313,1012.0469 Q898.0313,1010.7188 898.6406,1009.5781 Q899.2656,1008.4219 900.3594,1007.8125 Q901.4531,1007.1875 902.6875,1007.1875 Q903.4219,1007.1875 904.0625,1007.3594 Q904.7188,1007.5156 905.2656,1007.875 Z " fill="#000000"/><text fill="#000000" font-family="sans-serif" font-size="14" lengthAdjust="spacing" textLength="73" x="916.5" y="1017.7285">Justification</text><line style="stroke:#181818;stroke-width:0.5;" x1="888.5" x2="991.5" y1="1028" y2="1028"/><line style="stroke:#181818;stroke-width:0.5;" x1="888.5" x2="991.5" y1="1036" y2="1036"/></g><!--class Teacher--><g id="elem_Teacher"><rect codeLine="26" fill="#F1F1F1" height="48" id="Teacher" rx="2.5" ry="2.5" style="stroke:#181818;stroke-width:0.5;" width="85" x="535.5" y="282"/><ellipse cx="550.5" cy="298" fill="#ADD1B2" rx="11" ry="11" style="stroke:#181818;stroke-width:1.0;"/><path d="M553.2656,293.875 Q553.4219,293.6563 553.6094,293.5469 Q553.7969,293.4375 554.0156,293.4375 Q554.3906,293.4375 554.625,293.7031 Q554.8594,293.9531 554.8594,294.5625 L554.8594,296.0156 Q554.8594,296.625 554.625,296.8906 Q554.3906,297.1563 554.0156,297.1563 Q553.6719,297.1563 553.4688,296.9531 Q553.2656,296.7656 553.1563,296.25 Q553.1094,295.8906 552.9219,295.7031 Q552.5938,295.3281 551.9844,295.1094 Q551.375,294.8906 550.75,294.8906 Q549.9844,294.8906 549.3438,295.2188 Q548.7188,295.5469 548.2188,296.2969 Q547.7344,297.0469 547.7344,298.0781 L547.7344,299.1719 Q547.7344,300.4063 548.625,301.2344 Q549.5156,302.0469 551.1094,302.0469 Q552.0469,302.0469 552.7031,301.7969 Q553.0938,301.6406 553.5156,301.2031 Q553.7813,300.9375 553.9219,300.8594 Q554.0781,300.7813 554.2813,300.7813 Q554.6094,300.7813 554.8594,301.0469 Q555.125,301.2969 555.125,301.6406 Q555.125,301.9844 554.7813,302.3906 Q554.2813,302.9688 553.4844,303.2969 Q552.4063,303.75 551.1094,303.75 Q549.5938,303.75 548.3906,303.125 Q547.4063,302.625 546.7188,301.5625 Q546.0313,300.4844 546.0313,299.2031 L546.0313,298.0469 Q546.0313,296.7188 546.6406,295.5781 Q547.2656,294.4219 548.3594,293.8125 Q549.4531,293.1875 550.6875,293.1875 Q551.4219,293.1875 552.0625,293.3594 Q552.7188,293.5156 553.2656,293.875 Z " fill="#000000"/><text fill="#000000" font-family="sans-serif" font-size="14" lengthAdjust="spacing" textLength="53" x="564.5" y="303.7285">Teacher</text><line style="stroke:#181818;stroke-width:0.5;" x1="536.5" x2="619.5" y1="314" y2="314"/><line style="stroke:#181818;stroke-width:0.5;" x1="536.5" x2="619.5" y1="322" y2="322"/></g><!--link EducationPlatform to User--><g id="link_EducationPlatform_User"><path codeLine="2" d="M637,67.13 C637,89.49 637,105.18 637,127.5 " fill="none" id="EducationPlatform-User" style="stroke:#008000;stroke-width:1.0;"/><polygon fill="#008000" points="637,55.13,633,61.13,637,67.13,641,61.13,637,55.13" style="stroke:#008000;stroke-width:1.0;"/><polygon fill="#008000" points="637,133.5,641,124.5,637,128.5,633,124.5,637,133.5" style="stroke:#008000;stroke-width:1.0;"/><text fill="#000000" font-family="sans-serif" font-size="13" lengthAdjust="spacing" textLength="8" x="627.975" y="122.8402">+</text></g><!--link EducationPlatform to Topic--><g id="link_EducationPlatform_Topic"><path codeLine="3" d="M551.3078,41.7688 C459.9078,53.5088 323.55,76.59 286,116 C203.42,202.68 210.2727,356.2318 216.4327,415.7918 " fill="none" id="EducationPlatform-Topic" style="stroke:#008000;stroke-width:1.0;"/><polygon fill="#008000" points="563.21,40.24,556.7493,37.037,551.3078,41.7688,557.7685,44.9718,563.21,40.24" style="stroke:#008000;stroke-width:1.0;"/><polygon fill="#008000" points="217.05,421.76,220.1029,412.3962,216.5356,416.7865,212.1453,413.2193,217.05,421.76" style="stroke:#008000;stroke-width:1.0;"/></g><!--link EducationPlatform to Itinerary--><g id="link_EducationPlatform_Itinerary"><path codeLine="4" d="M551.4646,42.9247 C467.8046,55.0747 350.99,77.78 322,116 C284.71,165.16 290.2748,237.4265 296.4948,275.9965 " fill="none" id="EducationPlatform-Itinerary" style="stroke:#008000;stroke-width:1.0;"/><polygon fill="#008000" points="563.34,41.2,556.8274,38.1039,551.4646,42.9247,557.9772,46.0208,563.34,41.2" style="stroke:#008000;stroke-width:1.0;"/><polygon fill="#008000" points="297.45,281.92,299.9661,272.398,296.654,276.9838,292.0681,273.6716,297.45,281.92" style="stroke:#008000;stroke-width:1.0;"/><text fill="#000000" font-family="sans-serif" font-size="13" lengthAdjust="spacing" textLength="59" x="323" y="162.9951">predefined</text></g><!--link EducationPlatform to Itinerary--><g id="link_EducationPlatform_Itinerary"><path codeLine="5" d="M555.384,59.2965 C532.954,67.6465 519.61,73.65 498,85 C476.5,96.3 470.75,99.43 453,116 C418.55,148.16 416.41,162.17 387,199 C364.19,227.57 341.5977,255.7225 324.3577,277.1825 " fill="none" id="EducationPlatform-Itinerary-1" style="stroke:#008000;stroke-width:1.0;"/><polygon fill="none" points="566.63,55.11,559.6115,53.4546,555.384,59.2965,562.4025,60.9519,566.63,55.11" style="stroke:#008000;stroke-width:1.0;"/><polygon fill="#008000" points="320.6,281.86,329.355,277.3488,323.7314,277.962,323.1182,272.3385,320.6,281.86" style="stroke:#008000;stroke-width:1.0;"/><text fill="#000000" font-family="sans-serif" font-size="13" lengthAdjust="spacing" textLength="43" x="454" y="162.9951">custom</text><text fill="#000000" font-family="sans-serif" font-size="13" lengthAdjust="spacing" textLength="5" x="319.7256" y="271.1643">*</text></g><!--link EducationPlatform to Evaluator--><g id="link_EducationPlatform_Evaluator"><path codeLine="6" d="M722.2285,55.7958 C778.5585,71.8858 846.41,92.2 915,116 C933.79,122.52 948.6478,128.1649 966.3278,135.2249 " fill="none" id="EducationPlatform-Evaluator" style="stroke:#008000;stroke-width:1.0;"/><polygon fill="#008000" points="710.69,52.5,715.3606,57.9941,722.2285,55.7958,717.5579,50.3017,710.69,52.5" style="stroke:#008000;stroke-width:1.0;"/><polygon fill="#008000" points="971.9,137.45,965.0251,130.3976,967.2565,135.5958,962.0584,137.8272,971.9,137.45" style="stroke:#008000;stroke-width:1.0;"/></g><!--link EducationPlatform to Question--><g id="link_EducationPlatform_Question"><path codeLine="7" d="M722.65,38.0689 C834.32,47.2089 1027.26,69.02 1082,116 C1171.17,192.53 1181.7183,340.1 1181.8483,406.82 " fill="none" id="EducationPlatform-Question" style="stroke:#008000;stroke-width:1.0;"/><polygon fill="#008000" points="710.69,37.09,716.3437,41.5661,722.65,38.0689,716.9963,33.5928,710.69,37.09" style="stroke:#008000;stroke-width:1.0;"/><polygon fill="#008000" points="1181.86,412.82,1185.8425,403.8122,1181.8503,407.82,1177.8425,403.8278,1181.86,412.82" style="stroke:#008000;stroke-width:1.0;"/><text fill="#000000" font-family="sans-serif" font-size="13" lengthAdjust="spacing" textLength="5" x="1176.5217" y="401.8983">*</text></g><!--link EducationPlatform to Domain--><g id="link_EducationPlatform_Domain"><path codeLine="8" d="M611.6331,64.6398 C584.1431,101.0798 540.02,165.7 518,238 C499.79,297.78 499.5519,365.6164 501.4719,406.9964 " fill="none" id="EducationPlatform-Domain" style="stroke:#008000;stroke-width:1.0;"/><polygon fill="#008000" points="618.86,55.06,612.0533,57.4409,611.6331,64.6398,618.4398,62.2589,618.86,55.06" style="stroke:#008000;stroke-width:1.0;"/><polygon fill="#008000" points="501.75,412.99,505.3286,403.8143,501.5183,407.9954,497.3372,404.1851,501.75,412.99" style="stroke:#008000;stroke-width:1.0;"/><text fill="#000000" font-family="sans-serif" font-size="13" lengthAdjust="spacing" textLength="5" x="495.7703" y="402.1033">*</text></g><!--link EducationPlatform to Solution--><g id="link_EducationPlatform_Solution"><path codeLine="9" d="M681.3173,61.8272 C706.6073,78.8372 726.7126,92.3696 756.6326,112.5096 " fill="none" id="EducationPlatform-Solution" style="stroke:#008000;stroke-width:1.0;"/><polygon fill="#008000" points="671.36,55.13,674.1062,61.7977,681.3173,61.8272,678.571,55.1595,671.36,55.13" style="stroke:#008000;stroke-width:1.0;"/><polygon fill="#008000" points="761.61,115.86,756.3775,107.5161,757.4622,113.068,751.9103,114.1526,761.61,115.86" style="stroke:#008000;stroke-width:1.0;"/><text fill="#000000" font-family="sans-serif" font-size="13" lengthAdjust="spacing" textLength="5" x="746.1938" y="105.1445">*</text></g><!--link EducationPlatform to KnowledgeBase--><g id="link_EducationPlatform_KnowledgeBase"><path codeLine="10" d="M722.5137,34.4488 C943.4037,41.6088 1574,69.53 1574,156.5 C1574,156.5 1574,156.5 1574,447 C1574,488.42 1587.5004,528.9677 1598.4404,556.0177 " fill="none" id="EducationPlatform-KnowledgeBase" style="stroke:#008000;stroke-width:1.0;"/><polygon fill="#008000" points="710.52,34.06,716.3873,38.2523,722.5137,34.4488,716.6464,30.2565,710.52,34.06" style="stroke:#008000;stroke-width:1.0;"/><polygon fill="#008000" points="1600.69,561.58,1601.0238,551.7368,1598.8153,556.9447,1593.6074,554.7363,1600.69,561.58" style="stroke:#008000;stroke-width:1.0;"/></g><!--reverse link Solution to Application--><g id="link_Solution_Application"><path codeLine="16" d="M822,217.31 C822,243.89 822,259.62 822,281.73 " fill="none" id="Solution-backto-Application" style="stroke:#181818;stroke-width:1.0;"/><polygon fill="none" points="822,199.31,816,217.31,828,217.31,822,199.31" style="stroke:#181818;stroke-width:1.0;"/></g><!--reverse link Solution to Answer--><g id="link_Solution_Answer"><path codeLine="17" d="M913.4941,203.5267 C931.3641,213.5367 934.12,216.36 950,229 C969.4,244.43 987.91,265.72 1000.71,281.84 " fill="none" id="Solution-backto-Answer" style="stroke:#181818;stroke-width:1.0;"/><polygon fill="none" points="897.79,194.73,910.5618,208.7614,916.4263,198.292,897.79,194.73" style="stroke:#181818;stroke-width:1.0;"/></g><!--link Solution to Student--><g id="link_Solution_Student"><path codeLine="18" d="M786.9,199.31 C764.04,225.89 738.9429,255.0714 719.9229,277.1814 " fill="none" id="Solution-to-Student" style="stroke:#181818;stroke-width:1.0;"/><polygon fill="#181818" points="716.01,281.73,724.9117,277.5157,719.2707,277.9395,718.8469,272.2986,716.01,281.73" style="stroke:#181818;stroke-width:1.0;"/></g><!--link Solution to Justification--><g id="link_Solution_Justification"><path codeLine="19" d="M873.2913,208.3291 C883.0513,219.8891 884.42,224 890,238 C958.04,408.74 911,467.21 911,651 C911,651 911,651 911,842 C911,897.74 923.7057,956.254 932.2357,989.904 " fill="none" id="Solution-Justification" style="stroke:#181818;stroke-width:1.0;"/><polygon fill="#181818" points="865.55,199.16,866.3643,206.325,873.2913,208.3291,872.477,201.1641,865.55,199.16" style="stroke:#181818;stroke-width:1.0;"/><polygon fill="#181818" points="933.71,995.72,935.3759,986.0131,932.4814,990.8733,927.6212,987.9788,933.71,995.72" style="stroke:#181818;stroke-width:1.0;"/><text fill="#000000" font-family="sans-serif" font-size="13" lengthAdjust="spacing" textLength="100" x="919" y="591.4951">[!solution.correct]</text><text fill="#000000" font-family="sans-serif" font-size="13" lengthAdjust="spacing" textLength="5" x="926.4576" y="984.9884">*</text></g><!--reverse link User to Teacher--><g id="link_User_Teacher"><path codeLine="23" d="M620.9262,198.407 C609.8762,225.847 598.33,254.51 587.3,281.9 " fill="none" id="User-backto-Teacher" style="stroke:#181818;stroke-width:1.0;"/><polygon fill="none" points="627.65,181.71,615.3605,196.1657,626.4918,200.6483,627.65,181.71" style="stroke:#181818;stroke-width:1.0;"/></g><!--reverse link User to Student--><g id="link_User_Student"><path codeLine="24" d="M653.0738,198.407 C664.1238,225.847 675.67,254.51 686.7,281.9 " fill="none" id="User-backto-Student" style="stroke:#181818;stroke-width:1.0;"/><polygon fill="none" points="646.35,181.71,647.5082,200.6483,658.6395,196.1657,646.35,181.71" style="stroke:#181818;stroke-width:1.0;"/></g><!--link Itinerary to Topic--><g id="link_Itinerary_Topic"><path codeLine="39" d="M282.1484,340.4152 C267.0084,365.8852 251.9837,391.1612 236.8337,416.6712 " fill="none" id="Itinerary-Topic" style="stroke:#181818;stroke-width:1.0;"/><polygon fill="none" points="288.28,330.1,281.7758,333.2137,282.1484,340.4152,288.6526,337.3015,288.28,330.1" style="stroke:#181818;stroke-width:1.0;"/><polygon fill="#181818" points="233.77,421.83,241.8048,416.1343,236.3231,417.531,234.9264,412.0493,233.77,421.83" style="stroke:#181818;stroke-width:1.0;"/><text fill="#000000" font-family="sans-serif" font-size="13" lengthAdjust="spacing" textLength="8" x="228.2736" y="411.1266">+</text></g><!--reverse link Topic to CompositeTopic--><g id="link_Topic_CompositeTopic"><path codeLine="43" d="M207.4519,487.8905 C203.5319,513.3605 206.27,536.32 210.18,561.83 " fill="none" id="Topic-backto-CompositeTopic" style="stroke:#181818;stroke-width:1.0;"/><polygon fill="none" points="210.19,470.1,201.5217,486.9778,213.3821,488.8032,210.19,470.1" style="stroke:#181818;stroke-width:1.0;"/></g><!--link CompositeTopic to Topic--><g id="link_CompositeTopic_Topic"><path codeLine="55" d="M232.3223,549.985 C236.4623,524.475 235.4949,501.4919 231.3449,476.0219 " fill="none" id="CompositeTopic-Topic" style="stroke:#181818;stroke-width:1.0;"/><polygon fill="none" points="230.4,561.83,235.3095,556.5483,232.3223,549.985,227.4128,555.2667,230.4,561.83" style="stroke:#181818;stroke-width:1.0;"/><polygon fill="#181818" points="230.38,470.1,227.8794,479.6261,231.1841,475.0349,235.7753,478.3396,230.38,470.1" style="stroke:#181818;stroke-width:1.0;"/><text fill="#000000" font-family="sans-serif" font-size="13" lengthAdjust="spacing" textLength="8" x="223.9351" y="491.4623">+</text></g><!--reverse link Topic to SimpleTopic--><g id="link_Topic_SimpleTopic"><path codeLine="44" d="M261.6735,481.6006 C278.1435,495.3606 285.52,501.72 304,518 C320.26,532.33 338.2,548.78 352.23,561.8 " fill="none" id="Topic-backto-SimpleTopic" style="stroke:#181818;stroke-width:1.0;"/><polygon fill="none" points="247.86,470.06,257.8267,486.2051,265.5204,476.9961,247.86,470.06" style="stroke:#181818;stroke-width:1.0;"/></g><!--link Topic to Document--><g id="link_Topic_Document"><path codeLine="45" d="M181.3177,477.8162 C164.6377,491.3362 152.9,501.39 135,518 C119.92,532 107.9148,544.2332 95.5048,557.4032 " fill="none" id="Topic-Document" style="stroke:#181818;stroke-width:1.0;"/><polygon fill="#181818" points="190.64,470.26,183.4602,470.9307,181.3177,477.8162,188.4976,477.1455,190.64,470.26" style="stroke:#181818;stroke-width:1.0;"/><polygon fill="#181818" points="91.39,561.77,100.4733,557.963,94.819,558.131,94.651,552.4767,91.39,561.77" style="stroke:#181818;stroke-width:1.0;"/><text fill="#000000" font-family="sans-serif" font-size="13" lengthAdjust="spacing" textLength="5" x="91.2306" y="551.0512">*</text></g><!--link SimpleTopic to Concept--><g id="link_SimpleTopic_Concept"><path codeLine="51" d="M443.7107,595.2609 C534.3707,606.3809 709.41,627.34 868,643 C1134,669.26 1448.3362,693.0593 1562.2562,701.4493 " fill="none" id="SimpleTopic-Concept" style="stroke:#181818;stroke-width:1.0;"/><polygon fill="none" points="431.8,593.8,437.2684,598.5007,443.7107,595.2609,438.2423,590.5602,431.8,593.8" style="stroke:#181818;stroke-width:1.0;"/><polygon fill="#181818" points="1568.24,701.89,1559.5581,697.2398,1563.2535,701.5228,1558.9705,705.2182,1568.24,701.89" style="stroke:#181818;stroke-width:1.0;"/><text fill="#000000" font-family="sans-serif" font-size="13" lengthAdjust="spacing" textLength="8" x="1552.4954" y="697.4085">+</text></g><!--reverse link KnowledgeBase to Concept--><g id="link_KnowledgeBase_Concept"><path codeLine="62" d="M1611,622.03 C1611,642.69 1611,660.86 1611,681.62 " fill="none" id="KnowledgeBase-backto-Concept" style="stroke:#181818;stroke-width:1.0;"/><polygon fill="#181818" points="1611,610.03,1607,616.03,1611,622.03,1615,616.03,1611,610.03" style="stroke:#181818;stroke-width:1.0;"/><text fill="#000000" font-family="sans-serif" font-size="13" lengthAdjust="spacing" textLength="8" x="1602.025" y="671.2653">+</text></g><!--link Concept to Definition--><g id="link_Concept_Definition"><path codeLine="66" d="M1611,742.17 C1611,763.6 1611,777.67 1611,801.63 " fill="none" id="Concept-Definition" style="stroke:#181818;stroke-width:1.0;"/><polygon fill="#181818" points="1611,730.17,1607,736.17,1611,742.17,1615,736.17,1611,730.17" style="stroke:#181818;stroke-width:1.0;"/><polygon fill="#181818" points="1611,807.63,1615,798.63,1611,802.63,1607,798.63,1611,807.63" style="stroke:#181818;stroke-width:1.0;"/><text fill="#000000" font-family="sans-serif" font-size="13" lengthAdjust="spacing" textLength="8" x="1602.2125" y="797.0535">+</text></g><!--link Concept to Relation--><g id="link_Concept_Relation"><path codeLine="67" d="M1635.7969,739.7012 C1647.1569,754.1812 1655.33,763.33 1671,778 C1686.08,792.12 1699.4807,802.5106 1715.1507,813.5206 " fill="none" id="Concept-Relation" style="stroke:#181818;stroke-width:1.0;"/><polygon fill="#181818" points="1628.39,730.26,1628.9464,737.4496,1635.7969,739.7012,1635.2406,732.5116,1628.39,730.26" style="stroke:#181818;stroke-width:1.0;"/><polygon fill="#181818" points="1720.06,816.97,1714.9956,808.523,1715.9689,814.0955,1710.3964,815.0688,1720.06,816.97" style="stroke:#181818;stroke-width:1.0;"/><text fill="#000000" font-family="sans-serif" font-size="13" lengthAdjust="spacing" textLength="31" x="1672" y="774.4951">origin</text><text fill="#000000" font-family="sans-serif" font-size="13" lengthAdjust="spacing" textLength="5" x="1705.466" y="806.3025">*</text></g><!--link Relation to Concept--><g id="link_Relation_Concept"><path codeLine="77" d="M1745.45,816.73 C1737.44,799.44 1724.66,776.15 1708,760 C1692.57,745.04 1677.4712,735.6429 1659.3012,726.8529 " fill="none" id="Relation-to-Concept" style="stroke:#181818;stroke-width:1.0;"/><polygon fill="#181818" points="1653.9,724.24,1660.2598,731.7601,1658.401,726.4174,1663.7437,724.5586,1653.9,724.24" style="stroke:#181818;stroke-width:1.0;"/><text fill="#000000" font-family="sans-serif" font-size="13" lengthAdjust="spacing" textLength="33" x="1723" y="774.4951">target</text></g><!--link Definition to Justification--><g id="link_Definition_Justification"><path codeLine="73" d="M1532.6068,862.6804 C1399.1868,897.8704 1119.5315,971.6394 998.5815,1003.5494 " fill="none" id="Definition-Justification" style="stroke:#181818;stroke-width:1.0;"/><polygon fill="#181818" points="1544.21,859.62,1537.3883,857.2825,1532.6068,862.6804,1539.4285,865.0179,1544.21,859.62" style="stroke:#181818;stroke-width:1.0;"/><polygon fill="#181818" points="992.78,1005.08,1002.5026,1006.6518,997.6146,1003.8045,1000.4618,998.9164,992.78,1005.08" style="stroke:#181818;stroke-width:1.0;"/><text fill="#000000" font-family="sans-serif" font-size="13" lengthAdjust="spacing" textLength="106" x="1375" y="918.4951">[!definition.correct]</text><text fill="#000000" font-family="sans-serif" font-size="13" lengthAdjust="spacing" textLength="5" x="1000.5537" y="999.3767">*</text></g><!--link Relation to RelationType--><g id="link_Relation_RelationType"><path codeLine="78" d="M1751.8299,877.0913 C1749.8399,899.1113 1748.3593,915.4043 1745.5993,945.9843 " fill="none" id="Relation-RelationType" style="stroke:#181818;stroke-width:1.0;"/><polygon fill="#181818" points="1752.91,865.14,1748.3862,870.7556,1751.8299,877.0913,1756.3537,871.4757,1752.91,865.14" style="stroke:#181818;stroke-width:1.0;"/><polygon fill="#181818" points="1745.06,951.96,1749.8528,943.356,1745.5094,946.9802,1741.8852,942.6369,1745.06,951.96" style="stroke:#181818;stroke-width:1.0;"/></g><!--link Domain to SimpleTopic--><g id="link_Domain_SimpleTopic"><path codeLine="93" d="M474.54,479.01 C451.24,504.33 423.3231,534.6651 402.4231,557.3751 " fill="none" id="Domain-to-SimpleTopic" style="stroke:#181818;stroke-width:1.0;"/><polygon fill="#181818" points="398.36,561.79,407.3979,557.8763,401.7459,558.1109,401.5113,552.4589,398.36,561.79" style="stroke:#181818;stroke-width:1.0;"/><text fill="#000000" font-family="sans-serif" font-size="13" lengthAdjust="spacing" textLength="8" x="394.8085" y="551.0763">+</text></g><!--reverse link Domain to Domain--><g id="link_Domain_Domain"><path codeLine="94" d="M556.0935,433.8026 C574.7135,432.5626 579,437.16 579,446 C579,454.84 562.74,458.64 544.12,457.4 " fill="none" id="Domain-backto-Domain" style="stroke:#181818;stroke-width:1.0;"/><polygon fill="#181818" points="544.12,434.6,550.3725,438.1925,556.0935,433.8026,549.8409,430.2102,544.12,434.6" style="stroke:#181818;stroke-width:1.0;"/><text fill="#000000" font-family="sans-serif" font-size="13" lengthAdjust="spacing" textLength="5" x="551.9781" y="455.5904">*</text></g><!--link Application to Domain--><g id="link_Application_Domain"><path codeLine="99" d="M771.26,329.02 C708.31,356.34 607.7441,399.9814 549.9741,425.0514 " fill="none" id="Application-to-Domain" style="stroke:#181818;stroke-width:1.0;"/><polygon fill="#181818" points="544.47,427.44,554.3185,427.5265,549.0567,425.4495,551.1337,420.1878,544.47,427.44" style="stroke:#181818;stroke-width:1.0;"/><text fill="#000000" font-family="sans-serif" font-size="13" lengthAdjust="spacing" textLength="5" x="552.124" y="420.2702">*</text></g><!--reverse link Question to MultipleChoice--><g id="link_Question_MultipleChoice"><path codeLine="106" d="M1181,497.01 C1181,522.33 1181,539.08 1181,561.79 " fill="none" id="Question-backto-MultipleChoice" style="stroke:#181818;stroke-width:1.0;"/><polygon fill="none" points="1181,479.01,1175,497.01,1187,497.01,1181,479.01" style="stroke:#181818;stroke-width:1.0;"/></g><!--reverse link Question to Cloze--><g id="link_Question_Cloze"><path codeLine="107" d="M1231.335,491.2029 C1244.975,503.2629 1247.03,505.21 1261,518 C1273.25,529.21 1286.53,541.66 1298.25,552.75 " fill="none" id="Question-backto-Cloze" style="stroke:#181818;stroke-width:1.0;"/><polygon fill="none" points="1217.85,479.28,1227.3607,495.6979,1235.3093,486.7079,1217.85,479.28" style="stroke:#181818;stroke-width:1.0;"/></g><!--reverse link Question to Open--><g id="link_Question_Open"><path codeLine="108" d="M1260.6274,459.9252 C1307.8674,469.4152 1355.07,484.15 1403,518 C1419.12,529.38 1432.42,547.39 1441.39,561.87 " fill="none" id="Question-backto-Open" style="stroke:#181818;stroke-width:1.0;"/><polygon fill="none" points="1242.98,456.38,1259.4457,465.8077,1261.8092,454.0427,1242.98,456.38" style="stroke:#181818;stroke-width:1.0;"/></g><!--link Question to Concept--><g id="link_Question_Concept"><path codeLine="109" d="M1132.54,479.09 C1120.27,489.86 1108.68,503.01 1102,518 C1079.38,568.74 1065.17,601.41 1102,643 C1132.76,677.74 1445.0578,696.7149 1562.1178,702.6749 " fill="none" id="Question-to-Concept" style="stroke:#181818;stroke-width:1.0;"/><polygon fill="#181818" points="1568.11,702.98,1559.325,698.5275,1563.1165,702.7258,1558.9182,706.5172,1568.11,702.98" style="stroke:#181818;stroke-width:1.0;"/><text fill="#000000" font-family="sans-serif" font-size="13" lengthAdjust="spacing" textLength="8" x="1552.6369" y="717.2968">+</text></g><!--link Answer to Question--><g id="link_Answer_Question"><path codeLine="122" d="M1045.28,330.1 C1072.02,352.73 1108.4201,383.5538 1138.3601,408.8938 " fill="none" id="Answer-to-Question" style="stroke:#181818;stroke-width:1.0;"/><polygon fill="#181818" points="1142.94,412.77,1138.6544,403.9025,1139.1235,409.5398,1133.4861,410.0089,1142.94,412.77" style="stroke:#181818;stroke-width:1.0;"/></g><!--link Evaluator to Question--><g id="link_Evaluator_Question"><path codeLine="126" d="M1035.9,181.53 C1047.64,197.08 1062.97,218.28 1075,238 C1111.47,297.81 1144.6709,366.1891 1163.9009,407.5591 " fill="none" id="Evaluator-to-Question" style="stroke:#181818;stroke-width:1.0;"/><polygon fill="#181818" points="1166.43,413,1166.2636,403.1525,1164.3224,408.4659,1159.0091,406.5247,1166.43,413" style="stroke:#181818;stroke-width:1.0;"/></g><!--link Evaluator to Answer--><g id="link_Evaluator_Answer"><path codeLine="127" d="M1018,181.71 C1018,209.15 1018,248.51 1018,275.9 " fill="none" id="Evaluator-to-Answer" style="stroke:#181818;stroke-width:1.0;"/><polygon fill="#181818" points="1018,281.9,1022,272.9,1018,276.9,1014,272.9,1018,281.9" style="stroke:#181818;stroke-width:1.0;"/></g><!--SRC=[ZLNRRjim37ttLsZDmu0EpWSOmu0ixKCt3BkqUog6GR5PLwWiUPAy8ClwxwDrLvgroKCI7nwIXnGfNtPJImsJuWkdvawgWPpNjujU0OWVzJjozkQCVDUWgildUQqK1eHPtiYHjQUIhmmJeAZQaOQC2Zgum-VkYBSi99sV7OtGJjh8uQNSbxyfdwYHBrOqf_arWPuPFpVK652xvLSFdE9y8GVAJc9UIpwT4lL1o2s7hWVKes7vCJo-nwUgeXjj56rD34Vs5S5FZTrI2j3Ga8sK7AZmEBXUG9TP7gle_lPlNHEo6aVEdAe3qqheBKv616kKU6sc3WycWUUrB_837W-xyv6QsrVQCvPUtO-iWddYzYXb_dMvRe2szvWi8I5JrNAgTI3CNXxnX0mf911h66dxG7i80qKMdFNtndPyNzasETSqQAwfZ_OxeRBso-8Mm5fZEHRB_IpWobZBOPIQ6N2E1zPhDepyYIdsz4Asqs2Ra9G6Z2nmeyZ-CRTbuN8v6PmAEHYsjHGjZ4McKdeUiBGSDYThUvd4Tt_39oYQNmowhIjFLbgnDpRLKRqMAeLQ2BqwkHLUvSLy3p4xyCSvsFblmDqKDKGgrZD7VNsKkp86P_F9ESKiVgIUsrMdDdFvxrfraPCjLieQTUTTYE0SD9JG44DL3wPanC82ShCRmIK0CGq5dDM5Qnl_hxIMBQEnl_d0vDYLm7rcXgASvDlZQlR95qSfRhUxRrrER0VqKktGwc0IHZ3VA6-o8vCkR1ykk_Vcc1WfGqXTNl9ne0_V66In0yxbjfZdy1P9_Pa_sg1ekxaDtbsAYJwQtJ45DtSrV9guOLZA-buotw6IiERopp7yymYYX4DlmixOKPvfuRYjrL_t-KBD6L8H6qx5mrfEmZI42HCEAF5BoM42um6w1FErxFvPNV6Dwqdn_JtpueEbFlEsBdY-a7y0]--></g></svg>