<?xml version="1.0" encoding="us-ascii" standalone="no"?><svg xmlns="http://www.w3.org/2000/svg" xmlns:xlink="http://www.w3.org/1999/xlink" contentStyleType="text/css" height="1034px" preserveAspectRatio="none" style="width:1233px;height:1034px;background:#FFFFFF;" version="1.1" viewBox="0 0 1233 1034" width="1233px" zoomAndPan="magnify"><defs/><g><!--cluster Knowledge-Base--><g id="cluster_Knowledge-Base"><path d="M456.5,228 L576.5,228 A3.75,3.75 0 0 1 579,230.5 L586,251.6094 L768.5,251.6094 A2.5,2.5 0 0 1 771,254.1094 L771,1024.5 A2.5,2.5 0 0 1 768.5,1027 L456.5,1027 A2.5,2.5 0 0 1 454,1024.5 L454,230.5 A2.5,2.5 0 0 1 456.5,228 " fill="none" style="stroke:#000000;stroke-width:1.5;"/><line style="stroke:#000000;stroke-width:1.5;" x1="454" x2="586" y1="251.6094" y2="251.6094"/><text fill="#000000" font-family="sans-serif" font-size="14" font-weight="bold" lengthAdjust="spacing" textLength="119" x="458" y="244.5332">Knowledge-Base</text></g><!--class Concept--><g id="elem_Concept"><rect codeLine="12" fill="#F1F1F1" height="48" id="Concept" rx="2.5" ry="2.5" style="stroke:#181818;stroke-width:0.5;" width="85" x="549.5" y="570"/><ellipse cx="564.5" cy="586" fill="#ADD1B2" rx="11" ry="11" style="stroke:#181818;stroke-width:1.0;"/><path d="M567.2656,581.875 Q567.4219,581.6563 567.6094,581.5469 Q567.7969,581.4375 568.0156,581.4375 Q568.3906,581.4375 568.625,581.7031 Q568.8594,581.9531 568.8594,582.5625 L568.8594,584.0156 Q568.8594,584.625 568.625,584.8906 Q568.3906,585.1563 568.0156,585.1563 Q567.6719,585.1563 567.4688,584.9531 Q567.2656,584.7656 567.1563,584.25 Q567.1094,583.8906 566.9219,583.7031 Q566.5938,583.3281 565.9844,583.1094 Q565.375,582.8906 564.75,582.8906 Q563.9844,582.8906 563.3438,583.2188 Q562.7188,583.5469 562.2188,584.2969 Q561.7344,585.0469 561.7344,586.0781 L561.7344,587.1719 Q561.7344,588.4063 562.625,589.2344 Q563.5156,590.0469 565.1094,590.0469 Q566.0469,590.0469 566.7031,589.7969 Q567.0938,589.6406 567.5156,589.2031 Q567.7813,588.9375 567.9219,588.8594 Q568.0781,588.7813 568.2813,588.7813 Q568.6094,588.7813 568.8594,589.0469 Q569.125,589.2969 569.125,589.6406 Q569.125,589.9844 568.7813,590.3906 Q568.2813,590.9688 567.4844,591.2969 Q566.4063,591.75 565.1094,591.75 Q563.5938,591.75 562.3906,591.125 Q561.4063,590.625 560.7188,589.5625 Q560.0313,588.4844 560.0313,587.2031 L560.0313,586.0469 Q560.0313,584.7188 560.6406,583.5781 Q561.2656,582.4219 562.3594,581.8125 Q563.4531,581.1875 564.6875,581.1875 Q565.4219,581.1875 566.0625,581.3594 Q566.7188,581.5156 567.2656,581.875 Z " fill="#000000"/><text fill="#000000" font-family="sans-serif" font-size="14" lengthAdjust="spacing" textLength="53" x="578.5" y="591.7285">Concept</text><line style="stroke:#181818;stroke-width:0.5;" x1="550.5" x2="633.5" y1="602" y2="602"/><line style="stroke:#181818;stroke-width:0.5;" x1="550.5" x2="633.5" y1="610" y2="610"/></g><!--class Definition--><g id="elem_Definition"><rect codeLine="18" fill="#F1F1F1" height="65.6094" id="Definition" rx="2.5" ry="2.5" style="stroke:#181818;stroke-width:0.5;" width="133" x="470.5" y="731"/><ellipse cx="504.4" cy="747" fill="#ADD1B2" rx="11" ry="11" style="stroke:#181818;stroke-width:1.0;"/><path d="M507.1656,742.875 Q507.3219,742.6563 507.5094,742.5469 Q507.6969,742.4375 507.9156,742.4375 Q508.2906,742.4375 508.525,742.7031 Q508.7594,742.9531 508.7594,743.5625 L508.7594,745.0156 Q508.7594,745.625 508.525,745.8906 Q508.2906,746.1563 507.9156,746.1563 Q507.5719,746.1563 507.3688,745.9531 Q507.1656,745.7656 507.0563,745.25 Q507.0094,744.8906 506.8219,744.7031 Q506.4938,744.3281 505.8844,744.1094 Q505.275,743.8906 504.65,743.8906 Q503.8844,743.8906 503.2438,744.2188 Q502.6188,744.5469 502.1188,745.2969 Q501.6344,746.0469 501.6344,747.0781 L501.6344,748.1719 Q501.6344,749.4063 502.525,750.2344 Q503.4156,751.0469 505.0094,751.0469 Q505.9469,751.0469 506.6031,750.7969 Q506.9938,750.6406 507.4156,750.2031 Q507.6813,749.9375 507.8219,749.8594 Q507.9781,749.7813 508.1813,749.7813 Q508.5094,749.7813 508.7594,750.0469 Q509.025,750.2969 509.025,750.6406 Q509.025,750.9844 508.6813,751.3906 Q508.1813,751.9688 507.3844,752.2969 Q506.3063,752.75 505.0094,752.75 Q503.4938,752.75 502.2906,752.125 Q501.3063,751.625 500.6188,750.5625 Q499.9313,749.4844 499.9313,748.2031 L499.9313,747.0469 Q499.9313,745.7188 500.5406,744.5781 Q501.1656,743.4219 502.2594,742.8125 Q503.3531,742.1875 504.5875,742.1875 Q505.3219,742.1875 505.9625,742.3594 Q506.6188,742.5156 507.1656,742.875 Z " fill="#000000"/><text fill="#000000" font-family="sans-serif" font-size="14" lengthAdjust="spacing" textLength="59" x="522.6" y="752.7285">Definition</text><line style="stroke:#181818;stroke-width:0.5;" x1="471.5" x2="602.5" y1="763" y2="763"/><rect fill="none" height="6" style="stroke:#C82930;stroke-width:1.0;" width="6" x="478.5" y="774.3047"/><text fill="#000000" font-family="sans-serif" font-size="14" lengthAdjust="spacing" textLength="107" x="490.5" y="781.5332">correct : boolean</text><line style="stroke:#181818;stroke-width:0.5;" x1="471.5" x2="602.5" y1="788.6094" y2="788.6094"/></g><!--class Relation--><g id="elem_Relation"><rect codeLine="27" fill="#F1F1F1" height="48" id="Relation" rx="2.5" ry="2.5" style="stroke:#181818;stroke-width:0.5;" width="84" x="649" y="740"/><ellipse cx="664" cy="756" fill="#ADD1B2" rx="11" ry="11" style="stroke:#181818;stroke-width:1.0;"/><path d="M666.7656,751.875 Q666.9219,751.6563 667.1094,751.5469 Q667.2969,751.4375 667.5156,751.4375 Q667.8906,751.4375 668.125,751.7031 Q668.3594,751.9531 668.3594,752.5625 L668.3594,754.0156 Q668.3594,754.625 668.125,754.8906 Q667.8906,755.1563 667.5156,755.1563 Q667.1719,755.1563 666.9688,754.9531 Q666.7656,754.7656 666.6563,754.25 Q666.6094,753.8906 666.4219,753.7031 Q666.0938,753.3281 665.4844,753.1094 Q664.875,752.8906 664.25,752.8906 Q663.4844,752.8906 662.8438,753.2188 Q662.2188,753.5469 661.7188,754.2969 Q661.2344,755.0469 661.2344,756.0781 L661.2344,757.1719 Q661.2344,758.4063 662.125,759.2344 Q663.0156,760.0469 664.6094,760.0469 Q665.5469,760.0469 666.2031,759.7969 Q666.5938,759.6406 667.0156,759.2031 Q667.2813,758.9375 667.4219,758.8594 Q667.5781,758.7813 667.7813,758.7813 Q668.1094,758.7813 668.3594,759.0469 Q668.625,759.2969 668.625,759.6406 Q668.625,759.9844 668.2813,760.3906 Q667.7813,760.9688 666.9844,761.2969 Q665.9063,761.75 664.6094,761.75 Q663.0938,761.75 661.8906,761.125 Q660.9063,760.625 660.2188,759.5625 Q659.5313,758.4844 659.5313,757.2031 L659.5313,756.0469 Q659.5313,754.7188 660.1406,753.5781 Q660.7656,752.4219 661.8594,751.8125 Q662.9531,751.1875 664.1875,751.1875 Q664.9219,751.1875 665.5625,751.3594 Q666.2188,751.5156 666.7656,751.875 Z " fill="#000000"/><text fill="#000000" font-family="sans-serif" font-size="14" lengthAdjust="spacing" textLength="52" x="678" y="761.7285">Relation</text><line style="stroke:#181818;stroke-width:0.5;" x1="650" x2="732" y1="772" y2="772"/><line style="stroke:#181818;stroke-width:0.5;" x1="650" x2="732" y1="780" y2="780"/></g><!--class Justification--><g id="elem_Justification"><rect codeLine="23" fill="#F1F1F1" height="65.6094" id="Justification" rx="2.5" ry="2.5" style="stroke:#181818;stroke-width:0.5;" width="133" x="470.5" y="910"/><ellipse cx="498.1" cy="926" fill="#ADD1B2" rx="11" ry="11" style="stroke:#181818;stroke-width:1.0;"/><path d="M500.8656,921.875 Q501.0219,921.6563 501.2094,921.5469 Q501.3969,921.4375 501.6156,921.4375 Q501.9906,921.4375 502.225,921.7031 Q502.4594,921.9531 502.4594,922.5625 L502.4594,924.0156 Q502.4594,924.625 502.225,924.8906 Q501.9906,925.1563 501.6156,925.1563 Q501.2719,925.1563 501.0688,924.9531 Q500.8656,924.7656 500.7563,924.25 Q500.7094,923.8906 500.5219,923.7031 Q500.1938,923.3281 499.5844,923.1094 Q498.975,922.8906 498.35,922.8906 Q497.5844,922.8906 496.9438,923.2188 Q496.3188,923.5469 495.8188,924.2969 Q495.3344,925.0469 495.3344,926.0781 L495.3344,927.1719 Q495.3344,928.4063 496.225,929.2344 Q497.1156,930.0469 498.7094,930.0469 Q499.6469,930.0469 500.3031,929.7969 Q500.6938,929.6406 501.1156,929.2031 Q501.3813,928.9375 501.5219,928.8594 Q501.6781,928.7813 501.8813,928.7813 Q502.2094,928.7813 502.4594,929.0469 Q502.725,929.2969 502.725,929.6406 Q502.725,929.9844 502.3813,930.3906 Q501.8813,930.9688 501.0844,931.2969 Q500.0063,931.75 498.7094,931.75 Q497.1938,931.75 495.9906,931.125 Q495.0063,930.625 494.3188,929.5625 Q493.6313,928.4844 493.6313,927.2031 L493.6313,926.0469 Q493.6313,924.7188 494.2406,923.5781 Q494.8656,922.4219 495.9594,921.8125 Q497.0531,921.1875 498.2875,921.1875 Q499.0219,921.1875 499.6625,921.3594 Q500.3188,921.5156 500.8656,921.875 Z " fill="#000000"/><text fill="#000000" font-family="sans-serif" font-size="14" lengthAdjust="spacing" textLength="73" x="514.9" y="931.7285">Justification</text><line style="stroke:#181818;stroke-width:0.5;" x1="471.5" x2="602.5" y1="942" y2="942"/><rect fill="none" height="6" style="stroke:#C82930;stroke-width:1.0;" width="6" x="478.5" y="953.3047"/><text fill="#000000" font-family="sans-serif" font-size="14" lengthAdjust="spacing" textLength="107" x="490.5" y="960.5332">correct : boolean</text><line style="stroke:#181818;stroke-width:0.5;" x1="471.5" x2="602.5" y1="967.6094" y2="967.6094"/></g><!--class RelationType--><g id="elem_RelationType"><rect codeLine="32" fill="#F1F1F1" height="136.0469" id="RelationType" rx="2.5" ry="2.5" style="stroke:#181818;stroke-width:0.5;" width="116" x="639" y="875"/><ellipse cx="654" cy="891" fill="#EB937F" rx="11" ry="11" style="stroke:#181818;stroke-width:1.0;"/><path d="M652.8594,891.7969 L652.8594,894.2969 L657.1875,894.2969 L657.1875,893.375 Q657.1875,892.7656 657.4219,892.5 Q657.6719,892.2344 658.0469,892.2344 Q658.4219,892.2344 658.6563,892.5 Q658.8906,892.7656 658.8906,893.375 L658.8906,896 L650.8906,896 Q650.2656,896 650,895.7656 Q649.75,895.5313 649.75,895.1406 Q649.75,894.7656 650.0156,894.5313 Q650.2813,894.2969 650.8906,894.2969 L651.1563,894.2969 L651.1563,887.6406 L650.8906,887.6406 Q650.2656,887.6406 650,887.4063 Q649.75,887.1719 649.75,886.7813 Q649.75,886.4063 650,886.1719 Q650.2656,885.9375 650.8906,885.9375 L658.5156,885.9375 L658.5156,888.5313 Q658.5156,889.1406 658.2813,889.4063 Q658.0625,889.6563 657.6719,889.6563 Q657.2969,889.6563 657.0625,889.4063 Q656.8281,889.1406 656.8281,888.5313 L656.8281,887.6406 L652.8594,887.6406 L652.8594,890.0938 L654.3438,890.0938 Q654.3438,889.4375 654.4688,889.25 Q654.7344,888.8438 655.2031,888.8438 Q655.5781,888.8438 655.8125,889.1094 Q656.0469,889.3594 656.0469,889.9688 L656.0469,891.9375 Q656.0469,892.4844 655.9219,892.6719 Q655.6563,893.0625 655.2031,893.0625 Q654.7344,893.0625 654.4688,892.6563 Q654.3438,892.4688 654.3438,891.7969 L652.8594,891.7969 Z " fill="#000000"/><text fill="#000000" font-family="sans-serif" font-size="14" lengthAdjust="spacing" textLength="84" x="668" y="896.7285">RelationType</text><line style="stroke:#181818;stroke-width:0.5;" x1="640" x2="754" y1="907" y2="907"/><text fill="#000000" font-family="sans-serif" font-size="14" lengthAdjust="spacing" textLength="24" x="645" y="925.5332">Use</text><text fill="#000000" font-family="sans-serif" font-size="14" lengthAdjust="spacing" textLength="72" x="645" y="943.1426">Association</text><text fill="#000000" font-family="sans-serif" font-size="14" lengthAdjust="spacing" textLength="78" x="645" y="960.752">Composition</text><text fill="#000000" font-family="sans-serif" font-size="14" lengthAdjust="spacing" textLength="70" x="645" y="978.3613">Inheritance</text><text fill="#000000" font-family="sans-serif" font-size="14" lengthAdjust="spacing" textLength="77" x="645" y="995.9707">Aggregation</text><line style="stroke:#181818;stroke-width:0.5;" x1="640" x2="754" y1="1003.0469" y2="1003.0469"/></g><!--class Domain--><g id="elem_Domain"><rect codeLine="40" fill="#F1F1F1" height="48" id="Domain" rx="2.5" ry="2.5" style="stroke:#181818;stroke-width:0.5;" width="80" x="489" y="264"/><ellipse cx="504" cy="280" fill="#ADD1B2" rx="11" ry="11" style="stroke:#181818;stroke-width:1.0;"/><path d="M506.7656,275.875 Q506.9219,275.6563 507.1094,275.5469 Q507.2969,275.4375 507.5156,275.4375 Q507.8906,275.4375 508.125,275.7031 Q508.3594,275.9531 508.3594,276.5625 L508.3594,278.0156 Q508.3594,278.625 508.125,278.8906 Q507.8906,279.1563 507.5156,279.1563 Q507.1719,279.1563 506.9688,278.9531 Q506.7656,278.7656 506.6563,278.25 Q506.6094,277.8906 506.4219,277.7031 Q506.0938,277.3281 505.4844,277.1094 Q504.875,276.8906 504.25,276.8906 Q503.4844,276.8906 502.8438,277.2188 Q502.2188,277.5469 501.7188,278.2969 Q501.2344,279.0469 501.2344,280.0781 L501.2344,281.1719 Q501.2344,282.4063 502.125,283.2344 Q503.0156,284.0469 504.6094,284.0469 Q505.5469,284.0469 506.2031,283.7969 Q506.5938,283.6406 507.0156,283.2031 Q507.2813,282.9375 507.4219,282.8594 Q507.5781,282.7813 507.7813,282.7813 Q508.1094,282.7813 508.3594,283.0469 Q508.625,283.2969 508.625,283.6406 Q508.625,283.9844 508.2813,284.3906 Q507.7813,284.9688 506.9844,285.2969 Q505.9063,285.75 504.6094,285.75 Q503.0938,285.75 501.8906,285.125 Q500.9063,284.625 500.2188,283.5625 Q499.5313,282.4844 499.5313,281.2031 L499.5313,280.0469 Q499.5313,278.7188 500.1406,277.5781 Q500.7656,276.4219 501.8594,275.8125 Q502.9531,275.1875 504.1875,275.1875 Q504.9219,275.1875 505.5625,275.3594 Q506.2188,275.5156 506.7656,275.875 Z " fill="#000000"/><text fill="#000000" font-family="sans-serif" font-size="14" lengthAdjust="spacing" textLength="48" x="518" y="285.7285">Domain</text><line style="stroke:#181818;stroke-width:0.5;" x1="490" x2="568" y1="296" y2="296"/><line style="stroke:#181818;stroke-width:0.5;" x1="490" x2="568" y1="304" y2="304"/></g><!--class Application--><g id="elem_Application"><rect codeLine="45" fill="#F1F1F1" height="83.2188" id="Application" rx="2.5" ry="2.5" style="stroke:#181818;stroke-width:0.5;" width="109" x="502.5" y="382"/><ellipse cx="521.1" cy="398" fill="#ADD1B2" rx="11" ry="11" style="stroke:#181818;stroke-width:1.0;"/><path d="M523.8656,393.875 Q524.0219,393.6563 524.2094,393.5469 Q524.3969,393.4375 524.6156,393.4375 Q524.9906,393.4375 525.225,393.7031 Q525.4594,393.9531 525.4594,394.5625 L525.4594,396.0156 Q525.4594,396.625 525.225,396.8906 Q524.9906,397.1563 524.6156,397.1563 Q524.2719,397.1563 524.0688,396.9531 Q523.8656,396.7656 523.7563,396.25 Q523.7094,395.8906 523.5219,395.7031 Q523.1938,395.3281 522.5844,395.1094 Q521.975,394.8906 521.35,394.8906 Q520.5844,394.8906 519.9438,395.2188 Q519.3188,395.5469 518.8188,396.2969 Q518.3344,397.0469 518.3344,398.0781 L518.3344,399.1719 Q518.3344,400.4063 519.225,401.2344 Q520.1156,402.0469 521.7094,402.0469 Q522.6469,402.0469 523.3031,401.7969 Q523.6938,401.6406 524.1156,401.2031 Q524.3813,400.9375 524.5219,400.8594 Q524.6781,400.7813 524.8813,400.7813 Q525.2094,400.7813 525.4594,401.0469 Q525.725,401.2969 525.725,401.6406 Q525.725,401.9844 525.3813,402.3906 Q524.8813,402.9688 524.0844,403.2969 Q523.0063,403.75 521.7094,403.75 Q520.1938,403.75 518.9906,403.125 Q518.0063,402.625 517.3188,401.5625 Q516.6313,400.4844 516.6313,399.2031 L516.6313,398.0469 Q516.6313,396.7188 517.2406,395.5781 Q517.8656,394.4219 518.9594,393.8125 Q520.0531,393.1875 521.2875,393.1875 Q522.0219,393.1875 522.6625,393.3594 Q523.3188,393.5156 523.8656,393.875 Z " fill="#000000"/><text fill="#000000" font-family="sans-serif" font-size="14" lengthAdjust="spacing" textLength="69" x="535.9" y="403.7285">Application</text><line style="stroke:#181818;stroke-width:0.5;" x1="503.5" x2="610.5" y1="414" y2="414"/><rect fill="none" height="6" style="stroke:#C82930;stroke-width:1.0;" width="6" x="510.5" y="425.3047"/><text fill="#000000" font-family="sans-serif" font-size="14" lengthAdjust="spacing" textLength="46" x="522.5" y="432.5332">version</text><rect fill="none" height="6" style="stroke:#C82930;stroke-width:1.0;" width="6" x="510.5" y="442.9141"/><text fill="#000000" font-family="sans-serif" font-size="14" lengthAdjust="spacing" textLength="83" x="522.5" y="450.1426">requirements</text><line style="stroke:#181818;stroke-width:0.5;" x1="503.5" x2="610.5" y1="457.2188" y2="457.2188"/></g><!--class EducationPlatform--><g id="elem_EducationPlatform"><rect codeLine="2" fill="#F1F1F1" height="48" id="EducationPlatform" rx="2.5" ry="2.5" style="stroke:#181818;stroke-width:0.5;" width="147" x="272.5" y="7"/><ellipse cx="287.5" cy="23" fill="#ADD1B2" rx="11" ry="11" style="stroke:#181818;stroke-width:1.0;"/><path d="M290.2656,18.875 Q290.4219,18.6563 290.6094,18.5469 Q290.7969,18.4375 291.0156,18.4375 Q291.3906,18.4375 291.625,18.7031 Q291.8594,18.9531 291.8594,19.5625 L291.8594,21.0156 Q291.8594,21.625 291.625,21.8906 Q291.3906,22.1563 291.0156,22.1563 Q290.6719,22.1563 290.4688,21.9531 Q290.2656,21.7656 290.1563,21.25 Q290.1094,20.8906 289.9219,20.7031 Q289.5938,20.3281 288.9844,20.1094 Q288.375,19.8906 287.75,19.8906 Q286.9844,19.8906 286.3438,20.2188 Q285.7188,20.5469 285.2188,21.2969 Q284.7344,22.0469 284.7344,23.0781 L284.7344,24.1719 Q284.7344,25.4063 285.625,26.2344 Q286.5156,27.0469 288.1094,27.0469 Q289.0469,27.0469 289.7031,26.7969 Q290.0938,26.6406 290.5156,26.2031 Q290.7813,25.9375 290.9219,25.8594 Q291.0781,25.7813 291.2813,25.7813 Q291.6094,25.7813 291.8594,26.0469 Q292.125,26.2969 292.125,26.6406 Q292.125,26.9844 291.7813,27.3906 Q291.2813,27.9688 290.4844,28.2969 Q289.4063,28.75 288.1094,28.75 Q286.5938,28.75 285.3906,28.125 Q284.4063,27.625 283.7188,26.5625 Q283.0313,25.4844 283.0313,24.2031 L283.0313,23.0469 Q283.0313,21.7188 283.6406,20.5781 Q284.2656,19.4219 285.3594,18.8125 Q286.4531,18.1875 287.6875,18.1875 Q288.4219,18.1875 289.0625,18.3594 Q289.7188,18.5156 290.2656,18.875 Z " fill="#000000"/><text fill="#000000" font-family="sans-serif" font-size="14" lengthAdjust="spacing" textLength="115" x="301.5" y="28.7285">EducationPlatform</text><line style="stroke:#181818;stroke-width:0.5;" x1="273.5" x2="418.5" y1="39" y2="39"/><line style="stroke:#181818;stroke-width:0.5;" x1="273.5" x2="418.5" y1="47" y2="47"/></g><!--class Teacher--><g id="elem_Teacher"><rect fill="#F1F1F1" height="48" id="Teacher" rx="2.5" ry="2.5" style="stroke:#181818;stroke-width:0.5;" width="85" x="33.5" y="133"/><ellipse cx="48.5" cy="149" fill="#ADD1B2" rx="11" ry="11" style="stroke:#181818;stroke-width:1.0;"/><path d="M51.2656,144.875 Q51.4219,144.6563 51.6094,144.5469 Q51.7969,144.4375 52.0156,144.4375 Q52.3906,144.4375 52.625,144.7031 Q52.8594,144.9531 52.8594,145.5625 L52.8594,147.0156 Q52.8594,147.625 52.625,147.8906 Q52.3906,148.1563 52.0156,148.1563 Q51.6719,148.1563 51.4688,147.9531 Q51.2656,147.7656 51.1563,147.25 Q51.1094,146.8906 50.9219,146.7031 Q50.5938,146.3281 49.9844,146.1094 Q49.375,145.8906 48.75,145.8906 Q47.9844,145.8906 47.3438,146.2188 Q46.7188,146.5469 46.2188,147.2969 Q45.7344,148.0469 45.7344,149.0781 L45.7344,150.1719 Q45.7344,151.4063 46.625,152.2344 Q47.5156,153.0469 49.1094,153.0469 Q50.0469,153.0469 50.7031,152.7969 Q51.0938,152.6406 51.5156,152.2031 Q51.7813,151.9375 51.9219,151.8594 Q52.0781,151.7813 52.2813,151.7813 Q52.6094,151.7813 52.8594,152.0469 Q53.125,152.2969 53.125,152.6406 Q53.125,152.9844 52.7813,153.3906 Q52.2813,153.9688 51.4844,154.2969 Q50.4063,154.75 49.1094,154.75 Q47.5938,154.75 46.3906,154.125 Q45.4063,153.625 44.7188,152.5625 Q44.0313,151.4844 44.0313,150.2031 L44.0313,149.0469 Q44.0313,147.7188 44.6406,146.5781 Q45.2656,145.4219 46.3594,144.8125 Q47.4531,144.1875 48.6875,144.1875 Q49.4219,144.1875 50.0625,144.3594 Q50.7188,144.5156 51.2656,144.875 Z " fill="#000000"/><text fill="#000000" font-family="sans-serif" font-size="14" lengthAdjust="spacing" textLength="53" x="62.5" y="154.7285">Teacher</text><line style="stroke:#181818;stroke-width:0.5;" x1="34.5" x2="117.5" y1="165" y2="165"/><line style="stroke:#181818;stroke-width:0.5;" x1="34.5" x2="117.5" y1="173" y2="173"/></g><!--class Student--><g id="elem_Student"><rect fill="#F1F1F1" height="48" id="Student" rx="2.5" ry="2.5" style="stroke:#181818;stroke-width:0.5;" width="81" x="153.5" y="133"/><ellipse cx="168.5" cy="149" fill="#ADD1B2" rx="11" ry="11" style="stroke:#181818;stroke-width:1.0;"/><path d="M171.2656,144.875 Q171.4219,144.6563 171.6094,144.5469 Q171.7969,144.4375 172.0156,144.4375 Q172.3906,144.4375 172.625,144.7031 Q172.8594,144.9531 172.8594,145.5625 L172.8594,147.0156 Q172.8594,147.625 172.625,147.8906 Q172.3906,148.1563 172.0156,148.1563 Q171.6719,148.1563 171.4688,147.9531 Q171.2656,147.7656 171.1563,147.25 Q171.1094,146.8906 170.9219,146.7031 Q170.5938,146.3281 169.9844,146.1094 Q169.375,145.8906 168.75,145.8906 Q167.9844,145.8906 167.3438,146.2188 Q166.7188,146.5469 166.2188,147.2969 Q165.7344,148.0469 165.7344,149.0781 L165.7344,150.1719 Q165.7344,151.4063 166.625,152.2344 Q167.5156,153.0469 169.1094,153.0469 Q170.0469,153.0469 170.7031,152.7969 Q171.0938,152.6406 171.5156,152.2031 Q171.7813,151.9375 171.9219,151.8594 Q172.0781,151.7813 172.2813,151.7813 Q172.6094,151.7813 172.8594,152.0469 Q173.125,152.2969 173.125,152.6406 Q173.125,152.9844 172.7813,153.3906 Q172.2813,153.9688 171.4844,154.2969 Q170.4063,154.75 169.1094,154.75 Q167.5938,154.75 166.3906,154.125 Q165.4063,153.625 164.7188,152.5625 Q164.0313,151.4844 164.0313,150.2031 L164.0313,149.0469 Q164.0313,147.7188 164.6406,146.5781 Q165.2656,145.4219 166.3594,144.8125 Q167.4531,144.1875 168.6875,144.1875 Q169.4219,144.1875 170.0625,144.3594 Q170.7188,144.5156 171.2656,144.875 Z " fill="#000000"/><text fill="#000000" font-family="sans-serif" font-size="14" lengthAdjust="spacing" textLength="49" x="182.5" y="154.7285">Student</text><line style="stroke:#181818;stroke-width:0.5;" x1="154.5" x2="233.5" y1="165" y2="165"/><line style="stroke:#181818;stroke-width:0.5;" x1="154.5" x2="233.5" y1="173" y2="173"/></g><!--class Topic--><g id="elem_Topic"><rect codeLine="58" fill="#F1F1F1" height="48" id="Topic" rx="2.5" ry="2.5" style="stroke:#181818;stroke-width:0.5;" width="67" x="225.5" y="264"/><ellipse cx="240.5" cy="280" fill="#A9DCDF" rx="11" ry="11" style="stroke:#181818;stroke-width:1.0;"/><path d="M242.6875,281.7656 L238.5469,281.7656 L238.125,282.7969 L238.5469,282.7969 Q239.1563,282.7969 239.4219,283.0313 Q239.6875,283.2656 239.6875,283.6563 Q239.6875,284.0313 239.4219,284.2656 Q239.1563,284.5 238.5469,284.5 L236.25,284.5 Q235.6406,284.5 235.3906,284.2656 Q235.125,284.0313 235.125,283.6406 Q235.125,283.2656 235.4063,283.0313 Q235.6719,282.7813 236.2969,282.7969 L238.9688,276.1406 L237.8594,276.1406 Q237.25,276.1406 236.9844,275.9063 Q236.7188,275.6719 236.7188,275.2813 Q236.7188,274.9063 236.9844,274.6719 Q237.25,274.4375 237.8594,274.4375 L241.5313,274.4375 L244.9219,282.7969 Q245.5156,282.7969 245.7031,282.9375 Q246.0938,283.2031 246.0938,283.6563 Q246.0938,284.0313 245.8281,284.2656 Q245.5781,284.5 244.9688,284.5 L242.6719,284.5 Q242.0625,284.5 241.7969,284.2656 Q241.5313,284.0313 241.5313,283.6406 Q241.5313,283.2656 241.7969,283.0313 Q242.0625,282.7969 242.6719,282.7969 L243.0938,282.7969 L242.6875,281.7656 Z M241.9688,280.0625 L240.6094,276.6875 L239.2344,280.0625 L241.9688,280.0625 Z " fill="#000000"/><text fill="#000000" font-family="sans-serif" font-size="14" font-style="italic" lengthAdjust="spacing" textLength="35" x="254.5" y="285.7285">Topic</text><line style="stroke:#181818;stroke-width:0.5;" x1="226.5" x2="291.5" y1="296" y2="296"/><line style="stroke:#181818;stroke-width:0.5;" x1="226.5" x2="291.5" y1="304" y2="304"/></g><!--class Itinerary--><g id="elem_Itinerary"><rect codeLine="54" fill="#F1F1F1" height="48" id="Itinerary" rx="2.5" ry="2.5" style="stroke:#181818;stroke-width:0.5;" width="83" x="341.5" y="133"/><ellipse cx="356.5" cy="149" fill="#ADD1B2" rx="11" ry="11" style="stroke:#181818;stroke-width:1.0;"/><path d="M359.2656,144.875 Q359.4219,144.6563 359.6094,144.5469 Q359.7969,144.4375 360.0156,144.4375 Q360.3906,144.4375 360.625,144.7031 Q360.8594,144.9531 360.8594,145.5625 L360.8594,147.0156 Q360.8594,147.625 360.625,147.8906 Q360.3906,148.1563 360.0156,148.1563 Q359.6719,148.1563 359.4688,147.9531 Q359.2656,147.7656 359.1563,147.25 Q359.1094,146.8906 358.9219,146.7031 Q358.5938,146.3281 357.9844,146.1094 Q357.375,145.8906 356.75,145.8906 Q355.9844,145.8906 355.3438,146.2188 Q354.7188,146.5469 354.2188,147.2969 Q353.7344,148.0469 353.7344,149.0781 L353.7344,150.1719 Q353.7344,151.4063 354.625,152.2344 Q355.5156,153.0469 357.1094,153.0469 Q358.0469,153.0469 358.7031,152.7969 Q359.0938,152.6406 359.5156,152.2031 Q359.7813,151.9375 359.9219,151.8594 Q360.0781,151.7813 360.2813,151.7813 Q360.6094,151.7813 360.8594,152.0469 Q361.125,152.2969 361.125,152.6406 Q361.125,152.9844 360.7813,153.3906 Q360.2813,153.9688 359.4844,154.2969 Q358.4063,154.75 357.1094,154.75 Q355.5938,154.75 354.3906,154.125 Q353.4063,153.625 352.7188,152.5625 Q352.0313,151.4844 352.0313,150.2031 L352.0313,149.0469 Q352.0313,147.7188 352.6406,146.5781 Q353.2656,145.4219 354.3594,144.8125 Q355.4531,144.1875 356.6875,144.1875 Q357.4219,144.1875 358.0625,144.3594 Q358.7188,144.5156 359.2656,144.875 Z " fill="#000000"/><text fill="#000000" font-family="sans-serif" font-size="14" lengthAdjust="spacing" textLength="51" x="370.5" y="154.7285">Itinerary</text><line style="stroke:#181818;stroke-width:0.5;" x1="342.5" x2="423.5" y1="165" y2="165"/><line style="stroke:#181818;stroke-width:0.5;" x1="342.5" x2="423.5" y1="173" y2="173"/></g><!--class Evaluator--><g id="elem_Evaluator"><rect codeLine="87" fill="#F1F1F1" height="48" id="Evaluator" rx="2.5" ry="2.5" style="stroke:#181818;stroke-width:0.5;" width="92" x="699" y="133"/><ellipse cx="714" cy="149" fill="#ADD1B2" rx="11" ry="11" style="stroke:#181818;stroke-width:1.0;"/><path d="M716.7656,144.875 Q716.9219,144.6563 717.1094,144.5469 Q717.2969,144.4375 717.5156,144.4375 Q717.8906,144.4375 718.125,144.7031 Q718.3594,144.9531 718.3594,145.5625 L718.3594,147.0156 Q718.3594,147.625 718.125,147.8906 Q717.8906,148.1563 717.5156,148.1563 Q717.1719,148.1563 716.9688,147.9531 Q716.7656,147.7656 716.6563,147.25 Q716.6094,146.8906 716.4219,146.7031 Q716.0938,146.3281 715.4844,146.1094 Q714.875,145.8906 714.25,145.8906 Q713.4844,145.8906 712.8438,146.2188 Q712.2188,146.5469 711.7188,147.2969 Q711.2344,148.0469 711.2344,149.0781 L711.2344,150.1719 Q711.2344,151.4063 712.125,152.2344 Q713.0156,153.0469 714.6094,153.0469 Q715.5469,153.0469 716.2031,152.7969 Q716.5938,152.6406 717.0156,152.2031 Q717.2813,151.9375 717.4219,151.8594 Q717.5781,151.7813 717.7813,151.7813 Q718.1094,151.7813 718.3594,152.0469 Q718.625,152.2969 718.625,152.6406 Q718.625,152.9844 718.2813,153.3906 Q717.7813,153.9688 716.9844,154.2969 Q715.9063,154.75 714.6094,154.75 Q713.0938,154.75 711.8906,154.125 Q710.9063,153.625 710.2188,152.5625 Q709.5313,151.4844 709.5313,150.2031 L709.5313,149.0469 Q709.5313,147.7188 710.1406,146.5781 Q710.7656,145.4219 711.8594,144.8125 Q712.9531,144.1875 714.1875,144.1875 Q714.9219,144.1875 715.5625,144.3594 Q716.2188,144.5156 716.7656,144.875 Z " fill="#000000"/><text fill="#000000" font-family="sans-serif" font-size="14" lengthAdjust="spacing" textLength="60" x="728" y="154.7285">Evaluator</text><line style="stroke:#181818;stroke-width:0.5;" x1="700" x2="790" y1="165" y2="165"/><line style="stroke:#181818;stroke-width:0.5;" x1="700" x2="790" y1="173" y2="173"/></g><!--class CompositeTopic--><g id="elem_CompositeTopic"><rect codeLine="68" fill="#F1F1F1" height="65.6094" id="CompositeTopic" rx="2.5" ry="2.5" style="stroke:#181818;stroke-width:0.5;" width="148" x="7" y="390.5"/><ellipse cx="28.3" cy="406.5" fill="#ADD1B2" rx="11" ry="11" style="stroke:#181818;stroke-width:1.0;"/><path d="M31.0656,402.375 Q31.2219,402.1563 31.4094,402.0469 Q31.5969,401.9375 31.8156,401.9375 Q32.1906,401.9375 32.425,402.2031 Q32.6594,402.4531 32.6594,403.0625 L32.6594,404.5156 Q32.6594,405.125 32.425,405.3906 Q32.1906,405.6563 31.8156,405.6563 Q31.4719,405.6563 31.2688,405.4531 Q31.0656,405.2656 30.9563,404.75 Q30.9094,404.3906 30.7219,404.2031 Q30.3938,403.8281 29.7844,403.6094 Q29.175,403.3906 28.55,403.3906 Q27.7844,403.3906 27.1438,403.7188 Q26.5188,404.0469 26.0188,404.7969 Q25.5344,405.5469 25.5344,406.5781 L25.5344,407.6719 Q25.5344,408.9063 26.425,409.7344 Q27.3156,410.5469 28.9094,410.5469 Q29.8469,410.5469 30.5031,410.2969 Q30.8938,410.1406 31.3156,409.7031 Q31.5813,409.4375 31.7219,409.3594 Q31.8781,409.2813 32.0813,409.2813 Q32.4094,409.2813 32.6594,409.5469 Q32.925,409.7969 32.925,410.1406 Q32.925,410.4844 32.5813,410.8906 Q32.0813,411.4688 31.2844,411.7969 Q30.2063,412.25 28.9094,412.25 Q27.3938,412.25 26.1906,411.625 Q25.2063,411.125 24.5188,410.0625 Q23.8313,408.9844 23.8313,407.7031 L23.8313,406.5469 Q23.8313,405.2188 24.4406,404.0781 Q25.0656,402.9219 26.1594,402.3125 Q27.2531,401.6875 28.4875,401.6875 Q29.2219,401.6875 29.8625,401.8594 Q30.5188,402.0156 31.0656,402.375 Z " fill="#000000"/><text fill="#000000" font-family="sans-serif" font-size="14" lengthAdjust="spacing" textLength="102" x="43.7" y="412.2285">CompositeTopic</text><line style="stroke:#181818;stroke-width:0.5;" x1="8" x2="154" y1="422.5" y2="422.5"/><rect fill="none" height="6" style="stroke:#C82930;stroke-width:1.0;" width="6" x="15" y="433.8047"/><text fill="#000000" font-family="sans-serif" font-size="14" lengthAdjust="spacing" textLength="122" x="27" y="441.0332">topics : List&lt;Topic&gt;</text><line style="stroke:#181818;stroke-width:0.5;" x1="8" x2="154" y1="448.1094" y2="448.1094"/></g><!--class SimpleTopic--><g id="elem_SimpleTopic"><rect codeLine="64" fill="#F1F1F1" height="48" id="SimpleTopic" rx="2.5" ry="2.5" style="stroke:#181818;stroke-width:0.5;" width="109" x="328.5" y="399.5"/><ellipse cx="343.5" cy="415.5" fill="#ADD1B2" rx="11" ry="11" style="stroke:#181818;stroke-width:1.0;"/><path d="M346.2656,411.375 Q346.4219,411.1563 346.6094,411.0469 Q346.7969,410.9375 347.0156,410.9375 Q347.3906,410.9375 347.625,411.2031 Q347.8594,411.4531 347.8594,412.0625 L347.8594,413.5156 Q347.8594,414.125 347.625,414.3906 Q347.3906,414.6563 347.0156,414.6563 Q346.6719,414.6563 346.4688,414.4531 Q346.2656,414.2656 346.1563,413.75 Q346.1094,413.3906 345.9219,413.2031 Q345.5938,412.8281 344.9844,412.6094 Q344.375,412.3906 343.75,412.3906 Q342.9844,412.3906 342.3438,412.7188 Q341.7188,413.0469 341.2188,413.7969 Q340.7344,414.5469 340.7344,415.5781 L340.7344,416.6719 Q340.7344,417.9063 341.625,418.7344 Q342.5156,419.5469 344.1094,419.5469 Q345.0469,419.5469 345.7031,419.2969 Q346.0938,419.1406 346.5156,418.7031 Q346.7813,418.4375 346.9219,418.3594 Q347.0781,418.2813 347.2813,418.2813 Q347.6094,418.2813 347.8594,418.5469 Q348.125,418.7969 348.125,419.1406 Q348.125,419.4844 347.7813,419.8906 Q347.2813,420.4688 346.4844,420.7969 Q345.4063,421.25 344.1094,421.25 Q342.5938,421.25 341.3906,420.625 Q340.4063,420.125 339.7188,419.0625 Q339.0313,417.9844 339.0313,416.7031 L339.0313,415.5469 Q339.0313,414.2188 339.6406,413.0781 Q340.2656,411.9219 341.3594,411.3125 Q342.4531,410.6875 343.6875,410.6875 Q344.4219,410.6875 345.0625,410.8594 Q345.7188,411.0156 346.2656,411.375 Z " fill="#000000"/><text fill="#000000" font-family="sans-serif" font-size="14" lengthAdjust="spacing" textLength="77" x="357.5" y="421.2285">SimpleTopic</text><line style="stroke:#181818;stroke-width:0.5;" x1="329.5" x2="436.5" y1="431.5" y2="431.5"/><line style="stroke:#181818;stroke-width:0.5;" x1="329.5" x2="436.5" y1="439.5" y2="439.5"/></g><!--class Attachment--><g id="elem_Attachment"><rect codeLine="73" fill="#F1F1F1" height="48" id="Attachment" rx="2.5" ry="2.5" style="stroke:#181818;stroke-width:0.5;" width="103" x="190.5" y="399.5"/><ellipse cx="205.5" cy="415.5" fill="#ADD1B2" rx="11" ry="11" style="stroke:#181818;stroke-width:1.0;"/><path d="M208.2656,411.375 Q208.4219,411.1563 208.6094,411.0469 Q208.7969,410.9375 209.0156,410.9375 Q209.3906,410.9375 209.625,411.2031 Q209.8594,411.4531 209.8594,412.0625 L209.8594,413.5156 Q209.8594,414.125 209.625,414.3906 Q209.3906,414.6563 209.0156,414.6563 Q208.6719,414.6563 208.4688,414.4531 Q208.2656,414.2656 208.1563,413.75 Q208.1094,413.3906 207.9219,413.2031 Q207.5938,412.8281 206.9844,412.6094 Q206.375,412.3906 205.75,412.3906 Q204.9844,412.3906 204.3438,412.7188 Q203.7188,413.0469 203.2188,413.7969 Q202.7344,414.5469 202.7344,415.5781 L202.7344,416.6719 Q202.7344,417.9063 203.625,418.7344 Q204.5156,419.5469 206.1094,419.5469 Q207.0469,419.5469 207.7031,419.2969 Q208.0938,419.1406 208.5156,418.7031 Q208.7813,418.4375 208.9219,418.3594 Q209.0781,418.2813 209.2813,418.2813 Q209.6094,418.2813 209.8594,418.5469 Q210.125,418.7969 210.125,419.1406 Q210.125,419.4844 209.7813,419.8906 Q209.2813,420.4688 208.4844,420.7969 Q207.4063,421.25 206.1094,421.25 Q204.5938,421.25 203.3906,420.625 Q202.4063,420.125 201.7188,419.0625 Q201.0313,417.9844 201.0313,416.7031 L201.0313,415.5469 Q201.0313,414.2188 201.6406,413.0781 Q202.2656,411.9219 203.3594,411.3125 Q204.4531,410.6875 205.6875,410.6875 Q206.4219,410.6875 207.0625,410.8594 Q207.7188,411.0156 208.2656,411.375 Z " fill="#000000"/><text fill="#000000" font-family="sans-serif" font-size="14" lengthAdjust="spacing" textLength="71" x="219.5" y="421.2285">Attachment</text><line style="stroke:#181818;stroke-width:0.5;" x1="191.5" x2="292.5" y1="431.5" y2="431.5"/><line style="stroke:#181818;stroke-width:0.5;" x1="191.5" x2="292.5" y1="439.5" y2="439.5"/></g><!--class Podcast--><g id="elem_Podcast"><rect fill="#F1F1F1" height="48" id="Podcast" rx="2.5" ry="2.5" style="stroke:#181818;stroke-width:0.5;" width="83" x="295.5" y="570"/><ellipse cx="310.5" cy="586" fill="#ADD1B2" rx="11" ry="11" style="stroke:#181818;stroke-width:1.0;"/><path d="M313.2656,581.875 Q313.4219,581.6563 313.6094,581.5469 Q313.7969,581.4375 314.0156,581.4375 Q314.3906,581.4375 314.625,581.7031 Q314.8594,581.9531 314.8594,582.5625 L314.8594,584.0156 Q314.8594,584.625 314.625,584.8906 Q314.3906,585.1563 314.0156,585.1563 Q313.6719,585.1563 313.4688,584.9531 Q313.2656,584.7656 313.1563,584.25 Q313.1094,583.8906 312.9219,583.7031 Q312.5938,583.3281 311.9844,583.1094 Q311.375,582.8906 310.75,582.8906 Q309.9844,582.8906 309.3438,583.2188 Q308.7188,583.5469 308.2188,584.2969 Q307.7344,585.0469 307.7344,586.0781 L307.7344,587.1719 Q307.7344,588.4063 308.625,589.2344 Q309.5156,590.0469 311.1094,590.0469 Q312.0469,590.0469 312.7031,589.7969 Q313.0938,589.6406 313.5156,589.2031 Q313.7813,588.9375 313.9219,588.8594 Q314.0781,588.7813 314.2813,588.7813 Q314.6094,588.7813 314.8594,589.0469 Q315.125,589.2969 315.125,589.6406 Q315.125,589.9844 314.7813,590.3906 Q314.2813,590.9688 313.4844,591.2969 Q312.4063,591.75 311.1094,591.75 Q309.5938,591.75 308.3906,591.125 Q307.4063,590.625 306.7188,589.5625 Q306.0313,588.4844 306.0313,587.2031 L306.0313,586.0469 Q306.0313,584.7188 306.6406,583.5781 Q307.2656,582.4219 308.3594,581.8125 Q309.4531,581.1875 310.6875,581.1875 Q311.4219,581.1875 312.0625,581.3594 Q312.7188,581.5156 313.2656,581.875 Z " fill="#000000"/><text fill="#000000" font-family="sans-serif" font-size="14" lengthAdjust="spacing" textLength="51" x="324.5" y="591.7285">Podcast</text><line style="stroke:#181818;stroke-width:0.5;" x1="296.5" x2="377.5" y1="602" y2="602"/><line style="stroke:#181818;stroke-width:0.5;" x1="296.5" x2="377.5" y1="610" y2="610"/></g><!--class Video--><g id="elem_Video"><rect fill="#F1F1F1" height="48" id="Video" rx="2.5" ry="2.5" style="stroke:#181818;stroke-width:0.5;" width="68" x="121" y="570"/><ellipse cx="136" cy="586" fill="#ADD1B2" rx="11" ry="11" style="stroke:#181818;stroke-width:1.0;"/><path d="M138.7656,581.875 Q138.9219,581.6563 139.1094,581.5469 Q139.2969,581.4375 139.5156,581.4375 Q139.8906,581.4375 140.125,581.7031 Q140.3594,581.9531 140.3594,582.5625 L140.3594,584.0156 Q140.3594,584.625 140.125,584.8906 Q139.8906,585.1563 139.5156,585.1563 Q139.1719,585.1563 138.9688,584.9531 Q138.7656,584.7656 138.6563,584.25 Q138.6094,583.8906 138.4219,583.7031 Q138.0938,583.3281 137.4844,583.1094 Q136.875,582.8906 136.25,582.8906 Q135.4844,582.8906 134.8438,583.2188 Q134.2188,583.5469 133.7188,584.2969 Q133.2344,585.0469 133.2344,586.0781 L133.2344,587.1719 Q133.2344,588.4063 134.125,589.2344 Q135.0156,590.0469 136.6094,590.0469 Q137.5469,590.0469 138.2031,589.7969 Q138.5938,589.6406 139.0156,589.2031 Q139.2813,588.9375 139.4219,588.8594 Q139.5781,588.7813 139.7813,588.7813 Q140.1094,588.7813 140.3594,589.0469 Q140.625,589.2969 140.625,589.6406 Q140.625,589.9844 140.2813,590.3906 Q139.7813,590.9688 138.9844,591.2969 Q137.9063,591.75 136.6094,591.75 Q135.0938,591.75 133.8906,591.125 Q132.9063,590.625 132.2188,589.5625 Q131.5313,588.4844 131.5313,587.2031 L131.5313,586.0469 Q131.5313,584.7188 132.1406,583.5781 Q132.7656,582.4219 133.8594,581.8125 Q134.9531,581.1875 136.1875,581.1875 Q136.9219,581.1875 137.5625,581.3594 Q138.2188,581.5156 138.7656,581.875 Z " fill="#000000"/><text fill="#000000" font-family="sans-serif" font-size="14" lengthAdjust="spacing" textLength="36" x="150" y="591.7285">Video</text><line style="stroke:#181818;stroke-width:0.5;" x1="122" x2="188" y1="602" y2="602"/><line style="stroke:#181818;stroke-width:0.5;" x1="122" x2="188" y1="610" y2="610"/></g><!--class Text--><g id="elem_Text"><rect codeLine="81" fill="#F1F1F1" height="65.6094" id="Text" rx="2.5" ry="2.5" style="stroke:#181818;stroke-width:0.5;" width="71" x="206.5" y="731"/><ellipse cx="226.9" cy="747" fill="#ADD1B2" rx="11" ry="11" style="stroke:#181818;stroke-width:1.0;"/><path d="M229.6656,742.875 Q229.8219,742.6563 230.0094,742.5469 Q230.1969,742.4375 230.4156,742.4375 Q230.7906,742.4375 231.025,742.7031 Q231.2594,742.9531 231.2594,743.5625 L231.2594,745.0156 Q231.2594,745.625 231.025,745.8906 Q230.7906,746.1563 230.4156,746.1563 Q230.0719,746.1563 229.8688,745.9531 Q229.6656,745.7656 229.5563,745.25 Q229.5094,744.8906 229.3219,744.7031 Q228.9938,744.3281 228.3844,744.1094 Q227.775,743.8906 227.15,743.8906 Q226.3844,743.8906 225.7438,744.2188 Q225.1188,744.5469 224.6188,745.2969 Q224.1344,746.0469 224.1344,747.0781 L224.1344,748.1719 Q224.1344,749.4063 225.025,750.2344 Q225.9156,751.0469 227.5094,751.0469 Q228.4469,751.0469 229.1031,750.7969 Q229.4938,750.6406 229.9156,750.2031 Q230.1813,749.9375 230.3219,749.8594 Q230.4781,749.7813 230.6813,749.7813 Q231.0094,749.7813 231.2594,750.0469 Q231.525,750.2969 231.525,750.6406 Q231.525,750.9844 231.1813,751.3906 Q230.6813,751.9688 229.8844,752.2969 Q228.8063,752.75 227.5094,752.75 Q225.9938,752.75 224.7906,752.125 Q223.8063,751.625 223.1188,750.5625 Q222.4313,749.4844 222.4313,748.2031 L222.4313,747.0469 Q222.4313,745.7188 223.0406,744.5781 Q223.6656,743.4219 224.7594,742.8125 Q225.8531,742.1875 227.0875,742.1875 Q227.8219,742.1875 228.4625,742.3594 Q229.1188,742.5156 229.6656,742.875 Z " fill="#000000"/><text fill="#000000" font-family="sans-serif" font-size="14" lengthAdjust="spacing" textLength="27" x="242.1" y="752.7285">Text</text><line style="stroke:#181818;stroke-width:0.5;" x1="207.5" x2="276.5" y1="763" y2="763"/><rect fill="none" height="6" style="stroke:#C82930;stroke-width:1.0;" width="6" x="214.5" y="774.3047"/><text fill="#000000" font-family="sans-serif" font-size="14" lengthAdjust="spacing" textLength="45" x="226.5" y="781.5332">images</text><line style="stroke:#181818;stroke-width:0.5;" x1="207.5" x2="276.5" y1="788.6094" y2="788.6094"/></g><!--class Question--><g id="elem_Question"><rect codeLine="91" fill="#F1F1F1" height="48" id="Question" rx="2.5" ry="2.5" style="stroke:#181818;stroke-width:0.5;" width="89" x="818.5" y="264"/><ellipse cx="833.5" cy="280" fill="#ADD1B2" rx="11" ry="11" style="stroke:#181818;stroke-width:1.0;"/><path d="M836.2656,275.875 Q836.4219,275.6563 836.6094,275.5469 Q836.7969,275.4375 837.0156,275.4375 Q837.3906,275.4375 837.625,275.7031 Q837.8594,275.9531 837.8594,276.5625 L837.8594,278.0156 Q837.8594,278.625 837.625,278.8906 Q837.3906,279.1563 837.0156,279.1563 Q836.6719,279.1563 836.4688,278.9531 Q836.2656,278.7656 836.1563,278.25 Q836.1094,277.8906 835.9219,277.7031 Q835.5938,277.3281 834.9844,277.1094 Q834.375,276.8906 833.75,276.8906 Q832.9844,276.8906 832.3438,277.2188 Q831.7188,277.5469 831.2188,278.2969 Q830.7344,279.0469 830.7344,280.0781 L830.7344,281.1719 Q830.7344,282.4063 831.625,283.2344 Q832.5156,284.0469 834.1094,284.0469 Q835.0469,284.0469 835.7031,283.7969 Q836.0938,283.6406 836.5156,283.2031 Q836.7813,282.9375 836.9219,282.8594 Q837.0781,282.7813 837.2813,282.7813 Q837.6094,282.7813 837.8594,283.0469 Q838.125,283.2969 838.125,283.6406 Q838.125,283.9844 837.7813,284.3906 Q837.2813,284.9688 836.4844,285.2969 Q835.4063,285.75 834.1094,285.75 Q832.5938,285.75 831.3906,285.125 Q830.4063,284.625 829.7188,283.5625 Q829.0313,282.4844 829.0313,281.2031 L829.0313,280.0469 Q829.0313,278.7188 829.6406,277.5781 Q830.2656,276.4219 831.3594,275.8125 Q832.4531,275.1875 833.6875,275.1875 Q834.4219,275.1875 835.0625,275.3594 Q835.7188,275.5156 836.2656,275.875 Z " fill="#000000"/><text fill="#000000" font-family="sans-serif" font-size="14" lengthAdjust="spacing" textLength="57" x="847.5" y="285.7285">Question</text><line style="stroke:#181818;stroke-width:0.5;" x1="819.5" x2="906.5" y1="296" y2="296"/><line style="stroke:#181818;stroke-width:0.5;" x1="819.5" x2="906.5" y1="304" y2="304"/></g><!--class Answer--><g id="elem_Answer"><rect codeLine="117" fill="#F1F1F1" height="100.8281" id="Answer" rx="2.5" ry="2.5" style="stroke:#181818;stroke-width:0.5;" width="151" x="787.5" y="373"/><ellipse cx="835.75" cy="389" fill="#ADD1B2" rx="11" ry="11" style="stroke:#181818;stroke-width:1.0;"/><path d="M838.5156,384.875 Q838.6719,384.6563 838.8594,384.5469 Q839.0469,384.4375 839.2656,384.4375 Q839.6406,384.4375 839.875,384.7031 Q840.1094,384.9531 840.1094,385.5625 L840.1094,387.0156 Q840.1094,387.625 839.875,387.8906 Q839.6406,388.1563 839.2656,388.1563 Q838.9219,388.1563 838.7188,387.9531 Q838.5156,387.7656 838.4063,387.25 Q838.3594,386.8906 838.1719,386.7031 Q837.8438,386.3281 837.2344,386.1094 Q836.625,385.8906 836,385.8906 Q835.2344,385.8906 834.5938,386.2188 Q833.9688,386.5469 833.4688,387.2969 Q832.9844,388.0469 832.9844,389.0781 L832.9844,390.1719 Q832.9844,391.4063 833.875,392.2344 Q834.7656,393.0469 836.3594,393.0469 Q837.2969,393.0469 837.9531,392.7969 Q838.3438,392.6406 838.7656,392.2031 Q839.0313,391.9375 839.1719,391.8594 Q839.3281,391.7813 839.5313,391.7813 Q839.8594,391.7813 840.1094,392.0469 Q840.375,392.2969 840.375,392.6406 Q840.375,392.9844 840.0313,393.3906 Q839.5313,393.9688 838.7344,394.2969 Q837.6563,394.75 836.3594,394.75 Q834.8438,394.75 833.6406,394.125 Q832.6563,393.625 831.9688,392.5625 Q831.2813,391.4844 831.2813,390.2031 L831.2813,389.0469 Q831.2813,387.7188 831.8906,386.5781 Q832.5156,385.4219 833.6094,384.8125 Q834.7031,384.1875 835.9375,384.1875 Q836.6719,384.1875 837.3125,384.3594 Q837.9688,384.5156 838.5156,384.875 Z " fill="#000000"/><text fill="#000000" font-family="sans-serif" font-size="14" lengthAdjust="spacing" textLength="46" x="856.25" y="394.7285">Answer</text><line style="stroke:#181818;stroke-width:0.5;" x1="788.5" x2="937.5" y1="405" y2="405"/><rect fill="none" height="6" style="stroke:#C82930;stroke-width:1.0;" width="6" x="795.5" y="416.3047"/><text fill="#000000" font-family="sans-serif" font-size="14" lengthAdjust="spacing" textLength="107" x="807.5" y="423.5332">correct : boolean</text><rect fill="none" height="6" style="stroke:#C82930;stroke-width:1.0;" width="6" x="795.5" y="433.9141"/><text fill="#000000" font-family="sans-serif" font-size="14" lengthAdjust="spacing" textLength="125" x="807.5" y="441.1426">evaluated : boolean</text><rect fill="none" height="6" style="stroke:#C82930;stroke-width:1.0;" width="6" x="795.5" y="451.5234"/><text fill="#000000" font-family="sans-serif" font-size="14" lengthAdjust="spacing" textLength="117" x="807.5" y="458.752">author: id_Student</text><line style="stroke:#181818;stroke-width:0.5;" x1="788.5" x2="937.5" y1="465.8281" y2="465.8281"/></g><!--class Statement--><g id="elem_Statement"><rect fill="#F1F1F1" height="48" id="Statement" rx="2.5" ry="2.5" style="stroke:#181818;stroke-width:0.5;" width="96" x="974" y="399.5"/><ellipse cx="989" cy="415.5" fill="#ADD1B2" rx="11" ry="11" style="stroke:#181818;stroke-width:1.0;"/><path d="M991.7656,411.375 Q991.9219,411.1563 992.1094,411.0469 Q992.2969,410.9375 992.5156,410.9375 Q992.8906,410.9375 993.125,411.2031 Q993.3594,411.4531 993.3594,412.0625 L993.3594,413.5156 Q993.3594,414.125 993.125,414.3906 Q992.8906,414.6563 992.5156,414.6563 Q992.1719,414.6563 991.9688,414.4531 Q991.7656,414.2656 991.6563,413.75 Q991.6094,413.3906 991.4219,413.2031 Q991.0938,412.8281 990.4844,412.6094 Q989.875,412.3906 989.25,412.3906 Q988.4844,412.3906 987.8438,412.7188 Q987.2188,413.0469 986.7188,413.7969 Q986.2344,414.5469 986.2344,415.5781 L986.2344,416.6719 Q986.2344,417.9063 987.125,418.7344 Q988.0156,419.5469 989.6094,419.5469 Q990.5469,419.5469 991.2031,419.2969 Q991.5938,419.1406 992.0156,418.7031 Q992.2813,418.4375 992.4219,418.3594 Q992.5781,418.2813 992.7813,418.2813 Q993.1094,418.2813 993.3594,418.5469 Q993.625,418.7969 993.625,419.1406 Q993.625,419.4844 993.2813,419.8906 Q992.7813,420.4688 991.9844,420.7969 Q990.9063,421.25 989.6094,421.25 Q988.0938,421.25 986.8906,420.625 Q985.9063,420.125 985.2188,419.0625 Q984.5313,417.9844 984.5313,416.7031 L984.5313,415.5469 Q984.5313,414.2188 985.1406,413.0781 Q985.7656,411.9219 986.8594,411.3125 Q987.9531,410.6875 989.1875,410.6875 Q989.9219,410.6875 990.5625,410.8594 Q991.2188,411.0156 991.7656,411.375 Z " fill="#000000"/><text fill="#000000" font-family="sans-serif" font-size="14" lengthAdjust="spacing" textLength="64" x="1003" y="421.2285">Statement</text><line style="stroke:#181818;stroke-width:0.5;" x1="975" x2="1069" y1="431.5" y2="431.5"/><line style="stroke:#181818;stroke-width:0.5;" x1="975" x2="1069" y1="439.5" y2="439.5"/></g><!--class QuestionType--><g id="elem_QuestionType"><rect codeLine="100" fill="#F1F1F1" height="100.8281" id="QuestionType" rx="2.5" ry="2.5" style="stroke:#181818;stroke-width:0.5;" width="121" x="1105.5" y="373"/><ellipse cx="1120.5" cy="389" fill="#EB937F" rx="11" ry="11" style="stroke:#181818;stroke-width:1.0;"/><path d="M1119.3594,389.7969 L1119.3594,392.2969 L1123.6875,392.2969 L1123.6875,391.375 Q1123.6875,390.7656 1123.9219,390.5 Q1124.1719,390.2344 1124.5469,390.2344 Q1124.9219,390.2344 1125.1563,390.5 Q1125.3906,390.7656 1125.3906,391.375 L1125.3906,394 L1117.3906,394 Q1116.7656,394 1116.5,393.7656 Q1116.25,393.5313 1116.25,393.1406 Q1116.25,392.7656 1116.5156,392.5313 Q1116.7813,392.2969 1117.3906,392.2969 L1117.6563,392.2969 L1117.6563,385.6406 L1117.3906,385.6406 Q1116.7656,385.6406 1116.5,385.4063 Q1116.25,385.1719 1116.25,384.7813 Q1116.25,384.4063 1116.5,384.1719 Q1116.7656,383.9375 1117.3906,383.9375 L1125.0156,383.9375 L1125.0156,386.5313 Q1125.0156,387.1406 1124.7813,387.4063 Q1124.5625,387.6563 1124.1719,387.6563 Q1123.7969,387.6563 1123.5625,387.4063 Q1123.3281,387.1406 1123.3281,386.5313 L1123.3281,385.6406 L1119.3594,385.6406 L1119.3594,388.0938 L1120.8438,388.0938 Q1120.8438,387.4375 1120.9688,387.25 Q1121.2344,386.8438 1121.7031,386.8438 Q1122.0781,386.8438 1122.3125,387.1094 Q1122.5469,387.3594 1122.5469,387.9688 L1122.5469,389.9375 Q1122.5469,390.4844 1122.4219,390.6719 Q1122.1563,391.0625 1121.7031,391.0625 Q1121.2344,391.0625 1120.9688,390.6563 Q1120.8438,390.4688 1120.8438,389.7969 L1119.3594,389.7969 Z " fill="#000000"/><text fill="#000000" font-family="sans-serif" font-size="14" lengthAdjust="spacing" textLength="89" x="1134.5" y="394.7285">QuestionType</text><line style="stroke:#181818;stroke-width:0.5;" x1="1106.5" x2="1225.5" y1="405" y2="405"/><text fill="#000000" font-family="sans-serif" font-size="14" lengthAdjust="spacing" textLength="35" x="1111.5" y="423.5332">Open</text><text fill="#000000" font-family="sans-serif" font-size="14" lengthAdjust="spacing" textLength="92" x="1111.5" y="441.1426">MultipleChoice</text><text fill="#000000" font-family="sans-serif" font-size="14" lengthAdjust="spacing" textLength="103" x="1111.5" y="458.752">ApplicationCode</text><line style="stroke:#181818;stroke-width:0.5;" x1="1106.5" x2="1225.5" y1="465.8281" y2="465.8281"/></g><!--class StatementType--><g id="elem_StatementType"><rect codeLine="105" fill="#F1F1F1" height="118.4375" id="StatementType" rx="2.5" ry="2.5" style="stroke:#181818;stroke-width:0.5;" width="128" x="958" y="535"/><ellipse cx="973" cy="551" fill="#EB937F" rx="11" ry="11" style="stroke:#181818;stroke-width:1.0;"/><path d="M971.8594,551.7969 L971.8594,554.2969 L976.1875,554.2969 L976.1875,553.375 Q976.1875,552.7656 976.4219,552.5 Q976.6719,552.2344 977.0469,552.2344 Q977.4219,552.2344 977.6563,552.5 Q977.8906,552.7656 977.8906,553.375 L977.8906,556 L969.8906,556 Q969.2656,556 969,555.7656 Q968.75,555.5313 968.75,555.1406 Q968.75,554.7656 969.0156,554.5313 Q969.2813,554.2969 969.8906,554.2969 L970.1563,554.2969 L970.1563,547.6406 L969.8906,547.6406 Q969.2656,547.6406 969,547.4063 Q968.75,547.1719 968.75,546.7813 Q968.75,546.4063 969,546.1719 Q969.2656,545.9375 969.8906,545.9375 L977.5156,545.9375 L977.5156,548.5313 Q977.5156,549.1406 977.2813,549.4063 Q977.0625,549.6563 976.6719,549.6563 Q976.2969,549.6563 976.0625,549.4063 Q975.8281,549.1406 975.8281,548.5313 L975.8281,547.6406 L971.8594,547.6406 L971.8594,550.0938 L973.3438,550.0938 Q973.3438,549.4375 973.4688,549.25 Q973.7344,548.8438 974.2031,548.8438 Q974.5781,548.8438 974.8125,549.1094 Q975.0469,549.3594 975.0469,549.9688 L975.0469,551.9375 Q975.0469,552.4844 974.9219,552.6719 Q974.6563,553.0625 974.2031,553.0625 Q973.7344,553.0625 973.4688,552.6563 Q973.3438,552.4688 973.3438,551.7969 L971.8594,551.7969 Z " fill="#000000"/><text fill="#000000" font-family="sans-serif" font-size="14" lengthAdjust="spacing" textLength="96" x="987" y="556.7285">StatementType</text><line style="stroke:#181818;stroke-width:0.5;" x1="959" x2="1085" y1="567" y2="567"/><text fill="#000000" font-family="sans-serif" font-size="14" lengthAdjust="spacing" textLength="63" x="964" y="585.5332">ClozeTest</text><text fill="#000000" font-family="sans-serif" font-size="14" lengthAdjust="spacing" textLength="59" x="964" y="603.1426">Definition</text><text fill="#000000" font-family="sans-serif" font-size="14" lengthAdjust="spacing" textLength="52" x="964" y="620.752">Relation</text><text fill="#000000" font-family="sans-serif" font-size="14" lengthAdjust="spacing" textLength="108" x="964" y="638.3613">JustifyApplication</text><line style="stroke:#181818;stroke-width:0.5;" x1="959" x2="1085" y1="645.4375" y2="645.4375"/></g><!--link EducationPlatform to Teacher--><g id="link_EducationPlatform_Teacher"><path codeLine="4" d="M284.9455,60.0391 C234.0055,83.4391 172.3225,111.7659 124.2225,133.8559 " fill="none" id="EducationPlatform-Teacher" style="stroke:#181818;stroke-width:1.0;"/><polygon fill="#181818" points="295.85,55.03,288.728,53.8997,284.9455,60.0391,292.0675,61.1694,295.85,55.03" style="stroke:#181818;stroke-width:1.0;"/><polygon fill="#181818" points="118.77,136.36,128.6181,136.2389,123.3137,134.2733,125.2794,128.9689,118.77,136.36" style="stroke:#181818;stroke-width:1.0;"/><text fill="#000000" font-family="sans-serif" font-size="13" lengthAdjust="spacing" textLength="8" x="126.5163" y="129.1407">+</text></g><!--link EducationPlatform to Student--><g id="link_EducationPlatform_Student"><path codeLine="5" d="M294.6626,61.447 C280.5526,70.107 275.22,74.2 262,85 C244.29,99.47 230.4699,113.75 217.5199,128.36 " fill="none" id="EducationPlatform-Student" style="stroke:#181818;stroke-width:1.0;"/><polygon fill="#181818" points="304.89,55.17,297.684,54.8994,294.6626,61.447,301.8687,61.7176,304.89,55.17" style="stroke:#181818;stroke-width:1.0;"/><polygon fill="#181818" points="213.54,132.85,222.5032,128.7682,216.8566,129.1083,216.5165,123.4617,213.54,132.85" style="stroke:#181818;stroke-width:1.0;"/><text fill="#000000" font-family="sans-serif" font-size="13" lengthAdjust="spacing" textLength="8" x="209.5221" y="122.1517">+</text></g><!--link EducationPlatform to Topic--><g id="link_EducationPlatform_Topic"><path codeLine="6" d="M334.2538,66.4367 C317.7238,114.8667 285.4173,209.5714 268.8573,258.1114 " fill="none" id="EducationPlatform-Topic" style="stroke:#181818;stroke-width:1.0;"/><polygon fill="#181818" points="338.13,55.08,332.4063,59.4663,334.2538,66.4367,339.9774,62.0504,338.13,55.08" style="stroke:#181818;stroke-width:1.0;"/><polygon fill="#181818" points="266.92,263.79,273.6117,256.5636,268.5344,259.0578,266.0402,253.9805,266.92,263.79" style="stroke:#181818;stroke-width:1.0;"/></g><!--link EducationPlatform to Itinerary--><g id="link_EducationPlatform_Itinerary"><path codeLine="7" d="M380.5463,63.9504 C388.3963,72.4604 387.87,73.93 392,85 C397.74,100.36 396.7342,112.9675 392.8942,127.1875 " fill="none" id="EducationPlatform-Itinerary" style="stroke:#181818;stroke-width:1.0;"/><polygon fill="#181818" points="372.41,55.13,373.538,62.2523,380.5463,63.9504,379.4183,56.8281,372.41,55.13" style="stroke:#181818;stroke-width:1.0;"/><polygon fill="#181818" points="391.33,132.98,397.538,125.334,392.6335,128.1529,389.8147,123.2484,391.33,132.98" style="stroke:#181818;stroke-width:1.0;"/><text fill="#000000" font-family="sans-serif" font-size="13" lengthAdjust="spacing" textLength="59" x="397" y="99.4951">predefined</text></g><!--link EducationPlatform to Itinerary--><g id="link_EducationPlatform_Itinerary"><path codeLine="8" d="M336.0629,66.703 C332.7829,80.923 333.45,87.62 339,103 C342.98,114.02 346.3846,119.876 353.9746,128.456 " fill="none" id="EducationPlatform-Itinerary-1" style="stroke:#181818;stroke-width:1.0;"/><polygon fill="none" points="338.76,55.01,333.5138,59.9574,336.0629,66.703,341.3091,61.7555,338.76,55.01" style="stroke:#181818;stroke-width:1.0;"/><polygon fill="#181818" points="357.95,132.95,354.9828,123.5587,354.6371,129.205,348.9908,128.8593,357.95,132.95" style="stroke:#181818;stroke-width:1.0;"/><text fill="#000000" font-family="sans-serif" font-size="13" lengthAdjust="spacing" textLength="43" x="340" y="99.4951">custom</text><text fill="#000000" font-family="sans-serif" font-size="13" lengthAdjust="spacing" textLength="5" x="345.8903" y="122.2773">*</text></g><!--link EducationPlatform to Evaluator--><g id="link_EducationPlatform_Evaluator"><path codeLine="9" d="M431.5794,51.9488 C471.0494,61.5588 508.64,71.48 552,85 C602.79,100.83 654.2411,120.1074 693.0611,135.2674 " fill="none" id="EducationPlatform-Evaluator" style="stroke:#181818;stroke-width:1.0;"/><polygon fill="none" points="419.92,49.11,424.8034,54.4159,431.5794,51.9488,426.696,46.6429,419.92,49.11" style="stroke:#181818;stroke-width:1.0;"/><polygon fill="#181818" points="698.65,137.45,691.7217,130.4501,693.9925,135.6312,688.8115,137.9021,698.65,137.45" style="stroke:#181818;stroke-width:1.0;"/></g><!--link Concept to Definition--><g id="link_Concept_Definition"><path codeLine="14" d="M550.0521,625.9027 C530.8421,641.7027 517.58,656.81 507,683 C500.66,698.68 503.1104,710.9585 510.8904,725.6385 " fill="none" id="Concept-Definition" style="stroke:#181818;stroke-width:1.0;"/><polygon fill="none" points="559.32,618.28,552.1451,619.0021,550.0521,625.9027,557.227,625.1807,559.32,618.28" style="stroke:#181818;stroke-width:1.0;"/><polygon fill="#181818" points="513.7,730.94,513.0199,721.1147,511.3586,726.5221,505.9512,724.8609,513.7,730.94" style="stroke:#181818;stroke-width:1.0;"/><text fill="#000000" font-family="sans-serif" font-size="13" lengthAdjust="spacing" textLength="40" x="508" y="697.4951">correct</text><text fill="#000000" font-family="sans-serif" font-size="13" lengthAdjust="spacing" textLength="8" x="500.0694" y="720.043">+</text></g><!--link Concept to Definition--><g id="link_Concept_Definition"><path codeLine="15" d="M580.7362,629.4143 C571.1762,658.6143 560.2278,692.0581 549.4078,725.0881 " fill="none" id="Concept-Definition-1" style="stroke:#181818;stroke-width:1.0;"/><polygon fill="none" points="584.47,618.01,578.8017,622.4676,580.7362,629.4143,586.4046,624.9568,584.47,618.01" style="stroke:#181818;stroke-width:1.0;"/><polygon fill="#181818" points="547.54,730.79,554.143,723.4824,549.0965,726.0384,546.5405,720.992,547.54,730.79" style="stroke:#181818;stroke-width:1.0;"/><text fill="#000000" font-family="sans-serif" font-size="13" lengthAdjust="spacing" textLength="50" x="563" y="697.4951">incorrect</text><text fill="#000000" font-family="sans-serif" font-size="13" lengthAdjust="spacing" textLength="5" x="544.1229" y="720.245">*</text></g><!--link Concept to Relation--><g id="link_Concept_Relation"><path codeLine="16" d="M611.652,628.3486 C630.502,660.3386 655.3031,702.4312 674.2431,734.5612 " fill="none" id="Concept-Relation" style="stroke:#181818;stroke-width:1.0;"/><polygon fill="none" points="605.56,618.01,605.1598,625.21,611.652,628.3486,612.0522,621.1486,605.56,618.01" style="stroke:#181818;stroke-width:1.0;"/><polygon fill="#181818" points="677.29,739.73,676.1655,729.9455,674.7509,735.4227,669.2738,734.0081,677.29,739.73" style="stroke:#181818;stroke-width:1.0;"/><text fill="#000000" font-family="sans-serif" font-size="13" lengthAdjust="spacing" textLength="5" x="668.1362" y="729.001">*</text></g><!--link Relation to Concept--><g id="link_Relation_Concept"><path codeLine="29" d="M675.7736,728.8651 C668.3636,712.6451 662.78,701.57 652,683 C638.82,660.29 625.3099,640.5663 612.7599,623.1663 " fill="none" id="Relation-Concept" style="stroke:#181818;stroke-width:1.0;"/><polygon fill="#181818" points="680.76,739.78,681.9051,732.6604,675.7736,728.8651,674.6285,735.9847,680.76,739.78" style="stroke:#181818;stroke-width:1.0;"/><polygon fill="#181818" points="609.25,618.3,611.2706,627.9393,612.1749,622.3552,617.759,623.2595,609.25,618.3" style="stroke:#181818;stroke-width:1.0;"/><text fill="#000000" font-family="sans-serif" font-size="13" lengthAdjust="spacing" textLength="33" x="662" y="697.4951">target</text></g><!--link Definition to Justification--><g id="link_Definition_Justification"><path codeLine="21" d="M537,809.05 C537,841.03 537,871.89 537,903.89 " fill="none" id="Definition-Justification" style="stroke:#181818;stroke-width:1.0;"/><polygon fill="none" points="537,797.05,533,803.05,537,809.05,541,803.05,537,797.05" style="stroke:#181818;stroke-width:1.0;"/><polygon fill="#181818" points="537,909.89,541,900.89,537,904.89,533,900.89,537,909.89" style="stroke:#181818;stroke-width:1.0;"/><text fill="#000000" font-family="sans-serif" font-size="13" lengthAdjust="spacing" textLength="83" x="538" y="841.4951">correct = false</text><text fill="#000000" font-family="sans-serif" font-size="13" lengthAdjust="spacing" textLength="5" x="531.4844" y="898.9827">*</text></g><!--link Relation to RelationType--><g id="link_Relation_RelationType"><path codeLine="30" d="M692.1885,800.133 C692.9385,822.153 693.4861,838.3835 694.5261,868.9635 " fill="none" id="Relation-RelationType" style="stroke:#181818;stroke-width:1.0;"/><polygon fill="#181818" points="691.78,788.14,687.9866,794.2727,692.1885,800.133,695.9819,794.0004,691.78,788.14" style="stroke:#181818;stroke-width:1.0;"/><polygon fill="#181818" points="694.73,874.96,698.4218,865.8292,694.5601,869.9629,690.4264,866.1012,694.73,874.96" style="stroke:#181818;stroke-width:1.0;"/></g><!--link Domain to Application--><g id="link_Domain_Application"><path codeLine="42" d="M536.3392,323.9953 C540.3592,343.1953 542.478,353.2879 547.268,376.1179 " fill="none" id="Domain-Application" style="stroke:#181818;stroke-width:1.0;"/><polygon fill="none" points="533.88,312.25,531.1945,318.9424,536.3392,323.9953,539.0247,317.3029,533.88,312.25" style="stroke:#181818;stroke-width:1.0;"/><polygon fill="#181818" points="548.5,381.99,550.5667,372.3604,547.4733,377.0965,542.7372,374.0031,548.5,381.99" style="stroke:#181818;stroke-width:1.0;"/><text fill="#000000" font-family="sans-serif" font-size="13" lengthAdjust="spacing" textLength="5" x="541.6781" y="371.296">*</text></g><!--link Application to Concept--><g id="link_Application_Concept"><path codeLine="49" d="M565.47,465.29 C572.27,498.02 580.3497,536.9154 585.9397,563.8254 " fill="none" id="Application-to-Concept" style="stroke:#181818;stroke-width:1.0;"/><polygon fill="#181818" points="587.16,569.7,589.2459,560.0746,586.1431,564.8045,581.4131,561.7017,587.16,569.7" style="stroke:#181818;stroke-width:1.0;"/><text fill="#000000" font-family="sans-serif" font-size="13" lengthAdjust="spacing" textLength="8" x="576.8947" y="558.9633">+</text></g><!--link EducationPlatform to Domain--><g id="link_EducationPlatform_Domain"><path codeLine="52" d="M430.5811,58.3282 C447.2911,66.0582 452.79,71.34 465,85 C511.45,136.98 523.6914,216.7116 527.1814,257.7316 " fill="none" id="EducationPlatform-Domain" style="stroke:#181818;stroke-width:1.0;"/><polygon fill="none" points="419.69,53.29,423.4562,59.4395,430.5811,58.3282,426.815,52.1787,419.69,53.29" style="stroke:#181818;stroke-width:1.0;"/><polygon fill="#181818" points="527.69,263.71,530.9126,254.4033,527.2661,258.728,522.9414,255.0815,527.69,263.71" style="stroke:#181818;stroke-width:1.0;"/><text fill="#000000" font-family="sans-serif" font-size="13" lengthAdjust="spacing" textLength="5" x="521.7137" y="252.9758">*</text></g><!--link Itinerary to Topic--><g id="link_Itinerary_Topic"><path codeLine="56" d="M352.5151,189.7123 C330.0851,213.0523 308.0687,235.9551 285.5487,259.3751 " fill="none" id="Itinerary-Topic" style="stroke:#181818;stroke-width:1.0;"/><polygon fill="none" points="360.83,181.06,353.7884,182.6145,352.5151,189.7123,359.5566,188.1578,360.83,181.06" style="stroke:#181818;stroke-width:1.0;"/><polygon fill="#181818" points="281.39,263.7,290.5114,259.9851,284.8556,260.0959,284.7448,254.4401,281.39,263.7" style="stroke:#181818;stroke-width:1.0;"/><text fill="#000000" font-family="sans-serif" font-size="13" lengthAdjust="spacing" textLength="8" x="278.1024" y="252.9633">+</text></g><!--reverse link Topic to CompositeTopic--><g id="link_Topic_CompositeTopic"><path codeLine="60" d="M210.0567,317.4443 C177.4567,338.8643 144.39,364.58 112.6,390.5 " fill="none" id="Topic-backto-CompositeTopic" style="stroke:#181818;stroke-width:1.0;stroke-dasharray:7.0,7.0;"/><polygon fill="none" points="225.1,307.56,206.7619,312.4298,213.3515,322.4587,225.1,307.56" style="stroke:#181818;stroke-width:1.0;"/></g><!--link CompositeTopic to Topic--><g id="link_CompositeTopic_Topic"><path codeLine="71" d="M145.5983,383.4324 C180.3883,359.3624 208.6767,337.7357 233.9667,316.1457 " fill="none" id="CompositeTopic-Topic" style="stroke:#181818;stroke-width:1.0;"/><polygon fill="none" points="135.73,390.26,142.94,390.1357,145.5983,383.4324,138.3883,383.5568,135.73,390.26" style="stroke:#181818;stroke-width:1.0;"/><polygon fill="#181818" points="238.53,312.25,229.0879,315.0513,234.7272,315.4964,234.2822,321.1357,238.53,312.25" style="stroke:#181818;stroke-width:1.0;"/><text fill="#000000" font-family="sans-serif" font-size="13" lengthAdjust="spacing" textLength="8" x="224.5654" y="333.6489">+</text></g><!--reverse link Topic to SimpleTopic--><g id="link_Topic_SimpleTopic"><path codeLine="61" d="M292.8481,325.4403 C315.4681,349.8003 338.55,374.64 361.23,399.06 " fill="none" id="Topic-backto-SimpleTopic" style="stroke:#181818;stroke-width:1.0;stroke-dasharray:7.0,7.0;"/><polygon fill="none" points="280.6,312.25,288.4514,329.523,297.2449,321.3576,280.6,312.25" style="stroke:#181818;stroke-width:1.0;"/></g><!--link Topic to Attachment--><g id="link_Topic_Attachment"><path codeLine="62" d="M254.5251,324.154 C251.4251,348.514 248.848,368.6881 245.738,393.1081 " fill="none" id="Topic-Attachment" style="stroke:#181818;stroke-width:1.0;"/><polygon fill="none" points="256.04,312.25,251.3146,317.697,254.5251,324.154,259.2506,318.707,256.04,312.25" style="stroke:#181818;stroke-width:1.0;"/><polygon fill="#181818" points="244.98,399.06,250.085,390.6374,245.6117,394.1001,242.1491,389.6268,244.98,399.06" style="stroke:#181818;stroke-width:1.0;"/><text fill="#000000" font-family="sans-serif" font-size="13" lengthAdjust="spacing" textLength="8" x="236.7314" y="388.6907">+</text></g><!--link SimpleTopic to Concept--><g id="link_SimpleTopic_Concept"><path codeLine="66" d="M411.62,447.58 C451.53,479.75 518.8086,533.9946 558.7186,566.1646 " fill="none" id="SimpleTopic-to-Concept" style="stroke:#181818;stroke-width:1.0;"/><polygon fill="#181818" points="563.39,569.93,558.8932,561.1676,559.4972,566.7922,553.8727,567.3961,563.39,569.93" style="stroke:#181818;stroke-width:1.0;"/><text fill="#000000" font-family="sans-serif" font-size="13" lengthAdjust="spacing" textLength="8" x="547.0337" y="559.2522">+</text></g><!--reverse link Attachment to Podcast--><g id="link_Attachment_Podcast"><path codeLine="75" d="M263.8511,463.2591 C281.9911,495.4291 305.86,537.76 323.99,569.93 " fill="none" id="Attachment-backto-Podcast" style="stroke:#181818;stroke-width:1.0;"/><polygon fill="none" points="255.01,447.58,258.6248,466.2062,269.0775,460.3121,255.01,447.58" style="stroke:#181818;stroke-width:1.0;"/></g><!--reverse link Attachment to Video--><g id="link_Attachment_Video"><path codeLine="76" d="M221.8281,463.5719 C205.2081,495.7419 183.52,537.76 166.91,569.93 " fill="none" id="Attachment-backto-Video" style="stroke:#181818;stroke-width:1.0;"/><polygon fill="none" points="230.09,447.58,216.4975,460.8179,227.1587,466.3259,230.09,447.58" style="stroke:#181818;stroke-width:1.0;"/></g><!--reverse link Attachment to Text--><g id="link_Attachment_Text"><path codeLine="77" d="M242,465.5 C242,524.43 242,662.93 242,730.83 " fill="none" id="Attachment-backto-Text" style="stroke:#181818;stroke-width:1.0;"/><polygon fill="none" points="242,447.5,236,465.5,248,465.5,242,447.5" style="stroke:#181818;stroke-width:1.0;"/></g><!--link Podcast to Text--><g id="link_Podcast_Text"><path codeLine="78" d="M318.0811,628.4544 C301.5611,657.6544 281.8436,692.5374 263.1636,725.5674 " fill="none" id="Podcast-Text" style="stroke:#181818;stroke-width:1.0;"/><polygon fill="none" points="323.99,618.01,317.5541,621.2625,318.0811,628.4544,324.517,625.2018,323.99,618.01" style="stroke:#181818;stroke-width:1.0;"/><polygon fill="#181818" points="260.21,730.79,268.1222,724.9251,262.6714,726.4378,261.1587,720.9869,260.21,730.79" style="stroke:#181818;stroke-width:1.0;"/></g><!--link Video to Text--><g id="link_Video_Text"><path codeLine="79" d="M172.4307,628.6647 C187.5607,657.8647 205.4615,692.4317 222.5615,725.4617 " fill="none" id="Video-Text" style="stroke:#181818;stroke-width:1.0;"/><polygon fill="none" points="166.91,618.01,166.1188,625.1776,172.4307,628.6647,173.2219,621.4971,166.91,618.01" style="stroke:#181818;stroke-width:1.0;"/><polygon fill="#181818" points="225.32,730.79,224.7344,720.9586,223.0212,726.3498,217.63,724.6366,225.32,730.79" style="stroke:#181818;stroke-width:1.0;"/></g><!--link Evaluator to Question--><g id="link_Evaluator_Question"><path codeLine="89" d="M766.1,181.06 C787.44,204.4 816.2206,235.8525 837.6406,259.2725 " fill="none" id="Evaluator-to-Question" style="stroke:#181818;stroke-width:1.0;"/><polygon fill="#181818" points="841.69,263.7,838.5676,254.3592,838.3155,260.0104,832.6643,259.7584,841.69,263.7" style="stroke:#181818;stroke-width:1.0;"/></g><!--link Question to Concept--><g id="link_Question_Concept"><path codeLine="93" d="M835.1,312.19 C816.06,328.49 790.65,351.2 770,373 C705.98,440.6 642.7607,523.8408 612.3907,565.0308 " fill="none" id="Question-to-Concept" style="stroke:#181818;stroke-width:1.0;"/><polygon fill="#181818" points="608.83,569.86,617.3905,564.9899,611.7972,565.8356,610.9515,560.2424,608.83,569.86" style="stroke:#181818;stroke-width:1.0;"/><text fill="#000000" font-family="sans-serif" font-size="13" lengthAdjust="spacing" textLength="8" x="604.1177" y="559.1643">+</text></g><!--link Question to Answer--><g id="link_Question_Answer"><path codeLine="94" d="M863,312.25 C863,328.99 863,346.18 863,366.98 " fill="none" id="Question-to-Answer" style="stroke:#181818;stroke-width:1.0;"/><polygon fill="#181818" points="863,372.98,867,363.98,863,367.98,859,363.98,863,372.98" style="stroke:#181818;stroke-width:1.0;"/><text fill="#000000" font-family="sans-serif" font-size="13" lengthAdjust="spacing" textLength="5" x="857.6484" y="362.2825">*</text></g><!--link Question to Statement--><g id="link_Question_Statement"><path codeLine="96" d="M899.8893,319.9673 C928.9793,344.3973 960.6844,371.0224 989.7644,395.4324 " fill="none" id="Question-Statement" style="stroke:#181818;stroke-width:1.0;"/><polygon fill="#181818" points="890.7,312.25,892.7222,319.1717,899.8893,319.9673,897.8671,313.0455,890.7,312.25" style="stroke:#181818;stroke-width:1.0;"/><polygon fill="#181818" points="994.36,399.29,990.0384,390.44,990.5304,396.0754,984.8949,396.5674,994.36,399.29" style="stroke:#181818;stroke-width:1.0;"/></g><!--link Question to QuestionType--><g id="link_Question_QuestionType"><path codeLine="97" d="M919.1184,306.2896 C965.3684,321.0996 1027.7,343.02 1088,373 C1093.74,375.86 1094.395,376.0454 1100.185,379.3654 " fill="none" id="Question-QuestionType" style="stroke:#181818;stroke-width:1.0;"/><polygon fill="#181818" points="907.69,302.63,912.1843,308.2692,919.1184,306.2896,914.624,300.6503,907.69,302.63" style="stroke:#181818;stroke-width:1.0;"/><polygon fill="#181818" points="1105.39,382.35,1099.5722,374.4031,1101.0525,379.8629,1095.5927,381.3432,1105.39,382.35" style="stroke:#181818;stroke-width:1.0;"/></g><!--link Statement to StatementType--><g id="link_Statement_StatementType"><path codeLine="98" d="M1022,459.58 C1022,481.93 1022,498.75 1022,528.71 " fill="none" id="Statement-StatementType" style="stroke:#181818;stroke-width:1.0;"/><polygon fill="#181818" points="1022,447.58,1018,453.58,1022,459.58,1026,453.58,1022,447.58" style="stroke:#181818;stroke-width:1.0;"/><polygon fill="#181818" points="1022,534.71,1026,525.71,1022,529.71,1018,525.71,1022,534.71" style="stroke:#181818;stroke-width:1.0;"/></g><!--SRC=[XLN9Rjim4BtpAmXV3BXGFi1mKxXE3kc2fhNRQy58Ovae9QeabTHD_E_bBbAoKnq4pV3DzZWpAXcH4jzMVKaKvUqz8shFHOEVqGbDjOkYkCQpDpEy0r8UGBm6sQg-WbPTWknuHyjBXtUAjY28EE8bxWHKiDToTGRDRRJ5BBCeUwbuSmbz-qXOJnGN27Ma_4LgmBEFBNzYKDLGl2SIPhfwh9_IShFXRGcTyhgJVGST3yNUc0of2MRYSo6WL6UGYn6IjgzYlm6p1Q0adSJUPMIU8iJKFXyuPq3Q9Dl4nBWsdZzeYkYUEdxmCbY_nNl29AJnSkJ_GxgmYODGH4PWLDhh3eKliIAY1dK64gJTiVFfGTitcJf9xhkk8NolfUGbTJm6tOOt7PSqqzsrkg6f8ZgLmRQk1TI3RLRO3My8pSlogi3okkkOPyuUpnF5SCjRplhnBQV0bFD7439Dki02VlTKGAD7JIQPf0vCDhf7FSlex6GF_MbBGCZbCOoLMGY351lVZJ4Y3r89efl1oWPhF_3gvUegiWqEd9niQTEnJ1qThvNIAyQK5N99m2P08k9W54iCevi6TZmMM1b1wcRxHALQsQDhh1tcw4c9_c9YMfQHH5oz50M-vrL9f9heVz0A-4IxWpyAUHCNpseiE95zQFEDGn6qqOjBwWnGE8vxpUtkA1atNtkGhiKSDiWM6eLHdsHwqysjVD8hVnxrqmwEHtPcjueesvWZVP3iB4VGoCODkXto5Ey9-DA16uBFFLDKzy7cmAaVtAJrDxm2NQ7raddsRZQC_uMTzZxQaza2ie9RWyTqeZNtSz-PllvdDB-q6kSdD0ymJzoxoHh6apticyuo7-_-_E8jCBWxXsfoGdfru4B_RwgVuRTyGly0]--></g></svg>