<?xml version="1.0" encoding="us-ascii" standalone="no"?><svg xmlns="http://www.w3.org/2000/svg" xmlns:xlink="http://www.w3.org/1999/xlink" contentStyleType="text/css" height="1033px" preserveAspectRatio="none" style="width:1265px;height:1033px;background:#FFFFFF;" version="1.1" viewBox="0 0 1265 1033" width="1265px" zoomAndPan="magnify"><defs/><g><!--class EducationPlatform--><g id="elem_EducationPlatform"><rect fill="#F1F1F1" height="48" id="EducationPlatform" rx="2.5" ry="2.5" style="stroke:#181818;stroke-width:0.5;" width="147" x="754" y="7"/><ellipse cx="769" cy="23" fill="#ADD1B2" rx="11" ry="11" style="stroke:#181818;stroke-width:1.0;"/><path d="M771.7656,18.875 Q771.9219,18.6563 772.1094,18.5469 Q772.2969,18.4375 772.5156,18.4375 Q772.8906,18.4375 773.125,18.7031 Q773.3594,18.9531 773.3594,19.5625 L773.3594,21.0156 Q773.3594,21.625 773.125,21.8906 Q772.8906,22.1563 772.5156,22.1563 Q772.1719,22.1563 771.9688,21.9531 Q771.7656,21.7656 771.6563,21.25 Q771.6094,20.8906 771.4219,20.7031 Q771.0938,20.3281 770.4844,20.1094 Q769.875,19.8906 769.25,19.8906 Q768.4844,19.8906 767.8438,20.2188 Q767.2188,20.5469 766.7188,21.2969 Q766.2344,22.0469 766.2344,23.0781 L766.2344,24.1719 Q766.2344,25.4063 767.125,26.2344 Q768.0156,27.0469 769.6094,27.0469 Q770.5469,27.0469 771.2031,26.7969 Q771.5938,26.6406 772.0156,26.2031 Q772.2813,25.9375 772.4219,25.8594 Q772.5781,25.7813 772.7813,25.7813 Q773.1094,25.7813 773.3594,26.0469 Q773.625,26.2969 773.625,26.6406 Q773.625,26.9844 773.2813,27.3906 Q772.7813,27.9688 771.9844,28.2969 Q770.9063,28.75 769.6094,28.75 Q768.0938,28.75 766.8906,28.125 Q765.9063,27.625 765.2188,26.5625 Q764.5313,25.4844 764.5313,24.2031 L764.5313,23.0469 Q764.5313,21.7188 765.1406,20.5781 Q765.7656,19.4219 766.8594,18.8125 Q767.9531,18.1875 769.1875,18.1875 Q769.9219,18.1875 770.5625,18.3594 Q771.2188,18.5156 771.7656,18.875 Z " fill="#000000"/><text fill="#000000" font-family="sans-serif" font-size="14" lengthAdjust="spacing" textLength="115" x="783" y="28.7285">EducationPlatform</text><line style="stroke:#181818;stroke-width:0.5;" x1="755" x2="900" y1="39" y2="39"/><line style="stroke:#181818;stroke-width:0.5;" x1="755" x2="900" y1="47" y2="47"/></g><!--class User--><g id="elem_User"><rect codeLine="9" fill="#F1F1F1" height="48" id="User" rx="2.5" ry="2.5" style="stroke:#181818;stroke-width:0.5;" width="62" x="559.5" y="133"/><ellipse cx="574.5" cy="149" fill="#A9DCDF" rx="11" ry="11" style="stroke:#181818;stroke-width:1.0;"/><path d="M576.6875,150.7656 L572.5469,150.7656 L572.125,151.7969 L572.5469,151.7969 Q573.1563,151.7969 573.4219,152.0313 Q573.6875,152.2656 573.6875,152.6563 Q573.6875,153.0313 573.4219,153.2656 Q573.1563,153.5 572.5469,153.5 L570.25,153.5 Q569.6406,153.5 569.3906,153.2656 Q569.125,153.0313 569.125,152.6406 Q569.125,152.2656 569.4063,152.0313 Q569.6719,151.7813 570.2969,151.7969 L572.9688,145.1406 L571.8594,145.1406 Q571.25,145.1406 570.9844,144.9063 Q570.7188,144.6719 570.7188,144.2813 Q570.7188,143.9063 570.9844,143.6719 Q571.25,143.4375 571.8594,143.4375 L575.5313,143.4375 L578.9219,151.7969 Q579.5156,151.7969 579.7031,151.9375 Q580.0938,152.2031 580.0938,152.6563 Q580.0938,153.0313 579.8281,153.2656 Q579.5781,153.5 578.9688,153.5 L576.6719,153.5 Q576.0625,153.5 575.7969,153.2656 Q575.5313,153.0313 575.5313,152.6406 Q575.5313,152.2656 575.7969,152.0313 Q576.0625,151.7969 576.6719,151.7969 L577.0938,151.7969 L576.6875,150.7656 Z M575.9688,149.0625 L574.6094,145.6875 L573.2344,149.0625 L575.9688,149.0625 Z " fill="#000000"/><text fill="#000000" font-family="sans-serif" font-size="14" font-style="italic" lengthAdjust="spacing" textLength="30" x="588.5" y="154.7285">User</text><line style="stroke:#181818;stroke-width:0.5;" x1="560.5" x2="620.5" y1="165" y2="165"/><line style="stroke:#181818;stroke-width:0.5;" x1="560.5" x2="620.5" y1="173" y2="173"/></g><!--class Topic--><g id="elem_Topic"><rect codeLine="75" fill="#F1F1F1" height="48" id="Topic" rx="2.5" ry="2.5" style="stroke:#181818;stroke-width:0.5;" width="67" x="816" y="259"/><ellipse cx="831" cy="275" fill="#A9DCDF" rx="11" ry="11" style="stroke:#181818;stroke-width:1.0;"/><path d="M833.1875,276.7656 L829.0469,276.7656 L828.625,277.7969 L829.0469,277.7969 Q829.6563,277.7969 829.9219,278.0313 Q830.1875,278.2656 830.1875,278.6563 Q830.1875,279.0313 829.9219,279.2656 Q829.6563,279.5 829.0469,279.5 L826.75,279.5 Q826.1406,279.5 825.8906,279.2656 Q825.625,279.0313 825.625,278.6406 Q825.625,278.2656 825.9063,278.0313 Q826.1719,277.7813 826.7969,277.7969 L829.4688,271.1406 L828.3594,271.1406 Q827.75,271.1406 827.4844,270.9063 Q827.2188,270.6719 827.2188,270.2813 Q827.2188,269.9063 827.4844,269.6719 Q827.75,269.4375 828.3594,269.4375 L832.0313,269.4375 L835.4219,277.7969 Q836.0156,277.7969 836.2031,277.9375 Q836.5938,278.2031 836.5938,278.6563 Q836.5938,279.0313 836.3281,279.2656 Q836.0781,279.5 835.4688,279.5 L833.1719,279.5 Q832.5625,279.5 832.2969,279.2656 Q832.0313,279.0313 832.0313,278.6406 Q832.0313,278.2656 832.2969,278.0313 Q832.5625,277.7969 833.1719,277.7969 L833.5938,277.7969 L833.1875,276.7656 Z M832.4688,275.0625 L831.1094,271.6875 L829.7344,275.0625 L832.4688,275.0625 Z " fill="#000000"/><text fill="#000000" font-family="sans-serif" font-size="14" font-style="italic" lengthAdjust="spacing" textLength="35" x="845" y="280.7285">Topic</text><line style="stroke:#181818;stroke-width:0.5;" x1="817" x2="882" y1="291" y2="291"/><line style="stroke:#181818;stroke-width:0.5;" x1="817" x2="882" y1="299" y2="299"/></g><!--class Itinerary--><g id="elem_Itinerary"><rect codeLine="28" fill="#F1F1F1" height="48" id="Itinerary" rx="2.5" ry="2.5" style="stroke:#181818;stroke-width:0.5;" width="83" x="881" y="133"/><ellipse cx="896" cy="149" fill="#ADD1B2" rx="11" ry="11" style="stroke:#181818;stroke-width:1.0;"/><path d="M898.7656,144.875 Q898.9219,144.6563 899.1094,144.5469 Q899.2969,144.4375 899.5156,144.4375 Q899.8906,144.4375 900.125,144.7031 Q900.3594,144.9531 900.3594,145.5625 L900.3594,147.0156 Q900.3594,147.625 900.125,147.8906 Q899.8906,148.1563 899.5156,148.1563 Q899.1719,148.1563 898.9688,147.9531 Q898.7656,147.7656 898.6563,147.25 Q898.6094,146.8906 898.4219,146.7031 Q898.0938,146.3281 897.4844,146.1094 Q896.875,145.8906 896.25,145.8906 Q895.4844,145.8906 894.8438,146.2188 Q894.2188,146.5469 893.7188,147.2969 Q893.2344,148.0469 893.2344,149.0781 L893.2344,150.1719 Q893.2344,151.4063 894.125,152.2344 Q895.0156,153.0469 896.6094,153.0469 Q897.5469,153.0469 898.2031,152.7969 Q898.5938,152.6406 899.0156,152.2031 Q899.2813,151.9375 899.4219,151.8594 Q899.5781,151.7813 899.7813,151.7813 Q900.1094,151.7813 900.3594,152.0469 Q900.625,152.2969 900.625,152.6406 Q900.625,152.9844 900.2813,153.3906 Q899.7813,153.9688 898.9844,154.2969 Q897.9063,154.75 896.6094,154.75 Q895.0938,154.75 893.8906,154.125 Q892.9063,153.625 892.2188,152.5625 Q891.5313,151.4844 891.5313,150.2031 L891.5313,149.0469 Q891.5313,147.7188 892.1406,146.5781 Q892.7656,145.4219 893.8594,144.8125 Q894.9531,144.1875 896.1875,144.1875 Q896.9219,144.1875 897.5625,144.3594 Q898.2188,144.5156 898.7656,144.875 Z " fill="#000000"/><text fill="#000000" font-family="sans-serif" font-size="14" lengthAdjust="spacing" textLength="51" x="910" y="154.7285">Itinerary</text><line style="stroke:#181818;stroke-width:0.5;" x1="882" x2="963" y1="165" y2="165"/><line style="stroke:#181818;stroke-width:0.5;" x1="882" x2="963" y1="173" y2="173"/></g><!--class Evaluator--><g id="elem_Evaluator"><rect codeLine="24" fill="#F1F1F1" height="48" id="Evaluator" rx="2.5" ry="2.5" style="stroke:#181818;stroke-width:0.5;" width="92" x="682.5" y="133"/><ellipse cx="697.5" cy="149" fill="#ADD1B2" rx="11" ry="11" style="stroke:#181818;stroke-width:1.0;"/><path d="M700.2656,144.875 Q700.4219,144.6563 700.6094,144.5469 Q700.7969,144.4375 701.0156,144.4375 Q701.3906,144.4375 701.625,144.7031 Q701.8594,144.9531 701.8594,145.5625 L701.8594,147.0156 Q701.8594,147.625 701.625,147.8906 Q701.3906,148.1563 701.0156,148.1563 Q700.6719,148.1563 700.4688,147.9531 Q700.2656,147.7656 700.1563,147.25 Q700.1094,146.8906 699.9219,146.7031 Q699.5938,146.3281 698.9844,146.1094 Q698.375,145.8906 697.75,145.8906 Q696.9844,145.8906 696.3438,146.2188 Q695.7188,146.5469 695.2188,147.2969 Q694.7344,148.0469 694.7344,149.0781 L694.7344,150.1719 Q694.7344,151.4063 695.625,152.2344 Q696.5156,153.0469 698.1094,153.0469 Q699.0469,153.0469 699.7031,152.7969 Q700.0938,152.6406 700.5156,152.2031 Q700.7813,151.9375 700.9219,151.8594 Q701.0781,151.7813 701.2813,151.7813 Q701.6094,151.7813 701.8594,152.0469 Q702.125,152.2969 702.125,152.6406 Q702.125,152.9844 701.7813,153.3906 Q701.2813,153.9688 700.4844,154.2969 Q699.4063,154.75 698.1094,154.75 Q696.5938,154.75 695.3906,154.125 Q694.4063,153.625 693.7188,152.5625 Q693.0313,151.4844 693.0313,150.2031 L693.0313,149.0469 Q693.0313,147.7188 693.6406,146.5781 Q694.2656,145.4219 695.3594,144.8125 Q696.4531,144.1875 697.6875,144.1875 Q698.4219,144.1875 699.0625,144.3594 Q699.7188,144.5156 700.2656,144.875 Z " fill="#000000"/><text fill="#000000" font-family="sans-serif" font-size="14" lengthAdjust="spacing" textLength="60" x="711.5" y="154.7285">Evaluator</text><line style="stroke:#181818;stroke-width:0.5;" x1="683.5" x2="773.5" y1="165" y2="165"/><line style="stroke:#181818;stroke-width:0.5;" x1="683.5" x2="773.5" y1="173" y2="173"/></g><!--class Teacher--><g id="elem_Teacher"><rect codeLine="16" fill="#F1F1F1" height="48" id="Teacher" rx="2.5" ry="2.5" style="stroke:#181818;stroke-width:0.5;" width="85" x="601" y="259"/><ellipse cx="616" cy="275" fill="#ADD1B2" rx="11" ry="11" style="stroke:#181818;stroke-width:1.0;"/><path d="M618.7656,270.875 Q618.9219,270.6563 619.1094,270.5469 Q619.2969,270.4375 619.5156,270.4375 Q619.8906,270.4375 620.125,270.7031 Q620.3594,270.9531 620.3594,271.5625 L620.3594,273.0156 Q620.3594,273.625 620.125,273.8906 Q619.8906,274.1563 619.5156,274.1563 Q619.1719,274.1563 618.9688,273.9531 Q618.7656,273.7656 618.6563,273.25 Q618.6094,272.8906 618.4219,272.7031 Q618.0938,272.3281 617.4844,272.1094 Q616.875,271.8906 616.25,271.8906 Q615.4844,271.8906 614.8438,272.2188 Q614.2188,272.5469 613.7188,273.2969 Q613.2344,274.0469 613.2344,275.0781 L613.2344,276.1719 Q613.2344,277.4063 614.125,278.2344 Q615.0156,279.0469 616.6094,279.0469 Q617.5469,279.0469 618.2031,278.7969 Q618.5938,278.6406 619.0156,278.2031 Q619.2813,277.9375 619.4219,277.8594 Q619.5781,277.7813 619.7813,277.7813 Q620.1094,277.7813 620.3594,278.0469 Q620.625,278.2969 620.625,278.6406 Q620.625,278.9844 620.2813,279.3906 Q619.7813,279.9688 618.9844,280.2969 Q617.9063,280.75 616.6094,280.75 Q615.0938,280.75 613.8906,280.125 Q612.9063,279.625 612.2188,278.5625 Q611.5313,277.4844 611.5313,276.2031 L611.5313,275.0469 Q611.5313,273.7188 612.1406,272.5781 Q612.7656,271.4219 613.8594,270.8125 Q614.9531,270.1875 616.1875,270.1875 Q616.9219,270.1875 617.5625,270.3594 Q618.2188,270.5156 618.7656,270.875 Z " fill="#000000"/><text fill="#000000" font-family="sans-serif" font-size="14" lengthAdjust="spacing" textLength="53" x="630" y="280.7285">Teacher</text><line style="stroke:#181818;stroke-width:0.5;" x1="602" x2="685" y1="291" y2="291"/><line style="stroke:#181818;stroke-width:0.5;" x1="602" x2="685" y1="299" y2="299"/></g><!--class Student--><g id="elem_Student"><rect codeLine="19" fill="#F1F1F1" height="48" id="Student" rx="2.5" ry="2.5" style="stroke:#181818;stroke-width:0.5;" width="81" x="485" y="259"/><ellipse cx="500" cy="275" fill="#ADD1B2" rx="11" ry="11" style="stroke:#181818;stroke-width:1.0;"/><path d="M502.7656,270.875 Q502.9219,270.6563 503.1094,270.5469 Q503.2969,270.4375 503.5156,270.4375 Q503.8906,270.4375 504.125,270.7031 Q504.3594,270.9531 504.3594,271.5625 L504.3594,273.0156 Q504.3594,273.625 504.125,273.8906 Q503.8906,274.1563 503.5156,274.1563 Q503.1719,274.1563 502.9688,273.9531 Q502.7656,273.7656 502.6563,273.25 Q502.6094,272.8906 502.4219,272.7031 Q502.0938,272.3281 501.4844,272.1094 Q500.875,271.8906 500.25,271.8906 Q499.4844,271.8906 498.8438,272.2188 Q498.2188,272.5469 497.7188,273.2969 Q497.2344,274.0469 497.2344,275.0781 L497.2344,276.1719 Q497.2344,277.4063 498.125,278.2344 Q499.0156,279.0469 500.6094,279.0469 Q501.5469,279.0469 502.2031,278.7969 Q502.5938,278.6406 503.0156,278.2031 Q503.2813,277.9375 503.4219,277.8594 Q503.5781,277.7813 503.7813,277.7813 Q504.1094,277.7813 504.3594,278.0469 Q504.625,278.2969 504.625,278.6406 Q504.625,278.9844 504.2813,279.3906 Q503.7813,279.9688 502.9844,280.2969 Q501.9063,280.75 500.6094,280.75 Q499.0938,280.75 497.8906,280.125 Q496.9063,279.625 496.2188,278.5625 Q495.5313,277.4844 495.5313,276.2031 L495.5313,275.0469 Q495.5313,273.7188 496.1406,272.5781 Q496.7656,271.4219 497.8594,270.8125 Q498.9531,270.1875 500.1875,270.1875 Q500.9219,270.1875 501.5625,270.3594 Q502.2188,270.5156 502.7656,270.875 Z " fill="#000000"/><text fill="#000000" font-family="sans-serif" font-size="14" lengthAdjust="spacing" textLength="49" x="514" y="280.7285">Student</text><line style="stroke:#181818;stroke-width:0.5;" x1="486" x2="565" y1="291" y2="291"/><line style="stroke:#181818;stroke-width:0.5;" x1="486" x2="565" y1="299" y2="299"/></g><!--class Solution--><g id="elem_Solution"><rect codeLine="68" fill="#F1F1F1" height="100.8281" id="Solution" rx="2.5" ry="2.5" style="stroke:#181818;stroke-width:0.5;" width="151" x="523" y="764.5"/><ellipse cx="568.75" cy="780.5" fill="#ADD1B2" rx="11" ry="11" style="stroke:#181818;stroke-width:1.0;"/><path d="M571.5156,776.375 Q571.6719,776.1563 571.8594,776.0469 Q572.0469,775.9375 572.2656,775.9375 Q572.6406,775.9375 572.875,776.2031 Q573.1094,776.4531 573.1094,777.0625 L573.1094,778.5156 Q573.1094,779.125 572.875,779.3906 Q572.6406,779.6563 572.2656,779.6563 Q571.9219,779.6563 571.7188,779.4531 Q571.5156,779.2656 571.4063,778.75 Q571.3594,778.3906 571.1719,778.2031 Q570.8438,777.8281 570.2344,777.6094 Q569.625,777.3906 569,777.3906 Q568.2344,777.3906 567.5938,777.7188 Q566.9688,778.0469 566.4688,778.7969 Q565.9844,779.5469 565.9844,780.5781 L565.9844,781.6719 Q565.9844,782.9063 566.875,783.7344 Q567.7656,784.5469 569.3594,784.5469 Q570.2969,784.5469 570.9531,784.2969 Q571.3438,784.1406 571.7656,783.7031 Q572.0313,783.4375 572.1719,783.3594 Q572.3281,783.2813 572.5313,783.2813 Q572.8594,783.2813 573.1094,783.5469 Q573.375,783.7969 573.375,784.1406 Q573.375,784.4844 573.0313,784.8906 Q572.5313,785.4688 571.7344,785.7969 Q570.6563,786.25 569.3594,786.25 Q567.8438,786.25 566.6406,785.625 Q565.6563,785.125 564.9688,784.0625 Q564.2813,782.9844 564.2813,781.7031 L564.2813,780.5469 Q564.2813,779.2188 564.8906,778.0781 Q565.5156,776.9219 566.6094,776.3125 Q567.7031,775.6875 568.9375,775.6875 Q569.6719,775.6875 570.3125,775.8594 Q570.9688,776.0156 571.5156,776.375 Z " fill="#000000"/><text fill="#000000" font-family="sans-serif" font-size="14" lengthAdjust="spacing" textLength="51" x="589.25" y="786.2285">Solution</text><line style="stroke:#181818;stroke-width:0.5;" x1="524" x2="673" y1="796.5" y2="796.5"/><rect fill="none" height="6" style="stroke:#C82930;stroke-width:1.0;" width="6" x="531" y="807.8047"/><text fill="#000000" font-family="sans-serif" font-size="14" lengthAdjust="spacing" textLength="107" x="543" y="815.0332">correct : boolean</text><rect fill="none" height="6" style="stroke:#C82930;stroke-width:1.0;" width="6" x="531" y="825.4141"/><text fill="#000000" font-family="sans-serif" font-size="14" lengthAdjust="spacing" textLength="125" x="543" y="832.6426">evaluated : boolean</text><rect fill="none" height="6" style="stroke:#C82930;stroke-width:1.0;" width="6" x="531" y="843.0234"/><text fill="#000000" font-family="sans-serif" font-size="14" lengthAdjust="spacing" textLength="118" x="543" y="850.252">Application : String</text><line style="stroke:#181818;stroke-width:0.5;" x1="524" x2="673" y1="857.3281" y2="857.3281"/></g><!--class Definition--><g id="elem_Definition"><rect codeLine="32" fill="#F1F1F1" height="65.6094" id="Definition" rx="2.5" ry="2.5" style="stroke:#181818;stroke-width:0.5;" width="133" x="775" y="603"/><ellipse cx="808.9" cy="619" fill="#ADD1B2" rx="11" ry="11" style="stroke:#181818;stroke-width:1.0;"/><path d="M811.6656,614.875 Q811.8219,614.6563 812.0094,614.5469 Q812.1969,614.4375 812.4156,614.4375 Q812.7906,614.4375 813.025,614.7031 Q813.2594,614.9531 813.2594,615.5625 L813.2594,617.0156 Q813.2594,617.625 813.025,617.8906 Q812.7906,618.1563 812.4156,618.1563 Q812.0719,618.1563 811.8688,617.9531 Q811.6656,617.7656 811.5563,617.25 Q811.5094,616.8906 811.3219,616.7031 Q810.9938,616.3281 810.3844,616.1094 Q809.775,615.8906 809.15,615.8906 Q808.3844,615.8906 807.7438,616.2188 Q807.1188,616.5469 806.6188,617.2969 Q806.1344,618.0469 806.1344,619.0781 L806.1344,620.1719 Q806.1344,621.4063 807.025,622.2344 Q807.9156,623.0469 809.5094,623.0469 Q810.4469,623.0469 811.1031,622.7969 Q811.4938,622.6406 811.9156,622.2031 Q812.1813,621.9375 812.3219,621.8594 Q812.4781,621.7813 812.6813,621.7813 Q813.0094,621.7813 813.2594,622.0469 Q813.525,622.2969 813.525,622.6406 Q813.525,622.9844 813.1813,623.3906 Q812.6813,623.9688 811.8844,624.2969 Q810.8063,624.75 809.5094,624.75 Q807.9938,624.75 806.7906,624.125 Q805.8063,623.625 805.1188,622.5625 Q804.4313,621.4844 804.4313,620.2031 L804.4313,619.0469 Q804.4313,617.7188 805.0406,616.5781 Q805.6656,615.4219 806.7594,614.8125 Q807.8531,614.1875 809.0875,614.1875 Q809.8219,614.1875 810.4625,614.3594 Q811.1188,614.5156 811.6656,614.875 Z " fill="#000000"/><text fill="#000000" font-family="sans-serif" font-size="14" lengthAdjust="spacing" textLength="59" x="827.1" y="624.7285">Definition</text><line style="stroke:#181818;stroke-width:0.5;" x1="776" x2="907" y1="635" y2="635"/><rect fill="none" height="6" style="stroke:#C82930;stroke-width:1.0;" width="6" x="783" y="646.3047"/><text fill="#000000" font-family="sans-serif" font-size="14" lengthAdjust="spacing" textLength="107" x="795" y="653.5332">correct : boolean</text><line style="stroke:#181818;stroke-width:0.5;" x1="776" x2="907" y1="660.6094" y2="660.6094"/></g><!--class Justification--><g id="elem_Justification"><rect codeLine="37" fill="#F1F1F1" height="65.6094" id="Justification" rx="2.5" ry="2.5" style="stroke:#181818;stroke-width:0.5;" width="133" x="610" y="961"/><ellipse cx="637.6" cy="977" fill="#ADD1B2" rx="11" ry="11" style="stroke:#181818;stroke-width:1.0;"/><path d="M640.3656,972.875 Q640.5219,972.6563 640.7094,972.5469 Q640.8969,972.4375 641.1156,972.4375 Q641.4906,972.4375 641.725,972.7031 Q641.9594,972.9531 641.9594,973.5625 L641.9594,975.0156 Q641.9594,975.625 641.725,975.8906 Q641.4906,976.1563 641.1156,976.1563 Q640.7719,976.1563 640.5688,975.9531 Q640.3656,975.7656 640.2563,975.25 Q640.2094,974.8906 640.0219,974.7031 Q639.6938,974.3281 639.0844,974.1094 Q638.475,973.8906 637.85,973.8906 Q637.0844,973.8906 636.4438,974.2188 Q635.8188,974.5469 635.3188,975.2969 Q634.8344,976.0469 634.8344,977.0781 L634.8344,978.1719 Q634.8344,979.4063 635.725,980.2344 Q636.6156,981.0469 638.2094,981.0469 Q639.1469,981.0469 639.8031,980.7969 Q640.1938,980.6406 640.6156,980.2031 Q640.8813,979.9375 641.0219,979.8594 Q641.1781,979.7813 641.3813,979.7813 Q641.7094,979.7813 641.9594,980.0469 Q642.225,980.2969 642.225,980.6406 Q642.225,980.9844 641.8813,981.3906 Q641.3813,981.9688 640.5844,982.2969 Q639.5063,982.75 638.2094,982.75 Q636.6938,982.75 635.4906,982.125 Q634.5063,981.625 633.8188,980.5625 Q633.1313,979.4844 633.1313,978.2031 L633.1313,977.0469 Q633.1313,975.7188 633.7406,974.5781 Q634.3656,973.4219 635.4594,972.8125 Q636.5531,972.1875 637.7875,972.1875 Q638.5219,972.1875 639.1625,972.3594 Q639.8188,972.5156 640.3656,972.875 Z " fill="#000000"/><text fill="#000000" font-family="sans-serif" font-size="14" lengthAdjust="spacing" textLength="73" x="654.4" y="982.7285">Justification</text><line style="stroke:#181818;stroke-width:0.5;" x1="611" x2="742" y1="993" y2="993"/><rect fill="none" height="6" style="stroke:#C82930;stroke-width:1.0;" width="6" x="618" y="1004.3047"/><text fill="#000000" font-family="sans-serif" font-size="14" lengthAdjust="spacing" textLength="107" x="630" y="1011.5332">correct : boolean</text><line style="stroke:#181818;stroke-width:0.5;" x1="611" x2="742" y1="1018.6094" y2="1018.6094"/></g><!--class Domain--><g id="elem_Domain"><rect codeLine="41" fill="#F1F1F1" height="83.2188" id="Domain" rx="2.5" ry="2.5" style="stroke:#181818;stroke-width:0.5;" width="196" x="291.5" y="773.5"/><ellipse cx="361.25" cy="789.5" fill="#ADD1B2" rx="11" ry="11" style="stroke:#181818;stroke-width:1.0;"/><path d="M364.0156,785.375 Q364.1719,785.1563 364.3594,785.0469 Q364.5469,784.9375 364.7656,784.9375 Q365.1406,784.9375 365.375,785.2031 Q365.6094,785.4531 365.6094,786.0625 L365.6094,787.5156 Q365.6094,788.125 365.375,788.3906 Q365.1406,788.6563 364.7656,788.6563 Q364.4219,788.6563 364.2188,788.4531 Q364.0156,788.2656 363.9063,787.75 Q363.8594,787.3906 363.6719,787.2031 Q363.3438,786.8281 362.7344,786.6094 Q362.125,786.3906 361.5,786.3906 Q360.7344,786.3906 360.0938,786.7188 Q359.4688,787.0469 358.9688,787.7969 Q358.4844,788.5469 358.4844,789.5781 L358.4844,790.6719 Q358.4844,791.9063 359.375,792.7344 Q360.2656,793.5469 361.8594,793.5469 Q362.7969,793.5469 363.4531,793.2969 Q363.8438,793.1406 364.2656,792.7031 Q364.5313,792.4375 364.6719,792.3594 Q364.8281,792.2813 365.0313,792.2813 Q365.3594,792.2813 365.6094,792.5469 Q365.875,792.7969 365.875,793.1406 Q365.875,793.4844 365.5313,793.8906 Q365.0313,794.4688 364.2344,794.7969 Q363.1563,795.25 361.8594,795.25 Q360.3438,795.25 359.1406,794.625 Q358.1563,794.125 357.4688,793.0625 Q356.7813,791.9844 356.7813,790.7031 L356.7813,789.5469 Q356.7813,788.2188 357.3906,787.0781 Q358.0156,785.9219 359.1094,785.3125 Q360.2031,784.6875 361.4375,784.6875 Q362.1719,784.6875 362.8125,784.8594 Q363.4688,785.0156 364.0156,785.375 Z " fill="#000000"/><text fill="#000000" font-family="sans-serif" font-size="14" lengthAdjust="spacing" textLength="48" x="381.75" y="795.2285">Domain</text><line style="stroke:#181818;stroke-width:0.5;" x1="292.5" x2="486.5" y1="805.5" y2="805.5"/><rect fill="none" height="6" style="stroke:#C82930;stroke-width:1.0;" width="6" x="299.5" y="816.8047"/><text fill="#000000" font-family="sans-serif" font-size="14" lengthAdjust="spacing" textLength="73" x="311.5" y="824.0332">version : int</text><rect fill="none" height="6" style="stroke:#C82930;stroke-width:1.0;" width="6" x="299.5" y="834.4141"/><text fill="#000000" font-family="sans-serif" font-size="14" lengthAdjust="spacing" textLength="170" x="311.5" y="841.6426">requirements : List&lt;String&gt;</text><line style="stroke:#181818;stroke-width:0.5;" x1="292.5" x2="486.5" y1="848.7188" y2="848.7188"/></g><!--class Exercise--><g id="elem_Exercise"><rect codeLine="46" fill="#F1F1F1" height="65.6094" id="Exercise" rx="2.5" ry="2.5" style="stroke:#181818;stroke-width:0.5;" width="137" x="603" y="603"/><ellipse cx="641.4" cy="619" fill="#A9DCDF" rx="11" ry="11" style="stroke:#181818;stroke-width:1.0;"/><path d="M643.5875,620.7656 L639.4469,620.7656 L639.025,621.7969 L639.4469,621.7969 Q640.0563,621.7969 640.3219,622.0313 Q640.5875,622.2656 640.5875,622.6563 Q640.5875,623.0313 640.3219,623.2656 Q640.0563,623.5 639.4469,623.5 L637.15,623.5 Q636.5406,623.5 636.2906,623.2656 Q636.025,623.0313 636.025,622.6406 Q636.025,622.2656 636.3063,622.0313 Q636.5719,621.7813 637.1969,621.7969 L639.8688,615.1406 L638.7594,615.1406 Q638.15,615.1406 637.8844,614.9063 Q637.6188,614.6719 637.6188,614.2813 Q637.6188,613.9063 637.8844,613.6719 Q638.15,613.4375 638.7594,613.4375 L642.4313,613.4375 L645.8219,621.7969 Q646.4156,621.7969 646.6031,621.9375 Q646.9938,622.2031 646.9938,622.6563 Q646.9938,623.0313 646.7281,623.2656 Q646.4781,623.5 645.8688,623.5 L643.5719,623.5 Q642.9625,623.5 642.6969,623.2656 Q642.4313,623.0313 642.4313,622.6406 Q642.4313,622.2656 642.6969,622.0313 Q642.9625,621.7969 643.5719,621.7969 L643.9938,621.7969 L643.5875,620.7656 Z M642.8688,619.0625 L641.5094,615.6875 L640.1344,619.0625 L642.8688,619.0625 Z " fill="#000000"/><text fill="#000000" font-family="sans-serif" font-size="14" font-style="italic" lengthAdjust="spacing" textLength="53" x="660.6" y="624.7285">Exercise</text><line style="stroke:#181818;stroke-width:0.5;" x1="604" x2="739" y1="635" y2="635"/><rect fill="none" height="6" style="stroke:#C82930;stroke-width:1.0;" width="6" x="611" y="646.3047"/><text fill="#000000" font-family="sans-serif" font-size="14" lengthAdjust="spacing" textLength="111" x="623" y="653.5332">statement : String</text><line style="stroke:#181818;stroke-width:0.5;" x1="604" x2="739" y1="660.6094" y2="660.6094"/></g><!--class Question--><g id="elem_Question"><rect codeLine="55" fill="#F1F1F1" height="48" id="Question" rx="2.5" ry="2.5" style="stroke:#181818;stroke-width:0.5;" width="89" x="167" y="791"/><ellipse cx="182" cy="807" fill="#A9DCDF" rx="11" ry="11" style="stroke:#181818;stroke-width:1.0;"/><path d="M184.1875,808.7656 L180.0469,808.7656 L179.625,809.7969 L180.0469,809.7969 Q180.6563,809.7969 180.9219,810.0313 Q181.1875,810.2656 181.1875,810.6563 Q181.1875,811.0313 180.9219,811.2656 Q180.6563,811.5 180.0469,811.5 L177.75,811.5 Q177.1406,811.5 176.8906,811.2656 Q176.625,811.0313 176.625,810.6406 Q176.625,810.2656 176.9063,810.0313 Q177.1719,809.7813 177.7969,809.7969 L180.4688,803.1406 L179.3594,803.1406 Q178.75,803.1406 178.4844,802.9063 Q178.2188,802.6719 178.2188,802.2813 Q178.2188,801.9063 178.4844,801.6719 Q178.75,801.4375 179.3594,801.4375 L183.0313,801.4375 L186.4219,809.7969 Q187.0156,809.7969 187.2031,809.9375 Q187.5938,810.2031 187.5938,810.6563 Q187.5938,811.0313 187.3281,811.2656 Q187.0781,811.5 186.4688,811.5 L184.1719,811.5 Q183.5625,811.5 183.2969,811.2656 Q183.0313,811.0313 183.0313,810.6406 Q183.0313,810.2656 183.2969,810.0313 Q183.5625,809.7969 184.1719,809.7969 L184.5938,809.7969 L184.1875,808.7656 Z M183.4688,807.0625 L182.1094,803.6875 L180.7344,807.0625 L183.4688,807.0625 Z " fill="#000000"/><text fill="#000000" font-family="sans-serif" font-size="14" font-style="italic" lengthAdjust="spacing" textLength="57" x="196" y="812.7285">Question</text><line style="stroke:#181818;stroke-width:0.5;" x1="168" x2="255" y1="823" y2="823"/><line style="stroke:#181818;stroke-width:0.5;" x1="168" x2="255" y1="831" y2="831"/></g><!--class MultipleChoice--><g id="elem_MultipleChoice"><rect codeLine="65" fill="#F1F1F1" height="48" id="MultipleChoice" rx="2.5" ry="2.5" style="stroke:#181818;stroke-width:0.5;" width="124" x="149.5" y="970"/><ellipse cx="164.5" cy="986" fill="#ADD1B2" rx="11" ry="11" style="stroke:#181818;stroke-width:1.0;"/><path d="M167.2656,981.875 Q167.4219,981.6563 167.6094,981.5469 Q167.7969,981.4375 168.0156,981.4375 Q168.3906,981.4375 168.625,981.7031 Q168.8594,981.9531 168.8594,982.5625 L168.8594,984.0156 Q168.8594,984.625 168.625,984.8906 Q168.3906,985.1563 168.0156,985.1563 Q167.6719,985.1563 167.4688,984.9531 Q167.2656,984.7656 167.1563,984.25 Q167.1094,983.8906 166.9219,983.7031 Q166.5938,983.3281 165.9844,983.1094 Q165.375,982.8906 164.75,982.8906 Q163.9844,982.8906 163.3438,983.2188 Q162.7188,983.5469 162.2188,984.2969 Q161.7344,985.0469 161.7344,986.0781 L161.7344,987.1719 Q161.7344,988.4063 162.625,989.2344 Q163.5156,990.0469 165.1094,990.0469 Q166.0469,990.0469 166.7031,989.7969 Q167.0938,989.6406 167.5156,989.2031 Q167.7813,988.9375 167.9219,988.8594 Q168.0781,988.7813 168.2813,988.7813 Q168.6094,988.7813 168.8594,989.0469 Q169.125,989.2969 169.125,989.6406 Q169.125,989.9844 168.7813,990.3906 Q168.2813,990.9688 167.4844,991.2969 Q166.4063,991.75 165.1094,991.75 Q163.5938,991.75 162.3906,991.125 Q161.4063,990.625 160.7188,989.5625 Q160.0313,988.4844 160.0313,987.2031 L160.0313,986.0469 Q160.0313,984.7188 160.6406,983.5781 Q161.2656,982.4219 162.3594,981.8125 Q163.4531,981.1875 164.6875,981.1875 Q165.4219,981.1875 166.0625,981.3594 Q166.7188,981.5156 167.2656,981.875 Z " fill="#000000"/><text fill="#000000" font-family="sans-serif" font-size="14" lengthAdjust="spacing" textLength="92" x="178.5" y="991.7285">MultipleChoice</text><line style="stroke:#181818;stroke-width:0.5;" x1="150.5" x2="272.5" y1="1002" y2="1002"/><line style="stroke:#181818;stroke-width:0.5;" x1="150.5" x2="272.5" y1="1010" y2="1010"/></g><!--class Cloze--><g id="elem_Cloze"><rect codeLine="61" fill="#F1F1F1" height="65.6094" id="Cloze" rx="2.5" ry="2.5" style="stroke:#181818;stroke-width:0.5;" width="107" x="7" y="961"/><ellipse cx="40" cy="977" fill="#ADD1B2" rx="11" ry="11" style="stroke:#181818;stroke-width:1.0;"/><path d="M42.7656,972.875 Q42.9219,972.6563 43.1094,972.5469 Q43.2969,972.4375 43.5156,972.4375 Q43.8906,972.4375 44.125,972.7031 Q44.3594,972.9531 44.3594,973.5625 L44.3594,975.0156 Q44.3594,975.625 44.125,975.8906 Q43.8906,976.1563 43.5156,976.1563 Q43.1719,976.1563 42.9688,975.9531 Q42.7656,975.7656 42.6563,975.25 Q42.6094,974.8906 42.4219,974.7031 Q42.0938,974.3281 41.4844,974.1094 Q40.875,973.8906 40.25,973.8906 Q39.4844,973.8906 38.8438,974.2188 Q38.2188,974.5469 37.7188,975.2969 Q37.2344,976.0469 37.2344,977.0781 L37.2344,978.1719 Q37.2344,979.4063 38.125,980.2344 Q39.0156,981.0469 40.6094,981.0469 Q41.5469,981.0469 42.2031,980.7969 Q42.5938,980.6406 43.0156,980.2031 Q43.2813,979.9375 43.4219,979.8594 Q43.5781,979.7813 43.7813,979.7813 Q44.1094,979.7813 44.3594,980.0469 Q44.625,980.2969 44.625,980.6406 Q44.625,980.9844 44.2813,981.3906 Q43.7813,981.9688 42.9844,982.2969 Q41.9063,982.75 40.6094,982.75 Q39.0938,982.75 37.8906,982.125 Q36.9063,981.625 36.2188,980.5625 Q35.5313,979.4844 35.5313,978.2031 L35.5313,977.0469 Q35.5313,975.7188 36.1406,974.5781 Q36.7656,973.4219 37.8594,972.8125 Q38.9531,972.1875 40.1875,972.1875 Q40.9219,972.1875 41.5625,972.3594 Q42.2188,972.5156 42.7656,972.875 Z " fill="#000000"/><text fill="#000000" font-family="sans-serif" font-size="14" lengthAdjust="spacing" textLength="35" x="58" y="982.7285">Cloze</text><line style="stroke:#181818;stroke-width:0.5;" x1="8" x2="113" y1="993" y2="993"/><text fill="#000000" font-family="sans-serif" font-size="14" lengthAdjust="spacing" textLength="95" x="13" y="1011.5332">blankCount: int</text><line style="stroke:#181818;stroke-width:0.5;" x1="8" x2="113" y1="1018.6094" y2="1018.6094"/></g><!--class Open--><g id="elem_Open"><rect fill="#F1F1F1" height="48" id="Open" rx="2.5" ry="2.5" style="stroke:#181818;stroke-width:0.5;" width="67" x="309" y="970"/><ellipse cx="324" cy="986" fill="#ADD1B2" rx="11" ry="11" style="stroke:#181818;stroke-width:1.0;"/><path d="M326.7656,981.875 Q326.9219,981.6563 327.1094,981.5469 Q327.2969,981.4375 327.5156,981.4375 Q327.8906,981.4375 328.125,981.7031 Q328.3594,981.9531 328.3594,982.5625 L328.3594,984.0156 Q328.3594,984.625 328.125,984.8906 Q327.8906,985.1563 327.5156,985.1563 Q327.1719,985.1563 326.9688,984.9531 Q326.7656,984.7656 326.6563,984.25 Q326.6094,983.8906 326.4219,983.7031 Q326.0938,983.3281 325.4844,983.1094 Q324.875,982.8906 324.25,982.8906 Q323.4844,982.8906 322.8438,983.2188 Q322.2188,983.5469 321.7188,984.2969 Q321.2344,985.0469 321.2344,986.0781 L321.2344,987.1719 Q321.2344,988.4063 322.125,989.2344 Q323.0156,990.0469 324.6094,990.0469 Q325.5469,990.0469 326.2031,989.7969 Q326.5938,989.6406 327.0156,989.2031 Q327.2813,988.9375 327.4219,988.8594 Q327.5781,988.7813 327.7813,988.7813 Q328.1094,988.7813 328.3594,989.0469 Q328.625,989.2969 328.625,989.6406 Q328.625,989.9844 328.2813,990.3906 Q327.7813,990.9688 326.9844,991.2969 Q325.9063,991.75 324.6094,991.75 Q323.0938,991.75 321.8906,991.125 Q320.9063,990.625 320.2188,989.5625 Q319.5313,988.4844 319.5313,987.2031 L319.5313,986.0469 Q319.5313,984.7188 320.1406,983.5781 Q320.7656,982.4219 321.8594,981.8125 Q322.9531,981.1875 324.1875,981.1875 Q324.9219,981.1875 325.5625,981.3594 Q326.2188,981.5156 326.7656,981.875 Z " fill="#000000"/><text fill="#000000" font-family="sans-serif" font-size="14" lengthAdjust="spacing" textLength="35" x="338" y="991.7285">Open</text><line style="stroke:#181818;stroke-width:0.5;" x1="310" x2="375" y1="1002" y2="1002"/><line style="stroke:#181818;stroke-width:0.5;" x1="310" x2="375" y1="1010" y2="1010"/></g><!--class Document--><g id="elem_Document"><rect codeLine="89" fill="#F1F1F1" height="48" id="Document" rx="2.5" ry="2.5" style="stroke:#181818;stroke-width:0.5;" width="96" x="968.5" y="612"/><ellipse cx="983.5" cy="628" fill="#A9DCDF" rx="11" ry="11" style="stroke:#181818;stroke-width:1.0;"/><path d="M985.6875,629.7656 L981.5469,629.7656 L981.125,630.7969 L981.5469,630.7969 Q982.1563,630.7969 982.4219,631.0313 Q982.6875,631.2656 982.6875,631.6563 Q982.6875,632.0313 982.4219,632.2656 Q982.1563,632.5 981.5469,632.5 L979.25,632.5 Q978.6406,632.5 978.3906,632.2656 Q978.125,632.0313 978.125,631.6406 Q978.125,631.2656 978.4063,631.0313 Q978.6719,630.7813 979.2969,630.7969 L981.9688,624.1406 L980.8594,624.1406 Q980.25,624.1406 979.9844,623.9063 Q979.7188,623.6719 979.7188,623.2813 Q979.7188,622.9063 979.9844,622.6719 Q980.25,622.4375 980.8594,622.4375 L984.5313,622.4375 L987.9219,630.7969 Q988.5156,630.7969 988.7031,630.9375 Q989.0938,631.2031 989.0938,631.6563 Q989.0938,632.0313 988.8281,632.2656 Q988.5781,632.5 987.9688,632.5 L985.6719,632.5 Q985.0625,632.5 984.7969,632.2656 Q984.5313,632.0313 984.5313,631.6406 Q984.5313,631.2656 984.7969,631.0313 Q985.0625,630.7969 985.6719,630.7969 L986.0938,630.7969 L985.6875,629.7656 Z M984.9688,628.0625 L983.6094,624.6875 L982.2344,628.0625 L984.9688,628.0625 Z " fill="#000000"/><text fill="#000000" font-family="sans-serif" font-size="14" font-style="italic" lengthAdjust="spacing" textLength="64" x="997.5" y="633.7285">Document</text><line style="stroke:#181818;stroke-width:0.5;" x1="969.5" x2="1063.5" y1="644" y2="644"/><line style="stroke:#181818;stroke-width:0.5;" x1="969.5" x2="1063.5" y1="652" y2="652"/></g><!--class CompositeTopic--><g id="elem_CompositeTopic"><rect codeLine="85" fill="#F1F1F1" height="48" id="CompositeTopic" rx="2.5" ry="2.5" style="stroke:#181818;stroke-width:0.5;" width="134" x="782.5" y="368"/><ellipse cx="797.5" cy="384" fill="#ADD1B2" rx="11" ry="11" style="stroke:#181818;stroke-width:1.0;"/><path d="M800.2656,379.875 Q800.4219,379.6563 800.6094,379.5469 Q800.7969,379.4375 801.0156,379.4375 Q801.3906,379.4375 801.625,379.7031 Q801.8594,379.9531 801.8594,380.5625 L801.8594,382.0156 Q801.8594,382.625 801.625,382.8906 Q801.3906,383.1563 801.0156,383.1563 Q800.6719,383.1563 800.4688,382.9531 Q800.2656,382.7656 800.1563,382.25 Q800.1094,381.8906 799.9219,381.7031 Q799.5938,381.3281 798.9844,381.1094 Q798.375,380.8906 797.75,380.8906 Q796.9844,380.8906 796.3438,381.2188 Q795.7188,381.5469 795.2188,382.2969 Q794.7344,383.0469 794.7344,384.0781 L794.7344,385.1719 Q794.7344,386.4063 795.625,387.2344 Q796.5156,388.0469 798.1094,388.0469 Q799.0469,388.0469 799.7031,387.7969 Q800.0938,387.6406 800.5156,387.2031 Q800.7813,386.9375 800.9219,386.8594 Q801.0781,386.7813 801.2813,386.7813 Q801.6094,386.7813 801.8594,387.0469 Q802.125,387.2969 802.125,387.6406 Q802.125,387.9844 801.7813,388.3906 Q801.2813,388.9688 800.4844,389.2969 Q799.4063,389.75 798.1094,389.75 Q796.5938,389.75 795.3906,389.125 Q794.4063,388.625 793.7188,387.5625 Q793.0313,386.4844 793.0313,385.2031 L793.0313,384.0469 Q793.0313,382.7188 793.6406,381.5781 Q794.2656,380.4219 795.3594,379.8125 Q796.4531,379.1875 797.6875,379.1875 Q798.4219,379.1875 799.0625,379.3594 Q799.7188,379.5156 800.2656,379.875 Z " fill="#000000"/><text fill="#000000" font-family="sans-serif" font-size="14" lengthAdjust="spacing" textLength="102" x="811.5" y="389.7285">CompositeTopic</text><line style="stroke:#181818;stroke-width:0.5;" x1="783.5" x2="915.5" y1="400" y2="400"/><line style="stroke:#181818;stroke-width:0.5;" x1="783.5" x2="915.5" y1="408" y2="408"/></g><!--class SimpleTopic--><g id="elem_SimpleTopic"><rect codeLine="81" fill="#F1F1F1" height="48" id="SimpleTopic" rx="2.5" ry="2.5" style="stroke:#181818;stroke-width:0.5;" width="109" x="638" y="368"/><ellipse cx="653" cy="384" fill="#ADD1B2" rx="11" ry="11" style="stroke:#181818;stroke-width:1.0;"/><path d="M655.7656,379.875 Q655.9219,379.6563 656.1094,379.5469 Q656.2969,379.4375 656.5156,379.4375 Q656.8906,379.4375 657.125,379.7031 Q657.3594,379.9531 657.3594,380.5625 L657.3594,382.0156 Q657.3594,382.625 657.125,382.8906 Q656.8906,383.1563 656.5156,383.1563 Q656.1719,383.1563 655.9688,382.9531 Q655.7656,382.7656 655.6563,382.25 Q655.6094,381.8906 655.4219,381.7031 Q655.0938,381.3281 654.4844,381.1094 Q653.875,380.8906 653.25,380.8906 Q652.4844,380.8906 651.8438,381.2188 Q651.2188,381.5469 650.7188,382.2969 Q650.2344,383.0469 650.2344,384.0781 L650.2344,385.1719 Q650.2344,386.4063 651.125,387.2344 Q652.0156,388.0469 653.6094,388.0469 Q654.5469,388.0469 655.2031,387.7969 Q655.5938,387.6406 656.0156,387.2031 Q656.2813,386.9375 656.4219,386.8594 Q656.5781,386.7813 656.7813,386.7813 Q657.1094,386.7813 657.3594,387.0469 Q657.625,387.2969 657.625,387.6406 Q657.625,387.9844 657.2813,388.3906 Q656.7813,388.9688 655.9844,389.2969 Q654.9063,389.75 653.6094,389.75 Q652.0938,389.75 650.8906,389.125 Q649.9063,388.625 649.2188,387.5625 Q648.5313,386.4844 648.5313,385.2031 L648.5313,384.0469 Q648.5313,382.7188 649.1406,381.5781 Q649.7656,380.4219 650.8594,379.8125 Q651.9531,379.1875 653.1875,379.1875 Q653.9219,379.1875 654.5625,379.3594 Q655.2188,379.5156 655.7656,379.875 Z " fill="#000000"/><text fill="#000000" font-family="sans-serif" font-size="14" lengthAdjust="spacing" textLength="77" x="667" y="389.7285">SimpleTopic</text><line style="stroke:#181818;stroke-width:0.5;" x1="639" x2="746" y1="400" y2="400"/><line style="stroke:#181818;stroke-width:0.5;" x1="639" x2="746" y1="408" y2="408"/></g><!--class Concept--><g id="elem_Concept"><rect codeLine="99" fill="#F1F1F1" height="48" id="Concept" rx="2.5" ry="2.5" style="stroke:#181818;stroke-width:0.5;" width="85" x="650" y="477"/><ellipse cx="665" cy="493" fill="#ADD1B2" rx="11" ry="11" style="stroke:#181818;stroke-width:1.0;"/><path d="M667.7656,488.875 Q667.9219,488.6563 668.1094,488.5469 Q668.2969,488.4375 668.5156,488.4375 Q668.8906,488.4375 669.125,488.7031 Q669.3594,488.9531 669.3594,489.5625 L669.3594,491.0156 Q669.3594,491.625 669.125,491.8906 Q668.8906,492.1563 668.5156,492.1563 Q668.1719,492.1563 667.9688,491.9531 Q667.7656,491.7656 667.6563,491.25 Q667.6094,490.8906 667.4219,490.7031 Q667.0938,490.3281 666.4844,490.1094 Q665.875,489.8906 665.25,489.8906 Q664.4844,489.8906 663.8438,490.2188 Q663.2188,490.5469 662.7188,491.2969 Q662.2344,492.0469 662.2344,493.0781 L662.2344,494.1719 Q662.2344,495.4063 663.125,496.2344 Q664.0156,497.0469 665.6094,497.0469 Q666.5469,497.0469 667.2031,496.7969 Q667.5938,496.6406 668.0156,496.2031 Q668.2813,495.9375 668.4219,495.8594 Q668.5781,495.7813 668.7813,495.7813 Q669.1094,495.7813 669.3594,496.0469 Q669.625,496.2969 669.625,496.6406 Q669.625,496.9844 669.2813,497.3906 Q668.7813,497.9688 667.9844,498.2969 Q666.9063,498.75 665.6094,498.75 Q664.0938,498.75 662.8906,498.125 Q661.9063,497.625 661.2188,496.5625 Q660.5313,495.4844 660.5313,494.2031 L660.5313,493.0469 Q660.5313,491.7188 661.1406,490.5781 Q661.7656,489.4219 662.8594,488.8125 Q663.9531,488.1875 665.1875,488.1875 Q665.9219,488.1875 666.5625,488.3594 Q667.2188,488.5156 667.7656,488.875 Z " fill="#000000"/><text fill="#000000" font-family="sans-serif" font-size="14" lengthAdjust="spacing" textLength="53" x="679" y="498.7285">Concept</text><line style="stroke:#181818;stroke-width:0.5;" x1="651" x2="734" y1="509" y2="509"/><line style="stroke:#181818;stroke-width:0.5;" x1="651" x2="734" y1="517" y2="517"/></g><!--class Audio--><g id="elem_Audio"><rect fill="#F1F1F1" height="48" id="Audio" rx="2.5" ry="2.5" style="stroke:#181818;stroke-width:0.5;" width="68" x="1190.5" y="791"/><ellipse cx="1205.5" cy="807" fill="#ADD1B2" rx="11" ry="11" style="stroke:#181818;stroke-width:1.0;"/><path d="M1208.2656,802.875 Q1208.4219,802.6563 1208.6094,802.5469 Q1208.7969,802.4375 1209.0156,802.4375 Q1209.3906,802.4375 1209.625,802.7031 Q1209.8594,802.9531 1209.8594,803.5625 L1209.8594,805.0156 Q1209.8594,805.625 1209.625,805.8906 Q1209.3906,806.1563 1209.0156,806.1563 Q1208.6719,806.1563 1208.4688,805.9531 Q1208.2656,805.7656 1208.1563,805.25 Q1208.1094,804.8906 1207.9219,804.7031 Q1207.5938,804.3281 1206.9844,804.1094 Q1206.375,803.8906 1205.75,803.8906 Q1204.9844,803.8906 1204.3438,804.2188 Q1203.7188,804.5469 1203.2188,805.2969 Q1202.7344,806.0469 1202.7344,807.0781 L1202.7344,808.1719 Q1202.7344,809.4063 1203.625,810.2344 Q1204.5156,811.0469 1206.1094,811.0469 Q1207.0469,811.0469 1207.7031,810.7969 Q1208.0938,810.6406 1208.5156,810.2031 Q1208.7813,809.9375 1208.9219,809.8594 Q1209.0781,809.7813 1209.2813,809.7813 Q1209.6094,809.7813 1209.8594,810.0469 Q1210.125,810.2969 1210.125,810.6406 Q1210.125,810.9844 1209.7813,811.3906 Q1209.2813,811.9688 1208.4844,812.2969 Q1207.4063,812.75 1206.1094,812.75 Q1204.5938,812.75 1203.3906,812.125 Q1202.4063,811.625 1201.7188,810.5625 Q1201.0313,809.4844 1201.0313,808.2031 L1201.0313,807.0469 Q1201.0313,805.7188 1201.6406,804.5781 Q1202.2656,803.4219 1203.3594,802.8125 Q1204.4531,802.1875 1205.6875,802.1875 Q1206.4219,802.1875 1207.0625,802.3594 Q1207.7188,802.5156 1208.2656,802.875 Z " fill="#000000"/><text fill="#000000" font-family="sans-serif" font-size="14" lengthAdjust="spacing" textLength="36" x="1219.5" y="812.7285">Audio</text><line style="stroke:#181818;stroke-width:0.5;" x1="1191.5" x2="1257.5" y1="823" y2="823"/><line style="stroke:#181818;stroke-width:0.5;" x1="1191.5" x2="1257.5" y1="831" y2="831"/></g><!--class Video--><g id="elem_Video"><rect fill="#F1F1F1" height="48" id="Video" rx="2.5" ry="2.5" style="stroke:#181818;stroke-width:0.5;" width="68" x="887.5" y="791"/><ellipse cx="902.5" cy="807" fill="#ADD1B2" rx="11" ry="11" style="stroke:#181818;stroke-width:1.0;"/><path d="M905.2656,802.875 Q905.4219,802.6563 905.6094,802.5469 Q905.7969,802.4375 906.0156,802.4375 Q906.3906,802.4375 906.625,802.7031 Q906.8594,802.9531 906.8594,803.5625 L906.8594,805.0156 Q906.8594,805.625 906.625,805.8906 Q906.3906,806.1563 906.0156,806.1563 Q905.6719,806.1563 905.4688,805.9531 Q905.2656,805.7656 905.1563,805.25 Q905.1094,804.8906 904.9219,804.7031 Q904.5938,804.3281 903.9844,804.1094 Q903.375,803.8906 902.75,803.8906 Q901.9844,803.8906 901.3438,804.2188 Q900.7188,804.5469 900.2188,805.2969 Q899.7344,806.0469 899.7344,807.0781 L899.7344,808.1719 Q899.7344,809.4063 900.625,810.2344 Q901.5156,811.0469 903.1094,811.0469 Q904.0469,811.0469 904.7031,810.7969 Q905.0938,810.6406 905.5156,810.2031 Q905.7813,809.9375 905.9219,809.8594 Q906.0781,809.7813 906.2813,809.7813 Q906.6094,809.7813 906.8594,810.0469 Q907.125,810.2969 907.125,810.6406 Q907.125,810.9844 906.7813,811.3906 Q906.2813,811.9688 905.4844,812.2969 Q904.4063,812.75 903.1094,812.75 Q901.5938,812.75 900.3906,812.125 Q899.4063,811.625 898.7188,810.5625 Q898.0313,809.4844 898.0313,808.2031 L898.0313,807.0469 Q898.0313,805.7188 898.6406,804.5781 Q899.2656,803.4219 900.3594,802.8125 Q901.4531,802.1875 902.6875,802.1875 Q903.4219,802.1875 904.0625,802.3594 Q904.7188,802.5156 905.2656,802.875 Z " fill="#000000"/><text fill="#000000" font-family="sans-serif" font-size="14" lengthAdjust="spacing" textLength="36" x="916.5" y="812.7285">Video</text><line style="stroke:#181818;stroke-width:0.5;" x1="888.5" x2="954.5" y1="823" y2="823"/><line style="stroke:#181818;stroke-width:0.5;" x1="888.5" x2="954.5" y1="831" y2="831"/></g><!--class Image--><g id="elem_Image"><rect fill="#F1F1F1" height="48" id="Image" rx="2.5" ry="2.5" style="stroke:#181818;stroke-width:0.5;" width="70" x="990.5" y="791"/><ellipse cx="1005.5" cy="807" fill="#ADD1B2" rx="11" ry="11" style="stroke:#181818;stroke-width:1.0;"/><path d="M1008.2656,802.875 Q1008.4219,802.6563 1008.6094,802.5469 Q1008.7969,802.4375 1009.0156,802.4375 Q1009.3906,802.4375 1009.625,802.7031 Q1009.8594,802.9531 1009.8594,803.5625 L1009.8594,805.0156 Q1009.8594,805.625 1009.625,805.8906 Q1009.3906,806.1563 1009.0156,806.1563 Q1008.6719,806.1563 1008.4688,805.9531 Q1008.2656,805.7656 1008.1563,805.25 Q1008.1094,804.8906 1007.9219,804.7031 Q1007.5938,804.3281 1006.9844,804.1094 Q1006.375,803.8906 1005.75,803.8906 Q1004.9844,803.8906 1004.3438,804.2188 Q1003.7188,804.5469 1003.2188,805.2969 Q1002.7344,806.0469 1002.7344,807.0781 L1002.7344,808.1719 Q1002.7344,809.4063 1003.625,810.2344 Q1004.5156,811.0469 1006.1094,811.0469 Q1007.0469,811.0469 1007.7031,810.7969 Q1008.0938,810.6406 1008.5156,810.2031 Q1008.7813,809.9375 1008.9219,809.8594 Q1009.0781,809.7813 1009.2813,809.7813 Q1009.6094,809.7813 1009.8594,810.0469 Q1010.125,810.2969 1010.125,810.6406 Q1010.125,810.9844 1009.7813,811.3906 Q1009.2813,811.9688 1008.4844,812.2969 Q1007.4063,812.75 1006.1094,812.75 Q1004.5938,812.75 1003.3906,812.125 Q1002.4063,811.625 1001.7188,810.5625 Q1001.0313,809.4844 1001.0313,808.2031 L1001.0313,807.0469 Q1001.0313,805.7188 1001.6406,804.5781 Q1002.2656,803.4219 1003.3594,802.8125 Q1004.4531,802.1875 1005.6875,802.1875 Q1006.4219,802.1875 1007.0625,802.3594 Q1007.7188,802.5156 1008.2656,802.875 Z " fill="#000000"/><text fill="#000000" font-family="sans-serif" font-size="14" lengthAdjust="spacing" textLength="38" x="1019.5" y="812.7285">Image</text><line style="stroke:#181818;stroke-width:0.5;" x1="991.5" x2="1059.5" y1="823" y2="823"/><line style="stroke:#181818;stroke-width:0.5;" x1="991.5" x2="1059.5" y1="831" y2="831"/></g><!--class Text--><g id="elem_Text"><rect fill="#F1F1F1" height="48" id="Text" rx="2.5" ry="2.5" style="stroke:#181818;stroke-width:0.5;" width="59" x="1096" y="791"/><ellipse cx="1111" cy="807" fill="#ADD1B2" rx="11" ry="11" style="stroke:#181818;stroke-width:1.0;"/><path d="M1113.7656,802.875 Q1113.9219,802.6563 1114.1094,802.5469 Q1114.2969,802.4375 1114.5156,802.4375 Q1114.8906,802.4375 1115.125,802.7031 Q1115.3594,802.9531 1115.3594,803.5625 L1115.3594,805.0156 Q1115.3594,805.625 1115.125,805.8906 Q1114.8906,806.1563 1114.5156,806.1563 Q1114.1719,806.1563 1113.9688,805.9531 Q1113.7656,805.7656 1113.6563,805.25 Q1113.6094,804.8906 1113.4219,804.7031 Q1113.0938,804.3281 1112.4844,804.1094 Q1111.875,803.8906 1111.25,803.8906 Q1110.4844,803.8906 1109.8438,804.2188 Q1109.2188,804.5469 1108.7188,805.2969 Q1108.2344,806.0469 1108.2344,807.0781 L1108.2344,808.1719 Q1108.2344,809.4063 1109.125,810.2344 Q1110.0156,811.0469 1111.6094,811.0469 Q1112.5469,811.0469 1113.2031,810.7969 Q1113.5938,810.6406 1114.0156,810.2031 Q1114.2813,809.9375 1114.4219,809.8594 Q1114.5781,809.7813 1114.7813,809.7813 Q1115.1094,809.7813 1115.3594,810.0469 Q1115.625,810.2969 1115.625,810.6406 Q1115.625,810.9844 1115.2813,811.3906 Q1114.7813,811.9688 1113.9844,812.2969 Q1112.9063,812.75 1111.6094,812.75 Q1110.0938,812.75 1108.8906,812.125 Q1107.9063,811.625 1107.2188,810.5625 Q1106.5313,809.4844 1106.5313,808.2031 L1106.5313,807.0469 Q1106.5313,805.7188 1107.1406,804.5781 Q1107.7656,803.4219 1108.8594,802.8125 Q1109.9531,802.1875 1111.1875,802.1875 Q1111.9219,802.1875 1112.5625,802.3594 Q1113.2188,802.5156 1113.7656,802.875 Z " fill="#000000"/><text fill="#000000" font-family="sans-serif" font-size="14" lengthAdjust="spacing" textLength="27" x="1125" y="812.7285">Text</text><line style="stroke:#181818;stroke-width:0.5;" x1="1097" x2="1154" y1="823" y2="823"/><line style="stroke:#181818;stroke-width:0.5;" x1="1097" x2="1154" y1="831" y2="831"/></g><!--class Relation--><g id="elem_Relation"><rect codeLine="107" fill="#F1F1F1" height="48" id="Relation" rx="2.5" ry="2.5" style="stroke:#181818;stroke-width:0.5;" width="84" x="483.5" y="612"/><ellipse cx="498.5" cy="628" fill="#ADD1B2" rx="11" ry="11" style="stroke:#181818;stroke-width:1.0;"/><path d="M501.2656,623.875 Q501.4219,623.6563 501.6094,623.5469 Q501.7969,623.4375 502.0156,623.4375 Q502.3906,623.4375 502.625,623.7031 Q502.8594,623.9531 502.8594,624.5625 L502.8594,626.0156 Q502.8594,626.625 502.625,626.8906 Q502.3906,627.1563 502.0156,627.1563 Q501.6719,627.1563 501.4688,626.9531 Q501.2656,626.7656 501.1563,626.25 Q501.1094,625.8906 500.9219,625.7031 Q500.5938,625.3281 499.9844,625.1094 Q499.375,624.8906 498.75,624.8906 Q497.9844,624.8906 497.3438,625.2188 Q496.7188,625.5469 496.2188,626.2969 Q495.7344,627.0469 495.7344,628.0781 L495.7344,629.1719 Q495.7344,630.4063 496.625,631.2344 Q497.5156,632.0469 499.1094,632.0469 Q500.0469,632.0469 500.7031,631.7969 Q501.0938,631.6406 501.5156,631.2031 Q501.7813,630.9375 501.9219,630.8594 Q502.0781,630.7813 502.2813,630.7813 Q502.6094,630.7813 502.8594,631.0469 Q503.125,631.2969 503.125,631.6406 Q503.125,631.9844 502.7813,632.3906 Q502.2813,632.9688 501.4844,633.2969 Q500.4063,633.75 499.1094,633.75 Q497.5938,633.75 496.3906,633.125 Q495.4063,632.625 494.7188,631.5625 Q494.0313,630.4844 494.0313,629.2031 L494.0313,628.0469 Q494.0313,626.7188 494.6406,625.5781 Q495.2656,624.4219 496.3594,623.8125 Q497.4531,623.1875 498.6875,623.1875 Q499.4219,623.1875 500.0625,623.3594 Q500.7188,623.5156 501.2656,623.875 Z " fill="#000000"/><text fill="#000000" font-family="sans-serif" font-size="14" lengthAdjust="spacing" textLength="52" x="512.5" y="633.7285">Relation</text><line style="stroke:#181818;stroke-width:0.5;" x1="484.5" x2="566.5" y1="644" y2="644"/><line style="stroke:#181818;stroke-width:0.5;" x1="484.5" x2="566.5" y1="652" y2="652"/></g><!--class RelationType--><g id="elem_RelationType"><rect codeLine="112" fill="#F1F1F1" height="136.0469" id="RelationType" rx="2.5" ry="2.5" style="stroke:#181818;stroke-width:0.5;" width="116" x="15.5" y="747"/><ellipse cx="30.5" cy="763" fill="#EB937F" rx="11" ry="11" style="stroke:#181818;stroke-width:1.0;"/><path d="M29.3594,763.7969 L29.3594,766.2969 L33.6875,766.2969 L33.6875,765.375 Q33.6875,764.7656 33.9219,764.5 Q34.1719,764.2344 34.5469,764.2344 Q34.9219,764.2344 35.1563,764.5 Q35.3906,764.7656 35.3906,765.375 L35.3906,768 L27.3906,768 Q26.7656,768 26.5,767.7656 Q26.25,767.5313 26.25,767.1406 Q26.25,766.7656 26.5156,766.5313 Q26.7813,766.2969 27.3906,766.2969 L27.6563,766.2969 L27.6563,759.6406 L27.3906,759.6406 Q26.7656,759.6406 26.5,759.4063 Q26.25,759.1719 26.25,758.7813 Q26.25,758.4063 26.5,758.1719 Q26.7656,757.9375 27.3906,757.9375 L35.0156,757.9375 L35.0156,760.5313 Q35.0156,761.1406 34.7813,761.4063 Q34.5625,761.6563 34.1719,761.6563 Q33.7969,761.6563 33.5625,761.4063 Q33.3281,761.1406 33.3281,760.5313 L33.3281,759.6406 L29.3594,759.6406 L29.3594,762.0938 L30.8438,762.0938 Q30.8438,761.4375 30.9688,761.25 Q31.2344,760.8438 31.7031,760.8438 Q32.0781,760.8438 32.3125,761.1094 Q32.5469,761.3594 32.5469,761.9688 L32.5469,763.9375 Q32.5469,764.4844 32.4219,764.6719 Q32.1563,765.0625 31.7031,765.0625 Q31.2344,765.0625 30.9688,764.6563 Q30.8438,764.4688 30.8438,763.7969 L29.3594,763.7969 Z " fill="#000000"/><text fill="#000000" font-family="sans-serif" font-size="14" lengthAdjust="spacing" textLength="84" x="44.5" y="768.7285">RelationType</text><line style="stroke:#181818;stroke-width:0.5;" x1="16.5" x2="130.5" y1="779" y2="779"/><text fill="#000000" font-family="sans-serif" font-size="14" lengthAdjust="spacing" textLength="24" x="21.5" y="797.5332">Use</text><text fill="#000000" font-family="sans-serif" font-size="14" lengthAdjust="spacing" textLength="72" x="21.5" y="815.1426">Association</text><text fill="#000000" font-family="sans-serif" font-size="14" lengthAdjust="spacing" textLength="78" x="21.5" y="832.752">Composition</text><text fill="#000000" font-family="sans-serif" font-size="14" lengthAdjust="spacing" textLength="70" x="21.5" y="850.3613">Inheritance</text><text fill="#000000" font-family="sans-serif" font-size="14" lengthAdjust="spacing" textLength="77" x="21.5" y="867.9707">Aggregation</text><line style="stroke:#181818;stroke-width:0.5;" x1="16.5" x2="130.5" y1="875.0469" y2="875.0469"/></g><!--link EducationPlatform to User--><g id="link_EducationPlatform_User"><path codeLine="2" d="M772.8478,60.5939 C725.8578,85.1839 668.5464,115.1686 627.1264,136.8386 " fill="none" id="EducationPlatform-User" style="stroke:#181818;stroke-width:1.0;"/><polygon fill="#181818" points="783.48,55.03,776.3093,54.2679,772.8478,60.5939,780.0185,61.356,783.48,55.03" style="stroke:#181818;stroke-width:1.0;"/><polygon fill="#181818" points="621.81,139.62,631.6388,138.9921,626.2403,137.3022,627.9303,131.9036,621.81,139.62" style="stroke:#181818;stroke-width:1.0;"/><text fill="#000000" font-family="sans-serif" font-size="13" lengthAdjust="spacing" textLength="8" x="629.5341" y="131.6017">+</text></g><!--link EducationPlatform to Topic--><g id="link_EducationPlatform_Topic"><path codeLine="3" d="M830.5816,67.0238 C834.7716,114.6538 842.7648,205.433 846.9448,253.003 " fill="none" id="EducationPlatform-Topic" style="stroke:#181818;stroke-width:1.0;"/><polygon fill="#181818" points="829.53,55.07,826.0712,61.3974,830.5816,67.0238,834.0404,60.6964,829.53,55.07" style="stroke:#181818;stroke-width:1.0;"/><polygon fill="#181818" points="847.47,258.98,850.6668,249.6644,847.0323,253.9992,842.6976,250.3647,847.47,258.98" style="stroke:#181818;stroke-width:1.0;"/></g><!--link EducationPlatform to Itinerary--><g id="link_EducationPlatform_Itinerary"><path codeLine="4" d="M852.4447,64.5583 C869.3947,86.6983 883.9398,105.6781 900.9798,127.9081 " fill="none" id="EducationPlatform-Itinerary" style="stroke:#181818;stroke-width:1.0;"/><polygon fill="#181818" points="845.15,55.03,845.6212,62.2257,852.4447,64.5583,851.9734,57.3626,845.15,55.03" style="stroke:#181818;stroke-width:1.0;"/><polygon fill="#181818" points="904.63,132.67,902.3294,123.0936,901.5882,128.7017,895.9801,127.9605,904.63,132.67" style="stroke:#181818;stroke-width:1.0;"/><text fill="#000000" font-family="sans-serif" font-size="13" lengthAdjust="spacing" textLength="59" x="881.5" y="99.4951">predefined</text></g><!--link EducationPlatform to Itinerary--><g id="link_EducationPlatform_Itinerary"><path codeLine="5" d="M912.2105,53.8616 C930.3705,61.7316 936.68,68.4 947.5,85 C957.06,99.67 952.9491,113.3577 943.8191,127.9077 " fill="none" id="EducationPlatform-Itinerary-1" style="stroke:#181818;stroke-width:1.0;"/><polygon fill="none" points="901.2,49.09,905.1147,55.146,912.2105,53.8616,908.2958,47.8056,901.2,49.09" style="stroke:#181818;stroke-width:1.0;"/><polygon fill="#181818" points="940.63,132.99,948.8018,127.4926,943.2876,128.7548,942.0254,123.2405,940.63,132.99" style="stroke:#181818;stroke-width:1.0;"/><text fill="#000000" font-family="sans-serif" font-size="13" lengthAdjust="spacing" textLength="43" x="952.5" y="99.4951">custom</text><text fill="#000000" font-family="sans-serif" font-size="13" lengthAdjust="spacing" textLength="5" x="939.6352" y="122.3276">*</text></g><!--link EducationPlatform to Evaluator--><g id="link_EducationPlatform_Evaluator"><path codeLine="6" d="M801.6245,64.4091 C783.9545,86.5491 768.6238,105.7513 750.8738,127.9813 " fill="none" id="EducationPlatform-Evaluator" style="stroke:#181818;stroke-width:1.0;"/><polygon fill="#181818" points="809.11,55.03,802.2409,57.2244,801.6245,64.4091,808.4936,62.2147,809.11,55.03" style="stroke:#181818;stroke-width:1.0;"/><polygon fill="#181818" points="747.13,132.67,755.8715,128.1328,750.2498,128.7627,749.6199,123.1411,747.13,132.67" style="stroke:#181818;stroke-width:1.0;"/></g><!--reverse link User to Teacher--><g id="link_User_Teacher"><path codeLine="12" d="M607.4125,197.5823 C616.8725,219.7223 624.03,236.44 633.53,258.67 " fill="none" id="User-backto-Teacher" style="stroke:#181818;stroke-width:1.0;"/><polygon fill="none" points="600.34,181.03,601.8951,199.9398,612.9299,195.2248,600.34,181.03" style="stroke:#181818;stroke-width:1.0;"/></g><!--reverse link User to Student--><g id="link_User_Student"><path codeLine="13" d="M570.0706,196.9712 C558.4606,219.1112 549.38,236.44 537.73,258.67 " fill="none" id="User-backto-Student" style="stroke:#181818;stroke-width:1.0;"/><polygon fill="none" points="578.43,181.03,564.7569,194.1847,575.3843,199.7576,578.43,181.03" style="stroke:#181818;stroke-width:1.0;"/></g><!--link User to Solution--><g id="link_User_Solution"><path codeLine="14" d="M547.8531,170.3853 C501.2931,185.4553 430.5,217.51 430.5,282 C430.5,282 430.5,282 430.5,637 C430.5,668.78 483.5972,720.2073 531.3572,760.5673 " fill="none" id="User-Solution" style="stroke:#181818;stroke-width:1.0;"/><polygon fill="#181818" points="559.27,166.69,552.3298,164.732,547.8531,170.3853,554.7933,172.3433,559.27,166.69" style="stroke:#181818;stroke-width:1.0;"/><polygon fill="#181818" points="535.94,764.44,531.6476,755.5757,532.121,761.2127,526.484,761.6861,535.94,764.44" style="stroke:#181818;stroke-width:1.0;"/><text fill="#000000" font-family="sans-serif" font-size="13" lengthAdjust="spacing" textLength="8" x="518.58" y="753.7369">+</text></g><!--link Evaluator to Topic--><g id="link_Evaluator_Topic"><path codeLine="26" d="M729.17,181.25 C730.7,196.27 734.83,215.46 745.5,229 C763.06,251.29 786.8321,263.1107 809.9321,271.0007 " fill="none" id="Evaluator-to-Topic" style="stroke:#181818;stroke-width:1.0;stroke-dasharray:7.0,7.0;"/><polygon fill="#181818" points="815.61,272.94,808.386,266.2457,810.8784,271.3239,805.8002,273.8163,815.61,272.94" style="stroke:#181818;stroke-width:1.0;"/><text fill="#000000" font-family="sans-serif" font-size="13" lengthAdjust="spacing" textLength="54" x="746.5" y="225.4951">main tree</text></g><!--link Itinerary to Topic--><g id="link_Itinerary_Topic"><path codeLine="30" d="M902.8535,191.3719 C889.8235,213.5119 879.3645,231.2698 866.2745,253.4998 " fill="none" id="Itinerary-Topic" style="stroke:#181818;stroke-width:1.0;"/><polygon fill="none" points="908.94,181.03,902.4495,184.1721,902.8535,191.3719,909.3441,188.2298,908.94,181.03" style="stroke:#181818;stroke-width:1.0;"/><polygon fill="#181818" points="863.23,258.67,871.2435,252.9443,865.767,254.3615,864.3499,248.885,863.23,258.67" style="stroke:#181818;stroke-width:1.0;"/><text fill="#000000" font-family="sans-serif" font-size="13" lengthAdjust="spacing" textLength="8" x="857.6017" y="248.3275">+</text></g><!--link Definition to Justification--><g id="link_Definition_Justification"><path codeLine="35" d="M805.1377,678.7529 C788.1277,699.5729 775.11,718.64 762.5,747 C728.49,823.47 757.1,854.8 722.5,931 C717.79,941.37 714.713,946.8699 707.923,956.0299 " fill="none" id="Definition-Justification" style="stroke:#181818;stroke-width:1.0;"/><polygon fill="#181818" points="812.73,669.46,805.8362,671.5757,805.1377,678.7529,812.0315,676.6372,812.73,669.46" style="stroke:#181818;stroke-width:1.0;"/><polygon fill="#181818" points="704.35,960.85,712.9229,956.0018,707.3275,956.8332,706.4961,951.2378,704.35,960.85" style="stroke:#181818;stroke-width:1.0;"/><text fill="#000000" font-family="sans-serif" font-size="13" lengthAdjust="spacing" textLength="106" x="763.5" y="820.4951">[!definition.correct]</text><text fill="#000000" font-family="sans-serif" font-size="13" lengthAdjust="spacing" textLength="5" x="704.5784" y="949.9345">*</text></g><!--reverse link Exercise to Domain--><g id="link_Exercise_Domain"><path codeLine="49" d="M605.1848,678.6199 C558.5248,707.9099 504.55,741.79 454.07,773.47 " fill="none" id="Exercise-backto-Domain" style="stroke:#181818;stroke-width:1.0;"/><polygon fill="none" points="620.43,669.05,601.9948,673.5382,608.3748,683.7017,620.43,669.05" style="stroke:#181818;stroke-width:1.0;"/></g><!--reverse link Exercise to Question--><g id="link_Exercise_Question"><path codeLine="50" d="M585.7043,669.2016 C579.9043,671.1916 591.13,667.25 585.5,669 C448.97,711.32 396.49,674.18 273.5,747 C254.95,757.98 238.61,776.2 227.37,790.87 " fill="none" id="Exercise-backto-Question" style="stroke:#181818;stroke-width:1.0;"/><polygon fill="none" points="602.73,663.36,583.7571,663.5263,587.6515,674.8768,602.73,663.36" style="stroke:#181818;stroke-width:1.0;"/></g><!--link Exercise to Solution--><g id="link_Exercise_Solution"><path codeLine="51" d="M628.9656,679.3136 C622.9356,688.7236 623.9,689.05 619.5,699 C610.27,719.86 603.4939,737.8788 598.3639,758.4188 " fill="none" id="Exercise-Solution" style="stroke:#181818;stroke-width:1.0;"/><polygon fill="#181818" points="635.44,669.21,628.8349,672.1036,628.9656,679.3136,635.5706,676.4199,635.44,669.21" style="stroke:#181818;stroke-width:1.0;"/><polygon fill="#181818" points="596.91,764.24,602.9716,756.4775,598.1216,759.389,595.21,754.539,596.91,764.24" style="stroke:#181818;stroke-width:1.0;"/><text fill="#000000" font-family="sans-serif" font-size="13" lengthAdjust="spacing" textLength="8" x="588.1239" y="753.5088">+</text></g><!--link Exercise to Solution--><g id="link_Exercise_Solution"><path codeLine="52" d="M663.7406,679.9863 C659.1306,689.3963 658.9,689.05 654.5,699 C645.27,719.86 639.1677,738.0899 631.3777,758.6299 " fill="none" id="Exercise-Solution-1" style="stroke:#181818;stroke-width:1.0;"/><polygon fill="none" points="669.02,669.21,662.7882,672.8384,663.7406,679.9863,669.9724,676.3579,669.02,669.21" style="stroke:#181818;stroke-width:1.0;"/><polygon fill="#181818" points="629.25,764.24,636.1816,757.2433,631.0231,759.5649,628.7015,754.4064,629.25,764.24" style="stroke:#181818;stroke-width:1.0;"/><text fill="#000000" font-family="sans-serif" font-size="13" lengthAdjust="spacing" textLength="5" x="628.2227" y="753.5088">*</text></g><!--link Exercise to Solution--><g id="link_Exercise_Solution"><path codeLine="53" d="M658.28,669.05 C647.31,695.65 633.8068,728.3829 621.2168,758.9229 " fill="none" id="Exercise-to-Solution" style="stroke:#181818;stroke-width:1.0;stroke-dasharray:7.0,7.0;"/><polygon fill="#181818" points="618.93,764.47,626.0583,757.6738,620.8357,759.8474,618.6621,754.6248,618.93,764.47" style="stroke:#181818;stroke-width:1.0;"/><text fill="#000000" font-family="sans-serif" font-size="13" lengthAdjust="spacing" textLength="47" x="646.5" y="713.4951">contrast</text></g><!--reverse link Question to MultipleChoice--><g id="link_Question_MultipleChoice"><path codeLine="57" d="M211.5,857.14 C211.5,891.06 211.5,935.93 211.5,969.85 " fill="none" id="Question-backto-MultipleChoice" style="stroke:#181818;stroke-width:1.0;"/><polygon fill="none" points="211.5,839.14,205.5,857.14,217.5,857.14,211.5,839.14" style="stroke:#181818;stroke-width:1.0;"/></g><!--reverse link Question to Cloze--><g id="link_Question_Cloze"><path codeLine="58" d="M180.0777,852.8339 C153.5377,883.9439 117.91,925.71 87.92,960.86 " fill="none" id="Question-backto-Cloze" style="stroke:#181818;stroke-width:1.0;"/><polygon fill="none" points="191.76,839.14,175.513,848.9398,184.6423,856.728,191.76,839.14" style="stroke:#181818;stroke-width:1.0;"/></g><!--reverse link Question to Open--><g id="link_Question_Open"><path codeLine="59" d="M239.337,853.6093 C264.437,887.5293 300.26,935.93 325.37,969.85 " fill="none" id="Question-backto-Open" style="stroke:#181818;stroke-width:1.0;"/><polygon fill="none" points="228.63,839.14,234.5138,857.1783,244.1601,850.0403,228.63,839.14" style="stroke:#181818;stroke-width:1.0;"/></g><!--link Solution to Justification--><g id="link_Solution_Justification"><path codeLine="73" d="M600.8669,877.4991 C602.9969,898.5691 606.5,910.92 616.5,931 C621.91,941.86 625.7743,947.6935 634.1743,956.5635 " fill="none" id="Solution-Justification" style="stroke:#181818;stroke-width:1.0;"/><polygon fill="#181818" points="599.66,865.56,596.2838,871.9319,600.8669,877.4991,604.2432,871.1273,599.66,865.56" style="stroke:#181818;stroke-width:1.0;"/><polygon fill="#181818" points="638.3,960.92,635.0159,951.6348,634.862,957.2896,629.2072,957.1357,638.3,960.92" style="stroke:#181818;stroke-width:1.0;"/><text fill="#000000" font-family="sans-serif" font-size="13" lengthAdjust="spacing" textLength="100" x="617.5" y="927.4951">[!solution.correct]</text><text fill="#000000" font-family="sans-serif" font-size="13" lengthAdjust="spacing" textLength="5" x="624.9056" y="950.0189">*</text></g><!--link Topic to Document--><g id="link_Topic_Document"><path codeLine="77" d="M888.7603,314.9635 C906.9703,330.4135 920.2,344.4 934.5,368 C983.87,449.5 1004.8409,557.2608 1012.3509,605.7108 " fill="none" id="Topic-Document" style="stroke:#008000;stroke-width:1.0;"/><polygon fill="#008000" points="879.61,307.2,881.5973,314.1318,888.7603,314.9635,886.773,308.0316,879.61,307.2" style="stroke:#008000;stroke-width:1.0;"/><polygon fill="#008000" points="1013.27,611.64,1015.8442,602.1335,1012.5041,606.699,1007.9386,603.3589,1013.27,611.64" style="stroke:#008000;stroke-width:1.0;"/><text fill="#000000" font-family="sans-serif" font-size="13" lengthAdjust="spacing" textLength="5" x="1006.8733" y="601.2902">*</text></g><!--reverse link Topic to CompositeTopic--><g id="link_Topic_CompositeTopic"><path codeLine="78" d="M836.0911,325.0195 C833.3911,342.9595 836.08,349.89 838.78,367.83 " fill="none" id="Topic-backto-CompositeTopic" style="stroke:#181818;stroke-width:1.0;"/><polygon fill="none" points="838.77,307.22,830.158,324.1266,842.0243,325.9125,838.77,307.22" style="stroke:#181818;stroke-width:1.0;"/></g><!--link CompositeTopic to Topic--><g id="link_CompositeTopic_Topic"><path codeLine="87" d="M862.7392,355.9796 C865.5992,338.0396 864.6646,331.0852 861.8046,313.1452 " fill="none" id="CompositeTopic-Topic" style="stroke:#181818;stroke-width:1.0;"/><polygon fill="none" points="860.85,367.83,865.7447,362.5346,862.7392,355.9796,857.8445,361.2751,860.85,367.83" style="stroke:#181818;stroke-width:1.0;"/><polygon fill="#181818" points="860.86,307.22,858.3268,316.7375,861.6472,312.1576,866.227,315.478,860.86,307.22" style="stroke:#181818;stroke-width:1.0;"/><text fill="#000000" font-family="sans-serif" font-size="13" lengthAdjust="spacing" textLength="8" x="854.654" y="328.6116">+</text></g><!--reverse link Topic to SimpleTopic--><g id="link_Topic_SimpleTopic"><path codeLine="79" d="M800.9479,317.0901 C774.5479,335.0901 752.85,349.87 726.4,367.9 " fill="none" id="Topic-backto-SimpleTopic" style="stroke:#181818;stroke-width:1.0;"/><polygon fill="none" points="815.82,306.95,797.5679,312.1327,804.3279,322.0474,815.82,306.95" style="stroke:#181818;stroke-width:1.0;"/></g><!--link SimpleTopic to Concept--><g id="link_SimpleTopic_Concept"><path codeLine="83" d="M692.5,428.22 C692.5,446.16 692.5,452.89 692.5,470.83 " fill="none" id="SimpleTopic-Concept" style="stroke:#181818;stroke-width:1.0;"/><polygon fill="none" points="692.5,416.22,688.5,422.22,692.5,428.22,696.5,422.22,692.5,416.22" style="stroke:#181818;stroke-width:1.0;"/><polygon fill="#181818" points="692.5,476.83,696.5,467.83,692.5,471.83,688.5,467.83,692.5,476.83" style="stroke:#181818;stroke-width:1.0;"/><text fill="#000000" font-family="sans-serif" font-size="13" lengthAdjust="spacing" textLength="8" x="683.475" y="466.1266">+</text></g><!--reverse link Document to Audio--><g id="link_Document_Audio"><path codeLine="90" d="M1071.0736,669.5763 C1104.1636,690.0663 1136.43,712.55 1172.5,747 C1186.34,760.22 1199.53,777.29 1209.17,790.89 " fill="none" id="Document-backto-Audio" style="stroke:#181818;stroke-width:1.0;"/><polygon fill="none" points="1055.77,660.1,1067.9148,674.6775,1074.2324,664.4751,1055.77,660.1" style="stroke:#181818;stroke-width:1.0;"/></g><!--reverse link Document to Video--><g id="link_Document_Video"><path codeLine="91" d="M995.566,675.9991 C977.356,709.9191 952.13,756.93 933.92,790.85 " fill="none" id="Document-backto-Video" style="stroke:#181818;stroke-width:1.0;"/><polygon fill="none" points="1004.08,660.14,990.2796,673.1611,1000.8524,678.8371,1004.08,660.14" style="stroke:#181818;stroke-width:1.0;"/></g><!--reverse link Document to Image--><g id="link_Document_Image"><path codeLine="92" d="M1018.5916,678.1169 C1020.3116,712.0369 1022.6,756.93 1024.32,790.85 " fill="none" id="Document-backto-Image" style="stroke:#181818;stroke-width:1.0;"/><polygon fill="none" points="1017.68,660.14,1012.5993,678.4208,1024.5839,677.813,1017.68,660.14" style="stroke:#181818;stroke-width:1.0;"/></g><!--reverse link Document to Text--><g id="link_Document_Text"><path codeLine="93" d="M1040.189,675.4666 C1061.079,709.3866 1090.35,756.93 1111.25,790.85 " fill="none" id="Document-backto-Text" style="stroke:#181818;stroke-width:1.0;"/><polygon fill="none" points="1030.75,660.14,1035.0802,678.6129,1045.2979,672.3202,1030.75,660.14" style="stroke:#181818;stroke-width:1.0;"/></g><!--link Concept to Definition--><g id="link_Concept_Definition"><path codeLine="101" d="M745.9925,523.4752 C765.0725,532.2952 776.03,539.53 792.5,555 C806.86,568.5 815.7884,581.8043 824.1684,597.6743 " fill="none" id="Concept-Definition" style="stroke:#181818;stroke-width:1.0;"/><polygon fill="#181818" points="735.1,518.44,738.8678,524.5884,745.9925,523.4752,742.2247,517.3268,735.1,518.44" style="stroke:#181818;stroke-width:1.0;"/><polygon fill="#181818" points="826.97,602.98,826.3047,593.1536,824.6353,598.5586,819.2304,596.8892,826.97,602.98" style="stroke:#181818;stroke-width:1.0;"/><text fill="#000000" font-family="sans-serif" font-size="13" lengthAdjust="spacing" textLength="40" x="808.5" y="569.4951">correct</text><text fill="#000000" font-family="sans-serif" font-size="13" lengthAdjust="spacing" textLength="8" x="815.1482" y="592.0913">+</text></g><!--link Concept to Definition--><g id="link_Concept_Definition"><path codeLine="102" d="M706.6374,536.1181 C713.4374,551.1081 718.92,559.37 732.5,573 C744.71,585.26 754.6717,592.8593 769.7417,601.6793 " fill="none" id="Concept-Definition-1" style="stroke:#181818;stroke-width:1.0;"/><polygon fill="#181818" points="701.68,525.19,700.516,532.3065,706.6374,536.1181,707.8014,529.0016,701.68,525.19" style="stroke:#181818;stroke-width:1.0;"/><polygon fill="#181818" points="774.92,604.71,769.173,596.7117,770.6047,602.1844,765.1321,603.6162,774.92,604.71" style="stroke:#181818;stroke-width:1.0;"/><text fill="#000000" font-family="sans-serif" font-size="13" lengthAdjust="spacing" textLength="50" x="733.5" y="569.4951">incorrect</text><text fill="#000000" font-family="sans-serif" font-size="13" lengthAdjust="spacing" textLength="5" x="761.9326" y="597.7051">*</text></g><!--link Concept to Relation--><g id="link_Concept_Relation"><path codeLine="103" d="M637.9172,504.9677 C600.7372,508.9177 560.45,519.65 532.5,555 C519.96,570.86 518.7474,588.4534 520.5974,605.9034 " fill="none" id="Concept-Relation" style="stroke:#181818;stroke-width:1.0;"/><polygon fill="#181818" points="649.85,503.7,643.461,500.3563,637.9172,504.9677,644.3062,508.3115,649.85,503.7" style="stroke:#181818;stroke-width:1.0;"/><polygon fill="#181818" points="521.23,611.87,524.2589,602.4985,520.7029,606.8979,516.3035,603.3419,521.23,611.87" style="stroke:#181818;stroke-width:1.0;"/><text fill="#000000" font-family="sans-serif" font-size="13" lengthAdjust="spacing" textLength="31" x="533.5" y="569.4951">origin</text><text fill="#000000" font-family="sans-serif" font-size="13" lengthAdjust="spacing" textLength="5" x="514.4952" y="601.1768">*</text></g><!--link Relation to Concept--><g id="link_Relation_Concept"><path codeLine="109" d="M554.54,611.88 C585.07,587.56 628.156,553.2371 658.716,528.9071 " fill="none" id="Relation-to-Concept" style="stroke:#181818;stroke-width:1.0;"/><polygon fill="#181818" points="663.41,525.17,653.8775,527.6463,659.4983,528.2843,658.8603,533.905,663.41,525.17" style="stroke:#181818;stroke-width:1.0;"/><text fill="#000000" font-family="sans-serif" font-size="13" lengthAdjust="spacing" textLength="33" x="624.5" y="569.4951">target</text></g><!--link Concept to Document--><g id="link_Concept_Document"><path codeLine="104" d="M746.7193,517.0578 C780.4293,526.7878 816.85,538.36 857.5,555 C898.54,571.8 938.2495,592.051 969.8695,609.111 " fill="none" id="Concept-Document" style="stroke:#008000;stroke-width:1.0;"/><polygon fill="#008000" points="735.19,513.73,739.8454,519.237,746.7193,517.0578,742.0639,511.5508,735.19,513.73" style="stroke:#008000;stroke-width:1.0;"/><polygon fill="#008000" points="975.15,611.96,969.1286,604.1662,970.7496,609.5859,965.33,611.2068,975.15,611.96" style="stroke:#008000;stroke-width:1.0;"/><text fill="#000000" font-family="sans-serif" font-size="13" lengthAdjust="spacing" textLength="5" x="958.9134" y="601.2899">*</text></g><!--link Concept to Exercise--><g id="link_Concept_Exercise"><path codeLine="105" d="M686.9704,537.0235 C683.5904,558.4535 681.325,572.7433 677.545,596.7033 " fill="none" id="Concept-Exercise" style="stroke:#FF0000;stroke-width:1.0;"/><polygon fill="none" points="688.84,525.17,683.9541,530.4735,686.9704,537.0235,691.8564,531.7199,688.84,525.17" style="stroke:#FF0000;stroke-width:1.0;"/><polygon fill="#FF0000" points="676.61,602.63,681.9637,594.3633,677.3892,597.6911,674.0614,593.1166,676.61,602.63" style="stroke:#FF0000;stroke-width:1.0;"/><text fill="#000000" font-family="sans-serif" font-size="13" lengthAdjust="spacing" textLength="5" x="672.1238" y="592.0535">*</text></g><!--link Relation to RelationType--><g id="link_Relation_RelationType"><path codeLine="110" d="M471.3623,642.7954 C398.0923,651.9354 256.92,677.01 149.5,747 C143.61,750.84 142.4423,751.4443 136.6623,755.9243 " fill="none" id="Relation-RelationType" style="stroke:#181818;stroke-width:1.0;"/><polygon fill="#181818" points="483.27,641.31,476.821,638.0835,471.3623,642.7954,477.8113,646.0219,483.27,641.31" style="stroke:#181818;stroke-width:1.0;"/><polygon fill="#181818" points="131.92,759.6,141.4839,757.248,135.8719,756.5369,136.583,750.9249,131.92,759.6" style="stroke:#181818;stroke-width:1.0;"/></g><!--SRC=[VLN9Rjim4BthArZtOC21_0564C1mZ295YovsUmboOAInJ5JYg2IL9dNpxnskbcGxlfXyysQVeTPbLt0ZK7wjkTcXQjWips_Ov6h2VcXGsVgyV8kjA2u9xuoGeBXwOGlMAYXXH_Vo31kTgzbae55qsc1poVRwYTSTDwYowGN62cK1hVcWUBlFClweZUA5STaSijSiimTs_I_FsHPuiQSSZyZ6T2L8un5hpTPXWtLdtMHPKNEjevepvf6WPf5fEBDHi7quPHlr4yzQI1SsduT2KrKQBYGp2Y3g74jcbOutZEtpBGhiMzi3ORCWEgDVpWfK2gWm2_Q8M0ENPAP7cyNUVAH-Y9tmfLxSloiJPnvCF4Gl0-gRZc9OwFAAp2TGscekcA0cU4p1xqueQAXucWIVX3RN6wE4h6widTJVzJEeGcX8nhJXngcHbbUmnOqiQdU9VsGUGZWZ-DQ1TcrFefE1I19RT5khKudjOKJjSAEaSBNf1Hxzs3R6iv_6prrjH5l3Qe-YW95mLUFVCVQbXJIbJkvhyLXp-Mk5dJI-iA-41jRGHN-aGyoNc-XnyDCAvObasRPr78LU1r8nBWwO3epUUALYkQ6sOVgzcENtxojQ2laGRDrYqTcU1xcl53OjQc70RqHFiX4DvJvOb1vatVIknyqABqogzC2-rHeY9okPiedH7cZpmj47jknAWIFifoXXZDqrl88HjeLd2cqQOpi-XeTiIkzJ7qcHdMJahZuLTwHAkwtmUVIUYKMSZ3FCsOWfv9lSxr37QK4bAbhA8UrIgoCB0uk-E94Jrp0cbbpOrDAbzzKWtuQh2inHccACoFQb9OCWksO0XOU7FXtkVwar5i99tJtEHBpVIVg62CF9hUTNb5tb-Q_iFm00]--></g></svg>