<?xml version="1.0" encoding="us-ascii" standalone="no"?><svg xmlns="http://www.w3.org/2000/svg" xmlns:xlink="http://www.w3.org/1999/xlink" contentStyleType="text/css" height="1918px" preserveAspectRatio="none" style="width:1063px;height:1918px;background:#FFFFFF;" version="1.1" viewBox="0 0 1063 1918" width="1063px" zoomAndPan="magnify"><defs/><g><!--class EducationPlatform--><g id="elem_EducationPlatform"><rect fill="#F1F1F1" height="48" id="EducationPlatform" rx="2.5" ry="2.5" style="stroke:#181818;stroke-width:0.5;" width="147" x="506" y="7"/><ellipse cx="521" cy="23" fill="#ADD1B2" rx="11" ry="11" style="stroke:#181818;stroke-width:1.0;"/><path d="M523.7656,18.875 Q523.9219,18.6563 524.1094,18.5469 Q524.2969,18.4375 524.5156,18.4375 Q524.8906,18.4375 525.125,18.7031 Q525.3594,18.9531 525.3594,19.5625 L525.3594,21.0156 Q525.3594,21.625 525.125,21.8906 Q524.8906,22.1563 524.5156,22.1563 Q524.1719,22.1563 523.9688,21.9531 Q523.7656,21.7656 523.6563,21.25 Q523.6094,20.8906 523.4219,20.7031 Q523.0938,20.3281 522.4844,20.1094 Q521.875,19.8906 521.25,19.8906 Q520.4844,19.8906 519.8438,20.2188 Q519.2188,20.5469 518.7188,21.2969 Q518.2344,22.0469 518.2344,23.0781 L518.2344,24.1719 Q518.2344,25.4063 519.125,26.2344 Q520.0156,27.0469 521.6094,27.0469 Q522.5469,27.0469 523.2031,26.7969 Q523.5938,26.6406 524.0156,26.2031 Q524.2813,25.9375 524.4219,25.8594 Q524.5781,25.7813 524.7813,25.7813 Q525.1094,25.7813 525.3594,26.0469 Q525.625,26.2969 525.625,26.6406 Q525.625,26.9844 525.2813,27.3906 Q524.7813,27.9688 523.9844,28.2969 Q522.9063,28.75 521.6094,28.75 Q520.0938,28.75 518.8906,28.125 Q517.9063,27.625 517.2188,26.5625 Q516.5313,25.4844 516.5313,24.2031 L516.5313,23.0469 Q516.5313,21.7188 517.1406,20.5781 Q517.7656,19.4219 518.8594,18.8125 Q519.9531,18.1875 521.1875,18.1875 Q521.9219,18.1875 522.5625,18.3594 Q523.2188,18.5156 523.7656,18.875 Z " fill="#000000"/><text fill="#000000" font-family="sans-serif" font-size="14" lengthAdjust="spacing" textLength="115" x="535" y="28.7285">EducationPlatform</text><line style="stroke:#181818;stroke-width:0.5;" x1="507" x2="652" y1="39" y2="39"/><line style="stroke:#181818;stroke-width:0.5;" x1="507" x2="652" y1="47" y2="47"/></g><!--class Teacher--><g id="elem_Teacher"><rect codeLine="103" fill="#F1F1F1" height="65.6094" id="Teacher" rx="2.5" ry="2.5" style="stroke:#181818;stroke-width:0.5;" width="160" x="769.5" y="469"/><ellipse cx="818.75" cy="485" fill="#ADD1B2" rx="11" ry="11" style="stroke:#181818;stroke-width:1.0;"/><path d="M821.5156,480.875 Q821.6719,480.6563 821.8594,480.5469 Q822.0469,480.4375 822.2656,480.4375 Q822.6406,480.4375 822.875,480.7031 Q823.1094,480.9531 823.1094,481.5625 L823.1094,483.0156 Q823.1094,483.625 822.875,483.8906 Q822.6406,484.1563 822.2656,484.1563 Q821.9219,484.1563 821.7188,483.9531 Q821.5156,483.7656 821.4063,483.25 Q821.3594,482.8906 821.1719,482.7031 Q820.8438,482.3281 820.2344,482.1094 Q819.625,481.8906 819,481.8906 Q818.2344,481.8906 817.5938,482.2188 Q816.9688,482.5469 816.4688,483.2969 Q815.9844,484.0469 815.9844,485.0781 L815.9844,486.1719 Q815.9844,487.4063 816.875,488.2344 Q817.7656,489.0469 819.3594,489.0469 Q820.2969,489.0469 820.9531,488.7969 Q821.3438,488.6406 821.7656,488.2031 Q822.0313,487.9375 822.1719,487.8594 Q822.3281,487.7813 822.5313,487.7813 Q822.8594,487.7813 823.1094,488.0469 Q823.375,488.2969 823.375,488.6406 Q823.375,488.9844 823.0313,489.3906 Q822.5313,489.9688 821.7344,490.2969 Q820.6563,490.75 819.3594,490.75 Q817.8438,490.75 816.6406,490.125 Q815.6563,489.625 814.9688,488.5625 Q814.2813,487.4844 814.2813,486.2031 L814.2813,485.0469 Q814.2813,483.7188 814.8906,482.5781 Q815.5156,481.4219 816.6094,480.8125 Q817.7031,480.1875 818.9375,480.1875 Q819.6719,480.1875 820.3125,480.3594 Q820.9688,480.5156 821.5156,480.875 Z " fill="#000000"/><text fill="#000000" font-family="sans-serif" font-size="14" lengthAdjust="spacing" textLength="53" x="839.25" y="490.7285">Teacher</text><line style="stroke:#181818;stroke-width:0.5;" x1="770.5" x2="928.5" y1="501" y2="501"/><line style="stroke:#181818;stroke-width:0.5;" x1="770.5" x2="928.5" y1="509" y2="509"/><ellipse cx="780.5" cy="523.3047" fill="#84BE84" rx="3" ry="3" style="stroke:#038048;stroke-width:1.0;"/><text fill="#000000" font-family="sans-serif" font-size="14" lengthAdjust="spacing" textLength="134" x="789.5" y="527.5332">EvaluateApplication()</text></g><!--class Student--><g id="elem_Student"><rect codeLine="114" fill="#F1F1F1" height="48" id="Student" rx="2.5" ry="2.5" style="stroke:#181818;stroke-width:0.5;" width="81" x="472" y="278"/><ellipse cx="487" cy="294" fill="#ADD1B2" rx="11" ry="11" style="stroke:#181818;stroke-width:1.0;"/><path d="M489.7656,289.875 Q489.9219,289.6563 490.1094,289.5469 Q490.2969,289.4375 490.5156,289.4375 Q490.8906,289.4375 491.125,289.7031 Q491.3594,289.9531 491.3594,290.5625 L491.3594,292.0156 Q491.3594,292.625 491.125,292.8906 Q490.8906,293.1563 490.5156,293.1563 Q490.1719,293.1563 489.9688,292.9531 Q489.7656,292.7656 489.6563,292.25 Q489.6094,291.8906 489.4219,291.7031 Q489.0938,291.3281 488.4844,291.1094 Q487.875,290.8906 487.25,290.8906 Q486.4844,290.8906 485.8438,291.2188 Q485.2188,291.5469 484.7188,292.2969 Q484.2344,293.0469 484.2344,294.0781 L484.2344,295.1719 Q484.2344,296.4063 485.125,297.2344 Q486.0156,298.0469 487.6094,298.0469 Q488.5469,298.0469 489.2031,297.7969 Q489.5938,297.6406 490.0156,297.2031 Q490.2813,296.9375 490.4219,296.8594 Q490.5781,296.7813 490.7813,296.7813 Q491.1094,296.7813 491.3594,297.0469 Q491.625,297.2969 491.625,297.6406 Q491.625,297.9844 491.2813,298.3906 Q490.7813,298.9688 489.9844,299.2969 Q488.9063,299.75 487.6094,299.75 Q486.0938,299.75 484.8906,299.125 Q483.9063,298.625 483.2188,297.5625 Q482.5313,296.4844 482.5313,295.2031 L482.5313,294.0469 Q482.5313,292.7188 483.1406,291.5781 Q483.7656,290.4219 484.8594,289.8125 Q485.9531,289.1875 487.1875,289.1875 Q487.9219,289.1875 488.5625,289.3594 Q489.2188,289.5156 489.7656,289.875 Z " fill="#000000"/><text fill="#000000" font-family="sans-serif" font-size="14" lengthAdjust="spacing" textLength="49" x="501" y="299.7285">Student</text><line style="stroke:#181818;stroke-width:0.5;" x1="473" x2="552" y1="310" y2="310"/><line style="stroke:#181818;stroke-width:0.5;" x1="473" x2="552" y1="318" y2="318"/></g><!--class Topic--><g id="elem_Topic"><rect codeLine="137" fill="#F1F1F1" height="100.8281" id="Topic" rx="2.5" ry="2.5" style="stroke:#181818;stroke-width:0.5;" width="209" x="391" y="757"/><ellipse cx="473.75" cy="773" fill="#A9DCDF" rx="11" ry="11" style="stroke:#181818;stroke-width:1.0;"/><path d="M475.9375,774.7656 L471.7969,774.7656 L471.375,775.7969 L471.7969,775.7969 Q472.4063,775.7969 472.6719,776.0313 Q472.9375,776.2656 472.9375,776.6563 Q472.9375,777.0313 472.6719,777.2656 Q472.4063,777.5 471.7969,777.5 L469.5,777.5 Q468.8906,777.5 468.6406,777.2656 Q468.375,777.0313 468.375,776.6406 Q468.375,776.2656 468.6563,776.0313 Q468.9219,775.7813 469.5469,775.7969 L472.2188,769.1406 L471.1094,769.1406 Q470.5,769.1406 470.2344,768.9063 Q469.9688,768.6719 469.9688,768.2813 Q469.9688,767.9063 470.2344,767.6719 Q470.5,767.4375 471.1094,767.4375 L474.7813,767.4375 L478.1719,775.7969 Q478.7656,775.7969 478.9531,775.9375 Q479.3438,776.2031 479.3438,776.6563 Q479.3438,777.0313 479.0781,777.2656 Q478.8281,777.5 478.2188,777.5 L475.9219,777.5 Q475.3125,777.5 475.0469,777.2656 Q474.7813,777.0313 474.7813,776.6406 Q474.7813,776.2656 475.0469,776.0313 Q475.3125,775.7969 475.9219,775.7969 L476.3438,775.7969 L475.9375,774.7656 Z M475.2188,773.0625 L473.8594,769.6875 L472.4844,773.0625 L475.2188,773.0625 Z " fill="#000000"/><text fill="#000000" font-family="sans-serif" font-size="14" font-style="italic" lengthAdjust="spacing" textLength="35" x="494.25" y="778.7285">Topic</text><line style="stroke:#181818;stroke-width:0.5;" x1="392" x2="599" y1="789" y2="789"/><rect fill="none" height="6" style="stroke:#C82930;stroke-width:1.0;" width="6" x="399" y="800.3047"/><text fill="#000000" font-family="sans-serif" font-size="14" lengthAdjust="spacing" textLength="183" x="411" y="807.5332">documents : List&lt;Document&gt;</text><rect fill="none" height="6" style="stroke:#C82930;stroke-width:1.0;" width="6" x="399" y="817.9141"/><text fill="#000000" font-family="sans-serif" font-size="14" lengthAdjust="spacing" textLength="162" x="411" y="825.1426">exercises : List&lt;Exercise&gt;</text><line style="stroke:#181818;stroke-width:0.5;" x1="392" x2="599" y1="832.2188" y2="832.2188"/><ellipse cx="402" cy="846.5234" fill="#84BE84" rx="3" ry="3" style="stroke:#038048;stroke-width:1.0;"/><text fill="#000000" font-family="sans-serif" font-size="14" lengthAdjust="spacing" textLength="63" x="411" y="850.752">getIndex()</text></g><!--class Itinerary--><g id="elem_Itinerary"><rect codeLine="24" fill="#F1F1F1" height="83.2188" id="Itinerary" rx="2.5" ry="2.5" style="stroke:#181818;stroke-width:0.5;" width="148" x="421.5" y="613"/><ellipse cx="465.75" cy="629" fill="#ADD1B2" rx="11" ry="11" style="stroke:#181818;stroke-width:1.0;"/><path d="M468.5156,624.875 Q468.6719,624.6563 468.8594,624.5469 Q469.0469,624.4375 469.2656,624.4375 Q469.6406,624.4375 469.875,624.7031 Q470.1094,624.9531 470.1094,625.5625 L470.1094,627.0156 Q470.1094,627.625 469.875,627.8906 Q469.6406,628.1563 469.2656,628.1563 Q468.9219,628.1563 468.7188,627.9531 Q468.5156,627.7656 468.4063,627.25 Q468.3594,626.8906 468.1719,626.7031 Q467.8438,626.3281 467.2344,626.1094 Q466.625,625.8906 466,625.8906 Q465.2344,625.8906 464.5938,626.2188 Q463.9688,626.5469 463.4688,627.2969 Q462.9844,628.0469 462.9844,629.0781 L462.9844,630.1719 Q462.9844,631.4063 463.875,632.2344 Q464.7656,633.0469 466.3594,633.0469 Q467.2969,633.0469 467.9531,632.7969 Q468.3438,632.6406 468.7656,632.2031 Q469.0313,631.9375 469.1719,631.8594 Q469.3281,631.7813 469.5313,631.7813 Q469.8594,631.7813 470.1094,632.0469 Q470.375,632.2969 470.375,632.6406 Q470.375,632.9844 470.0313,633.3906 Q469.5313,633.9688 468.7344,634.2969 Q467.6563,634.75 466.3594,634.75 Q464.8438,634.75 463.6406,634.125 Q462.6563,633.625 461.9688,632.5625 Q461.2813,631.4844 461.2813,630.2031 L461.2813,629.0469 Q461.2813,627.7188 461.8906,626.5781 Q462.5156,625.4219 463.6094,624.8125 Q464.7031,624.1875 465.9375,624.1875 Q466.6719,624.1875 467.3125,624.3594 Q467.9688,624.5156 468.5156,624.875 Z " fill="#000000"/><text fill="#000000" font-family="sans-serif" font-size="14" lengthAdjust="spacing" textLength="51" x="486.25" y="634.7285">Itinerary</text><line style="stroke:#181818;stroke-width:0.5;" x1="422.5" x2="568.5" y1="645" y2="645"/><rect fill="none" height="6" style="stroke:#C82930;stroke-width:1.0;" width="6" x="429.5" y="656.3047"/><text fill="#000000" font-family="sans-serif" font-size="14" lengthAdjust="spacing" textLength="108" x="441.5" y="663.5332">custom : boolean</text><rect fill="none" height="6" style="stroke:#C82930;stroke-width:1.0;" width="6" x="429.5" y="673.9141"/><text fill="#000000" font-family="sans-serif" font-size="14" lengthAdjust="spacing" textLength="122" x="441.5" y="681.1426">topics : List&lt;Topic&gt;</text><line style="stroke:#181818;stroke-width:0.5;" x1="422.5" x2="568.5" y1="688.2188" y2="688.2188"/></g><!--class Chat--><g id="elem_Chat"><rect codeLine="13" fill="#F1F1F1" height="83.2188" id="Chat" rx="2.5" ry="2.5" style="stroke:#181818;stroke-width:0.5;" width="159" x="749" y="356"/><ellipse cx="809.25" cy="372" fill="#ADD1B2" rx="11" ry="11" style="stroke:#181818;stroke-width:1.0;"/><path d="M812.0156,367.875 Q812.1719,367.6563 812.3594,367.5469 Q812.5469,367.4375 812.7656,367.4375 Q813.1406,367.4375 813.375,367.7031 Q813.6094,367.9531 813.6094,368.5625 L813.6094,370.0156 Q813.6094,370.625 813.375,370.8906 Q813.1406,371.1563 812.7656,371.1563 Q812.4219,371.1563 812.2188,370.9531 Q812.0156,370.7656 811.9063,370.25 Q811.8594,369.8906 811.6719,369.7031 Q811.3438,369.3281 810.7344,369.1094 Q810.125,368.8906 809.5,368.8906 Q808.7344,368.8906 808.0938,369.2188 Q807.4688,369.5469 806.9688,370.2969 Q806.4844,371.0469 806.4844,372.0781 L806.4844,373.1719 Q806.4844,374.4063 807.375,375.2344 Q808.2656,376.0469 809.8594,376.0469 Q810.7969,376.0469 811.4531,375.7969 Q811.8438,375.6406 812.2656,375.2031 Q812.5313,374.9375 812.6719,374.8594 Q812.8281,374.7813 813.0313,374.7813 Q813.3594,374.7813 813.6094,375.0469 Q813.875,375.2969 813.875,375.6406 Q813.875,375.9844 813.5313,376.3906 Q813.0313,376.9688 812.2344,377.2969 Q811.1563,377.75 809.8594,377.75 Q808.3438,377.75 807.1406,377.125 Q806.1563,376.625 805.4688,375.5625 Q804.7813,374.4844 804.7813,373.2031 L804.7813,372.0469 Q804.7813,370.7188 805.3906,369.5781 Q806.0156,368.4219 807.1094,367.8125 Q808.2031,367.1875 809.4375,367.1875 Q810.1719,367.1875 810.8125,367.3594 Q811.4688,367.5156 812.0156,367.875 Z " fill="#000000"/><text fill="#000000" font-family="sans-serif" font-size="14" lengthAdjust="spacing" textLength="30" x="829.75" y="377.7285">Chat</text><line style="stroke:#181818;stroke-width:0.5;" x1="750" x2="907" y1="388" y2="388"/><line style="stroke:#181818;stroke-width:0.5;" x1="750" x2="907" y1="396" y2="396"/><ellipse cx="760" cy="410.3047" fill="#84BE84" rx="3" ry="3" style="stroke:#038048;stroke-width:1.0;"/><text fill="#000000" font-family="sans-serif" font-size="14" lengthAdjust="spacing" textLength="113" x="769" y="414.5332">searchExercises()</text><ellipse cx="760" cy="427.9141" fill="#84BE84" rx="3" ry="3" style="stroke:#038048;stroke-width:1.0;"/><text fill="#000000" font-family="sans-serif" font-size="14" lengthAdjust="spacing" textLength="133" x="769" y="432.1426">ContrastApplication()</text></g><!--class User--><g id="elem_User"><rect codeLine="90" fill="#F1F1F1" height="100.8281" id="User" rx="2.5" ry="2.5" style="stroke:#181818;stroke-width:0.5;" width="136" x="795.5" y="116"/><ellipse cx="844.25" cy="132" fill="#A9DCDF" rx="11" ry="11" style="stroke:#181818;stroke-width:1.0;"/><path d="M846.4375,133.7656 L842.2969,133.7656 L841.875,134.7969 L842.2969,134.7969 Q842.9063,134.7969 843.1719,135.0313 Q843.4375,135.2656 843.4375,135.6563 Q843.4375,136.0313 843.1719,136.2656 Q842.9063,136.5 842.2969,136.5 L840,136.5 Q839.3906,136.5 839.1406,136.2656 Q838.875,136.0313 838.875,135.6406 Q838.875,135.2656 839.1563,135.0313 Q839.4219,134.7813 840.0469,134.7969 L842.7188,128.1406 L841.6094,128.1406 Q841,128.1406 840.7344,127.9063 Q840.4688,127.6719 840.4688,127.2813 Q840.4688,126.9063 840.7344,126.6719 Q841,126.4375 841.6094,126.4375 L845.2813,126.4375 L848.6719,134.7969 Q849.2656,134.7969 849.4531,134.9375 Q849.8438,135.2031 849.8438,135.6563 Q849.8438,136.0313 849.5781,136.2656 Q849.3281,136.5 848.7188,136.5 L846.4219,136.5 Q845.8125,136.5 845.5469,136.2656 Q845.2813,136.0313 845.2813,135.6406 Q845.2813,135.2656 845.5469,135.0313 Q845.8125,134.7969 846.4219,134.7969 L846.8438,134.7969 L846.4375,133.7656 Z M845.7188,132.0625 L844.3594,128.6875 L842.9844,132.0625 L845.7188,132.0625 Z " fill="#000000"/><text fill="#000000" font-family="sans-serif" font-size="14" font-style="italic" lengthAdjust="spacing" textLength="30" x="864.75" y="137.7285">User</text><line style="stroke:#181818;stroke-width:0.5;" x1="796.5" x2="930.5" y1="148" y2="148"/><line style="stroke:#181818;stroke-width:0.5;" x1="796.5" x2="930.5" y1="156" y2="156"/><ellipse cx="806.5" cy="170.3047" fill="#84BE84" rx="3" ry="3" style="stroke:#038048;stroke-width:1.0;"/><text fill="#000000" font-family="sans-serif" font-size="14" lengthAdjust="spacing" textLength="62" x="815.5" y="174.5332">askChat()</text><ellipse cx="806.5" cy="187.9141" fill="#84BE84" rx="3" ry="3" style="stroke:#038048;stroke-width:1.0;"/><text fill="#000000" font-family="sans-serif" font-size="14" lengthAdjust="spacing" textLength="110" x="815.5" y="192.1426">sendApplication()</text><ellipse cx="806.5" cy="205.5234" fill="#84BE84" rx="3" ry="3" style="stroke:#038048;stroke-width:1.0;"/><text fill="#000000" font-family="sans-serif" font-size="14" lengthAdjust="spacing" textLength="85" x="815.5" y="209.752">EditItinerary()</text></g><!--class Application--><g id="elem_Application"><rect codeLine="36" fill="#F1F1F1" height="83.2188" id="Application" rx="2.5" ry="2.5" style="stroke:#181818;stroke-width:0.5;" width="147" x="863" y="1317"/><ellipse cx="898.7" cy="1333" fill="#ADD1B2" rx="11" ry="11" style="stroke:#181818;stroke-width:1.0;"/><path d="M901.4656,1328.875 Q901.6219,1328.6563 901.8094,1328.5469 Q901.9969,1328.4375 902.2156,1328.4375 Q902.5906,1328.4375 902.825,1328.7031 Q903.0594,1328.9531 903.0594,1329.5625 L903.0594,1331.0156 Q903.0594,1331.625 902.825,1331.8906 Q902.5906,1332.1563 902.2156,1332.1563 Q901.8719,1332.1563 901.6688,1331.9531 Q901.4656,1331.7656 901.3563,1331.25 Q901.3094,1330.8906 901.1219,1330.7031 Q900.7938,1330.3281 900.1844,1330.1094 Q899.575,1329.8906 898.95,1329.8906 Q898.1844,1329.8906 897.5438,1330.2188 Q896.9188,1330.5469 896.4188,1331.2969 Q895.9344,1332.0469 895.9344,1333.0781 L895.9344,1334.1719 Q895.9344,1335.4063 896.825,1336.2344 Q897.7156,1337.0469 899.3094,1337.0469 Q900.2469,1337.0469 900.9031,1336.7969 Q901.2938,1336.6406 901.7156,1336.2031 Q901.9813,1335.9375 902.1219,1335.8594 Q902.2781,1335.7813 902.4813,1335.7813 Q902.8094,1335.7813 903.0594,1336.0469 Q903.325,1336.2969 903.325,1336.6406 Q903.325,1336.9844 902.9813,1337.3906 Q902.4813,1337.9688 901.6844,1338.2969 Q900.6063,1338.75 899.3094,1338.75 Q897.7938,1338.75 896.5906,1338.125 Q895.6063,1337.625 894.9188,1336.5625 Q894.2313,1335.4844 894.2313,1334.2031 L894.2313,1333.0469 Q894.2313,1331.7188 894.8406,1330.5781 Q895.4656,1329.4219 896.5594,1328.8125 Q897.6531,1328.1875 898.8875,1328.1875 Q899.6219,1328.1875 900.2625,1328.3594 Q900.9188,1328.5156 901.4656,1328.875 Z " fill="#000000"/><text fill="#000000" font-family="sans-serif" font-size="14" lengthAdjust="spacing" textLength="69" x="917.3" y="1338.7285">Application</text><line style="stroke:#181818;stroke-width:0.5;" x1="864" x2="1009" y1="1349" y2="1349"/><rect fill="none" height="6" style="stroke:#C82930;stroke-width:1.0;" width="6" x="871" y="1360.3047"/><text fill="#000000" font-family="sans-serif" font-size="14" lengthAdjust="spacing" textLength="107" x="883" y="1367.5332">correct : boolean</text><rect fill="none" height="6" style="stroke:#C82930;stroke-width:1.0;" width="6" x="871" y="1377.9141"/><text fill="#000000" font-family="sans-serif" font-size="14" lengthAdjust="spacing" textLength="121" x="883" y="1385.1426">evaluated: boolean</text><line style="stroke:#181818;stroke-width:0.5;" x1="864" x2="1009" y1="1392.2188" y2="1392.2188"/></g><!--class Justification--><g id="elem_Justification"><rect codeLine="55" fill="#F1F1F1" height="65.6094" id="Justification" rx="2.5" ry="2.5" style="stroke:#181818;stroke-width:0.5;" width="133" x="779" y="1736"/><ellipse cx="806.6" cy="1752" fill="#ADD1B2" rx="11" ry="11" style="stroke:#181818;stroke-width:1.0;"/><path d="M809.3656,1747.875 Q809.5219,1747.6563 809.7094,1747.5469 Q809.8969,1747.4375 810.1156,1747.4375 Q810.4906,1747.4375 810.725,1747.7031 Q810.9594,1747.9531 810.9594,1748.5625 L810.9594,1750.0156 Q810.9594,1750.625 810.725,1750.8906 Q810.4906,1751.1563 810.1156,1751.1563 Q809.7719,1751.1563 809.5688,1750.9531 Q809.3656,1750.7656 809.2563,1750.25 Q809.2094,1749.8906 809.0219,1749.7031 Q808.6938,1749.3281 808.0844,1749.1094 Q807.475,1748.8906 806.85,1748.8906 Q806.0844,1748.8906 805.4438,1749.2188 Q804.8188,1749.5469 804.3188,1750.2969 Q803.8344,1751.0469 803.8344,1752.0781 L803.8344,1753.1719 Q803.8344,1754.4063 804.725,1755.2344 Q805.6156,1756.0469 807.2094,1756.0469 Q808.1469,1756.0469 808.8031,1755.7969 Q809.1938,1755.6406 809.6156,1755.2031 Q809.8813,1754.9375 810.0219,1754.8594 Q810.1781,1754.7813 810.3813,1754.7813 Q810.7094,1754.7813 810.9594,1755.0469 Q811.225,1755.2969 811.225,1755.6406 Q811.225,1755.9844 810.8813,1756.3906 Q810.3813,1756.9688 809.5844,1757.2969 Q808.5063,1757.75 807.2094,1757.75 Q805.6938,1757.75 804.4906,1757.125 Q803.5063,1756.625 802.8188,1755.5625 Q802.1313,1754.4844 802.1313,1753.2031 L802.1313,1752.0469 Q802.1313,1750.7188 802.7406,1749.5781 Q803.3656,1748.4219 804.4594,1747.8125 Q805.5531,1747.1875 806.7875,1747.1875 Q807.5219,1747.1875 808.1625,1747.3594 Q808.8188,1747.5156 809.3656,1747.875 Z " fill="#000000"/><text fill="#000000" font-family="sans-serif" font-size="14" lengthAdjust="spacing" textLength="73" x="823.4" y="1757.7285">Justification</text><line style="stroke:#181818;stroke-width:0.5;" x1="780" x2="911" y1="1768" y2="1768"/><rect fill="none" height="6" style="stroke:#C82930;stroke-width:1.0;" width="6" x="787" y="1779.3047"/><text fill="#000000" font-family="sans-serif" font-size="14" lengthAdjust="spacing" textLength="107" x="799" y="1786.5332">correct : boolean</text><line style="stroke:#181818;stroke-width:0.5;" x1="780" x2="911" y1="1793.6094" y2="1793.6094"/></g><!--class Definition--><g id="elem_Definition"><rect codeLine="46" fill="#F1F1F1" height="65.6094" id="Definition" rx="2.5" ry="2.5" style="stroke:#181818;stroke-width:0.5;" width="133" x="700" y="1557"/><ellipse cx="733.9" cy="1573" fill="#ADD1B2" rx="11" ry="11" style="stroke:#181818;stroke-width:1.0;"/><path d="M736.6656,1568.875 Q736.8219,1568.6563 737.0094,1568.5469 Q737.1969,1568.4375 737.4156,1568.4375 Q737.7906,1568.4375 738.025,1568.7031 Q738.2594,1568.9531 738.2594,1569.5625 L738.2594,1571.0156 Q738.2594,1571.625 738.025,1571.8906 Q737.7906,1572.1563 737.4156,1572.1563 Q737.0719,1572.1563 736.8688,1571.9531 Q736.6656,1571.7656 736.5563,1571.25 Q736.5094,1570.8906 736.3219,1570.7031 Q735.9938,1570.3281 735.3844,1570.1094 Q734.775,1569.8906 734.15,1569.8906 Q733.3844,1569.8906 732.7438,1570.2188 Q732.1188,1570.5469 731.6188,1571.2969 Q731.1344,1572.0469 731.1344,1573.0781 L731.1344,1574.1719 Q731.1344,1575.4063 732.025,1576.2344 Q732.9156,1577.0469 734.5094,1577.0469 Q735.4469,1577.0469 736.1031,1576.7969 Q736.4938,1576.6406 736.9156,1576.2031 Q737.1813,1575.9375 737.3219,1575.8594 Q737.4781,1575.7813 737.6813,1575.7813 Q738.0094,1575.7813 738.2594,1576.0469 Q738.525,1576.2969 738.525,1576.6406 Q738.525,1576.9844 738.1813,1577.3906 Q737.6813,1577.9688 736.8844,1578.2969 Q735.8063,1578.75 734.5094,1578.75 Q732.9938,1578.75 731.7906,1578.125 Q730.8063,1577.625 730.1188,1576.5625 Q729.4313,1575.4844 729.4313,1574.2031 L729.4313,1573.0469 Q729.4313,1571.7188 730.0406,1570.5781 Q730.6656,1569.4219 731.7594,1568.8125 Q732.8531,1568.1875 734.0875,1568.1875 Q734.8219,1568.1875 735.4625,1568.3594 Q736.1188,1568.5156 736.6656,1568.875 Z " fill="#000000"/><text fill="#000000" font-family="sans-serif" font-size="14" lengthAdjust="spacing" textLength="59" x="752.1" y="1578.7285">Definition</text><line style="stroke:#181818;stroke-width:0.5;" x1="701" x2="832" y1="1589" y2="1589"/><rect fill="none" height="6" style="stroke:#C82930;stroke-width:1.0;" width="6" x="708" y="1600.3047"/><text fill="#000000" font-family="sans-serif" font-size="14" lengthAdjust="spacing" textLength="107" x="720" y="1607.5332">correct : boolean</text><line style="stroke:#181818;stroke-width:0.5;" x1="701" x2="832" y1="1614.6094" y2="1614.6094"/></g><!--class Domain--><g id="elem_Domain"><rect codeLine="63" fill="#F1F1F1" height="100.8281" id="Domain" rx="2.5" ry="2.5" style="stroke:#181818;stroke-width:0.5;" width="220" x="638.5" y="1111"/><ellipse cx="720.25" cy="1127" fill="#ADD1B2" rx="11" ry="11" style="stroke:#181818;stroke-width:1.0;"/><path d="M723.0156,1122.875 Q723.1719,1122.6563 723.3594,1122.5469 Q723.5469,1122.4375 723.7656,1122.4375 Q724.1406,1122.4375 724.375,1122.7031 Q724.6094,1122.9531 724.6094,1123.5625 L724.6094,1125.0156 Q724.6094,1125.625 724.375,1125.8906 Q724.1406,1126.1563 723.7656,1126.1563 Q723.4219,1126.1563 723.2188,1125.9531 Q723.0156,1125.7656 722.9063,1125.25 Q722.8594,1124.8906 722.6719,1124.7031 Q722.3438,1124.3281 721.7344,1124.1094 Q721.125,1123.8906 720.5,1123.8906 Q719.7344,1123.8906 719.0938,1124.2188 Q718.4688,1124.5469 717.9688,1125.2969 Q717.4844,1126.0469 717.4844,1127.0781 L717.4844,1128.1719 Q717.4844,1129.4063 718.375,1130.2344 Q719.2656,1131.0469 720.8594,1131.0469 Q721.7969,1131.0469 722.4531,1130.7969 Q722.8438,1130.6406 723.2656,1130.2031 Q723.5313,1129.9375 723.6719,1129.8594 Q723.8281,1129.7813 724.0313,1129.7813 Q724.3594,1129.7813 724.6094,1130.0469 Q724.875,1130.2969 724.875,1130.6406 Q724.875,1130.9844 724.5313,1131.3906 Q724.0313,1131.9688 723.2344,1132.2969 Q722.1563,1132.75 720.8594,1132.75 Q719.3438,1132.75 718.1406,1132.125 Q717.1563,1131.625 716.4688,1130.5625 Q715.7813,1129.4844 715.7813,1128.2031 L715.7813,1127.0469 Q715.7813,1125.7188 716.3906,1124.5781 Q717.0156,1123.4219 718.1094,1122.8125 Q719.2031,1122.1875 720.4375,1122.1875 Q721.1719,1122.1875 721.8125,1122.3594 Q722.4688,1122.5156 723.0156,1122.875 Z " fill="#000000"/><text fill="#000000" font-family="sans-serif" font-size="14" lengthAdjust="spacing" textLength="48" x="740.75" y="1132.7285">Domain</text><line style="stroke:#181818;stroke-width:0.5;" x1="639.5" x2="857.5" y1="1143" y2="1143"/><rect fill="none" height="6" style="stroke:#C82930;stroke-width:1.0;" width="6" x="646.5" y="1154.3047"/><text fill="#000000" font-family="sans-serif" font-size="14" lengthAdjust="spacing" textLength="170" x="658.5" y="1161.5332">statement : StatementType</text><rect fill="none" height="6" style="stroke:#C82930;stroke-width:1.0;" width="6" x="646.5" y="1171.9141"/><text fill="#000000" font-family="sans-serif" font-size="14" lengthAdjust="spacing" textLength="194" x="658.5" y="1179.1426">applications : List&lt;Application&gt;</text><rect fill="none" height="6" style="stroke:#C82930;stroke-width:1.0;" width="6" x="646.5" y="1189.5234"/><text fill="#000000" font-family="sans-serif" font-size="14" lengthAdjust="spacing" textLength="170" x="658.5" y="1196.752">requirements : List&lt;String&gt;</text><line style="stroke:#181818;stroke-width:0.5;" x1="639.5" x2="857.5" y1="1203.8281" y2="1203.8281"/></g><!--class Concept--><g id="elem_Concept"><rect codeLine="173" fill="#F1F1F1" height="65.6094" id="Concept" rx="2.5" ry="2.5" style="stroke:#181818;stroke-width:0.5;" width="188" x="476.5" y="1325.5"/><ellipse cx="539.75" cy="1341.5" fill="#ADD1B2" rx="11" ry="11" style="stroke:#181818;stroke-width:1.0;"/><path d="M542.5156,1337.375 Q542.6719,1337.1563 542.8594,1337.0469 Q543.0469,1336.9375 543.2656,1336.9375 Q543.6406,1336.9375 543.875,1337.2031 Q544.1094,1337.4531 544.1094,1338.0625 L544.1094,1339.5156 Q544.1094,1340.125 543.875,1340.3906 Q543.6406,1340.6563 543.2656,1340.6563 Q542.9219,1340.6563 542.7188,1340.4531 Q542.5156,1340.2656 542.4063,1339.75 Q542.3594,1339.3906 542.1719,1339.2031 Q541.8438,1338.8281 541.2344,1338.6094 Q540.625,1338.3906 540,1338.3906 Q539.2344,1338.3906 538.5938,1338.7188 Q537.9688,1339.0469 537.4688,1339.7969 Q536.9844,1340.5469 536.9844,1341.5781 L536.9844,1342.6719 Q536.9844,1343.9063 537.875,1344.7344 Q538.7656,1345.5469 540.3594,1345.5469 Q541.2969,1345.5469 541.9531,1345.2969 Q542.3438,1345.1406 542.7656,1344.7031 Q543.0313,1344.4375 543.1719,1344.3594 Q543.3281,1344.2813 543.5313,1344.2813 Q543.8594,1344.2813 544.1094,1344.5469 Q544.375,1344.7969 544.375,1345.1406 Q544.375,1345.4844 544.0313,1345.8906 Q543.5313,1346.4688 542.7344,1346.7969 Q541.6563,1347.25 540.3594,1347.25 Q538.8438,1347.25 537.6406,1346.625 Q536.6563,1346.125 535.9688,1345.0625 Q535.2813,1343.9844 535.2813,1342.7031 L535.2813,1341.5469 Q535.2813,1340.2188 535.8906,1339.0781 Q536.5156,1337.9219 537.6094,1337.3125 Q538.7031,1336.6875 539.9375,1336.6875 Q540.6719,1336.6875 541.3125,1336.8594 Q541.9688,1337.0156 542.5156,1337.375 Z " fill="#000000"/><text fill="#000000" font-family="sans-serif" font-size="14" lengthAdjust="spacing" textLength="53" x="560.25" y="1347.2285">Concept</text><line style="stroke:#181818;stroke-width:0.5;" x1="477.5" x2="663.5" y1="1357.5" y2="1357.5"/><rect fill="none" height="6" style="stroke:#C82930;stroke-width:1.0;" width="6" x="484.5" y="1368.8047"/><text fill="#000000" font-family="sans-serif" font-size="14" lengthAdjust="spacing" textLength="162" x="496.5" y="1376.0332">exercises : List&lt;Exercise&gt;</text><line style="stroke:#181818;stroke-width:0.5;" x1="477.5" x2="663.5" y1="1383.1094" y2="1383.1094"/></g><!--class StatementType--><g id="elem_StatementType"><rect codeLine="76" fill="#F1F1F1" height="171.2656" id="StatementType" rx="2.5" ry="2.5" style="stroke:#181818;stroke-width:0.5;" width="128" x="699.5" y="1273"/><ellipse cx="714.5" cy="1289" fill="#EB937F" rx="11" ry="11" style="stroke:#181818;stroke-width:1.0;"/><path d="M713.3594,1289.7969 L713.3594,1292.2969 L717.6875,1292.2969 L717.6875,1291.375 Q717.6875,1290.7656 717.9219,1290.5 Q718.1719,1290.2344 718.5469,1290.2344 Q718.9219,1290.2344 719.1563,1290.5 Q719.3906,1290.7656 719.3906,1291.375 L719.3906,1294 L711.3906,1294 Q710.7656,1294 710.5,1293.7656 Q710.25,1293.5313 710.25,1293.1406 Q710.25,1292.7656 710.5156,1292.5313 Q710.7813,1292.2969 711.3906,1292.2969 L711.6563,1292.2969 L711.6563,1285.6406 L711.3906,1285.6406 Q710.7656,1285.6406 710.5,1285.4063 Q710.25,1285.1719 710.25,1284.7813 Q710.25,1284.4063 710.5,1284.1719 Q710.7656,1283.9375 711.3906,1283.9375 L719.0156,1283.9375 L719.0156,1286.5313 Q719.0156,1287.1406 718.7813,1287.4063 Q718.5625,1287.6563 718.1719,1287.6563 Q717.7969,1287.6563 717.5625,1287.4063 Q717.3281,1287.1406 717.3281,1286.5313 L717.3281,1285.6406 L713.3594,1285.6406 L713.3594,1288.0938 L714.8438,1288.0938 Q714.8438,1287.4375 714.9688,1287.25 Q715.2344,1286.8438 715.7031,1286.8438 Q716.0781,1286.8438 716.3125,1287.1094 Q716.5469,1287.3594 716.5469,1287.9688 L716.5469,1289.9375 Q716.5469,1290.4844 716.4219,1290.6719 Q716.1563,1291.0625 715.7031,1291.0625 Q715.2344,1291.0625 714.9688,1290.6563 Q714.8438,1290.4688 714.8438,1289.7969 L713.3594,1289.7969 Z " fill="#000000"/><text fill="#000000" font-family="sans-serif" font-size="14" lengthAdjust="spacing" textLength="96" x="728.5" y="1294.7285">StatementType</text><line style="stroke:#181818;stroke-width:0.5;" x1="700.5" x2="826.5" y1="1305" y2="1305"/><text fill="#000000" font-family="sans-serif" font-size="14" lengthAdjust="spacing" textLength="63" x="705.5" y="1323.5332">ClozeTest</text><text fill="#000000" font-family="sans-serif" font-size="14" lengthAdjust="spacing" textLength="59" x="705.5" y="1341.1426">Definition</text><text fill="#000000" font-family="sans-serif" font-size="14" lengthAdjust="spacing" textLength="52" x="705.5" y="1358.752">Relation</text><text fill="#000000" font-family="sans-serif" font-size="14" lengthAdjust="spacing" textLength="35" x="705.5" y="1376.3613">Open</text><text fill="#000000" font-family="sans-serif" font-size="14" lengthAdjust="spacing" textLength="92" x="705.5" y="1393.9707">MultipleChoice</text><text fill="#000000" font-family="sans-serif" font-size="14" lengthAdjust="spacing" textLength="108" x="705.5" y="1411.5801">JustifyApplication</text><text fill="#000000" font-family="sans-serif" font-size="14" lengthAdjust="spacing" textLength="103" x="705.5" y="1429.1895">ApplicationCode</text><line style="stroke:#181818;stroke-width:0.5;" x1="700.5" x2="826.5" y1="1436.2656" y2="1436.2656"/></g><!--class Excercise--><g id="elem_Excercise"><rect codeLine="128" fill="#F1F1F1" height="65.6094" id="Excercise" rx="2.5" ry="2.5" style="stroke:#181818;stroke-width:0.5;" width="92" x="578.5" y="919"/><ellipse cx="593.5" cy="935" fill="#ADD1B2" rx="11" ry="11" style="stroke:#181818;stroke-width:1.0;"/><path d="M596.2656,930.875 Q596.4219,930.6563 596.6094,930.5469 Q596.7969,930.4375 597.0156,930.4375 Q597.3906,930.4375 597.625,930.7031 Q597.8594,930.9531 597.8594,931.5625 L597.8594,933.0156 Q597.8594,933.625 597.625,933.8906 Q597.3906,934.1563 597.0156,934.1563 Q596.6719,934.1563 596.4688,933.9531 Q596.2656,933.7656 596.1563,933.25 Q596.1094,932.8906 595.9219,932.7031 Q595.5938,932.3281 594.9844,932.1094 Q594.375,931.8906 593.75,931.8906 Q592.9844,931.8906 592.3438,932.2188 Q591.7188,932.5469 591.2188,933.2969 Q590.7344,934.0469 590.7344,935.0781 L590.7344,936.1719 Q590.7344,937.4063 591.625,938.2344 Q592.5156,939.0469 594.1094,939.0469 Q595.0469,939.0469 595.7031,938.7969 Q596.0938,938.6406 596.5156,938.2031 Q596.7813,937.9375 596.9219,937.8594 Q597.0781,937.7813 597.2813,937.7813 Q597.6094,937.7813 597.8594,938.0469 Q598.125,938.2969 598.125,938.6406 Q598.125,938.9844 597.7813,939.3906 Q597.2813,939.9688 596.4844,940.2969 Q595.4063,940.75 594.1094,940.75 Q592.5938,940.75 591.3906,940.125 Q590.4063,939.625 589.7188,938.5625 Q589.0313,937.4844 589.0313,936.2031 L589.0313,935.0469 Q589.0313,933.7188 589.6406,932.5781 Q590.2656,931.4219 591.3594,930.8125 Q592.4531,930.1875 593.6875,930.1875 Q594.4219,930.1875 595.0625,930.3594 Q595.7188,930.5156 596.2656,930.875 Z " fill="#000000"/><text fill="#000000" font-family="sans-serif" font-size="14" lengthAdjust="spacing" textLength="60" x="607.5" y="940.7285">Excercise</text><line style="stroke:#181818;stroke-width:0.5;" x1="579.5" x2="669.5" y1="951" y2="951"/><rect fill="none" height="6" style="stroke:#C82930;stroke-width:1.0;" width="6" x="586.5" y="962.3047"/><text fill="#000000" font-family="sans-serif" font-size="14" lengthAdjust="spacing" textLength="46" x="598.5" y="969.5332">version</text><line style="stroke:#181818;stroke-width:0.5;" x1="579.5" x2="669.5" y1="976.6094" y2="976.6094"/></g><!--class Document--><g id="elem_Document"><rect fill="#F1F1F1" height="48" id="Document" rx="2.5" ry="2.5" style="stroke:#181818;stroke-width:0.5;" width="96" x="223.5" y="1566"/><ellipse cx="238.5" cy="1582" fill="#ADD1B2" rx="11" ry="11" style="stroke:#181818;stroke-width:1.0;"/><path d="M241.2656,1577.875 Q241.4219,1577.6563 241.6094,1577.5469 Q241.7969,1577.4375 242.0156,1577.4375 Q242.3906,1577.4375 242.625,1577.7031 Q242.8594,1577.9531 242.8594,1578.5625 L242.8594,1580.0156 Q242.8594,1580.625 242.625,1580.8906 Q242.3906,1581.1563 242.0156,1581.1563 Q241.6719,1581.1563 241.4688,1580.9531 Q241.2656,1580.7656 241.1563,1580.25 Q241.1094,1579.8906 240.9219,1579.7031 Q240.5938,1579.3281 239.9844,1579.1094 Q239.375,1578.8906 238.75,1578.8906 Q237.9844,1578.8906 237.3438,1579.2188 Q236.7188,1579.5469 236.2188,1580.2969 Q235.7344,1581.0469 235.7344,1582.0781 L235.7344,1583.1719 Q235.7344,1584.4063 236.625,1585.2344 Q237.5156,1586.0469 239.1094,1586.0469 Q240.0469,1586.0469 240.7031,1585.7969 Q241.0938,1585.6406 241.5156,1585.2031 Q241.7813,1584.9375 241.9219,1584.8594 Q242.0781,1584.7813 242.2813,1584.7813 Q242.6094,1584.7813 242.8594,1585.0469 Q243.125,1585.2969 243.125,1585.6406 Q243.125,1585.9844 242.7813,1586.3906 Q242.2813,1586.9688 241.4844,1587.2969 Q240.4063,1587.75 239.1094,1587.75 Q237.5938,1587.75 236.3906,1587.125 Q235.4063,1586.625 234.7188,1585.5625 Q234.0313,1584.4844 234.0313,1583.2031 L234.0313,1582.0469 Q234.0313,1580.7188 234.6406,1579.5781 Q235.2656,1578.4219 236.3594,1577.8125 Q237.4531,1577.1875 238.6875,1577.1875 Q239.4219,1577.1875 240.0625,1577.3594 Q240.7188,1577.5156 241.2656,1577.875 Z " fill="#000000"/><text fill="#000000" font-family="sans-serif" font-size="14" lengthAdjust="spacing" textLength="64" x="252.5" y="1587.7285">Document</text><line style="stroke:#181818;stroke-width:0.5;" x1="224.5" x2="318.5" y1="1598" y2="1598"/><line style="stroke:#181818;stroke-width:0.5;" x1="224.5" x2="318.5" y1="1606" y2="1606"/></g><!--class CompositeTopic--><g id="elem_CompositeTopic"><rect codeLine="159" fill="#F1F1F1" height="65.6094" id="CompositeTopic" rx="2.5" ry="2.5" style="stroke:#181818;stroke-width:0.5;" width="148" x="324.5" y="919"/><ellipse cx="345.8" cy="935" fill="#ADD1B2" rx="11" ry="11" style="stroke:#181818;stroke-width:1.0;"/><path d="M348.5656,930.875 Q348.7219,930.6563 348.9094,930.5469 Q349.0969,930.4375 349.3156,930.4375 Q349.6906,930.4375 349.925,930.7031 Q350.1594,930.9531 350.1594,931.5625 L350.1594,933.0156 Q350.1594,933.625 349.925,933.8906 Q349.6906,934.1563 349.3156,934.1563 Q348.9719,934.1563 348.7688,933.9531 Q348.5656,933.7656 348.4563,933.25 Q348.4094,932.8906 348.2219,932.7031 Q347.8938,932.3281 347.2844,932.1094 Q346.675,931.8906 346.05,931.8906 Q345.2844,931.8906 344.6438,932.2188 Q344.0188,932.5469 343.5188,933.2969 Q343.0344,934.0469 343.0344,935.0781 L343.0344,936.1719 Q343.0344,937.4063 343.925,938.2344 Q344.8156,939.0469 346.4094,939.0469 Q347.3469,939.0469 348.0031,938.7969 Q348.3938,938.6406 348.8156,938.2031 Q349.0813,937.9375 349.2219,937.8594 Q349.3781,937.7813 349.5813,937.7813 Q349.9094,937.7813 350.1594,938.0469 Q350.425,938.2969 350.425,938.6406 Q350.425,938.9844 350.0813,939.3906 Q349.5813,939.9688 348.7844,940.2969 Q347.7063,940.75 346.4094,940.75 Q344.8938,940.75 343.6906,940.125 Q342.7063,939.625 342.0188,938.5625 Q341.3313,937.4844 341.3313,936.2031 L341.3313,935.0469 Q341.3313,933.7188 341.9406,932.5781 Q342.5656,931.4219 343.6594,930.8125 Q344.7531,930.1875 345.9875,930.1875 Q346.7219,930.1875 347.3625,930.3594 Q348.0188,930.5156 348.5656,930.875 Z " fill="#000000"/><text fill="#000000" font-family="sans-serif" font-size="14" lengthAdjust="spacing" textLength="102" x="361.2" y="940.7285">CompositeTopic</text><line style="stroke:#181818;stroke-width:0.5;" x1="325.5" x2="471.5" y1="951" y2="951"/><rect fill="none" height="6" style="stroke:#C82930;stroke-width:1.0;" width="6" x="332.5" y="962.3047"/><text fill="#000000" font-family="sans-serif" font-size="14" lengthAdjust="spacing" textLength="122" x="344.5" y="969.5332">topics : List&lt;Topic&gt;</text><line style="stroke:#181818;stroke-width:0.5;" x1="325.5" x2="471.5" y1="976.6094" y2="976.6094"/></g><!--class SimpleTopic--><g id="elem_SimpleTopic"><rect codeLine="150" fill="#F1F1F1" height="65.6094" id="SimpleTopic" rx="2.5" ry="2.5" style="stroke:#181818;stroke-width:0.5;" width="186" x="376.5" y="1015"/><ellipse cx="426.75" cy="1031" fill="#ADD1B2" rx="11" ry="11" style="stroke:#181818;stroke-width:1.0;"/><path d="M429.5156,1026.875 Q429.6719,1026.6563 429.8594,1026.5469 Q430.0469,1026.4375 430.2656,1026.4375 Q430.6406,1026.4375 430.875,1026.7031 Q431.1094,1026.9531 431.1094,1027.5625 L431.1094,1029.0156 Q431.1094,1029.625 430.875,1029.8906 Q430.6406,1030.1563 430.2656,1030.1563 Q429.9219,1030.1563 429.7188,1029.9531 Q429.5156,1029.7656 429.4063,1029.25 Q429.3594,1028.8906 429.1719,1028.7031 Q428.8438,1028.3281 428.2344,1028.1094 Q427.625,1027.8906 427,1027.8906 Q426.2344,1027.8906 425.5938,1028.2188 Q424.9688,1028.5469 424.4688,1029.2969 Q423.9844,1030.0469 423.9844,1031.0781 L423.9844,1032.1719 Q423.9844,1033.4063 424.875,1034.2344 Q425.7656,1035.0469 427.3594,1035.0469 Q428.2969,1035.0469 428.9531,1034.7969 Q429.3438,1034.6406 429.7656,1034.2031 Q430.0313,1033.9375 430.1719,1033.8594 Q430.3281,1033.7813 430.5313,1033.7813 Q430.8594,1033.7813 431.1094,1034.0469 Q431.375,1034.2969 431.375,1034.6406 Q431.375,1034.9844 431.0313,1035.3906 Q430.5313,1035.9688 429.7344,1036.2969 Q428.6563,1036.75 427.3594,1036.75 Q425.8438,1036.75 424.6406,1036.125 Q423.6563,1035.625 422.9688,1034.5625 Q422.2813,1033.4844 422.2813,1032.2031 L422.2813,1031.0469 Q422.2813,1029.7188 422.8906,1028.5781 Q423.5156,1027.4219 424.6094,1026.8125 Q425.7031,1026.1875 426.9375,1026.1875 Q427.6719,1026.1875 428.3125,1026.3594 Q428.9688,1026.5156 429.5156,1026.875 Z " fill="#000000"/><text fill="#000000" font-family="sans-serif" font-size="14" lengthAdjust="spacing" textLength="77" x="447.25" y="1036.7285">SimpleTopic</text><line style="stroke:#181818;stroke-width:0.5;" x1="377.5" x2="561.5" y1="1047" y2="1047"/><rect fill="none" height="6" style="stroke:#C82930;stroke-width:1.0;" width="6" x="384.5" y="1058.3047"/><text fill="#000000" font-family="sans-serif" font-size="14" lengthAdjust="spacing" textLength="160" x="396.5" y="1065.5332">concepts : List&lt;Concept&gt;</text><line style="stroke:#181818;stroke-width:0.5;" x1="377.5" x2="561.5" y1="1072.6094" y2="1072.6094"/></g><!--class Media--><g id="elem_Media"><rect codeLine="209" fill="#F1F1F1" height="48" id="Media" rx="2.5" ry="2.5" style="stroke:#181818;stroke-width:0.5;" width="70" x="236.5" y="1745"/><ellipse cx="251.5" cy="1761" fill="#ADD1B2" rx="11" ry="11" style="stroke:#181818;stroke-width:1.0;"/><path d="M254.2656,1756.875 Q254.4219,1756.6563 254.6094,1756.5469 Q254.7969,1756.4375 255.0156,1756.4375 Q255.3906,1756.4375 255.625,1756.7031 Q255.8594,1756.9531 255.8594,1757.5625 L255.8594,1759.0156 Q255.8594,1759.625 255.625,1759.8906 Q255.3906,1760.1563 255.0156,1760.1563 Q254.6719,1760.1563 254.4688,1759.9531 Q254.2656,1759.7656 254.1563,1759.25 Q254.1094,1758.8906 253.9219,1758.7031 Q253.5938,1758.3281 252.9844,1758.1094 Q252.375,1757.8906 251.75,1757.8906 Q250.9844,1757.8906 250.3438,1758.2188 Q249.7188,1758.5469 249.2188,1759.2969 Q248.7344,1760.0469 248.7344,1761.0781 L248.7344,1762.1719 Q248.7344,1763.4063 249.625,1764.2344 Q250.5156,1765.0469 252.1094,1765.0469 Q253.0469,1765.0469 253.7031,1764.7969 Q254.0938,1764.6406 254.5156,1764.2031 Q254.7813,1763.9375 254.9219,1763.8594 Q255.0781,1763.7813 255.2813,1763.7813 Q255.6094,1763.7813 255.8594,1764.0469 Q256.125,1764.2969 256.125,1764.6406 Q256.125,1764.9844 255.7813,1765.3906 Q255.2813,1765.9688 254.4844,1766.2969 Q253.4063,1766.75 252.1094,1766.75 Q250.5938,1766.75 249.3906,1766.125 Q248.4063,1765.625 247.7188,1764.5625 Q247.0313,1763.4844 247.0313,1762.2031 L247.0313,1761.0469 Q247.0313,1759.7188 247.6406,1758.5781 Q248.2656,1757.4219 249.3594,1756.8125 Q250.4531,1756.1875 251.6875,1756.1875 Q252.4219,1756.1875 253.0625,1756.3594 Q253.7188,1756.5156 254.2656,1756.875 Z " fill="#000000"/><text fill="#000000" font-family="sans-serif" font-size="14" lengthAdjust="spacing" textLength="38" x="265.5" y="1766.7285">Media</text><line style="stroke:#181818;stroke-width:0.5;" x1="237.5" x2="305.5" y1="1777" y2="1777"/><line style="stroke:#181818;stroke-width:0.5;" x1="237.5" x2="305.5" y1="1785" y2="1785"/></g><!--class Relation--><g id="elem_Relation"><rect codeLine="186" fill="#F1F1F1" height="65.6094" id="Relation" rx="2.5" ry="2.5" style="stroke:#181818;stroke-width:0.5;" width="149" x="506" y="1557"/><ellipse cx="550.25" cy="1573" fill="#ADD1B2" rx="11" ry="11" style="stroke:#181818;stroke-width:1.0;"/><path d="M553.0156,1568.875 Q553.1719,1568.6563 553.3594,1568.5469 Q553.5469,1568.4375 553.7656,1568.4375 Q554.1406,1568.4375 554.375,1568.7031 Q554.6094,1568.9531 554.6094,1569.5625 L554.6094,1571.0156 Q554.6094,1571.625 554.375,1571.8906 Q554.1406,1572.1563 553.7656,1572.1563 Q553.4219,1572.1563 553.2188,1571.9531 Q553.0156,1571.7656 552.9063,1571.25 Q552.8594,1570.8906 552.6719,1570.7031 Q552.3438,1570.3281 551.7344,1570.1094 Q551.125,1569.8906 550.5,1569.8906 Q549.7344,1569.8906 549.0938,1570.2188 Q548.4688,1570.5469 547.9688,1571.2969 Q547.4844,1572.0469 547.4844,1573.0781 L547.4844,1574.1719 Q547.4844,1575.4063 548.375,1576.2344 Q549.2656,1577.0469 550.8594,1577.0469 Q551.7969,1577.0469 552.4531,1576.7969 Q552.8438,1576.6406 553.2656,1576.2031 Q553.5313,1575.9375 553.6719,1575.8594 Q553.8281,1575.7813 554.0313,1575.7813 Q554.3594,1575.7813 554.6094,1576.0469 Q554.875,1576.2969 554.875,1576.6406 Q554.875,1576.9844 554.5313,1577.3906 Q554.0313,1577.9688 553.2344,1578.2969 Q552.1563,1578.75 550.8594,1578.75 Q549.3438,1578.75 548.1406,1578.125 Q547.1563,1577.625 546.4688,1576.5625 Q545.7813,1575.4844 545.7813,1574.2031 L545.7813,1573.0469 Q545.7813,1571.7188 546.3906,1570.5781 Q547.0156,1569.4219 548.1094,1568.8125 Q549.2031,1568.1875 550.4375,1568.1875 Q551.1719,1568.1875 551.8125,1568.3594 Q552.4688,1568.5156 553.0156,1568.875 Z " fill="#000000"/><text fill="#000000" font-family="sans-serif" font-size="14" lengthAdjust="spacing" textLength="52" x="570.75" y="1578.7285">Relation</text><line style="stroke:#181818;stroke-width:0.5;" x1="507" x2="654" y1="1589" y2="1589"/><rect fill="none" height="6" style="stroke:#C82930;stroke-width:1.0;" width="6" x="514" y="1600.3047"/><text fill="#000000" font-family="sans-serif" font-size="14" lengthAdjust="spacing" textLength="123" x="526" y="1607.5332">type : RelationType</text><line style="stroke:#181818;stroke-width:0.5;" x1="507" x2="654" y1="1614.6094" y2="1614.6094"/></g><!--class RelationType--><g id="elem_RelationType"><rect codeLine="197" fill="#F1F1F1" height="136.0469" id="RelationType" rx="2.5" ry="2.5" style="stroke:#181818;stroke-width:0.5;" width="116" x="354.5" y="1522"/><ellipse cx="369.5" cy="1538" fill="#EB937F" rx="11" ry="11" style="stroke:#181818;stroke-width:1.0;"/><path d="M368.3594,1538.7969 L368.3594,1541.2969 L372.6875,1541.2969 L372.6875,1540.375 Q372.6875,1539.7656 372.9219,1539.5 Q373.1719,1539.2344 373.5469,1539.2344 Q373.9219,1539.2344 374.1563,1539.5 Q374.3906,1539.7656 374.3906,1540.375 L374.3906,1543 L366.3906,1543 Q365.7656,1543 365.5,1542.7656 Q365.25,1542.5313 365.25,1542.1406 Q365.25,1541.7656 365.5156,1541.5313 Q365.7813,1541.2969 366.3906,1541.2969 L366.6563,1541.2969 L366.6563,1534.6406 L366.3906,1534.6406 Q365.7656,1534.6406 365.5,1534.4063 Q365.25,1534.1719 365.25,1533.7813 Q365.25,1533.4063 365.5,1533.1719 Q365.7656,1532.9375 366.3906,1532.9375 L374.0156,1532.9375 L374.0156,1535.5313 Q374.0156,1536.1406 373.7813,1536.4063 Q373.5625,1536.6563 373.1719,1536.6563 Q372.7969,1536.6563 372.5625,1536.4063 Q372.3281,1536.1406 372.3281,1535.5313 L372.3281,1534.6406 L368.3594,1534.6406 L368.3594,1537.0938 L369.8438,1537.0938 Q369.8438,1536.4375 369.9688,1536.25 Q370.2344,1535.8438 370.7031,1535.8438 Q371.0781,1535.8438 371.3125,1536.1094 Q371.5469,1536.3594 371.5469,1536.9688 L371.5469,1538.9375 Q371.5469,1539.4844 371.4219,1539.6719 Q371.1563,1540.0625 370.7031,1540.0625 Q370.2344,1540.0625 369.9688,1539.6563 Q369.8438,1539.4688 369.8438,1538.7969 L368.3594,1538.7969 Z " fill="#000000"/><text fill="#000000" font-family="sans-serif" font-size="14" lengthAdjust="spacing" textLength="84" x="383.5" y="1543.7285">RelationType</text><line style="stroke:#181818;stroke-width:0.5;" x1="355.5" x2="469.5" y1="1554" y2="1554"/><text fill="#000000" font-family="sans-serif" font-size="14" lengthAdjust="spacing" textLength="24" x="360.5" y="1572.5332">Use</text><text fill="#000000" font-family="sans-serif" font-size="14" lengthAdjust="spacing" textLength="72" x="360.5" y="1590.1426">Association</text><text fill="#000000" font-family="sans-serif" font-size="14" lengthAdjust="spacing" textLength="78" x="360.5" y="1607.752">Composition</text><text fill="#000000" font-family="sans-serif" font-size="14" lengthAdjust="spacing" textLength="70" x="360.5" y="1625.3613">Inheritance</text><text fill="#000000" font-family="sans-serif" font-size="14" lengthAdjust="spacing" textLength="77" x="360.5" y="1642.9707">Aggregation</text><line style="stroke:#181818;stroke-width:0.5;" x1="355.5" x2="469.5" y1="1650.0469" y2="1650.0469"/></g><!--class Audio--><g id="elem_Audio"><rect fill="#F1F1F1" height="48" id="Audio" rx="2.5" ry="2.5" style="stroke:#181818;stroke-width:0.5;" width="68" x="173.5" y="1863"/><ellipse cx="188.5" cy="1879" fill="#ADD1B2" rx="11" ry="11" style="stroke:#181818;stroke-width:1.0;"/><path d="M191.2656,1874.875 Q191.4219,1874.6563 191.6094,1874.5469 Q191.7969,1874.4375 192.0156,1874.4375 Q192.3906,1874.4375 192.625,1874.7031 Q192.8594,1874.9531 192.8594,1875.5625 L192.8594,1877.0156 Q192.8594,1877.625 192.625,1877.8906 Q192.3906,1878.1563 192.0156,1878.1563 Q191.6719,1878.1563 191.4688,1877.9531 Q191.2656,1877.7656 191.1563,1877.25 Q191.1094,1876.8906 190.9219,1876.7031 Q190.5938,1876.3281 189.9844,1876.1094 Q189.375,1875.8906 188.75,1875.8906 Q187.9844,1875.8906 187.3438,1876.2188 Q186.7188,1876.5469 186.2188,1877.2969 Q185.7344,1878.0469 185.7344,1879.0781 L185.7344,1880.1719 Q185.7344,1881.4063 186.625,1882.2344 Q187.5156,1883.0469 189.1094,1883.0469 Q190.0469,1883.0469 190.7031,1882.7969 Q191.0938,1882.6406 191.5156,1882.2031 Q191.7813,1881.9375 191.9219,1881.8594 Q192.0781,1881.7813 192.2813,1881.7813 Q192.6094,1881.7813 192.8594,1882.0469 Q193.125,1882.2969 193.125,1882.6406 Q193.125,1882.9844 192.7813,1883.3906 Q192.2813,1883.9688 191.4844,1884.2969 Q190.4063,1884.75 189.1094,1884.75 Q187.5938,1884.75 186.3906,1884.125 Q185.4063,1883.625 184.7188,1882.5625 Q184.0313,1881.4844 184.0313,1880.2031 L184.0313,1879.0469 Q184.0313,1877.7188 184.6406,1876.5781 Q185.2656,1875.4219 186.3594,1874.8125 Q187.4531,1874.1875 188.6875,1874.1875 Q189.4219,1874.1875 190.0625,1874.3594 Q190.7188,1874.5156 191.2656,1874.875 Z " fill="#000000"/><text fill="#000000" font-family="sans-serif" font-size="14" lengthAdjust="spacing" textLength="36" x="202.5" y="1884.7285">Audio</text><line style="stroke:#181818;stroke-width:0.5;" x1="174.5" x2="240.5" y1="1895" y2="1895"/><line style="stroke:#181818;stroke-width:0.5;" x1="174.5" x2="240.5" y1="1903" y2="1903"/></g><!--class Video--><g id="elem_Video"><rect fill="#F1F1F1" height="48" id="Video" rx="2.5" ry="2.5" style="stroke:#181818;stroke-width:0.5;" width="68" x="276.5" y="1863"/><ellipse cx="291.5" cy="1879" fill="#ADD1B2" rx="11" ry="11" style="stroke:#181818;stroke-width:1.0;"/><path d="M294.2656,1874.875 Q294.4219,1874.6563 294.6094,1874.5469 Q294.7969,1874.4375 295.0156,1874.4375 Q295.3906,1874.4375 295.625,1874.7031 Q295.8594,1874.9531 295.8594,1875.5625 L295.8594,1877.0156 Q295.8594,1877.625 295.625,1877.8906 Q295.3906,1878.1563 295.0156,1878.1563 Q294.6719,1878.1563 294.4688,1877.9531 Q294.2656,1877.7656 294.1563,1877.25 Q294.1094,1876.8906 293.9219,1876.7031 Q293.5938,1876.3281 292.9844,1876.1094 Q292.375,1875.8906 291.75,1875.8906 Q290.9844,1875.8906 290.3438,1876.2188 Q289.7188,1876.5469 289.2188,1877.2969 Q288.7344,1878.0469 288.7344,1879.0781 L288.7344,1880.1719 Q288.7344,1881.4063 289.625,1882.2344 Q290.5156,1883.0469 292.1094,1883.0469 Q293.0469,1883.0469 293.7031,1882.7969 Q294.0938,1882.6406 294.5156,1882.2031 Q294.7813,1881.9375 294.9219,1881.8594 Q295.0781,1881.7813 295.2813,1881.7813 Q295.6094,1881.7813 295.8594,1882.0469 Q296.125,1882.2969 296.125,1882.6406 Q296.125,1882.9844 295.7813,1883.3906 Q295.2813,1883.9688 294.4844,1884.2969 Q293.4063,1884.75 292.1094,1884.75 Q290.5938,1884.75 289.3906,1884.125 Q288.4063,1883.625 287.7188,1882.5625 Q287.0313,1881.4844 287.0313,1880.2031 L287.0313,1879.0469 Q287.0313,1877.7188 287.6406,1876.5781 Q288.2656,1875.4219 289.3594,1874.8125 Q290.4531,1874.1875 291.6875,1874.1875 Q292.4219,1874.1875 293.0625,1874.3594 Q293.7188,1874.5156 294.2656,1874.875 Z " fill="#000000"/><text fill="#000000" font-family="sans-serif" font-size="14" lengthAdjust="spacing" textLength="36" x="305.5" y="1884.7285">Video</text><line style="stroke:#181818;stroke-width:0.5;" x1="277.5" x2="343.5" y1="1895" y2="1895"/><line style="stroke:#181818;stroke-width:0.5;" x1="277.5" x2="343.5" y1="1903" y2="1903"/></g><!--class Image--><g id="elem_Image"><rect fill="#F1F1F1" height="48" id="Image" rx="2.5" ry="2.5" style="stroke:#181818;stroke-width:0.5;" width="70" x="379.5" y="1863"/><ellipse cx="394.5" cy="1879" fill="#ADD1B2" rx="11" ry="11" style="stroke:#181818;stroke-width:1.0;"/><path d="M397.2656,1874.875 Q397.4219,1874.6563 397.6094,1874.5469 Q397.7969,1874.4375 398.0156,1874.4375 Q398.3906,1874.4375 398.625,1874.7031 Q398.8594,1874.9531 398.8594,1875.5625 L398.8594,1877.0156 Q398.8594,1877.625 398.625,1877.8906 Q398.3906,1878.1563 398.0156,1878.1563 Q397.6719,1878.1563 397.4688,1877.9531 Q397.2656,1877.7656 397.1563,1877.25 Q397.1094,1876.8906 396.9219,1876.7031 Q396.5938,1876.3281 395.9844,1876.1094 Q395.375,1875.8906 394.75,1875.8906 Q393.9844,1875.8906 393.3438,1876.2188 Q392.7188,1876.5469 392.2188,1877.2969 Q391.7344,1878.0469 391.7344,1879.0781 L391.7344,1880.1719 Q391.7344,1881.4063 392.625,1882.2344 Q393.5156,1883.0469 395.1094,1883.0469 Q396.0469,1883.0469 396.7031,1882.7969 Q397.0938,1882.6406 397.5156,1882.2031 Q397.7813,1881.9375 397.9219,1881.8594 Q398.0781,1881.7813 398.2813,1881.7813 Q398.6094,1881.7813 398.8594,1882.0469 Q399.125,1882.2969 399.125,1882.6406 Q399.125,1882.9844 398.7813,1883.3906 Q398.2813,1883.9688 397.4844,1884.2969 Q396.4063,1884.75 395.1094,1884.75 Q393.5938,1884.75 392.3906,1884.125 Q391.4063,1883.625 390.7188,1882.5625 Q390.0313,1881.4844 390.0313,1880.2031 L390.0313,1879.0469 Q390.0313,1877.7188 390.6406,1876.5781 Q391.2656,1875.4219 392.3594,1874.8125 Q393.4531,1874.1875 394.6875,1874.1875 Q395.4219,1874.1875 396.0625,1874.3594 Q396.7188,1874.5156 397.2656,1874.875 Z " fill="#000000"/><text fill="#000000" font-family="sans-serif" font-size="14" lengthAdjust="spacing" textLength="38" x="408.5" y="1884.7285">Image</text><line style="stroke:#181818;stroke-width:0.5;" x1="380.5" x2="448.5" y1="1895" y2="1895"/><line style="stroke:#181818;stroke-width:0.5;" x1="380.5" x2="448.5" y1="1903" y2="1903"/></g><!--class Text--><g id="elem_Text"><rect fill="#F1F1F1" height="48" id="Text" rx="2.5" ry="2.5" style="stroke:#181818;stroke-width:0.5;" width="59" x="7" y="1863"/><ellipse cx="22" cy="1879" fill="#ADD1B2" rx="11" ry="11" style="stroke:#181818;stroke-width:1.0;"/><path d="M24.7656,1874.875 Q24.9219,1874.6563 25.1094,1874.5469 Q25.2969,1874.4375 25.5156,1874.4375 Q25.8906,1874.4375 26.125,1874.7031 Q26.3594,1874.9531 26.3594,1875.5625 L26.3594,1877.0156 Q26.3594,1877.625 26.125,1877.8906 Q25.8906,1878.1563 25.5156,1878.1563 Q25.1719,1878.1563 24.9688,1877.9531 Q24.7656,1877.7656 24.6563,1877.25 Q24.6094,1876.8906 24.4219,1876.7031 Q24.0938,1876.3281 23.4844,1876.1094 Q22.875,1875.8906 22.25,1875.8906 Q21.4844,1875.8906 20.8438,1876.2188 Q20.2188,1876.5469 19.7188,1877.2969 Q19.2344,1878.0469 19.2344,1879.0781 L19.2344,1880.1719 Q19.2344,1881.4063 20.125,1882.2344 Q21.0156,1883.0469 22.6094,1883.0469 Q23.5469,1883.0469 24.2031,1882.7969 Q24.5938,1882.6406 25.0156,1882.2031 Q25.2813,1881.9375 25.4219,1881.8594 Q25.5781,1881.7813 25.7813,1881.7813 Q26.1094,1881.7813 26.3594,1882.0469 Q26.625,1882.2969 26.625,1882.6406 Q26.625,1882.9844 26.2813,1883.3906 Q25.7813,1883.9688 24.9844,1884.2969 Q23.9063,1884.75 22.6094,1884.75 Q21.0938,1884.75 19.8906,1884.125 Q18.9063,1883.625 18.2188,1882.5625 Q17.5313,1881.4844 17.5313,1880.2031 L17.5313,1879.0469 Q17.5313,1877.7188 18.1406,1876.5781 Q18.7656,1875.4219 19.8594,1874.8125 Q20.9531,1874.1875 22.1875,1874.1875 Q22.9219,1874.1875 23.5625,1874.3594 Q24.2188,1874.5156 24.7656,1874.875 Z " fill="#000000"/><text fill="#000000" font-family="sans-serif" font-size="14" lengthAdjust="spacing" textLength="27" x="36" y="1884.7285">Text</text><line style="stroke:#181818;stroke-width:0.5;" x1="8" x2="65" y1="1895" y2="1895"/><line style="stroke:#181818;stroke-width:0.5;" x1="8" x2="65" y1="1903" y2="1903"/></g><!--link EducationPlatform to Teacher--><g id="link_EducationPlatform_Teacher"><path codeLine="2" d="M651.6232,61.0461 C665.0332,68.6961 667.47,72.59 676.5,85 C770.69,214.49 651.21,308.15 743.5,439 C751.86,450.85 758.2665,457.4286 770.4965,465.6286 " fill="none" id="EducationPlatform-Teacher" style="stroke:#181818;stroke-width:1.0;"/><polygon fill="#181818" points="641.2,55.1,644.4296,61.5475,651.6232,61.0461,648.3937,54.5987,641.2,55.1" style="stroke:#181818;stroke-width:1.0;"/><polygon fill="#181818" points="775.48,468.97,770.2323,460.6356,771.3271,466.1855,765.7772,467.2803,775.48,468.97" style="stroke:#181818;stroke-width:1.0;"/><text fill="#000000" font-family="sans-serif" font-size="13" lengthAdjust="spacing" textLength="8" x="751.6989" y="460.7181">+</text></g><!--link EducationPlatform to Student--><g id="link_EducationPlatform_Student"><path codeLine="3" d="M560.9709,65.8461 C556.3109,74.9261 556.87,74.89 553.5,85 C530.8,153.07 519.997,231.6872 515.507,271.8272 " fill="none" id="EducationPlatform-Student" style="stroke:#181818;stroke-width:1.0;"/><polygon fill="#181818" points="566.45,55.17,560.1517,58.6817,560.9709,65.8461,567.2691,62.3344,566.45,55.17" style="stroke:#181818;stroke-width:1.0;"/><polygon fill="#181818" points="514.84,277.79,519.8157,269.2904,515.3958,272.821,511.8653,268.4011,514.84,277.79" style="stroke:#181818;stroke-width:1.0;"/><text fill="#000000" font-family="sans-serif" font-size="13" lengthAdjust="spacing" textLength="8" x="506.4146" y="267.0763">+</text></g><!--link EducationPlatform to Topic--><g id="link_EducationPlatform_Topic"><path codeLine="4" d="M493.866,35.7702 C407.356,43.3702 287.5,69.62 287.5,165.5 C287.5,165.5 287.5,165.5 287.5,655.5 C287.5,712.39 333.6256,747.592 385.4256,771.082 " fill="none" id="EducationPlatform-Topic" style="stroke:#181818;stroke-width:1.0;"/><polygon fill="#181818" points="505.82,34.72,499.493,31.2604,493.866,35.7702,500.1931,39.2297,505.82,34.72" style="stroke:#181818;stroke-width:1.0;"/><polygon fill="#181818" points="390.89,773.56,384.3454,766.2001,386.3363,771.495,381.0414,773.486,390.89,773.56" style="stroke:#181818;stroke-width:1.0;"/></g><!--link EducationPlatform to Itinerary--><g id="link_EducationPlatform_Itinerary"><path codeLine="5" d="M494.3719,51.8406 C435.9419,69.6606 375.5,101.16 375.5,165.5 C375.5,165.5 375.5,165.5 375.5,503 C375.5,547.11 402.8863,581.797 433.7963,608.867 " fill="none" id="EducationPlatform-Itinerary" style="stroke:#181818;stroke-width:1.0;"/><polygon fill="#181818" points="505.85,48.34,498.9441,46.2643,494.3719,51.8406,501.2778,53.9163,505.85,48.34" style="stroke:#181818;stroke-width:1.0;"/><polygon fill="#181818" points="438.31,612.82,434.1747,603.8814,434.5485,609.5258,428.9041,609.8997,438.31,612.82" style="stroke:#181818;stroke-width:1.0;"/><text fill="#000000" font-family="sans-serif" font-size="13" lengthAdjust="spacing" textLength="59" x="376.5" y="307.4951">predefined</text></g><!--link EducationPlatform to Itinerary--><g id="link_EducationPlatform_Itinerary"><path codeLine="6" d="M622.415,63.7355 C630.805,72.1855 628.86,74.11 628.5,86 C622.5,285.83 678.41,350.47 601.5,535 C589.07,564.81 570.1781,587.9439 548.6381,608.8239 " fill="none" id="EducationPlatform-Itinerary-1" style="stroke:#181818;stroke-width:1.0;"/><polygon fill="none" points="613.96,55.22,615.349,62.2961,622.415,63.7355,621.026,56.6594,613.96,55.22" style="stroke:#181818;stroke-width:1.0;"/><polygon fill="#181818" points="544.33,613,553.5763,609.6079,547.9201,609.5199,548.0081,603.8637,544.33,613" style="stroke:#181818;stroke-width:1.0;"/><text fill="#000000" font-family="sans-serif" font-size="13" lengthAdjust="spacing" textLength="43" x="642.5" y="307.4951">custom</text><text fill="#000000" font-family="sans-serif" font-size="13" lengthAdjust="spacing" textLength="5" x="547.293" y="601.9987">*</text></g><!--link EducationPlatform to Chat--><g id="link_EducationPlatform_Chat"><path codeLine="7" d="M602.0294,64.9883 C643.3494,125.4683 745.0455,274.3357 797.3955,350.9657 " fill="none" id="EducationPlatform-Chat" style="stroke:#181818;stroke-width:1.0;"/><polygon fill="none" points="595.26,55.08,595.3419,62.2906,602.0294,64.9883,601.9475,57.7777,595.26,55.08" style="stroke:#181818;stroke-width:1.0;"/><polygon fill="#181818" points="800.78,355.92,799.0061,346.2322,797.9596,351.7914,792.4003,350.7449,800.78,355.92" style="stroke:#181818;stroke-width:1.0;"/></g><!--link EducationPlatform to User--><g id="link_EducationPlatform_User"><path codeLine="8" d="M664.8188,53.3996 C694.8388,62.0696 717.85,70.45 747.5,85 C765.11,93.64 778.0891,101.3505 794.4191,112.5305 " fill="none" id="EducationPlatform-User" style="stroke:#181818;stroke-width:1.0;"/><polygon fill="#181818" points="653.29,50.07,657.9445,55.5777,664.8188,53.3996,660.1643,47.8919,653.29,50.07" style="stroke:#181818;stroke-width:1.0;"/><polygon fill="#181818" points="799.37,115.92,794.2034,107.5351,795.2443,113.0954,789.684,114.1363,799.37,115.92" style="stroke:#181818;stroke-width:1.0;"/><text fill="#000000" font-family="sans-serif" font-size="13" lengthAdjust="spacing" textLength="5" x="785.0002" y="105.2141">*</text></g><!--link Chat to Topic--><g id="link_Chat_Topic"><path codeLine="17" d="M779.26,439.38 C769.74,448.56 760.31,458.66 752.5,469 C718.24,514.37 726.55,536.05 694.5,583 C650.41,647.58 593.5965,709.2013 550.7865,752.5413 " fill="none" id="Chat-to-Topic" style="stroke:#181818;stroke-width:1.0;stroke-dasharray:7.0,7.0;"/><polygon fill="#181818" points="546.57,756.81,555.7405,753.218,550.0837,753.2528,550.0489,747.596,546.57,756.81" style="stroke:#181818;stroke-width:1.0;"/></g><!--link Chat to Application--><g id="link_Chat_Application"><path codeLine="18" d="M908.01,434.78 C922.65,444.26 936.7,455.65 947.5,469 C978.18,506.91 982.5,524.23 982.5,573 C982.5,573 982.5,573 982.5,1162.5 C982.5,1216.94 967.254,1272.0137 953.894,1311.0237 " fill="none" id="Chat-to-Application" style="stroke:#181818;stroke-width:1.0;stroke-dasharray:7.0,7.0;"/><polygon fill="#181818" points="951.95,1316.7,958.6502,1309.4815,953.57,1311.9697,951.0818,1306.8895,951.95,1316.7" style="stroke:#181818;stroke-width:1.0;"/></g><!--link Itinerary to Topic--><g id="link_Itinerary_Topic"><path codeLine="28" d="M495.5,708.36 C495.5,727.05 495.5,731.36 495.5,751 " fill="none" id="Itinerary-Topic" style="stroke:#181818;stroke-width:1.0;"/><polygon fill="none" points="495.5,696.36,491.5,702.36,495.5,708.36,499.5,702.36,495.5,696.36" style="stroke:#181818;stroke-width:1.0;"/><polygon fill="#181818" points="495.5,757,499.5,748,495.5,752,491.5,748,495.5,757" style="stroke:#181818;stroke-width:1.0;"/><text fill="#000000" font-family="sans-serif" font-size="13" lengthAdjust="spacing" textLength="8" x="486.9375" y="746.3054">+</text></g><!--link Application to Justification--><g id="link_Application_Justification"><path codeLine="40" d="M939.31,1400.11 C942.35,1466.86 941.8,1602.65 897.5,1706 C892.96,1716.59 889.8091,1722.1225 882.4391,1731.0525 " fill="none" id="Application-to-Justification" style="stroke:#181818;stroke-width:1.0;"/><polygon fill="#181818" points="878.62,1735.68,887.4337,1731.2848,881.8026,1731.8237,881.2637,1726.1926,878.62,1735.68" style="stroke:#181818;stroke-width:1.0;"/><text fill="#000000" font-family="sans-serif" font-size="13" lengthAdjust="spacing" textLength="117" x="938.5" y="1595.4951">[!application.correct]</text><text fill="#000000" font-family="sans-serif" font-size="13" lengthAdjust="spacing" textLength="7" x="877.4514" y="1725.1133">?</text></g><!--link Definition to Justification--><g id="link_Definition_Justification"><path codeLine="49" d="M767.3843,1635.0616 C768.7143,1659.0516 772.44,1680.06 785.5,1706 C790.96,1716.84 794.8443,1722.6635 803.2443,1731.5335 " fill="none" id="Definition-Justification" style="stroke:#181818;stroke-width:1.0;"/><polygon fill="#181818" points="766.72,1623.08,763.0583,1629.2922,767.3843,1635.0616,771.046,1628.8494,766.72,1623.08" style="stroke:#181818;stroke-width:1.0;"/><polygon fill="#181818" points="807.37,1735.89,804.0859,1726.6048,803.932,1732.2596,798.2772,1732.1057,807.37,1735.89" style="stroke:#181818;stroke-width:1.0;"/><text fill="#000000" font-family="sans-serif" font-size="13" lengthAdjust="spacing" textLength="106" x="786.5" y="1702.4951">[!definition.correct]</text><text fill="#000000" font-family="sans-serif" font-size="13" lengthAdjust="spacing" textLength="7" x="791.7838" y="1724.9827">?</text></g><!--link Domain to Concept--><g id="link_Domain_Concept"><path codeLine="68" d="M695.0313,1221.0741 C662.5913,1256.6241 632.0059,1290.1294 603.9259,1320.8794 " fill="none" id="Domain-Concept" style="stroke:#181818;stroke-width:1.0;"/><polygon fill="none" points="703.12,1212.21,696.1209,1213.9458,695.0313,1221.0741,702.0304,1219.3383,703.12,1212.21" style="stroke:#181818;stroke-width:1.0;"/><polygon fill="#181818" points="599.88,1325.31,608.9026,1321.3613,603.2516,1321.6178,602.9951,1315.9668,599.88,1325.31" style="stroke:#181818;stroke-width:1.0;"/><text fill="#000000" font-family="sans-serif" font-size="13" lengthAdjust="spacing" textLength="8" x="596.8767" y="1314.7689">+</text></g><!--link Domain to Application--><g id="link_Domain_Application"><path codeLine="69" d="M804.7578,1220.8499 C835.9778,1253.2399 863.7154,1282.0107 893.0454,1312.4307 " fill="none" id="Domain-Application" style="stroke:#181818;stroke-width:1.0;"/><polygon fill="none" points="796.43,1212.21,797.7139,1219.3059,804.7578,1220.8499,803.4739,1213.754,796.43,1212.21" style="stroke:#181818;stroke-width:1.0;"/><polygon fill="#181818" points="897.21,1316.75,893.8427,1307.4947,893.7395,1313.1506,888.0836,1313.0474,897.21,1316.75" style="stroke:#181818;stroke-width:1.0;"/><text fill="#000000" font-family="sans-serif" font-size="13" lengthAdjust="spacing" textLength="5" x="885.2885" y="1306.0163">*</text></g><!--link Domain to StatementType--><g id="link_Domain_StatementType"><path codeLine="70" d="M753.2438,1224.1744 C754.6638,1242.5644 754.932,1246.0275 756.512,1266.6675 " fill="none" id="Domain-StatementType" style="stroke:#181818;stroke-width:1.0;"/><polygon fill="#181818" points="752.32,1212.21,748.7938,1218.5001,753.2438,1224.1744,756.77,1217.8842,752.32,1212.21" style="stroke:#181818;stroke-width:1.0;"/><polygon fill="#181818" points="756.97,1272.65,760.2714,1263.3709,756.5884,1267.6646,752.2947,1263.9816,756.97,1272.65" style="stroke:#181818;stroke-width:1.0;"/></g><!--reverse link User to Teacher--><g id="link_User_Teacher"><path codeLine="95" d="M895.9731,233.5907 C920.6931,289.4607 943.27,365.56 912.5,439 C907.88,450.04 900.22,460.11 891.81,468.77 " fill="none" id="User-backto-Teacher" style="stroke:#181818;stroke-width:1.0;"/><polygon fill="none" points="888.69,217.13,890.4862,236.0184,901.4601,231.163,888.69,217.13" style="stroke:#181818;stroke-width:1.0;"/></g><!--reverse link User to Student--><g id="link_User_Student"><path codeLine="96" d="M778.5856,199.7983 C706.6156,227.1683 612.31,263.04 553.03,285.59 " fill="none" id="User-backto-Student" style="stroke:#181818;stroke-width:1.0;"/><polygon fill="none" points="795.41,193.4,776.4528,194.1901,780.7183,205.4064,795.41,193.4" style="stroke:#181818;stroke-width:1.0;"/></g><!--link User to Application--><g id="link_User_Application"><path codeLine="97" d="M942.9083,189.0707 C997.4283,207.8107 1053.5,239.52 1053.5,301 C1053.5,301 1053.5,301 1053.5,1162.5 C1053.5,1222.51 1016.2891,1275.5631 982.7791,1312.3731 " fill="none" id="User-Application" style="stroke:#181818;stroke-width:1.0;"/><polygon fill="#181818" points="931.56,185.17,935.9339,190.9031,942.9083,189.0707,938.5344,183.3376,931.56,185.17" style="stroke:#181818;stroke-width:1.0;"/><polygon fill="#181818" points="978.74,1316.81,987.7565,1312.8474,982.1059,1313.1126,981.8407,1307.462,978.74,1316.81" style="stroke:#181818;stroke-width:1.0;"/></g><!--link User to Chat--><g id="link_User_Chat"><path codeLine="98" d="M855.91,217.19 C849.57,258.63 841.5664,311.0189 835.6464,349.7589 " fill="none" id="User-to-Chat" style="stroke:#181818;stroke-width:1.0;stroke-dasharray:7.0,7.0;"/><polygon fill="#181818" points="834.74,355.69,840.0536,347.3975,835.4953,350.7474,832.1454,346.189,834.74,355.69" style="stroke:#181818;stroke-width:1.0;"/></g><!--link Teacher to Application--><g id="link_Teacher_Application"><path codeLine="106" d="M871.36,535.2 C889.21,564.65 911.5,610.12 911.5,653.5 C911.5,653.5 911.5,653.5 911.5,1162.5 C911.5,1216.26 919.8671,1271.7804 927.1471,1311.0804 " fill="none" id="Teacher-to-Application" style="stroke:#181818;stroke-width:1.0;stroke-dasharray:7.0,7.0;"/><polygon fill="#181818" points="928.24,1316.98,930.5338,1307.402,927.3293,1312.0636,922.6676,1308.8591,928.24,1316.98" style="stroke:#181818;stroke-width:1.0;"/></g><!--link Teacher to Topic--><g id="link_Teacher_Topic"><path codeLine="107" d="M842.65,535.39 C830.72,583.94 801.56,675.38 742.5,727 C702.9,761.61 653.8966,779.8417 605.9366,790.9017 " fill="none" id="Teacher-to-Topic" style="stroke:#181818;stroke-width:1.0;stroke-dasharray:7.0,7.0;"/><polygon fill="#181818" points="600.09,792.25,609.7587,794.1253,604.9621,791.1264,607.961,786.3299,600.09,792.25" style="stroke:#181818;stroke-width:1.0;"/><text fill="#000000" font-family="sans-serif" font-size="13" lengthAdjust="spacing" textLength="32" x="817.5" y="659.9951">editor</text></g><!--link Teacher to Itinerary--><g id="link_Teacher_Itinerary"><path codeLine="108" d="M773.99,535.1 C713.68,560.74 635.1516,594.1223 575.2016,619.6123 " fill="none" id="Teacher-to-Itinerary" style="stroke:#181818;stroke-width:1.0;stroke-dasharray:7.0,7.0;"/><polygon fill="#181818" points="569.68,621.96,579.5276,622.1195,574.2813,620.0036,576.3973,614.7573,569.68,621.96" style="stroke:#181818;stroke-width:1.0;"/><text fill="#000000" font-family="sans-serif" font-size="13" lengthAdjust="spacing" textLength="32" x="694.5" y="579.4951">editor</text></g><!--link Student to Itinerary--><g id="link_Student_Itinerary"><path codeLine="116" d="M508.43,326.27 C503.06,358.29 493.88,417.8 490.5,469 C488.57,498.27 489.88,505.67 490.5,535 C491.05,560.94 491.9845,584.0568 493.0745,606.9368 " fill="none" id="Student-to-Itinerary" style="stroke:#181818;stroke-width:1.0;stroke-dasharray:7.0,7.0;"/><polygon fill="#181818" points="493.36,612.93,496.9272,603.7499,493.1221,607.9357,488.9363,604.1305,493.36,612.93" style="stroke:#181818;stroke-width:1.0;"/><text fill="#000000" font-family="sans-serif" font-size="13" lengthAdjust="spacing" textLength="32" x="526" y="499.4951">editor</text><text fill="#000000" font-family="sans-serif" font-size="13" lengthAdjust="spacing" textLength="101" x="495.5" y="515.8467">[itinerary.custom]</text></g><!--link Excercise to Domain--><g id="link_Excercise_Domain"><path codeLine="131" d="M650.0341,995.7218 C670.1241,1029.3518 692.5616,1066.8999 715.8016,1105.7799 " fill="none" id="Excercise-Domain" style="stroke:#181818;stroke-width:1.0;"/><polygon fill="#181818" points="643.88,985.42,643.5231,992.6223,650.0341,995.7218,650.391,988.5195,643.88,985.42" style="stroke:#181818;stroke-width:1.0;"/><polygon fill="#181818" points="718.88,1110.93,717.6958,1101.1526,716.3147,1106.6383,710.829,1105.2571,718.88,1110.93" style="stroke:#181818;stroke-width:1.0;"/></g><!--link Topic to Document--><g id="link_Topic_Document"><path codeLine="142" d="M379.3879,836.8661 C321.0979,857.3361 271.5,889.47 271.5,951 C271.5,951 271.5,951 271.5,1359.5 C271.5,1435 271.5,1518.48 271.5,1559.87 " fill="none" id="Topic-Document" style="stroke:#181818;stroke-width:1.0;"/><polygon fill="#181818" points="390.71,832.89,383.7236,831.104,379.3879,836.8661,386.3743,838.6521,390.71,832.89" style="stroke:#181818;stroke-width:1.0;"/><polygon fill="#181818" points="271.5,1565.87,275.5,1556.87,271.5,1560.87,267.5,1556.87,271.5,1565.87" style="stroke:#181818;stroke-width:1.0;"/><text fill="#000000" font-family="sans-serif" font-size="13" lengthAdjust="spacing" textLength="5" x="265.8594" y="1555.1768">*</text></g><!--reverse link Topic to CompositeTopic--><g id="link_Topic_CompositeTopic"><path codeLine="143" d="M438.7246,872.8693 C424.0546,892.9293 419.77,900.97 409.55,918.8 " fill="none" id="Topic-backto-CompositeTopic" style="stroke:#181818;stroke-width:1.0;"/><polygon fill="none" points="449.35,858.34,433.8815,869.3275,443.5677,876.4111,449.35,858.34" style="stroke:#181818;stroke-width:1.0;"/></g><!--link CompositeTopic to Topic--><g id="link_CompositeTopic_Topic"><path codeLine="162" d="M439.3893,909.408 C453.5693,891.578 458.7404,883.482 471.3304,863.422 " fill="none" id="CompositeTopic-Topic" style="stroke:#181818;stroke-width:1.0;"/><polygon fill="none" points="431.92,918.8,438.7853,916.5938,439.3893,909.408,432.524,911.6142,431.92,918.8" style="stroke:#181818;stroke-width:1.0;"/><polygon fill="#181818" points="474.52,858.34,466.3477,863.8366,471.862,862.575,473.1237,868.0894,474.52,858.34" style="stroke:#181818;stroke-width:1.0;"/><text fill="#000000" font-family="sans-serif" font-size="13" lengthAdjust="spacing" textLength="8" x="463.3194" y="879.4075">+</text></g><!--reverse link Topic to SimpleTopic--><g id="link_Topic_SimpleTopic"><path codeLine="144" d="M498.445,876.355 C499.285,911.925 498.08,942.76 490.5,985 C488.71,994.96 485.63,1005.48 482.37,1014.98 " fill="none" id="Topic-backto-SimpleTopic" style="stroke:#181818;stroke-width:1.0;"/><polygon fill="none" points="498.02,858.36,492.4466,876.4966,504.4433,876.2133,498.02,858.36" style="stroke:#181818;stroke-width:1.0;"/></g><!--link Topic to Excercise--><g id="link_Topic_Excercise"><path codeLine="145" d="M548.6735,867.2361 C566.8335,887.2961 575.1834,896.5218 591.3234,914.3518 " fill="none" id="Topic-Excercise" style="stroke:#181818;stroke-width:1.0;"/><polygon fill="none" points="540.62,858.34,541.6814,865.4726,548.6735,867.2361,547.6121,860.1036,540.62,858.34" style="stroke:#181818;stroke-width:1.0;"/><polygon fill="#181818" points="595.35,918.8,592.2756,909.4433,591.9945,915.0932,586.3446,914.8121,595.35,918.8" style="stroke:#181818;stroke-width:1.0;"/><text fill="#000000" font-family="sans-serif" font-size="13" lengthAdjust="spacing" textLength="5" x="584.1189" y="908.2569">*</text></g><!--link SimpleTopic to Concept--><g id="link_SimpleTopic_Concept"><path codeLine="153" d="M483.7535,1092.5444 C503.1535,1151.8044 538.7536,1260.5177 558.1336,1319.7277 " fill="none" id="SimpleTopic-Concept" style="stroke:#181818;stroke-width:1.0;"/><polygon fill="none" points="480.02,1081.14,478.0853,1088.0867,483.7535,1092.5444,485.6882,1085.5977,480.02,1081.14" style="stroke:#181818;stroke-width:1.0;"/><polygon fill="#181818" points="560,1325.43,561.0019,1315.6322,558.4446,1320.6781,553.3988,1318.1208,560,1325.43" style="stroke:#181818;stroke-width:1.0;"/><text fill="#000000" font-family="sans-serif" font-size="13" lengthAdjust="spacing" textLength="8" x="549.0094" y="1314.531">+</text></g><!--link Document to Media--><g id="link_Document_Media"><path codeLine="168" d="M271.5,1626.14 C271.5,1660.06 271.5,1704.93 271.5,1738.85 " fill="none" id="Document-Media" style="stroke:#181818;stroke-width:1.0;"/><polygon fill="none" points="271.5,1614.14,267.5,1620.14,271.5,1626.14,275.5,1620.14,271.5,1614.14" style="stroke:#181818;stroke-width:1.0;"/><polygon fill="#181818" points="271.5,1744.85,275.5,1735.85,271.5,1739.85,267.5,1735.85,271.5,1744.85" style="stroke:#181818;stroke-width:1.0;"/><text fill="#000000" font-family="sans-serif" font-size="13" lengthAdjust="spacing" textLength="8" x="262.475" y="1734.1517">+</text></g><!--link Concept to Definition--><g id="link_Concept_Definition"><path codeLine="176" d="M604.656,1400.7621 C627.026,1427.7021 652.31,1457.93 681.5,1492 C700.15,1513.76 717.4312,1533.5101 734.0212,1552.3201 " fill="none" id="Concept-Definition" style="stroke:#181818;stroke-width:1.0;"/><polygon fill="#181818" points="596.99,1391.53,597.7456,1398.7014,604.656,1400.7621,603.9004,1393.5907,596.99,1391.53" style="stroke:#181818;stroke-width:1.0;"/><polygon fill="#181818" points="737.99,1556.82,735.0367,1547.4243,734.6827,1553.0701,729.0369,1552.7161,737.99,1556.82" style="stroke:#181818;stroke-width:1.0;"/><text fill="#000000" font-family="sans-serif" font-size="13" lengthAdjust="spacing" textLength="40" x="682.5" y="1488.4951">correct</text><text fill="#000000" font-family="sans-serif" font-size="13" lengthAdjust="spacing" textLength="8" x="723.2848" y="1545.8983">+</text></g><!--link Concept to Definition--><g id="link_Concept_Definition"><path codeLine="177" d="M621.3497,1398.8728 C642.3097,1414.9128 658.76,1427.15 682.5,1444 C702.1,1457.91 712.86,1454.94 727.5,1474 C746.18,1498.33 754.9948,1526.2785 760.1848,1550.9485 " fill="none" id="Concept-Definition-1" style="stroke:#181818;stroke-width:1.0;"/><polygon fill="#181818" points="611.82,1391.58,614.1539,1398.403,621.3497,1398.8728,619.0158,1392.0498,611.82,1391.58" style="stroke:#181818;stroke-width:1.0;"/><polygon fill="#181818" points="761.42,1556.82,763.4815,1547.1893,760.3906,1551.9271,755.6528,1548.8363,761.42,1556.82" style="stroke:#181818;stroke-width:1.0;"/><text fill="#000000" font-family="sans-serif" font-size="13" lengthAdjust="spacing" textLength="50" x="738.5" y="1488.4951">incorrect</text><text fill="#000000" font-family="sans-serif" font-size="13" lengthAdjust="spacing" textLength="5" x="754.8566" y="1545.8983">*</text></g><!--link Concept to Relation--><g id="link_Concept_Relation"><path codeLine="178" d="M590.376,1402.8215 C601.276,1429.3815 608.75,1457.11 604.5,1492 C601.83,1513.87 597.5477,1532.1378 592.2477,1550.8178 " fill="none" id="Concept-Relation" style="stroke:#181818;stroke-width:1.0;"/><polygon fill="#181818" points="585.82,1391.72,584.3975,1398.7894,590.376,1402.8215,591.7985,1395.7521,585.82,1391.72" style="stroke:#181818;stroke-width:1.0;"/><polygon fill="#181818" points="590.61,1556.59,596.9147,1549.0236,591.9748,1551.7799,589.2185,1546.8399,590.61,1556.59" style="stroke:#181818;stroke-width:1.0;"/><text fill="#000000" font-family="sans-serif" font-size="13" lengthAdjust="spacing" textLength="5" x="587.0607" y="1546.2621">*</text></g><!--link Relation to Concept--><g id="link_Relation_Concept"><path codeLine="189" d="M539.78,1556.65 C521.61,1539.59 502.16,1517.03 492.5,1492 C478.47,1455.64 501.5543,1421.8896 527.6443,1395.9596 " fill="none" id="Relation-to-Concept" style="stroke:#181818;stroke-width:1.0;"/><polygon fill="#181818" points="531.9,1391.73,522.6968,1395.2372,528.3536,1395.2546,528.3362,1400.9115,531.9,1391.73" style="stroke:#181818;stroke-width:1.0;"/><text fill="#000000" font-family="sans-serif" font-size="13" lengthAdjust="spacing" textLength="33" x="493.5" y="1488.4951">target</text></g><!--link Relation to Concept--><g id="link_Relation_Concept"><path codeLine="191" d="M573.42,1556.85 C569.65,1538.05 565.4,1513.8 563.5,1492 C560.53,1457.81 562.7437,1424.4951 565.6537,1397.6351 " fill="none" id="Relation-to-Concept-1" style="stroke:#181818;stroke-width:1.0;"/><polygon fill="#181818" points="566.3,1391.67,561.3539,1400.1868,565.7615,1396.6409,569.3073,1401.0485,566.3,1391.67" style="stroke:#181818;stroke-width:1.0;"/><text fill="#000000" font-family="sans-serif" font-size="13" lengthAdjust="spacing" textLength="31" x="564.5" y="1488.4951">origin</text></g><!--link Concept to Document--><g id="link_Concept_Document"><path codeLine="179" d="M508.0764,1398.0873 C459.2164,1429.0773 395.33,1472.07 336.5,1522 C320.56,1535.53 308.2361,1548.0187 295.9061,1561.4587 " fill="none" id="Concept-Document" style="stroke:#181818;stroke-width:1.0;"/><polygon fill="none" points="518.21,1391.66,511.0008,1391.4958,508.0764,1398.0873,515.2857,1398.2515,518.21,1391.66" style="stroke:#181818;stroke-width:1.0;"/><polygon fill="#181818" points="291.85,1565.88,300.8817,1561.9522,295.2301,1562.1956,294.9867,1556.544,291.85,1565.88" style="stroke:#181818;stroke-width:1.0;"/><text fill="#000000" font-family="sans-serif" font-size="13" lengthAdjust="spacing" textLength="5" x="291.4241" y="1555.1894">*</text></g><!--link Concept to Excercise--><g id="link_Concept_Excercise"><path codeLine="180" d="M576.369,1313.5257 C586.479,1237.8457 609.3155,1066.7072 619.4255,991.0272 " fill="none" id="Concept-Excercise" style="stroke:#181818;stroke-width:1.0;"/><polygon fill="none" points="574.78,1325.42,579.5393,1320.0025,576.369,1313.5257,571.6097,1318.9432,574.78,1325.42" style="stroke:#181818;stroke-width:1.0;"/><polygon fill="#181818" points="620.22,985.08,615.0635,993.4711,619.5579,990.036,622.9931,994.5304,620.22,985.08" style="stroke:#181818;stroke-width:1.0;"/><text fill="#000000" font-family="sans-serif" font-size="13" lengthAdjust="spacing" textLength="5" x="613.9699" y="1006.2177">*</text></g><!--link RelationType to Relation--><g id="link_RelationType_Relation"><path codeLine="190" d="M476.58,1590 C488.31,1590 482.05,1590 493.79,1590 " fill="none" id="RelationType-Relation" style="stroke:#181818;stroke-width:1.0;"/><polygon fill="#181818" points="470.58,1590,479.58,1594,475.58,1590,479.58,1586,470.58,1590" style="stroke:#181818;stroke-width:1.0;"/><polygon fill="#181818" points="505.79,1590,499.79,1586,493.79,1590,499.79,1594,505.79,1590" style="stroke:#181818;stroke-width:1.0;"/></g><!--reverse link Media to Audio--><g id="link_Media_Audio"><path codeLine="211" d="M250.0054,1808.9609 C238.8454,1829.1909 231.43,1842.62 220.28,1862.84 " fill="none" id="Media-backto-Audio" style="stroke:#181818;stroke-width:1.0;"/><polygon fill="none" points="258.7,1793.2,244.7518,1806.0627,255.259,1811.859,258.7,1793.2" style="stroke:#181818;stroke-width:1.0;"/></g><!--reverse link Media to Video--><g id="link_Media_Video"><path codeLine="212" d="M285.0351,1810.2619 C291.8351,1830.4919 295.92,1842.62 302.72,1862.84 " fill="none" id="Media-backto-Video" style="stroke:#181818;stroke-width:1.0;"/><polygon fill="none" points="279.3,1793.2,279.3478,1812.1736,290.7224,1808.3502,279.3,1793.2" style="stroke:#181818;stroke-width:1.0;"/></g><!--reverse link Media to Image--><g id="link_Media_Image"><path codeLine="213" d="M314.0715,1804.5365 C339.0215,1824.7665 361.03,1842.62 385.96,1862.84 " fill="none" id="Media-backto-Image" style="stroke:#181818;stroke-width:1.0;"/><polygon fill="none" points="300.09,1793.2,310.2927,1809.197,317.8504,1799.876,300.09,1793.2" style="stroke:#181818;stroke-width:1.0;"/></g><!--reverse link Media to Text--><g id="link_Media_Text"><path codeLine="214" d="M220.1786,1795.3359 C173.9586,1818.1459 109.72,1849.86 66.33,1871.28 " fill="none" id="Media-backto-Text" style="stroke:#181818;stroke-width:1.0;"/><polygon fill="none" points="236.32,1787.37,217.5233,1789.9555,222.8339,1800.7164,236.32,1787.37" style="stroke:#181818;stroke-width:1.0;"/></g><!--reverse link Audio to Video--><g id="link_Audio_Video"><path codeLine="220" d="M247.7,1887 C259.26,1887 264.81,1887 276.37,1887 " fill="none" id="Audio-backto-Video" style="stroke:#181818;stroke-width:1.0;"/><polygon fill="#181818" points="241.7,1887,250.7,1891,246.7,1887,250.7,1883,241.7,1887" style="stroke:#181818;stroke-width:1.0;"/><text fill="#000000" font-family="sans-serif" font-size="13" lengthAdjust="spacing" textLength="7" x="249.4756" y="1882.8814">?</text></g><!--link Text to Audio--><g id="link_Text_Audio"><path codeLine="221" d="M66.29,1887 C96.14,1887 136.05,1887 167.36,1887 " fill="none" id="Text-to-Audio" style="stroke:#181818;stroke-width:1.0;"/><polygon fill="#181818" points="173.36,1887,164.36,1883,168.36,1887,164.36,1891,173.36,1887" style="stroke:#181818;stroke-width:1.0;"/><text fill="#000000" font-family="sans-serif" font-size="13" lengthAdjust="spacing" textLength="71" x="84.25" y="1880.4951">transcription</text><text fill="#000000" font-family="sans-serif" font-size="13" lengthAdjust="spacing" textLength="7" x="158.5968" y="1882.8814">?</text></g><!--SRC=[XLRBSjem5DtxArGsj6JW0vWCdGnXGQUPPWhj9ib2iIz6Krjo9Jc5KlwzUZy89AoiUu_k-nwngFeIIyBeVOFbXl4MZSRZ6HfS3T0QSBa5NYmkGrQohu3AIv0rwqXvIRcKX0B7V8-cgEDGmKQTgpDePhoD1jcDiXUIjPVGyos-69Isz4EelFIlRB0G1dueaFfT8G6Obzl53dX918YFdvnypgZaMCYRhck8jQjqnqBVHPE9JpOS4roHk8evM8TZbubAwPcn1Z1rOgdD2IN-IeIyDiPdobsypqAVZEDXr5p_6u_Ht1ReL7mVAvr4bGGRusASGobV1GOlkEcnX2egZaLgmCJrUO2-g0Z8nacd3nzmn4oSyQSqY5iT5tadXcEHm4QNN5K1SzPJ1d_JMHeUQp69Q25L3Ler_0g_yj_hVGTEdsGRkfXKQUPW77xtX9lB0RQIdD1QTzlvrAtMdLOpM48dCx6QvdJKdCfK9W_B_83sRIvt2SqRzXVM8AGvnHgRutTeS3Xywy1-tFMD95q3yoqZfKtR5dQV1gJ5oNdEAl1rnSz2hPIgk5v7ltzO_D8x5FPE0AtodRFoHKLac6spYTgA7NBFN57YYSf8J77I68rKBwtXZTXoPyU7jd2JVqe13lPgxLEvMT8f0XKruvac9E6rg1Yc-fEON2O7vTTzAjGafrDdvv6Y1-B54yipJyKmNdF6XvH9G0ri96ARK2gTyt1XBJ7QxAr0yQXdB2lm3WY8OgXwXRInT6yMkz9oQLYT5-12r-TOH9tfYHtUa-4mbVDNArRssQxSEe7V9_34xG6UoMUkYJN89QrWPpkdRSTdmHjpSikZhEsO818ipIQQ5MdLzAVYy5A5lDB6HNXa7BFF8LQttthp4tHaUh__wTELXNTuu_50-h7AqATFYFdv6aJbdHeddBaqKHpUhxXsQB2gn1NxGvt1XC6dddNF84SdI4BVn0QIybgMMVAjFQlD- -Noz0R3t4fDbzCWDwnwB0BC_F5mrgT8Ogv6BMf7OxrW2f9Tlt2PSLBxHJ2KdLvoyIZIikGg12j995lVOtzUKiKaH6BgEFgchZdK5dz4QSAcqKWpY_qoKtxJLuIbWf-aWaomR74DgM0DEpUZ1ejyvlgbDkPGeI5ehBBSvWfLDuwfA3dfT83_0G00]--></g></svg>