<?xml version="1.0" encoding="us-ascii" standalone="no"?><svg xmlns="http://www.w3.org/2000/svg" xmlns:xlink="http://www.w3.org/1999/xlink" contentStyleType="text/css" height="1094px" preserveAspectRatio="none" style="width:1315px;height:1094px;background:#FFFFFF;" version="1.1" viewBox="0 0 1315 1094" width="1315px" zoomAndPan="magnify"><defs/><g><!--class EducationPlatform--><g id="elem_EducationPlatform"><rect fill="#F1F1F1" height="48" id="EducationPlatform" rx="2.5" ry="2.5" style="stroke:#181818;stroke-width:0.5;" width="147" x="221" y="7"/><ellipse cx="236" cy="23" fill="#ADD1B2" rx="11" ry="11" style="stroke:#181818;stroke-width:1.0;"/><path d="M238.7656,18.875 Q238.9219,18.6563 239.1094,18.5469 Q239.2969,18.4375 239.5156,18.4375 Q239.8906,18.4375 240.125,18.7031 Q240.3594,18.9531 240.3594,19.5625 L240.3594,21.0156 Q240.3594,21.625 240.125,21.8906 Q239.8906,22.1563 239.5156,22.1563 Q239.1719,22.1563 238.9688,21.9531 Q238.7656,21.7656 238.6563,21.25 Q238.6094,20.8906 238.4219,20.7031 Q238.0938,20.3281 237.4844,20.1094 Q236.875,19.8906 236.25,19.8906 Q235.4844,19.8906 234.8438,20.2188 Q234.2188,20.5469 233.7188,21.2969 Q233.2344,22.0469 233.2344,23.0781 L233.2344,24.1719 Q233.2344,25.4063 234.125,26.2344 Q235.0156,27.0469 236.6094,27.0469 Q237.5469,27.0469 238.2031,26.7969 Q238.5938,26.6406 239.0156,26.2031 Q239.2813,25.9375 239.4219,25.8594 Q239.5781,25.7813 239.7813,25.7813 Q240.1094,25.7813 240.3594,26.0469 Q240.625,26.2969 240.625,26.6406 Q240.625,26.9844 240.2813,27.3906 Q239.7813,27.9688 238.9844,28.2969 Q237.9063,28.75 236.6094,28.75 Q235.0938,28.75 233.8906,28.125 Q232.9063,27.625 232.2188,26.5625 Q231.5313,25.4844 231.5313,24.2031 L231.5313,23.0469 Q231.5313,21.7188 232.1406,20.5781 Q232.7656,19.4219 233.8594,18.8125 Q234.9531,18.1875 236.1875,18.1875 Q236.9219,18.1875 237.5625,18.3594 Q238.2188,18.5156 238.7656,18.875 Z " fill="#000000"/><text fill="#000000" font-family="sans-serif" font-size="14" lengthAdjust="spacing" textLength="115" x="250" y="28.7285">EducationPlatform</text><line style="stroke:#181818;stroke-width:0.5;" x1="222" x2="367" y1="39" y2="39"/><line style="stroke:#181818;stroke-width:0.5;" x1="222" x2="367" y1="47" y2="47"/></g><!--class User--><g id="elem_User"><rect codeLine="9" fill="#F1F1F1" height="48" id="User" rx="2.5" ry="2.5" style="stroke:#181818;stroke-width:0.5;" width="62" x="114.5" y="133"/><ellipse cx="129.5" cy="149" fill="#A9DCDF" rx="11" ry="11" style="stroke:#181818;stroke-width:1.0;"/><path d="M131.6875,150.7656 L127.5469,150.7656 L127.125,151.7969 L127.5469,151.7969 Q128.1563,151.7969 128.4219,152.0313 Q128.6875,152.2656 128.6875,152.6563 Q128.6875,153.0313 128.4219,153.2656 Q128.1563,153.5 127.5469,153.5 L125.25,153.5 Q124.6406,153.5 124.3906,153.2656 Q124.125,153.0313 124.125,152.6406 Q124.125,152.2656 124.4063,152.0313 Q124.6719,151.7813 125.2969,151.7969 L127.9688,145.1406 L126.8594,145.1406 Q126.25,145.1406 125.9844,144.9063 Q125.7188,144.6719 125.7188,144.2813 Q125.7188,143.9063 125.9844,143.6719 Q126.25,143.4375 126.8594,143.4375 L130.5313,143.4375 L133.9219,151.7969 Q134.5156,151.7969 134.7031,151.9375 Q135.0938,152.2031 135.0938,152.6563 Q135.0938,153.0313 134.8281,153.2656 Q134.5781,153.5 133.9688,153.5 L131.6719,153.5 Q131.0625,153.5 130.7969,153.2656 Q130.5313,153.0313 130.5313,152.6406 Q130.5313,152.2656 130.7969,152.0313 Q131.0625,151.7969 131.6719,151.7969 L132.0938,151.7969 L131.6875,150.7656 Z M130.9688,149.0625 L129.6094,145.6875 L128.2344,149.0625 L130.9688,149.0625 Z " fill="#000000"/><text fill="#000000" font-family="sans-serif" font-size="14" font-style="italic" lengthAdjust="spacing" textLength="30" x="143.5" y="154.7285">User</text><line style="stroke:#181818;stroke-width:0.5;" x1="115.5" x2="175.5" y1="165" y2="165"/><line style="stroke:#181818;stroke-width:0.5;" x1="115.5" x2="175.5" y1="173" y2="173"/></g><!--class Topic--><g id="elem_Topic"><rect codeLine="79" fill="#F1F1F1" height="48" id="Topic" rx="2.5" ry="2.5" style="stroke:#181818;stroke-width:0.5;" width="67" x="460" y="289"/><ellipse cx="475" cy="305" fill="#A9DCDF" rx="11" ry="11" style="stroke:#181818;stroke-width:1.0;"/><path d="M477.1875,306.7656 L473.0469,306.7656 L472.625,307.7969 L473.0469,307.7969 Q473.6563,307.7969 473.9219,308.0313 Q474.1875,308.2656 474.1875,308.6563 Q474.1875,309.0313 473.9219,309.2656 Q473.6563,309.5 473.0469,309.5 L470.75,309.5 Q470.1406,309.5 469.8906,309.2656 Q469.625,309.0313 469.625,308.6406 Q469.625,308.2656 469.9063,308.0313 Q470.1719,307.7813 470.7969,307.7969 L473.4688,301.1406 L472.3594,301.1406 Q471.75,301.1406 471.4844,300.9063 Q471.2188,300.6719 471.2188,300.2813 Q471.2188,299.9063 471.4844,299.6719 Q471.75,299.4375 472.3594,299.4375 L476.0313,299.4375 L479.4219,307.7969 Q480.0156,307.7969 480.2031,307.9375 Q480.5938,308.2031 480.5938,308.6563 Q480.5938,309.0313 480.3281,309.2656 Q480.0781,309.5 479.4688,309.5 L477.1719,309.5 Q476.5625,309.5 476.2969,309.2656 Q476.0313,309.0313 476.0313,308.6406 Q476.0313,308.2656 476.2969,308.0313 Q476.5625,307.7969 477.1719,307.7969 L477.5938,307.7969 L477.1875,306.7656 Z M476.4688,305.0625 L475.1094,301.6875 L473.7344,305.0625 L476.4688,305.0625 Z " fill="#000000"/><text fill="#000000" font-family="sans-serif" font-size="14" font-style="italic" lengthAdjust="spacing" textLength="35" x="489" y="310.7285">Topic</text><line style="stroke:#181818;stroke-width:0.5;" x1="461" x2="526" y1="321" y2="321"/><line style="stroke:#181818;stroke-width:0.5;" x1="461" x2="526" y1="329" y2="329"/></g><!--class Itinerary--><g id="elem_Itinerary"><rect codeLine="28" fill="#F1F1F1" height="48" id="Itinerary" rx="2.5" ry="2.5" style="stroke:#181818;stroke-width:0.5;" width="83" x="354" y="133"/><ellipse cx="369" cy="149" fill="#ADD1B2" rx="11" ry="11" style="stroke:#181818;stroke-width:1.0;"/><path d="M371.7656,144.875 Q371.9219,144.6563 372.1094,144.5469 Q372.2969,144.4375 372.5156,144.4375 Q372.8906,144.4375 373.125,144.7031 Q373.3594,144.9531 373.3594,145.5625 L373.3594,147.0156 Q373.3594,147.625 373.125,147.8906 Q372.8906,148.1563 372.5156,148.1563 Q372.1719,148.1563 371.9688,147.9531 Q371.7656,147.7656 371.6563,147.25 Q371.6094,146.8906 371.4219,146.7031 Q371.0938,146.3281 370.4844,146.1094 Q369.875,145.8906 369.25,145.8906 Q368.4844,145.8906 367.8438,146.2188 Q367.2188,146.5469 366.7188,147.2969 Q366.2344,148.0469 366.2344,149.0781 L366.2344,150.1719 Q366.2344,151.4063 367.125,152.2344 Q368.0156,153.0469 369.6094,153.0469 Q370.5469,153.0469 371.2031,152.7969 Q371.5938,152.6406 372.0156,152.2031 Q372.2813,151.9375 372.4219,151.8594 Q372.5781,151.7813 372.7813,151.7813 Q373.1094,151.7813 373.3594,152.0469 Q373.625,152.2969 373.625,152.6406 Q373.625,152.9844 373.2813,153.3906 Q372.7813,153.9688 371.9844,154.2969 Q370.9063,154.75 369.6094,154.75 Q368.0938,154.75 366.8906,154.125 Q365.9063,153.625 365.2188,152.5625 Q364.5313,151.4844 364.5313,150.2031 L364.5313,149.0469 Q364.5313,147.7188 365.1406,146.5781 Q365.7656,145.4219 366.8594,144.8125 Q367.9531,144.1875 369.1875,144.1875 Q369.9219,144.1875 370.5625,144.3594 Q371.2188,144.5156 371.7656,144.875 Z " fill="#000000"/><text fill="#000000" font-family="sans-serif" font-size="14" lengthAdjust="spacing" textLength="51" x="383" y="154.7285">Itinerary</text><line style="stroke:#181818;stroke-width:0.5;" x1="355" x2="436" y1="165" y2="165"/><line style="stroke:#181818;stroke-width:0.5;" x1="355" x2="436" y1="173" y2="173"/></g><!--class Evaluator--><g id="elem_Evaluator"><rect codeLine="24" fill="#F1F1F1" height="48" id="Evaluator" rx="2.5" ry="2.5" style="stroke:#181818;stroke-width:0.5;" width="92" x="178.5" y="211"/><ellipse cx="193.5" cy="227" fill="#ADD1B2" rx="11" ry="11" style="stroke:#181818;stroke-width:1.0;"/><path d="M196.2656,222.875 Q196.4219,222.6563 196.6094,222.5469 Q196.7969,222.4375 197.0156,222.4375 Q197.3906,222.4375 197.625,222.7031 Q197.8594,222.9531 197.8594,223.5625 L197.8594,225.0156 Q197.8594,225.625 197.625,225.8906 Q197.3906,226.1563 197.0156,226.1563 Q196.6719,226.1563 196.4688,225.9531 Q196.2656,225.7656 196.1563,225.25 Q196.1094,224.8906 195.9219,224.7031 Q195.5938,224.3281 194.9844,224.1094 Q194.375,223.8906 193.75,223.8906 Q192.9844,223.8906 192.3438,224.2188 Q191.7188,224.5469 191.2188,225.2969 Q190.7344,226.0469 190.7344,227.0781 L190.7344,228.1719 Q190.7344,229.4063 191.625,230.2344 Q192.5156,231.0469 194.1094,231.0469 Q195.0469,231.0469 195.7031,230.7969 Q196.0938,230.6406 196.5156,230.2031 Q196.7813,229.9375 196.9219,229.8594 Q197.0781,229.7813 197.2813,229.7813 Q197.6094,229.7813 197.8594,230.0469 Q198.125,230.2969 198.125,230.6406 Q198.125,230.9844 197.7813,231.3906 Q197.2813,231.9688 196.4844,232.2969 Q195.4063,232.75 194.1094,232.75 Q192.5938,232.75 191.3906,232.125 Q190.4063,231.625 189.7188,230.5625 Q189.0313,229.4844 189.0313,228.2031 L189.0313,227.0469 Q189.0313,225.7188 189.6406,224.5781 Q190.2656,223.4219 191.3594,222.8125 Q192.4531,222.1875 193.6875,222.1875 Q194.4219,222.1875 195.0625,222.3594 Q195.7188,222.5156 196.2656,222.875 Z " fill="#000000"/><text fill="#000000" font-family="sans-serif" font-size="14" lengthAdjust="spacing" textLength="60" x="207.5" y="232.7285">Evaluator</text><line style="stroke:#181818;stroke-width:0.5;" x1="179.5" x2="269.5" y1="243" y2="243"/><line style="stroke:#181818;stroke-width:0.5;" x1="179.5" x2="269.5" y1="251" y2="251"/></g><!--class Teacher--><g id="elem_Teacher"><rect codeLine="16" fill="#F1F1F1" height="48" id="Teacher" rx="2.5" ry="2.5" style="stroke:#181818;stroke-width:0.5;" width="85" x="7" y="289"/><ellipse cx="22" cy="305" fill="#ADD1B2" rx="11" ry="11" style="stroke:#181818;stroke-width:1.0;"/><path d="M24.7656,300.875 Q24.9219,300.6563 25.1094,300.5469 Q25.2969,300.4375 25.5156,300.4375 Q25.8906,300.4375 26.125,300.7031 Q26.3594,300.9531 26.3594,301.5625 L26.3594,303.0156 Q26.3594,303.625 26.125,303.8906 Q25.8906,304.1563 25.5156,304.1563 Q25.1719,304.1563 24.9688,303.9531 Q24.7656,303.7656 24.6563,303.25 Q24.6094,302.8906 24.4219,302.7031 Q24.0938,302.3281 23.4844,302.1094 Q22.875,301.8906 22.25,301.8906 Q21.4844,301.8906 20.8438,302.2188 Q20.2188,302.5469 19.7188,303.2969 Q19.2344,304.0469 19.2344,305.0781 L19.2344,306.1719 Q19.2344,307.4063 20.125,308.2344 Q21.0156,309.0469 22.6094,309.0469 Q23.5469,309.0469 24.2031,308.7969 Q24.5938,308.6406 25.0156,308.2031 Q25.2813,307.9375 25.4219,307.8594 Q25.5781,307.7813 25.7813,307.7813 Q26.1094,307.7813 26.3594,308.0469 Q26.625,308.2969 26.625,308.6406 Q26.625,308.9844 26.2813,309.3906 Q25.7813,309.9688 24.9844,310.2969 Q23.9063,310.75 22.6094,310.75 Q21.0938,310.75 19.8906,310.125 Q18.9063,309.625 18.2188,308.5625 Q17.5313,307.4844 17.5313,306.2031 L17.5313,305.0469 Q17.5313,303.7188 18.1406,302.5781 Q18.7656,301.4219 19.8594,300.8125 Q20.9531,300.1875 22.1875,300.1875 Q22.9219,300.1875 23.5625,300.3594 Q24.2188,300.5156 24.7656,300.875 Z " fill="#000000"/><text fill="#000000" font-family="sans-serif" font-size="14" lengthAdjust="spacing" textLength="53" x="36" y="310.7285">Teacher</text><line style="stroke:#181818;stroke-width:0.5;" x1="8" x2="91" y1="321" y2="321"/><line style="stroke:#181818;stroke-width:0.5;" x1="8" x2="91" y1="329" y2="329"/></g><!--class Student--><g id="elem_Student"><rect codeLine="19" fill="#F1F1F1" height="48" id="Student" rx="2.5" ry="2.5" style="stroke:#181818;stroke-width:0.5;" width="81" x="105" y="367"/><ellipse cx="120" cy="383" fill="#ADD1B2" rx="11" ry="11" style="stroke:#181818;stroke-width:1.0;"/><path d="M122.7656,378.875 Q122.9219,378.6563 123.1094,378.5469 Q123.2969,378.4375 123.5156,378.4375 Q123.8906,378.4375 124.125,378.7031 Q124.3594,378.9531 124.3594,379.5625 L124.3594,381.0156 Q124.3594,381.625 124.125,381.8906 Q123.8906,382.1563 123.5156,382.1563 Q123.1719,382.1563 122.9688,381.9531 Q122.7656,381.7656 122.6563,381.25 Q122.6094,380.8906 122.4219,380.7031 Q122.0938,380.3281 121.4844,380.1094 Q120.875,379.8906 120.25,379.8906 Q119.4844,379.8906 118.8438,380.2188 Q118.2188,380.5469 117.7188,381.2969 Q117.2344,382.0469 117.2344,383.0781 L117.2344,384.1719 Q117.2344,385.4063 118.125,386.2344 Q119.0156,387.0469 120.6094,387.0469 Q121.5469,387.0469 122.2031,386.7969 Q122.5938,386.6406 123.0156,386.2031 Q123.2813,385.9375 123.4219,385.8594 Q123.5781,385.7813 123.7813,385.7813 Q124.1094,385.7813 124.3594,386.0469 Q124.625,386.2969 124.625,386.6406 Q124.625,386.9844 124.2813,387.3906 Q123.7813,387.9688 122.9844,388.2969 Q121.9063,388.75 120.6094,388.75 Q119.0938,388.75 117.8906,388.125 Q116.9063,387.625 116.2188,386.5625 Q115.5313,385.4844 115.5313,384.2031 L115.5313,383.0469 Q115.5313,381.7188 116.1406,380.5781 Q116.7656,379.4219 117.8594,378.8125 Q118.9531,378.1875 120.1875,378.1875 Q120.9219,378.1875 121.5625,378.3594 Q122.2188,378.5156 122.7656,378.875 Z " fill="#000000"/><text fill="#000000" font-family="sans-serif" font-size="14" lengthAdjust="spacing" textLength="49" x="134" y="388.7285">Student</text><line style="stroke:#181818;stroke-width:0.5;" x1="106" x2="185" y1="399" y2="399"/><line style="stroke:#181818;stroke-width:0.5;" x1="106" x2="185" y1="407" y2="407"/></g><!--class Application--><g id="elem_Application"><rect codeLine="66" fill="#F1F1F1" height="83.2188" id="Application" rx="2.5" ry="2.5" style="stroke:#181818;stroke-width:0.5;" width="151" x="212" y="851.5"/><ellipse cx="249.5" cy="867.5" fill="#ADD1B2" rx="11" ry="11" style="stroke:#181818;stroke-width:1.0;"/><path d="M252.2656,863.375 Q252.4219,863.1563 252.6094,863.0469 Q252.7969,862.9375 253.0156,862.9375 Q253.3906,862.9375 253.625,863.2031 Q253.8594,863.4531 253.8594,864.0625 L253.8594,865.5156 Q253.8594,866.125 253.625,866.3906 Q253.3906,866.6563 253.0156,866.6563 Q252.6719,866.6563 252.4688,866.4531 Q252.2656,866.2656 252.1563,865.75 Q252.1094,865.3906 251.9219,865.2031 Q251.5938,864.8281 250.9844,864.6094 Q250.375,864.3906 249.75,864.3906 Q248.9844,864.3906 248.3438,864.7188 Q247.7188,865.0469 247.2188,865.7969 Q246.7344,866.5469 246.7344,867.5781 L246.7344,868.6719 Q246.7344,869.9063 247.625,870.7344 Q248.5156,871.5469 250.1094,871.5469 Q251.0469,871.5469 251.7031,871.2969 Q252.0938,871.1406 252.5156,870.7031 Q252.7813,870.4375 252.9219,870.3594 Q253.0781,870.2813 253.2813,870.2813 Q253.6094,870.2813 253.8594,870.5469 Q254.125,870.7969 254.125,871.1406 Q254.125,871.4844 253.7813,871.8906 Q253.2813,872.4688 252.4844,872.7969 Q251.4063,873.25 250.1094,873.25 Q248.5938,873.25 247.3906,872.625 Q246.4063,872.125 245.7188,871.0625 Q245.0313,869.9844 245.0313,868.7031 L245.0313,867.5469 Q245.0313,866.2188 245.6406,865.0781 Q246.2656,863.9219 247.3594,863.3125 Q248.4531,862.6875 249.6875,862.6875 Q250.4219,862.6875 251.0625,862.8594 Q251.7188,863.0156 252.2656,863.375 Z " fill="#000000"/><text fill="#000000" font-family="sans-serif" font-size="14" lengthAdjust="spacing" textLength="69" x="268.5" y="873.2285">Application</text><line style="stroke:#181818;stroke-width:0.5;" x1="213" x2="362" y1="883.5" y2="883.5"/><rect fill="none" height="6" style="stroke:#C82930;stroke-width:1.0;" width="6" x="220" y="894.8047"/><text fill="#000000" font-family="sans-serif" font-size="14" lengthAdjust="spacing" textLength="125" x="232" y="902.0332">evaluated : boolean</text><rect fill="none" height="6" style="stroke:#C82930;stroke-width:1.0;" width="6" x="220" y="912.4141"/><text fill="#000000" font-family="sans-serif" font-size="14" lengthAdjust="spacing" textLength="98" x="232" y="919.6426">solution : String</text><line style="stroke:#181818;stroke-width:0.5;" x1="213" x2="362" y1="926.7188" y2="926.7188"/></g><!--class Definition--><g id="elem_Definition"><rect codeLine="32" fill="#F1F1F1" height="48" id="Definition" rx="2.5" ry="2.5" style="stroke:#181818;stroke-width:0.5;" width="91" x="490" y="707"/><ellipse cx="505" cy="723" fill="#ADD1B2" rx="11" ry="11" style="stroke:#181818;stroke-width:1.0;"/><path d="M507.7656,718.875 Q507.9219,718.6563 508.1094,718.5469 Q508.2969,718.4375 508.5156,718.4375 Q508.8906,718.4375 509.125,718.7031 Q509.3594,718.9531 509.3594,719.5625 L509.3594,721.0156 Q509.3594,721.625 509.125,721.8906 Q508.8906,722.1563 508.5156,722.1563 Q508.1719,722.1563 507.9688,721.9531 Q507.7656,721.7656 507.6563,721.25 Q507.6094,720.8906 507.4219,720.7031 Q507.0938,720.3281 506.4844,720.1094 Q505.875,719.8906 505.25,719.8906 Q504.4844,719.8906 503.8438,720.2188 Q503.2188,720.5469 502.7188,721.2969 Q502.2344,722.0469 502.2344,723.0781 L502.2344,724.1719 Q502.2344,725.4063 503.125,726.2344 Q504.0156,727.0469 505.6094,727.0469 Q506.5469,727.0469 507.2031,726.7969 Q507.5938,726.6406 508.0156,726.2031 Q508.2813,725.9375 508.4219,725.8594 Q508.5781,725.7813 508.7813,725.7813 Q509.1094,725.7813 509.3594,726.0469 Q509.625,726.2969 509.625,726.6406 Q509.625,726.9844 509.2813,727.3906 Q508.7813,727.9688 507.9844,728.2969 Q506.9063,728.75 505.6094,728.75 Q504.0938,728.75 502.8906,728.125 Q501.9063,727.625 501.2188,726.5625 Q500.5313,725.4844 500.5313,724.2031 L500.5313,723.0469 Q500.5313,721.7188 501.1406,720.5781 Q501.7656,719.4219 502.8594,718.8125 Q503.9531,718.1875 505.1875,718.1875 Q505.9219,718.1875 506.5625,718.3594 Q507.2188,718.5156 507.7656,718.875 Z " fill="#000000"/><text fill="#000000" font-family="sans-serif" font-size="14" lengthAdjust="spacing" textLength="59" x="519" y="728.7285">Definition</text><line style="stroke:#181818;stroke-width:0.5;" x1="491" x2="580" y1="739" y2="739"/><line style="stroke:#181818;stroke-width:0.5;" x1="491" x2="580" y1="747" y2="747"/></g><!--class Justification--><g id="elem_Justification"><rect codeLine="36" fill="#F1F1F1" height="48" id="Justification" rx="2.5" ry="2.5" style="stroke:#181818;stroke-width:0.5;" width="105" x="341" y="707"/><ellipse cx="356" cy="723" fill="#ADD1B2" rx="11" ry="11" style="stroke:#181818;stroke-width:1.0;"/><path d="M358.7656,718.875 Q358.9219,718.6563 359.1094,718.5469 Q359.2969,718.4375 359.5156,718.4375 Q359.8906,718.4375 360.125,718.7031 Q360.3594,718.9531 360.3594,719.5625 L360.3594,721.0156 Q360.3594,721.625 360.125,721.8906 Q359.8906,722.1563 359.5156,722.1563 Q359.1719,722.1563 358.9688,721.9531 Q358.7656,721.7656 358.6563,721.25 Q358.6094,720.8906 358.4219,720.7031 Q358.0938,720.3281 357.4844,720.1094 Q356.875,719.8906 356.25,719.8906 Q355.4844,719.8906 354.8438,720.2188 Q354.2188,720.5469 353.7188,721.2969 Q353.2344,722.0469 353.2344,723.0781 L353.2344,724.1719 Q353.2344,725.4063 354.125,726.2344 Q355.0156,727.0469 356.6094,727.0469 Q357.5469,727.0469 358.2031,726.7969 Q358.5938,726.6406 359.0156,726.2031 Q359.2813,725.9375 359.4219,725.8594 Q359.5781,725.7813 359.7813,725.7813 Q360.1094,725.7813 360.3594,726.0469 Q360.625,726.2969 360.625,726.6406 Q360.625,726.9844 360.2813,727.3906 Q359.7813,727.9688 358.9844,728.2969 Q357.9063,728.75 356.6094,728.75 Q355.0938,728.75 353.8906,728.125 Q352.9063,727.625 352.2188,726.5625 Q351.5313,725.4844 351.5313,724.2031 L351.5313,723.0469 Q351.5313,721.7188 352.1406,720.5781 Q352.7656,719.4219 353.8594,718.8125 Q354.9531,718.1875 356.1875,718.1875 Q356.9219,718.1875 357.5625,718.3594 Q358.2188,718.5156 358.7656,718.875 Z " fill="#000000"/><text fill="#000000" font-family="sans-serif" font-size="14" lengthAdjust="spacing" textLength="73" x="370" y="728.7285">Justification</text><line style="stroke:#181818;stroke-width:0.5;" x1="342" x2="445" y1="739" y2="739"/><line style="stroke:#181818;stroke-width:0.5;" x1="342" x2="445" y1="747" y2="747"/></g><!--class Domain--><g id="elem_Domain"><rect codeLine="40" fill="#F1F1F1" height="83.2188" id="Domain" rx="2.5" ry="2.5" style="stroke:#181818;stroke-width:0.5;" width="196" x="706.5" y="851.5"/><ellipse cx="776.25" cy="867.5" fill="#ADD1B2" rx="11" ry="11" style="stroke:#181818;stroke-width:1.0;"/><path d="M779.0156,863.375 Q779.1719,863.1563 779.3594,863.0469 Q779.5469,862.9375 779.7656,862.9375 Q780.1406,862.9375 780.375,863.2031 Q780.6094,863.4531 780.6094,864.0625 L780.6094,865.5156 Q780.6094,866.125 780.375,866.3906 Q780.1406,866.6563 779.7656,866.6563 Q779.4219,866.6563 779.2188,866.4531 Q779.0156,866.2656 778.9063,865.75 Q778.8594,865.3906 778.6719,865.2031 Q778.3438,864.8281 777.7344,864.6094 Q777.125,864.3906 776.5,864.3906 Q775.7344,864.3906 775.0938,864.7188 Q774.4688,865.0469 773.9688,865.7969 Q773.4844,866.5469 773.4844,867.5781 L773.4844,868.6719 Q773.4844,869.9063 774.375,870.7344 Q775.2656,871.5469 776.8594,871.5469 Q777.7969,871.5469 778.4531,871.2969 Q778.8438,871.1406 779.2656,870.7031 Q779.5313,870.4375 779.6719,870.3594 Q779.8281,870.2813 780.0313,870.2813 Q780.3594,870.2813 780.6094,870.5469 Q780.875,870.7969 780.875,871.1406 Q780.875,871.4844 780.5313,871.8906 Q780.0313,872.4688 779.2344,872.7969 Q778.1563,873.25 776.8594,873.25 Q775.3438,873.25 774.1406,872.625 Q773.1563,872.125 772.4688,871.0625 Q771.7813,869.9844 771.7813,868.7031 L771.7813,867.5469 Q771.7813,866.2188 772.3906,865.0781 Q773.0156,863.9219 774.1094,863.3125 Q775.2031,862.6875 776.4375,862.6875 Q777.1719,862.6875 777.8125,862.8594 Q778.4688,863.0156 779.0156,863.375 Z " fill="#000000"/><text fill="#000000" font-family="sans-serif" font-size="14" lengthAdjust="spacing" textLength="48" x="796.75" y="873.2285">Domain</text><line style="stroke:#181818;stroke-width:0.5;" x1="707.5" x2="901.5" y1="883.5" y2="883.5"/><rect fill="none" height="6" style="stroke:#C82930;stroke-width:1.0;" width="6" x="714.5" y="894.8047"/><text fill="#000000" font-family="sans-serif" font-size="14" lengthAdjust="spacing" textLength="73" x="726.5" y="902.0332">version : int</text><rect fill="none" height="6" style="stroke:#C82930;stroke-width:1.0;" width="6" x="714.5" y="912.4141"/><text fill="#000000" font-family="sans-serif" font-size="14" lengthAdjust="spacing" textLength="170" x="726.5" y="919.6426">requirements : List&lt;String&gt;</text><line style="stroke:#181818;stroke-width:0.5;" x1="707.5" x2="901.5" y1="926.7188" y2="926.7188"/></g><!--class Exercise--><g id="elem_Exercise"><rect codeLine="45" fill="#F1F1F1" height="65.6094" id="Exercise" rx="2.5" ry="2.5" style="stroke:#181818;stroke-width:0.5;" width="137" x="736" y="698"/><ellipse cx="774.4" cy="714" fill="#A9DCDF" rx="11" ry="11" style="stroke:#181818;stroke-width:1.0;"/><path d="M776.5875,715.7656 L772.4469,715.7656 L772.025,716.7969 L772.4469,716.7969 Q773.0563,716.7969 773.3219,717.0313 Q773.5875,717.2656 773.5875,717.6563 Q773.5875,718.0313 773.3219,718.2656 Q773.0563,718.5 772.4469,718.5 L770.15,718.5 Q769.5406,718.5 769.2906,718.2656 Q769.025,718.0313 769.025,717.6406 Q769.025,717.2656 769.3063,717.0313 Q769.5719,716.7813 770.1969,716.7969 L772.8688,710.1406 L771.7594,710.1406 Q771.15,710.1406 770.8844,709.9063 Q770.6188,709.6719 770.6188,709.2813 Q770.6188,708.9063 770.8844,708.6719 Q771.15,708.4375 771.7594,708.4375 L775.4313,708.4375 L778.8219,716.7969 Q779.4156,716.7969 779.6031,716.9375 Q779.9938,717.2031 779.9938,717.6563 Q779.9938,718.0313 779.7281,718.2656 Q779.4781,718.5 778.8688,718.5 L776.5719,718.5 Q775.9625,718.5 775.6969,718.2656 Q775.4313,718.0313 775.4313,717.6406 Q775.4313,717.2656 775.6969,717.0313 Q775.9625,716.7969 776.5719,716.7969 L776.9938,716.7969 L776.5875,715.7656 Z M775.8688,714.0625 L774.5094,710.6875 L773.1344,714.0625 L775.8688,714.0625 Z " fill="#000000"/><text fill="#000000" font-family="sans-serif" font-size="14" font-style="italic" lengthAdjust="spacing" textLength="53" x="793.6" y="719.7285">Exercise</text><line style="stroke:#181818;stroke-width:0.5;" x1="737" x2="872" y1="730" y2="730"/><rect fill="none" height="6" style="stroke:#C82930;stroke-width:1.0;" width="6" x="744" y="741.3047"/><text fill="#000000" font-family="sans-serif" font-size="14" lengthAdjust="spacing" textLength="111" x="756" y="748.5332">statement : String</text><line style="stroke:#181818;stroke-width:0.5;" x1="737" x2="872" y1="755.6094" y2="755.6094"/></g><!--class Question--><g id="elem_Question"><rect codeLine="53" fill="#F1F1F1" height="48" id="Question" rx="2.5" ry="2.5" style="stroke:#181818;stroke-width:0.5;" width="89" x="582" y="869"/><ellipse cx="597" cy="885" fill="#A9DCDF" rx="11" ry="11" style="stroke:#181818;stroke-width:1.0;"/><path d="M599.1875,886.7656 L595.0469,886.7656 L594.625,887.7969 L595.0469,887.7969 Q595.6563,887.7969 595.9219,888.0313 Q596.1875,888.2656 596.1875,888.6563 Q596.1875,889.0313 595.9219,889.2656 Q595.6563,889.5 595.0469,889.5 L592.75,889.5 Q592.1406,889.5 591.8906,889.2656 Q591.625,889.0313 591.625,888.6406 Q591.625,888.2656 591.9063,888.0313 Q592.1719,887.7813 592.7969,887.7969 L595.4688,881.1406 L594.3594,881.1406 Q593.75,881.1406 593.4844,880.9063 Q593.2188,880.6719 593.2188,880.2813 Q593.2188,879.9063 593.4844,879.6719 Q593.75,879.4375 594.3594,879.4375 L598.0313,879.4375 L601.4219,887.7969 Q602.0156,887.7969 602.2031,887.9375 Q602.5938,888.2031 602.5938,888.6563 Q602.5938,889.0313 602.3281,889.2656 Q602.0781,889.5 601.4688,889.5 L599.1719,889.5 Q598.5625,889.5 598.2969,889.2656 Q598.0313,889.0313 598.0313,888.6406 Q598.0313,888.2656 598.2969,888.0313 Q598.5625,887.7969 599.1719,887.7969 L599.5938,887.7969 L599.1875,886.7656 Z M598.4688,885.0625 L597.1094,881.6875 L595.7344,885.0625 L598.4688,885.0625 Z " fill="#000000"/><text fill="#000000" font-family="sans-serif" font-size="14" font-style="italic" lengthAdjust="spacing" textLength="57" x="611" y="890.7285">Question</text><line style="stroke:#181818;stroke-width:0.5;" x1="583" x2="670" y1="901" y2="901"/><line style="stroke:#181818;stroke-width:0.5;" x1="583" x2="670" y1="909" y2="909"/></g><!--class MultipleChoice--><g id="elem_MultipleChoice"><rect codeLine="63" fill="#F1F1F1" height="48" id="MultipleChoice" rx="2.5" ry="2.5" style="stroke:#181818;stroke-width:0.5;" width="124" x="413.5" y="1031"/><ellipse cx="428.5" cy="1047" fill="#ADD1B2" rx="11" ry="11" style="stroke:#181818;stroke-width:1.0;"/><path d="M431.2656,1042.875 Q431.4219,1042.6563 431.6094,1042.5469 Q431.7969,1042.4375 432.0156,1042.4375 Q432.3906,1042.4375 432.625,1042.7031 Q432.8594,1042.9531 432.8594,1043.5625 L432.8594,1045.0156 Q432.8594,1045.625 432.625,1045.8906 Q432.3906,1046.1563 432.0156,1046.1563 Q431.6719,1046.1563 431.4688,1045.9531 Q431.2656,1045.7656 431.1563,1045.25 Q431.1094,1044.8906 430.9219,1044.7031 Q430.5938,1044.3281 429.9844,1044.1094 Q429.375,1043.8906 428.75,1043.8906 Q427.9844,1043.8906 427.3438,1044.2188 Q426.7188,1044.5469 426.2188,1045.2969 Q425.7344,1046.0469 425.7344,1047.0781 L425.7344,1048.1719 Q425.7344,1049.4063 426.625,1050.2344 Q427.5156,1051.0469 429.1094,1051.0469 Q430.0469,1051.0469 430.7031,1050.7969 Q431.0938,1050.6406 431.5156,1050.2031 Q431.7813,1049.9375 431.9219,1049.8594 Q432.0781,1049.7813 432.2813,1049.7813 Q432.6094,1049.7813 432.8594,1050.0469 Q433.125,1050.2969 433.125,1050.6406 Q433.125,1050.9844 432.7813,1051.3906 Q432.2813,1051.9688 431.4844,1052.2969 Q430.4063,1052.75 429.1094,1052.75 Q427.5938,1052.75 426.3906,1052.125 Q425.4063,1051.625 424.7188,1050.5625 Q424.0313,1049.4844 424.0313,1048.2031 L424.0313,1047.0469 Q424.0313,1045.7188 424.6406,1044.5781 Q425.2656,1043.4219 426.3594,1042.8125 Q427.4531,1042.1875 428.6875,1042.1875 Q429.4219,1042.1875 430.0625,1042.3594 Q430.7188,1042.5156 431.2656,1042.875 Z " fill="#000000"/><text fill="#000000" font-family="sans-serif" font-size="14" lengthAdjust="spacing" textLength="92" x="442.5" y="1052.7285">MultipleChoice</text><line style="stroke:#181818;stroke-width:0.5;" x1="414.5" x2="536.5" y1="1063" y2="1063"/><line style="stroke:#181818;stroke-width:0.5;" x1="414.5" x2="536.5" y1="1071" y2="1071"/></g><!--class Cloze--><g id="elem_Cloze"><rect codeLine="59" fill="#F1F1F1" height="65.6094" id="Cloze" rx="2.5" ry="2.5" style="stroke:#181818;stroke-width:0.5;" width="107" x="573" y="1022"/><ellipse cx="606" cy="1038" fill="#ADD1B2" rx="11" ry="11" style="stroke:#181818;stroke-width:1.0;"/><path d="M608.7656,1033.875 Q608.9219,1033.6563 609.1094,1033.5469 Q609.2969,1033.4375 609.5156,1033.4375 Q609.8906,1033.4375 610.125,1033.7031 Q610.3594,1033.9531 610.3594,1034.5625 L610.3594,1036.0156 Q610.3594,1036.625 610.125,1036.8906 Q609.8906,1037.1563 609.5156,1037.1563 Q609.1719,1037.1563 608.9688,1036.9531 Q608.7656,1036.7656 608.6563,1036.25 Q608.6094,1035.8906 608.4219,1035.7031 Q608.0938,1035.3281 607.4844,1035.1094 Q606.875,1034.8906 606.25,1034.8906 Q605.4844,1034.8906 604.8438,1035.2188 Q604.2188,1035.5469 603.7188,1036.2969 Q603.2344,1037.0469 603.2344,1038.0781 L603.2344,1039.1719 Q603.2344,1040.4063 604.125,1041.2344 Q605.0156,1042.0469 606.6094,1042.0469 Q607.5469,1042.0469 608.2031,1041.7969 Q608.5938,1041.6406 609.0156,1041.2031 Q609.2813,1040.9375 609.4219,1040.8594 Q609.5781,1040.7813 609.7813,1040.7813 Q610.1094,1040.7813 610.3594,1041.0469 Q610.625,1041.2969 610.625,1041.6406 Q610.625,1041.9844 610.2813,1042.3906 Q609.7813,1042.9688 608.9844,1043.2969 Q607.9063,1043.75 606.6094,1043.75 Q605.0938,1043.75 603.8906,1043.125 Q602.9063,1042.625 602.2188,1041.5625 Q601.5313,1040.4844 601.5313,1039.2031 L601.5313,1038.0469 Q601.5313,1036.7188 602.1406,1035.5781 Q602.7656,1034.4219 603.8594,1033.8125 Q604.9531,1033.1875 606.1875,1033.1875 Q606.9219,1033.1875 607.5625,1033.3594 Q608.2188,1033.5156 608.7656,1033.875 Z " fill="#000000"/><text fill="#000000" font-family="sans-serif" font-size="14" lengthAdjust="spacing" textLength="35" x="624" y="1043.7285">Cloze</text><line style="stroke:#181818;stroke-width:0.5;" x1="574" x2="679" y1="1054" y2="1054"/><text fill="#000000" font-family="sans-serif" font-size="14" lengthAdjust="spacing" textLength="95" x="579" y="1072.5332">blankCount: int</text><line style="stroke:#181818;stroke-width:0.5;" x1="574" x2="679" y1="1079.6094" y2="1079.6094"/></g><!--class Open--><g id="elem_Open"><rect fill="#F1F1F1" height="48" id="Open" rx="2.5" ry="2.5" style="stroke:#181818;stroke-width:0.5;" width="67" x="715" y="1031"/><ellipse cx="730" cy="1047" fill="#ADD1B2" rx="11" ry="11" style="stroke:#181818;stroke-width:1.0;"/><path d="M732.7656,1042.875 Q732.9219,1042.6563 733.1094,1042.5469 Q733.2969,1042.4375 733.5156,1042.4375 Q733.8906,1042.4375 734.125,1042.7031 Q734.3594,1042.9531 734.3594,1043.5625 L734.3594,1045.0156 Q734.3594,1045.625 734.125,1045.8906 Q733.8906,1046.1563 733.5156,1046.1563 Q733.1719,1046.1563 732.9688,1045.9531 Q732.7656,1045.7656 732.6563,1045.25 Q732.6094,1044.8906 732.4219,1044.7031 Q732.0938,1044.3281 731.4844,1044.1094 Q730.875,1043.8906 730.25,1043.8906 Q729.4844,1043.8906 728.8438,1044.2188 Q728.2188,1044.5469 727.7188,1045.2969 Q727.2344,1046.0469 727.2344,1047.0781 L727.2344,1048.1719 Q727.2344,1049.4063 728.125,1050.2344 Q729.0156,1051.0469 730.6094,1051.0469 Q731.5469,1051.0469 732.2031,1050.7969 Q732.5938,1050.6406 733.0156,1050.2031 Q733.2813,1049.9375 733.4219,1049.8594 Q733.5781,1049.7813 733.7813,1049.7813 Q734.1094,1049.7813 734.3594,1050.0469 Q734.625,1050.2969 734.625,1050.6406 Q734.625,1050.9844 734.2813,1051.3906 Q733.7813,1051.9688 732.9844,1052.2969 Q731.9063,1052.75 730.6094,1052.75 Q729.0938,1052.75 727.8906,1052.125 Q726.9063,1051.625 726.2188,1050.5625 Q725.5313,1049.4844 725.5313,1048.2031 L725.5313,1047.0469 Q725.5313,1045.7188 726.1406,1044.5781 Q726.7656,1043.4219 727.8594,1042.8125 Q728.9531,1042.1875 730.1875,1042.1875 Q730.9219,1042.1875 731.5625,1042.3594 Q732.2188,1042.5156 732.7656,1042.875 Z " fill="#000000"/><text fill="#000000" font-family="sans-serif" font-size="14" lengthAdjust="spacing" textLength="35" x="744" y="1052.7285">Open</text><line style="stroke:#181818;stroke-width:0.5;" x1="716" x2="781" y1="1063" y2="1063"/><line style="stroke:#181818;stroke-width:0.5;" x1="716" x2="781" y1="1071" y2="1071"/></g><!--class Validatable--><g id="elem_Validatable"><rect codeLine="72" fill="#F1F1F1" height="65.6094" id="Validatable" rx="2.5" ry="2.5" style="stroke:#181818;stroke-width:0.5;" width="133" x="279" y="554"/><ellipse cx="307.95" cy="570" fill="#A9DCDF" rx="11" ry="11" style="stroke:#181818;stroke-width:1.0;"/><path d="M310.1375,571.7656 L305.9969,571.7656 L305.575,572.7969 L305.9969,572.7969 Q306.6063,572.7969 306.8719,573.0313 Q307.1375,573.2656 307.1375,573.6563 Q307.1375,574.0313 306.8719,574.2656 Q306.6063,574.5 305.9969,574.5 L303.7,574.5 Q303.0906,574.5 302.8406,574.2656 Q302.575,574.0313 302.575,573.6406 Q302.575,573.2656 302.8563,573.0313 Q303.1219,572.7813 303.7469,572.7969 L306.4188,566.1406 L305.3094,566.1406 Q304.7,566.1406 304.4344,565.9063 Q304.1688,565.6719 304.1688,565.2813 Q304.1688,564.9063 304.4344,564.6719 Q304.7,564.4375 305.3094,564.4375 L308.9813,564.4375 L312.3719,572.7969 Q312.9656,572.7969 313.1531,572.9375 Q313.5438,573.2031 313.5438,573.6563 Q313.5438,574.0313 313.2781,574.2656 Q313.0281,574.5 312.4188,574.5 L310.1219,574.5 Q309.5125,574.5 309.2469,574.2656 Q308.9813,574.0313 308.9813,573.6406 Q308.9813,573.2656 309.2469,573.0313 Q309.5125,572.7969 310.1219,572.7969 L310.5438,572.7969 L310.1375,571.7656 Z M309.4188,570.0625 L308.0594,566.6875 L306.6844,570.0625 L309.4188,570.0625 Z " fill="#000000"/><text fill="#000000" font-family="sans-serif" font-size="14" font-style="italic" lengthAdjust="spacing" textLength="70" x="325.05" y="575.7285">Validatable</text><line style="stroke:#181818;stroke-width:0.5;" x1="280" x2="411" y1="586" y2="586"/><rect fill="none" height="6" style="stroke:#C82930;stroke-width:1.0;" width="6" x="287" y="597.3047"/><text fill="#000000" font-family="sans-serif" font-size="14" lengthAdjust="spacing" textLength="107" x="299" y="604.5332">correct : boolean</text><line style="stroke:#181818;stroke-width:0.5;" x1="280" x2="411" y1="611.6094" y2="611.6094"/></g><!--class Document--><g id="elem_Document"><rect codeLine="93" fill="#F1F1F1" height="48" id="Document" rx="2.5" ry="2.5" style="stroke:#181818;stroke-width:0.5;" width="96" x="1004.5" y="707"/><ellipse cx="1019.5" cy="723" fill="#A9DCDF" rx="11" ry="11" style="stroke:#181818;stroke-width:1.0;"/><path d="M1021.6875,724.7656 L1017.5469,724.7656 L1017.125,725.7969 L1017.5469,725.7969 Q1018.1563,725.7969 1018.4219,726.0313 Q1018.6875,726.2656 1018.6875,726.6563 Q1018.6875,727.0313 1018.4219,727.2656 Q1018.1563,727.5 1017.5469,727.5 L1015.25,727.5 Q1014.6406,727.5 1014.3906,727.2656 Q1014.125,727.0313 1014.125,726.6406 Q1014.125,726.2656 1014.4063,726.0313 Q1014.6719,725.7813 1015.2969,725.7969 L1017.9688,719.1406 L1016.8594,719.1406 Q1016.25,719.1406 1015.9844,718.9063 Q1015.7188,718.6719 1015.7188,718.2813 Q1015.7188,717.9063 1015.9844,717.6719 Q1016.25,717.4375 1016.8594,717.4375 L1020.5313,717.4375 L1023.9219,725.7969 Q1024.5156,725.7969 1024.7031,725.9375 Q1025.0938,726.2031 1025.0938,726.6563 Q1025.0938,727.0313 1024.8281,727.2656 Q1024.5781,727.5 1023.9688,727.5 L1021.6719,727.5 Q1021.0625,727.5 1020.7969,727.2656 Q1020.5313,727.0313 1020.5313,726.6406 Q1020.5313,726.2656 1020.7969,726.0313 Q1021.0625,725.7969 1021.6719,725.7969 L1022.0938,725.7969 L1021.6875,724.7656 Z M1020.9688,723.0625 L1019.6094,719.6875 L1018.2344,723.0625 L1020.9688,723.0625 Z " fill="#000000"/><text fill="#000000" font-family="sans-serif" font-size="14" font-style="italic" lengthAdjust="spacing" textLength="64" x="1033.5" y="728.7285">Document</text><line style="stroke:#181818;stroke-width:0.5;" x1="1005.5" x2="1099.5" y1="739" y2="739"/><line style="stroke:#181818;stroke-width:0.5;" x1="1005.5" x2="1099.5" y1="747" y2="747"/></g><!--class CompositeTopic--><g id="elem_CompositeTopic"><rect codeLine="89" fill="#F1F1F1" height="48" id="CompositeTopic" rx="2.5" ry="2.5" style="stroke:#181818;stroke-width:0.5;" width="134" x="426.5" y="445"/><ellipse cx="441.5" cy="461" fill="#ADD1B2" rx="11" ry="11" style="stroke:#181818;stroke-width:1.0;"/><path d="M444.2656,456.875 Q444.4219,456.6563 444.6094,456.5469 Q444.7969,456.4375 445.0156,456.4375 Q445.3906,456.4375 445.625,456.7031 Q445.8594,456.9531 445.8594,457.5625 L445.8594,459.0156 Q445.8594,459.625 445.625,459.8906 Q445.3906,460.1563 445.0156,460.1563 Q444.6719,460.1563 444.4688,459.9531 Q444.2656,459.7656 444.1563,459.25 Q444.1094,458.8906 443.9219,458.7031 Q443.5938,458.3281 442.9844,458.1094 Q442.375,457.8906 441.75,457.8906 Q440.9844,457.8906 440.3438,458.2188 Q439.7188,458.5469 439.2188,459.2969 Q438.7344,460.0469 438.7344,461.0781 L438.7344,462.1719 Q438.7344,463.4063 439.625,464.2344 Q440.5156,465.0469 442.1094,465.0469 Q443.0469,465.0469 443.7031,464.7969 Q444.0938,464.6406 444.5156,464.2031 Q444.7813,463.9375 444.9219,463.8594 Q445.0781,463.7813 445.2813,463.7813 Q445.6094,463.7813 445.8594,464.0469 Q446.125,464.2969 446.125,464.6406 Q446.125,464.9844 445.7813,465.3906 Q445.2813,465.9688 444.4844,466.2969 Q443.4063,466.75 442.1094,466.75 Q440.5938,466.75 439.3906,466.125 Q438.4063,465.625 437.7188,464.5625 Q437.0313,463.4844 437.0313,462.2031 L437.0313,461.0469 Q437.0313,459.7188 437.6406,458.5781 Q438.2656,457.4219 439.3594,456.8125 Q440.4531,456.1875 441.6875,456.1875 Q442.4219,456.1875 443.0625,456.3594 Q443.7188,456.5156 444.2656,456.875 Z " fill="#000000"/><text fill="#000000" font-family="sans-serif" font-size="14" lengthAdjust="spacing" textLength="102" x="455.5" y="466.7285">CompositeTopic</text><line style="stroke:#181818;stroke-width:0.5;" x1="427.5" x2="559.5" y1="477" y2="477"/><line style="stroke:#181818;stroke-width:0.5;" x1="427.5" x2="559.5" y1="485" y2="485"/></g><!--class SimpleTopic--><g id="elem_SimpleTopic"><rect codeLine="85" fill="#F1F1F1" height="48" id="SimpleTopic" rx="2.5" ry="2.5" style="stroke:#181818;stroke-width:0.5;" width="109" x="634" y="445"/><ellipse cx="649" cy="461" fill="#ADD1B2" rx="11" ry="11" style="stroke:#181818;stroke-width:1.0;"/><path d="M651.7656,456.875 Q651.9219,456.6563 652.1094,456.5469 Q652.2969,456.4375 652.5156,456.4375 Q652.8906,456.4375 653.125,456.7031 Q653.3594,456.9531 653.3594,457.5625 L653.3594,459.0156 Q653.3594,459.625 653.125,459.8906 Q652.8906,460.1563 652.5156,460.1563 Q652.1719,460.1563 651.9688,459.9531 Q651.7656,459.7656 651.6563,459.25 Q651.6094,458.8906 651.4219,458.7031 Q651.0938,458.3281 650.4844,458.1094 Q649.875,457.8906 649.25,457.8906 Q648.4844,457.8906 647.8438,458.2188 Q647.2188,458.5469 646.7188,459.2969 Q646.2344,460.0469 646.2344,461.0781 L646.2344,462.1719 Q646.2344,463.4063 647.125,464.2344 Q648.0156,465.0469 649.6094,465.0469 Q650.5469,465.0469 651.2031,464.7969 Q651.5938,464.6406 652.0156,464.2031 Q652.2813,463.9375 652.4219,463.8594 Q652.5781,463.7813 652.7813,463.7813 Q653.1094,463.7813 653.3594,464.0469 Q653.625,464.2969 653.625,464.6406 Q653.625,464.9844 653.2813,465.3906 Q652.7813,465.9688 651.9844,466.2969 Q650.9063,466.75 649.6094,466.75 Q648.0938,466.75 646.8906,466.125 Q645.9063,465.625 645.2188,464.5625 Q644.5313,463.4844 644.5313,462.2031 L644.5313,461.0469 Q644.5313,459.7188 645.1406,458.5781 Q645.7656,457.4219 646.8594,456.8125 Q647.9531,456.1875 649.1875,456.1875 Q649.9219,456.1875 650.5625,456.3594 Q651.2188,456.5156 651.7656,456.875 Z " fill="#000000"/><text fill="#000000" font-family="sans-serif" font-size="14" lengthAdjust="spacing" textLength="77" x="663" y="466.7285">SimpleTopic</text><line style="stroke:#181818;stroke-width:0.5;" x1="635" x2="742" y1="477" y2="477"/><line style="stroke:#181818;stroke-width:0.5;" x1="635" x2="742" y1="485" y2="485"/></g><!--class Concept--><g id="elem_Concept"><rect codeLine="103" fill="#F1F1F1" height="48" id="Concept" rx="2.5" ry="2.5" style="stroke:#181818;stroke-width:0.5;" width="85" x="675" y="563"/><ellipse cx="690" cy="579" fill="#ADD1B2" rx="11" ry="11" style="stroke:#181818;stroke-width:1.0;"/><path d="M692.7656,574.875 Q692.9219,574.6563 693.1094,574.5469 Q693.2969,574.4375 693.5156,574.4375 Q693.8906,574.4375 694.125,574.7031 Q694.3594,574.9531 694.3594,575.5625 L694.3594,577.0156 Q694.3594,577.625 694.125,577.8906 Q693.8906,578.1563 693.5156,578.1563 Q693.1719,578.1563 692.9688,577.9531 Q692.7656,577.7656 692.6563,577.25 Q692.6094,576.8906 692.4219,576.7031 Q692.0938,576.3281 691.4844,576.1094 Q690.875,575.8906 690.25,575.8906 Q689.4844,575.8906 688.8438,576.2188 Q688.2188,576.5469 687.7188,577.2969 Q687.2344,578.0469 687.2344,579.0781 L687.2344,580.1719 Q687.2344,581.4063 688.125,582.2344 Q689.0156,583.0469 690.6094,583.0469 Q691.5469,583.0469 692.2031,582.7969 Q692.5938,582.6406 693.0156,582.2031 Q693.2813,581.9375 693.4219,581.8594 Q693.5781,581.7813 693.7813,581.7813 Q694.1094,581.7813 694.3594,582.0469 Q694.625,582.2969 694.625,582.6406 Q694.625,582.9844 694.2813,583.3906 Q693.7813,583.9688 692.9844,584.2969 Q691.9063,584.75 690.6094,584.75 Q689.0938,584.75 687.8906,584.125 Q686.9063,583.625 686.2188,582.5625 Q685.5313,581.4844 685.5313,580.2031 L685.5313,579.0469 Q685.5313,577.7188 686.1406,576.5781 Q686.7656,575.4219 687.8594,574.8125 Q688.9531,574.1875 690.1875,574.1875 Q690.9219,574.1875 691.5625,574.3594 Q692.2188,574.5156 692.7656,574.875 Z " fill="#000000"/><text fill="#000000" font-family="sans-serif" font-size="14" lengthAdjust="spacing" textLength="53" x="704" y="584.7285">Concept</text><line style="stroke:#181818;stroke-width:0.5;" x1="676" x2="759" y1="595" y2="595"/><line style="stroke:#181818;stroke-width:0.5;" x1="676" x2="759" y1="603" y2="603"/></g><!--class Audio--><g id="elem_Audio"><rect fill="#F1F1F1" height="48" id="Audio" rx="2.5" ry="2.5" style="stroke:#181818;stroke-width:0.5;" width="68" x="1032.5" y="869"/><ellipse cx="1047.5" cy="885" fill="#ADD1B2" rx="11" ry="11" style="stroke:#181818;stroke-width:1.0;"/><path d="M1050.2656,880.875 Q1050.4219,880.6563 1050.6094,880.5469 Q1050.7969,880.4375 1051.0156,880.4375 Q1051.3906,880.4375 1051.625,880.7031 Q1051.8594,880.9531 1051.8594,881.5625 L1051.8594,883.0156 Q1051.8594,883.625 1051.625,883.8906 Q1051.3906,884.1563 1051.0156,884.1563 Q1050.6719,884.1563 1050.4688,883.9531 Q1050.2656,883.7656 1050.1563,883.25 Q1050.1094,882.8906 1049.9219,882.7031 Q1049.5938,882.3281 1048.9844,882.1094 Q1048.375,881.8906 1047.75,881.8906 Q1046.9844,881.8906 1046.3438,882.2188 Q1045.7188,882.5469 1045.2188,883.2969 Q1044.7344,884.0469 1044.7344,885.0781 L1044.7344,886.1719 Q1044.7344,887.4063 1045.625,888.2344 Q1046.5156,889.0469 1048.1094,889.0469 Q1049.0469,889.0469 1049.7031,888.7969 Q1050.0938,888.6406 1050.5156,888.2031 Q1050.7813,887.9375 1050.9219,887.8594 Q1051.0781,887.7813 1051.2813,887.7813 Q1051.6094,887.7813 1051.8594,888.0469 Q1052.125,888.2969 1052.125,888.6406 Q1052.125,888.9844 1051.7813,889.3906 Q1051.2813,889.9688 1050.4844,890.2969 Q1049.4063,890.75 1048.1094,890.75 Q1046.5938,890.75 1045.3906,890.125 Q1044.4063,889.625 1043.7188,888.5625 Q1043.0313,887.4844 1043.0313,886.2031 L1043.0313,885.0469 Q1043.0313,883.7188 1043.6406,882.5781 Q1044.2656,881.4219 1045.3594,880.8125 Q1046.4531,880.1875 1047.6875,880.1875 Q1048.4219,880.1875 1049.0625,880.3594 Q1049.7188,880.5156 1050.2656,880.875 Z " fill="#000000"/><text fill="#000000" font-family="sans-serif" font-size="14" lengthAdjust="spacing" textLength="36" x="1061.5" y="890.7285">Audio</text><line style="stroke:#181818;stroke-width:0.5;" x1="1033.5" x2="1099.5" y1="901" y2="901"/><line style="stroke:#181818;stroke-width:0.5;" x1="1033.5" x2="1099.5" y1="909" y2="909"/></g><!--class Video--><g id="elem_Video"><rect fill="#F1F1F1" height="48" id="Video" rx="2.5" ry="2.5" style="stroke:#181818;stroke-width:0.5;" width="68" x="1135.5" y="869"/><ellipse cx="1150.5" cy="885" fill="#ADD1B2" rx="11" ry="11" style="stroke:#181818;stroke-width:1.0;"/><path d="M1153.2656,880.875 Q1153.4219,880.6563 1153.6094,880.5469 Q1153.7969,880.4375 1154.0156,880.4375 Q1154.3906,880.4375 1154.625,880.7031 Q1154.8594,880.9531 1154.8594,881.5625 L1154.8594,883.0156 Q1154.8594,883.625 1154.625,883.8906 Q1154.3906,884.1563 1154.0156,884.1563 Q1153.6719,884.1563 1153.4688,883.9531 Q1153.2656,883.7656 1153.1563,883.25 Q1153.1094,882.8906 1152.9219,882.7031 Q1152.5938,882.3281 1151.9844,882.1094 Q1151.375,881.8906 1150.75,881.8906 Q1149.9844,881.8906 1149.3438,882.2188 Q1148.7188,882.5469 1148.2188,883.2969 Q1147.7344,884.0469 1147.7344,885.0781 L1147.7344,886.1719 Q1147.7344,887.4063 1148.625,888.2344 Q1149.5156,889.0469 1151.1094,889.0469 Q1152.0469,889.0469 1152.7031,888.7969 Q1153.0938,888.6406 1153.5156,888.2031 Q1153.7813,887.9375 1153.9219,887.8594 Q1154.0781,887.7813 1154.2813,887.7813 Q1154.6094,887.7813 1154.8594,888.0469 Q1155.125,888.2969 1155.125,888.6406 Q1155.125,888.9844 1154.7813,889.3906 Q1154.2813,889.9688 1153.4844,890.2969 Q1152.4063,890.75 1151.1094,890.75 Q1149.5938,890.75 1148.3906,890.125 Q1147.4063,889.625 1146.7188,888.5625 Q1146.0313,887.4844 1146.0313,886.2031 L1146.0313,885.0469 Q1146.0313,883.7188 1146.6406,882.5781 Q1147.2656,881.4219 1148.3594,880.8125 Q1149.4531,880.1875 1150.6875,880.1875 Q1151.4219,880.1875 1152.0625,880.3594 Q1152.7188,880.5156 1153.2656,880.875 Z " fill="#000000"/><text fill="#000000" font-family="sans-serif" font-size="14" lengthAdjust="spacing" textLength="36" x="1164.5" y="890.7285">Video</text><line style="stroke:#181818;stroke-width:0.5;" x1="1136.5" x2="1202.5" y1="901" y2="901"/><line style="stroke:#181818;stroke-width:0.5;" x1="1136.5" x2="1202.5" y1="909" y2="909"/></g><!--class Image--><g id="elem_Image"><rect fill="#F1F1F1" height="48" id="Image" rx="2.5" ry="2.5" style="stroke:#181818;stroke-width:0.5;" width="70" x="1238.5" y="869"/><ellipse cx="1253.5" cy="885" fill="#ADD1B2" rx="11" ry="11" style="stroke:#181818;stroke-width:1.0;"/><path d="M1256.2656,880.875 Q1256.4219,880.6563 1256.6094,880.5469 Q1256.7969,880.4375 1257.0156,880.4375 Q1257.3906,880.4375 1257.625,880.7031 Q1257.8594,880.9531 1257.8594,881.5625 L1257.8594,883.0156 Q1257.8594,883.625 1257.625,883.8906 Q1257.3906,884.1563 1257.0156,884.1563 Q1256.6719,884.1563 1256.4688,883.9531 Q1256.2656,883.7656 1256.1563,883.25 Q1256.1094,882.8906 1255.9219,882.7031 Q1255.5938,882.3281 1254.9844,882.1094 Q1254.375,881.8906 1253.75,881.8906 Q1252.9844,881.8906 1252.3438,882.2188 Q1251.7188,882.5469 1251.2188,883.2969 Q1250.7344,884.0469 1250.7344,885.0781 L1250.7344,886.1719 Q1250.7344,887.4063 1251.625,888.2344 Q1252.5156,889.0469 1254.1094,889.0469 Q1255.0469,889.0469 1255.7031,888.7969 Q1256.0938,888.6406 1256.5156,888.2031 Q1256.7813,887.9375 1256.9219,887.8594 Q1257.0781,887.7813 1257.2813,887.7813 Q1257.6094,887.7813 1257.8594,888.0469 Q1258.125,888.2969 1258.125,888.6406 Q1258.125,888.9844 1257.7813,889.3906 Q1257.2813,889.9688 1256.4844,890.2969 Q1255.4063,890.75 1254.1094,890.75 Q1252.5938,890.75 1251.3906,890.125 Q1250.4063,889.625 1249.7188,888.5625 Q1249.0313,887.4844 1249.0313,886.2031 L1249.0313,885.0469 Q1249.0313,883.7188 1249.6406,882.5781 Q1250.2656,881.4219 1251.3594,880.8125 Q1252.4531,880.1875 1253.6875,880.1875 Q1254.4219,880.1875 1255.0625,880.3594 Q1255.7188,880.5156 1256.2656,880.875 Z " fill="#000000"/><text fill="#000000" font-family="sans-serif" font-size="14" lengthAdjust="spacing" textLength="38" x="1267.5" y="890.7285">Image</text><line style="stroke:#181818;stroke-width:0.5;" x1="1239.5" x2="1307.5" y1="901" y2="901"/><line style="stroke:#181818;stroke-width:0.5;" x1="1239.5" x2="1307.5" y1="909" y2="909"/></g><!--class Text--><g id="elem_Text"><rect fill="#F1F1F1" height="48" id="Text" rx="2.5" ry="2.5" style="stroke:#181818;stroke-width:0.5;" width="59" x="938" y="869"/><ellipse cx="953" cy="885" fill="#ADD1B2" rx="11" ry="11" style="stroke:#181818;stroke-width:1.0;"/><path d="M955.7656,880.875 Q955.9219,880.6563 956.1094,880.5469 Q956.2969,880.4375 956.5156,880.4375 Q956.8906,880.4375 957.125,880.7031 Q957.3594,880.9531 957.3594,881.5625 L957.3594,883.0156 Q957.3594,883.625 957.125,883.8906 Q956.8906,884.1563 956.5156,884.1563 Q956.1719,884.1563 955.9688,883.9531 Q955.7656,883.7656 955.6563,883.25 Q955.6094,882.8906 955.4219,882.7031 Q955.0938,882.3281 954.4844,882.1094 Q953.875,881.8906 953.25,881.8906 Q952.4844,881.8906 951.8438,882.2188 Q951.2188,882.5469 950.7188,883.2969 Q950.2344,884.0469 950.2344,885.0781 L950.2344,886.1719 Q950.2344,887.4063 951.125,888.2344 Q952.0156,889.0469 953.6094,889.0469 Q954.5469,889.0469 955.2031,888.7969 Q955.5938,888.6406 956.0156,888.2031 Q956.2813,887.9375 956.4219,887.8594 Q956.5781,887.7813 956.7813,887.7813 Q957.1094,887.7813 957.3594,888.0469 Q957.625,888.2969 957.625,888.6406 Q957.625,888.9844 957.2813,889.3906 Q956.7813,889.9688 955.9844,890.2969 Q954.9063,890.75 953.6094,890.75 Q952.0938,890.75 950.8906,890.125 Q949.9063,889.625 949.2188,888.5625 Q948.5313,887.4844 948.5313,886.2031 L948.5313,885.0469 Q948.5313,883.7188 949.1406,882.5781 Q949.7656,881.4219 950.8594,880.8125 Q951.9531,880.1875 953.1875,880.1875 Q953.9219,880.1875 954.5625,880.3594 Q955.2188,880.5156 955.7656,880.875 Z " fill="#000000"/><text fill="#000000" font-family="sans-serif" font-size="14" lengthAdjust="spacing" textLength="27" x="967" y="890.7285">Text</text><line style="stroke:#181818;stroke-width:0.5;" x1="939" x2="996" y1="901" y2="901"/><line style="stroke:#181818;stroke-width:0.5;" x1="939" x2="996" y1="909" y2="909"/></g><!--class Relation--><g id="elem_Relation"><rect codeLine="111" fill="#F1F1F1" height="48" id="Relation" rx="2.5" ry="2.5" style="stroke:#181818;stroke-width:0.5;" width="84" x="616.5" y="707"/><ellipse cx="631.5" cy="723" fill="#ADD1B2" rx="11" ry="11" style="stroke:#181818;stroke-width:1.0;"/><path d="M634.2656,718.875 Q634.4219,718.6563 634.6094,718.5469 Q634.7969,718.4375 635.0156,718.4375 Q635.3906,718.4375 635.625,718.7031 Q635.8594,718.9531 635.8594,719.5625 L635.8594,721.0156 Q635.8594,721.625 635.625,721.8906 Q635.3906,722.1563 635.0156,722.1563 Q634.6719,722.1563 634.4688,721.9531 Q634.2656,721.7656 634.1563,721.25 Q634.1094,720.8906 633.9219,720.7031 Q633.5938,720.3281 632.9844,720.1094 Q632.375,719.8906 631.75,719.8906 Q630.9844,719.8906 630.3438,720.2188 Q629.7188,720.5469 629.2188,721.2969 Q628.7344,722.0469 628.7344,723.0781 L628.7344,724.1719 Q628.7344,725.4063 629.625,726.2344 Q630.5156,727.0469 632.1094,727.0469 Q633.0469,727.0469 633.7031,726.7969 Q634.0938,726.6406 634.5156,726.2031 Q634.7813,725.9375 634.9219,725.8594 Q635.0781,725.7813 635.2813,725.7813 Q635.6094,725.7813 635.8594,726.0469 Q636.125,726.2969 636.125,726.6406 Q636.125,726.9844 635.7813,727.3906 Q635.2813,727.9688 634.4844,728.2969 Q633.4063,728.75 632.1094,728.75 Q630.5938,728.75 629.3906,728.125 Q628.4063,727.625 627.7188,726.5625 Q627.0313,725.4844 627.0313,724.2031 L627.0313,723.0469 Q627.0313,721.7188 627.6406,720.5781 Q628.2656,719.4219 629.3594,718.8125 Q630.4531,718.1875 631.6875,718.1875 Q632.4219,718.1875 633.0625,718.3594 Q633.7188,718.5156 634.2656,718.875 Z " fill="#000000"/><text fill="#000000" font-family="sans-serif" font-size="14" lengthAdjust="spacing" textLength="52" x="645.5" y="728.7285">Relation</text><line style="stroke:#181818;stroke-width:0.5;" x1="617.5" x2="699.5" y1="739" y2="739"/><line style="stroke:#181818;stroke-width:0.5;" x1="617.5" x2="699.5" y1="747" y2="747"/></g><!--class RelationType--><g id="elem_RelationType"><rect codeLine="116" fill="#F1F1F1" height="136.0469" id="RelationType" rx="2.5" ry="2.5" style="stroke:#181818;stroke-width:0.5;" width="116" x="430.5" y="825"/><ellipse cx="445.5" cy="841" fill="#EB937F" rx="11" ry="11" style="stroke:#181818;stroke-width:1.0;"/><path d="M444.3594,841.7969 L444.3594,844.2969 L448.6875,844.2969 L448.6875,843.375 Q448.6875,842.7656 448.9219,842.5 Q449.1719,842.2344 449.5469,842.2344 Q449.9219,842.2344 450.1563,842.5 Q450.3906,842.7656 450.3906,843.375 L450.3906,846 L442.3906,846 Q441.7656,846 441.5,845.7656 Q441.25,845.5313 441.25,845.1406 Q441.25,844.7656 441.5156,844.5313 Q441.7813,844.2969 442.3906,844.2969 L442.6563,844.2969 L442.6563,837.6406 L442.3906,837.6406 Q441.7656,837.6406 441.5,837.4063 Q441.25,837.1719 441.25,836.7813 Q441.25,836.4063 441.5,836.1719 Q441.7656,835.9375 442.3906,835.9375 L450.0156,835.9375 L450.0156,838.5313 Q450.0156,839.1406 449.7813,839.4063 Q449.5625,839.6563 449.1719,839.6563 Q448.7969,839.6563 448.5625,839.4063 Q448.3281,839.1406 448.3281,838.5313 L448.3281,837.6406 L444.3594,837.6406 L444.3594,840.0938 L445.8438,840.0938 Q445.8438,839.4375 445.9688,839.25 Q446.2344,838.8438 446.7031,838.8438 Q447.0781,838.8438 447.3125,839.1094 Q447.5469,839.3594 447.5469,839.9688 L447.5469,841.9375 Q447.5469,842.4844 447.4219,842.6719 Q447.1563,843.0625 446.7031,843.0625 Q446.2344,843.0625 445.9688,842.6563 Q445.8438,842.4688 445.8438,841.7969 L444.3594,841.7969 Z " fill="#000000"/><text fill="#000000" font-family="sans-serif" font-size="14" lengthAdjust="spacing" textLength="84" x="459.5" y="846.7285">RelationType</text><line style="stroke:#181818;stroke-width:0.5;" x1="431.5" x2="545.5" y1="857" y2="857"/><text fill="#000000" font-family="sans-serif" font-size="14" lengthAdjust="spacing" textLength="24" x="436.5" y="875.5332">Use</text><text fill="#000000" font-family="sans-serif" font-size="14" lengthAdjust="spacing" textLength="72" x="436.5" y="893.1426">Association</text><text fill="#000000" font-family="sans-serif" font-size="14" lengthAdjust="spacing" textLength="78" x="436.5" y="910.752">Composition</text><text fill="#000000" font-family="sans-serif" font-size="14" lengthAdjust="spacing" textLength="70" x="436.5" y="928.3613">Inheritance</text><text fill="#000000" font-family="sans-serif" font-size="14" lengthAdjust="spacing" textLength="77" x="436.5" y="945.9707">Aggregation</text><line style="stroke:#181818;stroke-width:0.5;" x1="431.5" x2="545.5" y1="953.0469" y2="953.0469"/></g><!--link EducationPlatform to User--><g id="link_EducationPlatform_User"><path codeLine="2" d="M238.6992,61.1526 C224.0892,69.5926 218.67,73.84 205.5,85 C188.88,99.09 176.7222,113.2767 165.5222,128.0667 " fill="none" id="EducationPlatform-User" style="stroke:#181818;stroke-width:1.0;"/><polygon fill="#181818" points="249.09,55.15,241.8937,54.6877,238.6992,61.1526,245.8955,61.6149,249.09,55.15" style="stroke:#181818;stroke-width:1.0;"/><polygon fill="#181818" points="161.9,132.85,170.5222,128.0899,164.9185,128.8639,164.1445,123.2603,161.9,132.85" style="stroke:#181818;stroke-width:1.0;"/><text fill="#000000" font-family="sans-serif" font-size="13" lengthAdjust="spacing" textLength="8" x="157.0775" y="122.1517">+</text></g><!--link EducationPlatform to Topic--><g id="link_EducationPlatform_Topic"><path codeLine="3" d="M379.3466,59.7209 C397.5266,67.4809 405.14,72.67 420.5,85 C483.78,135.79 492.8439,235.8709 493.6739,282.8109 " fill="none" id="EducationPlatform-Topic" style="stroke:#181818;stroke-width:1.0;"/><polygon fill="#181818" points="368.31,55.01,372.258,61.0443,379.3466,59.7209,375.3986,53.6866,368.31,55.01" style="stroke:#181818;stroke-width:1.0;"/><polygon fill="#181818" points="493.78,288.81,497.6203,279.7407,493.6916,283.8108,489.6215,279.8821,493.78,288.81" style="stroke:#181818;stroke-width:1.0;"/></g><!--link EducationPlatform to Itinerary--><g id="link_EducationPlatform_Itinerary"><path codeLine="4" d="M284.7626,66.8008 C281.5826,81.5608 282.8,88.8 291.5,103 C305.11,125.2 325.5795,136.5381 348.2495,144.2481 " fill="none" id="EducationPlatform-Itinerary" style="stroke:#181818;stroke-width:1.0;"/><polygon fill="#181818" points="287.29,55.07,282.116,60.093,284.7626,66.8008,289.9366,61.7779,287.29,55.07" style="stroke:#181818;stroke-width:1.0;"/><polygon fill="#181818" points="353.93,146.18,346.6972,139.4952,349.1963,144.5701,344.1214,147.0691,353.93,146.18" style="stroke:#181818;stroke-width:1.0;"/><text fill="#000000" font-family="sans-serif" font-size="13" lengthAdjust="spacing" textLength="59" x="292.5" y="99.4951">predefined</text></g><!--link EducationPlatform to Itinerary--><g id="link_EducationPlatform_Itinerary"><path codeLine="5" d="M335.1355,62.7057 C345.6455,71.3557 347.65,74.12 356.5,85 C368.39,99.62 375.9353,112.9752 382.8853,127.5352 " fill="none" id="EducationPlatform-Itinerary-1" style="stroke:#181818;stroke-width:1.0;"/><polygon fill="none" points="325.87,55.08,327.9608,61.9813,335.1355,62.7057,333.0446,55.8044,325.87,55.08" style="stroke:#181818;stroke-width:1.0;"/><polygon fill="#181818" points="385.47,132.95,385.2029,123.1048,383.3161,128.4377,377.9832,126.551,385.47,132.95" style="stroke:#181818;stroke-width:1.0;"/><text fill="#000000" font-family="sans-serif" font-size="13" lengthAdjust="spacing" textLength="43" x="368.5" y="99.4951">custom</text><text fill="#000000" font-family="sans-serif" font-size="13" lengthAdjust="spacing" textLength="5" x="377.2592" y="122.2773">*</text></g><!--link EducationPlatform to Evaluator--><g id="link_EducationPlatform_Evaluator"><path codeLine="6" d="M282.5399,66.5082 C269.0699,105.3682 247.985,166.2309 234.505,205.1209 " fill="none" id="EducationPlatform-Evaluator" style="stroke:#181818;stroke-width:1.0;"/><polygon fill="#181818" points="286.47,55.17,280.7255,59.529,282.5399,66.5082,288.2843,62.1491,286.47,55.17" style="stroke:#181818;stroke-width:1.0;"/><polygon fill="#181818" points="232.54,210.79,239.2669,203.5964,234.1775,206.0657,231.7081,200.9763,232.54,210.79" style="stroke:#181818;stroke-width:1.0;"/></g><!--reverse link User to Teacher--><g id="link_User_Teacher"><path codeLine="12" d="M121.6066,196.3343 C103.5066,225.3643 82.11,259.68 63.97,288.79 " fill="none" id="User-backto-Teacher" style="stroke:#181818;stroke-width:1.0;"/><polygon fill="none" points="131.13,181.06,116.5151,193.1598,126.698,199.5088,131.13,181.06" style="stroke:#181818;stroke-width:1.0;"/></g><!--reverse link User to Student--><g id="link_User_Student"><path codeLine="13" d="M145.5,199.09 C145.5,243.45 145.5,322.1 145.5,366.66 " fill="none" id="User-backto-Student" style="stroke:#181818;stroke-width:1.0;"/><polygon fill="none" points="145.5,181.09,139.5,199.09,151.5,199.09,145.5,181.09" style="stroke:#181818;stroke-width:1.0;"/></g><!--link Student to Application--><g id="link_Student_Application"><path codeLine="21" d="M145.5,427.19 C145.5,453.37 145.5,485.25 145.5,523 C145.5,523 145.5,523 145.5,732 C145.5,781.58 179.3535,819.3158 216.3035,847.5658 " fill="none" id="Student-Application" style="stroke:#FF0000;stroke-width:1.0;"/><polygon fill="#FF0000" points="145.5,415.19,141.5,421.19,145.5,427.19,149.5,421.19,145.5,415.19" style="stroke:#FF0000;stroke-width:1.0;"/><polygon fill="#FF0000" points="221.07,851.21,216.3497,842.566,217.0979,848.1731,211.4907,848.9213,221.07,851.21" style="stroke:#FF0000;stroke-width:1.0;"/><text fill="#000000" font-family="sans-serif" font-size="13" lengthAdjust="spacing" textLength="5" x="205.0843" y="840.7804">*</text></g><!--link Evaluator to Application--><g id="link_Evaluator_Application"><path codeLine="26" d="M222.54,259.2 C220.17,289.33 216.5,343.55 216.5,390 C216.5,390 216.5,390 216.5,732 C216.5,775.46 235.4564,815.2106 255.0164,846.3206 " fill="none" id="Evaluator-to-Application" style="stroke:#181818;stroke-width:1.0;"/><polygon fill="#181818" points="258.21,851.4,256.8058,841.6518,255.5486,847.1671,250.0333,845.9099,258.21,851.4" style="stroke:#181818;stroke-width:1.0;"/></g><!--link Itinerary to Topic--><g id="link_Itinerary_Topic"><path codeLine="30" d="M416.6141,191.1829 C435.0941,220.2129 456.9893,254.6177 475.5093,283.7277 " fill="none" id="Itinerary-Topic" style="stroke:#181818;stroke-width:1.0;"/><polygon fill="none" points="410.17,181.06,410.0177,188.2695,416.6141,191.1829,416.7664,183.9734,410.17,181.06" style="stroke:#181818;stroke-width:1.0;"/><polygon fill="#181818" points="478.73,288.79,477.2738,279.0494,476.0461,284.5714,470.5241,283.3436,478.73,288.79" style="stroke:#181818;stroke-width:1.0;"/><text fill="#000000" font-family="sans-serif" font-size="13" lengthAdjust="spacing" textLength="8" x="465.9202" y="278.0763">+</text></g><!--reverse link Exercise to Domain--><g id="link_Exercise_Domain"><path codeLine="48" d="M804.5,782.38 C804.5,807.49 804.5,824.44 804.5,851.42 " fill="none" id="Exercise-backto-Domain" style="stroke:#181818;stroke-width:1.0;"/><polygon fill="none" points="804.5,764.38,798.5,782.38,810.5,782.38,804.5,764.38" style="stroke:#181818;stroke-width:1.0;"/></g><!--reverse link Exercise to Question--><g id="link_Exercise_Question"><path codeLine="49" d="M747.9202,775.1148 C725.6902,792.4648 712.56,803.6 689.5,825 C674.52,838.9 658.77,855.65 646.76,868.93 " fill="none" id="Exercise-backto-Question" style="stroke:#181818;stroke-width:1.0;"/><polygon fill="none" points="762.11,764.04,744.2286,770.3849,751.6118,779.8447,762.11,764.04" style="stroke:#181818;stroke-width:1.0;"/></g><!--link Exercise to Application--><g id="link_Exercise_Application"><path codeLine="50" d="M724.2337,756.9342 C712.8337,760.9242 712.53,760.87 701.5,764 C568.52,801.78 526.68,778.5 396.5,825 C376.9,832 361.8625,838.738 344.0225,848.508 " fill="none" id="Exercise-Application" style="stroke:#181818;stroke-width:1.0;"/><polygon fill="#181818" points="735.56,752.97,728.5754,751.1767,724.2337,756.9342,731.2183,758.7275,735.56,752.97" style="stroke:#181818;stroke-width:1.0;"/><polygon fill="#181818" points="338.76,851.39,348.5751,850.5754,343.1454,848.9883,344.7324,843.5587,338.76,851.39" style="stroke:#181818;stroke-width:1.0;"/><text fill="#000000" font-family="sans-serif" font-size="13" lengthAdjust="spacing" textLength="8" x="338.5874" y="840.6795">+</text></g><!--link Exercise to Application--><g id="link_Exercise_Application"><path codeLine="51" d="M724.5652,767.3837 C591.8952,805.0037 561.56,778.55 431.5,825 C408.63,833.17 390.1252,842.1163 368.4152,853.4863 " fill="none" id="Exercise-Application-1" style="stroke:#181818;stroke-width:1.0;"/><polygon fill="none" points="736.11,764.11,729.2464,761.8986,724.5652,767.3837,731.4288,769.5951,736.11,764.11" style="stroke:#181818;stroke-width:1.0;"/><polygon fill="#181818" points="363.1,856.27,372.9286,855.6379,367.5293,853.9503,369.217,848.551,363.1,856.27" style="stroke:#181818;stroke-width:1.0;"/><text fill="#000000" font-family="sans-serif" font-size="13" lengthAdjust="spacing" textLength="5" x="371.1541" y="849.1592">*</text></g><!--reverse link Question to MultipleChoice--><g id="link_Question_MultipleChoice"><path codeLine="55" d="M593.1637,930.2782 C581.2237,943.2382 578.18,946.46 564.5,961 C541.99,984.92 515.98,1012.04 497.92,1030.79 " fill="none" id="Question-backto-MultipleChoice" style="stroke:#181818;stroke-width:1.0;"/><polygon fill="none" points="605.36,917.04,588.751,926.2128,597.5764,934.3436,605.36,917.04" style="stroke:#181818;stroke-width:1.0;"/></g><!--reverse link Question to Cloze--><g id="link_Question_Cloze"><path codeLine="56" d="M626.5,935.27 C626.5,962.83 626.5,990.9 626.5,1021.85 " fill="none" id="Question-backto-Cloze" style="stroke:#181818;stroke-width:1.0;"/><polygon fill="none" points="626.5,917.27,620.5,935.27,632.5,935.27,626.5,917.27" style="stroke:#181818;stroke-width:1.0;"/></g><!--reverse link Question to Open--><g id="link_Question_Open"><path codeLine="57" d="M655.1556,931.5826 C678.3556,962.0026 707.83,1000.66 730.94,1030.97 " fill="none" id="Question-backto-Open" style="stroke:#181818;stroke-width:1.0;"/><polygon fill="none" points="644.24,917.27,650.3847,935.2211,659.9264,927.9441,644.24,917.27" style="stroke:#181818;stroke-width:1.0;"/></g><!--reverse link Validatable to Application--><g id="link_Validatable_Application"><path codeLine="75" d="M333.0945,637.5822 C330.7645,647.1822 332.54,640.24 330.5,650 C315.75,720.37 301.79,802.95 293.97,851.18 " fill="none" id="Validatable-backto-Application" style="stroke:#181818;stroke-width:1.0;"/><polygon fill="none" points="337.34,620.09,327.2638,636.167,338.9252,638.9973,337.34,620.09" style="stroke:#181818;stroke-width:1.0;"/></g><!--reverse link Validatable to Definition--><g id="link_Validatable_Definition"><path codeLine="76" d="M427.9544,626.0822 C445.4644,635.2822 447.88,637.85 463.5,650 C484.74,666.52 504.87,689.76 518.41,706.94 " fill="none" id="Validatable-backto-Definition" style="stroke:#181818;stroke-width:1.0;"/><polygon fill="none" points="412.02,617.71,425.1637,631.3937,430.7452,620.7707,412.02,617.71" style="stroke:#181818;stroke-width:1.0;"/></g><!--link Validatable to Justification--><g id="link_Validatable_Justification"><path codeLine="77" d="M337.4997,632.3026 C335.7997,647.2026 337.11,652.95 342.5,668 C347.72,682.56 353.9159,691.7546 363.8859,702.4846 " fill="none" id="Validatable-Justification" style="stroke:#181818;stroke-width:1.0;"/><polygon fill="#181818" points="338.86,620.38,334.2056,625.8879,337.4997,632.3026,342.1541,626.7948,338.86,620.38" style="stroke:#181818;stroke-width:1.0;"/><polygon fill="#181818" points="367.97,706.88,364.7741,697.5641,364.5666,703.2171,358.9135,703.0096,367.97,706.88" style="stroke:#181818;stroke-width:1.0;"/><text fill="#000000" font-family="sans-serif" font-size="13" lengthAdjust="spacing" textLength="115" x="343.5" y="664.4951">[!validatable.correct]</text><text fill="#000000" font-family="sans-serif" font-size="13" lengthAdjust="spacing" textLength="5" x="355.7873" y="696.1894">*</text></g><!--link Topic to Document--><g id="link_Topic_Document"><path codeLine="81" d="M538.106,332.0592 C563.046,342.3292 586.69,352.54 616.5,367 C681.99,398.77 701.9,401.83 760.5,445 C874.29,528.81 984.1346,650.5422 1028.8146,702.1922 " fill="none" id="Topic-Document" style="stroke:#FF0000;stroke-width:1.0;"/><polygon fill="#FF0000" points="527.01,327.49,531.0349,333.4733,538.106,332.0592,534.0811,326.0759,527.01,327.49" style="stroke:#FF0000;stroke-width:1.0;"/><polygon fill="#FF0000" points="1032.74,706.73,1029.8771,697.3064,1029.4688,702.9485,1023.8267,702.5403,1032.74,706.73" style="stroke:#FF0000;stroke-width:1.0;"/><text fill="#000000" font-family="sans-serif" font-size="13" lengthAdjust="spacing" textLength="5" x="1022.0359" y="696.001">*</text></g><!--reverse link Topic to CompositeTopic--><g id="link_Topic_CompositeTopic"><path codeLine="82" d="M481.3686,354.8531 C476.9286,383.8831 479.64,415.68 484.06,444.79 " fill="none" id="Topic-backto-CompositeTopic" style="stroke:#181818;stroke-width:1.0;"/><polygon fill="none" points="484.09,337.06,475.4376,353.946,487.2997,355.7602,484.09,337.06" style="stroke:#181818;stroke-width:1.0;"/></g><!--link CompositeTopic to Topic--><g id="link_CompositeTopic_Topic"><path codeLine="91" d="M505.3987,432.9428 C510.0887,403.8328 509.1309,372.0126 504.4209,342.9826 " fill="none" id="CompositeTopic-Topic" style="stroke:#181818;stroke-width:1.0;"/><polygon fill="none" points="503.49,444.79,508.3934,439.5026,505.3987,432.9428,500.4953,438.2301,503.49,444.79" style="stroke:#181818;stroke-width:1.0;"/><polygon fill="#181818" points="503.46,337.06,500.953,346.5844,504.2608,341.9955,508.8497,345.3032,503.46,337.06" style="stroke:#181818;stroke-width:1.0;"/><text fill="#000000" font-family="sans-serif" font-size="13" lengthAdjust="spacing" textLength="8" x="496.9127" y="358.4126">+</text></g><!--reverse link Topic to SimpleTopic--><g id="link_Topic_SimpleTopic"><path codeLine="83" d="M536.8162,348.2157 C573.5762,377.2457 622.25,415.68 659.11,444.79 " fill="none" id="Topic-backto-SimpleTopic" style="stroke:#181818;stroke-width:1.0;"/><polygon fill="none" points="522.69,337.06,533.0976,352.9245,540.5348,343.507,522.69,337.06" style="stroke:#181818;stroke-width:1.0;"/></g><!--link SimpleTopic to Concept--><g id="link_SimpleTopic_Concept"><path codeLine="87" d="M697.2118,504.8414 C702.2718,525.0714 705.2061,536.7988 710.2561,557.0188 " fill="none" id="SimpleTopic-Concept" style="stroke:#181818;stroke-width:1.0;"/><polygon fill="none" points="694.3,493.2,691.8754,499.9913,697.2118,504.8414,699.6363,498.0501,694.3,493.2" style="stroke:#181818;stroke-width:1.0;"/><polygon fill="#181818" points="711.71,562.84,713.41,553.139,710.4985,557.989,705.6484,555.0774,711.71,562.84" style="stroke:#181818;stroke-width:1.0;"/><text fill="#000000" font-family="sans-serif" font-size="13" lengthAdjust="spacing" textLength="8" x="701.2013" y="552.1392">+</text></g><!--reverse link Document to Audio--><g id="link_Document_Audio"><path codeLine="94" d="M1056.108,773.2016 C1058.768,803.6216 1061.83,838.66 1064.48,868.97 " fill="none" id="Document-backto-Audio" style="stroke:#181818;stroke-width:1.0;"/><polygon fill="none" points="1054.54,755.27,1050.1308,773.7242,1062.0852,772.6789,1054.54,755.27" style="stroke:#181818;stroke-width:1.0;"/></g><!--reverse link Document to Video--><g id="link_Document_Video"><path codeLine="95" d="M1080.1365,769.7985 C1102.3865,800.2185 1130.49,838.66 1152.66,868.97 " fill="none" id="Document-backto-Video" style="stroke:#181818;stroke-width:1.0;"/><polygon fill="none" points="1069.51,755.27,1075.2937,773.3407,1084.9794,766.2563,1069.51,755.27" style="stroke:#181818;stroke-width:1.0;"/></g><!--reverse link Document to Image--><g id="link_Document_Image"><path codeLine="96" d="M1116.9304,759.494 C1152.6504,775.824 1184.96,793.79 1221.5,825 C1236.28,837.62 1249.64,855.04 1259.12,868.96 " fill="none" id="Document-backto-Image" style="stroke:#181818;stroke-width:1.0;"/><polygon fill="none" points="1100.56,752.01,1114.4357,764.9508,1119.4251,754.0372,1100.56,752.01" style="stroke:#181818;stroke-width:1.0;"/></g><!--reverse link Document to Text--><g id="link_Document_Text"><path codeLine="97" d="M1031.6955,771.1662 C1015.5355,801.5862 995.84,838.66 979.74,868.97 " fill="none" id="Document-backto-Text" style="stroke:#181818;stroke-width:1.0;"/><polygon fill="none" points="1040.14,755.27,1026.3967,768.3514,1036.9942,773.9811,1040.14,755.27" style="stroke:#181818;stroke-width:1.0;"/></g><!--link Concept to Definition--><g id="link_Concept_Definition"><path codeLine="105" d="M662.8308,591.4012 C621.3008,595.9312 571.95,608.47 540.5,650 C528.32,666.09 527.5428,683.6619 529.8428,701.0419 " fill="none" id="Concept-Definition" style="stroke:#181818;stroke-width:1.0;"/><polygon fill="#181818" points="674.76,590.1,668.3616,586.7742,662.8308,591.4012,669.2291,594.727,674.76,590.1" style="stroke:#181818;stroke-width:1.0;"/><polygon fill="#181818" points="530.63,706.99,533.4147,697.543,529.974,702.0332,525.4838,698.5926,530.63,706.99" style="stroke:#181818;stroke-width:1.0;"/><text fill="#000000" font-family="sans-serif" font-size="13" lengthAdjust="spacing" textLength="40" x="541.5" y="664.4951">correct</text><text fill="#000000" font-family="sans-serif" font-size="13" lengthAdjust="spacing" textLength="8" x="520.3571" y="696.3276">+</text></g><!--link Concept to Definition--><g id="link_Concept_Definition"><path codeLine="106" d="M669.4013,617.6007 C651.9113,628.7507 641.25,636.21 623.5,650 C600.51,667.86 580.4771,686.1535 563.2271,702.7235 " fill="none" id="Concept-Definition-1" style="stroke:#181818;stroke-width:1.0;"/><polygon fill="#181818" points="679.52,611.15,672.3104,611.0025,669.4013,617.6007,676.6109,617.7483,679.52,611.15" style="stroke:#181818;stroke-width:1.0;"/><polygon fill="#181818" points="558.9,706.88,568.1616,703.53,562.5059,703.4163,562.6196,697.7605,558.9,706.88" style="stroke:#181818;stroke-width:1.0;"/><text fill="#000000" font-family="sans-serif" font-size="13" lengthAdjust="spacing" textLength="50" x="624.5" y="664.4951">incorrect</text><text fill="#000000" font-family="sans-serif" font-size="13" lengthAdjust="spacing" textLength="5" x="559.2556" y="696.1894">*</text></g><!--link Concept to Relation--><g id="link_Concept_Relation"><path codeLine="107" d="M746.8645,620.6644 C759.4645,636.8744 763.58,649.38 753.5,668 C747.43,679.21 728.4025,691.9784 705.9325,704.7884 " fill="none" id="Concept-Relation" style="stroke:#181818;stroke-width:1.0;"/><polygon fill="#181818" points="739.5,611.19,740.0241,618.382,746.8645,620.6644,746.3404,613.4724,739.5,611.19" style="stroke:#181818;stroke-width:1.0;"/><polygon fill="#181818" points="700.72,707.76,710.5197,706.7776,705.0637,705.2837,706.5576,699.8277,700.72,707.76" style="stroke:#181818;stroke-width:1.0;"/><text fill="#000000" font-family="sans-serif" font-size="13" lengthAdjust="spacing" textLength="31" x="757.5" y="664.4951">origin</text><text fill="#000000" font-family="sans-serif" font-size="13" lengthAdjust="spacing" textLength="5" x="708.4063" y="699.916">*</text></g><!--link Relation to Concept--><g id="link_Relation_Concept"><path codeLine="113" d="M668.11,706.88 C679.08,680.48 694.6184,643.081 705.5884,616.671 " fill="none" id="Relation-to-Concept" style="stroke:#181818;stroke-width:1.0;"/><polygon fill="#181818" points="707.89,611.13,700.7436,617.9071,705.972,615.7475,708.1316,620.9759,707.89,611.13" style="stroke:#181818;stroke-width:1.0;"/><text fill="#000000" font-family="sans-serif" font-size="13" lengthAdjust="spacing" textLength="33" x="692.5" y="664.4951">target</text></g><!--link Concept to Document--><g id="link_Concept_Document"><path codeLine="108" d="M771.3188,610.8124 C833.8488,637.3124 933.3057,679.4785 998.7757,707.2285 " fill="none" id="Concept-Document" style="stroke:#FF0000;stroke-width:1.0;"/><polygon fill="#FF0000" points="760.27,606.13,764.2336,612.1541,771.3188,610.8124,767.3552,604.7883,760.27,606.13" style="stroke:#FF0000;stroke-width:1.0;"/><polygon fill="#FF0000" points="1004.3,709.57,997.5746,702.3749,999.6965,707.6187,994.4526,709.7406,1004.3,709.57" style="stroke:#FF0000;stroke-width:1.0;"/><text fill="#000000" font-family="sans-serif" font-size="13" lengthAdjust="spacing" textLength="5" x="991.5366" y="702.5856">*</text></g><!--link Concept to Exercise--><g id="link_Concept_Exercise"><path codeLine="109" d="M770.0272,618.1166 C784.2972,628.1166 788.92,634.27 797.5,650 C805.38,664.44 807.4878,676.57 807.4678,691.91 " fill="none" id="Concept-Exercise" style="stroke:#FF0000;stroke-width:1.0;"/><polygon fill="none" points="760.2,611.23,762.8181,617.9491,770.0272,618.1166,767.4092,611.3976,760.2,611.23" style="stroke:#FF0000;stroke-width:1.0;"/><polygon fill="#FF0000" points="807.46,697.91,811.4717,688.9152,807.4665,692.91,803.4717,688.9048,807.46,697.91" style="stroke:#FF0000;stroke-width:1.0;"/><text fill="#000000" font-family="sans-serif" font-size="13" lengthAdjust="spacing" textLength="5" x="802.5549" y="687.0068">*</text></g><!--link Relation to RelationType--><g id="link_Relation_RelationType"><path codeLine="114" d="M625.0393,763.492 C602.2893,784.892 580.7893,805.1379 551.0593,833.1179 " fill="none" id="Relation-RelationType" style="stroke:#181818;stroke-width:1.0;"/><polygon fill="#181818" points="633.78,755.27,626.669,756.4674,625.0393,763.492,632.1503,762.2945,633.78,755.27" style="stroke:#181818;stroke-width:1.0;"/><polygon fill="#181818" points="546.69,837.23,555.9853,833.9747,550.3311,833.8033,550.5025,828.149,546.69,837.23" style="stroke:#181818;stroke-width:1.0;"/></g><!--SRC=[ZLNDRjim3BxhARJiO223zm11KQ18Wg73XlqawwNeGR4PHvXiUPASjSloxjE_RCSfbaj4yYD5VYJbTTaLH57UV6L4xRceyJpFR_7itGp_a23GUjg-vIqjhXdl5Mr04F625xWLKC9Uo-K4cjkhvhE1Hz59nUjhiTT7mZgYk43P5SIIDmMqweCWxG4XifDAa4BPQaxeZ90vu9k_UOwtG8g3hZ5fDgeheL4eioeJpX1nrxQCkgiGAXYHChZQW4xZNOt67xN_urjT_fCliXyc2vW1No5MBD94YuB5JkIIo3Fm9F7GIDSiZrwPRb3Zh-5O_x8S5rm8q1mjy8vp1gH9PNtKtQ1xV-D_UQnuJMY0vlW8GXhN1QQQMASJyAkZ0cfDWDI6JrIgcuqIjAbkJPpOi_KpY89AYC6a8igwQI_dO0WAADt2alzkSf_2XE5R1z9I5qrJFOv6m-2uSocx4Com7ivkZ3vtJD6MmVB0QG4ZuvBnFsFTbnPYEwtT5RnZfFcvv5sZ77jdhVMeuHMzEUpb-agt79tWHWlA2ulah5EkRP7dLFa3ORGaYkmOXCvC3KGFvihiytXXJ8CviCt36p6OnCNZcsC2lVUtF_Loj4DlUB67yIwkUD6PEV9MrnXUjrnI1MvVUfODhJNLWpNggUpA9p7jdN-9OcC7yOtNK7EniB6MaEtfZCBH4zgLb8zq3xI4iUw-9XMCT5jurgbb8RVqQ9vGTaPPNnCpkwZ8YguKUzGysqrpTVJUcaMOa0daV8IapQlOxy28Ht91AxteGzXqemE6NsB2leUouWMci2ZqlYtwPaL41IfPOuP1itrfTK1ekdgWya-P_hxO_pifUK7THXWvJ4IGxnlzbQ6Aw6iTlge4L0v_nly0]--></g></svg>