<?xml version="1.0" encoding="us-ascii" standalone="no"?><svg xmlns="http://www.w3.org/2000/svg" xmlns:xlink="http://www.w3.org/1999/xlink" contentStyleType="text/css" height="1485px" preserveAspectRatio="none" style="width:1335px;height:1485px;background:#FFFFFF;" version="1.1" viewBox="0 0 1335 1485" width="1335px" zoomAndPan="magnify"><defs/><g><!--class EducationPlatform--><g id="elem_EducationPlatform"><rect fill="#F1F1F1" height="48" id="EducationPlatform" rx="2.5" ry="2.5" style="stroke:#181818;stroke-width:0.5;" width="147" x="318.5" y="7"/><ellipse cx="333.5" cy="23" fill="#ADD1B2" rx="11" ry="11" style="stroke:#181818;stroke-width:1.0;"/><path d="M336.2656,18.875 Q336.4219,18.6563 336.6094,18.5469 Q336.7969,18.4375 337.0156,18.4375 Q337.3906,18.4375 337.625,18.7031 Q337.8594,18.9531 337.8594,19.5625 L337.8594,21.0156 Q337.8594,21.625 337.625,21.8906 Q337.3906,22.1563 337.0156,22.1563 Q336.6719,22.1563 336.4688,21.9531 Q336.2656,21.7656 336.1563,21.25 Q336.1094,20.8906 335.9219,20.7031 Q335.5938,20.3281 334.9844,20.1094 Q334.375,19.8906 333.75,19.8906 Q332.9844,19.8906 332.3438,20.2188 Q331.7188,20.5469 331.2188,21.2969 Q330.7344,22.0469 330.7344,23.0781 L330.7344,24.1719 Q330.7344,25.4063 331.625,26.2344 Q332.5156,27.0469 334.1094,27.0469 Q335.0469,27.0469 335.7031,26.7969 Q336.0938,26.6406 336.5156,26.2031 Q336.7813,25.9375 336.9219,25.8594 Q337.0781,25.7813 337.2813,25.7813 Q337.6094,25.7813 337.8594,26.0469 Q338.125,26.2969 338.125,26.6406 Q338.125,26.9844 337.7813,27.3906 Q337.2813,27.9688 336.4844,28.2969 Q335.4063,28.75 334.1094,28.75 Q332.5938,28.75 331.3906,28.125 Q330.4063,27.625 329.7188,26.5625 Q329.0313,25.4844 329.0313,24.2031 L329.0313,23.0469 Q329.0313,21.7188 329.6406,20.5781 Q330.2656,19.4219 331.3594,18.8125 Q332.4531,18.1875 333.6875,18.1875 Q334.4219,18.1875 335.0625,18.3594 Q335.7188,18.5156 336.2656,18.875 Z " fill="#000000"/><text fill="#000000" font-family="sans-serif" font-size="14" lengthAdjust="spacing" textLength="115" x="347.5" y="28.7285">EducationPlatform</text><line style="stroke:#181818;stroke-width:0.5;" x1="319.5" x2="464.5" y1="39" y2="39"/><line style="stroke:#181818;stroke-width:0.5;" x1="319.5" x2="464.5" y1="47" y2="47"/></g><!--class User--><g id="elem_User"><rect codeLine="8" fill="#F1F1F1" height="48" id="User" rx="2.5" ry="2.5" style="stroke:#181818;stroke-width:0.5;" width="62" x="189" y="116"/><ellipse cx="204" cy="132" fill="#A9DCDF" rx="11" ry="11" style="stroke:#181818;stroke-width:1.0;"/><path d="M206.1875,133.7656 L202.0469,133.7656 L201.625,134.7969 L202.0469,134.7969 Q202.6563,134.7969 202.9219,135.0313 Q203.1875,135.2656 203.1875,135.6563 Q203.1875,136.0313 202.9219,136.2656 Q202.6563,136.5 202.0469,136.5 L199.75,136.5 Q199.1406,136.5 198.8906,136.2656 Q198.625,136.0313 198.625,135.6406 Q198.625,135.2656 198.9063,135.0313 Q199.1719,134.7813 199.7969,134.7969 L202.4688,128.1406 L201.3594,128.1406 Q200.75,128.1406 200.4844,127.9063 Q200.2188,127.6719 200.2188,127.2813 Q200.2188,126.9063 200.4844,126.6719 Q200.75,126.4375 201.3594,126.4375 L205.0313,126.4375 L208.4219,134.7969 Q209.0156,134.7969 209.2031,134.9375 Q209.5938,135.2031 209.5938,135.6563 Q209.5938,136.0313 209.3281,136.2656 Q209.0781,136.5 208.4688,136.5 L206.1719,136.5 Q205.5625,136.5 205.2969,136.2656 Q205.0313,136.0313 205.0313,135.6406 Q205.0313,135.2656 205.2969,135.0313 Q205.5625,134.7969 206.1719,134.7969 L206.5938,134.7969 L206.1875,133.7656 Z M205.4688,132.0625 L204.1094,128.6875 L202.7344,132.0625 L205.4688,132.0625 Z " fill="#000000"/><text fill="#000000" font-family="sans-serif" font-size="14" font-style="italic" lengthAdjust="spacing" textLength="30" x="218" y="137.7285">User</text><line style="stroke:#181818;stroke-width:0.5;" x1="190" x2="250" y1="148" y2="148"/><line style="stroke:#181818;stroke-width:0.5;" x1="190" x2="250" y1="156" y2="156"/></g><!--class Topic--><g id="elem_Topic"><rect codeLine="84" fill="#F1F1F1" height="65.6094" id="Topic" rx="2.5" ry="2.5" style="stroke:#181818;stroke-width:0.5;" width="209" x="362.5" y="369"/><ellipse cx="445.25" cy="385" fill="#A9DCDF" rx="11" ry="11" style="stroke:#181818;stroke-width:1.0;"/><path d="M447.4375,386.7656 L443.2969,386.7656 L442.875,387.7969 L443.2969,387.7969 Q443.9063,387.7969 444.1719,388.0313 Q444.4375,388.2656 444.4375,388.6563 Q444.4375,389.0313 444.1719,389.2656 Q443.9063,389.5 443.2969,389.5 L441,389.5 Q440.3906,389.5 440.1406,389.2656 Q439.875,389.0313 439.875,388.6406 Q439.875,388.2656 440.1563,388.0313 Q440.4219,387.7813 441.0469,387.7969 L443.7188,381.1406 L442.6094,381.1406 Q442,381.1406 441.7344,380.9063 Q441.4688,380.6719 441.4688,380.2813 Q441.4688,379.9063 441.7344,379.6719 Q442,379.4375 442.6094,379.4375 L446.2813,379.4375 L449.6719,387.7969 Q450.2656,387.7969 450.4531,387.9375 Q450.8438,388.2031 450.8438,388.6563 Q450.8438,389.0313 450.5781,389.2656 Q450.3281,389.5 449.7188,389.5 L447.4219,389.5 Q446.8125,389.5 446.5469,389.2656 Q446.2813,389.0313 446.2813,388.6406 Q446.2813,388.2656 446.5469,388.0313 Q446.8125,387.7969 447.4219,387.7969 L447.8438,387.7969 L447.4375,386.7656 Z M446.7188,385.0625 L445.3594,381.6875 L443.9844,385.0625 L446.7188,385.0625 Z " fill="#000000"/><text fill="#000000" font-family="sans-serif" font-size="14" font-style="italic" lengthAdjust="spacing" textLength="35" x="465.75" y="390.7285">Topic</text><line style="stroke:#181818;stroke-width:0.5;" x1="363.5" x2="570.5" y1="401" y2="401"/><rect fill="none" height="6" style="stroke:#C82930;stroke-width:1.0;" width="6" x="370.5" y="412.3047"/><text fill="#000000" font-family="sans-serif" font-size="14" lengthAdjust="spacing" textLength="183" x="382.5" y="419.5332">documents : List&lt;Document&gt;</text><line style="stroke:#181818;stroke-width:0.5;" x1="363.5" x2="570.5" y1="426.6094" y2="426.6094"/></g><!--class Itinerary--><g id="elem_Itinerary"><rect codeLine="27" fill="#F1F1F1" height="83.2188" id="Itinerary" rx="2.5" ry="2.5" style="stroke:#181818;stroke-width:0.5;" width="148" x="393" y="225"/><ellipse cx="437.25" cy="241" fill="#ADD1B2" rx="11" ry="11" style="stroke:#181818;stroke-width:1.0;"/><path d="M440.0156,236.875 Q440.1719,236.6563 440.3594,236.5469 Q440.5469,236.4375 440.7656,236.4375 Q441.1406,236.4375 441.375,236.7031 Q441.6094,236.9531 441.6094,237.5625 L441.6094,239.0156 Q441.6094,239.625 441.375,239.8906 Q441.1406,240.1563 440.7656,240.1563 Q440.4219,240.1563 440.2188,239.9531 Q440.0156,239.7656 439.9063,239.25 Q439.8594,238.8906 439.6719,238.7031 Q439.3438,238.3281 438.7344,238.1094 Q438.125,237.8906 437.5,237.8906 Q436.7344,237.8906 436.0938,238.2188 Q435.4688,238.5469 434.9688,239.2969 Q434.4844,240.0469 434.4844,241.0781 L434.4844,242.1719 Q434.4844,243.4063 435.375,244.2344 Q436.2656,245.0469 437.8594,245.0469 Q438.7969,245.0469 439.4531,244.7969 Q439.8438,244.6406 440.2656,244.2031 Q440.5313,243.9375 440.6719,243.8594 Q440.8281,243.7813 441.0313,243.7813 Q441.3594,243.7813 441.6094,244.0469 Q441.875,244.2969 441.875,244.6406 Q441.875,244.9844 441.5313,245.3906 Q441.0313,245.9688 440.2344,246.2969 Q439.1563,246.75 437.8594,246.75 Q436.3438,246.75 435.1406,246.125 Q434.1563,245.625 433.4688,244.5625 Q432.7813,243.4844 432.7813,242.2031 L432.7813,241.0469 Q432.7813,239.7188 433.3906,238.5781 Q434.0156,237.4219 435.1094,236.8125 Q436.2031,236.1875 437.4375,236.1875 Q438.1719,236.1875 438.8125,236.3594 Q439.4688,236.5156 440.0156,236.875 Z " fill="#000000"/><text fill="#000000" font-family="sans-serif" font-size="14" lengthAdjust="spacing" textLength="51" x="457.75" y="246.7285">Itinerary</text><line style="stroke:#181818;stroke-width:0.5;" x1="394" x2="540" y1="257" y2="257"/><rect fill="none" height="6" style="stroke:#C82930;stroke-width:1.0;" width="6" x="401" y="268.3047"/><text fill="#000000" font-family="sans-serif" font-size="14" lengthAdjust="spacing" textLength="108" x="413" y="275.5332">custom : boolean</text><rect fill="none" height="6" style="stroke:#C82930;stroke-width:1.0;" width="6" x="401" y="285.9141"/><text fill="#000000" font-family="sans-serif" font-size="14" lengthAdjust="spacing" textLength="122" x="413" y="293.1426">topics : List&lt;Topic&gt;</text><line style="stroke:#181818;stroke-width:0.5;" x1="394" x2="540" y1="300.2188" y2="300.2188"/></g><!--class Chat--><g id="elem_Chat"><rect codeLine="23" fill="#F1F1F1" height="48" id="Chat" rx="2.5" ry="2.5" style="stroke:#181818;stroke-width:0.5;" width="62" x="296" y="242.5"/><ellipse cx="311" cy="258.5" fill="#ADD1B2" rx="11" ry="11" style="stroke:#181818;stroke-width:1.0;"/><path d="M313.7656,254.375 Q313.9219,254.1563 314.1094,254.0469 Q314.2969,253.9375 314.5156,253.9375 Q314.8906,253.9375 315.125,254.2031 Q315.3594,254.4531 315.3594,255.0625 L315.3594,256.5156 Q315.3594,257.125 315.125,257.3906 Q314.8906,257.6563 314.5156,257.6563 Q314.1719,257.6563 313.9688,257.4531 Q313.7656,257.2656 313.6563,256.75 Q313.6094,256.3906 313.4219,256.2031 Q313.0938,255.8281 312.4844,255.6094 Q311.875,255.3906 311.25,255.3906 Q310.4844,255.3906 309.8438,255.7188 Q309.2188,256.0469 308.7188,256.7969 Q308.2344,257.5469 308.2344,258.5781 L308.2344,259.6719 Q308.2344,260.9063 309.125,261.7344 Q310.0156,262.5469 311.6094,262.5469 Q312.5469,262.5469 313.2031,262.2969 Q313.5938,262.1406 314.0156,261.7031 Q314.2813,261.4375 314.4219,261.3594 Q314.5781,261.2813 314.7813,261.2813 Q315.1094,261.2813 315.3594,261.5469 Q315.625,261.7969 315.625,262.1406 Q315.625,262.4844 315.2813,262.8906 Q314.7813,263.4688 313.9844,263.7969 Q312.9063,264.25 311.6094,264.25 Q310.0938,264.25 308.8906,263.625 Q307.9063,263.125 307.2188,262.0625 Q306.5313,260.9844 306.5313,259.7031 L306.5313,258.5469 Q306.5313,257.2188 307.1406,256.0781 Q307.7656,254.9219 308.8594,254.3125 Q309.9531,253.6875 311.1875,253.6875 Q311.9219,253.6875 312.5625,253.8594 Q313.2188,254.0156 313.7656,254.375 Z " fill="#000000"/><text fill="#000000" font-family="sans-serif" font-size="14" lengthAdjust="spacing" textLength="30" x="325" y="264.2285">Chat</text><line style="stroke:#181818;stroke-width:0.5;" x1="297" x2="357" y1="274.5" y2="274.5"/><line style="stroke:#181818;stroke-width:0.5;" x1="297" x2="357" y1="282.5" y2="282.5"/></g><!--class Teacher--><g id="elem_Teacher"><rect codeLine="17" fill="#F1F1F1" height="48" id="Teacher" rx="2.5" ry="2.5" style="stroke:#181818;stroke-width:0.5;" width="85" x="59.5" y="242.5"/><ellipse cx="74.5" cy="258.5" fill="#ADD1B2" rx="11" ry="11" style="stroke:#181818;stroke-width:1.0;"/><path d="M77.2656,254.375 Q77.4219,254.1563 77.6094,254.0469 Q77.7969,253.9375 78.0156,253.9375 Q78.3906,253.9375 78.625,254.2031 Q78.8594,254.4531 78.8594,255.0625 L78.8594,256.5156 Q78.8594,257.125 78.625,257.3906 Q78.3906,257.6563 78.0156,257.6563 Q77.6719,257.6563 77.4688,257.4531 Q77.2656,257.2656 77.1563,256.75 Q77.1094,256.3906 76.9219,256.2031 Q76.5938,255.8281 75.9844,255.6094 Q75.375,255.3906 74.75,255.3906 Q73.9844,255.3906 73.3438,255.7188 Q72.7188,256.0469 72.2188,256.7969 Q71.7344,257.5469 71.7344,258.5781 L71.7344,259.6719 Q71.7344,260.9063 72.625,261.7344 Q73.5156,262.5469 75.1094,262.5469 Q76.0469,262.5469 76.7031,262.2969 Q77.0938,262.1406 77.5156,261.7031 Q77.7813,261.4375 77.9219,261.3594 Q78.0781,261.2813 78.2813,261.2813 Q78.6094,261.2813 78.8594,261.5469 Q79.125,261.7969 79.125,262.1406 Q79.125,262.4844 78.7813,262.8906 Q78.2813,263.4688 77.4844,263.7969 Q76.4063,264.25 75.1094,264.25 Q73.5938,264.25 72.3906,263.625 Q71.4063,263.125 70.7188,262.0625 Q70.0313,260.9844 70.0313,259.7031 L70.0313,258.5469 Q70.0313,257.2188 70.6406,256.0781 Q71.2656,254.9219 72.3594,254.3125 Q73.4531,253.6875 74.6875,253.6875 Q75.4219,253.6875 76.0625,253.8594 Q76.7188,254.0156 77.2656,254.375 Z " fill="#000000"/><text fill="#000000" font-family="sans-serif" font-size="14" lengthAdjust="spacing" textLength="53" x="88.5" y="264.2285">Teacher</text><line style="stroke:#181818;stroke-width:0.5;" x1="60.5" x2="143.5" y1="274.5" y2="274.5"/><line style="stroke:#181818;stroke-width:0.5;" x1="60.5" x2="143.5" y1="282.5" y2="282.5"/></g><!--class Student--><g id="elem_Student"><rect codeLine="20" fill="#F1F1F1" height="48" id="Student" rx="2.5" ry="2.5" style="stroke:#181818;stroke-width:0.5;" width="81" x="179.5" y="242.5"/><ellipse cx="194.5" cy="258.5" fill="#ADD1B2" rx="11" ry="11" style="stroke:#181818;stroke-width:1.0;"/><path d="M197.2656,254.375 Q197.4219,254.1563 197.6094,254.0469 Q197.7969,253.9375 198.0156,253.9375 Q198.3906,253.9375 198.625,254.2031 Q198.8594,254.4531 198.8594,255.0625 L198.8594,256.5156 Q198.8594,257.125 198.625,257.3906 Q198.3906,257.6563 198.0156,257.6563 Q197.6719,257.6563 197.4688,257.4531 Q197.2656,257.2656 197.1563,256.75 Q197.1094,256.3906 196.9219,256.2031 Q196.5938,255.8281 195.9844,255.6094 Q195.375,255.3906 194.75,255.3906 Q193.9844,255.3906 193.3438,255.7188 Q192.7188,256.0469 192.2188,256.7969 Q191.7344,257.5469 191.7344,258.5781 L191.7344,259.6719 Q191.7344,260.9063 192.625,261.7344 Q193.5156,262.5469 195.1094,262.5469 Q196.0469,262.5469 196.7031,262.2969 Q197.0938,262.1406 197.5156,261.7031 Q197.7813,261.4375 197.9219,261.3594 Q198.0781,261.2813 198.2813,261.2813 Q198.6094,261.2813 198.8594,261.5469 Q199.125,261.7969 199.125,262.1406 Q199.125,262.4844 198.7813,262.8906 Q198.2813,263.4688 197.4844,263.7969 Q196.4063,264.25 195.1094,264.25 Q193.5938,264.25 192.3906,263.625 Q191.4063,263.125 190.7188,262.0625 Q190.0313,260.9844 190.0313,259.7031 L190.0313,258.5469 Q190.0313,257.2188 190.6406,256.0781 Q191.2656,254.9219 192.3594,254.3125 Q193.4531,253.6875 194.6875,253.6875 Q195.4219,253.6875 196.0625,253.8594 Q196.7188,254.0156 197.2656,254.375 Z " fill="#000000"/><text fill="#000000" font-family="sans-serif" font-size="14" lengthAdjust="spacing" textLength="49" x="208.5" y="264.2285">Student</text><line style="stroke:#181818;stroke-width:0.5;" x1="180.5" x2="259.5" y1="274.5" y2="274.5"/><line style="stroke:#181818;stroke-width:0.5;" x1="180.5" x2="259.5" y1="282.5" y2="282.5"/></g><!--class Solution--><g id="elem_Solution"><rect codeLine="73" fill="#F1F1F1" height="83.2188" id="Solution" rx="2.5" ry="2.5" style="stroke:#181818;stroke-width:0.5;" width="151" x="213.5" y="1252"/><ellipse cx="259.25" cy="1268" fill="#ADD1B2" rx="11" ry="11" style="stroke:#181818;stroke-width:1.0;"/><path d="M262.0156,1263.875 Q262.1719,1263.6563 262.3594,1263.5469 Q262.5469,1263.4375 262.7656,1263.4375 Q263.1406,1263.4375 263.375,1263.7031 Q263.6094,1263.9531 263.6094,1264.5625 L263.6094,1266.0156 Q263.6094,1266.625 263.375,1266.8906 Q263.1406,1267.1563 262.7656,1267.1563 Q262.4219,1267.1563 262.2188,1266.9531 Q262.0156,1266.7656 261.9063,1266.25 Q261.8594,1265.8906 261.6719,1265.7031 Q261.3438,1265.3281 260.7344,1265.1094 Q260.125,1264.8906 259.5,1264.8906 Q258.7344,1264.8906 258.0938,1265.2188 Q257.4688,1265.5469 256.9688,1266.2969 Q256.4844,1267.0469 256.4844,1268.0781 L256.4844,1269.1719 Q256.4844,1270.4063 257.375,1271.2344 Q258.2656,1272.0469 259.8594,1272.0469 Q260.7969,1272.0469 261.4531,1271.7969 Q261.8438,1271.6406 262.2656,1271.2031 Q262.5313,1270.9375 262.6719,1270.8594 Q262.8281,1270.7813 263.0313,1270.7813 Q263.3594,1270.7813 263.6094,1271.0469 Q263.875,1271.2969 263.875,1271.6406 Q263.875,1271.9844 263.5313,1272.3906 Q263.0313,1272.9688 262.2344,1273.2969 Q261.1563,1273.75 259.8594,1273.75 Q258.3438,1273.75 257.1406,1273.125 Q256.1563,1272.625 255.4688,1271.5625 Q254.7813,1270.4844 254.7813,1269.2031 L254.7813,1268.0469 Q254.7813,1266.7188 255.3906,1265.5781 Q256.0156,1264.4219 257.1094,1263.8125 Q258.2031,1263.1875 259.4375,1263.1875 Q260.1719,1263.1875 260.8125,1263.3594 Q261.4688,1263.5156 262.0156,1263.875 Z " fill="#000000"/><text fill="#000000" font-family="sans-serif" font-size="14" lengthAdjust="spacing" textLength="51" x="279.75" y="1273.7285">Solution</text><line style="stroke:#181818;stroke-width:0.5;" x1="214.5" x2="363.5" y1="1284" y2="1284"/><rect fill="none" height="6" style="stroke:#C82930;stroke-width:1.0;" width="6" x="221.5" y="1295.3047"/><text fill="#000000" font-family="sans-serif" font-size="14" lengthAdjust="spacing" textLength="107" x="233.5" y="1302.5332">correct : boolean</text><rect fill="none" height="6" style="stroke:#C82930;stroke-width:1.0;" width="6" x="221.5" y="1312.9141"/><text fill="#000000" font-family="sans-serif" font-size="14" lengthAdjust="spacing" textLength="125" x="233.5" y="1320.1426">evaluated : boolean</text><line style="stroke:#181818;stroke-width:0.5;" x1="214.5" x2="363.5" y1="1327.2188" y2="1327.2188"/></g><!--class Definition--><g id="elem_Definition"><rect codeLine="33" fill="#F1F1F1" height="65.6094" id="Definition" rx="2.5" ry="2.5" style="stroke:#181818;stroke-width:0.5;" width="133" x="213.5" y="792.5"/><ellipse cx="247.4" cy="808.5" fill="#ADD1B2" rx="11" ry="11" style="stroke:#181818;stroke-width:1.0;"/><path d="M250.1656,804.375 Q250.3219,804.1563 250.5094,804.0469 Q250.6969,803.9375 250.9156,803.9375 Q251.2906,803.9375 251.525,804.2031 Q251.7594,804.4531 251.7594,805.0625 L251.7594,806.5156 Q251.7594,807.125 251.525,807.3906 Q251.2906,807.6563 250.9156,807.6563 Q250.5719,807.6563 250.3688,807.4531 Q250.1656,807.2656 250.0563,806.75 Q250.0094,806.3906 249.8219,806.2031 Q249.4938,805.8281 248.8844,805.6094 Q248.275,805.3906 247.65,805.3906 Q246.8844,805.3906 246.2438,805.7188 Q245.6188,806.0469 245.1188,806.7969 Q244.6344,807.5469 244.6344,808.5781 L244.6344,809.6719 Q244.6344,810.9063 245.525,811.7344 Q246.4156,812.5469 248.0094,812.5469 Q248.9469,812.5469 249.6031,812.2969 Q249.9938,812.1406 250.4156,811.7031 Q250.6813,811.4375 250.8219,811.3594 Q250.9781,811.2813 251.1813,811.2813 Q251.5094,811.2813 251.7594,811.5469 Q252.025,811.7969 252.025,812.1406 Q252.025,812.4844 251.6813,812.8906 Q251.1813,813.4688 250.3844,813.7969 Q249.3063,814.25 248.0094,814.25 Q246.4938,814.25 245.2906,813.625 Q244.3063,813.125 243.6188,812.0625 Q242.9313,810.9844 242.9313,809.7031 L242.9313,808.5469 Q242.9313,807.2188 243.5406,806.0781 Q244.1656,804.9219 245.2594,804.3125 Q246.3531,803.6875 247.5875,803.6875 Q248.3219,803.6875 248.9625,803.8594 Q249.6188,804.0156 250.1656,804.375 Z " fill="#000000"/><text fill="#000000" font-family="sans-serif" font-size="14" lengthAdjust="spacing" textLength="59" x="265.6" y="814.2285">Definition</text><line style="stroke:#181818;stroke-width:0.5;" x1="214.5" x2="345.5" y1="824.5" y2="824.5"/><rect fill="none" height="6" style="stroke:#C82930;stroke-width:1.0;" width="6" x="221.5" y="835.8047"/><text fill="#000000" font-family="sans-serif" font-size="14" lengthAdjust="spacing" textLength="107" x="233.5" y="843.0332">correct : boolean</text><line style="stroke:#181818;stroke-width:0.5;" x1="214.5" x2="345.5" y1="850.1094" y2="850.1094"/></g><!--class Justification--><g id="elem_Justification"><rect codeLine="38" fill="#F1F1F1" height="65.6094" id="Justification" rx="2.5" ry="2.5" style="stroke:#181818;stroke-width:0.5;" width="133" x="56.5" y="1413"/><ellipse cx="84.1" cy="1429" fill="#ADD1B2" rx="11" ry="11" style="stroke:#181818;stroke-width:1.0;"/><path d="M86.8656,1424.875 Q87.0219,1424.6563 87.2094,1424.5469 Q87.3969,1424.4375 87.6156,1424.4375 Q87.9906,1424.4375 88.225,1424.7031 Q88.4594,1424.9531 88.4594,1425.5625 L88.4594,1427.0156 Q88.4594,1427.625 88.225,1427.8906 Q87.9906,1428.1563 87.6156,1428.1563 Q87.2719,1428.1563 87.0688,1427.9531 Q86.8656,1427.7656 86.7563,1427.25 Q86.7094,1426.8906 86.5219,1426.7031 Q86.1938,1426.3281 85.5844,1426.1094 Q84.975,1425.8906 84.35,1425.8906 Q83.5844,1425.8906 82.9438,1426.2188 Q82.3188,1426.5469 81.8188,1427.2969 Q81.3344,1428.0469 81.3344,1429.0781 L81.3344,1430.1719 Q81.3344,1431.4063 82.225,1432.2344 Q83.1156,1433.0469 84.7094,1433.0469 Q85.6469,1433.0469 86.3031,1432.7969 Q86.6938,1432.6406 87.1156,1432.2031 Q87.3813,1431.9375 87.5219,1431.8594 Q87.6781,1431.7813 87.8813,1431.7813 Q88.2094,1431.7813 88.4594,1432.0469 Q88.725,1432.2969 88.725,1432.6406 Q88.725,1432.9844 88.3813,1433.3906 Q87.8813,1433.9688 87.0844,1434.2969 Q86.0063,1434.75 84.7094,1434.75 Q83.1938,1434.75 81.9906,1434.125 Q81.0063,1433.625 80.3188,1432.5625 Q79.6313,1431.4844 79.6313,1430.2031 L79.6313,1429.0469 Q79.6313,1427.7188 80.2406,1426.5781 Q80.8656,1425.4219 81.9594,1424.8125 Q83.0531,1424.1875 84.2875,1424.1875 Q85.0219,1424.1875 85.6625,1424.3594 Q86.3188,1424.5156 86.8656,1424.875 Z " fill="#000000"/><text fill="#000000" font-family="sans-serif" font-size="14" lengthAdjust="spacing" textLength="73" x="100.9" y="1434.7285">Justification</text><line style="stroke:#181818;stroke-width:0.5;" x1="57.5" x2="188.5" y1="1445" y2="1445"/><rect fill="none" height="6" style="stroke:#C82930;stroke-width:1.0;" width="6" x="64.5" y="1456.3047"/><text fill="#000000" font-family="sans-serif" font-size="14" lengthAdjust="spacing" textLength="107" x="76.5" y="1463.5332">correct : boolean</text><line style="stroke:#181818;stroke-width:0.5;" x1="57.5" x2="188.5" y1="1470.6094" y2="1470.6094"/></g><!--class Domain--><g id="elem_Domain"><rect codeLine="42" fill="#F1F1F1" height="83.2188" id="Domain" rx="2.5" ry="2.5" style="stroke:#181818;stroke-width:0.5;" width="196" x="376" y="954.5"/><ellipse cx="445.75" cy="970.5" fill="#ADD1B2" rx="11" ry="11" style="stroke:#181818;stroke-width:1.0;"/><path d="M448.5156,966.375 Q448.6719,966.1563 448.8594,966.0469 Q449.0469,965.9375 449.2656,965.9375 Q449.6406,965.9375 449.875,966.2031 Q450.1094,966.4531 450.1094,967.0625 L450.1094,968.5156 Q450.1094,969.125 449.875,969.3906 Q449.6406,969.6563 449.2656,969.6563 Q448.9219,969.6563 448.7188,969.4531 Q448.5156,969.2656 448.4063,968.75 Q448.3594,968.3906 448.1719,968.2031 Q447.8438,967.8281 447.2344,967.6094 Q446.625,967.3906 446,967.3906 Q445.2344,967.3906 444.5938,967.7188 Q443.9688,968.0469 443.4688,968.7969 Q442.9844,969.5469 442.9844,970.5781 L442.9844,971.6719 Q442.9844,972.9063 443.875,973.7344 Q444.7656,974.5469 446.3594,974.5469 Q447.2969,974.5469 447.9531,974.2969 Q448.3438,974.1406 448.7656,973.7031 Q449.0313,973.4375 449.1719,973.3594 Q449.3281,973.2813 449.5313,973.2813 Q449.8594,973.2813 450.1094,973.5469 Q450.375,973.7969 450.375,974.1406 Q450.375,974.4844 450.0313,974.8906 Q449.5313,975.4688 448.7344,975.7969 Q447.6563,976.25 446.3594,976.25 Q444.8438,976.25 443.6406,975.625 Q442.6563,975.125 441.9688,974.0625 Q441.2813,972.9844 441.2813,971.7031 L441.2813,970.5469 Q441.2813,969.2188 441.8906,968.0781 Q442.5156,966.9219 443.6094,966.3125 Q444.7031,965.6875 445.9375,965.6875 Q446.6719,965.6875 447.3125,965.8594 Q447.9688,966.0156 448.5156,966.375 Z " fill="#000000"/><text fill="#000000" font-family="sans-serif" font-size="14" lengthAdjust="spacing" textLength="48" x="466.25" y="976.2285">Domain</text><line style="stroke:#181818;stroke-width:0.5;" x1="377" x2="571" y1="986.5" y2="986.5"/><rect fill="none" height="6" style="stroke:#C82930;stroke-width:1.0;" width="6" x="384" y="997.8047"/><text fill="#000000" font-family="sans-serif" font-size="14" lengthAdjust="spacing" textLength="73" x="396" y="1005.0332">version : int</text><rect fill="none" height="6" style="stroke:#C82930;stroke-width:1.0;" width="6" x="384" y="1015.4141"/><text fill="#000000" font-family="sans-serif" font-size="14" lengthAdjust="spacing" textLength="170" x="396" y="1022.6426">requirements : List&lt;String&gt;</text><line style="stroke:#181818;stroke-width:0.5;" x1="377" x2="571" y1="1029.7188" y2="1029.7188"/></g><!--class Exercise--><g id="elem_Exercise"><rect codeLine="48" fill="#F1F1F1" height="65.6094" id="Exercise" rx="2.5" ry="2.5" style="stroke:#181818;stroke-width:0.5;" width="185" x="381.5" y="792.5"/><ellipse cx="443.25" cy="808.5" fill="#A9DCDF" rx="11" ry="11" style="stroke:#181818;stroke-width:1.0;"/><path d="M445.4375,810.2656 L441.2969,810.2656 L440.875,811.2969 L441.2969,811.2969 Q441.9063,811.2969 442.1719,811.5313 Q442.4375,811.7656 442.4375,812.1563 Q442.4375,812.5313 442.1719,812.7656 Q441.9063,813 441.2969,813 L439,813 Q438.3906,813 438.1406,812.7656 Q437.875,812.5313 437.875,812.1406 Q437.875,811.7656 438.1563,811.5313 Q438.4219,811.2813 439.0469,811.2969 L441.7188,804.6406 L440.6094,804.6406 Q440,804.6406 439.7344,804.4063 Q439.4688,804.1719 439.4688,803.7813 Q439.4688,803.4063 439.7344,803.1719 Q440,802.9375 440.6094,802.9375 L444.2813,802.9375 L447.6719,811.2969 Q448.2656,811.2969 448.4531,811.4375 Q448.8438,811.7031 448.8438,812.1563 Q448.8438,812.5313 448.5781,812.7656 Q448.3281,813 447.7188,813 L445.4219,813 Q444.8125,813 444.5469,812.7656 Q444.2813,812.5313 444.2813,812.1406 Q444.2813,811.7656 444.5469,811.5313 Q444.8125,811.2969 445.4219,811.2969 L445.8438,811.2969 L445.4375,810.2656 Z M444.7188,808.5625 L443.3594,805.1875 L441.9844,808.5625 L444.7188,808.5625 Z " fill="#000000"/><text fill="#000000" font-family="sans-serif" font-size="14" font-style="italic" lengthAdjust="spacing" textLength="53" x="463.75" y="814.2285">Exercise</text><line style="stroke:#181818;stroke-width:0.5;" x1="382.5" x2="565.5" y1="824.5" y2="824.5"/><rect fill="none" height="6" style="stroke:#C82930;stroke-width:1.0;" width="6" x="389.5" y="835.8047"/><text fill="#000000" font-family="sans-serif" font-size="14" lengthAdjust="spacing" textLength="159" x="401.5" y="843.0332">Solutions : List&lt;Solution&gt;</text><line style="stroke:#181818;stroke-width:0.5;" x1="382.5" x2="565.5" y1="850.1094" y2="850.1094"/></g><!--class Question--><g id="elem_Question"><rect codeLine="57" fill="#F1F1F1" height="83.2188" id="Question" rx="2.5" ry="2.5" style="stroke:#181818;stroke-width:0.5;" width="164" x="607" y="954.5"/><ellipse cx="656.25" cy="970.5" fill="#A9DCDF" rx="11" ry="11" style="stroke:#181818;stroke-width:1.0;"/><path d="M658.4375,972.2656 L654.2969,972.2656 L653.875,973.2969 L654.2969,973.2969 Q654.9063,973.2969 655.1719,973.5313 Q655.4375,973.7656 655.4375,974.1563 Q655.4375,974.5313 655.1719,974.7656 Q654.9063,975 654.2969,975 L652,975 Q651.3906,975 651.1406,974.7656 Q650.875,974.5313 650.875,974.1406 Q650.875,973.7656 651.1563,973.5313 Q651.4219,973.2813 652.0469,973.2969 L654.7188,966.6406 L653.6094,966.6406 Q653,966.6406 652.7344,966.4063 Q652.4688,966.1719 652.4688,965.7813 Q652.4688,965.4063 652.7344,965.1719 Q653,964.9375 653.6094,964.9375 L657.2813,964.9375 L660.6719,973.2969 Q661.2656,973.2969 661.4531,973.4375 Q661.8438,973.7031 661.8438,974.1563 Q661.8438,974.5313 661.5781,974.7656 Q661.3281,975 660.7188,975 L658.4219,975 Q657.8125,975 657.5469,974.7656 Q657.2813,974.5313 657.2813,974.1406 Q657.2813,973.7656 657.5469,973.5313 Q657.8125,973.2969 658.4219,973.2969 L658.8438,973.2969 L658.4375,972.2656 Z M657.7188,970.5625 L656.3594,967.1875 L654.9844,970.5625 L657.7188,970.5625 Z " fill="#000000"/><text fill="#000000" font-family="sans-serif" font-size="14" font-style="italic" lengthAdjust="spacing" textLength="57" x="676.75" y="976.2285">Question</text><line style="stroke:#181818;stroke-width:0.5;" x1="608" x2="770" y1="986.5" y2="986.5"/><rect fill="none" height="6" style="stroke:#C82930;stroke-width:1.0;" width="6" x="615" y="997.8047"/><text fill="#000000" font-family="sans-serif" font-size="14" lengthAdjust="spacing" textLength="138" x="627" y="1005.0332">statement : Statement</text><rect fill="none" height="6" style="stroke:#C82930;stroke-width:1.0;" width="6" x="615" y="1015.4141"/><text fill="#000000" font-family="sans-serif" font-size="14" lengthAdjust="spacing" textLength="114" x="627" y="1022.6426">solutionCount : int</text><line style="stroke:#181818;stroke-width:0.5;" x1="608" x2="770" y1="1029.7188" y2="1029.7188"/></g><!--class Statement--><g id="elem_Statement"><rect codeLine="79" fill="#F1F1F1" height="65.6094" id="Statement" rx="2.5" ry="2.5" style="stroke:#181818;stroke-width:0.5;" width="122" x="376" y="1125"/><ellipse cx="402.7" cy="1141" fill="#ADD1B2" rx="11" ry="11" style="stroke:#181818;stroke-width:1.0;"/><path d="M405.4656,1136.875 Q405.6219,1136.6563 405.8094,1136.5469 Q405.9969,1136.4375 406.2156,1136.4375 Q406.5906,1136.4375 406.825,1136.7031 Q407.0594,1136.9531 407.0594,1137.5625 L407.0594,1139.0156 Q407.0594,1139.625 406.825,1139.8906 Q406.5906,1140.1563 406.2156,1140.1563 Q405.8719,1140.1563 405.6688,1139.9531 Q405.4656,1139.7656 405.3563,1139.25 Q405.3094,1138.8906 405.1219,1138.7031 Q404.7938,1138.3281 404.1844,1138.1094 Q403.575,1137.8906 402.95,1137.8906 Q402.1844,1137.8906 401.5438,1138.2188 Q400.9188,1138.5469 400.4188,1139.2969 Q399.9344,1140.0469 399.9344,1141.0781 L399.9344,1142.1719 Q399.9344,1143.4063 400.825,1144.2344 Q401.7156,1145.0469 403.3094,1145.0469 Q404.2469,1145.0469 404.9031,1144.7969 Q405.2938,1144.6406 405.7156,1144.2031 Q405.9813,1143.9375 406.1219,1143.8594 Q406.2781,1143.7813 406.4813,1143.7813 Q406.8094,1143.7813 407.0594,1144.0469 Q407.325,1144.2969 407.325,1144.6406 Q407.325,1144.9844 406.9813,1145.3906 Q406.4813,1145.9688 405.6844,1146.2969 Q404.6063,1146.75 403.3094,1146.75 Q401.7938,1146.75 400.5906,1146.125 Q399.6063,1145.625 398.9188,1144.5625 Q398.2313,1143.4844 398.2313,1142.2031 L398.2313,1141.0469 Q398.2313,1139.7188 398.8406,1138.5781 Q399.4656,1137.4219 400.5594,1136.8125 Q401.6531,1136.1875 402.8875,1136.1875 Q403.6219,1136.1875 404.2625,1136.3594 Q404.9188,1136.5156 405.4656,1136.875 Z " fill="#000000"/><text fill="#000000" font-family="sans-serif" font-size="14" lengthAdjust="spacing" textLength="64" x="419.3" y="1146.7285">Statement</text><line style="stroke:#181818;stroke-width:0.5;" x1="377" x2="497" y1="1157" y2="1157"/><rect fill="none" height="6" style="stroke:#C82930;stroke-width:1.0;" width="6" x="384" y="1168.3047"/><text fill="#000000" font-family="sans-serif" font-size="14" lengthAdjust="spacing" textLength="96" x="396" y="1175.5332">content : String</text><line style="stroke:#181818;stroke-width:0.5;" x1="377" x2="497" y1="1182.6094" y2="1182.6094"/></g><!--class MultipleChoice--><g id="elem_MultipleChoice"><rect codeLine="70" fill="#F1F1F1" height="48" id="MultipleChoice" rx="2.5" ry="2.5" style="stroke:#181818;stroke-width:0.5;" width="124" x="636" y="1134"/><ellipse cx="651" cy="1150" fill="#ADD1B2" rx="11" ry="11" style="stroke:#181818;stroke-width:1.0;"/><path d="M653.7656,1145.875 Q653.9219,1145.6563 654.1094,1145.5469 Q654.2969,1145.4375 654.5156,1145.4375 Q654.8906,1145.4375 655.125,1145.7031 Q655.3594,1145.9531 655.3594,1146.5625 L655.3594,1148.0156 Q655.3594,1148.625 655.125,1148.8906 Q654.8906,1149.1563 654.5156,1149.1563 Q654.1719,1149.1563 653.9688,1148.9531 Q653.7656,1148.7656 653.6563,1148.25 Q653.6094,1147.8906 653.4219,1147.7031 Q653.0938,1147.3281 652.4844,1147.1094 Q651.875,1146.8906 651.25,1146.8906 Q650.4844,1146.8906 649.8438,1147.2188 Q649.2188,1147.5469 648.7188,1148.2969 Q648.2344,1149.0469 648.2344,1150.0781 L648.2344,1151.1719 Q648.2344,1152.4063 649.125,1153.2344 Q650.0156,1154.0469 651.6094,1154.0469 Q652.5469,1154.0469 653.2031,1153.7969 Q653.5938,1153.6406 654.0156,1153.2031 Q654.2813,1152.9375 654.4219,1152.8594 Q654.5781,1152.7813 654.7813,1152.7813 Q655.1094,1152.7813 655.3594,1153.0469 Q655.625,1153.2969 655.625,1153.6406 Q655.625,1153.9844 655.2813,1154.3906 Q654.7813,1154.9688 653.9844,1155.2969 Q652.9063,1155.75 651.6094,1155.75 Q650.0938,1155.75 648.8906,1155.125 Q647.9063,1154.625 647.2188,1153.5625 Q646.5313,1152.4844 646.5313,1151.2031 L646.5313,1150.0469 Q646.5313,1148.7188 647.1406,1147.5781 Q647.7656,1146.4219 648.8594,1145.8125 Q649.9531,1145.1875 651.1875,1145.1875 Q651.9219,1145.1875 652.5625,1145.3594 Q653.2188,1145.5156 653.7656,1145.875 Z " fill="#000000"/><text fill="#000000" font-family="sans-serif" font-size="14" lengthAdjust="spacing" textLength="92" x="665" y="1155.7285">MultipleChoice</text><line style="stroke:#181818;stroke-width:0.5;" x1="637" x2="759" y1="1166" y2="1166"/><line style="stroke:#181818;stroke-width:0.5;" x1="637" x2="759" y1="1174" y2="1174"/></g><!--class Cloze--><g id="elem_Cloze"><rect codeLine="66" fill="#F1F1F1" height="65.6094" id="Cloze" rx="2.5" ry="2.5" style="stroke:#181818;stroke-width:0.5;" width="107" x="795.5" y="1125"/><ellipse cx="828.5" cy="1141" fill="#ADD1B2" rx="11" ry="11" style="stroke:#181818;stroke-width:1.0;"/><path d="M831.2656,1136.875 Q831.4219,1136.6563 831.6094,1136.5469 Q831.7969,1136.4375 832.0156,1136.4375 Q832.3906,1136.4375 832.625,1136.7031 Q832.8594,1136.9531 832.8594,1137.5625 L832.8594,1139.0156 Q832.8594,1139.625 832.625,1139.8906 Q832.3906,1140.1563 832.0156,1140.1563 Q831.6719,1140.1563 831.4688,1139.9531 Q831.2656,1139.7656 831.1563,1139.25 Q831.1094,1138.8906 830.9219,1138.7031 Q830.5938,1138.3281 829.9844,1138.1094 Q829.375,1137.8906 828.75,1137.8906 Q827.9844,1137.8906 827.3438,1138.2188 Q826.7188,1138.5469 826.2188,1139.2969 Q825.7344,1140.0469 825.7344,1141.0781 L825.7344,1142.1719 Q825.7344,1143.4063 826.625,1144.2344 Q827.5156,1145.0469 829.1094,1145.0469 Q830.0469,1145.0469 830.7031,1144.7969 Q831.0938,1144.6406 831.5156,1144.2031 Q831.7813,1143.9375 831.9219,1143.8594 Q832.0781,1143.7813 832.2813,1143.7813 Q832.6094,1143.7813 832.8594,1144.0469 Q833.125,1144.2969 833.125,1144.6406 Q833.125,1144.9844 832.7813,1145.3906 Q832.2813,1145.9688 831.4844,1146.2969 Q830.4063,1146.75 829.1094,1146.75 Q827.5938,1146.75 826.3906,1146.125 Q825.4063,1145.625 824.7188,1144.5625 Q824.0313,1143.4844 824.0313,1142.2031 L824.0313,1141.0469 Q824.0313,1139.7188 824.6406,1138.5781 Q825.2656,1137.4219 826.3594,1136.8125 Q827.4531,1136.1875 828.6875,1136.1875 Q829.4219,1136.1875 830.0625,1136.3594 Q830.7188,1136.5156 831.2656,1136.875 Z " fill="#000000"/><text fill="#000000" font-family="sans-serif" font-size="14" lengthAdjust="spacing" textLength="35" x="846.5" y="1146.7285">Cloze</text><line style="stroke:#181818;stroke-width:0.5;" x1="796.5" x2="901.5" y1="1157" y2="1157"/><text fill="#000000" font-family="sans-serif" font-size="14" lengthAdjust="spacing" textLength="95" x="801.5" y="1175.5332">blankCount: int</text><line style="stroke:#181818;stroke-width:0.5;" x1="796.5" x2="901.5" y1="1182.6094" y2="1182.6094"/></g><!--class Open--><g id="elem_Open"><rect fill="#F1F1F1" height="48" id="Open" rx="2.5" ry="2.5" style="stroke:#181818;stroke-width:0.5;" width="67" x="533.5" y="1134"/><ellipse cx="548.5" cy="1150" fill="#ADD1B2" rx="11" ry="11" style="stroke:#181818;stroke-width:1.0;"/><path d="M551.2656,1145.875 Q551.4219,1145.6563 551.6094,1145.5469 Q551.7969,1145.4375 552.0156,1145.4375 Q552.3906,1145.4375 552.625,1145.7031 Q552.8594,1145.9531 552.8594,1146.5625 L552.8594,1148.0156 Q552.8594,1148.625 552.625,1148.8906 Q552.3906,1149.1563 552.0156,1149.1563 Q551.6719,1149.1563 551.4688,1148.9531 Q551.2656,1148.7656 551.1563,1148.25 Q551.1094,1147.8906 550.9219,1147.7031 Q550.5938,1147.3281 549.9844,1147.1094 Q549.375,1146.8906 548.75,1146.8906 Q547.9844,1146.8906 547.3438,1147.2188 Q546.7188,1147.5469 546.2188,1148.2969 Q545.7344,1149.0469 545.7344,1150.0781 L545.7344,1151.1719 Q545.7344,1152.4063 546.625,1153.2344 Q547.5156,1154.0469 549.1094,1154.0469 Q550.0469,1154.0469 550.7031,1153.7969 Q551.0938,1153.6406 551.5156,1153.2031 Q551.7813,1152.9375 551.9219,1152.8594 Q552.0781,1152.7813 552.2813,1152.7813 Q552.6094,1152.7813 552.8594,1153.0469 Q553.125,1153.2969 553.125,1153.6406 Q553.125,1153.9844 552.7813,1154.3906 Q552.2813,1154.9688 551.4844,1155.2969 Q550.4063,1155.75 549.1094,1155.75 Q547.5938,1155.75 546.3906,1155.125 Q545.4063,1154.625 544.7188,1153.5625 Q544.0313,1152.4844 544.0313,1151.2031 L544.0313,1150.0469 Q544.0313,1148.7188 544.6406,1147.5781 Q545.2656,1146.4219 546.3594,1145.8125 Q547.4531,1145.1875 548.6875,1145.1875 Q549.4219,1145.1875 550.0625,1145.3594 Q550.7188,1145.5156 551.2656,1145.875 Z " fill="#000000"/><text fill="#000000" font-family="sans-serif" font-size="14" lengthAdjust="spacing" textLength="35" x="562.5" y="1155.7285">Open</text><line style="stroke:#181818;stroke-width:0.5;" x1="534.5" x2="599.5" y1="1166" y2="1166"/><line style="stroke:#181818;stroke-width:0.5;" x1="534.5" x2="599.5" y1="1174" y2="1174"/></g><!--class Document--><g id="elem_Document"><rect codeLine="101" fill="#F1F1F1" height="48" id="Document" rx="2.5" ry="2.5" style="stroke:#181818;stroke-width:0.5;" width="96" x="1017" y="801.5"/><ellipse cx="1032" cy="817.5" fill="#ADD1B2" rx="11" ry="11" style="stroke:#181818;stroke-width:1.0;"/><path d="M1034.7656,813.375 Q1034.9219,813.1563 1035.1094,813.0469 Q1035.2969,812.9375 1035.5156,812.9375 Q1035.8906,812.9375 1036.125,813.2031 Q1036.3594,813.4531 1036.3594,814.0625 L1036.3594,815.5156 Q1036.3594,816.125 1036.125,816.3906 Q1035.8906,816.6563 1035.5156,816.6563 Q1035.1719,816.6563 1034.9688,816.4531 Q1034.7656,816.2656 1034.6563,815.75 Q1034.6094,815.3906 1034.4219,815.2031 Q1034.0938,814.8281 1033.4844,814.6094 Q1032.875,814.3906 1032.25,814.3906 Q1031.4844,814.3906 1030.8438,814.7188 Q1030.2188,815.0469 1029.7188,815.7969 Q1029.2344,816.5469 1029.2344,817.5781 L1029.2344,818.6719 Q1029.2344,819.9063 1030.125,820.7344 Q1031.0156,821.5469 1032.6094,821.5469 Q1033.5469,821.5469 1034.2031,821.2969 Q1034.5938,821.1406 1035.0156,820.7031 Q1035.2813,820.4375 1035.4219,820.3594 Q1035.5781,820.2813 1035.7813,820.2813 Q1036.1094,820.2813 1036.3594,820.5469 Q1036.625,820.7969 1036.625,821.1406 Q1036.625,821.4844 1036.2813,821.8906 Q1035.7813,822.4688 1034.9844,822.7969 Q1033.9063,823.25 1032.6094,823.25 Q1031.0938,823.25 1029.8906,822.625 Q1028.9063,822.125 1028.2188,821.0625 Q1027.5313,819.9844 1027.5313,818.7031 L1027.5313,817.5469 Q1027.5313,816.2188 1028.1406,815.0781 Q1028.7656,813.9219 1029.8594,813.3125 Q1030.9531,812.6875 1032.1875,812.6875 Q1032.9219,812.6875 1033.5625,812.8594 Q1034.2188,813.0156 1034.7656,813.375 Z " fill="#000000"/><text fill="#000000" font-family="sans-serif" font-size="14" lengthAdjust="spacing" textLength="64" x="1046" y="823.2285">Document</text><line style="stroke:#181818;stroke-width:0.5;" x1="1018" x2="1112" y1="833.5" y2="833.5"/><line style="stroke:#181818;stroke-width:0.5;" x1="1018" x2="1112" y1="841.5" y2="841.5"/></g><!--class CompositeTopic--><g id="elem_CompositeTopic"><rect codeLine="96" fill="#F1F1F1" height="65.6094" id="CompositeTopic" rx="2.5" ry="2.5" style="stroke:#181818;stroke-width:0.5;" width="148" x="390" y="496"/><ellipse cx="411.3" cy="512" fill="#ADD1B2" rx="11" ry="11" style="stroke:#181818;stroke-width:1.0;"/><path d="M414.0656,507.875 Q414.2219,507.6563 414.4094,507.5469 Q414.5969,507.4375 414.8156,507.4375 Q415.1906,507.4375 415.425,507.7031 Q415.6594,507.9531 415.6594,508.5625 L415.6594,510.0156 Q415.6594,510.625 415.425,510.8906 Q415.1906,511.1563 414.8156,511.1563 Q414.4719,511.1563 414.2688,510.9531 Q414.0656,510.7656 413.9563,510.25 Q413.9094,509.8906 413.7219,509.7031 Q413.3938,509.3281 412.7844,509.1094 Q412.175,508.8906 411.55,508.8906 Q410.7844,508.8906 410.1438,509.2188 Q409.5188,509.5469 409.0188,510.2969 Q408.5344,511.0469 408.5344,512.0781 L408.5344,513.1719 Q408.5344,514.4063 409.425,515.2344 Q410.3156,516.0469 411.9094,516.0469 Q412.8469,516.0469 413.5031,515.7969 Q413.8938,515.6406 414.3156,515.2031 Q414.5813,514.9375 414.7219,514.8594 Q414.8781,514.7813 415.0813,514.7813 Q415.4094,514.7813 415.6594,515.0469 Q415.925,515.2969 415.925,515.6406 Q415.925,515.9844 415.5813,516.3906 Q415.0813,516.9688 414.2844,517.2969 Q413.2063,517.75 411.9094,517.75 Q410.3938,517.75 409.1906,517.125 Q408.2063,516.625 407.5188,515.5625 Q406.8313,514.4844 406.8313,513.2031 L406.8313,512.0469 Q406.8313,510.7188 407.4406,509.5781 Q408.0656,508.4219 409.1594,507.8125 Q410.2531,507.1875 411.4875,507.1875 Q412.2219,507.1875 412.8625,507.3594 Q413.5188,507.5156 414.0656,507.875 Z " fill="#000000"/><text fill="#000000" font-family="sans-serif" font-size="14" lengthAdjust="spacing" textLength="102" x="426.7" y="517.7285">CompositeTopic</text><line style="stroke:#181818;stroke-width:0.5;" x1="391" x2="537" y1="528" y2="528"/><rect fill="none" height="6" style="stroke:#C82930;stroke-width:1.0;" width="6" x="398" y="539.3047"/><text fill="#000000" font-family="sans-serif" font-size="14" lengthAdjust="spacing" textLength="122" x="410" y="546.5332">topics : List&lt;Topic&gt;</text><line style="stroke:#181818;stroke-width:0.5;" x1="391" x2="537" y1="553.6094" y2="553.6094"/></g><!--class SimpleTopic--><g id="elem_SimpleTopic"><rect codeLine="91" fill="#F1F1F1" height="65.6094" id="SimpleTopic" rx="2.5" ry="2.5" style="stroke:#181818;stroke-width:0.5;" width="186" x="573" y="496"/><ellipse cx="623.25" cy="512" fill="#ADD1B2" rx="11" ry="11" style="stroke:#181818;stroke-width:1.0;"/><path d="M626.0156,507.875 Q626.1719,507.6563 626.3594,507.5469 Q626.5469,507.4375 626.7656,507.4375 Q627.1406,507.4375 627.375,507.7031 Q627.6094,507.9531 627.6094,508.5625 L627.6094,510.0156 Q627.6094,510.625 627.375,510.8906 Q627.1406,511.1563 626.7656,511.1563 Q626.4219,511.1563 626.2188,510.9531 Q626.0156,510.7656 625.9063,510.25 Q625.8594,509.8906 625.6719,509.7031 Q625.3438,509.3281 624.7344,509.1094 Q624.125,508.8906 623.5,508.8906 Q622.7344,508.8906 622.0938,509.2188 Q621.4688,509.5469 620.9688,510.2969 Q620.4844,511.0469 620.4844,512.0781 L620.4844,513.1719 Q620.4844,514.4063 621.375,515.2344 Q622.2656,516.0469 623.8594,516.0469 Q624.7969,516.0469 625.4531,515.7969 Q625.8438,515.6406 626.2656,515.2031 Q626.5313,514.9375 626.6719,514.8594 Q626.8281,514.7813 627.0313,514.7813 Q627.3594,514.7813 627.6094,515.0469 Q627.875,515.2969 627.875,515.6406 Q627.875,515.9844 627.5313,516.3906 Q627.0313,516.9688 626.2344,517.2969 Q625.1563,517.75 623.8594,517.75 Q622.3438,517.75 621.1406,517.125 Q620.1563,516.625 619.4688,515.5625 Q618.7813,514.4844 618.7813,513.2031 L618.7813,512.0469 Q618.7813,510.7188 619.3906,509.5781 Q620.0156,508.4219 621.1094,507.8125 Q622.2031,507.1875 623.4375,507.1875 Q624.1719,507.1875 624.8125,507.3594 Q625.4688,507.5156 626.0156,507.875 Z " fill="#000000"/><text fill="#000000" font-family="sans-serif" font-size="14" lengthAdjust="spacing" textLength="77" x="643.75" y="517.7285">SimpleTopic</text><line style="stroke:#181818;stroke-width:0.5;" x1="574" x2="758" y1="528" y2="528"/><rect fill="none" height="6" style="stroke:#C82930;stroke-width:1.0;" width="6" x="581" y="539.3047"/><text fill="#000000" font-family="sans-serif" font-size="14" lengthAdjust="spacing" textLength="160" x="593" y="546.5332">concepts : List&lt;Concept&gt;</text><line style="stroke:#181818;stroke-width:0.5;" x1="574" x2="758" y1="553.6094" y2="553.6094"/></g><!--class Concept--><g id="elem_Concept"><rect codeLine="107" fill="#F1F1F1" height="83.2188" id="Concept" rx="2.5" ry="2.5" style="stroke:#181818;stroke-width:0.5;" width="188" x="568" y="623"/><ellipse cx="631.25" cy="639" fill="#ADD1B2" rx="11" ry="11" style="stroke:#181818;stroke-width:1.0;"/><path d="M634.0156,634.875 Q634.1719,634.6563 634.3594,634.5469 Q634.5469,634.4375 634.7656,634.4375 Q635.1406,634.4375 635.375,634.7031 Q635.6094,634.9531 635.6094,635.5625 L635.6094,637.0156 Q635.6094,637.625 635.375,637.8906 Q635.1406,638.1563 634.7656,638.1563 Q634.4219,638.1563 634.2188,637.9531 Q634.0156,637.7656 633.9063,637.25 Q633.8594,636.8906 633.6719,636.7031 Q633.3438,636.3281 632.7344,636.1094 Q632.125,635.8906 631.5,635.8906 Q630.7344,635.8906 630.0938,636.2188 Q629.4688,636.5469 628.9688,637.2969 Q628.4844,638.0469 628.4844,639.0781 L628.4844,640.1719 Q628.4844,641.4063 629.375,642.2344 Q630.2656,643.0469 631.8594,643.0469 Q632.7969,643.0469 633.4531,642.7969 Q633.8438,642.6406 634.2656,642.2031 Q634.5313,641.9375 634.6719,641.8594 Q634.8281,641.7813 635.0313,641.7813 Q635.3594,641.7813 635.6094,642.0469 Q635.875,642.2969 635.875,642.6406 Q635.875,642.9844 635.5313,643.3906 Q635.0313,643.9688 634.2344,644.2969 Q633.1563,644.75 631.8594,644.75 Q630.3438,644.75 629.1406,644.125 Q628.1563,643.625 627.4688,642.5625 Q626.7813,641.4844 626.7813,640.2031 L626.7813,639.0469 Q626.7813,637.7188 627.3906,636.5781 Q628.0156,635.4219 629.1094,634.8125 Q630.2031,634.1875 631.4375,634.1875 Q632.1719,634.1875 632.8125,634.3594 Q633.4688,634.5156 634.0156,634.875 Z " fill="#000000"/><text fill="#000000" font-family="sans-serif" font-size="14" lengthAdjust="spacing" textLength="53" x="651.75" y="644.7285">Concept</text><line style="stroke:#181818;stroke-width:0.5;" x1="569" x2="755" y1="655" y2="655"/><rect fill="none" height="6" style="stroke:#C82930;stroke-width:1.0;" width="6" x="576" y="666.3047"/><text fill="#000000" font-family="sans-serif" font-size="14" lengthAdjust="spacing" textLength="162" x="588" y="673.5332">exercises : List&lt;Exercise&gt;</text><rect fill="none" height="6" style="stroke:#C82930;stroke-width:1.0;" width="6" x="576" y="683.9141"/><text fill="#000000" font-family="sans-serif" font-size="14" lengthAdjust="spacing" textLength="156" x="588" y="691.1426">relations : List&lt;Relation&gt;</text><line style="stroke:#181818;stroke-width:0.5;" x1="569" x2="755" y1="698.2188" y2="698.2188"/></g><!--class Audio--><g id="elem_Audio"><rect fill="#F1F1F1" height="48" id="Audio" rx="2.5" ry="2.5" style="stroke:#181818;stroke-width:0.5;" width="68" x="1157" y="972"/><ellipse cx="1172" cy="988" fill="#ADD1B2" rx="11" ry="11" style="stroke:#181818;stroke-width:1.0;"/><path d="M1174.7656,983.875 Q1174.9219,983.6563 1175.1094,983.5469 Q1175.2969,983.4375 1175.5156,983.4375 Q1175.8906,983.4375 1176.125,983.7031 Q1176.3594,983.9531 1176.3594,984.5625 L1176.3594,986.0156 Q1176.3594,986.625 1176.125,986.8906 Q1175.8906,987.1563 1175.5156,987.1563 Q1175.1719,987.1563 1174.9688,986.9531 Q1174.7656,986.7656 1174.6563,986.25 Q1174.6094,985.8906 1174.4219,985.7031 Q1174.0938,985.3281 1173.4844,985.1094 Q1172.875,984.8906 1172.25,984.8906 Q1171.4844,984.8906 1170.8438,985.2188 Q1170.2188,985.5469 1169.7188,986.2969 Q1169.2344,987.0469 1169.2344,988.0781 L1169.2344,989.1719 Q1169.2344,990.4063 1170.125,991.2344 Q1171.0156,992.0469 1172.6094,992.0469 Q1173.5469,992.0469 1174.2031,991.7969 Q1174.5938,991.6406 1175.0156,991.2031 Q1175.2813,990.9375 1175.4219,990.8594 Q1175.5781,990.7813 1175.7813,990.7813 Q1176.1094,990.7813 1176.3594,991.0469 Q1176.625,991.2969 1176.625,991.6406 Q1176.625,991.9844 1176.2813,992.3906 Q1175.7813,992.9688 1174.9844,993.2969 Q1173.9063,993.75 1172.6094,993.75 Q1171.0938,993.75 1169.8906,993.125 Q1168.9063,992.625 1168.2188,991.5625 Q1167.5313,990.4844 1167.5313,989.2031 L1167.5313,988.0469 Q1167.5313,986.7188 1168.1406,985.5781 Q1168.7656,984.4219 1169.8594,983.8125 Q1170.9531,983.1875 1172.1875,983.1875 Q1172.9219,983.1875 1173.5625,983.3594 Q1174.2188,983.5156 1174.7656,983.875 Z " fill="#000000"/><text fill="#000000" font-family="sans-serif" font-size="14" lengthAdjust="spacing" textLength="36" x="1186" y="993.7285">Audio</text><line style="stroke:#181818;stroke-width:0.5;" x1="1158" x2="1224" y1="1004" y2="1004"/><line style="stroke:#181818;stroke-width:0.5;" x1="1158" x2="1224" y1="1012" y2="1012"/></g><!--class Video--><g id="elem_Video"><rect fill="#F1F1F1" height="48" id="Video" rx="2.5" ry="2.5" style="stroke:#181818;stroke-width:0.5;" width="68" x="1260" y="972"/><ellipse cx="1275" cy="988" fill="#ADD1B2" rx="11" ry="11" style="stroke:#181818;stroke-width:1.0;"/><path d="M1277.7656,983.875 Q1277.9219,983.6563 1278.1094,983.5469 Q1278.2969,983.4375 1278.5156,983.4375 Q1278.8906,983.4375 1279.125,983.7031 Q1279.3594,983.9531 1279.3594,984.5625 L1279.3594,986.0156 Q1279.3594,986.625 1279.125,986.8906 Q1278.8906,987.1563 1278.5156,987.1563 Q1278.1719,987.1563 1277.9688,986.9531 Q1277.7656,986.7656 1277.6563,986.25 Q1277.6094,985.8906 1277.4219,985.7031 Q1277.0938,985.3281 1276.4844,985.1094 Q1275.875,984.8906 1275.25,984.8906 Q1274.4844,984.8906 1273.8438,985.2188 Q1273.2188,985.5469 1272.7188,986.2969 Q1272.2344,987.0469 1272.2344,988.0781 L1272.2344,989.1719 Q1272.2344,990.4063 1273.125,991.2344 Q1274.0156,992.0469 1275.6094,992.0469 Q1276.5469,992.0469 1277.2031,991.7969 Q1277.5938,991.6406 1278.0156,991.2031 Q1278.2813,990.9375 1278.4219,990.8594 Q1278.5781,990.7813 1278.7813,990.7813 Q1279.1094,990.7813 1279.3594,991.0469 Q1279.625,991.2969 1279.625,991.6406 Q1279.625,991.9844 1279.2813,992.3906 Q1278.7813,992.9688 1277.9844,993.2969 Q1276.9063,993.75 1275.6094,993.75 Q1274.0938,993.75 1272.8906,993.125 Q1271.9063,992.625 1271.2188,991.5625 Q1270.5313,990.4844 1270.5313,989.2031 L1270.5313,988.0469 Q1270.5313,986.7188 1271.1406,985.5781 Q1271.7656,984.4219 1272.8594,983.8125 Q1273.9531,983.1875 1275.1875,983.1875 Q1275.9219,983.1875 1276.5625,983.3594 Q1277.2188,983.5156 1277.7656,983.875 Z " fill="#000000"/><text fill="#000000" font-family="sans-serif" font-size="14" lengthAdjust="spacing" textLength="36" x="1289" y="993.7285">Video</text><line style="stroke:#181818;stroke-width:0.5;" x1="1261" x2="1327" y1="1004" y2="1004"/><line style="stroke:#181818;stroke-width:0.5;" x1="1261" x2="1327" y1="1012" y2="1012"/></g><!--class Image--><g id="elem_Image"><rect fill="#F1F1F1" height="48" id="Image" rx="2.5" ry="2.5" style="stroke:#181818;stroke-width:0.5;" width="70" x="957" y="972"/><ellipse cx="972" cy="988" fill="#ADD1B2" rx="11" ry="11" style="stroke:#181818;stroke-width:1.0;"/><path d="M974.7656,983.875 Q974.9219,983.6563 975.1094,983.5469 Q975.2969,983.4375 975.5156,983.4375 Q975.8906,983.4375 976.125,983.7031 Q976.3594,983.9531 976.3594,984.5625 L976.3594,986.0156 Q976.3594,986.625 976.125,986.8906 Q975.8906,987.1563 975.5156,987.1563 Q975.1719,987.1563 974.9688,986.9531 Q974.7656,986.7656 974.6563,986.25 Q974.6094,985.8906 974.4219,985.7031 Q974.0938,985.3281 973.4844,985.1094 Q972.875,984.8906 972.25,984.8906 Q971.4844,984.8906 970.8438,985.2188 Q970.2188,985.5469 969.7188,986.2969 Q969.2344,987.0469 969.2344,988.0781 L969.2344,989.1719 Q969.2344,990.4063 970.125,991.2344 Q971.0156,992.0469 972.6094,992.0469 Q973.5469,992.0469 974.2031,991.7969 Q974.5938,991.6406 975.0156,991.2031 Q975.2813,990.9375 975.4219,990.8594 Q975.5781,990.7813 975.7813,990.7813 Q976.1094,990.7813 976.3594,991.0469 Q976.625,991.2969 976.625,991.6406 Q976.625,991.9844 976.2813,992.3906 Q975.7813,992.9688 974.9844,993.2969 Q973.9063,993.75 972.6094,993.75 Q971.0938,993.75 969.8906,993.125 Q968.9063,992.625 968.2188,991.5625 Q967.5313,990.4844 967.5313,989.2031 L967.5313,988.0469 Q967.5313,986.7188 968.1406,985.5781 Q968.7656,984.4219 969.8594,983.8125 Q970.9531,983.1875 972.1875,983.1875 Q972.9219,983.1875 973.5625,983.3594 Q974.2188,983.5156 974.7656,983.875 Z " fill="#000000"/><text fill="#000000" font-family="sans-serif" font-size="14" lengthAdjust="spacing" textLength="38" x="986" y="993.7285">Image</text><line style="stroke:#181818;stroke-width:0.5;" x1="958" x2="1026" y1="1004" y2="1004"/><line style="stroke:#181818;stroke-width:0.5;" x1="958" x2="1026" y1="1012" y2="1012"/></g><!--class Text--><g id="elem_Text"><rect fill="#F1F1F1" height="48" id="Text" rx="2.5" ry="2.5" style="stroke:#181818;stroke-width:0.5;" width="59" x="1062.5" y="972"/><ellipse cx="1077.5" cy="988" fill="#ADD1B2" rx="11" ry="11" style="stroke:#181818;stroke-width:1.0;"/><path d="M1080.2656,983.875 Q1080.4219,983.6563 1080.6094,983.5469 Q1080.7969,983.4375 1081.0156,983.4375 Q1081.3906,983.4375 1081.625,983.7031 Q1081.8594,983.9531 1081.8594,984.5625 L1081.8594,986.0156 Q1081.8594,986.625 1081.625,986.8906 Q1081.3906,987.1563 1081.0156,987.1563 Q1080.6719,987.1563 1080.4688,986.9531 Q1080.2656,986.7656 1080.1563,986.25 Q1080.1094,985.8906 1079.9219,985.7031 Q1079.5938,985.3281 1078.9844,985.1094 Q1078.375,984.8906 1077.75,984.8906 Q1076.9844,984.8906 1076.3438,985.2188 Q1075.7188,985.5469 1075.2188,986.2969 Q1074.7344,987.0469 1074.7344,988.0781 L1074.7344,989.1719 Q1074.7344,990.4063 1075.625,991.2344 Q1076.5156,992.0469 1078.1094,992.0469 Q1079.0469,992.0469 1079.7031,991.7969 Q1080.0938,991.6406 1080.5156,991.2031 Q1080.7813,990.9375 1080.9219,990.8594 Q1081.0781,990.7813 1081.2813,990.7813 Q1081.6094,990.7813 1081.8594,991.0469 Q1082.125,991.2969 1082.125,991.6406 Q1082.125,991.9844 1081.7813,992.3906 Q1081.2813,992.9688 1080.4844,993.2969 Q1079.4063,993.75 1078.1094,993.75 Q1076.5938,993.75 1075.3906,993.125 Q1074.4063,992.625 1073.7188,991.5625 Q1073.0313,990.4844 1073.0313,989.2031 L1073.0313,988.0469 Q1073.0313,986.7188 1073.6406,985.5781 Q1074.2656,984.4219 1075.3594,983.8125 Q1076.4531,983.1875 1077.6875,983.1875 Q1078.4219,983.1875 1079.0625,983.3594 Q1079.7188,983.5156 1080.2656,983.875 Z " fill="#000000"/><text fill="#000000" font-family="sans-serif" font-size="14" lengthAdjust="spacing" textLength="27" x="1091.5" y="993.7285">Text</text><line style="stroke:#181818;stroke-width:0.5;" x1="1063.5" x2="1120.5" y1="1004" y2="1004"/><line style="stroke:#181818;stroke-width:0.5;" x1="1063.5" x2="1120.5" y1="1012" y2="1012"/></g><!--class Relation--><g id="elem_Relation"><rect codeLine="117" fill="#F1F1F1" height="83.2188" id="Relation" rx="2.5" ry="2.5" style="stroke:#181818;stroke-width:0.5;" width="296" x="628" y="784"/><ellipse cx="745.75" cy="800" fill="#ADD1B2" rx="11" ry="11" style="stroke:#181818;stroke-width:1.0;"/><path d="M748.5156,795.875 Q748.6719,795.6563 748.8594,795.5469 Q749.0469,795.4375 749.2656,795.4375 Q749.6406,795.4375 749.875,795.7031 Q750.1094,795.9531 750.1094,796.5625 L750.1094,798.0156 Q750.1094,798.625 749.875,798.8906 Q749.6406,799.1563 749.2656,799.1563 Q748.9219,799.1563 748.7188,798.9531 Q748.5156,798.7656 748.4063,798.25 Q748.3594,797.8906 748.1719,797.7031 Q747.8438,797.3281 747.2344,797.1094 Q746.625,796.8906 746,796.8906 Q745.2344,796.8906 744.5938,797.2188 Q743.9688,797.5469 743.4688,798.2969 Q742.9844,799.0469 742.9844,800.0781 L742.9844,801.1719 Q742.9844,802.4063 743.875,803.2344 Q744.7656,804.0469 746.3594,804.0469 Q747.2969,804.0469 747.9531,803.7969 Q748.3438,803.6406 748.7656,803.2031 Q749.0313,802.9375 749.1719,802.8594 Q749.3281,802.7813 749.5313,802.7813 Q749.8594,802.7813 750.1094,803.0469 Q750.375,803.2969 750.375,803.6406 Q750.375,803.9844 750.0313,804.3906 Q749.5313,804.9688 748.7344,805.2969 Q747.6563,805.75 746.3594,805.75 Q744.8438,805.75 743.6406,805.125 Q742.6563,804.625 741.9688,803.5625 Q741.2813,802.4844 741.2813,801.2031 L741.2813,800.0469 Q741.2813,798.7188 741.8906,797.5781 Q742.5156,796.4219 743.6094,795.8125 Q744.7031,795.1875 745.9375,795.1875 Q746.6719,795.1875 747.3125,795.3594 Q747.9688,795.5156 748.5156,795.875 Z " fill="#000000"/><text fill="#000000" font-family="sans-serif" font-size="14" lengthAdjust="spacing" textLength="52" x="766.25" y="805.7285">Relation</text><line style="stroke:#181818;stroke-width:0.5;" x1="629" x2="923" y1="816" y2="816"/><rect fill="none" height="6" style="stroke:#C82930;stroke-width:1.0;" width="6" x="636" y="827.3047"/><text fill="#000000" font-family="sans-serif" font-size="14" lengthAdjust="spacing" textLength="123" x="648" y="834.5332">type : RelationType</text><rect fill="none" height="6" style="stroke:#C82930;stroke-width:1.0;" width="6" x="636" y="844.9141"/><text fill="#000000" font-family="sans-serif" font-size="14" lengthAdjust="spacing" textLength="270" x="648" y="852.1426">connection : Dictionary&lt;Concept,Concept&gt;</text><line style="stroke:#181818;stroke-width:0.5;" x1="629" x2="923" y1="859.2188" y2="859.2188"/></g><!--class RelationType--><g id="elem_RelationType"><rect codeLine="125" fill="#F1F1F1" height="136.0469" id="RelationType" rx="2.5" ry="2.5" style="stroke:#181818;stroke-width:0.5;" width="116" x="806" y="928"/><ellipse cx="821" cy="944" fill="#EB937F" rx="11" ry="11" style="stroke:#181818;stroke-width:1.0;"/><path d="M819.8594,944.7969 L819.8594,947.2969 L824.1875,947.2969 L824.1875,946.375 Q824.1875,945.7656 824.4219,945.5 Q824.6719,945.2344 825.0469,945.2344 Q825.4219,945.2344 825.6563,945.5 Q825.8906,945.7656 825.8906,946.375 L825.8906,949 L817.8906,949 Q817.2656,949 817,948.7656 Q816.75,948.5313 816.75,948.1406 Q816.75,947.7656 817.0156,947.5313 Q817.2813,947.2969 817.8906,947.2969 L818.1563,947.2969 L818.1563,940.6406 L817.8906,940.6406 Q817.2656,940.6406 817,940.4063 Q816.75,940.1719 816.75,939.7813 Q816.75,939.4063 817,939.1719 Q817.2656,938.9375 817.8906,938.9375 L825.5156,938.9375 L825.5156,941.5313 Q825.5156,942.1406 825.2813,942.4063 Q825.0625,942.6563 824.6719,942.6563 Q824.2969,942.6563 824.0625,942.4063 Q823.8281,942.1406 823.8281,941.5313 L823.8281,940.6406 L819.8594,940.6406 L819.8594,943.0938 L821.3438,943.0938 Q821.3438,942.4375 821.4688,942.25 Q821.7344,941.8438 822.2031,941.8438 Q822.5781,941.8438 822.8125,942.1094 Q823.0469,942.3594 823.0469,942.9688 L823.0469,944.9375 Q823.0469,945.4844 822.9219,945.6719 Q822.6563,946.0625 822.2031,946.0625 Q821.7344,946.0625 821.4688,945.6563 Q821.3438,945.4688 821.3438,944.7969 L819.8594,944.7969 Z " fill="#000000"/><text fill="#000000" font-family="sans-serif" font-size="14" lengthAdjust="spacing" textLength="84" x="835" y="949.7285">RelationType</text><line style="stroke:#181818;stroke-width:0.5;" x1="807" x2="921" y1="960" y2="960"/><text fill="#000000" font-family="sans-serif" font-size="14" lengthAdjust="spacing" textLength="24" x="812" y="978.5332">Use</text><text fill="#000000" font-family="sans-serif" font-size="14" lengthAdjust="spacing" textLength="72" x="812" y="996.1426">Association</text><text fill="#000000" font-family="sans-serif" font-size="14" lengthAdjust="spacing" textLength="78" x="812" y="1013.752">Composition</text><text fill="#000000" font-family="sans-serif" font-size="14" lengthAdjust="spacing" textLength="70" x="812" y="1031.3613">Inheritance</text><text fill="#000000" font-family="sans-serif" font-size="14" lengthAdjust="spacing" textLength="77" x="812" y="1048.9707">Aggregation</text><line style="stroke:#181818;stroke-width:0.5;" x1="807" x2="921" y1="1056.0469" y2="1056.0469"/></g><!--link EducationPlatform to User--><g id="link_EducationPlatform_User"><path codeLine="2" d="M322.3354,59.9932 C303.9754,68.2932 295.02,73.54 278,85 C264.87,93.83 256.097,101.4017 245.717,111.7117 " fill="none" id="EducationPlatform-User" style="stroke:#181818;stroke-width:1.0;"/><polygon fill="#181818" points="333.27,55.05,326.155,53.8767,322.3354,59.9932,329.4504,61.1665,333.27,55.05" style="stroke:#181818;stroke-width:1.0;"/><polygon fill="#181818" points="241.46,115.94,250.6643,112.4356,245.0075,112.4164,245.0266,106.7596,241.46,115.94" style="stroke:#181818;stroke-width:1.0;"/><text fill="#000000" font-family="sans-serif" font-size="13" lengthAdjust="spacing" textLength="8" x="237.9341" y="105.2648">+</text></g><!--link EducationPlatform to Topic--><g id="link_EducationPlatform_Topic"><path codeLine="3" d="M457.6686,60.5443 C484.9586,74.5343 505.66,89.38 526,116 C556.73,156.22 551.59,174.93 559,225 C564.4,261.49 573.02,273.88 559,308 C549.24,331.74 534.689,348.693 516.439,364.633 " fill="none" id="EducationPlatform-Topic" style="stroke:#181818;stroke-width:1.0;"/><polygon fill="#181818" points="446.99,55.07,450.5045,61.3667,457.6686,60.5443,454.1541,54.2476,446.99,55.07" style="stroke:#181818;stroke-width:1.0;"/><polygon fill="#181818" points="511.92,368.58,521.3298,365.6722,515.6858,365.2908,516.0672,359.6469,511.92,368.58" style="stroke:#181818;stroke-width:1.0;"/></g><!--link EducationPlatform to Itinerary--><g id="link_EducationPlatform_Itinerary"><path codeLine="4" d="M417.4791,64.9022 C429.2891,81.0322 436.8,93.85 445,116 C458.07,151.31 462.979,188.0248 465.139,218.7348 " fill="none" id="EducationPlatform-Itinerary" style="stroke:#181818;stroke-width:1.0;"/><polygon fill="#181818" points="410.39,55.22,410.7071,62.4241,417.4791,64.9022,417.1619,57.6981,410.39,55.22" style="stroke:#181818;stroke-width:1.0;"/><polygon fill="#181818" points="465.56,224.72,468.9187,215.4615,465.2092,219.7323,460.9384,216.0228,465.56,224.72" style="stroke:#181818;stroke-width:1.0;"/><text fill="#000000" font-family="sans-serif" font-size="13" lengthAdjust="spacing" textLength="59" x="458" y="145.4951">predefined</text></g><!--link EducationPlatform to Itinerary--><g id="link_EducationPlatform_Itinerary"><path codeLine="5" d="M385.9607,66.9788 C381.9507,93.8788 379.96,127.43 392,164 C399.27,186.06 409.5851,202.5944 423.6251,219.8644 " fill="none" id="EducationPlatform-Itinerary-1" style="stroke:#181818;stroke-width:1.0;"/><polygon fill="none" points="387.73,55.11,382.8891,60.4547,385.9607,66.9788,390.8016,61.6342,387.73,55.11" style="stroke:#181818;stroke-width:1.0;"/><polygon fill="#181818" points="427.41,224.52,424.8364,215.0133,424.2559,220.6403,418.6289,220.0598,427.41,224.52" style="stroke:#181818;stroke-width:1.0;"/><text fill="#000000" font-family="sans-serif" font-size="13" lengthAdjust="spacing" textLength="43" x="393" y="145.4951">custom</text><text fill="#000000" font-family="sans-serif" font-size="13" lengthAdjust="spacing" textLength="5" x="415.7019" y="214.0601">*</text></g><!--link EducationPlatform to Chat--><g id="link_EducationPlatform_Chat"><path codeLine="6" d="M371.5526,65.3689 C361.9626,81.7689 355.94,94.31 349,116 C335.13,159.35 330.3414,206.6221 328.4414,236.4521 " fill="none" id="EducationPlatform-Chat" style="stroke:#181818;stroke-width:1.0;"/><polygon fill="#181818" points="377.61,55.01,371.1283,58.1703,371.5526,65.3689,378.0343,62.2086,377.61,55.01" style="stroke:#181818;stroke-width:1.0;"/><polygon fill="#181818" points="328.06,242.44,332.624,233.7125,328.3778,237.4501,324.6402,233.2039,328.06,242.44" style="stroke:#181818;stroke-width:1.0;"/></g><!--reverse link User to Teacher--><g id="link_User_Teacher"><path codeLine="11" d="M185.6985,177.1952 C164.5085,199.5552 144.96,220.18 123.8,242.5 " fill="none" id="User-backto-Teacher" style="stroke:#181818;stroke-width:1.0;"/><polygon fill="none" points="198.08,164.13,181.3434,173.068,190.0535,181.3223,198.08,164.13" style="stroke:#181818;stroke-width:1.0;"/></g><!--reverse link User to Student--><g id="link_User_Student"><path codeLine="12" d="M220,182.13 C220,204.49 220,220.18 220,242.5 " fill="none" id="User-backto-Student" style="stroke:#181818;stroke-width:1.0;"/><polygon fill="none" points="220,164.13,214,182.13,226,182.13,220,164.13" style="stroke:#181818;stroke-width:1.0;"/></g><!--link User to Solution--><g id="link_User_Solution"><path codeLine="13" d="M177.0109,146.3979 C117.6609,155.2379 6,181.9 6,265.5 C6,265.5 6,265.5 6,1095 C6,1196.25 123.5759,1248.1898 207.4059,1272.9598 " fill="none" id="User-Solution" style="stroke:#181818;stroke-width:1.0;"/><polygon fill="#181818" points="188.88,144.63,182.3562,141.5576,177.0109,146.3979,183.5348,149.4703,188.88,144.63" style="stroke:#181818;stroke-width:1.0;"/><polygon fill="#181818" points="213.16,1274.66,205.6624,1268.2736,208.3649,1273.2432,203.3954,1275.9457,213.16,1274.66" style="stroke:#181818;stroke-width:1.0;"/><text fill="#000000" font-family="sans-serif" font-size="13" lengthAdjust="spacing" textLength="8" x="197.5503" y="1269.6033">+</text></g><!--link User to Chat--><g id="link_User_Chat"><path codeLine="14" d="M239.88,164.13 C259.09,186.49 284.1395,215.6294 303.3195,237.9494 " fill="none" id="User-to-Chat" style="stroke:#181818;stroke-width:1.0;stroke-dasharray:7.0,7.0;"/><polygon fill="#181818" points="307.23,242.5,304.3981,233.0671,303.9713,238.7078,298.3306,238.281,307.23,242.5" style="stroke:#181818;stroke-width:1.0;"/></g><!--link User to Itinerary--><g id="link_User_Itinerary"><path codeLine="15" d="M251.28,156.77 C286.66,174.6 340.1221,201.5495 387.4221,225.3895 " fill="none" id="User-to-Itinerary" style="stroke:#181818;stroke-width:1.0;stroke-dasharray:7.0,7.0;"/><polygon fill="#181818" points="392.78,228.09,386.5434,220.4673,388.3151,225.8396,382.9428,227.6112,392.78,228.09" style="stroke:#181818;stroke-width:1.0;"/></g><!--link Chat to Topic--><g id="link_Chat_Topic"><path codeLine="25" d="M351.39,290.75 C374.03,312.34 403.5971,340.5501 428.8471,364.6201 " fill="none" id="Chat-to-Topic" style="stroke:#181818;stroke-width:1.0;stroke-dasharray:7.0,7.0;"/><polygon fill="#181818" points="433.19,368.76,429.4356,359.6548,429.5709,365.31,423.9157,365.4453,433.19,368.76" style="stroke:#181818;stroke-width:1.0;"/><text fill="#000000" font-family="sans-serif" font-size="13" lengthAdjust="spacing" textLength="8" x="417.7462" y="358.2091">+</text></g><!--link Itinerary to Topic--><g id="link_Itinerary_Topic"><path codeLine="31" d="M467,320.28 C467,339.76 467,344.73 467,362.93 " fill="none" id="Itinerary-Topic" style="stroke:#181818;stroke-width:1.0;"/><polygon fill="none" points="467,308.28,463,314.28,467,320.28,471,314.28,467,308.28" style="stroke:#181818;stroke-width:1.0;"/><polygon fill="#181818" points="467,368.93,471,359.93,467,363.93,463,359.93,467,368.93" style="stroke:#181818;stroke-width:1.0;"/><text fill="#000000" font-family="sans-serif" font-size="13" lengthAdjust="spacing" textLength="8" x="458.175" y="358.031">+</text></g><!--link Definition to Justification--><g id="link_Definition_Justification"><path codeLine="36" d="M202.6889,859.7197 C149.3089,886.9297 94,928.55 94,995 C94,995 94,995 94,1294.5 C94,1335.88 103.0941,1376.7389 111.4941,1406.9789 " fill="none" id="Definition-Justification" style="stroke:#181818;stroke-width:1.0;"/><polygon fill="#181818" points="213.38,854.27,206.2179,853.4311,202.6889,859.7197,209.851,860.5586,213.38,854.27" style="stroke:#181818;stroke-width:1.0;"/><polygon fill="#181818" points="113.1,1412.76,114.5453,1403.0178,111.7618,1407.9424,106.8371,1405.1589,113.1,1412.76" style="stroke:#181818;stroke-width:1.0;"/><text fill="#000000" font-family="sans-serif" font-size="13" lengthAdjust="spacing" textLength="106" x="95" y="1163.4951">[!definition.correct]</text><text fill="#000000" font-family="sans-serif" font-size="13" lengthAdjust="spacing" textLength="5" x="105.6588" y="1402.2091">*</text></g><!--reverse link Exercise to Domain--><g id="link_Exercise_Domain"><path codeLine="51" d="M474,876.59 C474,903.8 474,924.99 474,954.38 " fill="none" id="Exercise-backto-Domain" style="stroke:#181818;stroke-width:1.0;"/><polygon fill="none" points="474,858.59,468,876.59,480,876.59,474,858.59" style="stroke:#181818;stroke-width:1.0;"/></g><!--reverse link Exercise to Question--><g id="link_Exercise_Question"><path codeLine="52" d="M529.1176,869.6931 C563.8376,896.9031 599.67,924.99 637.17,954.38 " fill="none" id="Exercise-backto-Question" style="stroke:#181818;stroke-width:1.0;"/><polygon fill="none" points="514.95,858.59,525.4166,874.4157,532.8186,864.9706,514.95,858.59" style="stroke:#181818;stroke-width:1.0;"/></g><!--link Exercise to Solution--><g id="link_Exercise_Solution"><path codeLine="53" d="M383.0926,865.0765 C356.0626,882.7865 339.84,900.25 324,928 C263.78,1033.49 253.1904,1175.3516 266.3504,1245.9416 " fill="none" id="Exercise-Solution" style="stroke:#181818;stroke-width:1.0;"/><polygon fill="#181818" points="393.13,858.5,385.9191,858.4424,383.0926,865.0765,390.3035,865.1341,393.13,858.5" style="stroke:#181818;stroke-width:1.0;"/><polygon fill="#181818" points="267.45,1251.84,269.7328,1242.2594,266.5336,1246.9247,261.8683,1243.7255,267.45,1251.84" style="stroke:#181818;stroke-width:1.0;"/><text fill="#000000" font-family="sans-serif" font-size="13" lengthAdjust="spacing" textLength="8" x="255.2183" y="1241.1212">+</text></g><!--link Exercise to Solution--><g id="link_Exercise_Solution"><path codeLine="54" d="M414.957,865.7359 C391.527,883.4459 374.84,900.25 359,928 C298.78,1033.49 289.3597,1175.2504 288.5397,1245.8404 " fill="none" id="Exercise-Solution-1" style="stroke:#181818;stroke-width:1.0;"/><polygon fill="none" points="424.53,858.5,417.3315,858.927,414.957,865.7359,422.1555,865.3089,424.53,858.5" style="stroke:#181818;stroke-width:1.0;"/><polygon fill="#181818" points="288.47,1251.84,292.5743,1242.8871,288.5281,1246.8403,284.5748,1242.7941,288.47,1251.84" style="stroke:#181818;stroke-width:1.0;"/><text fill="#000000" font-family="sans-serif" font-size="13" lengthAdjust="spacing" textLength="5" x="282.9682" y="1241.1212">*</text></g><!--link Exercise to Solution--><g id="link_Exercise_Solution"><path codeLine="55" d="M455.92,858.5 C436.1,876.21 409.84,900.25 394,928 C333.78,1033.49 325.5204,1175.3775 310.7304,1245.9675 " fill="none" id="Exercise-to-Solution" style="stroke:#181818;stroke-width:1.0;stroke-dasharray:7.0,7.0;"/><polygon fill="#181818" points="309.5,1251.84,315.2606,1243.8515,310.5253,1246.9463,307.4306,1242.211,309.5,1251.84" style="stroke:#181818;stroke-width:1.0;"/></g><!--link Question to Statement--><g id="link_Question_Statement"><path codeLine="61" d="M620.207,1044.2135 C607.067,1053.0635 603.1,1055.59 590,1064 C557.56,1084.82 525.7968,1104.2061 496.3568,1121.8461 " fill="none" id="Question-Statement" style="stroke:#181818;stroke-width:1.0;"/><polygon fill="#181818" points="630.16,1037.51,622.949,1037.5441,620.207,1044.2135,627.418,1044.1794,630.16,1037.51" style="stroke:#181818;stroke-width:1.0;"/><polygon fill="#181818" points="491.21,1124.93,500.9861,1123.7354,495.499,1122.3601,496.8743,1116.873,491.21,1124.93" style="stroke:#181818;stroke-width:1.0;"/></g><!--reverse link Question to MultipleChoice--><g id="link_Question_MultipleChoice"><path codeLine="62" d="M692.3019,1055.7615 C694.0119,1086.1315 695.27,1108.54 696.69,1133.64 " fill="none" id="Question-backto-MultipleChoice" style="stroke:#181818;stroke-width:1.0;"/><polygon fill="none" points="691.29,1037.79,686.3114,1056.0988,698.2924,1055.4242,691.29,1037.79" style="stroke:#181818;stroke-width:1.0;"/></g><!--reverse link Question to Cloze--><g id="link_Question_Cloze"><path codeLine="63" d="M742.5179,1050.5179 C769.5479,1077.5479 791.8,1099.8 816.86,1124.86 " fill="none" id="Question-backto-Cloze" style="stroke:#181818;stroke-width:1.0;"/><polygon fill="none" points="729.79,1037.79,738.2753,1054.7606,746.7606,1046.2753,729.79,1037.79" style="stroke:#181818;stroke-width:1.0;"/></g><!--reverse link Question to Open--><g id="link_Question_Open"><path codeLine="64" d="M646.985,1052.103 C623.825,1082.473 603.95,1108.54 584.81,1133.64 " fill="none" id="Question-backto-Open" style="stroke:#181818;stroke-width:1.0;"/><polygon fill="none" points="657.9,1037.79,642.214,1048.4647,651.756,1055.7414,657.9,1037.79" style="stroke:#181818;stroke-width:1.0;"/></g><!--link Solution to Justification--><g id="link_Solution_Justification"><path codeLine="77" d="M235.1883,1343.2884 C208.2983,1367.6584 187.9455,1386.1204 162.9355,1408.7904 " fill="none" id="Solution-Justification" style="stroke:#181818;stroke-width:1.0;"/><polygon fill="#181818" points="244.08,1335.23,236.948,1336.2953,235.1883,1343.2884,242.3203,1342.2231,244.08,1335.23" style="stroke:#181818;stroke-width:1.0;"/><polygon fill="#181818" points="158.49,1412.82,167.8446,1409.7393,162.1946,1409.462,162.4719,1403.812,158.49,1412.82" style="stroke:#181818;stroke-width:1.0;"/><text fill="#000000" font-family="sans-serif" font-size="13" lengthAdjust="spacing" textLength="102" x="211" y="1379.4951">[!Solution.correct]</text><text fill="#000000" font-family="sans-serif" font-size="13" lengthAdjust="spacing" textLength="5" x="160.2942" y="1401.8983">*</text></g><!--reverse link Statement to Solution--><g id="link_Statement_Solution"><path codeLine="82" d="M387.8036,1203.3756 C367.6136,1221.5856 355.57,1232.45 334.05,1251.87 " fill="none" id="Statement-backto-Solution" style="stroke:#181818;stroke-width:1.0;"/><polygon fill="none" points="401.17,1191.32,383.785,1198.9201,391.8221,1207.8311,401.17,1191.32" style="stroke:#181818;stroke-width:1.0;"/></g><!--link Topic to Document--><g id="link_Topic_Document"><path codeLine="87" d="M583.281,421.7297 C646.491,435.0797 714.84,456.05 777,496 C908.44,580.47 1011.7001,736.5911 1048.2401,796.3511 " fill="none" id="Topic-Document" style="stroke:#181818;stroke-width:1.0;"/><polygon fill="#181818" points="571.54,419.25,576.5839,424.4035,583.281,421.7297,578.2371,416.5762,571.54,419.25" style="stroke:#181818;stroke-width:1.0;"/><polygon fill="#181818" points="1051.37,801.47,1050.0877,791.705,1048.7617,797.2042,1043.2625,795.8782,1051.37,801.47" style="stroke:#181818;stroke-width:1.0;"/><text fill="#000000" font-family="sans-serif" font-size="13" lengthAdjust="spacing" textLength="5" x="1042.2367" y="790.8025">*</text></g><!--reverse link Topic to CompositeTopic--><g id="link_Topic_CompositeTopic"><path codeLine="88" d="M452.652,453.0466 C450.282,471.7066 451.99,477.27 453.47,495.92 " fill="none" id="Topic-backto-CompositeTopic" style="stroke:#181818;stroke-width:1.0;"/><polygon fill="none" points="454.92,435.19,446.6999,452.2906,458.6042,453.8025,454.92,435.19" style="stroke:#181818;stroke-width:1.0;"/></g><!--link CompositeTopic to Topic--><g id="link_CompositeTopic_Topic"><path codeLine="99" d="M478.3243,484.0264 C480.8243,465.3764 480.2994,459.8283 478.7094,441.1683 " fill="none" id="CompositeTopic-Topic" style="stroke:#181818;stroke-width:1.0;"/><polygon fill="none" points="476.73,495.92,481.4917,490.5046,478.3243,484.0264,473.5626,489.4418,476.73,495.92" style="stroke:#181818;stroke-width:1.0;"/><polygon fill="#181818" points="478.2,435.19,474.9786,444.4971,478.6245,440.1719,482.9497,443.8179,478.2,435.19" style="stroke:#181818;stroke-width:1.0;"/><text fill="#000000" font-family="sans-serif" font-size="13" lengthAdjust="spacing" textLength="8" x="471.4825" y="456.0882">+</text></g><!--reverse link Topic to SimpleTopic--><g id="link_Topic_SimpleTopic"><path codeLine="89" d="M533.2329,444.6036 C562.9429,463.2636 585.05,477.15 614.8,495.84 " fill="none" id="Topic-backto-SimpleTopic" style="stroke:#181818;stroke-width:1.0;"/><polygon fill="none" points="517.99,435.03,530.0417,449.6846,536.4241,439.5227,517.99,435.03" style="stroke:#181818;stroke-width:1.0;"/></g><!--link SimpleTopic to Concept--><g id="link_SimpleTopic_Concept"><path codeLine="94" d="M664.6743,574.3147 C664.1343,592.5247 663.9791,597.4527 663.3991,616.8727 " fill="none" id="SimpleTopic-Concept" style="stroke:#181818;stroke-width:1.0;"/><polygon fill="none" points="665.03,562.32,660.8539,568.1988,664.6743,574.3147,668.8504,568.4359,665.03,562.32" style="stroke:#181818;stroke-width:1.0;"/><polygon fill="#181818" points="663.22,622.87,667.4869,613.9934,663.3693,617.8722,659.4905,613.7546,663.22,622.87" style="stroke:#181818;stroke-width:1.0;"/><text fill="#000000" font-family="sans-serif" font-size="13" lengthAdjust="spacing" textLength="8" x="654.7596" y="612.1561">+</text></g><!--link Document to Audio--><g id="link_Document_Audio"><path codeLine="102" d="M1089.4471,859.1897 C1113.5071,891.3597 1146.0965,934.9552 1170.1565,967.1252 " fill="none" id="Document-Audio" style="stroke:#181818;stroke-width:1.0;"/><polygon fill="#181818" points="1082.26,849.58,1082.6503,856.7805,1089.4471,859.1897,1089.0568,851.9891,1082.26,849.58" style="stroke:#181818;stroke-width:1.0;"/><polygon fill="#181818" points="1173.75,971.93,1171.5629,962.3271,1170.7554,967.926,1165.1565,967.1184,1173.75,971.93" style="stroke:#181818;stroke-width:1.0;"/><text fill="#000000" font-family="sans-serif" font-size="13" lengthAdjust="spacing" textLength="5" x="1163.6891" y="961.2522">*</text></g><!--link Document to Video--><g id="link_Document_Video"><path codeLine="103" d="M1124.167,852.6126 C1162.017,870.5226 1203.79,893.67 1243,928 C1257.41,940.62 1267.0785,952.8766 1276.3585,966.7166 " fill="none" id="Document-Video" style="stroke:#181818;stroke-width:1.0;"/><polygon fill="#181818" points="1113.32,847.48,1117.0326,853.662,1124.167,852.6126,1120.4543,846.4306,1113.32,847.48" style="stroke:#181818;stroke-width:1.0;"/><polygon fill="#181818" points="1279.7,971.7,1278.0101,961.9972,1276.9154,967.5471,1271.3655,966.4525,1279.7,971.7" style="stroke:#181818;stroke-width:1.0;"/><text fill="#000000" font-family="sans-serif" font-size="13" lengthAdjust="spacing" textLength="5" x="1270.395" y="960.9633">*</text></g><!--link Document to Image--><g id="link_Document_Image"><path codeLine="104" d="M1050.2288,860.5907 C1036.2888,892.7607 1018.3156,934.2546 1004.3756,966.4246 " fill="none" id="Document-Image" style="stroke:#181818;stroke-width:1.0;"/><polygon fill="#181818" points="1055,849.58,1048.9442,853.495,1050.2288,860.5907,1056.2846,856.6758,1055,849.58" style="stroke:#181818;stroke-width:1.0;"/><polygon fill="#181818" points="1001.99,971.93,1009.2386,965.2624,1003.978,967.3422,1001.8982,962.0816,1001.99,971.93" style="stroke:#181818;stroke-width:1.0;"/><text fill="#000000" font-family="sans-serif" font-size="13" lengthAdjust="spacing" textLength="5" x="998.9093" y="961.2522">*</text></g><!--link Document to Text--><g id="link_Document_Text"><path codeLine="105" d="M1070.5969,861.4291 C1075.7469,893.5991 1082.2016,933.8354 1087.3516,966.0054 " fill="none" id="Document-Text" style="stroke:#181818;stroke-width:1.0;"/><polygon fill="#181818" points="1068.7,849.58,1065.6987,856.1369,1070.5969,861.4291,1073.5982,854.8723,1068.7,849.58" style="stroke:#181818;stroke-width:1.0;"/><polygon fill="#181818" points="1088.3,971.93,1090.827,962.4109,1087.5096,966.9929,1082.9276,963.6755,1088.3,971.93" style="stroke:#181818;stroke-width:1.0;"/><text fill="#000000" font-family="sans-serif" font-size="13" lengthAdjust="spacing" textLength="5" x="1081.7112" y="961.2522">*</text></g><!--link Concept to Definition--><g id="link_Concept_Definition"><path codeLine="111" d="M555.853,674.379 C493.373,682.619 423.43,698.62 360,736 C336.45,749.88 319.5144,768.1833 305.1544,787.2933 " fill="none" id="Concept-Definition" style="stroke:#181818;stroke-width:1.0;"/><polygon fill="#181818" points="567.75,672.81,561.2785,669.6288,555.853,674.379,562.3245,677.5602,567.75,672.81" style="stroke:#181818;stroke-width:1.0;"/><polygon fill="#181818" points="301.55,792.09,310.1544,787.2979,304.5537,788.0928,303.7588,782.492,301.55,792.09" style="stroke:#181818;stroke-width:1.0;"/><text fill="#000000" font-family="sans-serif" font-size="13" lengthAdjust="spacing" textLength="40" x="361" y="750.4951">correct</text><text fill="#000000" font-family="sans-serif" font-size="13" lengthAdjust="spacing" textLength="8" x="296.8955" y="781.7621">+</text></g><!--link Concept to Definition--><g id="link_Concept_Definition"><path codeLine="112" d="M556.4817,705.3526 C497.5117,728.0626 431.42,754.39 364,784 C357.92,786.67 357.0824,786.9941 350.8124,789.9041 " fill="none" id="Concept-Definition-1" style="stroke:#181818;stroke-width:1.0;"/><polygon fill="#181818" points="567.68,701.04,560.6433,699.4635,556.4817,705.3526,563.5184,706.9291,567.68,701.04" style="stroke:#181818;stroke-width:1.0;"/><polygon fill="#181818" points="345.37,792.43,355.2175,792.2694,349.9053,790.3251,351.8497,785.0129,345.37,792.43" style="stroke:#181818;stroke-width:1.0;"/><text fill="#000000" font-family="sans-serif" font-size="13" lengthAdjust="spacing" textLength="50" x="478" y="750.4951">incorrect</text><text fill="#000000" font-family="sans-serif" font-size="13" lengthAdjust="spacing" textLength="5" x="353.3369" y="781.531">*</text></g><!--link Concept to Relation--><g id="link_Concept_Relation"><path codeLine="113" d="M659.3899,718.1323 C659.9599,734.0323 662.5,739.83 671,754 C677.83,765.39 682.6488,771.5498 693.1288,780.0898 " fill="none" id="Concept-Relation" style="stroke:#181818;stroke-width:1.0;"/><polygon fill="#181818" points="658.96,706.14,655.1775,712.2795,659.3899,718.1323,663.1724,711.9928,658.96,706.14" style="stroke:#181818;stroke-width:1.0;"/><polygon fill="#181818" points="697.78,783.88,693.33,775.0938,693.904,780.7215,688.2763,781.2955,697.78,783.88" style="stroke:#181818;stroke-width:1.0;"/><text fill="#000000" font-family="sans-serif" font-size="13" lengthAdjust="spacing" textLength="5" x="679.4108" y="773.1678">*</text></g><!--link Relation to Concept--><g id="link_Relation_Concept"><path codeLine="121" d="M729.59,783.87 C720.46,774.6 711.42,764.4 704,754 C693.63,739.46 687.1342,727.444 680.2142,711.854 " fill="none" id="Relation-to-Concept" style="stroke:#181818;stroke-width:1.0;"/><polygon fill="#181818" points="677.78,706.37,677.7753,716.2189,679.8085,710.94,685.0873,712.9732,677.78,706.37" style="stroke:#181818;stroke-width:1.0;"/><text fill="#000000" font-family="sans-serif" font-size="13" lengthAdjust="spacing" textLength="33" x="705" y="750.4951">target</text></g><!--link Relation to Concept--><g id="link_Relation_Concept"><path codeLine="123" d="M765.48,783.67 C760.26,767.92 752.9,750.29 743,736 C735.57,725.27 730.5495,719.2198 720.7795,710.1598 " fill="none" id="Relation-to-Concept-1" style="stroke:#181818;stroke-width:1.0;"/><polygon fill="#181818" points="716.38,706.08,720.2594,715.1326,720.0462,709.4798,725.6991,709.2667,716.38,706.08" style="stroke:#181818;stroke-width:1.0;"/><text fill="#000000" font-family="sans-serif" font-size="13" lengthAdjust="spacing" textLength="31" x="754" y="750.4951">origin</text></g><!--link Concept to Document--><g id="link_Concept_Document"><path codeLine="114" d="M767.3928,707.0836 C849.0428,739.2936 947.1085,777.9884 1011.2485,803.2884 " fill="none" id="Concept-Document" style="stroke:#181818;stroke-width:1.0;"/><polygon fill="none" points="756.23,702.68,760.3435,708.6027,767.3928,707.0836,763.2793,701.1609,756.23,702.68" style="stroke:#181818;stroke-width:1.0;"/><polygon fill="#181818" points="1016.83,805.49,1009.9255,798.4666,1012.1788,803.6553,1006.99,805.9086,1016.83,805.49" style="stroke:#181818;stroke-width:1.0;"/><text fill="#000000" font-family="sans-serif" font-size="13" lengthAdjust="spacing" textLength="5" x="1004.0712" y="798.723">*</text></g><!--link Concept to Exercise--><g id="link_Concept_Exercise"><path codeLine="115" d="M604.9093,713.7812 C573.2593,740.5612 546.082,763.5464 516.652,788.4264 " fill="none" id="Concept-Exercise" style="stroke:#181818;stroke-width:1.0;"/><polygon fill="none" points="614.07,706.03,606.9059,706.852,604.9093,713.7812,612.0734,712.9592,614.07,706.03" style="stroke:#181818;stroke-width:1.0;"/><polygon fill="#181818" points="512.07,792.3,521.5255,789.5442,515.8884,789.072,516.3606,783.4349,512.07,792.3" style="stroke:#181818;stroke-width:1.0;"/><text fill="#000000" font-family="sans-serif" font-size="13" lengthAdjust="spacing" textLength="5" x="514.0728" y="781.7569">*</text></g><!--link Relation to RelationType--><g id="link_Relation_RelationType"><path codeLine="122" d="M802.855,877.9268 C812.365,896.1368 815.5038,902.1309 826.2138,922.6509 " fill="none" id="Relation-RelationType" style="stroke:#181818;stroke-width:1.0;"/><polygon fill="#181818" points="797.3,867.29,796.5319,874.4601,802.855,877.9268,803.6231,870.7568,797.3,867.29" style="stroke:#181818;stroke-width:1.0;"/><polygon fill="#181818" points="828.99,927.97,828.3718,918.1406,826.6765,923.5374,821.2796,921.8422,828.99,927.97" style="stroke:#181818;stroke-width:1.0;"/></g><!--SRC=[VLNRRjim37ttLsXz6P0r_O2W252aVUYmOPTaUndseDYiAyoMF4dkscNvzr4NIbOkzOkjG-hmaABeksQikHLAVkwuVL2wPxFvVCaktbsmRmPqTNVQlb63gCyPxwsGeBb-OGisQ6ZW0TVD2M_bGyqkYXtrQApgpt6l7hcjAhurLlFQUesxQbzLxeDT_vlFsGPu_OZACxAsOmFI1iInkEpMgXiTVK2lhY9rMYL9LLLtt1ZYzT424dadYADmI_VsB2vIg5Nqo9dkAeRFFEQBYM-Lwe3B25ktoo3yGHXxxJcMo9ptApgdWl_M5Lkun780fJLWhNA4VJLncz4Xl4SXua64gYz-l6cIprMa-4bH2jTN0v4irND1dc_dp5XkeSVYeVEQlZSl0qIg9z36KI-Om8CBc8RVez3UCzLbRRMGhIjCxecxPz2rC91qqL7dNH5m-vAtRvMWym3yCeBnhPBWeoPA5dSghfZ75jSE2SrgYPp4dgmCsUBsbHgztTLcNn63LvMt9DZdy77ih1WwM3qgKSE1STMfluVOfm5aQcjd3mAt7PU_V7mAprZqAaDCxqcKVRvF0WvFl1jHVbDq4Eq-twZaaTkK7J_fpiRwP37IKhLTBxc8wGZ2-3W-D7_bYA5HzLWqvMq4N7jvpooTJ14FrLVze8om42xonB8MFTQpkDyJQ9913KCElmfh5ttYdUT5jAV3BSBlNXa_p4ssmllS48fPxd3GnCzmPR02DsCZr37yNJHm0hxlUGl7y0QU9_fzEYGSudrBska2BjCOwNWn3Rv6OEdJysGOg55_PCnjCYmNrBmdF6S7daA-wajXarKLJDGe9wsK4zM0kDB8ipXAKGBXaycAtI9HKv1uA_mN_aweQoudtPDO_OytwbWmotKBDbjJLaMqCvkL5YqEs0has1SRedJy__htZJ6g5g50RarzH-jxYVzYOJdo1l-srT06_ptx3m00]--></g></svg>