<?xml version="1.0" encoding="UTF-8" standalone="no"?><svg xmlns="http://www.w3.org/2000/svg" xmlns:xlink="http://www.w3.org/1999/xlink" contentStyleType="text/css" height="1988px" preserveAspectRatio="none" style="width:954px;height:1988px;background:#FFFFFF;" version="1.1" viewBox="0 0 954 1988" width="954px" zoomAndPan="magnify"><defs/><g><!--class Itinerary--><g id="elem_Itinerary"><rect codeLine="1" fill="#F1F1F1" height="80.9766" id="Itinerary" rx="2.5" ry="2.5" style="stroke:#181818;stroke-width:0.5;" width="144" x="705" y="506.93"/><ellipse cx="744.75" cy="522.93" fill="#ADD1B2" rx="11" ry="11" style="stroke:#181818;stroke-width:1.0;"/><path d="M747.2231,529.0731 Q746.6421,529.3719 746.0029,529.5213 Q745.3638,529.6707 744.6582,529.6707 Q742.1514,529.6707 740.8315,528.0189 Q739.5117,526.367 739.5117,523.2459 Q739.5117,520.1165 740.8315,518.4647 Q742.1514,516.8128 744.6582,516.8128 Q745.3638,516.8128 746.0112,516.9622 Q746.6587,517.1116 747.2231,517.4105 L747.2231,520.1331 Q746.5923,519.5521 745.9988,519.2823 Q745.4053,519.0125 744.7744,519.0125 Q743.4297,519.0125 742.7449,520.0792 Q742.0601,521.1458 742.0601,523.2459 Q742.0601,525.3377 742.7449,526.4044 Q743.4297,527.471 744.7744,527.471 Q745.4053,527.471 745.9988,527.2012 Q746.5923,526.9315 747.2231,526.3504 Z " fill="#000000"/><text fill="#000000" font-family="sans-serif" font-size="14" lengthAdjust="spacing" textLength="57" x="764.25" y="528.221">Itinerary</text><line style="stroke:#181818;stroke-width:0.5;" x1="706" x2="848" y1="538.93" y2="538.93"/><rect fill="none" height="6" style="stroke:#C82930;stroke-width:1.0;" width="6" x="713" y="549.6741"/><text fill="#000000" font-family="sans-serif" font-size="14" lengthAdjust="spacing" textLength="118" x="725" y="556.4652">custom : boolean</text><line style="stroke:#181818;stroke-width:0.5;" x1="706" x2="848" y1="563.4183" y2="563.4183"/><ellipse cx="716" cy="577.1624" fill="#84BE84" rx="3" ry="3" style="stroke:#038048;stroke-width:1.0;"/><text fill="#000000" font-family="sans-serif" font-size="14" lengthAdjust="spacing" textLength="36" x="725" y="580.9534">Edit()</text></g><!--class Topic--><g id="elem_Topic"><rect codeLine="6" fill="#F1F1F1" height="113.9531" id="Topic" rx="2.5" ry="2.5" style="stroke:#181818;stroke-width:0.5;" width="190" x="427" y="648.91"/><ellipse cx="498.75" cy="664.91" fill="#A9DCDF" rx="11" ry="11" style="stroke:#181818;stroke-width:1.0;"/><path d="M498.6133,660.2581 L497.4595,665.3299 L499.7754,665.3299 Z M497.1191,658.0169 L500.1157,658.0169 L503.4609,670.41 L501.0122,670.41 L500.2485,667.347 L496.9697,667.347 L496.2227,670.41 L493.7739,670.41 Z " fill="#000000"/><text fill="#000000" font-family="sans-serif" font-size="14" font-style="italic" lengthAdjust="spacing" textLength="38" x="519.25" y="670.201">Topic</text><line style="stroke:#181818;stroke-width:0.5;" x1="428" x2="616" y1="680.91" y2="680.91"/><line style="stroke:#181818;stroke-width:0.5;" x1="428" x2="616" y1="688.91" y2="688.91"/><ellipse cx="438" cy="702.6541" fill="#84BE84" rx="3" ry="3" style="stroke:#038048;stroke-width:1.0;"/><text fill="#000000" font-family="sans-serif" font-size="14" lengthAdjust="spacing" textLength="148" x="447" y="706.4452">getTableOfContents()</text><ellipse cx="438" cy="719.1424" fill="#84BE84" rx="3" ry="3" style="stroke:#038048;stroke-width:1.0;"/><text fill="#000000" font-family="sans-serif" font-size="14" lengthAdjust="spacing" textLength="164" x="447" y="722.9334">getSyllabus() : Concepts</text><ellipse cx="438" cy="735.6307" fill="#84BE84" rx="3" ry="3" style="stroke:#038048;stroke-width:1.0;"/><text fill="#000000" font-family="sans-serif" font-size="14" lengthAdjust="spacing" textLength="36" x="447" y="739.4217">Edit()</text><ellipse cx="438" cy="752.119" fill="#84BE84" rx="3" ry="3" style="stroke:#038048;stroke-width:1.0;"/><text fill="#000000" font-family="sans-serif" font-size="14" lengthAdjust="spacing" textLength="44" x="447" y="755.91">Read()</text></g><!--class Document--><g id="elem_Document"><rect codeLine="67" fill="#F1F1F1" height="48" id="Document" rx="2.5" ry="2.5" style="stroke:#181818;stroke-width:0.5;" width="102" x="676" y="1568.96"/><ellipse cx="691" cy="1584.96" fill="#ADD1B2" rx="11" ry="11" style="stroke:#181818;stroke-width:1.0;"/><path d="M693.4731,1591.1031 Q692.8921,1591.4019 692.2529,1591.5513 Q691.6138,1591.7007 690.9082,1591.7007 Q688.4014,1591.7007 687.0815,1590.0489 Q685.7617,1588.397 685.7617,1585.2759 Q685.7617,1582.1465 687.0815,1580.4947 Q688.4014,1578.8428 690.9082,1578.8428 Q691.6138,1578.8428 692.2612,1578.9922 Q692.9087,1579.1416 693.4731,1579.4405 L693.4731,1582.1631 Q692.8423,1581.5821 692.2488,1581.3123 Q691.6553,1581.0425 691.0244,1581.0425 Q689.6797,1581.0425 688.9949,1582.1092 Q688.3101,1583.1758 688.3101,1585.2759 Q688.3101,1587.3677 688.9949,1588.4344 Q689.6797,1589.501 691.0244,1589.501 Q691.6553,1589.501 692.2488,1589.2312 Q692.8423,1588.9615 693.4731,1588.3804 Z " fill="#000000"/><text fill="#000000" font-family="sans-serif" font-size="14" lengthAdjust="spacing" textLength="70" x="705" y="1590.251">Document</text><line style="stroke:#181818;stroke-width:0.5;" x1="677" x2="777" y1="1600.96" y2="1600.96"/><line style="stroke:#181818;stroke-width:0.5;" x1="677" x2="777" y1="1608.96" y2="1608.96"/></g><!--class SimpleTopic--><g id="elem_SimpleTopic"><rect codeLine="17" fill="#F1F1F1" height="48" id="SimpleTopic" rx="2.5" ry="2.5" style="stroke:#181818;stroke-width:0.5;" width="116" x="585" y="918.35"/><ellipse cx="600" cy="934.35" fill="#ADD1B2" rx="11" ry="11" style="stroke:#181818;stroke-width:1.0;"/><path d="M602.4731,940.4931 Q601.8921,940.7919 601.2529,940.9413 Q600.6138,941.0907 599.9082,941.0907 Q597.4014,941.0907 596.0815,939.4389 Q594.7617,937.787 594.7617,934.6659 Q594.7617,931.5365 596.0815,929.8847 Q597.4014,928.2328 599.9082,928.2328 Q600.6138,928.2328 601.2612,928.3822 Q601.9087,928.5316 602.4731,928.8305 L602.4731,931.5531 Q601.8423,930.9721 601.2488,930.7023 Q600.6553,930.4325 600.0244,930.4325 Q598.6797,930.4325 597.9949,931.4992 Q597.3101,932.5658 597.3101,934.6659 Q597.3101,936.7577 597.9949,937.8244 Q598.6797,938.891 600.0244,938.891 Q600.6553,938.891 601.2488,938.6212 Q601.8423,938.3515 602.4731,937.7704 Z " fill="#000000"/><text fill="#000000" font-family="sans-serif" font-size="14" lengthAdjust="spacing" textLength="84" x="614" y="939.641">SimpleTopic</text><line style="stroke:#181818;stroke-width:0.5;" x1="586" x2="700" y1="950.35" y2="950.35"/><line style="stroke:#181818;stroke-width:0.5;" x1="586" x2="700" y1="958.35" y2="958.35"/></g><!--class CompositeTopic--><g id="elem_CompositeTopic"><rect codeLine="20" fill="#F1F1F1" height="64.4883" id="CompositeTopic" rx="2.5" ry="2.5" style="stroke:#181818;stroke-width:0.5;" width="162" x="441" y="823.86"/><ellipse cx="464.1" cy="839.86" fill="#ADD1B2" rx="11" ry="11" style="stroke:#181818;stroke-width:1.0;"/><path d="M466.5731,846.0031 Q465.9921,846.3019 465.3529,846.4513 Q464.7138,846.6007 464.0082,846.6007 Q461.5014,846.6007 460.1815,844.9489 Q458.8617,843.297 458.8617,840.1759 Q458.8617,837.0465 460.1815,835.3947 Q461.5014,833.7428 464.0082,833.7428 Q464.7138,833.7428 465.3612,833.8922 Q466.0087,834.0416 466.5731,834.3405 L466.5731,837.0631 Q465.9423,836.4821 465.3488,836.2123 Q464.7553,835.9425 464.1244,835.9425 Q462.7797,835.9425 462.0949,837.0092 Q461.4101,838.0758 461.4101,840.1759 Q461.4101,842.2677 462.0949,843.3344 Q462.7797,844.401 464.1244,844.401 Q464.7553,844.401 465.3488,844.1312 Q465.9423,843.8615 466.5731,843.2804 Z " fill="#000000"/><text fill="#000000" font-family="sans-serif" font-size="14" lengthAdjust="spacing" textLength="112" x="479.9" y="845.151">CompositeTopic</text><line style="stroke:#181818;stroke-width:0.5;" x1="442" x2="602" y1="855.86" y2="855.86"/><rect fill="none" height="6" style="stroke:#C82930;stroke-width:1.0;" width="6" x="449" y="866.6041"/><text fill="#000000" font-family="sans-serif" font-size="14" lengthAdjust="spacing" textLength="136" x="461" y="873.3952">topics : List&lt;Topic&gt;</text><line style="stroke:#181818;stroke-width:0.5;" x1="442" x2="602" y1="880.3483" y2="880.3483"/></g><!--class Excercise--><g id="elem_Excercise"><rect codeLine="24" fill="#F1F1F1" height="64.4883" id="Excercise" rx="2.5" ry="2.5" style="stroke:#181818;stroke-width:0.5;" width="96" x="310" y="823.86"/><ellipse cx="325" cy="839.86" fill="#ADD1B2" rx="11" ry="11" style="stroke:#181818;stroke-width:1.0;"/><path d="M327.4731,846.0031 Q326.8921,846.3019 326.2529,846.4513 Q325.6138,846.6007 324.9082,846.6007 Q322.4014,846.6007 321.0815,844.9489 Q319.7617,843.297 319.7617,840.1759 Q319.7617,837.0465 321.0815,835.3947 Q322.4014,833.7428 324.9082,833.7428 Q325.6138,833.7428 326.2612,833.8922 Q326.9087,834.0416 327.4731,834.3405 L327.4731,837.0631 Q326.8423,836.4821 326.2488,836.2123 Q325.6553,835.9425 325.0244,835.9425 Q323.6797,835.9425 322.9949,837.0092 Q322.3101,838.0758 322.3101,840.1759 Q322.3101,842.2677 322.9949,843.3344 Q323.6797,844.401 325.0244,844.401 Q325.6553,844.401 326.2488,844.1312 Q326.8423,843.8615 327.4731,843.2804 Z " fill="#000000"/><text fill="#000000" font-family="sans-serif" font-size="14" lengthAdjust="spacing" textLength="64" x="339" y="845.151">Excercise</text><line style="stroke:#181818;stroke-width:0.5;" x1="311" x2="405" y1="855.86" y2="855.86"/><rect fill="none" height="6" style="stroke:#C82930;stroke-width:1.0;" width="6" x="318" y="866.6041"/><text fill="#000000" font-family="sans-serif" font-size="14" lengthAdjust="spacing" textLength="50" x="330" y="873.3952">version</text><line style="stroke:#181818;stroke-width:0.5;" x1="311" x2="405" y1="880.3483" y2="880.3483"/></g><!--class Domain--><g id="elem_Domain"><rect codeLine="37" fill="#F1F1F1" height="80.9766" id="Domain" rx="2.5" ry="2.5" style="stroke:#181818;stroke-width:0.5;" width="216" x="265" y="996.35"/><ellipse cx="342.25" cy="1012.35" fill="#ADD1B2" rx="11" ry="11" style="stroke:#181818;stroke-width:1.0;"/><path d="M344.7231,1018.4931 Q344.1421,1018.7919 343.5029,1018.9413 Q342.8638,1019.0907 342.1582,1019.0907 Q339.6514,1019.0907 338.3315,1017.4389 Q337.0117,1015.787 337.0117,1012.6659 Q337.0117,1009.5365 338.3315,1007.8847 Q339.6514,1006.2328 342.1582,1006.2328 Q342.8638,1006.2328 343.5112,1006.3822 Q344.1587,1006.5316 344.7231,1006.8305 L344.7231,1009.5531 Q344.0923,1008.9721 343.4988,1008.7023 Q342.9053,1008.4325 342.2744,1008.4325 Q340.9297,1008.4325 340.2449,1009.4992 Q339.5601,1010.5658 339.5601,1012.6659 Q339.5601,1014.7577 340.2449,1015.8244 Q340.9297,1016.891 342.2744,1016.891 Q342.9053,1016.891 343.4988,1016.6212 Q344.0923,1016.3515 344.7231,1015.7704 Z " fill="#000000"/><text fill="#000000" font-family="sans-serif" font-size="14" lengthAdjust="spacing" textLength="53" x="362.75" y="1017.641">Domain</text><line style="stroke:#181818;stroke-width:0.5;" x1="266" x2="480" y1="1028.35" y2="1028.35"/><rect fill="none" height="6" style="stroke:#C82930;stroke-width:1.0;" width="6" x="273" y="1039.0941"/><text fill="#000000" font-family="sans-serif" font-size="14" lengthAdjust="spacing" textLength="190" x="285" y="1045.8852">requirements : List&lt;String&gt;</text><rect fill="none" height="6" style="stroke:#C82930;stroke-width:1.0;" width="6" x="273" y="1055.5824"/><text fill="#000000" font-family="sans-serif" font-size="14" lengthAdjust="spacing" textLength="182" x="285" y="1062.3734">statement : StatementType</text><line style="stroke:#181818;stroke-width:0.5;" x1="266" x2="480" y1="1069.3266" y2="1069.3266"/></g><!--class Application--><g id="elem_Application"><rect codeLine="32" fill="#F1F1F1" height="80.9766" id="Application" rx="2.5" ry="2.5" style="stroke:#181818;stroke-width:0.5;" width="156" x="134" y="1179.54"/><ellipse cx="169.7" cy="1195.54" fill="#ADD1B2" rx="11" ry="11" style="stroke:#181818;stroke-width:1.0;"/><path d="M172.1731,1201.6831 Q171.5921,1201.9819 170.9529,1202.1313 Q170.3138,1202.2807 169.6082,1202.2807 Q167.1014,1202.2807 165.7815,1200.6289 Q164.4617,1198.977 164.4617,1195.8559 Q164.4617,1192.7265 165.7815,1191.0747 Q167.1014,1189.4228 169.6082,1189.4228 Q170.3138,1189.4228 170.9612,1189.5722 Q171.6087,1189.7216 172.1731,1190.0205 L172.1731,1192.7431 Q171.5423,1192.1621 170.9488,1191.8923 Q170.3553,1191.6225 169.7244,1191.6225 Q168.3797,1191.6225 167.6949,1192.6892 Q167.0101,1193.7558 167.0101,1195.8559 Q167.0101,1197.9477 167.6949,1199.0144 Q168.3797,1200.081 169.7244,1200.081 Q170.3553,1200.081 170.9488,1199.8112 Q171.5423,1199.5415 172.1731,1198.9604 Z " fill="#000000"/><text fill="#000000" font-family="sans-serif" font-size="14" lengthAdjust="spacing" textLength="78" x="188.3" y="1200.831">Application</text><line style="stroke:#181818;stroke-width:0.5;" x1="135" x2="289" y1="1211.54" y2="1211.54"/><rect fill="none" height="6" style="stroke:#C82930;stroke-width:1.0;" width="6" x="142" y="1222.2841"/><text fill="#000000" font-family="sans-serif" font-size="14" lengthAdjust="spacing" textLength="116" x="154" y="1229.0752">correct : boolean</text><rect fill="none" height="6" style="stroke:#C82930;stroke-width:1.0;" width="6" x="142" y="1238.7724"/><text fill="#000000" font-family="sans-serif" font-size="14" lengthAdjust="spacing" textLength="130" x="154" y="1245.5634">evaluated: boolean</text><line style="stroke:#181818;stroke-width:0.5;" x1="135" x2="289" y1="1252.5166" y2="1252.5166"/></g><!--class StatementType--><g id="elem_StatementType"><rect codeLine="41" fill="#F1F1F1" height="163.418" id="StatementType" rx="2.5" ry="2.5" style="stroke:#181818;stroke-width:0.5;" width="134" x="426" y="1138.32"/><ellipse cx="441" cy="1154.32" fill="#EB937F" rx="11" ry="11" style="stroke:#181818;stroke-width:1.0;"/><path d="M444.6143,1160.82 L436.8945,1160.82 L436.8945,1148.4269 L444.6143,1148.4269 L444.6143,1150.5851 L439.3433,1150.5851 L439.3433,1153.258 L444.1162,1153.258 L444.1162,1155.4162 L439.3433,1155.4162 L439.3433,1158.6618 L444.6143,1158.6618 Z " fill="#000000"/><text fill="#000000" font-family="sans-serif" font-size="14" lengthAdjust="spacing" textLength="102" x="455" y="1159.611">StatementType</text><line style="stroke:#181818;stroke-width:0.5;" x1="427" x2="559" y1="1170.32" y2="1170.32"/><text fill="#000000" font-family="sans-serif" font-size="14" lengthAdjust="spacing" textLength="68" x="432" y="1187.8552">ClozeTest</text><text fill="#000000" font-family="sans-serif" font-size="14" lengthAdjust="spacing" textLength="67" x="432" y="1204.3434">Definition</text><text fill="#000000" font-family="sans-serif" font-size="14" lengthAdjust="spacing" textLength="56" x="432" y="1220.8317">Relation</text><text fill="#000000" font-family="sans-serif" font-size="14" lengthAdjust="spacing" textLength="37" x="432" y="1237.32">Open</text><text fill="#000000" font-family="sans-serif" font-size="14" lengthAdjust="spacing" textLength="102" x="432" y="1253.8083">MultipleChoice</text><text fill="#000000" font-family="sans-serif" font-size="14" lengthAdjust="spacing" textLength="119" x="432" y="1270.2966">JustifyApplication</text><text fill="#000000" font-family="sans-serif" font-size="14" lengthAdjust="spacing" textLength="114" x="432" y="1286.7848">ApplicationCode</text><line style="stroke:#181818;stroke-width:0.5;" x1="427" x2="559" y1="1293.738" y2="1293.738"/></g><!--class Text--><g id="elem_Text"><rect codeLine="51" fill="#F1F1F1" height="80.9766" id="Text" rx="2.5" ry="2.5" style="stroke:#181818;stroke-width:0.5;" width="138" x="398" y="1900.18"/><ellipse cx="447.25" cy="1916.18" fill="#ADD1B2" rx="11" ry="11" style="stroke:#181818;stroke-width:1.0;"/><path d="M449.7231,1922.3231 Q449.1421,1922.6219 448.5029,1922.7713 Q447.8638,1922.9207 447.1582,1922.9207 Q444.6514,1922.9207 443.3315,1921.2689 Q442.0117,1919.617 442.0117,1916.4959 Q442.0117,1913.3665 443.3315,1911.7147 Q444.6514,1910.0628 447.1582,1910.0628 Q447.8638,1910.0628 448.5112,1910.2122 Q449.1587,1910.3616 449.7231,1910.6605 L449.7231,1913.3831 Q449.0923,1912.8021 448.4988,1912.5323 Q447.9053,1912.2625 447.2744,1912.2625 Q445.9297,1912.2625 445.2449,1913.3292 Q444.5601,1914.3958 444.5601,1916.4959 Q444.5601,1918.5877 445.2449,1919.6544 Q445.9297,1920.721 447.2744,1920.721 Q447.9053,1920.721 448.4988,1920.4512 Q449.0923,1920.1815 449.7231,1919.6004 Z " fill="#000000"/><text fill="#000000" font-family="sans-serif" font-size="14" lengthAdjust="spacing" textLength="31" x="467.75" y="1921.471">Text</text><line style="stroke:#181818;stroke-width:0.5;" x1="399" x2="535" y1="1932.18" y2="1932.18"/><rect fill="none" height="6" style="stroke:#C82930;stroke-width:1.0;" width="6" x="406" y="1942.9241"/><text fill="#000000" font-family="sans-serif" font-size="14" lengthAdjust="spacing" textLength="112" x="418" y="1949.7152">tableOfContents</text><rect fill="none" height="6" style="stroke:#C82930;stroke-width:1.0;" width="6" x="406" y="1959.4124"/><text fill="#000000" font-family="sans-serif" font-size="14" lengthAdjust="spacing" textLength="49" x="418" y="1966.2034">images</text><line style="stroke:#181818;stroke-width:0.5;" x1="399" x2="535" y1="1973.1566" y2="1973.1566"/></g><!--class Concept--><g id="elem_Concept"><rect codeLine="56" fill="#F1F1F1" height="48" id="Concept" rx="2.5" ry="2.5" style="stroke:#181818;stroke-width:0.5;" width="89" x="353.5" y="1382.74"/><ellipse cx="368.5" cy="1398.74" fill="#ADD1B2" rx="11" ry="11" style="stroke:#181818;stroke-width:1.0;"/><path d="M370.9731,1404.8831 Q370.3921,1405.1819 369.7529,1405.3313 Q369.1138,1405.4807 368.4082,1405.4807 Q365.9014,1405.4807 364.5815,1403.8289 Q363.2617,1402.177 363.2617,1399.0559 Q363.2617,1395.9265 364.5815,1394.2747 Q365.9014,1392.6228 368.4082,1392.6228 Q369.1138,1392.6228 369.7612,1392.7722 Q370.4087,1392.9216 370.9731,1393.2205 L370.9731,1395.9431 Q370.3423,1395.3621 369.7488,1395.0923 Q369.1553,1394.8225 368.5244,1394.8225 Q367.1797,1394.8225 366.4949,1395.8892 Q365.8101,1396.9558 365.8101,1399.0559 Q365.8101,1401.1477 366.4949,1402.2144 Q367.1797,1403.281 368.5244,1403.281 Q369.1553,1403.281 369.7488,1403.0112 Q370.3423,1402.7415 370.9731,1402.1604 Z " fill="#000000"/><text fill="#000000" font-family="sans-serif" font-size="14" lengthAdjust="spacing" textLength="57" x="382.5" y="1404.031">Concept</text><line style="stroke:#181818;stroke-width:0.5;" x1="354.5" x2="441.5" y1="1414.74" y2="1414.74"/><line style="stroke:#181818;stroke-width:0.5;" x1="354.5" x2="441.5" y1="1422.74" y2="1422.74"/></g><!--class Definition--><g id="elem_Definition"><rect codeLine="59" fill="#F1F1F1" height="64.4883" id="Definition" rx="2.5" ry="2.5" style="stroke:#181818;stroke-width:0.5;" width="142" x="103" y="1560.96"/><ellipse cx="137.35" cy="1576.96" fill="#ADD1B2" rx="11" ry="11" style="stroke:#181818;stroke-width:1.0;"/><path d="M139.8231,1583.1031 Q139.2421,1583.4019 138.6029,1583.5513 Q137.9638,1583.7007 137.2582,1583.7007 Q134.7514,1583.7007 133.4315,1582.0489 Q132.1117,1580.397 132.1117,1577.2759 Q132.1117,1574.1465 133.4315,1572.4947 Q134.7514,1570.8428 137.2582,1570.8428 Q137.9638,1570.8428 138.6112,1570.9922 Q139.2587,1571.1416 139.8231,1571.4405 L139.8231,1574.1631 Q139.1923,1573.5821 138.5988,1573.3123 Q138.0053,1573.0425 137.3744,1573.0425 Q136.0297,1573.0425 135.3449,1574.1092 Q134.6601,1575.1758 134.6601,1577.2759 Q134.6601,1579.3677 135.3449,1580.4344 Q136.0297,1581.501 137.3744,1581.501 Q138.0053,1581.501 138.5988,1581.2312 Q139.1923,1580.9615 139.8231,1580.3804 Z " fill="#000000"/><text fill="#000000" font-family="sans-serif" font-size="14" lengthAdjust="spacing" textLength="67" x="155.65" y="1582.251">Definition</text><line style="stroke:#181818;stroke-width:0.5;" x1="104" x2="244" y1="1592.96" y2="1592.96"/><rect fill="none" height="6" style="stroke:#C82930;stroke-width:1.0;" width="6" x="111" y="1603.7041"/><text fill="#000000" font-family="sans-serif" font-size="14" lengthAdjust="spacing" textLength="116" x="123" y="1610.4952">correct : boolean</text><line style="stroke:#181818;stroke-width:0.5;" x1="104" x2="244" y1="1617.4483" y2="1617.4483"/></g><!--class Justification--><g id="elem_Justification"><rect codeLine="63" fill="#F1F1F1" height="64.4883" id="Justification" rx="2.5" ry="2.5" style="stroke:#181818;stroke-width:0.5;" width="142" x="7" y="1755.18"/><ellipse cx="35.5" cy="1771.18" fill="#ADD1B2" rx="11" ry="11" style="stroke:#181818;stroke-width:1.0;"/><path d="M37.9731,1777.3231 Q37.3921,1777.6219 36.7529,1777.7713 Q36.1138,1777.9207 35.4082,1777.9207 Q32.9014,1777.9207 31.5815,1776.2689 Q30.2617,1774.617 30.2617,1771.4959 Q30.2617,1768.3665 31.5815,1766.7147 Q32.9014,1765.0628 35.4082,1765.0628 Q36.1138,1765.0628 36.7612,1765.2122 Q37.4087,1765.3616 37.9731,1765.6605 L37.9731,1768.3831 Q37.3423,1767.8021 36.7488,1767.5323 Q36.1553,1767.2625 35.5244,1767.2625 Q34.1797,1767.2625 33.4949,1768.3292 Q32.8101,1769.3958 32.8101,1771.4959 Q32.8101,1773.5877 33.4949,1774.6544 Q34.1797,1775.721 35.5244,1775.721 Q36.1553,1775.721 36.7488,1775.4512 Q37.3423,1775.1815 37.9731,1774.6004 Z " fill="#000000"/><text fill="#000000" font-family="sans-serif" font-size="14" lengthAdjust="spacing" textLength="80" x="52.5" y="1776.471">Justification</text><line style="stroke:#181818;stroke-width:0.5;" x1="8" x2="148" y1="1787.18" y2="1787.18"/><rect fill="none" height="6" style="stroke:#C82930;stroke-width:1.0;" width="6" x="15" y="1797.9241"/><text fill="#000000" font-family="sans-serif" font-size="14" lengthAdjust="spacing" textLength="116" x="27" y="1804.7152">correct : boolean</text><line style="stroke:#181818;stroke-width:0.5;" x1="8" x2="148" y1="1811.6683" y2="1811.6683"/></g><!--class Media--><g id="elem_Media"><rect codeLine="71" fill="#F1F1F1" height="48" id="Media" rx="2.5" ry="2.5" style="stroke:#181818;stroke-width:0.5;" width="73" x="690.5" y="1763.18"/><ellipse cx="705.5" cy="1779.18" fill="#ADD1B2" rx="11" ry="11" style="stroke:#181818;stroke-width:1.0;"/><path d="M707.9731,1785.3231 Q707.3921,1785.6219 706.7529,1785.7713 Q706.1138,1785.9207 705.4082,1785.9207 Q702.9014,1785.9207 701.5815,1784.2689 Q700.2617,1782.617 700.2617,1779.4959 Q700.2617,1776.3665 701.5815,1774.7147 Q702.9014,1773.0628 705.4082,1773.0628 Q706.1138,1773.0628 706.7612,1773.2122 Q707.4087,1773.3616 707.9731,1773.6605 L707.9731,1776.3831 Q707.3423,1775.8021 706.7488,1775.5323 Q706.1553,1775.2625 705.5244,1775.2625 Q704.1797,1775.2625 703.4949,1776.3292 Q702.8101,1777.3958 702.8101,1779.4959 Q702.8101,1781.5877 703.4949,1782.6544 Q704.1797,1783.721 705.5244,1783.721 Q706.1553,1783.721 706.7488,1783.4512 Q707.3423,1783.1815 707.9731,1782.6004 Z " fill="#000000"/><text fill="#000000" font-family="sans-serif" font-size="14" lengthAdjust="spacing" textLength="41" x="719.5" y="1784.471">Media</text><line style="stroke:#181818;stroke-width:0.5;" x1="691.5" x2="762.5" y1="1795.18" y2="1795.18"/><line style="stroke:#181818;stroke-width:0.5;" x1="691.5" x2="762.5" y1="1803.18" y2="1803.18"/></g><!--class EducationPlatform--><g id="elem_EducationPlatform"><rect fill="#F1F1F1" height="48" id="EducationPlatform" rx="2.5" ry="2.5" style="stroke:#181818;stroke-width:0.5;" width="158" x="496" y="7"/><ellipse cx="511" cy="23" fill="#ADD1B2" rx="11" ry="11" style="stroke:#181818;stroke-width:1.0;"/><path d="M513.4731,29.1431 Q512.8921,29.4419 512.2529,29.5913 Q511.6138,29.7407 510.9082,29.7407 Q508.4014,29.7407 507.0815,28.0889 Q505.7617,26.437 505.7617,23.3159 Q505.7617,20.1865 507.0815,18.5347 Q508.4014,16.8828 510.9082,16.8828 Q511.6138,16.8828 512.2612,17.0322 Q512.9087,17.1816 513.4731,17.4805 L513.4731,20.2031 Q512.8423,19.6221 512.2488,19.3523 Q511.6553,19.0825 511.0244,19.0825 Q509.6797,19.0825 508.9949,20.1492 Q508.3101,21.2158 508.3101,23.3159 Q508.3101,25.4077 508.9949,26.4744 Q509.6797,27.541 511.0244,27.541 Q511.6553,27.541 512.2488,27.2712 Q512.8423,27.0015 513.4731,26.4204 Z " fill="#000000"/><text fill="#000000" font-family="sans-serif" font-size="14" lengthAdjust="spacing" textLength="126" x="525" y="28.291">EducationPlatform</text><line style="stroke:#181818;stroke-width:0.5;" x1="497" x2="653" y1="39" y2="39"/><line style="stroke:#181818;stroke-width:0.5;" x1="497" x2="653" y1="47" y2="47"/></g><!--class User--><g id="elem_User"><rect codeLine="77" fill="#F1F1F1" height="48" id="User" rx="2.5" ry="2.5" style="stroke:#181818;stroke-width:0.5;" width="63" x="361.5" y="136"/><ellipse cx="376.5" cy="152" fill="#A9DCDF" rx="11" ry="11" style="stroke:#181818;stroke-width:1.0;"/><path d="M376.3633,147.3481 L375.2095,152.4199 L377.5254,152.4199 Z M374.8691,145.1069 L377.8657,145.1069 L381.2109,157.5 L378.7622,157.5 L377.9985,154.437 L374.7197,154.437 L373.9727,157.5 L371.5239,157.5 Z " fill="#000000"/><text fill="#000000" font-family="sans-serif" font-size="14" font-style="italic" lengthAdjust="spacing" textLength="31" x="390.5" y="157.291">User</text><line style="stroke:#181818;stroke-width:0.5;" x1="362.5" x2="423.5" y1="168" y2="168"/><line style="stroke:#181818;stroke-width:0.5;" x1="362.5" x2="423.5" y1="176" y2="176"/></g><!--class Teacher--><g id="elem_Teacher"><rect fill="#F1F1F1" height="48" id="Teacher" rx="2.5" ry="2.5" style="stroke:#181818;stroke-width:0.5;" width="87" x="280.5" y="268.96"/><ellipse cx="295.5" cy="284.96" fill="#ADD1B2" rx="11" ry="11" style="stroke:#181818;stroke-width:1.0;"/><path d="M297.9731,291.1031 Q297.3921,291.4019 296.7529,291.5513 Q296.1138,291.7007 295.4082,291.7007 Q292.9014,291.7007 291.5815,290.0489 Q290.2617,288.397 290.2617,285.2759 Q290.2617,282.1465 291.5815,280.4947 Q292.9014,278.8428 295.4082,278.8428 Q296.1138,278.8428 296.7612,278.9922 Q297.4087,279.1416 297.9731,279.4405 L297.9731,282.1631 Q297.3423,281.5821 296.7488,281.3123 Q296.1553,281.0425 295.5244,281.0425 Q294.1797,281.0425 293.4949,282.1092 Q292.8101,283.1758 292.8101,285.2759 Q292.8101,287.3677 293.4949,288.4344 Q294.1797,289.501 295.5244,289.501 Q296.1553,289.501 296.7488,289.2312 Q297.3423,288.9615 297.9731,288.3804 Z " fill="#000000"/><text fill="#000000" font-family="sans-serif" font-size="14" lengthAdjust="spacing" textLength="55" x="309.5" y="290.251">Teacher</text><line style="stroke:#181818;stroke-width:0.5;" x1="281.5" x2="366.5" y1="300.96" y2="300.96"/><line style="stroke:#181818;stroke-width:0.5;" x1="281.5" x2="366.5" y1="308.96" y2="308.96"/></g><!--class Student--><g id="elem_Student"><rect fill="#F1F1F1" height="48" id="Student" rx="2.5" ry="2.5" style="stroke:#181818;stroke-width:0.5;" width="85" x="532.5" y="268.96"/><ellipse cx="547.5" cy="284.96" fill="#ADD1B2" rx="11" ry="11" style="stroke:#181818;stroke-width:1.0;"/><path d="M549.9731,291.1031 Q549.3921,291.4019 548.7529,291.5513 Q548.1138,291.7007 547.4082,291.7007 Q544.9014,291.7007 543.5815,290.0489 Q542.2617,288.397 542.2617,285.2759 Q542.2617,282.1465 543.5815,280.4947 Q544.9014,278.8428 547.4082,278.8428 Q548.1138,278.8428 548.7612,278.9922 Q549.4087,279.1416 549.9731,279.4405 L549.9731,282.1631 Q549.3423,281.5821 548.7488,281.3123 Q548.1553,281.0425 547.5244,281.0425 Q546.1797,281.0425 545.4949,282.1092 Q544.8101,283.1758 544.8101,285.2759 Q544.8101,287.3677 545.4949,288.4344 Q546.1797,289.501 547.5244,289.501 Q548.1553,289.501 548.7488,289.2312 Q549.3423,288.9615 549.9731,288.3804 Z " fill="#000000"/><text fill="#000000" font-family="sans-serif" font-size="14" lengthAdjust="spacing" textLength="53" x="561.5" y="290.251">Student</text><line style="stroke:#181818;stroke-width:0.5;" x1="533.5" x2="616.5" y1="300.96" y2="300.96"/><line style="stroke:#181818;stroke-width:0.5;" x1="533.5" x2="616.5" y1="308.96" y2="308.96"/></g><!--class Chat--><g id="elem_Chat"><rect fill="#F1F1F1" height="48" id="Chat" rx="2.5" ry="2.5" style="stroke:#181818;stroke-width:0.5;" width="64" x="265" y="381.93"/><ellipse cx="280" cy="397.93" fill="#ADD1B2" rx="11" ry="11" style="stroke:#181818;stroke-width:1.0;"/><path d="M282.4731,404.0731 Q281.8921,404.3719 281.2529,404.5213 Q280.6138,404.6707 279.9082,404.6707 Q277.4014,404.6707 276.0815,403.0189 Q274.7617,401.367 274.7617,398.2459 Q274.7617,395.1165 276.0815,393.4647 Q277.4014,391.8128 279.9082,391.8128 Q280.6138,391.8128 281.2612,391.9622 Q281.9087,392.1116 282.4731,392.4105 L282.4731,395.1331 Q281.8423,394.5521 281.2488,394.2823 Q280.6553,394.0125 280.0244,394.0125 Q278.6797,394.0125 277.9949,395.0792 Q277.3101,396.1458 277.3101,398.2459 Q277.3101,400.3377 277.9949,401.4044 Q278.6797,402.471 280.0244,402.471 Q280.6553,402.471 281.2488,402.2012 Q281.8423,401.9315 282.4731,401.3504 Z " fill="#000000"/><text fill="#000000" font-family="sans-serif" font-size="14" lengthAdjust="spacing" textLength="32" x="294" y="403.221">Chat</text><line style="stroke:#181818;stroke-width:0.5;" x1="266" x2="328" y1="413.93" y2="413.93"/><line style="stroke:#181818;stroke-width:0.5;" x1="266" x2="328" y1="421.93" y2="421.93"/></g><g id="elem_GMN45"><path d="M403,265 L403,320.9316 A0,0 0 0 0 403,320.9316 L497,320.9316 A0,0 0 0 0 497,320.9316 L497,296.96 L532.24,292.96 L497,288.96 L497,275 L487,265 L403,265 A0,0 0 0 0 403,265 " fill="#FEFFDD" style="stroke:#181818;stroke-width:0.5;"/><path d="M487,265 L487,275 L497,275 L487,265 " fill="#FEFFDD" style="stroke:#181818;stroke-width:0.5;"/><text fill="#000000" font-family="sans-serif" font-size="13" lengthAdjust="spacing" textLength="68" x="409" y="282.5684">Editor only</text><text fill="#000000" font-family="sans-serif" font-size="13" lengthAdjust="spacing" textLength="69" x="409" y="297.8789">for custom</text><text fill="#000000" font-family="sans-serif" font-size="13" lengthAdjust="spacing" textLength="63" x="409" y="313.1895">itineraries</text></g><!--class Relation--><g id="elem_Relation"><rect codeLine="149" fill="#F1F1F1" height="64.4883" id="Relation" rx="2.5" ry="2.5" style="stroke:#181818;stroke-width:0.5;" width="156" x="461" y="1560.72"/><ellipse cx="506.75" cy="1576.72" fill="#ADD1B2" rx="11" ry="11" style="stroke:#181818;stroke-width:1.0;"/><path d="M509.2231,1582.8631 Q508.6421,1583.1619 508.0029,1583.3113 Q507.3638,1583.4607 506.6582,1583.4607 Q504.1514,1583.4607 502.8315,1581.8089 Q501.5117,1580.157 501.5117,1577.0359 Q501.5117,1573.9065 502.8315,1572.2547 Q504.1514,1570.6028 506.6582,1570.6028 Q507.3638,1570.6028 508.0112,1570.7522 Q508.6587,1570.9016 509.2231,1571.2005 L509.2231,1573.9231 Q508.5923,1573.3421 507.9988,1573.0723 Q507.4053,1572.8025 506.7744,1572.8025 Q505.4297,1572.8025 504.7449,1573.8692 Q504.0601,1574.9358 504.0601,1577.0359 Q504.0601,1579.1277 504.7449,1580.1944 Q505.4297,1581.261 506.7744,1581.261 Q507.4053,1581.261 507.9988,1580.9912 Q508.5923,1580.7215 509.2231,1580.1404 Z " fill="#000000"/><text fill="#000000" font-family="sans-serif" font-size="14" lengthAdjust="spacing" textLength="56" x="527.25" y="1582.011">Relation</text><line style="stroke:#181818;stroke-width:0.5;" x1="462" x2="616" y1="1592.72" y2="1592.72"/><rect fill="none" height="6" style="stroke:#C82930;stroke-width:1.0;" width="6" x="469" y="1603.4641"/><text fill="#000000" font-family="sans-serif" font-size="14" lengthAdjust="spacing" textLength="130" x="481" y="1610.2552">type : RelationType</text><line style="stroke:#181818;stroke-width:0.5;" x1="462" x2="616" y1="1617.2083" y2="1617.2083"/></g><!--class RelationType--><g id="elem_RelationType"><rect codeLine="141" fill="#F1F1F1" height="130.4414" id="RelationType" rx="2.5" ry="2.5" style="stroke:#181818;stroke-width:0.5;" width="121" x="304.5" y="1527.74"/><ellipse cx="319.5" cy="1543.74" fill="#EB937F" rx="11" ry="11" style="stroke:#181818;stroke-width:1.0;"/><path d="M323.1143,1550.24 L315.3945,1550.24 L315.3945,1537.8469 L323.1143,1537.8469 L323.1143,1540.0051 L317.8433,1540.0051 L317.8433,1542.678 L322.6162,1542.678 L322.6162,1544.8362 L317.8433,1544.8362 L317.8433,1548.0818 L323.1143,1548.0818 Z " fill="#000000"/><text fill="#000000" font-family="sans-serif" font-size="14" lengthAdjust="spacing" textLength="89" x="333.5" y="1549.031">RelationType</text><line style="stroke:#181818;stroke-width:0.5;" x1="305.5" x2="424.5" y1="1559.74" y2="1559.74"/><text fill="#000000" font-family="sans-serif" font-size="14" lengthAdjust="spacing" textLength="25" x="310.5" y="1577.2752">Use</text><text fill="#000000" font-family="sans-serif" font-size="14" lengthAdjust="spacing" textLength="79" x="310.5" y="1593.7634">Association</text><text fill="#000000" font-family="sans-serif" font-size="14" lengthAdjust="spacing" textLength="88" x="310.5" y="1610.2517">Composition</text><text fill="#000000" font-family="sans-serif" font-size="14" lengthAdjust="spacing" textLength="77" x="310.5" y="1626.74">Inheritance</text><text fill="#000000" font-family="sans-serif" font-size="14" lengthAdjust="spacing" textLength="86" x="310.5" y="1643.2283">Aggregation</text><line style="stroke:#181818;stroke-width:0.5;" x1="305.5" x2="424.5" y1="1650.1814" y2="1650.1814"/></g><!--class Audio--><g id="elem_Audio"><rect fill="#F1F1F1" height="48" id="Audio" rx="2.5" ry="2.5" style="stroke:#181818;stroke-width:0.5;" width="73" x="653.5" y="1916.67"/><ellipse cx="668.5" cy="1932.67" fill="#ADD1B2" rx="11" ry="11" style="stroke:#181818;stroke-width:1.0;"/><path d="M670.9731,1938.8131 Q670.3921,1939.1119 669.7529,1939.2613 Q669.1138,1939.4107 668.4082,1939.4107 Q665.9014,1939.4107 664.5815,1937.7589 Q663.2617,1936.107 663.2617,1932.9859 Q663.2617,1929.8565 664.5815,1928.2047 Q665.9014,1926.5528 668.4082,1926.5528 Q669.1138,1926.5528 669.7612,1926.7022 Q670.4087,1926.8516 670.9731,1927.1505 L670.9731,1929.8731 Q670.3423,1929.2921 669.7488,1929.0223 Q669.1553,1928.7525 668.5244,1928.7525 Q667.1797,1928.7525 666.4949,1929.8192 Q665.8101,1930.8858 665.8101,1932.9859 Q665.8101,1935.0777 666.4949,1936.1444 Q667.1797,1937.211 668.5244,1937.211 Q669.1553,1937.211 669.7488,1936.9412 Q670.3423,1936.6715 670.9731,1936.0904 Z " fill="#000000"/><text fill="#000000" font-family="sans-serif" font-size="14" lengthAdjust="spacing" textLength="41" x="682.5" y="1937.961">Audio</text><line style="stroke:#181818;stroke-width:0.5;" x1="654.5" x2="725.5" y1="1948.67" y2="1948.67"/><line style="stroke:#181818;stroke-width:0.5;" x1="654.5" x2="725.5" y1="1956.67" y2="1956.67"/></g><!--class Video--><g id="elem_Video"><rect fill="#F1F1F1" height="48" id="Video" rx="2.5" ry="2.5" style="stroke:#181818;stroke-width:0.5;" width="71" x="761.5" y="1916.67"/><ellipse cx="776.5" cy="1932.67" fill="#ADD1B2" rx="11" ry="11" style="stroke:#181818;stroke-width:1.0;"/><path d="M778.9731,1938.8131 Q778.3921,1939.1119 777.7529,1939.2613 Q777.1138,1939.4107 776.4082,1939.4107 Q773.9014,1939.4107 772.5815,1937.7589 Q771.2617,1936.107 771.2617,1932.9859 Q771.2617,1929.8565 772.5815,1928.2047 Q773.9014,1926.5528 776.4082,1926.5528 Q777.1138,1926.5528 777.7612,1926.7022 Q778.4087,1926.8516 778.9731,1927.1505 L778.9731,1929.8731 Q778.3423,1929.2921 777.7488,1929.0223 Q777.1553,1928.7525 776.5244,1928.7525 Q775.1797,1928.7525 774.4949,1929.8192 Q773.8101,1930.8858 773.8101,1932.9859 Q773.8101,1935.0777 774.4949,1936.1444 Q775.1797,1937.211 776.5244,1937.211 Q777.1553,1937.211 777.7488,1936.9412 Q778.3423,1936.6715 778.9731,1936.0904 Z " fill="#000000"/><text fill="#000000" font-family="sans-serif" font-size="14" lengthAdjust="spacing" textLength="39" x="790.5" y="1937.961">Video</text><line style="stroke:#181818;stroke-width:0.5;" x1="762.5" x2="831.5" y1="1948.67" y2="1948.67"/><line style="stroke:#181818;stroke-width:0.5;" x1="762.5" x2="831.5" y1="1956.67" y2="1956.67"/></g><!--class Image--><g id="elem_Image"><rect fill="#F1F1F1" height="48" id="Image" rx="2.5" ry="2.5" style="stroke:#181818;stroke-width:0.5;" width="74" x="868" y="1916.67"/><ellipse cx="883" cy="1932.67" fill="#ADD1B2" rx="11" ry="11" style="stroke:#181818;stroke-width:1.0;"/><path d="M885.4731,1938.8131 Q884.8921,1939.1119 884.2529,1939.2613 Q883.6138,1939.4107 882.9082,1939.4107 Q880.4014,1939.4107 879.0815,1937.7589 Q877.7617,1936.107 877.7617,1932.9859 Q877.7617,1929.8565 879.0815,1928.2047 Q880.4014,1926.5528 882.9082,1926.5528 Q883.6138,1926.5528 884.2612,1926.7022 Q884.9087,1926.8516 885.4731,1927.1505 L885.4731,1929.8731 Q884.8423,1929.2921 884.2488,1929.0223 Q883.6553,1928.7525 883.0244,1928.7525 Q881.6797,1928.7525 880.9949,1929.8192 Q880.3101,1930.8858 880.3101,1932.9859 Q880.3101,1935.0777 880.9949,1936.1444 Q881.6797,1937.211 883.0244,1937.211 Q883.6553,1937.211 884.2488,1936.9412 Q884.8423,1936.6715 885.4731,1936.0904 Z " fill="#000000"/><text fill="#000000" font-family="sans-serif" font-size="14" lengthAdjust="spacing" textLength="42" x="897" y="1937.961">Image</text><line style="stroke:#181818;stroke-width:0.5;" x1="869" x2="941" y1="1948.67" y2="1948.67"/><line style="stroke:#181818;stroke-width:0.5;" x1="869" x2="941" y1="1956.67" y2="1956.67"/></g><!--link Topic to Document--><g id="link_Topic_Document"><path codeLine="13" d="M629.6327,741.213 C629.6327,741.213 727,801.08 727,855.1 C727,855.1 727,855.1 727,1407.74 C727,1458.76 727,1517.73 727,1554.93 " fill="none" id="Topic-Document" style="stroke:#181818;stroke-width:1.0;"/><polygon fill="#181818" points="618.68,736.31,622.522,742.4124,629.6327,741.213,625.7907,735.1106,618.68,736.31" style="stroke:#181818;stroke-width:1.0;"/><polygon fill="#181818" points="727,1567.47,731,1558.47,727,1562.47,723,1558.47,727,1567.47" style="stroke:#181818;stroke-width:1.0;"/><line style="stroke:#181818;stroke-width:1.0;" x1="727" x2="727" y1="1562.47" y2="1554.47"/><text fill="#000000" font-family="sans-serif" font-size="13" lengthAdjust="spacing" textLength="6" x="720.1938" y="1558.1425">*</text></g><!--link EducationPlatform to User--><g id="link_EducationPlatform_User"><path codeLine="75" d="M530.5418,63.0309 C530.5418,63.0309 464.24,109.28 435.91,129.06 " fill="none" id="EducationPlatform-User" style="stroke:#181818;stroke-width:1.0;"/><polygon fill="#181818" points="540.38,56.16,533.1706,56.3161,530.5418,63.0309,537.7512,62.8749,540.38,56.16" style="stroke:#181818;stroke-width:1.0;"/><polygon fill="#181818" points="425.59,136.26,435.259,134.3862,429.6893,133.3971,430.6784,127.8274,425.59,136.26" style="stroke:#181818;stroke-width:1.0;"/><line style="stroke:#181818;stroke-width:1.0;" x1="429.6893" x2="436.245" y1="133.3971" y2="128.82"/><text fill="#000000" font-family="sans-serif" font-size="13" lengthAdjust="spacing" textLength="6" x="427.0322" y="125.4451">*</text></g><!--reverse link User to Teacher--><g id="link_User_Teacher"><path codeLine="79" d="M371.04,202.69 C359.57,224.45 345.97,250.27 336.35,268.53 " fill="none" id="User-backto-Teacher" style="stroke:#181818;stroke-width:1.0;"/><polygon fill="none" points="364.76,199.58,380.28,185.15,377.15,206.11,364.76,199.58" style="stroke:#181818;stroke-width:1.0;"/></g><!--reverse link User to Student--><g id="link_User_Student"><path codeLine="80" d="M441.45,195.86 C473.45,218.89 514.5,248.43 542.59,268.64 " fill="none" id="User-backto-Student" style="stroke:#181818;stroke-width:1.0;"/><polygon fill="none" points="437.66,201.76,425.52,184.4,445.84,190.4,437.66,201.76" style="stroke:#181818;stroke-width:1.0;"/></g><!--link EducationPlatform to Teacher--><g id="link_EducationPlatform_Teacher"><path codeLine="82" d="M482.298,36.4506 C482.298,36.4506 356.65,65.34 320,116 C290.92,156.19 300.33,216.18 311.11,254.69 " fill="none" id="EducationPlatform-Teacher" style="stroke:#181818;stroke-width:1.0;"/><polygon fill="#181818" points="494.2,34.92,487.7388,31.718,482.298,36.4506,488.7592,39.6526,494.2,34.92" style="stroke:#181818;stroke-width:1.0;"/><polygon fill="#181818" points="314.87,267.1,316.0874,257.3267,313.4197,262.315,308.4314,259.6472,314.87,267.1" style="stroke:#181818;stroke-width:1.0;"/><line style="stroke:#181818;stroke-width:1.0;" x1="313.4197" x2="311.105" y1="262.315" y2="254.66"/><text fill="#000000" font-family="sans-serif" font-size="13" lengthAdjust="spacing" textLength="10" x="301.9731" y="258.3781">+</text></g><!--link EducationPlatform to Student--><g id="link_EducationPlatform_Student"><path codeLine="83" d="M575,68.58 C575,68.58 575,204.8 575,254.2 " fill="none" id="EducationPlatform-Student" style="stroke:#181818;stroke-width:1.0;"/><polygon fill="#181818" points="575,56.58,571,62.58,575,68.58,579,62.58,575,56.58" style="stroke:#181818;stroke-width:1.0;"/><polygon fill="#181818" points="575,267.06,579,258.06,575,262.06,571,258.06,575,267.06" style="stroke:#181818;stroke-width:1.0;"/><line style="stroke:#181818;stroke-width:1.0;" x1="575" x2="575" y1="262.06" y2="254.06"/><text fill="#000000" font-family="sans-serif" font-size="13" lengthAdjust="spacing" textLength="10" x="563.7813" y="258.403">+</text></g><!--link EducationPlatform to Topic--><g id="link_EducationPlatform_Topic"><path codeLine="84" d="M617.98,64.3272 C617.98,64.3272 671,121.39 671,159 C671,159 671,159 671,351.93 C671,457.66 613.55,568.17 570,636.76 " fill="none" id="EducationPlatform-Topic" style="stroke:#181818;stroke-width:1.0;"/><polygon fill="#181818" points="608.91,56.47,610.826,63.4219,617.98,64.3272,616.0641,57.3752,608.91,56.47" style="stroke:#181818;stroke-width:1.0;"/><polygon fill="#181818" points="563.14,647.38,571.3776,641.9817,565.8485,643.1771,564.653,637.6481,563.14,647.38" style="stroke:#181818;stroke-width:1.0;"/><line style="stroke:#181818;stroke-width:1.0;" x1="565.8485" x2="570.195" y1="643.1771" y2="636.455"/></g><!--link EducationPlatform to Itinerary--><g id="link_EducationPlatform_Itinerary"><path codeLine="85" d="M666.9181,58.2208 C666.9181,58.2208 759,109.52 759,159 C759,159 759,159 759,406.93 C759,435.33 762.72,466.72 766.77,492.52 " fill="none" id="EducationPlatform-Itinerary" style="stroke:#181818;stroke-width:1.0;"/><polygon fill="#181818" points="655.77,53.78,659.8638,59.7164,666.9181,58.2208,662.8243,52.2844,655.77,53.78" style="stroke:#181818;stroke-width:1.0;"/><polygon fill="#181818" points="768.86,505.12,771.3432,495.5893,768.0469,500.1866,763.4497,496.8903,768.86,505.12" style="stroke:#181818;stroke-width:1.0;"/><line style="stroke:#181818;stroke-width:1.0;" x1="768.0469" x2="766.73" y1="500.1866" y2="492.29"/><text fill="#000000" font-family="sans-serif" font-size="13" lengthAdjust="spacing" textLength="67" x="760" y="298.0284">predefined</text></g><!--link EducationPlatform to Itinerary--><g id="link_EducationPlatform_Itinerary"><path codeLine="86" d="M667.6401,49.7205 C667.6401,49.7205 898,109.3 898,159 C898,159 898,159 898,406.93 C898,442.57 875.18,473.57 849.36,497.23 " fill="none" id="EducationPlatform-Itinerary-1" style="stroke:#181818;stroke-width:1.0;"/><polygon fill="none" points="655.91,47.19,660.9316,52.3653,667.6401,49.7205,662.6186,44.5452,655.91,47.19" style="stroke:#181818;stroke-width:1.0;"/><polygon fill="#181818" points="839.71,505.59,849.1295,502.7137,843.4868,502.3135,843.887,496.6708,839.71,505.59" style="stroke:#181818;stroke-width:1.0;"/><line style="stroke:#181818;stroke-width:1.0;" x1="843.4868" x2="849.53" y1="502.3135" y2="497.075"/><text fill="#000000" font-family="sans-serif" font-size="13" lengthAdjust="spacing" textLength="47" x="899" y="298.0284">custom</text><text fill="#000000" font-family="sans-serif" font-size="13" lengthAdjust="spacing" textLength="6" x="842.259" y="496.168">*</text></g><!--link EducationPlatform to Chat--><g id="link_EducationPlatform_Chat"><path codeLine="87" d="M482.2617,46.8407 C482.2617,46.8407 314.76,84.37 293,116 C240.82,191.83 245.41,230.57 263,320.93 C266.17,337.2 272.48,354.3 278.82,368.79 " fill="none" id="EducationPlatform-Chat" style="stroke:#181818;stroke-width:1.0;"/><polygon fill="none" points="494.06,44.65,487.4306,41.8126,482.2617,46.8407,488.8911,49.6781,494.06,44.65" style="stroke:#181818;stroke-width:1.0;"/><polygon fill="#181818" points="284.17,380.41,284.0469,370.5619,282.0824,375.8667,276.7776,373.9021,284.17,380.41" style="stroke:#181818;stroke-width:1.0;"/><line style="stroke:#181818;stroke-width:1.0;" x1="282.0824" x2="278.735" y1="375.8667" y2="368.6"/></g><!--link Chat to Topic--><g id="link_Chat_Topic"><path codeLine="88" d="M297.6,430.37 C299.85,472.62 310.12,562.42 356,618.91 C373.22,640.1 397.05,656.65 421.28,669.32 " fill="none" id="Chat-to-Topic" style="stroke:#181818;stroke-width:1.0;stroke-dasharray:7.0,7.0;"/><polygon fill="#181818" points="425.44,671.44,419.2374,663.7896,420.9851,669.1697,415.605,670.9174,425.44,671.44" style="stroke:#181818;stroke-width:1.0;"/></g><!--link Teacher to Chat--><g id="link_Teacher_Chat"><path codeLine="90" d="M318.34,317.23 C314.2,334.24 308.55,357.44 304.11,375.71 " fill="none" id="Teacher-to-Chat" style="stroke:#181818;stroke-width:1.0;stroke-dasharray:7.0,7.0;"/><polygon fill="#181818" points="303.01,380.23,309.0086,372.4187,304.1823,375.3694,301.2316,370.543,303.01,380.23" style="stroke:#181818;stroke-width:1.0;"/></g><!--link Student to Chat--><g id="link_Student_Chat"><path codeLine="91" d="M532.19,313.55 C526.43,316.08 520.59,318.6 515,320.93 C452.61,346.95 379.06,374.69 335.32,390.89 " fill="none" id="Student-to-Chat" style="stroke:#181818;stroke-width:1.0;stroke-dasharray:7.0,7.0;"/><polygon fill="#181818" points="330.77,392.57,340.5982,393.2079,335.461,390.8395,337.8294,385.7023,330.77,392.57" style="stroke:#181818;stroke-width:1.0;"/></g><!--link Teacher to Application--><g id="link_Teacher_Application"><path codeLine="93" d="M280.06,315.49 C248.68,334.29 212,364.83 212,404.93 C212,404.93 212,404.93 212,1037.84 C212,1083.78 212,1136.28 212,1172.9 " fill="none" id="Teacher-to-Application" style="stroke:#181818;stroke-width:1.0;stroke-dasharray:7.0,7.0;"/><polygon fill="#181818" points="212,1177.57,216,1168.57,212,1172.57,208,1168.57,212,1177.57" style="stroke:#181818;stroke-width:1.0;"/><text fill="#000000" font-family="sans-serif" font-size="13" lengthAdjust="spacing" textLength="52" x="213" y="710.9484">evaluate</text></g><!--link User to Application--><g id="link_User_Application"><path codeLine="94" d="M350.2989,188.2056 C350.2989,188.2056 124,344.76 124,404.93 C124,404.93 124,404.93 124,1037.84 C124,1085.07 148.5,1132.91 171.64,1167.56 " fill="none" id="User-Application" style="stroke:#181818;stroke-width:1.0;"/><polygon fill="#181818" points="360.35,181.65,353.1393,181.5775,350.2989,188.2056,357.5097,188.2782,360.35,181.65" style="stroke:#181818;stroke-width:1.0;"/><polygon fill="#181818" points="178.87,1178,177.0345,1168.3237,176.0234,1173.8894,170.4576,1172.8783,178.87,1178" style="stroke:#181818;stroke-width:1.0;"/><line style="stroke:#181818;stroke-width:1.0;" x1="176.0234" x2="171.47" y1="1173.8894" y2="1167.31"/></g><!--link Excercise to Domain--><g id="link_Excercise_Domain"><path codeLine="96" d="M361.772,902.1081 C361.772,902.1081 366.36,956.71 368.48,981.92 " fill="none" id="Excercise-Domain" style="stroke:#181818;stroke-width:1.0;"/><polygon fill="#181818" points="360.77,890.15,357.285,896.463,361.772,902.1081,365.257,895.795,360.77,890.15" style="stroke:#181818;stroke-width:1.0;"/><polygon fill="#181818" points="369.54,994.66,372.7745,985.3574,369.1225,989.6775,364.8025,986.0254,369.54,994.66" style="stroke:#181818;stroke-width:1.0;"/><line style="stroke:#181818;stroke-width:1.0;" x1="369.1225" x2="368.455" y1="989.6775" y2="981.7"/></g><!--link Application to Concept--><g id="link_Application_Concept"><path codeLine="99" d="M251.9,1260.66 C287.61,1296.12 339.03,1347.18 370.38,1378.32 " fill="none" id="Application-to-Concept" style="stroke:#181818;stroke-width:1.0;"/><polygon fill="#181818" points="373.79,1381.7,370.1988,1372.5292,370.2331,1378.186,364.5764,1378.2202,373.79,1381.7" style="stroke:#181818;stroke-width:1.0;"/><text fill="#000000" font-family="sans-serif" font-size="13" lengthAdjust="spacing" textLength="10" x="369.9849" y="1371.9098">+</text></g><!--link Application to Justification--><g id="link_Application_Justification"><path codeLine="101" d="M175.94,1260.98 C135.21,1309.07 71.3,1394.2 46,1480.74 C18.51,1574.81 46.99,1691.25 65.24,1749.45 " fill="none" id="Application-to-Justification" style="stroke:#181818;stroke-width:1.0;"/><polygon fill="#181818" points="66.73,1754.13,67.8117,1744.3407,65.2134,1749.3656,60.1886,1746.7673,66.73,1754.13" style="stroke:#181818;stroke-width:1.0;"/><text fill="#000000" font-family="sans-serif" font-size="13" lengthAdjust="spacing" textLength="143" x="47" y="1494.3084">[!application.isCorrect]</text><text fill="#000000" font-family="sans-serif" font-size="13" lengthAdjust="spacing" textLength="5" x="59.2784" y="1744.5758">?</text></g><!--link Domain to Concept--><g id="link_Domain_Concept"><path codeLine="103" d="M375.7,1077.56 C380.76,1152.11 391.59,1311.35 396.03,1376.77 " fill="none" id="Domain-to-Concept" style="stroke:#181818;stroke-width:1.0;"/><polygon fill="#181818" points="396.36,1381.66,399.7331,1372.4068,396.017,1376.6718,391.752,1372.9556,396.36,1381.66" style="stroke:#181818;stroke-width:1.0;"/><text fill="#000000" font-family="sans-serif" font-size="13" lengthAdjust="spacing" textLength="10" x="384.6334" y="1372.0436">+</text></g><!--link Domain to Application--><g id="link_Domain_Application"><path codeLine="104" d="M328.6909,1087.7018 C328.6909,1087.7018 279.3,1143.29 257.07,1168.31 " fill="none" id="Domain-Application" style="stroke:#181818;stroke-width:1.0;"/><polygon fill="none" points="336.66,1078.73,329.6848,1080.5595,328.6909,1087.7018,335.6661,1085.8723,336.66,1078.73" style="stroke:#181818;stroke-width:1.0;"/><polygon fill="#181818" points="248.53,1177.92,257.4974,1173.8475,251.8505,1174.1817,251.5162,1168.5348,248.53,1177.92" style="stroke:#181818;stroke-width:1.0;"/><line style="stroke:#181818;stroke-width:1.0;" x1="251.8505" x2="257.17" y1="1174.1817" y2="1168.2"/><text fill="#000000" font-family="sans-serif" font-size="13" lengthAdjust="spacing" textLength="6" x="246.7145" y="1168.9169">*</text></g><!--link Domain to StatementType--><g id="link_Domain_StatementType"><path codeLine="106" d="M406.7898,1088.8689 C406.7898,1088.8689 423.05,1113.41 431.4,1126.02 " fill="none" id="Domain-StatementType" style="stroke:#181818;stroke-width:1.0;"/><polygon fill="#181818" points="400.17,1078.86,400.1436,1086.0711,406.7898,1088.8689,406.8162,1081.6578,400.17,1078.86" style="stroke:#181818;stroke-width:1.0;"/><polygon fill="#181818" points="438.56,1136.83,436.9225,1127.1182,435.7979,1132.6622,430.254,1131.5376,438.56,1136.83" style="stroke:#181818;stroke-width:1.0;"/><line style="stroke:#181818;stroke-width:1.0;" x1="435.7979" x2="431.385" y1="1132.6622" y2="1125.995"/></g><!--link Teacher to Topic--><g id="link_Teacher_Topic"><path codeLine="109" d="M335.21,317.23 C365.1,379.26 447.44,550.15 492.16,642.96 " fill="none" id="Teacher-to-Topic" style="stroke:#181818;stroke-width:1.0;stroke-dasharray:7.0,7.0;"/><polygon fill="#181818" points="494.26,647.32,493.9512,637.476,492.0871,642.8169,486.7462,640.9527,494.26,647.32" style="stroke:#181818;stroke-width:1.0;"/><text fill="#000000" font-family="sans-serif" font-size="13" lengthAdjust="spacing" textLength="37" x="412.6" y="473.4984">editor</text></g><!--link Teacher to Itinerary--><g id="link_Teacher_Itinerary"><path codeLine="110" d="M365.81,317.26 C441.72,359.57 603.29,449.61 699.75,503.37 " fill="none" id="Teacher-to-Itinerary" style="stroke:#181818;stroke-width:1.0;stroke-dasharray:7.0,7.0;"/><polygon fill="#181818" points="704.12,505.8,698.1952,497.9326,699.7492,503.3718,694.31,504.9258,704.12,505.8" style="stroke:#181818;stroke-width:1.0;"/><text fill="#000000" font-family="sans-serif" font-size="13" lengthAdjust="spacing" textLength="37" x="568.47" y="410.9984">editor</text></g><!--link Student to Itinerary--><g id="link_Student_Itinerary"><path codeLine="111" d="M593.64,317.26 C627.2,359.21 698.31,448.07 741.44,501.98 " fill="none" id="Student-to-Itinerary" style="stroke:#181818;stroke-width:1.0;stroke-dasharray:7.0,7.0;"/><polygon fill="#181818" points="744.33,505.58,741.8185,496.0568,741.2013,501.6798,735.5782,501.0627,744.33,505.58" style="stroke:#181818;stroke-width:1.0;"/><text fill="#000000" font-family="sans-serif" font-size="13" lengthAdjust="spacing" textLength="37" x="684.57" y="410.9984">editor</text></g><!--reverse link Topic to CompositeTopic--><g id="link_Topic_CompositeTopic"><path codeLine="122" d="M508.89,784.83 C509,798.59 509.72,812.18 511.04,823.68 " fill="none" id="Topic-backto-CompositeTopic" style="stroke:#181818;stroke-width:1.0;"/><polygon fill="none" points="501.89,784.75,509.19,764.85,515.89,784.96,501.89,784.75" style="stroke:#181818;stroke-width:1.0;"/></g><!--link CompositeTopic to Topic--><g id="link_CompositeTopic_Topic"><path codeLine="124" d="M534.1443,810.2164 C534.1443,810.2164 535.19,788.35 535.11,777.46 " fill="none" id="CompositeTopic-Topic" style="stroke:#181818;stroke-width:1.0;"/><polygon fill="none" points="533.09,822.17,537.6017,816.5447,534.1443,810.2164,529.6326,815.8418,533.09,822.17" style="stroke:#181818;stroke-width:1.0;"/><polygon fill="#181818" points="534.82,764.85,531.0287,773.9399,534.9354,769.8487,539.0266,773.7553,534.82,764.85" style="stroke:#181818;stroke-width:1.0;"/><line style="stroke:#181818;stroke-width:1.0;" x1="534.9354" x2="535.12" y1="769.8487" y2="777.855"/><text fill="#000000" font-family="sans-serif" font-size="13" lengthAdjust="spacing" textLength="10" x="525.6907" y="783.4366">+</text></g><!--reverse link Topic to SimpleTopic--><g id="link_Topic_SimpleTopic"><path codeLine="123" d="M593.03,779.41 C603.74,793.32 613.65,808.4 621,823.86 C635.52,854.41 640.47,893.69 642.15,918.19 " fill="none" id="Topic-backto-SimpleTopic" style="stroke:#181818;stroke-width:1.0;"/><polygon fill="none" points="587.87,784.16,580.63,764.24,598.71,775.3,587.87,784.16" style="stroke:#181818;stroke-width:1.0;"/></g><!--link Itinerary to Topic--><g id="link_Itinerary_Topic"><path codeLine="129" d="M712.2491,596.1298 C712.2491,596.1298 689.02,611.98 678,618.91 C662.67,628.55 646.18,638.28 629.88,647.55 " fill="none" id="Itinerary-Topic" style="stroke:#181818;stroke-width:1.0;"/><polygon fill="none" points="722.06,589.22,714.8513,589.4046,712.2491,596.1298,719.4578,595.9452,722.06,589.22" style="stroke:#181818;stroke-width:1.0;"/><polygon fill="#181818" points="618.79,653.8,628.5944,652.8652,623.1457,651.3448,624.666,645.8961,618.79,653.8" style="stroke:#181818;stroke-width:1.0;"/><line style="stroke:#181818;stroke-width:1.0;" x1="623.1457" x2="630.115" y1="651.3448" y2="647.415"/><text fill="#000000" font-family="sans-serif" font-size="13" lengthAdjust="spacing" textLength="10" x="624.8483" y="647.7982">+</text></g><!--link SimpleTopic to Concept--><g id="link_SimpleTopic_Concept"><path codeLine="133" d="M645.7722,980.3212 C645.7722,980.3212 646.74,1202.66 577,1301.74 C547.7,1343.37 496.02,1370.77 455.7,1386.95 " fill="none" id="SimpleTopic-Concept" style="stroke:#181818;stroke-width:1.0;"/><polygon fill="none" points="645.1,968.34,641.4424,974.5546,645.7722,980.3212,649.4298,974.1065,645.1,968.34" style="stroke:#181818;stroke-width:1.0;"/><polygon fill="#181818" points="443.66,1391.56,453.495,1392.082,448.3303,1389.7743,450.6379,1384.6096,443.66,1391.56" style="stroke:#181818;stroke-width:1.0;"/><line style="stroke:#181818;stroke-width:1.0;" x1="448.3303" x2="455.795" y1="1389.7743" y2="1386.91"/><text fill="#000000" font-family="sans-serif" font-size="13" lengthAdjust="spacing" textLength="10" x="450.3885" y="1379.5004">+</text></g><!--link Document to Media--><g id="link_Document_Media"><path codeLine="134" d="M727,1630.28 C727,1630.28 727,1715.08 727,1749.05 " fill="none" id="Document-Media" style="stroke:#181818;stroke-width:1.0;"/><polygon fill="none" points="727,1618.28,723,1624.28,727,1630.28,731,1624.28,727,1618.28" style="stroke:#181818;stroke-width:1.0;"/><polygon fill="#181818" points="727,1761.89,731,1752.89,727,1756.89,723,1752.89,727,1761.89" style="stroke:#181818;stroke-width:1.0;"/><line style="stroke:#181818;stroke-width:1.0;" x1="727" x2="727" y1="1756.89" y2="1748.89"/><text fill="#000000" font-family="sans-serif" font-size="13" lengthAdjust="spacing" textLength="6" x="720.1938" y="1752.6163">*</text></g><!--link Concept to Definition--><g id="link_Concept_Definition"><path codeLine="135" d="M340.3106,1416.6296 C340.3106,1416.6296 244.08,1444.65 210,1480.74 C192.97,1498.78 183.99,1524.95 179.27,1547.37 " fill="none" id="Concept-Definition" style="stroke:#181818;stroke-width:1.0;"/><polygon fill="#181818" points="352.06,1414.19,345.3721,1411.4933,340.3106,1416.6296,346.9985,1419.3262,352.06,1414.19" style="stroke:#181818;stroke-width:1.0;"/><polygon fill="#181818" points="177,1559.95,182.5302,1551.8004,177.8852,1555.029,174.6566,1550.384,177,1559.95" style="stroke:#181818;stroke-width:1.0;"/><line style="stroke:#181818;stroke-width:1.0;" x1="177.8852" x2="179.305" y1="1555.029" y2="1547.155"/><text fill="#000000" font-family="sans-serif" font-size="13" lengthAdjust="spacing" textLength="44" x="211" y="1494.3084">correct</text><text fill="#000000" font-family="sans-serif" font-size="13" lengthAdjust="spacing" textLength="10" x="166.2334" y="1550.4533">+</text></g><!--link Concept to Definition--><g id="link_Concept_Definition"><path codeLine="136" d="M359.6461,1439.2876 C359.6461,1439.2876 263.56,1518.31 222.68,1551.93 " fill="none" id="Concept-Definition-1" style="stroke:#181818;stroke-width:1.0;"/><polygon fill="#181818" points="368.91,1431.66,361.7355,1432.3858,359.6461,1439.2876,366.8206,1438.5618,368.91,1431.66" style="stroke:#181818;stroke-width:1.0;"/><polygon fill="#181818" points="212.79,1560.06,222.2823,1557.4339,216.6522,1556.8845,217.2016,1551.2544,212.79,1560.06" style="stroke:#181818;stroke-width:1.0;"/><line style="stroke:#181818;stroke-width:1.0;" x1="216.6522" x2="222.83" y1="1556.8845" y2="1551.805"/><text fill="#000000" font-family="sans-serif" font-size="13" lengthAdjust="spacing" textLength="56" x="307.06" y="1494.3084">incorrect</text><text fill="#000000" font-family="sans-serif" font-size="13" lengthAdjust="spacing" textLength="6" x="212.7604" y="1550.4355">*</text></g><!--link RelationType to Relation--><g id="link_RelationType_Relation"><path codeLine="137" d="M440.29,1592.96 C442.32,1592.96 447.24,1592.96 447.24,1592.96 " fill="none" id="RelationType-Relation" style="stroke:#181818;stroke-width:1.0;"/><polygon fill="#181818" points="427.35,1592.96,436.35,1596.96,432.35,1592.96,436.35,1588.96,427.35,1592.96" style="stroke:#181818;stroke-width:1.0;"/><line style="stroke:#181818;stroke-width:1.0;" x1="432.35" x2="440.35" y1="1592.96" y2="1592.96"/><polygon fill="#181818" points="459.24,1592.96,453.24,1588.96,447.24,1592.96,453.24,1596.96,459.24,1592.96" style="stroke:#181818;stroke-width:1.0;"/></g><!--link Concept to Relation--><g id="link_Concept_Relation"><path codeLine="138" d="M454.5698,1430.2825 C454.5698,1430.2825 501.84,1458.96 517,1480.74 C530.24,1499.78 535.96,1524.85 538.27,1546.37 " fill="none" id="Concept-Relation" style="stroke:#181818;stroke-width:1.0;"/><polygon fill="#181818" points="443.8,1424.99,447.4207,1431.2262,454.5698,1430.2825,450.9491,1424.0463,443.8,1424.99" style="stroke:#181818;stroke-width:1.0;"/><polygon fill="#181818" points="539.26,1559.07,542.5556,1549.7889,538.8753,1554.0848,534.5793,1550.4045,539.26,1559.07" style="stroke:#181818;stroke-width:1.0;"/><line style="stroke:#181818;stroke-width:1.0;" x1="538.8753" x2="538.245" y1="1554.0848" y2="1546.11"/><text fill="#000000" font-family="sans-serif" font-size="13" lengthAdjust="spacing" textLength="6" x="532.8276" y="1549.9543">*</text></g><!--link Relation to Concept--><g id="link_Relation_Concept"><path codeLine="139" d="M492.32,1560.31 C476.7,1549.84 459.16,1538.2 443,1527.74 C421.88,1514.08 407.2,1519.75 395,1497.74 C384.79,1479.31 386.16,1455.35 389.75,1436.78 " fill="none" id="Relation-to-Concept" style="stroke:#181818;stroke-width:1.0;"/><polygon fill="#181818" points="390.72,1432.19,384.9341,1440.1602,389.6792,1437.0805,392.7589,1441.8255,390.72,1432.19" style="stroke:#181818;stroke-width:1.0;"/><text fill="#000000" font-family="sans-serif" font-size="13" lengthAdjust="spacing" textLength="37" x="396" y="1494.3084">origin</text></g><!--link Relation to Concept--><g id="link_Relation_Concept"><path codeLine="154" d="M514.82,1560.37 C487.92,1525.22 444.87,1468.98 419.23,1435.47 " fill="none" id="Relation-to-Concept-1" style="stroke:#181818;stroke-width:1.0;"/><polygon fill="#181818" points="416.49,1431.9,418.7886,1441.4769,419.531,1435.869,425.1389,1436.6113,416.49,1431.9" style="stroke:#181818;stroke-width:1.0;"/><text fill="#000000" font-family="sans-serif" font-size="13" lengthAdjust="spacing" textLength="37" x="465.27" y="1494.3084">target</text></g><!--link Definition to Justification--><g id="link_Definition_Justification"><path codeLine="155" d="M152.544,1636.9384 C152.544,1636.9384 115.48,1711.14 99.76,1742.62 " fill="none" id="Definition-Justification" style="stroke:#181818;stroke-width:1.0;"/><polygon fill="none" points="157.9,1626.2,151.6425,1629.7839,152.544,1636.9384,158.8015,1633.3545,157.9,1626.2" style="stroke:#181818;stroke-width:1.0;"/><polygon fill="#181818" points="94.06,1754.02,101.6626,1747.759,96.2961,1749.5479,94.5072,1744.1813,94.06,1754.02" style="stroke:#181818;stroke-width:1.0;"/><line style="stroke:#181818;stroke-width:1.0;" x1="96.2961" x2="99.87" y1="1749.5479" y2="1742.395"/><text fill="#000000" font-family="sans-serif" font-size="13" lengthAdjust="spacing" textLength="92" x="127" y="1701.7484">correct = false</text><text fill="#000000" font-family="sans-serif" font-size="13" lengthAdjust="spacing" textLength="6" x="90.1003" y="1744.332">*</text></g><!--reverse link Media to Audio--><g id="link_Media_Audio"><path codeLine="160" d="M716.41,1831.54 C709.67,1859.14 701.2,1893.81 695.7,1916.34 " fill="none" id="Media-backto-Audio" style="stroke:#181818;stroke-width:1.0;"/><polygon fill="none" points="709.56,1830.1,721.1,1812.33,723.16,1833.42,709.56,1830.1" style="stroke:#181818;stroke-width:1.0;"/></g><!--reverse link Media to Video--><g id="link_Media_Video"><path codeLine="161" d="M746.46,1830.31 C759.31,1858.1 775.65,1893.47 786.22,1916.34 " fill="none" id="Media-backto-Video" style="stroke:#181818;stroke-width:1.0;"/><polygon fill="none" points="740.15,1833.33,738.11,1812.24,752.86,1827.46,740.15,1833.33" style="stroke:#181818;stroke-width:1.0;"/></g><!--reverse link Audio to Video--><g id="link_Audio_Video"><path codeLine="162" d="M733.21,1940.67 C742.5,1940.67 751.78,1940.67 761.07,1940.67 " fill="none" id="Audio-backto-Video" style="stroke:#181818;stroke-width:1.0;"/><polygon fill="#181818" points="728.29,1940.67,737.29,1944.67,733.29,1940.67,737.29,1936.67,728.29,1940.67" style="stroke:#181818;stroke-width:1.0;"/><text fill="#000000" font-family="sans-serif" font-size="13" lengthAdjust="spacing" textLength="5" x="734.5133" y="1936.7924">?</text></g><!--reverse link Media to Image--><g id="link_Media_Image"><path codeLine="164" d="M769.91,1824.7 C803.38,1853.19 848.87,1891.9 877.58,1916.34 " fill="none" id="Media-backto-Image" style="stroke:#181818;stroke-width:1.0;"/><polygon fill="none" points="765.5,1830.14,754.8,1811.84,774.57,1819.48,765.5,1830.14" style="stroke:#181818;stroke-width:1.0;"/></g><!--reverse link Media to Text--><g id="link_Media_Text"><path codeLine="165" d="M672.03,1820.21 C632.25,1843.39 578.21,1874.87 535.6,1899.7 " fill="none" id="Media-backto-Text" style="stroke:#181818;stroke-width:1.0;"/><polygon fill="none" points="668.46,1814.19,689.27,1810.17,675.51,1826.29,668.46,1814.19" style="stroke:#181818;stroke-width:1.0;"/></g><!--link Text to Audio--><g id="link_Text_Audio"><path codeLine="167" d="M536.34,1940.67 C572.38,1940.67 615.33,1940.67 646.64,1940.67 " fill="none" id="Text-to-Audio" style="stroke:#181818;stroke-width:1.0;"/><polygon fill="#181818" points="651.63,1940.67,642.63,1936.67,646.63,1940.67,642.63,1944.67,651.63,1940.67" style="stroke:#181818;stroke-width:1.0;"/><text fill="#000000" font-family="sans-serif" font-size="13" lengthAdjust="spacing" textLength="81" x="554.25" y="1934.2384">transcription</text><text fill="#000000" font-family="sans-serif" font-size="13" lengthAdjust="spacing" textLength="5" x="640.391" y="1936.7924">?</text></g><!--link Concept to Document--><g id="link_Concept_Document"><path codeLine="169" d="M454.6617,1433.2471 C454.6617,1433.2471 575.88,1491.5 635,1527.74 C651.51,1537.86 669.07,1549.81 684.38,1560.64 " fill="none" id="Concept-Document" style="stroke:#181818;stroke-width:1.0;"/><polygon fill="none" points="443.77,1428.21,447.5368,1434.3591,454.6617,1433.2471,450.8948,1427.098,443.77,1428.21" style="stroke:#181818;stroke-width:1.0;"/><polygon fill="#181818" points="694.88,1568.14,689.8846,1559.652,690.8124,1565.2322,685.2322,1566.1601,694.88,1568.14" style="stroke:#181818;stroke-width:1.0;"/><line style="stroke:#181818;stroke-width:1.0;" x1="690.8124" x2="684.305" y1="1565.2322" y2="1560.58"/><text fill="#000000" font-family="sans-serif" font-size="13" lengthAdjust="spacing" textLength="6" x="681.0021" y="1558.1806">*</text></g><!--link Topic to Excercise--><g id="link_Topic_Excercise"><path codeLine="171" d="M449.5069,772.4058 C449.5069,772.4058 417.3,801.51 403.18,814.27 " fill="none" id="Topic-Excercise" style="stroke:#181818;stroke-width:1.0;"/><polygon fill="none" points="458.41,764.36,451.2765,765.4152,449.5069,772.4058,456.6404,771.3506,458.41,764.36" style="stroke:#181818;stroke-width:1.0;"/><polygon fill="#181818" points="393.9,822.66,403.2593,819.5934,397.6096,819.3076,397.8954,813.658,393.9,822.66" style="stroke:#181818;stroke-width:1.0;"/><line style="stroke:#181818;stroke-width:1.0;" x1="397.6096" x2="403.54" y1="819.3076" y2="813.945"/><text fill="#000000" font-family="sans-serif" font-size="13" lengthAdjust="spacing" textLength="6" x="393.3226" y="813.046">*</text></g><!--SRC=[XLRDRjim3BxhARHSihLm7y3eEXHk3XrMj6YoNOOT59j913YI9yb5iwplFlt_k4tdWs6H7ocIuaUvxOcK-5PH1eA80puYh9yAjwDKV8zhlEQy1yAi-1mlEge-Va8l296rL8Aq2g_uGDkZrsz1hSYwX_jDmva2fgH6HzNoqFTaFMgPTgm1BGnAbfxTuX58vxQntl5PLLtXsTaCt_1st6ktI3-j3Nr9zqCFFeYN86tuVk2IAiYYgx0o2wdt_aQbkhIgAvoC5iyjY9PAY5Lu0Y4fPmbom_U4igWNy7ka0an4qUrI2SgsLydcUXXwsXAb7QNoSY505w-iRuNXYVGZKT0bnQczfT8uixDsiWpVgyC0nWBOk2-btgxf-HzOWLHsTGCRogY9p2uVeITnSJ-0-xWRUqLrZPiTforOqLVT7NHpo3ApucpTy0vIw2juLZ5mLJQ8bz8zsOBCJz2s1yuEDKNxJXqZsiNu_y9dzNMzTKH9TWST9TX95jted3teAcsusAUs_2v1P9Gmo-CBmiXyuCk_LQKhGDgT1YN9KesTxUHJVizdqUeTI71p0cAR_9GoqRx6Wu3Er1UwDz0y99fRk15n2jtiY4BcXIykGXZ8vsD55k2ZJu82aZEd3jHm9RJnv_s74dkjph45eRcdZGdAP93Pr0L_KRwR0UlY-YP4KnsUVPbD6gp6Fp-GXBgWid6jzWiX7yB4wUd0eeNDf2HtMI4t7ckisrHnKQZoe_BgLEstzOmhm3ri5EQRs5Y6Dmkhnvpr1xlMnnnk2BkctXS5HsTW7JREqBpOiWcNYj_FF2u3ouXoQEUQRCYZ4kLRqt35jTWyvUMSkYwTYXzIkwEacZYR9zIhVL0MKrAcitMp9377JX8KfbgaRpRJwZ2S9gYp2OgoW0lpMWFDgMbmaDXMUUKcplTeQ9dgOJNcWcuDP-pjaRlourCppyrvANbBqzmFHnBMjqmt8LM4-UlYUhiLi7Nu5nncQmmYNWncfxhCGS_TKz4g8lG_1Sfg4wWqOMQO-P_nXlGw1JGl0TmJiv3gVTtmj-roFNQKvu8Vj0EEx1k7ufkXO86uiBqrDrikCBUXeR6-4ojTyLrfgnCJXCbMqC754JBcht-2ykxJYZW2_m40]--></g></svg>