<?xml version="1.0" encoding="us-ascii" standalone="no"?><svg xmlns="http://www.w3.org/2000/svg" xmlns:xlink="http://www.w3.org/1999/xlink" contentStyleType="text/css" height="1082px" preserveAspectRatio="none" style="width:1257px;height:1082px;background:#FFFFFF;" version="1.1" viewBox="0 0 1257 1082" width="1257px" zoomAndPan="magnify"><defs/><g><!--class EducationPlatform--><g id="elem_EducationPlatform"><rect fill="#F1F1F1" height="48" id="EducationPlatform" rx="2.5" ry="2.5" style="stroke:#181818;stroke-width:0.5;" width="147" x="484.5" y="7"/><ellipse cx="499.5" cy="23" fill="#ADD1B2" rx="11" ry="11" style="stroke:#181818;stroke-width:1.0;"/><path d="M502.2656,18.875 Q502.4219,18.6563 502.6094,18.5469 Q502.7969,18.4375 503.0156,18.4375 Q503.3906,18.4375 503.625,18.7031 Q503.8594,18.9531 503.8594,19.5625 L503.8594,21.0156 Q503.8594,21.625 503.625,21.8906 Q503.3906,22.1563 503.0156,22.1563 Q502.6719,22.1563 502.4688,21.9531 Q502.2656,21.7656 502.1563,21.25 Q502.1094,20.8906 501.9219,20.7031 Q501.5938,20.3281 500.9844,20.1094 Q500.375,19.8906 499.75,19.8906 Q498.9844,19.8906 498.3438,20.2188 Q497.7188,20.5469 497.2188,21.2969 Q496.7344,22.0469 496.7344,23.0781 L496.7344,24.1719 Q496.7344,25.4063 497.625,26.2344 Q498.5156,27.0469 500.1094,27.0469 Q501.0469,27.0469 501.7031,26.7969 Q502.0938,26.6406 502.5156,26.2031 Q502.7813,25.9375 502.9219,25.8594 Q503.0781,25.7813 503.2813,25.7813 Q503.6094,25.7813 503.8594,26.0469 Q504.125,26.2969 504.125,26.6406 Q504.125,26.9844 503.7813,27.3906 Q503.2813,27.9688 502.4844,28.2969 Q501.4063,28.75 500.1094,28.75 Q498.5938,28.75 497.3906,28.125 Q496.4063,27.625 495.7188,26.5625 Q495.0313,25.4844 495.0313,24.2031 L495.0313,23.0469 Q495.0313,21.7188 495.6406,20.5781 Q496.2656,19.4219 497.3594,18.8125 Q498.4531,18.1875 499.6875,18.1875 Q500.4219,18.1875 501.0625,18.3594 Q501.7188,18.5156 502.2656,18.875 Z " fill="#000000"/><text fill="#000000" font-family="sans-serif" font-size="14" lengthAdjust="spacing" textLength="115" x="513.5" y="28.7285">EducationPlatform</text><line style="stroke:#181818;stroke-width:0.5;" x1="485.5" x2="630.5" y1="39" y2="39"/><line style="stroke:#181818;stroke-width:0.5;" x1="485.5" x2="630.5" y1="47" y2="47"/></g><!--class User--><g id="elem_User"><rect codeLine="8" fill="#F1F1F1" height="48" id="User" rx="2.5" ry="2.5" style="stroke:#181818;stroke-width:0.5;" width="62" x="598" y="416"/><ellipse cx="613" cy="432" fill="#A9DCDF" rx="11" ry="11" style="stroke:#181818;stroke-width:1.0;"/><path d="M615.1875,433.7656 L611.0469,433.7656 L610.625,434.7969 L611.0469,434.7969 Q611.6563,434.7969 611.9219,435.0313 Q612.1875,435.2656 612.1875,435.6563 Q612.1875,436.0313 611.9219,436.2656 Q611.6563,436.5 611.0469,436.5 L608.75,436.5 Q608.1406,436.5 607.8906,436.2656 Q607.625,436.0313 607.625,435.6406 Q607.625,435.2656 607.9063,435.0313 Q608.1719,434.7813 608.7969,434.7969 L611.4688,428.1406 L610.3594,428.1406 Q609.75,428.1406 609.4844,427.9063 Q609.2188,427.6719 609.2188,427.2813 Q609.2188,426.9063 609.4844,426.6719 Q609.75,426.4375 610.3594,426.4375 L614.0313,426.4375 L617.4219,434.7969 Q618.0156,434.7969 618.2031,434.9375 Q618.5938,435.2031 618.5938,435.6563 Q618.5938,436.0313 618.3281,436.2656 Q618.0781,436.5 617.4688,436.5 L615.1719,436.5 Q614.5625,436.5 614.2969,436.2656 Q614.0313,436.0313 614.0313,435.6406 Q614.0313,435.2656 614.2969,435.0313 Q614.5625,434.7969 615.1719,434.7969 L615.5938,434.7969 L615.1875,433.7656 Z M614.4688,432.0625 L613.1094,428.6875 L611.7344,432.0625 L614.4688,432.0625 Z " fill="#000000"/><text fill="#000000" font-family="sans-serif" font-size="14" font-style="italic" lengthAdjust="spacing" textLength="30" x="627" y="437.7285">User</text><line style="stroke:#181818;stroke-width:0.5;" x1="599" x2="659" y1="448" y2="448"/><line style="stroke:#181818;stroke-width:0.5;" x1="599" x2="659" y1="456" y2="456"/></g><!--class Topic--><g id="elem_Topic"><rect codeLine="82" fill="#F1F1F1" height="65.6094" id="Topic" rx="2.5" ry="2.5" style="stroke:#181818;stroke-width:0.5;" width="116" x="368" y="289"/><ellipse cx="405.05" cy="305" fill="#A9DCDF" rx="11" ry="11" style="stroke:#181818;stroke-width:1.0;"/><path d="M407.2375,306.7656 L403.0969,306.7656 L402.675,307.7969 L403.0969,307.7969 Q403.7063,307.7969 403.9719,308.0313 Q404.2375,308.2656 404.2375,308.6563 Q404.2375,309.0313 403.9719,309.2656 Q403.7063,309.5 403.0969,309.5 L400.8,309.5 Q400.1906,309.5 399.9406,309.2656 Q399.675,309.0313 399.675,308.6406 Q399.675,308.2656 399.9563,308.0313 Q400.2219,307.7813 400.8469,307.7969 L403.5188,301.1406 L402.4094,301.1406 Q401.8,301.1406 401.5344,300.9063 Q401.2688,300.6719 401.2688,300.2813 Q401.2688,299.9063 401.5344,299.6719 Q401.8,299.4375 402.4094,299.4375 L406.0813,299.4375 L409.4719,307.7969 Q410.0656,307.7969 410.2531,307.9375 Q410.6438,308.2031 410.6438,308.6563 Q410.6438,309.0313 410.3781,309.2656 Q410.1281,309.5 409.5188,309.5 L407.2219,309.5 Q406.6125,309.5 406.3469,309.2656 Q406.0813,309.0313 406.0813,308.6406 Q406.0813,308.2656 406.3469,308.0313 Q406.6125,307.7969 407.2219,307.7969 L407.6438,307.7969 L407.2375,306.7656 Z M406.5188,305.0625 L405.1594,301.6875 L403.7844,305.0625 L406.5188,305.0625 Z " fill="#000000"/><text fill="#000000" font-family="sans-serif" font-size="14" font-style="italic" lengthAdjust="spacing" textLength="35" x="423.95" y="310.7285">Topic</text><line style="stroke:#181818;stroke-width:0.5;" x1="369" x2="483" y1="321" y2="321"/><line style="stroke:#181818;stroke-width:0.5;" x1="369" x2="483" y1="329" y2="329"/><ellipse cx="379" cy="343.3047" fill="#84BE84" rx="3" ry="3" style="stroke:#038048;stroke-width:1.0;"/><text fill="#000000" font-family="sans-serif" font-size="14" lengthAdjust="spacing" textLength="90" x="388" y="347.5332">getConcepts()</text></g><!--class Itinerary--><g id="elem_Itinerary"><rect codeLine="25" fill="#F1F1F1" height="48" id="Itinerary" rx="2.5" ry="2.5" style="stroke:#181818;stroke-width:0.5;" width="83" x="384.5" y="133"/><ellipse cx="399.5" cy="149" fill="#ADD1B2" rx="11" ry="11" style="stroke:#181818;stroke-width:1.0;"/><path d="M402.2656,144.875 Q402.4219,144.6563 402.6094,144.5469 Q402.7969,144.4375 403.0156,144.4375 Q403.3906,144.4375 403.625,144.7031 Q403.8594,144.9531 403.8594,145.5625 L403.8594,147.0156 Q403.8594,147.625 403.625,147.8906 Q403.3906,148.1563 403.0156,148.1563 Q402.6719,148.1563 402.4688,147.9531 Q402.2656,147.7656 402.1563,147.25 Q402.1094,146.8906 401.9219,146.7031 Q401.5938,146.3281 400.9844,146.1094 Q400.375,145.8906 399.75,145.8906 Q398.9844,145.8906 398.3438,146.2188 Q397.7188,146.5469 397.2188,147.2969 Q396.7344,148.0469 396.7344,149.0781 L396.7344,150.1719 Q396.7344,151.4063 397.625,152.2344 Q398.5156,153.0469 400.1094,153.0469 Q401.0469,153.0469 401.7031,152.7969 Q402.0938,152.6406 402.5156,152.2031 Q402.7813,151.9375 402.9219,151.8594 Q403.0781,151.7813 403.2813,151.7813 Q403.6094,151.7813 403.8594,152.0469 Q404.125,152.2969 404.125,152.6406 Q404.125,152.9844 403.7813,153.3906 Q403.2813,153.9688 402.4844,154.2969 Q401.4063,154.75 400.1094,154.75 Q398.5938,154.75 397.3906,154.125 Q396.4063,153.625 395.7188,152.5625 Q395.0313,151.4844 395.0313,150.2031 L395.0313,149.0469 Q395.0313,147.7188 395.6406,146.5781 Q396.2656,145.4219 397.3594,144.8125 Q398.4531,144.1875 399.6875,144.1875 Q400.4219,144.1875 401.0625,144.3594 Q401.7188,144.5156 402.2656,144.875 Z " fill="#000000"/><text fill="#000000" font-family="sans-serif" font-size="14" lengthAdjust="spacing" textLength="51" x="413.5" y="154.7285">Itinerary</text><line style="stroke:#181818;stroke-width:0.5;" x1="385.5" x2="466.5" y1="165" y2="165"/><line style="stroke:#181818;stroke-width:0.5;" x1="385.5" x2="466.5" y1="173" y2="173"/></g><!--class Evaluator--><g id="elem_Evaluator"><rect codeLine="21" fill="#F1F1F1" height="48" id="Evaluator" rx="2.5" ry="2.5" style="stroke:#181818;stroke-width:0.5;" width="92" x="891" y="211"/><ellipse cx="906" cy="227" fill="#ADD1B2" rx="11" ry="11" style="stroke:#181818;stroke-width:1.0;"/><path d="M908.7656,222.875 Q908.9219,222.6563 909.1094,222.5469 Q909.2969,222.4375 909.5156,222.4375 Q909.8906,222.4375 910.125,222.7031 Q910.3594,222.9531 910.3594,223.5625 L910.3594,225.0156 Q910.3594,225.625 910.125,225.8906 Q909.8906,226.1563 909.5156,226.1563 Q909.1719,226.1563 908.9688,225.9531 Q908.7656,225.7656 908.6563,225.25 Q908.6094,224.8906 908.4219,224.7031 Q908.0938,224.3281 907.4844,224.1094 Q906.875,223.8906 906.25,223.8906 Q905.4844,223.8906 904.8438,224.2188 Q904.2188,224.5469 903.7188,225.2969 Q903.2344,226.0469 903.2344,227.0781 L903.2344,228.1719 Q903.2344,229.4063 904.125,230.2344 Q905.0156,231.0469 906.6094,231.0469 Q907.5469,231.0469 908.2031,230.7969 Q908.5938,230.6406 909.0156,230.2031 Q909.2813,229.9375 909.4219,229.8594 Q909.5781,229.7813 909.7813,229.7813 Q910.1094,229.7813 910.3594,230.0469 Q910.625,230.2969 910.625,230.6406 Q910.625,230.9844 910.2813,231.3906 Q909.7813,231.9688 908.9844,232.2969 Q907.9063,232.75 906.6094,232.75 Q905.0938,232.75 903.8906,232.125 Q902.9063,231.625 902.2188,230.5625 Q901.5313,229.4844 901.5313,228.2031 L901.5313,227.0469 Q901.5313,225.7188 902.1406,224.5781 Q902.7656,223.4219 903.8594,222.8125 Q904.9531,222.1875 906.1875,222.1875 Q906.9219,222.1875 907.5625,222.3594 Q908.2188,222.5156 908.7656,222.875 Z " fill="#000000"/><text fill="#000000" font-family="sans-serif" font-size="14" lengthAdjust="spacing" textLength="60" x="920" y="232.7285">Evaluator</text><line style="stroke:#181818;stroke-width:0.5;" x1="892" x2="982" y1="243" y2="243"/><line style="stroke:#181818;stroke-width:0.5;" x1="892" x2="982" y1="251" y2="251"/></g><!--class Teacher--><g id="elem_Teacher"><rect codeLine="14" fill="#F1F1F1" height="48" id="Teacher" rx="2.5" ry="2.5" style="stroke:#181818;stroke-width:0.5;" width="85" x="431.5" y="534"/><ellipse cx="446.5" cy="550" fill="#ADD1B2" rx="11" ry="11" style="stroke:#181818;stroke-width:1.0;"/><path d="M449.2656,545.875 Q449.4219,545.6563 449.6094,545.5469 Q449.7969,545.4375 450.0156,545.4375 Q450.3906,545.4375 450.625,545.7031 Q450.8594,545.9531 450.8594,546.5625 L450.8594,548.0156 Q450.8594,548.625 450.625,548.8906 Q450.3906,549.1563 450.0156,549.1563 Q449.6719,549.1563 449.4688,548.9531 Q449.2656,548.7656 449.1563,548.25 Q449.1094,547.8906 448.9219,547.7031 Q448.5938,547.3281 447.9844,547.1094 Q447.375,546.8906 446.75,546.8906 Q445.9844,546.8906 445.3438,547.2188 Q444.7188,547.5469 444.2188,548.2969 Q443.7344,549.0469 443.7344,550.0781 L443.7344,551.1719 Q443.7344,552.4063 444.625,553.2344 Q445.5156,554.0469 447.1094,554.0469 Q448.0469,554.0469 448.7031,553.7969 Q449.0938,553.6406 449.5156,553.2031 Q449.7813,552.9375 449.9219,552.8594 Q450.0781,552.7813 450.2813,552.7813 Q450.6094,552.7813 450.8594,553.0469 Q451.125,553.2969 451.125,553.6406 Q451.125,553.9844 450.7813,554.3906 Q450.2813,554.9688 449.4844,555.2969 Q448.4063,555.75 447.1094,555.75 Q445.5938,555.75 444.3906,555.125 Q443.4063,554.625 442.7188,553.5625 Q442.0313,552.4844 442.0313,551.2031 L442.0313,550.0469 Q442.0313,548.7188 442.6406,547.5781 Q443.2656,546.4219 444.3594,545.8125 Q445.4531,545.1875 446.6875,545.1875 Q447.4219,545.1875 448.0625,545.3594 Q448.7188,545.5156 449.2656,545.875 Z " fill="#000000"/><text fill="#000000" font-family="sans-serif" font-size="14" lengthAdjust="spacing" textLength="53" x="460.5" y="555.7285">Teacher</text><line style="stroke:#181818;stroke-width:0.5;" x1="432.5" x2="515.5" y1="566" y2="566"/><line style="stroke:#181818;stroke-width:0.5;" x1="432.5" x2="515.5" y1="574" y2="574"/></g><!--class Student--><g id="elem_Student"><rect codeLine="17" fill="#F1F1F1" height="48" id="Student" rx="2.5" ry="2.5" style="stroke:#181818;stroke-width:0.5;" width="81" x="723.5" y="534"/><ellipse cx="738.5" cy="550" fill="#ADD1B2" rx="11" ry="11" style="stroke:#181818;stroke-width:1.0;"/><path d="M741.2656,545.875 Q741.4219,545.6563 741.6094,545.5469 Q741.7969,545.4375 742.0156,545.4375 Q742.3906,545.4375 742.625,545.7031 Q742.8594,545.9531 742.8594,546.5625 L742.8594,548.0156 Q742.8594,548.625 742.625,548.8906 Q742.3906,549.1563 742.0156,549.1563 Q741.6719,549.1563 741.4688,548.9531 Q741.2656,548.7656 741.1563,548.25 Q741.1094,547.8906 740.9219,547.7031 Q740.5938,547.3281 739.9844,547.1094 Q739.375,546.8906 738.75,546.8906 Q737.9844,546.8906 737.3438,547.2188 Q736.7188,547.5469 736.2188,548.2969 Q735.7344,549.0469 735.7344,550.0781 L735.7344,551.1719 Q735.7344,552.4063 736.625,553.2344 Q737.5156,554.0469 739.1094,554.0469 Q740.0469,554.0469 740.7031,553.7969 Q741.0938,553.6406 741.5156,553.2031 Q741.7813,552.9375 741.9219,552.8594 Q742.0781,552.7813 742.2813,552.7813 Q742.6094,552.7813 742.8594,553.0469 Q743.125,553.2969 743.125,553.6406 Q743.125,553.9844 742.7813,554.3906 Q742.2813,554.9688 741.4844,555.2969 Q740.4063,555.75 739.1094,555.75 Q737.5938,555.75 736.3906,555.125 Q735.4063,554.625 734.7188,553.5625 Q734.0313,552.4844 734.0313,551.2031 L734.0313,550.0469 Q734.0313,548.7188 734.6406,547.5781 Q735.2656,546.4219 736.3594,545.8125 Q737.4531,545.1875 738.6875,545.1875 Q739.4219,545.1875 740.0625,545.3594 Q740.7188,545.5156 741.2656,545.875 Z " fill="#000000"/><text fill="#000000" font-family="sans-serif" font-size="14" lengthAdjust="spacing" textLength="49" x="752.5" y="555.7285">Student</text><line style="stroke:#181818;stroke-width:0.5;" x1="724.5" x2="803.5" y1="566" y2="566"/><line style="stroke:#181818;stroke-width:0.5;" x1="724.5" x2="803.5" y1="574" y2="574"/></g><!--class Application--><g id="elem_Application"><rect codeLine="70" fill="#F1F1F1" height="83.2188" id="Application" rx="2.5" ry="2.5" style="stroke:#181818;stroke-width:0.5;" width="151" x="706.5" y="669"/><ellipse cx="744" cy="685" fill="#ADD1B2" rx="11" ry="11" style="stroke:#181818;stroke-width:1.0;"/><path d="M746.7656,680.875 Q746.9219,680.6563 747.1094,680.5469 Q747.2969,680.4375 747.5156,680.4375 Q747.8906,680.4375 748.125,680.7031 Q748.3594,680.9531 748.3594,681.5625 L748.3594,683.0156 Q748.3594,683.625 748.125,683.8906 Q747.8906,684.1563 747.5156,684.1563 Q747.1719,684.1563 746.9688,683.9531 Q746.7656,683.7656 746.6563,683.25 Q746.6094,682.8906 746.4219,682.7031 Q746.0938,682.3281 745.4844,682.1094 Q744.875,681.8906 744.25,681.8906 Q743.4844,681.8906 742.8438,682.2188 Q742.2188,682.5469 741.7188,683.2969 Q741.2344,684.0469 741.2344,685.0781 L741.2344,686.1719 Q741.2344,687.4063 742.125,688.2344 Q743.0156,689.0469 744.6094,689.0469 Q745.5469,689.0469 746.2031,688.7969 Q746.5938,688.6406 747.0156,688.2031 Q747.2813,687.9375 747.4219,687.8594 Q747.5781,687.7813 747.7813,687.7813 Q748.1094,687.7813 748.3594,688.0469 Q748.625,688.2969 748.625,688.6406 Q748.625,688.9844 748.2813,689.3906 Q747.7813,689.9688 746.9844,690.2969 Q745.9063,690.75 744.6094,690.75 Q743.0938,690.75 741.8906,690.125 Q740.9063,689.625 740.2188,688.5625 Q739.5313,687.4844 739.5313,686.2031 L739.5313,685.0469 Q739.5313,683.7188 740.1406,682.5781 Q740.7656,681.4219 741.8594,680.8125 Q742.9531,680.1875 744.1875,680.1875 Q744.9219,680.1875 745.5625,680.3594 Q746.2188,680.5156 746.7656,680.875 Z " fill="#000000"/><text fill="#000000" font-family="sans-serif" font-size="14" lengthAdjust="spacing" textLength="69" x="763" y="690.7285">Application</text><line style="stroke:#181818;stroke-width:0.5;" x1="707.5" x2="856.5" y1="701" y2="701"/><rect fill="none" height="6" style="stroke:#C82930;stroke-width:1.0;" width="6" x="714.5" y="712.3047"/><text fill="#000000" font-family="sans-serif" font-size="14" lengthAdjust="spacing" textLength="125" x="726.5" y="719.5332">evaluated : boolean</text><rect fill="none" height="6" style="stroke:#C82930;stroke-width:1.0;" width="6" x="714.5" y="729.9141"/><text fill="#000000" font-family="sans-serif" font-size="14" lengthAdjust="spacing" textLength="98" x="726.5" y="737.1426">solution : String</text><line style="stroke:#181818;stroke-width:0.5;" x1="707.5" x2="856.5" y1="744.2188" y2="744.2188"/></g><!--class Question--><g id="elem_Question"><rect codeLine="57" fill="#F1F1F1" height="48" id="Question" rx="2.5" ry="2.5" style="stroke:#181818;stroke-width:0.5;" width="89" x="986.5" y="857"/><ellipse cx="1001.5" cy="873" fill="#A9DCDF" rx="11" ry="11" style="stroke:#181818;stroke-width:1.0;"/><path d="M1003.6875,874.7656 L999.5469,874.7656 L999.125,875.7969 L999.5469,875.7969 Q1000.1563,875.7969 1000.4219,876.0313 Q1000.6875,876.2656 1000.6875,876.6563 Q1000.6875,877.0313 1000.4219,877.2656 Q1000.1563,877.5 999.5469,877.5 L997.25,877.5 Q996.6406,877.5 996.3906,877.2656 Q996.125,877.0313 996.125,876.6406 Q996.125,876.2656 996.4063,876.0313 Q996.6719,875.7813 997.2969,875.7969 L999.9688,869.1406 L998.8594,869.1406 Q998.25,869.1406 997.9844,868.9063 Q997.7188,868.6719 997.7188,868.2813 Q997.7188,867.9063 997.9844,867.6719 Q998.25,867.4375 998.8594,867.4375 L1002.5313,867.4375 L1005.9219,875.7969 Q1006.5156,875.7969 1006.7031,875.9375 Q1007.0938,876.2031 1007.0938,876.6563 Q1007.0938,877.0313 1006.8281,877.2656 Q1006.5781,877.5 1005.9688,877.5 L1003.6719,877.5 Q1003.0625,877.5 1002.7969,877.2656 Q1002.5313,877.0313 1002.5313,876.6406 Q1002.5313,876.2656 1002.7969,876.0313 Q1003.0625,875.7969 1003.6719,875.7969 L1004.0938,875.7969 L1003.6875,874.7656 Z M1002.9688,873.0625 L1001.6094,869.6875 L1000.2344,873.0625 L1002.9688,873.0625 Z " fill="#000000"/><text fill="#000000" font-family="sans-serif" font-size="14" font-style="italic" lengthAdjust="spacing" textLength="57" x="1015.5" y="878.7285">Question</text><line style="stroke:#181818;stroke-width:0.5;" x1="987.5" x2="1074.5" y1="889" y2="889"/><line style="stroke:#181818;stroke-width:0.5;" x1="987.5" x2="1074.5" y1="897" y2="897"/></g><!--class Definition--><g id="elem_Definition"><rect codeLine="29" fill="#F1F1F1" height="48" id="Definition" rx="2.5" ry="2.5" style="stroke:#181818;stroke-width:0.5;" width="91" x="268.5" y="686.5"/><ellipse cx="283.5" cy="702.5" fill="#ADD1B2" rx="11" ry="11" style="stroke:#181818;stroke-width:1.0;"/><path d="M286.2656,698.375 Q286.4219,698.1563 286.6094,698.0469 Q286.7969,697.9375 287.0156,697.9375 Q287.3906,697.9375 287.625,698.2031 Q287.8594,698.4531 287.8594,699.0625 L287.8594,700.5156 Q287.8594,701.125 287.625,701.3906 Q287.3906,701.6563 287.0156,701.6563 Q286.6719,701.6563 286.4688,701.4531 Q286.2656,701.2656 286.1563,700.75 Q286.1094,700.3906 285.9219,700.2031 Q285.5938,699.8281 284.9844,699.6094 Q284.375,699.3906 283.75,699.3906 Q282.9844,699.3906 282.3438,699.7188 Q281.7188,700.0469 281.2188,700.7969 Q280.7344,701.5469 280.7344,702.5781 L280.7344,703.6719 Q280.7344,704.9063 281.625,705.7344 Q282.5156,706.5469 284.1094,706.5469 Q285.0469,706.5469 285.7031,706.2969 Q286.0938,706.1406 286.5156,705.7031 Q286.7813,705.4375 286.9219,705.3594 Q287.0781,705.2813 287.2813,705.2813 Q287.6094,705.2813 287.8594,705.5469 Q288.125,705.7969 288.125,706.1406 Q288.125,706.4844 287.7813,706.8906 Q287.2813,707.4688 286.4844,707.7969 Q285.4063,708.25 284.1094,708.25 Q282.5938,708.25 281.3906,707.625 Q280.4063,707.125 279.7188,706.0625 Q279.0313,704.9844 279.0313,703.7031 L279.0313,702.5469 Q279.0313,701.2188 279.6406,700.0781 Q280.2656,698.9219 281.3594,698.3125 Q282.4531,697.6875 283.6875,697.6875 Q284.4219,697.6875 285.0625,697.8594 Q285.7188,698.0156 286.2656,698.375 Z " fill="#000000"/><text fill="#000000" font-family="sans-serif" font-size="14" lengthAdjust="spacing" textLength="59" x="297.5" y="708.2285">Definition</text><line style="stroke:#181818;stroke-width:0.5;" x1="269.5" x2="358.5" y1="718.5" y2="718.5"/><line style="stroke:#181818;stroke-width:0.5;" x1="269.5" x2="358.5" y1="726.5" y2="726.5"/></g><!--class Justification--><g id="elem_Justification"><rect codeLine="32" fill="#F1F1F1" height="48" id="Justification" rx="2.5" ry="2.5" style="stroke:#181818;stroke-width:0.5;" width="105" x="566.5" y="686.5"/><ellipse cx="581.5" cy="702.5" fill="#ADD1B2" rx="11" ry="11" style="stroke:#181818;stroke-width:1.0;"/><path d="M584.2656,698.375 Q584.4219,698.1563 584.6094,698.0469 Q584.7969,697.9375 585.0156,697.9375 Q585.3906,697.9375 585.625,698.2031 Q585.8594,698.4531 585.8594,699.0625 L585.8594,700.5156 Q585.8594,701.125 585.625,701.3906 Q585.3906,701.6563 585.0156,701.6563 Q584.6719,701.6563 584.4688,701.4531 Q584.2656,701.2656 584.1563,700.75 Q584.1094,700.3906 583.9219,700.2031 Q583.5938,699.8281 582.9844,699.6094 Q582.375,699.3906 581.75,699.3906 Q580.9844,699.3906 580.3438,699.7188 Q579.7188,700.0469 579.2188,700.7969 Q578.7344,701.5469 578.7344,702.5781 L578.7344,703.6719 Q578.7344,704.9063 579.625,705.7344 Q580.5156,706.5469 582.1094,706.5469 Q583.0469,706.5469 583.7031,706.2969 Q584.0938,706.1406 584.5156,705.7031 Q584.7813,705.4375 584.9219,705.3594 Q585.0781,705.2813 585.2813,705.2813 Q585.6094,705.2813 585.8594,705.5469 Q586.125,705.7969 586.125,706.1406 Q586.125,706.4844 585.7813,706.8906 Q585.2813,707.4688 584.4844,707.7969 Q583.4063,708.25 582.1094,708.25 Q580.5938,708.25 579.3906,707.625 Q578.4063,707.125 577.7188,706.0625 Q577.0313,704.9844 577.0313,703.7031 L577.0313,702.5469 Q577.0313,701.2188 577.6406,700.0781 Q578.2656,698.9219 579.3594,698.3125 Q580.4531,697.6875 581.6875,697.6875 Q582.4219,697.6875 583.0625,697.8594 Q583.7188,698.0156 584.2656,698.375 Z " fill="#000000"/><text fill="#000000" font-family="sans-serif" font-size="14" lengthAdjust="spacing" textLength="73" x="595.5" y="708.2285">Justification</text><line style="stroke:#181818;stroke-width:0.5;" x1="567.5" x2="670.5" y1="718.5" y2="718.5"/><line style="stroke:#181818;stroke-width:0.5;" x1="567.5" x2="670.5" y1="726.5" y2="726.5"/></g><!--class Domain--><g id="elem_Domain"><rect codeLine="35" fill="#F1F1F1" height="65.6094" id="Domain" rx="2.5" ry="2.5" style="stroke:#181818;stroke-width:0.5;" width="110" x="438" y="848"/><ellipse cx="466.5" cy="864" fill="#ADD1B2" rx="11" ry="11" style="stroke:#181818;stroke-width:1.0;"/><path d="M469.2656,859.875 Q469.4219,859.6563 469.6094,859.5469 Q469.7969,859.4375 470.0156,859.4375 Q470.3906,859.4375 470.625,859.7031 Q470.8594,859.9531 470.8594,860.5625 L470.8594,862.0156 Q470.8594,862.625 470.625,862.8906 Q470.3906,863.1563 470.0156,863.1563 Q469.6719,863.1563 469.4688,862.9531 Q469.2656,862.7656 469.1563,862.25 Q469.1094,861.8906 468.9219,861.7031 Q468.5938,861.3281 467.9844,861.1094 Q467.375,860.8906 466.75,860.8906 Q465.9844,860.8906 465.3438,861.2188 Q464.7188,861.5469 464.2188,862.2969 Q463.7344,863.0469 463.7344,864.0781 L463.7344,865.1719 Q463.7344,866.4063 464.625,867.2344 Q465.5156,868.0469 467.1094,868.0469 Q468.0469,868.0469 468.7031,867.7969 Q469.0938,867.6406 469.5156,867.2031 Q469.7813,866.9375 469.9219,866.8594 Q470.0781,866.7813 470.2813,866.7813 Q470.6094,866.7813 470.8594,867.0469 Q471.125,867.2969 471.125,867.6406 Q471.125,867.9844 470.7813,868.3906 Q470.2813,868.9688 469.4844,869.2969 Q468.4063,869.75 467.1094,869.75 Q465.5938,869.75 464.3906,869.125 Q463.4063,868.625 462.7188,867.5625 Q462.0313,866.4844 462.0313,865.2031 L462.0313,864.0469 Q462.0313,862.7188 462.6406,861.5781 Q463.2656,860.4219 464.3594,859.8125 Q465.4531,859.1875 466.6875,859.1875 Q467.4219,859.1875 468.0625,859.3594 Q468.7188,859.5156 469.2656,859.875 Z " fill="#000000"/><text fill="#000000" font-family="sans-serif" font-size="14" lengthAdjust="spacing" textLength="48" x="483.5" y="869.7285">Domain</text><line style="stroke:#181818;stroke-width:0.5;" x1="439" x2="547" y1="880" y2="880"/><rect fill="none" height="6" style="stroke:#C82930;stroke-width:1.0;" width="6" x="446" y="891.3047"/><text fill="#000000" font-family="sans-serif" font-size="14" lengthAdjust="spacing" textLength="84" x="458" y="898.5332">name : String</text><line style="stroke:#181818;stroke-width:0.5;" x1="439" x2="547" y1="905.6094" y2="905.6094"/></g><!--class Version--><g id="elem_Version"><rect codeLine="47" fill="#F1F1F1" height="65.6094" id="Version" rx="2.5" ry="2.5" style="stroke:#181818;stroke-width:0.5;" width="196" x="614" y="1010"/><ellipse cx="683.75" cy="1026" fill="#ADD1B2" rx="11" ry="11" style="stroke:#181818;stroke-width:1.0;"/><path d="M686.5156,1021.875 Q686.6719,1021.6563 686.8594,1021.5469 Q687.0469,1021.4375 687.2656,1021.4375 Q687.6406,1021.4375 687.875,1021.7031 Q688.1094,1021.9531 688.1094,1022.5625 L688.1094,1024.0156 Q688.1094,1024.625 687.875,1024.8906 Q687.6406,1025.1563 687.2656,1025.1563 Q686.9219,1025.1563 686.7188,1024.9531 Q686.5156,1024.7656 686.4063,1024.25 Q686.3594,1023.8906 686.1719,1023.7031 Q685.8438,1023.3281 685.2344,1023.1094 Q684.625,1022.8906 684,1022.8906 Q683.2344,1022.8906 682.5938,1023.2188 Q681.9688,1023.5469 681.4688,1024.2969 Q680.9844,1025.0469 680.9844,1026.0781 L680.9844,1027.1719 Q680.9844,1028.4063 681.875,1029.2344 Q682.7656,1030.0469 684.3594,1030.0469 Q685.2969,1030.0469 685.9531,1029.7969 Q686.3438,1029.6406 686.7656,1029.2031 Q687.0313,1028.9375 687.1719,1028.8594 Q687.3281,1028.7813 687.5313,1028.7813 Q687.8594,1028.7813 688.1094,1029.0469 Q688.375,1029.2969 688.375,1029.6406 Q688.375,1029.9844 688.0313,1030.3906 Q687.5313,1030.9688 686.7344,1031.2969 Q685.6563,1031.75 684.3594,1031.75 Q682.8438,1031.75 681.6406,1031.125 Q680.6563,1030.625 679.9688,1029.5625 Q679.2813,1028.4844 679.2813,1027.2031 L679.2813,1026.0469 Q679.2813,1024.7188 679.8906,1023.5781 Q680.5156,1022.4219 681.6094,1021.8125 Q682.7031,1021.1875 683.9375,1021.1875 Q684.6719,1021.1875 685.3125,1021.3594 Q685.9688,1021.5156 686.5156,1021.875 Z " fill="#000000"/><text fill="#000000" font-family="sans-serif" font-size="14" lengthAdjust="spacing" textLength="48" x="704.25" y="1031.7285">Version</text><line style="stroke:#181818;stroke-width:0.5;" x1="615" x2="809" y1="1042" y2="1042"/><rect fill="none" height="6" style="stroke:#C82930;stroke-width:1.0;" width="6" x="622" y="1053.3047"/><text fill="#000000" font-family="sans-serif" font-size="14" lengthAdjust="spacing" textLength="170" x="634" y="1060.5332">requirements : List&lt;String&gt;</text><line style="stroke:#181818;stroke-width:0.5;" x1="615" x2="809" y1="1067.6094" y2="1067.6094"/></g><!--class Applicable--><g id="elem_Applicable"><rect codeLine="40" fill="#F1F1F1" height="48" id="Applicable" rx="2.5" ry="2.5" style="stroke:#181818;stroke-width:0.5;" width="97" x="847.5" y="534"/><ellipse cx="862.5" cy="550" fill="#B4A7E5" rx="11" ry="11" style="stroke:#181818;stroke-width:1.0;"/><path d="M863.4531,546.6406 L863.4531,553.2969 L865.1719,553.2969 Q865.7813,553.2969 866.0469,553.5313 Q866.3125,553.7656 866.3125,554.1563 Q866.3125,554.5313 866.0469,554.7656 Q865.7813,555 865.1719,555 L860.0313,555 Q859.4219,555 859.1563,554.7656 Q858.8906,554.5313 858.8906,554.1406 Q858.8906,553.7656 859.1563,553.5313 Q859.4219,553.2969 860.0313,553.2969 L861.75,553.2969 L861.75,546.6406 L860.0313,546.6406 Q859.4219,546.6406 859.1563,546.4063 Q858.8906,546.1719 858.8906,545.7813 Q858.8906,545.4063 859.1563,545.1719 Q859.4219,544.9375 860.0313,544.9375 L865.1719,544.9375 Q865.7813,544.9375 866.0469,545.1719 Q866.3125,545.4063 866.3125,545.7813 Q866.3125,546.1719 866.0469,546.4063 Q865.7813,546.6406 865.1719,546.6406 L863.4531,546.6406 Z " fill="#000000"/><text fill="#000000" font-family="sans-serif" font-size="14" font-style="italic" lengthAdjust="spacing" textLength="65" x="876.5" y="555.7285">Applicable</text><line style="stroke:#181818;stroke-width:0.5;" x1="848.5" x2="943.5" y1="566" y2="566"/><line style="stroke:#181818;stroke-width:0.5;" x1="848.5" x2="943.5" y1="574" y2="574"/></g><!--class Exercise--><g id="elem_Exercise"><rect codeLine="51" fill="#F1F1F1" height="65.6094" id="Exercise" rx="2.5" ry="2.5" style="stroke:#181818;stroke-width:0.5;" width="137" x="394.5" y="677.5"/><ellipse cx="432.9" cy="693.5" fill="#A9DCDF" rx="11" ry="11" style="stroke:#181818;stroke-width:1.0;"/><path d="M435.0875,695.2656 L430.9469,695.2656 L430.525,696.2969 L430.9469,696.2969 Q431.5563,696.2969 431.8219,696.5313 Q432.0875,696.7656 432.0875,697.1563 Q432.0875,697.5313 431.8219,697.7656 Q431.5563,698 430.9469,698 L428.65,698 Q428.0406,698 427.7906,697.7656 Q427.525,697.5313 427.525,697.1406 Q427.525,696.7656 427.8063,696.5313 Q428.0719,696.2813 428.6969,696.2969 L431.3688,689.6406 L430.2594,689.6406 Q429.65,689.6406 429.3844,689.4063 Q429.1188,689.1719 429.1188,688.7813 Q429.1188,688.4063 429.3844,688.1719 Q429.65,687.9375 430.2594,687.9375 L433.9313,687.9375 L437.3219,696.2969 Q437.9156,696.2969 438.1031,696.4375 Q438.4938,696.7031 438.4938,697.1563 Q438.4938,697.5313 438.2281,697.7656 Q437.9781,698 437.3688,698 L435.0719,698 Q434.4625,698 434.1969,697.7656 Q433.9313,697.5313 433.9313,697.1406 Q433.9313,696.7656 434.1969,696.5313 Q434.4625,696.2969 435.0719,696.2969 L435.4938,696.2969 L435.0875,695.2656 Z M434.3688,693.5625 L433.0094,690.1875 L431.6344,693.5625 L434.3688,693.5625 Z " fill="#000000"/><text fill="#000000" font-family="sans-serif" font-size="14" font-style="italic" lengthAdjust="spacing" textLength="53" x="452.1" y="699.2285">Exercise</text><line style="stroke:#181818;stroke-width:0.5;" x1="395.5" x2="530.5" y1="709.5" y2="709.5"/><rect fill="none" height="6" style="stroke:#C82930;stroke-width:1.0;" width="6" x="402.5" y="720.8047"/><text fill="#000000" font-family="sans-serif" font-size="14" lengthAdjust="spacing" textLength="111" x="414.5" y="728.0332">statement : String</text><line style="stroke:#181818;stroke-width:0.5;" x1="395.5" x2="530.5" y1="735.1094" y2="735.1094"/></g><!--class MultipleChoice--><g id="elem_MultipleChoice"><rect codeLine="67" fill="#F1F1F1" height="48" id="MultipleChoice" rx="2.5" ry="2.5" style="stroke:#181818;stroke-width:0.5;" width="124" x="984" y="1019"/><ellipse cx="999" cy="1035" fill="#ADD1B2" rx="11" ry="11" style="stroke:#181818;stroke-width:1.0;"/><path d="M1001.7656,1030.875 Q1001.9219,1030.6563 1002.1094,1030.5469 Q1002.2969,1030.4375 1002.5156,1030.4375 Q1002.8906,1030.4375 1003.125,1030.7031 Q1003.3594,1030.9531 1003.3594,1031.5625 L1003.3594,1033.0156 Q1003.3594,1033.625 1003.125,1033.8906 Q1002.8906,1034.1563 1002.5156,1034.1563 Q1002.1719,1034.1563 1001.9688,1033.9531 Q1001.7656,1033.7656 1001.6563,1033.25 Q1001.6094,1032.8906 1001.4219,1032.7031 Q1001.0938,1032.3281 1000.4844,1032.1094 Q999.875,1031.8906 999.25,1031.8906 Q998.4844,1031.8906 997.8438,1032.2188 Q997.2188,1032.5469 996.7188,1033.2969 Q996.2344,1034.0469 996.2344,1035.0781 L996.2344,1036.1719 Q996.2344,1037.4063 997.125,1038.2344 Q998.0156,1039.0469 999.6094,1039.0469 Q1000.5469,1039.0469 1001.2031,1038.7969 Q1001.5938,1038.6406 1002.0156,1038.2031 Q1002.2813,1037.9375 1002.4219,1037.8594 Q1002.5781,1037.7813 1002.7813,1037.7813 Q1003.1094,1037.7813 1003.3594,1038.0469 Q1003.625,1038.2969 1003.625,1038.6406 Q1003.625,1038.9844 1003.2813,1039.3906 Q1002.7813,1039.9688 1001.9844,1040.2969 Q1000.9063,1040.75 999.6094,1040.75 Q998.0938,1040.75 996.8906,1040.125 Q995.9063,1039.625 995.2188,1038.5625 Q994.5313,1037.4844 994.5313,1036.2031 L994.5313,1035.0469 Q994.5313,1033.7188 995.1406,1032.5781 Q995.7656,1031.4219 996.8594,1030.8125 Q997.9531,1030.1875 999.1875,1030.1875 Q999.9219,1030.1875 1000.5625,1030.3594 Q1001.2188,1030.5156 1001.7656,1030.875 Z " fill="#000000"/><text fill="#000000" font-family="sans-serif" font-size="14" lengthAdjust="spacing" textLength="92" x="1013" y="1040.7285">MultipleChoice</text><line style="stroke:#181818;stroke-width:0.5;" x1="985" x2="1107" y1="1051" y2="1051"/><line style="stroke:#181818;stroke-width:0.5;" x1="985" x2="1107" y1="1059" y2="1059"/></g><!--class Cloze--><g id="elem_Cloze"><rect codeLine="63" fill="#F1F1F1" height="65.6094" id="Cloze" rx="2.5" ry="2.5" style="stroke:#181818;stroke-width:0.5;" width="107" x="1143.5" y="1010"/><ellipse cx="1176.5" cy="1026" fill="#ADD1B2" rx="11" ry="11" style="stroke:#181818;stroke-width:1.0;"/><path d="M1179.2656,1021.875 Q1179.4219,1021.6563 1179.6094,1021.5469 Q1179.7969,1021.4375 1180.0156,1021.4375 Q1180.3906,1021.4375 1180.625,1021.7031 Q1180.8594,1021.9531 1180.8594,1022.5625 L1180.8594,1024.0156 Q1180.8594,1024.625 1180.625,1024.8906 Q1180.3906,1025.1563 1180.0156,1025.1563 Q1179.6719,1025.1563 1179.4688,1024.9531 Q1179.2656,1024.7656 1179.1563,1024.25 Q1179.1094,1023.8906 1178.9219,1023.7031 Q1178.5938,1023.3281 1177.9844,1023.1094 Q1177.375,1022.8906 1176.75,1022.8906 Q1175.9844,1022.8906 1175.3438,1023.2188 Q1174.7188,1023.5469 1174.2188,1024.2969 Q1173.7344,1025.0469 1173.7344,1026.0781 L1173.7344,1027.1719 Q1173.7344,1028.4063 1174.625,1029.2344 Q1175.5156,1030.0469 1177.1094,1030.0469 Q1178.0469,1030.0469 1178.7031,1029.7969 Q1179.0938,1029.6406 1179.5156,1029.2031 Q1179.7813,1028.9375 1179.9219,1028.8594 Q1180.0781,1028.7813 1180.2813,1028.7813 Q1180.6094,1028.7813 1180.8594,1029.0469 Q1181.125,1029.2969 1181.125,1029.6406 Q1181.125,1029.9844 1180.7813,1030.3906 Q1180.2813,1030.9688 1179.4844,1031.2969 Q1178.4063,1031.75 1177.1094,1031.75 Q1175.5938,1031.75 1174.3906,1031.125 Q1173.4063,1030.625 1172.7188,1029.5625 Q1172.0313,1028.4844 1172.0313,1027.2031 L1172.0313,1026.0469 Q1172.0313,1024.7188 1172.6406,1023.5781 Q1173.2656,1022.4219 1174.3594,1021.8125 Q1175.4531,1021.1875 1176.6875,1021.1875 Q1177.4219,1021.1875 1178.0625,1021.3594 Q1178.7188,1021.5156 1179.2656,1021.875 Z " fill="#000000"/><text fill="#000000" font-family="sans-serif" font-size="14" lengthAdjust="spacing" textLength="35" x="1194.5" y="1031.7285">Cloze</text><line style="stroke:#181818;stroke-width:0.5;" x1="1144.5" x2="1249.5" y1="1042" y2="1042"/><text fill="#000000" font-family="sans-serif" font-size="14" lengthAdjust="spacing" textLength="95" x="1149.5" y="1060.5332">blankCount: int</text><line style="stroke:#181818;stroke-width:0.5;" x1="1144.5" x2="1249.5" y1="1067.6094" y2="1067.6094"/></g><!--class Open--><g id="elem_Open"><rect fill="#F1F1F1" height="48" id="Open" rx="2.5" ry="2.5" style="stroke:#181818;stroke-width:0.5;" width="67" x="881.5" y="1019"/><ellipse cx="896.5" cy="1035" fill="#ADD1B2" rx="11" ry="11" style="stroke:#181818;stroke-width:1.0;"/><path d="M899.2656,1030.875 Q899.4219,1030.6563 899.6094,1030.5469 Q899.7969,1030.4375 900.0156,1030.4375 Q900.3906,1030.4375 900.625,1030.7031 Q900.8594,1030.9531 900.8594,1031.5625 L900.8594,1033.0156 Q900.8594,1033.625 900.625,1033.8906 Q900.3906,1034.1563 900.0156,1034.1563 Q899.6719,1034.1563 899.4688,1033.9531 Q899.2656,1033.7656 899.1563,1033.25 Q899.1094,1032.8906 898.9219,1032.7031 Q898.5938,1032.3281 897.9844,1032.1094 Q897.375,1031.8906 896.75,1031.8906 Q895.9844,1031.8906 895.3438,1032.2188 Q894.7188,1032.5469 894.2188,1033.2969 Q893.7344,1034.0469 893.7344,1035.0781 L893.7344,1036.1719 Q893.7344,1037.4063 894.625,1038.2344 Q895.5156,1039.0469 897.1094,1039.0469 Q898.0469,1039.0469 898.7031,1038.7969 Q899.0938,1038.6406 899.5156,1038.2031 Q899.7813,1037.9375 899.9219,1037.8594 Q900.0781,1037.7813 900.2813,1037.7813 Q900.6094,1037.7813 900.8594,1038.0469 Q901.125,1038.2969 901.125,1038.6406 Q901.125,1038.9844 900.7813,1039.3906 Q900.2813,1039.9688 899.4844,1040.2969 Q898.4063,1040.75 897.1094,1040.75 Q895.5938,1040.75 894.3906,1040.125 Q893.4063,1039.625 892.7188,1038.5625 Q892.0313,1037.4844 892.0313,1036.2031 L892.0313,1035.0469 Q892.0313,1033.7188 892.6406,1032.5781 Q893.2656,1031.4219 894.3594,1030.8125 Q895.4531,1030.1875 896.6875,1030.1875 Q897.4219,1030.1875 898.0625,1030.3594 Q898.7188,1030.5156 899.2656,1030.875 Z " fill="#000000"/><text fill="#000000" font-family="sans-serif" font-size="14" lengthAdjust="spacing" textLength="35" x="910.5" y="1040.7285">Open</text><line style="stroke:#181818;stroke-width:0.5;" x1="882.5" x2="947.5" y1="1051" y2="1051"/><line style="stroke:#181818;stroke-width:0.5;" x1="882.5" x2="947.5" y1="1059" y2="1059"/></g><!--class Validatable--><g id="elem_Validatable"><rect codeLine="75" fill="#F1F1F1" height="65.6094" id="Validatable" rx="2.5" ry="2.5" style="stroke:#181818;stroke-width:0.5;" width="133" x="551.5" y="525"/><ellipse cx="580.45" cy="541" fill="#B4A7E5" rx="11" ry="11" style="stroke:#181818;stroke-width:1.0;"/><path d="M581.4031,537.6406 L581.4031,544.2969 L583.1219,544.2969 Q583.7313,544.2969 583.9969,544.5313 Q584.2625,544.7656 584.2625,545.1563 Q584.2625,545.5313 583.9969,545.7656 Q583.7313,546 583.1219,546 L577.9813,546 Q577.3719,546 577.1063,545.7656 Q576.8406,545.5313 576.8406,545.1406 Q576.8406,544.7656 577.1063,544.5313 Q577.3719,544.2969 577.9813,544.2969 L579.7,544.2969 L579.7,537.6406 L577.9813,537.6406 Q577.3719,537.6406 577.1063,537.4063 Q576.8406,537.1719 576.8406,536.7813 Q576.8406,536.4063 577.1063,536.1719 Q577.3719,535.9375 577.9813,535.9375 L583.1219,535.9375 Q583.7313,535.9375 583.9969,536.1719 Q584.2625,536.4063 584.2625,536.7813 Q584.2625,537.1719 583.9969,537.4063 Q583.7313,537.6406 583.1219,537.6406 L581.4031,537.6406 Z " fill="#000000"/><text fill="#000000" font-family="sans-serif" font-size="14" font-style="italic" lengthAdjust="spacing" textLength="70" x="597.55" y="546.7285">Validatable</text><line style="stroke:#181818;stroke-width:0.5;" x1="552.5" x2="683.5" y1="557" y2="557"/><rect fill="none" height="6" style="stroke:#C82930;stroke-width:1.0;" width="6" x="559.5" y="568.3047"/><text fill="#000000" font-family="sans-serif" font-size="14" lengthAdjust="spacing" textLength="107" x="571.5" y="575.5332">correct : boolean</text><line style="stroke:#181818;stroke-width:0.5;" x1="552.5" x2="683.5" y1="582.6094" y2="582.6094"/></g><!--class CompositeTopic--><g id="elem_CompositeTopic"><rect codeLine="97" fill="#F1F1F1" height="48" id="CompositeTopic" rx="2.5" ry="2.5" style="stroke:#181818;stroke-width:0.5;" width="134" x="359" y="416"/><ellipse cx="374" cy="432" fill="#ADD1B2" rx="11" ry="11" style="stroke:#181818;stroke-width:1.0;"/><path d="M376.7656,427.875 Q376.9219,427.6563 377.1094,427.5469 Q377.2969,427.4375 377.5156,427.4375 Q377.8906,427.4375 378.125,427.7031 Q378.3594,427.9531 378.3594,428.5625 L378.3594,430.0156 Q378.3594,430.625 378.125,430.8906 Q377.8906,431.1563 377.5156,431.1563 Q377.1719,431.1563 376.9688,430.9531 Q376.7656,430.7656 376.6563,430.25 Q376.6094,429.8906 376.4219,429.7031 Q376.0938,429.3281 375.4844,429.1094 Q374.875,428.8906 374.25,428.8906 Q373.4844,428.8906 372.8438,429.2188 Q372.2188,429.5469 371.7188,430.2969 Q371.2344,431.0469 371.2344,432.0781 L371.2344,433.1719 Q371.2344,434.4063 372.125,435.2344 Q373.0156,436.0469 374.6094,436.0469 Q375.5469,436.0469 376.2031,435.7969 Q376.5938,435.6406 377.0156,435.2031 Q377.2813,434.9375 377.4219,434.8594 Q377.5781,434.7813 377.7813,434.7813 Q378.1094,434.7813 378.3594,435.0469 Q378.625,435.2969 378.625,435.6406 Q378.625,435.9844 378.2813,436.3906 Q377.7813,436.9688 376.9844,437.2969 Q375.9063,437.75 374.6094,437.75 Q373.0938,437.75 371.8906,437.125 Q370.9063,436.625 370.2188,435.5625 Q369.5313,434.4844 369.5313,433.2031 L369.5313,432.0469 Q369.5313,430.7188 370.1406,429.5781 Q370.7656,428.4219 371.8594,427.8125 Q372.9531,427.1875 374.1875,427.1875 Q374.9219,427.1875 375.5625,427.3594 Q376.2188,427.5156 376.7656,427.875 Z " fill="#000000"/><text fill="#000000" font-family="sans-serif" font-size="14" lengthAdjust="spacing" textLength="102" x="388" y="437.7285">CompositeTopic</text><line style="stroke:#181818;stroke-width:0.5;" x1="360" x2="492" y1="448" y2="448"/><line style="stroke:#181818;stroke-width:0.5;" x1="360" x2="492" y1="456" y2="456"/></g><!--class SimpleTopic--><g id="elem_SimpleTopic"><rect codeLine="93" fill="#F1F1F1" height="48" id="SimpleTopic" rx="2.5" ry="2.5" style="stroke:#181818;stroke-width:0.5;" width="109" x="214.5" y="416"/><ellipse cx="229.5" cy="432" fill="#ADD1B2" rx="11" ry="11" style="stroke:#181818;stroke-width:1.0;"/><path d="M232.2656,427.875 Q232.4219,427.6563 232.6094,427.5469 Q232.7969,427.4375 233.0156,427.4375 Q233.3906,427.4375 233.625,427.7031 Q233.8594,427.9531 233.8594,428.5625 L233.8594,430.0156 Q233.8594,430.625 233.625,430.8906 Q233.3906,431.1563 233.0156,431.1563 Q232.6719,431.1563 232.4688,430.9531 Q232.2656,430.7656 232.1563,430.25 Q232.1094,429.8906 231.9219,429.7031 Q231.5938,429.3281 230.9844,429.1094 Q230.375,428.8906 229.75,428.8906 Q228.9844,428.8906 228.3438,429.2188 Q227.7188,429.5469 227.2188,430.2969 Q226.7344,431.0469 226.7344,432.0781 L226.7344,433.1719 Q226.7344,434.4063 227.625,435.2344 Q228.5156,436.0469 230.1094,436.0469 Q231.0469,436.0469 231.7031,435.7969 Q232.0938,435.6406 232.5156,435.2031 Q232.7813,434.9375 232.9219,434.8594 Q233.0781,434.7813 233.2813,434.7813 Q233.6094,434.7813 233.8594,435.0469 Q234.125,435.2969 234.125,435.6406 Q234.125,435.9844 233.7813,436.3906 Q233.2813,436.9688 232.4844,437.2969 Q231.4063,437.75 230.1094,437.75 Q228.5938,437.75 227.3906,437.125 Q226.4063,436.625 225.7188,435.5625 Q225.0313,434.4844 225.0313,433.2031 L225.0313,432.0469 Q225.0313,430.7188 225.6406,429.5781 Q226.2656,428.4219 227.3594,427.8125 Q228.4531,427.1875 229.6875,427.1875 Q230.4219,427.1875 231.0625,427.3594 Q231.7188,427.5156 232.2656,427.875 Z " fill="#000000"/><text fill="#000000" font-family="sans-serif" font-size="14" lengthAdjust="spacing" textLength="77" x="243.5" y="437.7285">SimpleTopic</text><line style="stroke:#181818;stroke-width:0.5;" x1="215.5" x2="322.5" y1="448" y2="448"/><line style="stroke:#181818;stroke-width:0.5;" x1="215.5" x2="322.5" y1="456" y2="456"/></g><!--class Attachment--><g id="elem_Attachment"><rect codeLine="89" fill="#F1F1F1" height="48" id="Attachment" rx="2.5" ry="2.5" style="stroke:#181818;stroke-width:0.5;" width="103" x="7.5" y="686.5"/><ellipse cx="22.5" cy="702.5" fill="#ADD1B2" rx="11" ry="11" style="stroke:#181818;stroke-width:1.0;"/><path d="M25.2656,698.375 Q25.4219,698.1563 25.6094,698.0469 Q25.7969,697.9375 26.0156,697.9375 Q26.3906,697.9375 26.625,698.2031 Q26.8594,698.4531 26.8594,699.0625 L26.8594,700.5156 Q26.8594,701.125 26.625,701.3906 Q26.3906,701.6563 26.0156,701.6563 Q25.6719,701.6563 25.4688,701.4531 Q25.2656,701.2656 25.1563,700.75 Q25.1094,700.3906 24.9219,700.2031 Q24.5938,699.8281 23.9844,699.6094 Q23.375,699.3906 22.75,699.3906 Q21.9844,699.3906 21.3438,699.7188 Q20.7188,700.0469 20.2188,700.7969 Q19.7344,701.5469 19.7344,702.5781 L19.7344,703.6719 Q19.7344,704.9063 20.625,705.7344 Q21.5156,706.5469 23.1094,706.5469 Q24.0469,706.5469 24.7031,706.2969 Q25.0938,706.1406 25.5156,705.7031 Q25.7813,705.4375 25.9219,705.3594 Q26.0781,705.2813 26.2813,705.2813 Q26.6094,705.2813 26.8594,705.5469 Q27.125,705.7969 27.125,706.1406 Q27.125,706.4844 26.7813,706.8906 Q26.2813,707.4688 25.4844,707.7969 Q24.4063,708.25 23.1094,708.25 Q21.5938,708.25 20.3906,707.625 Q19.4063,707.125 18.7188,706.0625 Q18.0313,704.9844 18.0313,703.7031 L18.0313,702.5469 Q18.0313,701.2188 18.6406,700.0781 Q19.2656,698.9219 20.3594,698.3125 Q21.4531,697.6875 22.6875,697.6875 Q23.4219,697.6875 24.0625,697.8594 Q24.7188,698.0156 25.2656,698.375 Z " fill="#000000"/><text fill="#000000" font-family="sans-serif" font-size="14" lengthAdjust="spacing" textLength="71" x="36.5" y="708.2285">Attachment</text><line style="stroke:#181818;stroke-width:0.5;" x1="8.5" x2="109.5" y1="718.5" y2="718.5"/><line style="stroke:#181818;stroke-width:0.5;" x1="8.5" x2="109.5" y1="726.5" y2="726.5"/></g><!--class Document--><g id="elem_Document"><rect codeLine="101" fill="#F1F1F1" height="48" id="Document" rx="2.5" ry="2.5" style="stroke:#181818;stroke-width:0.5;" width="96" x="7" y="857"/><ellipse cx="22" cy="873" fill="#ADD1B2" rx="11" ry="11" style="stroke:#181818;stroke-width:1.0;"/><path d="M24.7656,868.875 Q24.9219,868.6563 25.1094,868.5469 Q25.2969,868.4375 25.5156,868.4375 Q25.8906,868.4375 26.125,868.7031 Q26.3594,868.9531 26.3594,869.5625 L26.3594,871.0156 Q26.3594,871.625 26.125,871.8906 Q25.8906,872.1563 25.5156,872.1563 Q25.1719,872.1563 24.9688,871.9531 Q24.7656,871.7656 24.6563,871.25 Q24.6094,870.8906 24.4219,870.7031 Q24.0938,870.3281 23.4844,870.1094 Q22.875,869.8906 22.25,869.8906 Q21.4844,869.8906 20.8438,870.2188 Q20.2188,870.5469 19.7188,871.2969 Q19.2344,872.0469 19.2344,873.0781 L19.2344,874.1719 Q19.2344,875.4063 20.125,876.2344 Q21.0156,877.0469 22.6094,877.0469 Q23.5469,877.0469 24.2031,876.7969 Q24.5938,876.6406 25.0156,876.2031 Q25.2813,875.9375 25.4219,875.8594 Q25.5781,875.7813 25.7813,875.7813 Q26.1094,875.7813 26.3594,876.0469 Q26.625,876.2969 26.625,876.6406 Q26.625,876.9844 26.2813,877.3906 Q25.7813,877.9688 24.9844,878.2969 Q23.9063,878.75 22.6094,878.75 Q21.0938,878.75 19.8906,878.125 Q18.9063,877.625 18.2188,876.5625 Q17.5313,875.4844 17.5313,874.2031 L17.5313,873.0469 Q17.5313,871.7188 18.1406,870.5781 Q18.7656,869.4219 19.8594,868.8125 Q20.9531,868.1875 22.1875,868.1875 Q22.9219,868.1875 23.5625,868.3594 Q24.2188,868.5156 24.7656,868.875 Z " fill="#000000"/><text fill="#000000" font-family="sans-serif" font-size="14" lengthAdjust="spacing" textLength="64" x="36" y="878.7285">Document</text><line style="stroke:#181818;stroke-width:0.5;" x1="8" x2="102" y1="889" y2="889"/><line style="stroke:#181818;stroke-width:0.5;" x1="8" x2="102" y1="897" y2="897"/></g><!--class Concept--><g id="elem_Concept"><rect codeLine="103" fill="#F1F1F1" height="48" id="Concept" rx="2.5" ry="2.5" style="stroke:#181818;stroke-width:0.5;" width="85" x="226.5" y="534"/><ellipse cx="241.5" cy="550" fill="#ADD1B2" rx="11" ry="11" style="stroke:#181818;stroke-width:1.0;"/><path d="M244.2656,545.875 Q244.4219,545.6563 244.6094,545.5469 Q244.7969,545.4375 245.0156,545.4375 Q245.3906,545.4375 245.625,545.7031 Q245.8594,545.9531 245.8594,546.5625 L245.8594,548.0156 Q245.8594,548.625 245.625,548.8906 Q245.3906,549.1563 245.0156,549.1563 Q244.6719,549.1563 244.4688,548.9531 Q244.2656,548.7656 244.1563,548.25 Q244.1094,547.8906 243.9219,547.7031 Q243.5938,547.3281 242.9844,547.1094 Q242.375,546.8906 241.75,546.8906 Q240.9844,546.8906 240.3438,547.2188 Q239.7188,547.5469 239.2188,548.2969 Q238.7344,549.0469 238.7344,550.0781 L238.7344,551.1719 Q238.7344,552.4063 239.625,553.2344 Q240.5156,554.0469 242.1094,554.0469 Q243.0469,554.0469 243.7031,553.7969 Q244.0938,553.6406 244.5156,553.2031 Q244.7813,552.9375 244.9219,552.8594 Q245.0781,552.7813 245.2813,552.7813 Q245.6094,552.7813 245.8594,553.0469 Q246.125,553.2969 246.125,553.6406 Q246.125,553.9844 245.7813,554.3906 Q245.2813,554.9688 244.4844,555.2969 Q243.4063,555.75 242.1094,555.75 Q240.5938,555.75 239.3906,555.125 Q238.4063,554.625 237.7188,553.5625 Q237.0313,552.4844 237.0313,551.2031 L237.0313,550.0469 Q237.0313,548.7188 237.6406,547.5781 Q238.2656,546.4219 239.3594,545.8125 Q240.4531,545.1875 241.6875,545.1875 Q242.4219,545.1875 243.0625,545.3594 Q243.7188,545.5156 244.2656,545.875 Z " fill="#000000"/><text fill="#000000" font-family="sans-serif" font-size="14" lengthAdjust="spacing" textLength="53" x="255.5" y="555.7285">Concept</text><line style="stroke:#181818;stroke-width:0.5;" x1="227.5" x2="310.5" y1="566" y2="566"/><line style="stroke:#181818;stroke-width:0.5;" x1="227.5" x2="310.5" y1="574" y2="574"/></g><!--class Relation--><g id="elem_Relation"><rect codeLine="111" fill="#F1F1F1" height="48" id="Relation" rx="2.5" ry="2.5" style="stroke:#181818;stroke-width:0.5;" width="84" x="149" y="686.5"/><ellipse cx="164" cy="702.5" fill="#ADD1B2" rx="11" ry="11" style="stroke:#181818;stroke-width:1.0;"/><path d="M166.7656,698.375 Q166.9219,698.1563 167.1094,698.0469 Q167.2969,697.9375 167.5156,697.9375 Q167.8906,697.9375 168.125,698.2031 Q168.3594,698.4531 168.3594,699.0625 L168.3594,700.5156 Q168.3594,701.125 168.125,701.3906 Q167.8906,701.6563 167.5156,701.6563 Q167.1719,701.6563 166.9688,701.4531 Q166.7656,701.2656 166.6563,700.75 Q166.6094,700.3906 166.4219,700.2031 Q166.0938,699.8281 165.4844,699.6094 Q164.875,699.3906 164.25,699.3906 Q163.4844,699.3906 162.8438,699.7188 Q162.2188,700.0469 161.7188,700.7969 Q161.2344,701.5469 161.2344,702.5781 L161.2344,703.6719 Q161.2344,704.9063 162.125,705.7344 Q163.0156,706.5469 164.6094,706.5469 Q165.5469,706.5469 166.2031,706.2969 Q166.5938,706.1406 167.0156,705.7031 Q167.2813,705.4375 167.4219,705.3594 Q167.5781,705.2813 167.7813,705.2813 Q168.1094,705.2813 168.3594,705.5469 Q168.625,705.7969 168.625,706.1406 Q168.625,706.4844 168.2813,706.8906 Q167.7813,707.4688 166.9844,707.7969 Q165.9063,708.25 164.6094,708.25 Q163.0938,708.25 161.8906,707.625 Q160.9063,707.125 160.2188,706.0625 Q159.5313,704.9844 159.5313,703.7031 L159.5313,702.5469 Q159.5313,701.2188 160.1406,700.0781 Q160.7656,698.9219 161.8594,698.3125 Q162.9531,697.6875 164.1875,697.6875 Q164.9219,697.6875 165.5625,697.8594 Q166.2188,698.0156 166.7656,698.375 Z " fill="#000000"/><text fill="#000000" font-family="sans-serif" font-size="14" lengthAdjust="spacing" textLength="52" x="178" y="708.2285">Relation</text><line style="stroke:#181818;stroke-width:0.5;" x1="150" x2="232" y1="718.5" y2="718.5"/><line style="stroke:#181818;stroke-width:0.5;" x1="150" x2="232" y1="726.5" y2="726.5"/></g><!--class RelationType--><g id="elem_RelationType"><rect codeLine="116" fill="#F1F1F1" height="136.0469" id="RelationType" rx="2.5" ry="2.5" style="stroke:#181818;stroke-width:0.5;" width="116" x="138" y="813"/><ellipse cx="153" cy="829" fill="#EB937F" rx="11" ry="11" style="stroke:#181818;stroke-width:1.0;"/><path d="M151.8594,829.7969 L151.8594,832.2969 L156.1875,832.2969 L156.1875,831.375 Q156.1875,830.7656 156.4219,830.5 Q156.6719,830.2344 157.0469,830.2344 Q157.4219,830.2344 157.6563,830.5 Q157.8906,830.7656 157.8906,831.375 L157.8906,834 L149.8906,834 Q149.2656,834 149,833.7656 Q148.75,833.5313 148.75,833.1406 Q148.75,832.7656 149.0156,832.5313 Q149.2813,832.2969 149.8906,832.2969 L150.1563,832.2969 L150.1563,825.6406 L149.8906,825.6406 Q149.2656,825.6406 149,825.4063 Q148.75,825.1719 148.75,824.7813 Q148.75,824.4063 149,824.1719 Q149.2656,823.9375 149.8906,823.9375 L157.5156,823.9375 L157.5156,826.5313 Q157.5156,827.1406 157.2813,827.4063 Q157.0625,827.6563 156.6719,827.6563 Q156.2969,827.6563 156.0625,827.4063 Q155.8281,827.1406 155.8281,826.5313 L155.8281,825.6406 L151.8594,825.6406 L151.8594,828.0938 L153.3438,828.0938 Q153.3438,827.4375 153.4688,827.25 Q153.7344,826.8438 154.2031,826.8438 Q154.5781,826.8438 154.8125,827.1094 Q155.0469,827.3594 155.0469,827.9688 L155.0469,829.9375 Q155.0469,830.4844 154.9219,830.6719 Q154.6563,831.0625 154.2031,831.0625 Q153.7344,831.0625 153.4688,830.6563 Q153.3438,830.4688 153.3438,829.7969 L151.8594,829.7969 Z " fill="#000000"/><text fill="#000000" font-family="sans-serif" font-size="14" lengthAdjust="spacing" textLength="84" x="167" y="834.7285">RelationType</text><line style="stroke:#181818;stroke-width:0.5;" x1="139" x2="253" y1="845" y2="845"/><text fill="#000000" font-family="sans-serif" font-size="14" lengthAdjust="spacing" textLength="24" x="144" y="863.5332">Use</text><text fill="#000000" font-family="sans-serif" font-size="14" lengthAdjust="spacing" textLength="72" x="144" y="881.1426">Association</text><text fill="#000000" font-family="sans-serif" font-size="14" lengthAdjust="spacing" textLength="78" x="144" y="898.752">Composition</text><text fill="#000000" font-family="sans-serif" font-size="14" lengthAdjust="spacing" textLength="70" x="144" y="916.3613">Inheritance</text><text fill="#000000" font-family="sans-serif" font-size="14" lengthAdjust="spacing" textLength="77" x="144" y="933.9707">Aggregation</text><line style="stroke:#181818;stroke-width:0.5;" x1="139" x2="253" y1="941.0469" y2="941.0469"/></g><!--link EducationPlatform to User--><g id="link_EducationPlatform_User"><path codeLine="2" d="M564.082,66.8715 C576.562,138.4215 611.469,338.4892 623.949,410.0392 " fill="none" id="EducationPlatform-User" style="stroke:#181818;stroke-width:1.0;"/><polygon fill="#181818" points="562.02,55.05,559.1105,61.6481,564.082,66.8715,566.9915,60.2734,562.02,55.05" style="stroke:#181818;stroke-width:1.0;"/><polygon fill="#181818" points="624.98,415.95,627.374,406.3965,624.1209,411.0244,619.493,407.7712,624.98,415.95" style="stroke:#181818;stroke-width:1.0;"/><text fill="#000000" font-family="sans-serif" font-size="13" lengthAdjust="spacing" textLength="8" x="614.9249" y="405.2773">+</text></g><!--link EducationPlatform to Topic--><g id="link_EducationPlatform_Topic"><path codeLine="3" d="M548.6516,66.5863 C544.6716,80.6463 542.33,87.33 536,103 C508.45,171.2 470.6483,241.8531 447.2583,283.6831 " fill="none" id="EducationPlatform-Topic" style="stroke:#181818;stroke-width:1.0;"/><polygon fill="#181818" points="551.92,55.04,546.437,59.7237,548.6516,66.5863,554.1345,61.9026,551.92,55.04" style="stroke:#181818;stroke-width:1.0;"/><polygon fill="#181818" points="444.33,288.92,452.2137,283.0169,446.7703,284.5559,445.2312,279.1125,444.33,288.92" style="stroke:#181818;stroke-width:1.0;"/></g><!--link EducationPlatform to Itinerary--><g id="link_EducationPlatform_Itinerary"><path codeLine="4" d="M501.0411,61.1885 C487.0911,69.4385 482.73,73.47 471,85 C456.84,98.91 447.8585,112.7885 439.8885,127.6985 " fill="none" id="EducationPlatform-Itinerary" style="stroke:#181818;stroke-width:1.0;"/><polygon fill="#181818" points="511.37,55.08,504.1694,54.6913,501.0411,61.1885,508.2417,61.5772,511.37,55.08" style="stroke:#181818;stroke-width:1.0;"/><polygon fill="#181818" points="437.06,132.99,444.8304,126.9385,439.4171,128.5804,437.7751,123.1671,437.06,132.99" style="stroke:#181818;stroke-width:1.0;"/><text fill="#000000" font-family="sans-serif" font-size="13" lengthAdjust="spacing" textLength="59" x="472" y="99.4951">predefined</text></g><!--link EducationPlatform to Itinerary--><g id="link_EducationPlatform_Itinerary"><path codeLine="5" d="M472.7203,41.2936 C442.3703,48.0936 421.69,58.86 403,85 C392.83,99.23 396.6956,113.0535 405.5356,127.8035 " fill="none" id="EducationPlatform-Itinerary-1" style="stroke:#181818;stroke-width:1.0;"/><polygon fill="none" points="484.43,38.67,477.7006,36.0786,472.7203,41.2936,479.4497,43.885,484.43,38.67" style="stroke:#181818;stroke-width:1.0;"/><polygon fill="#181818" points="408.62,132.95,407.4244,123.174,406.0497,128.6613,400.5624,127.2865,408.62,132.95" style="stroke:#181818;stroke-width:1.0;"/><text fill="#000000" font-family="sans-serif" font-size="13" lengthAdjust="spacing" textLength="43" x="404" y="99.4951">custom</text><text fill="#000000" font-family="sans-serif" font-size="13" lengthAdjust="spacing" textLength="5" x="398.5258" y="122.2773">*</text></g><!--link EducationPlatform to Evaluator--><g id="link_EducationPlatform_Evaluator"><path codeLine="6" d="M612.0694,60.815 C685.0794,99.735 815.5749,169.2884 888.4449,208.1184 " fill="none" id="EducationPlatform-Evaluator" style="stroke:#181818;stroke-width:1.0;"/><polygon fill="#181818" points="601.48,55.17,604.893,61.5223,612.0694,60.815,608.6563,54.4627,601.48,55.17" style="stroke:#181818;stroke-width:1.0;"/><polygon fill="#181818" points="893.74,210.94,887.6784,203.1775,889.3274,208.5887,883.9162,210.2377,893.74,210.94" style="stroke:#181818;stroke-width:1.0;"/></g><!--reverse link User to Teacher--><g id="link_User_Teacher"><path codeLine="11" d="M583.5972,474.9829 C556.5572,495.2129 531.96,513.62 504.94,533.84 " fill="none" id="User-backto-Teacher" style="stroke:#181818;stroke-width:1.0;"/><polygon fill="none" points="598.01,464.2,580.0029,470.1787,587.1915,479.7872,598.01,464.2" style="stroke:#181818;stroke-width:1.0;"/></g><!--reverse link User to Student--><g id="link_User_Student"><path codeLine="12" d="M669.6439,475.929 C693.1939,496.159 713.52,513.62 737.05,533.84 " fill="none" id="User-backto-Student" style="stroke:#181818;stroke-width:1.0;"/><polygon fill="none" points="655.99,464.2,665.7342,480.4803,673.5536,471.3777,655.99,464.2" style="stroke:#181818;stroke-width:1.0;"/></g><!--link Student to Application--><g id="link_Student_Application"><path codeLine="19" d="M769.3971,594.0962 C771.1471,605.7162 771.42,608.15 773,621 C774.93,636.63 776.1596,647.8891 777.6496,662.9591 " fill="none" id="Student-Application" style="stroke:#FF0000;stroke-width:1.0;"/><polygon fill="#FF0000" points="767.61,582.23,764.5481,588.7588,769.3971,594.0962,772.4589,587.5674,767.61,582.23" style="stroke:#FF0000;stroke-width:1.0;"/><polygon fill="#FF0000" points="778.24,668.93,781.3351,659.5801,777.748,663.9543,773.3739,660.3672,778.24,668.93" style="stroke:#FF0000;stroke-width:1.0;"/><text fill="#000000" font-family="sans-serif" font-size="13" lengthAdjust="spacing" textLength="5" x="772.2032" y="658.2261">*</text></g><!--link Evaluator to Question--><g id="link_Evaluator_Question"><path codeLine="23" d="M971.18,259.07 C1005.39,285.21 1053,331.24 1053,385 C1053,385 1053,385 1053,711.5 C1053,763.87 1043.5988,818.7369 1037.1188,851.0769 " fill="none" id="Evaluator-to-Question" style="stroke:#181818;stroke-width:1.0;"/><polygon fill="#181818" points="1035.94,856.96,1041.6302,848.9213,1036.9223,852.0574,1033.7862,847.3495,1035.94,856.96" style="stroke:#181818;stroke-width:1.0;"/></g><!--link Itinerary to Topic--><g id="link_Itinerary_Topic"><path codeLine="27" d="M426,193.01 C426,221.18 426,251.05 426,282.85 " fill="none" id="Itinerary-Topic" style="stroke:#181818;stroke-width:1.0;"/><polygon fill="none" points="426,181.01,422,187.01,426,193.01,430,187.01,426,181.01" style="stroke:#181818;stroke-width:1.0;"/><polygon fill="#181818" points="426,288.85,430,279.85,426,283.85,422,279.85,426,288.85" style="stroke:#181818;stroke-width:1.0;"/><text fill="#000000" font-family="sans-serif" font-size="13" lengthAdjust="spacing" textLength="8" x="417.175" y="277.9345">+</text></g><!--reverse link Domain to Version--><g id="link_Domain_Version"><path codeLine="38" d="M546.7402,921.2682 C584.8402,949.0982 629.94,982.05 668.02,1009.87 " fill="none" id="Domain-backto-Version" style="stroke:#181818;stroke-width:1.0;"/><polygon fill="#181818" points="537.05,914.19,539.5357,920.9591,546.7402,921.2682,544.2545,914.499,537.05,914.19" style="stroke:#181818;stroke-width:1.0;"/><text fill="#000000" font-family="sans-serif" font-size="13" lengthAdjust="spacing" textLength="8" x="650.1241" y="998.9586">+</text></g><!--reverse link Applicable to Version--><g id="link_Applicable_Version"><path codeLine="42" d="M896.4693,600.2 C896.5293,637.08 893.93,692.94 875,752 C842.65,852.92 772.93,958.16 736.03,1009.68 " fill="none" id="Applicable-backto-Version" style="stroke:#181818;stroke-width:1.0;stroke-dasharray:7.0,7.0;"/><polygon fill="none" points="896.44,582.2,890.4693,600.2097,902.4693,600.1902,896.44,582.2" style="stroke:#181818;stroke-width:1.0;"/></g><!--reverse link Applicable to Question--><g id="link_Applicable_Question"><path codeLine="43" d="M923.4541,596.805 C931.3941,608.145 930.21,607.51 937,621 C978.82,704.11 1011.35,810.44 1024.57,856.73 " fill="none" id="Applicable-backto-Question" style="stroke:#181818;stroke-width:1.0;stroke-dasharray:7.0,7.0;"/><polygon fill="none" points="913.13,582.06,918.5391,600.2463,928.3691,593.3636,913.13,582.06" style="stroke:#181818;stroke-width:1.0;"/></g><!--link Applicable to Application--><g id="link_Applicable_Application"><path codeLine="44" d="M860.842,591.0639 C839.832,614.1439 823.424,636.2117 804.594,664.0217 " fill="none" id="Applicable-Application" style="stroke:#181818;stroke-width:1.0;"/><polygon fill="#181818" points="868.92,582.19,861.923,583.9343,860.842,591.0639,867.839,589.3196,868.92,582.19" style="stroke:#181818;stroke-width:1.0;"/><polygon fill="#181818" points="801.23,668.99,809.5881,663.7803,804.0333,664.8498,802.9638,659.295,801.23,668.99" style="stroke:#181818;stroke-width:1.0;"/><text fill="#000000" font-family="sans-serif" font-size="13" lengthAdjust="spacing" textLength="8" x="795.7525" y="658.296">+</text></g><!--link Applicable to Application--><g id="link_Applicable_Application"><path codeLine="45" d="M882.365,592.4972 C868.605,615.5772 852.1049,636.5906 828.6849,664.4006 " fill="none" id="Applicable-Application-1" style="stroke:#181818;stroke-width:1.0;"/><polygon fill="none" points="888.51,582.19,882.0017,585.2953,882.365,592.4972,888.8732,589.3919,888.51,582.19" style="stroke:#181818;stroke-width:1.0;"/><polygon fill="#181818" points="824.82,668.99,833.677,664.6825,828.0408,665.1655,827.5578,659.5293,824.82,668.99" style="stroke:#181818;stroke-width:1.0;"/><text fill="#000000" font-family="sans-serif" font-size="13" lengthAdjust="spacing" textLength="5" x="826.498" y="658.296">*</text></g><!--reverse link Exercise to Domain--><g id="link_Exercise_Domain"><path codeLine="54" d="M471.8642,761.3115 C477.1842,791.2015 481.93,817.8 487.26,847.74 " fill="none" id="Exercise-backto-Domain" style="stroke:#181818;stroke-width:1.0;"/><polygon fill="none" points="468.71,743.59,465.957,762.3629,477.7713,760.2601,468.71,743.59" style="stroke:#181818;stroke-width:1.0;"/></g><!--reverse link Exercise to Question--><g id="link_Exercise_Question"><path codeLine="55" d="M544.7597,750.8021 C551.6997,753.7821 542.18,749.51 549,752 C705.98,809.27 900.22,852.94 986.32,870.97 " fill="none" id="Exercise-backto-Question" style="stroke:#181818;stroke-width:1.0;"/><polygon fill="none" points="528.22,743.7,542.3923,756.3153,547.127,745.2888,528.22,743.7" style="stroke:#181818;stroke-width:1.0;"/></g><!--reverse link Question to MultipleChoice--><g id="link_Question_MultipleChoice"><path codeLine="59" d="M1034.859,923.1915 C1037.709,953.6115 1041,988.66 1043.84,1018.97 " fill="none" id="Question-backto-MultipleChoice" style="stroke:#181818;stroke-width:1.0;"/><polygon fill="none" points="1033.18,905.27,1028.8852,923.7512,1040.8329,922.6318,1033.18,905.27" style="stroke:#181818;stroke-width:1.0;"/></g><!--reverse link Question to Cloze--><g id="link_Question_Cloze"><path codeLine="60" d="M1068.0992,917.7623 C1096.6892,945.3223 1131.53,978.9 1163.65,1009.85 " fill="none" id="Question-backto-Cloze" style="stroke:#181818;stroke-width:1.0;"/><polygon fill="none" points="1055.14,905.27,1063.9351,922.0821,1072.2633,913.4426,1055.14,905.27" style="stroke:#181818;stroke-width:1.0;"/></g><!--reverse link Question to Open--><g id="link_Question_Open"><path codeLine="61" d="M1003.566,919.844 C981.516,950.264 953.67,988.66 931.7,1018.97 " fill="none" id="Question-backto-Open" style="stroke:#181818;stroke-width:1.0;"/><polygon fill="none" points="1014.13,905.27,998.708,916.3227,1008.424,923.3653,1014.13,905.27" style="stroke:#181818;stroke-width:1.0;"/></g><!--reverse link Validatable to Application--><g id="link_Validatable_Application"><path codeLine="78" d="M700.4663,595.8499 C717.1963,604.9899 718.43,607.65 732,621 C745.71,634.49 756.81,652.54 765.04,668.82 " fill="none" id="Validatable-backto-Application" style="stroke:#181818;stroke-width:1.0;stroke-dasharray:7.0,7.0;"/><polygon fill="none" points="684.67,587.22,697.5897,601.1154,703.343,590.5845,684.67,587.22" style="stroke:#181818;stroke-width:1.0;"/></g><!--reverse link Validatable to Definition--><g id="link_Validatable_Definition"><path codeLine="79" d="M534.7273,593.4382 C485.6373,614.3282 434.32,637.7 377,669 C367.41,674.23 357.34,680.39 348.12,686.31 " fill="none" id="Validatable-backto-Definition" style="stroke:#181818;stroke-width:1.0;stroke-dasharray:7.0,7.0;"/><polygon fill="none" points="551.29,586.39,532.3779,587.9173,537.0767,598.9591,551.29,586.39" style="stroke:#181818;stroke-width:1.0;"/></g><!--link Validatable to Justification--><g id="link_Validatable_Justification"><path codeLine="80" d="M612.3125,603.0418 C611.2125,612.6318 611.55,611.27 611,621 C609.75,643.18 611.5775,662.4723 614.1675,680.3023 " fill="none" id="Validatable-Justification" style="stroke:#181818;stroke-width:1.0;"/><polygon fill="#181818" points="613.68,591.12,609.0223,596.6251,612.3125,603.0418,616.9702,597.5367,613.68,591.12" style="stroke:#181818;stroke-width:1.0;"/><polygon fill="#181818" points="615.03,686.24,617.6947,676.7585,614.3112,681.2919,609.7778,677.9085,615.03,686.24" style="stroke:#181818;stroke-width:1.0;"/><text fill="#000000" font-family="sans-serif" font-size="13" lengthAdjust="spacing" textLength="115" x="612" y="635.4951">[!validatable.correct]</text><text fill="#000000" font-family="sans-serif" font-size="13" lengthAdjust="spacing" textLength="5" x="608.3721" y="675.5135">*</text></g><!--reverse link Topic to CompositeTopic--><g id="link_Topic_CompositeTopic"><path codeLine="85" d="M412.6708,372.9109 C410.7408,392.2309 412.91,398.48 415.58,415.93 " fill="none" id="Topic-backto-CompositeTopic" style="stroke:#181818;stroke-width:1.0;"/><polygon fill="none" points="414.46,355,406.7005,372.3144,418.6411,373.5073,414.46,355" style="stroke:#181818;stroke-width:1.0;"/></g><!--link CompositeTopic to Topic--><g id="link_CompositeTopic_Topic"><path codeLine="99" d="M438.951,404.0848 C441.781,386.6348 440.8931,380.2865 438.8431,360.9665 " fill="none" id="CompositeTopic-Topic" style="stroke:#181818;stroke-width:1.0;"/><polygon fill="none" points="437.03,415.93,441.9389,410.6477,438.951,404.0848,434.0421,409.367,437.03,415.93" style="stroke:#181818;stroke-width:1.0;"/><polygon fill="#181818" points="438.21,355,435.182,364.3718,438.7376,359.9721,443.1373,363.5277,438.21,355" style="stroke:#181818;stroke-width:1.0;"/><text fill="#000000" font-family="sans-serif" font-size="13" lengthAdjust="spacing" textLength="8" x="431.7237" y="376.1229">+</text></g><!--reverse link Topic to SimpleTopic--><g id="link_Topic_SimpleTopic"><path codeLine="86" d="M368.2046,365.6987 C342.0646,385.0187 323.84,398.48 300.23,415.93 " fill="none" id="Topic-backto-SimpleTopic" style="stroke:#181818;stroke-width:1.0;"/><polygon fill="none" points="382.68,355,364.6384,360.8736,371.7708,370.5239,382.68,355" style="stroke:#181818;stroke-width:1.0;"/></g><!--link Topic to Attachment--><g id="link_Topic_Attachment"><path codeLine="87" d="M356.1004,336.9577 C305.4804,349.2777 244.65,370.84 197,416 C114.44,494.24 77.5845,625.8903 65.1445,680.4203 " fill="none" id="Topic-Attachment" style="stroke:#181818;stroke-width:1.0;"/><polygon fill="#181818" points="367.76,334.12,360.9843,331.6523,356.1004,336.9577,362.8761,339.4254,367.76,334.12" style="stroke:#181818;stroke-width:1.0;"/><polygon fill="#181818" points="63.81,686.27,69.7116,678.3851,64.9221,681.3952,61.9119,676.6058,63.81,686.27" style="stroke:#181818;stroke-width:1.0;"/><text fill="#000000" font-family="sans-serif" font-size="13" lengthAdjust="spacing" textLength="5" x="59.4019" y="675.5512">*</text></g><!--link Attachment to Document--><g id="link_Attachment_Document"><path codeLine="91" d="M58.1666,746.5767 C57.4066,778.7467 56.4517,818.7617 55.6917,850.9317 " fill="none" id="Attachment-Document" style="stroke:#FF0000;stroke-width:1.0;"/><polygon fill="#FF0000" points="58.45,734.58,54.3094,740.4839,58.1666,746.5767,62.3072,740.6728,58.45,734.58" style="stroke:#FF0000;stroke-width:1.0;"/><polygon fill="#FF0000" points="55.55,856.93,59.7614,848.027,55.6681,851.9314,51.7637,847.838,55.55,856.93" style="stroke:#FF0000;stroke-width:1.0;"/><text fill="#000000" font-family="sans-serif" font-size="13" lengthAdjust="spacing" textLength="8" x="46.6659" y="846.2522">+</text></g><!--link SimpleTopic to Concept--><g id="link_SimpleTopic_Concept"><path codeLine="95" d="M269,476.2 C269,496.43 269,507.62 269,527.84 " fill="none" id="SimpleTopic-Concept" style="stroke:#181818;stroke-width:1.0;"/><polygon fill="none" points="269,464.2,265,470.2,269,476.2,273,470.2,269,464.2" style="stroke:#181818;stroke-width:1.0;"/><polygon fill="#181818" points="269,533.84,273,524.84,269,528.84,265,524.84,269,533.84" style="stroke:#181818;stroke-width:1.0;"/><text fill="#000000" font-family="sans-serif" font-size="13" lengthAdjust="spacing" textLength="8" x="259.975" y="523.1392">+</text></g><!--link Concept to Definition--><g id="link_Concept_Definition"><path codeLine="105" d="M322.0784,582.9784 C340.1384,593.0584 348.85,601.68 359,621 C370.63,643.13 358.6429,664.1104 342.6029,682.0204 " fill="none" id="Concept-Definition" style="stroke:#181818;stroke-width:1.0;"/><polygon fill="#181818" points="311.6,577.13,314.8897,583.547,322.0784,582.9784,318.7887,576.5614,311.6,577.13" style="stroke:#181818;stroke-width:1.0;"/><polygon fill="#181818" points="338.6,686.49,347.584,682.4543,341.9357,682.7654,341.6246,677.1171,338.6,686.49" style="stroke:#181818;stroke-width:1.0;"/><text fill="#000000" font-family="sans-serif" font-size="13" lengthAdjust="spacing" textLength="40" x="363" y="635.4951">correct</text><text fill="#000000" font-family="sans-serif" font-size="13" lengthAdjust="spacing" textLength="8" x="335.8788" y="675.8276">+</text></g><!--link Concept to Definition--><g id="link_Concept_Definition"><path codeLine="106" d="M279.367,593.6873 C287.797,621.8873 296.8008,651.9716 305.2708,680.2916 " fill="none" id="Concept-Definition-1" style="stroke:#181818;stroke-width:1.0;"/><polygon fill="#181818" points="275.93,582.19,273.8161,589.0843,279.367,593.6873,281.4809,586.793,275.93,582.19" style="stroke:#181818;stroke-width:1.0;"/><polygon fill="#181818" points="306.99,686.04,308.2434,676.2712,305.5573,681.2497,300.5789,678.5636,306.99,686.04" style="stroke:#181818;stroke-width:1.0;"/><text fill="#000000" font-family="sans-serif" font-size="13" lengthAdjust="spacing" textLength="50" x="293" y="635.4951">incorrect</text><text fill="#000000" font-family="sans-serif" font-size="13" lengthAdjust="spacing" textLength="5" x="299.6719" y="675.6658">*</text></g><!--link Concept to Relation--><g id="link_Concept_Relation"><path codeLine="107" d="M214.9355,574.294 C189.4155,583.454 170.37,595.15 155,621 C142.54,641.96 152.6368,663.2475 166.5768,681.6475 " fill="none" id="Concept-Relation" style="stroke:#181818;stroke-width:1.0;"/><polygon fill="#181818" points="226.23,570.24,219.2314,568.5022,214.9355,574.294,221.9341,576.0318,226.23,570.24" style="stroke:#181818;stroke-width:1.0;"/><polygon fill="#181818" points="170.2,686.43,167.9534,676.8408,167.1806,682.4446,161.5768,681.6718,170.2,686.43" style="stroke:#181818;stroke-width:1.0;"/><text fill="#000000" font-family="sans-serif" font-size="13" lengthAdjust="spacing" textLength="31" x="156" y="635.4951">origin</text><text fill="#000000" font-family="sans-serif" font-size="13" lengthAdjust="spacing" textLength="5" x="159.2294" y="675.7522">*</text></g><!--link Relation to Concept--><g id="link_Relation_Concept"><path codeLine="113" d="M203.16,686.04 C217.84,657.72 239.6099,615.7175 254.2199,587.5175 " fill="none" id="Relation-to-Concept" style="stroke:#181818;stroke-width:1.0;"/><polygon fill="#181818" points="256.98,582.19,249.2882,588.3412,254.6799,586.6296,256.3915,592.0213,256.98,582.19" style="stroke:#181818;stroke-width:1.0;"/><text fill="#000000" font-family="sans-serif" font-size="13" lengthAdjust="spacing" textLength="33" x="235" y="635.4951">target</text></g><!--link Concept to Attachment--><g id="link_Concept_Attachment"><path codeLine="108" d="M215.1766,579.9315 C189.4566,590.8015 167.86,601.91 142,621 C116.58,639.76 96.227,662.258 80.607,681.538 " fill="none" id="Concept-Attachment" style="stroke:#FF0000;stroke-width:1.0;"/><polygon fill="#FF0000" points="226.23,575.26,219.1461,573.9113,215.1766,579.9315,222.2605,581.2802,226.23,575.26" style="stroke:#FF0000;stroke-width:1.0;"/><polygon fill="#FF0000" points="76.83,686.2,85.6035,681.725,79.9775,682.315,79.3875,676.689,76.83,686.2" style="stroke:#FF0000;stroke-width:1.0;"/><text fill="#000000" font-family="sans-serif" font-size="13" lengthAdjust="spacing" textLength="5" x="75.7583" y="675.4633">*</text></g><!--link Concept to Exercise--><g id="link_Concept_Exercise"><path codeLine="109" d="M323.2314,573.2325 C353.9414,582.6625 383.33,595.42 412,621 C429.2,636.35 439.5713,653.4797 448.0913,671.9897 " fill="none" id="Concept-Exercise" style="stroke:#FF0000;stroke-width:1.0;"/><polygon fill="none" points="311.76,569.71,316.3215,575.295,323.2314,573.2325,318.6698,567.6474,311.76,569.71" style="stroke:#FF0000;stroke-width:1.0;"/><polygon fill="#FF0000" points="450.6,677.44,450.4704,667.592,448.5094,672.8981,443.2033,670.937,450.6,677.44" style="stroke:#FF0000;stroke-width:1.0;"/><text fill="#000000" font-family="sans-serif" font-size="13" lengthAdjust="spacing" textLength="5" x="442.5269" y="666.543">*</text></g><!--link Relation to RelationType--><g id="link_Relation_RelationType"><path codeLine="114" d="M192.0365,746.5747 C192.6365,766.7647 193.0007,779.1227 193.8307,806.8927 " fill="none" id="Relation-RelationType" style="stroke:#181818;stroke-width:1.0;"/><polygon fill="#181818" points="191.68,734.58,187.86,740.6962,192.0365,746.5747,195.8565,740.4585,191.68,734.58" style="stroke:#181818;stroke-width:1.0;"/><polygon fill="#181818" points="194.01,812.89,197.7393,803.7745,193.8606,807.8922,189.7429,804.0135,194.01,812.89" style="stroke:#181818;stroke-width:1.0;"/></g><!--SRC=[VLNBRXin3BplLwZffNLWVu0H130S7rAqwCDkBa4EifPsX6gbhQHDcwR-zr9lhMCtbop9eJWSKlAg7HYrNCalWjgTqXsPJAVNvEBoWdmte9lLwVX6zPoT2zvQBa5J_KpcfDVGmWxjzWHQ-LAJYr466unLtRcpLqzK3DGgtJHqQwocp7gYBysXQTm7kVexdP8DKFQ8z8jdROSMf6qQ9gWn2U3JWYS2d2T-OiNxjyZ_8R9SzBtWWLHAodHSMZQ8O_fr05D3IuyEMooLz0wQHlID4usxV59n_83Qy5taK0TkL4Uvyn3ycn99Eq0frrPpkKTK3AE2lj8TQEEPSMb1xoY3rDjMW3krM2ZUR9OJZlsvnohWnkIAr6fLOTVk6J5ZbTI4Xfy3rz3X90msyv4RUnKwkdQDv_6lVeDct43ktbXgVLejGKRXDhJgbvn6pKu4okHoZUHougJli5UV1c5vBs3vg3Y3e-1Ig3_7liyzv8vzFD3U2Yf_BDKWxPpWMB0E8H4rBb5DlT8mzGvX1w75thTA2Q0ogQB4u5bKebGBS4S5RwaD6n0ocD8QcArEEZGLBAn0FSTNmRB5ezWatVlHFi_ltpmLq2nMVwYcu6z8O7T9zc2NIZBehNdt7fdvO9HTTRqot4AuKbLapJiKidPdBWjhyKdegZUYUFoToDReNS1Dlr5igFEg8lurAMQvx95wNeGHOvSrzfnx9MBbbqCvo9yRJl2VoDQlTUHQtfLv6l09vEG8oUL_iTz0q8XKck_nLerXusUq29rGwZKgNSlKM2xXMik6KoKTCYUMQjoA4iqSasVptEE188Tkv8el1_vO-FyBOnJZOQMTdKQHx5k9lnpSKYmRyFkzXdt07yW_]--></g></svg>