<?xml version="1.0" encoding="us-ascii" standalone="no"?><svg xmlns="http://www.w3.org/2000/svg" xmlns:xlink="http://www.w3.org/1999/xlink" contentStyleType="text/css" height="1594px" preserveAspectRatio="none" style="width:980px;height:1594px;background:#FFFFFF;" version="1.1" viewBox="0 0 980 1594" width="980px" zoomAndPan="magnify"><defs/><g><!--class Itinerary--><g id="elem_Itinerary"><rect codeLine="2" fill="#F1F1F1" height="83.2188" id="Itinerary" rx="2.5" ry="2.5" style="stroke:#181818;stroke-width:0.5;" width="134" x="275.5" y="379"/><ellipse cx="313.45" cy="395" fill="#ADD1B2" rx="11" ry="11" style="stroke:#181818;stroke-width:1.0;"/><path d="M316.2156,390.875 Q316.3719,390.6563 316.5594,390.5469 Q316.7469,390.4375 316.9656,390.4375 Q317.3406,390.4375 317.575,390.7031 Q317.8094,390.9531 317.8094,391.5625 L317.8094,393.0156 Q317.8094,393.625 317.575,393.8906 Q317.3406,394.1563 316.9656,394.1563 Q316.6219,394.1563 316.4188,393.9531 Q316.2156,393.7656 316.1063,393.25 Q316.0594,392.8906 315.8719,392.7031 Q315.5438,392.3281 314.9344,392.1094 Q314.325,391.8906 313.7,391.8906 Q312.9344,391.8906 312.2938,392.2188 Q311.6688,392.5469 311.1688,393.2969 Q310.6844,394.0469 310.6844,395.0781 L310.6844,396.1719 Q310.6844,397.4063 311.575,398.2344 Q312.4656,399.0469 314.0594,399.0469 Q314.9969,399.0469 315.6531,398.7969 Q316.0438,398.6406 316.4656,398.2031 Q316.7313,397.9375 316.8719,397.8594 Q317.0281,397.7813 317.2313,397.7813 Q317.5594,397.7813 317.8094,398.0469 Q318.075,398.2969 318.075,398.6406 Q318.075,398.9844 317.7313,399.3906 Q317.2313,399.9688 316.4344,400.2969 Q315.3563,400.75 314.0594,400.75 Q312.5438,400.75 311.3406,400.125 Q310.3563,399.625 309.6688,398.5625 Q308.9813,397.4844 308.9813,396.2031 L308.9813,395.0469 Q308.9813,393.7188 309.5906,392.5781 Q310.2156,391.4219 311.3094,390.8125 Q312.4031,390.1875 313.6375,390.1875 Q314.3719,390.1875 315.0125,390.3594 Q315.6688,390.5156 316.2156,390.875 Z " fill="#000000"/><text fill="#000000" font-family="sans-serif" font-size="14" lengthAdjust="spacing" textLength="51" x="332.55" y="400.7285">Itinerary</text><line style="stroke:#181818;stroke-width:0.5;" x1="276.5" x2="408.5" y1="411" y2="411"/><rect fill="none" height="6" style="stroke:#C82930;stroke-width:1.0;" width="6" x="283.5" y="422.3047"/><text fill="#000000" font-family="sans-serif" font-size="14" lengthAdjust="spacing" textLength="108" x="295.5" y="429.5332">custom : boolean</text><line style="stroke:#181818;stroke-width:0.5;" x1="276.5" x2="408.5" y1="436.6094" y2="436.6094"/><ellipse cx="286.5" cy="450.9141" fill="#84BE84" rx="3" ry="3" style="stroke:#038048;stroke-width:1.0;"/><text fill="#000000" font-family="sans-serif" font-size="14" lengthAdjust="spacing" textLength="34" x="295.5" y="455.1426">Edit()</text></g><!--class Topic--><g id="elem_Topic"><rect codeLine="7" fill="#F1F1F1" height="118.4375" id="Topic" rx="2.5" ry="2.5" style="stroke:#181818;stroke-width:0.5;" width="181" x="252" y="523"/><ellipse cx="320.75" cy="539" fill="#B4A7E5" rx="11" ry="11" style="stroke:#181818;stroke-width:1.0;"/><path d="M321.7031,535.6406 L321.7031,542.2969 L323.4219,542.2969 Q324.0313,542.2969 324.2969,542.5313 Q324.5625,542.7656 324.5625,543.1563 Q324.5625,543.5313 324.2969,543.7656 Q324.0313,544 323.4219,544 L318.2813,544 Q317.6719,544 317.4063,543.7656 Q317.1406,543.5313 317.1406,543.1406 Q317.1406,542.7656 317.4063,542.5313 Q317.6719,542.2969 318.2813,542.2969 L320,542.2969 L320,535.6406 L318.2813,535.6406 Q317.6719,535.6406 317.4063,535.4063 Q317.1406,535.1719 317.1406,534.7813 Q317.1406,534.4063 317.4063,534.1719 Q317.6719,533.9375 318.2813,533.9375 L323.4219,533.9375 Q324.0313,533.9375 324.2969,534.1719 Q324.5625,534.4063 324.5625,534.7813 Q324.5625,535.1719 324.2969,535.4063 Q324.0313,535.6406 323.4219,535.6406 L321.7031,535.6406 Z " fill="#000000"/><text fill="#000000" font-family="sans-serif" font-size="14" font-style="italic" lengthAdjust="spacing" textLength="35" x="341.25" y="544.7285">Topic</text><line style="stroke:#181818;stroke-width:0.5;" x1="253" x2="432" y1="555" y2="555"/><line style="stroke:#181818;stroke-width:0.5;" x1="253" x2="432" y1="563" y2="563"/><ellipse cx="263" cy="577.3047" fill="#84BE84" rx="3" ry="3" style="stroke:#038048;stroke-width:1.0;"/><text fill="#000000" font-family="sans-serif" font-size="14" lengthAdjust="spacing" textLength="138" x="272" y="581.5332">getTableOfContents()</text><ellipse cx="263" cy="594.9141" fill="#84BE84" rx="3" ry="3" style="stroke:#038048;stroke-width:1.0;"/><text fill="#000000" font-family="sans-serif" font-size="14" lengthAdjust="spacing" textLength="155" x="272" y="599.1426">getSyllabus() : Concepts</text><ellipse cx="263" cy="612.5234" fill="#84BE84" rx="3" ry="3" style="stroke:#038048;stroke-width:1.0;"/><text fill="#000000" font-family="sans-serif" font-size="14" lengthAdjust="spacing" textLength="34" x="272" y="616.752">Edit()</text><ellipse cx="263" cy="630.1328" fill="#84BE84" rx="3" ry="3" style="stroke:#038048;stroke-width:1.0;"/><text fill="#000000" font-family="sans-serif" font-size="14" lengthAdjust="spacing" textLength="44" x="272" y="634.3613">Read()</text></g><!--class SimpleTopic--><g id="elem_SimpleTopic"><rect codeLine="15" fill="#F1F1F1" height="48" id="SimpleTopic" rx="2.5" ry="2.5" style="stroke:#181818;stroke-width:0.5;" width="109" x="270" y="798"/><ellipse cx="285" cy="814" fill="#ADD1B2" rx="11" ry="11" style="stroke:#181818;stroke-width:1.0;"/><path d="M287.7656,809.875 Q287.9219,809.6563 288.1094,809.5469 Q288.2969,809.4375 288.5156,809.4375 Q288.8906,809.4375 289.125,809.7031 Q289.3594,809.9531 289.3594,810.5625 L289.3594,812.0156 Q289.3594,812.625 289.125,812.8906 Q288.8906,813.1563 288.5156,813.1563 Q288.1719,813.1563 287.9688,812.9531 Q287.7656,812.7656 287.6563,812.25 Q287.6094,811.8906 287.4219,811.7031 Q287.0938,811.3281 286.4844,811.1094 Q285.875,810.8906 285.25,810.8906 Q284.4844,810.8906 283.8438,811.2188 Q283.2188,811.5469 282.7188,812.2969 Q282.2344,813.0469 282.2344,814.0781 L282.2344,815.1719 Q282.2344,816.4063 283.125,817.2344 Q284.0156,818.0469 285.6094,818.0469 Q286.5469,818.0469 287.2031,817.7969 Q287.5938,817.6406 288.0156,817.2031 Q288.2813,816.9375 288.4219,816.8594 Q288.5781,816.7813 288.7813,816.7813 Q289.1094,816.7813 289.3594,817.0469 Q289.625,817.2969 289.625,817.6406 Q289.625,817.9844 289.2813,818.3906 Q288.7813,818.9688 287.9844,819.2969 Q286.9063,819.75 285.6094,819.75 Q284.0938,819.75 282.8906,819.125 Q281.9063,818.625 281.2188,817.5625 Q280.5313,816.4844 280.5313,815.2031 L280.5313,814.0469 Q280.5313,812.7188 281.1406,811.5781 Q281.7656,810.4219 282.8594,809.8125 Q283.9531,809.1875 285.1875,809.1875 Q285.9219,809.1875 286.5625,809.3594 Q287.2188,809.5156 287.7656,809.875 Z " fill="#000000"/><text fill="#000000" font-family="sans-serif" font-size="14" lengthAdjust="spacing" textLength="77" x="299" y="819.7285">SimpleTopic</text><line style="stroke:#181818;stroke-width:0.5;" x1="271" x2="378" y1="830" y2="830"/><line style="stroke:#181818;stroke-width:0.5;" x1="271" x2="378" y1="838" y2="838"/></g><!--class CompositeTopic--><g id="elem_CompositeTopic"><rect codeLine="18" fill="#F1F1F1" height="65.6094" id="CompositeTopic" rx="2.5" ry="2.5" style="stroke:#181818;stroke-width:0.5;" width="148" x="369.5" y="702"/><ellipse cx="390.8" cy="718" fill="#ADD1B2" rx="11" ry="11" style="stroke:#181818;stroke-width:1.0;"/><path d="M393.5656,713.875 Q393.7219,713.6563 393.9094,713.5469 Q394.0969,713.4375 394.3156,713.4375 Q394.6906,713.4375 394.925,713.7031 Q395.1594,713.9531 395.1594,714.5625 L395.1594,716.0156 Q395.1594,716.625 394.925,716.8906 Q394.6906,717.1563 394.3156,717.1563 Q393.9719,717.1563 393.7688,716.9531 Q393.5656,716.7656 393.4563,716.25 Q393.4094,715.8906 393.2219,715.7031 Q392.8938,715.3281 392.2844,715.1094 Q391.675,714.8906 391.05,714.8906 Q390.2844,714.8906 389.6438,715.2188 Q389.0188,715.5469 388.5188,716.2969 Q388.0344,717.0469 388.0344,718.0781 L388.0344,719.1719 Q388.0344,720.4063 388.925,721.2344 Q389.8156,722.0469 391.4094,722.0469 Q392.3469,722.0469 393.0031,721.7969 Q393.3938,721.6406 393.8156,721.2031 Q394.0813,720.9375 394.2219,720.8594 Q394.3781,720.7813 394.5813,720.7813 Q394.9094,720.7813 395.1594,721.0469 Q395.425,721.2969 395.425,721.6406 Q395.425,721.9844 395.0813,722.3906 Q394.5813,722.9688 393.7844,723.2969 Q392.7063,723.75 391.4094,723.75 Q389.8938,723.75 388.6906,723.125 Q387.7063,722.625 387.0188,721.5625 Q386.3313,720.4844 386.3313,719.2031 L386.3313,718.0469 Q386.3313,716.7188 386.9406,715.5781 Q387.5656,714.4219 388.6594,713.8125 Q389.7531,713.1875 390.9875,713.1875 Q391.7219,713.1875 392.3625,713.3594 Q393.0188,713.5156 393.5656,713.875 Z " fill="#000000"/><text fill="#000000" font-family="sans-serif" font-size="14" lengthAdjust="spacing" textLength="102" x="406.2" y="723.7285">CompositeTopic</text><line style="stroke:#181818;stroke-width:0.5;" x1="370.5" x2="516.5" y1="734" y2="734"/><rect fill="none" height="6" style="stroke:#C82930;stroke-width:1.0;" width="6" x="377.5" y="745.3047"/><text fill="#000000" font-family="sans-serif" font-size="14" lengthAdjust="spacing" textLength="122" x="389.5" y="752.5332">topics : List&lt;Topic&gt;</text><line style="stroke:#181818;stroke-width:0.5;" x1="370.5" x2="516.5" y1="759.6094" y2="759.6094"/></g><!--class Excercise--><g id="elem_Excercise"><rect codeLine="22" fill="#F1F1F1" height="48" id="Excercise" rx="2.5" ry="2.5" style="stroke:#181818;stroke-width:0.5;" width="92" x="573.5" y="711"/><ellipse cx="588.5" cy="727" fill="#A9DCDF" rx="11" ry="11" style="stroke:#181818;stroke-width:1.0;"/><path d="M590.6875,728.7656 L586.5469,728.7656 L586.125,729.7969 L586.5469,729.7969 Q587.1563,729.7969 587.4219,730.0313 Q587.6875,730.2656 587.6875,730.6563 Q587.6875,731.0313 587.4219,731.2656 Q587.1563,731.5 586.5469,731.5 L584.25,731.5 Q583.6406,731.5 583.3906,731.2656 Q583.125,731.0313 583.125,730.6406 Q583.125,730.2656 583.4063,730.0313 Q583.6719,729.7813 584.2969,729.7969 L586.9688,723.1406 L585.8594,723.1406 Q585.25,723.1406 584.9844,722.9063 Q584.7188,722.6719 584.7188,722.2813 Q584.7188,721.9063 584.9844,721.6719 Q585.25,721.4375 585.8594,721.4375 L589.5313,721.4375 L592.9219,729.7969 Q593.5156,729.7969 593.7031,729.9375 Q594.0938,730.2031 594.0938,730.6563 Q594.0938,731.0313 593.8281,731.2656 Q593.5781,731.5 592.9688,731.5 L590.6719,731.5 Q590.0625,731.5 589.7969,731.2656 Q589.5313,731.0313 589.5313,730.6406 Q589.5313,730.2656 589.7969,730.0313 Q590.0625,729.7969 590.6719,729.7969 L591.0938,729.7969 L590.6875,728.7656 Z M589.9688,727.0625 L588.6094,723.6875 L587.2344,727.0625 L589.9688,727.0625 Z " fill="#000000"/><text fill="#000000" font-family="sans-serif" font-size="14" font-style="italic" lengthAdjust="spacing" textLength="60" x="602.5" y="732.7285">Excercise</text><line style="stroke:#181818;stroke-width:0.5;" x1="574.5" x2="664.5" y1="743" y2="743"/><line style="stroke:#181818;stroke-width:0.5;" x1="574.5" x2="664.5" y1="751" y2="751"/></g><!--class Domain--><g id="elem_Domain"><rect codeLine="25" fill="#F1F1F1" height="48" id="Domain" rx="2.5" ry="2.5" style="stroke:#181818;stroke-width:0.5;" width="80" x="388.5" y="885"/><ellipse cx="403.5" cy="901" fill="#ADD1B2" rx="11" ry="11" style="stroke:#181818;stroke-width:1.0;"/><path d="M406.2656,896.875 Q406.4219,896.6563 406.6094,896.5469 Q406.7969,896.4375 407.0156,896.4375 Q407.3906,896.4375 407.625,896.7031 Q407.8594,896.9531 407.8594,897.5625 L407.8594,899.0156 Q407.8594,899.625 407.625,899.8906 Q407.3906,900.1563 407.0156,900.1563 Q406.6719,900.1563 406.4688,899.9531 Q406.2656,899.7656 406.1563,899.25 Q406.1094,898.8906 405.9219,898.7031 Q405.5938,898.3281 404.9844,898.1094 Q404.375,897.8906 403.75,897.8906 Q402.9844,897.8906 402.3438,898.2188 Q401.7188,898.5469 401.2188,899.2969 Q400.7344,900.0469 400.7344,901.0781 L400.7344,902.1719 Q400.7344,903.4063 401.625,904.2344 Q402.5156,905.0469 404.1094,905.0469 Q405.0469,905.0469 405.7031,904.7969 Q406.0938,904.6406 406.5156,904.2031 Q406.7813,903.9375 406.9219,903.8594 Q407.0781,903.7813 407.2813,903.7813 Q407.6094,903.7813 407.8594,904.0469 Q408.125,904.2969 408.125,904.6406 Q408.125,904.9844 407.7813,905.3906 Q407.2813,905.9688 406.4844,906.2969 Q405.4063,906.75 404.1094,906.75 Q402.5938,906.75 401.3906,906.125 Q400.4063,905.625 399.7188,904.5625 Q399.0313,903.4844 399.0313,902.2031 L399.0313,901.0469 Q399.0313,899.7188 399.6406,898.5781 Q400.2656,897.4219 401.3594,896.8125 Q402.4531,896.1875 403.6875,896.1875 Q404.4219,896.1875 405.0625,896.3594 Q405.7188,896.5156 406.2656,896.875 Z " fill="#000000"/><text fill="#000000" font-family="sans-serif" font-size="14" lengthAdjust="spacing" textLength="48" x="417.5" y="906.7285">Domain</text><line style="stroke:#181818;stroke-width:0.5;" x1="389.5" x2="467.5" y1="917" y2="917"/><line style="stroke:#181818;stroke-width:0.5;" x1="389.5" x2="467.5" y1="925" y2="925"/></g><!--class Application--><g id="elem_Application"><rect codeLine="28" fill="#F1F1F1" height="83.2188" id="Application" rx="2.5" ry="2.5" style="stroke:#181818;stroke-width:0.5;" width="133" x="374" y="1037.5"/><ellipse cx="403.4" cy="1053.5" fill="#ADD1B2" rx="11" ry="11" style="stroke:#181818;stroke-width:1.0;"/><path d="M406.1656,1049.375 Q406.3219,1049.1563 406.5094,1049.0469 Q406.6969,1048.9375 406.9156,1048.9375 Q407.2906,1048.9375 407.525,1049.2031 Q407.7594,1049.4531 407.7594,1050.0625 L407.7594,1051.5156 Q407.7594,1052.125 407.525,1052.3906 Q407.2906,1052.6563 406.9156,1052.6563 Q406.5719,1052.6563 406.3688,1052.4531 Q406.1656,1052.2656 406.0563,1051.75 Q406.0094,1051.3906 405.8219,1051.2031 Q405.4938,1050.8281 404.8844,1050.6094 Q404.275,1050.3906 403.65,1050.3906 Q402.8844,1050.3906 402.2438,1050.7188 Q401.6188,1051.0469 401.1188,1051.7969 Q400.6344,1052.5469 400.6344,1053.5781 L400.6344,1054.6719 Q400.6344,1055.9063 401.525,1056.7344 Q402.4156,1057.5469 404.0094,1057.5469 Q404.9469,1057.5469 405.6031,1057.2969 Q405.9938,1057.1406 406.4156,1056.7031 Q406.6813,1056.4375 406.8219,1056.3594 Q406.9781,1056.2813 407.1813,1056.2813 Q407.5094,1056.2813 407.7594,1056.5469 Q408.025,1056.7969 408.025,1057.1406 Q408.025,1057.4844 407.6813,1057.8906 Q407.1813,1058.4688 406.3844,1058.7969 Q405.3063,1059.25 404.0094,1059.25 Q402.4938,1059.25 401.2906,1058.625 Q400.3063,1058.125 399.6188,1057.0625 Q398.9313,1055.9844 398.9313,1054.7031 L398.9313,1053.5469 Q398.9313,1052.2188 399.5406,1051.0781 Q400.1656,1049.9219 401.2594,1049.3125 Q402.3531,1048.6875 403.5875,1048.6875 Q404.3219,1048.6875 404.9625,1048.8594 Q405.6188,1049.0156 406.1656,1049.375 Z " fill="#000000"/><text fill="#000000" font-family="sans-serif" font-size="14" lengthAdjust="spacing" textLength="69" x="420.6" y="1059.2285">Application</text><line style="stroke:#181818;stroke-width:0.5;" x1="375" x2="506" y1="1069.5" y2="1069.5"/><rect fill="none" height="6" style="stroke:#C82930;stroke-width:1.0;" width="6" x="382" y="1080.8047"/><text fill="#000000" font-family="sans-serif" font-size="14" lengthAdjust="spacing" textLength="107" x="394" y="1088.0332">correct : boolean</text><rect fill="none" height="6" style="stroke:#C82930;stroke-width:1.0;" width="6" x="382" y="1098.4141"/><text fill="#000000" font-family="sans-serif" font-size="14" lengthAdjust="spacing" textLength="48" x="394" y="1105.6426">Version</text><line style="stroke:#181818;stroke-width:0.5;" x1="375" x2="506" y1="1112.7188" y2="1112.7188"/></g><!--class Question--><g id="elem_Question"><rect codeLine="33" fill="#F1F1F1" height="65.6094" id="Question" rx="2.5" ry="2.5" style="stroke:#181818;stroke-width:0.5;" width="196" x="521.5" y="876"/><ellipse cx="586.75" cy="892" fill="#ADD1B2" rx="11" ry="11" style="stroke:#181818;stroke-width:1.0;"/><path d="M589.5156,887.875 Q589.6719,887.6563 589.8594,887.5469 Q590.0469,887.4375 590.2656,887.4375 Q590.6406,887.4375 590.875,887.7031 Q591.1094,887.9531 591.1094,888.5625 L591.1094,890.0156 Q591.1094,890.625 590.875,890.8906 Q590.6406,891.1563 590.2656,891.1563 Q589.9219,891.1563 589.7188,890.9531 Q589.5156,890.7656 589.4063,890.25 Q589.3594,889.8906 589.1719,889.7031 Q588.8438,889.3281 588.2344,889.1094 Q587.625,888.8906 587,888.8906 Q586.2344,888.8906 585.5938,889.2188 Q584.9688,889.5469 584.4688,890.2969 Q583.9844,891.0469 583.9844,892.0781 L583.9844,893.1719 Q583.9844,894.4063 584.875,895.2344 Q585.7656,896.0469 587.3594,896.0469 Q588.2969,896.0469 588.9531,895.7969 Q589.3438,895.6406 589.7656,895.2031 Q590.0313,894.9375 590.1719,894.8594 Q590.3281,894.7813 590.5313,894.7813 Q590.8594,894.7813 591.1094,895.0469 Q591.375,895.2969 591.375,895.6406 Q591.375,895.9844 591.0313,896.3906 Q590.5313,896.9688 589.7344,897.2969 Q588.6563,897.75 587.3594,897.75 Q585.8438,897.75 584.6406,897.125 Q583.6563,896.625 582.9688,895.5625 Q582.2813,894.4844 582.2813,893.2031 L582.2813,892.0469 Q582.2813,890.7188 582.8906,889.5781 Q583.5156,888.4219 584.6094,887.8125 Q585.7031,887.1875 586.9375,887.1875 Q587.6719,887.1875 588.3125,887.3594 Q588.9688,887.5156 589.5156,887.875 Z " fill="#000000"/><text fill="#000000" font-family="sans-serif" font-size="14" lengthAdjust="spacing" textLength="57" x="607.25" y="897.7285">Question</text><line style="stroke:#181818;stroke-width:0.5;" x1="522.5" x2="716.5" y1="908" y2="908"/><rect fill="none" height="6" style="stroke:#C82930;stroke-width:1.0;" width="6" x="529.5" y="919.3047"/><text fill="#000000" font-family="sans-serif" font-size="14" lengthAdjust="spacing" textLength="170" x="541.5" y="926.5332">statement : StatementType</text><line style="stroke:#181818;stroke-width:0.5;" x1="522.5" x2="716.5" y1="933.6094" y2="933.6094"/></g><!--class StatementType--><g id="elem_StatementType"><rect codeLine="37" fill="#F1F1F1" height="118.4375" id="StatementType" rx="2.5" ry="2.5" style="stroke:#181818;stroke-width:0.5;" width="128" x="613.5" y="1020"/><ellipse cx="628.5" cy="1036" fill="#EB937F" rx="11" ry="11" style="stroke:#181818;stroke-width:1.0;"/><path d="M627.3594,1036.7969 L627.3594,1039.2969 L631.6875,1039.2969 L631.6875,1038.375 Q631.6875,1037.7656 631.9219,1037.5 Q632.1719,1037.2344 632.5469,1037.2344 Q632.9219,1037.2344 633.1563,1037.5 Q633.3906,1037.7656 633.3906,1038.375 L633.3906,1041 L625.3906,1041 Q624.7656,1041 624.5,1040.7656 Q624.25,1040.5313 624.25,1040.1406 Q624.25,1039.7656 624.5156,1039.5313 Q624.7813,1039.2969 625.3906,1039.2969 L625.6563,1039.2969 L625.6563,1032.6406 L625.3906,1032.6406 Q624.7656,1032.6406 624.5,1032.4063 Q624.25,1032.1719 624.25,1031.7813 Q624.25,1031.4063 624.5,1031.1719 Q624.7656,1030.9375 625.3906,1030.9375 L633.0156,1030.9375 L633.0156,1033.5313 Q633.0156,1034.1406 632.7813,1034.4063 Q632.5625,1034.6563 632.1719,1034.6563 Q631.7969,1034.6563 631.5625,1034.4063 Q631.3281,1034.1406 631.3281,1033.5313 L631.3281,1032.6406 L627.3594,1032.6406 L627.3594,1035.0938 L628.8438,1035.0938 Q628.8438,1034.4375 628.9688,1034.25 Q629.2344,1033.8438 629.7031,1033.8438 Q630.0781,1033.8438 630.3125,1034.1094 Q630.5469,1034.3594 630.5469,1034.9688 L630.5469,1036.9375 Q630.5469,1037.4844 630.4219,1037.6719 Q630.1563,1038.0625 629.7031,1038.0625 Q629.2344,1038.0625 628.9688,1037.6563 Q628.8438,1037.4688 628.8438,1036.7969 L627.3594,1036.7969 Z " fill="#000000"/><text fill="#000000" font-family="sans-serif" font-size="14" lengthAdjust="spacing" textLength="96" x="642.5" y="1041.7285">StatementType</text><line style="stroke:#181818;stroke-width:0.5;" x1="614.5" x2="740.5" y1="1052" y2="1052"/><text fill="#000000" font-family="sans-serif" font-size="14" lengthAdjust="spacing" textLength="63" x="619.5" y="1070.5332">ClozeTest</text><text fill="#000000" font-family="sans-serif" font-size="14" lengthAdjust="spacing" textLength="59" x="619.5" y="1088.1426">Definition</text><text fill="#000000" font-family="sans-serif" font-size="14" lengthAdjust="spacing" textLength="52" x="619.5" y="1105.752">Relation</text><text fill="#000000" font-family="sans-serif" font-size="14" lengthAdjust="spacing" textLength="108" x="619.5" y="1123.3613">JustifyApplication</text><line style="stroke:#181818;stroke-width:0.5;" x1="614.5" x2="740.5" y1="1130.4375" y2="1130.4375"/></g><!--class Text--><g id="elem_Text"><rect codeLine="44" fill="#F1F1F1" height="65.6094" id="Text" rx="2.5" ry="2.5" style="stroke:#181818;stroke-width:0.5;" width="134" x="118.5" y="1046"/><ellipse cx="167.75" cy="1062" fill="#ADD1B2" rx="11" ry="11" style="stroke:#181818;stroke-width:1.0;"/><path d="M170.5156,1057.875 Q170.6719,1057.6563 170.8594,1057.5469 Q171.0469,1057.4375 171.2656,1057.4375 Q171.6406,1057.4375 171.875,1057.7031 Q172.1094,1057.9531 172.1094,1058.5625 L172.1094,1060.0156 Q172.1094,1060.625 171.875,1060.8906 Q171.6406,1061.1563 171.2656,1061.1563 Q170.9219,1061.1563 170.7188,1060.9531 Q170.5156,1060.7656 170.4063,1060.25 Q170.3594,1059.8906 170.1719,1059.7031 Q169.8438,1059.3281 169.2344,1059.1094 Q168.625,1058.8906 168,1058.8906 Q167.2344,1058.8906 166.5938,1059.2188 Q165.9688,1059.5469 165.4688,1060.2969 Q164.9844,1061.0469 164.9844,1062.0781 L164.9844,1063.1719 Q164.9844,1064.4063 165.875,1065.2344 Q166.7656,1066.0469 168.3594,1066.0469 Q169.2969,1066.0469 169.9531,1065.7969 Q170.3438,1065.6406 170.7656,1065.2031 Q171.0313,1064.9375 171.1719,1064.8594 Q171.3281,1064.7813 171.5313,1064.7813 Q171.8594,1064.7813 172.1094,1065.0469 Q172.375,1065.2969 172.375,1065.6406 Q172.375,1065.9844 172.0313,1066.3906 Q171.5313,1066.9688 170.7344,1067.2969 Q169.6563,1067.75 168.3594,1067.75 Q166.8438,1067.75 165.6406,1067.125 Q164.6563,1066.625 163.9688,1065.5625 Q163.2813,1064.4844 163.2813,1063.2031 L163.2813,1062.0469 Q163.2813,1060.7188 163.8906,1059.5781 Q164.5156,1058.4219 165.6094,1057.8125 Q166.7031,1057.1875 167.9375,1057.1875 Q168.6719,1057.1875 169.3125,1057.3594 Q169.9688,1057.5156 170.5156,1057.875 Z " fill="#000000"/><text fill="#000000" font-family="sans-serif" font-size="14" lengthAdjust="spacing" textLength="27" x="188.25" y="1067.7285">Text</text><line style="stroke:#181818;stroke-width:0.5;" x1="119.5" x2="251.5" y1="1078" y2="1078"/><rect fill="none" height="6" style="stroke:#C82930;stroke-width:1.0;" width="6" x="126.5" y="1089.3047"/><text fill="#000000" font-family="sans-serif" font-size="14" lengthAdjust="spacing" textLength="108" x="138.5" y="1096.5332">TableOfContents</text><line style="stroke:#181818;stroke-width:0.5;" x1="119.5" x2="251.5" y1="1103.6094" y2="1103.6094"/></g><!--class Concept--><g id="elem_Concept"><rect codeLine="48" fill="#F1F1F1" height="48" id="Concept" rx="2.5" ry="2.5" style="stroke:#181818;stroke-width:0.5;" width="85" x="378" y="1199"/><ellipse cx="393" cy="1215" fill="#ADD1B2" rx="11" ry="11" style="stroke:#181818;stroke-width:1.0;"/><path d="M395.7656,1210.875 Q395.9219,1210.6563 396.1094,1210.5469 Q396.2969,1210.4375 396.5156,1210.4375 Q396.8906,1210.4375 397.125,1210.7031 Q397.3594,1210.9531 397.3594,1211.5625 L397.3594,1213.0156 Q397.3594,1213.625 397.125,1213.8906 Q396.8906,1214.1563 396.5156,1214.1563 Q396.1719,1214.1563 395.9688,1213.9531 Q395.7656,1213.7656 395.6563,1213.25 Q395.6094,1212.8906 395.4219,1212.7031 Q395.0938,1212.3281 394.4844,1212.1094 Q393.875,1211.8906 393.25,1211.8906 Q392.4844,1211.8906 391.8438,1212.2188 Q391.2188,1212.5469 390.7188,1213.2969 Q390.2344,1214.0469 390.2344,1215.0781 L390.2344,1216.1719 Q390.2344,1217.4063 391.125,1218.2344 Q392.0156,1219.0469 393.6094,1219.0469 Q394.5469,1219.0469 395.2031,1218.7969 Q395.5938,1218.6406 396.0156,1218.2031 Q396.2813,1217.9375 396.4219,1217.8594 Q396.5781,1217.7813 396.7813,1217.7813 Q397.1094,1217.7813 397.3594,1218.0469 Q397.625,1218.2969 397.625,1218.6406 Q397.625,1218.9844 397.2813,1219.3906 Q396.7813,1219.9688 395.9844,1220.2969 Q394.9063,1220.75 393.6094,1220.75 Q392.0938,1220.75 390.8906,1220.125 Q389.9063,1219.625 389.2188,1218.5625 Q388.5313,1217.4844 388.5313,1216.2031 L388.5313,1215.0469 Q388.5313,1213.7188 389.1406,1212.5781 Q389.7656,1211.4219 390.8594,1210.8125 Q391.9531,1210.1875 393.1875,1210.1875 Q393.9219,1210.1875 394.5625,1210.3594 Q395.2188,1210.5156 395.7656,1210.875 Z " fill="#000000"/><text fill="#000000" font-family="sans-serif" font-size="14" lengthAdjust="spacing" textLength="53" x="407" y="1220.7285">Concept</text><line style="stroke:#181818;stroke-width:0.5;" x1="379" x2="462" y1="1231" y2="1231"/><line style="stroke:#181818;stroke-width:0.5;" x1="379" x2="462" y1="1239" y2="1239"/></g><!--class Definition--><g id="elem_Definition"><rect codeLine="51" fill="#F1F1F1" height="65.6094" id="Definition" rx="2.5" ry="2.5" style="stroke:#181818;stroke-width:0.5;" width="133" x="331" y="1360"/><ellipse cx="364.9" cy="1376" fill="#ADD1B2" rx="11" ry="11" style="stroke:#181818;stroke-width:1.0;"/><path d="M367.6656,1371.875 Q367.8219,1371.6563 368.0094,1371.5469 Q368.1969,1371.4375 368.4156,1371.4375 Q368.7906,1371.4375 369.025,1371.7031 Q369.2594,1371.9531 369.2594,1372.5625 L369.2594,1374.0156 Q369.2594,1374.625 369.025,1374.8906 Q368.7906,1375.1563 368.4156,1375.1563 Q368.0719,1375.1563 367.8688,1374.9531 Q367.6656,1374.7656 367.5563,1374.25 Q367.5094,1373.8906 367.3219,1373.7031 Q366.9938,1373.3281 366.3844,1373.1094 Q365.775,1372.8906 365.15,1372.8906 Q364.3844,1372.8906 363.7438,1373.2188 Q363.1188,1373.5469 362.6188,1374.2969 Q362.1344,1375.0469 362.1344,1376.0781 L362.1344,1377.1719 Q362.1344,1378.4063 363.025,1379.2344 Q363.9156,1380.0469 365.5094,1380.0469 Q366.4469,1380.0469 367.1031,1379.7969 Q367.4938,1379.6406 367.9156,1379.2031 Q368.1813,1378.9375 368.3219,1378.8594 Q368.4781,1378.7813 368.6813,1378.7813 Q369.0094,1378.7813 369.2594,1379.0469 Q369.525,1379.2969 369.525,1379.6406 Q369.525,1379.9844 369.1813,1380.3906 Q368.6813,1380.9688 367.8844,1381.2969 Q366.8063,1381.75 365.5094,1381.75 Q363.9938,1381.75 362.7906,1381.125 Q361.8063,1380.625 361.1188,1379.5625 Q360.4313,1378.4844 360.4313,1377.2031 L360.4313,1376.0469 Q360.4313,1374.7188 361.0406,1373.5781 Q361.6656,1372.4219 362.7594,1371.8125 Q363.8531,1371.1875 365.0875,1371.1875 Q365.8219,1371.1875 366.4625,1371.3594 Q367.1188,1371.5156 367.6656,1371.875 Z " fill="#000000"/><text fill="#000000" font-family="sans-serif" font-size="14" lengthAdjust="spacing" textLength="59" x="383.1" y="1381.7285">Definition</text><line style="stroke:#181818;stroke-width:0.5;" x1="332" x2="463" y1="1392" y2="1392"/><rect fill="none" height="6" style="stroke:#C82930;stroke-width:1.0;" width="6" x="339" y="1403.3047"/><text fill="#000000" font-family="sans-serif" font-size="14" lengthAdjust="spacing" textLength="107" x="351" y="1410.5332">correct : boolean</text><line style="stroke:#181818;stroke-width:0.5;" x1="332" x2="463" y1="1417.6094" y2="1417.6094"/></g><!--class Justification--><g id="elem_Justification"><rect codeLine="55" fill="#F1F1F1" height="65.6094" id="Justification" rx="2.5" ry="2.5" style="stroke:#181818;stroke-width:0.5;" width="133" x="558" y="1522"/><ellipse cx="585.6" cy="1538" fill="#ADD1B2" rx="11" ry="11" style="stroke:#181818;stroke-width:1.0;"/><path d="M588.3656,1533.875 Q588.5219,1533.6563 588.7094,1533.5469 Q588.8969,1533.4375 589.1156,1533.4375 Q589.4906,1533.4375 589.725,1533.7031 Q589.9594,1533.9531 589.9594,1534.5625 L589.9594,1536.0156 Q589.9594,1536.625 589.725,1536.8906 Q589.4906,1537.1563 589.1156,1537.1563 Q588.7719,1537.1563 588.5688,1536.9531 Q588.3656,1536.7656 588.2563,1536.25 Q588.2094,1535.8906 588.0219,1535.7031 Q587.6938,1535.3281 587.0844,1535.1094 Q586.475,1534.8906 585.85,1534.8906 Q585.0844,1534.8906 584.4438,1535.2188 Q583.8188,1535.5469 583.3188,1536.2969 Q582.8344,1537.0469 582.8344,1538.0781 L582.8344,1539.1719 Q582.8344,1540.4063 583.725,1541.2344 Q584.6156,1542.0469 586.2094,1542.0469 Q587.1469,1542.0469 587.8031,1541.7969 Q588.1938,1541.6406 588.6156,1541.2031 Q588.8813,1540.9375 589.0219,1540.8594 Q589.1781,1540.7813 589.3813,1540.7813 Q589.7094,1540.7813 589.9594,1541.0469 Q590.225,1541.2969 590.225,1541.6406 Q590.225,1541.9844 589.8813,1542.3906 Q589.3813,1542.9688 588.5844,1543.2969 Q587.5063,1543.75 586.2094,1543.75 Q584.6938,1543.75 583.4906,1543.125 Q582.5063,1542.625 581.8188,1541.5625 Q581.1313,1540.4844 581.1313,1539.2031 L581.1313,1538.0469 Q581.1313,1536.7188 581.7406,1535.5781 Q582.3656,1534.4219 583.4594,1533.8125 Q584.5531,1533.1875 585.7875,1533.1875 Q586.5219,1533.1875 587.1625,1533.3594 Q587.8188,1533.5156 588.3656,1533.875 Z " fill="#000000"/><text fill="#000000" font-family="sans-serif" font-size="14" lengthAdjust="spacing" textLength="73" x="602.4" y="1543.7285">Justification</text><line style="stroke:#181818;stroke-width:0.5;" x1="559" x2="690" y1="1554" y2="1554"/><rect fill="none" height="6" style="stroke:#C82930;stroke-width:1.0;" width="6" x="566" y="1565.3047"/><text fill="#000000" font-family="sans-serif" font-size="14" lengthAdjust="spacing" textLength="107" x="578" y="1572.5332">correct : boolean</text><line style="stroke:#181818;stroke-width:0.5;" x1="559" x2="690" y1="1579.6094" y2="1579.6094"/></g><!--class Multimedia--><g id="elem_Multimedia"><rect codeLine="59" fill="#F1F1F1" height="48" id="Multimedia" rx="2.5" ry="2.5" style="stroke:#181818;stroke-width:0.5;" width="99" x="149" y="711"/><ellipse cx="164" cy="727" fill="#ADD1B2" rx="11" ry="11" style="stroke:#181818;stroke-width:1.0;"/><path d="M166.7656,722.875 Q166.9219,722.6563 167.1094,722.5469 Q167.2969,722.4375 167.5156,722.4375 Q167.8906,722.4375 168.125,722.7031 Q168.3594,722.9531 168.3594,723.5625 L168.3594,725.0156 Q168.3594,725.625 168.125,725.8906 Q167.8906,726.1563 167.5156,726.1563 Q167.1719,726.1563 166.9688,725.9531 Q166.7656,725.7656 166.6563,725.25 Q166.6094,724.8906 166.4219,724.7031 Q166.0938,724.3281 165.4844,724.1094 Q164.875,723.8906 164.25,723.8906 Q163.4844,723.8906 162.8438,724.2188 Q162.2188,724.5469 161.7188,725.2969 Q161.2344,726.0469 161.2344,727.0781 L161.2344,728.1719 Q161.2344,729.4063 162.125,730.2344 Q163.0156,731.0469 164.6094,731.0469 Q165.5469,731.0469 166.2031,730.7969 Q166.5938,730.6406 167.0156,730.2031 Q167.2813,729.9375 167.4219,729.8594 Q167.5781,729.7813 167.7813,729.7813 Q168.1094,729.7813 168.3594,730.0469 Q168.625,730.2969 168.625,730.6406 Q168.625,730.9844 168.2813,731.3906 Q167.7813,731.9688 166.9844,732.2969 Q165.9063,732.75 164.6094,732.75 Q163.0938,732.75 161.8906,732.125 Q160.9063,731.625 160.2188,730.5625 Q159.5313,729.4844 159.5313,728.2031 L159.5313,727.0469 Q159.5313,725.7188 160.1406,724.5781 Q160.7656,723.4219 161.8594,722.8125 Q162.9531,722.1875 164.1875,722.1875 Q164.9219,722.1875 165.5625,722.3594 Q166.2188,722.5156 166.7656,722.875 Z " fill="#000000"/><text fill="#000000" font-family="sans-serif" font-size="14" lengthAdjust="spacing" textLength="67" x="178" y="732.7285">Multimedia</text><line style="stroke:#181818;stroke-width:0.5;" x1="150" x2="247" y1="743" y2="743"/><line style="stroke:#181818;stroke-width:0.5;" x1="150" x2="247" y1="751" y2="751"/></g><!--class Answer--><g id="elem_Answer"><rect codeLine="63" fill="#F1F1F1" height="83.2188" id="Answer" rx="2.5" ry="2.5" style="stroke:#181818;stroke-width:0.5;" width="151" x="777" y="1037.5"/><ellipse cx="825.25" cy="1053.5" fill="#ADD1B2" rx="11" ry="11" style="stroke:#181818;stroke-width:1.0;"/><path d="M828.0156,1049.375 Q828.1719,1049.1563 828.3594,1049.0469 Q828.5469,1048.9375 828.7656,1048.9375 Q829.1406,1048.9375 829.375,1049.2031 Q829.6094,1049.4531 829.6094,1050.0625 L829.6094,1051.5156 Q829.6094,1052.125 829.375,1052.3906 Q829.1406,1052.6563 828.7656,1052.6563 Q828.4219,1052.6563 828.2188,1052.4531 Q828.0156,1052.2656 827.9063,1051.75 Q827.8594,1051.3906 827.6719,1051.2031 Q827.3438,1050.8281 826.7344,1050.6094 Q826.125,1050.3906 825.5,1050.3906 Q824.7344,1050.3906 824.0938,1050.7188 Q823.4688,1051.0469 822.9688,1051.7969 Q822.4844,1052.5469 822.4844,1053.5781 L822.4844,1054.6719 Q822.4844,1055.9063 823.375,1056.7344 Q824.2656,1057.5469 825.8594,1057.5469 Q826.7969,1057.5469 827.4531,1057.2969 Q827.8438,1057.1406 828.2656,1056.7031 Q828.5313,1056.4375 828.6719,1056.3594 Q828.8281,1056.2813 829.0313,1056.2813 Q829.3594,1056.2813 829.6094,1056.5469 Q829.875,1056.7969 829.875,1057.1406 Q829.875,1057.4844 829.5313,1057.8906 Q829.0313,1058.4688 828.2344,1058.7969 Q827.1563,1059.25 825.8594,1059.25 Q824.3438,1059.25 823.1406,1058.625 Q822.1563,1058.125 821.4688,1057.0625 Q820.7813,1055.9844 820.7813,1054.7031 L820.7813,1053.5469 Q820.7813,1052.2188 821.3906,1051.0781 Q822.0156,1049.9219 823.1094,1049.3125 Q824.2031,1048.6875 825.4375,1048.6875 Q826.1719,1048.6875 826.8125,1048.8594 Q827.4688,1049.0156 828.0156,1049.375 Z " fill="#000000"/><text fill="#000000" font-family="sans-serif" font-size="14" lengthAdjust="spacing" textLength="46" x="845.75" y="1059.2285">Answer</text><line style="stroke:#181818;stroke-width:0.5;" x1="778" x2="927" y1="1069.5" y2="1069.5"/><rect fill="none" height="6" style="stroke:#C82930;stroke-width:1.0;" width="6" x="785" y="1080.8047"/><text fill="#000000" font-family="sans-serif" font-size="14" lengthAdjust="spacing" textLength="107" x="797" y="1088.0332">correct : boolean</text><rect fill="none" height="6" style="stroke:#C82930;stroke-width:1.0;" width="6" x="785" y="1098.4141"/><text fill="#000000" font-family="sans-serif" font-size="14" lengthAdjust="spacing" textLength="125" x="797" y="1105.6426">evaluated : boolean</text><line style="stroke:#181818;stroke-width:0.5;" x1="778" x2="927" y1="1112.7188" y2="1112.7188"/></g><!--class EducationPlatform--><g id="elem_EducationPlatform"><rect fill="#F1F1F1" height="48" id="EducationPlatform" rx="2.5" ry="2.5" style="stroke:#181818;stroke-width:0.5;" width="147" x="351" y="7"/><ellipse cx="366" cy="23" fill="#ADD1B2" rx="11" ry="11" style="stroke:#181818;stroke-width:1.0;"/><path d="M368.7656,18.875 Q368.9219,18.6563 369.1094,18.5469 Q369.2969,18.4375 369.5156,18.4375 Q369.8906,18.4375 370.125,18.7031 Q370.3594,18.9531 370.3594,19.5625 L370.3594,21.0156 Q370.3594,21.625 370.125,21.8906 Q369.8906,22.1563 369.5156,22.1563 Q369.1719,22.1563 368.9688,21.9531 Q368.7656,21.7656 368.6563,21.25 Q368.6094,20.8906 368.4219,20.7031 Q368.0938,20.3281 367.4844,20.1094 Q366.875,19.8906 366.25,19.8906 Q365.4844,19.8906 364.8438,20.2188 Q364.2188,20.5469 363.7188,21.2969 Q363.2344,22.0469 363.2344,23.0781 L363.2344,24.1719 Q363.2344,25.4063 364.125,26.2344 Q365.0156,27.0469 366.6094,27.0469 Q367.5469,27.0469 368.2031,26.7969 Q368.5938,26.6406 369.0156,26.2031 Q369.2813,25.9375 369.4219,25.8594 Q369.5781,25.7813 369.7813,25.7813 Q370.1094,25.7813 370.3594,26.0469 Q370.625,26.2969 370.625,26.6406 Q370.625,26.9844 370.2813,27.3906 Q369.7813,27.9688 368.9844,28.2969 Q367.9063,28.75 366.6094,28.75 Q365.0938,28.75 363.8906,28.125 Q362.9063,27.625 362.2188,26.5625 Q361.5313,25.4844 361.5313,24.2031 L361.5313,23.0469 Q361.5313,21.7188 362.1406,20.5781 Q362.7656,19.4219 363.8594,18.8125 Q364.9531,18.1875 366.1875,18.1875 Q366.9219,18.1875 367.5625,18.3594 Q368.2188,18.5156 368.7656,18.875 Z " fill="#000000"/><text fill="#000000" font-family="sans-serif" font-size="14" lengthAdjust="spacing" textLength="115" x="380" y="28.7285">EducationPlatform</text><line style="stroke:#181818;stroke-width:0.5;" x1="352" x2="497" y1="39" y2="39"/><line style="stroke:#181818;stroke-width:0.5;" x1="352" x2="497" y1="47" y2="47"/></g><!--class Teacher--><g id="elem_Teacher"><rect fill="#F1F1F1" height="48" id="Teacher" rx="2.5" ry="2.5" style="stroke:#181818;stroke-width:0.5;" width="85" x="173" y="253"/><ellipse cx="188" cy="269" fill="#ADD1B2" rx="11" ry="11" style="stroke:#181818;stroke-width:1.0;"/><path d="M190.7656,264.875 Q190.9219,264.6563 191.1094,264.5469 Q191.2969,264.4375 191.5156,264.4375 Q191.8906,264.4375 192.125,264.7031 Q192.3594,264.9531 192.3594,265.5625 L192.3594,267.0156 Q192.3594,267.625 192.125,267.8906 Q191.8906,268.1563 191.5156,268.1563 Q191.1719,268.1563 190.9688,267.9531 Q190.7656,267.7656 190.6563,267.25 Q190.6094,266.8906 190.4219,266.7031 Q190.0938,266.3281 189.4844,266.1094 Q188.875,265.8906 188.25,265.8906 Q187.4844,265.8906 186.8438,266.2188 Q186.2188,266.5469 185.7188,267.2969 Q185.2344,268.0469 185.2344,269.0781 L185.2344,270.1719 Q185.2344,271.4063 186.125,272.2344 Q187.0156,273.0469 188.6094,273.0469 Q189.5469,273.0469 190.2031,272.7969 Q190.5938,272.6406 191.0156,272.2031 Q191.2813,271.9375 191.4219,271.8594 Q191.5781,271.7813 191.7813,271.7813 Q192.1094,271.7813 192.3594,272.0469 Q192.625,272.2969 192.625,272.6406 Q192.625,272.9844 192.2813,273.3906 Q191.7813,273.9688 190.9844,274.2969 Q189.9063,274.75 188.6094,274.75 Q187.0938,274.75 185.8906,274.125 Q184.9063,273.625 184.2188,272.5625 Q183.5313,271.4844 183.5313,270.2031 L183.5313,269.0469 Q183.5313,267.7188 184.1406,266.5781 Q184.7656,265.4219 185.8594,264.8125 Q186.9531,264.1875 188.1875,264.1875 Q188.9219,264.1875 189.5625,264.3594 Q190.2188,264.5156 190.7656,264.875 Z " fill="#000000"/><text fill="#000000" font-family="sans-serif" font-size="14" lengthAdjust="spacing" textLength="53" x="202" y="274.7285">Teacher</text><line style="stroke:#181818;stroke-width:0.5;" x1="174" x2="257" y1="285" y2="285"/><line style="stroke:#181818;stroke-width:0.5;" x1="174" x2="257" y1="293" y2="293"/></g><!--class Student--><g id="elem_Student"><rect fill="#F1F1F1" height="48" id="Student" rx="2.5" ry="2.5" style="stroke:#181818;stroke-width:0.5;" width="81" x="712" y="121.5"/><ellipse cx="727" cy="137.5" fill="#ADD1B2" rx="11" ry="11" style="stroke:#181818;stroke-width:1.0;"/><path d="M729.7656,133.375 Q729.9219,133.1563 730.1094,133.0469 Q730.2969,132.9375 730.5156,132.9375 Q730.8906,132.9375 731.125,133.2031 Q731.3594,133.4531 731.3594,134.0625 L731.3594,135.5156 Q731.3594,136.125 731.125,136.3906 Q730.8906,136.6563 730.5156,136.6563 Q730.1719,136.6563 729.9688,136.4531 Q729.7656,136.2656 729.6563,135.75 Q729.6094,135.3906 729.4219,135.2031 Q729.0938,134.8281 728.4844,134.6094 Q727.875,134.3906 727.25,134.3906 Q726.4844,134.3906 725.8438,134.7188 Q725.2188,135.0469 724.7188,135.7969 Q724.2344,136.5469 724.2344,137.5781 L724.2344,138.6719 Q724.2344,139.9063 725.125,140.7344 Q726.0156,141.5469 727.6094,141.5469 Q728.5469,141.5469 729.2031,141.2969 Q729.5938,141.1406 730.0156,140.7031 Q730.2813,140.4375 730.4219,140.3594 Q730.5781,140.2813 730.7813,140.2813 Q731.1094,140.2813 731.3594,140.5469 Q731.625,140.7969 731.625,141.1406 Q731.625,141.4844 731.2813,141.8906 Q730.7813,142.4688 729.9844,142.7969 Q728.9063,143.25 727.6094,143.25 Q726.0938,143.25 724.8906,142.625 Q723.9063,142.125 723.2188,141.0625 Q722.5313,139.9844 722.5313,138.7031 L722.5313,137.5469 Q722.5313,136.2188 723.1406,135.0781 Q723.7656,133.9219 724.8594,133.3125 Q725.9531,132.6875 727.1875,132.6875 Q727.9219,132.6875 728.5625,132.8594 Q729.2188,133.0156 729.7656,133.375 Z " fill="#000000"/><text fill="#000000" font-family="sans-serif" font-size="14" lengthAdjust="spacing" textLength="49" x="741" y="143.2285">Student</text><line style="stroke:#181818;stroke-width:0.5;" x1="713" x2="792" y1="153.5" y2="153.5"/><line style="stroke:#181818;stroke-width:0.5;" x1="713" x2="792" y1="161.5" y2="161.5"/></g><!--class Chat--><g id="elem_Chat"><rect fill="#F1F1F1" height="48" id="Chat" rx="2.5" ry="2.5" style="stroke:#181818;stroke-width:0.5;" width="62" x="647.5" y="253"/><ellipse cx="662.5" cy="269" fill="#ADD1B2" rx="11" ry="11" style="stroke:#181818;stroke-width:1.0;"/><path d="M665.2656,264.875 Q665.4219,264.6563 665.6094,264.5469 Q665.7969,264.4375 666.0156,264.4375 Q666.3906,264.4375 666.625,264.7031 Q666.8594,264.9531 666.8594,265.5625 L666.8594,267.0156 Q666.8594,267.625 666.625,267.8906 Q666.3906,268.1563 666.0156,268.1563 Q665.6719,268.1563 665.4688,267.9531 Q665.2656,267.7656 665.1563,267.25 Q665.1094,266.8906 664.9219,266.7031 Q664.5938,266.3281 663.9844,266.1094 Q663.375,265.8906 662.75,265.8906 Q661.9844,265.8906 661.3438,266.2188 Q660.7188,266.5469 660.2188,267.2969 Q659.7344,268.0469 659.7344,269.0781 L659.7344,270.1719 Q659.7344,271.4063 660.625,272.2344 Q661.5156,273.0469 663.1094,273.0469 Q664.0469,273.0469 664.7031,272.7969 Q665.0938,272.6406 665.5156,272.2031 Q665.7813,271.9375 665.9219,271.8594 Q666.0781,271.7813 666.2813,271.7813 Q666.6094,271.7813 666.8594,272.0469 Q667.125,272.2969 667.125,272.6406 Q667.125,272.9844 666.7813,273.3906 Q666.2813,273.9688 665.4844,274.2969 Q664.4063,274.75 663.1094,274.75 Q661.5938,274.75 660.3906,274.125 Q659.4063,273.625 658.7188,272.5625 Q658.0313,271.4844 658.0313,270.2031 L658.0313,269.0469 Q658.0313,267.7188 658.6406,266.5781 Q659.2656,265.4219 660.3594,264.8125 Q661.4531,264.1875 662.6875,264.1875 Q663.4219,264.1875 664.0625,264.3594 Q664.7188,264.5156 665.2656,264.875 Z " fill="#000000"/><text fill="#000000" font-family="sans-serif" font-size="14" lengthAdjust="spacing" textLength="30" x="676.5" y="274.7285">Chat</text><line style="stroke:#181818;stroke-width:0.5;" x1="648.5" x2="708.5" y1="285" y2="285"/><line style="stroke:#181818;stroke-width:0.5;" x1="648.5" x2="708.5" y1="293" y2="293"/></g><!--class Open--><g id="elem_Open"><rect fill="#F1F1F1" height="48" id="Open" rx="2.5" ry="2.5" style="stroke:#181818;stroke-width:0.5;" width="67" x="906" y="1199"/><ellipse cx="921" cy="1215" fill="#ADD1B2" rx="11" ry="11" style="stroke:#181818;stroke-width:1.0;"/><path d="M923.7656,1210.875 Q923.9219,1210.6563 924.1094,1210.5469 Q924.2969,1210.4375 924.5156,1210.4375 Q924.8906,1210.4375 925.125,1210.7031 Q925.3594,1210.9531 925.3594,1211.5625 L925.3594,1213.0156 Q925.3594,1213.625 925.125,1213.8906 Q924.8906,1214.1563 924.5156,1214.1563 Q924.1719,1214.1563 923.9688,1213.9531 Q923.7656,1213.7656 923.6563,1213.25 Q923.6094,1212.8906 923.4219,1212.7031 Q923.0938,1212.3281 922.4844,1212.1094 Q921.875,1211.8906 921.25,1211.8906 Q920.4844,1211.8906 919.8438,1212.2188 Q919.2188,1212.5469 918.7188,1213.2969 Q918.2344,1214.0469 918.2344,1215.0781 L918.2344,1216.1719 Q918.2344,1217.4063 919.125,1218.2344 Q920.0156,1219.0469 921.6094,1219.0469 Q922.5469,1219.0469 923.2031,1218.7969 Q923.5938,1218.6406 924.0156,1218.2031 Q924.2813,1217.9375 924.4219,1217.8594 Q924.5781,1217.7813 924.7813,1217.7813 Q925.1094,1217.7813 925.3594,1218.0469 Q925.625,1218.2969 925.625,1218.6406 Q925.625,1218.9844 925.2813,1219.3906 Q924.7813,1219.9688 923.9844,1220.2969 Q922.9063,1220.75 921.6094,1220.75 Q920.0938,1220.75 918.8906,1220.125 Q917.9063,1219.625 917.2188,1218.5625 Q916.5313,1217.4844 916.5313,1216.2031 L916.5313,1215.0469 Q916.5313,1213.7188 917.1406,1212.5781 Q917.7656,1211.4219 918.8594,1210.8125 Q919.9531,1210.1875 921.1875,1210.1875 Q921.9219,1210.1875 922.5625,1210.3594 Q923.2188,1210.5156 923.7656,1210.875 Z " fill="#000000"/><text fill="#000000" font-family="sans-serif" font-size="14" lengthAdjust="spacing" textLength="35" x="935" y="1220.7285">Open</text><line style="stroke:#181818;stroke-width:0.5;" x1="907" x2="972" y1="1231" y2="1231"/><line style="stroke:#181818;stroke-width:0.5;" x1="907" x2="972" y1="1239" y2="1239"/></g><!--class MultipleChoice--><g id="elem_MultipleChoice"><rect fill="#F1F1F1" height="48" id="MultipleChoice" rx="2.5" ry="2.5" style="stroke:#181818;stroke-width:0.5;" width="124" x="675.5" y="1199"/><ellipse cx="690.5" cy="1215" fill="#ADD1B2" rx="11" ry="11" style="stroke:#181818;stroke-width:1.0;"/><path d="M693.2656,1210.875 Q693.4219,1210.6563 693.6094,1210.5469 Q693.7969,1210.4375 694.0156,1210.4375 Q694.3906,1210.4375 694.625,1210.7031 Q694.8594,1210.9531 694.8594,1211.5625 L694.8594,1213.0156 Q694.8594,1213.625 694.625,1213.8906 Q694.3906,1214.1563 694.0156,1214.1563 Q693.6719,1214.1563 693.4688,1213.9531 Q693.2656,1213.7656 693.1563,1213.25 Q693.1094,1212.8906 692.9219,1212.7031 Q692.5938,1212.3281 691.9844,1212.1094 Q691.375,1211.8906 690.75,1211.8906 Q689.9844,1211.8906 689.3438,1212.2188 Q688.7188,1212.5469 688.2188,1213.2969 Q687.7344,1214.0469 687.7344,1215.0781 L687.7344,1216.1719 Q687.7344,1217.4063 688.625,1218.2344 Q689.5156,1219.0469 691.1094,1219.0469 Q692.0469,1219.0469 692.7031,1218.7969 Q693.0938,1218.6406 693.5156,1218.2031 Q693.7813,1217.9375 693.9219,1217.8594 Q694.0781,1217.7813 694.2813,1217.7813 Q694.6094,1217.7813 694.8594,1218.0469 Q695.125,1218.2969 695.125,1218.6406 Q695.125,1218.9844 694.7813,1219.3906 Q694.2813,1219.9688 693.4844,1220.2969 Q692.4063,1220.75 691.1094,1220.75 Q689.5938,1220.75 688.3906,1220.125 Q687.4063,1219.625 686.7188,1218.5625 Q686.0313,1217.4844 686.0313,1216.2031 L686.0313,1215.0469 Q686.0313,1213.7188 686.6406,1212.5781 Q687.2656,1211.4219 688.3594,1210.8125 Q689.4531,1210.1875 690.6875,1210.1875 Q691.4219,1210.1875 692.0625,1210.3594 Q692.7188,1210.5156 693.2656,1210.875 Z " fill="#000000"/><text fill="#000000" font-family="sans-serif" font-size="14" lengthAdjust="spacing" textLength="92" x="704.5" y="1220.7285">MultipleChoice</text><line style="stroke:#181818;stroke-width:0.5;" x1="676.5" x2="798.5" y1="1231" y2="1231"/><line style="stroke:#181818;stroke-width:0.5;" x1="676.5" x2="798.5" y1="1239" y2="1239"/></g><g id="elem_GMN46"><path d="M590.5,116 L590.5,175.0547 A0,0 0 0 0 590.5,175.0547 L676.5,175.0547 A0,0 0 0 0 676.5,175.0547 L676.5,149.5 L711.95,145.5 L676.5,141.5 L676.5,126 L666.5,116 L590.5,116 A0,0 0 0 0 590.5,116 " fill="#FEFFDD" style="stroke:#181818;stroke-width:0.5;"/><path d="M666.5,116 L666.5,126 L676.5,126 L666.5,116 " fill="#FEFFDD" style="stroke:#181818;stroke-width:0.5;"/><text fill="#000000" font-family="sans-serif" font-size="13" lengthAdjust="spacing" textLength="62" x="596.5" y="134.4951">Editor only</text><text fill="#000000" font-family="sans-serif" font-size="13" lengthAdjust="spacing" textLength="61" x="596.5" y="150.8467">for custom</text><text fill="#000000" font-family="sans-serif" font-size="13" lengthAdjust="spacing" textLength="56" x="596.5" y="167.1982">itineraries</text></g><!--class Relation--><g id="elem_Relation"><rect codeLine="139" fill="#F1F1F1" height="65.6094" id="Relation" rx="2.5" ry="2.5" style="stroke:#181818;stroke-width:0.5;" width="149" x="499" y="1360"/><ellipse cx="543.25" cy="1376" fill="#ADD1B2" rx="11" ry="11" style="stroke:#181818;stroke-width:1.0;"/><path d="M546.0156,1371.875 Q546.1719,1371.6563 546.3594,1371.5469 Q546.5469,1371.4375 546.7656,1371.4375 Q547.1406,1371.4375 547.375,1371.7031 Q547.6094,1371.9531 547.6094,1372.5625 L547.6094,1374.0156 Q547.6094,1374.625 547.375,1374.8906 Q547.1406,1375.1563 546.7656,1375.1563 Q546.4219,1375.1563 546.2188,1374.9531 Q546.0156,1374.7656 545.9063,1374.25 Q545.8594,1373.8906 545.6719,1373.7031 Q545.3438,1373.3281 544.7344,1373.1094 Q544.125,1372.8906 543.5,1372.8906 Q542.7344,1372.8906 542.0938,1373.2188 Q541.4688,1373.5469 540.9688,1374.2969 Q540.4844,1375.0469 540.4844,1376.0781 L540.4844,1377.1719 Q540.4844,1378.4063 541.375,1379.2344 Q542.2656,1380.0469 543.8594,1380.0469 Q544.7969,1380.0469 545.4531,1379.7969 Q545.8438,1379.6406 546.2656,1379.2031 Q546.5313,1378.9375 546.6719,1378.8594 Q546.8281,1378.7813 547.0313,1378.7813 Q547.3594,1378.7813 547.6094,1379.0469 Q547.875,1379.2969 547.875,1379.6406 Q547.875,1379.9844 547.5313,1380.3906 Q547.0313,1380.9688 546.2344,1381.2969 Q545.1563,1381.75 543.8594,1381.75 Q542.3438,1381.75 541.1406,1381.125 Q540.1563,1380.625 539.4688,1379.5625 Q538.7813,1378.4844 538.7813,1377.2031 L538.7813,1376.0469 Q538.7813,1374.7188 539.3906,1373.5781 Q540.0156,1372.4219 541.1094,1371.8125 Q542.2031,1371.1875 543.4375,1371.1875 Q544.1719,1371.1875 544.8125,1371.3594 Q545.4688,1371.5156 546.0156,1371.875 Z " fill="#000000"/><text fill="#000000" font-family="sans-serif" font-size="14" lengthAdjust="spacing" textLength="52" x="563.75" y="1381.7285">Relation</text><line style="stroke:#181818;stroke-width:0.5;" x1="500" x2="647" y1="1392" y2="1392"/><rect fill="none" height="6" style="stroke:#C82930;stroke-width:1.0;" width="6" x="507" y="1403.3047"/><text fill="#000000" font-family="sans-serif" font-size="14" lengthAdjust="spacing" textLength="123" x="519" y="1410.5332">type : RelationType</text><line style="stroke:#181818;stroke-width:0.5;" x1="500" x2="647" y1="1417.6094" y2="1417.6094"/></g><!--class RelationType--><g id="elem_RelationType"><rect codeLine="131" fill="#F1F1F1" height="136.0469" id="RelationType" rx="2.5" ry="2.5" style="stroke:#181818;stroke-width:0.5;" width="116" x="683.5" y="1325"/><ellipse cx="698.5" cy="1341" fill="#EB937F" rx="11" ry="11" style="stroke:#181818;stroke-width:1.0;"/><path d="M697.3594,1341.7969 L697.3594,1344.2969 L701.6875,1344.2969 L701.6875,1343.375 Q701.6875,1342.7656 701.9219,1342.5 Q702.1719,1342.2344 702.5469,1342.2344 Q702.9219,1342.2344 703.1563,1342.5 Q703.3906,1342.7656 703.3906,1343.375 L703.3906,1346 L695.3906,1346 Q694.7656,1346 694.5,1345.7656 Q694.25,1345.5313 694.25,1345.1406 Q694.25,1344.7656 694.5156,1344.5313 Q694.7813,1344.2969 695.3906,1344.2969 L695.6563,1344.2969 L695.6563,1337.6406 L695.3906,1337.6406 Q694.7656,1337.6406 694.5,1337.4063 Q694.25,1337.1719 694.25,1336.7813 Q694.25,1336.4063 694.5,1336.1719 Q694.7656,1335.9375 695.3906,1335.9375 L703.0156,1335.9375 L703.0156,1338.5313 Q703.0156,1339.1406 702.7813,1339.4063 Q702.5625,1339.6563 702.1719,1339.6563 Q701.7969,1339.6563 701.5625,1339.4063 Q701.3281,1339.1406 701.3281,1338.5313 L701.3281,1337.6406 L697.3594,1337.6406 L697.3594,1340.0938 L698.8438,1340.0938 Q698.8438,1339.4375 698.9688,1339.25 Q699.2344,1338.8438 699.7031,1338.8438 Q700.0781,1338.8438 700.3125,1339.1094 Q700.5469,1339.3594 700.5469,1339.9688 L700.5469,1341.9375 Q700.5469,1342.4844 700.4219,1342.6719 Q700.1563,1343.0625 699.7031,1343.0625 Q699.2344,1343.0625 698.9688,1342.6563 Q698.8438,1342.4688 698.8438,1341.7969 L697.3594,1341.7969 Z " fill="#000000"/><text fill="#000000" font-family="sans-serif" font-size="14" lengthAdjust="spacing" textLength="84" x="712.5" y="1346.7285">RelationType</text><line style="stroke:#181818;stroke-width:0.5;" x1="684.5" x2="798.5" y1="1357" y2="1357"/><text fill="#000000" font-family="sans-serif" font-size="14" lengthAdjust="spacing" textLength="24" x="689.5" y="1375.5332">Use</text><text fill="#000000" font-family="sans-serif" font-size="14" lengthAdjust="spacing" textLength="72" x="689.5" y="1393.1426">Association</text><text fill="#000000" font-family="sans-serif" font-size="14" lengthAdjust="spacing" textLength="78" x="689.5" y="1410.752">Composition</text><text fill="#000000" font-family="sans-serif" font-size="14" lengthAdjust="spacing" textLength="70" x="689.5" y="1428.3613">Inheritance</text><text fill="#000000" font-family="sans-serif" font-size="14" lengthAdjust="spacing" textLength="77" x="689.5" y="1445.9707">Aggregation</text><line style="stroke:#181818;stroke-width:0.5;" x1="684.5" x2="798.5" y1="1453.0469" y2="1453.0469"/></g><!--class Podcast--><g id="elem_Podcast"><rect fill="#F1F1F1" height="48" id="Podcast" rx="2.5" ry="2.5" style="stroke:#181818;stroke-width:0.5;" width="83" x="7" y="885"/><ellipse cx="22" cy="901" fill="#ADD1B2" rx="11" ry="11" style="stroke:#181818;stroke-width:1.0;"/><path d="M24.7656,896.875 Q24.9219,896.6563 25.1094,896.5469 Q25.2969,896.4375 25.5156,896.4375 Q25.8906,896.4375 26.125,896.7031 Q26.3594,896.9531 26.3594,897.5625 L26.3594,899.0156 Q26.3594,899.625 26.125,899.8906 Q25.8906,900.1563 25.5156,900.1563 Q25.1719,900.1563 24.9688,899.9531 Q24.7656,899.7656 24.6563,899.25 Q24.6094,898.8906 24.4219,898.7031 Q24.0938,898.3281 23.4844,898.1094 Q22.875,897.8906 22.25,897.8906 Q21.4844,897.8906 20.8438,898.2188 Q20.2188,898.5469 19.7188,899.2969 Q19.2344,900.0469 19.2344,901.0781 L19.2344,902.1719 Q19.2344,903.4063 20.125,904.2344 Q21.0156,905.0469 22.6094,905.0469 Q23.5469,905.0469 24.2031,904.7969 Q24.5938,904.6406 25.0156,904.2031 Q25.2813,903.9375 25.4219,903.8594 Q25.5781,903.7813 25.7813,903.7813 Q26.1094,903.7813 26.3594,904.0469 Q26.625,904.2969 26.625,904.6406 Q26.625,904.9844 26.2813,905.3906 Q25.7813,905.9688 24.9844,906.2969 Q23.9063,906.75 22.6094,906.75 Q21.0938,906.75 19.8906,906.125 Q18.9063,905.625 18.2188,904.5625 Q17.5313,903.4844 17.5313,902.2031 L17.5313,901.0469 Q17.5313,899.7188 18.1406,898.5781 Q18.7656,897.4219 19.8594,896.8125 Q20.9531,896.1875 22.1875,896.1875 Q22.9219,896.1875 23.5625,896.3594 Q24.2188,896.5156 24.7656,896.875 Z " fill="#000000"/><text fill="#000000" font-family="sans-serif" font-size="14" lengthAdjust="spacing" textLength="51" x="36" y="906.7285">Podcast</text><line style="stroke:#181818;stroke-width:0.5;" x1="8" x2="89" y1="917" y2="917"/><line style="stroke:#181818;stroke-width:0.5;" x1="8" x2="89" y1="925" y2="925"/></g><!--class Video--><g id="elem_Video"><rect fill="#F1F1F1" height="48" id="Video" rx="2.5" ry="2.5" style="stroke:#181818;stroke-width:0.5;" width="68" x="125.5" y="885"/><ellipse cx="140.5" cy="901" fill="#ADD1B2" rx="11" ry="11" style="stroke:#181818;stroke-width:1.0;"/><path d="M143.2656,896.875 Q143.4219,896.6563 143.6094,896.5469 Q143.7969,896.4375 144.0156,896.4375 Q144.3906,896.4375 144.625,896.7031 Q144.8594,896.9531 144.8594,897.5625 L144.8594,899.0156 Q144.8594,899.625 144.625,899.8906 Q144.3906,900.1563 144.0156,900.1563 Q143.6719,900.1563 143.4688,899.9531 Q143.2656,899.7656 143.1563,899.25 Q143.1094,898.8906 142.9219,898.7031 Q142.5938,898.3281 141.9844,898.1094 Q141.375,897.8906 140.75,897.8906 Q139.9844,897.8906 139.3438,898.2188 Q138.7188,898.5469 138.2188,899.2969 Q137.7344,900.0469 137.7344,901.0781 L137.7344,902.1719 Q137.7344,903.4063 138.625,904.2344 Q139.5156,905.0469 141.1094,905.0469 Q142.0469,905.0469 142.7031,904.7969 Q143.0938,904.6406 143.5156,904.2031 Q143.7813,903.9375 143.9219,903.8594 Q144.0781,903.7813 144.2813,903.7813 Q144.6094,903.7813 144.8594,904.0469 Q145.125,904.2969 145.125,904.6406 Q145.125,904.9844 144.7813,905.3906 Q144.2813,905.9688 143.4844,906.2969 Q142.4063,906.75 141.1094,906.75 Q139.5938,906.75 138.3906,906.125 Q137.4063,905.625 136.7188,904.5625 Q136.0313,903.4844 136.0313,902.2031 L136.0313,901.0469 Q136.0313,899.7188 136.6406,898.5781 Q137.2656,897.4219 138.3594,896.8125 Q139.4531,896.1875 140.6875,896.1875 Q141.4219,896.1875 142.0625,896.3594 Q142.7188,896.5156 143.2656,896.875 Z " fill="#000000"/><text fill="#000000" font-family="sans-serif" font-size="14" lengthAdjust="spacing" textLength="36" x="154.5" y="906.7285">Video</text><line style="stroke:#181818;stroke-width:0.5;" x1="126.5" x2="192.5" y1="917" y2="917"/><line style="stroke:#181818;stroke-width:0.5;" x1="126.5" x2="192.5" y1="925" y2="925"/></g><!--link EducationPlatform to Teacher--><g id="link_EducationPlatform_Teacher"><path codeLine="68" d="M339.2553,48.3989 C313.5053,56.1989 297.75,65.17 278.5,85 C232.78,132.1 220.7469,207.0523 217.3169,246.7223 " fill="none" id="EducationPlatform-Teacher" style="stroke:#181818;stroke-width:1.0;"/><polygon fill="#181818" points="350.74,44.92,343.838,42.8312,339.2553,48.3989,346.1573,50.4876,350.74,44.92" style="stroke:#181818;stroke-width:1.0;"/><polygon fill="#181818" points="216.8,252.7,221.5604,244.078,217.2307,247.7186,213.5901,243.3889,216.8,252.7" style="stroke:#181818;stroke-width:1.0;"/><text fill="#000000" font-family="sans-serif" font-size="13" lengthAdjust="spacing" textLength="8" x="208.1081" y="241.9633">+</text></g><!--link EducationPlatform to Student--><g id="link_EducationPlatform_Student"><path codeLine="69" d="M509.6046,54.7791 C564.5046,70.1691 629.4,90.06 694.5,116 C700.23,118.28 700.7441,118.3601 706.5441,121.0701 " fill="none" id="EducationPlatform-Student" style="stroke:#181818;stroke-width:1.0;"/><polygon fill="#181818" points="498.05,51.54,502.7476,57.0111,509.6046,54.7791,504.907,49.308,498.05,51.54" style="stroke:#181818;stroke-width:1.0;"/><polygon fill="#181818" points="711.98,123.61,705.5194,116.1762,707.4501,121.4934,702.1329,123.4241,711.98,123.61" style="stroke:#181818;stroke-width:1.0;"/><text fill="#000000" font-family="sans-serif" font-size="13" lengthAdjust="spacing" textLength="8" x="696.0499" y="115.8123">+</text></g><!--link EducationPlatform to Topic--><g id="link_EducationPlatform_Topic"><path codeLine="70" d="M434.5924,66.6176 C437.1424,75.8576 436.66,75.08 438.5,85 C469.02,249.83 486.58,305.13 427.5,462 C419.45,483.38 410.0819,499.5896 396.7419,517.9096 " fill="none" id="EducationPlatform-Topic" style="stroke:#181818;stroke-width:1.0;"/><polygon fill="#181818" points="431.4,55.05,429.1403,61.8979,434.5924,66.6176,436.852,59.7697,431.4,55.05" style="stroke:#181818;stroke-width:1.0;"/><polygon fill="#181818" points="393.21,522.76,401.7414,517.839,396.1532,518.718,395.2742,513.1299,393.21,522.76" style="stroke:#181818;stroke-width:1.0;"/></g><!--link EducationPlatform to Itinerary--><g id="link_EducationPlatform_Itinerary"><path codeLine="71" d="M416.6811,66.9107 C409.2611,100.0907 397.9,151.31 386.5,205 C373.67,265.43 360.5867,329.6885 351.8767,372.8585 " fill="none" id="EducationPlatform-Itinerary" style="stroke:#181818;stroke-width:1.0;"/><polygon fill="#181818" points="419.3,55.2,414.087,60.1824,416.6811,66.9107,421.8942,61.9283,419.3,55.2" style="stroke:#181818;stroke-width:1.0;"/><polygon fill="#181818" points="350.69,378.74,356.391,370.7089,351.6789,373.8388,348.549,369.1267,350.69,378.74" style="stroke:#181818;stroke-width:1.0;"/><text fill="#000000" font-family="sans-serif" font-size="13" lengthAdjust="spacing" textLength="59" x="387.5" y="219.4951">predefined</text></g><!--link EducationPlatform to Itinerary--><g id="link_EducationPlatform_Itinerary"><path codeLine="72" d="M399.7963,64.7107 C376.7063,96.4207 344.48,146.58 329.5,205 C314.34,264.09 322.6585,329.3095 331.5085,372.9895 " fill="none" id="EducationPlatform-Itinerary-1" style="stroke:#181818;stroke-width:1.0;"/><polygon fill="none" points="406.86,55.01,400.0946,57.5058,399.7963,64.7107,406.5617,62.2149,406.86,55.01" style="stroke:#181818;stroke-width:1.0;"/><polygon fill="#181818" points="332.7,378.87,334.8332,369.2549,331.7071,373.9696,326.9925,370.8435,332.7,378.87" style="stroke:#181818;stroke-width:1.0;"/><text fill="#000000" font-family="sans-serif" font-size="13" lengthAdjust="spacing" textLength="43" x="330.5" y="219.4951">custom</text><text fill="#000000" font-family="sans-serif" font-size="13" lengthAdjust="spacing" textLength="5" x="325.6628" y="368.1561">*</text></g><!--link EducationPlatform to Chat--><g id="link_EducationPlatform_Chat"><path codeLine="73" d="M466.1348,62.443 C477.8148,71.343 481.33,74.59 492.5,85 C531.87,121.68 536.08,136.32 573.5,175 C600.06,202.45 627.4246,228.5651 649.0146,248.7251 " fill="none" id="EducationPlatform-Chat" style="stroke:#181818;stroke-width:1.0;"/><polygon fill="none" points="456.59,55.17,458.9381,61.9881,466.1348,62.443,463.7867,55.6249,456.59,55.17" style="stroke:#181818;stroke-width:1.0;"/><polygon fill="#181818" points="653.4,252.82,649.5519,243.754,649.7455,249.4076,644.092,249.6012,653.4,252.82" style="stroke:#181818;stroke-width:1.0;"/></g><!--link Chat to Excercise--><g id="link_Chat_Excercise"><path codeLine="74" d="M673.9503,313.1408 C663.8303,391.3608 633.3797,626.6996 623.2697,704.8596 " fill="none" id="Chat-Excercise" style="stroke:#181818;stroke-width:1.0;"/><polygon fill="none" points="675.49,301.24,670.7532,306.6772,673.9503,313.1408,678.6871,307.7036,675.49,301.24" style="stroke:#181818;stroke-width:1.0;"/><polygon fill="#181818" points="622.5,710.81,627.6215,702.3975,623.1414,705.8513,619.6876,701.3712,622.5,710.81" style="stroke:#181818;stroke-width:1.0;"/><text fill="#000000" font-family="sans-serif" font-size="13" lengthAdjust="spacing" textLength="8" x="614.2438" y="700.1015">+</text></g><!--link Student to Chat--><g id="link_Student_Chat"><path codeLine="79" d="M739.27,169.65 C725.88,193.08 708.2778,223.8911 694.8378,247.4011 " fill="none" id="Student-to-Chat" style="stroke:#181818;stroke-width:1.0;stroke-dasharray:7.0,7.0;"/><polygon fill="#181818" points="691.86,252.61,699.7993,246.7818,694.3415,248.2692,692.8541,242.8114,691.86,252.61" style="stroke:#181818;stroke-width:1.0;"/></g><!--link Answer to Student--><g id="link_Answer_Student"><path codeLine="80" d="M823.65,1037.32 C803.24,1004.54 779.5,956.43 779.5,910 C779.5,276 779.5,276 779.5,276 C779.5,238.11 770.0591,200.9902 762.0891,175.3202 " fill="none" id="Answer-to-Student" style="stroke:#181818;stroke-width:1.0;stroke-dasharray:7.0,7.0;"/><polygon fill="#181818" points="760.31,169.59,759.1585,179.3713,761.7926,174.3651,766.7988,176.9992,760.31,169.59" style="stroke:#181818;stroke-width:1.0;"/></g><!--reverse link Excercise to Domain--><g id="link_Excercise_Domain"><path codeLine="82" d="M580.3653,771.2464 C543.8153,804.1664 490.65,852.03 454.16,884.9 " fill="none" id="Excercise-backto-Domain" style="stroke:#181818;stroke-width:1.0;"/><polygon fill="none" points="593.74,759.2,576.3498,766.7882,584.3807,775.7047,593.74,759.2" style="stroke:#181818;stroke-width:1.0;"/></g><!--reverse link Excercise to Question--><g id="link_Excercise_Question"><path codeLine="83" d="M619.5,777.2 C619.5,807.27 619.5,841.88 619.5,875.81 " fill="none" id="Excercise-backto-Question" style="stroke:#181818;stroke-width:1.0;"/><polygon fill="none" points="619.5,759.2,613.5,777.2,625.5,777.2,619.5,759.2" style="stroke:#181818;stroke-width:1.0;"/></g><!--link Domain to Application--><g id="link_Domain_Application"><path codeLine="85" d="M420.4001,944.8381 C417.8901,956.4281 417.75,959.01 416.5,972 C414.4,993.88 417.4643,1012.0505 423.3043,1031.6205 " fill="none" id="Domain-Application" style="stroke:#181818;stroke-width:1.0;"/><polygon fill="#181818" points="422.94,933.11,417.7607,938.1274,420.4001,944.8381,425.5794,939.8207,422.94,933.11" style="stroke:#181818;stroke-width:1.0;"/><polygon fill="#181818" points="425.02,1037.37,426.2794,1027.602,423.5902,1032.5788,418.6134,1029.8896,425.02,1037.37" style="stroke:#181818;stroke-width:1.0;"/><text fill="#000000" font-family="sans-serif" font-size="13" lengthAdjust="spacing" textLength="75" x="417.5" y="986.4951">requirements</text><text fill="#000000" font-family="sans-serif" font-size="13" lengthAdjust="spacing" textLength="5" x="417.0421" y="1026.6561">*</text></g><!--link Application to Concept--><g id="link_Application_Concept"><path codeLine="86" d="M434.77,1120.69 C431.19,1146.1 427.5455,1171.9385 424.5755,1193.0585 " fill="none" id="Application-to-Concept" style="stroke:#181818;stroke-width:1.0;"/><polygon fill="#181818" points="423.74,1199,428.9543,1190.6447,424.4363,1194.0487,421.0323,1189.5307,423.74,1199" style="stroke:#181818;stroke-width:1.0;"/><text fill="#000000" font-family="sans-serif" font-size="13" lengthAdjust="spacing" textLength="8" x="415.5453" y="1188.3402">+</text></g><!--link Question to Concept--><g id="link_Question_Concept"><path codeLine="91" d="M611.59,942.02 C598.95,988.6 570.79,1076.23 524.5,1138 C506.27,1162.33 484.3924,1180.3437 462.5624,1195.4637 " fill="none" id="Question-to-Concept" style="stroke:#181818;stroke-width:1.0;"/><polygon fill="#181818" points="457.63,1198.88,467.3062,1197.0438,461.7404,1196.0331,462.7511,1190.4672,457.63,1198.88" style="stroke:#181818;stroke-width:1.0;"/><text fill="#000000" font-family="sans-serif" font-size="13" lengthAdjust="spacing" textLength="8" x="458.1196" y="1188.1894">+</text></g><!--link Question to Application--><g id="link_Question_Application"><path codeLine="92" d="M576.93,942.11 C565.17,951.43 552.61,961.85 541.5,972 C518.99,992.58 499.4575,1012.7492 480.7375,1033.0492 " fill="none" id="Question-to-Application" style="stroke:#181818;stroke-width:1.0;"/><polygon fill="#181818" points="476.67,1037.46,485.7118,1033.5554,480.0596,1033.7843,479.8307,1028.1321,476.67,1037.46" style="stroke:#181818;stroke-width:1.0;"/><text fill="#000000" font-family="sans-serif" font-size="13" lengthAdjust="spacing" textLength="5" x="477.2466" y="1026.7611">*</text></g><!--link Question to StatementType--><g id="link_Question_StatementType"><path codeLine="94" d="M634.5956,953.7332 C642.1656,975.6632 646.5111,988.2488 655.4711,1014.1888 " fill="none" id="Question-StatementType" style="stroke:#181818;stroke-width:1.0;"/><polygon fill="#181818" points="630.68,942.39,628.8567,949.3668,634.5956,953.7332,636.4188,946.7564,630.68,942.39" style="stroke:#181818;stroke-width:1.0;"/><polygon fill="#181818" points="657.43,1019.86,658.2724,1010.0472,655.7976,1015.134,650.7108,1012.6591,657.43,1019.86" style="stroke:#181818;stroke-width:1.0;"/></g><!--link Question to Answer--><g id="link_Question_Answer"><path codeLine="95" d="M673.8837,949.2082 C711.4137,976.2682 750.6528,1004.5714 791.1728,1033.7814 " fill="none" id="Question-Answer" style="stroke:#181818;stroke-width:1.0;"/><polygon fill="#181818" points="664.15,942.19,666.6774,948.9437,673.8837,949.2082,671.3562,942.4545,664.15,942.19" style="stroke:#181818;stroke-width:1.0;"/><polygon fill="#181818" points="796.04,1037.29,791.0783,1028.7822,791.984,1034.3661,786.4001,1035.2718,796.04,1037.29" style="stroke:#181818;stroke-width:1.0;"/><text fill="#000000" font-family="sans-serif" font-size="13" lengthAdjust="spacing" textLength="5" x="781.2747" y="1026.5629">*</text></g><!--reverse link Answer to Open--><g id="link_Answer_Open"><path codeLine="96" d="M886.8344,1136.0379 C902.4044,1161.4479 912.47,1177.88 925.41,1199 " fill="none" id="Answer-backto-Open" style="stroke:#181818;stroke-width:1.0;"/><polygon fill="none" points="877.43,1120.69,881.7185,1139.1727,891.9504,1132.9031,877.43,1120.69" style="stroke:#181818;stroke-width:1.0;"/></g><!--reverse link Answer to MultipleChoice--><g id="link_Answer_MultipleChoice"><path codeLine="97" d="M808.2211,1134.6777 C787.6411,1160.0877 773.23,1177.88 756.13,1199 " fill="none" id="Answer-backto-MultipleChoice" style="stroke:#181818;stroke-width:1.0;"/><polygon fill="none" points="819.55,1120.69,803.5585,1130.9014,812.8837,1138.454,819.55,1120.69" style="stroke:#181818;stroke-width:1.0;"/></g><!--link Answer to Justification--><g id="link_Answer_Justification"><path codeLine="98" d="M862.8517,1132.5868 C875.7017,1207.3868 889.93,1356.63 817.5,1461 C788.24,1503.17 740.1904,1525.1873 696.8104,1538.1073 " fill="none" id="Answer-Justification" style="stroke:#181818;stroke-width:1.0;"/><polygon fill="none" points="860.82,1120.76,857.8936,1127.3506,862.8517,1132.5868,865.7781,1125.9961,860.82,1120.76" style="stroke:#181818;stroke-width:1.0;"/><polygon fill="#181818" points="691.06,1539.82,700.8273,1541.0846,695.852,1538.3928,698.5438,1533.4174,691.06,1539.82" style="stroke:#181818;stroke-width:1.0;"/><text fill="#000000" font-family="sans-serif" font-size="13" lengthAdjust="spacing" textLength="83" x="871.5" y="1291.4951">correct = false</text><text fill="#000000" font-family="sans-serif" font-size="13" lengthAdjust="spacing" textLength="7" x="699.1607" y="1534.6778">?</text></g><!--link Teacher to Topic--><g id="link_Teacher_Topic"><path codeLine="102" d="M211.33,301.29 C205.97,337.43 199.94,408.44 223.5,462 C233.44,484.6 245.5471,500.9877 262.9871,518.5077 " fill="none" id="Teacher-to-Topic" style="stroke:#181818;stroke-width:1.0;stroke-dasharray:7.0,7.0;"/><polygon fill="#181818" points="267.22,522.76,263.7055,513.5595,263.6926,519.2164,258.0357,519.2034,267.22,522.76" style="stroke:#181818;stroke-width:1.0;"/><text fill="#000000" font-family="sans-serif" font-size="13" lengthAdjust="spacing" textLength="32" x="224.5" y="425.9951">editor</text></g><!--link Teacher to Itinerary--><g id="link_Teacher_Itinerary"><path codeLine="103" d="M224.2,301.28 C230.39,315.94 239.71,334.72 251.5,349 C260.28,359.63 266.3088,365.8353 277.1988,374.8053 " fill="none" id="Teacher-to-Itinerary" style="stroke:#181818;stroke-width:1.0;stroke-dasharray:7.0,7.0;"/><polygon fill="#181818" points="281.83,378.62,277.4263,369.8105,277.9707,375.4411,272.3401,375.9854,281.83,378.62" style="stroke:#181818;stroke-width:1.0;"/><text fill="#000000" font-family="sans-serif" font-size="13" lengthAdjust="spacing" textLength="32" x="252.5" y="345.4951">editor</text></g><!--link Student to Itinerary--><g id="link_Student_Itinerary"><path codeLine="104" d="M717.9,169.54 C648.3,215.88 495.5942,317.5647 408.3642,375.6447 " fill="none" id="Student-to-Itinerary" style="stroke:#181818;stroke-width:1.0;stroke-dasharray:7.0,7.0;"/><polygon fill="#181818" points="403.37,378.97,413.0782,377.3116,407.5319,376.1989,408.6445,370.6526,403.37,378.97" style="stroke:#181818;stroke-width:1.0;"/><text fill="#000000" font-family="sans-serif" font-size="13" lengthAdjust="spacing" textLength="32" x="588.5" y="282.4951">editor</text></g><!--reverse link Topic to CompositeTopic--><g id="link_Topic_CompositeTopic"><path codeLine="113" d="M378.7341,656.5847 C391.7741,677.1647 397.71,684.34 411.4,701.94 " fill="none" id="Topic-backto-CompositeTopic" style="stroke:#181818;stroke-width:1.0;stroke-dasharray:7.0,7.0;"/><polygon fill="none" points="369.1,641.38,373.6659,659.7961,383.8023,653.3734,369.1,641.38" style="stroke:#181818;stroke-width:1.0;"/></g><!--link CompositeTopic to Topic--><g id="link_CompositeTopic_Topic"><path codeLine="115" d="M427.5241,691.438 C417.7941,673.838 412.7306,666.8615 398.2006,646.2815 " fill="none" id="CompositeTopic-Topic" style="stroke:#181818;stroke-width:1.0;"/><polygon fill="none" points="433.33,701.94,433.9277,694.7537,427.5241,691.438,426.9264,698.6243,433.33,701.94" style="stroke:#181818;stroke-width:1.0;"/><polygon fill="#181818" points="394.74,641.38,396.6632,651.0393,397.6238,645.4646,403.1985,646.4252,394.74,641.38" style="stroke:#181818;stroke-width:1.0;"/><text fill="#000000" font-family="sans-serif" font-size="13" lengthAdjust="spacing" textLength="8" x="392.6193" y="663.0818">+</text></g><!--reverse link Topic to SimpleTopic--><g id="link_Topic_SimpleTopic"><path codeLine="114" d="M336.7424,659.1687 C332.9324,709.5387 328.98,761.81 326.26,797.77 " fill="none" id="Topic-backto-SimpleTopic" style="stroke:#181818;stroke-width:1.0;stroke-dasharray:7.0,7.0;"/><polygon fill="none" points="338.1,641.22,330.7594,658.7162,342.7253,659.6213,338.1,641.22" style="stroke:#181818;stroke-width:1.0;"/></g><!--link Itinerary to Topic--><g id="link_Itinerary_Topic"><path codeLine="120" d="M342.5,474.16 C342.5,492.62 342.5,496.79 342.5,516.96 " fill="none" id="Itinerary-Topic" style="stroke:#181818;stroke-width:1.0;"/><polygon fill="none" points="342.5,462.16,338.5,468.16,342.5,474.16,346.5,468.16,342.5,462.16" style="stroke:#181818;stroke-width:1.0;"/><polygon fill="#181818" points="342.5,522.96,346.5,513.96,342.5,517.96,338.5,513.96,342.5,522.96" style="stroke:#181818;stroke-width:1.0;"/><text fill="#000000" font-family="sans-serif" font-size="13" lengthAdjust="spacing" textLength="8" x="334.0125" y="512.2794">+</text></g><!--link SimpleTopic to Concept--><g id="link_SimpleTopic_Concept"><path codeLine="124" d="M321.9303,858.1166 C318.5803,911.6366 315.91,1035.24 356.5,1138 C365.59,1161.02 378.8521,1178.682 393.1821,1194.432 " fill="none" id="SimpleTopic-Concept" style="stroke:#181818;stroke-width:1.0;"/><polygon fill="none" points="322.68,846.14,318.313,851.8784,321.9303,858.1166,326.2974,852.3782,322.68,846.14" style="stroke:#181818;stroke-width:1.0;"/><polygon fill="#181818" points="397.22,1198.87,394.1219,1189.5211,393.8551,1195.1717,388.2046,1194.9049,397.22,1198.87" style="stroke:#181818;stroke-width:1.0;"/><text fill="#000000" font-family="sans-serif" font-size="13" lengthAdjust="spacing" textLength="8" x="382.2295" y="1188.1768">+</text></g><!--link Topic to Multimedia--><g id="link_Topic_Multimedia"><path codeLine="125" d="M278.5478,650.0636 C255.4378,674.2936 242.3805,687.9876 224.7505,706.4776 " fill="none" id="Topic-Multimedia" style="stroke:#181818;stroke-width:1.0;"/><polygon fill="none" points="286.83,641.38,279.7944,642.9611,278.5478,650.0636,285.5834,648.4825,286.83,641.38" style="stroke:#181818;stroke-width:1.0;"/><polygon fill="#181818" points="220.61,710.82,229.7156,707.0667,224.0604,707.2013,223.9257,701.5461,220.61,710.82" style="stroke:#181818;stroke-width:1.0;"/><text fill="#000000" font-family="sans-serif" font-size="13" lengthAdjust="spacing" textLength="8" x="217.2507" y="700.114">+</text></g><!--link Concept to Definition--><g id="link_Concept_Definition"><path codeLine="126" d="M366.6788,1242.073 C347.7888,1250.303 338.42,1258.2 327.5,1277 C311.06,1305.29 329.2271,1332.8588 352.9671,1355.8188 " fill="none" id="Concept-Definition" style="stroke:#181818;stroke-width:1.0;"/><polygon fill="#181818" points="377.68,1237.28,370.5817,1236.0094,366.6788,1242.073,373.7771,1243.3436,377.68,1237.28" style="stroke:#181818;stroke-width:1.0;"/><polygon fill="#181818" points="357.28,1359.99,353.5914,1350.8579,353.6859,1356.514,348.0299,1356.6085,357.28,1359.99" style="stroke:#181818;stroke-width:1.0;"/><text fill="#000000" font-family="sans-serif" font-size="13" lengthAdjust="spacing" textLength="40" x="328.5" y="1291.4951">correct</text><text fill="#000000" font-family="sans-serif" font-size="13" lengthAdjust="spacing" textLength="8" x="340.1596" y="1349.1033">+</text></g><!--link Concept to Definition--><g id="link_Concept_Definition"><path codeLine="127" d="M412.6461,1258.8616 C410.6561,1268.1116 411.03,1267.16 409.5,1277 C405.18,1304.77 402.5173,1330.5823 400.5173,1353.6923 " fill="none" id="Concept-Definition-1" style="stroke:#181818;stroke-width:1.0;"/><polygon fill="#181818" points="415.17,1247.13,409.9975,1252.1545,412.6461,1258.8616,417.8186,1253.8371,415.17,1247.13" style="stroke:#181818;stroke-width:1.0;"/><polygon fill="#181818" points="400,1359.67,404.7611,1351.0484,400.4311,1354.6886,396.7909,1350.3586,400,1359.67" style="stroke:#181818;stroke-width:1.0;"/><text fill="#000000" font-family="sans-serif" font-size="13" lengthAdjust="spacing" textLength="50" x="410.5" y="1291.4951">incorrect</text><text fill="#000000" font-family="sans-serif" font-size="13" lengthAdjust="spacing" textLength="5" x="395" y="1349.1013">*</text></g><!--link Relation to RelationType--><g id="link_Relation_RelationType"><path codeLine="128" d="M660.31,1393 C671.96,1393 665.61,1393 677.26,1393 " fill="none" id="Relation-RelationType" style="stroke:#181818;stroke-width:1.0;"/><polygon fill="#181818" points="648.31,1393,654.31,1397,660.31,1393,654.31,1389,648.31,1393" style="stroke:#181818;stroke-width:1.0;"/><polygon fill="#181818" points="683.26,1393,674.26,1389,678.26,1393,674.26,1397,683.26,1393" style="stroke:#181818;stroke-width:1.0;"/></g><!--link Concept to Relation--><g id="link_Concept_Relation"><path codeLine="129" d="M449.5311,1255.881 C476.1311,1285.081 510.0501,1322.3239 540.1301,1355.3539 " fill="none" id="Concept-Relation" style="stroke:#181818;stroke-width:1.0;"/><polygon fill="#181818" points="441.45,1247.01,442.5336,1254.1392,449.5311,1255.881,448.4476,1248.7518,441.45,1247.01" style="stroke:#181818;stroke-width:1.0;"/><polygon fill="#181818" points="544.17,1359.79,541.0675,1350.4426,540.8034,1356.0932,535.1527,1355.8291,544.17,1359.79" style="stroke:#181818;stroke-width:1.0;"/><text fill="#000000" font-family="sans-serif" font-size="13" lengthAdjust="spacing" textLength="31" x="483.5" y="1291.4951">origin</text><text fill="#000000" font-family="sans-serif" font-size="13" lengthAdjust="spacing" textLength="5" x="532.9035" y="1349.245">*</text></g><!--link Relation to Concept--><g id="link_Relation_Concept"><path codeLine="144" d="M565.93,1359.91 C558.62,1334.81 545.38,1300.35 523.5,1277 C507.07,1259.46 489.0625,1249.0719 468.6425,1240.5019 " fill="none" id="Relation-to-Concept" style="stroke:#181818;stroke-width:1.0;"/><polygon fill="#181818" points="463.11,1238.18,469.8608,1245.3512,467.7204,1240.1149,472.9567,1237.9745,463.11,1238.18" style="stroke:#181818;stroke-width:1.0;"/><text fill="#000000" font-family="sans-serif" font-size="13" lengthAdjust="spacing" textLength="33" x="536.5" y="1291.4951">target</text><text fill="#000000" font-family="sans-serif" font-size="13" lengthAdjust="spacing" textLength="8" x="471.1211" y="1236.9394">+</text></g><!--link Definition to Justification--><g id="link_Definition_Justification"><path codeLine="145" d="M445.5518,1433.692 C459.5918,1445.012 466.37,1450.09 481.5,1461 C510.92,1482.22 539.8604,1501.2207 567.3304,1518.6107 " fill="none" id="Definition-Justification" style="stroke:#181818;stroke-width:1.0;"/><polygon fill="none" points="436.21,1426.16,438.3702,1433.0399,445.5518,1433.692,443.3916,1426.8121,436.21,1426.16" style="stroke:#181818;stroke-width:1.0;"/><polygon fill="#181818" points="572.4,1521.82,566.9352,1513.6263,568.1754,1519.1456,562.6561,1520.3857,572.4,1521.82" style="stroke:#181818;stroke-width:1.0;"/><text fill="#000000" font-family="sans-serif" font-size="13" lengthAdjust="spacing" textLength="5" x="556.1388" y="1510.8983">*</text></g><!--reverse link Multimedia to Podcast--><g id="link_Multimedia_Podcast"><path codeLine="150" d="M166.4391,772.7658 C137.7291,805.6858 97.31,852.03 68.65,884.9 " fill="none" id="Multimedia-backto-Podcast" style="stroke:#181818;stroke-width:1.0;"/><polygon fill="none" points="178.27,759.2,161.9172,768.8221,170.961,776.7094,178.27,759.2" style="stroke:#181818;stroke-width:1.0;"/></g><!--reverse link Multimedia to Video--><g id="link_Multimedia_Video"><path codeLine="151" d="M189.2619,776.7549 C181.8019,809.6749 172.19,852.03 164.74,884.9 " fill="none" id="Multimedia-backto-Video" style="stroke:#181818;stroke-width:1.0;"/><polygon fill="none" points="193.24,759.2,183.4103,775.4289,195.1135,778.0809,193.24,759.2" style="stroke:#181818;stroke-width:1.0;"/></g><!--link Podcast to Text--><g id="link_Podcast_Text"><path codeLine="153" d="M67.1925,943.7239 C76.6225,960.1939 84.28,972.01 98.5,990 C114.09,1009.72 129.2787,1025.6275 145.8787,1041.6175 " fill="none" id="Podcast-Text" style="stroke:#181818;stroke-width:1.0;"/><polygon fill="none" points="61.23,933.31,60.74,940.5044,67.1925,943.7239,67.6825,936.5294,61.23,933.31" style="stroke:#181818;stroke-width:1.0;"/><polygon fill="#181818" points="150.2,1045.78,146.4931,1036.6554,146.5989,1042.3112,140.9431,1042.4171,150.2,1045.78" style="stroke:#181818;stroke-width:1.0;"/><text fill="#000000" font-family="sans-serif" font-size="13" lengthAdjust="spacing" textLength="54" x="99.5" y="986.4951">transcript</text></g><!--link Video to Text--><g id="link_Video_Text"><path codeLine="154" d="M160.2968,945.2134 C160.8268,961.2334 161.66,971.01 164.5,990 C167.29,1008.64 170.5553,1023.3343 174.8653,1039.8543 " fill="none" id="Video-Text" style="stroke:#181818;stroke-width:1.0;"/><polygon fill="none" points="159.9,933.22,156.1006,939.349,160.2968,945.2134,164.0962,939.0845,159.9,933.22" style="stroke:#181818;stroke-width:1.0;"/><polygon fill="#181818" points="176.38,1045.66,177.9784,1035.9417,175.1178,1040.8219,170.2375,1037.9613,176.38,1045.66" style="stroke:#181818;stroke-width:1.0;"/><text fill="#000000" font-family="sans-serif" font-size="13" lengthAdjust="spacing" textLength="54" x="165.5" y="986.4951">transcript</text></g><!--reverse link Multimedia to Text--><g id="link_Multimedia_Text"><path codeLine="156" d="M210.488,776.3351 C223.238,821.2251 242.26,906.09 224.5,990 C220.42,1009.29 211.81,1029.5 203.72,1045.67 " fill="none" id="Multimedia-backto-Text" style="stroke:#181818;stroke-width:1.0;"/><polygon fill="none" points="205.57,759.02,204.7163,777.9744,216.2597,774.6958,205.57,759.02" style="stroke:#181818;stroke-width:1.0;"/></g><!--link Text to Concept--><g id="link_Text_Concept"><path codeLine="158" d="M219.9,1112.41 C240.45,1130.63 267.7,1152.88 294.5,1169 C320.84,1184.84 347.1466,1196.1277 372.2766,1205.4777 " fill="none" id="Text-to-Concept" style="stroke:#181818;stroke-width:1.0;"/><polygon fill="#181818" points="377.9,1207.57,370.8598,1200.6827,373.2138,1205.8264,368.0701,1208.1805,377.9,1207.57" style="stroke:#181818;stroke-width:1.0;"/><text fill="#000000" font-family="sans-serif" font-size="13" lengthAdjust="spacing" textLength="5" x="364.8666" y="1200.923">*</text></g><!--SRC=[XLRDKjim4BxhAJIvf8L97Y2Jqc523dJQWPAKksAl4ytObYl9G0gyUrU_bWo174Yq- -sFThzTKTHCANgjUGkIoIDz9XG_CrhqIek6BkXEY1fOQyNdT5ro_UKhUIM4jnfanGgWMz7nuja3zg2tR5V3JRKIY6YrGdXKROvrpNOzoj0p0WhejCfTkyCTiDB58ONDSCERhWOVwZL8LwBfXE8QaXncL9k3mWW_kT9BgxgWneZjb9Qiq7JzL80ik0AQEBiI3UDjAhdikfeNJ7FH3eKHKWAwo2ipe_SW5U86uzyzgCnIQQQXmPAWxIRytXuxC3RGzaqkzNQhMlo3BRgofokeUCkDMtkyWvh5mmzi6Q-EIT93CbjuqZ6HKOFISjgEP4M90J-eG4Ix53ulMJJurTUQDr1oXkYayArw1FbPoU61rJrMhCmzhylU9N2BnQc4REZPR7P19-SJB0Ch3Y0_WcnqNs9LJa4icqufXp5Qq4v2QMe7vJjeOQETJJ8BDtAdqAi3qyJyySQOQcGnJWcP-iJfSZvtQ7Hf9u44JLGGLryh2FSbmqmiNsOpFmrZQIGr8NvSpCNDJHBQBQY4lpsNbigAf5Dam9Yv9nfcdIfjX9LhzZkQwzOJWP2OniXV9i-JIenih_89p7NMr9OeLCecSDD1cmaiUt4jhGw25n1KhZ_V9wDfM4GUVwCLgqtNffwFjX76EpMbU-3mI4YgigH37Sw95Z9JfGJowg7Tx-jReO7MK26JgjX-Cr5hgwUYhO_sZEGBxu0zS- -BWzlPq9RKE1kuPqEkmjFXu-5TRFxBb_byjB5JJRBXIOuQ6E-qP3hSod76JSvOV3kC81bK8sVJ0VKc3abo6fI1R2FniCf8sADngIHRDD9WX3eReNXaUrZo29HyVz283YBBtJT-ei622hJ0ANRFIshbb_CVfA7vlbHA57nuIq83mlcwHS9npJ2Im-_t4lR-aQ5XRSV0yIKsaHPvkkPDZy1HJStAOXB_KI19BOGVvcoSa0JvU0c_2aOeahmmZXIYB1Y-fcFvFIz14EBLhgtsrSIK96jL8JdstA9EAT_uD10poGZqTmZS-Gy0]--></g></svg>