<?xml version="1.0" encoding="us-ascii" standalone="no"?><svg xmlns="http://www.w3.org/2000/svg" xmlns:xlink="http://www.w3.org/1999/xlink" contentStyleType="text/css" height="1093px" preserveAspectRatio="none" style="width:1256px;height:1093px;background:#FFFFFF;" version="1.1" viewBox="0 0 1256 1093" width="1256px" zoomAndPan="magnify"><defs/><g><!--class EducationPlatform--><g id="elem_EducationPlatform"><rect fill="#F1F1F1" height="48" id="EducationPlatform" rx="2.5" ry="2.5" style="stroke:#181818;stroke-width:0.5;" width="147" x="257" y="7"/><ellipse cx="272" cy="23" fill="#ADD1B2" rx="11" ry="11" style="stroke:#181818;stroke-width:1.0;"/><path d="M274.7656,18.875 Q274.9219,18.6563 275.1094,18.5469 Q275.2969,18.4375 275.5156,18.4375 Q275.8906,18.4375 276.125,18.7031 Q276.3594,18.9531 276.3594,19.5625 L276.3594,21.0156 Q276.3594,21.625 276.125,21.8906 Q275.8906,22.1563 275.5156,22.1563 Q275.1719,22.1563 274.9688,21.9531 Q274.7656,21.7656 274.6563,21.25 Q274.6094,20.8906 274.4219,20.7031 Q274.0938,20.3281 273.4844,20.1094 Q272.875,19.8906 272.25,19.8906 Q271.4844,19.8906 270.8438,20.2188 Q270.2188,20.5469 269.7188,21.2969 Q269.2344,22.0469 269.2344,23.0781 L269.2344,24.1719 Q269.2344,25.4063 270.125,26.2344 Q271.0156,27.0469 272.6094,27.0469 Q273.5469,27.0469 274.2031,26.7969 Q274.5938,26.6406 275.0156,26.2031 Q275.2813,25.9375 275.4219,25.8594 Q275.5781,25.7813 275.7813,25.7813 Q276.1094,25.7813 276.3594,26.0469 Q276.625,26.2969 276.625,26.6406 Q276.625,26.9844 276.2813,27.3906 Q275.7813,27.9688 274.9844,28.2969 Q273.9063,28.75 272.6094,28.75 Q271.0938,28.75 269.8906,28.125 Q268.9063,27.625 268.2188,26.5625 Q267.5313,25.4844 267.5313,24.2031 L267.5313,23.0469 Q267.5313,21.7188 268.1406,20.5781 Q268.7656,19.4219 269.8594,18.8125 Q270.9531,18.1875 272.1875,18.1875 Q272.9219,18.1875 273.5625,18.3594 Q274.2188,18.5156 274.7656,18.875 Z " fill="#000000"/><text fill="#000000" font-family="sans-serif" font-size="14" lengthAdjust="spacing" textLength="115" x="286" y="28.7285">EducationPlatform</text><line style="stroke:#181818;stroke-width:0.5;" x1="258" x2="403" y1="39" y2="39"/><line style="stroke:#181818;stroke-width:0.5;" x1="258" x2="403" y1="47" y2="47"/></g><!--class User--><g id="elem_User"><rect codeLine="9" fill="#F1F1F1" height="48" id="User" rx="2.5" ry="2.5" style="stroke:#181818;stroke-width:0.5;" width="62" x="227.5" y="133"/><ellipse cx="242.5" cy="149" fill="#A9DCDF" rx="11" ry="11" style="stroke:#181818;stroke-width:1.0;"/><path d="M244.6875,150.7656 L240.5469,150.7656 L240.125,151.7969 L240.5469,151.7969 Q241.1563,151.7969 241.4219,152.0313 Q241.6875,152.2656 241.6875,152.6563 Q241.6875,153.0313 241.4219,153.2656 Q241.1563,153.5 240.5469,153.5 L238.25,153.5 Q237.6406,153.5 237.3906,153.2656 Q237.125,153.0313 237.125,152.6406 Q237.125,152.2656 237.4063,152.0313 Q237.6719,151.7813 238.2969,151.7969 L240.9688,145.1406 L239.8594,145.1406 Q239.25,145.1406 238.9844,144.9063 Q238.7188,144.6719 238.7188,144.2813 Q238.7188,143.9063 238.9844,143.6719 Q239.25,143.4375 239.8594,143.4375 L243.5313,143.4375 L246.9219,151.7969 Q247.5156,151.7969 247.7031,151.9375 Q248.0938,152.2031 248.0938,152.6563 Q248.0938,153.0313 247.8281,153.2656 Q247.5781,153.5 246.9688,153.5 L244.6719,153.5 Q244.0625,153.5 243.7969,153.2656 Q243.5313,153.0313 243.5313,152.6406 Q243.5313,152.2656 243.7969,152.0313 Q244.0625,151.7969 244.6719,151.7969 L245.0938,151.7969 L244.6875,150.7656 Z M243.9688,149.0625 L242.6094,145.6875 L241.2344,149.0625 L243.9688,149.0625 Z " fill="#000000"/><text fill="#000000" font-family="sans-serif" font-size="14" font-style="italic" lengthAdjust="spacing" textLength="30" x="256.5" y="154.7285">User</text><line style="stroke:#181818;stroke-width:0.5;" x1="228.5" x2="288.5" y1="165" y2="165"/><line style="stroke:#181818;stroke-width:0.5;" x1="228.5" x2="288.5" y1="173" y2="173"/></g><!--class Topic--><g id="elem_Topic"><rect codeLine="74" fill="#F1F1F1" height="48" id="Topic" rx="2.5" ry="2.5" style="stroke:#181818;stroke-width:0.5;" width="67" x="502" y="289"/><ellipse cx="517" cy="305" fill="#A9DCDF" rx="11" ry="11" style="stroke:#181818;stroke-width:1.0;"/><path d="M519.1875,306.7656 L515.0469,306.7656 L514.625,307.7969 L515.0469,307.7969 Q515.6563,307.7969 515.9219,308.0313 Q516.1875,308.2656 516.1875,308.6563 Q516.1875,309.0313 515.9219,309.2656 Q515.6563,309.5 515.0469,309.5 L512.75,309.5 Q512.1406,309.5 511.8906,309.2656 Q511.625,309.0313 511.625,308.6406 Q511.625,308.2656 511.9063,308.0313 Q512.1719,307.7813 512.7969,307.7969 L515.4688,301.1406 L514.3594,301.1406 Q513.75,301.1406 513.4844,300.9063 Q513.2188,300.6719 513.2188,300.2813 Q513.2188,299.9063 513.4844,299.6719 Q513.75,299.4375 514.3594,299.4375 L518.0313,299.4375 L521.4219,307.7969 Q522.0156,307.7969 522.2031,307.9375 Q522.5938,308.2031 522.5938,308.6563 Q522.5938,309.0313 522.3281,309.2656 Q522.0781,309.5 521.4688,309.5 L519.1719,309.5 Q518.5625,309.5 518.2969,309.2656 Q518.0313,309.0313 518.0313,308.6406 Q518.0313,308.2656 518.2969,308.0313 Q518.5625,307.7969 519.1719,307.7969 L519.5938,307.7969 L519.1875,306.7656 Z M518.4688,305.0625 L517.1094,301.6875 L515.7344,305.0625 L518.4688,305.0625 Z " fill="#000000"/><text fill="#000000" font-family="sans-serif" font-size="14" font-style="italic" lengthAdjust="spacing" textLength="35" x="531" y="310.7285">Topic</text><line style="stroke:#181818;stroke-width:0.5;" x1="503" x2="568" y1="321" y2="321"/><line style="stroke:#181818;stroke-width:0.5;" x1="503" x2="568" y1="329" y2="329"/></g><!--class Itinerary--><g id="elem_Itinerary"><rect codeLine="28" fill="#F1F1F1" height="48" id="Itinerary" rx="2.5" ry="2.5" style="stroke:#181818;stroke-width:0.5;" width="83" x="390" y="133"/><ellipse cx="405" cy="149" fill="#ADD1B2" rx="11" ry="11" style="stroke:#181818;stroke-width:1.0;"/><path d="M407.7656,144.875 Q407.9219,144.6563 408.1094,144.5469 Q408.2969,144.4375 408.5156,144.4375 Q408.8906,144.4375 409.125,144.7031 Q409.3594,144.9531 409.3594,145.5625 L409.3594,147.0156 Q409.3594,147.625 409.125,147.8906 Q408.8906,148.1563 408.5156,148.1563 Q408.1719,148.1563 407.9688,147.9531 Q407.7656,147.7656 407.6563,147.25 Q407.6094,146.8906 407.4219,146.7031 Q407.0938,146.3281 406.4844,146.1094 Q405.875,145.8906 405.25,145.8906 Q404.4844,145.8906 403.8438,146.2188 Q403.2188,146.5469 402.7188,147.2969 Q402.2344,148.0469 402.2344,149.0781 L402.2344,150.1719 Q402.2344,151.4063 403.125,152.2344 Q404.0156,153.0469 405.6094,153.0469 Q406.5469,153.0469 407.2031,152.7969 Q407.5938,152.6406 408.0156,152.2031 Q408.2813,151.9375 408.4219,151.8594 Q408.5781,151.7813 408.7813,151.7813 Q409.1094,151.7813 409.3594,152.0469 Q409.625,152.2969 409.625,152.6406 Q409.625,152.9844 409.2813,153.3906 Q408.7813,153.9688 407.9844,154.2969 Q406.9063,154.75 405.6094,154.75 Q404.0938,154.75 402.8906,154.125 Q401.9063,153.625 401.2188,152.5625 Q400.5313,151.4844 400.5313,150.2031 L400.5313,149.0469 Q400.5313,147.7188 401.1406,146.5781 Q401.7656,145.4219 402.8594,144.8125 Q403.9531,144.1875 405.1875,144.1875 Q405.9219,144.1875 406.5625,144.3594 Q407.2188,144.5156 407.7656,144.875 Z " fill="#000000"/><text fill="#000000" font-family="sans-serif" font-size="14" lengthAdjust="spacing" textLength="51" x="419" y="154.7285">Itinerary</text><line style="stroke:#181818;stroke-width:0.5;" x1="391" x2="472" y1="165" y2="165"/><line style="stroke:#181818;stroke-width:0.5;" x1="391" x2="472" y1="173" y2="173"/></g><!--class Evaluator--><g id="elem_Evaluator"><rect codeLine="24" fill="#F1F1F1" height="48" id="Evaluator" rx="2.5" ry="2.5" style="stroke:#181818;stroke-width:0.5;" width="92" x="8.5" y="211"/><ellipse cx="23.5" cy="227" fill="#ADD1B2" rx="11" ry="11" style="stroke:#181818;stroke-width:1.0;"/><path d="M26.2656,222.875 Q26.4219,222.6563 26.6094,222.5469 Q26.7969,222.4375 27.0156,222.4375 Q27.3906,222.4375 27.625,222.7031 Q27.8594,222.9531 27.8594,223.5625 L27.8594,225.0156 Q27.8594,225.625 27.625,225.8906 Q27.3906,226.1563 27.0156,226.1563 Q26.6719,226.1563 26.4688,225.9531 Q26.2656,225.7656 26.1563,225.25 Q26.1094,224.8906 25.9219,224.7031 Q25.5938,224.3281 24.9844,224.1094 Q24.375,223.8906 23.75,223.8906 Q22.9844,223.8906 22.3438,224.2188 Q21.7188,224.5469 21.2188,225.2969 Q20.7344,226.0469 20.7344,227.0781 L20.7344,228.1719 Q20.7344,229.4063 21.625,230.2344 Q22.5156,231.0469 24.1094,231.0469 Q25.0469,231.0469 25.7031,230.7969 Q26.0938,230.6406 26.5156,230.2031 Q26.7813,229.9375 26.9219,229.8594 Q27.0781,229.7813 27.2813,229.7813 Q27.6094,229.7813 27.8594,230.0469 Q28.125,230.2969 28.125,230.6406 Q28.125,230.9844 27.7813,231.3906 Q27.2813,231.9688 26.4844,232.2969 Q25.4063,232.75 24.1094,232.75 Q22.5938,232.75 21.3906,232.125 Q20.4063,231.625 19.7188,230.5625 Q19.0313,229.4844 19.0313,228.2031 L19.0313,227.0469 Q19.0313,225.7188 19.6406,224.5781 Q20.2656,223.4219 21.3594,222.8125 Q22.4531,222.1875 23.6875,222.1875 Q24.4219,222.1875 25.0625,222.3594 Q25.7188,222.5156 26.2656,222.875 Z " fill="#000000"/><text fill="#000000" font-family="sans-serif" font-size="14" lengthAdjust="spacing" textLength="60" x="37.5" y="232.7285">Evaluator</text><line style="stroke:#181818;stroke-width:0.5;" x1="9.5" x2="99.5" y1="243" y2="243"/><line style="stroke:#181818;stroke-width:0.5;" x1="9.5" x2="99.5" y1="251" y2="251"/></g><!--class Teacher--><g id="elem_Teacher"><rect codeLine="16" fill="#F1F1F1" height="48" id="Teacher" rx="2.5" ry="2.5" style="stroke:#181818;stroke-width:0.5;" width="85" x="120" y="289"/><ellipse cx="135" cy="305" fill="#ADD1B2" rx="11" ry="11" style="stroke:#181818;stroke-width:1.0;"/><path d="M137.7656,300.875 Q137.9219,300.6563 138.1094,300.5469 Q138.2969,300.4375 138.5156,300.4375 Q138.8906,300.4375 139.125,300.7031 Q139.3594,300.9531 139.3594,301.5625 L139.3594,303.0156 Q139.3594,303.625 139.125,303.8906 Q138.8906,304.1563 138.5156,304.1563 Q138.1719,304.1563 137.9688,303.9531 Q137.7656,303.7656 137.6563,303.25 Q137.6094,302.8906 137.4219,302.7031 Q137.0938,302.3281 136.4844,302.1094 Q135.875,301.8906 135.25,301.8906 Q134.4844,301.8906 133.8438,302.2188 Q133.2188,302.5469 132.7188,303.2969 Q132.2344,304.0469 132.2344,305.0781 L132.2344,306.1719 Q132.2344,307.4063 133.125,308.2344 Q134.0156,309.0469 135.6094,309.0469 Q136.5469,309.0469 137.2031,308.7969 Q137.5938,308.6406 138.0156,308.2031 Q138.2813,307.9375 138.4219,307.8594 Q138.5781,307.7813 138.7813,307.7813 Q139.1094,307.7813 139.3594,308.0469 Q139.625,308.2969 139.625,308.6406 Q139.625,308.9844 139.2813,309.3906 Q138.7813,309.9688 137.9844,310.2969 Q136.9063,310.75 135.6094,310.75 Q134.0938,310.75 132.8906,310.125 Q131.9063,309.625 131.2188,308.5625 Q130.5313,307.4844 130.5313,306.2031 L130.5313,305.0469 Q130.5313,303.7188 131.1406,302.5781 Q131.7656,301.4219 132.8594,300.8125 Q133.9531,300.1875 135.1875,300.1875 Q135.9219,300.1875 136.5625,300.3594 Q137.2188,300.5156 137.7656,300.875 Z " fill="#000000"/><text fill="#000000" font-family="sans-serif" font-size="14" lengthAdjust="spacing" textLength="53" x="149" y="310.7285">Teacher</text><line style="stroke:#181818;stroke-width:0.5;" x1="121" x2="204" y1="321" y2="321"/><line style="stroke:#181818;stroke-width:0.5;" x1="121" x2="204" y1="329" y2="329"/></g><!--class Student--><g id="elem_Student"><rect codeLine="19" fill="#F1F1F1" height="48" id="Student" rx="2.5" ry="2.5" style="stroke:#181818;stroke-width:0.5;" width="81" x="145" y="367"/><ellipse cx="160" cy="383" fill="#ADD1B2" rx="11" ry="11" style="stroke:#181818;stroke-width:1.0;"/><path d="M162.7656,378.875 Q162.9219,378.6563 163.1094,378.5469 Q163.2969,378.4375 163.5156,378.4375 Q163.8906,378.4375 164.125,378.7031 Q164.3594,378.9531 164.3594,379.5625 L164.3594,381.0156 Q164.3594,381.625 164.125,381.8906 Q163.8906,382.1563 163.5156,382.1563 Q163.1719,382.1563 162.9688,381.9531 Q162.7656,381.7656 162.6563,381.25 Q162.6094,380.8906 162.4219,380.7031 Q162.0938,380.3281 161.4844,380.1094 Q160.875,379.8906 160.25,379.8906 Q159.4844,379.8906 158.8438,380.2188 Q158.2188,380.5469 157.7188,381.2969 Q157.2344,382.0469 157.2344,383.0781 L157.2344,384.1719 Q157.2344,385.4063 158.125,386.2344 Q159.0156,387.0469 160.6094,387.0469 Q161.5469,387.0469 162.2031,386.7969 Q162.5938,386.6406 163.0156,386.2031 Q163.2813,385.9375 163.4219,385.8594 Q163.5781,385.7813 163.7813,385.7813 Q164.1094,385.7813 164.3594,386.0469 Q164.625,386.2969 164.625,386.6406 Q164.625,386.9844 164.2813,387.3906 Q163.7813,387.9688 162.9844,388.2969 Q161.9063,388.75 160.6094,388.75 Q159.0938,388.75 157.8906,388.125 Q156.9063,387.625 156.2188,386.5625 Q155.5313,385.4844 155.5313,384.2031 L155.5313,383.0469 Q155.5313,381.7188 156.1406,380.5781 Q156.7656,379.4219 157.8594,378.8125 Q158.9531,378.1875 160.1875,378.1875 Q160.9219,378.1875 161.5625,378.3594 Q162.2188,378.5156 162.7656,378.875 Z " fill="#000000"/><text fill="#000000" font-family="sans-serif" font-size="14" lengthAdjust="spacing" textLength="49" x="174" y="388.7285">Student</text><line style="stroke:#181818;stroke-width:0.5;" x1="146" x2="225" y1="399" y2="399"/><line style="stroke:#181818;stroke-width:0.5;" x1="146" x2="225" y1="407" y2="407"/></g><!--class Solution--><g id="elem_Solution"><rect codeLine="67" fill="#F1F1F1" height="100.8281" id="Solution" rx="2.5" ry="2.5" style="stroke:#181818;stroke-width:0.5;" width="151" x="7" y="824.5"/><ellipse cx="52.75" cy="840.5" fill="#ADD1B2" rx="11" ry="11" style="stroke:#181818;stroke-width:1.0;"/><path d="M55.5156,836.375 Q55.6719,836.1563 55.8594,836.0469 Q56.0469,835.9375 56.2656,835.9375 Q56.6406,835.9375 56.875,836.2031 Q57.1094,836.4531 57.1094,837.0625 L57.1094,838.5156 Q57.1094,839.125 56.875,839.3906 Q56.6406,839.6563 56.2656,839.6563 Q55.9219,839.6563 55.7188,839.4531 Q55.5156,839.2656 55.4063,838.75 Q55.3594,838.3906 55.1719,838.2031 Q54.8438,837.8281 54.2344,837.6094 Q53.625,837.3906 53,837.3906 Q52.2344,837.3906 51.5938,837.7188 Q50.9688,838.0469 50.4688,838.7969 Q49.9844,839.5469 49.9844,840.5781 L49.9844,841.6719 Q49.9844,842.9063 50.875,843.7344 Q51.7656,844.5469 53.3594,844.5469 Q54.2969,844.5469 54.9531,844.2969 Q55.3438,844.1406 55.7656,843.7031 Q56.0313,843.4375 56.1719,843.3594 Q56.3281,843.2813 56.5313,843.2813 Q56.8594,843.2813 57.1094,843.5469 Q57.375,843.7969 57.375,844.1406 Q57.375,844.4844 57.0313,844.8906 Q56.5313,845.4688 55.7344,845.7969 Q54.6563,846.25 53.3594,846.25 Q51.8438,846.25 50.6406,845.625 Q49.6563,845.125 48.9688,844.0625 Q48.2813,842.9844 48.2813,841.7031 L48.2813,840.5469 Q48.2813,839.2188 48.8906,838.0781 Q49.5156,836.9219 50.6094,836.3125 Q51.7031,835.6875 52.9375,835.6875 Q53.6719,835.6875 54.3125,835.8594 Q54.9688,836.0156 55.5156,836.375 Z " fill="#000000"/><text fill="#000000" font-family="sans-serif" font-size="14" lengthAdjust="spacing" textLength="51" x="73.25" y="846.2285">Solution</text><line style="stroke:#181818;stroke-width:0.5;" x1="8" x2="157" y1="856.5" y2="856.5"/><rect fill="none" height="6" style="stroke:#C82930;stroke-width:1.0;" width="6" x="15" y="867.8047"/><text fill="#000000" font-family="sans-serif" font-size="14" lengthAdjust="spacing" textLength="107" x="27" y="875.0332">correct : boolean</text><rect fill="none" height="6" style="stroke:#C82930;stroke-width:1.0;" width="6" x="15" y="885.4141"/><text fill="#000000" font-family="sans-serif" font-size="14" lengthAdjust="spacing" textLength="125" x="27" y="892.6426">evaluated : boolean</text><rect fill="none" height="6" style="stroke:#C82930;stroke-width:1.0;" width="6" x="15" y="903.0234"/><text fill="#000000" font-family="sans-serif" font-size="14" lengthAdjust="spacing" textLength="118" x="27" y="910.252">Application : String</text><line style="stroke:#181818;stroke-width:0.5;" x1="8" x2="157" y1="917.3281" y2="917.3281"/></g><!--class Definition--><g id="elem_Definition"><rect codeLine="32" fill="#F1F1F1" height="65.6094" id="Definition" rx="2.5" ry="2.5" style="stroke:#181818;stroke-width:0.5;" width="133" x="199" y="680"/><ellipse cx="232.9" cy="696" fill="#ADD1B2" rx="11" ry="11" style="stroke:#181818;stroke-width:1.0;"/><path d="M235.6656,691.875 Q235.8219,691.6563 236.0094,691.5469 Q236.1969,691.4375 236.4156,691.4375 Q236.7906,691.4375 237.025,691.7031 Q237.2594,691.9531 237.2594,692.5625 L237.2594,694.0156 Q237.2594,694.625 237.025,694.8906 Q236.7906,695.1563 236.4156,695.1563 Q236.0719,695.1563 235.8688,694.9531 Q235.6656,694.7656 235.5563,694.25 Q235.5094,693.8906 235.3219,693.7031 Q234.9938,693.3281 234.3844,693.1094 Q233.775,692.8906 233.15,692.8906 Q232.3844,692.8906 231.7438,693.2188 Q231.1188,693.5469 230.6188,694.2969 Q230.1344,695.0469 230.1344,696.0781 L230.1344,697.1719 Q230.1344,698.4063 231.025,699.2344 Q231.9156,700.0469 233.5094,700.0469 Q234.4469,700.0469 235.1031,699.7969 Q235.4938,699.6406 235.9156,699.2031 Q236.1813,698.9375 236.3219,698.8594 Q236.4781,698.7813 236.6813,698.7813 Q237.0094,698.7813 237.2594,699.0469 Q237.525,699.2969 237.525,699.6406 Q237.525,699.9844 237.1813,700.3906 Q236.6813,700.9688 235.8844,701.2969 Q234.8063,701.75 233.5094,701.75 Q231.9938,701.75 230.7906,701.125 Q229.8063,700.625 229.1188,699.5625 Q228.4313,698.4844 228.4313,697.2031 L228.4313,696.0469 Q228.4313,694.7188 229.0406,693.5781 Q229.6656,692.4219 230.7594,691.8125 Q231.8531,691.1875 233.0875,691.1875 Q233.8219,691.1875 234.4625,691.3594 Q235.1188,691.5156 235.6656,691.875 Z " fill="#000000"/><text fill="#000000" font-family="sans-serif" font-size="14" lengthAdjust="spacing" textLength="59" x="251.1" y="701.7285">Definition</text><line style="stroke:#181818;stroke-width:0.5;" x1="200" x2="331" y1="712" y2="712"/><rect fill="none" height="6" style="stroke:#C82930;stroke-width:1.0;" width="6" x="207" y="723.3047"/><text fill="#000000" font-family="sans-serif" font-size="14" lengthAdjust="spacing" textLength="107" x="219" y="730.5332">correct : boolean</text><line style="stroke:#181818;stroke-width:0.5;" x1="200" x2="331" y1="737.6094" y2="737.6094"/></g><!--class Justification--><g id="elem_Justification"><rect codeLine="37" fill="#F1F1F1" height="65.6094" id="Justification" rx="2.5" ry="2.5" style="stroke:#181818;stroke-width:0.5;" width="133" x="95" y="1021"/><ellipse cx="122.6" cy="1037" fill="#ADD1B2" rx="11" ry="11" style="stroke:#181818;stroke-width:1.0;"/><path d="M125.3656,1032.875 Q125.5219,1032.6563 125.7094,1032.5469 Q125.8969,1032.4375 126.1156,1032.4375 Q126.4906,1032.4375 126.725,1032.7031 Q126.9594,1032.9531 126.9594,1033.5625 L126.9594,1035.0156 Q126.9594,1035.625 126.725,1035.8906 Q126.4906,1036.1563 126.1156,1036.1563 Q125.7719,1036.1563 125.5688,1035.9531 Q125.3656,1035.7656 125.2563,1035.25 Q125.2094,1034.8906 125.0219,1034.7031 Q124.6938,1034.3281 124.0844,1034.1094 Q123.475,1033.8906 122.85,1033.8906 Q122.0844,1033.8906 121.4438,1034.2188 Q120.8188,1034.5469 120.3188,1035.2969 Q119.8344,1036.0469 119.8344,1037.0781 L119.8344,1038.1719 Q119.8344,1039.4063 120.725,1040.2344 Q121.6156,1041.0469 123.2094,1041.0469 Q124.1469,1041.0469 124.8031,1040.7969 Q125.1938,1040.6406 125.6156,1040.2031 Q125.8813,1039.9375 126.0219,1039.8594 Q126.1781,1039.7813 126.3813,1039.7813 Q126.7094,1039.7813 126.9594,1040.0469 Q127.225,1040.2969 127.225,1040.6406 Q127.225,1040.9844 126.8813,1041.3906 Q126.3813,1041.9688 125.5844,1042.2969 Q124.5063,1042.75 123.2094,1042.75 Q121.6938,1042.75 120.4906,1042.125 Q119.5063,1041.625 118.8188,1040.5625 Q118.1313,1039.4844 118.1313,1038.2031 L118.1313,1037.0469 Q118.1313,1035.7188 118.7406,1034.5781 Q119.3656,1033.4219 120.4594,1032.8125 Q121.5531,1032.1875 122.7875,1032.1875 Q123.5219,1032.1875 124.1625,1032.3594 Q124.8188,1032.5156 125.3656,1032.875 Z " fill="#000000"/><text fill="#000000" font-family="sans-serif" font-size="14" lengthAdjust="spacing" textLength="73" x="139.4" y="1042.7285">Justification</text><line style="stroke:#181818;stroke-width:0.5;" x1="96" x2="227" y1="1053" y2="1053"/><rect fill="none" height="6" style="stroke:#C82930;stroke-width:1.0;" width="6" x="103" y="1064.3047"/><text fill="#000000" font-family="sans-serif" font-size="14" lengthAdjust="spacing" textLength="107" x="115" y="1071.5332">correct : boolean</text><line style="stroke:#181818;stroke-width:0.5;" x1="96" x2="227" y1="1078.6094" y2="1078.6094"/></g><!--class Domain--><g id="elem_Domain"><rect codeLine="41" fill="#F1F1F1" height="83.2188" id="Domain" rx="2.5" ry="2.5" style="stroke:#181818;stroke-width:0.5;" width="196" x="371.5" y="833.5"/><ellipse cx="441.25" cy="849.5" fill="#ADD1B2" rx="11" ry="11" style="stroke:#181818;stroke-width:1.0;"/><path d="M444.0156,845.375 Q444.1719,845.1563 444.3594,845.0469 Q444.5469,844.9375 444.7656,844.9375 Q445.1406,844.9375 445.375,845.2031 Q445.6094,845.4531 445.6094,846.0625 L445.6094,847.5156 Q445.6094,848.125 445.375,848.3906 Q445.1406,848.6563 444.7656,848.6563 Q444.4219,848.6563 444.2188,848.4531 Q444.0156,848.2656 443.9063,847.75 Q443.8594,847.3906 443.6719,847.2031 Q443.3438,846.8281 442.7344,846.6094 Q442.125,846.3906 441.5,846.3906 Q440.7344,846.3906 440.0938,846.7188 Q439.4688,847.0469 438.9688,847.7969 Q438.4844,848.5469 438.4844,849.5781 L438.4844,850.6719 Q438.4844,851.9063 439.375,852.7344 Q440.2656,853.5469 441.8594,853.5469 Q442.7969,853.5469 443.4531,853.2969 Q443.8438,853.1406 444.2656,852.7031 Q444.5313,852.4375 444.6719,852.3594 Q444.8281,852.2813 445.0313,852.2813 Q445.3594,852.2813 445.6094,852.5469 Q445.875,852.7969 445.875,853.1406 Q445.875,853.4844 445.5313,853.8906 Q445.0313,854.4688 444.2344,854.7969 Q443.1563,855.25 441.8594,855.25 Q440.3438,855.25 439.1406,854.625 Q438.1563,854.125 437.4688,853.0625 Q436.7813,851.9844 436.7813,850.7031 L436.7813,849.5469 Q436.7813,848.2188 437.3906,847.0781 Q438.0156,845.9219 439.1094,845.3125 Q440.2031,844.6875 441.4375,844.6875 Q442.1719,844.6875 442.8125,844.8594 Q443.4688,845.0156 444.0156,845.375 Z " fill="#000000"/><text fill="#000000" font-family="sans-serif" font-size="14" lengthAdjust="spacing" textLength="48" x="461.75" y="855.2285">Domain</text><line style="stroke:#181818;stroke-width:0.5;" x1="372.5" x2="566.5" y1="865.5" y2="865.5"/><rect fill="none" height="6" style="stroke:#C82930;stroke-width:1.0;" width="6" x="379.5" y="876.8047"/><text fill="#000000" font-family="sans-serif" font-size="14" lengthAdjust="spacing" textLength="73" x="391.5" y="884.0332">version : int</text><rect fill="none" height="6" style="stroke:#C82930;stroke-width:1.0;" width="6" x="379.5" y="894.4141"/><text fill="#000000" font-family="sans-serif" font-size="14" lengthAdjust="spacing" textLength="170" x="391.5" y="901.6426">requirements : List&lt;String&gt;</text><line style="stroke:#181818;stroke-width:0.5;" x1="372.5" x2="566.5" y1="908.7188" y2="908.7188"/></g><!--class Exercise--><g id="elem_Exercise"><rect codeLine="46" fill="#F1F1F1" height="65.6094" id="Exercise" rx="2.5" ry="2.5" style="stroke:#181818;stroke-width:0.5;" width="137" x="367" y="680"/><ellipse cx="405.4" cy="696" fill="#A9DCDF" rx="11" ry="11" style="stroke:#181818;stroke-width:1.0;"/><path d="M407.5875,697.7656 L403.4469,697.7656 L403.025,698.7969 L403.4469,698.7969 Q404.0563,698.7969 404.3219,699.0313 Q404.5875,699.2656 404.5875,699.6563 Q404.5875,700.0313 404.3219,700.2656 Q404.0563,700.5 403.4469,700.5 L401.15,700.5 Q400.5406,700.5 400.2906,700.2656 Q400.025,700.0313 400.025,699.6406 Q400.025,699.2656 400.3063,699.0313 Q400.5719,698.7813 401.1969,698.7969 L403.8688,692.1406 L402.7594,692.1406 Q402.15,692.1406 401.8844,691.9063 Q401.6188,691.6719 401.6188,691.2813 Q401.6188,690.9063 401.8844,690.6719 Q402.15,690.4375 402.7594,690.4375 L406.4313,690.4375 L409.8219,698.7969 Q410.4156,698.7969 410.6031,698.9375 Q410.9938,699.2031 410.9938,699.6563 Q410.9938,700.0313 410.7281,700.2656 Q410.4781,700.5 409.8688,700.5 L407.5719,700.5 Q406.9625,700.5 406.6969,700.2656 Q406.4313,700.0313 406.4313,699.6406 Q406.4313,699.2656 406.6969,699.0313 Q406.9625,698.7969 407.5719,698.7969 L407.9938,698.7969 L407.5875,697.7656 Z M406.8688,696.0625 L405.5094,692.6875 L404.1344,696.0625 L406.8688,696.0625 Z " fill="#000000"/><text fill="#000000" font-family="sans-serif" font-size="14" font-style="italic" lengthAdjust="spacing" textLength="53" x="424.6" y="701.7285">Exercise</text><line style="stroke:#181818;stroke-width:0.5;" x1="368" x2="503" y1="712" y2="712"/><rect fill="none" height="6" style="stroke:#C82930;stroke-width:1.0;" width="6" x="375" y="723.3047"/><text fill="#000000" font-family="sans-serif" font-size="14" lengthAdjust="spacing" textLength="111" x="387" y="730.5332">statement : String</text><line style="stroke:#181818;stroke-width:0.5;" x1="368" x2="503" y1="737.6094" y2="737.6094"/></g><!--class Question--><g id="elem_Question"><rect codeLine="54" fill="#F1F1F1" height="48" id="Question" rx="2.5" ry="2.5" style="stroke:#181818;stroke-width:0.5;" width="89" x="603" y="851"/><ellipse cx="618" cy="867" fill="#A9DCDF" rx="11" ry="11" style="stroke:#181818;stroke-width:1.0;"/><path d="M620.1875,868.7656 L616.0469,868.7656 L615.625,869.7969 L616.0469,869.7969 Q616.6563,869.7969 616.9219,870.0313 Q617.1875,870.2656 617.1875,870.6563 Q617.1875,871.0313 616.9219,871.2656 Q616.6563,871.5 616.0469,871.5 L613.75,871.5 Q613.1406,871.5 612.8906,871.2656 Q612.625,871.0313 612.625,870.6406 Q612.625,870.2656 612.9063,870.0313 Q613.1719,869.7813 613.7969,869.7969 L616.4688,863.1406 L615.3594,863.1406 Q614.75,863.1406 614.4844,862.9063 Q614.2188,862.6719 614.2188,862.2813 Q614.2188,861.9063 614.4844,861.6719 Q614.75,861.4375 615.3594,861.4375 L619.0313,861.4375 L622.4219,869.7969 Q623.0156,869.7969 623.2031,869.9375 Q623.5938,870.2031 623.5938,870.6563 Q623.5938,871.0313 623.3281,871.2656 Q623.0781,871.5 622.4688,871.5 L620.1719,871.5 Q619.5625,871.5 619.2969,871.2656 Q619.0313,871.0313 619.0313,870.6406 Q619.0313,870.2656 619.2969,870.0313 Q619.5625,869.7969 620.1719,869.7969 L620.5938,869.7969 L620.1875,868.7656 Z M619.4688,867.0625 L618.1094,863.6875 L616.7344,867.0625 L619.4688,867.0625 Z " fill="#000000"/><text fill="#000000" font-family="sans-serif" font-size="14" font-style="italic" lengthAdjust="spacing" textLength="57" x="632" y="872.7285">Question</text><line style="stroke:#181818;stroke-width:0.5;" x1="604" x2="691" y1="883" y2="883"/><line style="stroke:#181818;stroke-width:0.5;" x1="604" x2="691" y1="891" y2="891"/></g><!--class MultipleChoice--><g id="elem_MultipleChoice"><rect codeLine="64" fill="#F1F1F1" height="48" id="MultipleChoice" rx="2.5" ry="2.5" style="stroke:#181818;stroke-width:0.5;" width="124" x="716.5" y="1030"/><ellipse cx="731.5" cy="1046" fill="#ADD1B2" rx="11" ry="11" style="stroke:#181818;stroke-width:1.0;"/><path d="M734.2656,1041.875 Q734.4219,1041.6563 734.6094,1041.5469 Q734.7969,1041.4375 735.0156,1041.4375 Q735.3906,1041.4375 735.625,1041.7031 Q735.8594,1041.9531 735.8594,1042.5625 L735.8594,1044.0156 Q735.8594,1044.625 735.625,1044.8906 Q735.3906,1045.1563 735.0156,1045.1563 Q734.6719,1045.1563 734.4688,1044.9531 Q734.2656,1044.7656 734.1563,1044.25 Q734.1094,1043.8906 733.9219,1043.7031 Q733.5938,1043.3281 732.9844,1043.1094 Q732.375,1042.8906 731.75,1042.8906 Q730.9844,1042.8906 730.3438,1043.2188 Q729.7188,1043.5469 729.2188,1044.2969 Q728.7344,1045.0469 728.7344,1046.0781 L728.7344,1047.1719 Q728.7344,1048.4063 729.625,1049.2344 Q730.5156,1050.0469 732.1094,1050.0469 Q733.0469,1050.0469 733.7031,1049.7969 Q734.0938,1049.6406 734.5156,1049.2031 Q734.7813,1048.9375 734.9219,1048.8594 Q735.0781,1048.7813 735.2813,1048.7813 Q735.6094,1048.7813 735.8594,1049.0469 Q736.125,1049.2969 736.125,1049.6406 Q736.125,1049.9844 735.7813,1050.3906 Q735.2813,1050.9688 734.4844,1051.2969 Q733.4063,1051.75 732.1094,1051.75 Q730.5938,1051.75 729.3906,1051.125 Q728.4063,1050.625 727.7188,1049.5625 Q727.0313,1048.4844 727.0313,1047.2031 L727.0313,1046.0469 Q727.0313,1044.7188 727.6406,1043.5781 Q728.2656,1042.4219 729.3594,1041.8125 Q730.4531,1041.1875 731.6875,1041.1875 Q732.4219,1041.1875 733.0625,1041.3594 Q733.7188,1041.5156 734.2656,1041.875 Z " fill="#000000"/><text fill="#000000" font-family="sans-serif" font-size="14" lengthAdjust="spacing" textLength="92" x="745.5" y="1051.7285">MultipleChoice</text><line style="stroke:#181818;stroke-width:0.5;" x1="717.5" x2="839.5" y1="1062" y2="1062"/><line style="stroke:#181818;stroke-width:0.5;" x1="717.5" x2="839.5" y1="1070" y2="1070"/></g><!--class Cloze--><g id="elem_Cloze"><rect codeLine="60" fill="#F1F1F1" height="65.6094" id="Cloze" rx="2.5" ry="2.5" style="stroke:#181818;stroke-width:0.5;" width="107" x="472" y="1021"/><ellipse cx="505" cy="1037" fill="#ADD1B2" rx="11" ry="11" style="stroke:#181818;stroke-width:1.0;"/><path d="M507.7656,1032.875 Q507.9219,1032.6563 508.1094,1032.5469 Q508.2969,1032.4375 508.5156,1032.4375 Q508.8906,1032.4375 509.125,1032.7031 Q509.3594,1032.9531 509.3594,1033.5625 L509.3594,1035.0156 Q509.3594,1035.625 509.125,1035.8906 Q508.8906,1036.1563 508.5156,1036.1563 Q508.1719,1036.1563 507.9688,1035.9531 Q507.7656,1035.7656 507.6563,1035.25 Q507.6094,1034.8906 507.4219,1034.7031 Q507.0938,1034.3281 506.4844,1034.1094 Q505.875,1033.8906 505.25,1033.8906 Q504.4844,1033.8906 503.8438,1034.2188 Q503.2188,1034.5469 502.7188,1035.2969 Q502.2344,1036.0469 502.2344,1037.0781 L502.2344,1038.1719 Q502.2344,1039.4063 503.125,1040.2344 Q504.0156,1041.0469 505.6094,1041.0469 Q506.5469,1041.0469 507.2031,1040.7969 Q507.5938,1040.6406 508.0156,1040.2031 Q508.2813,1039.9375 508.4219,1039.8594 Q508.5781,1039.7813 508.7813,1039.7813 Q509.1094,1039.7813 509.3594,1040.0469 Q509.625,1040.2969 509.625,1040.6406 Q509.625,1040.9844 509.2813,1041.3906 Q508.7813,1041.9688 507.9844,1042.2969 Q506.9063,1042.75 505.6094,1042.75 Q504.0938,1042.75 502.8906,1042.125 Q501.9063,1041.625 501.2188,1040.5625 Q500.5313,1039.4844 500.5313,1038.2031 L500.5313,1037.0469 Q500.5313,1035.7188 501.1406,1034.5781 Q501.7656,1033.4219 502.8594,1032.8125 Q503.9531,1032.1875 505.1875,1032.1875 Q505.9219,1032.1875 506.5625,1032.3594 Q507.2188,1032.5156 507.7656,1032.875 Z " fill="#000000"/><text fill="#000000" font-family="sans-serif" font-size="14" lengthAdjust="spacing" textLength="35" x="523" y="1042.7285">Cloze</text><line style="stroke:#181818;stroke-width:0.5;" x1="473" x2="578" y1="1053" y2="1053"/><text fill="#000000" font-family="sans-serif" font-size="14" lengthAdjust="spacing" textLength="95" x="478" y="1071.5332">blankCount: int</text><line style="stroke:#181818;stroke-width:0.5;" x1="473" x2="578" y1="1078.6094" y2="1078.6094"/></g><!--class Open--><g id="elem_Open"><rect fill="#F1F1F1" height="48" id="Open" rx="2.5" ry="2.5" style="stroke:#181818;stroke-width:0.5;" width="67" x="614" y="1030"/><ellipse cx="629" cy="1046" fill="#ADD1B2" rx="11" ry="11" style="stroke:#181818;stroke-width:1.0;"/><path d="M631.7656,1041.875 Q631.9219,1041.6563 632.1094,1041.5469 Q632.2969,1041.4375 632.5156,1041.4375 Q632.8906,1041.4375 633.125,1041.7031 Q633.3594,1041.9531 633.3594,1042.5625 L633.3594,1044.0156 Q633.3594,1044.625 633.125,1044.8906 Q632.8906,1045.1563 632.5156,1045.1563 Q632.1719,1045.1563 631.9688,1044.9531 Q631.7656,1044.7656 631.6563,1044.25 Q631.6094,1043.8906 631.4219,1043.7031 Q631.0938,1043.3281 630.4844,1043.1094 Q629.875,1042.8906 629.25,1042.8906 Q628.4844,1042.8906 627.8438,1043.2188 Q627.2188,1043.5469 626.7188,1044.2969 Q626.2344,1045.0469 626.2344,1046.0781 L626.2344,1047.1719 Q626.2344,1048.4063 627.125,1049.2344 Q628.0156,1050.0469 629.6094,1050.0469 Q630.5469,1050.0469 631.2031,1049.7969 Q631.5938,1049.6406 632.0156,1049.2031 Q632.2813,1048.9375 632.4219,1048.8594 Q632.5781,1048.7813 632.7813,1048.7813 Q633.1094,1048.7813 633.3594,1049.0469 Q633.625,1049.2969 633.625,1049.6406 Q633.625,1049.9844 633.2813,1050.3906 Q632.7813,1050.9688 631.9844,1051.2969 Q630.9063,1051.75 629.6094,1051.75 Q628.0938,1051.75 626.8906,1051.125 Q625.9063,1050.625 625.2188,1049.5625 Q624.5313,1048.4844 624.5313,1047.2031 L624.5313,1046.0469 Q624.5313,1044.7188 625.1406,1043.5781 Q625.7656,1042.4219 626.8594,1041.8125 Q627.9531,1041.1875 629.1875,1041.1875 Q629.9219,1041.1875 630.5625,1041.3594 Q631.2188,1041.5156 631.7656,1041.875 Z " fill="#000000"/><text fill="#000000" font-family="sans-serif" font-size="14" lengthAdjust="spacing" textLength="35" x="643" y="1051.7285">Open</text><line style="stroke:#181818;stroke-width:0.5;" x1="615" x2="680" y1="1062" y2="1062"/><line style="stroke:#181818;stroke-width:0.5;" x1="615" x2="680" y1="1070" y2="1070"/></g><!--class Document--><g id="elem_Document"><rect codeLine="88" fill="#F1F1F1" height="48" id="Document" rx="2.5" ry="2.5" style="stroke:#181818;stroke-width:0.5;" width="96" x="910.5" y="689"/><ellipse cx="925.5" cy="705" fill="#A9DCDF" rx="11" ry="11" style="stroke:#181818;stroke-width:1.0;"/><path d="M927.6875,706.7656 L923.5469,706.7656 L923.125,707.7969 L923.5469,707.7969 Q924.1563,707.7969 924.4219,708.0313 Q924.6875,708.2656 924.6875,708.6563 Q924.6875,709.0313 924.4219,709.2656 Q924.1563,709.5 923.5469,709.5 L921.25,709.5 Q920.6406,709.5 920.3906,709.2656 Q920.125,709.0313 920.125,708.6406 Q920.125,708.2656 920.4063,708.0313 Q920.6719,707.7813 921.2969,707.7969 L923.9688,701.1406 L922.8594,701.1406 Q922.25,701.1406 921.9844,700.9063 Q921.7188,700.6719 921.7188,700.2813 Q921.7188,699.9063 921.9844,699.6719 Q922.25,699.4375 922.8594,699.4375 L926.5313,699.4375 L929.9219,707.7969 Q930.5156,707.7969 930.7031,707.9375 Q931.0938,708.2031 931.0938,708.6563 Q931.0938,709.0313 930.8281,709.2656 Q930.5781,709.5 929.9688,709.5 L927.6719,709.5 Q927.0625,709.5 926.7969,709.2656 Q926.5313,709.0313 926.5313,708.6406 Q926.5313,708.2656 926.7969,708.0313 Q927.0625,707.7969 927.6719,707.7969 L928.0938,707.7969 L927.6875,706.7656 Z M926.9688,705.0625 L925.6094,701.6875 L924.2344,705.0625 L926.9688,705.0625 Z " fill="#000000"/><text fill="#000000" font-family="sans-serif" font-size="14" font-style="italic" lengthAdjust="spacing" textLength="64" x="939.5" y="710.7285">Document</text><line style="stroke:#181818;stroke-width:0.5;" x1="911.5" x2="1005.5" y1="721" y2="721"/><line style="stroke:#181818;stroke-width:0.5;" x1="911.5" x2="1005.5" y1="729" y2="729"/></g><!--class CompositeTopic--><g id="elem_CompositeTopic"><rect codeLine="84" fill="#F1F1F1" height="48" id="CompositeTopic" rx="2.5" ry="2.5" style="stroke:#181818;stroke-width:0.5;" width="134" x="503.5" y="445"/><ellipse cx="518.5" cy="461" fill="#ADD1B2" rx="11" ry="11" style="stroke:#181818;stroke-width:1.0;"/><path d="M521.2656,456.875 Q521.4219,456.6563 521.6094,456.5469 Q521.7969,456.4375 522.0156,456.4375 Q522.3906,456.4375 522.625,456.7031 Q522.8594,456.9531 522.8594,457.5625 L522.8594,459.0156 Q522.8594,459.625 522.625,459.8906 Q522.3906,460.1563 522.0156,460.1563 Q521.6719,460.1563 521.4688,459.9531 Q521.2656,459.7656 521.1563,459.25 Q521.1094,458.8906 520.9219,458.7031 Q520.5938,458.3281 519.9844,458.1094 Q519.375,457.8906 518.75,457.8906 Q517.9844,457.8906 517.3438,458.2188 Q516.7188,458.5469 516.2188,459.2969 Q515.7344,460.0469 515.7344,461.0781 L515.7344,462.1719 Q515.7344,463.4063 516.625,464.2344 Q517.5156,465.0469 519.1094,465.0469 Q520.0469,465.0469 520.7031,464.7969 Q521.0938,464.6406 521.5156,464.2031 Q521.7813,463.9375 521.9219,463.8594 Q522.0781,463.7813 522.2813,463.7813 Q522.6094,463.7813 522.8594,464.0469 Q523.125,464.2969 523.125,464.6406 Q523.125,464.9844 522.7813,465.3906 Q522.2813,465.9688 521.4844,466.2969 Q520.4063,466.75 519.1094,466.75 Q517.5938,466.75 516.3906,466.125 Q515.4063,465.625 514.7188,464.5625 Q514.0313,463.4844 514.0313,462.2031 L514.0313,461.0469 Q514.0313,459.7188 514.6406,458.5781 Q515.2656,457.4219 516.3594,456.8125 Q517.4531,456.1875 518.6875,456.1875 Q519.4219,456.1875 520.0625,456.3594 Q520.7188,456.5156 521.2656,456.875 Z " fill="#000000"/><text fill="#000000" font-family="sans-serif" font-size="14" lengthAdjust="spacing" textLength="102" x="532.5" y="466.7285">CompositeTopic</text><line style="stroke:#181818;stroke-width:0.5;" x1="504.5" x2="636.5" y1="477" y2="477"/><line style="stroke:#181818;stroke-width:0.5;" x1="504.5" x2="636.5" y1="485" y2="485"/></g><!--class SimpleTopic--><g id="elem_SimpleTopic"><rect codeLine="80" fill="#F1F1F1" height="48" id="SimpleTopic" rx="2.5" ry="2.5" style="stroke:#181818;stroke-width:0.5;" width="109" x="359" y="445"/><ellipse cx="374" cy="461" fill="#ADD1B2" rx="11" ry="11" style="stroke:#181818;stroke-width:1.0;"/><path d="M376.7656,456.875 Q376.9219,456.6563 377.1094,456.5469 Q377.2969,456.4375 377.5156,456.4375 Q377.8906,456.4375 378.125,456.7031 Q378.3594,456.9531 378.3594,457.5625 L378.3594,459.0156 Q378.3594,459.625 378.125,459.8906 Q377.8906,460.1563 377.5156,460.1563 Q377.1719,460.1563 376.9688,459.9531 Q376.7656,459.7656 376.6563,459.25 Q376.6094,458.8906 376.4219,458.7031 Q376.0938,458.3281 375.4844,458.1094 Q374.875,457.8906 374.25,457.8906 Q373.4844,457.8906 372.8438,458.2188 Q372.2188,458.5469 371.7188,459.2969 Q371.2344,460.0469 371.2344,461.0781 L371.2344,462.1719 Q371.2344,463.4063 372.125,464.2344 Q373.0156,465.0469 374.6094,465.0469 Q375.5469,465.0469 376.2031,464.7969 Q376.5938,464.6406 377.0156,464.2031 Q377.2813,463.9375 377.4219,463.8594 Q377.5781,463.7813 377.7813,463.7813 Q378.1094,463.7813 378.3594,464.0469 Q378.625,464.2969 378.625,464.6406 Q378.625,464.9844 378.2813,465.3906 Q377.7813,465.9688 376.9844,466.2969 Q375.9063,466.75 374.6094,466.75 Q373.0938,466.75 371.8906,466.125 Q370.9063,465.625 370.2188,464.5625 Q369.5313,463.4844 369.5313,462.2031 L369.5313,461.0469 Q369.5313,459.7188 370.1406,458.5781 Q370.7656,457.4219 371.8594,456.8125 Q372.9531,456.1875 374.1875,456.1875 Q374.9219,456.1875 375.5625,456.3594 Q376.2188,456.5156 376.7656,456.875 Z " fill="#000000"/><text fill="#000000" font-family="sans-serif" font-size="14" lengthAdjust="spacing" textLength="77" x="388" y="466.7285">SimpleTopic</text><line style="stroke:#181818;stroke-width:0.5;" x1="360" x2="467" y1="477" y2="477"/><line style="stroke:#181818;stroke-width:0.5;" x1="360" x2="467" y1="485" y2="485"/></g><!--class Concept--><g id="elem_Concept"><rect codeLine="98" fill="#F1F1F1" height="48" id="Concept" rx="2.5" ry="2.5" style="stroke:#181818;stroke-width:0.5;" width="85" x="393" y="554"/><ellipse cx="408" cy="570" fill="#ADD1B2" rx="11" ry="11" style="stroke:#181818;stroke-width:1.0;"/><path d="M410.7656,565.875 Q410.9219,565.6563 411.1094,565.5469 Q411.2969,565.4375 411.5156,565.4375 Q411.8906,565.4375 412.125,565.7031 Q412.3594,565.9531 412.3594,566.5625 L412.3594,568.0156 Q412.3594,568.625 412.125,568.8906 Q411.8906,569.1563 411.5156,569.1563 Q411.1719,569.1563 410.9688,568.9531 Q410.7656,568.7656 410.6563,568.25 Q410.6094,567.8906 410.4219,567.7031 Q410.0938,567.3281 409.4844,567.1094 Q408.875,566.8906 408.25,566.8906 Q407.4844,566.8906 406.8438,567.2188 Q406.2188,567.5469 405.7188,568.2969 Q405.2344,569.0469 405.2344,570.0781 L405.2344,571.1719 Q405.2344,572.4063 406.125,573.2344 Q407.0156,574.0469 408.6094,574.0469 Q409.5469,574.0469 410.2031,573.7969 Q410.5938,573.6406 411.0156,573.2031 Q411.2813,572.9375 411.4219,572.8594 Q411.5781,572.7813 411.7813,572.7813 Q412.1094,572.7813 412.3594,573.0469 Q412.625,573.2969 412.625,573.6406 Q412.625,573.9844 412.2813,574.3906 Q411.7813,574.9688 410.9844,575.2969 Q409.9063,575.75 408.6094,575.75 Q407.0938,575.75 405.8906,575.125 Q404.9063,574.625 404.2188,573.5625 Q403.5313,572.4844 403.5313,571.2031 L403.5313,570.0469 Q403.5313,568.7188 404.1406,567.5781 Q404.7656,566.4219 405.8594,565.8125 Q406.9531,565.1875 408.1875,565.1875 Q408.9219,565.1875 409.5625,565.3594 Q410.2188,565.5156 410.7656,565.875 Z " fill="#000000"/><text fill="#000000" font-family="sans-serif" font-size="14" lengthAdjust="spacing" textLength="53" x="422" y="575.7285">Concept</text><line style="stroke:#181818;stroke-width:0.5;" x1="394" x2="477" y1="586" y2="586"/><line style="stroke:#181818;stroke-width:0.5;" x1="394" x2="477" y1="594" y2="594"/></g><!--class Audio--><g id="elem_Audio"><rect fill="#F1F1F1" height="48" id="Audio" rx="2.5" ry="2.5" style="stroke:#181818;stroke-width:0.5;" width="68" x="973.5" y="851"/><ellipse cx="988.5" cy="867" fill="#ADD1B2" rx="11" ry="11" style="stroke:#181818;stroke-width:1.0;"/><path d="M991.2656,862.875 Q991.4219,862.6563 991.6094,862.5469 Q991.7969,862.4375 992.0156,862.4375 Q992.3906,862.4375 992.625,862.7031 Q992.8594,862.9531 992.8594,863.5625 L992.8594,865.0156 Q992.8594,865.625 992.625,865.8906 Q992.3906,866.1563 992.0156,866.1563 Q991.6719,866.1563 991.4688,865.9531 Q991.2656,865.7656 991.1563,865.25 Q991.1094,864.8906 990.9219,864.7031 Q990.5938,864.3281 989.9844,864.1094 Q989.375,863.8906 988.75,863.8906 Q987.9844,863.8906 987.3438,864.2188 Q986.7188,864.5469 986.2188,865.2969 Q985.7344,866.0469 985.7344,867.0781 L985.7344,868.1719 Q985.7344,869.4063 986.625,870.2344 Q987.5156,871.0469 989.1094,871.0469 Q990.0469,871.0469 990.7031,870.7969 Q991.0938,870.6406 991.5156,870.2031 Q991.7813,869.9375 991.9219,869.8594 Q992.0781,869.7813 992.2813,869.7813 Q992.6094,869.7813 992.8594,870.0469 Q993.125,870.2969 993.125,870.6406 Q993.125,870.9844 992.7813,871.3906 Q992.2813,871.9688 991.4844,872.2969 Q990.4063,872.75 989.1094,872.75 Q987.5938,872.75 986.3906,872.125 Q985.4063,871.625 984.7188,870.5625 Q984.0313,869.4844 984.0313,868.2031 L984.0313,867.0469 Q984.0313,865.7188 984.6406,864.5781 Q985.2656,863.4219 986.3594,862.8125 Q987.4531,862.1875 988.6875,862.1875 Q989.4219,862.1875 990.0625,862.3594 Q990.7188,862.5156 991.2656,862.875 Z " fill="#000000"/><text fill="#000000" font-family="sans-serif" font-size="14" lengthAdjust="spacing" textLength="36" x="1002.5" y="872.7285">Audio</text><line style="stroke:#181818;stroke-width:0.5;" x1="974.5" x2="1040.5" y1="883" y2="883"/><line style="stroke:#181818;stroke-width:0.5;" x1="974.5" x2="1040.5" y1="891" y2="891"/></g><!--class Video--><g id="elem_Video"><rect fill="#F1F1F1" height="48" id="Video" rx="2.5" ry="2.5" style="stroke:#181818;stroke-width:0.5;" width="68" x="1076.5" y="851"/><ellipse cx="1091.5" cy="867" fill="#ADD1B2" rx="11" ry="11" style="stroke:#181818;stroke-width:1.0;"/><path d="M1094.2656,862.875 Q1094.4219,862.6563 1094.6094,862.5469 Q1094.7969,862.4375 1095.0156,862.4375 Q1095.3906,862.4375 1095.625,862.7031 Q1095.8594,862.9531 1095.8594,863.5625 L1095.8594,865.0156 Q1095.8594,865.625 1095.625,865.8906 Q1095.3906,866.1563 1095.0156,866.1563 Q1094.6719,866.1563 1094.4688,865.9531 Q1094.2656,865.7656 1094.1563,865.25 Q1094.1094,864.8906 1093.9219,864.7031 Q1093.5938,864.3281 1092.9844,864.1094 Q1092.375,863.8906 1091.75,863.8906 Q1090.9844,863.8906 1090.3438,864.2188 Q1089.7188,864.5469 1089.2188,865.2969 Q1088.7344,866.0469 1088.7344,867.0781 L1088.7344,868.1719 Q1088.7344,869.4063 1089.625,870.2344 Q1090.5156,871.0469 1092.1094,871.0469 Q1093.0469,871.0469 1093.7031,870.7969 Q1094.0938,870.6406 1094.5156,870.2031 Q1094.7813,869.9375 1094.9219,869.8594 Q1095.0781,869.7813 1095.2813,869.7813 Q1095.6094,869.7813 1095.8594,870.0469 Q1096.125,870.2969 1096.125,870.6406 Q1096.125,870.9844 1095.7813,871.3906 Q1095.2813,871.9688 1094.4844,872.2969 Q1093.4063,872.75 1092.1094,872.75 Q1090.5938,872.75 1089.3906,872.125 Q1088.4063,871.625 1087.7188,870.5625 Q1087.0313,869.4844 1087.0313,868.2031 L1087.0313,867.0469 Q1087.0313,865.7188 1087.6406,864.5781 Q1088.2656,863.4219 1089.3594,862.8125 Q1090.4531,862.1875 1091.6875,862.1875 Q1092.4219,862.1875 1093.0625,862.3594 Q1093.7188,862.5156 1094.2656,862.875 Z " fill="#000000"/><text fill="#000000" font-family="sans-serif" font-size="14" lengthAdjust="spacing" textLength="36" x="1105.5" y="872.7285">Video</text><line style="stroke:#181818;stroke-width:0.5;" x1="1077.5" x2="1143.5" y1="883" y2="883"/><line style="stroke:#181818;stroke-width:0.5;" x1="1077.5" x2="1143.5" y1="891" y2="891"/></g><!--class Image--><g id="elem_Image"><rect fill="#F1F1F1" height="48" id="Image" rx="2.5" ry="2.5" style="stroke:#181818;stroke-width:0.5;" width="70" x="1179.5" y="851"/><ellipse cx="1194.5" cy="867" fill="#ADD1B2" rx="11" ry="11" style="stroke:#181818;stroke-width:1.0;"/><path d="M1197.2656,862.875 Q1197.4219,862.6563 1197.6094,862.5469 Q1197.7969,862.4375 1198.0156,862.4375 Q1198.3906,862.4375 1198.625,862.7031 Q1198.8594,862.9531 1198.8594,863.5625 L1198.8594,865.0156 Q1198.8594,865.625 1198.625,865.8906 Q1198.3906,866.1563 1198.0156,866.1563 Q1197.6719,866.1563 1197.4688,865.9531 Q1197.2656,865.7656 1197.1563,865.25 Q1197.1094,864.8906 1196.9219,864.7031 Q1196.5938,864.3281 1195.9844,864.1094 Q1195.375,863.8906 1194.75,863.8906 Q1193.9844,863.8906 1193.3438,864.2188 Q1192.7188,864.5469 1192.2188,865.2969 Q1191.7344,866.0469 1191.7344,867.0781 L1191.7344,868.1719 Q1191.7344,869.4063 1192.625,870.2344 Q1193.5156,871.0469 1195.1094,871.0469 Q1196.0469,871.0469 1196.7031,870.7969 Q1197.0938,870.6406 1197.5156,870.2031 Q1197.7813,869.9375 1197.9219,869.8594 Q1198.0781,869.7813 1198.2813,869.7813 Q1198.6094,869.7813 1198.8594,870.0469 Q1199.125,870.2969 1199.125,870.6406 Q1199.125,870.9844 1198.7813,871.3906 Q1198.2813,871.9688 1197.4844,872.2969 Q1196.4063,872.75 1195.1094,872.75 Q1193.5938,872.75 1192.3906,872.125 Q1191.4063,871.625 1190.7188,870.5625 Q1190.0313,869.4844 1190.0313,868.2031 L1190.0313,867.0469 Q1190.0313,865.7188 1190.6406,864.5781 Q1191.2656,863.4219 1192.3594,862.8125 Q1193.4531,862.1875 1194.6875,862.1875 Q1195.4219,862.1875 1196.0625,862.3594 Q1196.7188,862.5156 1197.2656,862.875 Z " fill="#000000"/><text fill="#000000" font-family="sans-serif" font-size="14" lengthAdjust="spacing" textLength="38" x="1208.5" y="872.7285">Image</text><line style="stroke:#181818;stroke-width:0.5;" x1="1180.5" x2="1248.5" y1="883" y2="883"/><line style="stroke:#181818;stroke-width:0.5;" x1="1180.5" x2="1248.5" y1="891" y2="891"/></g><!--class Text--><g id="elem_Text"><rect fill="#F1F1F1" height="48" id="Text" rx="2.5" ry="2.5" style="stroke:#181818;stroke-width:0.5;" width="59" x="879" y="851"/><ellipse cx="894" cy="867" fill="#ADD1B2" rx="11" ry="11" style="stroke:#181818;stroke-width:1.0;"/><path d="M896.7656,862.875 Q896.9219,862.6563 897.1094,862.5469 Q897.2969,862.4375 897.5156,862.4375 Q897.8906,862.4375 898.125,862.7031 Q898.3594,862.9531 898.3594,863.5625 L898.3594,865.0156 Q898.3594,865.625 898.125,865.8906 Q897.8906,866.1563 897.5156,866.1563 Q897.1719,866.1563 896.9688,865.9531 Q896.7656,865.7656 896.6563,865.25 Q896.6094,864.8906 896.4219,864.7031 Q896.0938,864.3281 895.4844,864.1094 Q894.875,863.8906 894.25,863.8906 Q893.4844,863.8906 892.8438,864.2188 Q892.2188,864.5469 891.7188,865.2969 Q891.2344,866.0469 891.2344,867.0781 L891.2344,868.1719 Q891.2344,869.4063 892.125,870.2344 Q893.0156,871.0469 894.6094,871.0469 Q895.5469,871.0469 896.2031,870.7969 Q896.5938,870.6406 897.0156,870.2031 Q897.2813,869.9375 897.4219,869.8594 Q897.5781,869.7813 897.7813,869.7813 Q898.1094,869.7813 898.3594,870.0469 Q898.625,870.2969 898.625,870.6406 Q898.625,870.9844 898.2813,871.3906 Q897.7813,871.9688 896.9844,872.2969 Q895.9063,872.75 894.6094,872.75 Q893.0938,872.75 891.8906,872.125 Q890.9063,871.625 890.2188,870.5625 Q889.5313,869.4844 889.5313,868.2031 L889.5313,867.0469 Q889.5313,865.7188 890.1406,864.5781 Q890.7656,863.4219 891.8594,862.8125 Q892.9531,862.1875 894.1875,862.1875 Q894.9219,862.1875 895.5625,862.3594 Q896.2188,862.5156 896.7656,862.875 Z " fill="#000000"/><text fill="#000000" font-family="sans-serif" font-size="14" lengthAdjust="spacing" textLength="27" x="908" y="872.7285">Text</text><line style="stroke:#181818;stroke-width:0.5;" x1="880" x2="937" y1="883" y2="883"/><line style="stroke:#181818;stroke-width:0.5;" x1="880" x2="937" y1="891" y2="891"/></g><!--class Relation--><g id="elem_Relation"><rect codeLine="106" fill="#F1F1F1" height="48" id="Relation" rx="2.5" ry="2.5" style="stroke:#181818;stroke-width:0.5;" width="84" x="539.5" y="689"/><ellipse cx="554.5" cy="705" fill="#ADD1B2" rx="11" ry="11" style="stroke:#181818;stroke-width:1.0;"/><path d="M557.2656,700.875 Q557.4219,700.6563 557.6094,700.5469 Q557.7969,700.4375 558.0156,700.4375 Q558.3906,700.4375 558.625,700.7031 Q558.8594,700.9531 558.8594,701.5625 L558.8594,703.0156 Q558.8594,703.625 558.625,703.8906 Q558.3906,704.1563 558.0156,704.1563 Q557.6719,704.1563 557.4688,703.9531 Q557.2656,703.7656 557.1563,703.25 Q557.1094,702.8906 556.9219,702.7031 Q556.5938,702.3281 555.9844,702.1094 Q555.375,701.8906 554.75,701.8906 Q553.9844,701.8906 553.3438,702.2188 Q552.7188,702.5469 552.2188,703.2969 Q551.7344,704.0469 551.7344,705.0781 L551.7344,706.1719 Q551.7344,707.4063 552.625,708.2344 Q553.5156,709.0469 555.1094,709.0469 Q556.0469,709.0469 556.7031,708.7969 Q557.0938,708.6406 557.5156,708.2031 Q557.7813,707.9375 557.9219,707.8594 Q558.0781,707.7813 558.2813,707.7813 Q558.6094,707.7813 558.8594,708.0469 Q559.125,708.2969 559.125,708.6406 Q559.125,708.9844 558.7813,709.3906 Q558.2813,709.9688 557.4844,710.2969 Q556.4063,710.75 555.1094,710.75 Q553.5938,710.75 552.3906,710.125 Q551.4063,709.625 550.7188,708.5625 Q550.0313,707.4844 550.0313,706.2031 L550.0313,705.0469 Q550.0313,703.7188 550.6406,702.5781 Q551.2656,701.4219 552.3594,700.8125 Q553.4531,700.1875 554.6875,700.1875 Q555.4219,700.1875 556.0625,700.3594 Q556.7188,700.5156 557.2656,700.875 Z " fill="#000000"/><text fill="#000000" font-family="sans-serif" font-size="14" lengthAdjust="spacing" textLength="52" x="568.5" y="710.7285">Relation</text><line style="stroke:#181818;stroke-width:0.5;" x1="540.5" x2="622.5" y1="721" y2="721"/><line style="stroke:#181818;stroke-width:0.5;" x1="540.5" x2="622.5" y1="729" y2="729"/></g><!--class RelationType--><g id="elem_RelationType"><rect codeLine="111" fill="#F1F1F1" height="136.0469" id="RelationType" rx="2.5" ry="2.5" style="stroke:#181818;stroke-width:0.5;" width="116" x="727.5" y="807"/><ellipse cx="742.5" cy="823" fill="#EB937F" rx="11" ry="11" style="stroke:#181818;stroke-width:1.0;"/><path d="M741.3594,823.7969 L741.3594,826.2969 L745.6875,826.2969 L745.6875,825.375 Q745.6875,824.7656 745.9219,824.5 Q746.1719,824.2344 746.5469,824.2344 Q746.9219,824.2344 747.1563,824.5 Q747.3906,824.7656 747.3906,825.375 L747.3906,828 L739.3906,828 Q738.7656,828 738.5,827.7656 Q738.25,827.5313 738.25,827.1406 Q738.25,826.7656 738.5156,826.5313 Q738.7813,826.2969 739.3906,826.2969 L739.6563,826.2969 L739.6563,819.6406 L739.3906,819.6406 Q738.7656,819.6406 738.5,819.4063 Q738.25,819.1719 738.25,818.7813 Q738.25,818.4063 738.5,818.1719 Q738.7656,817.9375 739.3906,817.9375 L747.0156,817.9375 L747.0156,820.5313 Q747.0156,821.1406 746.7813,821.4063 Q746.5625,821.6563 746.1719,821.6563 Q745.7969,821.6563 745.5625,821.4063 Q745.3281,821.1406 745.3281,820.5313 L745.3281,819.6406 L741.3594,819.6406 L741.3594,822.0938 L742.8438,822.0938 Q742.8438,821.4375 742.9688,821.25 Q743.2344,820.8438 743.7031,820.8438 Q744.0781,820.8438 744.3125,821.1094 Q744.5469,821.3594 744.5469,821.9688 L744.5469,823.9375 Q744.5469,824.4844 744.4219,824.6719 Q744.1563,825.0625 743.7031,825.0625 Q743.2344,825.0625 742.9688,824.6563 Q742.8438,824.4688 742.8438,823.7969 L741.3594,823.7969 Z " fill="#000000"/><text fill="#000000" font-family="sans-serif" font-size="14" lengthAdjust="spacing" textLength="84" x="756.5" y="828.7285">RelationType</text><line style="stroke:#181818;stroke-width:0.5;" x1="728.5" x2="842.5" y1="839" y2="839"/><text fill="#000000" font-family="sans-serif" font-size="14" lengthAdjust="spacing" textLength="24" x="733.5" y="857.5332">Use</text><text fill="#000000" font-family="sans-serif" font-size="14" lengthAdjust="spacing" textLength="72" x="733.5" y="875.1426">Association</text><text fill="#000000" font-family="sans-serif" font-size="14" lengthAdjust="spacing" textLength="78" x="733.5" y="892.752">Composition</text><text fill="#000000" font-family="sans-serif" font-size="14" lengthAdjust="spacing" textLength="70" x="733.5" y="910.3613">Inheritance</text><text fill="#000000" font-family="sans-serif" font-size="14" lengthAdjust="spacing" textLength="77" x="733.5" y="927.9707">Aggregation</text><line style="stroke:#181818;stroke-width:0.5;" x1="728.5" x2="842.5" y1="935.0469" y2="935.0469"/></g><!--link EducationPlatform to User--><g id="link_EducationPlatform_User"><path codeLine="2" d="M301.5032,64.3513 C294.0132,73.2513 293.66,74.6 287.5,85 C278.54,100.12 273.1245,112.8783 268.0345,127.1583 " fill="none" id="EducationPlatform-User" style="stroke:#181818;stroke-width:1.0;"/><polygon fill="#181818" points="309.23,55.17,302.3062,57.1851,301.5032,64.3513,308.4271,62.3363,309.23,55.17" style="stroke:#181818;stroke-width:1.0;"/><polygon fill="#181818" points="266.02,132.81,272.8096,125.6754,267.6988,128.1002,265.274,122.9894,266.02,132.81" style="stroke:#181818;stroke-width:1.0;"/><text fill="#000000" font-family="sans-serif" font-size="13" lengthAdjust="spacing" textLength="8" x="258.922" y="122.1015">+</text></g><!--link EducationPlatform to Topic--><g id="link_EducationPlatform_Topic"><path codeLine="3" d="M415.0856,59.0023 C433.7256,66.8223 441.83,72.28 457.5,85 C520.91,136.48 532.6742,236.1963 534.8242,282.9263 " fill="none" id="EducationPlatform-Topic" style="stroke:#181818;stroke-width:1.0;"/><polygon fill="#181818" points="404.02,54.36,408.0054,60.3697,415.0856,59.0023,411.1003,52.9926,404.02,54.36" style="stroke:#181818;stroke-width:1.0;"/><polygon fill="#181818" points="535.1,288.92,538.6821,279.7457,534.8702,283.9253,530.6906,280.1134,535.1,288.92" style="stroke:#181818;stroke-width:1.0;"/></g><!--link EducationPlatform to Itinerary--><g id="link_EducationPlatform_Itinerary"><path codeLine="4" d="M320.7626,66.8008 C317.5826,81.5608 318.8,88.8 327.5,103 C341.11,125.2 361.5795,136.5381 384.2495,144.2481 " fill="none" id="EducationPlatform-Itinerary" style="stroke:#181818;stroke-width:1.0;"/><polygon fill="#181818" points="323.29,55.07,318.116,60.093,320.7626,66.8008,325.9366,61.7779,323.29,55.07" style="stroke:#181818;stroke-width:1.0;"/><polygon fill="#181818" points="389.93,146.18,382.6972,139.4952,385.1963,144.5701,380.1214,147.0691,389.93,146.18" style="stroke:#181818;stroke-width:1.0;"/><text fill="#000000" font-family="sans-serif" font-size="13" lengthAdjust="spacing" textLength="59" x="328.5" y="99.4951">predefined</text></g><!--link EducationPlatform to Itinerary--><g id="link_EducationPlatform_Itinerary"><path codeLine="5" d="M371.1355,62.7057 C381.6455,71.3557 383.65,74.12 392.5,85 C404.39,99.62 411.9353,112.9752 418.8853,127.5352 " fill="none" id="EducationPlatform-Itinerary-1" style="stroke:#181818;stroke-width:1.0;"/><polygon fill="none" points="361.87,55.08,363.9608,61.9813,371.1355,62.7057,369.0446,55.8044,361.87,55.08" style="stroke:#181818;stroke-width:1.0;"/><polygon fill="#181818" points="421.47,132.95,421.2029,123.1048,419.3161,128.4377,413.9832,126.551,421.47,132.95" style="stroke:#181818;stroke-width:1.0;"/><text fill="#000000" font-family="sans-serif" font-size="13" lengthAdjust="spacing" textLength="43" x="405.5" y="99.4951">custom</text><text fill="#000000" font-family="sans-serif" font-size="13" lengthAdjust="spacing" textLength="5" x="413.2592" y="122.2773">*</text></g><!--link EducationPlatform to Evaluator--><g id="link_EducationPlatform_Evaluator"><path codeLine="6" d="M289.1562,62.2569 C236.0562,101.1169 144.1916,168.3561 91.0616,207.2461 " fill="none" id="EducationPlatform-Evaluator" style="stroke:#181818;stroke-width:1.0;"/><polygon fill="#181818" points="298.84,55.17,291.6358,55.4855,289.1562,62.2569,296.3604,61.9414,298.84,55.17" style="stroke:#181818;stroke-width:1.0;"/><polygon fill="#181818" points="86.22,210.79,95.8449,208.7018,90.2546,207.8367,91.1197,202.2464,86.22,210.79" style="stroke:#181818;stroke-width:1.0;"/></g><!--reverse link User to Teacher--><g id="link_User_Teacher"><path codeLine="12" d="M234.6066,196.3343 C216.5066,225.3643 195.11,259.68 176.97,288.79 " fill="none" id="User-backto-Teacher" style="stroke:#181818;stroke-width:1.0;"/><polygon fill="none" points="244.13,181.06,229.5151,193.1598,239.698,199.5088,244.13,181.06" style="stroke:#181818;stroke-width:1.0;"/></g><!--reverse link User to Student--><g id="link_User_Student"><path codeLine="13" d="M255.2778,199.1394 C252.1678,234.1594 245.11,284.1 222.5,337 C218,347.52 211.21,358.08 204.67,366.96 " fill="none" id="User-backto-Student" style="stroke:#181818;stroke-width:1.0;"/><polygon fill="none" points="256.87,181.21,249.3013,198.6087,261.2542,199.6702,256.87,181.21" style="stroke:#181818;stroke-width:1.0;"/></g><!--link Student to Solution--><g id="link_Student_Solution"><path codeLine="21" d="M154.9305,424.4693 C133.5005,449.1393 112.5,481.08 112.5,523 C112.5,523 112.5,523 112.5,714 C112.5,751.45 105.899,787.1651 98.149,818.5351 " fill="none" id="Student-Solution" style="stroke:#181818;stroke-width:1.0;"/><polygon fill="#181818" points="162.8,415.41,155.8455,417.3165,154.9305,424.4693,161.885,422.5628,162.8,415.41" style="stroke:#181818;stroke-width:1.0;"/><polygon fill="#181818" points="96.71,824.36,102.7518,816.5821,97.9092,819.5059,94.9853,814.6633,96.71,824.36" style="stroke:#181818;stroke-width:1.0;"/><text fill="#000000" font-family="sans-serif" font-size="13" lengthAdjust="spacing" textLength="5" x="93.3567" y="813.6457">*</text></g><!--link Evaluator to Solution--><g id="link_Evaluator_Solution"><path codeLine="26" d="M51.32,259.17 C47.47,289.26 41.5,343.45 41.5,390 C41.5,390 41.5,390 41.5,714 C41.5,751.85 50.4753,787.5271 61.0353,818.7071 " fill="none" id="Evaluator-to-Solution" style="stroke:#181818;stroke-width:1.0;"/><polygon fill="#181818" points="62.96,824.39,63.8616,814.5825,61.3561,819.6542,56.2844,817.1487,62.96,824.39" style="stroke:#181818;stroke-width:1.0;"/></g><!--link Itinerary to Topic--><g id="link_Itinerary_Topic"><path codeLine="30" d="M453.7871,191.0038 C473.3971,220.0338 496.8131,254.707 516.4631,283.817 " fill="none" id="Itinerary-Topic" style="stroke:#181818;stroke-width:1.0;"/><polygon fill="none" points="447.07,181.06,447.114,188.271,453.7871,191.0038,453.7432,183.7929,447.07,181.06" style="stroke:#181818;stroke-width:1.0;"/><polygon fill="#181818" points="519.82,288.79,518.1,279.0925,517.0226,284.6458,511.4693,283.5684,519.82,288.79" style="stroke:#181818;stroke-width:1.0;"/><text fill="#000000" font-family="sans-serif" font-size="13" lengthAdjust="spacing" textLength="8" x="506.777" y="278.0763">+</text></g><!--link Definition to Justification--><g id="link_Definition_Justification"><path codeLine="35" d="M256.0067,758.0017 C252.1567,775.9017 249.81,786.81 245.5,807 C228.05,888.75 240.46,914.61 206.5,991 C201.91,1001.33 198.924,1006.7839 192.284,1015.9339 " fill="none" id="Definition-Justification" style="stroke:#181818;stroke-width:1.0;"/><polygon fill="#181818" points="258.53,746.27,253.3578,751.2948,256.0067,758.0017,261.1789,752.977,258.53,746.27" style="stroke:#181818;stroke-width:1.0;"/><polygon fill="#181818" points="188.76,1020.79,197.2834,1015.8552,191.6966,1016.7433,190.8086,1011.1566,188.76,1020.79" style="stroke:#181818;stroke-width:1.0;"/><text fill="#000000" font-family="sans-serif" font-size="13" lengthAdjust="spacing" textLength="106" x="246.5" y="880.4951">[!definition.correct]</text><text fill="#000000" font-family="sans-serif" font-size="13" lengthAdjust="spacing" textLength="5" x="188.6346" y="1010.245">*</text></g><!--reverse link Exercise to Domain--><g id="link_Exercise_Domain"><path codeLine="49" d="M446.1242,763.9863 C451.4642,789.0963 455.14,806.44 460.88,833.42 " fill="none" id="Exercise-backto-Domain" style="stroke:#181818;stroke-width:1.0;"/><polygon fill="none" points="442.38,746.38,440.2555,765.2343,451.993,762.7382,442.38,746.38" style="stroke:#181818;stroke-width:1.0;"/></g><!--reverse link Exercise to Question--><g id="link_Exercise_Question"><path codeLine="50" d="M510.8957,755.1221 C539.4157,771.6421 557.72,784.09 585.5,807 C601.4,820.11 617.14,837.18 628.78,850.81 " fill="none" id="Exercise-backto-Question" style="stroke:#181818;stroke-width:1.0;"/><polygon fill="none" points="495.32,746.1,507.8883,760.314,513.903,749.9302,495.32,746.1" style="stroke:#181818;stroke-width:1.0;"/></g><!--link Exercise to Solution--><g id="link_Exercise_Solution"><path codeLine="51" d="M355.2982,737.5215 C343.7882,741.6615 343.4,741.95 332.5,746 C259.61,773.12 237.96,772.03 168.5,807 C158.21,812.18 152.7865,815.0097 142.7365,821.2097 " fill="none" id="Exercise-Solution" style="stroke:#181818;stroke-width:1.0;"/><polygon fill="#181818" points="366.59,733.46,359.5903,731.7268,355.2982,737.5215,362.2979,739.2547,366.59,733.46" style="stroke:#181818;stroke-width:1.0;"/><polygon fill="#181818" points="137.63,824.36,147.3899,823.0389,141.8854,821.7348,143.1895,816.2303,137.63,824.36" style="stroke:#181818;stroke-width:1.0;"/><text fill="#000000" font-family="sans-serif" font-size="13" lengthAdjust="spacing" textLength="8" x="136.8202" y="813.6457">+</text></g><!--link Exercise to Solution--><g id="link_Exercise_Solution"><path codeLine="52" d="M355.8212,750.3391 C283.2812,777.2891 272.83,772.1 203.5,807 C188.45,814.58 177.9809,820.7007 163.1109,829.9107 " fill="none" id="Exercise-Solution-1" style="stroke:#181818;stroke-width:1.0;"/><polygon fill="none" points="367.07,746.16,360.0526,744.5,355.8212,750.3391,362.8387,751.9992,367.07,746.16" style="stroke:#181818;stroke-width:1.0;"/><polygon fill="#181818" points="158.01,833.07,167.7675,831.7316,162.2607,830.4372,163.5551,824.9305,158.01,833.07" style="stroke:#181818;stroke-width:1.0;"/><text fill="#000000" font-family="sans-serif" font-size="13" lengthAdjust="spacing" textLength="5" x="166.0548" y="825.4431">*</text></g><!--reverse link Question to MultipleChoice--><g id="link_Question_MultipleChoice"><path codeLine="56" d="M675.337,913.6093 C700.437,947.5293 736.26,995.93 761.37,1029.85 " fill="none" id="Question-backto-MultipleChoice" style="stroke:#181818;stroke-width:1.0;"/><polygon fill="none" points="664.63,899.14,670.5138,917.1783,680.1601,910.0403,664.63,899.14" style="stroke:#181818;stroke-width:1.0;"/></g><!--reverse link Question to Cloze--><g id="link_Question_Cloze"><path codeLine="57" d="M621.3357,913.9612 C599.8957,945.0712 571.88,985.71 547.66,1020.86 " fill="none" id="Question-backto-Cloze" style="stroke:#181818;stroke-width:1.0;"/><polygon fill="none" points="631.55,899.14,616.3953,910.5564,626.2761,917.366,631.55,899.14" style="stroke:#181818;stroke-width:1.0;"/></g><!--reverse link Question to Open--><g id="link_Question_Open"><path codeLine="58" d="M647.5,917.14 C647.5,951.06 647.5,995.93 647.5,1029.85 " fill="none" id="Question-backto-Open" style="stroke:#181818;stroke-width:1.0;"/><polygon fill="none" points="647.5,899.14,641.5,917.14,653.5,917.14,647.5,899.14" style="stroke:#181818;stroke-width:1.0;"/></g><!--link Solution to Justification--><g id="link_Solution_Justification"><path codeLine="72" d="M84.7752,937.5403 C86.8852,958.6203 90.42,970.96 100.5,991 C105.93,1001.79 109.767,1007.5596 118.197,1016.3496 " fill="none" id="Solution-Justification" style="stroke:#181818;stroke-width:1.0;"/><polygon fill="#181818" points="83.58,925.6,80.1975,931.9686,84.7752,937.5403,88.1577,931.1718,83.58,925.6" style="stroke:#181818;stroke-width:1.0;"/><polygon fill="#181818" points="122.35,1020.68,119.0074,1011.4157,118.8891,1017.0713,113.2335,1016.9531,122.35,1020.68" style="stroke:#181818;stroke-width:1.0;"/><text fill="#000000" font-family="sans-serif" font-size="13" lengthAdjust="spacing" textLength="100" x="101.5" y="987.4951">[!solution.correct]</text><text fill="#000000" font-family="sans-serif" font-size="13" lengthAdjust="spacing" textLength="5" x="109.1502" y="1010.1133">*</text></g><!--link Topic to Document--><g id="link_Topic_Document"><path codeLine="76" d="M570.9823,344.9333 C581.4923,354.1733 584.64,357.05 595.5,367 C725.31,485.94 872.5889,628.3967 930.2689,684.4967 " fill="none" id="Topic-Document" style="stroke:#008000;stroke-width:1.0;"/><polygon fill="#008000" points="561.97,337.01,563.8351,343.9757,570.9823,344.9333,569.1172,337.9675,561.97,337.01" style="stroke:#008000;stroke-width:1.0;"/><polygon fill="#008000" points="934.57,688.68,930.9072,679.5376,930.9857,685.1939,925.3294,685.2724,934.57,688.68" style="stroke:#008000;stroke-width:1.0;"/><text fill="#000000" font-family="sans-serif" font-size="13" lengthAdjust="spacing" textLength="5" x="923.1277" y="678.34">*</text></g><!--reverse link Topic to CompositeTopic--><g id="link_Topic_CompositeTopic"><path codeLine="77" d="M532.6595,355.0108 C534.8095,384.0408 544.75,415.68 555.79,444.79 " fill="none" id="Topic-backto-CompositeTopic" style="stroke:#181818;stroke-width:1.0;"/><polygon fill="none" points="531.33,337.06,526.6759,355.454,538.6431,354.5677,531.33,337.06" style="stroke:#181818;stroke-width:1.0;"/></g><!--link CompositeTopic to Topic--><g id="link_CompositeTopic_Topic"><path codeLine="86" d="M574.4202,432.816 C572.5002,403.706 564.1881,371.6807 552.8781,342.6507 " fill="none" id="CompositeTopic-Topic" style="stroke:#181818;stroke-width:1.0;"/><polygon fill="none" points="575.21,444.79,578.8064,438.5398,574.4202,432.816,570.8238,439.0663,575.21,444.79" style="stroke:#181818;stroke-width:1.0;"/><polygon fill="#181818" points="550.7,337.06,550.24,346.8981,552.5151,341.7189,557.6943,343.994,550.7,337.06" style="stroke:#181818;stroke-width:1.0;"/><text fill="#000000" font-family="sans-serif" font-size="13" lengthAdjust="spacing" textLength="8" x="545.43" y="358.4126">+</text></g><!--reverse link Topic to SimpleTopic--><g id="link_Topic_SimpleTopic"><path codeLine="78" d="M506.062,351.1686 C483.062,380.1986 454.95,415.68 431.89,444.79 " fill="none" id="Topic-backto-SimpleTopic" style="stroke:#181818;stroke-width:1.0;"/><polygon fill="none" points="517.24,337.06,501.3591,347.4426,510.7649,354.8946,517.24,337.06" style="stroke:#181818;stroke-width:1.0;"/></g><!--link SimpleTopic to Concept--><g id="link_SimpleTopic_Concept"><path codeLine="82" d="M420.6876,504.9739 C424.3776,522.9139 425.8412,530.013 429.5312,547.953 " fill="none" id="SimpleTopic-Concept" style="stroke:#181818;stroke-width:1.0;"/><polygon fill="none" points="418.27,493.22,415.5608,499.9028,420.6876,504.9739,423.3968,498.2911,418.27,493.22" style="stroke:#181818;stroke-width:1.0;"/><polygon fill="#181818" points="430.74,553.83,432.8448,544.2087,429.7327,548.9325,425.0088,545.8204,430.74,553.83" style="stroke:#181818;stroke-width:1.0;"/><text fill="#000000" font-family="sans-serif" font-size="13" lengthAdjust="spacing" textLength="8" x="420.4953" y="543.1266">+</text></g><!--reverse link Document to Audio--><g id="link_Document_Audio"><path codeLine="89" d="M970.8977,754.482 C980.2077,784.902 991.16,820.66 1000.45,850.97 " fill="none" id="Document-backto-Audio" style="stroke:#181818;stroke-width:1.0;"/><polygon fill="none" points="965.63,737.27,965.1604,756.2379,976.635,752.7261,965.63,737.27" style="stroke:#181818;stroke-width:1.0;"/></g><!--reverse link Document to Video--><g id="link_Document_Video"><path codeLine="90" d="M999.9408,749.0059 C1020.9508,767.1259 1036.39,781.62 1059.5,807 C1072.1,820.84 1084.85,837.59 1094.45,850.88 " fill="none" id="Document-backto-Video" style="stroke:#181818;stroke-width:1.0;"/><polygon fill="none" points="986.31,737.25,996.0222,753.5495,1003.8595,744.4623,986.31,737.25" style="stroke:#181818;stroke-width:1.0;"/></g><!--reverse link Document to Image--><g id="link_Document_Image"><path codeLine="91" d="M1023.6569,734.3097 C1067.4269,749.1497 1115.18,769.57 1162.5,807 C1177.86,819.15 1191.29,836.76 1200.66,850.88 " fill="none" id="Document-backto-Image" style="stroke:#181818;stroke-width:1.0;"/><polygon fill="none" points="1006.61,728.53,1021.7303,739.9919,1025.5834,728.6274,1006.61,728.53" style="stroke:#181818;stroke-width:1.0;"/></g><!--reverse link Document to Text--><g id="link_Document_Text"><path codeLine="92" d="M945.8591,754.45 C936.3491,784.87 925.17,820.66 915.7,850.97 " fill="none" id="Document-backto-Text" style="stroke:#181818;stroke-width:1.0;"/><polygon fill="none" points="951.23,737.27,940.1324,752.6597,951.5858,756.2403,951.23,737.27" style="stroke:#181818;stroke-width:1.0;"/></g><!--link Concept to Definition--><g id="link_Concept_Definition"><path codeLine="100" d="M380.8912,580.7837 C342.0212,584.0137 298.37,594.48 269.5,632 C259.24,645.34 257.2839,657.9605 258.6039,673.8705 " fill="none" id="Concept-Definition" style="stroke:#181818;stroke-width:1.0;"/><polygon fill="#181818" points="392.85,579.79,386.5394,576.3006,380.8912,580.7837,387.2019,584.2731,392.85,579.79" style="stroke:#181818;stroke-width:1.0;"/><polygon fill="#181818" points="259.1,679.85,262.3422,670.5501,258.6866,674.8671,254.3696,671.2115,259.1,679.85" style="stroke:#181818;stroke-width:1.0;"/><text fill="#000000" font-family="sans-serif" font-size="13" lengthAdjust="spacing" textLength="40" x="270.5" y="646.4951">correct</text><text fill="#000000" font-family="sans-serif" font-size="13" lengthAdjust="spacing" textLength="8" x="248.955" y="668.9345">+</text></g><!--link Concept to Definition--><g id="link_Concept_Definition"><path codeLine="101" d="M396.4393,609.5649 C368.9493,631.0749 341.9361,652.2036 311.2761,676.1836 " fill="none" id="Concept-Definition-1" style="stroke:#181818;stroke-width:1.0;"/><polygon fill="#181818" points="405.89,602.17,398.6997,602.7172,396.4393,609.5649,403.6296,609.0177,405.89,602.17" style="stroke:#181818;stroke-width:1.0;"/><polygon fill="#181818" points="306.55,679.88,316.1035,677.4861,310.4884,676.7996,311.1749,671.1846,306.55,679.88" style="stroke:#181818;stroke-width:1.0;"/><text fill="#000000" font-family="sans-serif" font-size="13" lengthAdjust="spacing" textLength="50" x="367.5" y="646.4951">incorrect</text><text fill="#000000" font-family="sans-serif" font-size="13" lengthAdjust="spacing" textLength="5" x="309.5009" y="668.9707">*</text></g><!--link Concept to Relation--><g id="link_Concept_Relation"><path codeLine="102" d="M489.0239,598.7539 C509.1839,607.4739 521.5,615.3 538.5,632 C554.81,648.02 564.1951,665.9958 571.2151,683.3958 " fill="none" id="Concept-Relation" style="stroke:#181818;stroke-width:1.0;"/><polygon fill="#181818" points="478.01,593.99,481.929,600.0432,489.0239,598.7539,485.1049,592.7007,478.01,593.99" style="stroke:#181818;stroke-width:1.0;"/><polygon fill="#181818" points="573.46,688.96,573.8022,679.1171,571.5893,684.3232,566.3832,682.1103,573.46,688.96" style="stroke:#181818;stroke-width:1.0;"/><text fill="#000000" font-family="sans-serif" font-size="13" lengthAdjust="spacing" textLength="31" x="553.5" y="646.4951">origin</text><text fill="#000000" font-family="sans-serif" font-size="13" lengthAdjust="spacing" textLength="5" x="565.7591" y="678.2899">*</text></g><!--link Relation to Concept--><g id="link_Relation_Concept"><path codeLine="108" d="M545.26,688.8 C529.31,677.87 510.76,664.13 495.5,650 C479.75,635.42 467.8642,621.5478 456.5342,607.0478 " fill="none" id="Relation-to-Concept" style="stroke:#181818;stroke-width:1.0;"/><polygon fill="#181818" points="452.84,602.32,455.2295,611.8746,455.9185,606.2599,461.5333,606.9489,452.84,602.32" style="stroke:#181818;stroke-width:1.0;"/><text fill="#000000" font-family="sans-serif" font-size="13" lengthAdjust="spacing" textLength="33" x="496.5" y="646.4951">target</text></g><!--link Concept to Document--><g id="link_Concept_Document"><path codeLine="103" d="M489.8022,596.1943 C537.7922,611.2143 606.58,632.04 676.5,650 C758.07,670.95 848.1388,689.9221 904.4788,701.3021 " fill="none" id="Concept-Document" style="stroke:#008000;stroke-width:1.0;"/><polygon fill="#008000" points="478.35,592.61,482.8813,598.2196,489.8022,596.1943,485.2709,590.5848,478.35,592.61" style="stroke:#008000;stroke-width:1.0;"/><polygon fill="#008000" points="910.36,702.49,902.3301,696.7873,905.459,701.5001,900.7462,704.6289,910.36,702.49" style="stroke:#008000;stroke-width:1.0;"/><text fill="#000000" font-family="sans-serif" font-size="13" lengthAdjust="spacing" textLength="5" x="897.6058" y="697.1777">*</text></g><!--link Concept to Exercise--><g id="link_Concept_Exercise"><path codeLine="104" d="M435.5,614.17 C435.5,635.6 435.5,649.67 435.5,673.63 " fill="none" id="Concept-Exercise" style="stroke:#FF0000;stroke-width:1.0;"/><polygon fill="none" points="435.5,602.17,431.5,608.17,435.5,614.17,439.5,608.17,435.5,602.17" style="stroke:#FF0000;stroke-width:1.0;"/><polygon fill="#FF0000" points="435.5,679.63,439.5,670.63,435.5,674.63,431.5,670.63,435.5,679.63" style="stroke:#FF0000;stroke-width:1.0;"/><text fill="#000000" font-family="sans-serif" font-size="13" lengthAdjust="spacing" textLength="5" x="430.0078" y="669.0535">*</text></g><!--link Relation to RelationType--><g id="link_Relation_RelationType"><path codeLine="109" d="M624.8538,743.9373 C651.0638,762.2673 678.31,782.01 709.5,807 C715.4,811.73 716.8984,812.8741 722.8984,817.9741 " fill="none" id="Relation-RelationType" style="stroke:#181818;stroke-width:1.0;"/><polygon fill="#181818" points="615.02,737.06,617.6445,743.7766,624.8538,743.9373,622.2293,737.2207,615.02,737.06" style="stroke:#181818;stroke-width:1.0;"/><polygon fill="#181818" points="727.47,821.86,723.2031,812.9834,723.6603,818.6218,718.022,819.0789,727.47,821.86" style="stroke:#181818;stroke-width:1.0;"/></g><!--SRC=[VLN9Rjim4BtpArJt8C25-W564C1mZC95YovsUmboeAc9J5GYLP9Aaxh-zmvNBRRZYpapRxOtGsfTTemQBiNNcff7gPfiNXItsUpTBFkXGP7rPVjEjfnTCsuC5w2eUiaMMQkWX4UKomjewLBDPoCFrcaZcsknrq-qxgYHYkHN42if6BJcWwBjWH2wrqPHPbmtHt8Yn1woctz5aUs0iWFss6ksfYj1698xbGrdYTZAkhDv264rrJhwkMXU4_oi9Xm3ZVE1TnvD8uvYYDIO3P84Xvtcxzcos5wISN9-EW5zP-ddrX_X6VwAZ4cb03bPP7ifQw02mmnWgVIFE0h-o3tBY_itPSAy3o4UOfOHzDL4iIpPKDuZdq1fwxd8EFBlTGf-Trn1WvnfD7pYsjniZUAYkhLnqcZNpw0Orv22QKEDSqClxs0vZIYST2d_Y2AKSC7mhGFj24-cirL85alwQCnzNJ6CdL8y-ptxtDM6jpMi3f8pc1XNjVmxrNrf8OtVsNsh-vgANolP2UDvEw4seCOfXhiQ2hq-8wy7luDGdbcMRLl7IGy8Ze6lxuyEYC7s9BBSpjeotG5ZtB-j581u2B7k9EliI8FTCoMRLcfkm2_ymBBb3VO-kWS3bRkdlTXVdF1s9AP7yQtNM7Dsur8tiTeZNgnmz8KjkvBBYUudBs6gspIqWebk1yzOMXvhwv-v8ybF91zgKcLd7JdHj-AEoBHRUj_7u1LOnCsuW9nFa5oyYlqETTmMgNY5TsuCkpRgY981XT-IY8dtBpQMKjZMaZ3u7c1kGrK5fhUc6gDczz9YG11TCrA5TmM_2Uv_gRLat5cT77SYoXk17mTkAARr-0gxgpp-bFq7]--></g></svg>