<?xml version="1.0" encoding="us-ascii" standalone="no"?><svg xmlns="http://www.w3.org/2000/svg" xmlns:xlink="http://www.w3.org/1999/xlink" contentStyleType="text/css" height="1059px" preserveAspectRatio="none" style="width:1405px;height:1059px;background:#FFFFFF;" version="1.1" viewBox="0 0 1405 1059" width="1405px" zoomAndPan="magnify"><defs/><g><!--cluster ExerciseBattery--><g id="cluster_ExerciseBattery"><path d="M279.5,228 L391.5,228 A3.75,3.75 0 0 1 394,230.5 L401,251.6094 L958.5,251.6094 A2.5,2.5 0 0 1 961,254.1094 L961,596.5 A2.5,2.5 0 0 1 958.5,599 L279.5,599 A2.5,2.5 0 0 1 277,596.5 L277,230.5 A2.5,2.5 0 0 1 279.5,228 " fill="#FFFF00" style="stroke:#000000;stroke-width:1.5;"/><line style="stroke:#000000;stroke-width:1.5;" x1="277" x2="401" y1="251.6094" y2="251.6094"/><text fill="#000000" font-family="sans-serif" font-size="14" font-weight="bold" lengthAdjust="spacing" textLength="111" x="281" y="244.5332">ExerciseBattery</text></g><!--class Exercise--><g id="elem_Exercise"><rect codeLine="81" fill="#F1F1F1" height="48" id="Exercise" rx="2.5" ry="2.5" style="stroke:#181818;stroke-width:0.5;" width="85" x="495.5" y="264"/><ellipse cx="510.5" cy="280" fill="#A9DCDF" rx="11" ry="11" style="stroke:#181818;stroke-width:1.0;"/><path d="M512.6875,281.7656 L508.5469,281.7656 L508.125,282.7969 L508.5469,282.7969 Q509.1563,282.7969 509.4219,283.0313 Q509.6875,283.2656 509.6875,283.6563 Q509.6875,284.0313 509.4219,284.2656 Q509.1563,284.5 508.5469,284.5 L506.25,284.5 Q505.6406,284.5 505.3906,284.2656 Q505.125,284.0313 505.125,283.6406 Q505.125,283.2656 505.4063,283.0313 Q505.6719,282.7813 506.2969,282.7969 L508.9688,276.1406 L507.8594,276.1406 Q507.25,276.1406 506.9844,275.9063 Q506.7188,275.6719 506.7188,275.2813 Q506.7188,274.9063 506.9844,274.6719 Q507.25,274.4375 507.8594,274.4375 L511.5313,274.4375 L514.9219,282.7969 Q515.5156,282.7969 515.7031,282.9375 Q516.0938,283.2031 516.0938,283.6563 Q516.0938,284.0313 515.8281,284.2656 Q515.5781,284.5 514.9688,284.5 L512.6719,284.5 Q512.0625,284.5 511.7969,284.2656 Q511.5313,284.0313 511.5313,283.6406 Q511.5313,283.2656 511.7969,283.0313 Q512.0625,282.7969 512.6719,282.7969 L513.0938,282.7969 L512.6875,281.7656 Z M511.9688,280.0625 L510.6094,276.6875 L509.2344,280.0625 L511.9688,280.0625 Z " fill="#000000"/><text fill="#000000" font-family="sans-serif" font-size="14" font-style="italic" lengthAdjust="spacing" textLength="53" x="524.5" y="285.7285">Exercise</text><line style="stroke:#181818;stroke-width:0.5;" x1="496.5" x2="579.5" y1="296" y2="296"/><line style="stroke:#181818;stroke-width:0.5;" x1="496.5" x2="579.5" y1="304" y2="304"/></g><!--class Domain--><g id="elem_Domain"><rect codeLine="92" fill="#F1F1F1" height="65.6094" id="Domain" rx="2.5" ry="2.5" style="stroke:#181818;stroke-width:0.5;" width="163" x="293.5" y="517"/><ellipse cx="346.75" cy="533" fill="#ADD1B2" rx="11" ry="11" style="stroke:#181818;stroke-width:1.0;"/><path d="M349.5156,528.875 Q349.6719,528.6563 349.8594,528.5469 Q350.0469,528.4375 350.2656,528.4375 Q350.6406,528.4375 350.875,528.7031 Q351.1094,528.9531 351.1094,529.5625 L351.1094,531.0156 Q351.1094,531.625 350.875,531.8906 Q350.6406,532.1563 350.2656,532.1563 Q349.9219,532.1563 349.7188,531.9531 Q349.5156,531.7656 349.4063,531.25 Q349.3594,530.8906 349.1719,530.7031 Q348.8438,530.3281 348.2344,530.1094 Q347.625,529.8906 347,529.8906 Q346.2344,529.8906 345.5938,530.2188 Q344.9688,530.5469 344.4688,531.2969 Q343.9844,532.0469 343.9844,533.0781 L343.9844,534.1719 Q343.9844,535.4063 344.875,536.2344 Q345.7656,537.0469 347.3594,537.0469 Q348.2969,537.0469 348.9531,536.7969 Q349.3438,536.6406 349.7656,536.2031 Q350.0313,535.9375 350.1719,535.8594 Q350.3281,535.7813 350.5313,535.7813 Q350.8594,535.7813 351.1094,536.0469 Q351.375,536.2969 351.375,536.6406 Q351.375,536.9844 351.0313,537.3906 Q350.5313,537.9688 349.7344,538.2969 Q348.6563,538.75 347.3594,538.75 Q345.8438,538.75 344.6406,538.125 Q343.6563,537.625 342.9688,536.5625 Q342.2813,535.4844 342.2813,534.2031 L342.2813,533.0469 Q342.2813,531.7188 342.8906,530.5781 Q343.5156,529.4219 344.6094,528.8125 Q345.7031,528.1875 346.9375,528.1875 Q347.6719,528.1875 348.3125,528.3594 Q348.9688,528.5156 349.5156,528.875 Z " fill="#000000"/><text fill="#000000" font-family="sans-serif" font-size="14" lengthAdjust="spacing" textLength="48" x="367.25" y="538.7285">Domain</text><line style="stroke:#181818;stroke-width:0.5;" x1="294.5" x2="455.5" y1="549" y2="549"/><text fill="#000000" font-family="sans-serif" font-size="14" lengthAdjust="spacing" textLength="151" x="299.5" y="567.5332">versions : List&lt;Domain&gt;</text><line style="stroke:#181818;stroke-width:0.5;" x1="294.5" x2="455.5" y1="574.6094" y2="574.6094"/></g><!--class Application--><g id="elem_Application"><rect codeLine="119" fill="#F1F1F1" height="83.2188" id="Application" rx="2.5" ry="2.5" style="stroke:#181818;stroke-width:0.5;" width="151" x="293.5" y="373"/><ellipse cx="331" cy="389" fill="#ADD1B2" rx="11" ry="11" style="stroke:#181818;stroke-width:1.0;"/><path d="M333.7656,384.875 Q333.9219,384.6563 334.1094,384.5469 Q334.2969,384.4375 334.5156,384.4375 Q334.8906,384.4375 335.125,384.7031 Q335.3594,384.9531 335.3594,385.5625 L335.3594,387.0156 Q335.3594,387.625 335.125,387.8906 Q334.8906,388.1563 334.5156,388.1563 Q334.1719,388.1563 333.9688,387.9531 Q333.7656,387.7656 333.6563,387.25 Q333.6094,386.8906 333.4219,386.7031 Q333.0938,386.3281 332.4844,386.1094 Q331.875,385.8906 331.25,385.8906 Q330.4844,385.8906 329.8438,386.2188 Q329.2188,386.5469 328.7188,387.2969 Q328.2344,388.0469 328.2344,389.0781 L328.2344,390.1719 Q328.2344,391.4063 329.125,392.2344 Q330.0156,393.0469 331.6094,393.0469 Q332.5469,393.0469 333.2031,392.7969 Q333.5938,392.6406 334.0156,392.2031 Q334.2813,391.9375 334.4219,391.8594 Q334.5781,391.7813 334.7813,391.7813 Q335.1094,391.7813 335.3594,392.0469 Q335.625,392.2969 335.625,392.6406 Q335.625,392.9844 335.2813,393.3906 Q334.7813,393.9688 333.9844,394.2969 Q332.9063,394.75 331.6094,394.75 Q330.0938,394.75 328.8906,394.125 Q327.9063,393.625 327.2188,392.5625 Q326.5313,391.4844 326.5313,390.2031 L326.5313,389.0469 Q326.5313,387.7188 327.1406,386.5781 Q327.7656,385.4219 328.8594,384.8125 Q329.9531,384.1875 331.1875,384.1875 Q331.9219,384.1875 332.5625,384.3594 Q333.2188,384.5156 333.7656,384.875 Z " fill="#000000"/><text fill="#000000" font-family="sans-serif" font-size="14" lengthAdjust="spacing" textLength="69" x="350" y="394.7285">Application</text><line style="stroke:#181818;stroke-width:0.5;" x1="294.5" x2="443.5" y1="405" y2="405"/><rect fill="none" height="6" style="stroke:#C82930;stroke-width:1.0;" width="6" x="301.5" y="416.3047"/><text fill="#000000" font-family="sans-serif" font-size="14" lengthAdjust="spacing" textLength="107" x="313.5" y="423.5332">correct : boolean</text><rect fill="none" height="6" style="stroke:#C82930;stroke-width:1.0;" width="6" x="301.5" y="433.9141"/><text fill="#000000" font-family="sans-serif" font-size="14" lengthAdjust="spacing" textLength="125" x="313.5" y="441.1426">evaluated : boolean</text><line style="stroke:#181818;stroke-width:0.5;" x1="294.5" x2="443.5" y1="448.2188" y2="448.2188"/></g><!--class QuestionExercise--><g id="elem_QuestionExercise"><rect codeLine="98" fill="#F1F1F1" height="65.6094" id="QuestionExercise" rx="2.5" ry="2.5" style="stroke:#181818;stroke-width:0.5;" width="142" x="648" y="381.5"/><ellipse cx="663" cy="397.5" fill="#ADD1B2" rx="11" ry="11" style="stroke:#181818;stroke-width:1.0;"/><path d="M665.7656,393.375 Q665.9219,393.1563 666.1094,393.0469 Q666.2969,392.9375 666.5156,392.9375 Q666.8906,392.9375 667.125,393.2031 Q667.3594,393.4531 667.3594,394.0625 L667.3594,395.5156 Q667.3594,396.125 667.125,396.3906 Q666.8906,396.6563 666.5156,396.6563 Q666.1719,396.6563 665.9688,396.4531 Q665.7656,396.2656 665.6563,395.75 Q665.6094,395.3906 665.4219,395.2031 Q665.0938,394.8281 664.4844,394.6094 Q663.875,394.3906 663.25,394.3906 Q662.4844,394.3906 661.8438,394.7188 Q661.2188,395.0469 660.7188,395.7969 Q660.2344,396.5469 660.2344,397.5781 L660.2344,398.6719 Q660.2344,399.9063 661.125,400.7344 Q662.0156,401.5469 663.6094,401.5469 Q664.5469,401.5469 665.2031,401.2969 Q665.5938,401.1406 666.0156,400.7031 Q666.2813,400.4375 666.4219,400.3594 Q666.5781,400.2813 666.7813,400.2813 Q667.1094,400.2813 667.3594,400.5469 Q667.625,400.7969 667.625,401.1406 Q667.625,401.4844 667.2813,401.8906 Q666.7813,402.4688 665.9844,402.7969 Q664.9063,403.25 663.6094,403.25 Q662.0938,403.25 660.8906,402.625 Q659.9063,402.125 659.2188,401.0625 Q658.5313,399.9844 658.5313,398.7031 L658.5313,397.5469 Q658.5313,396.2188 659.1406,395.0781 Q659.7656,393.9219 660.8594,393.3125 Q661.9531,392.6875 663.1875,392.6875 Q663.9219,392.6875 664.5625,392.8594 Q665.2188,393.0156 665.7656,393.375 Z " fill="#000000"/><text fill="#000000" font-family="sans-serif" font-size="14" lengthAdjust="spacing" textLength="110" x="677" y="403.2285">QuestionExercise</text><line style="stroke:#181818;stroke-width:0.5;" x1="649" x2="789" y1="413.5" y2="413.5"/><text fill="#000000" font-family="sans-serif" font-size="14" lengthAdjust="spacing" textLength="111" x="654" y="432.0332">statement : String</text><line style="stroke:#181818;stroke-width:0.5;" x1="649" x2="789" y1="439.1094" y2="439.1094"/></g><!--class DomainExercise--><g id="elem_DomainExercise"><rect codeLine="86" fill="#F1F1F1" height="48" id="DomainExercise" rx="2.5" ry="2.5" style="stroke:#181818;stroke-width:0.5;" width="133" x="479.5" y="390.5"/><ellipse cx="494.5" cy="406.5" fill="#ADD1B2" rx="11" ry="11" style="stroke:#181818;stroke-width:1.0;"/><path d="M497.2656,402.375 Q497.4219,402.1563 497.6094,402.0469 Q497.7969,401.9375 498.0156,401.9375 Q498.3906,401.9375 498.625,402.2031 Q498.8594,402.4531 498.8594,403.0625 L498.8594,404.5156 Q498.8594,405.125 498.625,405.3906 Q498.3906,405.6563 498.0156,405.6563 Q497.6719,405.6563 497.4688,405.4531 Q497.2656,405.2656 497.1563,404.75 Q497.1094,404.3906 496.9219,404.2031 Q496.5938,403.8281 495.9844,403.6094 Q495.375,403.3906 494.75,403.3906 Q493.9844,403.3906 493.3438,403.7188 Q492.7188,404.0469 492.2188,404.7969 Q491.7344,405.5469 491.7344,406.5781 L491.7344,407.6719 Q491.7344,408.9063 492.625,409.7344 Q493.5156,410.5469 495.1094,410.5469 Q496.0469,410.5469 496.7031,410.2969 Q497.0938,410.1406 497.5156,409.7031 Q497.7813,409.4375 497.9219,409.3594 Q498.0781,409.2813 498.2813,409.2813 Q498.6094,409.2813 498.8594,409.5469 Q499.125,409.7969 499.125,410.1406 Q499.125,410.4844 498.7813,410.8906 Q498.2813,411.4688 497.4844,411.7969 Q496.4063,412.25 495.1094,412.25 Q493.5938,412.25 492.3906,411.625 Q491.4063,411.125 490.7188,410.0625 Q490.0313,408.9844 490.0313,407.7031 L490.0313,406.5469 Q490.0313,405.2188 490.6406,404.0781 Q491.2656,402.9219 492.3594,402.3125 Q493.4531,401.6875 494.6875,401.6875 Q495.4219,401.6875 496.0625,401.8594 Q496.7188,402.0156 497.2656,402.375 Z " fill="#000000"/><text fill="#000000" font-family="sans-serif" font-size="14" lengthAdjust="spacing" textLength="101" x="508.5" y="412.2285">DomainExercise</text><line style="stroke:#181818;stroke-width:0.5;" x1="480.5" x2="611.5" y1="422.5" y2="422.5"/><line style="stroke:#181818;stroke-width:0.5;" x1="480.5" x2="611.5" y1="430.5" y2="430.5"/></g><!--class MultipleChoice--><g id="elem_MultipleChoice"><rect codeLine="116" fill="#F1F1F1" height="48" id="MultipleChoice" rx="2.5" ry="2.5" style="stroke:#181818;stroke-width:0.5;" width="124" x="510" y="526"/><ellipse cx="525" cy="542" fill="#ADD1B2" rx="11" ry="11" style="stroke:#181818;stroke-width:1.0;"/><path d="M527.7656,537.875 Q527.9219,537.6563 528.1094,537.5469 Q528.2969,537.4375 528.5156,537.4375 Q528.8906,537.4375 529.125,537.7031 Q529.3594,537.9531 529.3594,538.5625 L529.3594,540.0156 Q529.3594,540.625 529.125,540.8906 Q528.8906,541.1563 528.5156,541.1563 Q528.1719,541.1563 527.9688,540.9531 Q527.7656,540.7656 527.6563,540.25 Q527.6094,539.8906 527.4219,539.7031 Q527.0938,539.3281 526.4844,539.1094 Q525.875,538.8906 525.25,538.8906 Q524.4844,538.8906 523.8438,539.2188 Q523.2188,539.5469 522.7188,540.2969 Q522.2344,541.0469 522.2344,542.0781 L522.2344,543.1719 Q522.2344,544.4063 523.125,545.2344 Q524.0156,546.0469 525.6094,546.0469 Q526.5469,546.0469 527.2031,545.7969 Q527.5938,545.6406 528.0156,545.2031 Q528.2813,544.9375 528.4219,544.8594 Q528.5781,544.7813 528.7813,544.7813 Q529.1094,544.7813 529.3594,545.0469 Q529.625,545.2969 529.625,545.6406 Q529.625,545.9844 529.2813,546.3906 Q528.7813,546.9688 527.9844,547.2969 Q526.9063,547.75 525.6094,547.75 Q524.0938,547.75 522.8906,547.125 Q521.9063,546.625 521.2188,545.5625 Q520.5313,544.4844 520.5313,543.2031 L520.5313,542.0469 Q520.5313,540.7188 521.1406,539.5781 Q521.7656,538.4219 522.8594,537.8125 Q523.9531,537.1875 525.1875,537.1875 Q525.9219,537.1875 526.5625,537.3594 Q527.2188,537.5156 527.7656,537.875 Z " fill="#000000"/><text fill="#000000" font-family="sans-serif" font-size="14" lengthAdjust="spacing" textLength="92" x="539" y="547.7285">MultipleChoice</text><line style="stroke:#181818;stroke-width:0.5;" x1="511" x2="633" y1="558" y2="558"/><line style="stroke:#181818;stroke-width:0.5;" x1="511" x2="633" y1="566" y2="566"/></g><!--class Cloze--><g id="elem_Cloze"><rect codeLine="112" fill="#F1F1F1" height="65.6094" id="Cloze" rx="2.5" ry="2.5" style="stroke:#181818;stroke-width:0.5;" width="107" x="669.5" y="517"/><ellipse cx="702.5" cy="533" fill="#ADD1B2" rx="11" ry="11" style="stroke:#181818;stroke-width:1.0;"/><path d="M705.2656,528.875 Q705.4219,528.6563 705.6094,528.5469 Q705.7969,528.4375 706.0156,528.4375 Q706.3906,528.4375 706.625,528.7031 Q706.8594,528.9531 706.8594,529.5625 L706.8594,531.0156 Q706.8594,531.625 706.625,531.8906 Q706.3906,532.1563 706.0156,532.1563 Q705.6719,532.1563 705.4688,531.9531 Q705.2656,531.7656 705.1563,531.25 Q705.1094,530.8906 704.9219,530.7031 Q704.5938,530.3281 703.9844,530.1094 Q703.375,529.8906 702.75,529.8906 Q701.9844,529.8906 701.3438,530.2188 Q700.7188,530.5469 700.2188,531.2969 Q699.7344,532.0469 699.7344,533.0781 L699.7344,534.1719 Q699.7344,535.4063 700.625,536.2344 Q701.5156,537.0469 703.1094,537.0469 Q704.0469,537.0469 704.7031,536.7969 Q705.0938,536.6406 705.5156,536.2031 Q705.7813,535.9375 705.9219,535.8594 Q706.0781,535.7813 706.2813,535.7813 Q706.6094,535.7813 706.8594,536.0469 Q707.125,536.2969 707.125,536.6406 Q707.125,536.9844 706.7813,537.3906 Q706.2813,537.9688 705.4844,538.2969 Q704.4063,538.75 703.1094,538.75 Q701.5938,538.75 700.3906,538.125 Q699.4063,537.625 698.7188,536.5625 Q698.0313,535.4844 698.0313,534.2031 L698.0313,533.0469 Q698.0313,531.7188 698.6406,530.5781 Q699.2656,529.4219 700.3594,528.8125 Q701.4531,528.1875 702.6875,528.1875 Q703.4219,528.1875 704.0625,528.3594 Q704.7188,528.5156 705.2656,528.875 Z " fill="#000000"/><text fill="#000000" font-family="sans-serif" font-size="14" lengthAdjust="spacing" textLength="35" x="720.5" y="538.7285">Cloze</text><line style="stroke:#181818;stroke-width:0.5;" x1="670.5" x2="775.5" y1="549" y2="549"/><text fill="#000000" font-family="sans-serif" font-size="14" lengthAdjust="spacing" textLength="95" x="675.5" y="567.5332">blankCount: int</text><line style="stroke:#181818;stroke-width:0.5;" x1="670.5" x2="775.5" y1="574.6094" y2="574.6094"/></g><!--class Open--><g id="elem_Open"><rect fill="#F1F1F1" height="48" id="Open" rx="2.5" ry="2.5" style="stroke:#181818;stroke-width:0.5;" width="67" x="811.5" y="526"/><ellipse cx="826.5" cy="542" fill="#ADD1B2" rx="11" ry="11" style="stroke:#181818;stroke-width:1.0;"/><path d="M829.2656,537.875 Q829.4219,537.6563 829.6094,537.5469 Q829.7969,537.4375 830.0156,537.4375 Q830.3906,537.4375 830.625,537.7031 Q830.8594,537.9531 830.8594,538.5625 L830.8594,540.0156 Q830.8594,540.625 830.625,540.8906 Q830.3906,541.1563 830.0156,541.1563 Q829.6719,541.1563 829.4688,540.9531 Q829.2656,540.7656 829.1563,540.25 Q829.1094,539.8906 828.9219,539.7031 Q828.5938,539.3281 827.9844,539.1094 Q827.375,538.8906 826.75,538.8906 Q825.9844,538.8906 825.3438,539.2188 Q824.7188,539.5469 824.2188,540.2969 Q823.7344,541.0469 823.7344,542.0781 L823.7344,543.1719 Q823.7344,544.4063 824.625,545.2344 Q825.5156,546.0469 827.1094,546.0469 Q828.0469,546.0469 828.7031,545.7969 Q829.0938,545.6406 829.5156,545.2031 Q829.7813,544.9375 829.9219,544.8594 Q830.0781,544.7813 830.2813,544.7813 Q830.6094,544.7813 830.8594,545.0469 Q831.125,545.2969 831.125,545.6406 Q831.125,545.9844 830.7813,546.3906 Q830.2813,546.9688 829.4844,547.2969 Q828.4063,547.75 827.1094,547.75 Q825.5938,547.75 824.3906,547.125 Q823.4063,546.625 822.7188,545.5625 Q822.0313,544.4844 822.0313,543.2031 L822.0313,542.0469 Q822.0313,540.7188 822.6406,539.5781 Q823.2656,538.4219 824.3594,537.8125 Q825.4531,537.1875 826.6875,537.1875 Q827.4219,537.1875 828.0625,537.3594 Q828.7188,537.5156 829.2656,537.875 Z " fill="#000000"/><text fill="#000000" font-family="sans-serif" font-size="14" lengthAdjust="spacing" textLength="35" x="840.5" y="547.7285">Open</text><line style="stroke:#181818;stroke-width:0.5;" x1="812.5" x2="877.5" y1="558" y2="558"/><line style="stroke:#181818;stroke-width:0.5;" x1="812.5" x2="877.5" y1="566" y2="566"/></g><!--class Answer--><g id="elem_Answer"><rect codeLine="107" fill="#F1F1F1" height="65.6094" id="Answer" rx="2.5" ry="2.5" style="stroke:#181818;stroke-width:0.5;" width="119" x="825.5" y="381.5"/><ellipse cx="858.95" cy="397.5" fill="#ADD1B2" rx="11" ry="11" style="stroke:#181818;stroke-width:1.0;"/><path d="M861.7156,393.375 Q861.8719,393.1563 862.0594,393.0469 Q862.2469,392.9375 862.4656,392.9375 Q862.8406,392.9375 863.075,393.2031 Q863.3094,393.4531 863.3094,394.0625 L863.3094,395.5156 Q863.3094,396.125 863.075,396.3906 Q862.8406,396.6563 862.4656,396.6563 Q862.1219,396.6563 861.9188,396.4531 Q861.7156,396.2656 861.6063,395.75 Q861.5594,395.3906 861.3719,395.2031 Q861.0438,394.8281 860.4344,394.6094 Q859.825,394.3906 859.2,394.3906 Q858.4344,394.3906 857.7938,394.7188 Q857.1688,395.0469 856.6688,395.7969 Q856.1844,396.5469 856.1844,397.5781 L856.1844,398.6719 Q856.1844,399.9063 857.075,400.7344 Q857.9656,401.5469 859.5594,401.5469 Q860.4969,401.5469 861.1531,401.2969 Q861.5438,401.1406 861.9656,400.7031 Q862.2313,400.4375 862.3719,400.3594 Q862.5281,400.2813 862.7313,400.2813 Q863.0594,400.2813 863.3094,400.5469 Q863.575,400.7969 863.575,401.1406 Q863.575,401.4844 863.2313,401.8906 Q862.7313,402.4688 861.9344,402.7969 Q860.8563,403.25 859.5594,403.25 Q858.0438,403.25 856.8406,402.625 Q855.8563,402.125 855.1688,401.0625 Q854.4813,399.9844 854.4813,398.7031 L854.4813,397.5469 Q854.4813,396.2188 855.0906,395.0781 Q855.7156,393.9219 856.8094,393.3125 Q857.9031,392.6875 859.1375,392.6875 Q859.8719,392.6875 860.5125,392.8594 Q861.1688,393.0156 861.7156,393.375 Z " fill="#000000"/><text fill="#000000" font-family="sans-serif" font-size="14" lengthAdjust="spacing" textLength="46" x="877.05" y="403.2285">Answer</text><line style="stroke:#181818;stroke-width:0.5;" x1="826.5" x2="943.5" y1="413.5" y2="413.5"/><text fill="#000000" font-family="sans-serif" font-size="14" lengthAdjust="spacing" textLength="107" x="831.5" y="432.0332">correct : boolean</text><line style="stroke:#181818;stroke-width:0.5;" x1="826.5" x2="943.5" y1="439.1094" y2="439.1094"/></g><!--class EducationPlatform--><g id="elem_EducationPlatform"><rect fill="#F1F1F1" height="48" id="EducationPlatform" rx="2.5" ry="2.5" style="stroke:#181818;stroke-width:0.5;" width="147" x="599.5" y="7"/><ellipse cx="614.5" cy="23" fill="#ADD1B2" rx="11" ry="11" style="stroke:#181818;stroke-width:1.0;"/><path d="M617.2656,18.875 Q617.4219,18.6563 617.6094,18.5469 Q617.7969,18.4375 618.0156,18.4375 Q618.3906,18.4375 618.625,18.7031 Q618.8594,18.9531 618.8594,19.5625 L618.8594,21.0156 Q618.8594,21.625 618.625,21.8906 Q618.3906,22.1563 618.0156,22.1563 Q617.6719,22.1563 617.4688,21.9531 Q617.2656,21.7656 617.1563,21.25 Q617.1094,20.8906 616.9219,20.7031 Q616.5938,20.3281 615.9844,20.1094 Q615.375,19.8906 614.75,19.8906 Q613.9844,19.8906 613.3438,20.2188 Q612.7188,20.5469 612.2188,21.2969 Q611.7344,22.0469 611.7344,23.0781 L611.7344,24.1719 Q611.7344,25.4063 612.625,26.2344 Q613.5156,27.0469 615.1094,27.0469 Q616.0469,27.0469 616.7031,26.7969 Q617.0938,26.6406 617.5156,26.2031 Q617.7813,25.9375 617.9219,25.8594 Q618.0781,25.7813 618.2813,25.7813 Q618.6094,25.7813 618.8594,26.0469 Q619.125,26.2969 619.125,26.6406 Q619.125,26.9844 618.7813,27.3906 Q618.2813,27.9688 617.4844,28.2969 Q616.4063,28.75 615.1094,28.75 Q613.5938,28.75 612.3906,28.125 Q611.4063,27.625 610.7188,26.5625 Q610.0313,25.4844 610.0313,24.2031 L610.0313,23.0469 Q610.0313,21.7188 610.6406,20.5781 Q611.2656,19.4219 612.3594,18.8125 Q613.4531,18.1875 614.6875,18.1875 Q615.4219,18.1875 616.0625,18.3594 Q616.7188,18.5156 617.2656,18.875 Z " fill="#000000"/><text fill="#000000" font-family="sans-serif" font-size="14" lengthAdjust="spacing" textLength="115" x="628.5" y="28.7285">EducationPlatform</text><line style="stroke:#181818;stroke-width:0.5;" x1="600.5" x2="745.5" y1="39" y2="39"/><line style="stroke:#181818;stroke-width:0.5;" x1="600.5" x2="745.5" y1="47" y2="47"/></g><!--class User--><g id="elem_User"><rect codeLine="11" fill="#F1F1F1" height="48" id="User" rx="2.5" ry="2.5" style="stroke:#181818;stroke-width:0.5;" width="62" x="187" y="133"/><ellipse cx="202" cy="149" fill="#A9DCDF" rx="11" ry="11" style="stroke:#181818;stroke-width:1.0;"/><path d="M204.1875,150.7656 L200.0469,150.7656 L199.625,151.7969 L200.0469,151.7969 Q200.6563,151.7969 200.9219,152.0313 Q201.1875,152.2656 201.1875,152.6563 Q201.1875,153.0313 200.9219,153.2656 Q200.6563,153.5 200.0469,153.5 L197.75,153.5 Q197.1406,153.5 196.8906,153.2656 Q196.625,153.0313 196.625,152.6406 Q196.625,152.2656 196.9063,152.0313 Q197.1719,151.7813 197.7969,151.7969 L200.4688,145.1406 L199.3594,145.1406 Q198.75,145.1406 198.4844,144.9063 Q198.2188,144.6719 198.2188,144.2813 Q198.2188,143.9063 198.4844,143.6719 Q198.75,143.4375 199.3594,143.4375 L203.0313,143.4375 L206.4219,151.7969 Q207.0156,151.7969 207.2031,151.9375 Q207.5938,152.2031 207.5938,152.6563 Q207.5938,153.0313 207.3281,153.2656 Q207.0781,153.5 206.4688,153.5 L204.1719,153.5 Q203.5625,153.5 203.2969,153.2656 Q203.0313,153.0313 203.0313,152.6406 Q203.0313,152.2656 203.2969,152.0313 Q203.5625,151.7969 204.1719,151.7969 L204.5938,151.7969 L204.1875,150.7656 Z M203.4688,149.0625 L202.1094,145.6875 L200.7344,149.0625 L203.4688,149.0625 Z " fill="#000000"/><text fill="#000000" font-family="sans-serif" font-size="14" font-style="italic" lengthAdjust="spacing" textLength="30" x="216" y="154.7285">User</text><line style="stroke:#181818;stroke-width:0.5;" x1="188" x2="248" y1="165" y2="165"/><line style="stroke:#181818;stroke-width:0.5;" x1="188" x2="248" y1="173" y2="173"/></g><!--class Topic--><g id="elem_Topic"><rect codeLine="40" fill="#F1F1F1" height="48" id="Topic" rx="2.5" ry="2.5" style="stroke:#181818;stroke-width:0.5;" width="67" x="1175.5" y="390.5"/><ellipse cx="1190.5" cy="406.5" fill="#A9DCDF" rx="11" ry="11" style="stroke:#181818;stroke-width:1.0;"/><path d="M1192.6875,408.2656 L1188.5469,408.2656 L1188.125,409.2969 L1188.5469,409.2969 Q1189.1563,409.2969 1189.4219,409.5313 Q1189.6875,409.7656 1189.6875,410.1563 Q1189.6875,410.5313 1189.4219,410.7656 Q1189.1563,411 1188.5469,411 L1186.25,411 Q1185.6406,411 1185.3906,410.7656 Q1185.125,410.5313 1185.125,410.1406 Q1185.125,409.7656 1185.4063,409.5313 Q1185.6719,409.2813 1186.2969,409.2969 L1188.9688,402.6406 L1187.8594,402.6406 Q1187.25,402.6406 1186.9844,402.4063 Q1186.7188,402.1719 1186.7188,401.7813 Q1186.7188,401.4063 1186.9844,401.1719 Q1187.25,400.9375 1187.8594,400.9375 L1191.5313,400.9375 L1194.9219,409.2969 Q1195.5156,409.2969 1195.7031,409.4375 Q1196.0938,409.7031 1196.0938,410.1563 Q1196.0938,410.5313 1195.8281,410.7656 Q1195.5781,411 1194.9688,411 L1192.6719,411 Q1192.0625,411 1191.7969,410.7656 Q1191.5313,410.5313 1191.5313,410.1406 Q1191.5313,409.7656 1191.7969,409.5313 Q1192.0625,409.2969 1192.6719,409.2969 L1193.0938,409.2969 L1192.6875,408.2656 Z M1191.9688,406.5625 L1190.6094,403.1875 L1189.2344,406.5625 L1191.9688,406.5625 Z " fill="#000000"/><text fill="#000000" font-family="sans-serif" font-size="14" font-style="italic" lengthAdjust="spacing" textLength="35" x="1204.5" y="412.2285">Topic</text><line style="stroke:#181818;stroke-width:0.5;" x1="1176.5" x2="1241.5" y1="422.5" y2="422.5"/><line style="stroke:#181818;stroke-width:0.5;" x1="1176.5" x2="1241.5" y1="430.5" y2="430.5"/></g><!--class Itinerary--><g id="elem_Itinerary"><rect codeLine="28" fill="#F1F1F1" height="48" id="Itinerary" rx="2.5" ry="2.5" style="stroke:#181818;stroke-width:0.5;" width="83" x="814.5" y="133"/><ellipse cx="829.5" cy="149" fill="#ADD1B2" rx="11" ry="11" style="stroke:#181818;stroke-width:1.0;"/><path d="M832.2656,144.875 Q832.4219,144.6563 832.6094,144.5469 Q832.7969,144.4375 833.0156,144.4375 Q833.3906,144.4375 833.625,144.7031 Q833.8594,144.9531 833.8594,145.5625 L833.8594,147.0156 Q833.8594,147.625 833.625,147.8906 Q833.3906,148.1563 833.0156,148.1563 Q832.6719,148.1563 832.4688,147.9531 Q832.2656,147.7656 832.1563,147.25 Q832.1094,146.8906 831.9219,146.7031 Q831.5938,146.3281 830.9844,146.1094 Q830.375,145.8906 829.75,145.8906 Q828.9844,145.8906 828.3438,146.2188 Q827.7188,146.5469 827.2188,147.2969 Q826.7344,148.0469 826.7344,149.0781 L826.7344,150.1719 Q826.7344,151.4063 827.625,152.2344 Q828.5156,153.0469 830.1094,153.0469 Q831.0469,153.0469 831.7031,152.7969 Q832.0938,152.6406 832.5156,152.2031 Q832.7813,151.9375 832.9219,151.8594 Q833.0781,151.7813 833.2813,151.7813 Q833.6094,151.7813 833.8594,152.0469 Q834.125,152.2969 834.125,152.6406 Q834.125,152.9844 833.7813,153.3906 Q833.2813,153.9688 832.4844,154.2969 Q831.4063,154.75 830.1094,154.75 Q828.5938,154.75 827.3906,154.125 Q826.4063,153.625 825.7188,152.5625 Q825.0313,151.4844 825.0313,150.2031 L825.0313,149.0469 Q825.0313,147.7188 825.6406,146.5781 Q826.2656,145.4219 827.3594,144.8125 Q828.4531,144.1875 829.6875,144.1875 Q830.4219,144.1875 831.0625,144.3594 Q831.7188,144.5156 832.2656,144.875 Z " fill="#000000"/><text fill="#000000" font-family="sans-serif" font-size="14" lengthAdjust="spacing" textLength="51" x="843.5" y="154.7285">Itinerary</text><line style="stroke:#181818;stroke-width:0.5;" x1="815.5" x2="896.5" y1="165" y2="165"/><line style="stroke:#181818;stroke-width:0.5;" x1="815.5" x2="896.5" y1="173" y2="173"/></g><!--class Evaluator--><g id="elem_Evaluator"><rect codeLine="24" fill="#F1F1F1" height="48" id="Evaluator" rx="2.5" ry="2.5" style="stroke:#181818;stroke-width:0.5;" width="92" x="687" y="133"/><ellipse cx="702" cy="149" fill="#ADD1B2" rx="11" ry="11" style="stroke:#181818;stroke-width:1.0;"/><path d="M704.7656,144.875 Q704.9219,144.6563 705.1094,144.5469 Q705.2969,144.4375 705.5156,144.4375 Q705.8906,144.4375 706.125,144.7031 Q706.3594,144.9531 706.3594,145.5625 L706.3594,147.0156 Q706.3594,147.625 706.125,147.8906 Q705.8906,148.1563 705.5156,148.1563 Q705.1719,148.1563 704.9688,147.9531 Q704.7656,147.7656 704.6563,147.25 Q704.6094,146.8906 704.4219,146.7031 Q704.0938,146.3281 703.4844,146.1094 Q702.875,145.8906 702.25,145.8906 Q701.4844,145.8906 700.8438,146.2188 Q700.2188,146.5469 699.7188,147.2969 Q699.2344,148.0469 699.2344,149.0781 L699.2344,150.1719 Q699.2344,151.4063 700.125,152.2344 Q701.0156,153.0469 702.6094,153.0469 Q703.5469,153.0469 704.2031,152.7969 Q704.5938,152.6406 705.0156,152.2031 Q705.2813,151.9375 705.4219,151.8594 Q705.5781,151.7813 705.7813,151.7813 Q706.1094,151.7813 706.3594,152.0469 Q706.625,152.2969 706.625,152.6406 Q706.625,152.9844 706.2813,153.3906 Q705.7813,153.9688 704.9844,154.2969 Q703.9063,154.75 702.6094,154.75 Q701.0938,154.75 699.8906,154.125 Q698.9063,153.625 698.2188,152.5625 Q697.5313,151.4844 697.5313,150.2031 L697.5313,149.0469 Q697.5313,147.7188 698.1406,146.5781 Q698.7656,145.4219 699.8594,144.8125 Q700.9531,144.1875 702.1875,144.1875 Q702.9219,144.1875 703.5625,144.3594 Q704.2188,144.5156 704.7656,144.875 Z " fill="#000000"/><text fill="#000000" font-family="sans-serif" font-size="14" lengthAdjust="spacing" textLength="60" x="716" y="154.7285">Evaluator</text><line style="stroke:#181818;stroke-width:0.5;" x1="688" x2="778" y1="165" y2="165"/><line style="stroke:#181818;stroke-width:0.5;" x1="688" x2="778" y1="173" y2="173"/></g><!--class Teacher--><g id="elem_Teacher"><rect codeLine="17" fill="#F1F1F1" height="48" id="Teacher" rx="2.5" ry="2.5" style="stroke:#181818;stroke-width:0.5;" width="85" x="175.5" y="264"/><ellipse cx="190.5" cy="280" fill="#ADD1B2" rx="11" ry="11" style="stroke:#181818;stroke-width:1.0;"/><path d="M193.2656,275.875 Q193.4219,275.6563 193.6094,275.5469 Q193.7969,275.4375 194.0156,275.4375 Q194.3906,275.4375 194.625,275.7031 Q194.8594,275.9531 194.8594,276.5625 L194.8594,278.0156 Q194.8594,278.625 194.625,278.8906 Q194.3906,279.1563 194.0156,279.1563 Q193.6719,279.1563 193.4688,278.9531 Q193.2656,278.7656 193.1563,278.25 Q193.1094,277.8906 192.9219,277.7031 Q192.5938,277.3281 191.9844,277.1094 Q191.375,276.8906 190.75,276.8906 Q189.9844,276.8906 189.3438,277.2188 Q188.7188,277.5469 188.2188,278.2969 Q187.7344,279.0469 187.7344,280.0781 L187.7344,281.1719 Q187.7344,282.4063 188.625,283.2344 Q189.5156,284.0469 191.1094,284.0469 Q192.0469,284.0469 192.7031,283.7969 Q193.0938,283.6406 193.5156,283.2031 Q193.7813,282.9375 193.9219,282.8594 Q194.0781,282.7813 194.2813,282.7813 Q194.6094,282.7813 194.8594,283.0469 Q195.125,283.2969 195.125,283.6406 Q195.125,283.9844 194.7813,284.3906 Q194.2813,284.9688 193.4844,285.2969 Q192.4063,285.75 191.1094,285.75 Q189.5938,285.75 188.3906,285.125 Q187.4063,284.625 186.7188,283.5625 Q186.0313,282.4844 186.0313,281.2031 L186.0313,280.0469 Q186.0313,278.7188 186.6406,277.5781 Q187.2656,276.4219 188.3594,275.8125 Q189.4531,275.1875 190.6875,275.1875 Q191.4219,275.1875 192.0625,275.3594 Q192.7188,275.5156 193.2656,275.875 Z " fill="#000000"/><text fill="#000000" font-family="sans-serif" font-size="14" lengthAdjust="spacing" textLength="53" x="204.5" y="285.7285">Teacher</text><line style="stroke:#181818;stroke-width:0.5;" x1="176.5" x2="259.5" y1="296" y2="296"/><line style="stroke:#181818;stroke-width:0.5;" x1="176.5" x2="259.5" y1="304" y2="304"/></g><!--class Student--><g id="elem_Student"><rect codeLine="20" fill="#F1F1F1" height="48" id="Student" rx="2.5" ry="2.5" style="stroke:#181818;stroke-width:0.5;" width="81" x="59.5" y="264"/><ellipse cx="74.5" cy="280" fill="#ADD1B2" rx="11" ry="11" style="stroke:#181818;stroke-width:1.0;"/><path d="M77.2656,275.875 Q77.4219,275.6563 77.6094,275.5469 Q77.7969,275.4375 78.0156,275.4375 Q78.3906,275.4375 78.625,275.7031 Q78.8594,275.9531 78.8594,276.5625 L78.8594,278.0156 Q78.8594,278.625 78.625,278.8906 Q78.3906,279.1563 78.0156,279.1563 Q77.6719,279.1563 77.4688,278.9531 Q77.2656,278.7656 77.1563,278.25 Q77.1094,277.8906 76.9219,277.7031 Q76.5938,277.3281 75.9844,277.1094 Q75.375,276.8906 74.75,276.8906 Q73.9844,276.8906 73.3438,277.2188 Q72.7188,277.5469 72.2188,278.2969 Q71.7344,279.0469 71.7344,280.0781 L71.7344,281.1719 Q71.7344,282.4063 72.625,283.2344 Q73.5156,284.0469 75.1094,284.0469 Q76.0469,284.0469 76.7031,283.7969 Q77.0938,283.6406 77.5156,283.2031 Q77.7813,282.9375 77.9219,282.8594 Q78.0781,282.7813 78.2813,282.7813 Q78.6094,282.7813 78.8594,283.0469 Q79.125,283.2969 79.125,283.6406 Q79.125,283.9844 78.7813,284.3906 Q78.2813,284.9688 77.4844,285.2969 Q76.4063,285.75 75.1094,285.75 Q73.5938,285.75 72.3906,285.125 Q71.4063,284.625 70.7188,283.5625 Q70.0313,282.4844 70.0313,281.2031 L70.0313,280.0469 Q70.0313,278.7188 70.6406,277.5781 Q71.2656,276.4219 72.3594,275.8125 Q73.4531,275.1875 74.6875,275.1875 Q75.4219,275.1875 76.0625,275.3594 Q76.7188,275.5156 77.2656,275.875 Z " fill="#000000"/><text fill="#000000" font-family="sans-serif" font-size="14" lengthAdjust="spacing" textLength="49" x="88.5" y="285.7285">Student</text><line style="stroke:#181818;stroke-width:0.5;" x1="60.5" x2="139.5" y1="296" y2="296"/><line style="stroke:#181818;stroke-width:0.5;" x1="60.5" x2="139.5" y1="304" y2="304"/></g><!--class Definition--><g id="elem_Definition"><rect codeLine="32" fill="#F1F1F1" height="65.6094" id="Definition" rx="2.5" ry="2.5" style="stroke:#181818;stroke-width:0.5;" width="133" x="985.5" y="772"/><ellipse cx="1019.4" cy="788" fill="#ADD1B2" rx="11" ry="11" style="stroke:#181818;stroke-width:1.0;"/><path d="M1022.1656,783.875 Q1022.3219,783.6563 1022.5094,783.5469 Q1022.6969,783.4375 1022.9156,783.4375 Q1023.2906,783.4375 1023.525,783.7031 Q1023.7594,783.9531 1023.7594,784.5625 L1023.7594,786.0156 Q1023.7594,786.625 1023.525,786.8906 Q1023.2906,787.1563 1022.9156,787.1563 Q1022.5719,787.1563 1022.3688,786.9531 Q1022.1656,786.7656 1022.0563,786.25 Q1022.0094,785.8906 1021.8219,785.7031 Q1021.4938,785.3281 1020.8844,785.1094 Q1020.275,784.8906 1019.65,784.8906 Q1018.8844,784.8906 1018.2438,785.2188 Q1017.6188,785.5469 1017.1188,786.2969 Q1016.6344,787.0469 1016.6344,788.0781 L1016.6344,789.1719 Q1016.6344,790.4063 1017.525,791.2344 Q1018.4156,792.0469 1020.0094,792.0469 Q1020.9469,792.0469 1021.6031,791.7969 Q1021.9938,791.6406 1022.4156,791.2031 Q1022.6813,790.9375 1022.8219,790.8594 Q1022.9781,790.7813 1023.1813,790.7813 Q1023.5094,790.7813 1023.7594,791.0469 Q1024.025,791.2969 1024.025,791.6406 Q1024.025,791.9844 1023.6813,792.3906 Q1023.1813,792.9688 1022.3844,793.2969 Q1021.3063,793.75 1020.0094,793.75 Q1018.4938,793.75 1017.2906,793.125 Q1016.3063,792.625 1015.6188,791.5625 Q1014.9313,790.4844 1014.9313,789.2031 L1014.9313,788.0469 Q1014.9313,786.7188 1015.5406,785.5781 Q1016.1656,784.4219 1017.2594,783.8125 Q1018.3531,783.1875 1019.5875,783.1875 Q1020.3219,783.1875 1020.9625,783.3594 Q1021.6188,783.5156 1022.1656,783.875 Z " fill="#000000"/><text fill="#000000" font-family="sans-serif" font-size="14" lengthAdjust="spacing" textLength="59" x="1037.6" y="793.7285">Definition</text><line style="stroke:#181818;stroke-width:0.5;" x1="986.5" x2="1117.5" y1="804" y2="804"/><rect fill="none" height="6" style="stroke:#C82930;stroke-width:1.0;" width="6" x="993.5" y="815.3047"/><text fill="#000000" font-family="sans-serif" font-size="14" lengthAdjust="spacing" textLength="107" x="1005.5" y="822.5332">correct : boolean</text><line style="stroke:#181818;stroke-width:0.5;" x1="986.5" x2="1117.5" y1="829.6094" y2="829.6094"/></g><!--class Justification--><g id="elem_Justification"><rect codeLine="37" fill="#F1F1F1" height="48" id="Justification" rx="2.5" ry="2.5" style="stroke:#181818;stroke-width:0.5;" width="105" x="879.5" y="960"/><ellipse cx="894.5" cy="976" fill="#ADD1B2" rx="11" ry="11" style="stroke:#181818;stroke-width:1.0;"/><path d="M897.2656,971.875 Q897.4219,971.6563 897.6094,971.5469 Q897.7969,971.4375 898.0156,971.4375 Q898.3906,971.4375 898.625,971.7031 Q898.8594,971.9531 898.8594,972.5625 L898.8594,974.0156 Q898.8594,974.625 898.625,974.8906 Q898.3906,975.1563 898.0156,975.1563 Q897.6719,975.1563 897.4688,974.9531 Q897.2656,974.7656 897.1563,974.25 Q897.1094,973.8906 896.9219,973.7031 Q896.5938,973.3281 895.9844,973.1094 Q895.375,972.8906 894.75,972.8906 Q893.9844,972.8906 893.3438,973.2188 Q892.7188,973.5469 892.2188,974.2969 Q891.7344,975.0469 891.7344,976.0781 L891.7344,977.1719 Q891.7344,978.4063 892.625,979.2344 Q893.5156,980.0469 895.1094,980.0469 Q896.0469,980.0469 896.7031,979.7969 Q897.0938,979.6406 897.5156,979.2031 Q897.7813,978.9375 897.9219,978.8594 Q898.0781,978.7813 898.2813,978.7813 Q898.6094,978.7813 898.8594,979.0469 Q899.125,979.2969 899.125,979.6406 Q899.125,979.9844 898.7813,980.3906 Q898.2813,980.9688 897.4844,981.2969 Q896.4063,981.75 895.1094,981.75 Q893.5938,981.75 892.3906,981.125 Q891.4063,980.625 890.7188,979.5625 Q890.0313,978.4844 890.0313,977.2031 L890.0313,976.0469 Q890.0313,974.7188 890.6406,973.5781 Q891.2656,972.4219 892.3594,971.8125 Q893.4531,971.1875 894.6875,971.1875 Q895.4219,971.1875 896.0625,971.3594 Q896.7188,971.5156 897.2656,971.875 Z " fill="#000000"/><text fill="#000000" font-family="sans-serif" font-size="14" lengthAdjust="spacing" textLength="73" x="908.5" y="981.7285">Justification</text><line style="stroke:#181818;stroke-width:0.5;" x1="880.5" x2="983.5" y1="992" y2="992"/><line style="stroke:#181818;stroke-width:0.5;" x1="880.5" x2="983.5" y1="1000" y2="1000"/></g><!--class CompositeTopic--><g id="elem_CompositeTopic"><rect codeLine="54" fill="#F1F1F1" height="48" id="CompositeTopic" rx="2.5" ry="2.5" style="stroke:#181818;stroke-width:0.5;" width="134" x="1201" y="526"/><ellipse cx="1216" cy="542" fill="#ADD1B2" rx="11" ry="11" style="stroke:#181818;stroke-width:1.0;"/><path d="M1218.7656,537.875 Q1218.9219,537.6563 1219.1094,537.5469 Q1219.2969,537.4375 1219.5156,537.4375 Q1219.8906,537.4375 1220.125,537.7031 Q1220.3594,537.9531 1220.3594,538.5625 L1220.3594,540.0156 Q1220.3594,540.625 1220.125,540.8906 Q1219.8906,541.1563 1219.5156,541.1563 Q1219.1719,541.1563 1218.9688,540.9531 Q1218.7656,540.7656 1218.6563,540.25 Q1218.6094,539.8906 1218.4219,539.7031 Q1218.0938,539.3281 1217.4844,539.1094 Q1216.875,538.8906 1216.25,538.8906 Q1215.4844,538.8906 1214.8438,539.2188 Q1214.2188,539.5469 1213.7188,540.2969 Q1213.2344,541.0469 1213.2344,542.0781 L1213.2344,543.1719 Q1213.2344,544.4063 1214.125,545.2344 Q1215.0156,546.0469 1216.6094,546.0469 Q1217.5469,546.0469 1218.2031,545.7969 Q1218.5938,545.6406 1219.0156,545.2031 Q1219.2813,544.9375 1219.4219,544.8594 Q1219.5781,544.7813 1219.7813,544.7813 Q1220.1094,544.7813 1220.3594,545.0469 Q1220.625,545.2969 1220.625,545.6406 Q1220.625,545.9844 1220.2813,546.3906 Q1219.7813,546.9688 1218.9844,547.2969 Q1217.9063,547.75 1216.6094,547.75 Q1215.0938,547.75 1213.8906,547.125 Q1212.9063,546.625 1212.2188,545.5625 Q1211.5313,544.4844 1211.5313,543.2031 L1211.5313,542.0469 Q1211.5313,540.7188 1212.1406,539.5781 Q1212.7656,538.4219 1213.8594,537.8125 Q1214.9531,537.1875 1216.1875,537.1875 Q1216.9219,537.1875 1217.5625,537.3594 Q1218.2188,537.5156 1218.7656,537.875 Z " fill="#000000"/><text fill="#000000" font-family="sans-serif" font-size="14" lengthAdjust="spacing" textLength="102" x="1230" y="547.7285">CompositeTopic</text><line style="stroke:#181818;stroke-width:0.5;" x1="1202" x2="1334" y1="558" y2="558"/><line style="stroke:#181818;stroke-width:0.5;" x1="1202" x2="1334" y1="566" y2="566"/></g><!--class SimpleTopic--><g id="elem_SimpleTopic"><rect codeLine="50" fill="#F1F1F1" height="48" id="SimpleTopic" rx="2.5" ry="2.5" style="stroke:#181818;stroke-width:0.5;" width="109" x="1056.5" y="526"/><ellipse cx="1071.5" cy="542" fill="#ADD1B2" rx="11" ry="11" style="stroke:#181818;stroke-width:1.0;"/><path d="M1074.2656,537.875 Q1074.4219,537.6563 1074.6094,537.5469 Q1074.7969,537.4375 1075.0156,537.4375 Q1075.3906,537.4375 1075.625,537.7031 Q1075.8594,537.9531 1075.8594,538.5625 L1075.8594,540.0156 Q1075.8594,540.625 1075.625,540.8906 Q1075.3906,541.1563 1075.0156,541.1563 Q1074.6719,541.1563 1074.4688,540.9531 Q1074.2656,540.7656 1074.1563,540.25 Q1074.1094,539.8906 1073.9219,539.7031 Q1073.5938,539.3281 1072.9844,539.1094 Q1072.375,538.8906 1071.75,538.8906 Q1070.9844,538.8906 1070.3438,539.2188 Q1069.7188,539.5469 1069.2188,540.2969 Q1068.7344,541.0469 1068.7344,542.0781 L1068.7344,543.1719 Q1068.7344,544.4063 1069.625,545.2344 Q1070.5156,546.0469 1072.1094,546.0469 Q1073.0469,546.0469 1073.7031,545.7969 Q1074.0938,545.6406 1074.5156,545.2031 Q1074.7813,544.9375 1074.9219,544.8594 Q1075.0781,544.7813 1075.2813,544.7813 Q1075.6094,544.7813 1075.8594,545.0469 Q1076.125,545.2969 1076.125,545.6406 Q1076.125,545.9844 1075.7813,546.3906 Q1075.2813,546.9688 1074.4844,547.2969 Q1073.4063,547.75 1072.1094,547.75 Q1070.5938,547.75 1069.3906,547.125 Q1068.4063,546.625 1067.7188,545.5625 Q1067.0313,544.4844 1067.0313,543.2031 L1067.0313,542.0469 Q1067.0313,540.7188 1067.6406,539.5781 Q1068.2656,538.4219 1069.3594,537.8125 Q1070.4531,537.1875 1071.6875,537.1875 Q1072.4219,537.1875 1073.0625,537.3594 Q1073.7188,537.5156 1074.2656,537.875 Z " fill="#000000"/><text fill="#000000" font-family="sans-serif" font-size="14" lengthAdjust="spacing" textLength="77" x="1085.5" y="547.7285">SimpleTopic</text><line style="stroke:#181818;stroke-width:0.5;" x1="1057.5" x2="1164.5" y1="558" y2="558"/><line style="stroke:#181818;stroke-width:0.5;" x1="1057.5" x2="1164.5" y1="566" y2="566"/></g><!--class Attachment--><g id="elem_Attachment"><rect codeLine="46" fill="#F1F1F1" height="48" id="Attachment" rx="2.5" ry="2.5" style="stroke:#181818;stroke-width:0.5;" width="103" x="1290.5" y="781"/><ellipse cx="1305.5" cy="797" fill="#ADD1B2" rx="11" ry="11" style="stroke:#181818;stroke-width:1.0;"/><path d="M1308.2656,792.875 Q1308.4219,792.6563 1308.6094,792.5469 Q1308.7969,792.4375 1309.0156,792.4375 Q1309.3906,792.4375 1309.625,792.7031 Q1309.8594,792.9531 1309.8594,793.5625 L1309.8594,795.0156 Q1309.8594,795.625 1309.625,795.8906 Q1309.3906,796.1563 1309.0156,796.1563 Q1308.6719,796.1563 1308.4688,795.9531 Q1308.2656,795.7656 1308.1563,795.25 Q1308.1094,794.8906 1307.9219,794.7031 Q1307.5938,794.3281 1306.9844,794.1094 Q1306.375,793.8906 1305.75,793.8906 Q1304.9844,793.8906 1304.3438,794.2188 Q1303.7188,794.5469 1303.2188,795.2969 Q1302.7344,796.0469 1302.7344,797.0781 L1302.7344,798.1719 Q1302.7344,799.4063 1303.625,800.2344 Q1304.5156,801.0469 1306.1094,801.0469 Q1307.0469,801.0469 1307.7031,800.7969 Q1308.0938,800.6406 1308.5156,800.2031 Q1308.7813,799.9375 1308.9219,799.8594 Q1309.0781,799.7813 1309.2813,799.7813 Q1309.6094,799.7813 1309.8594,800.0469 Q1310.125,800.2969 1310.125,800.6406 Q1310.125,800.9844 1309.7813,801.3906 Q1309.2813,801.9688 1308.4844,802.2969 Q1307.4063,802.75 1306.1094,802.75 Q1304.5938,802.75 1303.3906,802.125 Q1302.4063,801.625 1301.7188,800.5625 Q1301.0313,799.4844 1301.0313,798.2031 L1301.0313,797.0469 Q1301.0313,795.7188 1301.6406,794.5781 Q1302.2656,793.4219 1303.3594,792.8125 Q1304.4531,792.1875 1305.6875,792.1875 Q1306.4219,792.1875 1307.0625,792.3594 Q1307.7188,792.5156 1308.2656,792.875 Z " fill="#000000"/><text fill="#000000" font-family="sans-serif" font-size="14" lengthAdjust="spacing" textLength="71" x="1319.5" y="802.7285">Attachment</text><line style="stroke:#181818;stroke-width:0.5;" x1="1291.5" x2="1392.5" y1="813" y2="813"/><line style="stroke:#181818;stroke-width:0.5;" x1="1291.5" x2="1392.5" y1="821" y2="821"/></g><!--class Document--><g id="elem_Document"><rect codeLine="58" fill="#F1F1F1" height="48" id="Document" rx="2.5" ry="2.5" style="stroke:#181818;stroke-width:0.5;" width="96" x="1294" y="960"/><ellipse cx="1309" cy="976" fill="#ADD1B2" rx="11" ry="11" style="stroke:#181818;stroke-width:1.0;"/><path d="M1311.7656,971.875 Q1311.9219,971.6563 1312.1094,971.5469 Q1312.2969,971.4375 1312.5156,971.4375 Q1312.8906,971.4375 1313.125,971.7031 Q1313.3594,971.9531 1313.3594,972.5625 L1313.3594,974.0156 Q1313.3594,974.625 1313.125,974.8906 Q1312.8906,975.1563 1312.5156,975.1563 Q1312.1719,975.1563 1311.9688,974.9531 Q1311.7656,974.7656 1311.6563,974.25 Q1311.6094,973.8906 1311.4219,973.7031 Q1311.0938,973.3281 1310.4844,973.1094 Q1309.875,972.8906 1309.25,972.8906 Q1308.4844,972.8906 1307.8438,973.2188 Q1307.2188,973.5469 1306.7188,974.2969 Q1306.2344,975.0469 1306.2344,976.0781 L1306.2344,977.1719 Q1306.2344,978.4063 1307.125,979.2344 Q1308.0156,980.0469 1309.6094,980.0469 Q1310.5469,980.0469 1311.2031,979.7969 Q1311.5938,979.6406 1312.0156,979.2031 Q1312.2813,978.9375 1312.4219,978.8594 Q1312.5781,978.7813 1312.7813,978.7813 Q1313.1094,978.7813 1313.3594,979.0469 Q1313.625,979.2969 1313.625,979.6406 Q1313.625,979.9844 1313.2813,980.3906 Q1312.7813,980.9688 1311.9844,981.2969 Q1310.9063,981.75 1309.6094,981.75 Q1308.0938,981.75 1306.8906,981.125 Q1305.9063,980.625 1305.2188,979.5625 Q1304.5313,978.4844 1304.5313,977.2031 L1304.5313,976.0469 Q1304.5313,974.7188 1305.1406,973.5781 Q1305.7656,972.4219 1306.8594,971.8125 Q1307.9531,971.1875 1309.1875,971.1875 Q1309.9219,971.1875 1310.5625,971.3594 Q1311.2188,971.5156 1311.7656,971.875 Z " fill="#000000"/><text fill="#000000" font-family="sans-serif" font-size="14" lengthAdjust="spacing" textLength="64" x="1323" y="981.7285">Document</text><line style="stroke:#181818;stroke-width:0.5;" x1="1295" x2="1389" y1="992" y2="992"/><line style="stroke:#181818;stroke-width:0.5;" x1="1295" x2="1389" y1="1000" y2="1000"/></g><!--class Concept--><g id="elem_Concept"><rect codeLine="60" fill="#F1F1F1" height="48" id="Concept" rx="2.5" ry="2.5" style="stroke:#181818;stroke-width:0.5;" width="85" x="1070.5" y="646"/><ellipse cx="1085.5" cy="662" fill="#ADD1B2" rx="11" ry="11" style="stroke:#181818;stroke-width:1.0;"/><path d="M1088.2656,657.875 Q1088.4219,657.6563 1088.6094,657.5469 Q1088.7969,657.4375 1089.0156,657.4375 Q1089.3906,657.4375 1089.625,657.7031 Q1089.8594,657.9531 1089.8594,658.5625 L1089.8594,660.0156 Q1089.8594,660.625 1089.625,660.8906 Q1089.3906,661.1563 1089.0156,661.1563 Q1088.6719,661.1563 1088.4688,660.9531 Q1088.2656,660.7656 1088.1563,660.25 Q1088.1094,659.8906 1087.9219,659.7031 Q1087.5938,659.3281 1086.9844,659.1094 Q1086.375,658.8906 1085.75,658.8906 Q1084.9844,658.8906 1084.3438,659.2188 Q1083.7188,659.5469 1083.2188,660.2969 Q1082.7344,661.0469 1082.7344,662.0781 L1082.7344,663.1719 Q1082.7344,664.4063 1083.625,665.2344 Q1084.5156,666.0469 1086.1094,666.0469 Q1087.0469,666.0469 1087.7031,665.7969 Q1088.0938,665.6406 1088.5156,665.2031 Q1088.7813,664.9375 1088.9219,664.8594 Q1089.0781,664.7813 1089.2813,664.7813 Q1089.6094,664.7813 1089.8594,665.0469 Q1090.125,665.2969 1090.125,665.6406 Q1090.125,665.9844 1089.7813,666.3906 Q1089.2813,666.9688 1088.4844,667.2969 Q1087.4063,667.75 1086.1094,667.75 Q1084.5938,667.75 1083.3906,667.125 Q1082.4063,666.625 1081.7188,665.5625 Q1081.0313,664.4844 1081.0313,663.2031 L1081.0313,662.0469 Q1081.0313,660.7188 1081.6406,659.5781 Q1082.2656,658.4219 1083.3594,657.8125 Q1084.4531,657.1875 1085.6875,657.1875 Q1086.4219,657.1875 1087.0625,657.3594 Q1087.7188,657.5156 1088.2656,657.875 Z " fill="#000000"/><text fill="#000000" font-family="sans-serif" font-size="14" lengthAdjust="spacing" textLength="53" x="1099.5" y="667.7285">Concept</text><line style="stroke:#181818;stroke-width:0.5;" x1="1071.5" x2="1154.5" y1="678" y2="678"/><line style="stroke:#181818;stroke-width:0.5;" x1="1071.5" x2="1154.5" y1="686" y2="686"/></g><!--class Relation--><g id="elem_Relation"><rect codeLine="66" fill="#F1F1F1" height="48" id="Relation" rx="2.5" ry="2.5" style="stroke:#181818;stroke-width:0.5;" width="84" x="1154" y="781"/><ellipse cx="1169" cy="797" fill="#ADD1B2" rx="11" ry="11" style="stroke:#181818;stroke-width:1.0;"/><path d="M1171.7656,792.875 Q1171.9219,792.6563 1172.1094,792.5469 Q1172.2969,792.4375 1172.5156,792.4375 Q1172.8906,792.4375 1173.125,792.7031 Q1173.3594,792.9531 1173.3594,793.5625 L1173.3594,795.0156 Q1173.3594,795.625 1173.125,795.8906 Q1172.8906,796.1563 1172.5156,796.1563 Q1172.1719,796.1563 1171.9688,795.9531 Q1171.7656,795.7656 1171.6563,795.25 Q1171.6094,794.8906 1171.4219,794.7031 Q1171.0938,794.3281 1170.4844,794.1094 Q1169.875,793.8906 1169.25,793.8906 Q1168.4844,793.8906 1167.8438,794.2188 Q1167.2188,794.5469 1166.7188,795.2969 Q1166.2344,796.0469 1166.2344,797.0781 L1166.2344,798.1719 Q1166.2344,799.4063 1167.125,800.2344 Q1168.0156,801.0469 1169.6094,801.0469 Q1170.5469,801.0469 1171.2031,800.7969 Q1171.5938,800.6406 1172.0156,800.2031 Q1172.2813,799.9375 1172.4219,799.8594 Q1172.5781,799.7813 1172.7813,799.7813 Q1173.1094,799.7813 1173.3594,800.0469 Q1173.625,800.2969 1173.625,800.6406 Q1173.625,800.9844 1173.2813,801.3906 Q1172.7813,801.9688 1171.9844,802.2969 Q1170.9063,802.75 1169.6094,802.75 Q1168.0938,802.75 1166.8906,802.125 Q1165.9063,801.625 1165.2188,800.5625 Q1164.5313,799.4844 1164.5313,798.2031 L1164.5313,797.0469 Q1164.5313,795.7188 1165.1406,794.5781 Q1165.7656,793.4219 1166.8594,792.8125 Q1167.9531,792.1875 1169.1875,792.1875 Q1169.9219,792.1875 1170.5625,792.3594 Q1171.2188,792.5156 1171.7656,792.875 Z " fill="#000000"/><text fill="#000000" font-family="sans-serif" font-size="14" lengthAdjust="spacing" textLength="52" x="1183" y="802.7285">Relation</text><line style="stroke:#181818;stroke-width:0.5;" x1="1155" x2="1237" y1="813" y2="813"/><line style="stroke:#181818;stroke-width:0.5;" x1="1155" x2="1237" y1="821" y2="821"/></g><!--class RelationType--><g id="elem_RelationType"><rect codeLine="71" fill="#F1F1F1" height="136.0469" id="RelationType" rx="2.5" ry="2.5" style="stroke:#181818;stroke-width:0.5;" width="116" x="1138" y="916"/><ellipse cx="1153" cy="932" fill="#EB937F" rx="11" ry="11" style="stroke:#181818;stroke-width:1.0;"/><path d="M1151.8594,932.7969 L1151.8594,935.2969 L1156.1875,935.2969 L1156.1875,934.375 Q1156.1875,933.7656 1156.4219,933.5 Q1156.6719,933.2344 1157.0469,933.2344 Q1157.4219,933.2344 1157.6563,933.5 Q1157.8906,933.7656 1157.8906,934.375 L1157.8906,937 L1149.8906,937 Q1149.2656,937 1149,936.7656 Q1148.75,936.5313 1148.75,936.1406 Q1148.75,935.7656 1149.0156,935.5313 Q1149.2813,935.2969 1149.8906,935.2969 L1150.1563,935.2969 L1150.1563,928.6406 L1149.8906,928.6406 Q1149.2656,928.6406 1149,928.4063 Q1148.75,928.1719 1148.75,927.7813 Q1148.75,927.4063 1149,927.1719 Q1149.2656,926.9375 1149.8906,926.9375 L1157.5156,926.9375 L1157.5156,929.5313 Q1157.5156,930.1406 1157.2813,930.4063 Q1157.0625,930.6563 1156.6719,930.6563 Q1156.2969,930.6563 1156.0625,930.4063 Q1155.8281,930.1406 1155.8281,929.5313 L1155.8281,928.6406 L1151.8594,928.6406 L1151.8594,931.0938 L1153.3438,931.0938 Q1153.3438,930.4375 1153.4688,930.25 Q1153.7344,929.8438 1154.2031,929.8438 Q1154.5781,929.8438 1154.8125,930.1094 Q1155.0469,930.3594 1155.0469,930.9688 L1155.0469,932.9375 Q1155.0469,933.4844 1154.9219,933.6719 Q1154.6563,934.0625 1154.2031,934.0625 Q1153.7344,934.0625 1153.4688,933.6563 Q1153.3438,933.4688 1153.3438,932.7969 L1151.8594,932.7969 Z " fill="#000000"/><text fill="#000000" font-family="sans-serif" font-size="14" lengthAdjust="spacing" textLength="84" x="1167" y="937.7285">RelationType</text><line style="stroke:#181818;stroke-width:0.5;" x1="1139" x2="1253" y1="948" y2="948"/><text fill="#000000" font-family="sans-serif" font-size="14" lengthAdjust="spacing" textLength="24" x="1144" y="966.5332">Use</text><text fill="#000000" font-family="sans-serif" font-size="14" lengthAdjust="spacing" textLength="72" x="1144" y="984.1426">Association</text><text fill="#000000" font-family="sans-serif" font-size="14" lengthAdjust="spacing" textLength="78" x="1144" y="1001.752">Composition</text><text fill="#000000" font-family="sans-serif" font-size="14" lengthAdjust="spacing" textLength="70" x="1144" y="1019.3613">Inheritance</text><text fill="#000000" font-family="sans-serif" font-size="14" lengthAdjust="spacing" textLength="77" x="1144" y="1036.9707">Aggregation</text><line style="stroke:#181818;stroke-width:0.5;" x1="1139" x2="1253" y1="1044.0469" y2="1044.0469"/></g><!--link EducationPlatform to User--><g id="link_EducationPlatform_User"><path codeLine="2" d="M587.8124,55.2158 C486.7024,82.7758 326.619,126.4029 255.039,145.9029 " fill="none" id="EducationPlatform-User" style="stroke:#FF0000;stroke-width:1.0;"/><polygon fill="#FF0000" points="599.39,52.06,592.5493,49.7787,587.8124,55.2158,594.6531,57.4971,599.39,52.06" style="stroke:#FF0000;stroke-width:1.0;"/><polygon fill="#FF0000" points="249.25,147.48,258.9849,148.9738,254.0742,146.1658,256.8822,141.2551,249.25,147.48" style="stroke:#FF0000;stroke-width:1.0;"/><text fill="#000000" font-family="sans-serif" font-size="13" lengthAdjust="spacing" textLength="8" x="256.9609" y="141.1811">+</text></g><!--link EducationPlatform to Topic--><g id="link_EducationPlatform_Topic"><path codeLine="3" d="M758.4742,42.8068 C800.9342,50.1568 842.36,61.37 885,85 C1029.68,165.19 1148.3651,324.8097 1190.1651,385.4597 " fill="none" id="EducationPlatform-Topic" style="stroke:#FF0000;stroke-width:1.0;"/><polygon fill="#FF0000" points="746.65,40.76,751.8798,45.7248,758.4742,42.8068,753.2443,37.842,746.65,40.76" style="stroke:#FF0000;stroke-width:1.0;"/><polygon fill="#FF0000" points="1193.57,390.4,1191.7562,380.7196,1190.7326,386.2831,1185.1691,385.2594,1193.57,390.4" style="stroke:#FF0000;stroke-width:1.0;"/></g><!--link EducationPlatform to Itinerary--><g id="link_EducationPlatform_Itinerary"><path codeLine="4" d="M755.0791,59.8017 C773.6291,67.6617 781.88,72.91 798,85 C815.45,98.08 827.4163,112.5658 837.9463,127.7858 " fill="none" id="EducationPlatform-Itinerary" style="stroke:#FF0000;stroke-width:1.0;"/><polygon fill="#FF0000" points="744.03,55.12,747.994,61.1439,755.0791,59.8017,751.1151,53.7778,744.03,55.12" style="stroke:#FF0000;stroke-width:1.0;"/><polygon fill="#FF0000" points="841.36,132.72,839.5289,123.0429,838.5152,128.6082,832.9499,127.5945,841.36,132.72" style="stroke:#FF0000;stroke-width:1.0;"/><text fill="#000000" font-family="sans-serif" font-size="13" lengthAdjust="spacing" textLength="59" x="817" y="99.4951">predefined</text></g><!--link EducationPlatform to Itinerary--><g id="link_EducationPlatform_Itinerary"><path codeLine="5" d="M700.8253,64.0163 C714.4353,78.9763 725.46,89.28 745,103 C766.41,118.03 787.232,128.4539 808.872,137.6939 " fill="none" id="EducationPlatform-Itinerary-1" style="stroke:#FF0000;stroke-width:1.0;"/><polygon fill="none" points="692.75,55.14,693.8289,62.2699,700.8253,64.0163,699.7464,56.8864,692.75,55.14" style="stroke:#FF0000;stroke-width:1.0;"/><polygon fill="#FF0000" points="814.39,140.05,807.6837,132.8371,809.7916,138.0866,804.5422,140.1945,814.39,140.05" style="stroke:#FF0000;stroke-width:1.0;"/><text fill="#000000" font-family="sans-serif" font-size="13" lengthAdjust="spacing" textLength="43" x="746" y="99.4951">custom</text><text fill="#000000" font-family="sans-serif" font-size="13" lengthAdjust="spacing" textLength="5" x="801.5329" y="133.1322">*</text></g><!--link EducationPlatform to Evaluator--><g id="link_EducationPlatform_Evaluator"><path codeLine="6" d="M687.1924,66.3214 C693.0724,80.3014 696.3,87.3 704,103 C708.85,112.89 711.6837,118.3364 716.7837,127.5064 " fill="none" id="EducationPlatform-Evaluator" style="stroke:#FF0000;stroke-width:1.0;"/><polygon fill="#FF0000" points="682.54,55.26,681.1791,62.3415,687.1924,66.3214,688.5534,59.2399,682.54,55.26" style="stroke:#FF0000;stroke-width:1.0;"/><polygon fill="#FF0000" points="719.7,132.75,718.8213,122.9404,717.2698,128.3803,711.8298,126.8288,719.7,132.75" style="stroke:#FF0000;stroke-width:1.0;"/></g><!--link EducationPlatform to Exercise--><g id="link_EducationPlatform_Exercise"><path codeLine="7" d="M628.1616,62.4678 C617.4716,70.8378 615.93,73.66 608,85 C568.02,142.19 550.0949,218.4189 542.8149,258.0189 " fill="none" id="EducationPlatform-Exercise" style="stroke:#FF0000;stroke-width:1.0;"/><polygon fill="none" points="637.61,55.07,630.4199,55.6195,628.1616,62.4678,635.3518,61.9184,637.61,55.07" style="stroke:#FF0000;stroke-width:1.0;"/><polygon fill="#FF0000" points="541.73,263.92,547.2913,255.7916,542.634,259.0024,539.4232,254.3451,541.73,263.92" style="stroke:#FF0000;stroke-width:1.0;"/><text fill="#000000" font-family="sans-serif" font-size="13" lengthAdjust="spacing" textLength="5" x="537.0452" y="253.2397">*</text></g><!--link EducationPlatform to Domain--><g id="link_EducationPlatform_Domain"><path codeLine="8" d="M587.4358,39.0775 C413.9758,54.2775 6,96.19 6,156 C6,156 6,156 6,415.5 C6,476.13 178.4921,515.9428 287.2021,535.2128 " fill="none" id="EducationPlatform-Domain" style="stroke:#FF0000;stroke-width:1.0;"/><polygon fill="none" points="599.39,38.03,593.0637,34.569,587.4358,39.0775,593.7621,42.5385,599.39,38.03" style="stroke:#FF0000;stroke-width:1.0;"/><polygon fill="#FF0000" points="293.11,536.26,284.9463,530.7505,288.1867,535.3873,283.55,538.6277,293.11,536.26" style="stroke:#FF0000;stroke-width:1.0;"/><text fill="#000000" font-family="sans-serif" font-size="13" lengthAdjust="spacing" textLength="5" x="280.594" y="531.8519">*</text></g><!--link EducationPlatform to Application--><g id="link_EducationPlatform_Application"><path codeLine="9" d="M673.0164,67.3486 C672.2164,119.6386 663.43,235.52 598,312 C596.61,313.62 516.2954,349.0216 450.1254,378.0216 " fill="none" id="EducationPlatform-Application" style="stroke:#FF0000;stroke-width:1.0;"/><polygon fill="none" points="673.2,55.35,669.1087,61.2881,673.0164,67.3486,677.1077,61.4105,673.2,55.35" style="stroke:#FF0000;stroke-width:1.0;"/><polygon fill="#FF0000" points="444.63,380.43,454.4787,380.4809,449.2095,378.423,451.2675,373.1537,444.63,380.43" style="stroke:#FF0000;stroke-width:1.0;"/><text fill="#000000" font-family="sans-serif" font-size="13" lengthAdjust="spacing" textLength="5" x="452.6872" y="373.5935">*</text></g><!--reverse link User to Teacher--><g id="link_User_Teacher"><path codeLine="14" d="M218,199.06 C218,222.4 218,240.28 218,263.7 " fill="none" id="User-backto-Teacher" style="stroke:#181818;stroke-width:1.0;"/><polygon fill="none" points="218,181.06,212,199.06,224,199.06,218,181.06" style="stroke:#181818;stroke-width:1.0;"/></g><!--reverse link User to Student--><g id="link_User_Student"><path codeLine="15" d="M182.2955,194.1101 C171.0055,205.6201 169.93,206.96 158,220 C144.91,234.3 130.66,250.75 119.55,263.78 " fill="none" id="User-backto-Student" style="stroke:#181818;stroke-width:1.0;"/><polygon fill="none" points="194.9,181.26,178.0121,189.9086,186.5789,198.3116,194.9,181.26" style="stroke:#181818;stroke-width:1.0;"/></g><!--link Student to Application--><g id="link_Student_Application"><path codeLine="22" d="M151.4506,312.8093 C191.8206,331.4893 238.3848,353.05 287.9748,376 " fill="none" id="Student-Application" style="stroke:#181818;stroke-width:1.0;"/><polygon fill="none" points="140.56,307.77,144.3255,313.9199,151.4506,312.8093,147.6851,306.6594,140.56,307.77" style="stroke:#181818;stroke-width:1.0;"/><polygon fill="#181818" points="293.42,378.52,286.9323,371.1099,288.8824,376.42,283.5723,378.3701,293.42,378.52" style="stroke:#181818;stroke-width:1.0;"/><text fill="#000000" font-family="sans-serif" font-size="13" lengthAdjust="spacing" textLength="5" x="280.368" y="371.4865">*</text></g><!--link Evaluator to QuestionExercise--><g id="link_Evaluator_QuestionExercise"><path codeLine="26" d="M731.73,181.12 C729.23,226.82 723.9684,322.789 721.0984,375.139 " fill="none" id="Evaluator-to-QuestionExercise" style="stroke:#181818;stroke-width:1.0;"/><polygon fill="#181818" points="720.77,381.13,725.2567,372.3625,721.0437,376.1375,717.2687,371.9245,720.77,381.13" style="stroke:#181818;stroke-width:1.0;"/></g><!--link Itinerary to Topic--><g id="link_Itinerary_Topic"><path codeLine="30" d="M908.2751,184.6355 C928.3351,195.5755 941.62,204.24 961,220 C1018.36,266.65 1014.38,297.95 1073,343 C1104.95,367.55 1141.199,385.3575 1169.979,397.7475 " fill="none" id="Itinerary-Topic" style="stroke:#181818;stroke-width:1.0;"/><polygon fill="none" points="897.74,178.89,901.0924,185.2745,908.2751,184.6355,904.9227,178.251,897.74,178.89" style="stroke:#181818;stroke-width:1.0;"/><polygon fill="#181818" points="1175.49,400.12,1168.8052,392.8872,1170.8975,398.1429,1165.6418,400.2352,1175.49,400.12" style="stroke:#181818;stroke-width:1.0;"/><text fill="#000000" font-family="sans-serif" font-size="13" lengthAdjust="spacing" textLength="8" x="1159.2847" y="392.7579">+</text></g><!--link Definition to Justification--><g id="link_Definition_Justification"><path codeLine="35" d="M1023.5369,847.983 C999.6969,883.153 972.1164,923.8234 951.0164,954.9534 " fill="none" id="Definition-Justification" style="stroke:#181818;stroke-width:1.0;"/><polygon fill="#181818" points="1030.27,838.05,1023.5924,840.7721,1023.5369,847.983,1030.2145,845.2609,1030.27,838.05" style="stroke:#181818;stroke-width:1.0;"/><polygon fill="#181818" points="947.65,959.92,956.0107,954.7143,950.4553,955.7811,949.3885,950.2258,947.65,959.92" style="stroke:#181818;stroke-width:1.0;"/><text fill="#000000" font-family="sans-serif" font-size="13" lengthAdjust="spacing" textLength="106" x="1010" y="882.4951">[!definition.correct]</text><text fill="#000000" font-family="sans-serif" font-size="13" lengthAdjust="spacing" textLength="5" x="946.0197" y="949.2397">*</text></g><!--reverse link Topic to CompositeTopic--><g id="link_Topic_CompositeTopic"><path codeLine="42" d="M1214.3275,456.0424 C1221.3675,480.4024 1233.17,501.14 1247.67,525.56 " fill="none" id="Topic-backto-CompositeTopic" style="stroke:#181818;stroke-width:1.0;"/><polygon fill="none" points="1209.33,438.75,1208.5633,457.7082,1220.0916,454.3765,1209.33,438.75" style="stroke:#181818;stroke-width:1.0;"/></g><!--link CompositeTopic to Topic--><g id="link_CompositeTopic_Topic"><path codeLine="56" d="M1264.9602,514.0084 C1258.0902,489.5884 1247.6215,468.2462 1232.9115,443.8862 " fill="none" id="CompositeTopic-Topic" style="stroke:#181818;stroke-width:1.0;"/><polygon fill="none" points="1268.21,525.56,1270.4356,518.701,1264.9602,514.0084,1262.7346,520.8675,1268.21,525.56" style="stroke:#181818;stroke-width:1.0;"/><polygon fill="#181818" points="1229.81,438.75,1231.0382,448.522,1232.3946,443.0302,1237.8864,444.3866,1229.81,438.75" style="stroke:#181818;stroke-width:1.0;"/><text fill="#000000" font-family="sans-serif" font-size="13" lengthAdjust="spacing" textLength="8" x="1225.9074" y="460.1489">+</text></g><!--reverse link Topic to SimpleTopic--><g id="link_Topic_SimpleTopic"><path codeLine="43" d="M1181.2793,453.2607 C1163.3993,477.6207 1146.13,501.14 1128.2,525.56 " fill="none" id="Topic-backto-SimpleTopic" style="stroke:#181818;stroke-width:1.0;"/><polygon fill="none" points="1191.93,438.75,1176.4423,449.7105,1186.1162,456.811,1191.93,438.75" style="stroke:#181818;stroke-width:1.0;"/></g><!--link Topic to Attachment--><g id="link_Topic_Attachment"><path codeLine="44" d="M1253.7943,433.0988 C1288.6143,448.3288 1329.98,472.61 1353,517 C1398.68,605.09 1368.5447,723.9406 1352.0347,775.0406 " fill="none" id="Topic-Attachment" style="stroke:#181818;stroke-width:1.0;"/><polygon fill="#181818" points="1242.8,428.29,1246.6942,434.3592,1253.7943,433.0988,1249.9001,427.0296,1242.8,428.29" style="stroke:#181818;stroke-width:1.0;"/><polygon fill="#181818" points="1350.19,780.75,1356.7633,773.4157,1351.7272,775.9922,1349.1507,770.9561,1350.19,780.75" style="stroke:#181818;stroke-width:1.0;"/><text fill="#000000" font-family="sans-serif" font-size="13" lengthAdjust="spacing" textLength="5" x="1346.6481" y="770.0261">*</text></g><!--link Attachment to Document--><g id="link_Attachment_Document"><path codeLine="48" d="M1342,841.14 C1342,875.06 1342,919.93 1342,953.85 " fill="none" id="Attachment-Document" style="stroke:#181818;stroke-width:1.0;"/><polygon fill="#181818" points="1342,829.14,1338,835.14,1342,841.14,1346,835.14,1342,829.14" style="stroke:#181818;stroke-width:1.0;"/><polygon fill="#181818" points="1342,959.85,1346,950.85,1342,954.85,1338,950.85,1342,959.85" style="stroke:#181818;stroke-width:1.0;"/><text fill="#000000" font-family="sans-serif" font-size="13" lengthAdjust="spacing" textLength="8" x="1332.975" y="949.1517">+</text></g><!--link SimpleTopic to Concept--><g id="link_SimpleTopic_Concept"><path codeLine="52" d="M1111.5933,586.0283 C1111.9433,606.6883 1112.1489,618.8609 1112.4989,639.6209 " fill="none" id="SimpleTopic-Concept" style="stroke:#181818;stroke-width:1.0;"/><polygon fill="none" points="1111.39,574.03,1107.4922,580.0969,1111.5933,586.0283,1115.4911,579.9614,1111.39,574.03" style="stroke:#181818;stroke-width:1.0;"/><polygon fill="#181818" points="1112.6,645.62,1116.4477,636.5539,1112.5157,640.6207,1108.4489,636.6887,1112.6,645.62" style="stroke:#181818;stroke-width:1.0;"/><text fill="#000000" font-family="sans-serif" font-size="13" lengthAdjust="spacing" textLength="8" x="1103.5275" y="635.2653">+</text></g><!--link Concept to Definition--><g id="link_Concept_Definition"><path codeLine="62" d="M1088.2017,703.9079 C1081.8517,712.8879 1081.98,713.68 1077,724 C1069.72,739.07 1065.5535,750.961 1061.3935,765.861 " fill="none" id="Concept-Definition" style="stroke:#181818;stroke-width:1.0;"/><polygon fill="#181818" points="1095.13,694.11,1088.3999,696.6995,1088.2017,703.9079,1094.9318,701.3184,1095.13,694.11" style="stroke:#181818;stroke-width:1.0;"/><polygon fill="#181818" points="1059.78,771.64,1066.0529,764.0472,1061.1246,766.8242,1058.3475,761.8959,1059.78,771.64" style="stroke:#181818;stroke-width:1.0;"/><text fill="#000000" font-family="sans-serif" font-size="13" lengthAdjust="spacing" textLength="8" x="1052.5242" y="761.0654">+</text></g><!--link Concept to Relation--><g id="link_Concept_Relation"><path codeLine="63" d="M1110.0373,706.0215 C1109.4873,720.5915 1111.22,727.36 1119,742 C1127.3,757.61 1136.5235,767.1666 1150.4035,777.2366 " fill="none" id="Concept-Relation" style="stroke:#181818;stroke-width:1.0;"/><polygon fill="#181818" points="1110.49,694.03,1106.2665,699.8748,1110.0373,706.0215,1114.2608,700.1766,1110.49,694.03" style="stroke:#181818;stroke-width:1.0;"/><polygon fill="#181818" points="1155.26,780.76,1150.3242,772.2372,1151.2129,777.8238,1145.6263,778.7125,1155.26,780.76" style="stroke:#181818;stroke-width:1.0;"/><text fill="#000000" font-family="sans-serif" font-size="13" lengthAdjust="spacing" textLength="31" x="1120" y="738.4951">origin</text><text fill="#000000" font-family="sans-serif" font-size="13" lengthAdjust="spacing" textLength="5" x="1140.8013" y="771.2411">*</text></g><!--link Relation to Concept--><g id="link_Relation_Concept"><path codeLine="68" d="M1186.06,780.86 C1178.64,764.48 1167.78,742.27 1156,724 C1149.39,713.74 1144.9736,707.7672 1137.4736,698.7772 " fill="none" id="Relation-to-Concept" style="stroke:#181818;stroke-width:1.0;"/><polygon fill="#181818" points="1133.63,694.17,1136.324,703.6433,1136.833,698.0094,1142.4669,698.5184,1133.63,694.17" style="stroke:#181818;stroke-width:1.0;"/><text fill="#000000" font-family="sans-serif" font-size="13" lengthAdjust="spacing" textLength="33" x="1167" y="738.4951">target</text></g><!--link Concept to Attachment--><g id="link_Concept_Attachment"><path codeLine="64" d="M1166.2386,699.9158 C1182.9386,709.0858 1191.68,714.02 1209,724 C1241.45,742.71 1272.7494,761.5528 1299.2594,777.7428 " fill="none" id="Concept-Attachment" style="stroke:#181818;stroke-width:1.0;"/><polygon fill="#181818" points="1155.72,694.14,1159.054,700.5341,1166.2386,699.9158,1162.9045,693.5217,1155.72,694.14" style="stroke:#181818;stroke-width:1.0;"/><polygon fill="#181818" points="1304.38,780.87,1298.7839,772.7654,1300.1128,778.264,1294.6143,779.5929,1304.38,780.87" style="stroke:#181818;stroke-width:1.0;"/><text fill="#000000" font-family="sans-serif" font-size="13" lengthAdjust="spacing" textLength="5" x="1289.0993" y="770.1768">*</text></g><!--link Relation to RelationType--><g id="link_Relation_RelationType"><path codeLine="69" d="M1196,841.14 C1196,863.16 1196,879.38 1196,909.96 " fill="none" id="Relation-RelationType" style="stroke:#181818;stroke-width:1.0;"/><polygon fill="#181818" points="1196,829.14,1192,835.14,1196,841.14,1200,835.14,1196,829.14" style="stroke:#181818;stroke-width:1.0;"/><polygon fill="#181818" points="1196,915.96,1200,906.96,1196,910.96,1192,906.96,1196,915.96" style="stroke:#181818;stroke-width:1.0;"/></g><!--reverse link Exercise to QuestionExercise--><g id="link_Exercise_QuestionExercise"><path codeLine="83" d="M586.4528,322.3275 C614.7728,341.7975 640.75,359.68 672.25,381.35 " fill="none" id="Exercise-backto-QuestionExercise" style="stroke:#181818;stroke-width:1.0;"/><polygon fill="none" points="571.62,312.13,583.0536,327.2718,589.8519,317.3833,571.62,312.13" style="stroke:#181818;stroke-width:1.0;"/></g><!--reverse link Exercise to DomainExercise--><g id="link_Exercise_DomainExercise"><path codeLine="84" d="M540.6388,330.0933 C542.0688,352.4533 543.09,368.18 544.52,390.5 " fill="none" id="Exercise-backto-DomainExercise" style="stroke:#181818;stroke-width:1.0;"/><polygon fill="none" points="539.49,312.13,534.651,330.4762,546.6266,329.7104,539.49,312.13" style="stroke:#181818;stroke-width:1.0;"/></g><!--link DomainExercise to Domain--><g id="link_DomainExercise_Domain"><path codeLine="89" d="M516.21,438.75 C488.56,460.34 451.8599,488.9984 421.0199,513.0684 " fill="none" id="DomainExercise-to-Domain" style="stroke:#181818;stroke-width:1.0;"/><polygon fill="#181818" points="416.29,516.76,425.8459,514.3759,420.2316,513.6837,420.9238,508.0693,416.29,516.76" style="stroke:#181818;stroke-width:1.0;"/><text fill="#000000" font-family="sans-serif" font-size="13" lengthAdjust="spacing" textLength="8" x="415.6315" y="506.2091">+</text></g><!--link DomainExercise to SimpleTopic--><g id="link_DomainExercise_SimpleTopic"><path codeLine="90" d="M588.78,438.56 C602.02,444.97 616.85,451.41 631,456 C772.87,502.03 814.72,487.88 961,517 C992.6,523.29 1021.9765,529.5073 1050.3565,535.6673 " fill="none" id="DomainExercise-to-SimpleTopic" style="stroke:#181818;stroke-width:1.0;"/><polygon fill="#181818" points="1056.22,536.94,1048.2733,531.122,1051.3338,535.8794,1046.5763,538.9399,1056.22,536.94" style="stroke:#181818;stroke-width:1.0;"/><text fill="#000000" font-family="sans-serif" font-size="13" lengthAdjust="spacing" textLength="8" x="1040.3214" y="531.6288">+</text></g><!--reverse link Domain to Domain--><g id="link_Domain_Domain"><path codeLine="95" d="M468.6494,539.0643 C488.6194,539.9043 491.5,543.22 491.5,550 C491.5,556.78 476.63,560.6 456.66,561.44 " fill="none" id="Domain-backto-Domain" style="stroke:#181818;stroke-width:1.0;"/><polygon fill="#181818" points="456.66,538.56,462.4866,542.8086,468.6494,539.0643,462.8228,534.8157,456.66,538.56" style="stroke:#181818;stroke-width:1.0;"/><text fill="#000000" font-family="sans-serif" font-size="13" lengthAdjust="spacing" textLength="5" x="464.4185" y="559.2865">*</text></g><!--link Application to Domain--><g id="link_Application_Domain"><path codeLine="97" d="M370.83,456.28 C371.71,475.76 372.4699,492.7361 373.2899,510.9361 " fill="none" id="Application-to-Domain" style="stroke:#181818;stroke-width:1.0;"/><polygon fill="#181818" points="373.56,516.93,377.1509,507.7591,373.335,511.9351,369.159,508.1192,373.56,516.93" style="stroke:#181818;stroke-width:1.0;"/><text fill="#000000" font-family="sans-serif" font-size="13" lengthAdjust="spacing" textLength="5" x="367.7474" y="506.031">*</text></g><!--reverse link QuestionExercise to MultipleChoice--><g id="link_QuestionExercise_MultipleChoice"><path codeLine="101" d="M670.0913,459.9173 C643.5713,483.9873 621.33,504.2 597.58,525.77 " fill="none" id="QuestionExercise-backto-MultipleChoice" style="stroke:#181818;stroke-width:1.0;"/><polygon fill="none" points="683.42,447.82,666.0589,455.4745,674.1238,464.3602,683.42,447.82" style="stroke:#181818;stroke-width:1.0;"/></g><!--reverse link QuestionExercise to Cloze--><g id="link_QuestionExercise_Cloze"><path codeLine="102" d="M720.51,465.8119 C721.14,486.8019 721.41,496.05 722.04,516.98 " fill="none" id="QuestionExercise-backto-Cloze" style="stroke:#181818;stroke-width:1.0;"/><polygon fill="none" points="719.97,447.82,714.5127,465.9919,726.5073,465.6319,719.97,447.82" style="stroke:#181818;stroke-width:1.0;"/></g><!--reverse link QuestionExercise to Open--><g id="link_QuestionExercise_Open"><path codeLine="103" d="M761.8556,460.9097 C784.5756,484.9797 802.72,504.2 823.07,525.77 " fill="none" id="QuestionExercise-backto-Open" style="stroke:#181818;stroke-width:1.0;"/><polygon fill="none" points="749.5,447.82,757.4923,465.0282,766.2188,456.7912,749.5,447.82" style="stroke:#181818;stroke-width:1.0;"/></g><!--link QuestionExercise to Concept--><g id="link_QuestionExercise_Concept"><path codeLine="104" d="M777.98,447.57 C812.78,466.92 857.43,492.5 896,517 C963.95,560.16 1035.5676,611.7837 1077.1476,642.3837 " fill="none" id="QuestionExercise-to-Concept" style="stroke:#181818;stroke-width:1.0;"/><polygon fill="#181818" points="1081.98,645.94,1077.1022,637.3839,1077.953,642.9764,1072.3605,643.8271,1081.98,645.94" style="stroke:#181818;stroke-width:1.0;"/><text fill="#000000" font-family="sans-serif" font-size="13" lengthAdjust="spacing" textLength="8" x="1065.0061" y="635.2648">+</text></g><!--link Answer to QuestionExercise--><g id="link_Answer_QuestionExercise"><path codeLine="105" d="M825.26,414.5 C813.51,414.5 813.75,414.5 802,414.5 " fill="none" id="Answer-to-QuestionExercise" style="stroke:#181818;stroke-width:1.0;"/><polygon fill="#181818" points="790,414.5,796,418.5,802,414.5,796,410.5,790,414.5" style="stroke:#181818;stroke-width:1.0;"/><text fill="#000000" font-family="sans-serif" font-size="13" lengthAdjust="spacing" textLength="8" x="809.4917" y="411.0653">+</text></g><!--reverse link Answer to Justification--><g id="link_Answer_Justification"><path codeLine="110" d="M908.5496,458.3066 C921.7796,484.6866 932,512.76 932,549 C932,549 932,549 932,806 C932,861.16 932,925.99 932,959.81 " fill="none" id="Answer-backto-Justification" style="stroke:#181818;stroke-width:1.0;"/><polygon fill="#181818" points="903.17,447.58,902.2842,454.7365,908.5496,458.3066,909.4353,451.1501,903.17,447.58" style="stroke:#181818;stroke-width:1.0;"/><text fill="#000000" font-family="sans-serif" font-size="13" lengthAdjust="spacing" textLength="96" x="933" y="675.4951">[!answer.correct]</text><text fill="#000000" font-family="sans-serif" font-size="13" lengthAdjust="spacing" textLength="5" x="926.3594" y="949.1015">*</text></g><!--link Application to Justification--><g id="link_Application_Justification"><path codeLine="123" d="M288.5296,463.3056 C258.5596,486.1056 240,510.49 240,549 C240,549 240,549 240,806 C240,937.91 711.9374,972.522 873.4274,980.552 " fill="none" id="Application-Justification" style="stroke:#181818;stroke-width:1.0;"/><polygon fill="#181818" points="298.08,456.04,290.8829,456.4893,288.5296,463.3056,295.7266,462.8563,298.08,456.04" style="stroke:#181818;stroke-width:1.0;"/><polygon fill="#181818" points="879.42,980.85,870.6298,976.408,874.4262,980.6017,870.2325,984.3981,879.42,980.85" style="stroke:#181818;stroke-width:1.0;"/><text fill="#000000" font-family="sans-serif" font-size="13" lengthAdjust="spacing" textLength="117" x="241" y="675.4951">[!application.correct]</text><text fill="#000000" font-family="sans-serif" font-size="13" lengthAdjust="spacing" textLength="5" x="866.3301" y="976.7333">*</text></g><!--SRC=[bLN9Rjim4BthAvZaKC21yW524C2rVKZHealSKv03BOqL8XGfa5HSr_M_bukuo9QTH0TRd7apysQZ5bLNOaKu-q6nMdFHe4d-U2MWUihlqENr9VejGMIBSwWbRqbv7dAl20E1nHOLgDKoMEjpDMB3a-2Jou5TsKd5c_Dn5g-OTbXnyRRhnHyG9P7m6Ii5OdlZpn-tdFC64_PnksdRKk9CiWolf1AuLBRUksoVPUO5tVxBSxG4N3xhBaJ9W-egO2hBIegbz01hvYGzm4ZwLytcFJoSUQYZSH0Eo7WujFxPWJIceNwzYzWwuoEU70qzM6viUlJSJ0GnVZGSwIT79HS2T44AjEAS0cRQJGAR-7I-wBaWwpw1ul6Y2fYRtiMJZpA0MbwnxfQE4TaNL-OPRrekYGB7DT4yaAQb0t7WCrLATwD9sXCbndyyzJQw5dDUTgb5ujwsC1vZ_MQSbT06ao5NOpMKd2fy7tctZuwiN-V1lcgU5TymppNKTqIly_y5rDMtG5oGcfo07PSf69hGuM1OUmS5KbZKeA8skFIIvRRL8mYiQmQYVghq1jd_gPIy96xapTcNof_lcLudeh0Ew_1rBQ1s-3tAiXQNBxY6msL0LrkWb6zscRKAi-LXFOkz_Gr2Er1lhjMnYRjtujuPX6zggkdPkAX35Oe3QE-mCuXquez2kRpCymf2QjfIz-ehaUhMwU-E69ZPjtEGHFwKggxFNrH9DKRKo2zZujtnFQnhP2uLLc3Nij3Nfo2iJaWVchaEVEke8hegisTE-aaP1yue_tjE_xq5Dgu-tFPHq2Idi5QkQ5CcD_fRaQJi937HuuirvkcmeJd32xD0ZnVO0fARDSQnISOmAuhPountJ1M8C9K4IMo65VJhaPAFJOskynCvE1suxnLKunacKtBo6u8ZAAQw_my0]--></g></svg>