<?xml version="1.0" encoding="us-ascii" standalone="no"?><svg xmlns="http://www.w3.org/2000/svg" xmlns:xlink="http://www.w3.org/1999/xlink" contentStyleType="text/css" height="1060px" preserveAspectRatio="none" style="width:1164px;height:1060px;background:#FFFFFF;" version="1.1" viewBox="0 0 1164 1060" width="1164px" zoomAndPan="magnify"><defs/><g><!--cluster Knowledge-Base--><g id="cluster_Knowledge-Base"><path d="M254,522.93 L376,522.93 A3.75,3.75 0 0 1 378.5,525.43 L385.5,545.4183 L618,545.4183 A2.5,2.5 0 0 1 620.5,547.9183 L620.5,1050.8 A2.5,2.5 0 0 1 618,1053.3 L254,1053.3 A2.5,2.5 0 0 1 251.5,1050.8 L251.5,525.43 A2.5,2.5 0 0 1 254,522.93 " fill="none" style="stroke:#000000;stroke-width:1.5;"/><line style="stroke:#000000;stroke-width:1.5;" x1="251.5" x2="385.5" y1="545.4183" y2="545.4183"/><text fill="#000000" font-family="sans-serif" font-size="14" font-weight="bold" lengthAdjust="spacing" textLength="121" x="255.5" y="538.4652">Knowledge-Base</text></g><!--class Concept--><g id="elem_Concept"><rect codeLine="25" fill="#F1F1F1" height="48" id="Concept" rx="2.5" ry="2.5" style="stroke:#181818;stroke-width:0.5;" width="89" x="442" y="557.93"/><ellipse cx="457" cy="573.93" fill="#ADD1B2" rx="11" ry="11" style="stroke:#181818;stroke-width:1.0;"/><path d="M459.4731,580.0731 Q458.8921,580.3719 458.2529,580.5213 Q457.6138,580.6707 456.9082,580.6707 Q454.4014,580.6707 453.0815,579.0189 Q451.7617,577.367 451.7617,574.2459 Q451.7617,571.1165 453.0815,569.4647 Q454.4014,567.8128 456.9082,567.8128 Q457.6138,567.8128 458.2612,567.9622 Q458.9087,568.1116 459.4731,568.4105 L459.4731,571.1331 Q458.8423,570.5521 458.2488,570.2823 Q457.6553,570.0125 457.0244,570.0125 Q455.6797,570.0125 454.9949,571.0792 Q454.3101,572.1458 454.3101,574.2459 Q454.3101,576.3377 454.9949,577.4044 Q455.6797,578.471 457.0244,578.471 Q457.6553,578.471 458.2488,578.2012 Q458.8423,577.9315 459.4731,577.3504 Z " fill="#000000"/><text fill="#000000" font-family="sans-serif" font-size="14" lengthAdjust="spacing" textLength="57" x="471" y="579.221">Concept</text><line style="stroke:#181818;stroke-width:0.5;" x1="443" x2="530" y1="589.93" y2="589.93"/><line style="stroke:#181818;stroke-width:0.5;" x1="443" x2="530" y1="597.93" y2="597.93"/></g><!--class Definition--><g id="elem_Definition"><rect codeLine="31" fill="#F1F1F1" height="64.4883" id="Definition" rx="2.5" ry="2.5" style="stroke:#181818;stroke-width:0.5;" width="142" x="286.5" y="740.64"/><ellipse cx="320.85" cy="756.64" fill="#ADD1B2" rx="11" ry="11" style="stroke:#181818;stroke-width:1.0;"/><path d="M323.3231,762.7831 Q322.7421,763.0819 322.1029,763.2313 Q321.4638,763.3807 320.7582,763.3807 Q318.2514,763.3807 316.9315,761.7289 Q315.6117,760.077 315.6117,756.9559 Q315.6117,753.8265 316.9315,752.1747 Q318.2514,750.5228 320.7582,750.5228 Q321.4638,750.5228 322.1112,750.6722 Q322.7587,750.8216 323.3231,751.1205 L323.3231,753.8431 Q322.6923,753.2621 322.0988,752.9923 Q321.5053,752.7225 320.8744,752.7225 Q319.5297,752.7225 318.8449,753.7892 Q318.1601,754.8558 318.1601,756.9559 Q318.1601,759.0477 318.8449,760.1144 Q319.5297,761.181 320.8744,761.181 Q321.5053,761.181 322.0988,760.9112 Q322.6923,760.6415 323.3231,760.0604 Z " fill="#000000"/><text fill="#000000" font-family="sans-serif" font-size="14" lengthAdjust="spacing" textLength="67" x="339.15" y="761.931">Definition</text><line style="stroke:#181818;stroke-width:0.5;" x1="287.5" x2="427.5" y1="772.64" y2="772.64"/><rect fill="none" height="6" style="stroke:#C82930;stroke-width:1.0;" width="6" x="294.5" y="783.3841"/><text fill="#000000" font-family="sans-serif" font-size="14" lengthAdjust="spacing" textLength="116" x="306.5" y="790.1752">correct : boolean</text><line style="stroke:#181818;stroke-width:0.5;" x1="287.5" x2="427.5" y1="797.1283" y2="797.1283"/></g><!--class Relation--><g id="elem_Relation"><rect codeLine="40" fill="#F1F1F1" height="48" id="Relation" rx="2.5" ry="2.5" style="stroke:#181818;stroke-width:0.5;" width="88" x="489.5" y="748.88"/><ellipse cx="504.5" cy="764.88" fill="#ADD1B2" rx="11" ry="11" style="stroke:#181818;stroke-width:1.0;"/><path d="M506.9731,771.0231 Q506.3921,771.3219 505.7529,771.4713 Q505.1138,771.6207 504.4082,771.6207 Q501.9014,771.6207 500.5815,769.9689 Q499.2617,768.317 499.2617,765.1959 Q499.2617,762.0665 500.5815,760.4147 Q501.9014,758.7628 504.4082,758.7628 Q505.1138,758.7628 505.7612,758.9122 Q506.4087,759.0616 506.9731,759.3605 L506.9731,762.0831 Q506.3423,761.5021 505.7488,761.2323 Q505.1553,760.9625 504.5244,760.9625 Q503.1797,760.9625 502.4949,762.0292 Q501.8101,763.0958 501.8101,765.1959 Q501.8101,767.2877 502.4949,768.3544 Q503.1797,769.421 504.5244,769.421 Q505.1553,769.421 505.7488,769.1512 Q506.3423,768.8815 506.9731,768.3004 Z " fill="#000000"/><text fill="#000000" font-family="sans-serif" font-size="14" lengthAdjust="spacing" textLength="56" x="518.5" y="770.171">Relation</text><line style="stroke:#181818;stroke-width:0.5;" x1="490.5" x2="576.5" y1="780.88" y2="780.88"/><line style="stroke:#181818;stroke-width:0.5;" x1="490.5" x2="576.5" y1="788.88" y2="788.88"/></g><!--class Justification--><g id="elem_Justification"><rect codeLine="36" fill="#F1F1F1" height="64.4883" id="Justification" rx="2.5" ry="2.5" style="stroke:#181818;stroke-width:0.5;" width="142" x="286.5" y="939.84"/><ellipse cx="315" cy="955.84" fill="#ADD1B2" rx="11" ry="11" style="stroke:#181818;stroke-width:1.0;"/><path d="M317.4731,961.9831 Q316.8921,962.2819 316.2529,962.4313 Q315.6138,962.5807 314.9082,962.5807 Q312.4014,962.5807 311.0815,960.9289 Q309.7617,959.277 309.7617,956.1559 Q309.7617,953.0265 311.0815,951.3747 Q312.4014,949.7228 314.9082,949.7228 Q315.6138,949.7228 316.2612,949.8722 Q316.9087,950.0216 317.4731,950.3205 L317.4731,953.0431 Q316.8423,952.4621 316.2488,952.1923 Q315.6553,951.9225 315.0244,951.9225 Q313.6797,951.9225 312.9949,952.9892 Q312.3101,954.0558 312.3101,956.1559 Q312.3101,958.2477 312.9949,959.3144 Q313.6797,960.381 315.0244,960.381 Q315.6553,960.381 316.2488,960.1112 Q316.8423,959.8415 317.4731,959.2604 Z " fill="#000000"/><text fill="#000000" font-family="sans-serif" font-size="14" lengthAdjust="spacing" textLength="80" x="332" y="961.131">Justification</text><line style="stroke:#181818;stroke-width:0.5;" x1="287.5" x2="427.5" y1="971.84" y2="971.84"/><rect fill="none" height="6" style="stroke:#C82930;stroke-width:1.0;" width="6" x="294.5" y="982.5841"/><text fill="#000000" font-family="sans-serif" font-size="14" lengthAdjust="spacing" textLength="116" x="306.5" y="989.3752">correct : boolean</text><line style="stroke:#181818;stroke-width:0.5;" x1="287.5" x2="427.5" y1="996.3283" y2="996.3283"/></g><!--class RelationType--><g id="elem_RelationType"><rect codeLine="45" fill="#F1F1F1" height="130.4414" id="RelationType" rx="2.5" ry="2.5" style="stroke:#181818;stroke-width:0.5;" width="121" x="473" y="906.86"/><ellipse cx="488" cy="922.86" fill="#EB937F" rx="11" ry="11" style="stroke:#181818;stroke-width:1.0;"/><path d="M491.6143,929.36 L483.8945,929.36 L483.8945,916.9669 L491.6143,916.9669 L491.6143,919.1251 L486.3433,919.1251 L486.3433,921.798 L491.1162,921.798 L491.1162,923.9562 L486.3433,923.9562 L486.3433,927.2018 L491.6143,927.2018 Z " fill="#000000"/><text fill="#000000" font-family="sans-serif" font-size="14" lengthAdjust="spacing" textLength="89" x="502" y="928.151">RelationType</text><line style="stroke:#181818;stroke-width:0.5;" x1="474" x2="593" y1="938.86" y2="938.86"/><text fill="#000000" font-family="sans-serif" font-size="14" lengthAdjust="spacing" textLength="25" x="479" y="956.3952">Use</text><text fill="#000000" font-family="sans-serif" font-size="14" lengthAdjust="spacing" textLength="79" x="479" y="972.8834">Association</text><text fill="#000000" font-family="sans-serif" font-size="14" lengthAdjust="spacing" textLength="88" x="479" y="989.3717">Composition</text><text fill="#000000" font-family="sans-serif" font-size="14" lengthAdjust="spacing" textLength="77" x="479" y="1005.86">Inheritance</text><text fill="#000000" font-family="sans-serif" font-size="14" lengthAdjust="spacing" textLength="86" x="479" y="1022.3483">Aggregation</text><line style="stroke:#181818;stroke-width:0.5;" x1="474" x2="593" y1="1029.3014" y2="1029.3014"/></g><!--class EducationPlatform--><g id="elem_EducationPlatform"><rect codeLine="2" fill="#F1F1F1" height="48" id="EducationPlatform" rx="2.5" ry="2.5" style="stroke:#181818;stroke-width:0.5;" width="158" x="246.5" y="7"/><ellipse cx="261.5" cy="23" fill="#ADD1B2" rx="11" ry="11" style="stroke:#181818;stroke-width:1.0;"/><path d="M263.9731,29.1431 Q263.3921,29.4419 262.7529,29.5913 Q262.1138,29.7407 261.4082,29.7407 Q258.9014,29.7407 257.5815,28.0889 Q256.2617,26.437 256.2617,23.3159 Q256.2617,20.1865 257.5815,18.5347 Q258.9014,16.8828 261.4082,16.8828 Q262.1138,16.8828 262.7612,17.0322 Q263.4087,17.1816 263.9731,17.4805 L263.9731,20.2031 Q263.3423,19.6221 262.7488,19.3523 Q262.1553,19.0825 261.5244,19.0825 Q260.1797,19.0825 259.4949,20.1492 Q258.8101,21.2158 258.8101,23.3159 Q258.8101,25.4077 259.4949,26.4744 Q260.1797,27.541 261.5244,27.541 Q262.1553,27.541 262.7488,27.2712 Q263.3423,27.0015 263.9731,26.4204 Z " fill="#000000"/><text fill="#000000" font-family="sans-serif" font-size="14" lengthAdjust="spacing" textLength="126" x="275.5" y="28.291">EducationPlatform</text><line style="stroke:#181818;stroke-width:0.5;" x1="247.5" x2="403.5" y1="39" y2="39"/><line style="stroke:#181818;stroke-width:0.5;" x1="247.5" x2="403.5" y1="47" y2="47"/></g><!--class Teacher--><g id="elem_Teacher"><rect fill="#F1F1F1" height="48" id="Teacher" rx="2.5" ry="2.5" style="stroke:#181818;stroke-width:0.5;" width="87" x="7" y="132"/><ellipse cx="22" cy="148" fill="#ADD1B2" rx="11" ry="11" style="stroke:#181818;stroke-width:1.0;"/><path d="M24.4731,154.1431 Q23.8921,154.4419 23.2529,154.5913 Q22.6138,154.7407 21.9082,154.7407 Q19.4014,154.7407 18.0815,153.0889 Q16.7617,151.437 16.7617,148.3159 Q16.7617,145.1865 18.0815,143.5347 Q19.4014,141.8828 21.9082,141.8828 Q22.6138,141.8828 23.2612,142.0322 Q23.9087,142.1816 24.4731,142.4805 L24.4731,145.2031 Q23.8423,144.6221 23.2488,144.3523 Q22.6553,144.0825 22.0244,144.0825 Q20.6797,144.0825 19.9949,145.1492 Q19.3101,146.2158 19.3101,148.3159 Q19.3101,150.4077 19.9949,151.4744 Q20.6797,152.541 22.0244,152.541 Q22.6553,152.541 23.2488,152.2712 Q23.8423,152.0015 24.4731,151.4204 Z " fill="#000000"/><text fill="#000000" font-family="sans-serif" font-size="14" lengthAdjust="spacing" textLength="55" x="36" y="153.291">Teacher</text><line style="stroke:#181818;stroke-width:0.5;" x1="8" x2="93" y1="164" y2="164"/><line style="stroke:#181818;stroke-width:0.5;" x1="8" x2="93" y1="172" y2="172"/></g><!--class Student--><g id="elem_Student"><rect fill="#F1F1F1" height="48" id="Student" rx="2.5" ry="2.5" style="stroke:#181818;stroke-width:0.5;" width="85" x="129" y="132"/><ellipse cx="144" cy="148" fill="#ADD1B2" rx="11" ry="11" style="stroke:#181818;stroke-width:1.0;"/><path d="M146.4731,154.1431 Q145.8921,154.4419 145.2529,154.5913 Q144.6138,154.7407 143.9082,154.7407 Q141.4014,154.7407 140.0815,153.0889 Q138.7617,151.437 138.7617,148.3159 Q138.7617,145.1865 140.0815,143.5347 Q141.4014,141.8828 143.9082,141.8828 Q144.6138,141.8828 145.2612,142.0322 Q145.9087,142.1816 146.4731,142.4805 L146.4731,145.2031 Q145.8423,144.6221 145.2488,144.3523 Q144.6553,144.0825 144.0244,144.0825 Q142.6797,144.0825 141.9949,145.1492 Q141.3101,146.2158 141.3101,148.3159 Q141.3101,150.4077 141.9949,151.4744 Q142.6797,152.541 144.0244,152.541 Q144.6553,152.541 145.2488,152.2712 Q145.8423,152.0015 146.4731,151.4204 Z " fill="#000000"/><text fill="#000000" font-family="sans-serif" font-size="14" lengthAdjust="spacing" textLength="53" x="158" y="153.291">Student</text><line style="stroke:#181818;stroke-width:0.5;" x1="130" x2="213" y1="164" y2="164"/><line style="stroke:#181818;stroke-width:0.5;" x1="130" x2="213" y1="172" y2="172"/></g><!--class Topic--><g id="elem_Topic"><rect codeLine="60" fill="#F1F1F1" height="48" id="Topic" rx="2.5" ry="2.5" style="stroke:#181818;stroke-width:0.5;" width="70" x="224.5" y="257.49"/><ellipse cx="239.5" cy="273.49" fill="#A9DCDF" rx="11" ry="11" style="stroke:#181818;stroke-width:1.0;"/><path d="M239.6133,269.0881 L238.4595,274.1599 L240.7754,274.1599 Z M238.1191,266.8469 L241.1157,266.8469 L244.4609,279.24 L242.0122,279.24 L241.2485,276.177 L237.9697,276.177 L237.2227,279.24 L234.7739,279.24 Z " fill="#000000"/><text fill="#000000" font-family="sans-serif" font-size="14" font-style="italic" lengthAdjust="spacing" textLength="38" x="253.5" y="278.781">Topic</text><line style="stroke:#181818;stroke-width:0.5;" x1="225.5" x2="293.5" y1="289.49" y2="289.49"/><line style="stroke:#181818;stroke-width:0.5;" x1="225.5" x2="293.5" y1="297.49" y2="297.49"/></g><!--class Itinerary--><g id="elem_Itinerary"><rect codeLine="56" fill="#F1F1F1" height="48" id="Itinerary" rx="2.5" ry="2.5" style="stroke:#181818;stroke-width:0.5;" width="89" x="320" y="132"/><ellipse cx="335" cy="148" fill="#ADD1B2" rx="11" ry="11" style="stroke:#181818;stroke-width:1.0;"/><path d="M337.4731,154.1431 Q336.8921,154.4419 336.2529,154.5913 Q335.6138,154.7407 334.9082,154.7407 Q332.4014,154.7407 331.0815,153.0889 Q329.7617,151.437 329.7617,148.3159 Q329.7617,145.1865 331.0815,143.5347 Q332.4014,141.8828 334.9082,141.8828 Q335.6138,141.8828 336.2612,142.0322 Q336.9087,142.1816 337.4731,142.4805 L337.4731,145.2031 Q336.8423,144.6221 336.2488,144.3523 Q335.6553,144.0825 335.0244,144.0825 Q333.6797,144.0825 332.9949,145.1492 Q332.3101,146.2158 332.3101,148.3159 Q332.3101,150.4077 332.9949,151.4744 Q333.6797,152.541 335.0244,152.541 Q335.6553,152.541 336.2488,152.2712 Q336.8423,152.0015 337.4731,151.4204 Z " fill="#000000"/><text fill="#000000" font-family="sans-serif" font-size="14" lengthAdjust="spacing" textLength="57" x="349" y="153.291">Itinerary</text><line style="stroke:#181818;stroke-width:0.5;" x1="321" x2="408" y1="164" y2="164"/><line style="stroke:#181818;stroke-width:0.5;" x1="321" x2="408" y1="172" y2="172"/></g><!--class Evaluator--><g id="elem_Evaluator"><rect codeLine="86" fill="#F1F1F1" height="48" id="Evaluator" rx="2.5" ry="2.5" style="stroke:#181818;stroke-width:0.5;" width="96" x="667.5" y="257.49"/><ellipse cx="682.5" cy="273.49" fill="#ADD1B2" rx="11" ry="11" style="stroke:#181818;stroke-width:1.0;"/><path d="M684.9731,279.6331 Q684.3921,279.9319 683.7529,280.0813 Q683.1138,280.2307 682.4082,280.2307 Q679.9014,280.2307 678.5815,278.5789 Q677.2617,276.927 677.2617,273.8059 Q677.2617,270.6765 678.5815,269.0247 Q679.9014,267.3728 682.4082,267.3728 Q683.1138,267.3728 683.7612,267.5222 Q684.4087,267.6716 684.9731,267.9705 L684.9731,270.6931 Q684.3423,270.1121 683.7488,269.8423 Q683.1553,269.5725 682.5244,269.5725 Q681.1797,269.5725 680.4949,270.6392 Q679.8101,271.7058 679.8101,273.8059 Q679.8101,275.8977 680.4949,276.9644 Q681.1797,278.031 682.5244,278.031 Q683.1553,278.031 683.7488,277.7612 Q684.3423,277.4915 684.9731,276.9104 Z " fill="#000000"/><text fill="#000000" font-family="sans-serif" font-size="14" lengthAdjust="spacing" textLength="64" x="696.5" y="278.781">Evaluator</text><line style="stroke:#181818;stroke-width:0.5;" x1="668.5" x2="762.5" y1="289.49" y2="289.49"/><line style="stroke:#181818;stroke-width:0.5;" x1="668.5" x2="762.5" y1="297.49" y2="297.49"/></g><!--class Domain--><g id="elem_Domain"><rect codeLine="11" fill="#F1F1F1" height="80.9766" id="Domain" rx="2.5" ry="2.5" style="stroke:#181818;stroke-width:0.5;" width="237" x="394" y="241"/><ellipse cx="481.75" cy="257" fill="#ADD1B2" rx="11" ry="11" style="stroke:#181818;stroke-width:1.0;"/><path d="M484.2231,263.1431 Q483.6421,263.4419 483.0029,263.5913 Q482.3638,263.7407 481.6582,263.7407 Q479.1514,263.7407 477.8315,262.0889 Q476.5117,260.437 476.5117,257.3159 Q476.5117,254.1865 477.8315,252.5347 Q479.1514,250.8828 481.6582,250.8828 Q482.3638,250.8828 483.0112,251.0322 Q483.6587,251.1816 484.2231,251.4805 L484.2231,254.2031 Q483.5923,253.6221 482.9988,253.3523 Q482.4053,253.0825 481.7744,253.0825 Q480.4297,253.0825 479.7449,254.1492 Q479.0601,255.2158 479.0601,257.3159 Q479.0601,259.4077 479.7449,260.4744 Q480.4297,261.541 481.7744,261.541 Q482.4053,261.541 482.9988,261.2712 Q483.5923,261.0015 484.2231,260.4204 Z " fill="#000000"/><text fill="#000000" font-family="sans-serif" font-size="14" lengthAdjust="spacing" textLength="53" x="502.25" y="262.291">Domain</text><line style="stroke:#181818;stroke-width:0.5;" x1="395" x2="630" y1="273" y2="273"/><rect fill="none" height="6" style="stroke:#C82930;stroke-width:1.0;" width="6" x="402" y="283.7441"/><text fill="#000000" font-family="sans-serif" font-size="14" lengthAdjust="spacing" textLength="38" x="414" y="290.5352">name</text><rect fill="none" height="6" style="stroke:#C82930;stroke-width:1.0;" width="6" x="402" y="300.2324"/><text fill="#000000" font-family="sans-serif" font-size="14" lengthAdjust="spacing" textLength="211" x="414" y="307.0234">category [game,manager,misc]</text><line style="stroke:#181818;stroke-width:0.5;" x1="395" x2="630" y1="313.9766" y2="313.9766"/></g><!--class Application--><g id="elem_Application"><rect codeLine="18" fill="#F1F1F1" height="80.9766" id="Application" rx="2.5" ry="2.5" style="stroke:#181818;stroke-width:0.5;" width="118" x="514.5" y="382.98"/><ellipse cx="533.1" cy="398.98" fill="#ADD1B2" rx="11" ry="11" style="stroke:#181818;stroke-width:1.0;"/><path d="M535.5731,405.1231 Q534.9921,405.4219 534.3529,405.5713 Q533.7138,405.7207 533.0082,405.7207 Q530.5014,405.7207 529.1815,404.0689 Q527.8617,402.417 527.8617,399.2959 Q527.8617,396.1665 529.1815,394.5147 Q530.5014,392.8628 533.0082,392.8628 Q533.7138,392.8628 534.3612,393.0122 Q535.0087,393.1616 535.5731,393.4605 L535.5731,396.1831 Q534.9423,395.6021 534.3488,395.3323 Q533.7553,395.0625 533.1244,395.0625 Q531.7797,395.0625 531.0949,396.1292 Q530.4101,397.1958 530.4101,399.2959 Q530.4101,401.3877 531.0949,402.4544 Q531.7797,403.521 533.1244,403.521 Q533.7553,403.521 534.3488,403.2512 Q534.9423,402.9815 535.5731,402.4004 Z " fill="#000000"/><text fill="#000000" font-family="sans-serif" font-size="14" lengthAdjust="spacing" textLength="78" x="547.9" y="404.271">Application</text><line style="stroke:#181818;stroke-width:0.5;" x1="515.5" x2="631.5" y1="414.98" y2="414.98"/><rect fill="none" height="6" style="stroke:#C82930;stroke-width:1.0;" width="6" x="522.5" y="425.7241"/><text fill="#000000" font-family="sans-serif" font-size="14" lengthAdjust="spacing" textLength="50" x="534.5" y="432.5152">version</text><rect fill="none" height="6" style="stroke:#C82930;stroke-width:1.0;" width="6" x="522.5" y="442.2124"/><text fill="#000000" font-family="sans-serif" font-size="14" lengthAdjust="spacing" textLength="92" x="534.5" y="449.0034">requirements</text><line style="stroke:#181818;stroke-width:0.5;" x1="515.5" x2="631.5" y1="455.9566" y2="455.9566"/></g><!--class CompositeTopic--><g id="elem_CompositeTopic"><rect codeLine="70" fill="#F1F1F1" height="48" id="CompositeTopic" rx="2.5" ry="2.5" style="stroke:#181818;stroke-width:0.5;" width="144" x="184.5" y="399.46"/><ellipse cx="199.5" cy="415.46" fill="#ADD1B2" rx="11" ry="11" style="stroke:#181818;stroke-width:1.0;"/><path d="M201.9731,421.6031 Q201.3921,421.9019 200.7529,422.0513 Q200.1138,422.2007 199.4082,422.2007 Q196.9014,422.2007 195.5815,420.5489 Q194.2617,418.897 194.2617,415.7759 Q194.2617,412.6465 195.5815,410.9947 Q196.9014,409.3428 199.4082,409.3428 Q200.1138,409.3428 200.7612,409.4922 Q201.4087,409.6416 201.9731,409.9405 L201.9731,412.6631 Q201.3423,412.0821 200.7488,411.8123 Q200.1553,411.5425 199.5244,411.5425 Q198.1797,411.5425 197.4949,412.6092 Q196.8101,413.6758 196.8101,415.7759 Q196.8101,417.8677 197.4949,418.9344 Q198.1797,420.001 199.5244,420.001 Q200.1553,420.001 200.7488,419.7312 Q201.3423,419.4615 201.9731,418.8804 Z " fill="#000000"/><text fill="#000000" font-family="sans-serif" font-size="14" lengthAdjust="spacing" textLength="112" x="213.5" y="420.751">CompositeTopic</text><line style="stroke:#181818;stroke-width:0.5;" x1="185.5" x2="327.5" y1="431.46" y2="431.46"/><line style="stroke:#181818;stroke-width:0.5;" x1="185.5" x2="327.5" y1="439.46" y2="439.46"/></g><!--class SimpleTopic--><g id="elem_SimpleTopic"><rect codeLine="66" fill="#F1F1F1" height="48" id="SimpleTopic" rx="2.5" ry="2.5" style="stroke:#181818;stroke-width:0.5;" width="116" x="363.5" y="399.46"/><ellipse cx="378.5" cy="415.46" fill="#ADD1B2" rx="11" ry="11" style="stroke:#181818;stroke-width:1.0;"/><path d="M380.9731,421.6031 Q380.3921,421.9019 379.7529,422.0513 Q379.1138,422.2007 378.4082,422.2007 Q375.9014,422.2007 374.5815,420.5489 Q373.2617,418.897 373.2617,415.7759 Q373.2617,412.6465 374.5815,410.9947 Q375.9014,409.3428 378.4082,409.3428 Q379.1138,409.3428 379.7612,409.4922 Q380.4087,409.6416 380.9731,409.9405 L380.9731,412.6631 Q380.3423,412.0821 379.7488,411.8123 Q379.1553,411.5425 378.5244,411.5425 Q377.1797,411.5425 376.4949,412.6092 Q375.8101,413.6758 375.8101,415.7759 Q375.8101,417.8677 376.4949,418.9344 Q377.1797,420.001 378.5244,420.001 Q379.1553,420.001 379.7488,419.7312 Q380.3423,419.4615 380.9731,418.8804 Z " fill="#000000"/><text fill="#000000" font-family="sans-serif" font-size="14" lengthAdjust="spacing" textLength="84" x="392.5" y="420.751">SimpleTopic</text><line style="stroke:#181818;stroke-width:0.5;" x1="364.5" x2="478.5" y1="431.46" y2="431.46"/><line style="stroke:#181818;stroke-width:0.5;" x1="364.5" x2="478.5" y1="439.46" y2="439.46"/></g><!--class Attachment--><g id="elem_Attachment"><rect codeLine="74" fill="#F1F1F1" height="48" id="Attachment" rx="2.5" ry="2.5" style="stroke:#181818;stroke-width:0.5;" width="111" x="34" y="399.46"/><ellipse cx="49" cy="415.46" fill="#ADD1B2" rx="11" ry="11" style="stroke:#181818;stroke-width:1.0;"/><path d="M51.4731,421.6031 Q50.8921,421.9019 50.2529,422.0513 Q49.6138,422.2007 48.9082,422.2007 Q46.4014,422.2007 45.0815,420.5489 Q43.7617,418.897 43.7617,415.7759 Q43.7617,412.6465 45.0815,410.9947 Q46.4014,409.3428 48.9082,409.3428 Q49.6138,409.3428 50.2612,409.4922 Q50.9087,409.6416 51.4731,409.9405 L51.4731,412.6631 Q50.8423,412.0821 50.2488,411.8123 Q49.6553,411.5425 49.0244,411.5425 Q47.6797,411.5425 46.9949,412.6092 Q46.3101,413.6758 46.3101,415.7759 Q46.3101,417.8677 46.9949,418.9344 Q47.6797,420.001 49.0244,420.001 Q49.6553,420.001 50.2488,419.7312 Q50.8423,419.4615 51.4731,418.8804 Z " fill="#000000"/><text fill="#000000" font-family="sans-serif" font-size="14" lengthAdjust="spacing" textLength="79" x="63" y="420.751">Attachment</text><line style="stroke:#181818;stroke-width:0.5;" x1="35" x2="144" y1="431.46" y2="431.46"/><line style="stroke:#181818;stroke-width:0.5;" x1="35" x2="144" y1="439.46" y2="439.46"/></g><!--class Podcast--><g id="elem_Podcast"><rect fill="#F1F1F1" height="48" id="Podcast" rx="2.5" ry="2.5" style="stroke:#181818;stroke-width:0.5;" width="85" x="45" y="557.93"/><ellipse cx="60" cy="573.93" fill="#ADD1B2" rx="11" ry="11" style="stroke:#181818;stroke-width:1.0;"/><path d="M62.4731,580.0731 Q61.8921,580.3719 61.2529,580.5213 Q60.6138,580.6707 59.9082,580.6707 Q57.4014,580.6707 56.0815,579.0189 Q54.7617,577.367 54.7617,574.2459 Q54.7617,571.1165 56.0815,569.4647 Q57.4014,567.8128 59.9082,567.8128 Q60.6138,567.8128 61.2612,567.9622 Q61.9087,568.1116 62.4731,568.4105 L62.4731,571.1331 Q61.8423,570.5521 61.2488,570.2823 Q60.6553,570.0125 60.0244,570.0125 Q58.6797,570.0125 57.9949,571.0792 Q57.3101,572.1458 57.3101,574.2459 Q57.3101,576.3377 57.9949,577.4044 Q58.6797,578.471 60.0244,578.471 Q60.6553,578.471 61.2488,578.2012 Q61.8423,577.9315 62.4731,577.3504 Z " fill="#000000"/><text fill="#000000" font-family="sans-serif" font-size="14" lengthAdjust="spacing" textLength="53" x="74" y="579.221">Podcast</text><line style="stroke:#181818;stroke-width:0.5;" x1="46" x2="129" y1="589.93" y2="589.93"/><line style="stroke:#181818;stroke-width:0.5;" x1="46" x2="129" y1="597.93" y2="597.93"/></g><!--class Video--><g id="elem_Video"><rect fill="#F1F1F1" height="48" id="Video" rx="2.5" ry="2.5" style="stroke:#181818;stroke-width:0.5;" width="71" x="165" y="557.93"/><ellipse cx="180" cy="573.93" fill="#ADD1B2" rx="11" ry="11" style="stroke:#181818;stroke-width:1.0;"/><path d="M182.4731,580.0731 Q181.8921,580.3719 181.2529,580.5213 Q180.6138,580.6707 179.9082,580.6707 Q177.4014,580.6707 176.0815,579.0189 Q174.7617,577.367 174.7617,574.2459 Q174.7617,571.1165 176.0815,569.4647 Q177.4014,567.8128 179.9082,567.8128 Q180.6138,567.8128 181.2612,567.9622 Q181.9087,568.1116 182.4731,568.4105 L182.4731,571.1331 Q181.8423,570.5521 181.2488,570.2823 Q180.6553,570.0125 180.0244,570.0125 Q178.6797,570.0125 177.9949,571.0792 Q177.3101,572.1458 177.3101,574.2459 Q177.3101,576.3377 177.9949,577.4044 Q178.6797,578.471 180.0244,578.471 Q180.6553,578.471 181.2488,578.2012 Q181.8423,577.9315 182.4731,577.3504 Z " fill="#000000"/><text fill="#000000" font-family="sans-serif" font-size="14" lengthAdjust="spacing" textLength="39" x="194" y="579.221">Video</text><line style="stroke:#181818;stroke-width:0.5;" x1="166" x2="235" y1="589.93" y2="589.93"/><line style="stroke:#181818;stroke-width:0.5;" x1="166" x2="235" y1="597.93" y2="597.93"/></g><!--class Text--><g id="elem_Text"><rect codeLine="82" fill="#F1F1F1" height="64.4883" id="Text" rx="2.5" ry="2.5" style="stroke:#181818;stroke-width:0.5;" width="75" x="50" y="740.64"/><ellipse cx="70.4" cy="756.64" fill="#ADD1B2" rx="11" ry="11" style="stroke:#181818;stroke-width:1.0;"/><path d="M72.8731,762.7831 Q72.2921,763.0819 71.6529,763.2313 Q71.0138,763.3807 70.3082,763.3807 Q67.8014,763.3807 66.4815,761.7289 Q65.1617,760.077 65.1617,756.9559 Q65.1617,753.8265 66.4815,752.1747 Q67.8014,750.5228 70.3082,750.5228 Q71.0138,750.5228 71.6612,750.6722 Q72.3087,750.8216 72.8731,751.1205 L72.8731,753.8431 Q72.2423,753.2621 71.6488,752.9923 Q71.0553,752.7225 70.4244,752.7225 Q69.0797,752.7225 68.3949,753.7892 Q67.7101,754.8558 67.7101,756.9559 Q67.7101,759.0477 68.3949,760.1144 Q69.0797,761.181 70.4244,761.181 Q71.0553,761.181 71.6488,760.9112 Q72.2423,760.6415 72.8731,760.0604 Z " fill="#000000"/><text fill="#000000" font-family="sans-serif" font-size="14" lengthAdjust="spacing" textLength="31" x="85.6" y="761.931">Text</text><line style="stroke:#181818;stroke-width:0.5;" x1="51" x2="124" y1="772.64" y2="772.64"/><rect fill="none" height="6" style="stroke:#C82930;stroke-width:1.0;" width="6" x="58" y="783.3841"/><text fill="#000000" font-family="sans-serif" font-size="14" lengthAdjust="spacing" textLength="49" x="70" y="790.1752">images</text><line style="stroke:#181818;stroke-width:0.5;" x1="51" x2="124" y1="797.1283" y2="797.1283"/></g><!--class Question--><g id="elem_Question"><rect codeLine="90" fill="#F1F1F1" height="48" id="Question" rx="2.5" ry="2.5" style="stroke:#181818;stroke-width:0.5;" width="94" x="669.5" y="399.46"/><ellipse cx="684.5" cy="415.46" fill="#ADD1B2" rx="11" ry="11" style="stroke:#181818;stroke-width:1.0;"/><path d="M686.9731,421.6031 Q686.3921,421.9019 685.7529,422.0513 Q685.1138,422.2007 684.4082,422.2007 Q681.9014,422.2007 680.5815,420.5489 Q679.2617,418.897 679.2617,415.7759 Q679.2617,412.6465 680.5815,410.9947 Q681.9014,409.3428 684.4082,409.3428 Q685.1138,409.3428 685.7612,409.4922 Q686.4087,409.6416 686.9731,409.9405 L686.9731,412.6631 Q686.3423,412.0821 685.7488,411.8123 Q685.1553,411.5425 684.5244,411.5425 Q683.1797,411.5425 682.4949,412.6092 Q681.8101,413.6758 681.8101,415.7759 Q681.8101,417.8677 682.4949,418.9344 Q683.1797,420.001 684.5244,420.001 Q685.1553,420.001 685.7488,419.7312 Q686.3423,419.4615 686.9731,418.8804 Z " fill="#000000"/><text fill="#000000" font-family="sans-serif" font-size="14" lengthAdjust="spacing" textLength="62" x="698.5" y="420.751">Question</text><line style="stroke:#181818;stroke-width:0.5;" x1="670.5" x2="762.5" y1="431.46" y2="431.46"/><line style="stroke:#181818;stroke-width:0.5;" x1="670.5" x2="762.5" y1="439.46" y2="439.46"/></g><!--class Answer--><g id="elem_Answer"><rect codeLine="116" fill="#F1F1F1" height="113.9531" id="Answer" rx="2.5" ry="2.5" style="stroke:#181818;stroke-width:0.5;" width="160" x="636.5" y="524.95"/><ellipse cx="686.75" cy="540.95" fill="#ADD1B2" rx="11" ry="11" style="stroke:#181818;stroke-width:1.0;"/><path d="M689.2231,547.0931 Q688.6421,547.3919 688.0029,547.5413 Q687.3638,547.6907 686.6582,547.6907 Q684.1514,547.6907 682.8315,546.0389 Q681.5117,544.387 681.5117,541.2659 Q681.5117,538.1365 682.8315,536.4847 Q684.1514,534.8328 686.6582,534.8328 Q687.3638,534.8328 688.0112,534.9822 Q688.6587,535.1316 689.2231,535.4305 L689.2231,538.1531 Q688.5923,537.5721 687.9988,537.3023 Q687.4053,537.0325 686.7744,537.0325 Q685.4297,537.0325 684.7449,538.0992 Q684.0601,539.1658 684.0601,541.2659 Q684.0601,543.3577 684.7449,544.4244 Q685.4297,545.491 686.7744,545.491 Q687.4053,545.491 687.9988,545.2212 Q688.5923,544.9515 689.2231,544.3704 Z " fill="#000000"/><text fill="#000000" font-family="sans-serif" font-size="14" lengthAdjust="spacing" textLength="51" x="707.25" y="546.241">Answer</text><line style="stroke:#181818;stroke-width:0.5;" x1="637.5" x2="795.5" y1="556.95" y2="556.95"/><rect fill="none" height="6" style="stroke:#C82930;stroke-width:1.0;" width="6" x="644.5" y="567.6941"/><text fill="#000000" font-family="sans-serif" font-size="14" lengthAdjust="spacing" textLength="116" x="656.5" y="574.4852">correct : boolean</text><rect fill="none" height="6" style="stroke:#C82930;stroke-width:1.0;" width="6" x="644.5" y="584.1824"/><text fill="#000000" font-family="sans-serif" font-size="14" lengthAdjust="spacing" textLength="134" x="656.5" y="590.9734">evaluated : boolean</text><rect fill="none" height="6" style="stroke:#C82930;stroke-width:1.0;" width="6" x="644.5" y="600.6707"/><text fill="#000000" font-family="sans-serif" font-size="14" lengthAdjust="spacing" textLength="106" x="656.5" y="607.4617">author: student</text><rect fill="none" height="6" style="stroke:#C82930;stroke-width:1.0;" width="6" x="644.5" y="617.159"/><text fill="#000000" font-family="sans-serif" font-size="14" lengthAdjust="spacing" textLength="52" x="656.5" y="623.95">content</text><line style="stroke:#181818;stroke-width:0.5;" x1="637.5" x2="795.5" y1="630.9031" y2="630.9031"/></g><!--class Statement--><g id="elem_Statement"><rect fill="#F1F1F1" height="48" id="Statement" rx="2.5" ry="2.5" style="stroke:#181818;stroke-width:0.5;" width="101" x="832" y="557.93"/><ellipse cx="847" cy="573.93" fill="#ADD1B2" rx="11" ry="11" style="stroke:#181818;stroke-width:1.0;"/><path d="M849.4731,580.0731 Q848.8921,580.3719 848.2529,580.5213 Q847.6138,580.6707 846.9082,580.6707 Q844.4014,580.6707 843.0815,579.0189 Q841.7617,577.367 841.7617,574.2459 Q841.7617,571.1165 843.0815,569.4647 Q844.4014,567.8128 846.9082,567.8128 Q847.6138,567.8128 848.2612,567.9622 Q848.9087,568.1116 849.4731,568.4105 L849.4731,571.1331 Q848.8423,570.5521 848.2488,570.2823 Q847.6553,570.0125 847.0244,570.0125 Q845.6797,570.0125 844.9949,571.0792 Q844.3101,572.1458 844.3101,574.2459 Q844.3101,576.3377 844.9949,577.4044 Q845.6797,578.471 847.0244,578.471 Q847.6553,578.471 848.2488,578.2012 Q848.8423,577.9315 849.4731,577.3504 Z " fill="#000000"/><text fill="#000000" font-family="sans-serif" font-size="14" lengthAdjust="spacing" textLength="69" x="861" y="579.221">Statement</text><line style="stroke:#181818;stroke-width:0.5;" x1="833" x2="932" y1="589.93" y2="589.93"/><line style="stroke:#181818;stroke-width:0.5;" x1="833" x2="932" y1="597.93" y2="597.93"/></g><!--class QuestionType--><g id="elem_QuestionType"><rect codeLine="99" fill="#F1F1F1" height="97.4648" id="QuestionType" rx="2.5" ry="2.5" style="stroke:#181818;stroke-width:0.5;" width="189" x="968" y="533.2"/><ellipse cx="1010.9" cy="549.2" fill="#EB937F" rx="11" ry="11" style="stroke:#181818;stroke-width:1.0;"/><path d="M1014.5143,555.7 L1006.7945,555.7 L1006.7945,543.3069 L1014.5143,543.3069 L1014.5143,545.4651 L1009.2433,545.4651 L1009.2433,548.138 L1014.0162,548.138 L1014.0162,550.2962 L1009.2433,550.2962 L1009.2433,553.5418 L1014.5143,553.5418 Z " fill="#000000"/><text fill="#000000" font-family="sans-serif" font-size="14" lengthAdjust="spacing" textLength="95" x="1031.1" y="554.491">QuestionType</text><line style="stroke:#181818;stroke-width:0.5;" x1="969" x2="1156" y1="565.2" y2="565.2"/><text fill="#000000" font-family="sans-serif" font-size="14" lengthAdjust="spacing" textLength="37" x="974" y="582.7352">Open</text><text fill="#000000" font-family="sans-serif" font-size="14" lengthAdjust="spacing" textLength="102" x="974" y="599.2234">MultipleChoice</text><text fill="#000000" font-family="sans-serif" font-size="14" lengthAdjust="spacing" textLength="177" x="974" y="615.7117">ApplicationCodeCompare</text><line style="stroke:#181818;stroke-width:0.5;" x1="969" x2="1156" y1="622.6648" y2="622.6648"/></g><!--class StatementType--><g id="elem_StatementType"><rect codeLine="104" fill="#F1F1F1" height="113.9531" id="StatementType" rx="2.5" ry="2.5" style="stroke:#181818;stroke-width:0.5;" width="134" x="815.5" y="715.91"/><ellipse cx="830.5" cy="731.91" fill="#EB937F" rx="11" ry="11" style="stroke:#181818;stroke-width:1.0;"/><path d="M834.1143,738.41 L826.3945,738.41 L826.3945,726.0169 L834.1143,726.0169 L834.1143,728.1751 L828.8433,728.1751 L828.8433,730.848 L833.6162,730.848 L833.6162,733.0062 L828.8433,733.0062 L828.8433,736.2518 L834.1143,736.2518 Z " fill="#000000"/><text fill="#000000" font-family="sans-serif" font-size="14" lengthAdjust="spacing" textLength="102" x="844.5" y="737.201">StatementType</text><line style="stroke:#181818;stroke-width:0.5;" x1="816.5" x2="948.5" y1="747.91" y2="747.91"/><text fill="#000000" font-family="sans-serif" font-size="14" lengthAdjust="spacing" textLength="68" x="821.5" y="765.4452">ClozeTest</text><text fill="#000000" font-family="sans-serif" font-size="14" lengthAdjust="spacing" textLength="67" x="821.5" y="781.9334">Definition</text><text fill="#000000" font-family="sans-serif" font-size="14" lengthAdjust="spacing" textLength="56" x="821.5" y="798.4217">Relation</text><text fill="#000000" font-family="sans-serif" font-size="14" lengthAdjust="spacing" textLength="41" x="821.5" y="814.91">Justify</text><line style="stroke:#181818;stroke-width:0.5;" x1="816.5" x2="948.5" y1="821.8631" y2="821.8631"/></g><!--link EducationPlatform to Teacher--><g id="link_EducationPlatform_Teacher"><path codeLine="4" d="M262.1755,60.3189 C210.2755,83.5289 148.1468,111.3196 99.5568,133.0596 " fill="none" id="EducationPlatform-Teacher" style="stroke:#181818;stroke-width:1.0;"/><polygon fill="#181818" points="273.13,55.42,266.0198,54.218,262.1755,60.3189,269.2857,61.5209,273.13,55.42" style="stroke:#181818;stroke-width:1.0;"/><polygon fill="#181818" points="94.08,135.51,103.9288,135.4856,98.644,133.468,100.6616,128.1832,94.08,135.51" style="stroke:#181818;stroke-width:1.0;"/><text fill="#000000" font-family="sans-serif" font-size="13" lengthAdjust="spacing" textLength="10" x="102.1261" y="128.4682">+</text></g><!--link EducationPlatform to Student--><g id="link_EducationPlatform_Student"><path codeLine="5" d="M274.2979,61.6155 C260.1979,70.2855 254.84,74.34 241.5,85 C223.78,99.16 209.8159,112.9455 196.4759,127.2255 " fill="none" id="EducationPlatform-Student" style="stroke:#181818;stroke-width:1.0;"/><polygon fill="#181818" points="284.52,55.33,277.3138,55.0654,274.2979,61.6155,281.5041,61.8801,284.52,55.33" style="stroke:#181818;stroke-width:1.0;"/><polygon fill="#181818" points="192.38,131.61,201.4468,127.7638,195.7932,127.9563,195.6008,122.3027,192.38,131.61" style="stroke:#181818;stroke-width:1.0;"/><text fill="#000000" font-family="sans-serif" font-size="13" lengthAdjust="spacing" textLength="10" x="186.2507" y="121.443">+</text></g><!--link EducationPlatform to Topic--><g id="link_EducationPlatform_Topic"><path codeLine="6" d="M312.3946,66.5649 C309.0246,75.7449 309.44,75.16 306.5,85 C288.18,146.38 273.1956,214.3265 265.4956,251.2265 " fill="none" id="EducationPlatform-Topic" style="stroke:#181818;stroke-width:1.0;"/><polygon fill="#181818" points="316.53,55.3,310.7073,59.554,312.3946,66.5649,318.2173,62.3109,316.53,55.3" style="stroke:#181818;stroke-width:1.0;"/><polygon fill="#181818" points="264.27,257.1,270.0241,249.1069,265.2914,252.2054,262.1928,247.4727,264.27,257.1" style="stroke:#181818;stroke-width:1.0;"/></g><!--link EducationPlatform to Itinerary--><g id="link_EducationPlatform_Itinerary"><path codeLine="7" d="M363.155,63.7756 C371.495,72.1556 371.06,73.83 375.5,85 C381.4,99.86 380.2561,111.9489 375.9361,125.8889 " fill="none" id="EducationPlatform-Itinerary" style="stroke:#181818;stroke-width:1.0;"/><polygon fill="#181818" points="354.69,55.27,356.0873,62.3444,363.155,63.7756,361.7577,56.7011,354.69,55.27" style="stroke:#181818;stroke-width:1.0;"/><polygon fill="#181818" points="374.16,131.62,380.6448,124.2074,375.6401,126.8441,373.0034,121.8393,374.16,131.62" style="stroke:#181818;stroke-width:1.0;"/><text fill="#000000" font-family="sans-serif" font-size="13" lengthAdjust="spacing" textLength="67" x="379.5" y="98.5684">predefined</text></g><!--link EducationPlatform to Itinerary--><g id="link_EducationPlatform_Itinerary"><path codeLine="8" d="M315.3572,67.064 C312.1472,81.004 312.95,87.13 318.5,102 C322.59,112.96 326.0214,118.731 333.7914,127.191 " fill="none" id="EducationPlatform-Itinerary-1" style="stroke:#181818;stroke-width:1.0;"/><polygon fill="none" points="318.05,55.37,312.8056,60.3194,315.3572,67.064,320.6016,62.1146,318.05,55.37" style="stroke:#181818;stroke-width:1.0;"/><polygon fill="#181818" points="337.85,131.61,334.7081,122.2757,334.4678,127.9275,328.8161,127.6872,337.85,131.61" style="stroke:#181818;stroke-width:1.0;"/><text fill="#000000" font-family="sans-serif" font-size="13" lengthAdjust="spacing" textLength="47" x="319.5" y="98.5684">custom</text><text fill="#000000" font-family="sans-serif" font-size="13" lengthAdjust="spacing" textLength="6" x="324.6228" y="121.443">*</text></g><!--link EducationPlatform to Evaluator--><g id="link_EducationPlatform_Evaluator"><path codeLine="9" d="M416.2267,54.645 C443.4367,62.955 461.97,70.63 487.5,85 C573.39,133.32 652.6347,212.465 690.3747,252.875 " fill="none" id="EducationPlatform-Evaluator" style="stroke:#181818;stroke-width:1.0;"/><polygon fill="none" points="404.75,51.14,409.32,56.7181,416.2267,54.645,411.6567,49.0669,404.75,51.14" style="stroke:#181818;stroke-width:1.0;"/><polygon fill="#181818" points="694.47,257.26,691.2504,247.9523,691.0572,253.6058,685.4037,253.4127,694.47,257.26" style="stroke:#181818;stroke-width:1.0;"/></g><!--link Domain to Application--><g id="link_Domain_Application"><path codeLine="15" d="M534.6115,333.2219 C542.8515,352.1419 545.4929,358.1997 553.7429,377.1297 " fill="none" id="Domain-Application" style="stroke:#181818;stroke-width:1.0;"/><polygon fill="none" points="529.82,322.22,528.5485,329.3181,534.6115,333.2219,535.8831,326.1238,529.82,322.22" style="stroke:#181818;stroke-width:1.0;"/><polygon fill="#181818" points="556.14,382.63,556.2112,372.7814,554.1424,378.0464,548.8774,375.9776,556.14,382.63" style="stroke:#181818;stroke-width:1.0;"/><text fill="#000000" font-family="sans-serif" font-size="13" lengthAdjust="spacing" textLength="6" x="546.7679" y="372.218">*</text></g><!--link Concept to Definition--><g id="link_Concept_Definition"><path codeLine="27" d="M429.8496,591.9947 C385.1596,601.2547 330.64,620.32 299.5,668.91 C284.55,692.23 297.3963,715.2128 316.7563,735.8628 " fill="none" id="Concept-Definition" style="stroke:#181818;stroke-width:1.0;"/><polygon fill="none" points="441.6,589.56,434.9132,586.8606,429.8496,591.9947,436.5364,594.6942,441.6,589.56" style="stroke:#181818;stroke-width:1.0;"/><polygon fill="#181818" points="320.86,740.24,317.6225,730.9385,317.4402,736.5924,311.7863,736.4101,320.86,740.24" style="stroke:#181818;stroke-width:1.0;"/><text fill="#000000" font-family="sans-serif" font-size="13" lengthAdjust="spacing" textLength="44" x="300.5" y="682.4784">correct</text><text fill="#000000" font-family="sans-serif" font-size="13" lengthAdjust="spacing" textLength="10" x="302.6621" y="729.9356">+</text></g><!--link Concept to Definition--><g id="link_Concept_Definition"><path codeLine="28" d="M456.2534,615.1861 C441.0034,631.9061 428.89,646.46 413.5,668.91 C397.85,691.73 385.7064,714.005 375.2464,734.895 " fill="none" id="Concept-Definition-1" style="stroke:#181818;stroke-width:1.0;"/><polygon fill="none" points="464.34,606.32,457.3414,608.0575,456.2534,615.1861,463.2521,613.4486,464.34,606.32" style="stroke:#181818;stroke-width:1.0;"/><polygon fill="#181818" points="372.56,740.26,380.1662,734.0034,374.7986,735.7891,373.0129,730.4216,372.56,740.26" style="stroke:#181818;stroke-width:1.0;"/><text fill="#000000" font-family="sans-serif" font-size="13" lengthAdjust="spacing" textLength="56" x="414.5" y="682.4784">incorrect</text><text fill="#000000" font-family="sans-serif" font-size="13" lengthAdjust="spacing" textLength="6" x="368.9343" y="729.9595">*</text></g><!--link Concept to Relation--><g id="link_Concept_Relation"><path codeLine="29" d="M480.2629,618.1477 C477.0929,639.3177 476.33,659.31 483.5,685.91 C489.7,708.91 500.2919,727.1968 511.9219,743.6868 " fill="none" id="Concept-Relation" style="stroke:#181818;stroke-width:1.0;"/><polygon fill="none" points="482.04,606.28,477.1956,611.6215,480.2629,618.1477,485.1074,612.8062,482.04,606.28" style="stroke:#181818;stroke-width:1.0;"/><polygon fill="#181818" points="515.38,748.59,513.4616,738.9298,512.4982,744.504,506.924,743.5406,515.38,748.59" style="stroke:#181818;stroke-width:1.0;"/><text fill="#000000" font-family="sans-serif" font-size="13" lengthAdjust="spacing" textLength="37" x="484.5" y="682.4784">origin</text><text fill="#000000" font-family="sans-serif" font-size="13" lengthAdjust="spacing" textLength="6" x="503.968" y="738.052">*</text></g><!--link Relation to Concept--><g id="link_Relation_Concept"><path codeLine="42" d="M534.428,736.5905 C534.618,715.4705 533.37,695.63 526.5,668.91 C520.76,646.58 512.2144,628.2267 503.0344,611.4067 " fill="none" id="Relation-Concept" style="stroke:#181818;stroke-width:1.0;"/><polygon fill="#181818" points="534.32,748.59,538.3738,742.6262,534.428,736.5905,530.3741,742.5543,534.32,748.59" style="stroke:#181818;stroke-width:1.0;"/><polygon fill="#181818" points="500.16,606.14,500.9605,615.9563,502.5554,610.5289,507.9827,612.1237,500.16,606.14" style="stroke:#181818;stroke-width:1.0;"/><text fill="#000000" font-family="sans-serif" font-size="13" lengthAdjust="spacing" textLength="37" x="530.5" y="682.4784">target</text></g><!--link Definition to Justification--><g id="link_Definition_Justification"><path codeLine="34" d="M357.5,817.57 C357.5,854.36 357.5,896.71 357.5,933.47 " fill="none" id="Definition-Justification" style="stroke:#181818;stroke-width:1.0;"/><polygon fill="none" points="357.5,805.57,353.5,811.57,357.5,817.57,361.5,811.57,357.5,805.57" style="stroke:#181818;stroke-width:1.0;"/><polygon fill="#181818" points="357.5,939.47,361.5,930.47,357.5,934.47,353.5,930.47,357.5,939.47" style="stroke:#181818;stroke-width:1.0;"/><text fill="#000000" font-family="sans-serif" font-size="13" lengthAdjust="spacing" textLength="92" x="358.5" y="873.4284">correct = false</text><text fill="#000000" font-family="sans-serif" font-size="13" lengthAdjust="spacing" textLength="6" x="350.9094" y="929.1715">*</text></g><!--link Relation to RelationType--><g id="link_Relation_RelationType"><path codeLine="43" d="M533.5,809.28 C533.5,836.11 533.5,863.23 533.5,900.78 " fill="none" id="Relation-RelationType" style="stroke:#181818;stroke-width:1.0;"/><polygon fill="#181818" points="533.5,797.28,529.5,803.28,533.5,809.28,537.5,803.28,533.5,797.28" style="stroke:#181818;stroke-width:1.0;"/><polygon fill="#181818" points="533.5,906.78,537.5,897.78,533.5,901.78,529.5,897.78,533.5,906.78" style="stroke:#181818;stroke-width:1.0;"/></g><!--link EducationPlatform to Domain--><g id="link_EducationPlatform_Domain"><path codeLine="53" d="M415.8848,55.9304 C434.6048,63.7404 441.95,69.97 455.5,85 C494.68,128.45 506.4917,191.4533 510.3217,234.7833 " fill="none" id="EducationPlatform-Domain" style="stroke:#181818;stroke-width:1.0;"/><polygon fill="none" points="404.81,51.31,408.8073,57.3118,415.8848,55.9304,411.8876,49.9286,404.81,51.31" style="stroke:#181818;stroke-width:1.0;"/><polygon fill="#181818" points="510.85,240.76,514.042,231.4428,510.4098,235.7794,506.0731,232.1471,510.85,240.76" style="stroke:#181818;stroke-width:1.0;"/><text fill="#000000" font-family="sans-serif" font-size="13" lengthAdjust="spacing" textLength="6" x="504.0798" y="230.3663">*</text></g><!--link Application to Concept--><g id="link_Application_Concept"><path codeLine="54" d="M551.32,464.35 C534.91,493.87 516.0362,527.8164 502.3662,552.3964 " fill="none" id="Application-to-Concept" style="stroke:#181818;stroke-width:1.0;"/><polygon fill="#181818" points="499.45,557.64,507.3201,551.7187,501.8802,553.2703,500.3286,547.8304,499.45,557.64" style="stroke:#181818;stroke-width:1.0;"/><text fill="#000000" font-family="sans-serif" font-size="13" lengthAdjust="spacing" textLength="10" x="491.4872" y="547.102">+</text></g><!--link Itinerary to Topic--><g id="link_Itinerary_Topic"><path codeLine="58" d="M336.9757,189.3711 C318.2057,211.4411 301.7866,230.749 283.0466,252.789 " fill="none" id="Itinerary-Topic" style="stroke:#181818;stroke-width:1.0;"/><polygon fill="none" points="344.75,180.23,337.8158,182.2091,336.9757,189.3711,343.9099,187.392,344.75,180.23" style="stroke:#181818;stroke-width:1.0;"/><polygon fill="#181818" points="279.16,257.36,288.0373,253.0945,282.3988,253.5508,281.9426,247.9124,279.16,257.36" style="stroke:#181818;stroke-width:1.0;"/><text fill="#000000" font-family="sans-serif" font-size="13" lengthAdjust="spacing" textLength="10" x="272.9166" y="246.863">+</text></g><!--reverse link Topic to CompositeTopic--><g id="link_Topic_CompositeTopic"><path codeLine="62" d="M246.1191,323.6561 C241.6191,349.6461 243.82,373.59 247.25,399.42 " fill="none" id="Topic-backto-CompositeTopic" style="stroke:#181818;stroke-width:1.0;stroke-dasharray:7.0,7.0;"/><polygon fill="none" points="249.19,305.92,240.2071,322.6325,252.0311,324.6797,249.19,305.92" style="stroke:#181818;stroke-width:1.0;"/></g><!--link CompositeTopic to Topic--><g id="link_CompositeTopic_Topic"><path codeLine="72" d="M269.4936,387.6203 C274.2736,361.7903 273.8277,337.8526 270.2077,311.8626 " fill="none" id="CompositeTopic-Topic" style="stroke:#181818;stroke-width:1.0;"/><polygon fill="none" points="267.31,399.42,272.335,394.248,269.4936,387.6203,264.4686,392.7923,267.31,399.42" style="stroke:#181818;stroke-width:1.0;"/><polygon fill="#181818" points="269.38,305.92,266.6598,315.3858,270.0698,310.8722,274.5833,314.2821,269.38,305.92" style="stroke:#181818;stroke-width:1.0;"/><text fill="#000000" font-family="sans-serif" font-size="13" lengthAdjust="spacing" textLength="10" x="260.5085" y="325.9081">+</text></g><!--reverse link Topic to SimpleTopic--><g id="link_Topic_SimpleTopic"><path codeLine="63" d="M300.2407,317.6876 C330.2307,343.5976 364.65,373.34 394.57,399.19 " fill="none" id="Topic-backto-SimpleTopic" style="stroke:#181818;stroke-width:1.0;stroke-dasharray:7.0,7.0;"/><polygon fill="none" points="286.62,305.92,296.3181,322.2279,304.1632,313.1474,286.62,305.92" style="stroke:#181818;stroke-width:1.0;"/></g><!--link Topic to Attachment--><g id="link_Topic_Attachment"><path codeLine="64" d="M221.7847,313.5459 C190.3047,339.4559 153.7922,369.5265 122.3922,395.3765 " fill="none" id="Topic-Attachment" style="stroke:#181818;stroke-width:1.0;"/><polygon fill="none" points="231.05,305.92,223.8754,306.6445,221.7847,313.5459,228.9593,312.8214,231.05,305.92" style="stroke:#181818;stroke-width:1.0;"/><polygon fill="#181818" points="117.76,399.19,127.2506,396.5579,121.6202,396.0121,122.166,390.3817,117.76,399.19" style="stroke:#181818;stroke-width:1.0;"/><text fill="#000000" font-family="sans-serif" font-size="13" lengthAdjust="spacing" textLength="10" x="113.7204" y="388.6571">+</text></g><!--link SimpleTopic to Concept--><g id="link_SimpleTopic_Concept"><path codeLine="68" d="M431.23,447.89 C443.52,477.47 462.2384,522.519 474.5084,552.059 " fill="none" id="SimpleTopic-to-Concept" style="stroke:#181818;stroke-width:1.0;"/><polygon fill="#181818" points="476.81,557.6,477.0517,547.7541,474.892,552.9825,469.6636,550.8229,476.81,557.6" style="stroke:#181818;stroke-width:1.0;"/><text fill="#000000" font-family="sans-serif" font-size="13" lengthAdjust="spacing" textLength="10" x="463.0457" y="547.0517">+</text></g><!--reverse link Attachment to Podcast--><g id="link_Attachment_Podcast"><path codeLine="76" d="M88.9688,465.8885 C88.5888,495.4685 88.18,528.06 87.8,557.6 " fill="none" id="Attachment-backto-Podcast" style="stroke:#181818;stroke-width:1.0;"/><polygon fill="none" points="89.2,447.89,82.9693,465.8114,94.9683,465.9656,89.2,447.89" style="stroke:#181818;stroke-width:1.0;"/></g><!--reverse link Attachment to Video--><g id="link_Attachment_Video"><path codeLine="77" d="M116.5334,462.572 C137.5134,492.152 163,528.06 183.95,557.6 " fill="none" id="Attachment-backto-Video" style="stroke:#181818;stroke-width:1.0;"/><polygon fill="none" points="106.12,447.89,111.6394,466.0431,121.4274,459.1009,106.12,447.89" style="stroke:#181818;stroke-width:1.0;"/></g><!--reverse link Attachment to Text--><g id="link_Attachment_Text"><path codeLine="78" d="M56.0712,461.4009 C41.5512,478.5309 35.39,489.47 27.5,514.93 C11.19,567.56 15.91,585.04 27.5,638.91 C35.36,675.43 54.08,714.01 68.54,740.15 " fill="none" id="Attachment-backto-Text" style="stroke:#181818;stroke-width:1.0;"/><polygon fill="none" points="67.71,447.67,51.4942,457.5213,60.6482,465.2805,67.71,447.67" style="stroke:#181818;stroke-width:1.0;"/></g><!--link Podcast to Text--><g id="link_Podcast_Text"><path codeLine="79" d="M87.5,618.1 C87.5,651.8 87.5,696.45 87.5,734.34 " fill="none" id="Podcast-Text" style="stroke:#181818;stroke-width:1.0;"/><polygon fill="none" points="87.5,606.1,83.5,612.1,87.5,618.1,91.5,612.1,87.5,606.1" style="stroke:#181818;stroke-width:1.0;"/><polygon fill="#181818" points="87.5,740.34,91.5,731.34,87.5,735.34,83.5,731.34,87.5,740.34" style="stroke:#181818;stroke-width:1.0;"/></g><!--link Video to Text--><g id="link_Video_Text"><path codeLine="80" d="M180.4818,616.3993 C160.3318,650.0993 132.0986,697.3 109.4486,735.19 " fill="none" id="Video-Text" style="stroke:#181818;stroke-width:1.0;"/><polygon fill="none" points="186.64,606.1,180.1278,609.1969,180.4818,616.3993,186.994,613.3024,186.64,606.1" style="stroke:#181818;stroke-width:1.0;"/><polygon fill="#181818" points="106.37,740.34,114.4212,734.6674,108.9355,736.0483,107.5545,730.5626,106.37,740.34" style="stroke:#181818;stroke-width:1.0;"/></g><!--link Evaluator to Question--><g id="link_Evaluator_Question"><path codeLine="88" d="M715.67,305.92 C715.85,331.91 716.1059,367.5902 716.2959,393.4202 " fill="none" id="Evaluator-to-Question" style="stroke:#181818;stroke-width:1.0;"/><polygon fill="#181818" points="716.34,399.42,720.2737,390.3908,716.3032,394.4201,712.2739,390.4497,716.34,399.42" style="stroke:#181818;stroke-width:1.0;"/></g><!--link Question to Concept--><g id="link_Question_Concept"><path codeLine="92" d="M682.07,447.89 C638.58,477.47 569.1708,524.685 525.7508,554.225 " fill="none" id="Question-to-Concept" style="stroke:#181818;stroke-width:1.0;"/><polygon fill="#181818" points="520.79,557.6,530.4812,555.8447,524.924,554.7875,525.9812,549.2303,520.79,557.6" style="stroke:#181818;stroke-width:1.0;"/><text fill="#000000" font-family="sans-serif" font-size="13" lengthAdjust="spacing" textLength="10" x="518.2956" y="547.0517">+</text></g><!--link Question to Answer--><g id="link_Question_Answer"><path codeLine="93" d="M716.5,447.89 C716.5,468.09 716.5,492.1 716.5,518.5 " fill="none" id="Question-to-Answer" style="stroke:#181818;stroke-width:1.0;"/><polygon fill="#181818" points="716.5,524.5,720.5,515.5,716.5,519.5,712.5,515.5,716.5,524.5" style="stroke:#181818;stroke-width:1.0;"/><text fill="#000000" font-family="sans-serif" font-size="13" lengthAdjust="spacing" textLength="6" x="710.1344" y="514.1744">*</text></g><!--link Question to Statement--><g id="link_Question_Statement"><path codeLine="95" d="M750.4975,455.9711 C770.1275,474.1811 789.23,492 813.5,514.93 C828.44,529.04 840.7713,540.8152 853.9713,553.4852 " fill="none" id="Question-Statement" style="stroke:#181818;stroke-width:1.0;"/><polygon fill="#181818" points="741.7,447.81,743.3784,454.8231,750.4975,455.9711,748.8191,448.9581,741.7,447.81" style="stroke:#181818;stroke-width:1.0;"/><polygon fill="#181818" points="858.3,557.64,854.5769,548.522,854.6928,554.1776,849.0371,554.2935,858.3,557.64" style="stroke:#181818;stroke-width:1.0;"/></g><!--link Question to QuestionType--><g id="link_Question_QuestionType"><path codeLine="96" d="M774.9753,444.0396 C822.9153,460.5596 887.57,484.48 950.5,514.93 C961.67,520.34 967.9852,523.538 979.2152,529.828 " fill="none" id="Question-QuestionType" style="stroke:#181818;stroke-width:1.0;"/><polygon fill="#181818" points="763.63,440.13,767.9995,445.8665,774.9753,444.0396,770.6058,438.303,763.63,440.13" style="stroke:#181818;stroke-width:1.0;"/><polygon fill="#181818" points="984.45,532.76,978.5525,524.8721,980.0877,530.3166,974.6431,531.8518,984.45,532.76" style="stroke:#181818;stroke-width:1.0;"/></g><!--link Statement to StatementType--><g id="link_Statement_StatementType"><path codeLine="97" d="M882.5,618.1 C882.5,645.2 882.5,673.01 882.5,709.62 " fill="none" id="Statement-StatementType" style="stroke:#181818;stroke-width:1.0;"/><polygon fill="#181818" points="882.5,606.1,878.5,612.1,882.5,618.1,886.5,612.1,882.5,606.1" style="stroke:#181818;stroke-width:1.0;"/><polygon fill="#181818" points="882.5,715.62,886.5,706.62,882.5,710.62,878.5,706.62,882.5,715.62" style="stroke:#181818;stroke-width:1.0;"/></g><!--SRC=[XLNDSjCm4BxhAJIvPARKVO1CWGbf3uLXA2HmwN1GxOshmTOQIMu9RTuT_LkEaz93nxlwzd_tIzamfUXrrPTCSnIt3TDRb2rz9diorPuLnJiwUpEZ6s3b0yZN86lTLo3qASW6ErwUUhpHN81aSaSNj9DGmTR8rH4qkcXdiv55sIkDxIdqzIDhUgPH4bAwug-mPLoOYgdvAwXWBOHFOmur6fztjL6Ujqom6kHvorNvq_Gd65glDeLbrpNSHoJpJ1YIN6FJk-SGEGV5y8yWbOLuISBldajeJIELYKX8nyfV9Waw-oJmgO6gXk83Kp0Bzjxl2aK9dGwwlViVTHZdSsMRobriqpAK4afz17bsWEJYLUmtQ5X0ekGrDxKEUMMEV6gXpTwXCRb7R829BEtC9FRvenaltyQ-BQBrMxfbZO8ytXZv_v0-REOWLPDtCYdTgiOEBAXciWPz11AbpQuBwO7esv4wI-wxWlIzL0fBxbSgwbROTgZuI7SZp35opKmgWsrTIwW7s_tHYnw6x9QPv2jf-sqM9LGObtQuDCiHWvGMorysOVTAIsPwx6IBTH_qykNY8XK17fozh7dRDIDrShpKsh2ElOMOImQs0JAHHgE3xCU1hT5OCoaZN6eAxQhEnCkNeg2tM9LCwOd-1wy09zeD_D4acFXuJkF0cHn2s-_43hmrn- -Om3ycClE4dIJhv6iFAcURA3je4Ww6FD9RKXFgoV3yFEcdP9QUtBAljI5DDwEnFahk21BemCPVYBkE71_A_zA1N-NFVQEvcVJg0NdO-6nlLrY17IgJO0frpaO1WhTLWtzXOu8SyCpeW9tWQMHdkpuFUnTgVoRpKtmotvDvX8MclPzm5vsGLrWtr_KqzUDiLL3myuPgyi9w_O1oGLNu4Ov-XBRIdlm3]--></g></svg>