<?xml version="1.0" encoding="us-ascii" standalone="no"?><svg xmlns="http://www.w3.org/2000/svg" xmlns:xlink="http://www.w3.org/1999/xlink" contentStyleType="text/css" height="1266px" preserveAspectRatio="none" style="width:1663px;height:1266px;background:#FFFFFF;" version="1.1" viewBox="0 0 1663 1266" width="1663px" zoomAndPan="magnify"><defs/><g><!--class EducationPlatform--><g id="elem_EducationPlatform"><rect fill="#F1F1F1" height="48" id="EducationPlatform" rx="2.5" ry="2.5" style="stroke:#181818;stroke-width:0.5;" width="147" x="235.3" y="7"/><ellipse cx="250.3" cy="23" fill="#ADD1B2" rx="11" ry="11" style="stroke:#181818;stroke-width:1.0;"/><path d="M253.0656,18.875 Q253.2219,18.6563 253.4094,18.5469 Q253.5969,18.4375 253.8156,18.4375 Q254.1906,18.4375 254.425,18.7031 Q254.6594,18.9531 254.6594,19.5625 L254.6594,21.0156 Q254.6594,21.625 254.425,21.8906 Q254.1906,22.1563 253.8156,22.1563 Q253.4719,22.1563 253.2688,21.9531 Q253.0656,21.7656 252.9563,21.25 Q252.9094,20.8906 252.7219,20.7031 Q252.3938,20.3281 251.7844,20.1094 Q251.175,19.8906 250.55,19.8906 Q249.7844,19.8906 249.1438,20.2188 Q248.5188,20.5469 248.0188,21.2969 Q247.5344,22.0469 247.5344,23.0781 L247.5344,24.1719 Q247.5344,25.4063 248.425,26.2344 Q249.3156,27.0469 250.9094,27.0469 Q251.8469,27.0469 252.5031,26.7969 Q252.8938,26.6406 253.3156,26.2031 Q253.5813,25.9375 253.7219,25.8594 Q253.8781,25.7813 254.0813,25.7813 Q254.4094,25.7813 254.6594,26.0469 Q254.925,26.2969 254.925,26.6406 Q254.925,26.9844 254.5813,27.3906 Q254.0813,27.9688 253.2844,28.2969 Q252.2063,28.75 250.9094,28.75 Q249.3938,28.75 248.1906,28.125 Q247.2063,27.625 246.5188,26.5625 Q245.8313,25.4844 245.8313,24.2031 L245.8313,23.0469 Q245.8313,21.7188 246.4406,20.5781 Q247.0656,19.4219 248.1594,18.8125 Q249.2531,18.1875 250.4875,18.1875 Q251.2219,18.1875 251.8625,18.3594 Q252.5188,18.5156 253.0656,18.875 Z " fill="#000000"/><text fill="#000000" font-family="sans-serif" font-size="14" lengthAdjust="spacing" textLength="115" x="264.3" y="28.7285">EducationPlatform</text><line style="stroke:#181818;stroke-width:0.5;" x1="236.3" x2="381.3" y1="39" y2="39"/><line style="stroke:#181818;stroke-width:0.5;" x1="236.3" x2="381.3" y1="47" y2="47"/></g><!--class User--><g id="elem_User"><rect codeLine="8" fill="#F1F1F1" height="48" id="User" rx="2.5" ry="2.5" style="stroke:#181818;stroke-width:0.5;" width="62" x="277.8" y="116"/><ellipse cx="292.8" cy="132" fill="#A9DCDF" rx="11" ry="11" style="stroke:#181818;stroke-width:1.0;"/><path d="M294.9875,133.7656 L290.8469,133.7656 L290.425,134.7969 L290.8469,134.7969 Q291.4563,134.7969 291.7219,135.0313 Q291.9875,135.2656 291.9875,135.6563 Q291.9875,136.0313 291.7219,136.2656 Q291.4563,136.5 290.8469,136.5 L288.55,136.5 Q287.9406,136.5 287.6906,136.2656 Q287.425,136.0313 287.425,135.6406 Q287.425,135.2656 287.7063,135.0313 Q287.9719,134.7813 288.5969,134.7969 L291.2688,128.1406 L290.1594,128.1406 Q289.55,128.1406 289.2844,127.9063 Q289.0188,127.6719 289.0188,127.2813 Q289.0188,126.9063 289.2844,126.6719 Q289.55,126.4375 290.1594,126.4375 L293.8313,126.4375 L297.2219,134.7969 Q297.8156,134.7969 298.0031,134.9375 Q298.3938,135.2031 298.3938,135.6563 Q298.3938,136.0313 298.1281,136.2656 Q297.8781,136.5 297.2688,136.5 L294.9719,136.5 Q294.3625,136.5 294.0969,136.2656 Q293.8313,136.0313 293.8313,135.6406 Q293.8313,135.2656 294.0969,135.0313 Q294.3625,134.7969 294.9719,134.7969 L295.3938,134.7969 L294.9875,133.7656 Z M294.2688,132.0625 L292.9094,128.6875 L291.5344,132.0625 L294.2688,132.0625 Z " fill="#000000"/><text fill="#000000" font-family="sans-serif" font-size="14" font-style="italic" lengthAdjust="spacing" textLength="30" x="306.8" y="137.7285">User</text><line style="stroke:#181818;stroke-width:0.5;" x1="278.8" x2="338.8" y1="148" y2="148"/><line style="stroke:#181818;stroke-width:0.5;" x1="278.8" x2="338.8" y1="156" y2="156"/></g><!--class Topic--><g id="elem_Topic"><rect codeLine="78" fill="#F1F1F1" height="65.6094" id="Topic" rx="2.5" ry="2.5" style="stroke:#181818;stroke-width:0.5;" width="209" x="515.3" y="369"/><ellipse cx="598.05" cy="385" fill="#A9DCDF" rx="11" ry="11" style="stroke:#181818;stroke-width:1.0;"/><path d="M600.2375,386.7656 L596.0969,386.7656 L595.675,387.7969 L596.0969,387.7969 Q596.7063,387.7969 596.9719,388.0313 Q597.2375,388.2656 597.2375,388.6563 Q597.2375,389.0313 596.9719,389.2656 Q596.7063,389.5 596.0969,389.5 L593.8,389.5 Q593.1906,389.5 592.9406,389.2656 Q592.675,389.0313 592.675,388.6406 Q592.675,388.2656 592.9563,388.0313 Q593.2219,387.7813 593.8469,387.7969 L596.5188,381.1406 L595.4094,381.1406 Q594.8,381.1406 594.5344,380.9063 Q594.2688,380.6719 594.2688,380.2813 Q594.2688,379.9063 594.5344,379.6719 Q594.8,379.4375 595.4094,379.4375 L599.0813,379.4375 L602.4719,387.7969 Q603.0656,387.7969 603.2531,387.9375 Q603.6438,388.2031 603.6438,388.6563 Q603.6438,389.0313 603.3781,389.2656 Q603.1281,389.5 602.5188,389.5 L600.2219,389.5 Q599.6125,389.5 599.3469,389.2656 Q599.0813,389.0313 599.0813,388.6406 Q599.0813,388.2656 599.3469,388.0313 Q599.6125,387.7969 600.2219,387.7969 L600.6438,387.7969 L600.2375,386.7656 Z M599.5188,385.0625 L598.1594,381.6875 L596.7844,385.0625 L599.5188,385.0625 Z " fill="#000000"/><text fill="#000000" font-family="sans-serif" font-size="14" font-style="italic" lengthAdjust="spacing" textLength="35" x="618.55" y="390.7285">Topic</text><line style="stroke:#181818;stroke-width:0.5;" x1="516.3" x2="723.3" y1="401" y2="401"/><rect fill="none" height="6" style="stroke:#C82930;stroke-width:1.0;" width="6" x="523.3" y="412.3047"/><text fill="#000000" font-family="sans-serif" font-size="14" lengthAdjust="spacing" textLength="183" x="535.3" y="419.5332">documents : List&lt;Document&gt;</text><line style="stroke:#181818;stroke-width:0.5;" x1="516.3" x2="723.3" y1="426.6094" y2="426.6094"/></g><!--class Itinerary--><g id="elem_Itinerary"><rect codeLine="27" fill="#F1F1F1" height="83.2188" id="Itinerary" rx="2.5" ry="2.5" style="stroke:#181818;stroke-width:0.5;" width="148" x="13.8" y="225"/><ellipse cx="58.05" cy="241" fill="#ADD1B2" rx="11" ry="11" style="stroke:#181818;stroke-width:1.0;"/><path d="M60.8156,236.875 Q60.9719,236.6563 61.1594,236.5469 Q61.3469,236.4375 61.5656,236.4375 Q61.9406,236.4375 62.175,236.7031 Q62.4094,236.9531 62.4094,237.5625 L62.4094,239.0156 Q62.4094,239.625 62.175,239.8906 Q61.9406,240.1563 61.5656,240.1563 Q61.2219,240.1563 61.0188,239.9531 Q60.8156,239.7656 60.7063,239.25 Q60.6594,238.8906 60.4719,238.7031 Q60.1438,238.3281 59.5344,238.1094 Q58.925,237.8906 58.3,237.8906 Q57.5344,237.8906 56.8938,238.2188 Q56.2688,238.5469 55.7688,239.2969 Q55.2844,240.0469 55.2844,241.0781 L55.2844,242.1719 Q55.2844,243.4063 56.175,244.2344 Q57.0656,245.0469 58.6594,245.0469 Q59.5969,245.0469 60.2531,244.7969 Q60.6438,244.6406 61.0656,244.2031 Q61.3313,243.9375 61.4719,243.8594 Q61.6281,243.7813 61.8313,243.7813 Q62.1594,243.7813 62.4094,244.0469 Q62.675,244.2969 62.675,244.6406 Q62.675,244.9844 62.3313,245.3906 Q61.8313,245.9688 61.0344,246.2969 Q59.9563,246.75 58.6594,246.75 Q57.1438,246.75 55.9406,246.125 Q54.9563,245.625 54.2688,244.5625 Q53.5813,243.4844 53.5813,242.2031 L53.5813,241.0469 Q53.5813,239.7188 54.1906,238.5781 Q54.8156,237.4219 55.9094,236.8125 Q57.0031,236.1875 58.2375,236.1875 Q58.9719,236.1875 59.6125,236.3594 Q60.2688,236.5156 60.8156,236.875 Z " fill="#000000"/><text fill="#000000" font-family="sans-serif" font-size="14" lengthAdjust="spacing" textLength="51" x="78.55" y="246.7285">Itinerary</text><line style="stroke:#181818;stroke-width:0.5;" x1="14.8" x2="160.8" y1="257" y2="257"/><rect fill="none" height="6" style="stroke:#C82930;stroke-width:1.0;" width="6" x="21.8" y="268.3047"/><text fill="#000000" font-family="sans-serif" font-size="14" lengthAdjust="spacing" textLength="108" x="33.8" y="275.5332">custom : boolean</text><rect fill="none" height="6" style="stroke:#C82930;stroke-width:1.0;" width="6" x="21.8" y="285.9141"/><text fill="#000000" font-family="sans-serif" font-size="14" lengthAdjust="spacing" textLength="122" x="33.8" y="293.1426">topics : List&lt;Topic&gt;</text><line style="stroke:#181818;stroke-width:0.5;" x1="14.8" x2="160.8" y1="300.2188" y2="300.2188"/></g><!--class Chat--><g id="elem_Chat"><rect codeLine="23" fill="#F1F1F1" height="48" id="Chat" rx="2.5" ry="2.5" style="stroke:#181818;stroke-width:0.5;" width="62" x="504.8" y="242.5"/><ellipse cx="519.8" cy="258.5" fill="#ADD1B2" rx="11" ry="11" style="stroke:#181818;stroke-width:1.0;"/><path d="M522.5656,254.375 Q522.7219,254.1563 522.9094,254.0469 Q523.0969,253.9375 523.3156,253.9375 Q523.6906,253.9375 523.925,254.2031 Q524.1594,254.4531 524.1594,255.0625 L524.1594,256.5156 Q524.1594,257.125 523.925,257.3906 Q523.6906,257.6563 523.3156,257.6563 Q522.9719,257.6563 522.7688,257.4531 Q522.5656,257.2656 522.4563,256.75 Q522.4094,256.3906 522.2219,256.2031 Q521.8938,255.8281 521.2844,255.6094 Q520.675,255.3906 520.05,255.3906 Q519.2844,255.3906 518.6438,255.7188 Q518.0188,256.0469 517.5188,256.7969 Q517.0344,257.5469 517.0344,258.5781 L517.0344,259.6719 Q517.0344,260.9063 517.925,261.7344 Q518.8156,262.5469 520.4094,262.5469 Q521.3469,262.5469 522.0031,262.2969 Q522.3938,262.1406 522.8156,261.7031 Q523.0813,261.4375 523.2219,261.3594 Q523.3781,261.2813 523.5813,261.2813 Q523.9094,261.2813 524.1594,261.5469 Q524.425,261.7969 524.425,262.1406 Q524.425,262.4844 524.0813,262.8906 Q523.5813,263.4688 522.7844,263.7969 Q521.7063,264.25 520.4094,264.25 Q518.8938,264.25 517.6906,263.625 Q516.7063,263.125 516.0188,262.0625 Q515.3313,260.9844 515.3313,259.7031 L515.3313,258.5469 Q515.3313,257.2188 515.9406,256.0781 Q516.5656,254.9219 517.6594,254.3125 Q518.7531,253.6875 519.9875,253.6875 Q520.7219,253.6875 521.3625,253.8594 Q522.0188,254.0156 522.5656,254.375 Z " fill="#000000"/><text fill="#000000" font-family="sans-serif" font-size="14" lengthAdjust="spacing" textLength="30" x="533.8" y="264.2285">Chat</text><line style="stroke:#181818;stroke-width:0.5;" x1="505.8" x2="565.8" y1="274.5" y2="274.5"/><line style="stroke:#181818;stroke-width:0.5;" x1="505.8" x2="565.8" y1="282.5" y2="282.5"/></g><!--class Teacher--><g id="elem_Teacher"><rect codeLine="17" fill="#F1F1F1" height="48" id="Teacher" rx="2.5" ry="2.5" style="stroke:#181818;stroke-width:0.5;" width="85" x="384.3" y="242.5"/><ellipse cx="399.3" cy="258.5" fill="#ADD1B2" rx="11" ry="11" style="stroke:#181818;stroke-width:1.0;"/><path d="M402.0656,254.375 Q402.2219,254.1563 402.4094,254.0469 Q402.5969,253.9375 402.8156,253.9375 Q403.1906,253.9375 403.425,254.2031 Q403.6594,254.4531 403.6594,255.0625 L403.6594,256.5156 Q403.6594,257.125 403.425,257.3906 Q403.1906,257.6563 402.8156,257.6563 Q402.4719,257.6563 402.2688,257.4531 Q402.0656,257.2656 401.9563,256.75 Q401.9094,256.3906 401.7219,256.2031 Q401.3938,255.8281 400.7844,255.6094 Q400.175,255.3906 399.55,255.3906 Q398.7844,255.3906 398.1438,255.7188 Q397.5188,256.0469 397.0188,256.7969 Q396.5344,257.5469 396.5344,258.5781 L396.5344,259.6719 Q396.5344,260.9063 397.425,261.7344 Q398.3156,262.5469 399.9094,262.5469 Q400.8469,262.5469 401.5031,262.2969 Q401.8938,262.1406 402.3156,261.7031 Q402.5813,261.4375 402.7219,261.3594 Q402.8781,261.2813 403.0813,261.2813 Q403.4094,261.2813 403.6594,261.5469 Q403.925,261.7969 403.925,262.1406 Q403.925,262.4844 403.5813,262.8906 Q403.0813,263.4688 402.2844,263.7969 Q401.2063,264.25 399.9094,264.25 Q398.3938,264.25 397.1906,263.625 Q396.2063,263.125 395.5188,262.0625 Q394.8313,260.9844 394.8313,259.7031 L394.8313,258.5469 Q394.8313,257.2188 395.4406,256.0781 Q396.0656,254.9219 397.1594,254.3125 Q398.2531,253.6875 399.4875,253.6875 Q400.2219,253.6875 400.8625,253.8594 Q401.5188,254.0156 402.0656,254.375 Z " fill="#000000"/><text fill="#000000" font-family="sans-serif" font-size="14" lengthAdjust="spacing" textLength="53" x="413.3" y="264.2285">Teacher</text><line style="stroke:#181818;stroke-width:0.5;" x1="385.3" x2="468.3" y1="274.5" y2="274.5"/><line style="stroke:#181818;stroke-width:0.5;" x1="385.3" x2="468.3" y1="282.5" y2="282.5"/></g><!--class Student--><g id="elem_Student"><rect codeLine="20" fill="#F1F1F1" height="48" id="Student" rx="2.5" ry="2.5" style="stroke:#181818;stroke-width:0.5;" width="81" x="268.3" y="242.5"/><ellipse cx="283.3" cy="258.5" fill="#ADD1B2" rx="11" ry="11" style="stroke:#181818;stroke-width:1.0;"/><path d="M286.0656,254.375 Q286.2219,254.1563 286.4094,254.0469 Q286.5969,253.9375 286.8156,253.9375 Q287.1906,253.9375 287.425,254.2031 Q287.6594,254.4531 287.6594,255.0625 L287.6594,256.5156 Q287.6594,257.125 287.425,257.3906 Q287.1906,257.6563 286.8156,257.6563 Q286.4719,257.6563 286.2688,257.4531 Q286.0656,257.2656 285.9563,256.75 Q285.9094,256.3906 285.7219,256.2031 Q285.3938,255.8281 284.7844,255.6094 Q284.175,255.3906 283.55,255.3906 Q282.7844,255.3906 282.1438,255.7188 Q281.5188,256.0469 281.0188,256.7969 Q280.5344,257.5469 280.5344,258.5781 L280.5344,259.6719 Q280.5344,260.9063 281.425,261.7344 Q282.3156,262.5469 283.9094,262.5469 Q284.8469,262.5469 285.5031,262.2969 Q285.8938,262.1406 286.3156,261.7031 Q286.5813,261.4375 286.7219,261.3594 Q286.8781,261.2813 287.0813,261.2813 Q287.4094,261.2813 287.6594,261.5469 Q287.925,261.7969 287.925,262.1406 Q287.925,262.4844 287.5813,262.8906 Q287.0813,263.4688 286.2844,263.7969 Q285.2063,264.25 283.9094,264.25 Q282.3938,264.25 281.1906,263.625 Q280.2063,263.125 279.5188,262.0625 Q278.8313,260.9844 278.8313,259.7031 L278.8313,258.5469 Q278.8313,257.2188 279.4406,256.0781 Q280.0656,254.9219 281.1594,254.3125 Q282.2531,253.6875 283.4875,253.6875 Q284.2219,253.6875 284.8625,253.8594 Q285.5188,254.0156 286.0656,254.375 Z " fill="#000000"/><text fill="#000000" font-family="sans-serif" font-size="14" lengthAdjust="spacing" textLength="49" x="297.3" y="264.2285">Student</text><line style="stroke:#181818;stroke-width:0.5;" x1="269.3" x2="348.3" y1="274.5" y2="274.5"/><line style="stroke:#181818;stroke-width:0.5;" x1="269.3" x2="348.3" y1="282.5" y2="282.5"/></g><!--class Solution--><g id="elem_Solution"><rect codeLine="71" fill="#F1F1F1" height="100.8281" id="Solution" rx="2.5" ry="2.5" style="stroke:#181818;stroke-width:0.5;" width="151" x="135.3" y="997.5"/><ellipse cx="181.05" cy="1013.5" fill="#ADD1B2" rx="11" ry="11" style="stroke:#181818;stroke-width:1.0;"/><path d="M183.8156,1009.375 Q183.9719,1009.1563 184.1594,1009.0469 Q184.3469,1008.9375 184.5656,1008.9375 Q184.9406,1008.9375 185.175,1009.2031 Q185.4094,1009.4531 185.4094,1010.0625 L185.4094,1011.5156 Q185.4094,1012.125 185.175,1012.3906 Q184.9406,1012.6563 184.5656,1012.6563 Q184.2219,1012.6563 184.0188,1012.4531 Q183.8156,1012.2656 183.7063,1011.75 Q183.6594,1011.3906 183.4719,1011.2031 Q183.1438,1010.8281 182.5344,1010.6094 Q181.925,1010.3906 181.3,1010.3906 Q180.5344,1010.3906 179.8938,1010.7188 Q179.2688,1011.0469 178.7688,1011.7969 Q178.2844,1012.5469 178.2844,1013.5781 L178.2844,1014.6719 Q178.2844,1015.9063 179.175,1016.7344 Q180.0656,1017.5469 181.6594,1017.5469 Q182.5969,1017.5469 183.2531,1017.2969 Q183.6438,1017.1406 184.0656,1016.7031 Q184.3313,1016.4375 184.4719,1016.3594 Q184.6281,1016.2813 184.8313,1016.2813 Q185.1594,1016.2813 185.4094,1016.5469 Q185.675,1016.7969 185.675,1017.1406 Q185.675,1017.4844 185.3313,1017.8906 Q184.8313,1018.4688 184.0344,1018.7969 Q182.9563,1019.25 181.6594,1019.25 Q180.1438,1019.25 178.9406,1018.625 Q177.9563,1018.125 177.2688,1017.0625 Q176.5813,1015.9844 176.5813,1014.7031 L176.5813,1013.5469 Q176.5813,1012.2188 177.1906,1011.0781 Q177.8156,1009.9219 178.9094,1009.3125 Q180.0031,1008.6875 181.2375,1008.6875 Q181.9719,1008.6875 182.6125,1008.8594 Q183.2688,1009.0156 183.8156,1009.375 Z " fill="#000000"/><text fill="#000000" font-family="sans-serif" font-size="14" lengthAdjust="spacing" textLength="51" x="201.55" y="1019.2285">Solution</text><line style="stroke:#181818;stroke-width:0.5;" x1="136.3" x2="285.3" y1="1029.5" y2="1029.5"/><rect fill="none" height="6" style="stroke:#C82930;stroke-width:1.0;" width="6" x="143.3" y="1040.8047"/><text fill="#000000" font-family="sans-serif" font-size="14" lengthAdjust="spacing" textLength="107" x="155.3" y="1048.0332">correct : boolean</text><rect fill="none" height="6" style="stroke:#C82930;stroke-width:1.0;" width="6" x="143.3" y="1058.4141"/><text fill="#000000" font-family="sans-serif" font-size="14" lengthAdjust="spacing" textLength="125" x="155.3" y="1065.6426">evaluated : boolean</text><rect fill="none" height="6" style="stroke:#C82930;stroke-width:1.0;" width="6" x="143.3" y="1076.0234"/><text fill="#000000" font-family="sans-serif" font-size="14" lengthAdjust="spacing" textLength="118" x="155.3" y="1083.252">Application : String</text><line style="stroke:#181818;stroke-width:0.5;" x1="136.3" x2="285.3" y1="1090.3281" y2="1090.3281"/></g><!--class Definition--><g id="elem_Definition"><rect codeLine="33" fill="#F1F1F1" height="65.6094" id="Definition" rx="2.5" ry="2.5" style="stroke:#181818;stroke-width:0.5;" width="133" x="925.3" y="818.5"/><ellipse cx="959.2" cy="834.5" fill="#ADD1B2" rx="11" ry="11" style="stroke:#181818;stroke-width:1.0;"/><path d="M961.9656,830.375 Q962.1219,830.1563 962.3094,830.0469 Q962.4969,829.9375 962.7156,829.9375 Q963.0906,829.9375 963.325,830.2031 Q963.5594,830.4531 963.5594,831.0625 L963.5594,832.5156 Q963.5594,833.125 963.325,833.3906 Q963.0906,833.6563 962.7156,833.6563 Q962.3719,833.6563 962.1687,833.4531 Q961.9656,833.2656 961.8562,832.75 Q961.8094,832.3906 961.6219,832.2031 Q961.2937,831.8281 960.6844,831.6094 Q960.075,831.3906 959.45,831.3906 Q958.6844,831.3906 958.0437,831.7188 Q957.4187,832.0469 956.9187,832.7969 Q956.4344,833.5469 956.4344,834.5781 L956.4344,835.6719 Q956.4344,836.9063 957.325,837.7344 Q958.2156,838.5469 959.8094,838.5469 Q960.7469,838.5469 961.4031,838.2969 Q961.7937,838.1406 962.2156,837.7031 Q962.4812,837.4375 962.6219,837.3594 Q962.7781,837.2813 962.9812,837.2813 Q963.3094,837.2813 963.5594,837.5469 Q963.825,837.7969 963.825,838.1406 Q963.825,838.4844 963.4812,838.8906 Q962.9812,839.4688 962.1844,839.7969 Q961.1062,840.25 959.8094,840.25 Q958.2937,840.25 957.0906,839.625 Q956.1062,839.125 955.4187,838.0625 Q954.7312,836.9844 954.7312,835.7031 L954.7312,834.5469 Q954.7312,833.2188 955.3406,832.0781 Q955.9656,830.9219 957.0594,830.3125 Q958.1531,829.6875 959.3875,829.6875 Q960.1219,829.6875 960.7625,829.8594 Q961.4187,830.0156 961.9656,830.375 Z " fill="#000000"/><text fill="#000000" font-family="sans-serif" font-size="14" lengthAdjust="spacing" textLength="59" x="977.4" y="840.2285">Definition</text><line style="stroke:#181818;stroke-width:0.5;" x1="926.3" x2="1057.3" y1="850.5" y2="850.5"/><rect fill="none" height="6" style="stroke:#C82930;stroke-width:1.0;" width="6" x="933.3" y="861.8047"/><text fill="#000000" font-family="sans-serif" font-size="14" lengthAdjust="spacing" textLength="107" x="945.3" y="869.0332">correct : boolean</text><line style="stroke:#181818;stroke-width:0.5;" x1="926.3" x2="1057.3" y1="876.1094" y2="876.1094"/></g><!--class Justification--><g id="elem_Justification"><rect codeLine="38" fill="#F1F1F1" height="65.6094" id="Justification" rx="2.5" ry="2.5" style="stroke:#181818;stroke-width:0.5;" width="133" x="534.3" y="1194"/><ellipse cx="561.9" cy="1210" fill="#ADD1B2" rx="11" ry="11" style="stroke:#181818;stroke-width:1.0;"/><path d="M564.6656,1205.875 Q564.8219,1205.6563 565.0094,1205.5469 Q565.1969,1205.4375 565.4156,1205.4375 Q565.7906,1205.4375 566.025,1205.7031 Q566.2594,1205.9531 566.2594,1206.5625 L566.2594,1208.0156 Q566.2594,1208.625 566.025,1208.8906 Q565.7906,1209.1563 565.4156,1209.1563 Q565.0719,1209.1563 564.8688,1208.9531 Q564.6656,1208.7656 564.5563,1208.25 Q564.5094,1207.8906 564.3219,1207.7031 Q563.9938,1207.3281 563.3844,1207.1094 Q562.775,1206.8906 562.15,1206.8906 Q561.3844,1206.8906 560.7438,1207.2188 Q560.1188,1207.5469 559.6188,1208.2969 Q559.1344,1209.0469 559.1344,1210.0781 L559.1344,1211.1719 Q559.1344,1212.4063 560.025,1213.2344 Q560.9156,1214.0469 562.5094,1214.0469 Q563.4469,1214.0469 564.1031,1213.7969 Q564.4938,1213.6406 564.9156,1213.2031 Q565.1813,1212.9375 565.3219,1212.8594 Q565.4781,1212.7813 565.6813,1212.7813 Q566.0094,1212.7813 566.2594,1213.0469 Q566.525,1213.2969 566.525,1213.6406 Q566.525,1213.9844 566.1813,1214.3906 Q565.6813,1214.9688 564.8844,1215.2969 Q563.8063,1215.75 562.5094,1215.75 Q560.9938,1215.75 559.7906,1215.125 Q558.8063,1214.625 558.1188,1213.5625 Q557.4313,1212.4844 557.4313,1211.2031 L557.4313,1210.0469 Q557.4313,1208.7188 558.0406,1207.5781 Q558.6656,1206.4219 559.7594,1205.8125 Q560.8531,1205.1875 562.0875,1205.1875 Q562.8219,1205.1875 563.4625,1205.3594 Q564.1188,1205.5156 564.6656,1205.875 Z " fill="#000000"/><text fill="#000000" font-family="sans-serif" font-size="14" lengthAdjust="spacing" textLength="73" x="578.7" y="1215.7285">Justification</text><line style="stroke:#181818;stroke-width:0.5;" x1="535.3" x2="666.3" y1="1226" y2="1226"/><rect fill="none" height="6" style="stroke:#C82930;stroke-width:1.0;" width="6" x="542.3" y="1237.3047"/><text fill="#000000" font-family="sans-serif" font-size="14" lengthAdjust="spacing" textLength="107" x="554.3" y="1244.5332">correct : boolean</text><line style="stroke:#181818;stroke-width:0.5;" x1="535.3" x2="666.3" y1="1251.6094" y2="1251.6094"/></g><!--class Domain--><g id="elem_Domain"><rect codeLine="42" fill="#F1F1F1" height="83.2188" id="Domain" rx="2.5" ry="2.5" style="stroke:#181818;stroke-width:0.5;" width="196" x="321.8" y="1006.5"/><ellipse cx="391.55" cy="1022.5" fill="#ADD1B2" rx="11" ry="11" style="stroke:#181818;stroke-width:1.0;"/><path d="M394.3156,1018.375 Q394.4719,1018.1563 394.6594,1018.0469 Q394.8469,1017.9375 395.0656,1017.9375 Q395.4406,1017.9375 395.675,1018.2031 Q395.9094,1018.4531 395.9094,1019.0625 L395.9094,1020.5156 Q395.9094,1021.125 395.675,1021.3906 Q395.4406,1021.6563 395.0656,1021.6563 Q394.7219,1021.6563 394.5188,1021.4531 Q394.3156,1021.2656 394.2063,1020.75 Q394.1594,1020.3906 393.9719,1020.2031 Q393.6438,1019.8281 393.0344,1019.6094 Q392.425,1019.3906 391.8,1019.3906 Q391.0344,1019.3906 390.3938,1019.7188 Q389.7688,1020.0469 389.2688,1020.7969 Q388.7844,1021.5469 388.7844,1022.5781 L388.7844,1023.6719 Q388.7844,1024.9063 389.675,1025.7344 Q390.5656,1026.5469 392.1594,1026.5469 Q393.0969,1026.5469 393.7531,1026.2969 Q394.1438,1026.1406 394.5656,1025.7031 Q394.8313,1025.4375 394.9719,1025.3594 Q395.1281,1025.2813 395.3313,1025.2813 Q395.6594,1025.2813 395.9094,1025.5469 Q396.175,1025.7969 396.175,1026.1406 Q396.175,1026.4844 395.8313,1026.8906 Q395.3313,1027.4688 394.5344,1027.7969 Q393.4563,1028.25 392.1594,1028.25 Q390.6438,1028.25 389.4406,1027.625 Q388.4563,1027.125 387.7688,1026.0625 Q387.0813,1024.9844 387.0813,1023.7031 L387.0813,1022.5469 Q387.0813,1021.2188 387.6906,1020.0781 Q388.3156,1018.9219 389.4094,1018.3125 Q390.5031,1017.6875 391.7375,1017.6875 Q392.4719,1017.6875 393.1125,1017.8594 Q393.7688,1018.0156 394.3156,1018.375 Z " fill="#000000"/><text fill="#000000" font-family="sans-serif" font-size="14" lengthAdjust="spacing" textLength="48" x="412.05" y="1028.2285">Domain</text><line style="stroke:#181818;stroke-width:0.5;" x1="322.8" x2="516.8" y1="1038.5" y2="1038.5"/><rect fill="none" height="6" style="stroke:#C82930;stroke-width:1.0;" width="6" x="329.8" y="1049.8047"/><text fill="#000000" font-family="sans-serif" font-size="14" lengthAdjust="spacing" textLength="73" x="341.8" y="1057.0332">version : int</text><rect fill="none" height="6" style="stroke:#C82930;stroke-width:1.0;" width="6" x="329.8" y="1067.4141"/><text fill="#000000" font-family="sans-serif" font-size="14" lengthAdjust="spacing" textLength="170" x="341.8" y="1074.6426">requirements : List&lt;String&gt;</text><line style="stroke:#181818;stroke-width:0.5;" x1="322.8" x2="516.8" y1="1081.7188" y2="1081.7188"/></g><!--class Exercise--><g id="elem_Exercise"><rect codeLine="47" fill="#F1F1F1" height="83.2188" id="Exercise" rx="2.5" ry="2.5" style="stroke:#181818;stroke-width:0.5;" width="183" x="327.3" y="810"/><ellipse cx="388.05" cy="826" fill="#A9DCDF" rx="11" ry="11" style="stroke:#181818;stroke-width:1.0;"/><path d="M390.2375,827.7656 L386.0969,827.7656 L385.675,828.7969 L386.0969,828.7969 Q386.7063,828.7969 386.9719,829.0313 Q387.2375,829.2656 387.2375,829.6563 Q387.2375,830.0313 386.9719,830.2656 Q386.7063,830.5 386.0969,830.5 L383.8,830.5 Q383.1906,830.5 382.9406,830.2656 Q382.675,830.0313 382.675,829.6406 Q382.675,829.2656 382.9563,829.0313 Q383.2219,828.7813 383.8469,828.7969 L386.5188,822.1406 L385.4094,822.1406 Q384.8,822.1406 384.5344,821.9063 Q384.2688,821.6719 384.2688,821.2813 Q384.2688,820.9063 384.5344,820.6719 Q384.8,820.4375 385.4094,820.4375 L389.0813,820.4375 L392.4719,828.7969 Q393.0656,828.7969 393.2531,828.9375 Q393.6438,829.2031 393.6438,829.6563 Q393.6438,830.0313 393.3781,830.2656 Q393.1281,830.5 392.5188,830.5 L390.2219,830.5 Q389.6125,830.5 389.3469,830.2656 Q389.0813,830.0313 389.0813,829.6406 Q389.0813,829.2656 389.3469,829.0313 Q389.6125,828.7969 390.2219,828.7969 L390.6438,828.7969 L390.2375,827.7656 Z M389.5188,826.0625 L388.1594,822.6875 L386.7844,826.0625 L389.5188,826.0625 Z " fill="#000000"/><text fill="#000000" font-family="sans-serif" font-size="14" font-style="italic" lengthAdjust="spacing" textLength="53" x="408.55" y="831.7285">Exercise</text><line style="stroke:#181818;stroke-width:0.5;" x1="328.3" x2="509.3" y1="842" y2="842"/><rect fill="none" height="6" style="stroke:#C82930;stroke-width:1.0;" width="6" x="335.3" y="853.3047"/><text fill="#000000" font-family="sans-serif" font-size="14" lengthAdjust="spacing" textLength="111" x="347.3" y="860.5332">statement : String</text><rect fill="none" height="6" style="stroke:#C82930;stroke-width:1.0;" width="6" x="335.3" y="870.9141"/><text fill="#000000" font-family="sans-serif" font-size="14" lengthAdjust="spacing" textLength="157" x="347.3" y="878.1426">solutions : List&lt;Solution&gt;</text><line style="stroke:#181818;stroke-width:0.5;" x1="328.3" x2="509.3" y1="885.2188" y2="885.2188"/></g><!--class Question--><g id="elem_Question"><rect codeLine="57" fill="#F1F1F1" height="65.6094" id="Question" rx="2.5" ry="2.5" style="stroke:#181818;stroke-width:0.5;" width="164" x="614.8" y="818.5"/><ellipse cx="664.05" cy="834.5" fill="#A9DCDF" rx="11" ry="11" style="stroke:#181818;stroke-width:1.0;"/><path d="M666.2375,836.2656 L662.0969,836.2656 L661.675,837.2969 L662.0969,837.2969 Q662.7063,837.2969 662.9719,837.5313 Q663.2375,837.7656 663.2375,838.1563 Q663.2375,838.5313 662.9719,838.7656 Q662.7063,839 662.0969,839 L659.8,839 Q659.1906,839 658.9406,838.7656 Q658.675,838.5313 658.675,838.1406 Q658.675,837.7656 658.9563,837.5313 Q659.2219,837.2813 659.8469,837.2969 L662.5188,830.6406 L661.4094,830.6406 Q660.8,830.6406 660.5344,830.4063 Q660.2688,830.1719 660.2688,829.7813 Q660.2688,829.4063 660.5344,829.1719 Q660.8,828.9375 661.4094,828.9375 L665.0813,828.9375 L668.4719,837.2969 Q669.0656,837.2969 669.2531,837.4375 Q669.6438,837.7031 669.6438,838.1563 Q669.6438,838.5313 669.3781,838.7656 Q669.1281,839 668.5188,839 L666.2219,839 Q665.6125,839 665.3469,838.7656 Q665.0813,838.5313 665.0813,838.1406 Q665.0813,837.7656 665.3469,837.5313 Q665.6125,837.2969 666.2219,837.2969 L666.6438,837.2969 L666.2375,836.2656 Z M665.5188,834.5625 L664.1594,831.1875 L662.7844,834.5625 L665.5188,834.5625 Z " fill="#000000"/><text fill="#000000" font-family="sans-serif" font-size="14" font-style="italic" lengthAdjust="spacing" textLength="57" x="684.55" y="840.2285">Question</text><line style="stroke:#181818;stroke-width:0.5;" x1="615.8" x2="777.8" y1="850.5" y2="850.5"/><rect fill="none" height="6" style="stroke:#C82930;stroke-width:1.0;" width="6" x="622.8" y="861.8047"/><text fill="#000000" font-family="sans-serif" font-size="14" lengthAdjust="spacing" textLength="138" x="634.8" y="869.0332">statement : Statement</text><line style="stroke:#181818;stroke-width:0.5;" x1="615.8" x2="777.8" y1="876.1094" y2="876.1094"/></g><!--class MultipleChoice--><g id="elem_MultipleChoice"><rect codeLine="68" fill="#F1F1F1" height="48" id="MultipleChoice" rx="2.5" ry="2.5" style="stroke:#181818;stroke-width:0.5;" width="124" x="552.8" y="1024"/><ellipse cx="567.8" cy="1040" fill="#ADD1B2" rx="11" ry="11" style="stroke:#181818;stroke-width:1.0;"/><path d="M570.5656,1035.875 Q570.7219,1035.6563 570.9094,1035.5469 Q571.0969,1035.4375 571.3156,1035.4375 Q571.6906,1035.4375 571.925,1035.7031 Q572.1594,1035.9531 572.1594,1036.5625 L572.1594,1038.0156 Q572.1594,1038.625 571.925,1038.8906 Q571.6906,1039.1563 571.3156,1039.1563 Q570.9719,1039.1563 570.7688,1038.9531 Q570.5656,1038.7656 570.4563,1038.25 Q570.4094,1037.8906 570.2219,1037.7031 Q569.8938,1037.3281 569.2844,1037.1094 Q568.675,1036.8906 568.05,1036.8906 Q567.2844,1036.8906 566.6438,1037.2188 Q566.0188,1037.5469 565.5188,1038.2969 Q565.0344,1039.0469 565.0344,1040.0781 L565.0344,1041.1719 Q565.0344,1042.4063 565.925,1043.2344 Q566.8156,1044.0469 568.4094,1044.0469 Q569.3469,1044.0469 570.0031,1043.7969 Q570.3938,1043.6406 570.8156,1043.2031 Q571.0813,1042.9375 571.2219,1042.8594 Q571.3781,1042.7813 571.5813,1042.7813 Q571.9094,1042.7813 572.1594,1043.0469 Q572.425,1043.2969 572.425,1043.6406 Q572.425,1043.9844 572.0813,1044.3906 Q571.5813,1044.9688 570.7844,1045.2969 Q569.7063,1045.75 568.4094,1045.75 Q566.8938,1045.75 565.6906,1045.125 Q564.7063,1044.625 564.0188,1043.5625 Q563.3313,1042.4844 563.3313,1041.2031 L563.3313,1040.0469 Q563.3313,1038.7188 563.9406,1037.5781 Q564.5656,1036.4219 565.6594,1035.8125 Q566.7531,1035.1875 567.9875,1035.1875 Q568.7219,1035.1875 569.3625,1035.3594 Q570.0188,1035.5156 570.5656,1035.875 Z " fill="#000000"/><text fill="#000000" font-family="sans-serif" font-size="14" lengthAdjust="spacing" textLength="92" x="581.8" y="1045.7285">MultipleChoice</text><line style="stroke:#181818;stroke-width:0.5;" x1="553.8" x2="675.8" y1="1056" y2="1056"/><line style="stroke:#181818;stroke-width:0.5;" x1="553.8" x2="675.8" y1="1064" y2="1064"/></g><!--class Cloze--><g id="elem_Cloze"><rect codeLine="64" fill="#F1F1F1" height="65.6094" id="Cloze" rx="2.5" ry="2.5" style="stroke:#181818;stroke-width:0.5;" width="107" x="712.3" y="1015"/><ellipse cx="745.3" cy="1031" fill="#ADD1B2" rx="11" ry="11" style="stroke:#181818;stroke-width:1.0;"/><path d="M748.0656,1026.875 Q748.2219,1026.6563 748.4094,1026.5469 Q748.5969,1026.4375 748.8156,1026.4375 Q749.1906,1026.4375 749.425,1026.7031 Q749.6594,1026.9531 749.6594,1027.5625 L749.6594,1029.0156 Q749.6594,1029.625 749.425,1029.8906 Q749.1906,1030.1563 748.8156,1030.1563 Q748.4719,1030.1563 748.2688,1029.9531 Q748.0656,1029.7656 747.9563,1029.25 Q747.9094,1028.8906 747.7219,1028.7031 Q747.3938,1028.3281 746.7844,1028.1094 Q746.175,1027.8906 745.55,1027.8906 Q744.7844,1027.8906 744.1438,1028.2188 Q743.5188,1028.5469 743.0188,1029.2969 Q742.5344,1030.0469 742.5344,1031.0781 L742.5344,1032.1719 Q742.5344,1033.4063 743.425,1034.2344 Q744.3156,1035.0469 745.9094,1035.0469 Q746.8469,1035.0469 747.5031,1034.7969 Q747.8938,1034.6406 748.3156,1034.2031 Q748.5813,1033.9375 748.7219,1033.8594 Q748.8781,1033.7813 749.0813,1033.7813 Q749.4094,1033.7813 749.6594,1034.0469 Q749.925,1034.2969 749.925,1034.6406 Q749.925,1034.9844 749.5813,1035.3906 Q749.0813,1035.9688 748.2844,1036.2969 Q747.2063,1036.75 745.9094,1036.75 Q744.3938,1036.75 743.1906,1036.125 Q742.2063,1035.625 741.5188,1034.5625 Q740.8313,1033.4844 740.8313,1032.2031 L740.8313,1031.0469 Q740.8313,1029.7188 741.4406,1028.5781 Q742.0656,1027.4219 743.1594,1026.8125 Q744.2531,1026.1875 745.4875,1026.1875 Q746.2219,1026.1875 746.8625,1026.3594 Q747.5188,1026.5156 748.0656,1026.875 Z " fill="#000000"/><text fill="#000000" font-family="sans-serif" font-size="14" lengthAdjust="spacing" textLength="35" x="763.3" y="1036.7285">Cloze</text><line style="stroke:#181818;stroke-width:0.5;" x1="713.3" x2="818.3" y1="1047" y2="1047"/><text fill="#000000" font-family="sans-serif" font-size="14" lengthAdjust="spacing" textLength="95" x="718.3" y="1065.5332">blankCount: int</text><line style="stroke:#181818;stroke-width:0.5;" x1="713.3" x2="818.3" y1="1072.6094" y2="1072.6094"/></g><!--class Open--><g id="elem_Open"><rect fill="#F1F1F1" height="48" id="Open" rx="2.5" ry="2.5" style="stroke:#181818;stroke-width:0.5;" width="67" x="854.3" y="1024"/><ellipse cx="869.3" cy="1040" fill="#ADD1B2" rx="11" ry="11" style="stroke:#181818;stroke-width:1.0;"/><path d="M872.0656,1035.875 Q872.2219,1035.6563 872.4094,1035.5469 Q872.5969,1035.4375 872.8156,1035.4375 Q873.1906,1035.4375 873.425,1035.7031 Q873.6594,1035.9531 873.6594,1036.5625 L873.6594,1038.0156 Q873.6594,1038.625 873.425,1038.8906 Q873.1906,1039.1563 872.8156,1039.1563 Q872.4719,1039.1563 872.2688,1038.9531 Q872.0656,1038.7656 871.9563,1038.25 Q871.9094,1037.8906 871.7219,1037.7031 Q871.3938,1037.3281 870.7844,1037.1094 Q870.175,1036.8906 869.55,1036.8906 Q868.7844,1036.8906 868.1438,1037.2188 Q867.5188,1037.5469 867.0188,1038.2969 Q866.5344,1039.0469 866.5344,1040.0781 L866.5344,1041.1719 Q866.5344,1042.4063 867.425,1043.2344 Q868.3156,1044.0469 869.9094,1044.0469 Q870.8469,1044.0469 871.5031,1043.7969 Q871.8938,1043.6406 872.3156,1043.2031 Q872.5813,1042.9375 872.7219,1042.8594 Q872.8781,1042.7813 873.0813,1042.7813 Q873.4094,1042.7813 873.6594,1043.0469 Q873.925,1043.2969 873.925,1043.6406 Q873.925,1043.9844 873.5813,1044.3906 Q873.0813,1044.9688 872.2844,1045.2969 Q871.2063,1045.75 869.9094,1045.75 Q868.3938,1045.75 867.1906,1045.125 Q866.2063,1044.625 865.5188,1043.5625 Q864.8313,1042.4844 864.8313,1041.2031 L864.8313,1040.0469 Q864.8313,1038.7188 865.4406,1037.5781 Q866.0656,1036.4219 867.1594,1035.8125 Q868.2531,1035.1875 869.4875,1035.1875 Q870.2219,1035.1875 870.8625,1035.3594 Q871.5188,1035.5156 872.0656,1035.875 Z " fill="#000000"/><text fill="#000000" font-family="sans-serif" font-size="14" lengthAdjust="spacing" textLength="35" x="883.3" y="1045.7285">Open</text><line style="stroke:#181818;stroke-width:0.5;" x1="855.3" x2="920.3" y1="1056" y2="1056"/><line style="stroke:#181818;stroke-width:0.5;" x1="855.3" x2="920.3" y1="1064" y2="1064"/></g><!--class Document--><g id="elem_Document"><rect codeLine="97" fill="#F1F1F1" height="48" id="Document" rx="2.5" ry="2.5" style="stroke:#181818;stroke-width:0.5;" width="96" x="1365.8" y="827.5"/><ellipse cx="1380.8" cy="843.5" fill="#A9DCDF" rx="11" ry="11" style="stroke:#181818;stroke-width:1.0;"/><path d="M1382.9875,845.2656 L1378.8469,845.2656 L1378.425,846.2969 L1378.8469,846.2969 Q1379.4563,846.2969 1379.7219,846.5313 Q1379.9875,846.7656 1379.9875,847.1563 Q1379.9875,847.5313 1379.7219,847.7656 Q1379.4563,848 1378.8469,848 L1376.55,848 Q1375.9406,848 1375.6906,847.7656 Q1375.425,847.5313 1375.425,847.1406 Q1375.425,846.7656 1375.7063,846.5313 Q1375.9719,846.2813 1376.5969,846.2969 L1379.2688,839.6406 L1378.1594,839.6406 Q1377.55,839.6406 1377.2844,839.4063 Q1377.0188,839.1719 1377.0188,838.7813 Q1377.0188,838.4063 1377.2844,838.1719 Q1377.55,837.9375 1378.1594,837.9375 L1381.8313,837.9375 L1385.2219,846.2969 Q1385.8156,846.2969 1386.0031,846.4375 Q1386.3938,846.7031 1386.3938,847.1563 Q1386.3938,847.5313 1386.1281,847.7656 Q1385.8781,848 1385.2688,848 L1382.9719,848 Q1382.3625,848 1382.0969,847.7656 Q1381.8313,847.5313 1381.8313,847.1406 Q1381.8313,846.7656 1382.0969,846.5313 Q1382.3625,846.2969 1382.9719,846.2969 L1383.3938,846.2969 L1382.9875,845.2656 Z M1382.2688,843.5625 L1380.9094,840.1875 L1379.5344,843.5625 L1382.2688,843.5625 Z " fill="#000000"/><text fill="#000000" font-family="sans-serif" font-size="14" font-style="italic" lengthAdjust="spacing" textLength="64" x="1394.8" y="849.2285">Document</text><line style="stroke:#181818;stroke-width:0.5;" x1="1366.8" x2="1460.8" y1="859.5" y2="859.5"/><line style="stroke:#181818;stroke-width:0.5;" x1="1366.8" x2="1460.8" y1="867.5" y2="867.5"/></g><!--class CompositeTopic--><g id="elem_CompositeTopic"><rect codeLine="92" fill="#F1F1F1" height="65.6094" id="CompositeTopic" rx="2.5" ry="2.5" style="stroke:#181818;stroke-width:0.5;" width="148" x="547.8" y="504.5"/><ellipse cx="569.1" cy="520.5" fill="#ADD1B2" rx="11" ry="11" style="stroke:#181818;stroke-width:1.0;"/><path d="M571.8656,516.375 Q572.0219,516.1563 572.2094,516.0469 Q572.3969,515.9375 572.6156,515.9375 Q572.9906,515.9375 573.225,516.2031 Q573.4594,516.4531 573.4594,517.0625 L573.4594,518.5156 Q573.4594,519.125 573.225,519.3906 Q572.9906,519.6563 572.6156,519.6563 Q572.2719,519.6563 572.0687,519.4531 Q571.8656,519.2656 571.7562,518.75 Q571.7094,518.3906 571.5219,518.2031 Q571.1937,517.8281 570.5844,517.6094 Q569.975,517.3906 569.35,517.3906 Q568.5844,517.3906 567.9437,517.7188 Q567.3187,518.0469 566.8187,518.7969 Q566.3344,519.5469 566.3344,520.5781 L566.3344,521.6719 Q566.3344,522.9063 567.225,523.7344 Q568.1156,524.5469 569.7094,524.5469 Q570.6469,524.5469 571.3031,524.2969 Q571.6937,524.1406 572.1156,523.7031 Q572.3812,523.4375 572.5219,523.3594 Q572.6781,523.2813 572.8812,523.2813 Q573.2094,523.2813 573.4594,523.5469 Q573.725,523.7969 573.725,524.1406 Q573.725,524.4844 573.3812,524.8906 Q572.8812,525.4688 572.0844,525.7969 Q571.0062,526.25 569.7094,526.25 Q568.1937,526.25 566.9906,525.625 Q566.0062,525.125 565.3187,524.0625 Q564.6312,522.9844 564.6312,521.7031 L564.6312,520.5469 Q564.6312,519.2188 565.2406,518.0781 Q565.8656,516.9219 566.9594,516.3125 Q568.0531,515.6875 569.2875,515.6875 Q570.0219,515.6875 570.6625,515.8594 Q571.3187,516.0156 571.8656,516.375 Z " fill="#000000"/><text fill="#000000" font-family="sans-serif" font-size="14" lengthAdjust="spacing" textLength="102" x="584.5" y="526.2285">CompositeTopic</text><line style="stroke:#181818;stroke-width:0.5;" x1="548.8" x2="694.8" y1="536.5" y2="536.5"/><rect fill="none" height="6" style="stroke:#C82930;stroke-width:1.0;" width="6" x="555.8" y="547.8047"/><text fill="#000000" font-family="sans-serif" font-size="14" lengthAdjust="spacing" textLength="122" x="567.8" y="555.0332">topics : List&lt;Topic&gt;</text><line style="stroke:#181818;stroke-width:0.5;" x1="548.8" x2="694.8" y1="562.1094" y2="562.1094"/></g><!--class SimpleTopic--><g id="elem_SimpleTopic"><rect codeLine="85" fill="#F1F1F1" height="83.2188" id="SimpleTopic" rx="2.5" ry="2.5" style="stroke:#181818;stroke-width:0.5;" width="188" x="324.8" y="496"/><ellipse cx="376.05" cy="512" fill="#ADD1B2" rx="11" ry="11" style="stroke:#181818;stroke-width:1.0;"/><path d="M378.8156,507.875 Q378.9719,507.6563 379.1594,507.5469 Q379.3469,507.4375 379.5656,507.4375 Q379.9406,507.4375 380.175,507.7031 Q380.4094,507.9531 380.4094,508.5625 L380.4094,510.0156 Q380.4094,510.625 380.175,510.8906 Q379.9406,511.1563 379.5656,511.1563 Q379.2219,511.1563 379.0188,510.9531 Q378.8156,510.7656 378.7063,510.25 Q378.6594,509.8906 378.4719,509.7031 Q378.1438,509.3281 377.5344,509.1094 Q376.925,508.8906 376.3,508.8906 Q375.5344,508.8906 374.8938,509.2188 Q374.2688,509.5469 373.7688,510.2969 Q373.2844,511.0469 373.2844,512.0781 L373.2844,513.1719 Q373.2844,514.4063 374.175,515.2344 Q375.0656,516.0469 376.6594,516.0469 Q377.5969,516.0469 378.2531,515.7969 Q378.6438,515.6406 379.0656,515.2031 Q379.3313,514.9375 379.4719,514.8594 Q379.6281,514.7813 379.8313,514.7813 Q380.1594,514.7813 380.4094,515.0469 Q380.675,515.2969 380.675,515.6406 Q380.675,515.9844 380.3313,516.3906 Q379.8313,516.9688 379.0344,517.2969 Q377.9563,517.75 376.6594,517.75 Q375.1438,517.75 373.9406,517.125 Q372.9563,516.625 372.2688,515.5625 Q371.5813,514.4844 371.5813,513.2031 L371.5813,512.0469 Q371.5813,510.7188 372.1906,509.5781 Q372.8156,508.4219 373.9094,507.8125 Q375.0031,507.1875 376.2375,507.1875 Q376.9719,507.1875 377.6125,507.3594 Q378.2688,507.5156 378.8156,507.875 Z " fill="#000000"/><text fill="#000000" font-family="sans-serif" font-size="14" lengthAdjust="spacing" textLength="77" x="396.55" y="517.7285">SimpleTopic</text><line style="stroke:#181818;stroke-width:0.5;" x1="325.8" x2="511.8" y1="528" y2="528"/><rect fill="none" height="6" style="stroke:#C82930;stroke-width:1.0;" width="6" x="332.8" y="539.3047"/><text fill="#000000" font-family="sans-serif" font-size="14" lengthAdjust="spacing" textLength="160" x="344.8" y="546.5332">concepts : List&lt;Concept&gt;</text><rect fill="none" height="6" style="stroke:#C82930;stroke-width:1.0;" width="6" x="332.8" y="556.9141"/><text fill="#000000" font-family="sans-serif" font-size="14" lengthAdjust="spacing" textLength="162" x="344.8" y="564.1426">exercises : List&lt;Exercise&gt;</text><line style="stroke:#181818;stroke-width:0.5;" x1="325.8" x2="511.8" y1="571.2188" y2="571.2188"/></g><!--class Concept--><g id="elem_Concept"><rect codeLine="103" fill="#F1F1F1" height="83.2188" id="Concept" rx="2.5" ry="2.5" style="stroke:#181818;stroke-width:0.5;" width="188" x="954.8" y="640"/><ellipse cx="1018.05" cy="656" fill="#ADD1B2" rx="11" ry="11" style="stroke:#181818;stroke-width:1.0;"/><path d="M1020.8156,651.875 Q1020.9719,651.6563 1021.1594,651.5469 Q1021.3469,651.4375 1021.5656,651.4375 Q1021.9406,651.4375 1022.175,651.7031 Q1022.4094,651.9531 1022.4094,652.5625 L1022.4094,654.0156 Q1022.4094,654.625 1022.175,654.8906 Q1021.9406,655.1563 1021.5656,655.1563 Q1021.2219,655.1563 1021.0188,654.9531 Q1020.8156,654.7656 1020.7063,654.25 Q1020.6594,653.8906 1020.4719,653.7031 Q1020.1438,653.3281 1019.5344,653.1094 Q1018.925,652.8906 1018.3,652.8906 Q1017.5344,652.8906 1016.8938,653.2188 Q1016.2688,653.5469 1015.7688,654.2969 Q1015.2844,655.0469 1015.2844,656.0781 L1015.2844,657.1719 Q1015.2844,658.4063 1016.175,659.2344 Q1017.0656,660.0469 1018.6594,660.0469 Q1019.5969,660.0469 1020.2531,659.7969 Q1020.6438,659.6406 1021.0656,659.2031 Q1021.3313,658.9375 1021.4719,658.8594 Q1021.6281,658.7813 1021.8313,658.7813 Q1022.1594,658.7813 1022.4094,659.0469 Q1022.675,659.2969 1022.675,659.6406 Q1022.675,659.9844 1022.3313,660.3906 Q1021.8313,660.9688 1021.0344,661.2969 Q1019.9563,661.75 1018.6594,661.75 Q1017.1438,661.75 1015.9406,661.125 Q1014.9563,660.625 1014.2688,659.5625 Q1013.5813,658.4844 1013.5813,657.2031 L1013.5813,656.0469 Q1013.5813,654.7188 1014.1906,653.5781 Q1014.8156,652.4219 1015.9094,651.8125 Q1017.0031,651.1875 1018.2375,651.1875 Q1018.9719,651.1875 1019.6125,651.3594 Q1020.2688,651.5156 1020.8156,651.875 Z " fill="#000000"/><text fill="#000000" font-family="sans-serif" font-size="14" lengthAdjust="spacing" textLength="53" x="1038.55" y="661.7285">Concept</text><line style="stroke:#181818;stroke-width:0.5;" x1="955.8" x2="1141.8" y1="672" y2="672"/><rect fill="none" height="6" style="stroke:#C82930;stroke-width:1.0;" width="6" x="962.8" y="683.3047"/><text fill="#000000" font-family="sans-serif" font-size="14" lengthAdjust="spacing" textLength="162" x="974.8" y="690.5332">exercises : List&lt;Exercise&gt;</text><rect fill="none" height="6" style="stroke:#C82930;stroke-width:1.0;" width="6" x="962.8" y="700.9141"/><text fill="#000000" font-family="sans-serif" font-size="14" lengthAdjust="spacing" textLength="156" x="974.8" y="708.1426">relations : List&lt;Relation&gt;</text><line style="stroke:#181818;stroke-width:0.5;" x1="955.8" x2="1141.8" y1="715.2188" y2="715.2188"/></g><!--class Audio--><g id="elem_Audio"><rect fill="#F1F1F1" height="48" id="Audio" rx="2.5" ry="2.5" style="stroke:#181818;stroke-width:0.5;" width="68" x="1285.8" y="1024"/><ellipse cx="1300.8" cy="1040" fill="#ADD1B2" rx="11" ry="11" style="stroke:#181818;stroke-width:1.0;"/><path d="M1303.5656,1035.875 Q1303.7219,1035.6563 1303.9094,1035.5469 Q1304.0969,1035.4375 1304.3156,1035.4375 Q1304.6906,1035.4375 1304.925,1035.7031 Q1305.1594,1035.9531 1305.1594,1036.5625 L1305.1594,1038.0156 Q1305.1594,1038.625 1304.925,1038.8906 Q1304.6906,1039.1563 1304.3156,1039.1563 Q1303.9719,1039.1563 1303.7688,1038.9531 Q1303.5656,1038.7656 1303.4563,1038.25 Q1303.4094,1037.8906 1303.2219,1037.7031 Q1302.8938,1037.3281 1302.2844,1037.1094 Q1301.675,1036.8906 1301.05,1036.8906 Q1300.2844,1036.8906 1299.6438,1037.2188 Q1299.0188,1037.5469 1298.5188,1038.2969 Q1298.0344,1039.0469 1298.0344,1040.0781 L1298.0344,1041.1719 Q1298.0344,1042.4063 1298.925,1043.2344 Q1299.8156,1044.0469 1301.4094,1044.0469 Q1302.3469,1044.0469 1303.0031,1043.7969 Q1303.3938,1043.6406 1303.8156,1043.2031 Q1304.0813,1042.9375 1304.2219,1042.8594 Q1304.3781,1042.7813 1304.5813,1042.7813 Q1304.9094,1042.7813 1305.1594,1043.0469 Q1305.425,1043.2969 1305.425,1043.6406 Q1305.425,1043.9844 1305.0813,1044.3906 Q1304.5813,1044.9688 1303.7844,1045.2969 Q1302.7063,1045.75 1301.4094,1045.75 Q1299.8938,1045.75 1298.6906,1045.125 Q1297.7063,1044.625 1297.0188,1043.5625 Q1296.3313,1042.4844 1296.3313,1041.2031 L1296.3313,1040.0469 Q1296.3313,1038.7188 1296.9406,1037.5781 Q1297.5656,1036.4219 1298.6594,1035.8125 Q1299.7531,1035.1875 1300.9875,1035.1875 Q1301.7219,1035.1875 1302.3625,1035.3594 Q1303.0188,1035.5156 1303.5656,1035.875 Z " fill="#000000"/><text fill="#000000" font-family="sans-serif" font-size="14" lengthAdjust="spacing" textLength="36" x="1314.8" y="1045.7285">Audio</text><line style="stroke:#181818;stroke-width:0.5;" x1="1286.8" x2="1352.8" y1="1056" y2="1056"/><line style="stroke:#181818;stroke-width:0.5;" x1="1286.8" x2="1352.8" y1="1064" y2="1064"/></g><!--class Video--><g id="elem_Video"><rect fill="#F1F1F1" height="48" id="Video" rx="2.5" ry="2.5" style="stroke:#181818;stroke-width:0.5;" width="68" x="1388.8" y="1024"/><ellipse cx="1403.8" cy="1040" fill="#ADD1B2" rx="11" ry="11" style="stroke:#181818;stroke-width:1.0;"/><path d="M1406.5656,1035.875 Q1406.7219,1035.6563 1406.9094,1035.5469 Q1407.0969,1035.4375 1407.3156,1035.4375 Q1407.6906,1035.4375 1407.925,1035.7031 Q1408.1594,1035.9531 1408.1594,1036.5625 L1408.1594,1038.0156 Q1408.1594,1038.625 1407.925,1038.8906 Q1407.6906,1039.1563 1407.3156,1039.1563 Q1406.9719,1039.1563 1406.7688,1038.9531 Q1406.5656,1038.7656 1406.4563,1038.25 Q1406.4094,1037.8906 1406.2219,1037.7031 Q1405.8938,1037.3281 1405.2844,1037.1094 Q1404.675,1036.8906 1404.05,1036.8906 Q1403.2844,1036.8906 1402.6438,1037.2188 Q1402.0188,1037.5469 1401.5188,1038.2969 Q1401.0344,1039.0469 1401.0344,1040.0781 L1401.0344,1041.1719 Q1401.0344,1042.4063 1401.925,1043.2344 Q1402.8156,1044.0469 1404.4094,1044.0469 Q1405.3469,1044.0469 1406.0031,1043.7969 Q1406.3938,1043.6406 1406.8156,1043.2031 Q1407.0813,1042.9375 1407.2219,1042.8594 Q1407.3781,1042.7813 1407.5813,1042.7813 Q1407.9094,1042.7813 1408.1594,1043.0469 Q1408.425,1043.2969 1408.425,1043.6406 Q1408.425,1043.9844 1408.0813,1044.3906 Q1407.5813,1044.9688 1406.7844,1045.2969 Q1405.7063,1045.75 1404.4094,1045.75 Q1402.8938,1045.75 1401.6906,1045.125 Q1400.7063,1044.625 1400.0188,1043.5625 Q1399.3313,1042.4844 1399.3313,1041.2031 L1399.3313,1040.0469 Q1399.3313,1038.7188 1399.9406,1037.5781 Q1400.5656,1036.4219 1401.6594,1035.8125 Q1402.7531,1035.1875 1403.9875,1035.1875 Q1404.7219,1035.1875 1405.3625,1035.3594 Q1406.0188,1035.5156 1406.5656,1035.875 Z " fill="#000000"/><text fill="#000000" font-family="sans-serif" font-size="14" lengthAdjust="spacing" textLength="36" x="1417.8" y="1045.7285">Video</text><line style="stroke:#181818;stroke-width:0.5;" x1="1389.8" x2="1455.8" y1="1056" y2="1056"/><line style="stroke:#181818;stroke-width:0.5;" x1="1389.8" x2="1455.8" y1="1064" y2="1064"/></g><!--class Image--><g id="elem_Image"><rect fill="#F1F1F1" height="48" id="Image" rx="2.5" ry="2.5" style="stroke:#181818;stroke-width:0.5;" width="70" x="1491.8" y="1024"/><ellipse cx="1506.8" cy="1040" fill="#ADD1B2" rx="11" ry="11" style="stroke:#181818;stroke-width:1.0;"/><path d="M1509.5656,1035.875 Q1509.7219,1035.6563 1509.9094,1035.5469 Q1510.0969,1035.4375 1510.3156,1035.4375 Q1510.6906,1035.4375 1510.925,1035.7031 Q1511.1594,1035.9531 1511.1594,1036.5625 L1511.1594,1038.0156 Q1511.1594,1038.625 1510.925,1038.8906 Q1510.6906,1039.1563 1510.3156,1039.1563 Q1509.9719,1039.1563 1509.7688,1038.9531 Q1509.5656,1038.7656 1509.4563,1038.25 Q1509.4094,1037.8906 1509.2219,1037.7031 Q1508.8938,1037.3281 1508.2844,1037.1094 Q1507.675,1036.8906 1507.05,1036.8906 Q1506.2844,1036.8906 1505.6438,1037.2188 Q1505.0188,1037.5469 1504.5188,1038.2969 Q1504.0344,1039.0469 1504.0344,1040.0781 L1504.0344,1041.1719 Q1504.0344,1042.4063 1504.925,1043.2344 Q1505.8156,1044.0469 1507.4094,1044.0469 Q1508.3469,1044.0469 1509.0031,1043.7969 Q1509.3938,1043.6406 1509.8156,1043.2031 Q1510.0813,1042.9375 1510.2219,1042.8594 Q1510.3781,1042.7813 1510.5813,1042.7813 Q1510.9094,1042.7813 1511.1594,1043.0469 Q1511.425,1043.2969 1511.425,1043.6406 Q1511.425,1043.9844 1511.0813,1044.3906 Q1510.5813,1044.9688 1509.7844,1045.2969 Q1508.7063,1045.75 1507.4094,1045.75 Q1505.8938,1045.75 1504.6906,1045.125 Q1503.7063,1044.625 1503.0188,1043.5625 Q1502.3313,1042.4844 1502.3313,1041.2031 L1502.3313,1040.0469 Q1502.3313,1038.7188 1502.9406,1037.5781 Q1503.5656,1036.4219 1504.6594,1035.8125 Q1505.7531,1035.1875 1506.9875,1035.1875 Q1507.7219,1035.1875 1508.3625,1035.3594 Q1509.0188,1035.5156 1509.5656,1035.875 Z " fill="#000000"/><text fill="#000000" font-family="sans-serif" font-size="14" lengthAdjust="spacing" textLength="38" x="1520.8" y="1045.7285">Image</text><line style="stroke:#181818;stroke-width:0.5;" x1="1492.8" x2="1560.8" y1="1056" y2="1056"/><line style="stroke:#181818;stroke-width:0.5;" x1="1492.8" x2="1560.8" y1="1064" y2="1064"/></g><!--class Text--><g id="elem_Text"><rect fill="#F1F1F1" height="48" id="Text" rx="2.5" ry="2.5" style="stroke:#181818;stroke-width:0.5;" width="59" x="1597.3" y="1024"/><ellipse cx="1612.3" cy="1040" fill="#ADD1B2" rx="11" ry="11" style="stroke:#181818;stroke-width:1.0;"/><path d="M1615.0656,1035.875 Q1615.2219,1035.6563 1615.4094,1035.5469 Q1615.5969,1035.4375 1615.8156,1035.4375 Q1616.1906,1035.4375 1616.425,1035.7031 Q1616.6594,1035.9531 1616.6594,1036.5625 L1616.6594,1038.0156 Q1616.6594,1038.625 1616.425,1038.8906 Q1616.1906,1039.1563 1615.8156,1039.1563 Q1615.4719,1039.1563 1615.2688,1038.9531 Q1615.0656,1038.7656 1614.9563,1038.25 Q1614.9094,1037.8906 1614.7219,1037.7031 Q1614.3938,1037.3281 1613.7844,1037.1094 Q1613.175,1036.8906 1612.55,1036.8906 Q1611.7844,1036.8906 1611.1438,1037.2188 Q1610.5188,1037.5469 1610.0188,1038.2969 Q1609.5344,1039.0469 1609.5344,1040.0781 L1609.5344,1041.1719 Q1609.5344,1042.4063 1610.425,1043.2344 Q1611.3156,1044.0469 1612.9094,1044.0469 Q1613.8469,1044.0469 1614.5031,1043.7969 Q1614.8938,1043.6406 1615.3156,1043.2031 Q1615.5813,1042.9375 1615.7219,1042.8594 Q1615.8781,1042.7813 1616.0813,1042.7813 Q1616.4094,1042.7813 1616.6594,1043.0469 Q1616.925,1043.2969 1616.925,1043.6406 Q1616.925,1043.9844 1616.5813,1044.3906 Q1616.0813,1044.9688 1615.2844,1045.2969 Q1614.2063,1045.75 1612.9094,1045.75 Q1611.3938,1045.75 1610.1906,1045.125 Q1609.2063,1044.625 1608.5188,1043.5625 Q1607.8313,1042.4844 1607.8313,1041.2031 L1607.8313,1040.0469 Q1607.8313,1038.7188 1608.4406,1037.5781 Q1609.0656,1036.4219 1610.1594,1035.8125 Q1611.2531,1035.1875 1612.4875,1035.1875 Q1613.2219,1035.1875 1613.8625,1035.3594 Q1614.5188,1035.5156 1615.0656,1035.875 Z " fill="#000000"/><text fill="#000000" font-family="sans-serif" font-size="14" lengthAdjust="spacing" textLength="27" x="1626.3" y="1045.7285">Text</text><line style="stroke:#181818;stroke-width:0.5;" x1="1598.3" x2="1655.3" y1="1056" y2="1056"/><line style="stroke:#181818;stroke-width:0.5;" x1="1598.3" x2="1655.3" y1="1064" y2="1064"/></g><!--class Relation--><g id="elem_Relation"><rect codeLine="113" fill="#F1F1F1" height="100.8281" id="Relation" rx="2.5" ry="2.5" style="stroke:#181818;stroke-width:0.5;" width="149" x="1106.3" y="801"/><ellipse cx="1150.55" cy="817" fill="#ADD1B2" rx="11" ry="11" style="stroke:#181818;stroke-width:1.0;"/><path d="M1153.3156,812.875 Q1153.4719,812.6563 1153.6594,812.5469 Q1153.8469,812.4375 1154.0656,812.4375 Q1154.4406,812.4375 1154.675,812.7031 Q1154.9094,812.9531 1154.9094,813.5625 L1154.9094,815.0156 Q1154.9094,815.625 1154.675,815.8906 Q1154.4406,816.1563 1154.0656,816.1563 Q1153.7219,816.1563 1153.5188,815.9531 Q1153.3156,815.7656 1153.2063,815.25 Q1153.1594,814.8906 1152.9719,814.7031 Q1152.6438,814.3281 1152.0344,814.1094 Q1151.425,813.8906 1150.8,813.8906 Q1150.0344,813.8906 1149.3938,814.2188 Q1148.7688,814.5469 1148.2688,815.2969 Q1147.7844,816.0469 1147.7844,817.0781 L1147.7844,818.1719 Q1147.7844,819.4063 1148.675,820.2344 Q1149.5656,821.0469 1151.1594,821.0469 Q1152.0969,821.0469 1152.7531,820.7969 Q1153.1438,820.6406 1153.5656,820.2031 Q1153.8313,819.9375 1153.9719,819.8594 Q1154.1281,819.7813 1154.3313,819.7813 Q1154.6594,819.7813 1154.9094,820.0469 Q1155.175,820.2969 1155.175,820.6406 Q1155.175,820.9844 1154.8313,821.3906 Q1154.3313,821.9688 1153.5344,822.2969 Q1152.4563,822.75 1151.1594,822.75 Q1149.6438,822.75 1148.4406,822.125 Q1147.4563,821.625 1146.7688,820.5625 Q1146.0813,819.4844 1146.0813,818.2031 L1146.0813,817.0469 Q1146.0813,815.7188 1146.6906,814.5781 Q1147.3156,813.4219 1148.4094,812.8125 Q1149.5031,812.1875 1150.7375,812.1875 Q1151.4719,812.1875 1152.1125,812.3594 Q1152.7688,812.5156 1153.3156,812.875 Z " fill="#000000"/><text fill="#000000" font-family="sans-serif" font-size="14" lengthAdjust="spacing" textLength="52" x="1171.05" y="822.7285">Relation</text><line style="stroke:#181818;stroke-width:0.5;" x1="1107.3" x2="1254.3" y1="833" y2="833"/><rect fill="none" height="6" style="stroke:#C82930;stroke-width:1.0;" width="6" x="1114.3" y="844.3047"/><text fill="#000000" font-family="sans-serif" font-size="14" lengthAdjust="spacing" textLength="123" x="1126.3" y="851.5332">type : RelationType</text><rect fill="none" height="6" style="stroke:#C82930;stroke-width:1.0;" width="6" x="1114.3" y="861.9141"/><text fill="#000000" font-family="sans-serif" font-size="14" lengthAdjust="spacing" textLength="100" x="1126.3" y="869.1426">origin : Concept</text><rect fill="none" height="6" style="stroke:#C82930;stroke-width:1.0;" width="6" x="1114.3" y="879.5234"/><text fill="#000000" font-family="sans-serif" font-size="14" lengthAdjust="spacing" textLength="102" x="1126.3" y="886.752">traget : Concept</text><line style="stroke:#181818;stroke-width:0.5;" x1="1107.3" x2="1254.3" y1="893.8281" y2="893.8281"/></g><!--class RelationType--><g id="elem_RelationType"><rect codeLine="122" fill="#F1F1F1" height="136.0469" id="RelationType" rx="2.5" ry="2.5" style="stroke:#181818;stroke-width:0.5;" width="116" x="1134.8" y="980"/><ellipse cx="1149.8" cy="996" fill="#EB937F" rx="11" ry="11" style="stroke:#181818;stroke-width:1.0;"/><path d="M1148.6594,996.7969 L1148.6594,999.2969 L1152.9875,999.2969 L1152.9875,998.375 Q1152.9875,997.7656 1153.2219,997.5 Q1153.4719,997.2344 1153.8469,997.2344 Q1154.2219,997.2344 1154.4563,997.5 Q1154.6906,997.7656 1154.6906,998.375 L1154.6906,1001 L1146.6906,1001 Q1146.0656,1001 1145.8,1000.7656 Q1145.55,1000.5313 1145.55,1000.1406 Q1145.55,999.7656 1145.8156,999.5313 Q1146.0813,999.2969 1146.6906,999.2969 L1146.9563,999.2969 L1146.9563,992.6406 L1146.6906,992.6406 Q1146.0656,992.6406 1145.8,992.4063 Q1145.55,992.1719 1145.55,991.7813 Q1145.55,991.4063 1145.8,991.1719 Q1146.0656,990.9375 1146.6906,990.9375 L1154.3156,990.9375 L1154.3156,993.5313 Q1154.3156,994.1406 1154.0813,994.4063 Q1153.8625,994.6563 1153.4719,994.6563 Q1153.0969,994.6563 1152.8625,994.4063 Q1152.6281,994.1406 1152.6281,993.5313 L1152.6281,992.6406 L1148.6594,992.6406 L1148.6594,995.0938 L1150.1438,995.0938 Q1150.1438,994.4375 1150.2688,994.25 Q1150.5344,993.8438 1151.0031,993.8438 Q1151.3781,993.8438 1151.6125,994.1094 Q1151.8469,994.3594 1151.8469,994.9688 L1151.8469,996.9375 Q1151.8469,997.4844 1151.7219,997.6719 Q1151.4563,998.0625 1151.0031,998.0625 Q1150.5344,998.0625 1150.2688,997.6563 Q1150.1438,997.4688 1150.1438,996.7969 L1148.6594,996.7969 Z " fill="#000000"/><text fill="#000000" font-family="sans-serif" font-size="14" lengthAdjust="spacing" textLength="84" x="1163.8" y="1001.7285">RelationType</text><line style="stroke:#181818;stroke-width:0.5;" x1="1135.8" x2="1249.8" y1="1012" y2="1012"/><text fill="#000000" font-family="sans-serif" font-size="14" lengthAdjust="spacing" textLength="24" x="1140.8" y="1030.5332">Use</text><text fill="#000000" font-family="sans-serif" font-size="14" lengthAdjust="spacing" textLength="72" x="1140.8" y="1048.1426">Association</text><text fill="#000000" font-family="sans-serif" font-size="14" lengthAdjust="spacing" textLength="78" x="1140.8" y="1065.752">Composition</text><text fill="#000000" font-family="sans-serif" font-size="14" lengthAdjust="spacing" textLength="70" x="1140.8" y="1083.3613">Inheritance</text><text fill="#000000" font-family="sans-serif" font-size="14" lengthAdjust="spacing" textLength="77" x="1140.8" y="1100.9707">Aggregation</text><line style="stroke:#181818;stroke-width:0.5;" x1="1135.8" x2="1249.8" y1="1108.0469" y2="1108.0469"/></g><!--link EducationPlatform to User--><g id="link_EducationPlatform_User"><path codeLine="2" d="M308.8,67.22 C308.8,85.16 308.8,91.89 308.8,109.83 " fill="none" id="EducationPlatform-User" style="stroke:#181818;stroke-width:1.0;"/><polygon fill="#181818" points="308.8,55.22,304.8,61.22,308.8,67.22,312.8,61.22,308.8,55.22" style="stroke:#181818;stroke-width:1.0;"/><polygon fill="#181818" points="308.8,115.83,312.8,106.83,308.8,110.83,304.8,106.83,308.8,115.83" style="stroke:#181818;stroke-width:1.0;"/><text fill="#000000" font-family="sans-serif" font-size="13" lengthAdjust="spacing" textLength="8" x="299.775" y="105.1266">+</text></g><!--link EducationPlatform to Topic--><g id="link_EducationPlatform_Topic"><path codeLine="3" d="M375.7503,60.1083 C439.7403,89.5683 531.4,141.85 583.8,225 C611.82,269.46 618.3363,325.6438 619.6663,362.9538 " fill="none" id="EducationPlatform-Topic" style="stroke:#181818;stroke-width:1.0;"/><polygon fill="#181818" points="364.85,55.09,368.6274,61.2326,375.7503,60.1083,371.9729,53.9657,364.85,55.09" style="stroke:#181818;stroke-width:1.0;"/><polygon fill="#181818" points="619.88,368.95,623.5568,359.8132,619.7019,363.9532,615.5619,360.0982,619.88,368.95" style="stroke:#181818;stroke-width:1.0;"/></g><!--link EducationPlatform to Itinerary--><g id="link_EducationPlatform_Itinerary"><path codeLine="4" d="M223.2073,45.5819 C148.3673,58.9619 52.13,81.62 28.8,116 C6,149.59 24.6008,188.4744 47.9908,219.9444 " fill="none" id="EducationPlatform-Itinerary" style="stroke:#181818;stroke-width:1.0;"/><polygon fill="#181818" points="235.02,43.47,228.4097,40.5884,223.2073,45.5819,229.8176,48.4635,235.02,43.47" style="stroke:#181818;stroke-width:1.0;"/><polygon fill="#181818" points="51.57,224.76,49.4116,215.1506,48.5874,220.747,42.9909,219.9228,51.57,224.76" style="stroke:#181818;stroke-width:1.0;"/><text fill="#000000" font-family="sans-serif" font-size="13" lengthAdjust="spacing" textLength="59" x="29.8" y="145.4951">predefined</text></g><!--link EducationPlatform to Itinerary--><g id="link_EducationPlatform_Itinerary"><path codeLine="5" d="M271.6058,63.0924 C252.4158,79.4424 235.89,94.38 214.8,116 C180.56,151.11 148.4272,189.35 123.5572,220.18 " fill="none" id="EducationPlatform-Itinerary-1" style="stroke:#181818;stroke-width:1.0;"/><polygon fill="none" points="280.74,55.31,273.5788,56.1565,271.6058,63.0924,278.767,62.2459,280.74,55.31" style="stroke:#181818;stroke-width:1.0;"/><polygon fill="#181818" points="119.79,224.85,128.5541,220.3565,122.9293,220.9584,122.3274,215.3336,119.79,224.85" style="stroke:#181818;stroke-width:1.0;"/><text fill="#000000" font-family="sans-serif" font-size="13" lengthAdjust="spacing" textLength="43" x="215.8" y="145.4951">custom</text><text fill="#000000" font-family="sans-serif" font-size="13" lengthAdjust="spacing" textLength="5" x="119.6743" y="214.1328">*</text></g><!--link EducationPlatform to Chat--><g id="link_EducationPlatform_Chat"><path codeLine="6" d="M339.7643,63.8446 C383.2743,108.6046 465.6775,193.3681 509.1175,238.0481 " fill="none" id="EducationPlatform-Chat" style="stroke:#181818;stroke-width:1.0;"/><polygon fill="#181818" points="331.4,55.24,332.7139,62.3304,339.7643,63.8446,338.4503,56.7542,331.4,55.24" style="stroke:#181818;stroke-width:1.0;"/><polygon fill="#181818" points="513.3,242.35,509.8942,233.1088,509.8146,238.7651,504.1583,238.6855,513.3,242.35" style="stroke:#181818;stroke-width:1.0;"/></g><!--reverse link User to Teacher--><g id="link_User_Teacher"><path codeLine="11" d="M343.1015,177.1952 C364.2915,199.5552 383.84,220.18 405,242.5 " fill="none" id="User-backto-Teacher" style="stroke:#181818;stroke-width:1.0;"/><polygon fill="none" points="330.72,164.13,338.7465,181.3223,347.4566,173.068,330.72,164.13" style="stroke:#181818;stroke-width:1.0;"/></g><!--reverse link User to Student--><g id="link_User_Student"><path codeLine="12" d="M308.8,182.13 C308.8,204.49 308.8,220.18 308.8,242.5 " fill="none" id="User-backto-Student" style="stroke:#181818;stroke-width:1.0;"/><polygon fill="none" points="308.8,164.13,302.8,182.13,314.8,182.13,308.8,164.13" style="stroke:#181818;stroke-width:1.0;"/></g><!--link User to Solution--><g id="link_User_Solution"><path codeLine="13" d="M268.4689,170.7644 C241.0889,193.1444 214.8,222.84 214.8,265.5 C214.8,265.5 214.8,265.5 214.8,852.5 C214.8,901.81 213.6709,952.1424 212.5509,991.4424 " fill="none" id="User-Solution" style="stroke:#181818;stroke-width:1.0;"/><polygon fill="#181818" points="277.76,163.17,270.583,163.8702,268.4689,170.7644,275.6459,170.0642,277.76,163.17" style="stroke:#181818;stroke-width:1.0;"/><polygon fill="#181818" points="212.38,997.44,216.6348,988.5576,212.5224,992.442,208.638,988.3297,212.38,997.44" style="stroke:#181818;stroke-width:1.0;"/><text fill="#000000" font-family="sans-serif" font-size="13" lengthAdjust="spacing" textLength="8" x="204.0397" y="986.7369">+</text></g><!--link User to Chat--><g id="link_User_Chat"><path codeLine="14" d="M339.93,152.91 C376.46,167.51 438.2,194.13 486.8,225 C494.81,230.09 498.3472,232.5051 505.6472,238.5451 " fill="none" id="User-to-Chat" style="stroke:#181818;stroke-width:1.0;stroke-dasharray:7.0,7.0;"/><polygon fill="#181818" points="510.27,242.37,505.8857,233.5508,506.4177,239.1826,500.7859,239.7145,510.27,242.37" style="stroke:#181818;stroke-width:1.0;"/></g><!--link User to Itinerary--><g id="link_User_Itinerary"><path codeLine="15" d="M277.49,154.21 C254.46,164.27 222.63,178.93 195.8,194 C179.13,203.36 166.6343,211.0799 150.6843,221.6299 " fill="none" id="User-to-Itinerary" style="stroke:#181818;stroke-width:1.0;stroke-dasharray:7.0,7.0;"/><polygon fill="#181818" points="145.68,224.94,155.3932,223.3111,149.8503,222.1816,150.9798,216.6387,145.68,224.94" style="stroke:#181818;stroke-width:1.0;"/></g><!--link Chat to Topic--><g id="link_Chat_Topic"><path codeLine="25" d="M550.43,290.75 C563.97,312.27 581.035,339.3814 596.165,363.4314 " fill="none" id="Chat-to-Topic" style="stroke:#181818;stroke-width:1.0;stroke-dasharray:7.0,7.0;"/><polygon fill="#181818" points="599.36,368.51,597.9533,358.7621,596.6975,364.2778,591.1818,363.0221,599.36,368.51" style="stroke:#181818;stroke-width:1.0;"/><text fill="#000000" font-family="sans-serif" font-size="13" lengthAdjust="spacing" textLength="8" x="586.7011" y="358.1668">+</text></g><!--link Itinerary to Topic--><g id="link_Itinerary_Topic"><path codeLine="31" d="M173.6889,289.0515 C265.5589,312.1115 405.0804,347.1198 509.1804,373.2398 " fill="none" id="Itinerary-Topic" style="stroke:#181818;stroke-width:1.0;"/><polygon fill="none" points="162.05,286.13,166.8957,291.4704,173.6889,289.0515,168.8433,283.7111,162.05,286.13" style="stroke:#181818;stroke-width:1.0;"/><polygon fill="#181818" points="515,374.7,507.2441,368.6299,510.1503,373.4832,505.2971,376.3894,515,374.7" style="stroke:#181818;stroke-width:1.0;"/><text fill="#000000" font-family="sans-serif" font-size="13" lengthAdjust="spacing" textLength="8" x="499.35" y="369.7392">+</text></g><!--link Definition to Justification--><g id="link_Definition_Justification"><path codeLine="36" d="M995.6696,896.5059 C999.1296,951.0559 997.13,1050.47 938.8,1116 C869.46,1193.9 750.348,1216.3762 673.328,1222.9962 " fill="none" id="Definition-Justification" style="stroke:#181818;stroke-width:1.0;"/><polygon fill="#181818" points="994.91,884.53,991.2978,890.7712,995.6696,896.5059,999.2818,890.2648,994.91,884.53" style="stroke:#181818;stroke-width:1.0;"/><polygon fill="#181818" points="667.35,1223.51,676.6595,1226.7246,672.3316,1223.0818,675.9744,1218.754,667.35,1223.51" style="stroke:#181818;stroke-width:1.0;"/><text fill="#000000" font-family="sans-serif" font-size="13" lengthAdjust="spacing" textLength="106" x="992.8" y="1053.4951">[!definition.correct]</text><text fill="#000000" font-family="sans-serif" font-size="13" lengthAdjust="spacing" textLength="5" x="675.3339" y="1219.7195">*</text></g><!--reverse link Exercise to Domain--><g id="link_Exercise_Domain"><path codeLine="51" d="M419.1022,911.2698 C419.2722,944.4698 419.42,973.1 419.59,1006.28 " fill="none" id="Exercise-backto-Domain" style="stroke:#181818;stroke-width:1.0;"/><polygon fill="none" points="419.01,893.27,413.1022,911.3005,425.1021,911.239,419.01,893.27" style="stroke:#181818;stroke-width:1.0;"/></g><!--reverse link Exercise to Question--><g id="link_Exercise_Question"><path codeLine="52" d="M528.56,851.5 C563.24,851.5 579.92,851.5 614.59,851.5 " fill="none" id="Exercise-backto-Question" style="stroke:#181818;stroke-width:1.0;"/><polygon fill="none" points="510.56,851.5,528.56,857.5,528.56,845.5,510.56,851.5" style="stroke:#181818;stroke-width:1.0;"/></g><!--link Exercise to Solution--><g id="link_Exercise_Solution"><path codeLine="53" d="M356.0003,901.3359 C337.3103,919.1359 325.2,931.8 305.8,950 C289.01,965.75 274.7251,978.321 258.1751,993.251 " fill="none" id="Exercise-Solution" style="stroke:#181818;stroke-width:1.0;"/><polygon fill="#181818" points="364.69,893.06,357.5866,894.3014,356.0003,901.3359,363.1038,900.0945,364.69,893.06" style="stroke:#181818;stroke-width:1.0;"/><polygon fill="#181818" points="253.72,997.27,263.0819,994.2116,257.4326,993.9208,257.7233,988.2715,253.72,997.27" style="stroke:#181818;stroke-width:1.0;"/><text fill="#000000" font-family="sans-serif" font-size="13" lengthAdjust="spacing" textLength="8" x="251.1931" y="986.543">+</text></g><!--link Exercise to Solution--><g id="link_Exercise_Solution"><path codeLine="54" d="M388.8052,902.0445 C373.0452,919.8445 360.2,931.8 340.8,950 C323.73,966.01 309.2675,979.0808 290.9475,994.2008 " fill="none" id="Exercise-Solution-1" style="stroke:#181818;stroke-width:1.0;"/><polygon fill="none" points="396.76,893.06,389.7878,894.9006,388.8052,902.0445,395.7774,900.2038,396.76,893.06" style="stroke:#181818;stroke-width:1.0;"/><polygon fill="#181818" points="286.32,998.02,295.8074,995.3762,290.1762,994.8373,290.7151,989.2062,286.32,998.02" style="stroke:#181818;stroke-width:1.0;"/><text fill="#000000" font-family="sans-serif" font-size="13" lengthAdjust="spacing" textLength="5" x="294.3658" y="989.5629">*</text></g><!--link Exercise to Solution--><g id="link_Exercise_Solution"><path codeLine="55" d="M327.29,887.88 C305.23,899.51 283.08,914.14 265.8,932 C248.1,950.29 237.4418,969.7905 228.6018,991.8505 " fill="none" id="Exercise-to-Solution" style="stroke:#181818;stroke-width:1.0;stroke-dasharray:7.0,7.0;"/><polygon fill="#181818" points="226.37,997.42,233.4307,990.5537,228.2299,992.7788,226.0048,987.5779,226.37,997.42" style="stroke:#181818;stroke-width:1.0;"/><text fill="#000000" font-family="sans-serif" font-size="13" lengthAdjust="spacing" textLength="47" x="266.8" y="946.4951">contrast</text></g><!--reverse link Question to MultipleChoice--><g id="link_Question_MultipleChoice"><path codeLine="60" d="M676.2659,901.2056 C659.7059,940.4756 639.09,989.4 624.5,1023.98 " fill="none" id="Question-backto-MultipleChoice" style="stroke:#181818;stroke-width:1.0;"/><polygon fill="none" points="683.26,884.62,670.7374,898.8743,681.7945,903.537,683.26,884.62" style="stroke:#181818;stroke-width:1.0;"/></g><!--reverse link Question to Cloze--><g id="link_Question_Cloze"><path codeLine="61" d="M714.2101,901.5835 C727.0001,937.6235 741.6,978.78 754.39,1014.83 " fill="none" id="Question-backto-Cloze" style="stroke:#181818;stroke-width:1.0;"/><polygon fill="none" points="708.19,884.62,708.5556,903.5901,719.8645,899.5768,708.19,884.62" style="stroke:#181818;stroke-width:1.0;"/></g><!--reverse link Question to Open--><g id="link_Question_Open"><path codeLine="62" d="M749.3961,896.2381 C778.5161,921.0281 804.94,945.21 836.8,980 C849.44,993.8 862.19,1010.55 871.78,1023.85 " fill="none" id="Question-backto-Open" style="stroke:#181818;stroke-width:1.0;"/><polygon fill="none" points="735.69,884.57,745.5067,900.8067,753.2854,891.6694,735.69,884.57" style="stroke:#181818;stroke-width:1.0;"/></g><!--link Solution to Justification--><g id="link_Solution_Justification"><path codeLine="76" d="M284.8813,1105.1913 C294.3213,1111.4913 294.14,1110.85 303.8,1116 C379.14,1156.14 466.5933,1186.2922 528.2733,1205.1922 " fill="none" id="Solution-Justification" style="stroke:#181818;stroke-width:1.0;"/><polygon fill="#181818" points="274.9,1098.53,277.6702,1105.1878,284.8813,1105.1913,282.1111,1098.5335,274.9,1098.53" style="stroke:#181818;stroke-width:1.0;"/><polygon fill="#181818" points="534.01,1206.95,526.5768,1200.4887,529.2294,1205.4851,524.233,1208.1377,534.01,1206.95" style="stroke:#181818;stroke-width:1.0;"/><text fill="#000000" font-family="sans-serif" font-size="13" lengthAdjust="spacing" textLength="100" x="407.8" y="1160.4951">[!solution.correct]</text><text fill="#000000" font-family="sans-serif" font-size="13" lengthAdjust="spacing" textLength="5" x="521.4314" y="1201.4177">*</text></g><!--link Topic to Document--><g id="link_Topic_Document"><path codeLine="81" d="M725.4851,439.1822 C836.6751,479.0722 1013.59,549.05 1160.8,640 C1253.4,697.21 1343.9932,781.642 1386.4832,823.252 " fill="none" id="Topic-Document" style="stroke:#008000;stroke-width:1.0;"/><polygon fill="#008000" points="714.19,435.13,718.4868,440.9211,725.4851,439.1822,721.1883,433.3911,714.19,435.13" style="stroke:#008000;stroke-width:1.0;"/><polygon fill="#008000" points="1390.77,827.45,1387.1385,818.2951,1387.1977,823.9517,1381.5411,824.0108,1390.77,827.45" style="stroke:#008000;stroke-width:1.0;"/><text fill="#000000" font-family="sans-serif" font-size="13" lengthAdjust="spacing" textLength="5" x="1379.2279" y="816.7773">*</text></g><!--reverse link Topic to CompositeTopic--><g id="link_Topic_CompositeTopic"><path codeLine="82" d="M607.5658,453.2475 C605.6758,474.2375 607.71,483.55 610.25,504.48 " fill="none" id="Topic-backto-CompositeTopic" style="stroke:#181818;stroke-width:1.0;"/><polygon fill="none" points="609.18,435.32,601.5899,452.7094,613.5416,453.7856,609.18,435.32" style="stroke:#181818;stroke-width:1.0;"/></g><!--link CompositeTopic to Topic--><g id="link_CompositeTopic_Topic"><path codeLine="95" d="M634.2097,492.5371 C636.2597,471.6071 635.4415,462.2627 632.7915,441.2727 " fill="none" id="CompositeTopic-Topic" style="stroke:#181818;stroke-width:1.0;"/><polygon fill="none" points="633.04,504.48,637.6058,498.8985,634.2097,492.5371,629.6439,498.1187,633.04,504.48" style="stroke:#181818;stroke-width:1.0;"/><polygon fill="#181818" points="632.04,435.32,629.1988,444.7501,632.6663,440.2806,637.1358,443.7481,632.04,435.32" style="stroke:#181818;stroke-width:1.0;"/><text fill="#000000" font-family="sans-serif" font-size="13" lengthAdjust="spacing" textLength="8" x="625.4563" y="455.9808">+</text></g><!--reverse link Topic to SimpleTopic--><g id="link_Topic_SimpleTopic"><path codeLine="83" d="M556.4046,445.1068 C528.9946,463.3068 509.42,476.31 480.12,495.77 " fill="none" id="Topic-backto-SimpleTopic" style="stroke:#181818;stroke-width:1.0;"/><polygon fill="none" points="571.4,435.15,553.0857,440.1083,559.7235,450.1053,571.4,435.15" style="stroke:#181818;stroke-width:1.0;"/></g><!--link SimpleTopic to Concept--><g id="link_SimpleTopic_Concept"><path codeLine="89" d="M524.3909,577.5785 C530.0709,579.3585 524.27,577.46 529.8,579 C675.96,619.69 843.7528,649.2079 948.5528,665.6879 " fill="none" id="SimpleTopic-Concept" style="stroke:#181818;stroke-width:1.0;"/><polygon fill="none" points="512.94,573.99,517.4693,579.6012,524.3909,577.5785,519.8616,571.9673,512.94,573.99" style="stroke:#181818;stroke-width:1.0;"/><polygon fill="#181818" points="954.48,666.62,946.2106,661.2705,949.5407,665.8433,944.9679,669.1734,954.48,666.62" style="stroke:#181818;stroke-width:1.0;"/><text fill="#000000" font-family="sans-serif" font-size="13" lengthAdjust="spacing" textLength="8" x="938.9524" y="662.3685">+</text></g><!--reverse link SimpleTopic to Exercise--><g id="link_SimpleTopic_Exercise"><path codeLine="90" d="M418.8,591.29 C418.8,651.08 418.8,749.9 418.8,809.7 " fill="none" id="SimpleTopic-backto-Exercise" style="stroke:#FF0000;stroke-width:1.0;"/><polygon fill="#FF0000" points="418.8,579.29,414.8,585.29,418.8,591.29,422.8,585.29,418.8,579.29" style="stroke:#FF0000;stroke-width:1.0;"/><text fill="#000000" font-family="sans-serif" font-size="13" lengthAdjust="spacing" textLength="5" x="413.4016" y="799.2688">*</text></g><!--reverse link Document to Audio--><g id="link_Document_Audio"><path codeLine="98" d="M1394.8174,891.7865 C1376.7274,929.2165 1349.02,986.54 1330.94,1023.95 " fill="none" id="Document-backto-Audio" style="stroke:#181818;stroke-width:1.0;"/><polygon fill="none" points="1402.65,875.58,1389.4152,889.1756,1400.2195,894.3974,1402.65,875.58" style="stroke:#181818;stroke-width:1.0;"/></g><!--reverse link Document to Video--><g id="link_Document_Video"><path codeLine="99" d="M1415.7011,893.5608 C1417.4311,930.9908 1420,986.54 1421.73,1023.95 " fill="none" id="Document-backto-Video" style="stroke:#181818;stroke-width:1.0;"/><polygon fill="none" points="1414.87,875.58,1409.7075,893.8378,1421.6947,893.2838,1414.87,875.58" style="stroke:#181818;stroke-width:1.0;"/></g><!--reverse link Document to Image--><g id="link_Document_Image"><path codeLine="100" d="M1436.2504,891.145 C1457.9904,928.575 1491.67,986.54 1513.41,1023.95 " fill="none" id="Document-backto-Image" style="stroke:#181818;stroke-width:1.0;"/><polygon fill="none" points="1427.21,875.58,1431.0621,894.1585,1441.4388,888.1316,1427.21,875.58" style="stroke:#181818;stroke-width:1.0;"/></g><!--reverse link Document to Text--><g id="link_Document_Text"><path codeLine="101" d="M1465.0008,885.5488 C1500.4608,909.1688 1539.84,938.27 1579.8,980 C1592.58,993.34 1604.5,1010.41 1613.14,1023.98 " fill="none" id="Document-backto-Text" style="stroke:#181818;stroke-width:1.0;"/><polygon fill="none" points="1450.02,875.57,1461.6746,890.5424,1468.3271,880.5552,1450.02,875.57" style="stroke:#181818;stroke-width:1.0;"/></g><!--link Concept to Definition--><g id="link_Concept_Definition"><path codeLine="107" d="M1013.2425,733.4138 C1007.5925,742.8438 1008.46,742.82 1004.8,753 C997.29,773.89 994.4705,792.7247 993.1105,812.0847 " fill="none" id="Concept-Definition" style="stroke:#181818;stroke-width:1.0;"/><polygon fill="#181818" points="1019.41,723.12,1012.895,726.211,1013.2425,733.4138,1019.7575,730.3227,1019.41,723.12" style="stroke:#181818;stroke-width:1.0;"/><polygon fill="#181818" points="992.69,818.07,997.3108,809.3724,993.0404,813.0823,989.3305,808.8118,992.69,818.07" style="stroke:#181818;stroke-width:1.0;"/><text fill="#000000" font-family="sans-serif" font-size="13" lengthAdjust="spacing" textLength="40" x="1005.8" y="767.4951">correct</text><text fill="#000000" font-family="sans-serif" font-size="13" lengthAdjust="spacing" textLength="8" x="984.0972" y="807.7383">+</text></g><!--link Concept to Definition--><g id="link_Concept_Definition"><path codeLine="108" d="M955.237,730.6865 C944.937,739.1465 945.11,741.46 938.8,753 C926.88,774.81 936.5158,794.8426 952.8958,813.8726 " fill="none" id="Concept-Definition-1" style="stroke:#181818;stroke-width:1.0;"/><polygon fill="#181818" points="964.51,723.07,957.3347,723.7872,955.237,730.6865,962.4123,729.9693,964.51,723.07" style="stroke:#181818;stroke-width:1.0;"/><polygon fill="#181818" points="956.81,818.42,953.9703,808.9894,953.5482,814.6305,947.9071,814.2083,956.81,818.42" style="stroke:#181818;stroke-width:1.0;"/><text fill="#000000" font-family="sans-serif" font-size="13" lengthAdjust="spacing" textLength="50" x="939.8" y="767.4951">incorrect</text><text fill="#000000" font-family="sans-serif" font-size="13" lengthAdjust="spacing" textLength="5" x="944.0777" y="807.5189">*</text></g><!--link Concept to Relation--><g id="link_Concept_Relation"><path codeLine="109" d="M1153.8513,712.5345 C1175.8313,722.9645 1185.77,732.47 1198.8,753 C1207.8,767.17 1208.7734,778.8662 1204.7434,795.1262 " fill="none" id="Concept-Relation" style="stroke:#181818;stroke-width:1.0;"/><polygon fill="#181818" points="1143.01,707.39,1146.7158,713.576,1153.8513,712.5345,1150.1455,706.3484,1143.01,707.39" style="stroke:#181818;stroke-width:1.0;"/><polygon fill="#181818" points="1203.3,800.95,1209.3476,793.1766,1204.5028,796.0968,1201.5826,791.252,1203.3,800.95" style="stroke:#181818;stroke-width:1.0;"/><text fill="#000000" font-family="sans-serif" font-size="13" lengthAdjust="spacing" textLength="5" x="1201.1125" y="790.2483">*</text></g><!--link Relation to Concept--><g id="link_Relation_Concept"><path codeLine="118" d="M1113.77,800.63 C1103.95,791.48 1094.56,781.48 1086.8,771 C1076.26,756.75 1070.1081,744.7207 1063.9681,728.9607 " fill="none" id="Relation-to-Concept" style="stroke:#181818;stroke-width:1.0;"/><polygon fill="#181818" points="1061.79,723.37,1061.33,733.2081,1063.6051,728.0289,1068.7843,730.304,1061.79,723.37" style="stroke:#181818;stroke-width:1.0;"/><text fill="#000000" font-family="sans-serif" font-size="13" lengthAdjust="spacing" textLength="33" x="1087.8" y="767.4951">target</text></g><!--link Relation to Concept--><g id="link_Relation_Concept"><path codeLine="120" d="M1156.81,800.97 C1148.04,784.97 1137.41,767.61 1125.8,753 C1117.57,742.64 1112.1289,736.5831 1102.3289,727.3131 " fill="none" id="Relation-to-Concept-1" style="stroke:#181818;stroke-width:1.0;"/><polygon fill="#181818" points="1097.97,723.19,1101.7595,732.2806,1101.6024,726.6259,1107.2571,726.4688,1097.97,723.19" style="stroke:#181818;stroke-width:1.0;"/><text fill="#000000" font-family="sans-serif" font-size="13" lengthAdjust="spacing" textLength="31" x="1138.8" y="767.4951">origin</text></g><!--link Concept to Document--><g id="link_Concept_Document"><path codeLine="110" d="M1154.1416,721.7712 C1181.7316,732.5912 1200.62,740.57 1227.8,753 C1278.69,776.28 1330.1799,803.7954 1367.4499,824.4154 " fill="none" id="Concept-Document" style="stroke:#008000;stroke-width:1.0;"/><polygon fill="none" points="1142.97,717.39,1147.0954,723.3045,1154.1416,721.7712,1150.0162,715.8567,1142.97,717.39" style="stroke:#008000;stroke-width:1.0;"/><polygon fill="#008000" points="1372.7,827.32,1366.7614,819.463,1368.325,824.8995,1362.8885,826.4631,1372.7,827.32" style="stroke:#008000;stroke-width:1.0;"/><text fill="#000000" font-family="sans-serif" font-size="13" lengthAdjust="spacing" textLength="5" x="1356.5275" y="816.614">*</text></g><!--link Concept to Exercise--><g id="link_Concept_Exercise"><path codeLine="111" d="M943.1424,709.7253 C851.6424,733.3953 720.35,767.63 596.8,801 C568.78,808.57 544.0997,815.359 516.4397,823.069 " fill="none" id="Concept-Exercise" style="stroke:#FF0000;stroke-width:1.0;"/><polygon fill="none" points="954.76,706.72,947.9494,704.3501,943.1424,709.7253,949.953,712.0952,954.76,706.72" style="stroke:#FF0000;stroke-width:1.0;"/><polygon fill="#FF0000" points="510.66,824.68,520.4035,826.1166,515.4764,823.3375,518.2555,818.4103,510.66,824.68" style="stroke:#FF0000;stroke-width:1.0;"/><text fill="#000000" font-family="sans-serif" font-size="13" lengthAdjust="spacing" textLength="5" x="518.1793" y="819.4057">*</text></g><!--link Relation to RelationType--><g id="link_Relation_RelationType"><path codeLine="119" d="M1184.5997,914.0572 C1186.0597,937.6972 1186.7095,948.3614 1188.2895,973.9014 " fill="none" id="Relation-RelationType" style="stroke:#181818;stroke-width:1.0;"/><polygon fill="#181818" points="1183.86,902.08,1180.2375,908.3152,1184.5997,914.0572,1188.2222,907.822,1183.86,902.08" style="stroke:#181818;stroke-width:1.0;"/><polygon fill="#181818" points="1188.66,979.89,1192.0967,970.6602,1188.3513,974.8995,1184.1119,971.1542,1188.66,979.89" style="stroke:#181818;stroke-width:1.0;"/></g><!--SRC=[XLN9Rjim4BtpAzZqvaBv02Cm43Wvf6ZHnMulGGwqDB69IgHAKcbIr__UuIxATkABpJSpRxP7-hOPQcQu55zRPXwbwkYigXRquiC5_Q51aTlJzhNiUNtEU6Uu0CNK2vtJNa43ZtXkJdXBbsfsKKJKWpQoEyUzt3532DjeerXjN8rxSY34_g1N_wgAhe7LEwmy8oipD22CHooBxMubsy7IU_JoCb2dKog9aBfbMaTUbyqZWNU4M0fxjD-EnMRoimeUkTCzeVYfGh_O-4RA5fW8iB5H6k5FN9ihnx50vXmluvuA_XixR6uRomcaKe2poXaEPEGsYqluY8NmH-wdFhz_roIVoq3n4BCKhgycYcN9Zl7i-GHAsyWvvRWNZoduFN057KuqjRqoYekjxJkl_FOPLCqr939jc75X6EK3eY6iEDC5m18c6fH88_-8AjHO61JVxan5lmsWdLQIxKX5oMBNOgTvRB5wYAZLkHJOa1whEUOvtLduZRL7Fo_lpqDhUD_2SYTv3HFZifL_fzYN7aHIhBNxV9kMYLzBEGZZrt90D7YLASPN8FHpNW8UXoVM3jX0SsIvxlis2Ydjxq3IeCxACsvt9CuqI7SbOasDh8T2LJS1i39mdfZa_lrM0OY7a2ow1BiVfUnwgRa1V-56bXNlS3Z5FHn1UJQYXZwNiVJdHHnHq4coH-7OCaTq-U87Wi9eEy4dzw5oRKIAjEsYXVqhJmsrhrZXVVJWf6d7OUtnNGa__LokXuRB2VQJDp35xZgsXGcsXcUJotQDxj-UL7nAMbPS_Ey1MBYk71bEobrxtzBeFPn74P_md4qykNZLDwPDLkcivxGszN9xN9nSP6HEZw1vwG4BYlWQZy4YyH7ZjjWebn2WSEPc11z88dL_jA6OEJLCeMUsfXQBP6U2VNP2G0nT4H0gn_zRztsjjQovdvOzH-t5yvt0_rvk6F9w_otESElz3_G_]--></g></svg>