<?xml version="1.0" encoding="us-ascii" standalone="no"?><svg xmlns="http://www.w3.org/2000/svg" xmlns:xlink="http://www.w3.org/1999/xlink" contentStyleType="text/css" height="986px" preserveAspectRatio="none" style="width:1293px;height:986px;background:#FFFFFF;" version="1.1" viewBox="0 0 1293 986" width="1293px" zoomAndPan="magnify"><defs/><g><!--cluster ExerciseBattery--><g id="cluster_ExerciseBattery"><path d="M160.7,119 L272.7,119 A3.75,3.75 0 0 1 275.2,121.5 L282.2,142.6094 L772.7,142.6094 A2.5,2.5 0 0 1 775.2,145.1094 L775.2,632.5 A2.5,2.5 0 0 1 772.7,635 L160.7,635 A2.5,2.5 0 0 1 158.2,632.5 L158.2,121.5 A2.5,2.5 0 0 1 160.7,119 " fill="#FFFF00" style="stroke:#000000;stroke-width:1.5;"/><line style="stroke:#000000;stroke-width:1.5;" x1="158.2" x2="282.2" y1="142.6094" y2="142.6094"/><text fill="#000000" font-family="sans-serif" font-size="14" font-weight="bold" lengthAdjust="spacing" textLength="111" x="162.2" y="135.5332">ExerciseBattery</text></g><!--class Exercise--><g id="elem_Exercise"><rect codeLine="81" fill="#F1F1F1" height="48" id="Exercise" rx="2.5" ry="2.5" style="stroke:#181818;stroke-width:0.5;" width="85" x="607.7" y="155"/><ellipse cx="622.7" cy="171" fill="#A9DCDF" rx="11" ry="11" style="stroke:#181818;stroke-width:1.0;"/><path d="M624.8875,172.7656 L620.7469,172.7656 L620.325,173.7969 L620.7469,173.7969 Q621.3563,173.7969 621.6219,174.0313 Q621.8875,174.2656 621.8875,174.6563 Q621.8875,175.0313 621.6219,175.2656 Q621.3563,175.5 620.7469,175.5 L618.45,175.5 Q617.8406,175.5 617.5906,175.2656 Q617.325,175.0313 617.325,174.6406 Q617.325,174.2656 617.6063,174.0313 Q617.8719,173.7813 618.4969,173.7969 L621.1688,167.1406 L620.0594,167.1406 Q619.45,167.1406 619.1844,166.9063 Q618.9188,166.6719 618.9188,166.2813 Q618.9188,165.9063 619.1844,165.6719 Q619.45,165.4375 620.0594,165.4375 L623.7313,165.4375 L627.1219,173.7969 Q627.7156,173.7969 627.9031,173.9375 Q628.2938,174.2031 628.2938,174.6563 Q628.2938,175.0313 628.0281,175.2656 Q627.7781,175.5 627.1688,175.5 L624.8719,175.5 Q624.2625,175.5 623.9969,175.2656 Q623.7313,175.0313 623.7313,174.6406 Q623.7313,174.2656 623.9969,174.0313 Q624.2625,173.7969 624.8719,173.7969 L625.2938,173.7969 L624.8875,172.7656 Z M624.1688,171.0625 L622.8094,167.6875 L621.4344,171.0625 L624.1688,171.0625 Z " fill="#000000"/><text fill="#000000" font-family="sans-serif" font-size="14" font-style="italic" lengthAdjust="spacing" textLength="53" x="636.7" y="176.7285">Exercise</text><line style="stroke:#181818;stroke-width:0.5;" x1="608.7" x2="691.7" y1="187" y2="187"/><line style="stroke:#181818;stroke-width:0.5;" x1="608.7" x2="691.7" y1="195" y2="195"/></g><!--class QuestionExercise--><g id="elem_QuestionExercise"><rect codeLine="98" fill="#F1F1F1" height="65.6094" id="QuestionExercise" rx="2.5" ry="2.5" style="stroke:#181818;stroke-width:0.5;" width="142" x="439.2" y="264"/><ellipse cx="454.2" cy="280" fill="#ADD1B2" rx="11" ry="11" style="stroke:#181818;stroke-width:1.0;"/><path d="M456.9656,275.875 Q457.1219,275.6563 457.3094,275.5469 Q457.4969,275.4375 457.7156,275.4375 Q458.0906,275.4375 458.325,275.7031 Q458.5594,275.9531 458.5594,276.5625 L458.5594,278.0156 Q458.5594,278.625 458.325,278.8906 Q458.0906,279.1563 457.7156,279.1563 Q457.3719,279.1563 457.1688,278.9531 Q456.9656,278.7656 456.8563,278.25 Q456.8094,277.8906 456.6219,277.7031 Q456.2938,277.3281 455.6844,277.1094 Q455.075,276.8906 454.45,276.8906 Q453.6844,276.8906 453.0438,277.2188 Q452.4188,277.5469 451.9188,278.2969 Q451.4344,279.0469 451.4344,280.0781 L451.4344,281.1719 Q451.4344,282.4063 452.325,283.2344 Q453.2156,284.0469 454.8094,284.0469 Q455.7469,284.0469 456.4031,283.7969 Q456.7938,283.6406 457.2156,283.2031 Q457.4813,282.9375 457.6219,282.8594 Q457.7781,282.7813 457.9813,282.7813 Q458.3094,282.7813 458.5594,283.0469 Q458.825,283.2969 458.825,283.6406 Q458.825,283.9844 458.4813,284.3906 Q457.9813,284.9688 457.1844,285.2969 Q456.1063,285.75 454.8094,285.75 Q453.2938,285.75 452.0906,285.125 Q451.1063,284.625 450.4188,283.5625 Q449.7313,282.4844 449.7313,281.2031 L449.7313,280.0469 Q449.7313,278.7188 450.3406,277.5781 Q450.9656,276.4219 452.0594,275.8125 Q453.1531,275.1875 454.3875,275.1875 Q455.1219,275.1875 455.7625,275.3594 Q456.4188,275.5156 456.9656,275.875 Z " fill="#000000"/><text fill="#000000" font-family="sans-serif" font-size="14" lengthAdjust="spacing" textLength="110" x="468.2" y="285.7285">QuestionExercise</text><line style="stroke:#181818;stroke-width:0.5;" x1="440.2" x2="580.2" y1="296" y2="296"/><text fill="#000000" font-family="sans-serif" font-size="14" lengthAdjust="spacing" textLength="111" x="445.2" y="314.5332">statement : String</text><line style="stroke:#181818;stroke-width:0.5;" x1="440.2" x2="580.2" y1="321.6094" y2="321.6094"/></g><!--class Domain--><g id="elem_Domain"><rect codeLine="92" fill="#F1F1F1" height="65.6094" id="Domain" rx="2.5" ry="2.5" style="stroke:#181818;stroke-width:0.5;" width="163" x="475.7" y="391"/><ellipse cx="528.95" cy="407" fill="#ADD1B2" rx="11" ry="11" style="stroke:#181818;stroke-width:1.0;"/><path d="M531.7156,402.875 Q531.8719,402.6563 532.0594,402.5469 Q532.2469,402.4375 532.4656,402.4375 Q532.8406,402.4375 533.075,402.7031 Q533.3094,402.9531 533.3094,403.5625 L533.3094,405.0156 Q533.3094,405.625 533.075,405.8906 Q532.8406,406.1563 532.4656,406.1563 Q532.1219,406.1563 531.9188,405.9531 Q531.7156,405.7656 531.6063,405.25 Q531.5594,404.8906 531.3719,404.7031 Q531.0438,404.3281 530.4344,404.1094 Q529.825,403.8906 529.2,403.8906 Q528.4344,403.8906 527.7938,404.2188 Q527.1688,404.5469 526.6688,405.2969 Q526.1844,406.0469 526.1844,407.0781 L526.1844,408.1719 Q526.1844,409.4063 527.075,410.2344 Q527.9656,411.0469 529.5594,411.0469 Q530.4969,411.0469 531.1531,410.7969 Q531.5438,410.6406 531.9656,410.2031 Q532.2313,409.9375 532.3719,409.8594 Q532.5281,409.7813 532.7313,409.7813 Q533.0594,409.7813 533.3094,410.0469 Q533.575,410.2969 533.575,410.6406 Q533.575,410.9844 533.2313,411.3906 Q532.7313,411.9688 531.9344,412.2969 Q530.8563,412.75 529.5594,412.75 Q528.0438,412.75 526.8406,412.125 Q525.8563,411.625 525.1688,410.5625 Q524.4813,409.4844 524.4813,408.2031 L524.4813,407.0469 Q524.4813,405.7188 525.0906,404.5781 Q525.7156,403.4219 526.8094,402.8125 Q527.9031,402.1875 529.1375,402.1875 Q529.8719,402.1875 530.5125,402.3594 Q531.1688,402.5156 531.7156,402.875 Z " fill="#000000"/><text fill="#000000" font-family="sans-serif" font-size="14" lengthAdjust="spacing" textLength="48" x="549.45" y="412.7285">Domain</text><line style="stroke:#181818;stroke-width:0.5;" x1="476.7" x2="637.7" y1="423" y2="423"/><text fill="#000000" font-family="sans-serif" font-size="14" lengthAdjust="spacing" textLength="151" x="481.7" y="441.5332">versions : List&lt;Domain&gt;</text><line style="stroke:#181818;stroke-width:0.5;" x1="476.7" x2="637.7" y1="448.6094" y2="448.6094"/></g><!--class Application--><g id="elem_Application"><rect codeLine="114" fill="#F1F1F1" height="100.8281" id="Application" rx="2.5" ry="2.5" style="stroke:#181818;stroke-width:0.5;" width="175" x="509.7" y="518"/><ellipse cx="558.45" cy="534" fill="#ADD1B2" rx="11" ry="11" style="stroke:#181818;stroke-width:1.0;"/><path d="M561.2156,529.875 Q561.3719,529.6563 561.5594,529.5469 Q561.7469,529.4375 561.9656,529.4375 Q562.3406,529.4375 562.575,529.7031 Q562.8094,529.9531 562.8094,530.5625 L562.8094,532.0156 Q562.8094,532.625 562.575,532.8906 Q562.3406,533.1563 561.9656,533.1563 Q561.6219,533.1563 561.4188,532.9531 Q561.2156,532.7656 561.1063,532.25 Q561.0594,531.8906 560.8719,531.7031 Q560.5438,531.3281 559.9344,531.1094 Q559.325,530.8906 558.7,530.8906 Q557.9344,530.8906 557.2938,531.2188 Q556.6688,531.5469 556.1688,532.2969 Q555.6844,533.0469 555.6844,534.0781 L555.6844,535.1719 Q555.6844,536.4063 556.575,537.2344 Q557.4656,538.0469 559.0594,538.0469 Q559.9969,538.0469 560.6531,537.7969 Q561.0438,537.6406 561.4656,537.2031 Q561.7313,536.9375 561.8719,536.8594 Q562.0281,536.7813 562.2313,536.7813 Q562.5594,536.7813 562.8094,537.0469 Q563.075,537.2969 563.075,537.6406 Q563.075,537.9844 562.7313,538.3906 Q562.2313,538.9688 561.4344,539.2969 Q560.3563,539.75 559.0594,539.75 Q557.5438,539.75 556.3406,539.125 Q555.3563,538.625 554.6688,537.5625 Q553.9813,536.4844 553.9813,535.2031 L553.9813,534.0469 Q553.9813,532.7188 554.5906,531.5781 Q555.2156,530.4219 556.3094,529.8125 Q557.4031,529.1875 558.6375,529.1875 Q559.3719,529.1875 560.0125,529.3594 Q560.6688,529.5156 561.2156,529.875 Z " fill="#000000"/><text fill="#000000" font-family="sans-serif" font-size="14" lengthAdjust="spacing" textLength="69" x="578.95" y="539.7285">Application</text><line style="stroke:#181818;stroke-width:0.5;" x1="510.7" x2="683.7" y1="550" y2="550"/><rect fill="none" height="6" style="stroke:#C82930;stroke-width:1.0;" width="6" x="517.7" y="561.3047"/><text fill="#000000" font-family="sans-serif" font-size="14" lengthAdjust="spacing" textLength="107" x="529.7" y="568.5332">correct : boolean</text><rect fill="none" height="6" style="stroke:#C82930;stroke-width:1.0;" width="6" x="517.7" y="578.9141"/><text fill="#000000" font-family="sans-serif" font-size="14" lengthAdjust="spacing" textLength="149" x="529.7" y="586.1426">evaluated : booleanean</text><rect fill="none" height="6" style="stroke:#C82930;stroke-width:1.0;" width="6" x="517.7" y="596.5234"/><text fill="#000000" font-family="sans-serif" font-size="14" lengthAdjust="spacing" textLength="98" x="529.7" y="603.752">solution : String</text><line style="stroke:#181818;stroke-width:0.5;" x1="510.7" x2="683.7" y1="610.8281" y2="610.8281"/></g><!--class DomainExercise--><g id="elem_DomainExercise"><rect codeLine="86" fill="#F1F1F1" height="48" id="DomainExercise" rx="2.5" ry="2.5" style="stroke:#181818;stroke-width:0.5;" width="133" x="616.7" y="273"/><ellipse cx="631.7" cy="289" fill="#ADD1B2" rx="11" ry="11" style="stroke:#181818;stroke-width:1.0;"/><path d="M634.4656,284.875 Q634.6219,284.6563 634.8094,284.5469 Q634.9969,284.4375 635.2156,284.4375 Q635.5906,284.4375 635.825,284.7031 Q636.0594,284.9531 636.0594,285.5625 L636.0594,287.0156 Q636.0594,287.625 635.825,287.8906 Q635.5906,288.1563 635.2156,288.1563 Q634.8719,288.1563 634.6688,287.9531 Q634.4656,287.7656 634.3563,287.25 Q634.3094,286.8906 634.1219,286.7031 Q633.7938,286.3281 633.1844,286.1094 Q632.575,285.8906 631.95,285.8906 Q631.1844,285.8906 630.5438,286.2188 Q629.9188,286.5469 629.4188,287.2969 Q628.9344,288.0469 628.9344,289.0781 L628.9344,290.1719 Q628.9344,291.4063 629.825,292.2344 Q630.7156,293.0469 632.3094,293.0469 Q633.2469,293.0469 633.9031,292.7969 Q634.2938,292.6406 634.7156,292.2031 Q634.9813,291.9375 635.1219,291.8594 Q635.2781,291.7813 635.4813,291.7813 Q635.8094,291.7813 636.0594,292.0469 Q636.325,292.2969 636.325,292.6406 Q636.325,292.9844 635.9813,293.3906 Q635.4813,293.9688 634.6844,294.2969 Q633.6063,294.75 632.3094,294.75 Q630.7938,294.75 629.5906,294.125 Q628.6063,293.625 627.9188,292.5625 Q627.2313,291.4844 627.2313,290.2031 L627.2313,289.0469 Q627.2313,287.7188 627.8406,286.5781 Q628.4656,285.4219 629.5594,284.8125 Q630.6531,284.1875 631.8875,284.1875 Q632.6219,284.1875 633.2625,284.3594 Q633.9188,284.5156 634.4656,284.875 Z " fill="#000000"/><text fill="#000000" font-family="sans-serif" font-size="14" lengthAdjust="spacing" textLength="101" x="645.7" y="294.7285">DomainExercise</text><line style="stroke:#181818;stroke-width:0.5;" x1="617.7" x2="748.7" y1="305" y2="305"/><line style="stroke:#181818;stroke-width:0.5;" x1="617.7" x2="748.7" y1="313" y2="313"/></g><!--class MultipleChoice--><g id="elem_MultipleChoice"><rect codeLine="111" fill="#F1F1F1" height="48" id="MultipleChoice" rx="2.5" ry="2.5" style="stroke:#181818;stroke-width:0.5;" width="124" x="174.2" y="400"/><ellipse cx="189.2" cy="416" fill="#ADD1B2" rx="11" ry="11" style="stroke:#181818;stroke-width:1.0;"/><path d="M191.9656,411.875 Q192.1219,411.6563 192.3094,411.5469 Q192.4969,411.4375 192.7156,411.4375 Q193.0906,411.4375 193.325,411.7031 Q193.5594,411.9531 193.5594,412.5625 L193.5594,414.0156 Q193.5594,414.625 193.325,414.8906 Q193.0906,415.1563 192.7156,415.1563 Q192.3719,415.1563 192.1688,414.9531 Q191.9656,414.7656 191.8563,414.25 Q191.8094,413.8906 191.6219,413.7031 Q191.2938,413.3281 190.6844,413.1094 Q190.075,412.8906 189.45,412.8906 Q188.6844,412.8906 188.0438,413.2188 Q187.4188,413.5469 186.9188,414.2969 Q186.4344,415.0469 186.4344,416.0781 L186.4344,417.1719 Q186.4344,418.4063 187.325,419.2344 Q188.2156,420.0469 189.8094,420.0469 Q190.7469,420.0469 191.4031,419.7969 Q191.7938,419.6406 192.2156,419.2031 Q192.4813,418.9375 192.6219,418.8594 Q192.7781,418.7813 192.9813,418.7813 Q193.3094,418.7813 193.5594,419.0469 Q193.825,419.2969 193.825,419.6406 Q193.825,419.9844 193.4813,420.3906 Q192.9813,420.9688 192.1844,421.2969 Q191.1063,421.75 189.8094,421.75 Q188.2938,421.75 187.0906,421.125 Q186.1063,420.625 185.4188,419.5625 Q184.7313,418.4844 184.7313,417.2031 L184.7313,416.0469 Q184.7313,414.7188 185.3406,413.5781 Q185.9656,412.4219 187.0594,411.8125 Q188.1531,411.1875 189.3875,411.1875 Q190.1219,411.1875 190.7625,411.3594 Q191.4188,411.5156 191.9656,411.875 Z " fill="#000000"/><text fill="#000000" font-family="sans-serif" font-size="14" lengthAdjust="spacing" textLength="92" x="203.2" y="421.7285">MultipleChoice</text><line style="stroke:#181818;stroke-width:0.5;" x1="175.2" x2="297.2" y1="432" y2="432"/><line style="stroke:#181818;stroke-width:0.5;" x1="175.2" x2="297.2" y1="440" y2="440"/></g><!--class Cloze--><g id="elem_Cloze"><rect codeLine="107" fill="#F1F1F1" height="65.6094" id="Cloze" rx="2.5" ry="2.5" style="stroke:#181818;stroke-width:0.5;" width="107" x="333.7" y="391"/><ellipse cx="366.7" cy="407" fill="#ADD1B2" rx="11" ry="11" style="stroke:#181818;stroke-width:1.0;"/><path d="M369.4656,402.875 Q369.6219,402.6563 369.8094,402.5469 Q369.9969,402.4375 370.2156,402.4375 Q370.5906,402.4375 370.825,402.7031 Q371.0594,402.9531 371.0594,403.5625 L371.0594,405.0156 Q371.0594,405.625 370.825,405.8906 Q370.5906,406.1563 370.2156,406.1563 Q369.8719,406.1563 369.6688,405.9531 Q369.4656,405.7656 369.3563,405.25 Q369.3094,404.8906 369.1219,404.7031 Q368.7938,404.3281 368.1844,404.1094 Q367.575,403.8906 366.95,403.8906 Q366.1844,403.8906 365.5438,404.2188 Q364.9188,404.5469 364.4188,405.2969 Q363.9344,406.0469 363.9344,407.0781 L363.9344,408.1719 Q363.9344,409.4063 364.825,410.2344 Q365.7156,411.0469 367.3094,411.0469 Q368.2469,411.0469 368.9031,410.7969 Q369.2938,410.6406 369.7156,410.2031 Q369.9813,409.9375 370.1219,409.8594 Q370.2781,409.7813 370.4813,409.7813 Q370.8094,409.7813 371.0594,410.0469 Q371.325,410.2969 371.325,410.6406 Q371.325,410.9844 370.9813,411.3906 Q370.4813,411.9688 369.6844,412.2969 Q368.6063,412.75 367.3094,412.75 Q365.7938,412.75 364.5906,412.125 Q363.6063,411.625 362.9188,410.5625 Q362.2313,409.4844 362.2313,408.2031 L362.2313,407.0469 Q362.2313,405.7188 362.8406,404.5781 Q363.4656,403.4219 364.5594,402.8125 Q365.6531,402.1875 366.8875,402.1875 Q367.6219,402.1875 368.2625,402.3594 Q368.9188,402.5156 369.4656,402.875 Z " fill="#000000"/><text fill="#000000" font-family="sans-serif" font-size="14" lengthAdjust="spacing" textLength="35" x="384.7" y="412.7285">Cloze</text><line style="stroke:#181818;stroke-width:0.5;" x1="334.7" x2="439.7" y1="423" y2="423"/><text fill="#000000" font-family="sans-serif" font-size="14" lengthAdjust="spacing" textLength="95" x="339.7" y="441.5332">blankCount: int</text><line style="stroke:#181818;stroke-width:0.5;" x1="334.7" x2="439.7" y1="448.6094" y2="448.6094"/></g><!--class Open--><g id="elem_Open"><rect fill="#F1F1F1" height="48" id="Open" rx="2.5" ry="2.5" style="stroke:#181818;stroke-width:0.5;" width="67" x="691.7" y="400"/><ellipse cx="706.7" cy="416" fill="#ADD1B2" rx="11" ry="11" style="stroke:#181818;stroke-width:1.0;"/><path d="M709.4656,411.875 Q709.6219,411.6563 709.8094,411.5469 Q709.9969,411.4375 710.2156,411.4375 Q710.5906,411.4375 710.825,411.7031 Q711.0594,411.9531 711.0594,412.5625 L711.0594,414.0156 Q711.0594,414.625 710.825,414.8906 Q710.5906,415.1563 710.2156,415.1563 Q709.8719,415.1563 709.6688,414.9531 Q709.4656,414.7656 709.3563,414.25 Q709.3094,413.8906 709.1219,413.7031 Q708.7938,413.3281 708.1844,413.1094 Q707.575,412.8906 706.95,412.8906 Q706.1844,412.8906 705.5438,413.2188 Q704.9188,413.5469 704.4188,414.2969 Q703.9344,415.0469 703.9344,416.0781 L703.9344,417.1719 Q703.9344,418.4063 704.825,419.2344 Q705.7156,420.0469 707.3094,420.0469 Q708.2469,420.0469 708.9031,419.7969 Q709.2938,419.6406 709.7156,419.2031 Q709.9813,418.9375 710.1219,418.8594 Q710.2781,418.7813 710.4813,418.7813 Q710.8094,418.7813 711.0594,419.0469 Q711.325,419.2969 711.325,419.6406 Q711.325,419.9844 710.9813,420.3906 Q710.4813,420.9688 709.6844,421.2969 Q708.6063,421.75 707.3094,421.75 Q705.7938,421.75 704.5906,421.125 Q703.6063,420.625 702.9188,419.5625 Q702.2313,418.4844 702.2313,417.2031 L702.2313,416.0469 Q702.2313,414.7188 702.8406,413.5781 Q703.4656,412.4219 704.5594,411.8125 Q705.6531,411.1875 706.8875,411.1875 Q707.6219,411.1875 708.2625,411.3594 Q708.9188,411.5156 709.4656,411.875 Z " fill="#000000"/><text fill="#000000" font-family="sans-serif" font-size="14" lengthAdjust="spacing" textLength="35" x="720.7" y="421.7285">Open</text><line style="stroke:#181818;stroke-width:0.5;" x1="692.7" x2="757.7" y1="432" y2="432"/><line style="stroke:#181818;stroke-width:0.5;" x1="692.7" x2="757.7" y1="440" y2="440"/></g><!--class Answer--><g id="elem_Answer"><rect fill="#F1F1F1" height="48" id="Answer" rx="2.5" ry="2.5" style="stroke:#181818;stroke-width:0.5;" width="78" x="326.2" y="273"/><ellipse cx="341.2" cy="289" fill="#ADD1B2" rx="11" ry="11" style="stroke:#181818;stroke-width:1.0;"/><path d="M343.9656,284.875 Q344.1219,284.6563 344.3094,284.5469 Q344.4969,284.4375 344.7156,284.4375 Q345.0906,284.4375 345.325,284.7031 Q345.5594,284.9531 345.5594,285.5625 L345.5594,287.0156 Q345.5594,287.625 345.325,287.8906 Q345.0906,288.1563 344.7156,288.1563 Q344.3719,288.1563 344.1688,287.9531 Q343.9656,287.7656 343.8563,287.25 Q343.8094,286.8906 343.6219,286.7031 Q343.2938,286.3281 342.6844,286.1094 Q342.075,285.8906 341.45,285.8906 Q340.6844,285.8906 340.0438,286.2188 Q339.4188,286.5469 338.9188,287.2969 Q338.4344,288.0469 338.4344,289.0781 L338.4344,290.1719 Q338.4344,291.4063 339.325,292.2344 Q340.2156,293.0469 341.8094,293.0469 Q342.7469,293.0469 343.4031,292.7969 Q343.7938,292.6406 344.2156,292.2031 Q344.4813,291.9375 344.6219,291.8594 Q344.7781,291.7813 344.9813,291.7813 Q345.3094,291.7813 345.5594,292.0469 Q345.825,292.2969 345.825,292.6406 Q345.825,292.9844 345.4813,293.3906 Q344.9813,293.9688 344.1844,294.2969 Q343.1063,294.75 341.8094,294.75 Q340.2938,294.75 339.0906,294.125 Q338.1063,293.625 337.4188,292.5625 Q336.7313,291.4844 336.7313,290.2031 L336.7313,289.0469 Q336.7313,287.7188 337.3406,286.5781 Q337.9656,285.4219 339.0594,284.8125 Q340.1531,284.1875 341.3875,284.1875 Q342.1219,284.1875 342.7625,284.3594 Q343.4188,284.5156 343.9656,284.875 Z " fill="#000000"/><text fill="#000000" font-family="sans-serif" font-size="14" lengthAdjust="spacing" textLength="46" x="355.2" y="294.7285">Answer</text><line style="stroke:#181818;stroke-width:0.5;" x1="327.2" x2="403.2" y1="305" y2="305"/><line style="stroke:#181818;stroke-width:0.5;" x1="327.2" x2="403.2" y1="313" y2="313"/></g><!--class EducationPlatform--><g id="elem_EducationPlatform"><rect fill="#F1F1F1" height="48" id="EducationPlatform" rx="2.5" ry="2.5" style="stroke:#181818;stroke-width:0.5;" width="147" x="692.7" y="7"/><ellipse cx="707.7" cy="23" fill="#ADD1B2" rx="11" ry="11" style="stroke:#181818;stroke-width:1.0;"/><path d="M710.4656,18.875 Q710.6219,18.6563 710.8094,18.5469 Q710.9969,18.4375 711.2156,18.4375 Q711.5906,18.4375 711.825,18.7031 Q712.0594,18.9531 712.0594,19.5625 L712.0594,21.0156 Q712.0594,21.625 711.825,21.8906 Q711.5906,22.1563 711.2156,22.1563 Q710.8719,22.1563 710.6688,21.9531 Q710.4656,21.7656 710.3563,21.25 Q710.3094,20.8906 710.1219,20.7031 Q709.7938,20.3281 709.1844,20.1094 Q708.575,19.8906 707.95,19.8906 Q707.1844,19.8906 706.5438,20.2188 Q705.9188,20.5469 705.4188,21.2969 Q704.9344,22.0469 704.9344,23.0781 L704.9344,24.1719 Q704.9344,25.4063 705.825,26.2344 Q706.7156,27.0469 708.3094,27.0469 Q709.2469,27.0469 709.9031,26.7969 Q710.2938,26.6406 710.7156,26.2031 Q710.9813,25.9375 711.1219,25.8594 Q711.2781,25.7813 711.4813,25.7813 Q711.8094,25.7813 712.0594,26.0469 Q712.325,26.2969 712.325,26.6406 Q712.325,26.9844 711.9813,27.3906 Q711.4813,27.9688 710.6844,28.2969 Q709.6063,28.75 708.3094,28.75 Q706.7938,28.75 705.5906,28.125 Q704.6063,27.625 703.9188,26.5625 Q703.2313,25.4844 703.2313,24.2031 L703.2313,23.0469 Q703.2313,21.7188 703.8406,20.5781 Q704.4656,19.4219 705.5594,18.8125 Q706.6531,18.1875 707.8875,18.1875 Q708.6219,18.1875 709.2625,18.3594 Q709.9188,18.5156 710.4656,18.875 Z " fill="#000000"/><text fill="#000000" font-family="sans-serif" font-size="14" lengthAdjust="spacing" textLength="115" x="721.7" y="28.7285">EducationPlatform</text><line style="stroke:#181818;stroke-width:0.5;" x1="693.7" x2="838.7" y1="39" y2="39"/><line style="stroke:#181818;stroke-width:0.5;" x1="693.7" x2="838.7" y1="47" y2="47"/></g><!--class User--><g id="elem_User"><rect codeLine="11" fill="#F1F1F1" height="48" id="User" rx="2.5" ry="2.5" style="stroke:#181818;stroke-width:0.5;" width="62" x="803.2" y="155"/><ellipse cx="818.2" cy="171" fill="#A9DCDF" rx="11" ry="11" style="stroke:#181818;stroke-width:1.0;"/><path d="M820.3875,172.7656 L816.2469,172.7656 L815.825,173.7969 L816.2469,173.7969 Q816.8563,173.7969 817.1219,174.0313 Q817.3875,174.2656 817.3875,174.6563 Q817.3875,175.0313 817.1219,175.2656 Q816.8563,175.5 816.2469,175.5 L813.95,175.5 Q813.3406,175.5 813.0906,175.2656 Q812.825,175.0313 812.825,174.6406 Q812.825,174.2656 813.1063,174.0313 Q813.3719,173.7813 813.9969,173.7969 L816.6688,167.1406 L815.5594,167.1406 Q814.95,167.1406 814.6844,166.9063 Q814.4188,166.6719 814.4188,166.2813 Q814.4188,165.9063 814.6844,165.6719 Q814.95,165.4375 815.5594,165.4375 L819.2313,165.4375 L822.6219,173.7969 Q823.2156,173.7969 823.4031,173.9375 Q823.7938,174.2031 823.7938,174.6563 Q823.7938,175.0313 823.5281,175.2656 Q823.2781,175.5 822.6688,175.5 L820.3719,175.5 Q819.7625,175.5 819.4969,175.2656 Q819.2313,175.0313 819.2313,174.6406 Q819.2313,174.2656 819.4969,174.0313 Q819.7625,173.7969 820.3719,173.7969 L820.7938,173.7969 L820.3875,172.7656 Z M819.6688,171.0625 L818.3094,167.6875 L816.9344,171.0625 L819.6688,171.0625 Z " fill="#000000"/><text fill="#000000" font-family="sans-serif" font-size="14" font-style="italic" lengthAdjust="spacing" textLength="30" x="832.2" y="176.7285">User</text><line style="stroke:#181818;stroke-width:0.5;" x1="804.2" x2="864.2" y1="187" y2="187"/><line style="stroke:#181818;stroke-width:0.5;" x1="804.2" x2="864.2" y1="195" y2="195"/></g><!--class Topic--><g id="elem_Topic"><rect codeLine="40" fill="#F1F1F1" height="48" id="Topic" rx="2.5" ry="2.5" style="stroke:#181818;stroke-width:0.5;" width="67" x="1051.7" y="273"/><ellipse cx="1066.7" cy="289" fill="#A9DCDF" rx="11" ry="11" style="stroke:#181818;stroke-width:1.0;"/><path d="M1068.8875,290.7656 L1064.7469,290.7656 L1064.325,291.7969 L1064.7469,291.7969 Q1065.3562,291.7969 1065.6219,292.0313 Q1065.8875,292.2656 1065.8875,292.6563 Q1065.8875,293.0313 1065.6219,293.2656 Q1065.3562,293.5 1064.7469,293.5 L1062.45,293.5 Q1061.8406,293.5 1061.5906,293.2656 Q1061.325,293.0313 1061.325,292.6406 Q1061.325,292.2656 1061.6062,292.0313 Q1061.8719,291.7813 1062.4969,291.7969 L1065.1687,285.1406 L1064.0594,285.1406 Q1063.45,285.1406 1063.1844,284.9063 Q1062.9187,284.6719 1062.9187,284.2813 Q1062.9187,283.9063 1063.1844,283.6719 Q1063.45,283.4375 1064.0594,283.4375 L1067.7312,283.4375 L1071.1219,291.7969 Q1071.7156,291.7969 1071.9031,291.9375 Q1072.2937,292.2031 1072.2937,292.6563 Q1072.2937,293.0313 1072.0281,293.2656 Q1071.7781,293.5 1071.1687,293.5 L1068.8719,293.5 Q1068.2625,293.5 1067.9969,293.2656 Q1067.7312,293.0313 1067.7312,292.6406 Q1067.7312,292.2656 1067.9969,292.0313 Q1068.2625,291.7969 1068.8719,291.7969 L1069.2937,291.7969 L1068.8875,290.7656 Z M1068.1687,289.0625 L1066.8094,285.6875 L1065.4344,289.0625 L1068.1687,289.0625 Z " fill="#000000"/><text fill="#000000" font-family="sans-serif" font-size="14" font-style="italic" lengthAdjust="spacing" textLength="35" x="1080.7" y="294.7285">Topic</text><line style="stroke:#181818;stroke-width:0.5;" x1="1052.7" x2="1117.7" y1="305" y2="305"/><line style="stroke:#181818;stroke-width:0.5;" x1="1052.7" x2="1117.7" y1="313" y2="313"/></g><!--class Itinerary--><g id="elem_Itinerary"><rect codeLine="28" fill="#F1F1F1" height="48" id="Itinerary" rx="2.5" ry="2.5" style="stroke:#181818;stroke-width:0.5;" width="83" x="904.7" y="155"/><ellipse cx="919.7" cy="171" fill="#ADD1B2" rx="11" ry="11" style="stroke:#181818;stroke-width:1.0;"/><path d="M922.4656,166.875 Q922.6219,166.6563 922.8094,166.5469 Q922.9969,166.4375 923.2156,166.4375 Q923.5906,166.4375 923.825,166.7031 Q924.0594,166.9531 924.0594,167.5625 L924.0594,169.0156 Q924.0594,169.625 923.825,169.8906 Q923.5906,170.1563 923.2156,170.1563 Q922.8719,170.1563 922.6688,169.9531 Q922.4656,169.7656 922.3563,169.25 Q922.3094,168.8906 922.1219,168.7031 Q921.7938,168.3281 921.1844,168.1094 Q920.575,167.8906 919.95,167.8906 Q919.1844,167.8906 918.5438,168.2188 Q917.9188,168.5469 917.4188,169.2969 Q916.9344,170.0469 916.9344,171.0781 L916.9344,172.1719 Q916.9344,173.4063 917.825,174.2344 Q918.7156,175.0469 920.3094,175.0469 Q921.2469,175.0469 921.9031,174.7969 Q922.2938,174.6406 922.7156,174.2031 Q922.9813,173.9375 923.1219,173.8594 Q923.2781,173.7813 923.4813,173.7813 Q923.8094,173.7813 924.0594,174.0469 Q924.325,174.2969 924.325,174.6406 Q924.325,174.9844 923.9813,175.3906 Q923.4813,175.9688 922.6844,176.2969 Q921.6063,176.75 920.3094,176.75 Q918.7938,176.75 917.5906,176.125 Q916.6063,175.625 915.9188,174.5625 Q915.2313,173.4844 915.2313,172.2031 L915.2313,171.0469 Q915.2313,169.7188 915.8406,168.5781 Q916.4656,167.4219 917.5594,166.8125 Q918.6531,166.1875 919.8875,166.1875 Q920.6219,166.1875 921.2625,166.3594 Q921.9188,166.5156 922.4656,166.875 Z " fill="#000000"/><text fill="#000000" font-family="sans-serif" font-size="14" lengthAdjust="spacing" textLength="51" x="933.7" y="176.7285">Itinerary</text><line style="stroke:#181818;stroke-width:0.5;" x1="905.7" x2="986.7" y1="187" y2="187"/><line style="stroke:#181818;stroke-width:0.5;" x1="905.7" x2="986.7" y1="195" y2="195"/></g><!--class Evaluator--><g id="elem_Evaluator"><rect codeLine="24" fill="#F1F1F1" height="48" id="Evaluator" rx="2.5" ry="2.5" style="stroke:#181818;stroke-width:0.5;" width="92" x="50.2" y="155"/><ellipse cx="65.2" cy="171" fill="#ADD1B2" rx="11" ry="11" style="stroke:#181818;stroke-width:1.0;"/><path d="M67.9656,166.875 Q68.1219,166.6563 68.3094,166.5469 Q68.4969,166.4375 68.7156,166.4375 Q69.0906,166.4375 69.325,166.7031 Q69.5594,166.9531 69.5594,167.5625 L69.5594,169.0156 Q69.5594,169.625 69.325,169.8906 Q69.0906,170.1563 68.7156,170.1563 Q68.3719,170.1563 68.1688,169.9531 Q67.9656,169.7656 67.8563,169.25 Q67.8094,168.8906 67.6219,168.7031 Q67.2938,168.3281 66.6844,168.1094 Q66.075,167.8906 65.45,167.8906 Q64.6844,167.8906 64.0438,168.2188 Q63.4188,168.5469 62.9188,169.2969 Q62.4344,170.0469 62.4344,171.0781 L62.4344,172.1719 Q62.4344,173.4063 63.325,174.2344 Q64.2156,175.0469 65.8094,175.0469 Q66.7469,175.0469 67.4031,174.7969 Q67.7938,174.6406 68.2156,174.2031 Q68.4813,173.9375 68.6219,173.8594 Q68.7781,173.7813 68.9813,173.7813 Q69.3094,173.7813 69.5594,174.0469 Q69.825,174.2969 69.825,174.6406 Q69.825,174.9844 69.4813,175.3906 Q68.9813,175.9688 68.1844,176.2969 Q67.1063,176.75 65.8094,176.75 Q64.2938,176.75 63.0906,176.125 Q62.1063,175.625 61.4188,174.5625 Q60.7313,173.4844 60.7313,172.2031 L60.7313,171.0469 Q60.7313,169.7188 61.3406,168.5781 Q61.9656,167.4219 63.0594,166.8125 Q64.1531,166.1875 65.3875,166.1875 Q66.1219,166.1875 66.7625,166.3594 Q67.4188,166.5156 67.9656,166.875 Z " fill="#000000"/><text fill="#000000" font-family="sans-serif" font-size="14" lengthAdjust="spacing" textLength="60" x="79.2" y="176.7285">Evaluator</text><line style="stroke:#181818;stroke-width:0.5;" x1="51.2" x2="141.2" y1="187" y2="187"/><line style="stroke:#181818;stroke-width:0.5;" x1="51.2" x2="141.2" y1="195" y2="195"/></g><!--class Teacher--><g id="elem_Teacher"><rect codeLine="17" fill="#F1F1F1" height="48" id="Teacher" rx="2.5" ry="2.5" style="stroke:#181818;stroke-width:0.5;" width="85" x="791.7" y="273"/><ellipse cx="806.7" cy="289" fill="#ADD1B2" rx="11" ry="11" style="stroke:#181818;stroke-width:1.0;"/><path d="M809.4656,284.875 Q809.6219,284.6563 809.8094,284.5469 Q809.9969,284.4375 810.2156,284.4375 Q810.5906,284.4375 810.825,284.7031 Q811.0594,284.9531 811.0594,285.5625 L811.0594,287.0156 Q811.0594,287.625 810.825,287.8906 Q810.5906,288.1563 810.2156,288.1563 Q809.8719,288.1563 809.6688,287.9531 Q809.4656,287.7656 809.3563,287.25 Q809.3094,286.8906 809.1219,286.7031 Q808.7938,286.3281 808.1844,286.1094 Q807.575,285.8906 806.95,285.8906 Q806.1844,285.8906 805.5438,286.2188 Q804.9188,286.5469 804.4188,287.2969 Q803.9344,288.0469 803.9344,289.0781 L803.9344,290.1719 Q803.9344,291.4063 804.825,292.2344 Q805.7156,293.0469 807.3094,293.0469 Q808.2469,293.0469 808.9031,292.7969 Q809.2938,292.6406 809.7156,292.2031 Q809.9813,291.9375 810.1219,291.8594 Q810.2781,291.7813 810.4813,291.7813 Q810.8094,291.7813 811.0594,292.0469 Q811.325,292.2969 811.325,292.6406 Q811.325,292.9844 810.9813,293.3906 Q810.4813,293.9688 809.6844,294.2969 Q808.6063,294.75 807.3094,294.75 Q805.7938,294.75 804.5906,294.125 Q803.6063,293.625 802.9188,292.5625 Q802.2313,291.4844 802.2313,290.2031 L802.2313,289.0469 Q802.2313,287.7188 802.8406,286.5781 Q803.4656,285.4219 804.5594,284.8125 Q805.6531,284.1875 806.8875,284.1875 Q807.6219,284.1875 808.2625,284.3594 Q808.9188,284.5156 809.4656,284.875 Z " fill="#000000"/><text fill="#000000" font-family="sans-serif" font-size="14" lengthAdjust="spacing" textLength="53" x="820.7" y="294.7285">Teacher</text><line style="stroke:#181818;stroke-width:0.5;" x1="792.7" x2="875.7" y1="305" y2="305"/><line style="stroke:#181818;stroke-width:0.5;" x1="792.7" x2="875.7" y1="313" y2="313"/></g><!--class Student--><g id="elem_Student"><rect codeLine="20" fill="#F1F1F1" height="48" id="Student" rx="2.5" ry="2.5" style="stroke:#181818;stroke-width:0.5;" width="81" x="911.7" y="273"/><ellipse cx="926.7" cy="289" fill="#ADD1B2" rx="11" ry="11" style="stroke:#181818;stroke-width:1.0;"/><path d="M929.4656,284.875 Q929.6219,284.6563 929.8094,284.5469 Q929.9969,284.4375 930.2156,284.4375 Q930.5906,284.4375 930.825,284.7031 Q931.0594,284.9531 931.0594,285.5625 L931.0594,287.0156 Q931.0594,287.625 930.825,287.8906 Q930.5906,288.1563 930.2156,288.1563 Q929.8719,288.1563 929.6688,287.9531 Q929.4656,287.7656 929.3563,287.25 Q929.3094,286.8906 929.1219,286.7031 Q928.7938,286.3281 928.1844,286.1094 Q927.575,285.8906 926.95,285.8906 Q926.1844,285.8906 925.5438,286.2188 Q924.9188,286.5469 924.4188,287.2969 Q923.9344,288.0469 923.9344,289.0781 L923.9344,290.1719 Q923.9344,291.4063 924.825,292.2344 Q925.7156,293.0469 927.3094,293.0469 Q928.2469,293.0469 928.9031,292.7969 Q929.2938,292.6406 929.7156,292.2031 Q929.9813,291.9375 930.1219,291.8594 Q930.2781,291.7813 930.4813,291.7813 Q930.8094,291.7813 931.0594,292.0469 Q931.325,292.2969 931.325,292.6406 Q931.325,292.9844 930.9813,293.3906 Q930.4813,293.9688 929.6844,294.2969 Q928.6063,294.75 927.3094,294.75 Q925.7938,294.75 924.5906,294.125 Q923.6063,293.625 922.9188,292.5625 Q922.2313,291.4844 922.2313,290.2031 L922.2313,289.0469 Q922.2313,287.7188 922.8406,286.5781 Q923.4656,285.4219 924.5594,284.8125 Q925.6531,284.1875 926.8875,284.1875 Q927.6219,284.1875 928.2625,284.3594 Q928.9188,284.5156 929.4656,284.875 Z " fill="#000000"/><text fill="#000000" font-family="sans-serif" font-size="14" lengthAdjust="spacing" textLength="49" x="940.7" y="294.7285">Student</text><line style="stroke:#181818;stroke-width:0.5;" x1="912.7" x2="991.7" y1="305" y2="305"/><line style="stroke:#181818;stroke-width:0.5;" x1="912.7" x2="991.7" y1="313" y2="313"/></g><!--class Definition--><g id="elem_Definition"><rect codeLine="32" fill="#F1F1F1" height="65.6094" id="Definition" rx="2.5" ry="2.5" style="stroke:#181818;stroke-width:0.5;" width="133" x="753.7" y="699"/><ellipse cx="787.6" cy="715" fill="#ADD1B2" rx="11" ry="11" style="stroke:#181818;stroke-width:1.0;"/><path d="M790.3656,710.875 Q790.5219,710.6563 790.7094,710.5469 Q790.8969,710.4375 791.1156,710.4375 Q791.4906,710.4375 791.725,710.7031 Q791.9594,710.9531 791.9594,711.5625 L791.9594,713.0156 Q791.9594,713.625 791.725,713.8906 Q791.4906,714.1563 791.1156,714.1563 Q790.7719,714.1563 790.5688,713.9531 Q790.3656,713.7656 790.2563,713.25 Q790.2094,712.8906 790.0219,712.7031 Q789.6938,712.3281 789.0844,712.1094 Q788.475,711.8906 787.85,711.8906 Q787.0844,711.8906 786.4438,712.2188 Q785.8188,712.5469 785.3188,713.2969 Q784.8344,714.0469 784.8344,715.0781 L784.8344,716.1719 Q784.8344,717.4063 785.725,718.2344 Q786.6156,719.0469 788.2094,719.0469 Q789.1469,719.0469 789.8031,718.7969 Q790.1938,718.6406 790.6156,718.2031 Q790.8813,717.9375 791.0219,717.8594 Q791.1781,717.7813 791.3813,717.7813 Q791.7094,717.7813 791.9594,718.0469 Q792.225,718.2969 792.225,718.6406 Q792.225,718.9844 791.8813,719.3906 Q791.3813,719.9688 790.5844,720.2969 Q789.5063,720.75 788.2094,720.75 Q786.6938,720.75 785.4906,720.125 Q784.5063,719.625 783.8188,718.5625 Q783.1313,717.4844 783.1313,716.2031 L783.1313,715.0469 Q783.1313,713.7188 783.7406,712.5781 Q784.3656,711.4219 785.4594,710.8125 Q786.5531,710.1875 787.7875,710.1875 Q788.5219,710.1875 789.1625,710.3594 Q789.8188,710.5156 790.3656,710.875 Z " fill="#000000"/><text fill="#000000" font-family="sans-serif" font-size="14" lengthAdjust="spacing" textLength="59" x="805.8" y="720.7285">Definition</text><line style="stroke:#181818;stroke-width:0.5;" x1="754.7" x2="885.7" y1="731" y2="731"/><rect fill="none" height="6" style="stroke:#C82930;stroke-width:1.0;" width="6" x="761.7" y="742.3047"/><text fill="#000000" font-family="sans-serif" font-size="14" lengthAdjust="spacing" textLength="107" x="773.7" y="749.5332">correct : boolean</text><line style="stroke:#181818;stroke-width:0.5;" x1="754.7" x2="885.7" y1="756.6094" y2="756.6094"/></g><!--class Justification--><g id="elem_Justification"><rect codeLine="37" fill="#F1F1F1" height="48" id="Justification" rx="2.5" ry="2.5" style="stroke:#181818;stroke-width:0.5;" width="105" x="655.7" y="887"/><ellipse cx="670.7" cy="903" fill="#ADD1B2" rx="11" ry="11" style="stroke:#181818;stroke-width:1.0;"/><path d="M673.4656,898.875 Q673.6219,898.6563 673.8094,898.5469 Q673.9969,898.4375 674.2156,898.4375 Q674.5906,898.4375 674.825,898.7031 Q675.0594,898.9531 675.0594,899.5625 L675.0594,901.0156 Q675.0594,901.625 674.825,901.8906 Q674.5906,902.1563 674.2156,902.1563 Q673.8719,902.1563 673.6688,901.9531 Q673.4656,901.7656 673.3563,901.25 Q673.3094,900.8906 673.1219,900.7031 Q672.7938,900.3281 672.1844,900.1094 Q671.575,899.8906 670.95,899.8906 Q670.1844,899.8906 669.5438,900.2188 Q668.9188,900.5469 668.4188,901.2969 Q667.9344,902.0469 667.9344,903.0781 L667.9344,904.1719 Q667.9344,905.4063 668.825,906.2344 Q669.7156,907.0469 671.3094,907.0469 Q672.2469,907.0469 672.9031,906.7969 Q673.2938,906.6406 673.7156,906.2031 Q673.9813,905.9375 674.1219,905.8594 Q674.2781,905.7813 674.4813,905.7813 Q674.8094,905.7813 675.0594,906.0469 Q675.325,906.2969 675.325,906.6406 Q675.325,906.9844 674.9813,907.3906 Q674.4813,907.9688 673.6844,908.2969 Q672.6063,908.75 671.3094,908.75 Q669.7938,908.75 668.5906,908.125 Q667.6063,907.625 666.9188,906.5625 Q666.2313,905.4844 666.2313,904.2031 L666.2313,903.0469 Q666.2313,901.7188 666.8406,900.5781 Q667.4656,899.4219 668.5594,898.8125 Q669.6531,898.1875 670.8875,898.1875 Q671.6219,898.1875 672.2625,898.3594 Q672.9188,898.5156 673.4656,898.875 Z " fill="#000000"/><text fill="#000000" font-family="sans-serif" font-size="14" lengthAdjust="spacing" textLength="73" x="684.7" y="908.7285">Justification</text><line style="stroke:#181818;stroke-width:0.5;" x1="656.7" x2="759.7" y1="919" y2="919"/><line style="stroke:#181818;stroke-width:0.5;" x1="656.7" x2="759.7" y1="927" y2="927"/></g><!--class CompositeTopic--><g id="elem_CompositeTopic"><rect codeLine="54" fill="#F1F1F1" height="48" id="CompositeTopic" rx="2.5" ry="2.5" style="stroke:#181818;stroke-width:0.5;" width="134" x="1152.2" y="400"/><ellipse cx="1167.2" cy="416" fill="#ADD1B2" rx="11" ry="11" style="stroke:#181818;stroke-width:1.0;"/><path d="M1169.9656,411.875 Q1170.1219,411.6563 1170.3094,411.5469 Q1170.4969,411.4375 1170.7156,411.4375 Q1171.0906,411.4375 1171.325,411.7031 Q1171.5594,411.9531 1171.5594,412.5625 L1171.5594,414.0156 Q1171.5594,414.625 1171.325,414.8906 Q1171.0906,415.1563 1170.7156,415.1563 Q1170.3719,415.1563 1170.1687,414.9531 Q1169.9656,414.7656 1169.8562,414.25 Q1169.8094,413.8906 1169.6219,413.7031 Q1169.2937,413.3281 1168.6844,413.1094 Q1168.075,412.8906 1167.45,412.8906 Q1166.6844,412.8906 1166.0437,413.2188 Q1165.4187,413.5469 1164.9187,414.2969 Q1164.4344,415.0469 1164.4344,416.0781 L1164.4344,417.1719 Q1164.4344,418.4063 1165.325,419.2344 Q1166.2156,420.0469 1167.8094,420.0469 Q1168.7469,420.0469 1169.4031,419.7969 Q1169.7937,419.6406 1170.2156,419.2031 Q1170.4812,418.9375 1170.6219,418.8594 Q1170.7781,418.7813 1170.9812,418.7813 Q1171.3094,418.7813 1171.5594,419.0469 Q1171.825,419.2969 1171.825,419.6406 Q1171.825,419.9844 1171.4812,420.3906 Q1170.9812,420.9688 1170.1844,421.2969 Q1169.1062,421.75 1167.8094,421.75 Q1166.2937,421.75 1165.0906,421.125 Q1164.1062,420.625 1163.4187,419.5625 Q1162.7312,418.4844 1162.7312,417.2031 L1162.7312,416.0469 Q1162.7312,414.7188 1163.3406,413.5781 Q1163.9656,412.4219 1165.0594,411.8125 Q1166.1531,411.1875 1167.3875,411.1875 Q1168.1219,411.1875 1168.7625,411.3594 Q1169.4187,411.5156 1169.9656,411.875 Z " fill="#000000"/><text fill="#000000" font-family="sans-serif" font-size="14" lengthAdjust="spacing" textLength="102" x="1181.2" y="421.7285">CompositeTopic</text><line style="stroke:#181818;stroke-width:0.5;" x1="1153.2" x2="1285.2" y1="432" y2="432"/><line style="stroke:#181818;stroke-width:0.5;" x1="1153.2" x2="1285.2" y1="440" y2="440"/></g><!--class SimpleTopic--><g id="elem_SimpleTopic"><rect codeLine="50" fill="#F1F1F1" height="48" id="SimpleTopic" rx="2.5" ry="2.5" style="stroke:#181818;stroke-width:0.5;" width="109" x="936.7" y="400"/><ellipse cx="951.7" cy="416" fill="#ADD1B2" rx="11" ry="11" style="stroke:#181818;stroke-width:1.0;"/><path d="M954.4656,411.875 Q954.6219,411.6563 954.8094,411.5469 Q954.9969,411.4375 955.2156,411.4375 Q955.5906,411.4375 955.825,411.7031 Q956.0594,411.9531 956.0594,412.5625 L956.0594,414.0156 Q956.0594,414.625 955.825,414.8906 Q955.5906,415.1563 955.2156,415.1563 Q954.8719,415.1563 954.6688,414.9531 Q954.4656,414.7656 954.3563,414.25 Q954.3094,413.8906 954.1219,413.7031 Q953.7938,413.3281 953.1844,413.1094 Q952.575,412.8906 951.95,412.8906 Q951.1844,412.8906 950.5438,413.2188 Q949.9188,413.5469 949.4188,414.2969 Q948.9344,415.0469 948.9344,416.0781 L948.9344,417.1719 Q948.9344,418.4063 949.825,419.2344 Q950.7156,420.0469 952.3094,420.0469 Q953.2469,420.0469 953.9031,419.7969 Q954.2938,419.6406 954.7156,419.2031 Q954.9813,418.9375 955.1219,418.8594 Q955.2781,418.7813 955.4813,418.7813 Q955.8094,418.7813 956.0594,419.0469 Q956.325,419.2969 956.325,419.6406 Q956.325,419.9844 955.9813,420.3906 Q955.4813,420.9688 954.6844,421.2969 Q953.6063,421.75 952.3094,421.75 Q950.7938,421.75 949.5906,421.125 Q948.6063,420.625 947.9188,419.5625 Q947.2313,418.4844 947.2313,417.2031 L947.2313,416.0469 Q947.2313,414.7188 947.8406,413.5781 Q948.4656,412.4219 949.5594,411.8125 Q950.6531,411.1875 951.8875,411.1875 Q952.6219,411.1875 953.2625,411.3594 Q953.9188,411.5156 954.4656,411.875 Z " fill="#000000"/><text fill="#000000" font-family="sans-serif" font-size="14" lengthAdjust="spacing" textLength="77" x="965.7" y="421.7285">SimpleTopic</text><line style="stroke:#181818;stroke-width:0.5;" x1="937.7" x2="1044.7" y1="432" y2="432"/><line style="stroke:#181818;stroke-width:0.5;" x1="937.7" x2="1044.7" y1="440" y2="440"/></g><!--class Attachment--><g id="elem_Attachment"><rect codeLine="46" fill="#F1F1F1" height="48" id="Attachment" rx="2.5" ry="2.5" style="stroke:#181818;stroke-width:0.5;" width="103" x="1047.7" y="708"/><ellipse cx="1062.7" cy="724" fill="#ADD1B2" rx="11" ry="11" style="stroke:#181818;stroke-width:1.0;"/><path d="M1065.4656,719.875 Q1065.6219,719.6563 1065.8094,719.5469 Q1065.9969,719.4375 1066.2156,719.4375 Q1066.5906,719.4375 1066.825,719.7031 Q1067.0594,719.9531 1067.0594,720.5625 L1067.0594,722.0156 Q1067.0594,722.625 1066.825,722.8906 Q1066.5906,723.1563 1066.2156,723.1563 Q1065.8719,723.1563 1065.6687,722.9531 Q1065.4656,722.7656 1065.3562,722.25 Q1065.3094,721.8906 1065.1219,721.7031 Q1064.7937,721.3281 1064.1844,721.1094 Q1063.575,720.8906 1062.95,720.8906 Q1062.1844,720.8906 1061.5437,721.2188 Q1060.9187,721.5469 1060.4187,722.2969 Q1059.9344,723.0469 1059.9344,724.0781 L1059.9344,725.1719 Q1059.9344,726.4063 1060.825,727.2344 Q1061.7156,728.0469 1063.3094,728.0469 Q1064.2469,728.0469 1064.9031,727.7969 Q1065.2937,727.6406 1065.7156,727.2031 Q1065.9812,726.9375 1066.1219,726.8594 Q1066.2781,726.7813 1066.4812,726.7813 Q1066.8094,726.7813 1067.0594,727.0469 Q1067.325,727.2969 1067.325,727.6406 Q1067.325,727.9844 1066.9812,728.3906 Q1066.4812,728.9688 1065.6844,729.2969 Q1064.6062,729.75 1063.3094,729.75 Q1061.7937,729.75 1060.5906,729.125 Q1059.6062,728.625 1058.9187,727.5625 Q1058.2312,726.4844 1058.2312,725.2031 L1058.2312,724.0469 Q1058.2312,722.7188 1058.8406,721.5781 Q1059.4656,720.4219 1060.5594,719.8125 Q1061.6531,719.1875 1062.8875,719.1875 Q1063.6219,719.1875 1064.2625,719.3594 Q1064.9187,719.5156 1065.4656,719.875 Z " fill="#000000"/><text fill="#000000" font-family="sans-serif" font-size="14" lengthAdjust="spacing" textLength="71" x="1076.7" y="729.7285">Attachment</text><line style="stroke:#181818;stroke-width:0.5;" x1="1048.7" x2="1149.7" y1="740" y2="740"/><line style="stroke:#181818;stroke-width:0.5;" x1="1048.7" x2="1149.7" y1="748" y2="748"/></g><!--class Document--><g id="elem_Document"><rect codeLine="58" fill="#F1F1F1" height="48" id="Document" rx="2.5" ry="2.5" style="stroke:#181818;stroke-width:0.5;" width="96" x="1054.2" y="887"/><ellipse cx="1069.2" cy="903" fill="#ADD1B2" rx="11" ry="11" style="stroke:#181818;stroke-width:1.0;"/><path d="M1071.9656,898.875 Q1072.1219,898.6563 1072.3094,898.5469 Q1072.4969,898.4375 1072.7156,898.4375 Q1073.0906,898.4375 1073.325,898.7031 Q1073.5594,898.9531 1073.5594,899.5625 L1073.5594,901.0156 Q1073.5594,901.625 1073.325,901.8906 Q1073.0906,902.1563 1072.7156,902.1563 Q1072.3719,902.1563 1072.1687,901.9531 Q1071.9656,901.7656 1071.8562,901.25 Q1071.8094,900.8906 1071.6219,900.7031 Q1071.2937,900.3281 1070.6844,900.1094 Q1070.075,899.8906 1069.45,899.8906 Q1068.6844,899.8906 1068.0437,900.2188 Q1067.4187,900.5469 1066.9187,901.2969 Q1066.4344,902.0469 1066.4344,903.0781 L1066.4344,904.1719 Q1066.4344,905.4063 1067.325,906.2344 Q1068.2156,907.0469 1069.8094,907.0469 Q1070.7469,907.0469 1071.4031,906.7969 Q1071.7937,906.6406 1072.2156,906.2031 Q1072.4812,905.9375 1072.6219,905.8594 Q1072.7781,905.7813 1072.9812,905.7813 Q1073.3094,905.7813 1073.5594,906.0469 Q1073.825,906.2969 1073.825,906.6406 Q1073.825,906.9844 1073.4812,907.3906 Q1072.9812,907.9688 1072.1844,908.2969 Q1071.1062,908.75 1069.8094,908.75 Q1068.2937,908.75 1067.0906,908.125 Q1066.1062,907.625 1065.4187,906.5625 Q1064.7312,905.4844 1064.7312,904.2031 L1064.7312,903.0469 Q1064.7312,901.7188 1065.3406,900.5781 Q1065.9656,899.4219 1067.0594,898.8125 Q1068.1531,898.1875 1069.3875,898.1875 Q1070.1219,898.1875 1070.7625,898.3594 Q1071.4187,898.5156 1071.9656,898.875 Z " fill="#000000"/><text fill="#000000" font-family="sans-serif" font-size="14" lengthAdjust="spacing" textLength="64" x="1083.2" y="908.7285">Document</text><line style="stroke:#181818;stroke-width:0.5;" x1="1055.2" x2="1149.2" y1="919" y2="919"/><line style="stroke:#181818;stroke-width:0.5;" x1="1055.2" x2="1149.2" y1="927" y2="927"/></g><!--class Concept--><g id="elem_Concept"><rect codeLine="60" fill="#F1F1F1" height="48" id="Concept" rx="2.5" ry="2.5" style="stroke:#181818;stroke-width:0.5;" width="85" x="895.7" y="544.5"/><ellipse cx="910.7" cy="560.5" fill="#ADD1B2" rx="11" ry="11" style="stroke:#181818;stroke-width:1.0;"/><path d="M913.4656,556.375 Q913.6219,556.1563 913.8094,556.0469 Q913.9969,555.9375 914.2156,555.9375 Q914.5906,555.9375 914.825,556.2031 Q915.0594,556.4531 915.0594,557.0625 L915.0594,558.5156 Q915.0594,559.125 914.825,559.3906 Q914.5906,559.6563 914.2156,559.6563 Q913.8719,559.6563 913.6688,559.4531 Q913.4656,559.2656 913.3563,558.75 Q913.3094,558.3906 913.1219,558.2031 Q912.7938,557.8281 912.1844,557.6094 Q911.575,557.3906 910.95,557.3906 Q910.1844,557.3906 909.5438,557.7188 Q908.9188,558.0469 908.4188,558.7969 Q907.9344,559.5469 907.9344,560.5781 L907.9344,561.6719 Q907.9344,562.9063 908.825,563.7344 Q909.7156,564.5469 911.3094,564.5469 Q912.2469,564.5469 912.9031,564.2969 Q913.2938,564.1406 913.7156,563.7031 Q913.9813,563.4375 914.1219,563.3594 Q914.2781,563.2813 914.4813,563.2813 Q914.8094,563.2813 915.0594,563.5469 Q915.325,563.7969 915.325,564.1406 Q915.325,564.4844 914.9813,564.8906 Q914.4813,565.4688 913.6844,565.7969 Q912.6063,566.25 911.3094,566.25 Q909.7938,566.25 908.5906,565.625 Q907.6063,565.125 906.9188,564.0625 Q906.2313,562.9844 906.2313,561.7031 L906.2313,560.5469 Q906.2313,559.2188 906.8406,558.0781 Q907.4656,556.9219 908.5594,556.3125 Q909.6531,555.6875 910.8875,555.6875 Q911.6219,555.6875 912.2625,555.8594 Q912.9188,556.0156 913.4656,556.375 Z " fill="#000000"/><text fill="#000000" font-family="sans-serif" font-size="14" lengthAdjust="spacing" textLength="53" x="924.7" y="566.2285">Concept</text><line style="stroke:#181818;stroke-width:0.5;" x1="896.7" x2="979.7" y1="576.5" y2="576.5"/><line style="stroke:#181818;stroke-width:0.5;" x1="896.7" x2="979.7" y1="584.5" y2="584.5"/></g><!--class Relation--><g id="elem_Relation"><rect codeLine="66" fill="#F1F1F1" height="48" id="Relation" rx="2.5" ry="2.5" style="stroke:#181818;stroke-width:0.5;" width="84" x="922.2" y="708"/><ellipse cx="937.2" cy="724" fill="#ADD1B2" rx="11" ry="11" style="stroke:#181818;stroke-width:1.0;"/><path d="M939.9656,719.875 Q940.1219,719.6563 940.3094,719.5469 Q940.4969,719.4375 940.7156,719.4375 Q941.0906,719.4375 941.325,719.7031 Q941.5594,719.9531 941.5594,720.5625 L941.5594,722.0156 Q941.5594,722.625 941.325,722.8906 Q941.0906,723.1563 940.7156,723.1563 Q940.3719,723.1563 940.1688,722.9531 Q939.9656,722.7656 939.8563,722.25 Q939.8094,721.8906 939.6219,721.7031 Q939.2938,721.3281 938.6844,721.1094 Q938.075,720.8906 937.45,720.8906 Q936.6844,720.8906 936.0438,721.2188 Q935.4188,721.5469 934.9188,722.2969 Q934.4344,723.0469 934.4344,724.0781 L934.4344,725.1719 Q934.4344,726.4063 935.325,727.2344 Q936.2156,728.0469 937.8094,728.0469 Q938.7469,728.0469 939.4031,727.7969 Q939.7938,727.6406 940.2156,727.2031 Q940.4813,726.9375 940.6219,726.8594 Q940.7781,726.7813 940.9813,726.7813 Q941.3094,726.7813 941.5594,727.0469 Q941.825,727.2969 941.825,727.6406 Q941.825,727.9844 941.4813,728.3906 Q940.9813,728.9688 940.1844,729.2969 Q939.1063,729.75 937.8094,729.75 Q936.2938,729.75 935.0906,729.125 Q934.1063,728.625 933.4188,727.5625 Q932.7313,726.4844 932.7313,725.2031 L932.7313,724.0469 Q932.7313,722.7188 933.3406,721.5781 Q933.9656,720.4219 935.0594,719.8125 Q936.1531,719.1875 937.3875,719.1875 Q938.1219,719.1875 938.7625,719.3594 Q939.4188,719.5156 939.9656,719.875 Z " fill="#000000"/><text fill="#000000" font-family="sans-serif" font-size="14" lengthAdjust="spacing" textLength="52" x="951.2" y="729.7285">Relation</text><line style="stroke:#181818;stroke-width:0.5;" x1="923.2" x2="1005.2" y1="740" y2="740"/><line style="stroke:#181818;stroke-width:0.5;" x1="923.2" x2="1005.2" y1="748" y2="748"/></g><!--class RelationType--><g id="elem_RelationType"><rect codeLine="71" fill="#F1F1F1" height="136.0469" id="RelationType" rx="2.5" ry="2.5" style="stroke:#181818;stroke-width:0.5;" width="116" x="903.2" y="843"/><ellipse cx="918.2" cy="859" fill="#EB937F" rx="11" ry="11" style="stroke:#181818;stroke-width:1.0;"/><path d="M917.0594,859.7969 L917.0594,862.2969 L921.3875,862.2969 L921.3875,861.375 Q921.3875,860.7656 921.6219,860.5 Q921.8719,860.2344 922.2469,860.2344 Q922.6219,860.2344 922.8563,860.5 Q923.0906,860.7656 923.0906,861.375 L923.0906,864 L915.0906,864 Q914.4656,864 914.2,863.7656 Q913.95,863.5313 913.95,863.1406 Q913.95,862.7656 914.2156,862.5313 Q914.4813,862.2969 915.0906,862.2969 L915.3563,862.2969 L915.3563,855.6406 L915.0906,855.6406 Q914.4656,855.6406 914.2,855.4063 Q913.95,855.1719 913.95,854.7813 Q913.95,854.4063 914.2,854.1719 Q914.4656,853.9375 915.0906,853.9375 L922.7156,853.9375 L922.7156,856.5313 Q922.7156,857.1406 922.4813,857.4063 Q922.2625,857.6563 921.8719,857.6563 Q921.4969,857.6563 921.2625,857.4063 Q921.0281,857.1406 921.0281,856.5313 L921.0281,855.6406 L917.0594,855.6406 L917.0594,858.0938 L918.5438,858.0938 Q918.5438,857.4375 918.6688,857.25 Q918.9344,856.8438 919.4031,856.8438 Q919.7781,856.8438 920.0125,857.1094 Q920.2469,857.3594 920.2469,857.9688 L920.2469,859.9375 Q920.2469,860.4844 920.1219,860.6719 Q919.8563,861.0625 919.4031,861.0625 Q918.9344,861.0625 918.6688,860.6563 Q918.5438,860.4688 918.5438,859.7969 L917.0594,859.7969 Z " fill="#000000"/><text fill="#000000" font-family="sans-serif" font-size="14" lengthAdjust="spacing" textLength="84" x="932.2" y="864.7285">RelationType</text><line style="stroke:#181818;stroke-width:0.5;" x1="904.2" x2="1018.2" y1="875" y2="875"/><text fill="#000000" font-family="sans-serif" font-size="14" lengthAdjust="spacing" textLength="24" x="909.2" y="893.5332">Use</text><text fill="#000000" font-family="sans-serif" font-size="14" lengthAdjust="spacing" textLength="72" x="909.2" y="911.1426">Association</text><text fill="#000000" font-family="sans-serif" font-size="14" lengthAdjust="spacing" textLength="78" x="909.2" y="928.752">Composition</text><text fill="#000000" font-family="sans-serif" font-size="14" lengthAdjust="spacing" textLength="70" x="909.2" y="946.3613">Inheritance</text><text fill="#000000" font-family="sans-serif" font-size="14" lengthAdjust="spacing" textLength="77" x="909.2" y="963.9707">Aggregation</text><line style="stroke:#181818;stroke-width:0.5;" x1="904.2" x2="1018.2" y1="971.0469" y2="971.0469"/></g><!--link EducationPlatform to User--><g id="link_EducationPlatform_User"><path codeLine="2" d="M782.0453,66.0086 C794.7753,93.3486 808.2368,122.241 820.9468,149.531 " fill="none" id="EducationPlatform-User" style="stroke:#FF0000;stroke-width:1.0;"/><polygon fill="#FF0000" points="776.98,55.13,775.8864,62.2577,782.0453,66.0086,783.1388,58.8809,776.98,55.13" style="stroke:#FF0000;stroke-width:1.0;"/><polygon fill="#FF0000" points="823.48,154.97,823.3063,145.1227,821.369,150.4375,816.0542,148.5002,823.48,154.97" style="stroke:#FF0000;stroke-width:1.0;"/><text fill="#000000" font-family="sans-serif" font-size="13" lengthAdjust="spacing" textLength="8" x="811.708" y="144.3025">+</text></g><!--link EducationPlatform to Topic--><g id="link_EducationPlatform_Topic"><path codeLine="3" d="M851.8041,36.5529 C906.7641,43.1629 966.81,60.32 1005.2,111 C1044.19,162.46 1066.8821,230.0707 1077.4421,267.0407 " fill="none" id="EducationPlatform-Topic" style="stroke:#FF0000;stroke-width:1.0;"/><polygon fill="#FF0000" points="839.89,35.12,845.3694,39.8078,851.8041,36.5529,846.3247,31.8651,839.89,35.12" style="stroke:#FF0000;stroke-width:1.0;"/><polygon fill="#FF0000" points="1079.09,272.81,1080.4643,263.0575,1077.7167,268.0023,1072.772,265.2547,1079.09,272.81" style="stroke:#FF0000;stroke-width:1.0;"/></g><!--link EducationPlatform to Itinerary--><g id="link_EducationPlatform_Itinerary"><path codeLine="4" d="M792.6424,64.1043 C806.7024,80.0643 819.53,91.42 842.2,103 C858.74,111.44 866.95,102.03 883.2,111 C902.35,121.57 915.402,135.2564 926.782,150.1164 " fill="none" id="EducationPlatform-Itinerary" style="stroke:#FF0000;stroke-width:1.0;"/><polygon fill="#FF0000" points="784.71,55.1,785.6747,62.2463,792.6424,64.1043,791.6776,56.958,784.71,55.1" style="stroke:#FF0000;stroke-width:1.0;"/><polygon fill="#FF0000" points="930.43,154.88,928.1337,145.3026,927.39,150.9103,921.7822,150.1666,930.43,154.88" style="stroke:#FF0000;stroke-width:1.0;"/><text fill="#000000" font-family="sans-serif" font-size="13" lengthAdjust="spacing" textLength="59" x="843.2" y="99.4951">predefined</text></g><!--link EducationPlatform to Itinerary--><g id="link_EducationPlatform_Itinerary"><path codeLine="5" d="M851.3208,51.1348 C875.1308,59.0948 888.74,67.22 907.2,85 C926.75,103.83 935.5228,128.1149 940.5128,148.9549 " fill="none" id="EducationPlatform-Itinerary-1" style="stroke:#FF0000;stroke-width:1.0;"/><polygon fill="none" points="839.94,47.33,844.3622,53.026,851.3208,51.1348,846.8987,45.4388,839.94,47.33" style="stroke:#FF0000;stroke-width:1.0;"/><polygon fill="#FF0000" points="941.91,154.79,943.7043,145.106,940.7457,149.9274,935.9242,146.9689,941.91,154.79" style="stroke:#FF0000;stroke-width:1.0;"/><text fill="#000000" font-family="sans-serif" font-size="13" lengthAdjust="spacing" textLength="43" x="921.2" y="99.4951">custom</text><text fill="#000000" font-family="sans-serif" font-size="13" lengthAdjust="spacing" textLength="5" x="935.1701" y="144.0763">*</text></g><!--link EducationPlatform to Evaluator--><g id="link_EducationPlatform_Evaluator"><path codeLine="6" d="M680.6464,35.9471 C539.8164,43.3171 249.94,63.63 158.2,111 C138.77,121.03 125.8211,134.8837 114.7411,149.9737 " fill="none" id="EducationPlatform-Evaluator" style="stroke:#FF0000;stroke-width:1.0;"/><polygon fill="#FF0000" points="692.63,35.32,686.4292,31.639,680.6464,35.9471,686.8472,39.6281,692.63,35.32" style="stroke:#FF0000;stroke-width:1.0;"/><polygon fill="#FF0000" points="111.19,154.81,119.7408,149.923,114.1492,150.7798,113.2925,145.1882,111.19,154.81" style="stroke:#FF0000;stroke-width:1.0;"/></g><!--link EducationPlatform to Exercise--><g id="link_EducationPlatform_Exercise"><path codeLine="7" d="M737.5589,64.203 C729.5189,73.373 728.25,75.05 720.2,85 C701.4,108.26 684.4835,130.8682 670.5635,149.8882 " fill="none" id="EducationPlatform-Exercise" style="stroke:#FF0000;stroke-width:1.0;"/><polygon fill="none" points="745.47,55.18,738.5068,57.0545,737.5589,64.203,744.5221,62.3285,745.47,55.18" style="stroke:#FF0000;stroke-width:1.0;"/><polygon fill="#FF0000" points="667.02,154.73,675.5632,149.8296,669.973,150.6951,669.1074,145.1049,667.02,154.73" style="stroke:#FF0000;stroke-width:1.0;"/><text fill="#000000" font-family="sans-serif" font-size="13" lengthAdjust="spacing" textLength="5" x="665.6895" y="144.001">*</text></g><!--link EducationPlatform to QuestionExercise--><g id="link_EducationPlatform_QuestionExercise"><path codeLine="8" d="M763.1304,66.9894 C759.2304,102.7894 748.26,160.13 710.2,203 C691.93,223.58 636.7057,248.1792 586.8857,267.7192 " fill="none" id="EducationPlatform-QuestionExercise" style="stroke:#FF0000;stroke-width:1.0;"/><polygon fill="none" points="764.43,55.06,759.8037,60.5915,763.1304,66.9894,767.7567,61.4579,764.43,55.06" style="stroke:#FF0000;stroke-width:1.0;"/><polygon fill="#FF0000" points="581.3,269.91,591.1391,270.3476,585.9548,268.0843,588.2181,262.9,581.3,269.91" style="stroke:#FF0000;stroke-width:1.0;"/><text fill="#000000" font-family="sans-serif" font-size="13" lengthAdjust="spacing" textLength="5" x="589.35" y="263.6077">*</text></g><!--link EducationPlatform to Domain--><g id="link_EducationPlatform_Domain"><path codeLine="9" d="M680.5173,34.6697 C502.7773,40.8897 74.06,60.85 32.2,111 C6,142.39 10.12,168.59 32.2,203 C57.55,242.51 328.8145,342.5562 469.9045,392.5462 " fill="none" id="EducationPlatform-Domain" style="stroke:#FF0000;stroke-width:1.0;"/><polygon fill="none" points="692.51,34.25,686.3738,30.4623,680.5173,34.6697,686.6536,38.4574,692.51,34.25" style="stroke:#FF0000;stroke-width:1.0;"/><polygon fill="#FF0000" points="475.56,394.55,468.4126,387.7739,470.8471,392.8802,465.7409,395.3146,475.56,394.55" style="stroke:#FF0000;stroke-width:1.0;"/><text fill="#000000" font-family="sans-serif" font-size="13" lengthAdjust="spacing" textLength="5" x="462.8033" y="388.6269">*</text></g><!--reverse link User to Teacher--><g id="link_User_Teacher"><path codeLine="14" d="M834.2,221.2 C834.2,241.43 834.2,252.62 834.2,272.84 " fill="none" id="User-backto-Teacher" style="stroke:#181818;stroke-width:1.0;"/><polygon fill="none" points="834.2,203.2,828.2,221.2,840.2,221.2,834.2,203.2" style="stroke:#181818;stroke-width:1.0;"/></g><!--reverse link User to Student--><g id="link_User_Student"><path codeLine="15" d="M870.6366,215.8183 C891.2166,236.0483 908.08,252.62 928.65,272.84 " fill="none" id="User-backto-Student" style="stroke:#181818;stroke-width:1.0;"/><polygon fill="none" points="857.8,203.2,866.4305,220.0972,874.8427,211.5394,857.8,203.2" style="stroke:#181818;stroke-width:1.0;"/></g><!--link Student to Application--><g id="link_Student_Application"><path codeLine="22" d="M920.9625,329.493 C888.5025,361.783 834.82,413 776.2,457 C747.58,478.48 719.7724,496.6023 690.0124,514.6223 " fill="none" id="Student-Application" style="stroke:#181818;stroke-width:1.0;"/><polygon fill="#181818" points="929.47,321.03,922.3952,322.4256,920.9625,329.493,928.0372,328.0973,929.47,321.03" style="stroke:#181818;stroke-width:1.0;"/><polygon fill="#181818" points="684.88,517.73,694.6505,516.49,689.157,515.1402,690.5068,509.6468,684.88,517.73" style="stroke:#181818;stroke-width:1.0;"/><text fill="#000000" font-family="sans-serif" font-size="13" lengthAdjust="spacing" textLength="5" x="691.8584" y="506.9974">*</text></g><!--link Evaluator to QuestionExercise--><g id="link_Evaluator_QuestionExercise"><path codeLine="26" d="M142.37,197.86 C147.67,199.7 153.03,201.45 158.2,203 C273.56,237.57 306.73,229.8 422.2,264 C427.66,265.62 427.5718,265.5109 433.1818,267.3609 " fill="none" id="Evaluator-to-QuestionExercise" style="stroke:#181818;stroke-width:1.0;"/><polygon fill="#181818" points="438.88,269.24,431.5855,262.6226,434.1315,267.6741,429.08,270.2202,438.88,269.24" style="stroke:#181818;stroke-width:1.0;"/></g><!--link Itinerary to Topic--><g id="link_Itinerary_Topic"><path codeLine="30" d="M983.213,210.8889 C1007.453,231.1189 1028.6233,248.7757 1052.8533,268.9957 " fill="none" id="Itinerary-Topic" style="stroke:#181818;stroke-width:1.0;"/><polygon fill="none" points="974,203.2,976.0435,210.1155,983.213,210.8889,981.1695,203.9735,974,203.2" style="stroke:#181818;stroke-width:1.0;"/><polygon fill="#181818" points="1057.46,272.84,1053.1128,264.0025,1053.6211,269.6364,1047.9871,270.1447,1057.46,272.84" style="stroke:#181818;stroke-width:1.0;"/><text fill="#000000" font-family="sans-serif" font-size="13" lengthAdjust="spacing" textLength="8" x="1041.3266" y="262.1392">+</text></g><!--link Definition to Justification--><g id="link_Definition_Justification"><path codeLine="35" d="M793.5044,775.191 C771.2544,810.361 745.7073,850.7192 726.0173,881.8492 " fill="none" id="Definition-Justification" style="stroke:#181818;stroke-width:1.0;"/><polygon fill="#181818" points="799.92,765.05,793.3319,767.982,793.5044,775.191,800.0925,772.259,799.92,765.05" style="stroke:#181818;stroke-width:1.0;"/><polygon fill="#181818" points="722.81,886.92,731.0015,881.452,725.4828,882.6943,724.2405,877.1756,722.81,886.92" style="stroke:#181818;stroke-width:1.0;"/><text fill="#000000" font-family="sans-serif" font-size="13" lengthAdjust="spacing" textLength="119" x="781.2" y="809.4951">[!correctable.correct]</text><text fill="#000000" font-family="sans-serif" font-size="13" lengthAdjust="spacing" textLength="5" x="720.9132" y="876.2397">*</text></g><!--reverse link Topic to CompositeTopic--><g id="link_Topic_CompositeTopic"><path codeLine="42" d="M1112.0993,334.4738 C1132.7293,356.9238 1156.81,377.5 1184.29,399.91 " fill="none" id="Topic-backto-CompositeTopic" style="stroke:#181818;stroke-width:1.0;"/><polygon fill="none" points="1099.92,321.22,1107.6814,338.5336,1116.5173,330.414,1099.92,321.22" style="stroke:#181818;stroke-width:1.0;"/></g><!--link CompositeTopic to Topic--><g id="link_CompositeTopic_Topic"><path codeLine="56" d="M1196.9074,390.8003 C1175.9574,367.8103 1151.2609,345.5835 1123.4009,323.2435 " fill="none" id="CompositeTopic-Topic" style="stroke:#181818;stroke-width:1.0;"/><polygon fill="none" points="1204.99,399.67,1203.9052,392.541,1196.9074,390.8003,1197.9921,397.9294,1204.99,399.67" style="stroke:#181818;stroke-width:1.0;"/><polygon fill="#181818" points="1118.72,319.49,1123.2391,328.2409,1122.6208,322.6179,1128.2438,321.9996,1118.72,319.49" style="stroke:#181818;stroke-width:1.0;"/><text fill="#000000" font-family="sans-serif" font-size="13" lengthAdjust="spacing" textLength="8" x="1126.9275" y="320.1933">+</text></g><!--reverse link Topic to SimpleTopic--><g id="link_Topic_SimpleTopic"><path codeLine="43" d="M1056.9226,335.6069 C1040.0426,358.0569 1025.42,377.5 1008.57,399.91 " fill="none" id="Topic-backto-SimpleTopic" style="stroke:#181818;stroke-width:1.0;"/><polygon fill="none" points="1067.74,321.22,1052.1269,332.0011,1061.7182,339.2127,1067.74,321.22" style="stroke:#181818;stroke-width:1.0;"/></g><!--link Topic to Attachment--><g id="link_Topic_Attachment"><path codeLine="44" d="M1086.3472,333.2738 C1088.7772,408.5438 1095.8367,626.8131 1098.2567,701.8731 " fill="none" id="Topic-Attachment" style="stroke:#181818;stroke-width:1.0;"/><polygon fill="#181818" points="1085.96,321.28,1082.1557,327.4059,1086.3472,333.2738,1090.1515,327.1478,1085.96,321.28" style="stroke:#181818;stroke-width:1.0;"/><polygon fill="#181818" points="1098.45,707.87,1102.1579,698.7458,1098.2889,702.8726,1094.1621,699.0036,1098.45,707.87" style="stroke:#181818;stroke-width:1.0;"/><text fill="#000000" font-family="sans-serif" font-size="13" lengthAdjust="spacing" textLength="5" x="1092.6172" y="697.1768">*</text></g><!--link Attachment to Document--><g id="link_Attachment_Document"><path codeLine="48" d="M1099.7952,768.1382 C1100.3752,802.0582 1101.1392,846.9308 1101.7092,880.8508 " fill="none" id="Attachment-Document" style="stroke:#181818;stroke-width:1.0;"/><polygon fill="#181818" points="1099.59,756.14,1095.6932,762.2075,1099.7952,768.1382,1103.692,762.0707,1099.59,756.14" style="stroke:#181818;stroke-width:1.0;"/><polygon fill="#181818" points="1101.81,886.85,1105.6582,877.7841,1101.726,881.8507,1097.6593,877.9185,1101.81,886.85" style="stroke:#181818;stroke-width:1.0;"/><text fill="#000000" font-family="sans-serif" font-size="13" lengthAdjust="spacing" textLength="8" x="1092.6851" y="876.1517">+</text></g><!--link SimpleTopic to Concept--><g id="link_SimpleTopic_Concept"><path codeLine="52" d="M978.3854,459.4567 C968.5254,485.9567 958.7823,512.1766 948.9223,538.6766 " fill="none" id="SimpleTopic-Concept" style="stroke:#181818;stroke-width:1.0;"/><polygon fill="none" points="982.57,448.21,976.7288,452.4385,978.3854,459.4567,984.2266,455.2282,982.57,448.21" style="stroke:#181818;stroke-width:1.0;"/><polygon fill="#181818" points="946.83,544.3,953.7174,537.2598,948.5736,539.6139,946.2196,534.4701,946.83,544.3" style="stroke:#181818;stroke-width:1.0;"/><text fill="#000000" font-family="sans-serif" font-size="13" lengthAdjust="spacing" textLength="8" x="940.0164" y="533.5889">+</text></g><!--link Concept to Definition--><g id="link_Concept_Definition"><path codeLine="62" d="M914.2188,602.328 C893.8188,630.238 870.0489,662.7748 847.1289,694.1548 " fill="none" id="Concept-Definition" style="stroke:#181818;stroke-width:1.0;"/><polygon fill="#181818" points="921.3,592.64,914.5301,595.1236,914.2188,602.328,920.9888,599.8444,921.3,592.64" style="stroke:#181818;stroke-width:1.0;"/><polygon fill="#181818" points="843.59,699,852.1285,694.0915,846.5391,694.9623,845.6683,689.3729,843.59,699" style="stroke:#181818;stroke-width:1.0;"/><text fill="#000000" font-family="sans-serif" font-size="13" lengthAdjust="spacing" textLength="8" x="839.5892" y="688.1154">+</text></g><!--link Concept to Relation--><g id="link_Concept_Relation"><path codeLine="63" d="M943.8364,604.4876 C948.7764,635.1876 954.5981,671.296 959.5281,701.976 " fill="none" id="Concept-Relation" style="stroke:#181818;stroke-width:1.0;"/><polygon fill="#181818" points="941.93,592.64,938.934,599.1993,943.8364,604.4876,946.8324,597.9283,941.93,592.64" style="stroke:#181818;stroke-width:1.0;"/><polygon fill="#181818" points="960.48,707.9,963.0014,698.3794,959.6867,702.9633,955.1028,699.6486,960.48,707.9" style="stroke:#181818;stroke-width:1.0;"/><text fill="#000000" font-family="sans-serif" font-size="13" lengthAdjust="spacing" textLength="31" x="954.2" y="665.4951">origin</text><text fill="#000000" font-family="sans-serif" font-size="13" lengthAdjust="spacing" textLength="5" x="953.8861" y="697.2145">*</text></g><!--link Relation to Concept--><g id="link_Relation_Concept"><path codeLine="68" d="M935.63,707.74 C924.87,697.19 913.88,683.76 908.2,669 C898.35,643.4 907.7889,618.3313 919.5089,597.9513 " fill="none" id="Relation-to-Concept" style="stroke:#181818;stroke-width:1.0;"/><polygon fill="#181818" points="922.5,592.75,914.5458,598.5578,920.0074,597.0844,921.4808,602.546,922.5,592.75" style="stroke:#181818;stroke-width:1.0;"/><text fill="#000000" font-family="sans-serif" font-size="13" lengthAdjust="spacing" textLength="33" x="909.2" y="665.4951">target</text></g><!--link Concept to Attachment--><g id="link_Concept_Attachment"><path codeLine="64" d="M969.7428,601.1377 C1000.3528,631.8377 1041.3536,672.9711 1071.9436,703.6511 " fill="none" id="Concept-Attachment" style="stroke:#181818;stroke-width:1.0;"/><polygon fill="#181818" points="961.27,592.64,962.6738,599.7131,969.7428,601.1377,968.339,594.0646,961.27,592.64" style="stroke:#181818;stroke-width:1.0;"/><polygon fill="#181818" points="1076.18,707.9,1072.658,698.7024,1072.6497,704.3593,1066.9928,704.351,1076.18,707.9" style="stroke:#181818;stroke-width:1.0;"/><text fill="#000000" font-family="sans-serif" font-size="13" lengthAdjust="spacing" textLength="5" x="1064.6405" y="697.2145">*</text></g><!--link Relation to RelationType--><g id="link_Relation_RelationType"><path codeLine="69" d="M963.6084,768.1383 C963.2384,790.1583 962.962,806.3809 962.442,836.9609 " fill="none" id="Relation-RelationType" style="stroke:#181818;stroke-width:1.0;"/><polygon fill="#181818" points="963.81,756.14,959.7098,762.072,963.6084,768.1383,967.7086,762.2064,963.81,756.14" style="stroke:#181818;stroke-width:1.0;"/><polygon fill="#181818" points="962.34,842.96,966.4924,834.0293,962.425,837.9607,958.4936,833.8933,962.34,842.96" style="stroke:#181818;stroke-width:1.0;"/></g><!--reverse link Exercise to QuestionExercise--><g id="link_Exercise_QuestionExercise"><path codeLine="83" d="M608.3458,214.6797 C587.3558,232.0597 572.24,244.6 549.02,263.84 " fill="none" id="Exercise-backto-QuestionExercise" style="stroke:#181818;stroke-width:1.0;"/><polygon fill="none" points="622.21,203.2,604.5192,210.0583,612.1724,219.3011,622.21,203.2" style="stroke:#181818;stroke-width:1.0;"/></g><!--reverse link Exercise to DomainExercise--><g id="link_Exercise_DomainExercise"><path codeLine="84" d="M661.7292,220.5119 C667.4892,240.7419 670.86,252.62 676.62,272.84 " fill="none" id="Exercise-backto-DomainExercise" style="stroke:#181818;stroke-width:1.0;"/><polygon fill="none" points="656.8,203.2,655.9585,222.155,667.4998,218.8689,656.8,203.2" style="stroke:#181818;stroke-width:1.0;"/></g><!--link DomainExercise to Domain--><g id="link_DomainExercise_Domain"><path codeLine="89" d="M659.8,321.22 C640.01,340.85 615.7301,364.9449 593.7701,386.7249 " fill="none" id="DomainExercise-to-Domain" style="stroke:#181818;stroke-width:1.0;"/><polygon fill="#181818" points="589.51,390.95,598.7169,387.4523,593.0601,387.429,593.0833,381.7722,589.51,390.95" style="stroke:#181818;stroke-width:1.0;"/><text fill="#000000" font-family="sans-serif" font-size="13" lengthAdjust="spacing" textLength="8" x="587.3489" y="380.0551">+</text></g><!--link DomainExercise to SimpleTopic--><g id="link_DomainExercise_SimpleTopic"><path codeLine="90" d="M741.41,321.12 C770.51,332.72 806.24,347.03 838.2,360 C870.81,373.23 901.6947,385.9388 930.8347,397.9788 " fill="none" id="DomainExercise-to-SimpleTopic" style="stroke:#181818;stroke-width:1.0;"/><polygon fill="#181818" points="936.38,400.27,929.5895,393.1363,931.7589,398.3607,926.5346,400.5301,936.38,400.27" style="stroke:#181818;stroke-width:1.0;"/><text fill="#000000" font-family="sans-serif" font-size="13" lengthAdjust="spacing" textLength="8" x="920.8437" y="393.7222">+</text></g><!--reverse link Domain to Domain--><g id="link_Domain_Domain"><path codeLine="95" d="M650.8494,413.0641 C670.8294,413.9041 673.7,417.22 673.7,424 C673.7,430.78 658.84,434.6 638.86,435.44 " fill="none" id="Domain-backto-Domain" style="stroke:#181818;stroke-width:1.0;"/><polygon fill="#181818" points="638.86,412.56,644.6867,416.8085,650.8494,413.0641,645.0227,408.8156,638.86,412.56" style="stroke:#181818;stroke-width:1.0;"/><text fill="#000000" font-family="sans-serif" font-size="13" lengthAdjust="spacing" textLength="5" x="646.6185" y="433.2865">*</text></g><!--reverse link Domain to Application--><g id="link_Domain_Application"><path codeLine="96" d="M569.5203,468.8942 C574.5403,486.7942 577.66,497.87 583.29,517.95 " fill="none" id="Domain-backto-Application" style="stroke:#181818;stroke-width:1.0;"/><polygon fill="#181818" points="566.28,457.34,564.0488,464.1972,569.5203,468.8942,571.7516,462.037,566.28,457.34" style="stroke:#181818;stroke-width:1.0;"/><text fill="#000000" font-family="sans-serif" font-size="13" lengthAdjust="spacing" textLength="8" x="572.7714" y="507.2483">+</text></g><!--reverse link QuestionExercise to MultipleChoice--><g id="link_QuestionExercise_MultipleChoice"><path codeLine="101" d="M423.6227,337.4988 C375.7327,359.3388 329.81,380.29 286.76,399.93 " fill="none" id="QuestionExercise-backto-MultipleChoice" style="stroke:#181818;stroke-width:1.0;"/><polygon fill="none" points="440,330.03,421.1331,332.0397,426.1123,342.9579,440,330.03" style="stroke:#181818;stroke-width:1.0;"/></g><!--reverse link QuestionExercise to Cloze--><g id="link_QuestionExercise_Cloze"><path codeLine="102" d="M465.9021,343.0172 C447.5321,361.6772 437.12,372.27 418.77,390.92 " fill="none" id="QuestionExercise-backto-Cloze" style="stroke:#181818;stroke-width:1.0;"/><polygon fill="none" points="478.53,330.19,461.6264,338.8079,470.1779,347.2265,478.53,330.19" style="stroke:#181818;stroke-width:1.0;"/></g><!--reverse link QuestionExercise to Open--><g id="link_QuestionExercise_Open"><path codeLine="103" d="M583.9587,338.8785 C615.4887,356.5185 639.35,370.2 674.2,391 C679.86,394.38 685.82,398.03 691.59,401.61 " fill="none" id="QuestionExercise-backto-Open" style="stroke:#181818;stroke-width:1.0;"/><polygon fill="none" points="568.25,330.09,581.0292,344.1147,586.8882,333.6423,568.25,330.09" style="stroke:#181818;stroke-width:1.0;"/></g><!--link QuestionExercise to Concept--><g id="link_QuestionExercise_Concept"><path codeLine="104" d="M581.58,323.76 C587.54,325.88 593.47,327.98 599.2,330 C677.69,357.63 706.6,345.4 776.2,391 C840.74,433.29 893.3857,502.0331 919.3657,539.4131 " fill="none" id="QuestionExercise-to-Concept" style="stroke:#181818;stroke-width:1.0;"/><polygon fill="#181818" points="922.79,544.34,920.9381,534.6668,919.9364,540.2343,914.369,539.2325,922.79,544.34" style="stroke:#181818;stroke-width:1.0;"/><text fill="#000000" font-family="sans-serif" font-size="13" lengthAdjust="spacing" textLength="8" x="909.8162" y="533.6392">+</text></g><!--link Answer to QuestionExercise--><g id="link_Answer_QuestionExercise"><path codeLine="105" d="M404.28,297 C415.87,297 415.45,297 427.04,297 " fill="none" id="Answer-to-QuestionExercise" style="stroke:#181818;stroke-width:1.0;"/><polygon fill="#181818" points="439.04,297,433.04,293,427.04,297,433.04,301,439.04,297" style="stroke:#181818;stroke-width:1.0;"/><text fill="#000000" font-family="sans-serif" font-size="13" lengthAdjust="spacing" textLength="8" x="412.2229" y="293.0525">+</text></g><!--link Application to Justification--><g id="link_Application_Justification"><path codeLine="119" d="M595.357,631.05 C595.347,671.41 598.81,717.29 615.2,765 C631.44,812.23 662.2846,854.8948 684.3946,882.0848 " fill="none" id="Application-Justification" style="stroke:#181818;stroke-width:1.0;"/><polygon fill="#181818" points="595.36,619.05,591.36,625.05,595.36,631.05,599.36,625.05,595.36,619.05" style="stroke:#181818;stroke-width:1.0;"/><polygon fill="#181818" points="688.18,886.74,685.6053,877.2336,685.0255,882.8607,679.3984,882.2809,688.18,886.74" style="stroke:#181818;stroke-width:1.0;"/><text fill="#000000" font-family="sans-serif" font-size="13" lengthAdjust="spacing" textLength="119" x="616.2" y="737.4951">[!correctable.correct]</text><text fill="#000000" font-family="sans-serif" font-size="13" lengthAdjust="spacing" textLength="5" x="677.4093" y="876.0135">*</text></g><!--SRC=[dLJ9Rjim4BthAzZava3v0248uDe-f6ZH9Uufo86cnWeHYXH8Agxh-j_BJI9boIvI7MpEp9kPnrcuAbk2DHNy6yDwAsIDPldJjOJoERz7LpTNwAS2cQqkeTQYeUGov45J3XBBFIfGOtImDN8vuIEIvBEhWHzfbHRrvJohDynQh8NyT-ZLBv24AlY8jGQvl-taztj-Rq5P_Fz7M8eQKvvbUAEqn4IxeX-oOvRP0xhxa-Te3PYyc5P4pQDkI-0womZ3IdK0v-Or0M0ruMXgTOR2l6aOzQmxzxwODa0l81jXTENW4ljbVQ8ayZ1DVbO2Ucd7WDeu1exCboCYf0HJW09jX620kGcJm7hwdymmq6qWN3nz27vum-0sd9-xD0Ei8nOBxVXObJlukYv4tGX5DNYoYUMHrWqRg7j2SwrD-Uka7r5ZuqSf-9XYB0LfKuyalEjP56C15u8JQ7gN8LVhDTISgtp8V3Z6G2wkZ-2EXcSfThpZsZTXmcxk_mEOhs-1XAGLFGCRbwbtjAbxmRBk0XH8Orc1ZjO-PATPxnipWy3RUg0AOsLMnltFbHA4-XctSbUgJdxWPd-enYQjnrULXChZZoZB6anUSGMdkuEkzy2Os1qovzNFLWSBB8xkjrUwWHhjqHZYtuQuQ1RHDJ6rXEm-oz24ui2vT-O28ftmKIf_3_kzWLI6jZAz-KoLllFs-n43E-kkxwFCtd9p-I4ow8J4QR4Y7QMn1hTRXNdq9ELLmkJKpPVrIyiqDLTTl0WQsZqDN33n-vBzQmDysdowifEWMSvWgtqfvbpjp0kVNDabZ_VSCCnV5wBbka2Kw-IIYS_mPjti9O2amZ7qrDCRRU1VVoYZTGXGWhLX_KSDIFAzym4__WK0]--></g></svg>