<?xml version="1.0" encoding="us-ascii" standalone="no"?><svg xmlns="http://www.w3.org/2000/svg" xmlns:xlink="http://www.w3.org/1999/xlink" contentStyleType="text/css" height="1102px" preserveAspectRatio="none" style="width:1767px;height:1102px;background:#FFFFFF;" version="1.1" viewBox="0 0 1767 1102" width="1767px" zoomAndPan="magnify"><defs/><g><!--cluster content--><g id="cluster_content"><path d="M532,243.97 L587,243.97 A3.75,3.75 0 0 1 589.5,246.47 L596.5,266.4583 L991,266.4583 A2.5,2.5 0 0 1 993.5,268.9583 L993.5,625.21 A2.5,2.5 0 0 1 991,627.71 L532,627.71 A2.5,2.5 0 0 1 529.5,625.21 L529.5,246.47 A2.5,2.5 0 0 1 532,243.97 " fill="#90EE90" style="stroke:#000000;stroke-width:1.5;"/><line style="stroke:#000000;stroke-width:1.5;" x1="529.5" x2="596.5" y1="266.4583" y2="266.4583"/><text fill="#000000" font-family="sans-serif" font-size="14" font-weight="bold" lengthAdjust="spacing" textLength="54" x="533.5" y="259.5052">content</text></g><!--cluster question_battery--><g id="cluster_question_battery"><path d="M1341,382.22 L1463,382.22 A3.75,3.75 0 0 1 1465.5,384.72 L1472.5,404.7083 L1758,404.7083 A2.5,2.5 0 0 1 1760.5,407.2083 L1760.5,633.45 A2.5,2.5 0 0 1 1758,635.95 L1341,635.95 A2.5,2.5 0 0 1 1338.5,633.45 L1338.5,384.72 A2.5,2.5 0 0 1 1341,382.22 " fill="#FFFF00" style="stroke:#000000;stroke-width:1.5;"/><line style="stroke:#000000;stroke-width:1.5;" x1="1338.5" x2="1472.5" y1="404.7083" y2="404.7083"/><text fill="#000000" font-family="sans-serif" font-size="14" font-weight="bold" lengthAdjust="spacing" textLength="121" x="1342.5" y="397.7552">question_battery</text></g><!--cluster knowledge_base--><g id="cluster_knowledge_base"><path d="M1020,528.71 L1139,528.71 A3.75,3.75 0 0 1 1141.5,531.21 L1148.5,551.1983 L1312,551.1983 A2.5,2.5 0 0 1 1314.5,553.6983 L1314.5,1093.38 A2.5,2.5 0 0 1 1312,1095.88 L1020,1095.88 A2.5,2.5 0 0 1 1017.5,1093.38 L1017.5,531.21 A2.5,2.5 0 0 1 1020,528.71 " fill="#ADD8E6" style="stroke:#000000;stroke-width:1.5;"/><line style="stroke:#000000;stroke-width:1.5;" x1="1017.5" x2="1148.5" y1="551.1983" y2="551.1983"/><text fill="#000000" font-family="sans-serif" font-size="14" font-weight="bold" lengthAdjust="spacing" textLength="118" x="1021.5" y="544.2452">knowledge_base</text></g><!--class Topic--><g id="elem_Topic"><rect codeLine="41" fill="#F1F1F1" height="48" id="Topic" rx="2.5" ry="2.5" style="stroke:#181818;stroke-width:0.5;" width="70" x="733.5" y="425.46"/><ellipse cx="748.5" cy="441.46" fill="#A9DCDF" rx="11" ry="11" style="stroke:#181818;stroke-width:1.0;"/><path d="M748.6133,437.0581 L747.4595,442.1299 L749.7754,442.1299 Z M747.1191,434.8169 L750.1157,434.8169 L753.4609,447.21 L751.0122,447.21 L750.2485,444.147 L746.9697,444.147 L746.2227,447.21 L743.7739,447.21 Z " fill="#000000"/><text fill="#000000" font-family="sans-serif" font-size="14" font-style="italic" lengthAdjust="spacing" textLength="38" x="762.5" y="446.751">Topic</text><line style="stroke:#181818;stroke-width:0.5;" x1="734.5" x2="802.5" y1="457.46" y2="457.46"/><line style="stroke:#181818;stroke-width:0.5;" x1="734.5" x2="802.5" y1="465.46" y2="465.46"/></g><!--class Itinerary--><g id="elem_Itinerary"><rect codeLine="37" fill="#F1F1F1" height="48" id="Itinerary" rx="2.5" ry="2.5" style="stroke:#181818;stroke-width:0.5;" width="89" x="701" y="278.97"/><ellipse cx="716" cy="294.97" fill="#ADD1B2" rx="11" ry="11" style="stroke:#181818;stroke-width:1.0;"/><path d="M718.4731,301.1131 Q717.8921,301.4119 717.2529,301.5613 Q716.6138,301.7107 715.9082,301.7107 Q713.4014,301.7107 712.0815,300.0589 Q710.7617,298.407 710.7617,295.2859 Q710.7617,292.1565 712.0815,290.5047 Q713.4014,288.8528 715.9082,288.8528 Q716.6138,288.8528 717.2612,289.0022 Q717.9087,289.1516 718.4731,289.4505 L718.4731,292.1731 Q717.8423,291.5921 717.2488,291.3223 Q716.6553,291.0525 716.0244,291.0525 Q714.6797,291.0525 713.9949,292.1192 Q713.3101,293.1858 713.3101,295.2859 Q713.3101,297.3777 713.9949,298.4444 Q714.6797,299.511 716.0244,299.511 Q716.6553,299.511 717.2488,299.2412 Q717.8423,298.9715 718.4731,298.3904 Z " fill="#000000"/><text fill="#000000" font-family="sans-serif" font-size="14" lengthAdjust="spacing" textLength="57" x="730" y="300.261">Itinerary</text><line style="stroke:#181818;stroke-width:0.5;" x1="702" x2="789" y1="310.97" y2="310.97"/><line style="stroke:#181818;stroke-width:0.5;" x1="702" x2="789" y1="318.97" y2="318.97"/></g><!--class CompositeTopic--><g id="elem_CompositeTopic"><rect codeLine="53" fill="#F1F1F1" height="48" id="CompositeTopic" rx="2.5" ry="2.5" style="stroke:#181818;stroke-width:0.5;" width="144" x="696.5" y="563.71"/><ellipse cx="711.5" cy="579.71" fill="#ADD1B2" rx="11" ry="11" style="stroke:#181818;stroke-width:1.0;"/><path d="M713.9731,585.8531 Q713.3921,586.1519 712.7529,586.3013 Q712.1138,586.4507 711.4082,586.4507 Q708.9014,586.4507 707.5815,584.7989 Q706.2617,583.147 706.2617,580.0259 Q706.2617,576.8965 707.5815,575.2447 Q708.9014,573.5928 711.4082,573.5928 Q712.1138,573.5928 712.7612,573.7422 Q713.4087,573.8916 713.9731,574.1905 L713.9731,576.9131 Q713.3423,576.3321 712.7488,576.0623 Q712.1553,575.7925 711.5244,575.7925 Q710.1797,575.7925 709.4949,576.8592 Q708.8101,577.9258 708.8101,580.0259 Q708.8101,582.1177 709.4949,583.1844 Q710.1797,584.251 711.5244,584.251 Q712.1553,584.251 712.7488,583.9812 Q713.3423,583.7115 713.9731,583.1304 Z " fill="#000000"/><text fill="#000000" font-family="sans-serif" font-size="14" lengthAdjust="spacing" textLength="112" x="725.5" y="585.001">CompositeTopic</text><line style="stroke:#181818;stroke-width:0.5;" x1="697.5" x2="839.5" y1="595.71" y2="595.71"/><line style="stroke:#181818;stroke-width:0.5;" x1="697.5" x2="839.5" y1="603.71" y2="603.71"/></g><!--class SimpleTopic--><g id="elem_SimpleTopic"><rect codeLine="49" fill="#F1F1F1" height="48" id="SimpleTopic" rx="2.5" ry="2.5" style="stroke:#181818;stroke-width:0.5;" width="116" x="545.5" y="563.71"/><ellipse cx="560.5" cy="579.71" fill="#ADD1B2" rx="11" ry="11" style="stroke:#181818;stroke-width:1.0;"/><path d="M562.9731,585.8531 Q562.3921,586.1519 561.7529,586.3013 Q561.1138,586.4507 560.4082,586.4507 Q557.9014,586.4507 556.5815,584.7989 Q555.2617,583.147 555.2617,580.0259 Q555.2617,576.8965 556.5815,575.2447 Q557.9014,573.5928 560.4082,573.5928 Q561.1138,573.5928 561.7612,573.7422 Q562.4087,573.8916 562.9731,574.1905 L562.9731,576.9131 Q562.3423,576.3321 561.7488,576.0623 Q561.1553,575.7925 560.5244,575.7925 Q559.1797,575.7925 558.4949,576.8592 Q557.8101,577.9258 557.8101,580.0259 Q557.8101,582.1177 558.4949,583.1844 Q559.1797,584.251 560.5244,584.251 Q561.1553,584.251 561.7488,583.9812 Q562.3423,583.7115 562.9731,583.1304 Z " fill="#000000"/><text fill="#000000" font-family="sans-serif" font-size="14" lengthAdjust="spacing" textLength="84" x="574.5" y="585.001">SimpleTopic</text><line style="stroke:#181818;stroke-width:0.5;" x1="546.5" x2="660.5" y1="595.71" y2="595.71"/><line style="stroke:#181818;stroke-width:0.5;" x1="546.5" x2="660.5" y1="603.71" y2="603.71"/></g><!--class Document--><g id="elem_Document"><rect codeLine="47" fill="#FF0000" height="48" id="Document" rx="2.5" ry="2.5" style="stroke:#181818;stroke-width:0.5;" width="102" x="875.5" y="563.71"/><ellipse cx="890.5" cy="579.71" fill="#ADD1B2" rx="11" ry="11" style="stroke:#181818;stroke-width:1.0;"/><path d="M892.9731,585.8531 Q892.3921,586.1519 891.7529,586.3013 Q891.1138,586.4507 890.4082,586.4507 Q887.9014,586.4507 886.5815,584.7989 Q885.2617,583.147 885.2617,580.0259 Q885.2617,576.8965 886.5815,575.2447 Q887.9014,573.5928 890.4082,573.5928 Q891.1138,573.5928 891.7612,573.7422 Q892.4087,573.8916 892.9731,574.1905 L892.9731,576.9131 Q892.3423,576.3321 891.7488,576.0623 Q891.1553,575.7925 890.5244,575.7925 Q889.1797,575.7925 888.4949,576.8592 Q887.8101,577.9258 887.8101,580.0259 Q887.8101,582.1177 888.4949,583.1844 Q889.1797,584.251 890.5244,584.251 Q891.1553,584.251 891.7488,583.9812 Q892.3423,583.7115 892.9731,583.1304 Z " fill="#000000"/><text fill="#000000" font-family="sans-serif" font-size="14" lengthAdjust="spacing" textLength="70" x="904.5" y="585.001">Document</text><line style="stroke:#181818;stroke-width:0.5;" x1="876.5" x2="976.5" y1="595.71" y2="595.71"/><line style="stroke:#181818;stroke-width:0.5;" x1="876.5" x2="976.5" y1="603.71" y2="603.71"/></g><!--class Question--><g id="elem_Question"><rect codeLine="113" fill="#F1F1F1" height="64.4883" id="Question" rx="2.5" ry="2.5" style="stroke:#181818;stroke-width:0.5;" width="133" x="1354" y="417.22"/><ellipse cx="1386.55" cy="433.22" fill="#ADD1B2" rx="11" ry="11" style="stroke:#181818;stroke-width:1.0;"/><path d="M1389.0231,439.3631 Q1388.4421,439.6619 1387.8029,439.8113 Q1387.1638,439.9607 1386.4582,439.9607 Q1383.9514,439.9607 1382.6315,438.3089 Q1381.3117,436.657 1381.3117,433.5359 Q1381.3117,430.4065 1382.6315,428.7547 Q1383.9514,427.1028 1386.4582,427.1028 Q1387.1638,427.1028 1387.8112,427.2522 Q1388.4587,427.4016 1389.0231,427.7005 L1389.0231,430.4231 Q1388.3923,429.8421 1387.7988,429.5723 Q1387.2053,429.3025 1386.5744,429.3025 Q1385.2297,429.3025 1384.5449,430.3692 Q1383.8601,431.4358 1383.8601,433.5359 Q1383.8601,435.6277 1384.5449,436.6944 Q1385.2297,437.761 1386.5744,437.761 Q1387.2053,437.761 1387.7988,437.4912 Q1388.3923,437.2215 1389.0231,436.6404 Z " fill="#000000"/><text fill="#000000" font-family="sans-serif" font-size="14" lengthAdjust="spacing" textLength="62" x="1404.45" y="438.511">Question</text><line style="stroke:#181818;stroke-width:0.5;" x1="1355" x2="1486" y1="449.22" y2="449.22"/><text fill="#000000" font-family="sans-serif" font-size="14" lengthAdjust="spacing" textLength="121" x="1360" y="466.7552">statement : String</text><line style="stroke:#181818;stroke-width:0.5;" x1="1355" x2="1486" y1="473.7083" y2="473.7083"/></g><!--class MultipleChoice--><g id="elem_MultipleChoice"><rect codeLine="126" fill="#F1F1F1" height="48" id="MultipleChoice" rx="2.5" ry="2.5" style="stroke:#181818;stroke-width:0.5;" width="134" x="1354.5" y="563.71"/><ellipse cx="1369.5" cy="579.71" fill="#ADD1B2" rx="11" ry="11" style="stroke:#181818;stroke-width:1.0;"/><path d="M1371.9731,585.8531 Q1371.3921,586.1519 1370.7529,586.3013 Q1370.1138,586.4507 1369.4082,586.4507 Q1366.9014,586.4507 1365.5815,584.7989 Q1364.2617,583.147 1364.2617,580.0259 Q1364.2617,576.8965 1365.5815,575.2447 Q1366.9014,573.5928 1369.4082,573.5928 Q1370.1138,573.5928 1370.7612,573.7422 Q1371.4087,573.8916 1371.9731,574.1905 L1371.9731,576.9131 Q1371.3423,576.3321 1370.7488,576.0623 Q1370.1553,575.7925 1369.5244,575.7925 Q1368.1797,575.7925 1367.4949,576.8592 Q1366.8101,577.9258 1366.8101,580.0259 Q1366.8101,582.1177 1367.4949,583.1844 Q1368.1797,584.251 1369.5244,584.251 Q1370.1553,584.251 1370.7488,583.9812 Q1371.3423,583.7115 1371.9731,583.1304 Z " fill="#000000"/><text fill="#000000" font-family="sans-serif" font-size="14" lengthAdjust="spacing" textLength="102" x="1383.5" y="585.001">MultipleChoice</text><line style="stroke:#181818;stroke-width:0.5;" x1="1355.5" x2="1487.5" y1="595.71" y2="595.71"/><line style="stroke:#181818;stroke-width:0.5;" x1="1355.5" x2="1487.5" y1="603.71" y2="603.71"/></g><!--class Cloze--><g id="elem_Cloze"><rect codeLine="122" fill="#F1F1F1" height="64.4883" id="Cloze" rx="2.5" ry="2.5" style="stroke:#181818;stroke-width:0.5;" width="118" x="1523.5" y="555.46"/><ellipse cx="1559.65" cy="571.46" fill="#ADD1B2" rx="11" ry="11" style="stroke:#181818;stroke-width:1.0;"/><path d="M1562.1231,577.6031 Q1561.5421,577.9019 1560.9029,578.0513 Q1560.2638,578.2007 1559.5582,578.2007 Q1557.0514,578.2007 1555.7315,576.5489 Q1554.4117,574.897 1554.4117,571.7759 Q1554.4117,568.6465 1555.7315,566.9947 Q1557.0514,565.3428 1559.5582,565.3428 Q1560.2638,565.3428 1560.9112,565.4922 Q1561.5587,565.6416 1562.1231,565.9405 L1562.1231,568.6631 Q1561.4923,568.0821 1560.8988,567.8123 Q1560.3053,567.5425 1559.6744,567.5425 Q1558.3297,567.5425 1557.6449,568.6092 Q1556.9601,569.6758 1556.9601,571.7759 Q1556.9601,573.8677 1557.6449,574.9344 Q1558.3297,576.001 1559.6744,576.001 Q1560.3053,576.001 1560.8988,575.7312 Q1561.4923,575.4615 1562.1231,574.8804 Z " fill="#000000"/><text fill="#000000" font-family="sans-serif" font-size="14" lengthAdjust="spacing" textLength="39" x="1578.35" y="576.751">Cloze</text><line style="stroke:#181818;stroke-width:0.5;" x1="1524.5" x2="1640.5" y1="587.46" y2="587.46"/><text fill="#000000" font-family="sans-serif" font-size="14" lengthAdjust="spacing" textLength="106" x="1529.5" y="604.9952">blankCount: int</text><line style="stroke:#181818;stroke-width:0.5;" x1="1524.5" x2="1640.5" y1="611.9483" y2="611.9483"/></g><!--class Open--><g id="elem_Open"><rect fill="#F1F1F1" height="48" id="Open" rx="2.5" ry="2.5" style="stroke:#181818;stroke-width:0.5;" width="69" x="1676" y="563.71"/><ellipse cx="1691" cy="579.71" fill="#ADD1B2" rx="11" ry="11" style="stroke:#181818;stroke-width:1.0;"/><path d="M1693.4731,585.8531 Q1692.8921,586.1519 1692.2529,586.3013 Q1691.6138,586.4507 1690.9082,586.4507 Q1688.4014,586.4507 1687.0815,584.7989 Q1685.7617,583.147 1685.7617,580.0259 Q1685.7617,576.8965 1687.0815,575.2447 Q1688.4014,573.5928 1690.9082,573.5928 Q1691.6138,573.5928 1692.2612,573.7422 Q1692.9087,573.8916 1693.4731,574.1905 L1693.4731,576.9131 Q1692.8423,576.3321 1692.2488,576.0623 Q1691.6553,575.7925 1691.0244,575.7925 Q1689.6797,575.7925 1688.9949,576.8592 Q1688.3101,577.9258 1688.3101,580.0259 Q1688.3101,582.1177 1688.9949,583.1844 Q1689.6797,584.251 1691.0244,584.251 Q1691.6553,584.251 1692.2488,583.9812 Q1692.8423,583.7115 1693.4731,583.1304 Z " fill="#000000"/><text fill="#000000" font-family="sans-serif" font-size="14" lengthAdjust="spacing" textLength="37" x="1705" y="585.001">Open</text><line style="stroke:#181818;stroke-width:0.5;" x1="1677" x2="1744" y1="595.71" y2="595.71"/><line style="stroke:#181818;stroke-width:0.5;" x1="1677" x2="1744" y1="603.71" y2="603.71"/></g><!--class KnowledgeBase--><g id="elem_KnowledgeBase"><rect codeLine="60" fill="#FF0000" height="48" id="KnowledgeBase" rx="2.5" ry="2.5" style="stroke:#181818;stroke-width:0.5;" width="139" x="1055" y="563.71"/><ellipse cx="1070" cy="579.71" fill="#ADD1B2" rx="11" ry="11" style="stroke:#181818;stroke-width:1.0;"/><path d="M1072.4731,585.8531 Q1071.8921,586.1519 1071.2529,586.3013 Q1070.6138,586.4507 1069.9082,586.4507 Q1067.4014,586.4507 1066.0815,584.7989 Q1064.7617,583.147 1064.7617,580.0259 Q1064.7617,576.8965 1066.0815,575.2447 Q1067.4014,573.5928 1069.9082,573.5928 Q1070.6138,573.5928 1071.2612,573.7422 Q1071.9087,573.8916 1072.4731,574.1905 L1072.4731,576.9131 Q1071.8423,576.3321 1071.2488,576.0623 Q1070.6553,575.7925 1070.0244,575.7925 Q1068.6797,575.7925 1067.9949,576.8592 Q1067.3101,577.9258 1067.3101,580.0259 Q1067.3101,582.1177 1067.9949,583.1844 Q1068.6797,584.251 1070.0244,584.251 Q1070.6553,584.251 1071.2488,583.9812 Q1071.8423,583.7115 1072.4731,583.1304 Z " fill="#000000"/><text fill="#000000" font-family="sans-serif" font-size="14" lengthAdjust="spacing" textLength="107" x="1084" y="585.001">KnowledgeBase</text><line style="stroke:#181818;stroke-width:0.5;" x1="1056" x2="1193" y1="595.71" y2="595.71"/><line style="stroke:#181818;stroke-width:0.5;" x1="1056" x2="1193" y1="603.71" y2="603.71"/></g><!--class Concept--><g id="elem_Concept"><rect codeLine="64" fill="#F1F1F1" height="48" id="Concept" rx="2.5" ry="2.5" style="stroke:#181818;stroke-width:0.5;" width="89" x="1100" y="682.95"/><ellipse cx="1115" cy="698.95" fill="#ADD1B2" rx="11" ry="11" style="stroke:#181818;stroke-width:1.0;"/><path d="M1117.4731,705.0931 Q1116.8921,705.3919 1116.2529,705.5413 Q1115.6138,705.6907 1114.9082,705.6907 Q1112.4014,705.6907 1111.0815,704.0389 Q1109.7617,702.387 1109.7617,699.2659 Q1109.7617,696.1365 1111.0815,694.4847 Q1112.4014,692.8328 1114.9082,692.8328 Q1115.6138,692.8328 1116.2612,692.9822 Q1116.9087,693.1316 1117.4731,693.4305 L1117.4731,696.1531 Q1116.8423,695.5721 1116.2488,695.3023 Q1115.6553,695.0325 1115.0244,695.0325 Q1113.6797,695.0325 1112.9949,696.0992 Q1112.3101,697.1658 1112.3101,699.2659 Q1112.3101,701.3577 1112.9949,702.4244 Q1113.6797,703.491 1115.0244,703.491 Q1115.6553,703.491 1116.2488,703.2212 Q1116.8423,702.9515 1117.4731,702.3704 Z " fill="#000000"/><text fill="#000000" font-family="sans-serif" font-size="14" lengthAdjust="spacing" textLength="57" x="1129" y="704.241">Concept</text><line style="stroke:#181818;stroke-width:0.5;" x1="1101" x2="1188" y1="714.95" y2="714.95"/><line style="stroke:#181818;stroke-width:0.5;" x1="1101" x2="1188" y1="722.95" y2="722.95"/></g><!--class Definition--><g id="elem_Definition"><rect codeLine="70" fill="#F1F1F1" height="64.4883" id="Definition" rx="2.5" ry="2.5" style="stroke:#181818;stroke-width:0.5;" width="142" x="1033.5" y="807.95"/><ellipse cx="1067.85" cy="823.95" fill="#ADD1B2" rx="11" ry="11" style="stroke:#181818;stroke-width:1.0;"/><path d="M1070.3231,830.0931 Q1069.7421,830.3919 1069.1029,830.5413 Q1068.4638,830.6907 1067.7582,830.6907 Q1065.2514,830.6907 1063.9315,829.0389 Q1062.6117,827.387 1062.6117,824.2659 Q1062.6117,821.1365 1063.9315,819.4847 Q1065.2514,817.8328 1067.7582,817.8328 Q1068.4638,817.8328 1069.1112,817.9822 Q1069.7587,818.1316 1070.3231,818.4305 L1070.3231,821.1531 Q1069.6923,820.5721 1069.0988,820.3023 Q1068.5053,820.0325 1067.8744,820.0325 Q1066.5297,820.0325 1065.8449,821.0992 Q1065.1601,822.1658 1065.1601,824.2659 Q1065.1601,826.3577 1065.8449,827.4244 Q1066.5297,828.491 1067.8744,828.491 Q1068.5053,828.491 1069.0988,828.2212 Q1069.6923,827.9515 1070.3231,827.3704 Z " fill="#000000"/><text fill="#000000" font-family="sans-serif" font-size="14" lengthAdjust="spacing" textLength="67" x="1086.15" y="829.241">Definition</text><line style="stroke:#181818;stroke-width:0.5;" x1="1034.5" x2="1174.5" y1="839.95" y2="839.95"/><rect fill="none" height="6" style="stroke:#C82930;stroke-width:1.0;" width="6" x="1041.5" y="850.6941"/><text fill="#000000" font-family="sans-serif" font-size="14" lengthAdjust="spacing" textLength="116" x="1053.5" y="857.4852">correct : boolean</text><line style="stroke:#181818;stroke-width:0.5;" x1="1034.5" x2="1174.5" y1="864.4383" y2="864.4383"/></g><!--class Relation--><g id="elem_Relation"><rect codeLine="75" fill="#F1F1F1" height="48" id="Relation" rx="2.5" ry="2.5" style="stroke:#181818;stroke-width:0.5;" width="88" x="1210.5" y="816.19"/><ellipse cx="1225.5" cy="832.19" fill="#ADD1B2" rx="11" ry="11" style="stroke:#181818;stroke-width:1.0;"/><path d="M1227.9731,838.3331 Q1227.3921,838.6319 1226.7529,838.7813 Q1226.1138,838.9307 1225.4082,838.9307 Q1222.9014,838.9307 1221.5815,837.2789 Q1220.2617,835.627 1220.2617,832.5059 Q1220.2617,829.3765 1221.5815,827.7247 Q1222.9014,826.0728 1225.4082,826.0728 Q1226.1138,826.0728 1226.7612,826.2222 Q1227.4087,826.3716 1227.9731,826.6705 L1227.9731,829.3931 Q1227.3423,828.8121 1226.7488,828.5423 Q1226.1553,828.2725 1225.5244,828.2725 Q1224.1797,828.2725 1223.4949,829.3392 Q1222.8101,830.4058 1222.8101,832.5059 Q1222.8101,834.5977 1223.4949,835.6644 Q1224.1797,836.731 1225.5244,836.731 Q1226.1553,836.731 1226.7488,836.4612 Q1227.3423,836.1915 1227.9731,835.6104 Z " fill="#000000"/><text fill="#000000" font-family="sans-serif" font-size="14" lengthAdjust="spacing" textLength="56" x="1239.5" y="837.481">Relation</text><line style="stroke:#181818;stroke-width:0.5;" x1="1211.5" x2="1297.5" y1="848.19" y2="848.19"/><line style="stroke:#181818;stroke-width:0.5;" x1="1211.5" x2="1297.5" y1="856.19" y2="856.19"/></g><!--class RelationType--><g id="elem_RelationType"><rect codeLine="80" fill="#F1F1F1" height="130.4414" id="RelationType" rx="2.5" ry="2.5" style="stroke:#181818;stroke-width:0.5;" width="121" x="1177" y="949.44"/><ellipse cx="1192" cy="965.44" fill="#EB937F" rx="11" ry="11" style="stroke:#181818;stroke-width:1.0;"/><path d="M1195.6143,971.94 L1187.8945,971.94 L1187.8945,959.5469 L1195.6143,959.5469 L1195.6143,961.7051 L1190.3433,961.7051 L1190.3433,964.378 L1195.1162,964.378 L1195.1162,966.5362 L1190.3433,966.5362 L1190.3433,969.7818 L1195.6143,969.7818 Z " fill="#000000"/><text fill="#000000" font-family="sans-serif" font-size="14" lengthAdjust="spacing" textLength="89" x="1206" y="970.731">RelationType</text><line style="stroke:#181818;stroke-width:0.5;" x1="1178" x2="1297" y1="981.44" y2="981.44"/><text fill="#000000" font-family="sans-serif" font-size="14" lengthAdjust="spacing" textLength="25" x="1183" y="998.9752">Use</text><text fill="#000000" font-family="sans-serif" font-size="14" lengthAdjust="spacing" textLength="79" x="1183" y="1015.4634">Association</text><text fill="#000000" font-family="sans-serif" font-size="14" lengthAdjust="spacing" textLength="88" x="1183" y="1031.9517">Composition</text><text fill="#000000" font-family="sans-serif" font-size="14" lengthAdjust="spacing" textLength="77" x="1183" y="1048.44">Inheritance</text><text fill="#000000" font-family="sans-serif" font-size="14" lengthAdjust="spacing" textLength="86" x="1183" y="1064.9283">Aggregation</text><line style="stroke:#181818;stroke-width:0.5;" x1="1178" x2="1297" y1="1071.8814" y2="1071.8814"/></g><!--class EducationPlatform--><g id="elem_EducationPlatform"><rect fill="#F1F1F1" height="48" id="EducationPlatform" rx="2.5" ry="2.5" style="stroke:#181818;stroke-width:0.5;" width="158" x="666.5" y="7"/><ellipse cx="681.5" cy="23" fill="#ADD1B2" rx="11" ry="11" style="stroke:#181818;stroke-width:1.0;"/><path d="M683.9731,29.1431 Q683.3921,29.4419 682.7529,29.5913 Q682.1138,29.7407 681.4082,29.7407 Q678.9014,29.7407 677.5815,28.0889 Q676.2617,26.437 676.2617,23.3159 Q676.2617,20.1865 677.5815,18.5347 Q678.9014,16.8828 681.4082,16.8828 Q682.1138,16.8828 682.7612,17.0322 Q683.4087,17.1816 683.9731,17.4805 L683.9731,20.2031 Q683.3423,19.6221 682.7488,19.3523 Q682.1553,19.0825 681.5244,19.0825 Q680.1797,19.0825 679.4949,20.1492 Q678.8101,21.2158 678.8101,23.3159 Q678.8101,25.4077 679.4949,26.4744 Q680.1797,27.541 681.5244,27.541 Q682.1553,27.541 682.7488,27.2712 Q683.3423,27.0015 683.9731,26.4204 Z " fill="#000000"/><text fill="#000000" font-family="sans-serif" font-size="14" lengthAdjust="spacing" textLength="126" x="695.5" y="28.291">EducationPlatform</text><line style="stroke:#181818;stroke-width:0.5;" x1="667.5" x2="823.5" y1="39" y2="39"/><line style="stroke:#181818;stroke-width:0.5;" x1="667.5" x2="823.5" y1="47" y2="47"/></g><!--class User--><g id="elem_User"><rect codeLine="21" fill="#F1F1F1" height="48" id="User" rx="2.5" ry="2.5" style="stroke:#181818;stroke-width:0.5;" width="63" x="140" y="132.49"/><ellipse cx="155" cy="148.49" fill="#A9DCDF" rx="11" ry="11" style="stroke:#181818;stroke-width:1.0;"/><path d="M155.1133,144.0881 L153.9595,149.1599 L156.2754,149.1599 Z M153.6191,141.8469 L156.6157,141.8469 L159.9609,154.24 L157.5122,154.24 L156.7485,151.177 L153.4697,151.177 L152.7227,154.24 L150.2739,154.24 Z " fill="#000000"/><text fill="#000000" font-family="sans-serif" font-size="14" font-style="italic" lengthAdjust="spacing" textLength="31" x="169" y="153.781">User</text><line style="stroke:#181818;stroke-width:0.5;" x1="141" x2="202" y1="164.49" y2="164.49"/><line style="stroke:#181818;stroke-width:0.5;" x1="141" x2="202" y1="172.49" y2="172.49"/></g><!--class Evaluator--><g id="elem_Evaluator"><rect codeLine="134" fill="#F1F1F1" height="48" id="Evaluator" rx="2.5" ry="2.5" style="stroke:#181818;stroke-width:0.5;" width="96" x="1151.5" y="132.49"/><ellipse cx="1166.5" cy="148.49" fill="#ADD1B2" rx="11" ry="11" style="stroke:#181818;stroke-width:1.0;"/><path d="M1168.9731,154.6331 Q1168.3921,154.9319 1167.7529,155.0813 Q1167.1138,155.2307 1166.4082,155.2307 Q1163.9014,155.2307 1162.5815,153.5789 Q1161.2617,151.927 1161.2617,148.8059 Q1161.2617,145.6765 1162.5815,144.0247 Q1163.9014,142.3728 1166.4082,142.3728 Q1167.1138,142.3728 1167.7612,142.5222 Q1168.4087,142.6716 1168.9731,142.9705 L1168.9731,145.6931 Q1168.3423,145.1121 1167.7488,144.8423 Q1167.1553,144.5725 1166.5244,144.5725 Q1165.1797,144.5725 1164.4949,145.6392 Q1163.8101,146.7058 1163.8101,148.8059 Q1163.8101,150.8977 1164.4949,151.9644 Q1165.1797,153.031 1166.5244,153.031 Q1167.1553,153.031 1167.7488,152.7612 Q1168.3423,152.4915 1168.9731,151.9104 Z " fill="#000000"/><text fill="#000000" font-family="sans-serif" font-size="14" lengthAdjust="spacing" textLength="64" x="1180.5" y="153.781">Evaluator</text><line style="stroke:#181818;stroke-width:0.5;" x1="1152.5" x2="1246.5" y1="164.49" y2="164.49"/><line style="stroke:#181818;stroke-width:0.5;" x1="1152.5" x2="1246.5" y1="172.49" y2="172.49"/></g><!--class Category--><g id="elem_Category"><rect codeLine="90" fill="#F1F1F1" height="48" id="Category" rx="2.5" ry="2.5" style="stroke:#181818;stroke-width:0.5;" width="94" x="416.5" y="563.71"/><ellipse cx="431.5" cy="579.71" fill="#A9DCDF" rx="11" ry="11" style="stroke:#181818;stroke-width:1.0;"/><path d="M431.6133,575.3081 L430.4595,580.3799 L432.7754,580.3799 Z M430.1191,573.0669 L433.1157,573.0669 L436.4609,585.46 L434.0122,585.46 L433.2485,582.397 L429.9697,582.397 L429.2227,585.46 L426.7739,585.46 Z " fill="#000000"/><text fill="#000000" font-family="sans-serif" font-size="14" font-style="italic" lengthAdjust="spacing" textLength="62" x="445.5" y="585.001">Category</text><line style="stroke:#181818;stroke-width:0.5;" x1="417.5" x2="509.5" y1="595.71" y2="595.71"/><line style="stroke:#181818;stroke-width:0.5;" x1="417.5" x2="509.5" y1="603.71" y2="603.71"/></g><!--class Solution--><g id="elem_Solution"><rect codeLine="12" fill="#F1F1F1" height="80.9766" id="Solution" rx="2.5" ry="2.5" style="stroke:#181818;stroke-width:0.5;" width="160" x="282.5" y="116"/><ellipse cx="329.75" cy="132" fill="#A9DCDF" rx="11" ry="11" style="stroke:#181818;stroke-width:1.0;"/><path d="M329.8633,127.5981 L328.7095,132.6699 L331.0254,132.6699 Z M328.3691,125.3569 L331.3657,125.3569 L334.7109,137.75 L332.2622,137.75 L331.4985,134.687 L328.2197,134.687 L327.4727,137.75 L325.0239,137.75 Z " fill="#000000"/><text fill="#000000" font-family="sans-serif" font-size="14" font-style="italic" lengthAdjust="spacing" textLength="57" x="350.25" y="137.291">Solution</text><line style="stroke:#181818;stroke-width:0.5;" x1="283.5" x2="441.5" y1="148" y2="148"/><rect fill="none" height="6" style="stroke:#C82930;stroke-width:1.0;" width="6" x="290.5" y="158.7441"/><text fill="#000000" font-family="sans-serif" font-size="14" lengthAdjust="spacing" textLength="116" x="302.5" y="165.5352">correct : boolean</text><rect fill="none" height="6" style="stroke:#C82930;stroke-width:1.0;" width="6" x="290.5" y="175.2324"/><text fill="#000000" font-family="sans-serif" font-size="14" lengthAdjust="spacing" textLength="134" x="302.5" y="182.0234">evaluated : boolean</text><line style="stroke:#181818;stroke-width:0.5;" x1="283.5" x2="441.5" y1="188.9766" y2="188.9766"/></g><!--class Application--><g id="elem_Application"><rect codeLine="106" fill="#F1F1F1" height="64.4883" id="Application" rx="2.5" ry="2.5" style="stroke:#181818;stroke-width:0.5;" width="110" x="322.5" y="270.73"/><ellipse cx="337.5" cy="286.73" fill="#ADD1B2" rx="11" ry="11" style="stroke:#181818;stroke-width:1.0;"/><path d="M339.9731,292.8731 Q339.3921,293.1719 338.7529,293.3213 Q338.1138,293.4707 337.4082,293.4707 Q334.9014,293.4707 333.5815,291.8189 Q332.2617,290.167 332.2617,287.0459 Q332.2617,283.9165 333.5815,282.2647 Q334.9014,280.6128 337.4082,280.6128 Q338.1138,280.6128 338.7612,280.7622 Q339.4087,280.9116 339.9731,281.2105 L339.9731,283.9331 Q339.3423,283.3521 338.7488,283.0823 Q338.1553,282.8125 337.5244,282.8125 Q336.1797,282.8125 335.4949,283.8792 Q334.8101,284.9458 334.8101,287.0459 Q334.8101,289.1377 335.4949,290.2044 Q336.1797,291.271 337.5244,291.271 Q338.1553,291.271 338.7488,291.0012 Q339.3423,290.7315 339.9731,290.1504 Z " fill="#000000"/><text fill="#000000" font-family="sans-serif" font-size="14" lengthAdjust="spacing" textLength="78" x="351.5" y="292.021">Application</text><line style="stroke:#181818;stroke-width:0.5;" x1="323.5" x2="431.5" y1="302.73" y2="302.73"/><text fill="#000000" font-family="sans-serif" font-size="14" lengthAdjust="spacing" textLength="92" x="328.5" y="320.2652">requirements</text><line style="stroke:#181818;stroke-width:0.5;" x1="323.5" x2="431.5" y1="327.2183" y2="327.2183"/></g><!--class Answer--><g id="elem_Answer"><rect codeLine="130" fill="#F1F1F1" height="48" id="Answer" rx="2.5" ry="2.5" style="stroke:#181818;stroke-width:0.5;" width="83" x="1158" y="278.97"/><ellipse cx="1173" cy="294.97" fill="#ADD1B2" rx="11" ry="11" style="stroke:#181818;stroke-width:1.0;"/><path d="M1175.4731,301.1131 Q1174.8921,301.4119 1174.2529,301.5613 Q1173.6138,301.7107 1172.9082,301.7107 Q1170.4014,301.7107 1169.0815,300.0589 Q1167.7617,298.407 1167.7617,295.2859 Q1167.7617,292.1565 1169.0815,290.5047 Q1170.4014,288.8528 1172.9082,288.8528 Q1173.6138,288.8528 1174.2612,289.0022 Q1174.9087,289.1516 1175.4731,289.4505 L1175.4731,292.1731 Q1174.8423,291.5921 1174.2488,291.3223 Q1173.6553,291.0525 1173.0244,291.0525 Q1171.6797,291.0525 1170.9949,292.1192 Q1170.3101,293.1858 1170.3101,295.2859 Q1170.3101,297.3777 1170.9949,298.4444 Q1171.6797,299.511 1173.0244,299.511 Q1173.6553,299.511 1174.2488,299.2412 Q1174.8423,298.9715 1175.4731,298.3904 Z " fill="#000000"/><text fill="#000000" font-family="sans-serif" font-size="14" lengthAdjust="spacing" textLength="51" x="1187" y="300.261">Answer</text><line style="stroke:#181818;stroke-width:0.5;" x1="1159" x2="1240" y1="310.97" y2="310.97"/><line style="stroke:#181818;stroke-width:0.5;" x1="1159" x2="1240" y1="318.97" y2="318.97"/></g><!--class Student--><g id="elem_Student"><rect codeLine="29" fill="#F1F1F1" height="48" id="Student" rx="2.5" ry="2.5" style="stroke:#181818;stroke-width:0.5;" width="85" x="129" y="278.97"/><ellipse cx="144" cy="294.97" fill="#ADD1B2" rx="11" ry="11" style="stroke:#181818;stroke-width:1.0;"/><path d="M146.4731,301.1131 Q145.8921,301.4119 145.2529,301.5613 Q144.6138,301.7107 143.9082,301.7107 Q141.4014,301.7107 140.0815,300.0589 Q138.7617,298.407 138.7617,295.2859 Q138.7617,292.1565 140.0815,290.5047 Q141.4014,288.8528 143.9082,288.8528 Q144.6138,288.8528 145.2612,289.0022 Q145.9087,289.1516 146.4731,289.4505 L146.4731,292.1731 Q145.8423,291.5921 145.2488,291.3223 Q144.6553,291.0525 144.0244,291.0525 Q142.6797,291.0525 141.9949,292.1192 Q141.3101,293.1858 141.3101,295.2859 Q141.3101,297.3777 141.9949,298.4444 Q142.6797,299.511 144.0244,299.511 Q144.6553,299.511 145.2488,299.2412 Q145.8423,298.9715 146.4731,298.3904 Z " fill="#000000"/><text fill="#000000" font-family="sans-serif" font-size="14" lengthAdjust="spacing" textLength="53" x="158" y="300.261">Student</text><line style="stroke:#181818;stroke-width:0.5;" x1="130" x2="213" y1="310.97" y2="310.97"/><line style="stroke:#181818;stroke-width:0.5;" x1="130" x2="213" y1="318.97" y2="318.97"/></g><!--class Justification--><g id="elem_Justification"><rect codeLine="32" fill="#F1F1F1" height="48" id="Justification" rx="2.5" ry="2.5" style="stroke:#181818;stroke-width:0.5;" width="112" x="240.5" y="990.66"/><ellipse cx="255.5" cy="1006.66" fill="#ADD1B2" rx="11" ry="11" style="stroke:#181818;stroke-width:1.0;"/><path d="M257.9731,1012.8031 Q257.3921,1013.1019 256.7529,1013.2513 Q256.1138,1013.4007 255.4082,1013.4007 Q252.9014,1013.4007 251.5815,1011.7489 Q250.2617,1010.097 250.2617,1006.9759 Q250.2617,1003.8465 251.5815,1002.1947 Q252.9014,1000.5428 255.4082,1000.5428 Q256.1138,1000.5428 256.7612,1000.6922 Q257.4087,1000.8416 257.9731,1001.1405 L257.9731,1003.8631 Q257.3423,1003.2821 256.7488,1003.0123 Q256.1553,1002.7425 255.5244,1002.7425 Q254.1797,1002.7425 253.4949,1003.8092 Q252.8101,1004.8758 252.8101,1006.9759 Q252.8101,1009.0677 253.4949,1010.1344 Q254.1797,1011.201 255.5244,1011.201 Q256.1553,1011.201 256.7488,1010.9312 Q257.3423,1010.6615 257.9731,1010.0804 Z " fill="#000000"/><text fill="#000000" font-family="sans-serif" font-size="14" lengthAdjust="spacing" textLength="80" x="269.5" y="1011.951">Justification</text><line style="stroke:#181818;stroke-width:0.5;" x1="241.5" x2="351.5" y1="1022.66" y2="1022.66"/><line style="stroke:#181818;stroke-width:0.5;" x1="241.5" x2="351.5" y1="1030.66" y2="1030.66"/></g><!--class Teacher--><g id="elem_Teacher"><rect codeLine="26" fill="#F1F1F1" height="48" id="Teacher" rx="2.5" ry="2.5" style="stroke:#181818;stroke-width:0.5;" width="87" x="7" y="278.97"/><ellipse cx="22" cy="294.97" fill="#ADD1B2" rx="11" ry="11" style="stroke:#181818;stroke-width:1.0;"/><path d="M24.4731,301.1131 Q23.8921,301.4119 23.2529,301.5613 Q22.6138,301.7107 21.9082,301.7107 Q19.4014,301.7107 18.0815,300.0589 Q16.7617,298.407 16.7617,295.2859 Q16.7617,292.1565 18.0815,290.5047 Q19.4014,288.8528 21.9082,288.8528 Q22.6138,288.8528 23.2612,289.0022 Q23.9087,289.1516 24.4731,289.4505 L24.4731,292.1731 Q23.8423,291.5921 23.2488,291.3223 Q22.6553,291.0525 22.0244,291.0525 Q20.6797,291.0525 19.9949,292.1192 Q19.3101,293.1858 19.3101,295.2859 Q19.3101,297.3777 19.9949,298.4444 Q20.6797,299.511 22.0244,299.511 Q22.6553,299.511 23.2488,299.2412 Q23.8423,298.9715 24.4731,298.3904 Z " fill="#000000"/><text fill="#000000" font-family="sans-serif" font-size="14" lengthAdjust="spacing" textLength="55" x="36" y="300.261">Teacher</text><line style="stroke:#181818;stroke-width:0.5;" x1="8" x2="93" y1="310.97" y2="310.97"/><line style="stroke:#181818;stroke-width:0.5;" x1="8" x2="93" y1="318.97" y2="318.97"/></g><!--class CompositeCategory--><g id="elem_CompositeCategory"><rect fill="#F1F1F1" height="48" id="CompositeCategory" rx="2.5" ry="2.5" style="stroke:#181818;stroke-width:0.5;" width="168" x="379.5" y="682.95"/><ellipse cx="394.5" cy="698.95" fill="#ADD1B2" rx="11" ry="11" style="stroke:#181818;stroke-width:1.0;"/><path d="M396.9731,705.0931 Q396.3921,705.3919 395.7529,705.5413 Q395.1138,705.6907 394.4082,705.6907 Q391.9014,705.6907 390.5815,704.0389 Q389.2617,702.387 389.2617,699.2659 Q389.2617,696.1365 390.5815,694.4847 Q391.9014,692.8328 394.4082,692.8328 Q395.1138,692.8328 395.7612,692.9822 Q396.4087,693.1316 396.9731,693.4305 L396.9731,696.1531 Q396.3423,695.5721 395.7488,695.3023 Q395.1553,695.0325 394.5244,695.0325 Q393.1797,695.0325 392.4949,696.0992 Q391.8101,697.1658 391.8101,699.2659 Q391.8101,701.3577 392.4949,702.4244 Q393.1797,703.491 394.5244,703.491 Q395.1553,703.491 395.7488,703.2212 Q396.3423,702.9515 396.9731,702.3704 Z " fill="#000000"/><text fill="#000000" font-family="sans-serif" font-size="14" lengthAdjust="spacing" textLength="136" x="408.5" y="704.241">CompositeCategory</text><line style="stroke:#181818;stroke-width:0.5;" x1="380.5" x2="546.5" y1="714.95" y2="714.95"/><line style="stroke:#181818;stroke-width:0.5;" x1="380.5" x2="546.5" y1="722.95" y2="722.95"/></g><!--class SimpleCategory--><g id="elem_SimpleCategory"><rect fill="#F1F1F1" height="48" id="SimpleCategory" rx="2.5" ry="2.5" style="stroke:#181818;stroke-width:0.5;" width="140" x="582.5" y="682.95"/><ellipse cx="597.5" cy="698.95" fill="#ADD1B2" rx="11" ry="11" style="stroke:#181818;stroke-width:1.0;"/><path d="M599.9731,705.0931 Q599.3921,705.3919 598.7529,705.5413 Q598.1138,705.6907 597.4082,705.6907 Q594.9014,705.6907 593.5815,704.0389 Q592.2617,702.387 592.2617,699.2659 Q592.2617,696.1365 593.5815,694.4847 Q594.9014,692.8328 597.4082,692.8328 Q598.1138,692.8328 598.7612,692.9822 Q599.4087,693.1316 599.9731,693.4305 L599.9731,696.1531 Q599.3423,695.5721 598.7488,695.3023 Q598.1553,695.0325 597.5244,695.0325 Q596.1797,695.0325 595.4949,696.0992 Q594.8101,697.1658 594.8101,699.2659 Q594.8101,701.3577 595.4949,702.4244 Q596.1797,703.491 597.5244,703.491 Q598.1553,703.491 598.7488,703.2212 Q599.3423,702.9515 599.9731,702.3704 Z " fill="#000000"/><text fill="#000000" font-family="sans-serif" font-size="14" lengthAdjust="spacing" textLength="108" x="611.5" y="704.241">SimpleCategory</text><line style="stroke:#181818;stroke-width:0.5;" x1="583.5" x2="721.5" y1="714.95" y2="714.95"/><line style="stroke:#181818;stroke-width:0.5;" x1="583.5" x2="721.5" y1="722.95" y2="722.95"/></g><!--class Domain--><g id="elem_Domain"><rect codeLine="97" fill="#F1F1F1" height="64.4883" id="Domain" rx="2.5" ry="2.5" style="stroke:#181818;stroke-width:0.5;" width="85" x="339" y="417.22"/><ellipse cx="354" cy="433.22" fill="#ADD1B2" rx="11" ry="11" style="stroke:#181818;stroke-width:1.0;"/><path d="M356.4731,439.3631 Q355.8921,439.6619 355.2529,439.8113 Q354.6138,439.9607 353.9082,439.9607 Q351.4014,439.9607 350.0815,438.3089 Q348.7617,436.657 348.7617,433.5359 Q348.7617,430.4065 350.0815,428.7547 Q351.4014,427.1028 353.9082,427.1028 Q354.6138,427.1028 355.2612,427.2522 Q355.9087,427.4016 356.4731,427.7005 L356.4731,430.4231 Q355.8423,429.8421 355.2488,429.5723 Q354.6553,429.3025 354.0244,429.3025 Q352.6797,429.3025 351.9949,430.3692 Q351.3101,431.4358 351.3101,433.5359 Q351.3101,435.6277 351.9949,436.6944 Q352.6797,437.761 354.0244,437.761 Q354.6553,437.761 355.2488,437.4912 Q355.8423,437.2215 356.4731,436.6404 Z " fill="#000000"/><text fill="#000000" font-family="sans-serif" font-size="14" lengthAdjust="spacing" textLength="53" x="368" y="438.511">Domain</text><line style="stroke:#181818;stroke-width:0.5;" x1="340" x2="423" y1="449.22" y2="449.22"/><text fill="#000000" font-family="sans-serif" font-size="14" lengthAdjust="spacing" textLength="50" x="345" y="466.7552">version</text><line style="stroke:#181818;stroke-width:0.5;" x1="340" x2="423" y1="473.7083" y2="473.7083"/></g><!--link EducationPlatform to User--><g id="link_EducationPlatform_User"><path codeLine="2" d="M654.1932,41.7606 C557.9732,53.1506 403.5,75.5 265.5,116 C244.27,122.23 226.8201,129.3026 208.9301,137.4526 " fill="none" id="EducationPlatform-User" style="stroke:#008000;stroke-width:1.0;"/><polygon fill="#008000" points="666.11,40.35,659.6814,37.0831,654.1932,41.7606,660.6218,45.0276,666.11,40.35" style="stroke:#008000;stroke-width:1.0;"/><polygon fill="#008000" points="203.47,139.94,213.3184,139.8489,208.0201,137.8672,210.0019,132.5688,203.47,139.94" style="stroke:#008000;stroke-width:1.0;"/><text fill="#000000" font-family="sans-serif" font-size="13" lengthAdjust="spacing" textLength="10" x="211.0951" y="132.5801">+</text></g><!--link EducationPlatform to Topic--><g id="link_EducationPlatform_Topic"><path codeLine="3" d="M774.2432,64.7103 C787.1832,80.5803 795.04,93.4 802.5,116 C833.06,208.54 823.59,239.1 807.5,335.22 C802.11,367.42 791.0134,397.1908 781.4234,419.6808 " fill="none" id="EducationPlatform-Topic" style="stroke:#008000;stroke-width:1.0;"/><polygon fill="#008000" points="766.66,55.41,767.3515,62.5879,774.2432,64.7103,773.5517,57.5324,766.66,55.41" style="stroke:#008000;stroke-width:1.0;"/><polygon fill="#008000" points="779.07,425.2,786.2796,418.4902,781.0312,420.6007,778.9207,415.3523,779.07,425.2" style="stroke:#008000;stroke-width:1.0;"/></g><!--link EducationPlatform to Itinerary--><g id="link_EducationPlatform_Itinerary"><path codeLine="4" d="M685.5719,61.6336 C662.0819,75.6336 646.65,89.69 633.5,116 C617.4,148.19 619.19,163.95 633.5,196.97 C648.49,231.58 676.2302,256.547 702.4202,275.057 " fill="none" id="EducationPlatform-Itinerary" style="stroke:#008000;stroke-width:1.0;"/><polygon fill="#008000" points="695.88,55.49,688.6781,55.1258,685.5719,61.6336,692.7738,61.9978,695.88,55.49" style="stroke:#008000;stroke-width:1.0;"/><polygon fill="#008000" points="707.32,278.52,702.279,270.059,703.2368,275.6342,697.6617,276.5921,707.32,278.52" style="stroke:#008000;stroke-width:1.0;"/><text fill="#000000" font-family="sans-serif" font-size="13" lengthAdjust="spacing" textLength="67" x="634.5" y="161.5584">predefined</text></g><!--link EducationPlatform to Itinerary--><g id="link_EducationPlatform_Itinerary"><path codeLine="5" d="M745.5,67.48 C745.5,118.67 745.5,221.77 745.5,272.73 " fill="none" id="EducationPlatform-Itinerary-1" style="stroke:#008000;stroke-width:1.0;"/><polygon fill="none" points="745.5,55.48,741.5,61.48,745.5,67.48,749.5,61.48,745.5,55.48" style="stroke:#008000;stroke-width:1.0;"/><polygon fill="#008000" points="745.5,278.73,749.5,269.73,745.5,273.73,741.5,269.73,745.5,278.73" style="stroke:#008000;stroke-width:1.0;"/><text fill="#000000" font-family="sans-serif" font-size="13" lengthAdjust="spacing" textLength="47" x="746.5" y="161.5584">custom</text><text fill="#000000" font-family="sans-serif" font-size="13" lengthAdjust="spacing" textLength="6" x="738.7313" y="268.2048">*</text></g><!--link EducationPlatform to Evaluator--><g id="link_EducationPlatform_Evaluator"><path codeLine="6" d="M836.6322,39.7839 C901.5422,46.7139 983.2,59.12 1061.5,85 C1097.01,96.73 1129.4483,113.4923 1156.4283,129.1223 " fill="none" id="EducationPlatform-Evaluator" style="stroke:#008000;stroke-width:1.0;"/><polygon fill="#008000" points="824.7,38.51,830.2415,43.1244,836.6322,39.7839,831.0907,35.1696,824.7,38.51" style="stroke:#008000;stroke-width:1.0;"/><polygon fill="#008000" points="1161.62,132.13,1155.8375,124.1574,1157.2936,129.6236,1151.8273,131.0797,1161.62,132.13" style="stroke:#008000;stroke-width:1.0;"/></g><!--link EducationPlatform to Question--><g id="link_EducationPlatform_Question"><path codeLine="7" d="M836.9582,36.6233 C964.8082,44.3433 1196.67,64.76 1264.5,116 C1365.36,192.18 1402.4969,343.8549 1414.5969,411.0649 " fill="none" id="EducationPlatform-Question" style="stroke:#008000;stroke-width:1.0;"/><polygon fill="#008000" points="824.98,35.9,830.728,40.2544,836.9582,36.6233,831.2102,32.2689,824.98,35.9" style="stroke:#008000;stroke-width:1.0;"/><polygon fill="#008000" points="1415.66,416.97,1418.0021,407.4037,1414.7741,412.0491,1410.1286,408.8211,1415.66,416.97" style="stroke:#008000;stroke-width:1.0;"/><text fill="#000000" font-family="sans-serif" font-size="13" lengthAdjust="spacing" textLength="6" x="1408.043" y="406.3216">*</text></g><!--link EducationPlatform to Category--><g id="link_EducationPlatform_Category"><path codeLine="8" d="M654.1787,40.1931 C580.9787,51.0031 495.5,78.15 495.5,155.49 C495.5,155.49 495.5,155.49 495.5,450.46 C495.5,491.04 483.8777,530.9923 474.4077,557.8123 " fill="none" id="EducationPlatform-Category" style="stroke:#008000;stroke-width:1.0;"/><polygon fill="#008000" points="666.05,38.44,659.53,35.3595,654.1787,40.1931,660.6987,43.2736,666.05,38.44" style="stroke:#008000;stroke-width:1.0;"/><polygon fill="#008000" points="472.41,563.47,479.1783,556.3153,474.0747,558.7553,471.6348,553.6517,472.41,563.47" style="stroke:#008000;stroke-width:1.0;"/><text fill="#000000" font-family="sans-serif" font-size="13" lengthAdjust="spacing" textLength="6" x="467.9244" y="552.9448">*</text></g><!--link EducationPlatform to Solution--><g id="link_EducationPlatform_Solution"><path codeLine="9" d="M654.2184,40.3536 C597.7584,47.2436 532.89,59.23 469.5,85 C450.34,92.79 435.9423,100.8619 419.0623,112.2619 " fill="none" id="EducationPlatform-Solution" style="stroke:#008000;stroke-width:1.0;"/><polygon fill="#008000" points="666.13,38.9,659.6896,35.6563,654.2184,40.3536,660.6587,43.5974,666.13,38.9" style="stroke:#008000;stroke-width:1.0;"/><polygon fill="#008000" points="414.09,115.62,423.7871,113.8978,418.2336,112.8216,419.3097,107.2681,414.09,115.62" style="stroke:#008000;stroke-width:1.0;"/><text fill="#000000" font-family="sans-serif" font-size="13" lengthAdjust="spacing" textLength="6" x="416.1377" y="105.2031">*</text></g><!--link EducationPlatform to KnowledgeBase--><g id="link_EducationPlatform_KnowledgeBase"><path codeLine="10" d="M836.7113,33.9795 C922.5813,39.9295 1035.5,63.55 1035.5,155.49 C1035.5,155.49 1035.5,155.49 1035.5,450.46 C1035.5,496.23 1066.799,534.4881 1092.969,559.4581 " fill="none" id="EducationPlatform-KnowledgeBase" style="stroke:#008000;stroke-width:1.0;"/><polygon fill="#008000" points="824.74,33.15,830.4491,37.5552,836.7113,33.9795,831.0021,29.5743,824.74,33.15" style="stroke:#008000;stroke-width:1.0;"/><polygon fill="#008000" points="1097.31,563.6,1093.5598,554.4931,1093.6925,560.1484,1088.0372,560.2811,1097.31,563.6" style="stroke:#008000;stroke-width:1.0;"/></g><!--reverse link Solution to Application--><g id="link_Solution_Application"><path codeLine="16" d="M368.4964,215.254 C370.8864,238.304 372,249.01 374.23,270.47 " fill="none" id="Solution-backto-Application" style="stroke:#181818;stroke-width:1.0;"/><polygon fill="none" points="366.64,197.35,362.5284,215.8728,374.4644,214.6352,366.64,197.35" style="stroke:#181818;stroke-width:1.0;"/></g><!--reverse link Solution to Answer--><g id="link_Solution_Answer"><path codeLine="17" d="M460.486,178.9002 C497.136,186.4902 523.54,191.25 563.5,196.97 C753.46,224.17 805.44,197.8 993.5,235.97 C1051.65,247.78 1116.49,270.15 1157.61,285.55 " fill="none" id="Solution-backto-Answer" style="stroke:#181818;stroke-width:1.0;"/><polygon fill="none" points="442.86,175.25,459.2692,184.7756,461.7027,173.0249,442.86,175.25" style="stroke:#181818;stroke-width:1.0;"/></g><!--link Solution to Student--><g id="link_Solution_Student"><path codeLine="18" d="M285.05,197.35 C270.07,206.32 254.88,216.36 241.5,226.97 C222.24,242.25 207.2777,258.263 193.9977,274.013 " fill="none" id="Solution-to-Student" style="stroke:#181818;stroke-width:1.0;"/><polygon fill="#181818" points="190.13,278.6,198.9896,274.2979,193.3531,274.7775,192.8735,269.141,190.13,278.6" style="stroke:#181818;stroke-width:1.0;"/></g><!--link Solution to Justification--><g id="link_Solution_Justification"><path codeLine="19" d="M310.188,206.0459 C285.378,232.8459 267.5,261.75 267.5,301.97 C267.5,301.97 267.5,301.97 267.5,841.19 C267.5,895.24 280.0138,951.7021 288.5538,984.6321 " fill="none" id="Solution-Justification" style="stroke:#181818;stroke-width:1.0;"/><polygon fill="#181818" points="318.34,197.24,311.3287,198.9256,310.188,206.0459,317.1993,204.3603,318.34,197.24" style="stroke:#181818;stroke-width:1.0;"/><polygon fill="#181818" points="290.06,990.44,291.6726,980.7241,288.8048,985.6001,283.9288,982.7323,290.06,990.44" style="stroke:#181818;stroke-width:1.0;"/><text fill="#000000" font-family="sans-serif" font-size="13" lengthAdjust="spacing" textLength="112" x="268.5" y="592.7784">[!solution.correct]</text><text fill="#000000" font-family="sans-serif" font-size="13" lengthAdjust="spacing" textLength="6" x="281.641" y="979.9199">*</text></g><!--reverse link User to Teacher--><g id="link_User_Teacher"><path codeLine="23" d="M140.5025,194.4994 C117.9225,221.4594 92.45,251.88 69.89,278.82 " fill="none" id="User-backto-Teacher" style="stroke:#181818;stroke-width:1.0;"/><polygon fill="none" points="152.06,180.7,135.9027,190.6469,145.1023,198.3519,152.06,180.7" style="stroke:#181818;stroke-width:1.0;"/></g><!--reverse link User to Student--><g id="link_User_Student"><path codeLine="24" d="M171.5,198.7 C171.5,225.66 171.5,251.88 171.5,278.82 " fill="none" id="User-backto-Student" style="stroke:#181818;stroke-width:1.0;"/><polygon fill="none" points="171.5,180.7,165.5,198.7,177.5,198.7,171.5,180.7" style="stroke:#181818;stroke-width:1.0;"/></g><!--link Itinerary to Topic--><g id="link_Itinerary_Topic"><path codeLine="39" d="M751.0858,339.0409 C755.3758,366.0009 759.5886,392.4443 763.8686,419.3843 " fill="none" id="Itinerary-Topic" style="stroke:#181818;stroke-width:1.0;"/><polygon fill="none" points="749.2,327.19,746.1926,333.744,751.0858,339.0409,754.0932,332.4869,749.2,327.19" style="stroke:#181818;stroke-width:1.0;"/><polygon fill="#181818" points="764.81,425.31,767.3483,415.7939,764.0255,420.3719,759.4474,417.0491,764.81,425.31" style="stroke:#181818;stroke-width:1.0;"/><text fill="#000000" font-family="sans-serif" font-size="13" lengthAdjust="spacing" textLength="10" x="752.5832" y="414.8078">+</text></g><!--reverse link Topic to CompositeTopic--><g id="link_Topic_CompositeTopic"><path codeLine="43" d="M755.8997,491.6763 C752.0897,516.7863 754.8,538.6 758.65,563.59 " fill="none" id="Topic-backto-CompositeTopic" style="stroke:#181818;stroke-width:1.0;"/><polygon fill="none" points="758.6,473.88,749.9676,490.7762,761.8318,492.5764,758.6,473.88" style="stroke:#181818;stroke-width:1.0;"/></g><!--link CompositeTopic to Topic--><g id="link_CompositeTopic_Topic"><path codeLine="55" d="M780.8636,551.7468 C784.9436,526.7568 783.9731,504.9138 779.9331,479.8038 " fill="none" id="CompositeTopic-Topic" style="stroke:#181818;stroke-width:1.0;"/><polygon fill="none" points="778.93,563.59,783.8445,558.3129,780.8636,551.7468,775.9491,557.0239,778.93,563.59" style="stroke:#181818;stroke-width:1.0;"/><polygon fill="#181818" points="778.98,473.88,776.4604,483.4011,779.7742,478.8165,784.3589,482.1303,778.98,473.88" style="stroke:#181818;stroke-width:1.0;"/><text fill="#000000" font-family="sans-serif" font-size="13" lengthAdjust="spacing" textLength="10" x="770.2473" y="493.8658">+</text></g><!--reverse link Topic to SimpleTopic--><g id="link_Topic_SimpleTopic"><path codeLine="44" d="M723.947,484.9077 C706.607,498.4077 698.75,504.76 679.5,520.71 C662.68,534.64 644.16,550.7 629.62,563.49 " fill="none" id="Topic-backto-SimpleTopic" style="stroke:#181818;stroke-width:1.0;"/><polygon fill="none" points="738.15,473.85,720.261,480.1734,727.6329,489.6421,738.15,473.85" style="stroke:#181818;stroke-width:1.0;"/></g><!--link Topic to Document--><g id="link_Topic_Document"><path codeLine="45" d="M809.5572,480.9635 C827.1372,494.2735 839.67,504.3 858.5,520.71 C874.13,534.32 886.6074,546.2774 899.5574,559.2274 " fill="none" id="Topic-Document" style="stroke:#181818;stroke-width:1.0;"/><polygon fill="#181818" points="799.99,473.72,802.3591,480.5308,809.5572,480.9635,807.1881,474.1526,799.99,473.72" style="stroke:#181818;stroke-width:1.0;"/><polygon fill="#181818" points="903.8,563.47,900.2645,554.2776,900.2645,559.9345,894.6076,559.9345,903.8,563.47" style="stroke:#181818;stroke-width:1.0;"/><text fill="#000000" font-family="sans-serif" font-size="13" lengthAdjust="spacing" textLength="6" x="891.2144" y="552.9448">*</text></g><!--link SimpleTopic to Concept--><g id="link_SimpleTopic_Concept"><path codeLine="51" d="M638.2378,619.825 C652.1578,631.305 661.02,636.56 679.5,643.95 C755.5,674.35 992.8268,694.7818 1093.8768,702.3518 " fill="none" id="SimpleTopic-Concept" style="stroke:#181818;stroke-width:1.0;"/><polygon fill="none" points="628.98,612.19,631.0639,619.0934,638.2378,619.825,636.1539,612.9216,628.98,612.19" style="stroke:#181818;stroke-width:1.0;"/><polygon fill="#181818" points="1099.86,702.8,1091.184,698.1388,1094.874,702.4265,1090.5863,706.1165,1099.86,702.8" style="stroke:#181818;stroke-width:1.0;"/><text fill="#000000" font-family="sans-serif" font-size="13" lengthAdjust="spacing" textLength="10" x="1081.9486" y="698.5364">+</text></g><!--reverse link KnowledgeBase to Concept--><g id="link_KnowledgeBase_Concept"><path codeLine="62" d="M1130.5187,623.979 C1134.0087,644.429 1137.02,662.11 1140.51,682.55 " fill="none" id="KnowledgeBase-backto-Concept" style="stroke:#181818;stroke-width:1.0;"/><polygon fill="#181818" points="1128.5,612.15,1125.5664,618.7374,1130.5187,623.979,1133.4524,617.3916,1128.5,612.15" style="stroke:#181818;stroke-width:1.0;"/><text fill="#000000" font-family="sans-serif" font-size="13" lengthAdjust="spacing" textLength="10" x="1128.3187" y="672.3806">+</text></g><!--link Concept to Definition--><g id="link_Concept_Definition"><path codeLine="66" d="M1128.2606,742.2508 C1124.1606,751.3508 1124.7,751.02 1121.5,760.95 C1116.64,776.03 1113.901,787.3134 1111.061,801.7134 " fill="none" id="Concept-Definition" style="stroke:#181818;stroke-width:1.0;"/><polygon fill="#181818" points="1133.19,731.31,1127.0784,735.1373,1128.2606,742.2508,1134.3722,738.4235,1133.19,731.31" style="stroke:#181818;stroke-width:1.0;"/><polygon fill="#181818" points="1109.9,807.6,1115.5659,799.5441,1110.8675,802.6945,1107.717,797.9961,1109.9,807.6" style="stroke:#181818;stroke-width:1.0;"/><text fill="#000000" font-family="sans-serif" font-size="13" lengthAdjust="spacing" textLength="10" x="1099.9788" y="797.3054">+</text></g><!--link Concept to Relation--><g id="link_Concept_Relation"><path codeLine="67" d="M1151.5241,743.0878 C1155.0041,757.5678 1158.28,764.26 1168.5,777.95 C1179.79,793.08 1190.9005,802.663 1206.1405,812.643 " fill="none" id="Concept-Relation" style="stroke:#181818;stroke-width:1.0;"/><polygon fill="#181818" points="1148.72,731.42,1146.2328,738.1886,1151.5241,743.0878,1154.0113,736.3192,1148.72,731.42" style="stroke:#181818;stroke-width:1.0;"/><polygon fill="#181818" points="1211.16,815.93,1205.8221,807.6531,1206.9771,813.1908,1201.4394,814.3458,1211.16,815.93" style="stroke:#181818;stroke-width:1.0;"/><text fill="#000000" font-family="sans-serif" font-size="13" lengthAdjust="spacing" textLength="37" x="1169.5" y="774.5184">origin</text><text fill="#000000" font-family="sans-serif" font-size="13" lengthAdjust="spacing" textLength="6" x="1196.6161" y="807.6712">*</text></g><!--link Relation to Concept--><g id="link_Relation_Concept"><path codeLine="77" d="M1244.65,815.76 C1237.06,799.37 1225.51,777.52 1211.5,760.95 C1202.31,750.08 1195.3536,743.5581 1184.2936,735.0881 " fill="none" id="Relation-to-Concept" style="stroke:#181818;stroke-width:1.0;"/><polygon fill="#181818" points="1179.53,731.44,1184.2433,740.0878,1183.4996,734.48,1189.1074,733.7364,1179.53,731.44" style="stroke:#181818;stroke-width:1.0;"/><text fill="#000000" font-family="sans-serif" font-size="13" lengthAdjust="spacing" textLength="37" x="1223.5" y="774.5184">target</text></g><!--link Definition to Justification--><g id="link_Definition_Justification"><path codeLine="73" d="M1021.4145,858.9255 C863.0045,892.7455 502.2578,969.7374 358.8178,1000.3574 " fill="none" id="Definition-Justification" style="stroke:#181818;stroke-width:1.0;"/><polygon fill="#181818" points="1033.15,856.42,1026.4471,853.7609,1021.4145,858.9255,1028.1174,861.5846,1033.15,856.42" style="stroke:#181818;stroke-width:1.0;"/><polygon fill="#181818" points="352.95,1001.61,362.5868,1003.643,357.8398,1000.5662,360.9166,995.8192,352.95,1001.61" style="stroke:#181818;stroke-width:1.0;"/><text fill="#000000" font-family="sans-serif" font-size="13" lengthAdjust="spacing" textLength="121" x="797.5" y="916.0084">[!definition.correct]</text><text fill="#000000" font-family="sans-serif" font-size="13" lengthAdjust="spacing" textLength="6" x="360.567" y="996.5653">*</text></g><!--link Relation to RelationType--><g id="link_Relation_RelationType"><path codeLine="78" d="M1251.0323,876.3921 C1248.8923,898.0921 1247.3691,913.579 1244.4391,943.279 " fill="none" id="Relation-RelationType" style="stroke:#181818;stroke-width:1.0;"/><polygon fill="#181818" points="1252.21,864.45,1247.6405,870.0285,1251.0323,876.3921,1255.6018,870.8136,1252.21,864.45" style="stroke:#181818;stroke-width:1.0;"/><polygon fill="#181818" points="1243.85,949.25,1248.7143,940.6862,1244.3409,944.2742,1240.7529,939.9008,1243.85,949.25" style="stroke:#181818;stroke-width:1.0;"/></g><!--reverse link Category to CompositeCategory--><g id="link_Category_CompositeCategory"><path codeLine="93" d="M450.3792,629.9493 C447.2992,650.3993 449.98,662.11 453.07,682.55 " fill="none" id="Category-backto-CompositeCategory" style="stroke:#181818;stroke-width:1.0;"/><polygon fill="none" points="453.06,612.15,444.4461,629.0557,456.3123,630.8428,453.06,612.15" style="stroke:#181818;stroke-width:1.0;"/></g><!--link CompositeCategory to Category--><g id="link_CompositeCategory_Category"><path codeLine="94" d="M476.4457,670.7007 C479.7157,650.2607 478.7674,638.5247 475.4974,618.0747 " fill="none" id="CompositeCategory-Category" style="stroke:#181818;stroke-width:1.0;"/><polygon fill="#181818" points="474.55,682.55,479.4476,677.2572,476.4457,670.7007,471.5481,675.9935,474.55,682.55" style="stroke:#181818;stroke-width:1.0;"/><polygon fill="#181818" points="474.55,612.15,472.0212,621.6687,475.3395,617.0873,479.9209,620.4055,474.55,612.15" style="stroke:#181818;stroke-width:1.0;"/></g><!--reverse link Category to SimpleCategory--><g id="link_Category_SimpleCategory"><path codeLine="95" d="M502.288,624.0741 C514.148,634.4841 515.27,634.59 529.5,643.95 C551.48,658.41 577.28,671.89 599.56,682.56 " fill="none" id="Category-backto-SimpleCategory" style="stroke:#181818;stroke-width:1.0;"/><polygon fill="none" points="488.76,612.2,498.33,628.5834,506.246,619.5647,488.76,612.2" style="stroke:#181818;stroke-width:1.0;"/></g><!--link Domain to Category--><g id="link_Domain_Category"><path codeLine="100" d="M401.4118,492.7153 C406.3318,502.7053 406.74,502.93 412.5,512.71 C422.8,530.18 432.2823,544.1222 442.5723,558.4022 " fill="none" id="Domain-Category" style="stroke:#181818;stroke-width:1.0;"/><polygon fill="none" points="396.11,481.95,395.1725,489.0999,401.4118,492.7153,402.3493,485.5654,396.11,481.95" style="stroke:#181818;stroke-width:1.0;"/><polygon fill="#181818" points="446.08,563.27,444.0637,553.6298,443.1569,559.2135,437.5732,558.3067,446.08,563.27" style="stroke:#181818;stroke-width:1.0;"/><text fill="#000000" font-family="sans-serif" font-size="13" lengthAdjust="spacing" textLength="6" x="435.1026" y="553.0908">*</text></g><!--link Domain to SimpleTopic--><g id="link_Domain_SimpleTopic"><path codeLine="101" d="M424.34,467.22 C454.59,479.92 495.46,498.88 528.5,520.71 C547.31,533.13 562.0206,545.8163 576.2106,559.3663 " fill="none" id="Domain-to-SimpleTopic" style="stroke:#181818;stroke-width:1.0;"/><polygon fill="#181818" points="580.55,563.51,576.8034,554.4016,576.9339,560.057,571.2785,560.1874,580.55,563.51" style="stroke:#181818;stroke-width:1.0;"/><text fill="#000000" font-family="sans-serif" font-size="13" lengthAdjust="spacing" textLength="10" x="563.3878" y="552.995">+</text></g><!--reverse link Domain to Domain--><g id="link_Domain_Domain"><path codeLine="102" d="M436.1219,437.2014 C454.8619,436.1714 459,440.7 459,449.46 C459,458.22 442.88,462.09 424.14,461.06 " fill="none" id="Domain-backto-Domain" style="stroke:#181818;stroke-width:1.0;"/><polygon fill="#181818" points="424.14,437.86,430.3505,441.5247,436.1219,437.2014,429.9114,433.5367,424.14,437.86" style="stroke:#181818;stroke-width:1.0;"/><text fill="#000000" font-family="sans-serif" font-size="13" lengthAdjust="spacing" textLength="6" x="431.9844" y="459.359">*</text></g><!--link Application to Domain--><g id="link_Application_Domain"><path codeLine="109" d="M378.38,335.68 C379.04,359.77 379.7956,386.7523 380.4556,410.8323 " fill="none" id="Application-to-Domain" style="stroke:#181818;stroke-width:1.0;"/><polygon fill="#181818" points="380.62,416.83,384.3719,407.7238,380.483,411.8319,376.3749,407.943,380.62,416.83" style="stroke:#181818;stroke-width:1.0;"/><text fill="#000000" font-family="sans-serif" font-size="13" lengthAdjust="spacing" textLength="6" x="373.8561" y="406.5275">*</text></g><!--reverse link Question to MultipleChoice--><g id="link_Question_MultipleChoice"><path codeLine="116" d="M1420.8604,500.0595 C1421.0404,524.8995 1421.16,540.94 1421.33,563.36 " fill="none" id="Question-backto-MultipleChoice" style="stroke:#181818;stroke-width:1.0;"/><polygon fill="none" points="1420.73,482.06,1414.8606,500.103,1426.8603,500.0161,1420.73,482.06" style="stroke:#181818;stroke-width:1.0;"/></g><!--reverse link Question to Cloze--><g id="link_Question_Cloze"><path codeLine="117" d="M1473.0187,493.5901 C1487.5987,505.6101 1490.41,508.01 1505.5,520.71 C1518.7,531.82 1533.08,544.09 1545.8,555.01 " fill="none" id="Question-backto-Cloze" style="stroke:#181818;stroke-width:1.0;"/><polygon fill="none" points="1459.13,482.14,1469.202,498.2196,1476.8354,488.9605,1459.13,482.14" style="stroke:#181818;stroke-width:1.0;"/></g><!--reverse link Question to Open--><g id="link_Question_Open"><path codeLine="118" d="M1505.1238,461.8043 C1555.8938,470.6343 1607.81,485.39 1659.5,520.71 C1675.52,531.65 1688.74,549.22 1697.71,563.48 " fill="none" id="Question-backto-Open" style="stroke:#181818;stroke-width:1.0;"/><polygon fill="none" points="1487.39,458.72,1504.0957,467.7156,1506.1519,455.893,1487.39,458.72" style="stroke:#181818;stroke-width:1.0;"/></g><!--link Question to Concept--><g id="link_Question_Concept"><path codeLine="119" d="M1381.99,482.07 C1367.81,493.96 1351.74,507.75 1337.5,520.71 C1279.57,573.43 1268.25,589.96 1211.5,643.95 C1197.95,656.84 1187.0766,666.9588 1174.5266,678.4988 " fill="none" id="Question-to-Concept" style="stroke:#181818;stroke-width:1.0;"/><polygon fill="#181818" points="1170.11,682.56,1179.4424,679.4126,1173.7905,679.1757,1174.0275,673.5238,1170.11,682.56" style="stroke:#181818;stroke-width:1.0;"/><text fill="#000000" font-family="sans-serif" font-size="13" lengthAdjust="spacing" textLength="10" x="1165.1337" y="672.393">+</text></g><!--link Answer to Question--><g id="link_Answer_Question"><path codeLine="132" d="M1235.01,327.19 C1272.22,351.52 1325.8975,386.6176 1367.2875,413.6676 " fill="none" id="Answer-to-Question" style="stroke:#181818;stroke-width:1.0;"/><polygon fill="#181818" points="1372.31,416.95,1366.9645,408.678,1368.1246,414.2147,1362.5879,415.3747,1372.31,416.95" style="stroke:#181818;stroke-width:1.0;"/></g><!--link Evaluator to Question--><g id="link_Evaluator_Question"><path codeLine="136" d="M1217.21,180.81 C1256.65,232.73 1348.0911,353.1218 1392.8311,412.0318 " fill="none" id="Evaluator-to-Question" style="stroke:#181818;stroke-width:1.0;stroke-dasharray:7.0,7.0;"/><polygon fill="#181818" points="1396.46,416.81,1394.2022,407.2234,1393.4359,412.8282,1387.8312,412.0619,1396.46,416.81" style="stroke:#181818;stroke-width:1.0;"/></g><!--link Evaluator to Answer--><g id="link_Evaluator_Answer"><path codeLine="137" d="M1199.5,180.7 C1199.5,207.66 1199.5,245.88 1199.5,272.82 " fill="none" id="Evaluator-to-Answer" style="stroke:#181818;stroke-width:1.0;stroke-dasharray:7.0,7.0;"/><polygon fill="#181818" points="1199.5,278.82,1203.5,269.82,1199.5,273.82,1195.5,269.82,1199.5,278.82" style="stroke:#181818;stroke-width:1.0;"/></g><!--SRC=[ZLR9Rjim4BthAzZuK225_0524S1rSaYBealIKn0Kj3HHY52aGb8nNDV_NkwBxIRsmJRVp73UZEQHkkgc5Yl2sNUArGCN0pglxsQz063tzGKw-t26VaaGrTNhVYrd2fYQt_AHjASwNol2G62nGGqQ1NJmeDVTaMXUK3e_Exf3Eqd5XxToNxrWEc75twp8f7cUG1gFtoki58ZD_8S7JWbUOWKz5vjJV6yudKxPzudnDOMk1yr8mlnBM7xIgwh2Awa4RbNS3cqhf3-rxfSGe0qDMd5E0JEFW-i6T9bbLyNmZt_h6g75E5BYMEsP5aokzMn4iDOKRzJKwKUJmFFQ5_bPFo3ou7Tgxjv9xp7txEwp2ipCRJKLy-jotG9k7tMoX8HCLKknbC71H7d4EsH8GG5PmuZR9zn362aqewH_LBRZsygsoOMcKNDDtTdlXFBQoyL9m5fZEHRBuopWobZoOUIIA721UzORCepqm1HxUidRQR1DI4m3XcPQKsYxostPTZcT34w5x0tRahCMnY9JIJtViBJiDoThUvd4Ttz59oYQNmowhIjFLbfrRsogetmjL1Ara8xg-9fvbfVc929su8_xwCx_1Egcg45Sa9uur_T7VHTAwTayU4unYn-frxJgs6OX_vLL5tqoOQMiaNVUXGYQJKC93L9OzA1AZrXOG6ut8xW4mAQXWBEwj6pZ_uMKl2KuzZSVc1oxPbhFH65D9yNsMffzYjMZjClEZN3ewimQZwjIQF5aFa1SLvEzY7SYYSOgg6t0XBb2Nq18GsnNETJFVNuPU4FGGovlRxBpQwLjbbKL4cN7iCacu7aY0inGIPqmiw9qEBWTWjRshpCqsm2bV5r8BLnnwT6PZrIw07keDFfO5OJrqUmcA8IvLdsTg2AcMO-S-8TNEYmf_tCC_pO2A-7GgI1dgpBZ5YRHMlrDb6lTP4X5h2XcJqi-CTKWmbIOdUHVKWxYY3U7Is1k3FVFyegl0zuflbmOlxX0y_d5QwyIXPylv1y0]--></g></svg>