<?xml version="1.0" encoding="UTF-8" standalone="no"?><svg xmlns="http://www.w3.org/2000/svg" xmlns:xlink="http://www.w3.org/1999/xlink" contentStyleType="text/css" height="926px" preserveAspectRatio="none" style="width:1140px;height:926px;background:#FFFFFF;" version="1.1" viewBox="0 0 1140 926" width="1140px" zoomAndPan="magnify"><defs/><g><!--MD5=[9563755d011c5cec7ec66dc53565a59e]
class Board--><g id="elem_Board"><rect codeLine="2" fill="#F1F1F1" height="48" id="Board" rx="2.5" ry="2.5" style="stroke:#181818;stroke-width:0.5;" width="70" x="998" y="547"/><ellipse cx="1013" cy="563" fill="#ADD1B2" rx="11" ry="11" style="stroke:#181818;stroke-width:1.0;"/><path d="M1015.7656,558.875 Q1015.9219,558.6563 1016.1094,558.5469 Q1016.2969,558.4375 1016.5156,558.4375 Q1016.8906,558.4375 1017.125,558.7031 Q1017.3594,558.9531 1017.3594,559.5625 L1017.3594,561.0156 Q1017.3594,561.625 1017.125,561.8906 Q1016.8906,562.1563 1016.5156,562.1563 Q1016.1719,562.1563 1015.9688,561.9531 Q1015.7656,561.7656 1015.6563,561.25 Q1015.6094,560.8906 1015.4219,560.7031 Q1015.0938,560.3281 1014.4844,560.1094 Q1013.875,559.8906 1013.25,559.8906 Q1012.4844,559.8906 1011.8438,560.2188 Q1011.2188,560.5469 1010.7188,561.2969 Q1010.2344,562.0469 1010.2344,563.0781 L1010.2344,564.1719 Q1010.2344,565.4063 1011.125,566.2344 Q1012.0156,567.0469 1013.6094,567.0469 Q1014.5469,567.0469 1015.2031,566.7969 Q1015.5938,566.6406 1016.0156,566.2031 Q1016.2813,565.9375 1016.4219,565.8594 Q1016.5781,565.7813 1016.7813,565.7813 Q1017.1094,565.7813 1017.3594,566.0469 Q1017.625,566.2969 1017.625,566.6406 Q1017.625,566.9844 1017.2813,567.3906 Q1016.7813,567.9688 1015.9844,568.2969 Q1014.9063,568.75 1013.6094,568.75 Q1012.0938,568.75 1010.8906,568.125 Q1009.9063,567.625 1009.2188,566.5625 Q1008.5313,565.4844 1008.5313,564.2031 L1008.5313,563.0469 Q1008.5313,561.7188 1009.1406,560.5781 Q1009.7656,559.4219 1010.8594,558.8125 Q1011.9531,558.1875 1013.1875,558.1875 Q1013.9219,558.1875 1014.5625,558.3594 Q1015.2188,558.5156 1015.7656,558.875 Z " fill="#000000"/><text fill="#000000" font-family="sans-serif" font-size="14" lengthAdjust="spacing" textLength="38" x="1027" y="568.7285">Board</text><line style="stroke:#181818;stroke-width:0.5;" x1="999" x2="1067" y1="579" y2="579"/><line style="stroke:#181818;stroke-width:0.5;" x1="999" x2="1067" y1="587" y2="587"/></g><!--MD5=[9b237e88d697a058bd530d6510c96c00]
class BoardView--><g id="elem_BoardView"><rect codeLine="18" fill="#F1F1F1" height="48" id="BoardView" rx="2.5" ry="2.5" style="stroke:#181818;stroke-width:0.5;" width="99" x="796.5" y="439"/><ellipse cx="811.5" cy="455" fill="#ADD1B2" rx="11" ry="11" style="stroke:#181818;stroke-width:1.0;"/><path d="M814.2656,450.875 Q814.4219,450.6563 814.6094,450.5469 Q814.7969,450.4375 815.0156,450.4375 Q815.3906,450.4375 815.625,450.7031 Q815.8594,450.9531 815.8594,451.5625 L815.8594,453.0156 Q815.8594,453.625 815.625,453.8906 Q815.3906,454.1563 815.0156,454.1563 Q814.6719,454.1563 814.4688,453.9531 Q814.2656,453.7656 814.1563,453.25 Q814.1094,452.8906 813.9219,452.7031 Q813.5938,452.3281 812.9844,452.1094 Q812.375,451.8906 811.75,451.8906 Q810.9844,451.8906 810.3438,452.2188 Q809.7188,452.5469 809.2188,453.2969 Q808.7344,454.0469 808.7344,455.0781 L808.7344,456.1719 Q808.7344,457.4063 809.625,458.2344 Q810.5156,459.0469 812.1094,459.0469 Q813.0469,459.0469 813.7031,458.7969 Q814.0938,458.6406 814.5156,458.2031 Q814.7813,457.9375 814.9219,457.8594 Q815.0781,457.7813 815.2813,457.7813 Q815.6094,457.7813 815.8594,458.0469 Q816.125,458.2969 816.125,458.6406 Q816.125,458.9844 815.7813,459.3906 Q815.2813,459.9688 814.4844,460.2969 Q813.4063,460.75 812.1094,460.75 Q810.5938,460.75 809.3906,460.125 Q808.4063,459.625 807.7188,458.5625 Q807.0313,457.4844 807.0313,456.2031 L807.0313,455.0469 Q807.0313,453.7188 807.6406,452.5781 Q808.2656,451.4219 809.3594,450.8125 Q810.4531,450.1875 811.6875,450.1875 Q812.4219,450.1875 813.0625,450.3594 Q813.7188,450.5156 814.2656,450.875 Z " fill="#000000"/><text fill="#000000" font-family="sans-serif" font-size="14" lengthAdjust="spacing" textLength="67" x="825.5" y="460.7285">BoardView</text><line style="stroke:#181818;stroke-width:0.5;" x1="797.5" x2="894.5" y1="471" y2="471"/><line style="stroke:#181818;stroke-width:0.5;" x1="797.5" x2="894.5" y1="479" y2="479"/></g><!--MD5=[a6506cb8083f762528b9107a98ea401f]
class BoundedIntDialogView--><g id="elem_BoundedIntDialogView"><rect codeLine="24" fill="#F1F1F1" height="48" id="BoundedIntDialogView" rx="2.5" ry="2.5" style="stroke:#181818;stroke-width:0.5;" width="173" x="14.5" y="547"/><ellipse cx="29.5" cy="563" fill="#ADD1B2" rx="11" ry="11" style="stroke:#181818;stroke-width:1.0;"/><path d="M32.2656,558.875 Q32.4219,558.6563 32.6094,558.5469 Q32.7969,558.4375 33.0156,558.4375 Q33.3906,558.4375 33.625,558.7031 Q33.8594,558.9531 33.8594,559.5625 L33.8594,561.0156 Q33.8594,561.625 33.625,561.8906 Q33.3906,562.1563 33.0156,562.1563 Q32.6719,562.1563 32.4688,561.9531 Q32.2656,561.7656 32.1563,561.25 Q32.1094,560.8906 31.9219,560.7031 Q31.5938,560.3281 30.9844,560.1094 Q30.375,559.8906 29.75,559.8906 Q28.9844,559.8906 28.3438,560.2188 Q27.7188,560.5469 27.2188,561.2969 Q26.7344,562.0469 26.7344,563.0781 L26.7344,564.1719 Q26.7344,565.4063 27.625,566.2344 Q28.5156,567.0469 30.1094,567.0469 Q31.0469,567.0469 31.7031,566.7969 Q32.0938,566.6406 32.5156,566.2031 Q32.7813,565.9375 32.9219,565.8594 Q33.0781,565.7813 33.2813,565.7813 Q33.6094,565.7813 33.8594,566.0469 Q34.125,566.2969 34.125,566.6406 Q34.125,566.9844 33.7813,567.3906 Q33.2813,567.9688 32.4844,568.2969 Q31.4063,568.75 30.1094,568.75 Q28.5938,568.75 27.3906,568.125 Q26.4063,567.625 25.7188,566.5625 Q25.0313,565.4844 25.0313,564.2031 L25.0313,563.0469 Q25.0313,561.7188 25.6406,560.5781 Q26.2656,559.4219 27.3594,558.8125 Q28.4531,558.1875 29.6875,558.1875 Q30.4219,558.1875 31.0625,558.3594 Q31.7188,558.5156 32.2656,558.875 Z " fill="#000000"/><text fill="#000000" font-family="sans-serif" font-size="14" lengthAdjust="spacing" textLength="141" x="43.5" y="568.7285">BoundedIntDialogView</text><line style="stroke:#181818;stroke-width:0.5;" x1="15.5" x2="186.5" y1="579" y2="579"/><line style="stroke:#181818;stroke-width:0.5;" x1="15.5" x2="186.5" y1="587" y2="587"/></g><!--MD5=[18eee71c88ab61f27581b8cbdd3ef5ee]
class Color--><g id="elem_Color"><rect codeLine="31" fill="#F1F1F1" height="48" id="Color" rx="2.5" ry="2.5" style="stroke:#181818;stroke-width:0.5;" width="66" x="1000" y="655"/><ellipse cx="1015" cy="671" fill="#EB937F" rx="11" ry="11" style="stroke:#181818;stroke-width:1.0;"/><path d="M1013.8594,671.7969 L1013.8594,674.2969 L1018.1875,674.2969 L1018.1875,673.375 Q1018.1875,672.7656 1018.4219,672.5 Q1018.6719,672.2344 1019.0469,672.2344 Q1019.4219,672.2344 1019.6563,672.5 Q1019.8906,672.7656 1019.8906,673.375 L1019.8906,676 L1011.8906,676 Q1011.2656,676 1011,675.7656 Q1010.75,675.5313 1010.75,675.1406 Q1010.75,674.7656 1011.0156,674.5313 Q1011.2813,674.2969 1011.8906,674.2969 L1012.1563,674.2969 L1012.1563,667.6406 L1011.8906,667.6406 Q1011.2656,667.6406 1011,667.4063 Q1010.75,667.1719 1010.75,666.7813 Q1010.75,666.4063 1011,666.1719 Q1011.2656,665.9375 1011.8906,665.9375 L1019.5156,665.9375 L1019.5156,668.5313 Q1019.5156,669.1406 1019.2813,669.4063 Q1019.0625,669.6563 1018.6719,669.6563 Q1018.2969,669.6563 1018.0625,669.4063 Q1017.8281,669.1406 1017.8281,668.5313 L1017.8281,667.6406 L1013.8594,667.6406 L1013.8594,670.0938 L1015.3438,670.0938 Q1015.3438,669.4375 1015.4688,669.25 Q1015.7344,668.8438 1016.2031,668.8438 Q1016.5781,668.8438 1016.8125,669.1094 Q1017.0469,669.3594 1017.0469,669.9688 L1017.0469,671.9375 Q1017.0469,672.4844 1016.9219,672.6719 Q1016.6563,673.0625 1016.2031,673.0625 Q1015.7344,673.0625 1015.4688,672.6563 Q1015.3438,672.4688 1015.3438,671.7969 L1013.8594,671.7969 Z " fill="#000000"/><text fill="#000000" font-family="sans-serif" font-size="14" lengthAdjust="spacing" textLength="34" x="1029" y="676.7285">Color</text><line style="stroke:#181818;stroke-width:0.5;" x1="1001" x2="1065" y1="687" y2="687"/><line style="stroke:#181818;stroke-width:0.5;" x1="1001" x2="1065" y1="695" y2="695"/></g><!--MD5=[8c7d7abc12e214c3cc12c9ab70edee11]
class Coordinate--><g id="elem_Coordinate"><rect codeLine="57" fill="#F1F1F1" height="48" id="Coordinate" rx="2.5" ry="2.5" style="stroke:#181818;stroke-width:0.5;" width="102" x="778" y="763"/><ellipse cx="793" cy="779" fill="#ADD1B2" rx="11" ry="11" style="stroke:#181818;stroke-width:1.0;"/><path d="M795.7656,774.875 Q795.9219,774.6563 796.1094,774.5469 Q796.2969,774.4375 796.5156,774.4375 Q796.8906,774.4375 797.125,774.7031 Q797.3594,774.9531 797.3594,775.5625 L797.3594,777.0156 Q797.3594,777.625 797.125,777.8906 Q796.8906,778.1563 796.5156,778.1563 Q796.1719,778.1563 795.9688,777.9531 Q795.7656,777.7656 795.6563,777.25 Q795.6094,776.8906 795.4219,776.7031 Q795.0938,776.3281 794.4844,776.1094 Q793.875,775.8906 793.25,775.8906 Q792.4844,775.8906 791.8438,776.2188 Q791.2188,776.5469 790.7188,777.2969 Q790.2344,778.0469 790.2344,779.0781 L790.2344,780.1719 Q790.2344,781.4063 791.125,782.2344 Q792.0156,783.0469 793.6094,783.0469 Q794.5469,783.0469 795.2031,782.7969 Q795.5938,782.6406 796.0156,782.2031 Q796.2813,781.9375 796.4219,781.8594 Q796.5781,781.7813 796.7813,781.7813 Q797.1094,781.7813 797.3594,782.0469 Q797.625,782.2969 797.625,782.6406 Q797.625,782.9844 797.2813,783.3906 Q796.7813,783.9688 795.9844,784.2969 Q794.9063,784.75 793.6094,784.75 Q792.0938,784.75 790.8906,784.125 Q789.9063,783.625 789.2188,782.5625 Q788.5313,781.4844 788.5313,780.2031 L788.5313,779.0469 Q788.5313,777.7188 789.1406,776.5781 Q789.7656,775.4219 790.8594,774.8125 Q791.9531,774.1875 793.1875,774.1875 Q793.9219,774.1875 794.5625,774.3594 Q795.2188,774.5156 795.7656,774.875 Z " fill="#000000"/><text fill="#000000" font-family="sans-serif" font-size="14" lengthAdjust="spacing" textLength="70" x="807" y="784.7285">Coordinate</text><line style="stroke:#181818;stroke-width:0.5;" x1="779" x2="879" y1="795" y2="795"/><line style="stroke:#181818;stroke-width:0.5;" x1="779" x2="879" y1="803" y2="803"/></g><!--MD5=[62ca0729120fa425d34ad066ce351b56]
class BoundedCoordinate--><g id="elem_BoundedCoordinate"><rect codeLine="73" fill="#F1F1F1" height="48" id="BoundedCoordinate" rx="2.5" ry="2.5" style="stroke:#181818;stroke-width:0.5;" width="159" x="734.5" y="655"/><ellipse cx="749.5" cy="671" fill="#ADD1B2" rx="11" ry="11" style="stroke:#181818;stroke-width:1.0;"/><path d="M752.2656,666.875 Q752.4219,666.6563 752.6094,666.5469 Q752.7969,666.4375 753.0156,666.4375 Q753.3906,666.4375 753.625,666.7031 Q753.8594,666.9531 753.8594,667.5625 L753.8594,669.0156 Q753.8594,669.625 753.625,669.8906 Q753.3906,670.1563 753.0156,670.1563 Q752.6719,670.1563 752.4688,669.9531 Q752.2656,669.7656 752.1563,669.25 Q752.1094,668.8906 751.9219,668.7031 Q751.5938,668.3281 750.9844,668.1094 Q750.375,667.8906 749.75,667.8906 Q748.9844,667.8906 748.3438,668.2188 Q747.7188,668.5469 747.2188,669.2969 Q746.7344,670.0469 746.7344,671.0781 L746.7344,672.1719 Q746.7344,673.4063 747.625,674.2344 Q748.5156,675.0469 750.1094,675.0469 Q751.0469,675.0469 751.7031,674.7969 Q752.0938,674.6406 752.5156,674.2031 Q752.7813,673.9375 752.9219,673.8594 Q753.0781,673.7813 753.2813,673.7813 Q753.6094,673.7813 753.8594,674.0469 Q754.125,674.2969 754.125,674.6406 Q754.125,674.9844 753.7813,675.3906 Q753.2813,675.9688 752.4844,676.2969 Q751.4063,676.75 750.1094,676.75 Q748.5938,676.75 747.3906,676.125 Q746.4063,675.625 745.7188,674.5625 Q745.0313,673.4844 745.0313,672.2031 L745.0313,671.0469 Q745.0313,669.7188 745.6406,668.5781 Q746.2656,667.4219 747.3594,666.8125 Q748.4531,666.1875 749.6875,666.1875 Q750.4219,666.1875 751.0625,666.3594 Q751.7188,666.5156 752.2656,666.875 Z " fill="#000000"/><text fill="#000000" font-family="sans-serif" font-size="14" lengthAdjust="spacing" textLength="127" x="763.5" y="676.7285">BoundedCoordinate</text><line style="stroke:#181818;stroke-width:0.5;" x1="735.5" x2="892.5" y1="687" y2="687"/><line style="stroke:#181818;stroke-width:0.5;" x1="735.5" x2="892.5" y1="695" y2="695"/></g><!--MD5=[5f08b6f189bbeec7e47b7a47ff779388]
class BoundedCoordinateView--><g id="elem_BoundedCoordinateView"><rect codeLine="84" fill="#F1F1F1" height="48" id="BoundedCoordinateView" rx="2.5" ry="2.5" style="stroke:#181818;stroke-width:0.5;" width="188" x="7" y="439"/><ellipse cx="22" cy="455" fill="#ADD1B2" rx="11" ry="11" style="stroke:#181818;stroke-width:1.0;"/><path d="M24.7656,450.875 Q24.9219,450.6563 25.1094,450.5469 Q25.2969,450.4375 25.5156,450.4375 Q25.8906,450.4375 26.125,450.7031 Q26.3594,450.9531 26.3594,451.5625 L26.3594,453.0156 Q26.3594,453.625 26.125,453.8906 Q25.8906,454.1563 25.5156,454.1563 Q25.1719,454.1563 24.9688,453.9531 Q24.7656,453.7656 24.6563,453.25 Q24.6094,452.8906 24.4219,452.7031 Q24.0938,452.3281 23.4844,452.1094 Q22.875,451.8906 22.25,451.8906 Q21.4844,451.8906 20.8438,452.2188 Q20.2188,452.5469 19.7188,453.2969 Q19.2344,454.0469 19.2344,455.0781 L19.2344,456.1719 Q19.2344,457.4063 20.125,458.2344 Q21.0156,459.0469 22.6094,459.0469 Q23.5469,459.0469 24.2031,458.7969 Q24.5938,458.6406 25.0156,458.2031 Q25.2813,457.9375 25.4219,457.8594 Q25.5781,457.7813 25.7813,457.7813 Q26.1094,457.7813 26.3594,458.0469 Q26.625,458.2969 26.625,458.6406 Q26.625,458.9844 26.2813,459.3906 Q25.7813,459.9688 24.9844,460.2969 Q23.9063,460.75 22.6094,460.75 Q21.0938,460.75 19.8906,460.125 Q18.9063,459.625 18.2188,458.5625 Q17.5313,457.4844 17.5313,456.2031 L17.5313,455.0469 Q17.5313,453.7188 18.1406,452.5781 Q18.7656,451.4219 19.8594,450.8125 Q20.9531,450.1875 22.1875,450.1875 Q22.9219,450.1875 23.5625,450.3594 Q24.2188,450.5156 24.7656,450.875 Z " fill="#000000"/><text fill="#000000" font-family="sans-serif" font-size="14" lengthAdjust="spacing" textLength="156" x="36" y="460.7285">BoundedCoordinateView</text><line style="stroke:#181818;stroke-width:0.5;" x1="8" x2="194" y1="471" y2="471"/><line style="stroke:#181818;stroke-width:0.5;" x1="8" x2="194" y1="479" y2="479"/></g><!--MD5=[02f7077ed79257124e28b791f351f1d7]
class Direction--><g id="elem_Direction"><rect codeLine="91" fill="#F1F1F1" height="48" id="Direction" rx="2.5" ry="2.5" style="stroke:#181818;stroke-width:0.5;" width="88" x="837" y="871"/><ellipse cx="852" cy="887" fill="#EB937F" rx="11" ry="11" style="stroke:#181818;stroke-width:1.0;"/><path d="M850.8594,887.7969 L850.8594,890.2969 L855.1875,890.2969 L855.1875,889.375 Q855.1875,888.7656 855.4219,888.5 Q855.6719,888.2344 856.0469,888.2344 Q856.4219,888.2344 856.6563,888.5 Q856.8906,888.7656 856.8906,889.375 L856.8906,892 L848.8906,892 Q848.2656,892 848,891.7656 Q847.75,891.5313 847.75,891.1406 Q847.75,890.7656 848.0156,890.5313 Q848.2813,890.2969 848.8906,890.2969 L849.1563,890.2969 L849.1563,883.6406 L848.8906,883.6406 Q848.2656,883.6406 848,883.4063 Q847.75,883.1719 847.75,882.7813 Q847.75,882.4063 848,882.1719 Q848.2656,881.9375 848.8906,881.9375 L856.5156,881.9375 L856.5156,884.5313 Q856.5156,885.1406 856.2813,885.4063 Q856.0625,885.6563 855.6719,885.6563 Q855.2969,885.6563 855.0625,885.4063 Q854.8281,885.1406 854.8281,884.5313 L854.8281,883.6406 L850.8594,883.6406 L850.8594,886.0938 L852.3438,886.0938 Q852.3438,885.4375 852.4688,885.25 Q852.7344,884.8438 853.2031,884.8438 Q853.5781,884.8438 853.8125,885.1094 Q854.0469,885.3594 854.0469,885.9688 L854.0469,887.9375 Q854.0469,888.4844 853.9219,888.6719 Q853.6563,889.0625 853.2031,889.0625 Q852.7344,889.0625 852.4688,888.6563 Q852.3438,888.4688 852.3438,887.7969 L850.8594,887.7969 Z " fill="#000000"/><text fill="#000000" font-family="sans-serif" font-size="14" lengthAdjust="spacing" textLength="56" x="866" y="892.7285">Direction</text><line style="stroke:#181818;stroke-width:0.5;" x1="838" x2="924" y1="903" y2="903"/><line style="stroke:#181818;stroke-width:0.5;" x1="838" x2="924" y1="911" y2="911"/></g><!--MD5=[b8cfd8c4119a3b0a7a46bfc5fc780f85]
class Error--><g id="elem_Error"><rect codeLine="100" fill="#F1F1F1" height="48" id="Error" rx="2.5" ry="2.5" style="stroke:#181818;stroke-width:0.5;" width="64" x="311" y="547"/><ellipse cx="326" cy="563" fill="#EB937F" rx="11" ry="11" style="stroke:#181818;stroke-width:1.0;"/><path d="M324.8594,563.7969 L324.8594,566.2969 L329.1875,566.2969 L329.1875,565.375 Q329.1875,564.7656 329.4219,564.5 Q329.6719,564.2344 330.0469,564.2344 Q330.4219,564.2344 330.6563,564.5 Q330.8906,564.7656 330.8906,565.375 L330.8906,568 L322.8906,568 Q322.2656,568 322,567.7656 Q321.75,567.5313 321.75,567.1406 Q321.75,566.7656 322.0156,566.5313 Q322.2813,566.2969 322.8906,566.2969 L323.1563,566.2969 L323.1563,559.6406 L322.8906,559.6406 Q322.2656,559.6406 322,559.4063 Q321.75,559.1719 321.75,558.7813 Q321.75,558.4063 322,558.1719 Q322.2656,557.9375 322.8906,557.9375 L330.5156,557.9375 L330.5156,560.5313 Q330.5156,561.1406 330.2813,561.4063 Q330.0625,561.6563 329.6719,561.6563 Q329.2969,561.6563 329.0625,561.4063 Q328.8281,561.1406 328.8281,560.5313 L328.8281,559.6406 L324.8594,559.6406 L324.8594,562.0938 L326.3438,562.0938 Q326.3438,561.4375 326.4688,561.25 Q326.7344,560.8438 327.2031,560.8438 Q327.5781,560.8438 327.8125,561.1094 Q328.0469,561.3594 328.0469,561.9688 L328.0469,563.9375 Q328.0469,564.4844 327.9219,564.6719 Q327.6563,565.0625 327.2031,565.0625 Q326.7344,565.0625 326.4688,564.6563 Q326.3438,564.4688 326.3438,563.7969 L324.8594,563.7969 Z " fill="#000000"/><text fill="#000000" font-family="sans-serif" font-size="14" lengthAdjust="spacing" textLength="32" x="340" y="568.7285">Error</text><line style="stroke:#181818;stroke-width:0.5;" x1="312" x2="374" y1="579" y2="579"/><line style="stroke:#181818;stroke-width:0.5;" x1="312" x2="374" y1="587" y2="587"/></g><!--MD5=[bea5b0d46523efab5ea1c1d339f396f0]
class Message--><g id="elem_Message"><rect codeLine="113" fill="#F1F1F1" height="48" id="Message" rx="2.5" ry="2.5" style="stroke:#181818;stroke-width:0.5;" width="89" x="557.5" y="547"/><ellipse cx="572.5" cy="563" fill="#EB937F" rx="11" ry="11" style="stroke:#181818;stroke-width:1.0;"/><path d="M571.3594,563.7969 L571.3594,566.2969 L575.6875,566.2969 L575.6875,565.375 Q575.6875,564.7656 575.9219,564.5 Q576.1719,564.2344 576.5469,564.2344 Q576.9219,564.2344 577.1563,564.5 Q577.3906,564.7656 577.3906,565.375 L577.3906,568 L569.3906,568 Q568.7656,568 568.5,567.7656 Q568.25,567.5313 568.25,567.1406 Q568.25,566.7656 568.5156,566.5313 Q568.7813,566.2969 569.3906,566.2969 L569.6563,566.2969 L569.6563,559.6406 L569.3906,559.6406 Q568.7656,559.6406 568.5,559.4063 Q568.25,559.1719 568.25,558.7813 Q568.25,558.4063 568.5,558.1719 Q568.7656,557.9375 569.3906,557.9375 L577.0156,557.9375 L577.0156,560.5313 Q577.0156,561.1406 576.7813,561.4063 Q576.5625,561.6563 576.1719,561.6563 Q575.7969,561.6563 575.5625,561.4063 Q575.3281,561.1406 575.3281,560.5313 L575.3281,559.6406 L571.3594,559.6406 L571.3594,562.0938 L572.8438,562.0938 Q572.8438,561.4375 572.9688,561.25 Q573.2344,560.8438 573.7031,560.8438 Q574.0781,560.8438 574.3125,561.1094 Q574.5469,561.3594 574.5469,561.9688 L574.5469,563.9375 Q574.5469,564.4844 574.4219,564.6719 Q574.1563,565.0625 573.7031,565.0625 Q573.2344,565.0625 572.9688,564.6563 Q572.8438,564.4688 572.8438,563.7969 L571.3594,563.7969 Z " fill="#000000"/><text fill="#000000" font-family="sans-serif" font-size="14" lengthAdjust="spacing" textLength="57" x="586.5" y="568.7285">Message</text><line style="stroke:#181818;stroke-width:0.5;" x1="558.5" x2="645.5" y1="579" y2="579"/><line style="stroke:#181818;stroke-width:0.5;" x1="558.5" x2="645.5" y1="587" y2="587"/></g><!--MD5=[2cb47ba637a0d19583e6199456f6ad0b]
class Player--><g id="elem_Player"><rect codeLine="147" fill="#F1F1F1" height="48" id="Player" rx="2.5" ry="2.5" style="stroke:#181818;stroke-width:0.5;" width="72" x="997" y="439"/><ellipse cx="1012" cy="455" fill="#ADD1B2" rx="11" ry="11" style="stroke:#181818;stroke-width:1.0;"/><path d="M1014.7656,450.875 Q1014.9219,450.6563 1015.1094,450.5469 Q1015.2969,450.4375 1015.5156,450.4375 Q1015.8906,450.4375 1016.125,450.7031 Q1016.3594,450.9531 1016.3594,451.5625 L1016.3594,453.0156 Q1016.3594,453.625 1016.125,453.8906 Q1015.8906,454.1563 1015.5156,454.1563 Q1015.1719,454.1563 1014.9688,453.9531 Q1014.7656,453.7656 1014.6563,453.25 Q1014.6094,452.8906 1014.4219,452.7031 Q1014.0938,452.3281 1013.4844,452.1094 Q1012.875,451.8906 1012.25,451.8906 Q1011.4844,451.8906 1010.8438,452.2188 Q1010.2188,452.5469 1009.7188,453.2969 Q1009.2344,454.0469 1009.2344,455.0781 L1009.2344,456.1719 Q1009.2344,457.4063 1010.125,458.2344 Q1011.0156,459.0469 1012.6094,459.0469 Q1013.5469,459.0469 1014.2031,458.7969 Q1014.5938,458.6406 1015.0156,458.2031 Q1015.2813,457.9375 1015.4219,457.8594 Q1015.5781,457.7813 1015.7813,457.7813 Q1016.1094,457.7813 1016.3594,458.0469 Q1016.625,458.2969 1016.625,458.6406 Q1016.625,458.9844 1016.2813,459.3906 Q1015.7813,459.9688 1014.9844,460.2969 Q1013.9063,460.75 1012.6094,460.75 Q1011.0938,460.75 1009.8906,460.125 Q1008.9063,459.625 1008.2188,458.5625 Q1007.5313,457.4844 1007.5313,456.2031 L1007.5313,455.0469 Q1007.5313,453.7188 1008.1406,452.5781 Q1008.7656,451.4219 1009.8594,450.8125 Q1010.9531,450.1875 1012.1875,450.1875 Q1012.9219,450.1875 1013.5625,450.3594 Q1014.2188,450.5156 1014.7656,450.875 Z " fill="#000000"/><text fill="#000000" font-family="sans-serif" font-size="14" lengthAdjust="spacing" textLength="40" x="1026" y="460.7285">Player</text><line style="stroke:#181818;stroke-width:0.5;" x1="998" x2="1068" y1="471" y2="471"/><line style="stroke:#181818;stroke-width:0.5;" x1="998" x2="1068" y1="479" y2="479"/></g><!--MD5=[36f719b1cbc3f26b5758ea249b208fb4]
class TicTacToe--><g id="elem_TicTacToe"><rect codeLine="160" fill="#F1F1F1" height="48" id="TicTacToe" rx="2.5" ry="2.5" style="stroke:#181818;stroke-width:0.5;" width="100" x="1012" y="7"/><ellipse cx="1027" cy="23" fill="#ADD1B2" rx="11" ry="11" style="stroke:#181818;stroke-width:1.0;"/><path d="M1029.7656,18.875 Q1029.9219,18.6563 1030.1094,18.5469 Q1030.2969,18.4375 1030.5156,18.4375 Q1030.8906,18.4375 1031.125,18.7031 Q1031.3594,18.9531 1031.3594,19.5625 L1031.3594,21.0156 Q1031.3594,21.625 1031.125,21.8906 Q1030.8906,22.1563 1030.5156,22.1563 Q1030.1719,22.1563 1029.9688,21.9531 Q1029.7656,21.7656 1029.6563,21.25 Q1029.6094,20.8906 1029.4219,20.7031 Q1029.0938,20.3281 1028.4844,20.1094 Q1027.875,19.8906 1027.25,19.8906 Q1026.4844,19.8906 1025.8438,20.2188 Q1025.2188,20.5469 1024.7188,21.2969 Q1024.2344,22.0469 1024.2344,23.0781 L1024.2344,24.1719 Q1024.2344,25.4063 1025.125,26.2344 Q1026.0156,27.0469 1027.6094,27.0469 Q1028.5469,27.0469 1029.2031,26.7969 Q1029.5938,26.6406 1030.0156,26.2031 Q1030.2813,25.9375 1030.4219,25.8594 Q1030.5781,25.7813 1030.7813,25.7813 Q1031.1094,25.7813 1031.3594,26.0469 Q1031.625,26.2969 1031.625,26.6406 Q1031.625,26.9844 1031.2813,27.3906 Q1030.7813,27.9688 1029.9844,28.2969 Q1028.9063,28.75 1027.6094,28.75 Q1026.0938,28.75 1024.8906,28.125 Q1023.9063,27.625 1023.2188,26.5625 Q1022.5313,25.4844 1022.5313,24.2031 L1022.5313,23.0469 Q1022.5313,21.7188 1023.1406,20.5781 Q1023.7656,19.4219 1024.8594,18.8125 Q1025.9531,18.1875 1027.1875,18.1875 Q1027.9219,18.1875 1028.5625,18.3594 Q1029.2188,18.5156 1029.7656,18.875 Z " fill="#000000"/><text fill="#000000" font-family="sans-serif" font-size="14" lengthAdjust="spacing" textLength="68" x="1041" y="28.7285">TicTacToe</text><line style="stroke:#181818;stroke-width:0.5;" x1="1013" x2="1111" y1="39" y2="39"/><line style="stroke:#181818;stroke-width:0.5;" x1="1013" x2="1111" y1="47" y2="47"/></g><!--MD5=[9dee31518fe58d48174303dc5f2c1aec]
class TicTacToeView--><g id="elem_TicTacToeView"><rect codeLine="168" fill="#F1F1F1" height="48" id="TicTacToeView" rx="2.5" ry="2.5" style="stroke:#181818;stroke-width:0.5;" width="129" x="811.5" y="115"/><ellipse cx="826.5" cy="131" fill="#ADD1B2" rx="11" ry="11" style="stroke:#181818;stroke-width:1.0;"/><path d="M829.2656,126.875 Q829.4219,126.6563 829.6094,126.5469 Q829.7969,126.4375 830.0156,126.4375 Q830.3906,126.4375 830.625,126.7031 Q830.8594,126.9531 830.8594,127.5625 L830.8594,129.0156 Q830.8594,129.625 830.625,129.8906 Q830.3906,130.1563 830.0156,130.1563 Q829.6719,130.1563 829.4688,129.9531 Q829.2656,129.7656 829.1563,129.25 Q829.1094,128.8906 828.9219,128.7031 Q828.5938,128.3281 827.9844,128.1094 Q827.375,127.8906 826.75,127.8906 Q825.9844,127.8906 825.3438,128.2188 Q824.7188,128.5469 824.2188,129.2969 Q823.7344,130.0469 823.7344,131.0781 L823.7344,132.1719 Q823.7344,133.4063 824.625,134.2344 Q825.5156,135.0469 827.1094,135.0469 Q828.0469,135.0469 828.7031,134.7969 Q829.0938,134.6406 829.5156,134.2031 Q829.7813,133.9375 829.9219,133.8594 Q830.0781,133.7813 830.2813,133.7813 Q830.6094,133.7813 830.8594,134.0469 Q831.125,134.2969 831.125,134.6406 Q831.125,134.9844 830.7813,135.3906 Q830.2813,135.9688 829.4844,136.2969 Q828.4063,136.75 827.1094,136.75 Q825.5938,136.75 824.3906,136.125 Q823.4063,135.625 822.7188,134.5625 Q822.0313,133.4844 822.0313,132.2031 L822.0313,131.0469 Q822.0313,129.7188 822.6406,128.5781 Q823.2656,127.4219 824.3594,126.8125 Q825.4531,126.1875 826.6875,126.1875 Q827.4219,126.1875 828.0625,126.3594 Q828.7188,126.5156 829.2656,126.875 Z " fill="#000000"/><text fill="#000000" font-family="sans-serif" font-size="14" lengthAdjust="spacing" textLength="97" x="840.5" y="136.7285">TicTacToeView</text><line style="stroke:#181818;stroke-width:0.5;" x1="812.5" x2="939.5" y1="147" y2="147"/><line style="stroke:#181818;stroke-width:0.5;" x1="812.5" x2="939.5" y1="155" y2="155"/></g><!--MD5=[dd91eae41778c45e12552e5329e240e8]
class Turn--><g id="elem_Turn"><rect codeLine="174" fill="#F1F1F1" height="48" id="Turn" rx="2.5" ry="2.5" style="stroke:#181818;stroke-width:0.5;" width="62" x="1002" y="331"/><ellipse cx="1017" cy="347" fill="#ADD1B2" rx="11" ry="11" style="stroke:#181818;stroke-width:1.0;"/><path d="M1019.7656,342.875 Q1019.9219,342.6563 1020.1094,342.5469 Q1020.2969,342.4375 1020.5156,342.4375 Q1020.8906,342.4375 1021.125,342.7031 Q1021.3594,342.9531 1021.3594,343.5625 L1021.3594,345.0156 Q1021.3594,345.625 1021.125,345.8906 Q1020.8906,346.1563 1020.5156,346.1563 Q1020.1719,346.1563 1019.9688,345.9531 Q1019.7656,345.7656 1019.6563,345.25 Q1019.6094,344.8906 1019.4219,344.7031 Q1019.0938,344.3281 1018.4844,344.1094 Q1017.875,343.8906 1017.25,343.8906 Q1016.4844,343.8906 1015.8438,344.2188 Q1015.2188,344.5469 1014.7188,345.2969 Q1014.2344,346.0469 1014.2344,347.0781 L1014.2344,348.1719 Q1014.2344,349.4063 1015.125,350.2344 Q1016.0156,351.0469 1017.6094,351.0469 Q1018.5469,351.0469 1019.2031,350.7969 Q1019.5938,350.6406 1020.0156,350.2031 Q1020.2813,349.9375 1020.4219,349.8594 Q1020.5781,349.7813 1020.7813,349.7813 Q1021.1094,349.7813 1021.3594,350.0469 Q1021.625,350.2969 1021.625,350.6406 Q1021.625,350.9844 1021.2813,351.3906 Q1020.7813,351.9688 1019.9844,352.2969 Q1018.9063,352.75 1017.6094,352.75 Q1016.0938,352.75 1014.8906,352.125 Q1013.9063,351.625 1013.2188,350.5625 Q1012.5313,349.4844 1012.5313,348.2031 L1012.5313,347.0469 Q1012.5313,345.7188 1013.1406,344.5781 Q1013.7656,343.4219 1014.8594,342.8125 Q1015.9531,342.1875 1017.1875,342.1875 Q1017.9219,342.1875 1018.5625,342.3594 Q1019.2188,342.5156 1019.7656,342.875 Z " fill="#000000"/><text fill="#000000" font-family="sans-serif" font-size="14" lengthAdjust="spacing" textLength="30" x="1031" y="352.7285">Turn</text><line style="stroke:#181818;stroke-width:0.5;" x1="1003" x2="1063" y1="363" y2="363"/><line style="stroke:#181818;stroke-width:0.5;" x1="1003" x2="1063" y1="371" y2="371"/></g><!--MD5=[2f2ced231ceb229417d2b072acd0beb6]
class YesNoDialogView--><g id="elem_YesNoDialogView"><rect codeLine="184" fill="#F1F1F1" height="48" id="YesNoDialogView" rx="2.5" ry="2.5" style="stroke:#181818;stroke-width:0.5;" width="142" x="867" y="223"/><ellipse cx="882" cy="239" fill="#ADD1B2" rx="11" ry="11" style="stroke:#181818;stroke-width:1.0;"/><path d="M884.7656,234.875 Q884.9219,234.6563 885.1094,234.5469 Q885.2969,234.4375 885.5156,234.4375 Q885.8906,234.4375 886.125,234.7031 Q886.3594,234.9531 886.3594,235.5625 L886.3594,237.0156 Q886.3594,237.625 886.125,237.8906 Q885.8906,238.1563 885.5156,238.1563 Q885.1719,238.1563 884.9688,237.9531 Q884.7656,237.7656 884.6563,237.25 Q884.6094,236.8906 884.4219,236.7031 Q884.0938,236.3281 883.4844,236.1094 Q882.875,235.8906 882.25,235.8906 Q881.4844,235.8906 880.8438,236.2188 Q880.2188,236.5469 879.7188,237.2969 Q879.2344,238.0469 879.2344,239.0781 L879.2344,240.1719 Q879.2344,241.4063 880.125,242.2344 Q881.0156,243.0469 882.6094,243.0469 Q883.5469,243.0469 884.2031,242.7969 Q884.5938,242.6406 885.0156,242.2031 Q885.2813,241.9375 885.4219,241.8594 Q885.5781,241.7813 885.7813,241.7813 Q886.1094,241.7813 886.3594,242.0469 Q886.625,242.2969 886.625,242.6406 Q886.625,242.9844 886.2813,243.3906 Q885.7813,243.9688 884.9844,244.2969 Q883.9063,244.75 882.6094,244.75 Q881.0938,244.75 879.8906,244.125 Q878.9063,243.625 878.2188,242.5625 Q877.5313,241.4844 877.5313,240.2031 L877.5313,239.0469 Q877.5313,237.7188 878.1406,236.5781 Q878.7656,235.4219 879.8594,234.8125 Q880.9531,234.1875 882.1875,234.1875 Q882.9219,234.1875 883.5625,234.3594 Q884.2188,234.5156 884.7656,234.875 Z " fill="#000000"/><text fill="#000000" font-family="sans-serif" font-size="14" lengthAdjust="spacing" textLength="110" x="896" y="244.7285">YesNoDialogView</text><line style="stroke:#181818;stroke-width:0.5;" x1="868" x2="1008" y1="255" y2="255"/><line style="stroke:#181818;stroke-width:0.5;" x1="868" x2="1008" y1="263" y2="263"/></g><!--MD5=[f0e50675208408ddbf1ed7a91f4eb071]
class ClosedInterval--><g id="elem_ClosedInterval"><rect codeLine="192" fill="#F1F1F1" height="48" id="ClosedInterval" rx="2.5" ry="2.5" style="stroke:#181818;stroke-width:0.5;" width="122" x="40" y="655"/><ellipse cx="55" cy="671" fill="#ADD1B2" rx="11" ry="11" style="stroke:#181818;stroke-width:1.0;"/><path d="M57.7656,666.875 Q57.9219,666.6563 58.1094,666.5469 Q58.2969,666.4375 58.5156,666.4375 Q58.8906,666.4375 59.125,666.7031 Q59.3594,666.9531 59.3594,667.5625 L59.3594,669.0156 Q59.3594,669.625 59.125,669.8906 Q58.8906,670.1563 58.5156,670.1563 Q58.1719,670.1563 57.9688,669.9531 Q57.7656,669.7656 57.6563,669.25 Q57.6094,668.8906 57.4219,668.7031 Q57.0938,668.3281 56.4844,668.1094 Q55.875,667.8906 55.25,667.8906 Q54.4844,667.8906 53.8438,668.2188 Q53.2188,668.5469 52.7188,669.2969 Q52.2344,670.0469 52.2344,671.0781 L52.2344,672.1719 Q52.2344,673.4063 53.125,674.2344 Q54.0156,675.0469 55.6094,675.0469 Q56.5469,675.0469 57.2031,674.7969 Q57.5938,674.6406 58.0156,674.2031 Q58.2813,673.9375 58.4219,673.8594 Q58.5781,673.7813 58.7813,673.7813 Q59.1094,673.7813 59.3594,674.0469 Q59.625,674.2969 59.625,674.6406 Q59.625,674.9844 59.2813,675.3906 Q58.7813,675.9688 57.9844,676.2969 Q56.9063,676.75 55.6094,676.75 Q54.0938,676.75 52.8906,676.125 Q51.9063,675.625 51.2188,674.5625 Q50.5313,673.4844 50.5313,672.2031 L50.5313,671.0469 Q50.5313,669.7188 51.1406,668.5781 Q51.7656,667.4219 52.8594,666.8125 Q53.9531,666.1875 55.1875,666.1875 Q55.9219,666.1875 56.5625,666.3594 Q57.2188,666.5156 57.7656,666.875 Z " fill="#000000"/><text fill="#000000" font-family="sans-serif" font-size="14" lengthAdjust="spacing" textLength="90" x="69" y="676.7285">ClosedInterval</text><line style="stroke:#181818;stroke-width:0.5;" x1="41" x2="161" y1="687" y2="687"/><line style="stroke:#181818;stroke-width:0.5;" x1="41" x2="161" y1="695" y2="695"/></g><!--MD5=[0f1adae5684a082996b24e2018afd4c9]
class TurnView--><g id="elem_TurnView"><rect fill="#F1F1F1" height="48" id="TurnView" rx="2.5" ry="2.5" style="stroke:#181818;stroke-width:0.5;" width="91" x="648.5" y="223"/><ellipse cx="663.5" cy="239" fill="#ADD1B2" rx="11" ry="11" style="stroke:#181818;stroke-width:1.0;"/><path d="M666.2656,234.875 Q666.4219,234.6563 666.6094,234.5469 Q666.7969,234.4375 667.0156,234.4375 Q667.3906,234.4375 667.625,234.7031 Q667.8594,234.9531 667.8594,235.5625 L667.8594,237.0156 Q667.8594,237.625 667.625,237.8906 Q667.3906,238.1563 667.0156,238.1563 Q666.6719,238.1563 666.4688,237.9531 Q666.2656,237.7656 666.1563,237.25 Q666.1094,236.8906 665.9219,236.7031 Q665.5938,236.3281 664.9844,236.1094 Q664.375,235.8906 663.75,235.8906 Q662.9844,235.8906 662.3438,236.2188 Q661.7188,236.5469 661.2188,237.2969 Q660.7344,238.0469 660.7344,239.0781 L660.7344,240.1719 Q660.7344,241.4063 661.625,242.2344 Q662.5156,243.0469 664.1094,243.0469 Q665.0469,243.0469 665.7031,242.7969 Q666.0938,242.6406 666.5156,242.2031 Q666.7813,241.9375 666.9219,241.8594 Q667.0781,241.7813 667.2813,241.7813 Q667.6094,241.7813 667.8594,242.0469 Q668.125,242.2969 668.125,242.6406 Q668.125,242.9844 667.7813,243.3906 Q667.2813,243.9688 666.4844,244.2969 Q665.4063,244.75 664.1094,244.75 Q662.5938,244.75 661.3906,244.125 Q660.4063,243.625 659.7188,242.5625 Q659.0313,241.4844 659.0313,240.2031 L659.0313,239.0469 Q659.0313,237.7188 659.6406,236.5781 Q660.2656,235.4219 661.3594,234.8125 Q662.4531,234.1875 663.6875,234.1875 Q664.4219,234.1875 665.0625,234.3594 Q665.7188,234.5156 666.2656,234.875 Z " fill="#000000"/><text fill="#000000" font-family="sans-serif" font-size="14" lengthAdjust="spacing" textLength="59" x="677.5" y="244.7285">TurnView</text><line style="stroke:#181818;stroke-width:0.5;" x1="649.5" x2="738.5" y1="255" y2="255"/><line style="stroke:#181818;stroke-width:0.5;" x1="649.5" x2="738.5" y1="263" y2="263"/></g><!--MD5=[49feb4884a66ed250f9a27795111a05a]
class MessageView--><g id="elem_MessageView"><rect fill="#F1F1F1" height="48" id="MessageView" rx="2.5" ry="2.5" style="stroke:#181818;stroke-width:0.5;" width="118" x="501" y="439"/><ellipse cx="516" cy="455" fill="#ADD1B2" rx="11" ry="11" style="stroke:#181818;stroke-width:1.0;"/><path d="M518.7656,450.875 Q518.9219,450.6563 519.1094,450.5469 Q519.2969,450.4375 519.5156,450.4375 Q519.8906,450.4375 520.125,450.7031 Q520.3594,450.9531 520.3594,451.5625 L520.3594,453.0156 Q520.3594,453.625 520.125,453.8906 Q519.8906,454.1563 519.5156,454.1563 Q519.1719,454.1563 518.9688,453.9531 Q518.7656,453.7656 518.6563,453.25 Q518.6094,452.8906 518.4219,452.7031 Q518.0938,452.3281 517.4844,452.1094 Q516.875,451.8906 516.25,451.8906 Q515.4844,451.8906 514.8438,452.2188 Q514.2188,452.5469 513.7188,453.2969 Q513.2344,454.0469 513.2344,455.0781 L513.2344,456.1719 Q513.2344,457.4063 514.125,458.2344 Q515.0156,459.0469 516.6094,459.0469 Q517.5469,459.0469 518.2031,458.7969 Q518.5938,458.6406 519.0156,458.2031 Q519.2813,457.9375 519.4219,457.8594 Q519.5781,457.7813 519.7813,457.7813 Q520.1094,457.7813 520.3594,458.0469 Q520.625,458.2969 520.625,458.6406 Q520.625,458.9844 520.2813,459.3906 Q519.7813,459.9688 518.9844,460.2969 Q517.9063,460.75 516.6094,460.75 Q515.0938,460.75 513.8906,460.125 Q512.9063,459.625 512.2188,458.5625 Q511.5313,457.4844 511.5313,456.2031 L511.5313,455.0469 Q511.5313,453.7188 512.1406,452.5781 Q512.7656,451.4219 513.8594,450.8125 Q514.9531,450.1875 516.1875,450.1875 Q516.9219,450.1875 517.5625,450.3594 Q518.2188,450.5156 518.7656,450.875 Z " fill="#000000"/><text fill="#000000" font-family="sans-serif" font-size="14" lengthAdjust="spacing" textLength="86" x="530" y="460.7285">MessageView</text><line style="stroke:#181818;stroke-width:0.5;" x1="502" x2="618" y1="471" y2="471"/><line style="stroke:#181818;stroke-width:0.5;" x1="502" x2="618" y1="479" y2="479"/></g><!--MD5=[af194e474b2c37e443a340884399de77]
class PlayerView--><g id="elem_PlayerView"><rect fill="#F1F1F1" height="48" id="PlayerView" rx="2.5" ry="2.5" style="stroke:#181818;stroke-width:0.5;" width="101" x="397.5" y="331"/><ellipse cx="412.5" cy="347" fill="#ADD1B2" rx="11" ry="11" style="stroke:#181818;stroke-width:1.0;"/><path d="M415.2656,342.875 Q415.4219,342.6563 415.6094,342.5469 Q415.7969,342.4375 416.0156,342.4375 Q416.3906,342.4375 416.625,342.7031 Q416.8594,342.9531 416.8594,343.5625 L416.8594,345.0156 Q416.8594,345.625 416.625,345.8906 Q416.3906,346.1563 416.0156,346.1563 Q415.6719,346.1563 415.4688,345.9531 Q415.2656,345.7656 415.1563,345.25 Q415.1094,344.8906 414.9219,344.7031 Q414.5938,344.3281 413.9844,344.1094 Q413.375,343.8906 412.75,343.8906 Q411.9844,343.8906 411.3438,344.2188 Q410.7188,344.5469 410.2188,345.2969 Q409.7344,346.0469 409.7344,347.0781 L409.7344,348.1719 Q409.7344,349.4063 410.625,350.2344 Q411.5156,351.0469 413.1094,351.0469 Q414.0469,351.0469 414.7031,350.7969 Q415.0938,350.6406 415.5156,350.2031 Q415.7813,349.9375 415.9219,349.8594 Q416.0781,349.7813 416.2813,349.7813 Q416.6094,349.7813 416.8594,350.0469 Q417.125,350.2969 417.125,350.6406 Q417.125,350.9844 416.7813,351.3906 Q416.2813,351.9688 415.4844,352.2969 Q414.4063,352.75 413.1094,352.75 Q411.5938,352.75 410.3906,352.125 Q409.4063,351.625 408.7188,350.5625 Q408.0313,349.4844 408.0313,348.2031 L408.0313,347.0469 Q408.0313,345.7188 408.6406,344.5781 Q409.2656,343.4219 410.3594,342.8125 Q411.4531,342.1875 412.6875,342.1875 Q413.4219,342.1875 414.0625,342.3594 Q414.7188,342.5156 415.2656,342.875 Z " fill="#000000"/><text fill="#000000" font-family="sans-serif" font-size="14" lengthAdjust="spacing" textLength="69" x="426.5" y="352.7285">PlayerView</text><line style="stroke:#181818;stroke-width:0.5;" x1="398.5" x2="497.5" y1="363" y2="363"/><line style="stroke:#181818;stroke-width:0.5;" x1="398.5" x2="497.5" y1="371" y2="371"/></g><!--MD5=[86cec68673cafdfc1c204348d5b2cca6]
class ErrorView--><g id="elem_ErrorView"><rect fill="#F1F1F1" height="48" id="ErrorView" rx="2.5" ry="2.5" style="stroke:#181818;stroke-width:0.5;" width="93" x="301.5" y="439"/><ellipse cx="316.5" cy="455" fill="#ADD1B2" rx="11" ry="11" style="stroke:#181818;stroke-width:1.0;"/><path d="M319.2656,450.875 Q319.4219,450.6563 319.6094,450.5469 Q319.7969,450.4375 320.0156,450.4375 Q320.3906,450.4375 320.625,450.7031 Q320.8594,450.9531 320.8594,451.5625 L320.8594,453.0156 Q320.8594,453.625 320.625,453.8906 Q320.3906,454.1563 320.0156,454.1563 Q319.6719,454.1563 319.4688,453.9531 Q319.2656,453.7656 319.1563,453.25 Q319.1094,452.8906 318.9219,452.7031 Q318.5938,452.3281 317.9844,452.1094 Q317.375,451.8906 316.75,451.8906 Q315.9844,451.8906 315.3438,452.2188 Q314.7188,452.5469 314.2188,453.2969 Q313.7344,454.0469 313.7344,455.0781 L313.7344,456.1719 Q313.7344,457.4063 314.625,458.2344 Q315.5156,459.0469 317.1094,459.0469 Q318.0469,459.0469 318.7031,458.7969 Q319.0938,458.6406 319.5156,458.2031 Q319.7813,457.9375 319.9219,457.8594 Q320.0781,457.7813 320.2813,457.7813 Q320.6094,457.7813 320.8594,458.0469 Q321.125,458.2969 321.125,458.6406 Q321.125,458.9844 320.7813,459.3906 Q320.2813,459.9688 319.4844,460.2969 Q318.4063,460.75 317.1094,460.75 Q315.5938,460.75 314.3906,460.125 Q313.4063,459.625 312.7188,458.5625 Q312.0313,457.4844 312.0313,456.2031 L312.0313,455.0469 Q312.0313,453.7188 312.6406,452.5781 Q313.2656,451.4219 314.3594,450.8125 Q315.4531,450.1875 316.6875,450.1875 Q317.4219,450.1875 318.0625,450.3594 Q318.7188,450.5156 319.2656,450.875 Z " fill="#000000"/><text fill="#000000" font-family="sans-serif" font-size="14" lengthAdjust="spacing" textLength="61" x="330.5" y="460.7285">ErrorView</text><line style="stroke:#181818;stroke-width:0.5;" x1="302.5" x2="393.5" y1="471" y2="471"/><line style="stroke:#181818;stroke-width:0.5;" x1="302.5" x2="393.5" y1="479" y2="479"/></g><!--MD5=[5c0d2bf114541dffca76af5edd55a1b5]
class ColorView--><g id="elem_ColorView"><rect fill="#F1F1F1" height="48" id="ColorView" rx="2.5" ry="2.5" style="stroke:#181818;stroke-width:0.5;" width="95" x="867.5" y="547"/><ellipse cx="882.5" cy="563" fill="#ADD1B2" rx="11" ry="11" style="stroke:#181818;stroke-width:1.0;"/><path d="M885.2656,558.875 Q885.4219,558.6563 885.6094,558.5469 Q885.7969,558.4375 886.0156,558.4375 Q886.3906,558.4375 886.625,558.7031 Q886.8594,558.9531 886.8594,559.5625 L886.8594,561.0156 Q886.8594,561.625 886.625,561.8906 Q886.3906,562.1563 886.0156,562.1563 Q885.6719,562.1563 885.4688,561.9531 Q885.2656,561.7656 885.1563,561.25 Q885.1094,560.8906 884.9219,560.7031 Q884.5938,560.3281 883.9844,560.1094 Q883.375,559.8906 882.75,559.8906 Q881.9844,559.8906 881.3438,560.2188 Q880.7188,560.5469 880.2188,561.2969 Q879.7344,562.0469 879.7344,563.0781 L879.7344,564.1719 Q879.7344,565.4063 880.625,566.2344 Q881.5156,567.0469 883.1094,567.0469 Q884.0469,567.0469 884.7031,566.7969 Q885.0938,566.6406 885.5156,566.2031 Q885.7813,565.9375 885.9219,565.8594 Q886.0781,565.7813 886.2813,565.7813 Q886.6094,565.7813 886.8594,566.0469 Q887.125,566.2969 887.125,566.6406 Q887.125,566.9844 886.7813,567.3906 Q886.2813,567.9688 885.4844,568.2969 Q884.4063,568.75 883.1094,568.75 Q881.5938,568.75 880.3906,568.125 Q879.4063,567.625 878.7188,566.5625 Q878.0313,565.4844 878.0313,564.2031 L878.0313,563.0469 Q878.0313,561.7188 878.6406,560.5781 Q879.2656,559.4219 880.3594,558.8125 Q881.4531,558.1875 882.6875,558.1875 Q883.4219,558.1875 884.0625,558.3594 Q884.7188,558.5156 885.2656,558.875 Z " fill="#000000"/><text fill="#000000" font-family="sans-serif" font-size="14" lengthAdjust="spacing" textLength="63" x="896.5" y="568.7285">ColorView</text><line style="stroke:#181818;stroke-width:0.5;" x1="868.5" x2="961.5" y1="579" y2="579"/><line style="stroke:#181818;stroke-width:0.5;" x1="868.5" x2="961.5" y1="587" y2="587"/></g><!--MD5=[02ea7f29950e23bda8c82d72bcbd4b5e]
link TicTacToe to Turn--><g id="link_TicTacToe_Turn"><path codeLine="201" d="M1058.8414,67.1123 C1058.8414,67.1123 1041.9,255.17 1036.3,317.31 " fill="none" id="TicTacToe-Turn" style="stroke:#181818;stroke-width:1.0;"/><polygon fill="#181818" points="1035.11,330.62,1039.905,322.0172,1035.5607,325.6404,1031.9375,321.2961,1035.11,330.62" style="stroke:#181818;stroke-width:1.0;"/><line style="stroke:#181818;stroke-width:1.0;" x1="1035.5607" x2="1036.27" y1="325.6404" y2="317.67"/><polygon fill="#181818" points="1059.91,55.16,1055.3916,60.78,1058.8414,67.1123,1063.3598,61.4924,1059.91,55.16" style="stroke:#181818;stroke-width:1.0;"/></g><!--MD5=[a737d2231371e146ba098899a67f3b67]
link TicTacToe to Board--><g id="link_TicTacToe_Board"><path codeLine="202" d="M1080.73,65.8747 C1080.73,65.8747 1133,180.05 1133,246 C1133,246 1133,246 1133,356 C1133,425.16 1089.6,496.07 1059.99,536.41 " fill="none" id="TicTacToe-Board" style="stroke:#181818;stroke-width:1.0;"/><polygon fill="#181818" points="1052.04,546.95,1060.6516,542.1708,1055.0497,542.9573,1054.2632,537.3553,1052.04,546.95" style="stroke:#181818;stroke-width:1.0;"/><line style="stroke:#181818;stroke-width:1.0;" x1="1055.0497" x2="1059.865" y1="542.9573" y2="536.57"/><polygon fill="#181818" points="1075.19,55.23,1074.4118,62.399,1080.73,65.8747,1081.5082,58.7057,1075.19,55.23" style="stroke:#181818;stroke-width:1.0;"/></g><!--MD5=[9fb0b5be90714f4d3ce7bddec924d8d3]
link TicTacToe to TicTacToeView--><g id="link_TicTacToe_TicTacToeView"><path codeLine="203" d="M1021.64,55 C992.01,71.89 951.74,94.84 921.06,112.32 " fill="none" id="TicTacToe-to-TicTacToeView" style="stroke:#181818;stroke-width:1.0;stroke-dasharray:7.0,7.0;"/><polygon fill="#181818" points="916.6,114.86,926.4005,113.8851,920.9456,112.387,922.4437,106.9321,916.6,114.86" style="stroke:#181818;stroke-width:1.0;"/></g><!--MD5=[c4d63bf0b6b53819d2a96070c243ee05]
link TicTacToeView to TurnView--><g id="link_TicTacToeView_TurnView"><path codeLine="204" d="M826.1418,169.0415 C826.1418,169.0415 770.13,201.66 745.17,216.2 " fill="none" id="TicTacToeView-TurnView" style="stroke:#181818;stroke-width:1.0;"/><polygon fill="#181818" points="733.73,222.86,743.52,221.7849,738.0501,220.3427,739.4923,214.8728,733.73,222.86" style="stroke:#181818;stroke-width:1.0;"/><line style="stroke:#181818;stroke-width:1.0;" x1="738.0501" x2="744.96" y1="220.3427" y2="216.32"/><polygon fill="#181818" points="836.51,163,829.312,162.5647,826.1418,169.0415,833.3397,169.4768,836.51,163" style="stroke:#181818;stroke-width:1.0;"/></g><!--MD5=[95c7dca6a41e090705aeab8c427fefac]
link TicTacToeView to BoardView--><g id="link_TicTacToeView_BoardView"><path codeLine="205" d="M862.2389,174.4028 C862.2389,174.4028 851.63,207.09 849,223 C837.28,294.02 840.07,378.53 843.08,425.64 " fill="none" id="TicTacToeView-BoardView" style="stroke:#181818;stroke-width:1.0;"/><polygon fill="#181818" points="843.99,438.72,847.3575,429.4647,843.6439,433.732,839.3766,430.0185,843.99,438.72" style="stroke:#181818;stroke-width:1.0;"/><line style="stroke:#181818;stroke-width:1.0;" x1="843.6439" x2="843.09" y1="433.732" y2="425.755"/><polygon fill="#181818" points="866.38,163.14,860.5552,167.391,862.2389,174.4028,868.0637,170.1518,866.38,163.14" style="stroke:#181818;stroke-width:1.0;"/></g><!--MD5=[dcbacad4c2428272fc240273aaf37afe]
link TicTacToeView to YesNoDialogView--><g id="link_TicTacToeView_YesNoDialogView"><path codeLine="206" d="M895.5169,173.3534 C895.5169,173.3534 910.83,199.56 917.76,211.4 " fill="none" id="TicTacToeView-YesNoDialogView" style="stroke:#181818;stroke-width:1.0;"/><polygon fill="#181818" points="924.36,222.68,923.2702,212.8916,921.8362,218.3637,916.3641,216.9297,924.36,222.68" style="stroke:#181818;stroke-width:1.0;"/><line style="stroke:#181818;stroke-width:1.0;" x1="921.8362" x2="917.795" y1="218.3637" y2="211.455"/><polygon fill="#181818" points="889.45,163,889.0323,170.199,895.5169,173.3534,895.9346,166.1544,889.45,163" style="stroke:#181818;stroke-width:1.0;"/></g><!--MD5=[b90c15517c5612720f6d3b5735a27f0e]
link TurnView to Turn--><g id="link_TurnView_Turn"><path codeLine="207" d="M751.1759,265.8725 C751.1759,265.8725 928.59,321.35 989.1,340.27 " fill="none" id="TurnView-Turn" style="stroke:#181818;stroke-width:1.0;"/><polygon fill="#181818" points="1001.6,344.18,994.2079,337.6718,996.8288,342.6849,991.8157,345.3057,1001.6,344.18" style="stroke:#181818;stroke-width:1.0;"/><line style="stroke:#181818;stroke-width:1.0;" x1="996.8288" x2="989.19" y1="342.6849" y2="340.3"/><polygon fill="#181818" points="739.72,262.3,744.2571,267.9049,751.1759,265.8725,746.6388,260.2676,739.72,262.3" style="stroke:#181818;stroke-width:1.0;"/></g><!--MD5=[6923f3b6cbb46d31e5cfb611c2d1bb65]
link TurnView to BoundedCoordinate--><g id="link_TurnView_BoundedCoordinate"><path codeLine="208" d="M700.45,271.12 C720.84,344.18 783.85,569.95 806.11,649.73 " fill="none" id="TurnView-to-BoundedCoordinate" style="stroke:#181818;stroke-width:1.0;"/><polygon fill="#181818" points="807.52,654.77,808.9548,645.0262,806.1766,649.9538,801.249,647.1756,807.52,654.77" style="stroke:#181818;stroke-width:1.0;"/></g><!--MD5=[ce12fa0eb27ec597f6ce0ec18b22dbf8]
link TurnView to MessageView--><g id="link_TurnView_MessageView"><path codeLine="209" d="M679.4,271.31 C654.48,311.11 603.85,391.97 577.23,434.48 " fill="none" id="TurnView-to-MessageView" style="stroke:#181818;stroke-width:1.0;stroke-dasharray:7.0,7.0;"/><polygon fill="#181818" points="574.58,438.72,582.7553,433.2278,577.2403,434.4864,575.9816,428.9714,574.58,438.72" style="stroke:#181818;stroke-width:1.0;"/></g><!--MD5=[ed779b550861d9265ce54ae19c07d8f5]
link TurnView to PlayerView--><g id="link_TurnView_PlayerView"><path codeLine="210" d="M648.31,267.69 C607.28,285.37 546.97,311.36 503.25,330.19 " fill="none" id="TurnView-to-PlayerView" style="stroke:#181818;stroke-width:1.0;stroke-dasharray:7.0,7.0;"/><polygon fill="#181818" points="498.54,332.22,508.3881,332.3402,503.1335,330.2452,505.2285,324.9906,498.54,332.22" style="stroke:#181818;stroke-width:1.0;"/></g><!--MD5=[98b3438e5702f15b2f6989cee4172b55]
link TurnView to Message--><g id="link_TurnView_Message"><path codeLine="211" d="M689.61,271.06 C681.16,314.07 661.21,409.22 636,487 C629.95,505.66 621.62,526.05 614.72,541.95 " fill="none" id="TurnView-to-Message" style="stroke:#181818;stroke-width:1.0;stroke-dasharray:7.0,7.0;"/><polygon fill="#181818" points="612.63,546.74,619.8944,540.0895,614.6288,542.1569,612.5615,536.8914,612.63,546.74" style="stroke:#181818;stroke-width:1.0;"/></g><!--MD5=[d81713d91ad05be3b975338c4816ee0b]
link Turn to Player--><g id="link_Turn_Player"><path codeLine="212" d="M1033,391 C1033,391 1033,414.68 1033,425.36 " fill="none" id="Turn-Player" style="stroke:#181818;stroke-width:1.0;"/><polygon fill="#181818" points="1033,438.68,1037,429.68,1033,433.68,1029,429.68,1033,438.68" style="stroke:#181818;stroke-width:1.0;"/><line style="stroke:#181818;stroke-width:1.0;" x1="1033" x2="1033" y1="433.68" y2="425.68"/><polygon fill="#181818" points="1033,379,1029,385,1033,391,1037,385,1033,379" style="stroke:#181818;stroke-width:1.0;"/><text fill="#000000" font-family="sans-serif" font-size="13" lengthAdjust="spacing" textLength="7" x="1025.1469" y="428.34">2</text></g><!--MD5=[c1f7e88598f78d9459764ed93737eb14]
link Player to Board--><g id="link_Player_Board"><path codeLine="213" d="M1033,487 C1033,503 1033,524.45 1033,541.53 " fill="none" id="Player-to-Board" style="stroke:#181818;stroke-width:1.0;"/><polygon fill="#181818" points="1033,546.68,1037,537.68,1033,541.68,1029,537.68,1033,546.68" style="stroke:#181818;stroke-width:1.0;"/></g><!--MD5=[ebf52a6f230ff8b0d594dd9ce4cd7c5b]
link Player to Color--><g id="link_Player_Color"><path codeLine="214" d="M1052.99,487.25 C1065.14,502.97 1079.53,524.84 1086,547 C1091.98,567.48 1091.98,574.52 1086,595 C1080.09,615.25 1067.56,635.26 1056.17,650.56 " fill="none" id="Player-to-Color" style="stroke:#181818;stroke-width:1.0;"/><polygon fill="#181818" points="1052.99,654.75,1061.6091,649.9845,1056.006,650.762,1055.2284,645.1589,1052.99,654.75" style="stroke:#181818;stroke-width:1.0;"/></g><!--MD5=[d7c49a2c67de04dd46fc6efbc83b34f6]
link PlayerView to Player--><g id="link_PlayerView_Player"><path codeLine="215" d="M498.61,364.82 C584.08,379.75 762.41,411.13 913,439 C939.18,443.84 968.53,449.47 991.65,453.94 " fill="none" id="PlayerView-to-Player" style="stroke:#181818;stroke-width:1.0;stroke-dasharray:7.0,7.0;"/><polygon fill="#181818" points="996.79,454.94,988.7079,449.3115,991.8801,453.9952,987.1963,457.1674,996.79,454.94" style="stroke:#181818;stroke-width:1.0;"/></g><!--MD5=[5d3bf25e2a82fa01272e0e1c6d0f0a54]
link PlayerView to ErrorView--><g id="link_PlayerView_ErrorView"><path codeLine="216" d="M426.3,379 C410.81,395.42 389.93,417.56 373.62,434.84 " fill="none" id="PlayerView-to-ErrorView" style="stroke:#181818;stroke-width:1.0;stroke-dasharray:7.0,7.0;"/><polygon fill="#181818" points="370,438.68,379.0811,434.8677,373.4268,435.039,373.2555,429.3847,370,438.68" style="stroke:#181818;stroke-width:1.0;"/></g><!--MD5=[1e0a8206d6bada1f11af6bd4b0096de3]
link PlayerView to Error--><g id="link_PlayerView_Error"><path codeLine="217" d="M397.48,366.59 C358.99,377.6 308.56,399.04 284,439 C263.08,473.03 291.42,515.74 315.57,542.96 " fill="none" id="PlayerView-to-Error" style="stroke:#181818;stroke-width:1.0;stroke-dasharray:7.0,7.0;"/><polygon fill="#181818" points="319.1,546.86,316.0346,537.5004,315.7481,543.1499,310.0985,542.8635,319.1,546.86" style="stroke:#181818;stroke-width:1.0;"/></g><!--MD5=[35516e7f460b075e9d9ea8b49170d6ed]
link PlayerView to MessageView--><g id="link_PlayerView_MessageView"><path codeLine="218" d="M472.3,379 C489.65,395.42 513.04,417.56 531.31,434.84 " fill="none" id="PlayerView-to-MessageView" style="stroke:#181818;stroke-width:1.0;stroke-dasharray:7.0,7.0;"/><polygon fill="#181818" points="535.36,438.68,531.5844,429.5836,531.7329,435.2385,526.078,435.387,535.36,438.68" style="stroke:#181818;stroke-width:1.0;"/></g><!--MD5=[f2aefae2b2dc7e4e35e192c39b2cd7d2]
link PlayerView to Message--><g id="link_PlayerView_Message"><path codeLine="219" d="M449.42,379.32 C452.13,407.21 460.03,454.23 483,487 C500.63,512.14 528.45,532.16 552.77,546.24 " fill="none" id="PlayerView-to-Message" style="stroke:#181818;stroke-width:1.0;stroke-dasharray:7.0,7.0;"/><polygon fill="#181818" points="557.26,548.79,551.4163,540.8621,552.9144,546.317,547.4595,547.8151,557.26,548.79" style="stroke:#181818;stroke-width:1.0;"/></g><!--MD5=[44290a26089ffc2237d99b07f9c1d2e2]
link PlayerView to BoundedCoordinateView--><g id="link_PlayerView_BoundedCoordinateView"><path codeLine="220" d="M397.17,371.53 C340.48,388.84 248.01,417.09 181.47,437.42 " fill="none" id="PlayerView-to-BoundedCoordinateView" style="stroke:#181818;stroke-width:1.0;stroke-dasharray:7.0,7.0;"/><polygon fill="#181818" points="176.32,438.99,186.0991,440.1602,181.098,437.5166,183.7416,432.5154,176.32,438.99" style="stroke:#181818;stroke-width:1.0;"/></g><!--MD5=[86870cdabd6f68629f04aeac36e6c4ff]
link ErrorView to Error--><g id="link_ErrorView_Error"><path codeLine="221" d="M346.353,498.9866 C346.353,498.9866 345.23,522.68 344.73,533.36 " fill="none" id="ErrorView-Error" style="stroke:#181818;stroke-width:1.0;"/><polygon fill="#181818" points="344.1,546.68,348.5208,537.8791,344.3363,541.6856,340.5297,537.501,344.1,546.68" style="stroke:#181818;stroke-width:1.0;"/><line style="stroke:#181818;stroke-width:1.0;" x1="344.3363" x2="344.715" y1="541.6856" y2="533.695"/><polygon fill="#181818" points="346.92,487,342.641,492.8043,346.353,498.9866,350.632,493.1823,346.92,487" style="stroke:#181818;stroke-width:1.0;"/></g><!--MD5=[e8e56f95b2bfb8e03c3cdf9f0e0c50ee]
link Board to Color--><g id="link_Board_Color"><path codeLine="222" d="M1033,607 C1033,607 1033,630.68 1033,641.36 " fill="none" id="Board-Color" style="stroke:#181818;stroke-width:1.0;"/><polygon fill="#181818" points="1033,654.68,1037,645.68,1033,649.68,1029,645.68,1033,654.68" style="stroke:#181818;stroke-width:1.0;"/><line style="stroke:#181818;stroke-width:1.0;" x1="1033" x2="1033" y1="649.68" y2="641.68"/><polygon fill="#181818" points="1033,595,1029,601,1033,607,1037,601,1033,595" style="stroke:#181818;stroke-width:1.0;"/><text fill="#000000" font-family="sans-serif" font-size="13" lengthAdjust="spacing" textLength="21" x="1009.4406" y="644.34">3x3</text></g><!--MD5=[d8c80b8b9c444f47b0e4e65e9836afb1]
link Board to BoundedCoordinate--><g id="link_Board_BoundedCoordinate"><path codeLine="223" d="M997.81,589.03 C962.38,606.18 907.28,632.85 866.64,652.52 " fill="none" id="Board-to-BoundedCoordinate" style="stroke:#181818;stroke-width:1.0;stroke-dasharray:7.0,7.0;"/><polygon fill="#181818" points="861.76,654.88,871.604,654.5712,866.2631,652.7071,868.1273,647.3662,861.76,654.88" style="stroke:#181818;stroke-width:1.0;"/></g><!--MD5=[a676224b545de2f8b00c905b7798379b]
link Board to Direction--><g id="link_Board_Direction"><path codeLine="224" d="M1017.89,595.12 C1007.47,611.5 993.65,634.18 983,655 C945.04,729.21 908.74,820.8 891.48,866.02 " fill="none" id="Board-to-Direction" style="stroke:#181818;stroke-width:1.0;stroke-dasharray:7.0,7.0;"/><polygon fill="#181818" points="889.67,870.78,896.6199,863.8015,891.4553,866.1096,889.1473,860.945,889.67,870.78" style="stroke:#181818;stroke-width:1.0;"/></g><!--MD5=[02a16ebf8539d2e5d44c3be387606aac]
link BoardView to Message--><g id="link_BoardView_Message"><path codeLine="225" d="M796.33,485.58 C754.07,503.94 693.68,530.17 651.47,548.51 " fill="none" id="BoardView-to-Message" style="stroke:#181818;stroke-width:1.0;stroke-dasharray:7.0,7.0;"/><polygon fill="#181818" points="646.68,550.59,656.5286,550.6585,651.2631,548.5912,653.3305,543.3256,646.68,550.59" style="stroke:#181818;stroke-width:1.0;"/></g><!--MD5=[1a58e84faf9909f95fe5c088c7e2718b]
link BoardView to BoundedCoordinate--><g id="link_BoardView_BoundedCoordinate"><path codeLine="226" d="M842.51,487.31 C836.6,526.87 824.62,606.99 818.23,649.7 " fill="none" id="BoardView-to-BoundedCoordinate" style="stroke:#181818;stroke-width:1.0;stroke-dasharray:7.0,7.0;"/><polygon fill="#181818" points="817.48,654.72,822.7497,646.3995,818.2091,649.7734,814.8352,645.2329,817.48,654.72" style="stroke:#181818;stroke-width:1.0;"/></g><!--MD5=[87ac28f7ff846e55e34c2c863c6ff220]
link BoardView to Board--><g id="link_BoardView_Board"><path codeLine="227" d="M897.0191,492.9181 C897.0191,492.9181 959.53,528.35 986.42,543.59 " fill="none" id="BoardView-Board" style="stroke:#181818;stroke-width:1.0;"/><polygon fill="#181818" points="997.85,550.08,991.9977,542.1585,993.5017,547.6117,988.0485,549.1158,997.85,550.08" style="stroke:#181818;stroke-width:1.0;"/><line style="stroke:#181818;stroke-width:1.0;" x1="993.5017" x2="986.545" y1="547.6117" y2="543.665"/><polygon fill="#181818" points="886.58,487,889.8269,493.4388,897.0191,492.9181,893.7723,486.4794,886.58,487" style="stroke:#181818;stroke-width:1.0;"/></g><!--MD5=[50d2c791ff67128bf0c4b51052450f86]
link BoardView to ColorView--><g id="link_BoardView_ColorView"><path codeLine="228" d="M860.97,487 C871.57,503.28 885.83,525.19 897.04,542.41 " fill="none" id="BoardView-to-ColorView" style="stroke:#181818;stroke-width:1.0;stroke-dasharray:7.0,7.0;"/><polygon fill="#181818" points="899.82,546.68,898.2712,536.9537,897.0961,542.4871,891.5626,541.312,899.82,546.68" style="stroke:#181818;stroke-width:1.0;"/></g><!--MD5=[b9251e4013ca15f5b0f1633cdb410afd]
link BoundedCoordinate to Coordinate--><g id="link_BoundedCoordinate_Coordinate"><path codeLine="229" d="M818.9378,714.8807 C818.9378,714.8807 822.34,738.94 823.87,749.72 " fill="none" id="BoundedCoordinate-Coordinate" style="stroke:#181818;stroke-width:1.0;"/><polygon fill="#181818" points="825.7,762.68,828.4047,753.2098,825.0021,757.7289,820.483,754.3264,825.7,762.68" style="stroke:#181818;stroke-width:1.0;"/><line style="stroke:#181818;stroke-width:1.0;" x1="825.0021" x2="823.875" y1="757.7289" y2="749.805"/><polygon fill="#181818" points="817.25,703,814.1337,709.503,818.9378,714.8807,822.0541,708.3777,817.25,703" style="stroke:#181818;stroke-width:1.0;"/></g><!--MD5=[2ece631038b7899e5b9aaea57adaf24e]
link Coordinate to Direction--><g id="link_Coordinate_Direction"><path codeLine="230" d="M840.28,811 C848.2,827.14 858.83,848.82 867.25,865.97 " fill="none" id="Coordinate-to-Direction" style="stroke:#181818;stroke-width:1.0;stroke-dasharray:7.0,7.0;"/><polygon fill="#181818" points="869.56,870.68,869.1883,860.8382,867.3583,866.1908,862.0056,864.3609,869.56,870.68" style="stroke:#181818;stroke-width:1.0;"/></g><!--MD5=[59c01539060899e07b035d5ae232e8ad]
link BoundedCoordinateView to BoundedIntDialogView--><g id="link_BoundedCoordinateView_BoundedIntDialogView"><path codeLine="231" d="M101,487 C101,503 101,524.45 101,541.53 " fill="none" id="BoundedCoordinateView-to-BoundedIntDialogView" style="stroke:#181818;stroke-width:1.0;stroke-dasharray:7.0,7.0;"/><polygon fill="#181818" points="101,546.68,105,537.68,101,541.68,97,537.68,101,546.68" style="stroke:#181818;stroke-width:1.0;"/></g><!--MD5=[f6ad6412a23111fb77841ad26501d5a9]
link BoundedCoordinateView to BoundedCoordinate--><g id="link_BoundedCoordinateView_BoundedCoordinate"><path codeLine="232" d="M131.3,487.11 C176.23,520.95 258.88,581.44 293,595 C439.06,653.06 623.41,670.58 729.08,675.82 " fill="none" id="BoundedCoordinateView-to-BoundedCoordinate" style="stroke:#181818;stroke-width:1.0;stroke-dasharray:7.0,7.0;"/><polygon fill="#181818" points="734.37,676.07,725.5747,671.6381,729.3759,675.8274,725.1865,679.6287,734.37,676.07" style="stroke:#181818;stroke-width:1.0;"/></g><!--MD5=[63ade5c193cdfaa177a14dee5015aff8]
link BoundedIntDialogView to ClosedInterval--><g id="link_BoundedIntDialogView_ClosedInterval"><path codeLine="233" d="M101,595 C101,611 101,632.45 101,649.53 " fill="none" id="BoundedIntDialogView-to-ClosedInterval" style="stroke:#181818;stroke-width:1.0;stroke-dasharray:7.0,7.0;"/><polygon fill="#181818" points="101,654.68,105,645.68,101,649.68,97,645.68,101,654.68" style="stroke:#181818;stroke-width:1.0;"/></g><!--MD5=[a31fa164961aa559970146a0c482d415]
link MessageView to Message--><g id="link_MessageView_Message"><path codeLine="234" d="M573.528,498.1571 C573.528,498.1571 583.47,523.23 587.95,534.54 " fill="none" id="MessageView-Message" style="stroke:#181818;stroke-width:1.0;"/><polygon fill="#181818" points="592.76,546.68,593.1655,536.8395,590.9192,542.0312,585.7275,539.7848,592.76,546.68" style="stroke:#181818;stroke-width:1.0;"/><line style="stroke:#181818;stroke-width:1.0;" x1="590.9192" x2="587.97" y1="542.0312" y2="534.595"/><polygon fill="#181818" points="569.11,487,567.6,494.0512,573.528,498.1571,575.038,491.1059,569.11,487" style="stroke:#181818;stroke-width:1.0;"/></g><!--MD5=[3c978e882819d5791a3d8cfa6d73d565]
link ColorView to Color--><g id="link_ColorView_Color"><path codeLine="235" d="M949.5215,603.0254 C949.5215,603.0254 982.31,632.47 997.18,645.82 " fill="none" id="ColorView-Color" style="stroke:#181818;stroke-width:1.0;"/><polygon fill="#181818" points="1007.04,654.68,1003.0167,645.6904,1003.32,651.3391,997.6713,651.6424,1007.04,654.68" style="stroke:#181818;stroke-width:1.0;"/><line style="stroke:#181818;stroke-width:1.0;" x1="1003.32" x2="997.37" y1="651.3391" y2="645.995"/><polygon fill="#181818" points="940.6,595,942.3856,601.9865,949.5215,603.0254,947.7359,596.0389,940.6,595" style="stroke:#181818;stroke-width:1.0;"/></g><!--MD5=[eb8a97850d203f35b686d8c00f8661ad]
@startuml

class Board {
	' + Board() 
	' + void reset() 
	' + boolean isComplete(Color)
	' - Coordinate[] getCoordinates(Color)
	' + void putToken(Coordinate, Color)
	' + void moveToken(Coordinate, Coordinate) 
	' - Color getColor(Coordinate) 
	' + boolean isOccupied(Coordinate, Color) 
	' + boolean isEmpty(Coordinate)
	' + boolean isTicTacToe(Color) 
	' - Direction[] getDirections(Color)
	' + void write()
	' + boolean isComplete(Color)
}

class BoardView {
	' - Board board
	' + BoardView(board)
	' + void write()
}

class BoundedIntDialogView {
	' - ClosedInterval LIMITS
	' + BoundedIntDialog(int, int)
	' + int read(String) 
	' - String getLimits()
}

enum Color {
	' X,
	' O,
	' NULL
	' + {static} Color get(int)
	' + void write() 
	' + boolean isNull()
}

' class Console {
' 	- {static} Console instance = new Console()
' 	+ {static} Console getInstance()
' 	- BufferedReader bufferedReader
' 	+ String readString(String) 
' 	+ String readString()
' 	+ int readInt(String) 
' 	+ char readChar(String) 
' 	+ void write(String)
' 	+ void write(int)
' 	+ void write(char)
' 	+ void writeln()
' 	+ void writeln(String)
' 	+ void writeln(int) 
' 	+ void writeError(String) 
' }

class Coordinate {
	' - int row
	' - int column
	' + Coordinate() 
	' + Coordinate(int, int) 
	' + Direction getDirection(Coordinate)
	' - boolean inHorizontal(Coordinate)
	' - boolean inVertical(Coordinate)
	' - boolean inMainDiagonal() 
	' - boolean inInverseDiagonal() 
	' + String getErrorMessage() 
	' + int getRow()
	' + int getColumn()
	' + boolean equals(Coordinate)
}

class BoundedCoordinate {
	' - {static} int DIMENSION = 3
	' - Coordinate coordinate
	' + {static} int getDimension()
	' + BoundedCoordinate() 
	' + BoundedCoordinate(int, int) 
	' + Direction getDirection(Coordinate)
	' + int getRow()
	' + int getColumn()
}

class BoundedCoordinateView {
	' - BoundedCoordinate Boundedcoordinate
	' + void read(String)
	' + String getErrorMessage() 

}

enum Direction {
	' VERTICAL,
	' HORIZONTAL,
	' MAIN_DIAGONAL,
	' INVERSE_DIAGONAL,
	' NULL
	' + boolean isNull() 
}

enum Error {
	' NOT_EMPTY
	' NOT_OWNER
	' SAME_COORDINATES
	' WRONG_COORDINATES
	' NULL
	' - String message
	' - Error()
	' - Error(String)
	' + void writeln()
	' + boolean isNull()
}

enum Message {
	' TITLE
	' HORIZONTAL_LINE
	' VERTICAL_LINE
	' NULL_COLOR
	' TURN
	' ENTER_COORDINATE_TO_PUT
	' COORDINATE_TO_PUT
	' COORDINATE_TO_REMOVE
	' COORDINATE_TO_MOVE
	' ROW
	' COLUMN
	' BOUNDED_INT_ERROR
	' LIMITS
	' CLOSED_INTERVAL
	' PLAYER_WIN
	' RESUME
	' YES_NO_SUFFIX
	' YES_NO_ERROR
	' + {static} char AFFIRMATIVE
	' + {static} char NEGATIVE
	' + {static} String $COLOR
	' + {static} String $PLAYER
	' + {static} String $CLOSED_INTERVAL
	' + {static} String $MIN
	' + {static} String $MAX
	' - String message
	' - Message(String)
	' + void write()
	' + void writeln() 
	' + void writeln(String)
	' + String toString() 
}

class Player {
	' + Player(Color, Board)
	' + void play() 
	' - void putToken()
	' - Coordinate getCoordinate(Message) 
	' - Error getPutTokenError(Coordinate)
	' - void moveToken() 
	' - Error getOriginMoveTokenError(Coordinate) 
	' - Error getTargetMoveTokenError(Coordinate, Coordinate)
	' + void writeWinner() 
	' + Color getColor() 
}

class TicTacToe {
	' - TicTacToe() 
	' - void play() 
	' - void playGame() 
	' - boolean isResumedGame() 
	' + {static} void main(String[])
}

class TicTacToeView {
	' - TicTacToe ticTacToe;
	' - TicTacToe()
	' + {static} void main(String[])
}

class Turn {
	' - {static} int NUMBER_PLAYERS = 2
	' - int activePlayer
	' + Turn(Board) 
	' + void reset()
	' + void play()
	' + void writeWinner()
	' + Color getActiveColor() 
}

class YesNoDialogView {
	' - String answer
	' + void read(String)
	' + boolean isAffirmative()
	' - char getAnswer() 
	' + boolean isNegative() 
}

class ClosedInterval {
	' - int min;
	' - int max;
	' + ClosedInterval(int, int) 
	' + boolean isIncluded(int) 
	' + String toString()
	' + boolean equals(ClosedInterval)
}

TicTacToe *- -> Turn
TicTacToe *- -> Board
TicTacToe ..> TicTacToeView
TicTacToeView *- -> TurnView
TicTacToeView *- -> BoardView
TicTacToeView *- -> YesNoDialogView
TurnView *- -> Turn
TurnView - -> BoundedCoordinate
TurnView ..> MessageView
TurnView ..> PlayerView
TurnView ..> Message
Turn *- -> "2" Player
Player - -> Board
Player - -> Color
PlayerView ..> Player
PlayerView ..> ErrorView
PlayerView ..> Error
PlayerView ..> MessageView
PlayerView ..> Message
PlayerView ..> BoundedCoordinateView
ErrorView *- -> Error
Board *- -> "3x3" Color
Board ..> BoundedCoordinate
Board ..> Direction
BoardView ..> Message
BoardView ..> BoundedCoordinate
BoardView *- -> Board
BoardView ..> ColorView
BoundedCoordinate *- -> Coordinate
Coordinate ..> Direction
BoundedCoordinateView ..> BoundedIntDialogView
BoundedCoordinateView ..> BoundedCoordinate
BoundedIntDialogView ..> ClosedInterval
MessageView *- -> Message
ColorView *- -> Color

@enduml

@startuml

class Board {
}

class BoardView {
}

class BoundedIntDialogView {
}

enum Color {
}


class Coordinate {
}

class BoundedCoordinate {
}

class BoundedCoordinateView {

}

enum Direction {
}

enum Error {
}

enum Message {
}

class Player {
}

class TicTacToe {
}

class TicTacToeView {
}

class Turn {
}

class YesNoDialogView {
}

class ClosedInterval {
}

TicTacToe *- -> Turn
TicTacToe *- -> Board
TicTacToe ..> TicTacToeView
TicTacToeView *- -> TurnView
TicTacToeView *- -> BoardView
TicTacToeView *- -> YesNoDialogView
TurnView *- -> Turn
TurnView - -> BoundedCoordinate
TurnView ..> MessageView
TurnView ..> PlayerView
TurnView ..> Message
Turn *- -> "2" Player
Player - -> Board
Player - -> Color
PlayerView ..> Player
PlayerView ..> ErrorView
PlayerView ..> Error
PlayerView ..> MessageView
PlayerView ..> Message
PlayerView ..> BoundedCoordinateView
ErrorView *- -> Error
Board *- -> "3x3" Color
Board ..> BoundedCoordinate
Board ..> Direction
BoardView ..> Message
BoardView ..> BoundedCoordinate
BoardView *- -> Board
BoardView ..> ColorView
BoundedCoordinate *- -> Coordinate
Coordinate ..> Direction
BoundedCoordinateView ..> BoundedIntDialogView
BoundedCoordinateView ..> BoundedCoordinate
BoundedIntDialogView ..> ClosedInterval
MessageView *- -> Message
ColorView *- -> Color

@enduml

PlantUML version 1.2022.7(Mon Aug 22 19:01:30 CEST 2022)
(GPL source distribution)
Java Runtime: OpenJDK Runtime Environment
JVM: OpenJDK 64-Bit Server VM
Default Encoding: UTF-8
Language: es
Country: ES
--></g></svg>