<?xml version="1.0" encoding="UTF-8" standalone="no"?><svg xmlns="http://www.w3.org/2000/svg" xmlns:xlink="http://www.w3.org/1999/xlink" contentStyleType="text/css" height="818px" preserveAspectRatio="none" style="width:1109px;height:818px;background:#FFFFFF;" version="1.1" viewBox="0 0 1109 818" width="1109px" zoomAndPan="magnify"><defs/><g><!--MD5=[9563755d011c5cec7ec66dc53565a59e]
class Board--><g id="elem_Board"><rect codeLine="2" fill="#F1F1F1" height="48" id="Board" rx="2.5" ry="2.5" style="stroke:#181818;stroke-width:0.5;" width="70" x="41.99" y="439"/><ellipse cx="56.99" cy="455" fill="#ADD1B2" rx="11" ry="11" style="stroke:#181818;stroke-width:1.0;"/><path d="M59.7556,450.875 Q59.9119,450.6563 60.0994,450.5469 Q60.2869,450.4375 60.5056,450.4375 Q60.8806,450.4375 61.115,450.7031 Q61.3494,450.9531 61.3494,451.5625 L61.3494,453.0156 Q61.3494,453.625 61.115,453.8906 Q60.8806,454.1563 60.5056,454.1563 Q60.1619,454.1563 59.9588,453.9531 Q59.7556,453.7656 59.6463,453.25 Q59.5994,452.8906 59.4119,452.7031 Q59.0838,452.3281 58.4744,452.1094 Q57.865,451.8906 57.24,451.8906 Q56.4744,451.8906 55.8338,452.2188 Q55.2088,452.5469 54.7088,453.2969 Q54.2244,454.0469 54.2244,455.0781 L54.2244,456.1719 Q54.2244,457.4063 55.115,458.2344 Q56.0056,459.0469 57.5994,459.0469 Q58.5369,459.0469 59.1931,458.7969 Q59.5838,458.6406 60.0056,458.2031 Q60.2713,457.9375 60.4119,457.8594 Q60.5681,457.7813 60.7713,457.7813 Q61.0994,457.7813 61.3494,458.0469 Q61.615,458.2969 61.615,458.6406 Q61.615,458.9844 61.2713,459.3906 Q60.7713,459.9688 59.9744,460.2969 Q58.8963,460.75 57.5994,460.75 Q56.0838,460.75 54.8806,460.125 Q53.8963,459.625 53.2088,458.5625 Q52.5213,457.4844 52.5213,456.2031 L52.5213,455.0469 Q52.5213,453.7188 53.1306,452.5781 Q53.7556,451.4219 54.8494,450.8125 Q55.9431,450.1875 57.1775,450.1875 Q57.9119,450.1875 58.5525,450.3594 Q59.2088,450.5156 59.7556,450.875 Z " fill="#000000"/><text fill="#000000" font-family="sans-serif" font-size="14" lengthAdjust="spacing" textLength="38" x="70.99" y="460.7285">Board</text><line style="stroke:#181818;stroke-width:0.5;" x1="42.99" x2="110.99" y1="471" y2="471"/><line style="stroke:#181818;stroke-width:0.5;" x1="42.99" x2="110.99" y1="479" y2="479"/></g><!--MD5=[9b237e88d697a058bd530d6510c96c00]
class BoardView--><g id="elem_BoardView"><rect codeLine="18" fill="#F1F1F1" height="48" id="BoardView" rx="2.5" ry="2.5" style="stroke:#181818;stroke-width:0.5;" width="99" x="214.49" y="331"/><ellipse cx="229.49" cy="347" fill="#ADD1B2" rx="11" ry="11" style="stroke:#181818;stroke-width:1.0;"/><path d="M232.2556,342.875 Q232.4119,342.6563 232.5994,342.5469 Q232.7869,342.4375 233.0056,342.4375 Q233.3806,342.4375 233.615,342.7031 Q233.8494,342.9531 233.8494,343.5625 L233.8494,345.0156 Q233.8494,345.625 233.615,345.8906 Q233.3806,346.1563 233.0056,346.1563 Q232.6619,346.1563 232.4588,345.9531 Q232.2556,345.7656 232.1463,345.25 Q232.0994,344.8906 231.9119,344.7031 Q231.5838,344.3281 230.9744,344.1094 Q230.365,343.8906 229.74,343.8906 Q228.9744,343.8906 228.3338,344.2188 Q227.7088,344.5469 227.2088,345.2969 Q226.7244,346.0469 226.7244,347.0781 L226.7244,348.1719 Q226.7244,349.4063 227.615,350.2344 Q228.5056,351.0469 230.0994,351.0469 Q231.0369,351.0469 231.6931,350.7969 Q232.0838,350.6406 232.5056,350.2031 Q232.7713,349.9375 232.9119,349.8594 Q233.0681,349.7813 233.2713,349.7813 Q233.5994,349.7813 233.8494,350.0469 Q234.115,350.2969 234.115,350.6406 Q234.115,350.9844 233.7713,351.3906 Q233.2713,351.9688 232.4744,352.2969 Q231.3963,352.75 230.0994,352.75 Q228.5838,352.75 227.3806,352.125 Q226.3963,351.625 225.7088,350.5625 Q225.0213,349.4844 225.0213,348.2031 L225.0213,347.0469 Q225.0213,345.7188 225.6306,344.5781 Q226.2556,343.4219 227.3494,342.8125 Q228.4431,342.1875 229.6775,342.1875 Q230.4119,342.1875 231.0525,342.3594 Q231.7088,342.5156 232.2556,342.875 Z " fill="#000000"/><text fill="#000000" font-family="sans-serif" font-size="14" lengthAdjust="spacing" textLength="67" x="243.49" y="352.7285">BoardView</text><line style="stroke:#181818;stroke-width:0.5;" x1="215.49" x2="312.49" y1="363" y2="363"/><line style="stroke:#181818;stroke-width:0.5;" x1="215.49" x2="312.49" y1="371" y2="371"/></g><!--MD5=[a6506cb8083f762528b9107a98ea401f]
class BoundedIntDialogView--><g id="elem_BoundedIntDialogView"><rect codeLine="24" fill="#F1F1F1" height="48" id="BoundedIntDialogView" rx="2.5" ry="2.5" style="stroke:#181818;stroke-width:0.5;" width="173" x="922.49" y="439"/><ellipse cx="937.49" cy="455" fill="#ADD1B2" rx="11" ry="11" style="stroke:#181818;stroke-width:1.0;"/><path d="M940.2556,450.875 Q940.4119,450.6563 940.5994,450.5469 Q940.7869,450.4375 941.0056,450.4375 Q941.3806,450.4375 941.615,450.7031 Q941.8494,450.9531 941.8494,451.5625 L941.8494,453.0156 Q941.8494,453.625 941.615,453.8906 Q941.3806,454.1563 941.0056,454.1563 Q940.6619,454.1563 940.4588,453.9531 Q940.2556,453.7656 940.1463,453.25 Q940.0994,452.8906 939.9119,452.7031 Q939.5838,452.3281 938.9744,452.1094 Q938.365,451.8906 937.74,451.8906 Q936.9744,451.8906 936.3338,452.2188 Q935.7088,452.5469 935.2088,453.2969 Q934.7244,454.0469 934.7244,455.0781 L934.7244,456.1719 Q934.7244,457.4063 935.615,458.2344 Q936.5056,459.0469 938.0994,459.0469 Q939.0369,459.0469 939.6931,458.7969 Q940.0838,458.6406 940.5056,458.2031 Q940.7713,457.9375 940.9119,457.8594 Q941.0681,457.7813 941.2713,457.7813 Q941.5994,457.7813 941.8494,458.0469 Q942.115,458.2969 942.115,458.6406 Q942.115,458.9844 941.7713,459.3906 Q941.2713,459.9688 940.4744,460.2969 Q939.3963,460.75 938.0994,460.75 Q936.5838,460.75 935.3806,460.125 Q934.3963,459.625 933.7088,458.5625 Q933.0213,457.4844 933.0213,456.2031 L933.0213,455.0469 Q933.0213,453.7188 933.6306,452.5781 Q934.2556,451.4219 935.3494,450.8125 Q936.4431,450.1875 937.6775,450.1875 Q938.4119,450.1875 939.0525,450.3594 Q939.7088,450.5156 940.2556,450.875 Z " fill="#000000"/><text fill="#000000" font-family="sans-serif" font-size="14" lengthAdjust="spacing" textLength="141" x="951.49" y="460.7285">BoundedIntDialogView</text><line style="stroke:#181818;stroke-width:0.5;" x1="923.49" x2="1094.49" y1="471" y2="471"/><line style="stroke:#181818;stroke-width:0.5;" x1="923.49" x2="1094.49" y1="479" y2="479"/></g><!--MD5=[18eee71c88ab61f27581b8cbdd3ef5ee]
class Color--><g id="elem_Color"><rect codeLine="31" fill="#F1F1F1" height="48" id="Color" rx="2.5" ry="2.5" style="stroke:#181818;stroke-width:0.5;" width="66" x="43.99" y="547"/><ellipse cx="58.99" cy="563" fill="#EB937F" rx="11" ry="11" style="stroke:#181818;stroke-width:1.0;"/><path d="M57.8494,563.7969 L57.8494,566.2969 L62.1775,566.2969 L62.1775,565.375 Q62.1775,564.7656 62.4119,564.5 Q62.6619,564.2344 63.0369,564.2344 Q63.4119,564.2344 63.6463,564.5 Q63.8806,564.7656 63.8806,565.375 L63.8806,568 L55.8806,568 Q55.2556,568 54.99,567.7656 Q54.74,567.5313 54.74,567.1406 Q54.74,566.7656 55.0056,566.5313 Q55.2713,566.2969 55.8806,566.2969 L56.1463,566.2969 L56.1463,559.6406 L55.8806,559.6406 Q55.2556,559.6406 54.99,559.4063 Q54.74,559.1719 54.74,558.7813 Q54.74,558.4063 54.99,558.1719 Q55.2556,557.9375 55.8806,557.9375 L63.5056,557.9375 L63.5056,560.5313 Q63.5056,561.1406 63.2713,561.4063 Q63.0525,561.6563 62.6619,561.6563 Q62.2869,561.6563 62.0525,561.4063 Q61.8181,561.1406 61.8181,560.5313 L61.8181,559.6406 L57.8494,559.6406 L57.8494,562.0938 L59.3338,562.0938 Q59.3338,561.4375 59.4588,561.25 Q59.7244,560.8438 60.1931,560.8438 Q60.5681,560.8438 60.8025,561.1094 Q61.0369,561.3594 61.0369,561.9688 L61.0369,563.9375 Q61.0369,564.4844 60.9119,564.6719 Q60.6463,565.0625 60.1931,565.0625 Q59.7244,565.0625 59.4588,564.6563 Q59.3338,564.4688 59.3338,563.7969 L57.8494,563.7969 Z " fill="#000000"/><text fill="#000000" font-family="sans-serif" font-size="14" lengthAdjust="spacing" textLength="34" x="72.99" y="568.7285">Color</text><line style="stroke:#181818;stroke-width:0.5;" x1="44.99" x2="108.99" y1="579" y2="579"/><line style="stroke:#181818;stroke-width:0.5;" x1="44.99" x2="108.99" y1="587" y2="587"/></g><!--MD5=[8c7d7abc12e214c3cc12c9ab70edee11]
class Coordinate--><g id="elem_Coordinate"><rect codeLine="57" fill="#F1F1F1" height="48" id="Coordinate" rx="2.5" ry="2.5" style="stroke:#181818;stroke-width:0.5;" width="102" x="229.99" y="655"/><ellipse cx="244.99" cy="671" fill="#ADD1B2" rx="11" ry="11" style="stroke:#181818;stroke-width:1.0;"/><path d="M247.7556,666.875 Q247.9119,666.6563 248.0994,666.5469 Q248.2869,666.4375 248.5056,666.4375 Q248.8806,666.4375 249.115,666.7031 Q249.3494,666.9531 249.3494,667.5625 L249.3494,669.0156 Q249.3494,669.625 249.115,669.8906 Q248.8806,670.1563 248.5056,670.1563 Q248.1619,670.1563 247.9588,669.9531 Q247.7556,669.7656 247.6463,669.25 Q247.5994,668.8906 247.4119,668.7031 Q247.0838,668.3281 246.4744,668.1094 Q245.865,667.8906 245.24,667.8906 Q244.4744,667.8906 243.8338,668.2188 Q243.2088,668.5469 242.7088,669.2969 Q242.2244,670.0469 242.2244,671.0781 L242.2244,672.1719 Q242.2244,673.4063 243.115,674.2344 Q244.0056,675.0469 245.5994,675.0469 Q246.5369,675.0469 247.1931,674.7969 Q247.5838,674.6406 248.0056,674.2031 Q248.2713,673.9375 248.4119,673.8594 Q248.5681,673.7813 248.7713,673.7813 Q249.0994,673.7813 249.3494,674.0469 Q249.615,674.2969 249.615,674.6406 Q249.615,674.9844 249.2713,675.3906 Q248.7713,675.9688 247.9744,676.2969 Q246.8963,676.75 245.5994,676.75 Q244.0838,676.75 242.8806,676.125 Q241.8963,675.625 241.2088,674.5625 Q240.5213,673.4844 240.5213,672.2031 L240.5213,671.0469 Q240.5213,669.7188 241.1306,668.5781 Q241.7556,667.4219 242.8494,666.8125 Q243.9431,666.1875 245.1775,666.1875 Q245.9119,666.1875 246.5525,666.3594 Q247.2088,666.5156 247.7556,666.875 Z " fill="#000000"/><text fill="#000000" font-family="sans-serif" font-size="14" lengthAdjust="spacing" textLength="70" x="258.99" y="676.7285">Coordinate</text><line style="stroke:#181818;stroke-width:0.5;" x1="230.99" x2="330.99" y1="687" y2="687"/><line style="stroke:#181818;stroke-width:0.5;" x1="230.99" x2="330.99" y1="695" y2="695"/></g><!--MD5=[62ca0729120fa425d34ad066ce351b56]
class BoundedCoordinate--><g id="elem_BoundedCoordinate"><rect codeLine="73" fill="#F1F1F1" height="48" id="BoundedCoordinate" rx="2.5" ry="2.5" style="stroke:#181818;stroke-width:0.5;" width="159" x="216.49" y="547"/><ellipse cx="231.49" cy="563" fill="#ADD1B2" rx="11" ry="11" style="stroke:#181818;stroke-width:1.0;"/><path d="M234.2556,558.875 Q234.4119,558.6563 234.5994,558.5469 Q234.7869,558.4375 235.0056,558.4375 Q235.3806,558.4375 235.615,558.7031 Q235.8494,558.9531 235.8494,559.5625 L235.8494,561.0156 Q235.8494,561.625 235.615,561.8906 Q235.3806,562.1563 235.0056,562.1563 Q234.6619,562.1563 234.4588,561.9531 Q234.2556,561.7656 234.1463,561.25 Q234.0994,560.8906 233.9119,560.7031 Q233.5838,560.3281 232.9744,560.1094 Q232.365,559.8906 231.74,559.8906 Q230.9744,559.8906 230.3338,560.2188 Q229.7088,560.5469 229.2088,561.2969 Q228.7244,562.0469 228.7244,563.0781 L228.7244,564.1719 Q228.7244,565.4063 229.615,566.2344 Q230.5056,567.0469 232.0994,567.0469 Q233.0369,567.0469 233.6931,566.7969 Q234.0838,566.6406 234.5056,566.2031 Q234.7713,565.9375 234.9119,565.8594 Q235.0681,565.7813 235.2713,565.7813 Q235.5994,565.7813 235.8494,566.0469 Q236.115,566.2969 236.115,566.6406 Q236.115,566.9844 235.7713,567.3906 Q235.2713,567.9688 234.4744,568.2969 Q233.3963,568.75 232.0994,568.75 Q230.5838,568.75 229.3806,568.125 Q228.3963,567.625 227.7088,566.5625 Q227.0213,565.4844 227.0213,564.2031 L227.0213,563.0469 Q227.0213,561.7188 227.6306,560.5781 Q228.2556,559.4219 229.3494,558.8125 Q230.4431,558.1875 231.6775,558.1875 Q232.4119,558.1875 233.0525,558.3594 Q233.7088,558.5156 234.2556,558.875 Z " fill="#000000"/><text fill="#000000" font-family="sans-serif" font-size="14" lengthAdjust="spacing" textLength="127" x="245.49" y="568.7285">BoundedCoordinate</text><line style="stroke:#181818;stroke-width:0.5;" x1="217.49" x2="374.49" y1="579" y2="579"/><line style="stroke:#181818;stroke-width:0.5;" x1="217.49" x2="374.49" y1="587" y2="587"/></g><!--MD5=[5f08b6f189bbeec7e47b7a47ff779388]
class BoundedCoordinateView--><g id="elem_BoundedCoordinateView"><rect codeLine="84" fill="#F1F1F1" height="48" id="BoundedCoordinateView" rx="2.5" ry="2.5" style="stroke:#181818;stroke-width:0.5;" width="188" x="914.99" y="331"/><ellipse cx="929.99" cy="347" fill="#ADD1B2" rx="11" ry="11" style="stroke:#181818;stroke-width:1.0;"/><path d="M932.7556,342.875 Q932.9119,342.6563 933.0994,342.5469 Q933.2869,342.4375 933.5056,342.4375 Q933.8806,342.4375 934.115,342.7031 Q934.3494,342.9531 934.3494,343.5625 L934.3494,345.0156 Q934.3494,345.625 934.115,345.8906 Q933.8806,346.1563 933.5056,346.1563 Q933.1619,346.1563 932.9588,345.9531 Q932.7556,345.7656 932.6463,345.25 Q932.5994,344.8906 932.4119,344.7031 Q932.0838,344.3281 931.4744,344.1094 Q930.865,343.8906 930.24,343.8906 Q929.4744,343.8906 928.8338,344.2188 Q928.2088,344.5469 927.7088,345.2969 Q927.2244,346.0469 927.2244,347.0781 L927.2244,348.1719 Q927.2244,349.4063 928.115,350.2344 Q929.0056,351.0469 930.5994,351.0469 Q931.5369,351.0469 932.1931,350.7969 Q932.5838,350.6406 933.0056,350.2031 Q933.2713,349.9375 933.4119,349.8594 Q933.5681,349.7813 933.7713,349.7813 Q934.0994,349.7813 934.3494,350.0469 Q934.615,350.2969 934.615,350.6406 Q934.615,350.9844 934.2713,351.3906 Q933.7713,351.9688 932.9744,352.2969 Q931.8963,352.75 930.5994,352.75 Q929.0838,352.75 927.8806,352.125 Q926.8963,351.625 926.2088,350.5625 Q925.5213,349.4844 925.5213,348.2031 L925.5213,347.0469 Q925.5213,345.7188 926.1306,344.5781 Q926.7556,343.4219 927.8494,342.8125 Q928.9431,342.1875 930.1775,342.1875 Q930.9119,342.1875 931.5525,342.3594 Q932.2088,342.5156 932.7556,342.875 Z " fill="#000000"/><text fill="#000000" font-family="sans-serif" font-size="14" lengthAdjust="spacing" textLength="156" x="943.99" y="352.7285">BoundedCoordinateView</text><line style="stroke:#181818;stroke-width:0.5;" x1="915.99" x2="1101.99" y1="363" y2="363"/><line style="stroke:#181818;stroke-width:0.5;" x1="915.99" x2="1101.99" y1="371" y2="371"/></g><!--MD5=[02f7077ed79257124e28b791f351f1d7]
class Direction--><g id="elem_Direction"><rect codeLine="91" fill="#F1F1F1" height="48" id="Direction" rx="2.5" ry="2.5" style="stroke:#181818;stroke-width:0.5;" width="88" x="170.99" y="763"/><ellipse cx="185.99" cy="779" fill="#EB937F" rx="11" ry="11" style="stroke:#181818;stroke-width:1.0;"/><path d="M184.8494,779.7969 L184.8494,782.2969 L189.1775,782.2969 L189.1775,781.375 Q189.1775,780.7656 189.4119,780.5 Q189.6619,780.2344 190.0369,780.2344 Q190.4119,780.2344 190.6463,780.5 Q190.8806,780.7656 190.8806,781.375 L190.8806,784 L182.8806,784 Q182.2556,784 181.99,783.7656 Q181.74,783.5313 181.74,783.1406 Q181.74,782.7656 182.0056,782.5313 Q182.2713,782.2969 182.8806,782.2969 L183.1463,782.2969 L183.1463,775.6406 L182.8806,775.6406 Q182.2556,775.6406 181.99,775.4063 Q181.74,775.1719 181.74,774.7813 Q181.74,774.4063 181.99,774.1719 Q182.2556,773.9375 182.8806,773.9375 L190.5056,773.9375 L190.5056,776.5313 Q190.5056,777.1406 190.2713,777.4063 Q190.0525,777.6563 189.6619,777.6563 Q189.2869,777.6563 189.0525,777.4063 Q188.8181,777.1406 188.8181,776.5313 L188.8181,775.6406 L184.8494,775.6406 L184.8494,778.0938 L186.3338,778.0938 Q186.3338,777.4375 186.4588,777.25 Q186.7244,776.8438 187.1931,776.8438 Q187.5681,776.8438 187.8025,777.1094 Q188.0369,777.3594 188.0369,777.9688 L188.0369,779.9375 Q188.0369,780.4844 187.9119,780.6719 Q187.6463,781.0625 187.1931,781.0625 Q186.7244,781.0625 186.4588,780.6563 Q186.3338,780.4688 186.3338,779.7969 L184.8494,779.7969 Z " fill="#000000"/><text fill="#000000" font-family="sans-serif" font-size="14" lengthAdjust="spacing" textLength="56" x="199.99" y="784.7285">Direction</text><line style="stroke:#181818;stroke-width:0.5;" x1="171.99" x2="257.99" y1="795" y2="795"/><line style="stroke:#181818;stroke-width:0.5;" x1="171.99" x2="257.99" y1="803" y2="803"/></g><!--MD5=[b8cfd8c4119a3b0a7a46bfc5fc780f85]
class Error--><g id="elem_Error"><rect codeLine="100" fill="#F1F1F1" height="48" id="Error" rx="2.5" ry="2.5" style="stroke:#181818;stroke-width:0.5;" width="64" x="734.99" y="439"/><ellipse cx="749.99" cy="455" fill="#EB937F" rx="11" ry="11" style="stroke:#181818;stroke-width:1.0;"/><path d="M748.8494,455.7969 L748.8494,458.2969 L753.1775,458.2969 L753.1775,457.375 Q753.1775,456.7656 753.4119,456.5 Q753.6619,456.2344 754.0369,456.2344 Q754.4119,456.2344 754.6463,456.5 Q754.8806,456.7656 754.8806,457.375 L754.8806,460 L746.8806,460 Q746.2556,460 745.99,459.7656 Q745.74,459.5313 745.74,459.1406 Q745.74,458.7656 746.0056,458.5313 Q746.2713,458.2969 746.8806,458.2969 L747.1463,458.2969 L747.1463,451.6406 L746.8806,451.6406 Q746.2556,451.6406 745.99,451.4063 Q745.74,451.1719 745.74,450.7813 Q745.74,450.4063 745.99,450.1719 Q746.2556,449.9375 746.8806,449.9375 L754.5056,449.9375 L754.5056,452.5313 Q754.5056,453.1406 754.2713,453.4063 Q754.0525,453.6563 753.6619,453.6563 Q753.2869,453.6563 753.0525,453.4063 Q752.8181,453.1406 752.8181,452.5313 L752.8181,451.6406 L748.8494,451.6406 L748.8494,454.0938 L750.3338,454.0938 Q750.3338,453.4375 750.4588,453.25 Q750.7244,452.8438 751.1931,452.8438 Q751.5681,452.8438 751.8025,453.1094 Q752.0369,453.3594 752.0369,453.9688 L752.0369,455.9375 Q752.0369,456.4844 751.9119,456.6719 Q751.6463,457.0625 751.1931,457.0625 Q750.7244,457.0625 750.4588,456.6563 Q750.3338,456.4688 750.3338,455.7969 L748.8494,455.7969 Z " fill="#000000"/><text fill="#000000" font-family="sans-serif" font-size="14" lengthAdjust="spacing" textLength="32" x="763.99" y="460.7285">Error</text><line style="stroke:#181818;stroke-width:0.5;" x1="735.99" x2="797.99" y1="471" y2="471"/><line style="stroke:#181818;stroke-width:0.5;" x1="735.99" x2="797.99" y1="479" y2="479"/></g><!--MD5=[bea5b0d46523efab5ea1c1d339f396f0]
class Message--><g id="elem_Message"><rect codeLine="113" fill="#F1F1F1" height="48" id="Message" rx="2.5" ry="2.5" style="stroke:#181818;stroke-width:0.5;" width="89" x="463.49" y="439"/><ellipse cx="478.49" cy="455" fill="#EB937F" rx="11" ry="11" style="stroke:#181818;stroke-width:1.0;"/><path d="M477.3494,455.7969 L477.3494,458.2969 L481.6775,458.2969 L481.6775,457.375 Q481.6775,456.7656 481.9119,456.5 Q482.1619,456.2344 482.5369,456.2344 Q482.9119,456.2344 483.1462,456.5 Q483.3806,456.7656 483.3806,457.375 L483.3806,460 L475.3806,460 Q474.7556,460 474.49,459.7656 Q474.24,459.5313 474.24,459.1406 Q474.24,458.7656 474.5056,458.5313 Q474.7712,458.2969 475.3806,458.2969 L475.6462,458.2969 L475.6462,451.6406 L475.3806,451.6406 Q474.7556,451.6406 474.49,451.4063 Q474.24,451.1719 474.24,450.7813 Q474.24,450.4063 474.49,450.1719 Q474.7556,449.9375 475.3806,449.9375 L483.0056,449.9375 L483.0056,452.5313 Q483.0056,453.1406 482.7712,453.4063 Q482.5525,453.6563 482.1619,453.6563 Q481.7869,453.6563 481.5525,453.4063 Q481.3181,453.1406 481.3181,452.5313 L481.3181,451.6406 L477.3494,451.6406 L477.3494,454.0938 L478.8337,454.0938 Q478.8337,453.4375 478.9587,453.25 Q479.2244,452.8438 479.6931,452.8438 Q480.0681,452.8438 480.3025,453.1094 Q480.5369,453.3594 480.5369,453.9688 L480.5369,455.9375 Q480.5369,456.4844 480.4119,456.6719 Q480.1462,457.0625 479.6931,457.0625 Q479.2244,457.0625 478.9587,456.6563 Q478.8337,456.4688 478.8337,455.7969 L477.3494,455.7969 Z " fill="#000000"/><text fill="#000000" font-family="sans-serif" font-size="14" lengthAdjust="spacing" textLength="57" x="492.49" y="460.7285">Message</text><line style="stroke:#181818;stroke-width:0.5;" x1="464.49" x2="551.49" y1="471" y2="471"/><line style="stroke:#181818;stroke-width:0.5;" x1="464.49" x2="551.49" y1="479" y2="479"/></g><!--MD5=[2cb47ba637a0d19583e6199456f6ad0b]
class Player--><g id="elem_Player"><rect codeLine="147" fill="#F1F1F1" height="48" id="Player" rx="2.5" ry="2.5" style="stroke:#181818;stroke-width:0.5;" width="72" x="106.99" y="331"/><ellipse cx="121.99" cy="347" fill="#ADD1B2" rx="11" ry="11" style="stroke:#181818;stroke-width:1.0;"/><path d="M124.7556,342.875 Q124.9119,342.6563 125.0994,342.5469 Q125.2869,342.4375 125.5056,342.4375 Q125.8806,342.4375 126.115,342.7031 Q126.3494,342.9531 126.3494,343.5625 L126.3494,345.0156 Q126.3494,345.625 126.115,345.8906 Q125.8806,346.1563 125.5056,346.1563 Q125.1619,346.1563 124.9588,345.9531 Q124.7556,345.7656 124.6463,345.25 Q124.5994,344.8906 124.4119,344.7031 Q124.0838,344.3281 123.4744,344.1094 Q122.865,343.8906 122.24,343.8906 Q121.4744,343.8906 120.8338,344.2188 Q120.2088,344.5469 119.7088,345.2969 Q119.2244,346.0469 119.2244,347.0781 L119.2244,348.1719 Q119.2244,349.4063 120.115,350.2344 Q121.0056,351.0469 122.5994,351.0469 Q123.5369,351.0469 124.1931,350.7969 Q124.5838,350.6406 125.0056,350.2031 Q125.2713,349.9375 125.4119,349.8594 Q125.5681,349.7813 125.7713,349.7813 Q126.0994,349.7813 126.3494,350.0469 Q126.615,350.2969 126.615,350.6406 Q126.615,350.9844 126.2713,351.3906 Q125.7713,351.9688 124.9744,352.2969 Q123.8963,352.75 122.5994,352.75 Q121.0838,352.75 119.8806,352.125 Q118.8963,351.625 118.2088,350.5625 Q117.5213,349.4844 117.5213,348.2031 L117.5213,347.0469 Q117.5213,345.7188 118.1306,344.5781 Q118.7556,343.4219 119.8494,342.8125 Q120.9431,342.1875 122.1775,342.1875 Q122.9119,342.1875 123.5525,342.3594 Q124.2088,342.5156 124.7556,342.875 Z " fill="#000000"/><text fill="#000000" font-family="sans-serif" font-size="14" lengthAdjust="spacing" textLength="40" x="135.99" y="352.7285">Player</text><line style="stroke:#181818;stroke-width:0.5;" x1="107.99" x2="177.99" y1="363" y2="363"/><line style="stroke:#181818;stroke-width:0.5;" x1="107.99" x2="177.99" y1="371" y2="371"/></g><!--MD5=[36f719b1cbc3f26b5758ea249b208fb4]
class TicTacToe--><g id="elem_TicTacToe"><rect codeLine="160" fill="#F1F1F1" height="48" id="TicTacToe" rx="2.5" ry="2.5" style="stroke:#181818;stroke-width:0.5;" width="100" x="225.99" y="7"/><ellipse cx="240.99" cy="23" fill="#ADD1B2" rx="11" ry="11" style="stroke:#181818;stroke-width:1.0;"/><path d="M243.7556,18.875 Q243.9119,18.6563 244.0994,18.5469 Q244.2869,18.4375 244.5056,18.4375 Q244.8806,18.4375 245.115,18.7031 Q245.3494,18.9531 245.3494,19.5625 L245.3494,21.0156 Q245.3494,21.625 245.115,21.8906 Q244.8806,22.1563 244.5056,22.1563 Q244.1619,22.1563 243.9588,21.9531 Q243.7556,21.7656 243.6463,21.25 Q243.5994,20.8906 243.4119,20.7031 Q243.0838,20.3281 242.4744,20.1094 Q241.865,19.8906 241.24,19.8906 Q240.4744,19.8906 239.8338,20.2188 Q239.2088,20.5469 238.7088,21.2969 Q238.2244,22.0469 238.2244,23.0781 L238.2244,24.1719 Q238.2244,25.4063 239.115,26.2344 Q240.0056,27.0469 241.5994,27.0469 Q242.5369,27.0469 243.1931,26.7969 Q243.5838,26.6406 244.0056,26.2031 Q244.2713,25.9375 244.4119,25.8594 Q244.5681,25.7813 244.7713,25.7813 Q245.0994,25.7813 245.3494,26.0469 Q245.615,26.2969 245.615,26.6406 Q245.615,26.9844 245.2713,27.3906 Q244.7713,27.9688 243.9744,28.2969 Q242.8963,28.75 241.5994,28.75 Q240.0838,28.75 238.8806,28.125 Q237.8963,27.625 237.2088,26.5625 Q236.5213,25.4844 236.5213,24.2031 L236.5213,23.0469 Q236.5213,21.7188 237.1306,20.5781 Q237.7556,19.4219 238.8494,18.8125 Q239.9431,18.1875 241.1775,18.1875 Q241.9119,18.1875 242.5525,18.3594 Q243.2088,18.5156 243.7556,18.875 Z " fill="#000000"/><text fill="#000000" font-family="sans-serif" font-size="14" lengthAdjust="spacing" textLength="68" x="254.99" y="28.7285">TicTacToe</text><line style="stroke:#181818;stroke-width:0.5;" x1="226.99" x2="324.99" y1="39" y2="39"/><line style="stroke:#181818;stroke-width:0.5;" x1="226.99" x2="324.99" y1="47" y2="47"/></g><!--MD5=[dd91eae41778c45e12552e5329e240e8]
class Turn--><g id="elem_Turn"><rect codeLine="168" fill="#F1F1F1" height="48" id="Turn" rx="2.5" ry="2.5" style="stroke:#181818;stroke-width:0.5;" width="62" x="251.99" y="223"/><ellipse cx="266.99" cy="239" fill="#ADD1B2" rx="11" ry="11" style="stroke:#181818;stroke-width:1.0;"/><path d="M269.7556,234.875 Q269.9119,234.6563 270.0994,234.5469 Q270.2869,234.4375 270.5056,234.4375 Q270.8806,234.4375 271.115,234.7031 Q271.3494,234.9531 271.3494,235.5625 L271.3494,237.0156 Q271.3494,237.625 271.115,237.8906 Q270.8806,238.1563 270.5056,238.1563 Q270.1619,238.1563 269.9588,237.9531 Q269.7556,237.7656 269.6463,237.25 Q269.5994,236.8906 269.4119,236.7031 Q269.0838,236.3281 268.4744,236.1094 Q267.865,235.8906 267.24,235.8906 Q266.4744,235.8906 265.8338,236.2188 Q265.2088,236.5469 264.7088,237.2969 Q264.2244,238.0469 264.2244,239.0781 L264.2244,240.1719 Q264.2244,241.4063 265.115,242.2344 Q266.0056,243.0469 267.5994,243.0469 Q268.5369,243.0469 269.1931,242.7969 Q269.5838,242.6406 270.0056,242.2031 Q270.2713,241.9375 270.4119,241.8594 Q270.5681,241.7813 270.7713,241.7813 Q271.0994,241.7813 271.3494,242.0469 Q271.615,242.2969 271.615,242.6406 Q271.615,242.9844 271.2713,243.3906 Q270.7713,243.9688 269.9744,244.2969 Q268.8963,244.75 267.5994,244.75 Q266.0838,244.75 264.8806,244.125 Q263.8963,243.625 263.2088,242.5625 Q262.5213,241.4844 262.5213,240.2031 L262.5213,239.0469 Q262.5213,237.7188 263.1306,236.5781 Q263.7556,235.4219 264.8494,234.8125 Q265.9431,234.1875 267.1775,234.1875 Q267.9119,234.1875 268.5525,234.3594 Q269.2088,234.5156 269.7556,234.875 Z " fill="#000000"/><text fill="#000000" font-family="sans-serif" font-size="14" lengthAdjust="spacing" textLength="30" x="280.99" y="244.7285">Turn</text><line style="stroke:#181818;stroke-width:0.5;" x1="252.99" x2="312.99" y1="255" y2="255"/><line style="stroke:#181818;stroke-width:0.5;" x1="252.99" x2="312.99" y1="263" y2="263"/></g><!--MD5=[2f2ced231ceb229417d2b072acd0beb6]
class YesNoDialogView--><g id="elem_YesNoDialogView"><rect codeLine="178" fill="#F1F1F1" height="48" id="YesNoDialogView" rx="2.5" ry="2.5" style="stroke:#181818;stroke-width:0.5;" width="142" x="487.99" y="115"/><ellipse cx="502.99" cy="131" fill="#ADD1B2" rx="11" ry="11" style="stroke:#181818;stroke-width:1.0;"/><path d="M505.7556,126.875 Q505.9119,126.6563 506.0994,126.5469 Q506.2869,126.4375 506.5056,126.4375 Q506.8806,126.4375 507.115,126.7031 Q507.3494,126.9531 507.3494,127.5625 L507.3494,129.0156 Q507.3494,129.625 507.115,129.8906 Q506.8806,130.1563 506.5056,130.1563 Q506.1619,130.1563 505.9587,129.9531 Q505.7556,129.7656 505.6462,129.25 Q505.5994,128.8906 505.4119,128.7031 Q505.0837,128.3281 504.4744,128.1094 Q503.865,127.8906 503.24,127.8906 Q502.4744,127.8906 501.8337,128.2188 Q501.2087,128.5469 500.7087,129.2969 Q500.2244,130.0469 500.2244,131.0781 L500.2244,132.1719 Q500.2244,133.4063 501.115,134.2344 Q502.0056,135.0469 503.5994,135.0469 Q504.5369,135.0469 505.1931,134.7969 Q505.5837,134.6406 506.0056,134.2031 Q506.2712,133.9375 506.4119,133.8594 Q506.5681,133.7813 506.7712,133.7813 Q507.0994,133.7813 507.3494,134.0469 Q507.615,134.2969 507.615,134.6406 Q507.615,134.9844 507.2712,135.3906 Q506.7712,135.9688 505.9744,136.2969 Q504.8962,136.75 503.5994,136.75 Q502.0837,136.75 500.8806,136.125 Q499.8962,135.625 499.2087,134.5625 Q498.5212,133.4844 498.5212,132.2031 L498.5212,131.0469 Q498.5212,129.7188 499.1306,128.5781 Q499.7556,127.4219 500.8494,126.8125 Q501.9431,126.1875 503.1775,126.1875 Q503.9119,126.1875 504.5525,126.3594 Q505.2087,126.5156 505.7556,126.875 Z " fill="#000000"/><text fill="#000000" font-family="sans-serif" font-size="14" lengthAdjust="spacing" textLength="110" x="516.99" y="136.7285">YesNoDialogView</text><line style="stroke:#181818;stroke-width:0.5;" x1="488.99" x2="628.99" y1="147" y2="147"/><line style="stroke:#181818;stroke-width:0.5;" x1="488.99" x2="628.99" y1="155" y2="155"/></g><!--MD5=[f0e50675208408ddbf1ed7a91f4eb071]
class ClosedInterval--><g id="elem_ClosedInterval"><rect codeLine="186" fill="#F1F1F1" height="48" id="ClosedInterval" rx="2.5" ry="2.5" style="stroke:#181818;stroke-width:0.5;" width="122" x="947.99" y="547"/><ellipse cx="962.99" cy="563" fill="#ADD1B2" rx="11" ry="11" style="stroke:#181818;stroke-width:1.0;"/><path d="M965.7556,558.875 Q965.9119,558.6563 966.0994,558.5469 Q966.2869,558.4375 966.5056,558.4375 Q966.8806,558.4375 967.115,558.7031 Q967.3494,558.9531 967.3494,559.5625 L967.3494,561.0156 Q967.3494,561.625 967.115,561.8906 Q966.8806,562.1563 966.5056,562.1563 Q966.1619,562.1563 965.9588,561.9531 Q965.7556,561.7656 965.6463,561.25 Q965.5994,560.8906 965.4119,560.7031 Q965.0838,560.3281 964.4744,560.1094 Q963.865,559.8906 963.24,559.8906 Q962.4744,559.8906 961.8338,560.2188 Q961.2088,560.5469 960.7088,561.2969 Q960.2244,562.0469 960.2244,563.0781 L960.2244,564.1719 Q960.2244,565.4063 961.115,566.2344 Q962.0056,567.0469 963.5994,567.0469 Q964.5369,567.0469 965.1931,566.7969 Q965.5838,566.6406 966.0056,566.2031 Q966.2713,565.9375 966.4119,565.8594 Q966.5681,565.7813 966.7713,565.7813 Q967.0994,565.7813 967.3494,566.0469 Q967.615,566.2969 967.615,566.6406 Q967.615,566.9844 967.2713,567.3906 Q966.7713,567.9688 965.9744,568.2969 Q964.8963,568.75 963.5994,568.75 Q962.0838,568.75 960.8806,568.125 Q959.8963,567.625 959.2088,566.5625 Q958.5213,565.4844 958.5213,564.2031 L958.5213,563.0469 Q958.5213,561.7188 959.1306,560.5781 Q959.7556,559.4219 960.8494,558.8125 Q961.9431,558.1875 963.1775,558.1875 Q963.9119,558.1875 964.5525,558.3594 Q965.2088,558.5156 965.7556,558.875 Z " fill="#000000"/><text fill="#000000" font-family="sans-serif" font-size="14" lengthAdjust="spacing" textLength="90" x="976.99" y="568.7285">ClosedInterval</text><line style="stroke:#181818;stroke-width:0.5;" x1="948.99" x2="1068.99" y1="579" y2="579"/><line style="stroke:#181818;stroke-width:0.5;" x1="948.99" x2="1068.99" y1="587" y2="587"/></g><!--MD5=[56d9be188a7d5d0528fd82173d9fee30]
class TurnController--><g id="elem_TurnController"><rect fill="#F1F1F1" height="48" id="TurnController" rx="2.5" ry="2.5" style="stroke:#181818;stroke-width:0.5;" width="124" x="328.99" y="115"/><ellipse cx="343.99" cy="131" fill="#ADD1B2" rx="11" ry="11" style="stroke:#181818;stroke-width:1.0;"/><path d="M346.7556,126.875 Q346.9119,126.6563 347.0994,126.5469 Q347.2869,126.4375 347.5056,126.4375 Q347.8806,126.4375 348.115,126.7031 Q348.3494,126.9531 348.3494,127.5625 L348.3494,129.0156 Q348.3494,129.625 348.115,129.8906 Q347.8806,130.1563 347.5056,130.1563 Q347.1619,130.1563 346.9587,129.9531 Q346.7556,129.7656 346.6462,129.25 Q346.5994,128.8906 346.4119,128.7031 Q346.0837,128.3281 345.4744,128.1094 Q344.865,127.8906 344.24,127.8906 Q343.4744,127.8906 342.8337,128.2188 Q342.2087,128.5469 341.7087,129.2969 Q341.2244,130.0469 341.2244,131.0781 L341.2244,132.1719 Q341.2244,133.4063 342.115,134.2344 Q343.0056,135.0469 344.5994,135.0469 Q345.5369,135.0469 346.1931,134.7969 Q346.5837,134.6406 347.0056,134.2031 Q347.2712,133.9375 347.4119,133.8594 Q347.5681,133.7813 347.7712,133.7813 Q348.0994,133.7813 348.3494,134.0469 Q348.615,134.2969 348.615,134.6406 Q348.615,134.9844 348.2712,135.3906 Q347.7712,135.9688 346.9744,136.2969 Q345.8962,136.75 344.5994,136.75 Q343.0837,136.75 341.8806,136.125 Q340.8962,135.625 340.2087,134.5625 Q339.5212,133.4844 339.5212,132.2031 L339.5212,131.0469 Q339.5212,129.7188 340.1306,128.5781 Q340.7556,127.4219 341.8494,126.8125 Q342.9431,126.1875 344.1775,126.1875 Q344.9119,126.1875 345.5525,126.3594 Q346.2087,126.5156 346.7556,126.875 Z " fill="#000000"/><text fill="#000000" font-family="sans-serif" font-size="14" lengthAdjust="spacing" textLength="92" x="357.99" y="136.7285">TurnController</text><line style="stroke:#181818;stroke-width:0.5;" x1="329.99" x2="451.99" y1="147" y2="147"/><line style="stroke:#181818;stroke-width:0.5;" x1="329.99" x2="451.99" y1="155" y2="155"/></g><!--MD5=[49feb4884a66ed250f9a27795111a05a]
class MessageView--><g id="elem_MessageView"><rect fill="#F1F1F1" height="48" id="MessageView" rx="2.5" ry="2.5" style="stroke:#181818;stroke-width:0.5;" width="118" x="490.99" y="331"/><ellipse cx="505.99" cy="347" fill="#ADD1B2" rx="11" ry="11" style="stroke:#181818;stroke-width:1.0;"/><path d="M508.7556,342.875 Q508.9119,342.6563 509.0994,342.5469 Q509.2869,342.4375 509.5056,342.4375 Q509.8806,342.4375 510.115,342.7031 Q510.3494,342.9531 510.3494,343.5625 L510.3494,345.0156 Q510.3494,345.625 510.115,345.8906 Q509.8806,346.1563 509.5056,346.1563 Q509.1619,346.1563 508.9587,345.9531 Q508.7556,345.7656 508.6462,345.25 Q508.5994,344.8906 508.4119,344.7031 Q508.0837,344.3281 507.4744,344.1094 Q506.865,343.8906 506.24,343.8906 Q505.4744,343.8906 504.8337,344.2188 Q504.2087,344.5469 503.7087,345.2969 Q503.2244,346.0469 503.2244,347.0781 L503.2244,348.1719 Q503.2244,349.4063 504.115,350.2344 Q505.0056,351.0469 506.5994,351.0469 Q507.5369,351.0469 508.1931,350.7969 Q508.5837,350.6406 509.0056,350.2031 Q509.2712,349.9375 509.4119,349.8594 Q509.5681,349.7813 509.7712,349.7813 Q510.0994,349.7813 510.3494,350.0469 Q510.615,350.2969 510.615,350.6406 Q510.615,350.9844 510.2712,351.3906 Q509.7712,351.9688 508.9744,352.2969 Q507.8962,352.75 506.5994,352.75 Q505.0837,352.75 503.8806,352.125 Q502.8962,351.625 502.2087,350.5625 Q501.5212,349.4844 501.5212,348.2031 L501.5212,347.0469 Q501.5212,345.7188 502.1306,344.5781 Q502.7556,343.4219 503.8494,342.8125 Q504.9431,342.1875 506.1775,342.1875 Q506.9119,342.1875 507.5525,342.3594 Q508.2087,342.5156 508.7556,342.875 Z " fill="#000000"/><text fill="#000000" font-family="sans-serif" font-size="14" lengthAdjust="spacing" textLength="86" x="519.99" y="352.7285">MessageView</text><line style="stroke:#181818;stroke-width:0.5;" x1="491.99" x2="607.99" y1="363" y2="363"/><line style="stroke:#181818;stroke-width:0.5;" x1="491.99" x2="607.99" y1="371" y2="371"/></g><!--MD5=[af194e474b2c37e443a340884399de77]
class PlayerView--><g id="elem_PlayerView"><rect fill="#F1F1F1" height="48" id="PlayerView" rx="2.5" ry="2.5" style="stroke:#181818;stroke-width:0.5;" width="101" x="611.49" y="223"/><ellipse cx="626.49" cy="239" fill="#ADD1B2" rx="11" ry="11" style="stroke:#181818;stroke-width:1.0;"/><path d="M629.2556,234.875 Q629.4119,234.6563 629.5994,234.5469 Q629.7869,234.4375 630.0056,234.4375 Q630.3806,234.4375 630.615,234.7031 Q630.8494,234.9531 630.8494,235.5625 L630.8494,237.0156 Q630.8494,237.625 630.615,237.8906 Q630.3806,238.1563 630.0056,238.1563 Q629.6619,238.1563 629.4588,237.9531 Q629.2556,237.7656 629.1463,237.25 Q629.0994,236.8906 628.9119,236.7031 Q628.5838,236.3281 627.9744,236.1094 Q627.365,235.8906 626.74,235.8906 Q625.9744,235.8906 625.3338,236.2188 Q624.7088,236.5469 624.2088,237.2969 Q623.7244,238.0469 623.7244,239.0781 L623.7244,240.1719 Q623.7244,241.4063 624.615,242.2344 Q625.5056,243.0469 627.0994,243.0469 Q628.0369,243.0469 628.6931,242.7969 Q629.0838,242.6406 629.5056,242.2031 Q629.7713,241.9375 629.9119,241.8594 Q630.0681,241.7813 630.2713,241.7813 Q630.5994,241.7813 630.8494,242.0469 Q631.115,242.2969 631.115,242.6406 Q631.115,242.9844 630.7713,243.3906 Q630.2713,243.9688 629.4744,244.2969 Q628.3963,244.75 627.0994,244.75 Q625.5838,244.75 624.3806,244.125 Q623.3963,243.625 622.7088,242.5625 Q622.0213,241.4844 622.0213,240.2031 L622.0213,239.0469 Q622.0213,237.7188 622.6306,236.5781 Q623.2556,235.4219 624.3494,234.8125 Q625.4431,234.1875 626.6775,234.1875 Q627.4119,234.1875 628.0525,234.3594 Q628.7088,234.5156 629.2556,234.875 Z " fill="#000000"/><text fill="#000000" font-family="sans-serif" font-size="14" lengthAdjust="spacing" textLength="69" x="640.49" y="244.7285">PlayerView</text><line style="stroke:#181818;stroke-width:0.5;" x1="612.49" x2="711.49" y1="255" y2="255"/><line style="stroke:#181818;stroke-width:0.5;" x1="612.49" x2="711.49" y1="263" y2="263"/></g><!--MD5=[86cec68673cafdfc1c204348d5b2cca6]
class ErrorView--><g id="elem_ErrorView"><rect fill="#F1F1F1" height="48" id="ErrorView" rx="2.5" ry="2.5" style="stroke:#181818;stroke-width:0.5;" width="93" x="715.49" y="331"/><ellipse cx="730.49" cy="347" fill="#ADD1B2" rx="11" ry="11" style="stroke:#181818;stroke-width:1.0;"/><path d="M733.2556,342.875 Q733.4119,342.6563 733.5994,342.5469 Q733.7869,342.4375 734.0056,342.4375 Q734.3806,342.4375 734.615,342.7031 Q734.8494,342.9531 734.8494,343.5625 L734.8494,345.0156 Q734.8494,345.625 734.615,345.8906 Q734.3806,346.1563 734.0056,346.1563 Q733.6619,346.1563 733.4588,345.9531 Q733.2556,345.7656 733.1463,345.25 Q733.0994,344.8906 732.9119,344.7031 Q732.5838,344.3281 731.9744,344.1094 Q731.365,343.8906 730.74,343.8906 Q729.9744,343.8906 729.3338,344.2188 Q728.7088,344.5469 728.2088,345.2969 Q727.7244,346.0469 727.7244,347.0781 L727.7244,348.1719 Q727.7244,349.4063 728.615,350.2344 Q729.5056,351.0469 731.0994,351.0469 Q732.0369,351.0469 732.6931,350.7969 Q733.0838,350.6406 733.5056,350.2031 Q733.7713,349.9375 733.9119,349.8594 Q734.0681,349.7813 734.2713,349.7813 Q734.5994,349.7813 734.8494,350.0469 Q735.115,350.2969 735.115,350.6406 Q735.115,350.9844 734.7713,351.3906 Q734.2713,351.9688 733.4744,352.2969 Q732.3963,352.75 731.0994,352.75 Q729.5838,352.75 728.3806,352.125 Q727.3963,351.625 726.7088,350.5625 Q726.0213,349.4844 726.0213,348.2031 L726.0213,347.0469 Q726.0213,345.7188 726.6306,344.5781 Q727.2556,343.4219 728.3494,342.8125 Q729.4431,342.1875 730.6775,342.1875 Q731.4119,342.1875 732.0525,342.3594 Q732.7088,342.5156 733.2556,342.875 Z " fill="#000000"/><text fill="#000000" font-family="sans-serif" font-size="14" lengthAdjust="spacing" textLength="61" x="744.49" y="352.7285">ErrorView</text><line style="stroke:#181818;stroke-width:0.5;" x1="716.49" x2="807.49" y1="363" y2="363"/><line style="stroke:#181818;stroke-width:0.5;" x1="716.49" x2="807.49" y1="371" y2="371"/></g><!--MD5=[5c0d2bf114541dffca76af5edd55a1b5]
class ColorView--><g id="elem_ColorView"><rect fill="#F1F1F1" height="48" id="ColorView" rx="2.5" ry="2.5" style="stroke:#181818;stroke-width:0.5;" width="95" x="147.49" y="439"/><ellipse cx="162.49" cy="455" fill="#ADD1B2" rx="11" ry="11" style="stroke:#181818;stroke-width:1.0;"/><path d="M165.2556,450.875 Q165.4119,450.6563 165.5994,450.5469 Q165.7869,450.4375 166.0056,450.4375 Q166.3806,450.4375 166.615,450.7031 Q166.8494,450.9531 166.8494,451.5625 L166.8494,453.0156 Q166.8494,453.625 166.615,453.8906 Q166.3806,454.1563 166.0056,454.1563 Q165.6619,454.1563 165.4588,453.9531 Q165.2556,453.7656 165.1463,453.25 Q165.0994,452.8906 164.9119,452.7031 Q164.5838,452.3281 163.9744,452.1094 Q163.365,451.8906 162.74,451.8906 Q161.9744,451.8906 161.3338,452.2188 Q160.7088,452.5469 160.2088,453.2969 Q159.7244,454.0469 159.7244,455.0781 L159.7244,456.1719 Q159.7244,457.4063 160.615,458.2344 Q161.5056,459.0469 163.0994,459.0469 Q164.0369,459.0469 164.6931,458.7969 Q165.0838,458.6406 165.5056,458.2031 Q165.7713,457.9375 165.9119,457.8594 Q166.0681,457.7813 166.2713,457.7813 Q166.5994,457.7813 166.8494,458.0469 Q167.115,458.2969 167.115,458.6406 Q167.115,458.9844 166.7713,459.3906 Q166.2713,459.9688 165.4744,460.2969 Q164.3963,460.75 163.0994,460.75 Q161.5838,460.75 160.3806,460.125 Q159.3963,459.625 158.7088,458.5625 Q158.0213,457.4844 158.0213,456.2031 L158.0213,455.0469 Q158.0213,453.7188 158.6306,452.5781 Q159.2556,451.4219 160.3494,450.8125 Q161.4431,450.1875 162.6775,450.1875 Q163.4119,450.1875 164.0525,450.3594 Q164.7088,450.5156 165.2556,450.875 Z " fill="#000000"/><text fill="#000000" font-family="sans-serif" font-size="14" lengthAdjust="spacing" textLength="63" x="176.49" y="460.7285">ColorView</text><line style="stroke:#181818;stroke-width:0.5;" x1="148.49" x2="241.49" y1="471" y2="471"/><line style="stroke:#181818;stroke-width:0.5;" x1="148.49" x2="241.49" y1="479" y2="479"/></g><!--MD5=[02ea7f29950e23bda8c82d72bcbd4b5e]
link TicTacToe to Turn--><g id="link_TicTacToe_Turn"><path codeLine="195" d="M277.1458,67.3035 C277.1458,67.3035 280.51,170.26 281.8,209.6 " fill="none" id="TicTacToe-Turn" style="stroke:#181818;stroke-width:1.0;"/><polygon fill="#181818" points="282.23,222.72,285.9313,213.5931,282.0653,217.7227,277.9356,213.8567,282.23,222.72" style="stroke:#181818;stroke-width:1.0;"/><line style="stroke:#181818;stroke-width:1.0;" x1="282.0653" x2="281.8" y1="217.7227" y2="209.73"/><polygon fill="#181818" points="276.75,55.31,272.9501,61.4387,277.1458,67.3035,280.9457,61.1748,276.75,55.31" style="stroke:#181818;stroke-width:1.0;"/></g><!--MD5=[a737d2231371e146ba098899a67f3b67]
link TicTacToe to Board--><g id="link_TicTacToe_Board"><path codeLine="196" d="M248.3646,64.4575 C248.3646,64.4575 124.76,224.88 88.99,331 C78.61,361.78 76.06,398.79 75.84,425.61 " fill="none" id="TicTacToe-Board" style="stroke:#181818;stroke-width:1.0;"/><polygon fill="#181818" points="75.91,438.61,79.8605,429.5882,75.8825,433.6101,71.8606,429.6321,75.91,438.61" style="stroke:#181818;stroke-width:1.0;"/><line style="stroke:#181818;stroke-width:1.0;" x1="75.8825" x2="75.84" y1="433.6101" y2="425.615"/><polygon fill="#181818" points="256,55.2,249.0965,57.2836,248.3646,64.4575,255.2681,62.3739,256,55.2" style="stroke:#181818;stroke-width:1.0;"/></g><!--MD5=[fb1c86ae1157152c57c6bbfcdc0c85a8]
link TicTacToe to TurnController--><g id="link_TicTacToe_TurnController"><path codeLine="197" d="M300.94,55 C318.9,71.55 343.18,93.93 362,111.28 " fill="none" id="TicTacToe-to-TurnController" style="stroke:#181818;stroke-width:1.0;"/><polygon fill="#181818" points="365.68,114.68,361.758,105.6457,361.9978,111.2975,356.346,111.5373,365.68,114.68" style="stroke:#181818;stroke-width:1.0;"/></g><!--MD5=[2da3863a6924fdf307cedfd0409dfd24]
link TicTacToe to BoardView--><g id="link_TicTacToe_BoardView"><path codeLine="198" d="M266.55,55.07 C250.32,97.71 220.1,191.74 233.99,271 C237.32,290.01 244.63,310.41 251.21,326.23 " fill="none" id="TicTacToe-to-BoardView" style="stroke:#181818;stroke-width:1.0;"/><polygon fill="#181818" points="253.22,330.98,253.4031,321.1328,251.2746,326.374,246.0335,324.2455,253.22,330.98" style="stroke:#181818;stroke-width:1.0;"/></g><!--MD5=[0857d4953bb6b2a875ba1f0721ebd9dd]
link TicTacToe to YesNoDialogView--><g id="link_TicTacToe_YesNoDialogView"><path codeLine="199" d="M326.26,50.83 C372.57,68.18 441.62,94.04 492.48,113.09 " fill="none" id="TicTacToe-to-YesNoDialogView" style="stroke:#181818;stroke-width:1.0;stroke-dasharray:7.0,7.0;"/><polygon fill="#181818" points="497.35,114.91,490.3275,108.0046,492.6684,113.1544,487.5185,115.4952,497.35,114.91" style="stroke:#181818;stroke-width:1.0;"/></g><!--MD5=[7c3f7fcd1c6efda3a50407d709f24a2f]
link TurnController to Turn--><g id="link_TurnController_Turn"><path codeLine="200" d="M358.9859,171.4057 C358.9859,171.4057 329.46,200.39 316.08,213.52 " fill="none" id="TurnController-Turn" style="stroke:#181818;stroke-width:1.0;"/><polygon fill="#181818" points="306.75,222.68,315.975,219.2304,310.3184,219.1776,310.3712,213.521,306.75,222.68" style="stroke:#181818;stroke-width:1.0;"/><line style="stroke:#181818;stroke-width:1.0;" x1="310.3184" x2="316.025" y1="219.1776" y2="213.575"/><polygon fill="#181818" points="367.55,163,360.466,164.3482,358.9859,171.4057,366.0699,170.0576,367.55,163" style="stroke:#181818;stroke-width:1.0;"/></g><!--MD5=[1ff9b6ec190fff51c4eb3f52d74069f3]
link TurnController to BoundedCoordinate--><g id="link_TurnController_BoundedCoordinate"><path codeLine="201" d="M385.88,163.12 C369.74,236.18 319.86,461.95 302.23,541.73 " fill="none" id="TurnController-to-BoundedCoordinate" style="stroke:#181818;stroke-width:1.0;"/><polygon fill="#181818" points="301.12,546.77,306.955,538.8357,302.191,541.8861,299.1407,537.1221,301.12,546.77" style="stroke:#181818;stroke-width:1.0;"/></g><!--MD5=[0f046a1b9234a310dceaa8c8c3d22667]
link TurnController to MessageView--><g id="link_TurnController_MessageView"><path codeLine="202" d="M412.99,163.22 C427.98,179.46 447.94,201.94 463.99,223 C490.02,257.16 516.65,299.01 533.24,326.07 " fill="none" id="TurnController-to-MessageView" style="stroke:#181818;stroke-width:1.0;stroke-dasharray:7.0,7.0;"/><polygon fill="#181818" points="536.02,330.61,534.7189,320.8475,533.4035,326.3493,527.9017,325.0339,536.02,330.61" style="stroke:#181818;stroke-width:1.0;"/></g><!--MD5=[dcf8a1bd5e02541980bd9febfbc84fe3]
link TurnController to PlayerView--><g id="link_TurnController_PlayerView"><path codeLine="203" d="M449.79,163 C496.2,181.15 560.51,206.31 606.14,224.16 " fill="none" id="TurnController-to-PlayerView" style="stroke:#181818;stroke-width:1.0;stroke-dasharray:7.0,7.0;"/><polygon fill="#181818" points="611.05,226.08,604.1159,219.0859,606.3911,224.265,601.2119,226.5402,611.05,226.08" style="stroke:#181818;stroke-width:1.0;"/></g><!--MD5=[a958c8608159775eae5a8dec0e3864a1]
link TurnController to Message--><g id="link_TurnController_Message"><path codeLine="204" d="M398.38,163.26 C412.16,206.21 443.1,300.73 472.99,379 C480.07,397.54 488.72,418.09 495.66,434.1 " fill="none" id="TurnController-to-Message" style="stroke:#181818;stroke-width:1.0;stroke-dasharray:7.0,7.0;"/><polygon fill="#181818" points="497.75,438.92,497.8185,429.0714,495.7512,434.3369,490.4856,432.2695,497.75,438.92" style="stroke:#181818;stroke-width:1.0;"/></g><!--MD5=[d81713d91ad05be3b975338c4816ee0b]
link Turn to Player--><g id="link_Turn_Player"><path codeLine="205" d="M243.0386,278.2379 C243.0386,278.2379 202.56,308.9 184.37,322.67 " fill="none" id="Turn-Player" style="stroke:#181818;stroke-width:1.0;"/><polygon fill="#181818" points="173.79,330.68,183.3812,328.442,177.7781,327.6642,178.5559,322.0611,173.79,330.68" style="stroke:#181818;stroke-width:1.0;"/><line style="stroke:#181818;stroke-width:1.0;" x1="177.7781" x2="184.155" y1="327.6642" y2="322.83"/><polygon fill="#181818" points="252.61,271,245.4116,271.4285,243.0386,278.2379,250.2369,277.8094,252.61,271" style="stroke:#181818;stroke-width:1.0;"/><text fill="#000000" font-family="sans-serif" font-size="13" lengthAdjust="spacing" textLength="7" x="173.4444" y="320.34">2</text></g><!--MD5=[c1f7e88598f78d9459764ed93737eb14]
link Player to Board--><g id="link_Player_Board"><path codeLine="206" d="M128.67,379 C118.53,395.28 104.89,417.19 94.17,434.41 " fill="none" id="Player-to-Board" style="stroke:#181818;stroke-width:1.0;"/><polygon fill="#181818" points="91.51,438.68,99.6553,433.1434,94.1472,434.432,92.8585,428.9239,91.51,438.68" style="stroke:#181818;stroke-width:1.0;"/></g><!--MD5=[ebf52a6f230ff8b0d594dd9ce4cd7c5b]
link Player to Color--><g id="link_Player_Color"><path codeLine="207" d="M106.81,370.07 C78.56,383.22 41.29,405.84 23.99,439 C6,473.48 30.61,515.49 51.96,542.48 " fill="none" id="Player-to-Color" style="stroke:#181818;stroke-width:1.0;"/><polygon fill="#181818" points="55.35,546.68,52.8002,537.1669,52.2057,542.7924,46.5801,542.1979,55.35,546.68" style="stroke:#181818;stroke-width:1.0;"/></g><!--MD5=[d7c49a2c67de04dd46fc6efbc83b34f6]
link PlayerView to Player--><g id="link_PlayerView_Player"><path codeLine="208" d="M611.23,253.25 C524.81,263.04 344.14,287.14 196.99,331 C192.68,332.28 188.26,333.8 183.89,335.45 " fill="none" id="PlayerView-to-Player" style="stroke:#181818;stroke-width:1.0;stroke-dasharray:7.0,7.0;"/><polygon fill="#181818" points="179.17,337.27,189.0063,337.7665,183.8356,335.4722,186.1299,330.3015,179.17,337.27" style="stroke:#181818;stroke-width:1.0;"/></g><!--MD5=[5d3bf25e2a82fa01272e0e1c6d0f0a54]
link PlayerView to ErrorView--><g id="link_PlayerView_ErrorView"><path codeLine="209" d="M683.69,271 C699.17,287.42 720.06,309.56 736.37,326.84 " fill="none" id="PlayerView-to-ErrorView" style="stroke:#181818;stroke-width:1.0;stroke-dasharray:7.0,7.0;"/><polygon fill="#181818" points="739.99,330.68,736.7345,321.3847,736.5632,327.039,730.9089,326.8677,739.99,330.68" style="stroke:#181818;stroke-width:1.0;"/></g><!--MD5=[1e0a8206d6bada1f11af6bd4b0096de3]
link PlayerView to Error--><g id="link_PlayerView_Error"><path codeLine="210" d="M712.5,258.59 C750.99,269.6 801.42,291.04 825.99,331 C846.9,365.03 818.57,407.74 794.41,434.96 " fill="none" id="PlayerView-to-Error" style="stroke:#181818;stroke-width:1.0;stroke-dasharray:7.0,7.0;"/><polygon fill="#181818" points="790.89,438.86,799.8839,434.8462,794.2348,435.1435,793.9375,429.4945,790.89,438.86" style="stroke:#181818;stroke-width:1.0;"/></g><!--MD5=[35516e7f460b075e9d9ea8b49170d6ed]
link PlayerView to MessageView--><g id="link_PlayerView_MessageView"><path codeLine="211" d="M637.68,271 C620.34,287.42 596.94,309.56 578.68,326.84 " fill="none" id="PlayerView-to-MessageView" style="stroke:#181818;stroke-width:1.0;stroke-dasharray:7.0,7.0;"/><polygon fill="#181818" points="574.63,330.68,583.9189,327.4063,578.2643,327.246,578.4245,321.5915,574.63,330.68" style="stroke:#181818;stroke-width:1.0;"/></g><!--MD5=[f2aefae2b2dc7e4e35e192c39b2cd7d2]
link PlayerView to Message--><g id="link_PlayerView_Message"><path codeLine="212" d="M660.57,271.32 C657.86,299.21 649.96,346.23 626.99,379 C609.36,404.14 581.53,424.16 557.22,438.24 " fill="none" id="PlayerView-to-Message" style="stroke:#181818;stroke-width:1.0;stroke-dasharray:7.0,7.0;"/><polygon fill="#181818" points="552.72,440.79,562.518,439.7908,557.0595,438.3062,558.544,432.8477,552.72,440.79" style="stroke:#181818;stroke-width:1.0;"/></g><!--MD5=[44290a26089ffc2237d99b07f9c1d2e2]
link PlayerView to BoundedCoordinateView--><g id="link_PlayerView_BoundedCoordinateView"><path codeLine="213" d="M712.82,263.53 C769.51,280.84 861.97,309.09 928.52,329.42 " fill="none" id="PlayerView-to-BoundedCoordinateView" style="stroke:#181818;stroke-width:1.0;stroke-dasharray:7.0,7.0;"/><polygon fill="#181818" points="933.66,330.99,926.2207,324.5358,928.878,329.5296,923.8841,332.1869,933.66,330.99" style="stroke:#181818;stroke-width:1.0;"/></g><!--MD5=[86870cdabd6f68629f04aeac36e6c4ff]
link ErrorView to Error--><g id="link_ErrorView_Error"><path codeLine="214" d="M763.637,390.9866 C763.637,390.9866 764.75,414.68 765.26,425.36 " fill="none" id="ErrorView-Error" style="stroke:#181818;stroke-width:1.0;"/><polygon fill="#181818" points="765.89,438.68,769.4603,429.501,765.6537,433.6856,761.4692,429.8791,765.89,438.68" style="stroke:#181818;stroke-width:1.0;"/><line style="stroke:#181818;stroke-width:1.0;" x1="765.6537" x2="765.275" y1="433.6856" y2="425.695"/><polygon fill="#181818" points="763.07,379,759.358,385.1823,763.637,390.9866,767.349,384.8043,763.07,379" style="stroke:#181818;stroke-width:1.0;"/></g><!--MD5=[e8e56f95b2bfb8e03c3cdf9f0e0c50ee]
link Board to Color--><g id="link_Board_Color"><path codeLine="215" d="M76.99,499 C76.99,499 76.99,522.68 76.99,533.36 " fill="none" id="Board-Color" style="stroke:#181818;stroke-width:1.0;"/><polygon fill="#181818" points="76.99,546.68,80.99,537.68,76.99,541.68,72.99,537.68,76.99,546.68" style="stroke:#181818;stroke-width:1.0;"/><line style="stroke:#181818;stroke-width:1.0;" x1="76.99" x2="76.99" y1="541.68" y2="533.68"/><polygon fill="#181818" points="76.99,487,72.99,493,76.99,499,80.99,493,76.99,487" style="stroke:#181818;stroke-width:1.0;"/><text fill="#000000" font-family="sans-serif" font-size="13" lengthAdjust="spacing" textLength="21" x="53.4306" y="536.34">3x3</text></g><!--MD5=[d8c80b8b9c444f47b0e4e65e9836afb1]
link Board to BoundedCoordinate--><g id="link_Board_BoundedCoordinate"><path codeLine="216" d="M112.17,481.03 C147.61,498.18 202.71,524.85 243.35,544.52 " fill="none" id="Board-to-BoundedCoordinate" style="stroke:#181818;stroke-width:1.0;stroke-dasharray:7.0,7.0;"/><polygon fill="#181818" points="248.23,546.88,241.8627,539.3662,243.7269,544.7071,238.386,546.5712,248.23,546.88" style="stroke:#181818;stroke-width:1.0;"/></g><!--MD5=[a676224b545de2f8b00c905b7798379b]
link Board to Direction--><g id="link_Board_Direction"><path codeLine="217" d="M92.66,487.31 C103.2,503.59 116.94,526.07 126.99,547 C162.27,620.5 192.38,712.12 206.46,757.62 " fill="none" id="Board-to-Direction" style="stroke:#181818;stroke-width:1.0;stroke-dasharray:7.0,7.0;"/><polygon fill="#181818" points="208.02,762.67,209.1902,752.8909,206.5466,757.892,201.5454,755.2484,208.02,762.67" style="stroke:#181818;stroke-width:1.0;"/></g><!--MD5=[02a16ebf8539d2e5d44c3be387606aac]
link BoardView to Message--><g id="link_BoardView_Message"><path codeLine="218" d="M313.66,377.58 C355.92,395.94 416.31,422.17 458.51,440.51 " fill="none" id="BoardView-to-Message" style="stroke:#181818;stroke-width:1.0;stroke-dasharray:7.0,7.0;"/><polygon fill="#181818" points="463.31,442.59,456.6405,435.3431,458.7217,440.6032,453.4616,442.6843,463.31,442.59" style="stroke:#181818;stroke-width:1.0;"/></g><!--MD5=[1a58e84faf9909f95fe5c088c7e2718b]
link BoardView to BoundedCoordinate--><g id="link_BoardView_BoundedCoordinate"><path codeLine="219" d="M267.47,379.31 C273.39,418.87 285.37,498.99 291.76,541.7 " fill="none" id="BoardView-to-BoundedCoordinate" style="stroke:#181818;stroke-width:1.0;stroke-dasharray:7.0,7.0;"/><polygon fill="#181818" points="292.51,546.72,295.1548,537.2329,291.7809,541.7734,287.2403,538.3995,292.51,546.72" style="stroke:#181818;stroke-width:1.0;"/></g><!--MD5=[87ac28f7ff846e55e34c2c863c6ff220]
link BoardView to Board--><g id="link_BoardView_Board"><path codeLine="220" d="M212.9652,384.9082 C212.9652,384.9082 150.46,420.35 123.57,435.59 " fill="none" id="BoardView-Board" style="stroke:#181818;stroke-width:1.0;"/><polygon fill="#181818" points="112.13,442.08,121.9315,441.1158,116.4783,439.6117,117.9823,434.1585,112.13,442.08" style="stroke:#181818;stroke-width:1.0;"/><line style="stroke:#181818;stroke-width:1.0;" x1="116.4783" x2="123.445" y1="439.6117" y2="435.665"/><polygon fill="#181818" points="223.41,379,216.2182,378.4725,212.9652,384.9082,220.157,385.4357,223.41,379" style="stroke:#181818;stroke-width:1.0;"/></g><!--MD5=[50d2c791ff67128bf0c4b51052450f86]
link BoardView to ColorView--><g id="link_BoardView_ColorView"><path codeLine="221" d="M249.01,379 C238.42,395.28 224.16,417.19 212.95,434.41 " fill="none" id="BoardView-to-ColorView" style="stroke:#181818;stroke-width:1.0;stroke-dasharray:7.0,7.0;"/><polygon fill="#181818" points="210.17,438.68,218.4357,433.3249,212.9005,434.4914,211.7339,428.9561,210.17,438.68" style="stroke:#181818;stroke-width:1.0;"/></g><!--MD5=[b9251e4013ca15f5b0f1633cdb410afd]
link BoundedCoordinate to Coordinate--><g id="link_BoundedCoordinate_Coordinate"><path codeLine="222" d="M291.0422,606.8807 C291.0422,606.8807 287.65,630.94 286.12,641.72 " fill="none" id="BoundedCoordinate-Coordinate" style="stroke:#181818;stroke-width:1.0;"/><polygon fill="#181818" points="284.29,654.68,289.507,646.3264,284.9879,649.7289,281.5853,645.2098,284.29,654.68" style="stroke:#181818;stroke-width:1.0;"/><line style="stroke:#181818;stroke-width:1.0;" x1="284.9879" x2="286.105" y1="649.7289" y2="641.805"/><polygon fill="#181818" points="292.73,595,287.9259,600.3777,291.0422,606.8807,295.8463,601.503,292.73,595" style="stroke:#181818;stroke-width:1.0;"/></g><!--MD5=[2ece631038b7899e5b9aaea57adaf24e]
link Coordinate to Direction--><g id="link_Coordinate_Direction"><path codeLine="223" d="M266.67,703 C256.53,719.28 242.89,741.19 232.17,758.41 " fill="none" id="Coordinate-to-Direction" style="stroke:#181818;stroke-width:1.0;stroke-dasharray:7.0,7.0;"/><polygon fill="#181818" points="229.51,762.68,237.6553,757.1434,232.1472,758.432,230.8585,752.9239,229.51,762.68" style="stroke:#181818;stroke-width:1.0;"/></g><!--MD5=[59c01539060899e07b035d5ae232e8ad]
link BoundedCoordinateView to BoundedIntDialogView--><g id="link_BoundedCoordinateView_BoundedIntDialogView"><path codeLine="224" d="M1008.99,379 C1008.99,395 1008.99,416.45 1008.99,433.53 " fill="none" id="BoundedCoordinateView-to-BoundedIntDialogView" style="stroke:#181818;stroke-width:1.0;stroke-dasharray:7.0,7.0;"/><polygon fill="#181818" points="1008.99,438.68,1012.99,429.68,1008.99,433.68,1004.99,429.68,1008.99,438.68" style="stroke:#181818;stroke-width:1.0;"/></g><!--MD5=[f6ad6412a23111fb77841ad26501d5a9]
link BoundedCoordinateView to BoundedCoordinate--><g id="link_BoundedCoordinateView_BoundedCoordinate"><path codeLine="225" d="M978.69,379.11 C933.76,412.95 851.11,473.44 816.99,487 C670.93,545.06 486.58,562.58 380.9,567.82 " fill="none" id="BoundedCoordinateView-to-BoundedCoordinate" style="stroke:#181818;stroke-width:1.0;stroke-dasharray:7.0,7.0;"/><polygon fill="#181818" points="375.62,568.07,384.8035,571.6287,380.6141,567.8274,384.4153,563.6381,375.62,568.07" style="stroke:#181818;stroke-width:1.0;"/></g><!--MD5=[63ade5c193cdfaa177a14dee5015aff8]
link BoundedIntDialogView to ClosedInterval--><g id="link_BoundedIntDialogView_ClosedInterval"><path codeLine="226" d="M1008.99,487 C1008.99,503 1008.99,524.45 1008.99,541.53 " fill="none" id="BoundedIntDialogView-to-ClosedInterval" style="stroke:#181818;stroke-width:1.0;stroke-dasharray:7.0,7.0;"/><polygon fill="#181818" points="1008.99,546.68,1012.99,537.68,1008.99,541.68,1004.99,537.68,1008.99,546.68" style="stroke:#181818;stroke-width:1.0;"/></g><!--MD5=[a31fa164961aa559970146a0c482d415]
link MessageView to Message--><g id="link_MessageView_Message"><path codeLine="227" d="M536.452,390.1571 C536.452,390.1571 526.52,415.23 522.04,426.54 " fill="none" id="MessageView-Message" style="stroke:#181818;stroke-width:1.0;"/><polygon fill="#181818" points="517.23,438.68,524.2625,431.7848,519.0708,434.0312,516.8245,428.8395,517.23,438.68" style="stroke:#181818;stroke-width:1.0;"/><line style="stroke:#181818;stroke-width:1.0;" x1="519.0708" x2="522.02" y1="434.0312" y2="426.595"/><polygon fill="#181818" points="540.87,379,534.942,383.1059,536.452,390.1571,542.38,386.0512,540.87,379" style="stroke:#181818;stroke-width:1.0;"/></g><!--MD5=[3c978e882819d5791a3d8cfa6d73d565]
link ColorView to Color--><g id="link_ColorView_Color"><path codeLine="228" d="M160.452,495.0181 C160.452,495.0181 127.67,524.47 112.81,537.82 " fill="none" id="ColorView-Color" style="stroke:#181818;stroke-width:1.0;"/><polygon fill="#181818" points="102.95,546.68,112.3187,543.6424,106.67,543.3391,106.9733,537.6904,102.95,546.68" style="stroke:#181818;stroke-width:1.0;"/><line style="stroke:#181818;stroke-width:1.0;" x1="106.67" x2="112.62" y1="543.3391" y2="537.995"/><polygon fill="#181818" points="169.38,487,162.2433,488.033,160.452,495.0181,167.5887,493.9851,169.38,487" style="stroke:#181818;stroke-width:1.0;"/></g><!--MD5=[b543b8d449f892cc245a0245e827d437]
@startuml

class Board {
	' + Board() 
	' + void reset() 
	' + boolean isComplete(Color)
	' - Coordinate[] getCoordinates(Color)
	' + void putToken(Coordinate, Color)
	' + void moveToken(Coordinate, Coordinate) 
	' - Color getColor(Coordinate) 
	' + boolean isOccupied(Coordinate, Color) 
	' + boolean isEmpty(Coordinate)
	' + boolean isTicTacToe(Color) 
	' - Direction[] getDirections(Color)
	' + void write()
	' + boolean isComplete(Color)
}

class BoardView {
	' - Board board
	' + BoardView(board)
	' + void write()
}

class BoundedIntDialogView {
	' - ClosedInterval LIMITS
	' + BoundedIntDialog(int, int)
	' + int read(String) 
	' - String getLimits()
}

enum Color {
	' X,
	' O,
	' NULL
	' + {static} Color get(int)
	' + void write() 
	' + boolean isNull()
}

' class Console {
' 	- {static} Console instance = new Console()
' 	+ {static} Console getInstance()
' 	- BufferedReader bufferedReader
' 	+ String readString(String) 
' 	+ String readString()
' 	+ int readInt(String) 
' 	+ char readChar(String) 
' 	+ void write(String)
' 	+ void write(int)
' 	+ void write(char)
' 	+ void writeln()
' 	+ void writeln(String)
' 	+ void writeln(int) 
' 	+ void writeError(String) 
' }

class Coordinate {
	' - int row
	' - int column
	' + Coordinate() 
	' + Coordinate(int, int) 
	' + Direction getDirection(Coordinate)
	' - boolean inHorizontal(Coordinate)
	' - boolean inVertical(Coordinate)
	' - boolean inMainDiagonal() 
	' - boolean inInverseDiagonal() 
	' + String getErrorMessage() 
	' + int getRow()
	' + int getColumn()
	' + boolean equals(Coordinate)
}

class BoundedCoordinate {
	' - {static} int DIMENSION = 3
	' - Coordinate coordinate
	' + {static} int getDimension()
	' + BoundedCoordinate() 
	' + BoundedCoordinate(int, int) 
	' + Direction getDirection(Coordinate)
	' + int getRow()
	' + int getColumn()
}

class BoundedCoordinateView {
	' - BoundedCoordinate Boundedcoordinate
	' + void read(String)
	' + String getErrorMessage() 

}

enum Direction {
	' VERTICAL,
	' HORIZONTAL,
	' MAIN_DIAGONAL,
	' INVERSE_DIAGONAL,
	' NULL
	' + boolean isNull() 
}

enum Error {
	' NOT_EMPTY
	' NOT_OWNER
	' SAME_COORDINATES
	' WRONG_COORDINATES
	' NULL
	' - String message
	' - Error()
	' - Error(String)
	' + void writeln()
	' + boolean isNull()
}

enum Message {
	' TITLE
	' HORIZONTAL_LINE
	' VERTICAL_LINE
	' NULL_COLOR
	' TURN
	' ENTER_COORDINATE_TO_PUT
	' COORDINATE_TO_PUT
	' COORDINATE_TO_REMOVE
	' COORDINATE_TO_MOVE
	' ROW
	' COLUMN
	' BOUNDED_INT_ERROR
	' LIMITS
	' CLOSED_INTERVAL
	' PLAYER_WIN
	' RESUME
	' YES_NO_SUFFIX
	' YES_NO_ERROR
	' + {static} char AFFIRMATIVE
	' + {static} char NEGATIVE
	' + {static} String $COLOR
	' + {static} String $PLAYER
	' + {static} String $CLOSED_INTERVAL
	' + {static} String $MIN
	' + {static} String $MAX
	' - String message
	' - Message(String)
	' + void write()
	' + void writeln() 
	' + void writeln(String)
	' + String toString() 
}

class Player {
	' + Player(Color, Board)
	' + void play() 
	' - void putToken()
	' - Coordinate getCoordinate(Message) 
	' - Error getPutTokenError(Coordinate)
	' - void moveToken() 
	' - Error getOriginMoveTokenError(Coordinate) 
	' - Error getTargetMoveTokenError(Coordinate, Coordinate)
	' + void writeWinner() 
	' + Color getColor() 
}

class TicTacToe {
	' - TicTacToe() 
	' - void play() 
	' - void playGame() 
	' - boolean isResumedGame() 
	' + {static} void main(String[])
}

class Turn {
	' - {static} int NUMBER_PLAYERS = 2
	' - int activePlayer
	' + Turn(Board) 
	' + void reset()
	' + void play()
	' + void writeWinner()
	' + Color getActiveColor() 
}

class YesNoDialogView {
	' - String answer
	' + void read(String)
	' + boolean isAffirmative()
	' - char getAnswer() 
	' + boolean isNegative() 
}

class ClosedInterval {
	' - int min;
	' - int max;
	' + ClosedInterval(int, int) 
	' + boolean isIncluded(int) 
	' + String toString()
	' + boolean equals(ClosedInterval)
}

TicTacToe *- -> Turn
TicTacToe *- -> Board
TicTacToe - -> TurnController
TicTacToe - -> BoardView
TicTacToe ..> YesNoDialogView
TurnController *- -> Turn
TurnController - -> BoundedCoordinate
TurnController ..> MessageView
TurnController ..> PlayerView
TurnController ..> Message
Turn *- -> "2" Player
Player - -> Board
Player - -> Color
PlayerView ..> Player
PlayerView ..> ErrorView
PlayerView ..> Error
PlayerView ..> MessageView
PlayerView ..> Message
PlayerView ..> BoundedCoordinateView
ErrorView *- -> Error
Board *- -> "3x3" Color
Board ..> BoundedCoordinate
Board ..> Direction
BoardView ..> Message
BoardView ..> BoundedCoordinate
BoardView *- -> Board
BoardView ..> ColorView
BoundedCoordinate *- -> Coordinate
Coordinate ..> Direction
BoundedCoordinateView ..> BoundedIntDialogView
BoundedCoordinateView ..> BoundedCoordinate
BoundedIntDialogView ..> ClosedInterval
MessageView *- -> Message
ColorView *- -> Color

@enduml

@startuml

class Board {
}

class BoardView {
}

class BoundedIntDialogView {
}

enum Color {
}


class Coordinate {
}

class BoundedCoordinate {
}

class BoundedCoordinateView {

}

enum Direction {
}

enum Error {
}

enum Message {
}

class Player {
}

class TicTacToe {
}

class Turn {
}

class YesNoDialogView {
}

class ClosedInterval {
}

TicTacToe *- -> Turn
TicTacToe *- -> Board
TicTacToe - -> TurnController
TicTacToe - -> BoardView
TicTacToe ..> YesNoDialogView
TurnController *- -> Turn
TurnController - -> BoundedCoordinate
TurnController ..> MessageView
TurnController ..> PlayerView
TurnController ..> Message
Turn *- -> "2" Player
Player - -> Board
Player - -> Color
PlayerView ..> Player
PlayerView ..> ErrorView
PlayerView ..> Error
PlayerView ..> MessageView
PlayerView ..> Message
PlayerView ..> BoundedCoordinateView
ErrorView *- -> Error
Board *- -> "3x3" Color
Board ..> BoundedCoordinate
Board ..> Direction
BoardView ..> Message
BoardView ..> BoundedCoordinate
BoardView *- -> Board
BoardView ..> ColorView
BoundedCoordinate *- -> Coordinate
Coordinate ..> Direction
BoundedCoordinateView ..> BoundedIntDialogView
BoundedCoordinateView ..> BoundedCoordinate
BoundedIntDialogView ..> ClosedInterval
MessageView *- -> Message
ColorView *- -> Color

@enduml

PlantUML version 1.2022.7(Mon Aug 22 19:01:30 CEST 2022)
(GPL source distribution)
Java Runtime: OpenJDK Runtime Environment
JVM: OpenJDK 64-Bit Server VM
Default Encoding: UTF-8
Language: es
Country: ES
--></g></svg>