<?xml version="1.0" encoding="UTF-8" standalone="no"?><svg xmlns="http://www.w3.org/2000/svg" xmlns:xlink="http://www.w3.org/1999/xlink" contentStyleType="text/css" height="926px" preserveAspectRatio="none" style="width:867px;height:926px;background:#FFFFFF;" version="1.1" viewBox="0 0 867 926" width="867px" zoomAndPan="magnify"><defs/><g><!--MD5=[9563755d011c5cec7ec66dc53565a59e]
class Board--><g id="elem_Board"><rect codeLine="2" fill="#F1F1F1" height="48" id="Board" rx="2.5" ry="2.5" style="stroke:#181818;stroke-width:0.5;" width="70" x="620.06" y="547"/><ellipse cx="635.06" cy="563" fill="#ADD1B2" rx="11" ry="11" style="stroke:#181818;stroke-width:1.0;"/><path d="M637.8256,558.875 Q637.9819,558.6563 638.1694,558.5469 Q638.3569,558.4375 638.5756,558.4375 Q638.9506,558.4375 639.185,558.7031 Q639.4194,558.9531 639.4194,559.5625 L639.4194,561.0156 Q639.4194,561.625 639.185,561.8906 Q638.9506,562.1563 638.5756,562.1563 Q638.2319,562.1563 638.0288,561.9531 Q637.8256,561.7656 637.7163,561.25 Q637.6694,560.8906 637.4819,560.7031 Q637.1538,560.3281 636.5444,560.1094 Q635.935,559.8906 635.31,559.8906 Q634.5444,559.8906 633.9038,560.2188 Q633.2788,560.5469 632.7788,561.2969 Q632.2944,562.0469 632.2944,563.0781 L632.2944,564.1719 Q632.2944,565.4063 633.185,566.2344 Q634.0756,567.0469 635.6694,567.0469 Q636.6069,567.0469 637.2631,566.7969 Q637.6538,566.6406 638.0756,566.2031 Q638.3413,565.9375 638.4819,565.8594 Q638.6381,565.7813 638.8413,565.7813 Q639.1694,565.7813 639.4194,566.0469 Q639.685,566.2969 639.685,566.6406 Q639.685,566.9844 639.3413,567.3906 Q638.8413,567.9688 638.0444,568.2969 Q636.9663,568.75 635.6694,568.75 Q634.1538,568.75 632.9506,568.125 Q631.9663,567.625 631.2788,566.5625 Q630.5913,565.4844 630.5913,564.2031 L630.5913,563.0469 Q630.5913,561.7188 631.2006,560.5781 Q631.8256,559.4219 632.9194,558.8125 Q634.0131,558.1875 635.2475,558.1875 Q635.9819,558.1875 636.6225,558.3594 Q637.2788,558.5156 637.8256,558.875 Z " fill="#000000"/><text fill="#000000" font-family="sans-serif" font-size="14" lengthAdjust="spacing" textLength="38" x="649.06" y="568.7285">Board</text><line style="stroke:#181818;stroke-width:0.5;" x1="621.06" x2="689.06" y1="579" y2="579"/><line style="stroke:#181818;stroke-width:0.5;" x1="621.06" x2="689.06" y1="587" y2="587"/></g><!--MD5=[9b237e88d697a058bd530d6510c96c00]
class BoardView--><g id="elem_BoardView"><rect codeLine="18" fill="#F1F1F1" height="48" id="BoardView" rx="2.5" ry="2.5" style="stroke:#181818;stroke-width:0.5;" width="99" x="484.56" y="439"/><ellipse cx="499.56" cy="455" fill="#ADD1B2" rx="11" ry="11" style="stroke:#181818;stroke-width:1.0;"/><path d="M502.3256,450.875 Q502.4819,450.6563 502.6694,450.5469 Q502.8569,450.4375 503.0756,450.4375 Q503.4506,450.4375 503.685,450.7031 Q503.9194,450.9531 503.9194,451.5625 L503.9194,453.0156 Q503.9194,453.625 503.685,453.8906 Q503.4506,454.1563 503.0756,454.1563 Q502.7319,454.1563 502.5288,453.9531 Q502.3256,453.7656 502.2163,453.25 Q502.1694,452.8906 501.9819,452.7031 Q501.6538,452.3281 501.0444,452.1094 Q500.435,451.8906 499.81,451.8906 Q499.0444,451.8906 498.4038,452.2188 Q497.7788,452.5469 497.2788,453.2969 Q496.7944,454.0469 496.7944,455.0781 L496.7944,456.1719 Q496.7944,457.4063 497.685,458.2344 Q498.5756,459.0469 500.1694,459.0469 Q501.1069,459.0469 501.7631,458.7969 Q502.1538,458.6406 502.5756,458.2031 Q502.8413,457.9375 502.9819,457.8594 Q503.1381,457.7813 503.3413,457.7813 Q503.6694,457.7813 503.9194,458.0469 Q504.185,458.2969 504.185,458.6406 Q504.185,458.9844 503.8413,459.3906 Q503.3413,459.9688 502.5444,460.2969 Q501.4663,460.75 500.1694,460.75 Q498.6538,460.75 497.4506,460.125 Q496.4663,459.625 495.7788,458.5625 Q495.0913,457.4844 495.0913,456.2031 L495.0913,455.0469 Q495.0913,453.7188 495.7006,452.5781 Q496.3256,451.4219 497.4194,450.8125 Q498.5131,450.1875 499.7475,450.1875 Q500.4819,450.1875 501.1225,450.3594 Q501.7788,450.5156 502.3256,450.875 Z " fill="#000000"/><text fill="#000000" font-family="sans-serif" font-size="14" lengthAdjust="spacing" textLength="67" x="513.56" y="460.7285">BoardView</text><line style="stroke:#181818;stroke-width:0.5;" x1="485.56" x2="582.56" y1="471" y2="471"/><line style="stroke:#181818;stroke-width:0.5;" x1="485.56" x2="582.56" y1="479" y2="479"/></g><!--MD5=[a6506cb8083f762528b9107a98ea401f]
class BoundedIntDialogView--><g id="elem_BoundedIntDialogView"><rect codeLine="24" fill="#F1F1F1" height="48" id="BoundedIntDialogView" rx="2.5" ry="2.5" style="stroke:#181818;stroke-width:0.5;" width="173" x="234.56" y="655"/><ellipse cx="249.56" cy="671" fill="#ADD1B2" rx="11" ry="11" style="stroke:#181818;stroke-width:1.0;"/><path d="M252.3256,666.875 Q252.4819,666.6563 252.6694,666.5469 Q252.8569,666.4375 253.0756,666.4375 Q253.4506,666.4375 253.685,666.7031 Q253.9194,666.9531 253.9194,667.5625 L253.9194,669.0156 Q253.9194,669.625 253.685,669.8906 Q253.4506,670.1563 253.0756,670.1563 Q252.7319,670.1563 252.5288,669.9531 Q252.3256,669.7656 252.2163,669.25 Q252.1694,668.8906 251.9819,668.7031 Q251.6538,668.3281 251.0444,668.1094 Q250.435,667.8906 249.81,667.8906 Q249.0444,667.8906 248.4038,668.2188 Q247.7788,668.5469 247.2788,669.2969 Q246.7944,670.0469 246.7944,671.0781 L246.7944,672.1719 Q246.7944,673.4063 247.685,674.2344 Q248.5756,675.0469 250.1694,675.0469 Q251.1069,675.0469 251.7631,674.7969 Q252.1538,674.6406 252.5756,674.2031 Q252.8413,673.9375 252.9819,673.8594 Q253.1381,673.7813 253.3413,673.7813 Q253.6694,673.7813 253.9194,674.0469 Q254.185,674.2969 254.185,674.6406 Q254.185,674.9844 253.8413,675.3906 Q253.3413,675.9688 252.5444,676.2969 Q251.4663,676.75 250.1694,676.75 Q248.6538,676.75 247.4506,676.125 Q246.4663,675.625 245.7788,674.5625 Q245.0913,673.4844 245.0913,672.2031 L245.0913,671.0469 Q245.0913,669.7188 245.7006,668.5781 Q246.3256,667.4219 247.4194,666.8125 Q248.5131,666.1875 249.7475,666.1875 Q250.4819,666.1875 251.1225,666.3594 Q251.7788,666.5156 252.3256,666.875 Z " fill="#000000"/><text fill="#000000" font-family="sans-serif" font-size="14" lengthAdjust="spacing" textLength="141" x="263.56" y="676.7285">BoundedIntDialogView</text><line style="stroke:#181818;stroke-width:0.5;" x1="235.56" x2="406.56" y1="687" y2="687"/><line style="stroke:#181818;stroke-width:0.5;" x1="235.56" x2="406.56" y1="695" y2="695"/></g><!--MD5=[18eee71c88ab61f27581b8cbdd3ef5ee]
class Color--><g id="elem_Color"><rect codeLine="31" fill="#F1F1F1" height="48" id="Color" rx="2.5" ry="2.5" style="stroke:#181818;stroke-width:0.5;" width="66" x="740.06" y="655"/><ellipse cx="755.06" cy="671" fill="#EB937F" rx="11" ry="11" style="stroke:#181818;stroke-width:1.0;"/><path d="M753.9194,671.7969 L753.9194,674.2969 L758.2475,674.2969 L758.2475,673.375 Q758.2475,672.7656 758.4819,672.5 Q758.7319,672.2344 759.1069,672.2344 Q759.4819,672.2344 759.7163,672.5 Q759.9506,672.7656 759.9506,673.375 L759.9506,676 L751.9506,676 Q751.3256,676 751.06,675.7656 Q750.81,675.5313 750.81,675.1406 Q750.81,674.7656 751.0756,674.5313 Q751.3413,674.2969 751.9506,674.2969 L752.2163,674.2969 L752.2163,667.6406 L751.9506,667.6406 Q751.3256,667.6406 751.06,667.4063 Q750.81,667.1719 750.81,666.7813 Q750.81,666.4063 751.06,666.1719 Q751.3256,665.9375 751.9506,665.9375 L759.5756,665.9375 L759.5756,668.5313 Q759.5756,669.1406 759.3413,669.4063 Q759.1225,669.6563 758.7319,669.6563 Q758.3569,669.6563 758.1225,669.4063 Q757.8881,669.1406 757.8881,668.5313 L757.8881,667.6406 L753.9194,667.6406 L753.9194,670.0938 L755.4038,670.0938 Q755.4038,669.4375 755.5288,669.25 Q755.7944,668.8438 756.2631,668.8438 Q756.6381,668.8438 756.8725,669.1094 Q757.1069,669.3594 757.1069,669.9688 L757.1069,671.9375 Q757.1069,672.4844 756.9819,672.6719 Q756.7163,673.0625 756.2631,673.0625 Q755.7944,673.0625 755.5288,672.6563 Q755.4038,672.4688 755.4038,671.7969 L753.9194,671.7969 Z " fill="#000000"/><text fill="#000000" font-family="sans-serif" font-size="14" lengthAdjust="spacing" textLength="34" x="769.06" y="676.7285">Color</text><line style="stroke:#181818;stroke-width:0.5;" x1="741.06" x2="805.06" y1="687" y2="687"/><line style="stroke:#181818;stroke-width:0.5;" x1="741.06" x2="805.06" y1="695" y2="695"/></g><!--MD5=[8c7d7abc12e214c3cc12c9ab70edee11]
class Coordinate--><g id="elem_Coordinate"><rect codeLine="57" fill="#F1F1F1" height="48" id="Coordinate" rx="2.5" ry="2.5" style="stroke:#181818;stroke-width:0.5;" width="102" x="485.06" y="763"/><ellipse cx="500.06" cy="779" fill="#ADD1B2" rx="11" ry="11" style="stroke:#181818;stroke-width:1.0;"/><path d="M502.8256,774.875 Q502.9819,774.6563 503.1694,774.5469 Q503.3569,774.4375 503.5756,774.4375 Q503.9506,774.4375 504.185,774.7031 Q504.4194,774.9531 504.4194,775.5625 L504.4194,777.0156 Q504.4194,777.625 504.185,777.8906 Q503.9506,778.1563 503.5756,778.1563 Q503.2319,778.1563 503.0288,777.9531 Q502.8256,777.7656 502.7163,777.25 Q502.6694,776.8906 502.4819,776.7031 Q502.1538,776.3281 501.5444,776.1094 Q500.935,775.8906 500.31,775.8906 Q499.5444,775.8906 498.9038,776.2188 Q498.2788,776.5469 497.7788,777.2969 Q497.2944,778.0469 497.2944,779.0781 L497.2944,780.1719 Q497.2944,781.4063 498.185,782.2344 Q499.0756,783.0469 500.6694,783.0469 Q501.6069,783.0469 502.2631,782.7969 Q502.6538,782.6406 503.0756,782.2031 Q503.3413,781.9375 503.4819,781.8594 Q503.6381,781.7813 503.8413,781.7813 Q504.1694,781.7813 504.4194,782.0469 Q504.685,782.2969 504.685,782.6406 Q504.685,782.9844 504.3413,783.3906 Q503.8413,783.9688 503.0444,784.2969 Q501.9663,784.75 500.6694,784.75 Q499.1538,784.75 497.9506,784.125 Q496.9663,783.625 496.2788,782.5625 Q495.5913,781.4844 495.5913,780.2031 L495.5913,779.0469 Q495.5913,777.7188 496.2006,776.5781 Q496.8256,775.4219 497.9194,774.8125 Q499.0131,774.1875 500.2475,774.1875 Q500.9819,774.1875 501.6225,774.3594 Q502.2788,774.5156 502.8256,774.875 Z " fill="#000000"/><text fill="#000000" font-family="sans-serif" font-size="14" lengthAdjust="spacing" textLength="70" x="514.06" y="784.7285">Coordinate</text><line style="stroke:#181818;stroke-width:0.5;" x1="486.06" x2="586.06" y1="795" y2="795"/><line style="stroke:#181818;stroke-width:0.5;" x1="486.06" x2="586.06" y1="803" y2="803"/></g><!--MD5=[62ca0729120fa425d34ad066ce351b56]
class BoundedCoordinate--><g id="elem_BoundedCoordinate"><rect codeLine="73" fill="#F1F1F1" height="48" id="BoundedCoordinate" rx="2.5" ry="2.5" style="stroke:#181818;stroke-width:0.5;" width="159" x="442.56" y="655"/><ellipse cx="457.56" cy="671" fill="#ADD1B2" rx="11" ry="11" style="stroke:#181818;stroke-width:1.0;"/><path d="M460.3256,666.875 Q460.4819,666.6563 460.6694,666.5469 Q460.8569,666.4375 461.0756,666.4375 Q461.4506,666.4375 461.685,666.7031 Q461.9194,666.9531 461.9194,667.5625 L461.9194,669.0156 Q461.9194,669.625 461.685,669.8906 Q461.4506,670.1563 461.0756,670.1563 Q460.7319,670.1563 460.5288,669.9531 Q460.3256,669.7656 460.2163,669.25 Q460.1694,668.8906 459.9819,668.7031 Q459.6538,668.3281 459.0444,668.1094 Q458.435,667.8906 457.81,667.8906 Q457.0444,667.8906 456.4038,668.2188 Q455.7788,668.5469 455.2788,669.2969 Q454.7944,670.0469 454.7944,671.0781 L454.7944,672.1719 Q454.7944,673.4063 455.685,674.2344 Q456.5756,675.0469 458.1694,675.0469 Q459.1069,675.0469 459.7631,674.7969 Q460.1538,674.6406 460.5756,674.2031 Q460.8413,673.9375 460.9819,673.8594 Q461.1381,673.7813 461.3413,673.7813 Q461.6694,673.7813 461.9194,674.0469 Q462.185,674.2969 462.185,674.6406 Q462.185,674.9844 461.8413,675.3906 Q461.3413,675.9688 460.5444,676.2969 Q459.4663,676.75 458.1694,676.75 Q456.6538,676.75 455.4506,676.125 Q454.4663,675.625 453.7788,674.5625 Q453.0913,673.4844 453.0913,672.2031 L453.0913,671.0469 Q453.0913,669.7188 453.7006,668.5781 Q454.3256,667.4219 455.4194,666.8125 Q456.5131,666.1875 457.7475,666.1875 Q458.4819,666.1875 459.1225,666.3594 Q459.7788,666.5156 460.3256,666.875 Z " fill="#000000"/><text fill="#000000" font-family="sans-serif" font-size="14" lengthAdjust="spacing" textLength="127" x="471.56" y="676.7285">BoundedCoordinate</text><line style="stroke:#181818;stroke-width:0.5;" x1="443.56" x2="600.56" y1="687" y2="687"/><line style="stroke:#181818;stroke-width:0.5;" x1="443.56" x2="600.56" y1="695" y2="695"/></g><!--MD5=[5f08b6f189bbeec7e47b7a47ff779388]
class BoundedCoordinateView--><g id="elem_BoundedCoordinateView"><rect codeLine="84" fill="#F1F1F1" height="48" id="BoundedCoordinateView" rx="2.5" ry="2.5" style="stroke:#181818;stroke-width:0.5;" width="188" x="397.06" y="547"/><ellipse cx="412.06" cy="563" fill="#ADD1B2" rx="11" ry="11" style="stroke:#181818;stroke-width:1.0;"/><path d="M414.8256,558.875 Q414.9819,558.6563 415.1694,558.5469 Q415.3569,558.4375 415.5756,558.4375 Q415.9506,558.4375 416.185,558.7031 Q416.4194,558.9531 416.4194,559.5625 L416.4194,561.0156 Q416.4194,561.625 416.185,561.8906 Q415.9506,562.1563 415.5756,562.1563 Q415.2319,562.1563 415.0288,561.9531 Q414.8256,561.7656 414.7163,561.25 Q414.6694,560.8906 414.4819,560.7031 Q414.1538,560.3281 413.5444,560.1094 Q412.935,559.8906 412.31,559.8906 Q411.5444,559.8906 410.9038,560.2188 Q410.2788,560.5469 409.7788,561.2969 Q409.2944,562.0469 409.2944,563.0781 L409.2944,564.1719 Q409.2944,565.4063 410.185,566.2344 Q411.0756,567.0469 412.6694,567.0469 Q413.6069,567.0469 414.2631,566.7969 Q414.6538,566.6406 415.0756,566.2031 Q415.3413,565.9375 415.4819,565.8594 Q415.6381,565.7813 415.8413,565.7813 Q416.1694,565.7813 416.4194,566.0469 Q416.685,566.2969 416.685,566.6406 Q416.685,566.9844 416.3413,567.3906 Q415.8413,567.9688 415.0444,568.2969 Q413.9663,568.75 412.6694,568.75 Q411.1538,568.75 409.9506,568.125 Q408.9663,567.625 408.2788,566.5625 Q407.5913,565.4844 407.5913,564.2031 L407.5913,563.0469 Q407.5913,561.7188 408.2006,560.5781 Q408.8256,559.4219 409.9194,558.8125 Q411.0131,558.1875 412.2475,558.1875 Q412.9819,558.1875 413.6225,558.3594 Q414.2788,558.5156 414.8256,558.875 Z " fill="#000000"/><text fill="#000000" font-family="sans-serif" font-size="14" lengthAdjust="spacing" textLength="156" x="426.06" y="568.7285">BoundedCoordinateView</text><line style="stroke:#181818;stroke-width:0.5;" x1="398.06" x2="584.06" y1="579" y2="579"/><line style="stroke:#181818;stroke-width:0.5;" x1="398.06" x2="584.06" y1="587" y2="587"/></g><!--MD5=[02f7077ed79257124e28b791f351f1d7]
class Direction--><g id="elem_Direction"><rect codeLine="91" fill="#F1F1F1" height="48" id="Direction" rx="2.5" ry="2.5" style="stroke:#181818;stroke-width:0.5;" width="88" x="558.06" y="871"/><ellipse cx="573.06" cy="887" fill="#EB937F" rx="11" ry="11" style="stroke:#181818;stroke-width:1.0;"/><path d="M571.9194,887.7969 L571.9194,890.2969 L576.2475,890.2969 L576.2475,889.375 Q576.2475,888.7656 576.4819,888.5 Q576.7319,888.2344 577.1069,888.2344 Q577.4819,888.2344 577.7163,888.5 Q577.9506,888.7656 577.9506,889.375 L577.9506,892 L569.9506,892 Q569.3256,892 569.06,891.7656 Q568.81,891.5313 568.81,891.1406 Q568.81,890.7656 569.0756,890.5313 Q569.3413,890.2969 569.9506,890.2969 L570.2163,890.2969 L570.2163,883.6406 L569.9506,883.6406 Q569.3256,883.6406 569.06,883.4063 Q568.81,883.1719 568.81,882.7813 Q568.81,882.4063 569.06,882.1719 Q569.3256,881.9375 569.9506,881.9375 L577.5756,881.9375 L577.5756,884.5313 Q577.5756,885.1406 577.3413,885.4063 Q577.1225,885.6563 576.7319,885.6563 Q576.3569,885.6563 576.1225,885.4063 Q575.8881,885.1406 575.8881,884.5313 L575.8881,883.6406 L571.9194,883.6406 L571.9194,886.0938 L573.4038,886.0938 Q573.4038,885.4375 573.5288,885.25 Q573.7944,884.8438 574.2631,884.8438 Q574.6381,884.8438 574.8725,885.1094 Q575.1069,885.3594 575.1069,885.9688 L575.1069,887.9375 Q575.1069,888.4844 574.9819,888.6719 Q574.7163,889.0625 574.2631,889.0625 Q573.7944,889.0625 573.5288,888.6563 Q573.4038,888.4688 573.4038,887.7969 L571.9194,887.7969 Z " fill="#000000"/><text fill="#000000" font-family="sans-serif" font-size="14" lengthAdjust="spacing" textLength="56" x="587.06" y="892.7285">Direction</text><line style="stroke:#181818;stroke-width:0.5;" x1="559.06" x2="645.06" y1="903" y2="903"/><line style="stroke:#181818;stroke-width:0.5;" x1="559.06" x2="645.06" y1="911" y2="911"/></g><!--MD5=[b8cfd8c4119a3b0a7a46bfc5fc780f85]
class Error--><g id="elem_Error"><rect codeLine="100" fill="#F1F1F1" height="48" id="Error" rx="2.5" ry="2.5" style="stroke:#181818;stroke-width:0.5;" width="64" x="298.06" y="547"/><ellipse cx="313.06" cy="563" fill="#EB937F" rx="11" ry="11" style="stroke:#181818;stroke-width:1.0;"/><path d="M311.9194,563.7969 L311.9194,566.2969 L316.2475,566.2969 L316.2475,565.375 Q316.2475,564.7656 316.4819,564.5 Q316.7319,564.2344 317.1069,564.2344 Q317.4819,564.2344 317.7163,564.5 Q317.9506,564.7656 317.9506,565.375 L317.9506,568 L309.9506,568 Q309.3256,568 309.06,567.7656 Q308.81,567.5313 308.81,567.1406 Q308.81,566.7656 309.0756,566.5313 Q309.3413,566.2969 309.9506,566.2969 L310.2163,566.2969 L310.2163,559.6406 L309.9506,559.6406 Q309.3256,559.6406 309.06,559.4063 Q308.81,559.1719 308.81,558.7813 Q308.81,558.4063 309.06,558.1719 Q309.3256,557.9375 309.9506,557.9375 L317.5756,557.9375 L317.5756,560.5313 Q317.5756,561.1406 317.3413,561.4063 Q317.1225,561.6563 316.7319,561.6563 Q316.3569,561.6563 316.1225,561.4063 Q315.8881,561.1406 315.8881,560.5313 L315.8881,559.6406 L311.9194,559.6406 L311.9194,562.0938 L313.4038,562.0938 Q313.4038,561.4375 313.5288,561.25 Q313.7944,560.8438 314.2631,560.8438 Q314.6381,560.8438 314.8725,561.1094 Q315.1069,561.3594 315.1069,561.9688 L315.1069,563.9375 Q315.1069,564.4844 314.9819,564.6719 Q314.7163,565.0625 314.2631,565.0625 Q313.7944,565.0625 313.5288,564.6563 Q313.4038,564.4688 313.4038,563.7969 L311.9194,563.7969 Z " fill="#000000"/><text fill="#000000" font-family="sans-serif" font-size="14" lengthAdjust="spacing" textLength="32" x="327.06" y="568.7285">Error</text><line style="stroke:#181818;stroke-width:0.5;" x1="299.06" x2="361.06" y1="579" y2="579"/><line style="stroke:#181818;stroke-width:0.5;" x1="299.06" x2="361.06" y1="587" y2="587"/></g><!--MD5=[bea5b0d46523efab5ea1c1d339f396f0]
class Message--><g id="elem_Message"><rect codeLine="113" fill="#F1F1F1" height="48" id="Message" rx="2.5" ry="2.5" style="stroke:#181818;stroke-width:0.5;" width="89" x="123.56" y="547"/><ellipse cx="138.56" cy="563" fill="#EB937F" rx="11" ry="11" style="stroke:#181818;stroke-width:1.0;"/><path d="M137.4194,563.7969 L137.4194,566.2969 L141.7475,566.2969 L141.7475,565.375 Q141.7475,564.7656 141.9819,564.5 Q142.2319,564.2344 142.6069,564.2344 Q142.9819,564.2344 143.2163,564.5 Q143.4506,564.7656 143.4506,565.375 L143.4506,568 L135.4506,568 Q134.8256,568 134.56,567.7656 Q134.31,567.5313 134.31,567.1406 Q134.31,566.7656 134.5756,566.5313 Q134.8413,566.2969 135.4506,566.2969 L135.7163,566.2969 L135.7163,559.6406 L135.4506,559.6406 Q134.8256,559.6406 134.56,559.4063 Q134.31,559.1719 134.31,558.7813 Q134.31,558.4063 134.56,558.1719 Q134.8256,557.9375 135.4506,557.9375 L143.0756,557.9375 L143.0756,560.5313 Q143.0756,561.1406 142.8413,561.4063 Q142.6225,561.6563 142.2319,561.6563 Q141.8569,561.6563 141.6225,561.4063 Q141.3881,561.1406 141.3881,560.5313 L141.3881,559.6406 L137.4194,559.6406 L137.4194,562.0938 L138.9038,562.0938 Q138.9038,561.4375 139.0288,561.25 Q139.2944,560.8438 139.7631,560.8438 Q140.1381,560.8438 140.3725,561.1094 Q140.6069,561.3594 140.6069,561.9688 L140.6069,563.9375 Q140.6069,564.4844 140.4819,564.6719 Q140.2163,565.0625 139.7631,565.0625 Q139.2944,565.0625 139.0288,564.6563 Q138.9038,564.4688 138.9038,563.7969 L137.4194,563.7969 Z " fill="#000000"/><text fill="#000000" font-family="sans-serif" font-size="14" lengthAdjust="spacing" textLength="57" x="152.56" y="568.7285">Message</text><line style="stroke:#181818;stroke-width:0.5;" x1="124.56" x2="211.56" y1="579" y2="579"/><line style="stroke:#181818;stroke-width:0.5;" x1="124.56" x2="211.56" y1="587" y2="587"/></g><!--MD5=[2cb47ba637a0d19583e6199456f6ad0b]
class Player--><g id="elem_Player"><rect codeLine="147" fill="#F1F1F1" height="48" id="Player" rx="2.5" ry="2.5" style="stroke:#181818;stroke-width:0.5;" width="72" x="619.06" y="439"/><ellipse cx="634.06" cy="455" fill="#ADD1B2" rx="11" ry="11" style="stroke:#181818;stroke-width:1.0;"/><path d="M636.8256,450.875 Q636.9819,450.6563 637.1694,450.5469 Q637.3569,450.4375 637.5756,450.4375 Q637.9506,450.4375 638.185,450.7031 Q638.4194,450.9531 638.4194,451.5625 L638.4194,453.0156 Q638.4194,453.625 638.185,453.8906 Q637.9506,454.1563 637.5756,454.1563 Q637.2319,454.1563 637.0288,453.9531 Q636.8256,453.7656 636.7163,453.25 Q636.6694,452.8906 636.4819,452.7031 Q636.1538,452.3281 635.5444,452.1094 Q634.935,451.8906 634.31,451.8906 Q633.5444,451.8906 632.9038,452.2188 Q632.2788,452.5469 631.7788,453.2969 Q631.2944,454.0469 631.2944,455.0781 L631.2944,456.1719 Q631.2944,457.4063 632.185,458.2344 Q633.0756,459.0469 634.6694,459.0469 Q635.6069,459.0469 636.2631,458.7969 Q636.6538,458.6406 637.0756,458.2031 Q637.3413,457.9375 637.4819,457.8594 Q637.6381,457.7813 637.8413,457.7813 Q638.1694,457.7813 638.4194,458.0469 Q638.685,458.2969 638.685,458.6406 Q638.685,458.9844 638.3413,459.3906 Q637.8413,459.9688 637.0444,460.2969 Q635.9663,460.75 634.6694,460.75 Q633.1538,460.75 631.9506,460.125 Q630.9663,459.625 630.2788,458.5625 Q629.5913,457.4844 629.5913,456.2031 L629.5913,455.0469 Q629.5913,453.7188 630.2006,452.5781 Q630.8256,451.4219 631.9194,450.8125 Q633.0131,450.1875 634.2475,450.1875 Q634.9819,450.1875 635.6225,450.3594 Q636.2788,450.5156 636.8256,450.875 Z " fill="#000000"/><text fill="#000000" font-family="sans-serif" font-size="14" lengthAdjust="spacing" textLength="40" x="648.06" y="460.7285">Player</text><line style="stroke:#181818;stroke-width:0.5;" x1="620.06" x2="690.06" y1="471" y2="471"/><line style="stroke:#181818;stroke-width:0.5;" x1="620.06" x2="690.06" y1="479" y2="479"/></g><!--MD5=[36f719b1cbc3f26b5758ea249b208fb4]
class TicTacToe--><g id="elem_TicTacToe"><rect codeLine="160" fill="#F1F1F1" height="48" id="TicTacToe" rx="2.5" ry="2.5" style="stroke:#181818;stroke-width:0.5;" width="100" x="586.06" y="7"/><ellipse cx="601.06" cy="23" fill="#ADD1B2" rx="11" ry="11" style="stroke:#181818;stroke-width:1.0;"/><path d="M603.8256,18.875 Q603.9819,18.6563 604.1694,18.5469 Q604.3569,18.4375 604.5756,18.4375 Q604.9506,18.4375 605.185,18.7031 Q605.4194,18.9531 605.4194,19.5625 L605.4194,21.0156 Q605.4194,21.625 605.185,21.8906 Q604.9506,22.1563 604.5756,22.1563 Q604.2319,22.1563 604.0288,21.9531 Q603.8256,21.7656 603.7163,21.25 Q603.6694,20.8906 603.4819,20.7031 Q603.1538,20.3281 602.5444,20.1094 Q601.935,19.8906 601.31,19.8906 Q600.5444,19.8906 599.9038,20.2188 Q599.2788,20.5469 598.7788,21.2969 Q598.2944,22.0469 598.2944,23.0781 L598.2944,24.1719 Q598.2944,25.4063 599.185,26.2344 Q600.0756,27.0469 601.6694,27.0469 Q602.6069,27.0469 603.2631,26.7969 Q603.6538,26.6406 604.0756,26.2031 Q604.3413,25.9375 604.4819,25.8594 Q604.6381,25.7813 604.8413,25.7813 Q605.1694,25.7813 605.4194,26.0469 Q605.685,26.2969 605.685,26.6406 Q605.685,26.9844 605.3413,27.3906 Q604.8413,27.9688 604.0444,28.2969 Q602.9663,28.75 601.6694,28.75 Q600.1538,28.75 598.9506,28.125 Q597.9663,27.625 597.2788,26.5625 Q596.5913,25.4844 596.5913,24.2031 L596.5913,23.0469 Q596.5913,21.7188 597.2006,20.5781 Q597.8256,19.4219 598.9194,18.8125 Q600.0131,18.1875 601.2475,18.1875 Q601.9819,18.1875 602.6225,18.3594 Q603.2788,18.5156 603.8256,18.875 Z " fill="#000000"/><text fill="#000000" font-family="sans-serif" font-size="14" lengthAdjust="spacing" textLength="68" x="615.06" y="28.7285">TicTacToe</text><line style="stroke:#181818;stroke-width:0.5;" x1="587.06" x2="685.06" y1="39" y2="39"/><line style="stroke:#181818;stroke-width:0.5;" x1="587.06" x2="685.06" y1="47" y2="47"/></g><!--MD5=[9dee31518fe58d48174303dc5f2c1aec]
class TicTacToeView--><g id="elem_TicTacToeView"><rect codeLine="168" fill="#F1F1F1" height="48" id="TicTacToeView" rx="2.5" ry="2.5" style="stroke:#181818;stroke-width:0.5;" width="129" x="452.56" y="115"/><ellipse cx="467.56" cy="131" fill="#ADD1B2" rx="11" ry="11" style="stroke:#181818;stroke-width:1.0;"/><path d="M470.3256,126.875 Q470.4819,126.6563 470.6694,126.5469 Q470.8569,126.4375 471.0756,126.4375 Q471.4506,126.4375 471.685,126.7031 Q471.9194,126.9531 471.9194,127.5625 L471.9194,129.0156 Q471.9194,129.625 471.685,129.8906 Q471.4506,130.1563 471.0756,130.1563 Q470.7319,130.1563 470.5288,129.9531 Q470.3256,129.7656 470.2163,129.25 Q470.1694,128.8906 469.9819,128.7031 Q469.6538,128.3281 469.0444,128.1094 Q468.435,127.8906 467.81,127.8906 Q467.0444,127.8906 466.4038,128.2188 Q465.7788,128.5469 465.2788,129.2969 Q464.7944,130.0469 464.7944,131.0781 L464.7944,132.1719 Q464.7944,133.4063 465.685,134.2344 Q466.5756,135.0469 468.1694,135.0469 Q469.1069,135.0469 469.7631,134.7969 Q470.1538,134.6406 470.5756,134.2031 Q470.8413,133.9375 470.9819,133.8594 Q471.1381,133.7813 471.3413,133.7813 Q471.6694,133.7813 471.9194,134.0469 Q472.185,134.2969 472.185,134.6406 Q472.185,134.9844 471.8413,135.3906 Q471.3413,135.9688 470.5444,136.2969 Q469.4663,136.75 468.1694,136.75 Q466.6538,136.75 465.4506,136.125 Q464.4663,135.625 463.7788,134.5625 Q463.0913,133.4844 463.0913,132.2031 L463.0913,131.0469 Q463.0913,129.7188 463.7006,128.5781 Q464.3256,127.4219 465.4194,126.8125 Q466.5131,126.1875 467.7475,126.1875 Q468.4819,126.1875 469.1225,126.3594 Q469.7788,126.5156 470.3256,126.875 Z " fill="#000000"/><text fill="#000000" font-family="sans-serif" font-size="14" lengthAdjust="spacing" textLength="97" x="481.56" y="136.7285">TicTacToeView</text><line style="stroke:#181818;stroke-width:0.5;" x1="453.56" x2="580.56" y1="147" y2="147"/><line style="stroke:#181818;stroke-width:0.5;" x1="453.56" x2="580.56" y1="155" y2="155"/></g><!--MD5=[dd91eae41778c45e12552e5329e240e8]
class Turn--><g id="elem_Turn"><rect codeLine="174" fill="#F1F1F1" height="48" id="Turn" rx="2.5" ry="2.5" style="stroke:#181818;stroke-width:0.5;" width="62" x="605.06" y="331"/><ellipse cx="620.06" cy="347" fill="#ADD1B2" rx="11" ry="11" style="stroke:#181818;stroke-width:1.0;"/><path d="M622.8256,342.875 Q622.9819,342.6563 623.1694,342.5469 Q623.3569,342.4375 623.5756,342.4375 Q623.9506,342.4375 624.185,342.7031 Q624.4194,342.9531 624.4194,343.5625 L624.4194,345.0156 Q624.4194,345.625 624.185,345.8906 Q623.9506,346.1563 623.5756,346.1563 Q623.2319,346.1563 623.0288,345.9531 Q622.8256,345.7656 622.7163,345.25 Q622.6694,344.8906 622.4819,344.7031 Q622.1538,344.3281 621.5444,344.1094 Q620.935,343.8906 620.31,343.8906 Q619.5444,343.8906 618.9038,344.2188 Q618.2788,344.5469 617.7788,345.2969 Q617.2944,346.0469 617.2944,347.0781 L617.2944,348.1719 Q617.2944,349.4063 618.185,350.2344 Q619.0756,351.0469 620.6694,351.0469 Q621.6069,351.0469 622.2631,350.7969 Q622.6538,350.6406 623.0756,350.2031 Q623.3413,349.9375 623.4819,349.8594 Q623.6381,349.7813 623.8413,349.7813 Q624.1694,349.7813 624.4194,350.0469 Q624.685,350.2969 624.685,350.6406 Q624.685,350.9844 624.3413,351.3906 Q623.8413,351.9688 623.0444,352.2969 Q621.9663,352.75 620.6694,352.75 Q619.1538,352.75 617.9506,352.125 Q616.9663,351.625 616.2788,350.5625 Q615.5913,349.4844 615.5913,348.2031 L615.5913,347.0469 Q615.5913,345.7188 616.2006,344.5781 Q616.8256,343.4219 617.9194,342.8125 Q619.0131,342.1875 620.2475,342.1875 Q620.9819,342.1875 621.6225,342.3594 Q622.2788,342.5156 622.8256,342.875 Z " fill="#000000"/><text fill="#000000" font-family="sans-serif" font-size="14" lengthAdjust="spacing" textLength="30" x="634.06" y="352.7285">Turn</text><line style="stroke:#181818;stroke-width:0.5;" x1="606.06" x2="666.06" y1="363" y2="363"/><line style="stroke:#181818;stroke-width:0.5;" x1="606.06" x2="666.06" y1="371" y2="371"/></g><!--MD5=[2f2ced231ceb229417d2b072acd0beb6]
class YesNoDialogView--><g id="elem_YesNoDialogView"><rect codeLine="184" fill="#F1F1F1" height="48" id="YesNoDialogView" rx="2.5" ry="2.5" style="stroke:#181818;stroke-width:0.5;" width="142" x="339.06" y="223"/><ellipse cx="354.06" cy="239" fill="#ADD1B2" rx="11" ry="11" style="stroke:#181818;stroke-width:1.0;"/><path d="M356.8256,234.875 Q356.9819,234.6563 357.1694,234.5469 Q357.3569,234.4375 357.5756,234.4375 Q357.9506,234.4375 358.185,234.7031 Q358.4194,234.9531 358.4194,235.5625 L358.4194,237.0156 Q358.4194,237.625 358.185,237.8906 Q357.9506,238.1563 357.5756,238.1563 Q357.2319,238.1563 357.0288,237.9531 Q356.8256,237.7656 356.7163,237.25 Q356.6694,236.8906 356.4819,236.7031 Q356.1538,236.3281 355.5444,236.1094 Q354.935,235.8906 354.31,235.8906 Q353.5444,235.8906 352.9038,236.2188 Q352.2788,236.5469 351.7788,237.2969 Q351.2944,238.0469 351.2944,239.0781 L351.2944,240.1719 Q351.2944,241.4063 352.185,242.2344 Q353.0756,243.0469 354.6694,243.0469 Q355.6069,243.0469 356.2631,242.7969 Q356.6538,242.6406 357.0756,242.2031 Q357.3413,241.9375 357.4819,241.8594 Q357.6381,241.7813 357.8413,241.7813 Q358.1694,241.7813 358.4194,242.0469 Q358.685,242.2969 358.685,242.6406 Q358.685,242.9844 358.3413,243.3906 Q357.8413,243.9688 357.0444,244.2969 Q355.9663,244.75 354.6694,244.75 Q353.1538,244.75 351.9506,244.125 Q350.9663,243.625 350.2788,242.5625 Q349.5913,241.4844 349.5913,240.2031 L349.5913,239.0469 Q349.5913,237.7188 350.2006,236.5781 Q350.8256,235.4219 351.9194,234.8125 Q353.0131,234.1875 354.2475,234.1875 Q354.9819,234.1875 355.6225,234.3594 Q356.2788,234.5156 356.8256,234.875 Z " fill="#000000"/><text fill="#000000" font-family="sans-serif" font-size="14" lengthAdjust="spacing" textLength="110" x="368.06" y="244.7285">YesNoDialogView</text><line style="stroke:#181818;stroke-width:0.5;" x1="340.06" x2="480.06" y1="255" y2="255"/><line style="stroke:#181818;stroke-width:0.5;" x1="340.06" x2="480.06" y1="263" y2="263"/></g><!--MD5=[f0e50675208408ddbf1ed7a91f4eb071]
class ClosedInterval--><g id="elem_ClosedInterval"><rect codeLine="192" fill="#F1F1F1" height="48" id="ClosedInterval" rx="2.5" ry="2.5" style="stroke:#181818;stroke-width:0.5;" width="122" x="260.06" y="763"/><ellipse cx="275.06" cy="779" fill="#ADD1B2" rx="11" ry="11" style="stroke:#181818;stroke-width:1.0;"/><path d="M277.8256,774.875 Q277.9819,774.6563 278.1694,774.5469 Q278.3569,774.4375 278.5756,774.4375 Q278.9506,774.4375 279.185,774.7031 Q279.4194,774.9531 279.4194,775.5625 L279.4194,777.0156 Q279.4194,777.625 279.185,777.8906 Q278.9506,778.1563 278.5756,778.1563 Q278.2319,778.1563 278.0288,777.9531 Q277.8256,777.7656 277.7163,777.25 Q277.6694,776.8906 277.4819,776.7031 Q277.1538,776.3281 276.5444,776.1094 Q275.935,775.8906 275.31,775.8906 Q274.5444,775.8906 273.9038,776.2188 Q273.2788,776.5469 272.7788,777.2969 Q272.2944,778.0469 272.2944,779.0781 L272.2944,780.1719 Q272.2944,781.4063 273.185,782.2344 Q274.0756,783.0469 275.6694,783.0469 Q276.6069,783.0469 277.2631,782.7969 Q277.6538,782.6406 278.0756,782.2031 Q278.3413,781.9375 278.4819,781.8594 Q278.6381,781.7813 278.8413,781.7813 Q279.1694,781.7813 279.4194,782.0469 Q279.685,782.2969 279.685,782.6406 Q279.685,782.9844 279.3413,783.3906 Q278.8413,783.9688 278.0444,784.2969 Q276.9663,784.75 275.6694,784.75 Q274.1538,784.75 272.9506,784.125 Q271.9663,783.625 271.2788,782.5625 Q270.5913,781.4844 270.5913,780.2031 L270.5913,779.0469 Q270.5913,777.7188 271.2006,776.5781 Q271.8256,775.4219 272.9194,774.8125 Q274.0131,774.1875 275.2475,774.1875 Q275.9819,774.1875 276.6225,774.3594 Q277.2788,774.5156 277.8256,774.875 Z " fill="#000000"/><text fill="#000000" font-family="sans-serif" font-size="14" lengthAdjust="spacing" textLength="90" x="289.06" y="784.7285">ClosedInterval</text><line style="stroke:#181818;stroke-width:0.5;" x1="261.06" x2="381.06" y1="795" y2="795"/><line style="stroke:#181818;stroke-width:0.5;" x1="261.06" x2="381.06" y1="803" y2="803"/></g><!--MD5=[0f1adae5684a082996b24e2018afd4c9]
class TurnView--><g id="elem_TurnView"><rect fill="#F1F1F1" height="48" id="TurnView" rx="2.5" ry="2.5" style="stroke:#181818;stroke-width:0.5;" width="91" x="170.56" y="223"/><ellipse cx="185.56" cy="239" fill="#ADD1B2" rx="11" ry="11" style="stroke:#181818;stroke-width:1.0;"/><path d="M188.3256,234.875 Q188.4819,234.6563 188.6694,234.5469 Q188.8569,234.4375 189.0756,234.4375 Q189.4506,234.4375 189.685,234.7031 Q189.9194,234.9531 189.9194,235.5625 L189.9194,237.0156 Q189.9194,237.625 189.685,237.8906 Q189.4506,238.1563 189.0756,238.1563 Q188.7319,238.1563 188.5288,237.9531 Q188.3256,237.7656 188.2163,237.25 Q188.1694,236.8906 187.9819,236.7031 Q187.6538,236.3281 187.0444,236.1094 Q186.435,235.8906 185.81,235.8906 Q185.0444,235.8906 184.4038,236.2188 Q183.7788,236.5469 183.2788,237.2969 Q182.7944,238.0469 182.7944,239.0781 L182.7944,240.1719 Q182.7944,241.4063 183.685,242.2344 Q184.5756,243.0469 186.1694,243.0469 Q187.1069,243.0469 187.7631,242.7969 Q188.1538,242.6406 188.5756,242.2031 Q188.8413,241.9375 188.9819,241.8594 Q189.1381,241.7813 189.3413,241.7813 Q189.6694,241.7813 189.9194,242.0469 Q190.185,242.2969 190.185,242.6406 Q190.185,242.9844 189.8413,243.3906 Q189.3413,243.9688 188.5444,244.2969 Q187.4663,244.75 186.1694,244.75 Q184.6538,244.75 183.4506,244.125 Q182.4663,243.625 181.7788,242.5625 Q181.0913,241.4844 181.0913,240.2031 L181.0913,239.0469 Q181.0913,237.7188 181.7006,236.5781 Q182.3256,235.4219 183.4194,234.8125 Q184.5131,234.1875 185.7475,234.1875 Q186.4819,234.1875 187.1225,234.3594 Q187.7788,234.5156 188.3256,234.875 Z " fill="#000000"/><text fill="#000000" font-family="sans-serif" font-size="14" lengthAdjust="spacing" textLength="59" x="199.56" y="244.7285">TurnView</text><line style="stroke:#181818;stroke-width:0.5;" x1="171.56" x2="260.56" y1="255" y2="255"/><line style="stroke:#181818;stroke-width:0.5;" x1="171.56" x2="260.56" y1="263" y2="263"/></g><!--MD5=[49feb4884a66ed250f9a27795111a05a]
class MessageView--><g id="elem_MessageView"><rect fill="#F1F1F1" height="48" id="MessageView" rx="2.5" ry="2.5" style="stroke:#181818;stroke-width:0.5;" width="118" x="60.06" y="439"/><ellipse cx="75.06" cy="455" fill="#ADD1B2" rx="11" ry="11" style="stroke:#181818;stroke-width:1.0;"/><path d="M77.8256,450.875 Q77.9819,450.6563 78.1694,450.5469 Q78.3569,450.4375 78.5756,450.4375 Q78.9506,450.4375 79.185,450.7031 Q79.4194,450.9531 79.4194,451.5625 L79.4194,453.0156 Q79.4194,453.625 79.185,453.8906 Q78.9506,454.1563 78.5756,454.1563 Q78.2319,454.1563 78.0288,453.9531 Q77.8256,453.7656 77.7163,453.25 Q77.6694,452.8906 77.4819,452.7031 Q77.1538,452.3281 76.5444,452.1094 Q75.935,451.8906 75.31,451.8906 Q74.5444,451.8906 73.9038,452.2188 Q73.2788,452.5469 72.7788,453.2969 Q72.2944,454.0469 72.2944,455.0781 L72.2944,456.1719 Q72.2944,457.4063 73.185,458.2344 Q74.0756,459.0469 75.6694,459.0469 Q76.6069,459.0469 77.2631,458.7969 Q77.6538,458.6406 78.0756,458.2031 Q78.3413,457.9375 78.4819,457.8594 Q78.6381,457.7813 78.8413,457.7813 Q79.1694,457.7813 79.4194,458.0469 Q79.685,458.2969 79.685,458.6406 Q79.685,458.9844 79.3413,459.3906 Q78.8413,459.9688 78.0444,460.2969 Q76.9663,460.75 75.6694,460.75 Q74.1538,460.75 72.9506,460.125 Q71.9663,459.625 71.2788,458.5625 Q70.5913,457.4844 70.5913,456.2031 L70.5913,455.0469 Q70.5913,453.7188 71.2006,452.5781 Q71.8256,451.4219 72.9194,450.8125 Q74.0131,450.1875 75.2475,450.1875 Q75.9819,450.1875 76.6225,450.3594 Q77.2788,450.5156 77.8256,450.875 Z " fill="#000000"/><text fill="#000000" font-family="sans-serif" font-size="14" lengthAdjust="spacing" textLength="86" x="89.06" y="460.7285">MessageView</text><line style="stroke:#181818;stroke-width:0.5;" x1="61.06" x2="177.06" y1="471" y2="471"/><line style="stroke:#181818;stroke-width:0.5;" x1="61.06" x2="177.06" y1="479" y2="479"/></g><!--MD5=[af194e474b2c37e443a340884399de77]
class PlayerView--><g id="elem_PlayerView"><rect fill="#F1F1F1" height="48" id="PlayerView" rx="2.5" ry="2.5" style="stroke:#181818;stroke-width:0.5;" width="101" x="221.56" y="331"/><ellipse cx="236.56" cy="347" fill="#ADD1B2" rx="11" ry="11" style="stroke:#181818;stroke-width:1.0;"/><path d="M239.3256,342.875 Q239.4819,342.6563 239.6694,342.5469 Q239.8569,342.4375 240.0756,342.4375 Q240.4506,342.4375 240.685,342.7031 Q240.9194,342.9531 240.9194,343.5625 L240.9194,345.0156 Q240.9194,345.625 240.685,345.8906 Q240.4506,346.1563 240.0756,346.1563 Q239.7319,346.1563 239.5288,345.9531 Q239.3256,345.7656 239.2163,345.25 Q239.1694,344.8906 238.9819,344.7031 Q238.6538,344.3281 238.0444,344.1094 Q237.435,343.8906 236.81,343.8906 Q236.0444,343.8906 235.4038,344.2188 Q234.7788,344.5469 234.2788,345.2969 Q233.7944,346.0469 233.7944,347.0781 L233.7944,348.1719 Q233.7944,349.4063 234.685,350.2344 Q235.5756,351.0469 237.1694,351.0469 Q238.1069,351.0469 238.7631,350.7969 Q239.1538,350.6406 239.5756,350.2031 Q239.8413,349.9375 239.9819,349.8594 Q240.1381,349.7813 240.3413,349.7813 Q240.6694,349.7813 240.9194,350.0469 Q241.185,350.2969 241.185,350.6406 Q241.185,350.9844 240.8413,351.3906 Q240.3413,351.9688 239.5444,352.2969 Q238.4663,352.75 237.1694,352.75 Q235.6538,352.75 234.4506,352.125 Q233.4663,351.625 232.7788,350.5625 Q232.0913,349.4844 232.0913,348.2031 L232.0913,347.0469 Q232.0913,345.7188 232.7006,344.5781 Q233.3256,343.4219 234.4194,342.8125 Q235.5131,342.1875 236.7475,342.1875 Q237.4819,342.1875 238.1225,342.3594 Q238.7788,342.5156 239.3256,342.875 Z " fill="#000000"/><text fill="#000000" font-family="sans-serif" font-size="14" lengthAdjust="spacing" textLength="69" x="250.56" y="352.7285">PlayerView</text><line style="stroke:#181818;stroke-width:0.5;" x1="222.56" x2="321.56" y1="363" y2="363"/><line style="stroke:#181818;stroke-width:0.5;" x1="222.56" x2="321.56" y1="371" y2="371"/></g><!--MD5=[86cec68673cafdfc1c204348d5b2cca6]
class ErrorView--><g id="elem_ErrorView"><rect fill="#F1F1F1" height="48" id="ErrorView" rx="2.5" ry="2.5" style="stroke:#181818;stroke-width:0.5;" width="93" x="284.56" y="439"/><ellipse cx="299.56" cy="455" fill="#ADD1B2" rx="11" ry="11" style="stroke:#181818;stroke-width:1.0;"/><path d="M302.3256,450.875 Q302.4819,450.6563 302.6694,450.5469 Q302.8569,450.4375 303.0756,450.4375 Q303.4506,450.4375 303.685,450.7031 Q303.9194,450.9531 303.9194,451.5625 L303.9194,453.0156 Q303.9194,453.625 303.685,453.8906 Q303.4506,454.1563 303.0756,454.1563 Q302.7319,454.1563 302.5288,453.9531 Q302.3256,453.7656 302.2163,453.25 Q302.1694,452.8906 301.9819,452.7031 Q301.6538,452.3281 301.0444,452.1094 Q300.435,451.8906 299.81,451.8906 Q299.0444,451.8906 298.4038,452.2188 Q297.7788,452.5469 297.2788,453.2969 Q296.7944,454.0469 296.7944,455.0781 L296.7944,456.1719 Q296.7944,457.4063 297.685,458.2344 Q298.5756,459.0469 300.1694,459.0469 Q301.1069,459.0469 301.7631,458.7969 Q302.1538,458.6406 302.5756,458.2031 Q302.8413,457.9375 302.9819,457.8594 Q303.1381,457.7813 303.3413,457.7813 Q303.6694,457.7813 303.9194,458.0469 Q304.185,458.2969 304.185,458.6406 Q304.185,458.9844 303.8413,459.3906 Q303.3413,459.9688 302.5444,460.2969 Q301.4663,460.75 300.1694,460.75 Q298.6538,460.75 297.4506,460.125 Q296.4663,459.625 295.7788,458.5625 Q295.0913,457.4844 295.0913,456.2031 L295.0913,455.0469 Q295.0913,453.7188 295.7006,452.5781 Q296.3256,451.4219 297.4194,450.8125 Q298.5131,450.1875 299.7475,450.1875 Q300.4819,450.1875 301.1225,450.3594 Q301.7788,450.5156 302.3256,450.875 Z " fill="#000000"/><text fill="#000000" font-family="sans-serif" font-size="14" lengthAdjust="spacing" textLength="61" x="313.56" y="460.7285">ErrorView</text><line style="stroke:#181818;stroke-width:0.5;" x1="285.56" x2="376.56" y1="471" y2="471"/><line style="stroke:#181818;stroke-width:0.5;" x1="285.56" x2="376.56" y1="479" y2="479"/></g><!--MD5=[5c0d2bf114541dffca76af5edd55a1b5]
class ColorView--><g id="elem_ColorView"><rect fill="#F1F1F1" height="48" id="ColorView" rx="2.5" ry="2.5" style="stroke:#181818;stroke-width:0.5;" width="95" x="725.56" y="547"/><ellipse cx="740.56" cy="563" fill="#ADD1B2" rx="11" ry="11" style="stroke:#181818;stroke-width:1.0;"/><path d="M743.3256,558.875 Q743.4819,558.6563 743.6694,558.5469 Q743.8569,558.4375 744.0756,558.4375 Q744.4506,558.4375 744.685,558.7031 Q744.9194,558.9531 744.9194,559.5625 L744.9194,561.0156 Q744.9194,561.625 744.685,561.8906 Q744.4506,562.1563 744.0756,562.1563 Q743.7319,562.1563 743.5288,561.9531 Q743.3256,561.7656 743.2163,561.25 Q743.1694,560.8906 742.9819,560.7031 Q742.6538,560.3281 742.0444,560.1094 Q741.435,559.8906 740.81,559.8906 Q740.0444,559.8906 739.4038,560.2188 Q738.7788,560.5469 738.2788,561.2969 Q737.7944,562.0469 737.7944,563.0781 L737.7944,564.1719 Q737.7944,565.4063 738.685,566.2344 Q739.5756,567.0469 741.1694,567.0469 Q742.1069,567.0469 742.7631,566.7969 Q743.1538,566.6406 743.5756,566.2031 Q743.8413,565.9375 743.9819,565.8594 Q744.1381,565.7813 744.3413,565.7813 Q744.6694,565.7813 744.9194,566.0469 Q745.185,566.2969 745.185,566.6406 Q745.185,566.9844 744.8413,567.3906 Q744.3413,567.9688 743.5444,568.2969 Q742.4663,568.75 741.1694,568.75 Q739.6538,568.75 738.4506,568.125 Q737.4663,567.625 736.7788,566.5625 Q736.0913,565.4844 736.0913,564.2031 L736.0913,563.0469 Q736.0913,561.7188 736.7006,560.5781 Q737.3256,559.4219 738.4194,558.8125 Q739.5131,558.1875 740.7475,558.1875 Q741.4819,558.1875 742.1225,558.3594 Q742.7788,558.5156 743.3256,558.875 Z " fill="#000000"/><text fill="#000000" font-family="sans-serif" font-size="14" lengthAdjust="spacing" textLength="63" x="754.56" y="568.7285">ColorView</text><line style="stroke:#181818;stroke-width:0.5;" x1="726.56" x2="819.56" y1="579" y2="579"/><line style="stroke:#181818;stroke-width:0.5;" x1="726.56" x2="819.56" y1="587" y2="587"/></g><!--MD5=[02ea7f29950e23bda8c82d72bcbd4b5e]
link TicTacToe to Turn--><g id="link_TicTacToe_Turn"><path codeLine="201" d="M636.06,67.16 C636.06,67.16 636.06,255.17 636.06,317.31 " fill="none" id="TicTacToe-Turn" style="stroke:#181818;stroke-width:1.0;"/><polygon fill="#181818" points="636.06,330.62,640.06,321.62,636.06,325.62,632.06,321.62,636.06,330.62" style="stroke:#181818;stroke-width:1.0;"/><line style="stroke:#181818;stroke-width:1.0;" x1="636.06" x2="636.06" y1="325.62" y2="317.62"/><polygon fill="#181818" points="636.06,55.16,632.06,61.16,636.06,67.16,640.06,61.16,636.06,55.16" style="stroke:#181818;stroke-width:1.0;"/></g><!--MD5=[a737d2231371e146ba098899a67f3b67]
link TicTacToe to Board--><g id="link_TicTacToe_Board"><path codeLine="202" d="M664.4932,64.3657 C664.4932,64.3657 744.06,175.86 744.06,246 C744.06,246 744.06,246 744.06,356 C744.06,416.26 733.57,431.95 709.06,487 C701.5,503.98 690.69,521.42 680.73,535.9 " fill="none" id="TicTacToe-Board" style="stroke:#181818;stroke-width:1.0;"/><polygon fill="#181818" points="673,546.82,681.4649,541.7856,675.889,542.7391,674.9355,537.1632,673,546.82" style="stroke:#181818;stroke-width:1.0;"/><line style="stroke:#181818;stroke-width:1.0;" x1="675.889" x2="680.515" y1="542.7391" y2="536.21"/><polygon fill="#181818" points="656.88,55.09,657.5947,62.2656,664.4932,64.3657,663.7785,57.1901,656.88,55.09" style="stroke:#181818;stroke-width:1.0;"/></g><!--MD5=[9fb0b5be90714f4d3ce7bddec924d8d3]
link TicTacToe to TicTacToeView--><g id="link_TicTacToe_TicTacToeView"><path codeLine="203" d="M610.24,55 C591.65,71.55 566.53,93.93 547.06,111.28 " fill="none" id="TicTacToe-to-TicTacToeView" style="stroke:#181818;stroke-width:1.0;stroke-dasharray:7.0,7.0;"/><polygon fill="#181818" points="543.24,114.68,552.6177,111.6703,546.9699,111.3502,547.2901,105.7024,543.24,114.68" style="stroke:#181818;stroke-width:1.0;"/></g><!--MD5=[c4d63bf0b6b53819d2a96070c243ee05]
link TicTacToeView to TurnView--><g id="link_TicTacToeView_TurnView"><path codeLine="204" d="M441.1748,166.7359 C441.1748,166.7359 321.57,208.84 274.37,225.46 " fill="none" id="TicTacToeView-TurnView" style="stroke:#181818;stroke-width:1.0;"/><polygon fill="#181818" points="261.91,229.85,271.7281,230.6284,266.6253,228.1868,269.0669,223.084,261.91,229.85" style="stroke:#181818;stroke-width:1.0;"/><line style="stroke:#181818;stroke-width:1.0;" x1="266.6253" x2="274.175" y1="228.1868" y2="225.535"/><polygon fill="#181818" points="452.49,162.74,445.5005,160.9662,441.1748,166.7359,448.1644,168.5097,452.49,162.74" style="stroke:#181818;stroke-width:1.0;"/></g><!--MD5=[95c7dca6a41e090705aeab8c427fefac]
link TicTacToeView to BoardView--><g id="link_TicTacToeView_BoardView"><path codeLine="205" d="M518.9128,175.1433 C518.9128,175.1433 528.84,363.17 532.12,425.31 " fill="none" id="TicTacToeView-BoardView" style="stroke:#181818;stroke-width:1.0;"/><polygon fill="#181818" points="532.82,438.62,536.3398,429.4216,532.5563,433.627,528.351,429.8434,532.82,438.62" style="stroke:#181818;stroke-width:1.0;"/><line style="stroke:#181818;stroke-width:1.0;" x1="532.5563" x2="532.135" y1="433.627" y2="425.64"/><polygon fill="#181818" points="518.28,163.16,514.602,169.3626,518.9128,175.1433,522.5908,168.9407,518.28,163.16" style="stroke:#181818;stroke-width:1.0;"/></g><!--MD5=[dcbacad4c2428272fc240273aaf37afe]
link TicTacToeView to YesNoDialogView--><g id="link_TicTacToeView_YesNoDialogView"><path codeLine="206" d="M485.3218,171.4523 C485.3218,171.4523 456.1,200.39 442.84,213.52 " fill="none" id="TicTacToeView-YesNoDialogView" style="stroke:#181818;stroke-width:1.0;"/><polygon fill="#181818" points="433.6,222.68,442.8061,219.1802,437.1492,219.1582,437.1712,213.5014,433.6,222.68" style="stroke:#181818;stroke-width:1.0;"/><line style="stroke:#181818;stroke-width:1.0;" x1="437.1492" x2="442.835" y1="219.1582" y2="213.53"/><polygon fill="#181818" points="493.84,163,486.7635,164.3867,485.3218,171.4523,492.3983,170.0655,493.84,163" style="stroke:#181818;stroke-width:1.0;"/></g><!--MD5=[b90c15517c5612720f6d3b5735a27f0e]
link TurnView to Turn--><g id="link_TurnView_Turn"><path codeLine="207" d="M273.447,262.4791 C273.447,262.4791 515.93,323.68 592.05,342.89 " fill="none" id="TurnView-Turn" style="stroke:#181818;stroke-width:1.0;"/><polygon fill="#181818" points="604.86,346.13,597.1069,340.0563,600.0109,344.9109,595.1563,347.8148,604.86,346.13" style="stroke:#181818;stroke-width:1.0;"/><line style="stroke:#181818;stroke-width:1.0;" x1="600.0109" x2="592.26" y1="344.9109" y2="342.945"/><polygon fill="#181818" points="261.81,259.55,266.6522,264.8935,273.447,262.4791,268.6049,257.1355,261.81,259.55" style="stroke:#181818;stroke-width:1.0;"/></g><!--MD5=[6923f3b6cbb46d31e5cfb611c2d1bb65]
link TurnView to BoundedCoordinate--><g id="link_TurnView_BoundedCoordinate"><path codeLine="208" d="M170.36,264.08 C138.14,277.5 96.08,299.55 69.06,331 C22.34,385.37 6,418.79 28.06,487 C87.01,669.3 237.65,615.18 425.06,655 C429.13,655.87 433.3,656.77 437.51,657.7 " fill="none" id="TurnView-to-BoundedCoordinate" style="stroke:#181818;stroke-width:1.0;"/><polygon fill="#181818" points="442.46,658.81,434.542,652.9529,437.5791,657.7253,432.8066,660.7624,442.46,658.81" style="stroke:#181818;stroke-width:1.0;"/></g><!--MD5=[ce12fa0eb27ec597f6ce0ec18b22dbf8]
link TurnView to MessageView--><g id="link_TurnView_MessageView"><path codeLine="209" d="M205.49,271.31 C187.53,310.95 151.1,391.32 131.77,433.96 " fill="none" id="TurnView-to-MessageView" style="stroke:#181818;stroke-width:1.0;stroke-dasharray:7.0,7.0;"/><polygon fill="#181818" points="129.61,438.72,136.9757,432.1819,131.679,434.1682,129.6928,428.8715,129.61,438.72" style="stroke:#181818;stroke-width:1.0;"/></g><!--MD5=[ed779b550861d9265ce54ae19c07d8f5]
link TurnView to PlayerView--><g id="link_TurnView_PlayerView"><path codeLine="210" d="M228.21,271 C236.74,287.14 248.19,308.82 257.25,325.97 " fill="none" id="TurnView-to-PlayerView" style="stroke:#181818;stroke-width:1.0;stroke-dasharray:7.0,7.0;"/><polygon fill="#181818" points="259.74,330.68,259.0919,320.8525,257.413,326.2545,252.011,324.5756,259.74,330.68" style="stroke:#181818;stroke-width:1.0;"/></g><!--MD5=[98b3438e5702f15b2f6989cee4172b55]
link TurnView to Message--><g id="link_TurnView_Message"><path codeLine="211" d="M183.7,271 C141.71,303.07 70.48,365.59 42.06,439 C34.36,458.89 31.94,468.22 42.06,487 C58.27,517.08 90.67,538.06 118.56,551.4 " fill="none" id="TurnView-to-Message" style="stroke:#181818;stroke-width:1.0;stroke-dasharray:7.0,7.0;"/><polygon fill="#181818" points="123.35,553.64,116.9064,546.1915,118.8249,551.5131,113.5033,553.4316,123.35,553.64" style="stroke:#181818;stroke-width:1.0;"/></g><!--MD5=[d81713d91ad05be3b975338c4816ee0b]
link Turn to Player--><g id="link_Turn_Player"><path codeLine="212" d="M642.3046,390.8104 C642.3046,390.8104 646.58,414.68 648.53,425.58 " fill="none" id="Turn-Player" style="stroke:#181818;stroke-width:1.0;"/><polygon fill="#181818" points="650.88,438.68,653.2234,429.114,649.9948,433.759,645.3498,430.5304,650.88,438.68" style="stroke:#181818;stroke-width:1.0;"/><line style="stroke:#181818;stroke-width:1.0;" x1="649.9948" x2="648.585" y1="433.759" y2="425.885"/><polygon fill="#181818" points="640.18,379,637.3055,385.6134,642.3046,390.8104,645.1791,384.197,640.18,379" style="stroke:#181818;stroke-width:1.0;"/><text fill="#000000" font-family="sans-serif" font-size="13" lengthAdjust="spacing" textLength="7" x="642.008" y="428.34">2</text></g><!--MD5=[c1f7e88598f78d9459764ed93737eb14]
link Player to Board--><g id="link_Player_Board"><path codeLine="213" d="M655.06,487 C655.06,503 655.06,524.45 655.06,541.53 " fill="none" id="Player-to-Board" style="stroke:#181818;stroke-width:1.0;"/><polygon fill="#181818" points="655.06,546.68,659.06,537.68,655.06,541.68,651.06,537.68,655.06,546.68" style="stroke:#181818;stroke-width:1.0;"/></g><!--MD5=[ebf52a6f230ff8b0d594dd9ce4cd7c5b]
link Player to Color--><g id="link_Player_Color"><path codeLine="214" d="M691.12,468.72 C734.53,476.55 805.65,496.71 838.06,547 C860.17,581.31 828.87,624.2 802.52,651.35 " fill="none" id="Player-to-Color" style="stroke:#181818;stroke-width:1.0;"/><polygon fill="#181818" points="799.01,654.91,808.1808,651.3188,802.524,651.3531,802.4898,645.6964,799.01,654.91" style="stroke:#181818;stroke-width:1.0;"/></g><!--MD5=[d7c49a2c67de04dd46fc6efbc83b34f6]
link PlayerView to Player--><g id="link_PlayerView_Player"><path codeLine="215" d="M322.65,366.2 C387.85,379.93 504.34,406.42 601.06,439 C605.38,440.46 609.85,442.11 614.27,443.84 " fill="none" id="PlayerView-to-Player" style="stroke:#181818;stroke-width:1.0;stroke-dasharray:7.0,7.0;"/><polygon fill="#181818" points="619.05,445.75,612.1606,438.7118,614.4027,443.9054,609.2092,446.1475,619.05,445.75" style="stroke:#181818;stroke-width:1.0;"/></g><!--MD5=[5d3bf25e2a82fa01272e0e1c6d0f0a54]
link PlayerView to ErrorView--><g id="link_PlayerView_ErrorView"><path codeLine="216" d="M284.86,379 C293.84,395.14 305.91,416.82 315.46,433.97 " fill="none" id="PlayerView-to-ErrorView" style="stroke:#181818;stroke-width:1.0;stroke-dasharray:7.0,7.0;"/><polygon fill="#181818" points="318.08,438.68,317.1922,428.8712,315.6457,434.3126,310.2044,432.7661,318.08,438.68" style="stroke:#181818;stroke-width:1.0;"/></g><!--MD5=[1e0a8206d6bada1f11af6bd4b0096de3]
link PlayerView to Error--><g id="link_PlayerView_Error"><path codeLine="217" d="M322.58,375.98 C349.31,389.46 379.7,410.11 395.06,439 C413.91,474.47 384.63,516.13 359.52,542.79 " fill="none" id="PlayerView-to-Error" style="stroke:#181818;stroke-width:1.0;stroke-dasharray:7.0,7.0;"/><polygon fill="#181818" points="355.85,546.61,364.9766,542.9079,359.3207,543.0108,359.2178,537.3549,355.85,546.61" style="stroke:#181818;stroke-width:1.0;"/></g><!--MD5=[35516e7f460b075e9d9ea8b49170d6ed]
link PlayerView to MessageView--><g id="link_PlayerView_MessageView"><path codeLine="218" d="M238.86,379 C214.68,395.75 181.9,418.46 156.74,435.89 " fill="none" id="PlayerView-to-MessageView" style="stroke:#181818;stroke-width:1.0;stroke-dasharray:7.0,7.0;"/><polygon fill="#181818" points="152.46,438.86,162.1352,437.0189,156.5689,436.011,157.5768,430.4446,152.46,438.86" style="stroke:#181818;stroke-width:1.0;"/></g><!--MD5=[f2aefae2b2dc7e4e35e192c39b2cd7d2]
link PlayerView to Message--><g id="link_PlayerView_Message"><path codeLine="219" d="M260.73,379.31 C241.43,419.03 202.25,499.65 181.56,542.22 " fill="none" id="PlayerView-to-Message" style="stroke:#181818;stroke-width:1.0;stroke-dasharray:7.0,7.0;"/><polygon fill="#181818" points="179.37,546.72,186.9002,540.372,181.5545,542.2225,179.7041,536.8768,179.37,546.72" style="stroke:#181818;stroke-width:1.0;"/></g><!--MD5=[86870cdabd6f68629f04aeac36e6c4ff]
link ErrorView to Error--><g id="link_ErrorView_Error"><path codeLine="220" d="M330.7345,498.9995 C330.7345,498.9995 330.5,522.68 330.4,533.36 " fill="none" id="ErrorView-Error" style="stroke:#181818;stroke-width:1.0;"/><polygon fill="#181818" points="330.28,546.68,334.359,537.7155,330.324,541.6802,326.3593,537.6452,330.28,546.68" style="stroke:#181818;stroke-width:1.0;"/><line style="stroke:#181818;stroke-width:1.0;" x1="330.324" x2="330.4" y1="541.6802" y2="533.68"/><polygon fill="#181818" points="330.84,487,326.7874,492.9646,330.7345,498.9995,334.7871,493.0349,330.84,487" style="stroke:#181818;stroke-width:1.0;"/></g><!--MD5=[e8e56f95b2bfb8e03c3cdf9f0e0c50ee]
link Board to Color--><g id="link_Board_Color"><path codeLine="221" d="M689.588,603.0181 C689.588,603.0181 722.37,632.47 737.24,645.82 " fill="none" id="Board-Color" style="stroke:#181818;stroke-width:1.0;"/><polygon fill="#181818" points="747.1,654.68,743.0767,645.6904,743.38,651.3391,737.7313,651.6424,747.1,654.68" style="stroke:#181818;stroke-width:1.0;"/><line style="stroke:#181818;stroke-width:1.0;" x1="743.38" x2="737.43" y1="651.3391" y2="645.995"/><polygon fill="#181818" points="680.66,595,682.4513,601.9851,689.588,603.0181,687.7967,596.033,680.66,595" style="stroke:#181818;stroke-width:1.0;"/><text fill="#000000" font-family="sans-serif" font-size="13" lengthAdjust="spacing" textLength="21" x="717.2129" y="644.34">3x3</text></g><!--MD5=[d8c80b8b9c444f47b0e4e65e9836afb1]
link Board to BoundedCoordinate--><g id="link_Board_BoundedCoordinate"><path codeLine="222" d="M626.2,595 C605.34,611.62 577.12,634.12 555.31,651.5 " fill="none" id="Board-to-BoundedCoordinate" style="stroke:#181818;stroke-width:1.0;stroke-dasharray:7.0,7.0;"/><polygon fill="#181818" points="551.32,654.68,560.8533,652.2067,555.2327,651.567,555.8724,645.9464,551.32,654.68" style="stroke:#181818;stroke-width:1.0;"/></g><!--MD5=[a676224b545de2f8b00c905b7798379b]
link Board to Direction--><g id="link_Board_Direction"><path codeLine="223" d="M651.25,595.16 C641.76,652.8 617.1,802.61 606.75,865.52 " fill="none" id="Board-to-Direction" style="stroke:#181818;stroke-width:1.0;stroke-dasharray:7.0,7.0;"/><polygon fill="#181818" points="605.91,870.62,611.3197,862.3899,606.7227,865.6865,603.4261,861.0895,605.91,870.62" style="stroke:#181818;stroke-width:1.0;"/></g><!--MD5=[02a16ebf8539d2e5d44c3be387606aac]
link BoardView to Message--><g id="link_BoardView_Message"><path codeLine="224" d="M484.32,478.41 C414.36,498.67 287.67,535.36 217.74,555.61 " fill="none" id="BoardView-to-Message" style="stroke:#181818;stroke-width:1.0;stroke-dasharray:7.0,7.0;"/><polygon fill="#181818" points="212.81,557.04,222.57,558.36,217.61,555.64,220.33,550.68,212.81,557.04" style="stroke:#181818;stroke-width:1.0;"/></g><!--MD5=[b1b16844be71be516126163f154c9543]
link BoardView to BoundedCoordinateView--><g id="link_BoardView_BoundedCoordinateView"><path codeLine="225" d="M524.73,487 C518.18,503.14 509.39,524.82 502.43,541.97 " fill="none" id="BoardView-to-BoundedCoordinateView" style="stroke:#181818;stroke-width:1.0;stroke-dasharray:7.0,7.0;"/><polygon fill="#181818" points="500.52,546.68,507.6019,539.8356,502.3942,542.0446,500.1852,536.8368,500.52,546.68" style="stroke:#181818;stroke-width:1.0;"/></g><!--MD5=[87ac28f7ff846e55e34c2c863c6ff220]
link BoardView to Board--><g id="link_BoardView_Board"><path codeLine="226" d="M569.3368,494.9067 C569.3368,494.9067 603.08,524.47 618.33,537.82 " fill="none" id="BoardView-Board" style="stroke:#181818;stroke-width:1.0;"/><polygon fill="#181818" points="628.44,546.68,624.3119,537.738,624.6812,543.3828,619.0364,543.7521,628.44,546.68" style="stroke:#181818;stroke-width:1.0;"/><line style="stroke:#181818;stroke-width:1.0;" x1="624.6812" x2="618.66" y1="543.3828" y2="538.11"/><polygon fill="#181818" points="560.31,487,562.1878,493.9623,569.3368,494.9067,567.459,487.9444,560.31,487" style="stroke:#181818;stroke-width:1.0;"/></g><!--MD5=[50d2c791ff67128bf0c4b51052450f86]
link BoardView to ColorView--><g id="link_BoardView_ColorView"><path codeLine="227" d="M583.58,485.96 C623.52,503.68 679.57,528.54 720.34,546.62 " fill="none" id="BoardView-to-ColorView" style="stroke:#181818;stroke-width:1.0;stroke-dasharray:7.0,7.0;"/><polygon fill="#181818" points="725.23,548.79,718.626,541.4833,720.6598,546.762,715.3811,548.7957,725.23,548.79" style="stroke:#181818;stroke-width:1.0;"/></g><!--MD5=[b9251e4013ca15f5b0f1633cdb410afd]
link BoundedCoordinate to Coordinate--><g id="link_BoundedCoordinate_Coordinate"><path codeLine="228" d="M526.6695,714.8969 C526.6695,714.8969 529.84,738.94 531.27,749.72 " fill="none" id="BoundedCoordinate-Coordinate" style="stroke:#181818;stroke-width:1.0;"/><polygon fill="#181818" points="532.98,762.68,535.7582,753.2311,532.3206,757.7237,527.8281,754.2861,532.98,762.68" style="stroke:#181818;stroke-width:1.0;"/><line style="stroke:#181818;stroke-width:1.0;" x1="532.3206" x2="531.28" y1="757.7237" y2="749.79"/><polygon fill="#181818" points="525.1,703,521.9191,709.4716,526.6695,714.8969,529.8504,708.4253,525.1,703" style="stroke:#181818;stroke-width:1.0;"/></g><!--MD5=[2ece631038b7899e5b9aaea57adaf24e]
link Coordinate to Direction--><g id="link_Coordinate_Direction"><path codeLine="229" d="M550.38,811 C560.52,827.28 574.16,849.19 584.88,866.41 " fill="none" id="Coordinate-to-Direction" style="stroke:#181818;stroke-width:1.0;stroke-dasharray:7.0,7.0;"/><polygon fill="#181818" points="587.54,870.68,586.1768,860.9259,584.8964,866.436,579.3864,865.1557,587.54,870.68" style="stroke:#181818;stroke-width:1.0;"/></g><!--MD5=[59c01539060899e07b035d5ae232e8ad]
link BoundedCoordinateView to BoundedIntDialogView--><g id="link_BoundedCoordinateView_BoundedIntDialogView"><path codeLine="230" d="M454.17,595 C427.2,611.82 390.58,634.65 362.58,652.11 " fill="none" id="BoundedCoordinateView-to-BoundedIntDialogView" style="stroke:#181818;stroke-width:1.0;stroke-dasharray:7.0,7.0;"/><polygon fill="#181818" points="358.17,654.86,367.9207,653.4732,362.4076,652.2062,363.6746,646.693,358.17,654.86" style="stroke:#181818;stroke-width:1.0;"/></g><!--MD5=[f6ad6412a23111fb77841ad26501d5a9]
link BoundedCoordinateView to BoundedCoordinate--><g id="link_BoundedCoordinateView_BoundedCoordinate"><path codeLine="231" d="M497.78,595 C502.46,611 508.74,632.45 513.73,649.53 " fill="none" id="BoundedCoordinateView-to-BoundedCoordinate" style="stroke:#181818;stroke-width:1.0;stroke-dasharray:7.0,7.0;"/><polygon fill="#181818" points="515.24,654.68,516.56,644.92,513.84,649.88,508.88,647.16,515.24,654.68" style="stroke:#181818;stroke-width:1.0;"/></g><!--MD5=[63ade5c193cdfaa177a14dee5015aff8]
link BoundedIntDialogView to ClosedInterval--><g id="link_BoundedIntDialogView_ClosedInterval"><path codeLine="232" d="M321.06,703 C321.06,719 321.06,740.45 321.06,757.53 " fill="none" id="BoundedIntDialogView-to-ClosedInterval" style="stroke:#181818;stroke-width:1.0;stroke-dasharray:7.0,7.0;"/><polygon fill="#181818" points="321.06,762.68,325.06,753.68,321.06,757.68,317.06,753.68,321.06,762.68" style="stroke:#181818;stroke-width:1.0;"/></g><!--MD5=[a31fa164961aa559970146a0c482d415]
link MessageView to Message--><g id="link_MessageView_Message"><path codeLine="233" d="M134.7271,497.8917 C134.7271,497.8917 146.45,523.25 151.78,534.78 " fill="none" id="MessageView-Message" style="stroke:#181818;stroke-width:1.0;"/><polygon fill="#181818" points="157.28,546.68,157.1328,536.8322,155.1812,542.1418,149.8717,540.1903,157.28,546.68" style="stroke:#181818;stroke-width:1.0;"/><line style="stroke:#181818;stroke-width:1.0;" x1="155.1812" x2="151.82" y1="542.1418" y2="534.88"/><polygon fill="#181818" points="129.69,487,128.578,494.1248,134.7271,497.8917,135.8391,490.7668,129.69,487" style="stroke:#181818;stroke-width:1.0;"/></g><!--MD5=[3c978e882819d5791a3d8cfa6d73d565]
link ColorView to Color--><g id="link_ColorView_Color"><path codeLine="234" d="M773.06,607 C773.06,607 773.06,630.68 773.06,641.36 " fill="none" id="ColorView-Color" style="stroke:#181818;stroke-width:1.0;"/><polygon fill="#181818" points="773.06,654.68,777.06,645.68,773.06,649.68,769.06,645.68,773.06,654.68" style="stroke:#181818;stroke-width:1.0;"/><line style="stroke:#181818;stroke-width:1.0;" x1="773.06" x2="773.06" y1="649.68" y2="641.68"/><polygon fill="#181818" points="773.06,595,769.06,601,773.06,607,777.06,601,773.06,595" style="stroke:#181818;stroke-width:1.0;"/></g><!--MD5=[2d52627328ae1d66176741f0e2e75c23]
@startuml

class Board {
	' + Board() 
	' + void reset() 
	' + boolean isComplete(Color)
	' - Coordinate[] getCoordinates(Color)
	' + void putToken(Coordinate, Color)
	' + void moveToken(Coordinate, Coordinate) 
	' - Color getColor(Coordinate) 
	' + boolean isOccupied(Coordinate, Color) 
	' + boolean isEmpty(Coordinate)
	' + boolean isTicTacToe(Color) 
	' - Direction[] getDirections(Color)
	' + void write()
	' + boolean isComplete(Color)
}

class BoardView {
	' - Board board
	' + BoardView(board)
	' + void write()
}

class BoundedIntDialogView {
	' - ClosedInterval LIMITS
	' + BoundedIntDialog(int, int)
	' + int read(String) 
	' - String getLimits()
}

enum Color {
	' X,
	' O,
	' NULL
	' + {static} Color get(int)
	' + void write() 
	' + boolean isNull()
}

' class Console {
' 	- {static} Console instance = new Console()
' 	+ {static} Console getInstance()
' 	- BufferedReader bufferedReader
' 	+ String readString(String) 
' 	+ String readString()
' 	+ int readInt(String) 
' 	+ char readChar(String) 
' 	+ void write(String)
' 	+ void write(int)
' 	+ void write(char)
' 	+ void writeln()
' 	+ void writeln(String)
' 	+ void writeln(int) 
' 	+ void writeError(String) 
' }

class Coordinate {
	' - int row
	' - int column
	' + Coordinate() 
	' + Coordinate(int, int) 
	' + Direction getDirection(Coordinate)
	' - boolean inHorizontal(Coordinate)
	' - boolean inVertical(Coordinate)
	' - boolean inMainDiagonal() 
	' - boolean inInverseDiagonal() 
	' + String getErrorMessage() 
	' + int getRow()
	' + int getColumn()
	' + boolean equals(Coordinate)
}

class BoundedCoordinate {
	' - {static} int DIMENSION = 3
	' - Coordinate coordinate
	' + {static} int getDimension()
	' + BoundedCoordinate() 
	' + BoundedCoordinate(int, int) 
	' + Direction getDirection(Coordinate)
	' + int getRow()
	' + int getColumn()
}

class BoundedCoordinateView {
	' - BoundedCoordinate Boundedcoordinate
	' + void read(String)
	' + String getErrorMessage() 

}

enum Direction {
	' VERTICAL,
	' HORIZONTAL,
	' MAIN_DIAGONAL,
	' INVERSE_DIAGONAL,
	' NULL
	' + boolean isNull() 
}

enum Error {
	' NOT_EMPTY
	' NOT_OWNER
	' SAME_COORDINATES
	' WRONG_COORDINATES
	' NULL
	' - String message
	' - Error()
	' - Error(String)
	' + void writeln()
	' + boolean isNull()
}

enum Message {
	' TITLE
	' HORIZONTAL_LINE
	' VERTICAL_LINE
	' NULL_COLOR
	' TURN
	' ENTER_COORDINATE_TO_PUT
	' COORDINATE_TO_PUT
	' COORDINATE_TO_REMOVE
	' COORDINATE_TO_MOVE
	' ROW
	' COLUMN
	' BOUNDED_INT_ERROR
	' LIMITS
	' CLOSED_INTERVAL
	' PLAYER_WIN
	' RESUME
	' YES_NO_SUFFIX
	' YES_NO_ERROR
	' + {static} char AFFIRMATIVE
	' + {static} char NEGATIVE
	' + {static} String $COLOR
	' + {static} String $PLAYER
	' + {static} String $CLOSED_INTERVAL
	' + {static} String $MIN
	' + {static} String $MAX
	' - String message
	' - Message(String)
	' + void write()
	' + void writeln() 
	' + void writeln(String)
	' + String toString() 
}

class Player {
	' + Player(Color, Board)
	' + void play() 
	' - void putToken()
	' - Coordinate getCoordinate(Message) 
	' - Error getPutTokenError(Coordinate)
	' - void moveToken() 
	' - Error getOriginMoveTokenError(Coordinate) 
	' - Error getTargetMoveTokenError(Coordinate, Coordinate)
	' + void writeWinner() 
	' + Color getColor() 
}

class TicTacToe {
	' - TicTacToe() 
	' - void play() 
	' - void playGame() 
	' - boolean isResumedGame() 
	' + {static} void main(String[])
}

class TicTacToeView {
	' - TicTacToe ticTacToe;
	' - TicTacToe()
	' + {static} void main(String[])
}

class Turn {
	' - {static} int NUMBER_PLAYERS = 2
	' - int activePlayer
	' + Turn(Board) 
	' + void reset()
	' + void play()
	' + void writeWinner()
	' + Color getActiveColor() 
}

class YesNoDialogView {
	' - String answer
	' + void read(String)
	' + boolean isAffirmative()
	' - char getAnswer() 
	' + boolean isNegative() 
}

class ClosedInterval {
	' - int min;
	' - int max;
	' + ClosedInterval(int, int) 
	' + boolean isIncluded(int) 
	' + String toString()
	' + boolean equals(ClosedInterval)
}

TicTacToe *- -> Turn
TicTacToe *- -> Board
TicTacToe ..> TicTacToeView
TicTacToeView *- -> TurnView
TicTacToeView *- -> BoardView
TicTacToeView *- -> YesNoDialogView
TurnView *- -> Turn
TurnView - -> BoundedCoordinate
TurnView ..> MessageView
TurnView ..> PlayerView
TurnView ..> Message
Turn *- -> "2" Player
Player - -> Board
Player - -> Color
PlayerView ..> Player
PlayerView ..> ErrorView
PlayerView ..> Error
PlayerView ..> MessageView
PlayerView ..> Message
ErrorView *- -> Error
Board *- -> "3x3" Color
Board ..> BoundedCoordinate
Board ..> Direction
BoardView ..> Message
BoardView ..> BoundedCoordinateView
BoardView *- -> Board
BoardView ..> ColorView
BoundedCoordinate *- -> Coordinate
Coordinate ..> Direction
BoundedCoordinateView ..> BoundedIntDialogView
BoundedCoordinateView ..> BoundedCoordinate
BoundedIntDialogView ..> ClosedInterval
MessageView *- -> Message
ColorView *- -> Color

@enduml

@startuml

class Board {
}

class BoardView {
}

class BoundedIntDialogView {
}

enum Color {
}


class Coordinate {
}

class BoundedCoordinate {
}

class BoundedCoordinateView {

}

enum Direction {
}

enum Error {
}

enum Message {
}

class Player {
}

class TicTacToe {
}

class TicTacToeView {
}

class Turn {
}

class YesNoDialogView {
}

class ClosedInterval {
}

TicTacToe *- -> Turn
TicTacToe *- -> Board
TicTacToe ..> TicTacToeView
TicTacToeView *- -> TurnView
TicTacToeView *- -> BoardView
TicTacToeView *- -> YesNoDialogView
TurnView *- -> Turn
TurnView - -> BoundedCoordinate
TurnView ..> MessageView
TurnView ..> PlayerView
TurnView ..> Message
Turn *- -> "2" Player
Player - -> Board
Player - -> Color
PlayerView ..> Player
PlayerView ..> ErrorView
PlayerView ..> Error
PlayerView ..> MessageView
PlayerView ..> Message
ErrorView *- -> Error
Board *- -> "3x3" Color
Board ..> BoundedCoordinate
Board ..> Direction
BoardView ..> Message
BoardView ..> BoundedCoordinateView
BoardView *- -> Board
BoardView ..> ColorView
BoundedCoordinate *- -> Coordinate
Coordinate ..> Direction
BoundedCoordinateView ..> BoundedIntDialogView
BoundedCoordinateView ..> BoundedCoordinate
BoundedIntDialogView ..> ClosedInterval
MessageView *- -> Message
ColorView *- -> Color

@enduml

PlantUML version 1.2022.7(Mon Aug 22 19:01:30 CEST 2022)
(GPL source distribution)
Java Runtime: OpenJDK Runtime Environment
JVM: OpenJDK 64-Bit Server VM
Default Encoding: UTF-8
Language: es
Country: ES
--></g></svg>