<?xml version="1.0" encoding="us-ascii" standalone="no"?><svg xmlns="http://www.w3.org/2000/svg" xmlns:xlink="http://www.w3.org/1999/xlink" contentStyleType="text/css" height="1273px" preserveAspectRatio="none" style="width:1475px;height:1273px;background:#FFFFFF;" version="1.1" viewBox="0 0 1475 1273" width="1475px" zoomAndPan="magnify"><defs/><g><!--class EducationPlatform--><g id="elem_EducationPlatform"><rect codeLine="2" fill="#F1F1F1" height="48" id="EducationPlatform" rx="2.5" ry="2.5" style="stroke:#181818;stroke-width:0.5;" width="158" x="568" y="7"/><ellipse cx="583" cy="23" fill="#ADD1B2" rx="11" ry="11" style="stroke:#181818;stroke-width:1.0;"/><path d="M585.4731,29.1431 Q584.8921,29.4419 584.2529,29.5913 Q583.6138,29.7407 582.9082,29.7407 Q580.4014,29.7407 579.0815,28.0889 Q577.7617,26.437 577.7617,23.3159 Q577.7617,20.1865 579.0815,18.5347 Q580.4014,16.8828 582.9082,16.8828 Q583.6138,16.8828 584.2612,17.0322 Q584.9087,17.1816 585.4731,17.4805 L585.4731,20.2031 Q584.8423,19.6221 584.2488,19.3523 Q583.6553,19.0825 583.0244,19.0825 Q581.6797,19.0825 580.9949,20.1492 Q580.3101,21.2158 580.3101,23.3159 Q580.3101,25.4077 580.9949,26.4744 Q581.6797,27.541 583.0244,27.541 Q583.6553,27.541 584.2488,27.2712 Q584.8423,27.0015 585.4731,26.4204 Z " fill="#000000"/><text fill="#000000" font-family="sans-serif" font-size="14" lengthAdjust="spacing" textLength="126" x="597" y="28.291">EducationPlatform</text><line style="stroke:#181818;stroke-width:0.5;" x1="569" x2="725" y1="39" y2="39"/><line style="stroke:#181818;stroke-width:0.5;" x1="569" x2="725" y1="47" y2="47"/></g><!--class Teacher--><g id="elem_Teacher"><rect fill="#F1F1F1" height="48" id="Teacher" rx="2.5" ry="2.5" style="stroke:#181818;stroke-width:0.5;" width="87" x="328.5" y="140.24"/><ellipse cx="343.5" cy="156.24" fill="#ADD1B2" rx="11" ry="11" style="stroke:#181818;stroke-width:1.0;"/><path d="M345.9731,162.3831 Q345.3921,162.6819 344.7529,162.8313 Q344.1138,162.9807 343.4082,162.9807 Q340.9014,162.9807 339.5815,161.3289 Q338.2617,159.677 338.2617,156.5559 Q338.2617,153.4265 339.5815,151.7747 Q340.9014,150.1228 343.4082,150.1228 Q344.1138,150.1228 344.7612,150.2722 Q345.4087,150.4216 345.9731,150.7205 L345.9731,153.4431 Q345.3423,152.8621 344.7488,152.5923 Q344.1553,152.3225 343.5244,152.3225 Q342.1797,152.3225 341.4949,153.3892 Q340.8101,154.4558 340.8101,156.5559 Q340.8101,158.6477 341.4949,159.7144 Q342.1797,160.781 343.5244,160.781 Q344.1553,160.781 344.7488,160.5112 Q345.3423,160.2415 345.9731,159.6604 Z " fill="#000000"/><text fill="#000000" font-family="sans-serif" font-size="14" lengthAdjust="spacing" textLength="55" x="357.5" y="161.531">Teacher</text><line style="stroke:#181818;stroke-width:0.5;" x1="329.5" x2="414.5" y1="172.24" y2="172.24"/><line style="stroke:#181818;stroke-width:0.5;" x1="329.5" x2="414.5" y1="180.24" y2="180.24"/></g><!--class Student--><g id="elem_Student"><rect fill="#F1F1F1" height="48" id="Student" rx="2.5" ry="2.5" style="stroke:#181818;stroke-width:0.5;" width="85" x="450.5" y="140.24"/><ellipse cx="465.5" cy="156.24" fill="#ADD1B2" rx="11" ry="11" style="stroke:#181818;stroke-width:1.0;"/><path d="M467.9731,162.3831 Q467.3921,162.6819 466.7529,162.8313 Q466.1138,162.9807 465.4082,162.9807 Q462.9014,162.9807 461.5815,161.3289 Q460.2617,159.677 460.2617,156.5559 Q460.2617,153.4265 461.5815,151.7747 Q462.9014,150.1228 465.4082,150.1228 Q466.1138,150.1228 466.7612,150.2722 Q467.4087,150.4216 467.9731,150.7205 L467.9731,153.4431 Q467.3423,152.8621 466.7488,152.5923 Q466.1553,152.3225 465.5244,152.3225 Q464.1797,152.3225 463.4949,153.3892 Q462.8101,154.4558 462.8101,156.5559 Q462.8101,158.6477 463.4949,159.7144 Q464.1797,160.781 465.5244,160.781 Q466.1553,160.781 466.7488,160.5112 Q467.3423,160.2415 467.9731,159.6604 Z " fill="#000000"/><text fill="#000000" font-family="sans-serif" font-size="14" lengthAdjust="spacing" textLength="53" x="479.5" y="161.531">Student</text><line style="stroke:#181818;stroke-width:0.5;" x1="451.5" x2="534.5" y1="172.24" y2="172.24"/><line style="stroke:#181818;stroke-width:0.5;" x1="451.5" x2="534.5" y1="180.24" y2="180.24"/></g><!--class Topic--><g id="elem_Topic"><rect codeLine="17" fill="#F1F1F1" height="48" id="Topic" rx="2.5" ry="2.5" style="stroke:#181818;stroke-width:0.5;" width="70" x="480" y="304.49"/><ellipse cx="495" cy="320.49" fill="#A9DCDF" rx="11" ry="11" style="stroke:#181818;stroke-width:1.0;"/><path d="M495.1133,316.0881 L493.9595,321.1599 L496.2754,321.1599 Z M493.6191,313.8469 L496.6157,313.8469 L499.9609,326.24 L497.5122,326.24 L496.7485,323.177 L493.4697,323.177 L492.7227,326.24 L490.2739,326.24 Z " fill="#000000"/><text fill="#000000" font-family="sans-serif" font-size="14" font-style="italic" lengthAdjust="spacing" textLength="38" x="509" y="325.781">Topic</text><line style="stroke:#181818;stroke-width:0.5;" x1="481" x2="549" y1="336.49" y2="336.49"/><line style="stroke:#181818;stroke-width:0.5;" x1="481" x2="549" y1="344.49" y2="344.49"/></g><!--class Itinerary--><g id="elem_Itinerary"><rect codeLine="12" fill="#F1F1F1" height="64.4883" id="Itinerary" rx="2.5" ry="2.5" style="stroke:#181818;stroke-width:0.5;" width="144" x="642" y="132"/><ellipse cx="681.75" cy="148" fill="#ADD1B2" rx="11" ry="11" style="stroke:#181818;stroke-width:1.0;"/><path d="M684.2231,154.1431 Q683.6421,154.4419 683.0029,154.5913 Q682.3638,154.7407 681.6582,154.7407 Q679.1514,154.7407 677.8315,153.0889 Q676.5117,151.437 676.5117,148.3159 Q676.5117,145.1865 677.8315,143.5347 Q679.1514,141.8828 681.6582,141.8828 Q682.3638,141.8828 683.0112,142.0322 Q683.6587,142.1816 684.2231,142.4805 L684.2231,145.2031 Q683.5923,144.6221 682.9988,144.3523 Q682.4053,144.0825 681.7744,144.0825 Q680.4297,144.0825 679.7449,145.1492 Q679.0601,146.2158 679.0601,148.3159 Q679.0601,150.4077 679.7449,151.4744 Q680.4297,152.541 681.7744,152.541 Q682.4053,152.541 682.9988,152.2712 Q683.5923,152.0015 684.2231,151.4204 Z " fill="#000000"/><text fill="#000000" font-family="sans-serif" font-size="14" lengthAdjust="spacing" textLength="57" x="701.25" y="153.291">Itinerary</text><line style="stroke:#181818;stroke-width:0.5;" x1="643" x2="785" y1="164" y2="164"/><rect fill="none" height="6" style="stroke:#C82930;stroke-width:1.0;" width="6" x="650" y="174.7441"/><text fill="#000000" font-family="sans-serif" font-size="14" lengthAdjust="spacing" textLength="118" x="662" y="181.5352">custom : boolean</text><line style="stroke:#181818;stroke-width:0.5;" x1="643" x2="785" y1="188.4883" y2="188.4883"/></g><!--class Chat--><g id="elem_Chat"><rect codeLine="58" fill="#F1F1F1" height="48" id="Chat" rx="2.5" ry="2.5" style="stroke:#181818;stroke-width:0.5;" width="64" x="818" y="226.49"/><ellipse cx="833" cy="242.49" fill="#ADD1B2" rx="11" ry="11" style="stroke:#181818;stroke-width:1.0;"/><path d="M835.4731,248.6331 Q834.8921,248.9319 834.2529,249.0813 Q833.6138,249.2307 832.9082,249.2307 Q830.4014,249.2307 829.0815,247.5789 Q827.7617,245.927 827.7617,242.8059 Q827.7617,239.6765 829.0815,238.0247 Q830.4014,236.3728 832.9082,236.3728 Q833.6138,236.3728 834.2612,236.5222 Q834.9087,236.6716 835.4731,236.9705 L835.4731,239.6931 Q834.8423,239.1121 834.2488,238.8423 Q833.6553,238.5725 833.0244,238.5725 Q831.6797,238.5725 830.9949,239.6392 Q830.3101,240.7058 830.3101,242.8059 Q830.3101,244.8977 830.9949,245.9644 Q831.6797,247.031 833.0244,247.031 Q833.6553,247.031 834.2488,246.7612 Q834.8423,246.4915 835.4731,245.9104 Z " fill="#000000"/><text fill="#000000" font-family="sans-serif" font-size="14" lengthAdjust="spacing" textLength="32" x="847" y="247.781">Chat</text><line style="stroke:#181818;stroke-width:0.5;" x1="819" x2="881" y1="258.49" y2="258.49"/><line style="stroke:#181818;stroke-width:0.5;" x1="819" x2="881" y1="266.49" y2="266.49"/></g><!--class Domain--><g id="elem_Domain"><rect codeLine="45" fill="#F1F1F1" height="80.9766" id="Domain" rx="2.5" ry="2.5" style="stroke:#181818;stroke-width:0.5;" width="118" x="1154" y="585.98"/><ellipse cx="1183.85" cy="601.98" fill="#ADD1B2" rx="11" ry="11" style="stroke:#181818;stroke-width:1.0;"/><path d="M1186.3231,608.1231 Q1185.7421,608.4219 1185.1029,608.5713 Q1184.4638,608.7207 1183.7582,608.7207 Q1181.2514,608.7207 1179.9315,607.0689 Q1178.6117,605.417 1178.6117,602.2959 Q1178.6117,599.1665 1179.9315,597.5147 Q1181.2514,595.8628 1183.7582,595.8628 Q1184.4638,595.8628 1185.1112,596.0122 Q1185.7587,596.1616 1186.3231,596.4605 L1186.3231,599.1831 Q1185.6923,598.6021 1185.0988,598.3323 Q1184.5053,598.0625 1183.8744,598.0625 Q1182.5297,598.0625 1181.8449,599.1292 Q1181.1601,600.1958 1181.1601,602.2959 Q1181.1601,604.3877 1181.8449,605.4544 Q1182.5297,606.521 1183.8744,606.521 Q1184.5053,606.521 1185.0988,606.2512 Q1185.6923,605.9815 1186.3231,605.4004 Z " fill="#000000"/><text fill="#000000" font-family="sans-serif" font-size="14" lengthAdjust="spacing" textLength="53" x="1201.15" y="607.271">Domain</text><line style="stroke:#181818;stroke-width:0.5;" x1="1155" x2="1271" y1="617.98" y2="617.98"/><rect fill="none" height="6" style="stroke:#C82930;stroke-width:1.0;" width="6" x="1162" y="628.7241"/><text fill="#000000" font-family="sans-serif" font-size="14" lengthAdjust="spacing" textLength="50" x="1174" y="635.5152">version</text><rect fill="none" height="6" style="stroke:#C82930;stroke-width:1.0;" width="6" x="1162" y="645.2124"/><text fill="#000000" font-family="sans-serif" font-size="14" lengthAdjust="spacing" textLength="92" x="1174" y="652.0034">requirements</text><line style="stroke:#181818;stroke-width:0.5;" x1="1155" x2="1271" y1="658.9566" y2="658.9566"/></g><!--class CompositeTopic--><g id="elem_CompositeTopic"><rect codeLine="27" fill="#F1F1F1" height="64.4883" id="CompositeTopic" rx="2.5" ry="2.5" style="stroke:#181818;stroke-width:0.5;" width="162" x="263" y="413.49"/><ellipse cx="286.1" cy="429.49" fill="#ADD1B2" rx="11" ry="11" style="stroke:#181818;stroke-width:1.0;"/><path d="M288.5731,435.6331 Q287.9921,435.9319 287.3529,436.0813 Q286.7138,436.2307 286.0082,436.2307 Q283.5014,436.2307 282.1815,434.5789 Q280.8617,432.927 280.8617,429.8059 Q280.8617,426.6765 282.1815,425.0247 Q283.5014,423.3728 286.0082,423.3728 Q286.7138,423.3728 287.3612,423.5222 Q288.0087,423.6716 288.5731,423.9705 L288.5731,426.6931 Q287.9423,426.1121 287.3488,425.8423 Q286.7553,425.5725 286.1244,425.5725 Q284.7797,425.5725 284.0949,426.6392 Q283.4101,427.7058 283.4101,429.8059 Q283.4101,431.8977 284.0949,432.9644 Q284.7797,434.031 286.1244,434.031 Q286.7553,434.031 287.3488,433.7612 Q287.9423,433.4915 288.5731,432.9104 Z " fill="#000000"/><text fill="#000000" font-family="sans-serif" font-size="14" lengthAdjust="spacing" textLength="112" x="301.9" y="434.781">CompositeTopic</text><line style="stroke:#181818;stroke-width:0.5;" x1="264" x2="424" y1="445.49" y2="445.49"/><rect fill="none" height="6" style="stroke:#C82930;stroke-width:1.0;" width="6" x="271" y="456.2341"/><text fill="#000000" font-family="sans-serif" font-size="14" lengthAdjust="spacing" textLength="136" x="283" y="463.0252">topics : List&lt;Topic&gt;</text><line style="stroke:#181818;stroke-width:0.5;" x1="264" x2="424" y1="469.9783" y2="469.9783"/></g><!--class SimpleTopic--><g id="elem_SimpleTopic"><rect codeLine="23" fill="#F1F1F1" height="48" id="SimpleTopic" rx="2.5" ry="2.5" style="stroke:#181818;stroke-width:0.5;" width="116" x="305" y="507.98"/><ellipse cx="320" cy="523.98" fill="#ADD1B2" rx="11" ry="11" style="stroke:#181818;stroke-width:1.0;"/><path d="M322.4731,530.1231 Q321.8921,530.4219 321.2529,530.5713 Q320.6138,530.7207 319.9082,530.7207 Q317.4014,530.7207 316.0815,529.0689 Q314.7617,527.417 314.7617,524.2959 Q314.7617,521.1665 316.0815,519.5147 Q317.4014,517.8628 319.9082,517.8628 Q320.6138,517.8628 321.2612,518.0122 Q321.9087,518.1616 322.4731,518.4605 L322.4731,521.1831 Q321.8423,520.6021 321.2488,520.3323 Q320.6553,520.0625 320.0244,520.0625 Q318.6797,520.0625 317.9949,521.1292 Q317.3101,522.1958 317.3101,524.2959 Q317.3101,526.3877 317.9949,527.4544 Q318.6797,528.521 320.0244,528.521 Q320.6553,528.521 321.2488,528.2512 Q321.8423,527.9815 322.4731,527.4004 Z " fill="#000000"/><text fill="#000000" font-family="sans-serif" font-size="14" lengthAdjust="spacing" textLength="84" x="334" y="529.271">SimpleTopic</text><line style="stroke:#181818;stroke-width:0.5;" x1="306" x2="420" y1="539.98" y2="539.98"/><line style="stroke:#181818;stroke-width:0.5;" x1="306" x2="420" y1="547.98" y2="547.98"/></g><!--class Attachment--><g id="elem_Attachment"><rect codeLine="32" fill="#F1F1F1" height="48" id="Attachment" rx="2.5" ry="2.5" style="stroke:#181818;stroke-width:0.5;" width="111" x="531.5" y="421.73"/><ellipse cx="546.5" cy="437.73" fill="#ADD1B2" rx="11" ry="11" style="stroke:#181818;stroke-width:1.0;"/><path d="M548.9731,443.8731 Q548.3921,444.1719 547.7529,444.3213 Q547.1138,444.4707 546.4082,444.4707 Q543.9014,444.4707 542.5815,442.8189 Q541.2617,441.167 541.2617,438.0459 Q541.2617,434.9165 542.5815,433.2647 Q543.9014,431.6128 546.4082,431.6128 Q547.1138,431.6128 547.7612,431.7622 Q548.4087,431.9116 548.9731,432.2105 L548.9731,434.9331 Q548.3423,434.3521 547.7488,434.0823 Q547.1553,433.8125 546.5244,433.8125 Q545.1797,433.8125 544.4949,434.8792 Q543.8101,435.9458 543.8101,438.0459 Q543.8101,440.1377 544.4949,441.2044 Q545.1797,442.271 546.5244,442.271 Q547.1553,442.271 547.7488,442.0012 Q548.3423,441.7315 548.9731,441.1504 Z " fill="#000000"/><text fill="#000000" font-family="sans-serif" font-size="14" lengthAdjust="spacing" textLength="79" x="560.5" y="443.021">Attachment</text><line style="stroke:#181818;stroke-width:0.5;" x1="532.5" x2="641.5" y1="453.73" y2="453.73"/><line style="stroke:#181818;stroke-width:0.5;" x1="532.5" x2="641.5" y1="461.73" y2="461.73"/></g><!--class Concept--><g id="elem_Concept"><rect codeLine="85" fill="#F1F1F1" height="48" id="Concept" rx="2.5" ry="2.5" style="stroke:#181818;stroke-width:0.5;" width="89" x="361.5" y="935.39"/><ellipse cx="376.5" cy="951.39" fill="#ADD1B2" rx="11" ry="11" style="stroke:#181818;stroke-width:1.0;"/><path d="M378.9731,957.5331 Q378.3921,957.8319 377.7529,957.9813 Q377.1138,958.1307 376.4082,958.1307 Q373.9014,958.1307 372.5815,956.4789 Q371.2617,954.827 371.2617,951.7059 Q371.2617,948.5765 372.5815,946.9247 Q373.9014,945.2728 376.4082,945.2728 Q377.1138,945.2728 377.7612,945.4222 Q378.4087,945.5716 378.9731,945.8705 L378.9731,948.5931 Q378.3423,948.0121 377.7488,947.7423 Q377.1553,947.4725 376.5244,947.4725 Q375.1797,947.4725 374.4949,948.5392 Q373.8101,949.6058 373.8101,951.7059 Q373.8101,953.7977 374.4949,954.8644 Q375.1797,955.931 376.5244,955.931 Q377.1553,955.931 377.7488,955.6612 Q378.3423,955.3915 378.9731,954.8104 Z " fill="#000000"/><text fill="#000000" font-family="sans-serif" font-size="14" lengthAdjust="spacing" textLength="57" x="390.5" y="956.681">Concept</text><line style="stroke:#181818;stroke-width:0.5;" x1="362.5" x2="449.5" y1="967.39" y2="967.39"/><line style="stroke:#181818;stroke-width:0.5;" x1="362.5" x2="449.5" y1="975.39" y2="975.39"/></g><!--class Podcast--><g id="elem_Podcast"><rect fill="#F1F1F1" height="48" id="Podcast" rx="2.5" ry="2.5" style="stroke:#181818;stroke-width:0.5;" width="85" x="497.5" y="602.46"/><ellipse cx="512.5" cy="618.46" fill="#ADD1B2" rx="11" ry="11" style="stroke:#181818;stroke-width:1.0;"/><path d="M514.9731,624.6031 Q514.3921,624.9019 513.7529,625.0513 Q513.1138,625.2007 512.4082,625.2007 Q509.9014,625.2007 508.5815,623.5489 Q507.2617,621.897 507.2617,618.7759 Q507.2617,615.6465 508.5815,613.9947 Q509.9014,612.3428 512.4082,612.3428 Q513.1138,612.3428 513.7612,612.4922 Q514.4087,612.6416 514.9731,612.9405 L514.9731,615.6631 Q514.3423,615.0821 513.7488,614.8123 Q513.1553,614.5425 512.5244,614.5425 Q511.1797,614.5425 510.4949,615.6092 Q509.8101,616.6758 509.8101,618.7759 Q509.8101,620.8677 510.4949,621.9344 Q511.1797,623.001 512.5244,623.001 Q513.1553,623.001 513.7488,622.7312 Q514.3423,622.4615 514.9731,621.8804 Z " fill="#000000"/><text fill="#000000" font-family="sans-serif" font-size="14" lengthAdjust="spacing" textLength="53" x="526.5" y="623.751">Podcast</text><line style="stroke:#181818;stroke-width:0.5;" x1="498.5" x2="581.5" y1="634.46" y2="634.46"/><line style="stroke:#181818;stroke-width:0.5;" x1="498.5" x2="581.5" y1="642.46" y2="642.46"/></g><!--class Video--><g id="elem_Video"><rect fill="#F1F1F1" height="48" id="Video" rx="2.5" ry="2.5" style="stroke:#181818;stroke-width:0.5;" width="71" x="617.5" y="602.46"/><ellipse cx="632.5" cy="618.46" fill="#ADD1B2" rx="11" ry="11" style="stroke:#181818;stroke-width:1.0;"/><path d="M634.9731,624.6031 Q634.3921,624.9019 633.7529,625.0513 Q633.1138,625.2007 632.4082,625.2007 Q629.9014,625.2007 628.5815,623.5489 Q627.2617,621.897 627.2617,618.7759 Q627.2617,615.6465 628.5815,613.9947 Q629.9014,612.3428 632.4082,612.3428 Q633.1138,612.3428 633.7612,612.4922 Q634.4087,612.6416 634.9731,612.9405 L634.9731,615.6631 Q634.3423,615.0821 633.7488,614.8123 Q633.1553,614.5425 632.5244,614.5425 Q631.1797,614.5425 630.4949,615.6092 Q629.8101,616.6758 629.8101,618.7759 Q629.8101,620.8677 630.4949,621.9344 Q631.1797,623.001 632.5244,623.001 Q633.1553,623.001 633.7488,622.7312 Q634.3423,622.4615 634.9731,621.8804 Z " fill="#000000"/><text fill="#000000" font-family="sans-serif" font-size="14" lengthAdjust="spacing" textLength="39" x="646.5" y="623.751">Video</text><line style="stroke:#181818;stroke-width:0.5;" x1="618.5" x2="687.5" y1="634.46" y2="634.46"/><line style="stroke:#181818;stroke-width:0.5;" x1="618.5" x2="687.5" y1="642.46" y2="642.46"/></g><!--class Text--><g id="elem_Text"><rect codeLine="40" fill="#F1F1F1" height="64.4883" id="Text" rx="2.5" ry="2.5" style="stroke:#181818;stroke-width:0.5;" width="75" x="426.5" y="760.93"/><ellipse cx="446.9" cy="776.93" fill="#ADD1B2" rx="11" ry="11" style="stroke:#181818;stroke-width:1.0;"/><path d="M449.3731,783.0731 Q448.7921,783.3719 448.1529,783.5213 Q447.5138,783.6707 446.8082,783.6707 Q444.3014,783.6707 442.9815,782.0189 Q441.6617,780.367 441.6617,777.2459 Q441.6617,774.1165 442.9815,772.4647 Q444.3014,770.8128 446.8082,770.8128 Q447.5138,770.8128 448.1612,770.9622 Q448.8087,771.1116 449.3731,771.4105 L449.3731,774.1331 Q448.7423,773.5521 448.1488,773.2823 Q447.5553,773.0125 446.9244,773.0125 Q445.5797,773.0125 444.8949,774.0792 Q444.2101,775.1458 444.2101,777.2459 Q444.2101,779.3377 444.8949,780.4044 Q445.5797,781.471 446.9244,781.471 Q447.5553,781.471 448.1488,781.2012 Q448.7423,780.9315 449.3731,780.3504 Z " fill="#000000"/><text fill="#000000" font-family="sans-serif" font-size="14" lengthAdjust="spacing" textLength="31" x="462.1" y="782.221">Text</text><line style="stroke:#181818;stroke-width:0.5;" x1="427.5" x2="500.5" y1="792.93" y2="792.93"/><rect fill="none" height="6" style="stroke:#C82930;stroke-width:1.0;" width="6" x="434.5" y="803.6741"/><text fill="#000000" font-family="sans-serif" font-size="14" lengthAdjust="spacing" textLength="49" x="446.5" y="810.4652">images</text><line style="stroke:#181818;stroke-width:0.5;" x1="427.5" x2="500.5" y1="817.4183" y2="817.4183"/></g><!--class Application--><g id="elem_Application"><rect codeLine="52" fill="#F1F1F1" height="80.9766" id="Application" rx="2.5" ry="2.5" style="stroke:#181818;stroke-width:0.5;" width="156" x="1135" y="752.68"/><ellipse cx="1170.7" cy="768.68" fill="#ADD1B2" rx="11" ry="11" style="stroke:#181818;stroke-width:1.0;"/><path d="M1173.1731,774.8231 Q1172.5921,775.1219 1171.9529,775.2713 Q1171.3138,775.4207 1170.6082,775.4207 Q1168.1014,775.4207 1166.7815,773.7689 Q1165.4617,772.117 1165.4617,768.9959 Q1165.4617,765.8665 1166.7815,764.2147 Q1168.1014,762.5628 1170.6082,762.5628 Q1171.3138,762.5628 1171.9612,762.7122 Q1172.6087,762.8616 1173.1731,763.1605 L1173.1731,765.8831 Q1172.5423,765.3021 1171.9488,765.0323 Q1171.3553,764.7625 1170.7244,764.7625 Q1169.3797,764.7625 1168.6949,765.8292 Q1168.0101,766.8958 1168.0101,768.9959 Q1168.0101,771.0877 1168.6949,772.1544 Q1169.3797,773.221 1170.7244,773.221 Q1171.3553,773.221 1171.9488,772.9512 Q1172.5423,772.6815 1173.1731,772.1004 Z " fill="#000000"/><text fill="#000000" font-family="sans-serif" font-size="14" lengthAdjust="spacing" textLength="78" x="1189.3" y="773.971">Application</text><line style="stroke:#181818;stroke-width:0.5;" x1="1136" x2="1290" y1="784.68" y2="784.68"/><rect fill="none" height="6" style="stroke:#C82930;stroke-width:1.0;" width="6" x="1143" y="795.4241"/><text fill="#000000" font-family="sans-serif" font-size="14" lengthAdjust="spacing" textLength="116" x="1155" y="802.2152">correct : boolean</text><rect fill="none" height="6" style="stroke:#C82930;stroke-width:1.0;" width="6" x="1143" y="811.9124"/><text fill="#000000" font-family="sans-serif" font-size="14" lengthAdjust="spacing" textLength="130" x="1155" y="818.7034">evaluated: boolean</text><line style="stroke:#181818;stroke-width:0.5;" x1="1136" x2="1290" y1="825.6566" y2="825.6566"/></g><!--class Solution--><g id="elem_Solution"><rect codeLine="115" fill="#F1F1F1" height="64.4883" id="Solution" rx="2.5" ry="2.5" style="stroke:#181818;stroke-width:0.5;" width="142" x="1326" y="760.93"/><ellipse cx="1364.85" cy="776.93" fill="#ADD1B2" rx="11" ry="11" style="stroke:#181818;stroke-width:1.0;"/><path d="M1367.3231,783.0731 Q1366.7421,783.3719 1366.1029,783.5213 Q1365.4638,783.6707 1364.7582,783.6707 Q1362.2514,783.6707 1360.9315,782.0189 Q1359.6117,780.367 1359.6117,777.2459 Q1359.6117,774.1165 1360.9315,772.4647 Q1362.2514,770.8128 1364.7582,770.8128 Q1365.4638,770.8128 1366.1112,770.9622 Q1366.7587,771.1116 1367.3231,771.4105 L1367.3231,774.1331 Q1366.6923,773.5521 1366.0988,773.2823 Q1365.5053,773.0125 1364.8744,773.0125 Q1363.5297,773.0125 1362.8449,774.0792 Q1362.1601,775.1458 1362.1601,777.2459 Q1362.1601,779.3377 1362.8449,780.4044 Q1363.5297,781.471 1364.8744,781.471 Q1365.5053,781.471 1366.0988,781.2012 Q1366.6923,780.9315 1367.3231,780.3504 Z " fill="#000000"/><text fill="#000000" font-family="sans-serif" font-size="14" lengthAdjust="spacing" textLength="57" x="1384.15" y="782.221">Solution</text><line style="stroke:#181818;stroke-width:0.5;" x1="1327" x2="1467" y1="792.93" y2="792.93"/><rect fill="none" height="6" style="stroke:#C82930;stroke-width:1.0;" width="6" x="1334" y="803.6741"/><text fill="#000000" font-family="sans-serif" font-size="14" lengthAdjust="spacing" textLength="116" x="1346" y="810.4652">correct : boolean</text><line style="stroke:#181818;stroke-width:0.5;" x1="1327" x2="1467" y1="817.4183" y2="817.4183"/></g><!--class Question--><g id="elem_Question"><rect codeLine="62" fill="#F1F1F1" height="80.9766" id="Question" rx="2.5" ry="2.5" style="stroke:#181818;stroke-width:0.5;" width="162" x="789" y="585.98"/><ellipse cx="834.75" cy="601.98" fill="#ADD1B2" rx="11" ry="11" style="stroke:#181818;stroke-width:1.0;"/><path d="M837.2231,608.1231 Q836.6421,608.4219 836.0029,608.5713 Q835.3638,608.7207 834.6582,608.7207 Q832.1514,608.7207 830.8315,607.0689 Q829.5117,605.417 829.5117,602.2959 Q829.5117,599.1665 830.8315,597.5147 Q832.1514,595.8628 834.6582,595.8628 Q835.3638,595.8628 836.0112,596.0122 Q836.6587,596.1616 837.2231,596.4605 L837.2231,599.1831 Q836.5923,598.6021 835.9988,598.3323 Q835.4053,598.0625 834.7744,598.0625 Q833.4297,598.0625 832.7449,599.1292 Q832.0601,600.1958 832.0601,602.2959 Q832.0601,604.3877 832.7449,605.4544 Q833.4297,606.521 834.7744,606.521 Q835.4053,606.521 835.9988,606.2512 Q836.5923,605.9815 837.2231,605.4004 Z " fill="#000000"/><text fill="#000000" font-family="sans-serif" font-size="14" lengthAdjust="spacing" textLength="62" x="855.25" y="607.271">Question</text><line style="stroke:#181818;stroke-width:0.5;" x1="790" x2="950" y1="617.98" y2="617.98"/><rect fill="none" height="6" style="stroke:#C82930;stroke-width:1.0;" width="6" x="797" y="628.7241"/><text fill="#000000" font-family="sans-serif" font-size="14" lengthAdjust="spacing" textLength="68" x="809" y="635.5152">statement</text><rect fill="none" height="6" style="stroke:#C82930;stroke-width:1.0;" width="6" x="797" y="645.2124"/><text fill="#000000" font-family="sans-serif" font-size="14" lengthAdjust="spacing" textLength="136" x="809" y="652.0034">type : QuestionType</text><line style="stroke:#181818;stroke-width:0.5;" x1="790" x2="950" y1="658.9566" y2="658.9566"/></g><!--class Answer--><g id="elem_Answer"><rect codeLine="120" fill="#F1F1F1" height="97.4648" id="Answer" rx="2.5" ry="2.5" style="stroke:#181818;stroke-width:0.5;" width="160" x="608" y="744.44"/><ellipse cx="658.25" cy="760.44" fill="#ADD1B2" rx="11" ry="11" style="stroke:#181818;stroke-width:1.0;"/><path d="M660.7231,766.5831 Q660.1421,766.8819 659.5029,767.0313 Q658.8638,767.1807 658.1582,767.1807 Q655.6514,767.1807 654.3315,765.5289 Q653.0117,763.877 653.0117,760.7559 Q653.0117,757.6265 654.3315,755.9747 Q655.6514,754.3228 658.1582,754.3228 Q658.8638,754.3228 659.5112,754.4722 Q660.1587,754.6216 660.7231,754.9205 L660.7231,757.6431 Q660.0923,757.0621 659.4988,756.7923 Q658.9053,756.5225 658.2744,756.5225 Q656.9297,756.5225 656.2449,757.5892 Q655.5601,758.6558 655.5601,760.7559 Q655.5601,762.8477 656.2449,763.9144 Q656.9297,764.981 658.2744,764.981 Q658.9053,764.981 659.4988,764.7112 Q660.0923,764.4415 660.7231,763.8604 Z " fill="#000000"/><text fill="#000000" font-family="sans-serif" font-size="14" lengthAdjust="spacing" textLength="51" x="678.75" y="765.731">Answer</text><line style="stroke:#181818;stroke-width:0.5;" x1="609" x2="767" y1="776.44" y2="776.44"/><rect fill="none" height="6" style="stroke:#C82930;stroke-width:1.0;" width="6" x="616" y="787.1841"/><text fill="#000000" font-family="sans-serif" font-size="14" lengthAdjust="spacing" textLength="116" x="628" y="793.9752">correct : boolean</text><rect fill="none" height="6" style="stroke:#C82930;stroke-width:1.0;" width="6" x="616" y="803.6724"/><text fill="#000000" font-family="sans-serif" font-size="14" lengthAdjust="spacing" textLength="134" x="628" y="810.4634">evaluated : boolean</text><rect fill="none" height="6" style="stroke:#C82930;stroke-width:1.0;" width="6" x="616" y="820.1607"/><text fill="#000000" font-family="sans-serif" font-size="14" lengthAdjust="spacing" textLength="106" x="628" y="826.9517">author: student</text><line style="stroke:#181818;stroke-width:0.5;" x1="609" x2="767" y1="833.9048" y2="833.9048"/></g><!--class StatementType--><g id="elem_StatementType"><rect codeLine="78" fill="#F1F1F1" height="113.9531" id="StatementType" rx="2.5" ry="2.5" style="stroke:#181818;stroke-width:0.5;" width="134" x="803" y="736.2"/><ellipse cx="818" cy="752.2" fill="#EB937F" rx="11" ry="11" style="stroke:#181818;stroke-width:1.0;"/><path d="M821.6143,758.7 L813.8945,758.7 L813.8945,746.3069 L821.6143,746.3069 L821.6143,748.4651 L816.3433,748.4651 L816.3433,751.138 L821.1162,751.138 L821.1162,753.2962 L816.3433,753.2962 L816.3433,756.5418 L821.6143,756.5418 Z " fill="#000000"/><text fill="#000000" font-family="sans-serif" font-size="14" lengthAdjust="spacing" textLength="102" x="832" y="757.491">StatementType</text><line style="stroke:#181818;stroke-width:0.5;" x1="804" x2="936" y1="768.2" y2="768.2"/><text fill="#000000" font-family="sans-serif" font-size="14" lengthAdjust="spacing" textLength="68" x="809" y="785.7352">ClozeTest</text><text fill="#000000" font-family="sans-serif" font-size="14" lengthAdjust="spacing" textLength="67" x="809" y="802.2234">Definition</text><text fill="#000000" font-family="sans-serif" font-size="14" lengthAdjust="spacing" textLength="56" x="809" y="818.7117">Relation</text><text fill="#000000" font-family="sans-serif" font-size="14" lengthAdjust="spacing" textLength="119" x="809" y="835.2">JustifyApplication</text><line style="stroke:#181818;stroke-width:0.5;" x1="804" x2="936" y1="842.1531" y2="842.1531"/></g><!--class QuestionType--><g id="elem_QuestionType"><rect codeLine="73" fill="#F1F1F1" height="97.4648" id="QuestionType" rx="2.5" ry="2.5" style="stroke:#181818;stroke-width:0.5;" width="127" x="972.5" y="744.44"/><ellipse cx="987.5" cy="760.44" fill="#EB937F" rx="11" ry="11" style="stroke:#181818;stroke-width:1.0;"/><path d="M991.1143,766.94 L983.3945,766.94 L983.3945,754.5469 L991.1143,754.5469 L991.1143,756.7051 L985.8433,756.7051 L985.8433,759.378 L990.6162,759.378 L990.6162,761.5362 L985.8433,761.5362 L985.8433,764.7818 L991.1143,764.7818 Z " fill="#000000"/><text fill="#000000" font-family="sans-serif" font-size="14" lengthAdjust="spacing" textLength="95" x="1001.5" y="765.731">QuestionType</text><line style="stroke:#181818;stroke-width:0.5;" x1="973.5" x2="1098.5" y1="776.44" y2="776.44"/><text fill="#000000" font-family="sans-serif" font-size="14" lengthAdjust="spacing" textLength="37" x="978.5" y="793.9752">Open</text><text fill="#000000" font-family="sans-serif" font-size="14" lengthAdjust="spacing" textLength="102" x="978.5" y="810.4634">MultipleChoice</text><text fill="#000000" font-family="sans-serif" font-size="14" lengthAdjust="spacing" textLength="114" x="978.5" y="826.9517">ApplicationCode</text><line style="stroke:#181818;stroke-width:0.5;" x1="973.5" x2="1098.5" y1="833.9048" y2="833.9048"/></g><!--class Definition--><g id="elem_Definition"><rect codeLine="91" fill="#F1F1F1" height="64.4883" id="Definition" rx="2.5" ry="2.5" style="stroke:#181818;stroke-width:0.5;" width="142" x="421" y="1060.39"/><ellipse cx="455.35" cy="1076.39" fill="#ADD1B2" rx="11" ry="11" style="stroke:#181818;stroke-width:1.0;"/><path d="M457.8231,1082.5331 Q457.2421,1082.8319 456.6029,1082.9813 Q455.9638,1083.1307 455.2582,1083.1307 Q452.7514,1083.1307 451.4315,1081.4789 Q450.1117,1079.827 450.1117,1076.7059 Q450.1117,1073.5765 451.4315,1071.9247 Q452.7514,1070.2728 455.2582,1070.2728 Q455.9638,1070.2728 456.6112,1070.4222 Q457.2587,1070.5716 457.8231,1070.8705 L457.8231,1073.5931 Q457.1923,1073.0121 456.5988,1072.7423 Q456.0053,1072.4725 455.3744,1072.4725 Q454.0297,1072.4725 453.3449,1073.5392 Q452.6601,1074.6058 452.6601,1076.7059 Q452.6601,1078.7977 453.3449,1079.8644 Q454.0297,1080.931 455.3744,1080.931 Q456.0053,1080.931 456.5988,1080.6612 Q457.1923,1080.3915 457.8231,1079.8104 Z " fill="#000000"/><text fill="#000000" font-family="sans-serif" font-size="14" lengthAdjust="spacing" textLength="67" x="473.65" y="1081.681">Definition</text><line style="stroke:#181818;stroke-width:0.5;" x1="422" x2="562" y1="1092.39" y2="1092.39"/><rect fill="none" height="6" style="stroke:#C82930;stroke-width:1.0;" width="6" x="429" y="1103.1341"/><text fill="#000000" font-family="sans-serif" font-size="14" lengthAdjust="spacing" textLength="116" x="441" y="1109.9252">correct : boolean</text><line style="stroke:#181818;stroke-width:0.5;" x1="422" x2="562" y1="1116.8783" y2="1116.8783"/></g><!--class Relation--><g id="elem_Relation"><rect codeLine="100" fill="#F1F1F1" height="64.4883" id="Relation" rx="2.5" ry="2.5" style="stroke:#181818;stroke-width:0.5;" width="156" x="7" y="760.93"/><ellipse cx="52.75" cy="776.93" fill="#ADD1B2" rx="11" ry="11" style="stroke:#181818;stroke-width:1.0;"/><path d="M55.2231,783.0731 Q54.6421,783.3719 54.0029,783.5213 Q53.3638,783.6707 52.6582,783.6707 Q50.1514,783.6707 48.8315,782.0189 Q47.5117,780.367 47.5117,777.2459 Q47.5117,774.1165 48.8315,772.4647 Q50.1514,770.8128 52.6582,770.8128 Q53.3638,770.8128 54.0112,770.9622 Q54.6587,771.1116 55.2231,771.4105 L55.2231,774.1331 Q54.5923,773.5521 53.9988,773.2823 Q53.4053,773.0125 52.7744,773.0125 Q51.4297,773.0125 50.7449,774.0792 Q50.0601,775.1458 50.0601,777.2459 Q50.0601,779.3377 50.7449,780.4044 Q51.4297,781.471 52.7744,781.471 Q53.4053,781.471 53.9988,781.2012 Q54.5923,780.9315 55.2231,780.3504 Z " fill="#000000"/><text fill="#000000" font-family="sans-serif" font-size="14" lengthAdjust="spacing" textLength="56" x="73.25" y="782.221">Relation</text><line style="stroke:#181818;stroke-width:0.5;" x1="8" x2="162" y1="792.93" y2="792.93"/><rect fill="none" height="6" style="stroke:#C82930;stroke-width:1.0;" width="6" x="15" y="803.6741"/><text fill="#000000" font-family="sans-serif" font-size="14" lengthAdjust="spacing" textLength="130" x="27" y="810.4652">type : RelationType</text><line style="stroke:#181818;stroke-width:0.5;" x1="8" x2="162" y1="817.4183" y2="817.4183"/></g><!--class Justification--><g id="elem_Justification"><rect codeLine="96" fill="#F1F1F1" height="64.4883" id="Justification" rx="2.5" ry="2.5" style="stroke:#181818;stroke-width:0.5;" width="142" x="744" y="1201.88"/><ellipse cx="772.5" cy="1217.88" fill="#ADD1B2" rx="11" ry="11" style="stroke:#181818;stroke-width:1.0;"/><path d="M774.9731,1224.0231 Q774.3921,1224.3219 773.7529,1224.4713 Q773.1138,1224.6207 772.4082,1224.6207 Q769.9014,1224.6207 768.5815,1222.9689 Q767.2617,1221.317 767.2617,1218.1959 Q767.2617,1215.0665 768.5815,1213.4147 Q769.9014,1211.7628 772.4082,1211.7628 Q773.1138,1211.7628 773.7612,1211.9122 Q774.4087,1212.0616 774.9731,1212.3605 L774.9731,1215.0831 Q774.3423,1214.5021 773.7488,1214.2323 Q773.1553,1213.9625 772.5244,1213.9625 Q771.1797,1213.9625 770.4949,1215.0292 Q769.8101,1216.0958 769.8101,1218.1959 Q769.8101,1220.2877 770.4949,1221.3544 Q771.1797,1222.421 772.5244,1222.421 Q773.1553,1222.421 773.7488,1222.1512 Q774.3423,1221.8815 774.9731,1221.3004 Z " fill="#000000"/><text fill="#000000" font-family="sans-serif" font-size="14" lengthAdjust="spacing" textLength="80" x="789.5" y="1223.171">Justification</text><line style="stroke:#181818;stroke-width:0.5;" x1="745" x2="885" y1="1233.88" y2="1233.88"/><rect fill="none" height="6" style="stroke:#C82930;stroke-width:1.0;" width="6" x="752" y="1244.6241"/><text fill="#000000" font-family="sans-serif" font-size="14" lengthAdjust="spacing" textLength="116" x="764" y="1251.4152">correct : boolean</text><line style="stroke:#181818;stroke-width:0.5;" x1="745" x2="885" y1="1258.3683" y2="1258.3683"/></g><!--class RelationType--><g id="elem_RelationType"><rect codeLine="107" fill="#F1F1F1" height="130.4414" id="RelationType" rx="2.5" ry="2.5" style="stroke:#181818;stroke-width:0.5;" width="121" x="198.5" y="727.95"/><ellipse cx="213.5" cy="743.95" fill="#EB937F" rx="11" ry="11" style="stroke:#181818;stroke-width:1.0;"/><path d="M217.1143,750.45 L209.3945,750.45 L209.3945,738.0569 L217.1143,738.0569 L217.1143,740.2151 L211.8433,740.2151 L211.8433,742.888 L216.6162,742.888 L216.6162,745.0462 L211.8433,745.0462 L211.8433,748.2918 L217.1143,748.2918 Z " fill="#000000"/><text fill="#000000" font-family="sans-serif" font-size="14" lengthAdjust="spacing" textLength="89" x="227.5" y="749.241">RelationType</text><line style="stroke:#181818;stroke-width:0.5;" x1="199.5" x2="318.5" y1="759.95" y2="759.95"/><text fill="#000000" font-family="sans-serif" font-size="14" lengthAdjust="spacing" textLength="25" x="204.5" y="777.4852">Use</text><text fill="#000000" font-family="sans-serif" font-size="14" lengthAdjust="spacing" textLength="79" x="204.5" y="793.9734">Association</text><text fill="#000000" font-family="sans-serif" font-size="14" lengthAdjust="spacing" textLength="88" x="204.5" y="810.4617">Composition</text><text fill="#000000" font-family="sans-serif" font-size="14" lengthAdjust="spacing" textLength="77" x="204.5" y="826.95">Inheritance</text><text fill="#000000" font-family="sans-serif" font-size="14" lengthAdjust="spacing" textLength="86" x="204.5" y="843.4383">Aggregation</text><line style="stroke:#181818;stroke-width:0.5;" x1="199.5" x2="318.5" y1="850.3914" y2="850.3914"/></g><!--link EducationPlatform to Teacher--><g id="link_EducationPlatform_Teacher"><path codeLine="4" d="M584.822,60.3215 C541.312,80.2715 488.25,104.95 433,132 C427.44,134.72 426.9853,134.9144 421.2453,137.8144 " fill="none" id="EducationPlatform-Teacher" style="stroke:#181818;stroke-width:1.0;"/><polygon fill="#181818" points="595.73,55.32,588.6088,54.1847,584.822,60.3215,591.9432,61.4568,595.73,55.32" style="stroke:#181818;stroke-width:1.0;"/><polygon fill="#181818" points="415.89,140.52,425.7267,140.0317,420.3528,138.2653,422.1192,132.8913,415.89,140.52" style="stroke:#181818;stroke-width:1.0;"/><text fill="#000000" font-family="sans-serif" font-size="13" lengthAdjust="spacing" textLength="10" x="423.3763" y="133.3316">+</text></g><!--link EducationPlatform to Student--><g id="link_EducationPlatform_Student"><path codeLine="5" d="M594.5943,61.7197 C580.7043,70.2497 575.77,74.2 563,85 C543.51,101.47 528.1899,118.6704 514.8699,135.0904 " fill="none" id="EducationPlatform-Student" style="stroke:#181818;stroke-width:1.0;"/><polygon fill="#181818" points="604.82,55.44,597.6139,55.1713,594.5943,61.7197,601.8004,61.9884,604.82,55.44" style="stroke:#181818;stroke-width:1.0;"/><polygon fill="#181818" points="511.09,139.75,519.8663,135.2805,514.2399,135.867,513.6535,130.2406,511.09,139.75" style="stroke:#181818;stroke-width:1.0;"/><text fill="#000000" font-family="sans-serif" font-size="13" lengthAdjust="spacing" textLength="10" x="504.2807" y="129.5586">+</text></g><!--link EducationPlatform to Topic--><g id="link_EducationPlatform_Topic"><path codeLine="6" d="M631.7462,66.1468 C607.1362,121.2468 552.6874,243.1218 527.9374,298.5218 " fill="none" id="EducationPlatform-Topic" style="stroke:#181818;stroke-width:1.0;"/><polygon fill="#181818" points="636.64,55.19,630.5409,59.0371,631.7462,66.1468,637.8454,62.2996,636.64,55.19" style="stroke:#181818;stroke-width:1.0;"/><polygon fill="#181818" points="525.49,304,532.8132,297.4143,527.5295,299.4349,525.509,294.1512,525.49,304" style="stroke:#181818;stroke-width:1.0;"/></g><!--link EducationPlatform to Itinerary--><g id="link_EducationPlatform_Itinerary"><path codeLine="7" d="M682.7151,63.9152 C691.1451,72.4452 691.28,74.14 697,85 C704.58,99.39 707.8639,111.0419 710.1839,125.8919 " fill="none" id="EducationPlatform-Itinerary" style="stroke:#181818;stroke-width:1.0;"/><polygon fill="#181818" points="674.28,55.38,675.6525,62.4593,682.7151,63.9152,681.3426,56.8359,674.28,55.38" style="stroke:#181818;stroke-width:1.0;"/><polygon fill="#181818" points="711.11,131.82,713.6729,122.3104,710.3382,126.8799,705.7687,123.5453,711.11,131.82" style="stroke:#181818;stroke-width:1.0;"/><text fill="#000000" font-family="sans-serif" font-size="13" lengthAdjust="spacing" textLength="67" x="705" y="98.5684">predefined</text></g><!--link EducationPlatform to Itinerary--><g id="link_EducationPlatform_Itinerary"><path codeLine="8" d="M635.8086,67.0439 C632.2386,81.1639 633.19,87.52 640,102 C645.32,113.32 649.3976,119.2715 658.8376,127.6715 " fill="none" id="EducationPlatform-Itinerary-1" style="stroke:#181818;stroke-width:1.0;"/><polygon fill="none" points="638.75,55.41,633.4013,60.2465,635.8086,67.0439,641.1573,62.2074,638.75,55.41" style="stroke:#181818;stroke-width:1.0;"/><polygon fill="#181818" points="663.32,131.66,659.2555,122.6889,659.5847,128.3362,653.9374,128.6654,663.32,131.66" style="stroke:#181818;stroke-width:1.0;"/><text fill="#000000" font-family="sans-serif" font-size="13" lengthAdjust="spacing" textLength="47" x="641" y="98.5684">custom</text><text fill="#000000" font-family="sans-serif" font-size="13" lengthAdjust="spacing" textLength="6" x="646.7518" y="121.3674">*</text></g><!--link EducationPlatform to Chat--><g id="link_EducationPlatform_Chat"><path codeLine="9" d="M737.6029,56.5837 C757.1429,64.3937 765.69,70.6 781,85 C822.17,123.72 838.5856,184.9344 845.2656,220.2744 " fill="none" id="EducationPlatform-Chat" style="stroke:#181818;stroke-width:1.0;"/><polygon fill="none" points="726.46,52.13,730.5469,58.0712,737.6029,56.5837,733.516,50.6426,726.46,52.13" style="stroke:#181818;stroke-width:1.0;"/><polygon fill="#181818" points="846.38,226.17,848.6388,216.5837,845.4513,221.257,840.778,218.0695,846.38,226.17" style="stroke:#181818;stroke-width:1.0;"/></g><!--link EducationPlatform to Domain--><g id="link_EducationPlatform_Domain"><path codeLine="10" d="M738.2995,37.9778 C820.1495,47.5078 924,75.17 924,163.24 C924,163.24 924,163.24 924,446.73 C924,553.8 1063.3902,597.6953 1147.9402,614.8753 " fill="none" id="EducationPlatform-Domain" style="stroke:#181818;stroke-width:1.0;"/><polygon fill="none" points="726.38,36.59,731.8771,41.2571,738.2995,37.9778,732.8023,33.3107,726.38,36.59" style="stroke:#181818;stroke-width:1.0;"/><polygon fill="#181818" points="1153.82,616.07,1145.7967,610.358,1148.9201,615.0744,1144.2037,618.1978,1153.82,616.07" style="stroke:#181818;stroke-width:1.0;"/><text fill="#000000" font-family="sans-serif" font-size="13" lengthAdjust="spacing" textLength="6" x="1139.8532" y="611.365">*</text></g><!--link Itinerary to Topic--><g id="link_Itinerary_Topic"><path codeLine="15" d="M682.9661,206.0684 C664.3061,229.5084 644.1,251.86 615,274.49 C595.15,289.93 575.5831,300.6342 555.5431,310.0242 " fill="none" id="Itinerary-Topic" style="stroke:#181818;stroke-width:1.0;"/><polygon fill="none" points="690.44,196.68,683.5736,198.8829,682.9661,206.0684,689.8325,203.8655,690.44,196.68" style="stroke:#181818;stroke-width:1.0;"/><polygon fill="#181818" points="550.11,312.57,559.9569,312.3734,554.6376,310.4485,556.5625,305.1292,550.11,312.57" style="stroke:#181818;stroke-width:1.0;"/><text fill="#000000" font-family="sans-serif" font-size="13" lengthAdjust="spacing" textLength="10" x="558.0067" y="305.5581">+</text></g><!--reverse link Topic to CompositeTopic--><g id="link_Topic_CompositeTopic"><path codeLine="19" d="M464.09,356.1752 C434.58,373.6852 408.85,391.81 379.4,413.11 " fill="none" id="Topic-backto-CompositeTopic" style="stroke:#181818;stroke-width:1.0;stroke-dasharray:7.0,7.0;"/><polygon fill="none" points="479.57,346.99,461.0282,351.0152,467.1517,361.3352,479.57,346.99" style="stroke:#181818;stroke-width:1.0;"/></g><!--link CompositeTopic to Topic--><g id="link_CompositeTopic_Topic"><path codeLine="30" d="M413.2202,406.7648 C443.5802,387.6848 463.7225,373.7866 486.7025,356.4266 " fill="none" id="CompositeTopic-Topic" style="stroke:#181818;stroke-width:1.0;"/><polygon fill="none" points="403.06,413.15,410.2685,413.3441,413.2202,406.7648,406.0117,406.5707,403.06,413.15" style="stroke:#181818;stroke-width:1.0;"/><polygon fill="#181818" points="491.49,352.81,481.8977,355.0433,487.5004,355.8239,486.7199,361.4266,491.49,352.81" style="stroke:#181818;stroke-width:1.0;"/><text fill="#000000" font-family="sans-serif" font-size="13" lengthAdjust="spacing" textLength="10" x="474.5407" y="373.1723">+</text></g><!--reverse link Topic to SimpleTopic--><g id="link_Topic_SimpleTopic"><path codeLine="20" d="M502.0722,369.8376 C491.5522,401.0576 475.28,439.91 442,477.98 C432,489.41 418.98,499.48 406.41,507.67 " fill="none" id="Topic-backto-SimpleTopic" style="stroke:#181818;stroke-width:1.0;stroke-dasharray:7.0,7.0;"/><polygon fill="none" points="507.82,352.78,496.3863,367.9217,507.7581,371.7536,507.82,352.78" style="stroke:#181818;stroke-width:1.0;"/></g><!--link Topic to Attachment--><g id="link_Topic_Attachment"><path codeLine="21" d="M535.9286,362.9868 C548.4186,382.9768 556.7914,396.3712 569.2714,416.3512 " fill="none" id="Topic-Attachment" style="stroke:#181818;stroke-width:1.0;"/><polygon fill="none" points="529.57,352.81,529.357,360.018,535.9286,362.9868,536.1416,355.7789,529.57,352.81" style="stroke:#181818;stroke-width:1.0;"/><polygon fill="#181818" points="572.45,421.44,571.0746,411.6876,569.8012,417.1993,564.2895,415.9258,572.45,421.44" style="stroke:#181818;stroke-width:1.0;"/><text fill="#000000" font-family="sans-serif" font-size="13" lengthAdjust="spacing" textLength="10" x="557.4403" y="410.902">+</text></g><!--link SimpleTopic to Concept--><g id="link_SimpleTopic_Concept"><path codeLine="25" d="M366.5771,568.3891 C374.0971,642.7691 395.5272,854.7404 403.0272,929.0204 " fill="none" id="SimpleTopic-Concept" style="stroke:#181818;stroke-width:1.0;"/><polygon fill="none" points="365.37,556.45,361.9938,562.8219,366.5771,568.3891,369.9532,562.0172,365.37,556.45" style="stroke:#181818;stroke-width:1.0;"/><polygon fill="#181818" points="403.63,934.99,406.7056,925.6337,403.1277,930.0153,398.7461,926.4374,403.63,934.99" style="stroke:#181818;stroke-width:1.0;"/><text fill="#000000" font-family="sans-serif" font-size="13" lengthAdjust="spacing" textLength="10" x="391.8336" y="924.8206">+</text></g><!--reverse link Attachment to Podcast--><g id="link_Attachment_Podcast"><path codeLine="34" d="M576.2806,487.5077 C567.2706,521.7577 555.15,567.83 546.15,602.09 " fill="none" id="Attachment-backto-Podcast" style="stroke:#181818;stroke-width:1.0;"/><polygon fill="none" points="580.86,470.1,570.478,485.9813,582.0832,489.0342,580.86,470.1" style="stroke:#181818;stroke-width:1.0;"/></g><!--reverse link Attachment to Video--><g id="link_Attachment_Video"><path codeLine="35" d="M601.8664,486.9851 C614.5164,521.2351 631.72,567.83 644.37,602.09 " fill="none" id="Attachment-backto-Video" style="stroke:#181818;stroke-width:1.0;"/><polygon fill="none" points="595.63,470.1,596.238,489.0639,607.4948,484.9063,595.63,470.1" style="stroke:#181818;stroke-width:1.0;"/></g><!--reverse link Attachment to Text--><g id="link_Attachment_Text"><path codeLine="36" d="M549.222,482.8778 C523.592,508.5478 497.8,539.58 480,585.98 C457.56,644.47 458.28,719.03 461.01,760.57 " fill="none" id="Attachment-backto-Text" style="stroke:#181818;stroke-width:1.0;"/><polygon fill="none" points="561.94,470.14,544.9761,478.6385,553.468,487.1172,561.94,470.14" style="stroke:#181818;stroke-width:1.0;"/></g><!--link Podcast to Text--><g id="link_Podcast_Text"><path codeLine="37" d="M523.5642,661.7164 C517.1342,675.1664 514.13,681.56 507,696.95 C497.17,718.18 488.7724,736.7241 480.4424,755.3241 " fill="none" id="Podcast-Text" style="stroke:#181818;stroke-width:1.0;"/><polygon fill="none" points="528.74,650.89,522.5433,654.578,523.5642,661.7164,529.7609,658.0285,528.74,650.89" style="stroke:#181818;stroke-width:1.0;"/><polygon fill="#181818" points="477.99,760.8,485.3192,754.221,480.0337,756.2367,478.018,750.9512,477.99,760.8" style="stroke:#181818;stroke-width:1.0;"/></g><!--link Video to Text--><g id="link_Video_Text"><path codeLine="38" d="M613.2415,657.9849 C605.8715,663.4349 607.57,661.97 600,666.95 C577.71,681.61 568.65,680.06 548,696.95 C525.14,715.65 506.9231,736.1728 491.2031,755.9528 " fill="none" id="Video-Text" style="stroke:#181818;stroke-width:1.0;"/><polygon fill="none" points="622.89,650.85,615.6875,651.2013,613.2415,657.9849,620.4441,657.6336,622.89,650.85" style="stroke:#181818;stroke-width:1.0;"/><polygon fill="#181818" points="487.47,760.65,496.2011,756.0929,490.5809,756.7356,489.9381,751.1154,487.47,760.65" style="stroke:#181818;stroke-width:1.0;"/></g><!--link Text to Concept--><g id="link_Text_Concept"><path codeLine="43" d="M452.82,825.84 C441.53,857.81 426.3485,900.7726 416.2385,929.3926 " fill="none" id="Text-to-Concept" style="stroke:#181818;stroke-width:1.0;"/><polygon fill="#181818" points="414.24,935.05,421.0093,927.8962,415.9054,930.3355,413.4661,925.2316,414.24,935.05" style="stroke:#181818;stroke-width:1.0;"/><text fill="#000000" font-family="sans-serif" font-size="13" lengthAdjust="spacing" textLength="6" x="409.5828" y="924.4991">*</text></g><!--link Domain to Application--><g id="link_Domain_Application"><path codeLine="49" d="M1213,679.34 C1213,705.14 1213,720.6 1213,746.38 " fill="none" id="Domain-Application" style="stroke:#181818;stroke-width:1.0;"/><polygon fill="none" points="1213,667.34,1209,673.34,1213,679.34,1217,673.34,1213,667.34" style="stroke:#181818;stroke-width:1.0;"/><polygon fill="#181818" points="1213,752.38,1217,743.38,1213,747.38,1209,743.38,1213,752.38" style="stroke:#181818;stroke-width:1.0;"/><text fill="#000000" font-family="sans-serif" font-size="13" lengthAdjust="spacing" textLength="6" x="1206.5031" y="741.9763">*</text></g><!--link Domain to Solution--><g id="link_Domain_Solution"><path codeLine="50" d="M1266.4828,675.3416 C1298.5028,703.9916 1327.6594,730.0983 1357.3094,756.6383 " fill="none" id="Domain-Solution" style="stroke:#181818;stroke-width:1.0;"/><polygon fill="none" points="1257.54,667.34,1259.3442,674.3218,1266.4828,675.3416,1264.6786,668.3599,1257.54,667.34" style="stroke:#181818;stroke-width:1.0;"/><polygon fill="#181818" points="1361.78,760.64,1357.7419,751.657,1358.0545,757.3053,1352.4063,757.6179,1361.78,760.64" style="stroke:#181818;stroke-width:1.0;"/><text fill="#000000" font-family="sans-serif" font-size="13" lengthAdjust="spacing" textLength="6" x="1355.1346" y="749.9833">*</text></g><!--link Application to Concept--><g id="link_Application_Concept"><path codeLine="56" d="M1162.54,834.05 C1148.48,843.41 1132.74,852.39 1117,858.39 C878.27,949.53 571.95,958.8253 456.99,958.9153 " fill="none" id="Application-to-Concept" style="stroke:#181818;stroke-width:1.0;"/><polygon fill="#181818" points="450.99,958.92,459.99,962.92,455.99,958.92,459.99,954.92,450.99,958.92" style="stroke:#181818;stroke-width:1.0;"/><text fill="#000000" font-family="sans-serif" font-size="13" lengthAdjust="spacing" textLength="10" x="458.6447" y="955.2917">+</text></g><!--link Chat to Question--><g id="link_Chat_Question"><path codeLine="60" d="M851.8907,286.8629 C855.2207,349.1429 863.3796,501.5886 867.5496,579.5686 " fill="none" id="Chat-Question" style="stroke:#181818;stroke-width:1.0;"/><polygon fill="none" points="851.25,274.88,847.5761,281.085,851.8907,286.8629,855.5646,280.6579,851.25,274.88" style="stroke:#181818;stroke-width:1.0;"/><polygon fill="#181818" points="867.87,585.56,871.3837,576.3592,867.603,580.5671,863.3951,576.7864,867.87,585.56" style="stroke:#181818;stroke-width:1.0;"/><text fill="#000000" font-family="sans-serif" font-size="13" lengthAdjust="spacing" textLength="10" x="856.6891" y="575.1365">+</text></g><!--link Question to Concept--><g id="link_Question_Concept"><path codeLine="66" d="M788.5,649.86 C717.54,670.58 621.41,702.02 591,727.95 C540.61,770.92 560.4,806.71 519,858.39 C495.25,888.04 466.8866,912.497 442.6566,931.337 " fill="none" id="Question-to-Concept" style="stroke:#181818;stroke-width:1.0;"/><polygon fill="#181818" points="437.92,935.02,447.4803,932.6533,441.8672,931.9509,442.5696,926.3378,437.92,935.02" style="stroke:#181818;stroke-width:1.0;"/><text fill="#000000" font-family="sans-serif" font-size="13" lengthAdjust="spacing" textLength="10" x="434.8183" y="924.4615">+</text></g><!--link Question to Application--><g id="link_Question_Application"><path codeLine="67" d="M951.41,655.81 C1000.49,674.07 1063.64,699.63 1117,727.95 C1130.55,735.14 1139.5594,740.4694 1152.5694,749.0394 " fill="none" id="Question-to-Application" style="stroke:#181818;stroke-width:1.0;"/><polygon fill="#181818" points="1157.58,752.34,1152.2645,744.0487,1153.4045,749.5895,1147.8637,750.7295,1157.58,752.34" style="stroke:#181818;stroke-width:1.0;"/><text fill="#000000" font-family="sans-serif" font-size="13" lengthAdjust="spacing" textLength="6" x="1141.9042" y="741.9297">*</text></g><!--link Question to Answer--><g id="link_Question_Answer"><path codeLine="68" d="M817.0423,675.3918 C791.4823,698.5218 772.4594,715.7447 745.4994,740.1347 " fill="none" id="Question-Answer" style="stroke:#181818;stroke-width:1.0;"/><polygon fill="none" points="825.94,667.34,818.8072,668.4,817.0423,675.3918,824.1751,674.3318,825.94,667.34" style="stroke:#181818;stroke-width:1.0;"/><polygon fill="#181818" points="741.05,744.16,750.4076,741.0884,744.7578,740.8056,745.0406,735.1558,741.05,744.16" style="stroke:#181818;stroke-width:1.0;"/><text fill="#000000" font-family="sans-serif" font-size="13" lengthAdjust="spacing" textLength="6" x="742.0883" y="733.8031">*</text></g><!--link Question to StatementType--><g id="link_Question_StatementType"><path codeLine="69" d="M870,679.34 C870,699.9 870,707.33 870,729.86 " fill="none" id="Question-StatementType" style="stroke:#181818;stroke-width:1.0;"/><polygon fill="#181818" points="870,667.34,866,673.34,870,679.34,874,673.34,870,667.34" style="stroke:#181818;stroke-width:1.0;"/><polygon fill="#181818" points="870,735.86,874,726.86,870,730.86,866,726.86,870,735.86" style="stroke:#181818;stroke-width:1.0;"/></g><!--link Question to Solution--><g id="link_Question_Solution"><path codeLine="70" d="M963.1488,637.6353 C1053.7288,649.4753 1191.08,674.2 1309,727.95 C1327.24,736.27 1340.7202,745.0311 1355.8202,756.7511 " fill="none" id="Question-Solution" style="stroke:#181818;stroke-width:1.0;"/><polygon fill="none" points="951.25,636.08,956.6809,640.8239,963.1488,637.6353,957.7178,632.8914,951.25,636.08" style="stroke:#181818;stroke-width:1.0;"/><polygon fill="#181818" points="1360.56,760.43,1355.9028,751.7518,1356.6101,757.3643,1350.9977,758.0716,1360.56,760.43" style="stroke:#181818;stroke-width:1.0;"/><text fill="#000000" font-family="sans-serif" font-size="13" lengthAdjust="spacing" textLength="6" x="1346.7953" y="750.1059">*</text></g><!--link Question to QuestionType--><g id="link_Question_QuestionType"><path codeLine="71" d="M918.6999,675.7905 C942.0199,698.9205 958.7709,715.5439 983.3509,739.9339 " fill="none" id="Question-QuestionType" style="stroke:#181818;stroke-width:1.0;"/><polygon fill="#181818" points="910.18,667.34,911.6231,674.4052,918.6999,675.7905,917.2568,668.7253,910.18,667.34" style="stroke:#181818;stroke-width:1.0;"/><polygon fill="#181818" points="987.61,744.16,984.0388,734.9814,984.0608,740.6382,978.404,740.6602,987.61,744.16" style="stroke:#181818;stroke-width:1.0;"/></g><!--link Concept to Definition--><g id="link_Concept_Definition"><path codeLine="87" d="M397.0377,995.5329 C394.2877,1009.7929 395.53,1016.18 403,1030.39 C409.11,1042.01 413.7997,1048.1689 424.2697,1056.3389 " fill="none" id="Concept-Definition" style="stroke:#181818;stroke-width:1.0;"/><polygon fill="#181818" points="399.31,983.75,394.2462,988.884,397.0377,995.5329,402.1015,990.3989,399.31,983.75" style="stroke:#181818;stroke-width:1.0;"/><polygon fill="#181818" points="429,1060.03,424.3654,1051.3398,425.0581,1056.954,419.4438,1057.6468,429,1060.03" style="stroke:#181818;stroke-width:1.0;"/><text fill="#000000" font-family="sans-serif" font-size="13" lengthAdjust="spacing" textLength="44" x="404" y="1026.9584">correct</text><text fill="#000000" font-family="sans-serif" font-size="13" lengthAdjust="spacing" textLength="10" x="405.6125" y="1049.7334">+</text></g><!--link Concept to Definition--><g id="link_Concept_Definition"><path codeLine="88" d="M437.2765,992.6871 C445.3665,1001.5371 446.05,1003.1 453,1013.39 C462.85,1027.98 469.2518,1039.9787 476.0818,1054.6787 " fill="none" id="Concept-Definition-1" style="stroke:#181818;stroke-width:1.0;"/><polygon fill="#181818" points="429.18,983.83,430.2759,990.9573,437.2765,992.6871,436.1806,985.5597,429.18,983.83" style="stroke:#181818;stroke-width:1.0;"/><polygon fill="#181818" points="478.61,1060.12,478.4453,1050.2725,476.5032,1055.5855,471.1902,1053.6434,478.61,1060.12" style="stroke:#181818;stroke-width:1.0;"/><text fill="#000000" font-family="sans-serif" font-size="13" lengthAdjust="spacing" textLength="56" x="465" y="1026.9584">incorrect</text><text fill="#000000" font-family="sans-serif" font-size="13" lengthAdjust="spacing" textLength="6" x="469.2296" y="1049.4675">*</text></g><!--link Concept to Relation--><g id="link_Concept_Relation"><path codeLine="89" d="M357.7336,928.9342 C332.7736,914.2142 309.37,901.67 278,888.39 C236.44,870.81 221.74,877.81 181,858.39 C162.17,849.42 147.7209,840.5729 131.3509,829.1529 " fill="none" id="Concept-Relation" style="stroke:#181818;stroke-width:1.0;"/><polygon fill="#181818" points="368.07,935.03,364.9337,928.5366,357.7336,928.9342,360.8699,935.4276,368.07,935.03" style="stroke:#181818;stroke-width:1.0;"/><polygon fill="#181818" points="126.43,825.72,131.5227,834.1499,130.5307,828.5808,136.0999,827.5888,126.43,825.72" style="stroke:#181818;stroke-width:1.0;"/><text fill="#000000" font-family="sans-serif" font-size="13" lengthAdjust="spacing" textLength="6" x="127.7557" y="845.9517">*</text></g><!--link Relation to Concept--><g id="link_Relation_Concept"><path codeLine="103" d="M95,825.77 C104.72,851.23 122.01,885.88 149,905.39 C182.36,929.52 290.7714,945.2964 355.1314,952.8964 " fill="none" id="Relation-to-Concept" style="stroke:#181818;stroke-width:1.0;"/><polygon fill="#181818" points="361.09,953.6,352.6212,948.5722,356.1245,953.0136,351.683,956.517,361.09,953.6" style="stroke:#181818;stroke-width:1.0;"/><text fill="#000000" font-family="sans-serif" font-size="13" lengthAdjust="spacing" textLength="37" x="150" y="901.9584">origin</text></g><!--link Relation to Concept--><g id="link_Relation_Concept"><path codeLine="104" d="M119.18,825.9 C147.34,850.57 189.29,884.07 231,905.39 C272.83,926.78 318.9409,939.8127 355.3309,948.1327 " fill="none" id="Relation-to-Concept-1" style="stroke:#181818;stroke-width:1.0;"/><polygon fill="#181818" points="361.18,949.47,353.2979,943.5647,356.3058,948.3556,351.5149,951.3634,361.18,949.47" style="stroke:#181818;stroke-width:1.0;"/><text fill="#000000" font-family="sans-serif" font-size="13" lengthAdjust="spacing" textLength="37" x="232" y="901.9584">target</text></g><!--link Definition to Justification--><g id="link_Definition_Justification"><path codeLine="94" d="M574.2964,1129.178 C627.8964,1152.328 684.4918,1176.7609 738.1118,1199.9209 " fill="none" id="Definition-Justification" style="stroke:#181818;stroke-width:1.0;"/><polygon fill="none" points="563.28,1124.42,567.2022,1130.4711,574.2964,1129.178,570.3742,1123.1269,563.28,1124.42" style="stroke:#181818;stroke-width:1.0;"/><polygon fill="#181818" points="743.62,1202.3,736.9439,1195.0592,739.0299,1200.3174,733.7717,1202.4034,743.62,1202.3" style="stroke:#181818;stroke-width:1.0;"/><text fill="#000000" font-family="sans-serif" font-size="13" lengthAdjust="spacing" textLength="92" x="674" y="1168.4484">correct = false</text><text fill="#000000" font-family="sans-serif" font-size="13" lengthAdjust="spacing" textLength="6" x="729.9496" y="1195.8291">*</text></g><!--link Relation to RelationType--><g id="link_Relation_RelationType"><path codeLine="105" d="M175.16,793.17 C186.89,793.17 180.62,793.17 192.35,793.17 " fill="none" id="Relation-RelationType" style="stroke:#181818;stroke-width:1.0;"/><polygon fill="#181818" points="163.16,793.17,169.16,797.17,175.16,793.17,169.16,789.17,163.16,793.17" style="stroke:#181818;stroke-width:1.0;"/><polygon fill="#181818" points="198.35,793.17,189.35,789.17,193.35,793.17,189.35,797.17,198.35,793.17" style="stroke:#181818;stroke-width:1.0;"/></g><!--link Solution to Justification--><g id="link_Solution_Justification"><path codeLine="118" d="M1345.5594,832.9658 C1238.3094,913.8558 968.9202,1117.037 861.6602,1197.937 " fill="none" id="Solution-Justification" style="stroke:#181818;stroke-width:1.0;"/><polygon fill="none" points="1355.14,825.74,1347.9411,826.1594,1345.5594,832.9658,1352.7583,832.5464,1355.14,825.74" style="stroke:#181818;stroke-width:1.0;"/><polygon fill="#181818" points="856.87,1201.55,866.464,1199.324,860.8619,1198.5392,861.6467,1192.937,856.87,1201.55" style="stroke:#181818;stroke-width:1.0;"/><text fill="#000000" font-family="sans-serif" font-size="13" lengthAdjust="spacing" textLength="92" x="1107" y="1026.9584">correct = false</text><text fill="#000000" font-family="sans-serif" font-size="13" lengthAdjust="spacing" textLength="5" x="859.621" y="1191.2593">?</text></g><!--SRC=[ZLNDRjD04BxxALOv1gKF48MYokLG1AAGm7rhJvoLRA_P7HT2ctTdzj-Rr14vxSnyy_zvKhLSQ_Qn7YkEGlQFBSUzL1rxAKx5fNQvMjsonRi5sm6l3g2kGROurj3Z76Gd1r7D6HzGzA2uEh8r6nJKi2UvVWCjRRRb8lEeHesocqEN1uxN8jtBZek-A2excHJtfM3qM_debEP9oXPuJuDA81a7PDih-9D6nIjqiXcgVR3DwyqDAsKtI2qG77XYsOfkQ3Dr37o7IAFlp6HzYHEmIJ0HarSf-mg6w99d3fsX4JHrzbbet5ZJBQE8EVgYHnSorMMvCn4thwiLUvHrnJLUw7-A6kI5TWT_iF0kBf_LMF14zgdDEwv7TBm1RGPjj0GrEprhtwqukZo3qaG5BoduDGe5fXWJncEbZtGt3Armr9cQB7EsiXsj8OmaOHDxf590V4ZqSNfuvkt84UefhwO1JFut5abajlEsZxYPRoFeQIL1ZcLef5oMH7xrnm6efe3RaKX1ezjPyan_DfHeYnFhzM-w555lF_1jo6ypPJxvA7EthBu2-h7BLBwzhmEuiNuPMnJqCPG7AIgmgacffQnDapPALeyFKxRoB-mekfNkpGqI67Zo7LeUXKzq4iJ-E1t3ANrgTcPkIVuTRsGAQiwMeyOPQdc64lqiBjOKQ9xyvkb734-mi3FNKA3UEdYzPtlUQWZnSzIr5DuX51YnddP1xsaNOVPS-oxNJ2hHq66UiI9N3M2oBbS4Fo1XikXktLELB-Q7zWJHMbOYxJOSlo0_zFI_9v3tWL1Dew0vMtgWxxMP18md_OUBgREPiRiFwlyloeM5ZtYGQar7mFr3duf_]--></g></svg>