<?xml version="1.0" encoding="us-ascii" standalone="no"?><svg xmlns="http://www.w3.org/2000/svg" xmlns:xlink="http://www.w3.org/1999/xlink" contentStyleType="text/css" height="1374px" preserveAspectRatio="none" style="width:1135px;height:1374px;background:#FFFFFF;" version="1.1" viewBox="0 0 1135 1374" width="1135px" zoomAndPan="magnify"><defs/><g><!--class EducationalPlatform--><g id="elem_EducationalPlatform"><rect fill="#F1F1F1" height="48" id="EducationalPlatform" rx="2.5" ry="2.5" style="stroke:#181818;stroke-width:0.5;" width="158" x="543" y="7"/><ellipse cx="558" cy="23" fill="#ADD1B2" rx="11" ry="11" style="stroke:#181818;stroke-width:1.0;"/><path d="M560.7656,18.875 Q560.9219,18.6563 561.1094,18.5469 Q561.2969,18.4375 561.5156,18.4375 Q561.8906,18.4375 562.125,18.7031 Q562.3594,18.9531 562.3594,19.5625 L562.3594,21.0156 Q562.3594,21.625 562.125,21.8906 Q561.8906,22.1563 561.5156,22.1563 Q561.1719,22.1563 560.9688,21.9531 Q560.7656,21.7656 560.6563,21.25 Q560.6094,20.8906 560.4219,20.7031 Q560.0938,20.3281 559.4844,20.1094 Q558.875,19.8906 558.25,19.8906 Q557.4844,19.8906 556.8438,20.2188 Q556.2188,20.5469 555.7188,21.2969 Q555.2344,22.0469 555.2344,23.0781 L555.2344,24.1719 Q555.2344,25.4063 556.125,26.2344 Q557.0156,27.0469 558.6094,27.0469 Q559.5469,27.0469 560.2031,26.7969 Q560.5938,26.6406 561.0156,26.2031 Q561.2813,25.9375 561.4219,25.8594 Q561.5781,25.7813 561.7813,25.7813 Q562.1094,25.7813 562.3594,26.0469 Q562.625,26.2969 562.625,26.6406 Q562.625,26.9844 562.2813,27.3906 Q561.7813,27.9688 560.9844,28.2969 Q559.9063,28.75 558.6094,28.75 Q557.0938,28.75 555.8906,28.125 Q554.9063,27.625 554.2188,26.5625 Q553.5313,25.4844 553.5313,24.2031 L553.5313,23.0469 Q553.5313,21.7188 554.1406,20.5781 Q554.7656,19.4219 555.8594,18.8125 Q556.9531,18.1875 558.1875,18.1875 Q558.9219,18.1875 559.5625,18.3594 Q560.2188,18.5156 560.7656,18.875 Z " fill="#000000"/><text fill="#000000" font-family="sans-serif" font-size="14" lengthAdjust="spacing" textLength="126" x="572" y="28.7285">EducationalPlatform</text><line style="stroke:#181818;stroke-width:0.5;" x1="544" x2="700" y1="39" y2="39"/><line style="stroke:#181818;stroke-width:0.5;" x1="544" x2="700" y1="47" y2="47"/></g><!--class Topic--><g id="elem_Topic"><rect codeLine="59" fill="#F1F1F1" height="48" id="Topic" rx="2.5" ry="2.5" style="stroke:#181818;stroke-width:0.5;" width="67" x="389.5" y="368"/><ellipse cx="404.5" cy="384" fill="#A9DCDF" rx="11" ry="11" style="stroke:#181818;stroke-width:1.0;"/><path d="M406.6875,385.7656 L402.5469,385.7656 L402.125,386.7969 L402.5469,386.7969 Q403.1563,386.7969 403.4219,387.0313 Q403.6875,387.2656 403.6875,387.6563 Q403.6875,388.0313 403.4219,388.2656 Q403.1563,388.5 402.5469,388.5 L400.25,388.5 Q399.6406,388.5 399.3906,388.2656 Q399.125,388.0313 399.125,387.6406 Q399.125,387.2656 399.4063,387.0313 Q399.6719,386.7813 400.2969,386.7969 L402.9688,380.1406 L401.8594,380.1406 Q401.25,380.1406 400.9844,379.9063 Q400.7188,379.6719 400.7188,379.2813 Q400.7188,378.9063 400.9844,378.6719 Q401.25,378.4375 401.8594,378.4375 L405.5313,378.4375 L408.9219,386.7969 Q409.5156,386.7969 409.7031,386.9375 Q410.0938,387.2031 410.0938,387.6563 Q410.0938,388.0313 409.8281,388.2656 Q409.5781,388.5 408.9688,388.5 L406.6719,388.5 Q406.0625,388.5 405.7969,388.2656 Q405.5313,388.0313 405.5313,387.6406 Q405.5313,387.2656 405.7969,387.0313 Q406.0625,386.7969 406.6719,386.7969 L407.0938,386.7969 L406.6875,385.7656 Z M405.9688,384.0625 L404.6094,380.6875 L403.2344,384.0625 L405.9688,384.0625 Z " fill="#000000"/><text fill="#000000" font-family="sans-serif" font-size="14" font-style="italic" lengthAdjust="spacing" textLength="35" x="418.5" y="389.7285">Topic</text><line style="stroke:#181818;stroke-width:0.5;" x1="390.5" x2="455.5" y1="400" y2="400"/><line style="stroke:#181818;stroke-width:0.5;" x1="390.5" x2="455.5" y1="408" y2="408"/></g><!--class Itinerary--><g id="elem_Itinerary"><rect codeLine="43" fill="#F1F1F1" height="48" id="Itinerary" rx="2.5" ry="2.5" style="stroke:#181818;stroke-width:0.5;" width="84" x="726" y="242"/><ellipse cx="741" cy="258" fill="#A9DCDF" rx="11" ry="11" style="stroke:#181818;stroke-width:1.0;"/><path d="M743.1875,259.7656 L739.0469,259.7656 L738.625,260.7969 L739.0469,260.7969 Q739.6563,260.7969 739.9219,261.0313 Q740.1875,261.2656 740.1875,261.6563 Q740.1875,262.0313 739.9219,262.2656 Q739.6563,262.5 739.0469,262.5 L736.75,262.5 Q736.1406,262.5 735.8906,262.2656 Q735.625,262.0313 735.625,261.6406 Q735.625,261.2656 735.9063,261.0313 Q736.1719,260.7813 736.7969,260.7969 L739.4688,254.1406 L738.3594,254.1406 Q737.75,254.1406 737.4844,253.9063 Q737.2188,253.6719 737.2188,253.2813 Q737.2188,252.9063 737.4844,252.6719 Q737.75,252.4375 738.3594,252.4375 L742.0313,252.4375 L745.4219,260.7969 Q746.0156,260.7969 746.2031,260.9375 Q746.5938,261.2031 746.5938,261.6563 Q746.5938,262.0313 746.3281,262.2656 Q746.0781,262.5 745.4688,262.5 L743.1719,262.5 Q742.5625,262.5 742.2969,262.2656 Q742.0313,262.0313 742.0313,261.6406 Q742.0313,261.2656 742.2969,261.0313 Q742.5625,260.7969 743.1719,260.7969 L743.5938,260.7969 L743.1875,259.7656 Z M742.4688,258.0625 L741.1094,254.6875 L739.7344,258.0625 L742.4688,258.0625 Z " fill="#000000"/><text fill="#000000" font-family="sans-serif" font-size="14" font-style="italic" lengthAdjust="spacing" textLength="52" x="755" y="263.7285">Itinerary</text><line style="stroke:#181818;stroke-width:0.5;" x1="727" x2="809" y1="274" y2="274"/><line style="stroke:#181818;stroke-width:0.5;" x1="727" x2="809" y1="282" y2="282"/></g><!--class User--><g id="elem_User"><rect codeLine="28" fill="#F1F1F1" height="48" id="User" rx="2.5" ry="2.5" style="stroke:#181818;stroke-width:0.5;" width="62" x="591" y="116"/><ellipse cx="606" cy="132" fill="#A9DCDF" rx="11" ry="11" style="stroke:#181818;stroke-width:1.0;"/><path d="M608.1875,133.7656 L604.0469,133.7656 L603.625,134.7969 L604.0469,134.7969 Q604.6563,134.7969 604.9219,135.0313 Q605.1875,135.2656 605.1875,135.6563 Q605.1875,136.0313 604.9219,136.2656 Q604.6563,136.5 604.0469,136.5 L601.75,136.5 Q601.1406,136.5 600.8906,136.2656 Q600.625,136.0313 600.625,135.6406 Q600.625,135.2656 600.9063,135.0313 Q601.1719,134.7813 601.7969,134.7969 L604.4688,128.1406 L603.3594,128.1406 Q602.75,128.1406 602.4844,127.9063 Q602.2188,127.6719 602.2188,127.2813 Q602.2188,126.9063 602.4844,126.6719 Q602.75,126.4375 603.3594,126.4375 L607.0313,126.4375 L610.4219,134.7969 Q611.0156,134.7969 611.2031,134.9375 Q611.5938,135.2031 611.5938,135.6563 Q611.5938,136.0313 611.3281,136.2656 Q611.0781,136.5 610.4688,136.5 L608.1719,136.5 Q607.5625,136.5 607.2969,136.2656 Q607.0313,136.0313 607.0313,135.6406 Q607.0313,135.2656 607.2969,135.0313 Q607.5625,134.7969 608.1719,134.7969 L608.5938,134.7969 L608.1875,133.7656 Z M607.4688,132.0625 L606.1094,128.6875 L604.7344,132.0625 L607.4688,132.0625 Z " fill="#000000"/><text fill="#000000" font-family="sans-serif" font-size="14" font-style="italic" lengthAdjust="spacing" textLength="30" x="620" y="137.7285">User</text><line style="stroke:#181818;stroke-width:0.5;" x1="592" x2="652" y1="148" y2="148"/><line style="stroke:#181818;stroke-width:0.5;" x1="592" x2="652" y1="156" y2="156"/></g><!--class Chat--><g id="elem_Chat"><rect fill="#F1F1F1" height="48" id="Chat" rx="2.5" ry="2.5" style="stroke:#181818;stroke-width:0.5;" width="62" x="392" y="242"/><ellipse cx="407" cy="258" fill="#ADD1B2" rx="11" ry="11" style="stroke:#181818;stroke-width:1.0;"/><path d="M409.7656,253.875 Q409.9219,253.6563 410.1094,253.5469 Q410.2969,253.4375 410.5156,253.4375 Q410.8906,253.4375 411.125,253.7031 Q411.3594,253.9531 411.3594,254.5625 L411.3594,256.0156 Q411.3594,256.625 411.125,256.8906 Q410.8906,257.1563 410.5156,257.1563 Q410.1719,257.1563 409.9688,256.9531 Q409.7656,256.7656 409.6563,256.25 Q409.6094,255.8906 409.4219,255.7031 Q409.0938,255.3281 408.4844,255.1094 Q407.875,254.8906 407.25,254.8906 Q406.4844,254.8906 405.8438,255.2188 Q405.2188,255.5469 404.7188,256.2969 Q404.2344,257.0469 404.2344,258.0781 L404.2344,259.1719 Q404.2344,260.4063 405.125,261.2344 Q406.0156,262.0469 407.6094,262.0469 Q408.5469,262.0469 409.2031,261.7969 Q409.5938,261.6406 410.0156,261.2031 Q410.2813,260.9375 410.4219,260.8594 Q410.5781,260.7813 410.7813,260.7813 Q411.1094,260.7813 411.3594,261.0469 Q411.625,261.2969 411.625,261.6406 Q411.625,261.9844 411.2813,262.3906 Q410.7813,262.9688 409.9844,263.2969 Q408.9063,263.75 407.6094,263.75 Q406.0938,263.75 404.8906,263.125 Q403.9063,262.625 403.2188,261.5625 Q402.5313,260.4844 402.5313,259.2031 L402.5313,258.0469 Q402.5313,256.7188 403.1406,255.5781 Q403.7656,254.4219 404.8594,253.8125 Q405.9531,253.1875 407.1875,253.1875 Q407.9219,253.1875 408.5625,253.3594 Q409.2188,253.5156 409.7656,253.875 Z " fill="#000000"/><text fill="#000000" font-family="sans-serif" font-size="14" lengthAdjust="spacing" textLength="30" x="421" y="263.7285">Chat</text><line style="stroke:#181818;stroke-width:0.5;" x1="393" x2="453" y1="274" y2="274"/><line style="stroke:#181818;stroke-width:0.5;" x1="393" x2="453" y1="282" y2="282"/></g><!--class Library--><g id="elem_Library"><rect fill="#F1F1F1" height="48" id="Library" rx="2.5" ry="2.5" style="stroke:#181818;stroke-width:0.5;" width="76" x="871" y="486"/><ellipse cx="886" cy="502" fill="#ADD1B2" rx="11" ry="11" style="stroke:#181818;stroke-width:1.0;"/><path d="M888.7656,497.875 Q888.9219,497.6563 889.1094,497.5469 Q889.2969,497.4375 889.5156,497.4375 Q889.8906,497.4375 890.125,497.7031 Q890.3594,497.9531 890.3594,498.5625 L890.3594,500.0156 Q890.3594,500.625 890.125,500.8906 Q889.8906,501.1563 889.5156,501.1563 Q889.1719,501.1563 888.9688,500.9531 Q888.7656,500.7656 888.6563,500.25 Q888.6094,499.8906 888.4219,499.7031 Q888.0938,499.3281 887.4844,499.1094 Q886.875,498.8906 886.25,498.8906 Q885.4844,498.8906 884.8438,499.2188 Q884.2188,499.5469 883.7188,500.2969 Q883.2344,501.0469 883.2344,502.0781 L883.2344,503.1719 Q883.2344,504.4063 884.125,505.2344 Q885.0156,506.0469 886.6094,506.0469 Q887.5469,506.0469 888.2031,505.7969 Q888.5938,505.6406 889.0156,505.2031 Q889.2813,504.9375 889.4219,504.8594 Q889.5781,504.7813 889.7813,504.7813 Q890.1094,504.7813 890.3594,505.0469 Q890.625,505.2969 890.625,505.6406 Q890.625,505.9844 890.2813,506.3906 Q889.7813,506.9688 888.9844,507.2969 Q887.9063,507.75 886.6094,507.75 Q885.0938,507.75 883.8906,507.125 Q882.9063,506.625 882.2188,505.5625 Q881.5313,504.4844 881.5313,503.2031 L881.5313,502.0469 Q881.5313,500.7188 882.1406,499.5781 Q882.7656,498.4219 883.8594,497.8125 Q884.9531,497.1875 886.1875,497.1875 Q886.9219,497.1875 887.5625,497.3594 Q888.2188,497.5156 888.7656,497.875 Z " fill="#000000"/><text fill="#000000" font-family="sans-serif" font-size="14" lengthAdjust="spacing" textLength="44" x="900" y="507.7285">Library</text><line style="stroke:#181818;stroke-width:0.5;" x1="872" x2="946" y1="518" y2="518"/><line style="stroke:#181818;stroke-width:0.5;" x1="872" x2="946" y1="526" y2="526"/></g><!--class Document--><g id="elem_Document"><rect fill="#F1F1F1" height="48" id="Document" rx="2.5" ry="2.5" style="stroke:#181818;stroke-width:0.5;" width="96" x="780" y="621.5"/><ellipse cx="795" cy="637.5" fill="#ADD1B2" rx="11" ry="11" style="stroke:#181818;stroke-width:1.0;"/><path d="M797.7656,633.375 Q797.9219,633.1563 798.1094,633.0469 Q798.2969,632.9375 798.5156,632.9375 Q798.8906,632.9375 799.125,633.2031 Q799.3594,633.4531 799.3594,634.0625 L799.3594,635.5156 Q799.3594,636.125 799.125,636.3906 Q798.8906,636.6563 798.5156,636.6563 Q798.1719,636.6563 797.9688,636.4531 Q797.7656,636.2656 797.6563,635.75 Q797.6094,635.3906 797.4219,635.2031 Q797.0938,634.8281 796.4844,634.6094 Q795.875,634.3906 795.25,634.3906 Q794.4844,634.3906 793.8438,634.7188 Q793.2188,635.0469 792.7188,635.7969 Q792.2344,636.5469 792.2344,637.5781 L792.2344,638.6719 Q792.2344,639.9063 793.125,640.7344 Q794.0156,641.5469 795.6094,641.5469 Q796.5469,641.5469 797.2031,641.2969 Q797.5938,641.1406 798.0156,640.7031 Q798.2813,640.4375 798.4219,640.3594 Q798.5781,640.2813 798.7813,640.2813 Q799.1094,640.2813 799.3594,640.5469 Q799.625,640.7969 799.625,641.1406 Q799.625,641.4844 799.2813,641.8906 Q798.7813,642.4688 797.9844,642.7969 Q796.9063,643.25 795.6094,643.25 Q794.0938,643.25 792.8906,642.625 Q791.9063,642.125 791.2188,641.0625 Q790.5313,639.9844 790.5313,638.7031 L790.5313,637.5469 Q790.5313,636.2188 791.1406,635.0781 Q791.7656,633.9219 792.8594,633.3125 Q793.9531,632.6875 795.1875,632.6875 Q795.9219,632.6875 796.5625,632.8594 Q797.2188,633.0156 797.7656,633.375 Z " fill="#000000"/><text fill="#000000" font-family="sans-serif" font-size="14" lengthAdjust="spacing" textLength="64" x="809" y="643.2285">Document</text><line style="stroke:#181818;stroke-width:0.5;" x1="781" x2="875" y1="653.5" y2="653.5"/><line style="stroke:#181818;stroke-width:0.5;" x1="781" x2="875" y1="661.5" y2="661.5"/></g><!--class Exercise--><g id="elem_Exercise"><rect codeLine="50" fill="#F1F1F1" height="83.2188" id="Exercise" rx="2.5" ry="2.5" style="stroke:#181818;stroke-width:0.5;" width="108" x="486" y="604"/><ellipse cx="511.35" cy="620" fill="#ADD1B2" rx="11" ry="11" style="stroke:#181818;stroke-width:1.0;"/><path d="M514.1156,615.875 Q514.2719,615.6563 514.4594,615.5469 Q514.6469,615.4375 514.8656,615.4375 Q515.2406,615.4375 515.475,615.7031 Q515.7094,615.9531 515.7094,616.5625 L515.7094,618.0156 Q515.7094,618.625 515.475,618.8906 Q515.2406,619.1563 514.8656,619.1563 Q514.5219,619.1563 514.3188,618.9531 Q514.1156,618.7656 514.0063,618.25 Q513.9594,617.8906 513.7719,617.7031 Q513.4438,617.3281 512.8344,617.1094 Q512.225,616.8906 511.6,616.8906 Q510.8344,616.8906 510.1938,617.2188 Q509.5688,617.5469 509.0688,618.2969 Q508.5844,619.0469 508.5844,620.0781 L508.5844,621.1719 Q508.5844,622.4063 509.475,623.2344 Q510.3656,624.0469 511.9594,624.0469 Q512.8969,624.0469 513.5531,623.7969 Q513.9438,623.6406 514.3656,623.2031 Q514.6313,622.9375 514.7719,622.8594 Q514.9281,622.7813 515.1313,622.7813 Q515.4594,622.7813 515.7094,623.0469 Q515.975,623.2969 515.975,623.6406 Q515.975,623.9844 515.6313,624.3906 Q515.1313,624.9688 514.3344,625.2969 Q513.2563,625.75 511.9594,625.75 Q510.4438,625.75 509.2406,625.125 Q508.2563,624.625 507.5688,623.5625 Q506.8813,622.4844 506.8813,621.2031 L506.8813,620.0469 Q506.8813,618.7188 507.4906,617.5781 Q508.1156,616.4219 509.2094,615.8125 Q510.3031,615.1875 511.5375,615.1875 Q512.2719,615.1875 512.9125,615.3594 Q513.5688,615.5156 514.1156,615.875 Z " fill="#000000"/><text fill="#000000" font-family="sans-serif" font-size="14" lengthAdjust="spacing" textLength="53" x="527.65" y="625.7285">Exercise</text><line style="stroke:#181818;stroke-width:0.5;" x1="487" x2="593" y1="636" y2="636"/><line style="stroke:#181818;stroke-width:0.5;" x1="487" x2="593" y1="644" y2="644"/><ellipse cx="497" cy="658.3047" fill="#84BE84" rx="3" ry="3" style="stroke:#038048;stroke-width:1.0;"/><text fill="#000000" font-family="sans-serif" font-size="14" lengthAdjust="spacing" textLength="78" x="506" y="662.5332">getVersion()</text><ellipse cx="497" cy="675.9141" fill="#84BE84" rx="3" ry="3" style="stroke:#038048;stroke-width:1.0;"/><text fill="#000000" font-family="sans-serif" font-size="14" lengthAdjust="spacing" textLength="82" x="506" y="680.1426">isAutomatic()</text></g><!--class Media--><g id="elem_Media"><rect codeLine="16" fill="#F1F1F1" height="48" id="Media" rx="2.5" ry="2.5" style="stroke:#181818;stroke-width:0.5;" width="71" x="872.5" y="792"/><ellipse cx="887.5" cy="808" fill="#A9DCDF" rx="11" ry="11" style="stroke:#181818;stroke-width:1.0;"/><path d="M889.6875,809.7656 L885.5469,809.7656 L885.125,810.7969 L885.5469,810.7969 Q886.1563,810.7969 886.4219,811.0313 Q886.6875,811.2656 886.6875,811.6563 Q886.6875,812.0313 886.4219,812.2656 Q886.1563,812.5 885.5469,812.5 L883.25,812.5 Q882.6406,812.5 882.3906,812.2656 Q882.125,812.0313 882.125,811.6406 Q882.125,811.2656 882.4063,811.0313 Q882.6719,810.7813 883.2969,810.7969 L885.9688,804.1406 L884.8594,804.1406 Q884.25,804.1406 883.9844,803.9063 Q883.7188,803.6719 883.7188,803.2813 Q883.7188,802.9063 883.9844,802.6719 Q884.25,802.4375 884.8594,802.4375 L888.5313,802.4375 L891.9219,810.7969 Q892.5156,810.7969 892.7031,810.9375 Q893.0938,811.2031 893.0938,811.6563 Q893.0938,812.0313 892.8281,812.2656 Q892.5781,812.5 891.9688,812.5 L889.6719,812.5 Q889.0625,812.5 888.7969,812.2656 Q888.5313,812.0313 888.5313,811.6406 Q888.5313,811.2656 888.7969,811.0313 Q889.0625,810.7969 889.6719,810.7969 L890.0938,810.7969 L889.6875,809.7656 Z M888.9688,808.0625 L887.6094,804.6875 L886.2344,808.0625 L888.9688,808.0625 Z " fill="#000000"/><text fill="#000000" font-family="sans-serif" font-size="14" font-style="italic" lengthAdjust="spacing" textLength="39" x="901.5" y="813.7285">Media</text><line style="stroke:#181818;stroke-width:0.5;" x1="873.5" x2="942.5" y1="824" y2="824"/><line style="stroke:#181818;stroke-width:0.5;" x1="873.5" x2="942.5" y1="832" y2="832"/></g><!--class Image--><g id="elem_Image"><rect fill="#F1F1F1" height="48" id="Image" rx="2.5" ry="2.5" style="stroke:#181818;stroke-width:0.5;" width="70" x="862" y="1101"/><ellipse cx="877" cy="1117" fill="#ADD1B2" rx="11" ry="11" style="stroke:#181818;stroke-width:1.0;"/><path d="M879.7656,1112.875 Q879.9219,1112.6563 880.1094,1112.5469 Q880.2969,1112.4375 880.5156,1112.4375 Q880.8906,1112.4375 881.125,1112.7031 Q881.3594,1112.9531 881.3594,1113.5625 L881.3594,1115.0156 Q881.3594,1115.625 881.125,1115.8906 Q880.8906,1116.1563 880.5156,1116.1563 Q880.1719,1116.1563 879.9688,1115.9531 Q879.7656,1115.7656 879.6563,1115.25 Q879.6094,1114.8906 879.4219,1114.7031 Q879.0938,1114.3281 878.4844,1114.1094 Q877.875,1113.8906 877.25,1113.8906 Q876.4844,1113.8906 875.8438,1114.2188 Q875.2188,1114.5469 874.7188,1115.2969 Q874.2344,1116.0469 874.2344,1117.0781 L874.2344,1118.1719 Q874.2344,1119.4063 875.125,1120.2344 Q876.0156,1121.0469 877.6094,1121.0469 Q878.5469,1121.0469 879.2031,1120.7969 Q879.5938,1120.6406 880.0156,1120.2031 Q880.2813,1119.9375 880.4219,1119.8594 Q880.5781,1119.7813 880.7813,1119.7813 Q881.1094,1119.7813 881.3594,1120.0469 Q881.625,1120.2969 881.625,1120.6406 Q881.625,1120.9844 881.2813,1121.3906 Q880.7813,1121.9688 879.9844,1122.2969 Q878.9063,1122.75 877.6094,1122.75 Q876.0938,1122.75 874.8906,1122.125 Q873.9063,1121.625 873.2188,1120.5625 Q872.5313,1119.4844 872.5313,1118.2031 L872.5313,1117.0469 Q872.5313,1115.7188 873.1406,1114.5781 Q873.7656,1113.4219 874.8594,1112.8125 Q875.9531,1112.1875 877.1875,1112.1875 Q877.9219,1112.1875 878.5625,1112.3594 Q879.2188,1112.5156 879.7656,1112.875 Z " fill="#000000"/><text fill="#000000" font-family="sans-serif" font-size="14" lengthAdjust="spacing" textLength="38" x="891" y="1122.7285">Image</text><line style="stroke:#181818;stroke-width:0.5;" x1="863" x2="931" y1="1133" y2="1133"/><line style="stroke:#181818;stroke-width:0.5;" x1="863" x2="931" y1="1141" y2="1141"/></g><!--class Audio--><g id="elem_Audio"><rect fill="#F1F1F1" height="48" id="Audio" rx="2.5" ry="2.5" style="stroke:#181818;stroke-width:0.5;" width="68" x="1001" y="1210"/><ellipse cx="1016" cy="1226" fill="#ADD1B2" rx="11" ry="11" style="stroke:#181818;stroke-width:1.0;"/><path d="M1018.7656,1221.875 Q1018.9219,1221.6563 1019.1094,1221.5469 Q1019.2969,1221.4375 1019.5156,1221.4375 Q1019.8906,1221.4375 1020.125,1221.7031 Q1020.3594,1221.9531 1020.3594,1222.5625 L1020.3594,1224.0156 Q1020.3594,1224.625 1020.125,1224.8906 Q1019.8906,1225.1563 1019.5156,1225.1563 Q1019.1719,1225.1563 1018.9688,1224.9531 Q1018.7656,1224.7656 1018.6563,1224.25 Q1018.6094,1223.8906 1018.4219,1223.7031 Q1018.0938,1223.3281 1017.4844,1223.1094 Q1016.875,1222.8906 1016.25,1222.8906 Q1015.4844,1222.8906 1014.8438,1223.2188 Q1014.2188,1223.5469 1013.7188,1224.2969 Q1013.2344,1225.0469 1013.2344,1226.0781 L1013.2344,1227.1719 Q1013.2344,1228.4063 1014.125,1229.2344 Q1015.0156,1230.0469 1016.6094,1230.0469 Q1017.5469,1230.0469 1018.2031,1229.7969 Q1018.5938,1229.6406 1019.0156,1229.2031 Q1019.2813,1228.9375 1019.4219,1228.8594 Q1019.5781,1228.7813 1019.7813,1228.7813 Q1020.1094,1228.7813 1020.3594,1229.0469 Q1020.625,1229.2969 1020.625,1229.6406 Q1020.625,1229.9844 1020.2813,1230.3906 Q1019.7813,1230.9688 1018.9844,1231.2969 Q1017.9063,1231.75 1016.6094,1231.75 Q1015.0938,1231.75 1013.8906,1231.125 Q1012.9063,1230.625 1012.2188,1229.5625 Q1011.5313,1228.4844 1011.5313,1227.2031 L1011.5313,1226.0469 Q1011.5313,1224.7188 1012.1406,1223.5781 Q1012.7656,1222.4219 1013.8594,1221.8125 Q1014.9531,1221.1875 1016.1875,1221.1875 Q1016.9219,1221.1875 1017.5625,1221.3594 Q1018.2188,1221.5156 1018.7656,1221.875 Z " fill="#000000"/><text fill="#000000" font-family="sans-serif" font-size="14" lengthAdjust="spacing" textLength="36" x="1030" y="1231.7285">Audio</text><line style="stroke:#181818;stroke-width:0.5;" x1="1002" x2="1068" y1="1242" y2="1242"/><line style="stroke:#181818;stroke-width:0.5;" x1="1002" x2="1068" y1="1250" y2="1250"/></g><!--class Text--><g id="elem_Text"><rect fill="#F1F1F1" height="48" id="Text" rx="2.5" ry="2.5" style="stroke:#181818;stroke-width:0.5;" width="59" x="787.5" y="1023"/><ellipse cx="802.5" cy="1039" fill="#ADD1B2" rx="11" ry="11" style="stroke:#181818;stroke-width:1.0;"/><path d="M805.2656,1034.875 Q805.4219,1034.6563 805.6094,1034.5469 Q805.7969,1034.4375 806.0156,1034.4375 Q806.3906,1034.4375 806.625,1034.7031 Q806.8594,1034.9531 806.8594,1035.5625 L806.8594,1037.0156 Q806.8594,1037.625 806.625,1037.8906 Q806.3906,1038.1563 806.0156,1038.1563 Q805.6719,1038.1563 805.4688,1037.9531 Q805.2656,1037.7656 805.1563,1037.25 Q805.1094,1036.8906 804.9219,1036.7031 Q804.5938,1036.3281 803.9844,1036.1094 Q803.375,1035.8906 802.75,1035.8906 Q801.9844,1035.8906 801.3438,1036.2188 Q800.7188,1036.5469 800.2188,1037.2969 Q799.7344,1038.0469 799.7344,1039.0781 L799.7344,1040.1719 Q799.7344,1041.4063 800.625,1042.2344 Q801.5156,1043.0469 803.1094,1043.0469 Q804.0469,1043.0469 804.7031,1042.7969 Q805.0938,1042.6406 805.5156,1042.2031 Q805.7813,1041.9375 805.9219,1041.8594 Q806.0781,1041.7813 806.2813,1041.7813 Q806.6094,1041.7813 806.8594,1042.0469 Q807.125,1042.2969 807.125,1042.6406 Q807.125,1042.9844 806.7813,1043.3906 Q806.2813,1043.9688 805.4844,1044.2969 Q804.4063,1044.75 803.1094,1044.75 Q801.5938,1044.75 800.3906,1044.125 Q799.4063,1043.625 798.7188,1042.5625 Q798.0313,1041.4844 798.0313,1040.2031 L798.0313,1039.0469 Q798.0313,1037.7188 798.6406,1036.5781 Q799.2656,1035.4219 800.3594,1034.8125 Q801.4531,1034.1875 802.6875,1034.1875 Q803.4219,1034.1875 804.0625,1034.3594 Q804.7188,1034.5156 805.2656,1034.875 Z " fill="#000000"/><text fill="#000000" font-family="sans-serif" font-size="14" lengthAdjust="spacing" textLength="27" x="816.5" y="1044.7285">Text</text><line style="stroke:#181818;stroke-width:0.5;" x1="788.5" x2="845.5" y1="1055" y2="1055"/><line style="stroke:#181818;stroke-width:0.5;" x1="788.5" x2="845.5" y1="1063" y2="1063"/></g><!--class Video--><g id="elem_Video"><rect fill="#F1F1F1" height="48" id="Video" rx="2.5" ry="2.5" style="stroke:#181818;stroke-width:0.5;" width="68" x="950" y="945"/><ellipse cx="965" cy="961" fill="#ADD1B2" rx="11" ry="11" style="stroke:#181818;stroke-width:1.0;"/><path d="M967.7656,956.875 Q967.9219,956.6563 968.1094,956.5469 Q968.2969,956.4375 968.5156,956.4375 Q968.8906,956.4375 969.125,956.7031 Q969.3594,956.9531 969.3594,957.5625 L969.3594,959.0156 Q969.3594,959.625 969.125,959.8906 Q968.8906,960.1563 968.5156,960.1563 Q968.1719,960.1563 967.9688,959.9531 Q967.7656,959.7656 967.6563,959.25 Q967.6094,958.8906 967.4219,958.7031 Q967.0938,958.3281 966.4844,958.1094 Q965.875,957.8906 965.25,957.8906 Q964.4844,957.8906 963.8438,958.2188 Q963.2188,958.5469 962.7188,959.2969 Q962.2344,960.0469 962.2344,961.0781 L962.2344,962.1719 Q962.2344,963.4063 963.125,964.2344 Q964.0156,965.0469 965.6094,965.0469 Q966.5469,965.0469 967.2031,964.7969 Q967.5938,964.6406 968.0156,964.2031 Q968.2813,963.9375 968.4219,963.8594 Q968.5781,963.7813 968.7813,963.7813 Q969.1094,963.7813 969.3594,964.0469 Q969.625,964.2969 969.625,964.6406 Q969.625,964.9844 969.2813,965.3906 Q968.7813,965.9688 967.9844,966.2969 Q966.9063,966.75 965.6094,966.75 Q964.0938,966.75 962.8906,966.125 Q961.9063,965.625 961.2188,964.5625 Q960.5313,963.4844 960.5313,962.2031 L960.5313,961.0469 Q960.5313,959.7188 961.1406,958.5781 Q961.7656,957.4219 962.8594,956.8125 Q963.9531,956.1875 965.1875,956.1875 Q965.9219,956.1875 966.5625,956.3594 Q967.2188,956.5156 967.7656,956.875 Z " fill="#000000"/><text fill="#000000" font-family="sans-serif" font-size="14" lengthAdjust="spacing" textLength="36" x="979" y="966.7285">Video</text><line style="stroke:#181818;stroke-width:0.5;" x1="951" x2="1017" y1="977" y2="977"/><line style="stroke:#181818;stroke-width:0.5;" x1="951" x2="1017" y1="985" y2="985"/></g><!--class Transcription--><g id="elem_Transcription"><rect fill="#F1F1F1" height="48" id="Transcription" rx="2.5" ry="2.5" style="stroke:#181818;stroke-width:0.5;" width="115" x="771.5" y="1319"/><ellipse cx="786.5" cy="1335" fill="#ADD1B2" rx="11" ry="11" style="stroke:#181818;stroke-width:1.0;"/><path d="M789.2656,1330.875 Q789.4219,1330.6563 789.6094,1330.5469 Q789.7969,1330.4375 790.0156,1330.4375 Q790.3906,1330.4375 790.625,1330.7031 Q790.8594,1330.9531 790.8594,1331.5625 L790.8594,1333.0156 Q790.8594,1333.625 790.625,1333.8906 Q790.3906,1334.1563 790.0156,1334.1563 Q789.6719,1334.1563 789.4688,1333.9531 Q789.2656,1333.7656 789.1563,1333.25 Q789.1094,1332.8906 788.9219,1332.7031 Q788.5938,1332.3281 787.9844,1332.1094 Q787.375,1331.8906 786.75,1331.8906 Q785.9844,1331.8906 785.3438,1332.2188 Q784.7188,1332.5469 784.2188,1333.2969 Q783.7344,1334.0469 783.7344,1335.0781 L783.7344,1336.1719 Q783.7344,1337.4063 784.625,1338.2344 Q785.5156,1339.0469 787.1094,1339.0469 Q788.0469,1339.0469 788.7031,1338.7969 Q789.0938,1338.6406 789.5156,1338.2031 Q789.7813,1337.9375 789.9219,1337.8594 Q790.0781,1337.7813 790.2813,1337.7813 Q790.6094,1337.7813 790.8594,1338.0469 Q791.125,1338.2969 791.125,1338.6406 Q791.125,1338.9844 790.7813,1339.3906 Q790.2813,1339.9688 789.4844,1340.2969 Q788.4063,1340.75 787.1094,1340.75 Q785.5938,1340.75 784.3906,1340.125 Q783.4063,1339.625 782.7188,1338.5625 Q782.0313,1337.4844 782.0313,1336.2031 L782.0313,1335.0469 Q782.0313,1333.7188 782.6406,1332.5781 Q783.2656,1331.4219 784.3594,1330.8125 Q785.4531,1330.1875 786.6875,1330.1875 Q787.4219,1330.1875 788.0625,1330.3594 Q788.7188,1330.5156 789.2656,1330.875 Z " fill="#000000"/><text fill="#000000" font-family="sans-serif" font-size="14" lengthAdjust="spacing" textLength="83" x="800.5" y="1340.7285">Transcription</text><line style="stroke:#181818;stroke-width:0.5;" x1="772.5" x2="885.5" y1="1351" y2="1351"/><line style="stroke:#181818;stroke-width:0.5;" x1="772.5" x2="885.5" y1="1359" y2="1359"/></g><!--class MultimediaVideo--><g id="elem_MultimediaVideo"><rect fill="#F1F1F1" height="48" id="MultimediaVideo" rx="2.5" ry="2.5" style="stroke:#181818;stroke-width:0.5;" width="135" x="967.5" y="1101"/><ellipse cx="982.5" cy="1117" fill="#ADD1B2" rx="11" ry="11" style="stroke:#181818;stroke-width:1.0;"/><path d="M985.2656,1112.875 Q985.4219,1112.6563 985.6094,1112.5469 Q985.7969,1112.4375 986.0156,1112.4375 Q986.3906,1112.4375 986.625,1112.7031 Q986.8594,1112.9531 986.8594,1113.5625 L986.8594,1115.0156 Q986.8594,1115.625 986.625,1115.8906 Q986.3906,1116.1563 986.0156,1116.1563 Q985.6719,1116.1563 985.4688,1115.9531 Q985.2656,1115.7656 985.1563,1115.25 Q985.1094,1114.8906 984.9219,1114.7031 Q984.5938,1114.3281 983.9844,1114.1094 Q983.375,1113.8906 982.75,1113.8906 Q981.9844,1113.8906 981.3438,1114.2188 Q980.7188,1114.5469 980.2188,1115.2969 Q979.7344,1116.0469 979.7344,1117.0781 L979.7344,1118.1719 Q979.7344,1119.4063 980.625,1120.2344 Q981.5156,1121.0469 983.1094,1121.0469 Q984.0469,1121.0469 984.7031,1120.7969 Q985.0938,1120.6406 985.5156,1120.2031 Q985.7813,1119.9375 985.9219,1119.8594 Q986.0781,1119.7813 986.2813,1119.7813 Q986.6094,1119.7813 986.8594,1120.0469 Q987.125,1120.2969 987.125,1120.6406 Q987.125,1120.9844 986.7813,1121.3906 Q986.2813,1121.9688 985.4844,1122.2969 Q984.4063,1122.75 983.1094,1122.75 Q981.5938,1122.75 980.3906,1122.125 Q979.4063,1121.625 978.7188,1120.5625 Q978.0313,1119.4844 978.0313,1118.2031 L978.0313,1117.0469 Q978.0313,1115.7188 978.6406,1114.5781 Q979.2656,1113.4219 980.3594,1112.8125 Q981.4531,1112.1875 982.6875,1112.1875 Q983.4219,1112.1875 984.0625,1112.3594 Q984.7188,1112.5156 985.2656,1112.875 Z " fill="#000000"/><text fill="#000000" font-family="sans-serif" font-size="14" lengthAdjust="spacing" textLength="103" x="996.5" y="1122.7285">MultimediaVideo</text><line style="stroke:#181818;stroke-width:0.5;" x1="968.5" x2="1101.5" y1="1133" y2="1133"/><line style="stroke:#181818;stroke-width:0.5;" x1="968.5" x2="1101.5" y1="1141" y2="1141"/></g><!--class Teacher--><g id="elem_Teacher"><rect fill="#F1F1F1" height="48" id="Teacher" rx="2.5" ry="2.5" style="stroke:#181818;stroke-width:0.5;" width="85" x="605.5" y="242"/><ellipse cx="620.5" cy="258" fill="#ADD1B2" rx="11" ry="11" style="stroke:#181818;stroke-width:1.0;"/><path d="M623.2656,253.875 Q623.4219,253.6563 623.6094,253.5469 Q623.7969,253.4375 624.0156,253.4375 Q624.3906,253.4375 624.625,253.7031 Q624.8594,253.9531 624.8594,254.5625 L624.8594,256.0156 Q624.8594,256.625 624.625,256.8906 Q624.3906,257.1563 624.0156,257.1563 Q623.6719,257.1563 623.4688,256.9531 Q623.2656,256.7656 623.1563,256.25 Q623.1094,255.8906 622.9219,255.7031 Q622.5938,255.3281 621.9844,255.1094 Q621.375,254.8906 620.75,254.8906 Q619.9844,254.8906 619.3438,255.2188 Q618.7188,255.5469 618.2188,256.2969 Q617.7344,257.0469 617.7344,258.0781 L617.7344,259.1719 Q617.7344,260.4063 618.625,261.2344 Q619.5156,262.0469 621.1094,262.0469 Q622.0469,262.0469 622.7031,261.7969 Q623.0938,261.6406 623.5156,261.2031 Q623.7813,260.9375 623.9219,260.8594 Q624.0781,260.7813 624.2813,260.7813 Q624.6094,260.7813 624.8594,261.0469 Q625.125,261.2969 625.125,261.6406 Q625.125,261.9844 624.7813,262.3906 Q624.2813,262.9688 623.4844,263.2969 Q622.4063,263.75 621.1094,263.75 Q619.5938,263.75 618.3906,263.125 Q617.4063,262.625 616.7188,261.5625 Q616.0313,260.4844 616.0313,259.2031 L616.0313,258.0469 Q616.0313,256.7188 616.6406,255.5781 Q617.2656,254.4219 618.3594,253.8125 Q619.4531,253.1875 620.6875,253.1875 Q621.4219,253.1875 622.0625,253.3594 Q622.7188,253.5156 623.2656,253.875 Z " fill="#000000"/><text fill="#000000" font-family="sans-serif" font-size="14" lengthAdjust="spacing" textLength="53" x="634.5" y="263.7285">Teacher</text><line style="stroke:#181818;stroke-width:0.5;" x1="606.5" x2="689.5" y1="274" y2="274"/><line style="stroke:#181818;stroke-width:0.5;" x1="606.5" x2="689.5" y1="282" y2="282"/></g><!--class Student--><g id="elem_Student"><rect fill="#F1F1F1" height="48" id="Student" rx="2.5" ry="2.5" style="stroke:#181818;stroke-width:0.5;" width="81" x="489.5" y="242"/><ellipse cx="504.5" cy="258" fill="#ADD1B2" rx="11" ry="11" style="stroke:#181818;stroke-width:1.0;"/><path d="M507.2656,253.875 Q507.4219,253.6563 507.6094,253.5469 Q507.7969,253.4375 508.0156,253.4375 Q508.3906,253.4375 508.625,253.7031 Q508.8594,253.9531 508.8594,254.5625 L508.8594,256.0156 Q508.8594,256.625 508.625,256.8906 Q508.3906,257.1563 508.0156,257.1563 Q507.6719,257.1563 507.4688,256.9531 Q507.2656,256.7656 507.1563,256.25 Q507.1094,255.8906 506.9219,255.7031 Q506.5938,255.3281 505.9844,255.1094 Q505.375,254.8906 504.75,254.8906 Q503.9844,254.8906 503.3438,255.2188 Q502.7188,255.5469 502.2188,256.2969 Q501.7344,257.0469 501.7344,258.0781 L501.7344,259.1719 Q501.7344,260.4063 502.625,261.2344 Q503.5156,262.0469 505.1094,262.0469 Q506.0469,262.0469 506.7031,261.7969 Q507.0938,261.6406 507.5156,261.2031 Q507.7813,260.9375 507.9219,260.8594 Q508.0781,260.7813 508.2813,260.7813 Q508.6094,260.7813 508.8594,261.0469 Q509.125,261.2969 509.125,261.6406 Q509.125,261.9844 508.7813,262.3906 Q508.2813,262.9688 507.4844,263.2969 Q506.4063,263.75 505.1094,263.75 Q503.5938,263.75 502.3906,263.125 Q501.4063,262.625 500.7188,261.5625 Q500.0313,260.4844 500.0313,259.2031 L500.0313,258.0469 Q500.0313,256.7188 500.6406,255.5781 Q501.2656,254.4219 502.3594,253.8125 Q503.4531,253.1875 504.6875,253.1875 Q505.4219,253.1875 506.0625,253.3594 Q506.7188,253.5156 507.2656,253.875 Z " fill="#000000"/><text fill="#000000" font-family="sans-serif" font-size="14" lengthAdjust="spacing" textLength="49" x="518.5" y="263.7285">Student</text><line style="stroke:#181818;stroke-width:0.5;" x1="490.5" x2="569.5" y1="274" y2="274"/><line style="stroke:#181818;stroke-width:0.5;" x1="490.5" x2="569.5" y1="282" y2="282"/></g><!--class Application--><g id="elem_Application"><rect fill="#F1F1F1" height="48" id="Application" rx="2.5" ry="2.5" style="stroke:#181818;stroke-width:0.5;" width="101" x="736.5" y="792"/><ellipse cx="751.5" cy="808" fill="#ADD1B2" rx="11" ry="11" style="stroke:#181818;stroke-width:1.0;"/><path d="M754.2656,803.875 Q754.4219,803.6563 754.6094,803.5469 Q754.7969,803.4375 755.0156,803.4375 Q755.3906,803.4375 755.625,803.7031 Q755.8594,803.9531 755.8594,804.5625 L755.8594,806.0156 Q755.8594,806.625 755.625,806.8906 Q755.3906,807.1563 755.0156,807.1563 Q754.6719,807.1563 754.4688,806.9531 Q754.2656,806.7656 754.1563,806.25 Q754.1094,805.8906 753.9219,805.7031 Q753.5938,805.3281 752.9844,805.1094 Q752.375,804.8906 751.75,804.8906 Q750.9844,804.8906 750.3438,805.2188 Q749.7188,805.5469 749.2188,806.2969 Q748.7344,807.0469 748.7344,808.0781 L748.7344,809.1719 Q748.7344,810.4063 749.625,811.2344 Q750.5156,812.0469 752.1094,812.0469 Q753.0469,812.0469 753.7031,811.7969 Q754.0938,811.6406 754.5156,811.2031 Q754.7813,810.9375 754.9219,810.8594 Q755.0781,810.7813 755.2813,810.7813 Q755.6094,810.7813 755.8594,811.0469 Q756.125,811.2969 756.125,811.6406 Q756.125,811.9844 755.7813,812.3906 Q755.2813,812.9688 754.4844,813.2969 Q753.4063,813.75 752.1094,813.75 Q750.5938,813.75 749.3906,813.125 Q748.4063,812.625 747.7188,811.5625 Q747.0313,810.4844 747.0313,809.2031 L747.0313,808.0469 Q747.0313,806.7188 747.6406,805.5781 Q748.2656,804.4219 749.3594,803.8125 Q750.4531,803.1875 751.6875,803.1875 Q752.4219,803.1875 753.0625,803.3594 Q753.7188,803.5156 754.2656,803.875 Z " fill="#000000"/><text fill="#000000" font-family="sans-serif" font-size="14" lengthAdjust="spacing" textLength="69" x="765.5" y="813.7285">Application</text><line style="stroke:#181818;stroke-width:0.5;" x1="737.5" x2="836.5" y1="824" y2="824"/><line style="stroke:#181818;stroke-width:0.5;" x1="737.5" x2="836.5" y1="832" y2="832"/></g><!--class Custom--><g id="elem_Custom"><rect fill="#F1F1F1" height="48" id="Custom" rx="2.5" ry="2.5" style="stroke:#181818;stroke-width:0.5;" width="80" x="846" y="368"/><ellipse cx="861" cy="384" fill="#ADD1B2" rx="11" ry="11" style="stroke:#181818;stroke-width:1.0;"/><path d="M863.7656,379.875 Q863.9219,379.6563 864.1094,379.5469 Q864.2969,379.4375 864.5156,379.4375 Q864.8906,379.4375 865.125,379.7031 Q865.3594,379.9531 865.3594,380.5625 L865.3594,382.0156 Q865.3594,382.625 865.125,382.8906 Q864.8906,383.1563 864.5156,383.1563 Q864.1719,383.1563 863.9688,382.9531 Q863.7656,382.7656 863.6563,382.25 Q863.6094,381.8906 863.4219,381.7031 Q863.0938,381.3281 862.4844,381.1094 Q861.875,380.8906 861.25,380.8906 Q860.4844,380.8906 859.8438,381.2188 Q859.2188,381.5469 858.7188,382.2969 Q858.2344,383.0469 858.2344,384.0781 L858.2344,385.1719 Q858.2344,386.4063 859.125,387.2344 Q860.0156,388.0469 861.6094,388.0469 Q862.5469,388.0469 863.2031,387.7969 Q863.5938,387.6406 864.0156,387.2031 Q864.2813,386.9375 864.4219,386.8594 Q864.5781,386.7813 864.7813,386.7813 Q865.1094,386.7813 865.3594,387.0469 Q865.625,387.2969 865.625,387.6406 Q865.625,387.9844 865.2813,388.3906 Q864.7813,388.9688 863.9844,389.2969 Q862.9063,389.75 861.6094,389.75 Q860.0938,389.75 858.8906,389.125 Q857.9063,388.625 857.2188,387.5625 Q856.5313,386.4844 856.5313,385.2031 L856.5313,384.0469 Q856.5313,382.7188 857.1406,381.5781 Q857.7656,380.4219 858.8594,379.8125 Q859.9531,379.1875 861.1875,379.1875 Q861.9219,379.1875 862.5625,379.3594 Q863.2188,379.5156 863.7656,379.875 Z " fill="#000000"/><text fill="#000000" font-family="sans-serif" font-size="14" lengthAdjust="spacing" textLength="48" x="875" y="389.7285">Custom</text><line style="stroke:#181818;stroke-width:0.5;" x1="847" x2="925" y1="400" y2="400"/><line style="stroke:#181818;stroke-width:0.5;" x1="847" x2="925" y1="408" y2="408"/></g><!--class Predefined--><g id="elem_Predefined"><rect fill="#F1F1F1" height="48" id="Predefined" rx="2.5" ry="2.5" style="stroke:#181818;stroke-width:0.5;" width="101" x="709.5" y="368"/><ellipse cx="724.5" cy="384" fill="#ADD1B2" rx="11" ry="11" style="stroke:#181818;stroke-width:1.0;"/><path d="M727.2656,379.875 Q727.4219,379.6563 727.6094,379.5469 Q727.7969,379.4375 728.0156,379.4375 Q728.3906,379.4375 728.625,379.7031 Q728.8594,379.9531 728.8594,380.5625 L728.8594,382.0156 Q728.8594,382.625 728.625,382.8906 Q728.3906,383.1563 728.0156,383.1563 Q727.6719,383.1563 727.4688,382.9531 Q727.2656,382.7656 727.1563,382.25 Q727.1094,381.8906 726.9219,381.7031 Q726.5938,381.3281 725.9844,381.1094 Q725.375,380.8906 724.75,380.8906 Q723.9844,380.8906 723.3438,381.2188 Q722.7188,381.5469 722.2188,382.2969 Q721.7344,383.0469 721.7344,384.0781 L721.7344,385.1719 Q721.7344,386.4063 722.625,387.2344 Q723.5156,388.0469 725.1094,388.0469 Q726.0469,388.0469 726.7031,387.7969 Q727.0938,387.6406 727.5156,387.2031 Q727.7813,386.9375 727.9219,386.8594 Q728.0781,386.7813 728.2813,386.7813 Q728.6094,386.7813 728.8594,387.0469 Q729.125,387.2969 729.125,387.6406 Q729.125,387.9844 728.7813,388.3906 Q728.2813,388.9688 727.4844,389.2969 Q726.4063,389.75 725.1094,389.75 Q723.5938,389.75 722.3906,389.125 Q721.4063,388.625 720.7188,387.5625 Q720.0313,386.4844 720.0313,385.2031 L720.0313,384.0469 Q720.0313,382.7188 720.6406,381.5781 Q721.2656,380.4219 722.3594,379.8125 Q723.4531,379.1875 724.6875,379.1875 Q725.4219,379.1875 726.0625,379.3594 Q726.7188,379.5156 727.2656,379.875 Z " fill="#000000"/><text fill="#000000" font-family="sans-serif" font-size="14" lengthAdjust="spacing" textLength="69" x="738.5" y="389.7285">Predefined</text><line style="stroke:#181818;stroke-width:0.5;" x1="710.5" x2="809.5" y1="400" y2="400"/><line style="stroke:#181818;stroke-width:0.5;" x1="710.5" x2="809.5" y1="408" y2="408"/></g><!--class Domain--><g id="elem_Domain"><rect fill="#F1F1F1" height="48" id="Domain" rx="2.5" ry="2.5" style="stroke:#181818;stroke-width:0.5;" width="80" x="621" y="792"/><ellipse cx="636" cy="808" fill="#ADD1B2" rx="11" ry="11" style="stroke:#181818;stroke-width:1.0;"/><path d="M638.7656,803.875 Q638.9219,803.6563 639.1094,803.5469 Q639.2969,803.4375 639.5156,803.4375 Q639.8906,803.4375 640.125,803.7031 Q640.3594,803.9531 640.3594,804.5625 L640.3594,806.0156 Q640.3594,806.625 640.125,806.8906 Q639.8906,807.1563 639.5156,807.1563 Q639.1719,807.1563 638.9688,806.9531 Q638.7656,806.7656 638.6563,806.25 Q638.6094,805.8906 638.4219,805.7031 Q638.0938,805.3281 637.4844,805.1094 Q636.875,804.8906 636.25,804.8906 Q635.4844,804.8906 634.8438,805.2188 Q634.2188,805.5469 633.7188,806.2969 Q633.2344,807.0469 633.2344,808.0781 L633.2344,809.1719 Q633.2344,810.4063 634.125,811.2344 Q635.0156,812.0469 636.6094,812.0469 Q637.5469,812.0469 638.2031,811.7969 Q638.5938,811.6406 639.0156,811.2031 Q639.2813,810.9375 639.4219,810.8594 Q639.5781,810.7813 639.7813,810.7813 Q640.1094,810.7813 640.3594,811.0469 Q640.625,811.2969 640.625,811.6406 Q640.625,811.9844 640.2813,812.3906 Q639.7813,812.9688 638.9844,813.2969 Q637.9063,813.75 636.6094,813.75 Q635.0938,813.75 633.8906,813.125 Q632.9063,812.625 632.2188,811.5625 Q631.5313,810.4844 631.5313,809.2031 L631.5313,808.0469 Q631.5313,806.7188 632.1406,805.5781 Q632.7656,804.4219 633.8594,803.8125 Q634.9531,803.1875 636.1875,803.1875 Q636.9219,803.1875 637.5625,803.3594 Q638.2188,803.5156 638.7656,803.875 Z " fill="#000000"/><text fill="#000000" font-family="sans-serif" font-size="14" lengthAdjust="spacing" textLength="48" x="650" y="813.7285">Domain</text><line style="stroke:#181818;stroke-width:0.5;" x1="622" x2="700" y1="824" y2="824"/><line style="stroke:#181818;stroke-width:0.5;" x1="622" x2="700" y1="832" y2="832"/></g><!--class SimpleTopic--><g id="elem_SimpleTopic"><rect codeLine="64" fill="#F1F1F1" height="48" id="SimpleTopic" rx="2.5" ry="2.5" style="stroke:#181818;stroke-width:0.5;" width="109" x="476.5" y="486"/><ellipse cx="491.5" cy="502" fill="#ADD1B2" rx="11" ry="11" style="stroke:#181818;stroke-width:1.0;"/><path d="M494.2656,497.875 Q494.4219,497.6563 494.6094,497.5469 Q494.7969,497.4375 495.0156,497.4375 Q495.3906,497.4375 495.625,497.7031 Q495.8594,497.9531 495.8594,498.5625 L495.8594,500.0156 Q495.8594,500.625 495.625,500.8906 Q495.3906,501.1563 495.0156,501.1563 Q494.6719,501.1563 494.4688,500.9531 Q494.2656,500.7656 494.1563,500.25 Q494.1094,499.8906 493.9219,499.7031 Q493.5938,499.3281 492.9844,499.1094 Q492.375,498.8906 491.75,498.8906 Q490.9844,498.8906 490.3438,499.2188 Q489.7188,499.5469 489.2188,500.2969 Q488.7344,501.0469 488.7344,502.0781 L488.7344,503.1719 Q488.7344,504.4063 489.625,505.2344 Q490.5156,506.0469 492.1094,506.0469 Q493.0469,506.0469 493.7031,505.7969 Q494.0938,505.6406 494.5156,505.2031 Q494.7813,504.9375 494.9219,504.8594 Q495.0781,504.7813 495.2813,504.7813 Q495.6094,504.7813 495.8594,505.0469 Q496.125,505.2969 496.125,505.6406 Q496.125,505.9844 495.7813,506.3906 Q495.2813,506.9688 494.4844,507.2969 Q493.4063,507.75 492.1094,507.75 Q490.5938,507.75 489.3906,507.125 Q488.4063,506.625 487.7188,505.5625 Q487.0313,504.4844 487.0313,503.2031 L487.0313,502.0469 Q487.0313,500.7188 487.6406,499.5781 Q488.2656,498.4219 489.3594,497.8125 Q490.4531,497.1875 491.6875,497.1875 Q492.4219,497.1875 493.0625,497.3594 Q493.7188,497.5156 494.2656,497.875 Z " fill="#000000"/><text fill="#000000" font-family="sans-serif" font-size="14" lengthAdjust="spacing" textLength="77" x="505.5" y="507.7285">SimpleTopic</text><line style="stroke:#181818;stroke-width:0.5;" x1="477.5" x2="584.5" y1="518" y2="518"/><line style="stroke:#181818;stroke-width:0.5;" x1="477.5" x2="584.5" y1="526" y2="526"/></g><!--class CompositeTopic--><g id="elem_CompositeTopic"><rect codeLine="72" fill="#F1F1F1" height="65.6094" id="CompositeTopic" rx="2.5" ry="2.5" style="stroke:#181818;stroke-width:0.5;" width="144" x="297" y="477"/><ellipse cx="316.5" cy="493" fill="#ADD1B2" rx="11" ry="11" style="stroke:#181818;stroke-width:1.0;"/><path d="M319.2656,488.875 Q319.4219,488.6563 319.6094,488.5469 Q319.7969,488.4375 320.0156,488.4375 Q320.3906,488.4375 320.625,488.7031 Q320.8594,488.9531 320.8594,489.5625 L320.8594,491.0156 Q320.8594,491.625 320.625,491.8906 Q320.3906,492.1563 320.0156,492.1563 Q319.6719,492.1563 319.4688,491.9531 Q319.2656,491.7656 319.1563,491.25 Q319.1094,490.8906 318.9219,490.7031 Q318.5938,490.3281 317.9844,490.1094 Q317.375,489.8906 316.75,489.8906 Q315.9844,489.8906 315.3438,490.2188 Q314.7188,490.5469 314.2188,491.2969 Q313.7344,492.0469 313.7344,493.0781 L313.7344,494.1719 Q313.7344,495.4063 314.625,496.2344 Q315.5156,497.0469 317.1094,497.0469 Q318.0469,497.0469 318.7031,496.7969 Q319.0938,496.6406 319.5156,496.2031 Q319.7813,495.9375 319.9219,495.8594 Q320.0781,495.7813 320.2813,495.7813 Q320.6094,495.7813 320.8594,496.0469 Q321.125,496.2969 321.125,496.6406 Q321.125,496.9844 320.7813,497.3906 Q320.2813,497.9688 319.4844,498.2969 Q318.4063,498.75 317.1094,498.75 Q315.5938,498.75 314.3906,498.125 Q313.4063,497.625 312.7188,496.5625 Q312.0313,495.4844 312.0313,494.2031 L312.0313,493.0469 Q312.0313,491.7188 312.6406,490.5781 Q313.2656,489.4219 314.3594,488.8125 Q315.4531,488.1875 316.6875,488.1875 Q317.4219,488.1875 318.0625,488.3594 Q318.7188,488.5156 319.2656,488.875 Z " fill="#000000"/><text fill="#000000" font-family="sans-serif" font-size="14" lengthAdjust="spacing" textLength="102" x="331.5" y="498.7285">CompositeTopic</text><line style="stroke:#181818;stroke-width:0.5;" x1="298" x2="440" y1="509" y2="509"/><ellipse cx="308" cy="523.3047" fill="none" rx="3" ry="3" style="stroke:#038048;stroke-width:1.0;"/><text fill="#000000" font-family="sans-serif" font-size="14" lengthAdjust="spacing" textLength="118" x="317" y="527.5332">Index : List&lt;Topic&gt;</text><line style="stroke:#181818;stroke-width:0.5;" x1="298" x2="440" y1="534.6094" y2="534.6094"/></g><!--class Definition--><g id="elem_Definition"><rect codeLine="88" fill="#F1F1F1" height="65.6094" id="Definition" rx="2.5" ry="2.5" style="stroke:#181818;stroke-width:0.5;" width="91" x="356.5" y="612.5"/><ellipse cx="371.5" cy="628.5" fill="#ADD1B2" rx="11" ry="11" style="stroke:#181818;stroke-width:1.0;"/><path d="M374.2656,624.375 Q374.4219,624.1563 374.6094,624.0469 Q374.7969,623.9375 375.0156,623.9375 Q375.3906,623.9375 375.625,624.2031 Q375.8594,624.4531 375.8594,625.0625 L375.8594,626.5156 Q375.8594,627.125 375.625,627.3906 Q375.3906,627.6563 375.0156,627.6563 Q374.6719,627.6563 374.4688,627.4531 Q374.2656,627.2656 374.1563,626.75 Q374.1094,626.3906 373.9219,626.2031 Q373.5938,625.8281 372.9844,625.6094 Q372.375,625.3906 371.75,625.3906 Q370.9844,625.3906 370.3438,625.7188 Q369.7188,626.0469 369.2188,626.7969 Q368.7344,627.5469 368.7344,628.5781 L368.7344,629.6719 Q368.7344,630.9063 369.625,631.7344 Q370.5156,632.5469 372.1094,632.5469 Q373.0469,632.5469 373.7031,632.2969 Q374.0938,632.1406 374.5156,631.7031 Q374.7813,631.4375 374.9219,631.3594 Q375.0781,631.2813 375.2813,631.2813 Q375.6094,631.2813 375.8594,631.5469 Q376.125,631.7969 376.125,632.1406 Q376.125,632.4844 375.7813,632.8906 Q375.2813,633.4688 374.4844,633.7969 Q373.4063,634.25 372.1094,634.25 Q370.5938,634.25 369.3906,633.625 Q368.4063,633.125 367.7188,632.0625 Q367.0313,630.9844 367.0313,629.7031 L367.0313,628.5469 Q367.0313,627.2188 367.6406,626.0781 Q368.2656,624.9219 369.3594,624.3125 Q370.4531,623.6875 371.6875,623.6875 Q372.4219,623.6875 373.0625,623.8594 Q373.7188,624.0156 374.2656,624.375 Z " fill="#000000"/><text fill="#000000" font-family="sans-serif" font-size="14" lengthAdjust="spacing" textLength="59" x="385.5" y="634.2285">Definition</text><line style="stroke:#181818;stroke-width:0.5;" x1="357.5" x2="446.5" y1="644.5" y2="644.5"/><line style="stroke:#181818;stroke-width:0.5;" x1="357.5" x2="446.5" y1="652.5" y2="652.5"/><rect fill="#F24D5C" height="6" style="stroke:#C82930;stroke-width:1.0;" width="6" x="364.5" y="663.8047"/><text fill="#000000" font-family="sans-serif" font-size="14" lengthAdjust="spacing" textLength="52" x="376.5" y="671.0332">isFake()</text></g><!--class Relation--><g id="elem_Relation"><rect codeLine="78" fill="#F1F1F1" height="136.0469" id="Relation" rx="2.5" ry="2.5" style="stroke:#181818;stroke-width:0.5;" width="108" x="150" y="748"/><ellipse cx="175.8" cy="764" fill="#EB937F" rx="11" ry="11" style="stroke:#181818;stroke-width:1.0;"/><path d="M174.6594,764.7969 L174.6594,767.2969 L178.9875,767.2969 L178.9875,766.375 Q178.9875,765.7656 179.2219,765.5 Q179.4719,765.2344 179.8469,765.2344 Q180.2219,765.2344 180.4563,765.5 Q180.6906,765.7656 180.6906,766.375 L180.6906,769 L172.6906,769 Q172.0656,769 171.8,768.7656 Q171.55,768.5313 171.55,768.1406 Q171.55,767.7656 171.8156,767.5313 Q172.0813,767.2969 172.6906,767.2969 L172.9563,767.2969 L172.9563,760.6406 L172.6906,760.6406 Q172.0656,760.6406 171.8,760.4063 Q171.55,760.1719 171.55,759.7813 Q171.55,759.4063 171.8,759.1719 Q172.0656,758.9375 172.6906,758.9375 L180.3156,758.9375 L180.3156,761.5313 Q180.3156,762.1406 180.0813,762.4063 Q179.8625,762.6563 179.4719,762.6563 Q179.0969,762.6563 178.8625,762.4063 Q178.6281,762.1406 178.6281,761.5313 L178.6281,760.6406 L174.6594,760.6406 L174.6594,763.0938 L176.1438,763.0938 Q176.1438,762.4375 176.2688,762.25 Q176.5344,761.8438 177.0031,761.8438 Q177.3781,761.8438 177.6125,762.1094 Q177.8469,762.3594 177.8469,762.9688 L177.8469,764.9375 Q177.8469,765.4844 177.7219,765.6719 Q177.4563,766.0625 177.0031,766.0625 Q176.5344,766.0625 176.2688,765.6563 Q176.1438,765.4688 176.1438,764.7969 L174.6594,764.7969 Z " fill="#000000"/><text fill="#000000" font-family="sans-serif" font-size="14" lengthAdjust="spacing" textLength="52" x="192.2" y="769.7285">Relation</text><line style="stroke:#181818;stroke-width:0.5;" x1="151" x2="257" y1="780" y2="780"/><text fill="#000000" font-family="sans-serif" font-size="14" lengthAdjust="spacing" textLength="89" x="156" y="798.5332">INHERITANCE</text><text fill="#000000" font-family="sans-serif" font-size="14" lengthAdjust="spacing" textLength="96" x="156" y="816.1426">COMPOSITION</text><text fill="#000000" font-family="sans-serif" font-size="14" lengthAdjust="spacing" textLength="91" x="156" y="833.752">AGREGATION</text><text fill="#000000" font-family="sans-serif" font-size="14" lengthAdjust="spacing" textLength="92" x="156" y="851.3613">ASSOCIATION</text><text fill="#000000" font-family="sans-serif" font-size="14" lengthAdjust="spacing" textLength="27" x="156" y="868.9707">USE</text><line style="stroke:#181818;stroke-width:0.5;" x1="151" x2="257" y1="876.0469" y2="876.0469"/></g><!--class MultipleChoice--><g id="elem_MultipleChoice"><rect codeLine="97" fill="#F1F1F1" height="65.6094" id="MultipleChoice" rx="2.5" ry="2.5" style="stroke:#181818;stroke-width:0.5;" width="149" x="293.5" y="783"/><ellipse cx="319.75" cy="799" fill="#ADD1B2" rx="11" ry="11" style="stroke:#181818;stroke-width:1.0;"/><path d="M322.5156,794.875 Q322.6719,794.6563 322.8594,794.5469 Q323.0469,794.4375 323.2656,794.4375 Q323.6406,794.4375 323.875,794.7031 Q324.1094,794.9531 324.1094,795.5625 L324.1094,797.0156 Q324.1094,797.625 323.875,797.8906 Q323.6406,798.1563 323.2656,798.1563 Q322.9219,798.1563 322.7188,797.9531 Q322.5156,797.7656 322.4063,797.25 Q322.3594,796.8906 322.1719,796.7031 Q321.8438,796.3281 321.2344,796.1094 Q320.625,795.8906 320,795.8906 Q319.2344,795.8906 318.5938,796.2188 Q317.9688,796.5469 317.4688,797.2969 Q316.9844,798.0469 316.9844,799.0781 L316.9844,800.1719 Q316.9844,801.4063 317.875,802.2344 Q318.7656,803.0469 320.3594,803.0469 Q321.2969,803.0469 321.9531,802.7969 Q322.3438,802.6406 322.7656,802.2031 Q323.0313,801.9375 323.1719,801.8594 Q323.3281,801.7813 323.5313,801.7813 Q323.8594,801.7813 324.1094,802.0469 Q324.375,802.2969 324.375,802.6406 Q324.375,802.9844 324.0313,803.3906 Q323.5313,803.9688 322.7344,804.2969 Q321.6563,804.75 320.3594,804.75 Q318.8438,804.75 317.6406,804.125 Q316.6563,803.625 315.9688,802.5625 Q315.2813,801.4844 315.2813,800.2031 L315.2813,799.0469 Q315.2813,797.7188 315.8906,796.5781 Q316.5156,795.4219 317.6094,794.8125 Q318.7031,794.1875 319.9375,794.1875 Q320.6719,794.1875 321.3125,794.3594 Q321.9688,794.5156 322.5156,794.875 Z " fill="#000000"/><text fill="#000000" font-family="sans-serif" font-size="14" lengthAdjust="spacing" textLength="92" x="336.25" y="804.7285">MultipleChoice</text><line style="stroke:#181818;stroke-width:0.5;" x1="294.5" x2="441.5" y1="815" y2="815"/><line style="stroke:#181818;stroke-width:0.5;" x1="294.5" x2="441.5" y1="823" y2="823"/><ellipse cx="304.5" cy="837.3047" fill="#84BE84" rx="3" ry="3" style="stroke:#038048;stroke-width:1.0;"/><text fill="#000000" font-family="sans-serif" font-size="14" lengthAdjust="spacing" textLength="123" x="313.5" y="841.5332">getCorrectAnswer()</text></g><!--class OpenEnded--><g id="elem_OpenEnded"><rect fill="#F1F1F1" height="48" id="OpenEnded" rx="2.5" ry="2.5" style="stroke:#181818;stroke-width:0.5;" width="108" x="478" y="792"/><ellipse cx="493" cy="808" fill="#ADD1B2" rx="11" ry="11" style="stroke:#181818;stroke-width:1.0;"/><path d="M495.7656,803.875 Q495.9219,803.6563 496.1094,803.5469 Q496.2969,803.4375 496.5156,803.4375 Q496.8906,803.4375 497.125,803.7031 Q497.3594,803.9531 497.3594,804.5625 L497.3594,806.0156 Q497.3594,806.625 497.125,806.8906 Q496.8906,807.1563 496.5156,807.1563 Q496.1719,807.1563 495.9688,806.9531 Q495.7656,806.7656 495.6563,806.25 Q495.6094,805.8906 495.4219,805.7031 Q495.0938,805.3281 494.4844,805.1094 Q493.875,804.8906 493.25,804.8906 Q492.4844,804.8906 491.8438,805.2188 Q491.2188,805.5469 490.7188,806.2969 Q490.2344,807.0469 490.2344,808.0781 L490.2344,809.1719 Q490.2344,810.4063 491.125,811.2344 Q492.0156,812.0469 493.6094,812.0469 Q494.5469,812.0469 495.2031,811.7969 Q495.5938,811.6406 496.0156,811.2031 Q496.2813,810.9375 496.4219,810.8594 Q496.5781,810.7813 496.7813,810.7813 Q497.1094,810.7813 497.3594,811.0469 Q497.625,811.2969 497.625,811.6406 Q497.625,811.9844 497.2813,812.3906 Q496.7813,812.9688 495.9844,813.2969 Q494.9063,813.75 493.6094,813.75 Q492.0938,813.75 490.8906,813.125 Q489.9063,812.625 489.2188,811.5625 Q488.5313,810.4844 488.5313,809.2031 L488.5313,808.0469 Q488.5313,806.7188 489.1406,805.5781 Q489.7656,804.4219 490.8594,803.8125 Q491.9531,803.1875 493.1875,803.1875 Q493.9219,803.1875 494.5625,803.3594 Q495.2188,803.5156 495.7656,803.875 Z " fill="#000000"/><text fill="#000000" font-family="sans-serif" font-size="14" lengthAdjust="spacing" textLength="76" x="507" y="813.7285">OpenEnded</text><line style="stroke:#181818;stroke-width:0.5;" x1="479" x2="585" y1="824" y2="824"/><line style="stroke:#181818;stroke-width:0.5;" x1="479" x2="585" y1="832" y2="832"/></g><!--class ClozeQuestion--><g id="elem_ClozeQuestion"><rect fill="#F1F1F1" height="48" id="ClozeQuestion" rx="2.5" ry="2.5" style="stroke:#181818;stroke-width:0.5;" width="124" x="7" y="945"/><ellipse cx="22" cy="961" fill="#ADD1B2" rx="11" ry="11" style="stroke:#181818;stroke-width:1.0;"/><path d="M24.7656,956.875 Q24.9219,956.6563 25.1094,956.5469 Q25.2969,956.4375 25.5156,956.4375 Q25.8906,956.4375 26.125,956.7031 Q26.3594,956.9531 26.3594,957.5625 L26.3594,959.0156 Q26.3594,959.625 26.125,959.8906 Q25.8906,960.1563 25.5156,960.1563 Q25.1719,960.1563 24.9688,959.9531 Q24.7656,959.7656 24.6563,959.25 Q24.6094,958.8906 24.4219,958.7031 Q24.0938,958.3281 23.4844,958.1094 Q22.875,957.8906 22.25,957.8906 Q21.4844,957.8906 20.8438,958.2188 Q20.2188,958.5469 19.7188,959.2969 Q19.2344,960.0469 19.2344,961.0781 L19.2344,962.1719 Q19.2344,963.4063 20.125,964.2344 Q21.0156,965.0469 22.6094,965.0469 Q23.5469,965.0469 24.2031,964.7969 Q24.5938,964.6406 25.0156,964.2031 Q25.2813,963.9375 25.4219,963.8594 Q25.5781,963.7813 25.7813,963.7813 Q26.1094,963.7813 26.3594,964.0469 Q26.625,964.2969 26.625,964.6406 Q26.625,964.9844 26.2813,965.3906 Q25.7813,965.9688 24.9844,966.2969 Q23.9063,966.75 22.6094,966.75 Q21.0938,966.75 19.8906,966.125 Q18.9063,965.625 18.2188,964.5625 Q17.5313,963.4844 17.5313,962.2031 L17.5313,961.0469 Q17.5313,959.7188 18.1406,958.5781 Q18.7656,957.4219 19.8594,956.8125 Q20.9531,956.1875 22.1875,956.1875 Q22.9219,956.1875 23.5625,956.3594 Q24.2188,956.5156 24.7656,956.875 Z " fill="#000000"/><text fill="#000000" font-family="sans-serif" font-size="14" lengthAdjust="spacing" textLength="92" x="36" y="966.7285">ClozeQuestion</text><line style="stroke:#181818;stroke-width:0.5;" x1="8" x2="130" y1="977" y2="977"/><line style="stroke:#181818;stroke-width:0.5;" x1="8" x2="130" y1="985" y2="985"/></g><g id="elem_GMN74"><path d="M166.5,956 L166.5,965 L131.19,969 L166.5,973 L166.5,982.3516 A0,0 0 0 0 166.5,982.3516 L291.5,982.3516 A0,0 0 0 0 291.5,982.3516 L291.5,966 L281.5,956 L166.5,956 A0,0 0 0 0 166.5,956 " fill="#FEFFDD" style="stroke:#181818;stroke-width:0.5;"/><path d="M281.5,956 L281.5,966 L291.5,966 L281.5,956 " fill="#FEFFDD" style="stroke:#181818;stroke-width:0.5;"/><text fill="#000000" font-family="sans-serif" font-size="13" lengthAdjust="spacing" textLength="58" x="172.5" y="974.4951">A class is</text><text fill="#000000" font-family="sans-serif" font-size="13" lengthAdjust="spacing" text-decoration="underline" textLength="7" x="234.5" y="974.4951">_</text><text fill="#000000" font-family="sans-serif" font-size="13" lengthAdjust="spacing" textLength="35" x="241.5" y="974.4951">____?</text></g><!--class TopicRelation--><g id="elem_TopicRelation"><rect fill="#F1F1F1" height="48" id="TopicRelation" rx="2.5" ry="2.5" style="stroke:#181818;stroke-width:0.5;" width="119" x="326.5" y="945"/><ellipse cx="341.5" cy="961" fill="#ADD1B2" rx="11" ry="11" style="stroke:#181818;stroke-width:1.0;"/><path d="M344.2656,956.875 Q344.4219,956.6563 344.6094,956.5469 Q344.7969,956.4375 345.0156,956.4375 Q345.3906,956.4375 345.625,956.7031 Q345.8594,956.9531 345.8594,957.5625 L345.8594,959.0156 Q345.8594,959.625 345.625,959.8906 Q345.3906,960.1563 345.0156,960.1563 Q344.6719,960.1563 344.4688,959.9531 Q344.2656,959.7656 344.1563,959.25 Q344.1094,958.8906 343.9219,958.7031 Q343.5938,958.3281 342.9844,958.1094 Q342.375,957.8906 341.75,957.8906 Q340.9844,957.8906 340.3438,958.2188 Q339.7188,958.5469 339.2188,959.2969 Q338.7344,960.0469 338.7344,961.0781 L338.7344,962.1719 Q338.7344,963.4063 339.625,964.2344 Q340.5156,965.0469 342.1094,965.0469 Q343.0469,965.0469 343.7031,964.7969 Q344.0938,964.6406 344.5156,964.2031 Q344.7813,963.9375 344.9219,963.8594 Q345.0781,963.7813 345.2813,963.7813 Q345.6094,963.7813 345.8594,964.0469 Q346.125,964.2969 346.125,964.6406 Q346.125,964.9844 345.7813,965.3906 Q345.2813,965.9688 344.4844,966.2969 Q343.4063,966.75 342.1094,966.75 Q340.5938,966.75 339.3906,966.125 Q338.4063,965.625 337.7188,964.5625 Q337.0313,963.4844 337.0313,962.2031 L337.0313,961.0469 Q337.0313,959.7188 337.6406,958.5781 Q338.2656,957.4219 339.3594,956.8125 Q340.4531,956.1875 341.6875,956.1875 Q342.4219,956.1875 343.0625,956.3594 Q343.7188,956.5156 344.2656,956.875 Z " fill="#000000"/><text fill="#000000" font-family="sans-serif" font-size="14" lengthAdjust="spacing" textLength="87" x="355.5" y="966.7285">TopicRelation</text><line style="stroke:#181818;stroke-width:0.5;" x1="327.5" x2="444.5" y1="977" y2="977"/><line style="stroke:#181818;stroke-width:0.5;" x1="327.5" x2="444.5" y1="985" y2="985"/></g><g id="elem_GMN79"><path d="M481,947.5 L481,965 L445.92,969 L481,973 L481,990.2031 A0,0 0 0 0 481,990.2031 L763,990.2031 A0,0 0 0 0 763,990.2031 L763,957.5 L753,947.5 L481,947.5 A0,0 0 0 0 481,947.5 " fill="#FEFFDD" style="stroke:#181818;stroke-width:0.5;"/><path d="M753,947.5 L753,957.5 L763,957.5 L753,947.5 " fill="#FEFFDD" style="stroke:#181818;stroke-width:0.5;"/><text fill="#000000" font-family="sans-serif" font-size="13" lengthAdjust="spacing" textLength="261" x="487" y="965.9951">what functional programming is? [inheritance]</text><text fill="#000000" font-family="sans-serif" font-size="13" lengthAdjust="spacing" textLength="81" x="487" y="982.3467">a. A paradigm</text></g><!--reverse link EducationalPlatform to Topic--><g id="link_EducationalPlatform_Topic"><path codeLine="2" d="M562.8732,60.7321 C502.2232,92.8221 412.43,151.65 375,242 C357.01,285.44 385.25,338.21 405.46,367.87 " fill="none" id="EducationalPlatform-backto-Topic" style="stroke:#181818;stroke-width:1.0;"/><polygon fill="#181818" points="573.48,55.12,566.3059,54.3904,562.8732,60.7321,570.0473,61.4616,573.48,55.12" style="stroke:#181818;stroke-width:1.0;"/><text fill="#000000" font-family="sans-serif" font-size="13" lengthAdjust="spacing" textLength="8" x="391.9404" y="357.1768">+</text></g><!--reverse link EducationalPlatform to Itinerary--><g id="link_EducationalPlatform_Itinerary"><path codeLine="3" d="M642.9027,65.358 C670.8927,110.018 725.59,197.31 753.53,241.9 " fill="none" id="EducationalPlatform-backto-Itinerary" style="stroke:#181818;stroke-width:1.0;"/><polygon fill="#181818" points="636.53,55.19,636.327,62.3982,642.9027,65.358,643.1057,58.1498,636.53,55.19" style="stroke:#181818;stroke-width:1.0;"/><text fill="#000000" font-family="sans-serif" font-size="13" lengthAdjust="spacing" textLength="8" x="740.7971" y="231.2145">+</text></g><!--reverse link EducationalPlatform to User--><g id="link_EducationalPlatform_User"><path codeLine="4" d="M622,67.22 C622,85.16 622,97.89 622,115.83 " fill="none" id="EducationalPlatform-backto-User" style="stroke:#181818;stroke-width:1.0;"/><polygon fill="#181818" points="622,55.22,618,61.22,622,67.22,626,61.22,622,55.22" style="stroke:#181818;stroke-width:1.0;"/><text fill="#000000" font-family="sans-serif" font-size="13" lengthAdjust="spacing" textLength="8" x="612.975" y="105.1266">+</text></g><!--reverse link EducationalPlatform to Chat--><g id="link_EducationalPlatform_Chat"><path codeLine="5" d="M594.397,64.3152 C556.257,108.9752 480.81,197.31 442.73,241.9 " fill="none" id="EducationalPlatform-backto-Chat" style="stroke:#181818;stroke-width:1.0;"/><polygon fill="#181818" points="602.19,55.19,595.2518,57.1549,594.397,64.3152,601.3352,62.3503,602.19,55.19" style="stroke:#181818;stroke-width:1.0;"/></g><!--reverse link EducationalPlatform to Library--><g id="link_EducationalPlatform_Library"><path codeLine="6" d="M713.1465,41.1229 C818.3165,53.5929 979,81.41 979,139 C979,139 979,139 979,393 C979,429.22 953.67,463.84 933.48,485.68 " fill="none" id="EducationalPlatform-backto-Library" style="stroke:#181818;stroke-width:1.0;"/><polygon fill="#181818" points="701.23,39.71,706.7173,44.3886,713.1465,41.1229,707.6592,36.4443,701.23,39.71" style="stroke:#181818;stroke-width:1.0;"/></g><!--link Chat to Topic--><g id="link_Chat_Topic"><path codeLine="7" d="M423,290.03 C423,312.17 423,339.44 423,361.67 " fill="none" id="Chat-to-Topic" style="stroke:#181818;stroke-width:1.0;stroke-dasharray:7.0,7.0;"/><polygon fill="#181818" points="423,367.67,427,358.67,423,362.67,419,358.67,423,367.67" style="stroke:#181818;stroke-width:1.0;"/><text fill="#000000" font-family="sans-serif" font-size="13" lengthAdjust="spacing" textLength="8" x="414.025" y="357.3275">+</text></g><!--reverse link Library to Document--><g id="link_Library_Document"><path codeLine="9" d="M888.6653,544.5093 C873.8853,568.8693 857.04,596.64 842.22,621.06 " fill="none" id="Library-backto-Document" style="stroke:#181818;stroke-width:1.0;"/><polygon fill="none" points="894.89,534.25,888.3579,537.3048,888.6653,544.5093,895.1974,541.4545,894.89,534.25" style="stroke:#181818;stroke-width:1.0;"/><text fill="#000000" font-family="sans-serif" font-size="13" lengthAdjust="spacing" textLength="8" x="836.7111" y="610.6907">+</text></g><!--reverse link Library to Exercise--><g id="link_Library_Exercise"><path codeLine="10" d="M859.616,528.863 C793.786,552.683 669.84,597.52 594.23,624.88 " fill="none" id="Library-backto-Exercise" style="stroke:#181818;stroke-width:1.0;"/><polygon fill="none" points="870.9,524.78,863.897,523.0602,859.616,528.863,866.619,530.5828,870.9,524.78" style="stroke:#181818;stroke-width:1.0;"/><text fill="#000000" font-family="sans-serif" font-size="13" lengthAdjust="spacing" textLength="8" x="602.0547" y="618.5382">+</text></g><!--reverse link Library to Media--><g id="link_Library_Media"><path codeLine="11" d="M908.8818,546.0999 C908.7018,602.6299 908.26,735.44 908.08,791.94 " fill="none" id="Library-backto-Media" style="stroke:#181818;stroke-width:1.0;"/><polygon fill="none" points="908.92,534.1,904.9009,540.0872,908.8818,546.0999,912.9009,540.1127,908.92,534.1" style="stroke:#181818;stroke-width:1.0;"/><text fill="#000000" font-family="sans-serif" font-size="13" lengthAdjust="spacing" textLength="8" x="899.0755" y="781.2648">+</text></g><!--reverse link Document to Media--><g id="link_Document_Media"><path codeLine="14" d="M844.1057,680.4207 C859.3757,712.5907 881.77,759.76 897.05,791.93 " fill="none" id="Document-backto-Media" style="stroke:#181818;stroke-width:1.0;"/><polygon fill="none" points="838.96,669.58,837.9193,676.7156,844.1057,680.4207,845.1464,673.2851,838.96,669.58" style="stroke:#181818;stroke-width:1.0;"/><text fill="#000000" font-family="sans-serif" font-size="13" lengthAdjust="spacing" textLength="8" x="885.2191" y="781.2522">+</text></g><!--reverse link Media to Image--><g id="link_Media_Image"><path codeLine="18" d="M906.5251,858.0584 C904.4851,914.9584 899.88,1043.48 897.84,1100.66 " fill="none" id="Media-backto-Image" style="stroke:#181818;stroke-width:1.0;"/><polygon fill="none" points="907.17,840.07,900.5289,857.8435,912.5212,858.2734,907.17,840.07" style="stroke:#181818;stroke-width:1.0;"/></g><!--reverse link Media to Audio--><g id="link_Media_Audio"><path codeLine="19" d="M949.6744,852.0724 C1000.4244,896.3424 1091.2,986.75 1120,1101 C1125.22,1121.69 1128.22,1129.31 1120,1149 C1109.68,1173.7 1088.18,1194.83 1069.39,1209.73 " fill="none" id="Media-backto-Audio" style="stroke:#181818;stroke-width:1.0;"/><polygon fill="none" points="936.11,840.24,945.7303,856.5939,953.6186,847.551,936.11,840.24" style="stroke:#181818;stroke-width:1.0;"/></g><!--reverse link Media to Text--><g id="link_Media_Text"><path codeLine="20" d="M892.1231,856.9478 C874.6831,900.8378 843.71,978.78 826.25,1022.72 " fill="none" id="Media-backto-Text" style="stroke:#181818;stroke-width:1.0;"/><polygon fill="none" points="898.77,840.22,886.5472,854.7321,897.699,859.1634,898.77,840.22" style="stroke:#181818;stroke-width:1.0;"/></g><!--reverse link Media to Video--><g id="link_Media_Video"><path codeLine="21" d="M927.8005,856.3393 C942.1205,884.7993 958.13,916.6 972.4,944.96 " fill="none" id="Media-backto-Video" style="stroke:#181818;stroke-width:1.0;"/><polygon fill="none" points="919.71,840.26,922.4407,859.0361,933.1603,853.6425,919.71,840.26" style="stroke:#181818;stroke-width:1.0;"/></g><!--reverse link Audio to Transcription--><g id="link_Audio_Transcription"><path codeLine="23" d="M990.3306,1258.2009 C955.4806,1276.3009 911.77,1299.01 873.51,1318.88 " fill="none" id="Audio-backto-Transcription" style="stroke:#181818;stroke-width:1.0;"/><polygon fill="none" points="1000.98,1252.67,993.8117,1251.8857,990.3306,1258.2009,997.499,1258.9853,1000.98,1252.67" style="stroke:#181818;stroke-width:1.0;"/><text fill="#000000" font-family="sans-serif" font-size="13" lengthAdjust="spacing" textLength="22" x="860.0969" y="1308.1894">0..1</text></g><!--reverse link Text to Transcription--><g id="link_Text_Transcription"><path codeLine="24" d="M818.6749,1089.055 C820.9149,1143.875 825.8,1263.51 828.05,1318.63 " fill="none" id="Text-backto-Transcription" style="stroke:#181818;stroke-width:1.0;"/><polygon fill="none" points="817.94,1071.07,812.6799,1089.3,824.6699,1088.81,817.94,1071.07" style="stroke:#181818;stroke-width:1.0;"/></g><!--reverse link MultimediaVideo to Audio--><g id="link_MultimediaVideo_Audio"><path codeLine="26" d="M1035,1161.22 C1035,1179.16 1035,1191.89 1035,1209.83 " fill="none" id="MultimediaVideo-backto-Audio" style="stroke:#181818;stroke-width:1.0;"/><polygon fill="#181818" points="1035,1149.22,1031,1155.22,1035,1161.22,1039,1155.22,1035,1149.22" style="stroke:#181818;stroke-width:1.0;"/></g><!--reverse link User to Teacher--><g id="link_User_Teacher"><path codeLine="30" d="M630.5221,181.6473 C635.1621,203.7873 638.45,219.44 643.11,241.67 " fill="none" id="User-backto-Teacher" style="stroke:#181818;stroke-width:1.0;"/><polygon fill="none" points="626.83,164.03,624.6497,182.878,636.3946,180.4166,626.83,164.03" style="stroke:#181818;stroke-width:1.0;"/></g><!--reverse link User to Student--><g id="link_User_Student"><path codeLine="31" d="M594.1875,178.4878 C577.7675,200.6278 563.8,219.44 547.31,241.67 " fill="none" id="User-backto-Student" style="stroke:#181818;stroke-width:1.0;"/><polygon fill="none" points="604.91,164.03,589.3682,174.9136,599.0067,182.062,604.91,164.03" style="stroke:#181818;stroke-width:1.0;"/></g><!--link User to Chat--><g id="link_User_Chat"><path codeLine="32" d="M590.91,160.38 C553.63,183.6 496.6224,219.127 459.2924,242.387 " fill="none" id="User-to-Chat" style="stroke:#181818;stroke-width:1.0;stroke-dasharray:7.0,7.0;"/><polygon fill="#181818" points="454.2,245.56,463.9539,244.1954,458.4436,242.9158,459.7232,237.4056,454.2,245.56" style="stroke:#181818;stroke-width:1.0;"/><text fill="#000000" font-family="sans-serif" font-size="13" lengthAdjust="spacing" textLength="21" x="535" y="208.4951">ask</text></g><!--link User to Itinerary--><g id="link_User_Itinerary"><path codeLine="33" d="M646.9,164.11 C662.28,178.2 682.53,196.43 701,212 C712.9,222.04 721.5868,229.0599 733.2668,238.2099 " fill="none" id="User-to-Itinerary" style="stroke:#181818;stroke-width:1.0;"/><polygon fill="#181818" points="737.99,241.91,733.3719,233.211,734.054,238.8266,728.4384,239.5086,737.99,241.91" style="stroke:#181818;stroke-width:1.0;"/><text fill="#000000" font-family="sans-serif" font-size="13" lengthAdjust="spacing" textLength="5" x="724.6593" y="231.2271">*</text></g><!--reverse link Video to Image--><g id="link_Video_Image"><path codeLine="35" d="M965.0748,1003.5065 C948.6648,1032.5365 926.56,1071.68 910.11,1100.79 " fill="none" id="Video-backto-Image" style="stroke:#181818;stroke-width:1.0;"/><polygon fill="#181818" points="970.98,993.06,964.5453,996.3149,965.0748,1003.5065,971.5096,1000.2516,970.98,993.06" style="stroke:#181818;stroke-width:1.0;"/><text fill="#000000" font-family="sans-serif" font-size="13" lengthAdjust="spacing" textLength="8" x="904.4444" y="1090.0763">+</text></g><!--reverse link Video to MultimediaVideo--><g id="link_Video_MultimediaVideo"><path codeLine="36" d="M997.2968,1010.148 C1006.9068,1039.178 1017.67,1071.68 1027.31,1100.79 " fill="none" id="Video-backto-MultimediaVideo" style="stroke:#181818;stroke-width:1.0;"/><polygon fill="none" points="991.64,993.06,991.6008,1012.0336,1002.9928,1008.2624,991.64,993.06" style="stroke:#181818;stroke-width:1.0;"/></g><!--link Teacher to Topic--><g id="link_Teacher_Topic"><path codeLine="38" d="M607.55,290.09 C582.9,304.08 550.72,322.22 522,338 C500.3,349.92 481.0688,360.2452 461.8488,370.4552 " fill="none" id="Teacher-to-Topic" style="stroke:#181818;stroke-width:1.0;stroke-dasharray:7.0,7.0;"/><polygon fill="#181818" points="456.55,373.27,466.3747,372.5803,460.9656,370.9243,462.6216,365.5153,456.55,373.27" style="stroke:#181818;stroke-width:1.0;"/><text fill="#000000" font-family="sans-serif" font-size="13" lengthAdjust="spacing" textLength="41" x="554" y="334.4951">Update</text><text fill="#000000" font-family="sans-serif" font-size="13" lengthAdjust="spacing" textLength="5" x="464.3581" y="359.8115">*</text></g><!--link Teacher to Application--><g id="link_Teacher_Application"><path codeLine="39" d="M650.4,290.28 C652.76,315.18 656,355.84 656,391 C656,391 656,391 656,646.5 C656,680.96 720.8905,750.0743 758.7105,787.5943 " fill="none" id="Teacher-to-Application" style="stroke:#181818;stroke-width:1.0;stroke-dasharray:7.0,7.0;"/><polygon fill="#181818" points="762.97,791.82,759.3979,782.6418,759.4204,788.2986,753.7636,788.3211,762.97,791.82" style="stroke:#181818;stroke-width:1.0;"/><text fill="#000000" font-family="sans-serif" font-size="13" lengthAdjust="spacing" textLength="40" x="657" y="515.4951">Review</text></g><!--link Student to Topic--><g id="link_Student_Topic"><path codeLine="41" d="M510.12,290.03 C491.03,312.17 466.2407,340.8982 447.0507,363.1282 " fill="none" id="Student-to-Topic" style="stroke:#181818;stroke-width:1.0;stroke-dasharray:7.0,7.0;"/><polygon fill="#181818" points="443.13,367.67,452.0389,363.4711,446.3973,363.8852,445.9832,358.2435,443.13,367.67" style="stroke:#181818;stroke-width:1.0;"/><text fill="#000000" font-family="sans-serif" font-size="13" lengthAdjust="spacing" textLength="30" x="483" y="334.4951">Read</text><text fill="#000000" font-family="sans-serif" font-size="13" lengthAdjust="spacing" textLength="5" x="442.4273" y="357.3275">*</text></g><!--reverse link Itinerary to Custom--><g id="link_Itinerary_Custom"><path codeLine="46" d="M802.3258,303.072 C823.3858,325.212 842.64,345.44 863.8,367.67 " fill="none" id="Itinerary-backto-Custom" style="stroke:#181818;stroke-width:1.0;"/><polygon fill="none" points="789.92,290.03,797.9785,307.2073,806.6732,298.9368,789.92,290.03" style="stroke:#181818;stroke-width:1.0;"/></g><!--reverse link Itinerary to Predefined--><g id="link_Itinerary_Predefined"><path codeLine="47" d="M765.3579,307.9931 C763.9379,330.1331 762.94,345.44 761.51,367.67 " fill="none" id="Itinerary-backto-Predefined" style="stroke:#181818;stroke-width:1.0;"/><polygon fill="none" points="766.51,290.03,759.3702,307.6091,771.3456,308.3771,766.51,290.03" style="stroke:#181818;stroke-width:1.0;"/></g><!--reverse link Itinerary to Topic--><g id="link_Itinerary_Topic"><path codeLine="48" d="M714.8621,292.0234 C682.0821,307.1334 646.16,322.77 604,338 C553.5,356.25 493.42,372.87 456.76,382.45 " fill="none" id="Itinerary-backto-Topic" style="stroke:#181818;stroke-width:1.0;"/><polygon fill="none" points="725.76,287,718.6366,285.8791,714.8621,292.0234,721.9855,293.1444,725.76,287" style="stroke:#181818;stroke-width:1.0;"/><text fill="#000000" font-family="sans-serif" font-size="13" lengthAdjust="spacing" textLength="8" x="464.548" y="376.3617">+</text></g><!--reverse link Exercise to Domain--><g id="link_Exercise_Domain"><path codeLine="55" d="M576.2888,697.0377 C599.7888,729.7677 624.94,764.79 644.27,791.7 " fill="none" id="Exercise-backto-Domain" style="stroke:#181818;stroke-width:1.0;"/><polygon fill="#181818" points="569.29,687.29,569.5402,694.4968,576.2888,697.0377,576.0386,689.8309,569.29,687.29" style="stroke:#181818;stroke-width:1.0;"/></g><!--reverse link Exercise to Application--><g id="link_Exercise_Application"><path codeLine="56" d="M599.1784,694.3585 C613.8884,705.2685 620.78,709.29 637,718 C671.19,736.36 686.21,727.24 719,748 C737.76,759.88 755.52,777.68 768.17,791.95 " fill="none" id="Exercise-backto-Application" style="stroke:#181818;stroke-width:1.0;"/><polygon fill="#181818" points="589.54,687.21,591.9764,693.9971,599.1784,694.3585,596.742,687.5715,589.54,687.21" style="stroke:#181818;stroke-width:1.0;"/></g><!--reverse link Topic to SimpleTopic--><g id="link_Topic_SimpleTopic"><path codeLine="61" d="M456.8638,429.3757 C475.6938,449.6057 490.62,465.62 509.44,485.84 " fill="none" id="Topic-backto-SimpleTopic" style="stroke:#181818;stroke-width:1.0;"/><polygon fill="none" points="444.6,416.2,452.472,433.4636,461.2557,425.2877,444.6,416.2" style="stroke:#181818;stroke-width:1.0;"/></g><!--reverse link Topic to CompositeTopic--><g id="link_Topic_CompositeTopic"><path codeLine="62" d="M392.2996,431.5134 C381.5996,448.8334 379.56,457.41 372.5,476.62 " fill="none" id="Topic-backto-CompositeTopic" style="stroke:#181818;stroke-width:1.0;"/><polygon fill="none" points="401.76,416.2,387.1951,428.36,397.4041,434.6669,401.76,416.2" style="stroke:#181818;stroke-width:1.0;"/></g><!--reverse link CompositeTopic to Topic--><g id="link_CompositeTopic_Topic"><path codeLine="76" d="M402.2644,466.1901 C413.1944,446.9801 417.99,433.52 423.25,416.2 " fill="none" id="CompositeTopic-backto-Topic" style="stroke:#181818;stroke-width:1.0;"/><polygon fill="#181818" points="396.33,476.62,402.7738,473.3832,402.2644,466.1901,395.8205,469.4269,396.33,476.62" style="stroke:#181818;stroke-width:1.0;"/><text fill="#000000" font-family="sans-serif" font-size="13" lengthAdjust="spacing" textLength="5" x="417.7016" y="437.5867">*</text></g><!--reverse link SimpleTopic to Exercise--><g id="link_SimpleTopic_Exercise"><path codeLine="66" d="M533.3744,546.223 C534.6644,565.423 535.73,581.16 537.27,603.99 " fill="none" id="SimpleTopic-backto-Exercise" style="stroke:#181818;stroke-width:1.0;"/><polygon fill="none" points="532.57,534.25,528.9812,540.5046,533.3744,546.223,536.9632,539.9684,532.57,534.25" style="stroke:#181818;stroke-width:1.0;"/><text fill="#000000" font-family="sans-serif" font-size="13" lengthAdjust="spacing" textLength="8" x="528.1553" y="593.296">+</text></g><!--reverse link SimpleTopic to Definition--><g id="link_SimpleTopic_Definition"><path codeLine="67" d="M500.1924,542.8804 C479.4024,564.4004 456.63,587.96 433.39,612.01 " fill="none" id="SimpleTopic-backto-Definition" style="stroke:#181818;stroke-width:1.0;"/><polygon fill="#181818" points="508.53,534.25,501.4844,535.786,500.1924,542.8804,507.238,541.3444,508.53,534.25" style="stroke:#181818;stroke-width:1.0;"/><text fill="#000000" font-family="sans-serif" font-size="13" lengthAdjust="spacing" textLength="8" x="430.6112" y="601.6668">+</text></g><!--reverse link SimpleTopic to Relation--><g id="link_SimpleTopic_Relation"><path codeLine="68" d="M468.8791,539.0234 C415.9591,563.1234 350.42,593.85 339,604 C293.97,644 258.15,702.48 234.75,747.73 " fill="none" id="SimpleTopic-backto-Relation" style="stroke:#181818;stroke-width:1.0;"/><polygon fill="none" points="479.8,534.05,472.6818,532.8964,468.8791,539.0234,475.9974,540.177,479.8,534.05" style="stroke:#181818;stroke-width:1.0;"/><text fill="#000000" font-family="sans-serif" font-size="13" lengthAdjust="spacing" textLength="5" x="232.6633" y="737.3755">*</text></g><!--reverse link SimpleTopic to Document--><g id="link_SimpleTopic_Document"><path codeLine="69" d="M596.9707,537.9039 C606.0007,541.2539 604.08,540.31 613,543 C673.09,561.13 695.36,543.95 751,573 C773.8,584.91 794.84,605.39 809.15,621.39 " fill="none" id="SimpleTopic-backto-Document" style="stroke:#181818;stroke-width:1.0;"/><polygon fill="#181818" points="585.72,533.73,589.9541,539.5672,596.9707,537.9039,592.7367,532.0667,585.72,533.73" style="stroke:#181818;stroke-width:1.0;"/></g><!--reverse link SimpleTopic to Media--><g id="link_SimpleTopic_Media"><path codeLine="70" d="M569.6535,541.5268 C613.2035,575.7668 688.58,634.18 763,687 C803.01,715.4 818.89,714.79 855,748 C869.19,761.05 882.64,778.12 892.44,791.77 " fill="none" id="SimpleTopic-backto-Media" style="stroke:#181818;stroke-width:1.0;"/><polygon fill="#181818" points="560.22,534.11,562.4645,540.9629,569.6535,541.5268,567.409,534.6739,560.22,534.11" style="stroke:#181818;stroke-width:1.0;"/><text fill="#000000" font-family="sans-serif" font-size="13" lengthAdjust="spacing" textLength="5" x="882.8121" y="781.0512">*</text></g><!--link Relation to Topic--><g id="link_Relation_Topic"><path codeLine="86" d="M203.51,747.94 C206.23,674.72 220.44,557.23 279,477 C306.39,439.48 350.4137,418.0743 383.6437,405.7643 " fill="none" id="Relation-to-Topic" style="stroke:#181818;stroke-width:1.0;"/><polygon fill="#181818" points="389.27,403.68,379.441,403.0555,384.5814,405.4169,382.22,410.5573,389.27,403.68" style="stroke:#181818;stroke-width:1.0;"/></g><!--link Definition to Relation--><g id="link_Definition_Relation"><path codeLine="92" d="M368.86,678.77 C355.12,691.53 338.73,705.99 323,718 C303.3,733.03 295.6,732.83 276,748 C270.06,752.6 268.5616,753.6675 262.6616,758.7875 " fill="none" id="Definition-to-Relation" style="stroke:#181818;stroke-width:1.0;stroke-dasharray:7.0,7.0;"/><polygon fill="#181818" points="258.13,762.72,267.5491,759.8423,261.9063,759.4429,262.3057,753.8002,258.13,762.72" style="stroke:#181818;stroke-width:1.0;"/><text fill="#000000" font-family="sans-serif" font-size="13" lengthAdjust="spacing" textLength="5" x="266.0936" y="751.619">*</text></g><!--reverse link Exercise to MultipleChoice--><g id="link_Exercise_MultipleChoice"><path codeLine="94" d="M485.5038,699.8884 C455.5838,729.2084 428.64,755.59 400.92,782.75 " fill="none" id="Exercise-backto-MultipleChoice" style="stroke:#181818;stroke-width:1.0;"/><polygon fill="none" points="498.36,687.29,481.3044,695.603,489.7033,704.1738,498.36,687.29" style="stroke:#181818;stroke-width:1.0;"/></g><!--reverse link Exercise to OpenEnded--><g id="link_Exercise_OpenEnded"><path codeLine="95" d="M537.2085,705.2698 C535.6585,737.9998 534.38,764.79 533.11,791.7 " fill="none" id="Exercise-backto-OpenEnded" style="stroke:#181818;stroke-width:1.0;"/><polygon fill="none" points="538.06,687.29,531.2152,704.986,543.2018,705.5537,538.06,687.29" style="stroke:#181818;stroke-width:1.0;"/></g><!--reverse link MultipleChoice to ClozeQuestion--><g id="link_MultipleChoice_ClozeQuestion"><path codeLine="101" d="M313.2884,859.9678 C297.4184,871.7978 293.1,873.97 275,884 C228.71,909.63 172.97,931.89 131.15,947.04 " fill="none" id="MultipleChoice-backto-ClozeQuestion" style="stroke:#181818;stroke-width:1.0;"/><polygon fill="none" points="327.72,849.21,309.7025,855.1572,316.8743,864.7783,327.72,849.21" style="stroke:#181818;stroke-width:1.0;"/></g><!--reverse link MultipleChoice to TopicRelation--><g id="link_MultipleChoice_TopicRelation"><path codeLine="107" d="M373.9462,866.894 C377.3662,895.644 380.19,919.26 383.24,944.88 " fill="none" id="MultipleChoice-backto-TopicRelation" style="stroke:#181818;stroke-width:1.0;"/><polygon fill="none" points="371.82,849.02,367.9882,867.6027,379.9042,866.1852,371.82,849.02" style="stroke:#181818;stroke-width:1.0;"/></g><!--SRC=[VLN9Rjim4BtFLn0vjGbij5SZI20eQYgWYLFRoQKe2aOSsqGaKY2fEgsRVmyNBPJTH1URysPvysOePQmfgE5IqFAkf6OjLKLE9nDoSdP2LhBc1MJlUEI62rHK_NdNwrwZUjCXtLBp9lYDF_hipebC5TzipVGYuWQj0v5jgIjPD1KASmHapwWAhl48k476AG1qaME00D17RHGjJ33iNm02SlxFEkOLtM1iI1h6PMnOuRE9pm-SeGJmVg7Mf-dqisr8KQ4BnMid0xYeDdvaXvkcDBnowNmYhrAeEH1rUZkUxhSZGOkj7S9WMPg6EPsyPMf5THBF2DLFmJIPM9rFumd3KD2FtdSUR3xZ0JE0jgZFxbBvaSt8VSsemH6Qr7N9mmBCo09_Szm1j0mFmnT8MTHhpsyFjkF-52YbZJQoEhJUAMIujYOM8NAqyr2KLEj-QVQ4077F6TcWUK2bBTCF7piRrqbZwrZ-XJLQ6bsS5-lA8boCRL7343NZYxl9-J-EBPCxOOV5gxh4GEq0IcLLIyqDZeX70IvTT3o-437O3VVAwSCzlQDOEue5blG83Bssr-yewMb_qmB3CUyz12LpmV2PpEozr-RS8nVmOX60iN-Vi-qw4qtLimh9yjklsI9V9RTfvi_f_EPklinN-Vms33EvNcJNINHUBkTf7XdkbvaRPfVMNucHoeDAeUJ4Ri8N-eHX2GQqN-5Ujs4RXgjZzKgtaXTu0Cvh59dLXNLbnzwaqyvkPYgLmi8aGkzG1HO7pk5QbF8lVczG1ov26YJ-tKha-W3qmf1Gbslogtik0GKZBlB_9RnEGxlZ4cFGbTYvz_kw4KNu1f1QoOsYLSN5nfQz93-uiEyARgWeyAUFe5FBgwQAChwf1ZAl]--></g></svg>