<?xml version="1.0" encoding="us-ascii" standalone="no"?><svg xmlns="http://www.w3.org/2000/svg" xmlns:xlink="http://www.w3.org/1999/xlink" contentStyleType="text/css" height="1297px" preserveAspectRatio="none" style="width:1185px;height:1297px;background:#FFFFFF;" version="1.1" viewBox="0 0 1185 1297" width="1185px" zoomAndPan="magnify"><defs/><g><!--class Itinerary--><g id="elem_Itinerary"><rect codeLine="2" fill="#F1F1F1" height="65.6094" id="Itinerary" rx="2.5" ry="2.5" style="stroke:#181818;stroke-width:0.5;" width="84" x="480" y="384"/><ellipse cx="495.45" cy="400" fill="#ADD1B2" rx="11" ry="11" style="stroke:#181818;stroke-width:1.0;"/><path d="M498.2156,395.875 Q498.3719,395.6563 498.5594,395.5469 Q498.7469,395.4375 498.9656,395.4375 Q499.3406,395.4375 499.575,395.7031 Q499.8094,395.9531 499.8094,396.5625 L499.8094,398.0156 Q499.8094,398.625 499.575,398.8906 Q499.3406,399.1563 498.9656,399.1563 Q498.6219,399.1563 498.4188,398.9531 Q498.2156,398.7656 498.1063,398.25 Q498.0594,397.8906 497.8719,397.7031 Q497.5438,397.3281 496.9344,397.1094 Q496.325,396.8906 495.7,396.8906 Q494.9344,396.8906 494.2938,397.2188 Q493.6688,397.5469 493.1688,398.2969 Q492.6844,399.0469 492.6844,400.0781 L492.6844,401.1719 Q492.6844,402.4063 493.575,403.2344 Q494.4656,404.0469 496.0594,404.0469 Q496.9969,404.0469 497.6531,403.7969 Q498.0438,403.6406 498.4656,403.2031 Q498.7313,402.9375 498.8719,402.8594 Q499.0281,402.7813 499.2313,402.7813 Q499.5594,402.7813 499.8094,403.0469 Q500.075,403.2969 500.075,403.6406 Q500.075,403.9844 499.7313,404.3906 Q499.2313,404.9688 498.4344,405.2969 Q497.3563,405.75 496.0594,405.75 Q494.5438,405.75 493.3406,405.125 Q492.3563,404.625 491.6688,403.5625 Q490.9813,402.4844 490.9813,401.2031 L490.9813,400.0469 Q490.9813,398.7188 491.5906,397.5781 Q492.2156,396.4219 493.3094,395.8125 Q494.4031,395.1875 495.6375,395.1875 Q496.3719,395.1875 497.0125,395.3594 Q497.6688,395.5156 498.2156,395.875 Z " fill="#000000"/><text fill="#000000" font-family="sans-serif" font-size="14" lengthAdjust="spacing" textLength="51" x="509.55" y="405.7285">Itinerary</text><line style="stroke:#181818;stroke-width:0.5;" x1="481" x2="563" y1="416" y2="416"/><rect fill="none" height="6" style="stroke:#C82930;stroke-width:1.0;" width="6" x="488" y="427.3047"/><text fill="#000000" font-family="sans-serif" font-size="14" lengthAdjust="spacing" textLength="58" x="500" y="434.5332">isCustom</text><line style="stroke:#181818;stroke-width:0.5;" x1="481" x2="563" y1="441.6094" y2="441.6094"/></g><!--class Topic--><g id="elem_Topic"><rect codeLine="48" fill="#F1F1F1" height="65.6094" id="Topic" rx="2.5" ry="2.5" style="stroke:#181818;stroke-width:0.5;" width="67" x="430.5" y="528"/><ellipse cx="445.5" cy="544" fill="#A9DCDF" rx="11" ry="11" style="stroke:#181818;stroke-width:1.0;"/><path d="M447.6875,545.7656 L443.5469,545.7656 L443.125,546.7969 L443.5469,546.7969 Q444.1563,546.7969 444.4219,547.0313 Q444.6875,547.2656 444.6875,547.6563 Q444.6875,548.0313 444.4219,548.2656 Q444.1563,548.5 443.5469,548.5 L441.25,548.5 Q440.6406,548.5 440.3906,548.2656 Q440.125,548.0313 440.125,547.6406 Q440.125,547.2656 440.4063,547.0313 Q440.6719,546.7813 441.2969,546.7969 L443.9688,540.1406 L442.8594,540.1406 Q442.25,540.1406 441.9844,539.9063 Q441.7188,539.6719 441.7188,539.2813 Q441.7188,538.9063 441.9844,538.6719 Q442.25,538.4375 442.8594,538.4375 L446.5313,538.4375 L449.9219,546.7969 Q450.5156,546.7969 450.7031,546.9375 Q451.0938,547.2031 451.0938,547.6563 Q451.0938,548.0313 450.8281,548.2656 Q450.5781,548.5 449.9688,548.5 L447.6719,548.5 Q447.0625,548.5 446.7969,548.2656 Q446.5313,548.0313 446.5313,547.6406 Q446.5313,547.2656 446.7969,547.0313 Q447.0625,546.7969 447.6719,546.7969 L448.0938,546.7969 L447.6875,545.7656 Z M446.9688,544.0625 L445.6094,540.6875 L444.2344,544.0625 L446.9688,544.0625 Z " fill="#000000"/><text fill="#000000" font-family="sans-serif" font-size="14" font-style="italic" lengthAdjust="spacing" textLength="35" x="459.5" y="549.7285">Topic</text><line style="stroke:#181818;stroke-width:0.5;" x1="431.5" x2="496.5" y1="560" y2="560"/><rect fill="none" height="6" style="stroke:#C82930;stroke-width:1.0;" width="6" x="438.5" y="571.3047"/><text fill="#000000" font-family="sans-serif" font-size="14" lengthAdjust="spacing" textLength="33" x="450.5" y="578.5332">index</text><line style="stroke:#181818;stroke-width:0.5;" x1="431.5" x2="496.5" y1="585.6094" y2="585.6094"/></g><!--class EducationPlatform--><g id="elem_EducationPlatform"><rect fill="#F1F1F1" height="48" id="EducationPlatform" rx="2.5" ry="2.5" style="stroke:#181818;stroke-width:0.5;" width="147" x="690.5" y="7"/><ellipse cx="705.5" cy="23" fill="#ADD1B2" rx="11" ry="11" style="stroke:#181818;stroke-width:1.0;"/><path d="M708.2656,18.875 Q708.4219,18.6563 708.6094,18.5469 Q708.7969,18.4375 709.0156,18.4375 Q709.3906,18.4375 709.625,18.7031 Q709.8594,18.9531 709.8594,19.5625 L709.8594,21.0156 Q709.8594,21.625 709.625,21.8906 Q709.3906,22.1563 709.0156,22.1563 Q708.6719,22.1563 708.4688,21.9531 Q708.2656,21.7656 708.1563,21.25 Q708.1094,20.8906 707.9219,20.7031 Q707.5938,20.3281 706.9844,20.1094 Q706.375,19.8906 705.75,19.8906 Q704.9844,19.8906 704.3438,20.2188 Q703.7188,20.5469 703.2188,21.2969 Q702.7344,22.0469 702.7344,23.0781 L702.7344,24.1719 Q702.7344,25.4063 703.625,26.2344 Q704.5156,27.0469 706.1094,27.0469 Q707.0469,27.0469 707.7031,26.7969 Q708.0938,26.6406 708.5156,26.2031 Q708.7813,25.9375 708.9219,25.8594 Q709.0781,25.7813 709.2813,25.7813 Q709.6094,25.7813 709.8594,26.0469 Q710.125,26.2969 710.125,26.6406 Q710.125,26.9844 709.7813,27.3906 Q709.2813,27.9688 708.4844,28.2969 Q707.4063,28.75 706.1094,28.75 Q704.5938,28.75 703.3906,28.125 Q702.4063,27.625 701.7188,26.5625 Q701.0313,25.4844 701.0313,24.2031 L701.0313,23.0469 Q701.0313,21.7188 701.6406,20.5781 Q702.2656,19.4219 703.3594,18.8125 Q704.4531,18.1875 705.6875,18.1875 Q706.4219,18.1875 707.0625,18.3594 Q707.7188,18.5156 708.2656,18.875 Z " fill="#000000"/><text fill="#000000" font-family="sans-serif" font-size="14" lengthAdjust="spacing" textLength="115" x="719.5" y="28.7285">EducationPlatform</text><line style="stroke:#181818;stroke-width:0.5;" x1="691.5" x2="836.5" y1="39" y2="39"/><line style="stroke:#181818;stroke-width:0.5;" x1="691.5" x2="836.5" y1="47" y2="47"/></g><!--class Teacher--><g id="elem_Teacher"><rect fill="#F1F1F1" height="48" id="Teacher" rx="2.5" ry="2.5" style="stroke:#181818;stroke-width:0.5;" width="85" x="721.5" y="116"/><ellipse cx="736.5" cy="132" fill="#ADD1B2" rx="11" ry="11" style="stroke:#181818;stroke-width:1.0;"/><path d="M739.2656,127.875 Q739.4219,127.6563 739.6094,127.5469 Q739.7969,127.4375 740.0156,127.4375 Q740.3906,127.4375 740.625,127.7031 Q740.8594,127.9531 740.8594,128.5625 L740.8594,130.0156 Q740.8594,130.625 740.625,130.8906 Q740.3906,131.1563 740.0156,131.1563 Q739.6719,131.1563 739.4688,130.9531 Q739.2656,130.7656 739.1563,130.25 Q739.1094,129.8906 738.9219,129.7031 Q738.5938,129.3281 737.9844,129.1094 Q737.375,128.8906 736.75,128.8906 Q735.9844,128.8906 735.3438,129.2188 Q734.7188,129.5469 734.2188,130.2969 Q733.7344,131.0469 733.7344,132.0781 L733.7344,133.1719 Q733.7344,134.4063 734.625,135.2344 Q735.5156,136.0469 737.1094,136.0469 Q738.0469,136.0469 738.7031,135.7969 Q739.0938,135.6406 739.5156,135.2031 Q739.7813,134.9375 739.9219,134.8594 Q740.0781,134.7813 740.2813,134.7813 Q740.6094,134.7813 740.8594,135.0469 Q741.125,135.2969 741.125,135.6406 Q741.125,135.9844 740.7813,136.3906 Q740.2813,136.9688 739.4844,137.2969 Q738.4063,137.75 737.1094,137.75 Q735.5938,137.75 734.3906,137.125 Q733.4063,136.625 732.7188,135.5625 Q732.0313,134.4844 732.0313,133.2031 L732.0313,132.0469 Q732.0313,130.7188 732.6406,129.5781 Q733.2656,128.4219 734.3594,127.8125 Q735.4531,127.1875 736.6875,127.1875 Q737.4219,127.1875 738.0625,127.3594 Q738.7188,127.5156 739.2656,127.875 Z " fill="#000000"/><text fill="#000000" font-family="sans-serif" font-size="14" lengthAdjust="spacing" textLength="53" x="750.5" y="137.7285">Teacher</text><line style="stroke:#181818;stroke-width:0.5;" x1="722.5" x2="805.5" y1="148" y2="148"/><line style="stroke:#181818;stroke-width:0.5;" x1="722.5" x2="805.5" y1="156" y2="156"/></g><!--class Student--><g id="elem_Student"><rect fill="#F1F1F1" height="48" id="Student" rx="2.5" ry="2.5" style="stroke:#181818;stroke-width:0.5;" width="81" x="966.5" y="116"/><ellipse cx="981.5" cy="132" fill="#ADD1B2" rx="11" ry="11" style="stroke:#181818;stroke-width:1.0;"/><path d="M984.2656,127.875 Q984.4219,127.6563 984.6094,127.5469 Q984.7969,127.4375 985.0156,127.4375 Q985.3906,127.4375 985.625,127.7031 Q985.8594,127.9531 985.8594,128.5625 L985.8594,130.0156 Q985.8594,130.625 985.625,130.8906 Q985.3906,131.1563 985.0156,131.1563 Q984.6719,131.1563 984.4688,130.9531 Q984.2656,130.7656 984.1563,130.25 Q984.1094,129.8906 983.9219,129.7031 Q983.5938,129.3281 982.9844,129.1094 Q982.375,128.8906 981.75,128.8906 Q980.9844,128.8906 980.3438,129.2188 Q979.7188,129.5469 979.2188,130.2969 Q978.7344,131.0469 978.7344,132.0781 L978.7344,133.1719 Q978.7344,134.4063 979.625,135.2344 Q980.5156,136.0469 982.1094,136.0469 Q983.0469,136.0469 983.7031,135.7969 Q984.0938,135.6406 984.5156,135.2031 Q984.7813,134.9375 984.9219,134.8594 Q985.0781,134.7813 985.2813,134.7813 Q985.6094,134.7813 985.8594,135.0469 Q986.125,135.2969 986.125,135.6406 Q986.125,135.9844 985.7813,136.3906 Q985.2813,136.9688 984.4844,137.2969 Q983.4063,137.75 982.1094,137.75 Q980.5938,137.75 979.3906,137.125 Q978.4063,136.625 977.7188,135.5625 Q977.0313,134.4844 977.0313,133.2031 L977.0313,132.0469 Q977.0313,130.7188 977.6406,129.5781 Q978.2656,128.4219 979.3594,127.8125 Q980.4531,127.1875 981.6875,127.1875 Q982.4219,127.1875 983.0625,127.3594 Q983.7188,127.5156 984.2656,127.875 Z " fill="#000000"/><text fill="#000000" font-family="sans-serif" font-size="14" lengthAdjust="spacing" textLength="49" x="995.5" y="137.7285">Student</text><line style="stroke:#181818;stroke-width:0.5;" x1="967.5" x2="1046.5" y1="148" y2="148"/><line style="stroke:#181818;stroke-width:0.5;" x1="967.5" x2="1046.5" y1="156" y2="156"/></g><!--class Chat--><g id="elem_Chat"><rect fill="#F1F1F1" height="48" id="Chat" rx="2.5" ry="2.5" style="stroke:#181818;stroke-width:0.5;" width="62" x="1060" y="306"/><ellipse cx="1075" cy="322" fill="#ADD1B2" rx="11" ry="11" style="stroke:#181818;stroke-width:1.0;"/><path d="M1077.7656,317.875 Q1077.9219,317.6563 1078.1094,317.5469 Q1078.2969,317.4375 1078.5156,317.4375 Q1078.8906,317.4375 1079.125,317.7031 Q1079.3594,317.9531 1079.3594,318.5625 L1079.3594,320.0156 Q1079.3594,320.625 1079.125,320.8906 Q1078.8906,321.1563 1078.5156,321.1563 Q1078.1719,321.1563 1077.9688,320.9531 Q1077.7656,320.7656 1077.6563,320.25 Q1077.6094,319.8906 1077.4219,319.7031 Q1077.0938,319.3281 1076.4844,319.1094 Q1075.875,318.8906 1075.25,318.8906 Q1074.4844,318.8906 1073.8438,319.2188 Q1073.2188,319.5469 1072.7188,320.2969 Q1072.2344,321.0469 1072.2344,322.0781 L1072.2344,323.1719 Q1072.2344,324.4063 1073.125,325.2344 Q1074.0156,326.0469 1075.6094,326.0469 Q1076.5469,326.0469 1077.2031,325.7969 Q1077.5938,325.6406 1078.0156,325.2031 Q1078.2813,324.9375 1078.4219,324.8594 Q1078.5781,324.7813 1078.7813,324.7813 Q1079.1094,324.7813 1079.3594,325.0469 Q1079.625,325.2969 1079.625,325.6406 Q1079.625,325.9844 1079.2813,326.3906 Q1078.7813,326.9688 1077.9844,327.2969 Q1076.9063,327.75 1075.6094,327.75 Q1074.0938,327.75 1072.8906,327.125 Q1071.9063,326.625 1071.2188,325.5625 Q1070.5313,324.4844 1070.5313,323.2031 L1070.5313,322.0469 Q1070.5313,320.7188 1071.1406,319.5781 Q1071.7656,318.4219 1072.8594,317.8125 Q1073.9531,317.1875 1075.1875,317.1875 Q1075.9219,317.1875 1076.5625,317.3594 Q1077.2188,317.5156 1077.7656,317.875 Z " fill="#000000"/><text fill="#000000" font-family="sans-serif" font-size="14" lengthAdjust="spacing" textLength="30" x="1089" y="327.7285">Chat</text><line style="stroke:#181818;stroke-width:0.5;" x1="1061" x2="1121" y1="338" y2="338"/><line style="stroke:#181818;stroke-width:0.5;" x1="1061" x2="1121" y1="346" y2="346"/></g><!--class Exercise--><g id="elem_Exercise"><rect codeLine="16" fill="#F1F1F1" height="65.6094" id="Exercise" rx="2.5" ry="2.5" style="stroke:#181818;stroke-width:0.5;" width="85" x="728.5" y="688"/><ellipse cx="743.5" cy="704" fill="#ADD1B2" rx="11" ry="11" style="stroke:#181818;stroke-width:1.0;"/><path d="M746.2656,699.875 Q746.4219,699.6563 746.6094,699.5469 Q746.7969,699.4375 747.0156,699.4375 Q747.3906,699.4375 747.625,699.7031 Q747.8594,699.9531 747.8594,700.5625 L747.8594,702.0156 Q747.8594,702.625 747.625,702.8906 Q747.3906,703.1563 747.0156,703.1563 Q746.6719,703.1563 746.4688,702.9531 Q746.2656,702.7656 746.1563,702.25 Q746.1094,701.8906 745.9219,701.7031 Q745.5938,701.3281 744.9844,701.1094 Q744.375,700.8906 743.75,700.8906 Q742.9844,700.8906 742.3438,701.2188 Q741.7188,701.5469 741.2188,702.2969 Q740.7344,703.0469 740.7344,704.0781 L740.7344,705.1719 Q740.7344,706.4063 741.625,707.2344 Q742.5156,708.0469 744.1094,708.0469 Q745.0469,708.0469 745.7031,707.7969 Q746.0938,707.6406 746.5156,707.2031 Q746.7813,706.9375 746.9219,706.8594 Q747.0781,706.7813 747.2813,706.7813 Q747.6094,706.7813 747.8594,707.0469 Q748.125,707.2969 748.125,707.6406 Q748.125,707.9844 747.7813,708.3906 Q747.2813,708.9688 746.4844,709.2969 Q745.4063,709.75 744.1094,709.75 Q742.5938,709.75 741.3906,709.125 Q740.4063,708.625 739.7188,707.5625 Q739.0313,706.4844 739.0313,705.2031 L739.0313,704.0469 Q739.0313,702.7188 739.6406,701.5781 Q740.2656,700.4219 741.3594,699.8125 Q742.4531,699.1875 743.6875,699.1875 Q744.4219,699.1875 745.0625,699.3594 Q745.7188,699.5156 746.2656,699.875 Z " fill="#000000"/><text fill="#000000" font-family="sans-serif" font-size="14" lengthAdjust="spacing" textLength="53" x="757.5" y="709.7285">Exercise</text><line style="stroke:#181818;stroke-width:0.5;" x1="729.5" x2="812.5" y1="720" y2="720"/><ellipse cx="739.5" cy="734.3047" fill="none" rx="3" ry="3" style="stroke:#038048;stroke-width:1.0;"/><text fill="#000000" font-family="sans-serif" font-size="14" lengthAdjust="spacing" textLength="46" x="748.5" y="738.5332">version</text><line style="stroke:#181818;stroke-width:0.5;" x1="729.5" x2="812.5" y1="745.6094" y2="745.6094"/></g><!--class Domain--><g id="elem_Domain"><rect fill="#F1F1F1" height="48" id="Domain" rx="2.5" ry="2.5" style="stroke:#181818;stroke-width:0.5;" width="80" x="731" y="876"/><ellipse cx="746" cy="892" fill="#ADD1B2" rx="11" ry="11" style="stroke:#181818;stroke-width:1.0;"/><path d="M748.7656,887.875 Q748.9219,887.6563 749.1094,887.5469 Q749.2969,887.4375 749.5156,887.4375 Q749.8906,887.4375 750.125,887.7031 Q750.3594,887.9531 750.3594,888.5625 L750.3594,890.0156 Q750.3594,890.625 750.125,890.8906 Q749.8906,891.1563 749.5156,891.1563 Q749.1719,891.1563 748.9688,890.9531 Q748.7656,890.7656 748.6563,890.25 Q748.6094,889.8906 748.4219,889.7031 Q748.0938,889.3281 747.4844,889.1094 Q746.875,888.8906 746.25,888.8906 Q745.4844,888.8906 744.8438,889.2188 Q744.2188,889.5469 743.7188,890.2969 Q743.2344,891.0469 743.2344,892.0781 L743.2344,893.1719 Q743.2344,894.4063 744.125,895.2344 Q745.0156,896.0469 746.6094,896.0469 Q747.5469,896.0469 748.2031,895.7969 Q748.5938,895.6406 749.0156,895.2031 Q749.2813,894.9375 749.4219,894.8594 Q749.5781,894.7813 749.7813,894.7813 Q750.1094,894.7813 750.3594,895.0469 Q750.625,895.2969 750.625,895.6406 Q750.625,895.9844 750.2813,896.3906 Q749.7813,896.9688 748.9844,897.2969 Q747.9063,897.75 746.6094,897.75 Q745.0938,897.75 743.8906,897.125 Q742.9063,896.625 742.2188,895.5625 Q741.5313,894.4844 741.5313,893.2031 L741.5313,892.0469 Q741.5313,890.7188 742.1406,889.5781 Q742.7656,888.4219 743.8594,887.8125 Q744.9531,887.1875 746.1875,887.1875 Q746.9219,887.1875 747.5625,887.3594 Q748.2188,887.5156 748.7656,887.875 Z " fill="#000000"/><text fill="#000000" font-family="sans-serif" font-size="14" lengthAdjust="spacing" textLength="48" x="760" y="897.7285">Domain</text><line style="stroke:#181818;stroke-width:0.5;" x1="732" x2="810" y1="908" y2="908"/><line style="stroke:#181818;stroke-width:0.5;" x1="732" x2="810" y1="916" y2="916"/></g><!--class Answer--><g id="elem_Answer"><rect codeLine="31" fill="#F1F1F1" height="65.6094" id="Answer" rx="2.5" ry="2.5" style="stroke:#181818;stroke-width:0.5;" width="83" x="730.5" y="1072"/><ellipse cx="747.75" cy="1088" fill="#ADD1B2" rx="11" ry="11" style="stroke:#181818;stroke-width:1.0;"/><path d="M750.5156,1083.875 Q750.6719,1083.6563 750.8594,1083.5469 Q751.0469,1083.4375 751.2656,1083.4375 Q751.6406,1083.4375 751.875,1083.7031 Q752.1094,1083.9531 752.1094,1084.5625 L752.1094,1086.0156 Q752.1094,1086.625 751.875,1086.8906 Q751.6406,1087.1563 751.2656,1087.1563 Q750.9219,1087.1563 750.7188,1086.9531 Q750.5156,1086.7656 750.4063,1086.25 Q750.3594,1085.8906 750.1719,1085.7031 Q749.8438,1085.3281 749.2344,1085.1094 Q748.625,1084.8906 748,1084.8906 Q747.2344,1084.8906 746.5938,1085.2188 Q745.9688,1085.5469 745.4688,1086.2969 Q744.9844,1087.0469 744.9844,1088.0781 L744.9844,1089.1719 Q744.9844,1090.4063 745.875,1091.2344 Q746.7656,1092.0469 748.3594,1092.0469 Q749.2969,1092.0469 749.9531,1091.7969 Q750.3438,1091.6406 750.7656,1091.2031 Q751.0313,1090.9375 751.1719,1090.8594 Q751.3281,1090.7813 751.5313,1090.7813 Q751.8594,1090.7813 752.1094,1091.0469 Q752.375,1091.2969 752.375,1091.6406 Q752.375,1091.9844 752.0313,1092.3906 Q751.5313,1092.9688 750.7344,1093.2969 Q749.6563,1093.75 748.3594,1093.75 Q746.8438,1093.75 745.6406,1093.125 Q744.6563,1092.625 743.9688,1091.5625 Q743.2813,1090.4844 743.2813,1089.2031 L743.2813,1088.0469 Q743.2813,1086.7188 743.8906,1085.5781 Q744.5156,1084.4219 745.6094,1083.8125 Q746.7031,1083.1875 747.9375,1083.1875 Q748.6719,1083.1875 749.3125,1083.3594 Q749.9688,1083.5156 750.5156,1083.875 Z " fill="#000000"/><text fill="#000000" font-family="sans-serif" font-size="14" lengthAdjust="spacing" textLength="46" x="762.25" y="1093.7285">Answer</text><line style="stroke:#181818;stroke-width:0.5;" x1="731.5" x2="812.5" y1="1104" y2="1104"/><rect fill="none" height="6" style="stroke:#C82930;stroke-width:1.0;" width="6" x="738.5" y="1115.3047"/><text fill="#000000" font-family="sans-serif" font-size="14" lengthAdjust="spacing" textLength="57" x="750.5" y="1122.5332">isCorrect</text><line style="stroke:#181818;stroke-width:0.5;" x1="731.5" x2="812.5" y1="1129.6094" y2="1129.6094"/></g><!--class StatementType--><g id="elem_StatementType"><rect codeLine="24" fill="#F1F1F1" height="118.4375" id="StatementType" rx="2.5" ry="2.5" style="stroke:#181818;stroke-width:0.5;" width="128" x="567" y="1046"/><ellipse cx="582" cy="1062" fill="#EB937F" rx="11" ry="11" style="stroke:#181818;stroke-width:1.0;"/><path d="M580.8594,1062.7969 L580.8594,1065.2969 L585.1875,1065.2969 L585.1875,1064.375 Q585.1875,1063.7656 585.4219,1063.5 Q585.6719,1063.2344 586.0469,1063.2344 Q586.4219,1063.2344 586.6563,1063.5 Q586.8906,1063.7656 586.8906,1064.375 L586.8906,1067 L578.8906,1067 Q578.2656,1067 578,1066.7656 Q577.75,1066.5313 577.75,1066.1406 Q577.75,1065.7656 578.0156,1065.5313 Q578.2813,1065.2969 578.8906,1065.2969 L579.1563,1065.2969 L579.1563,1058.6406 L578.8906,1058.6406 Q578.2656,1058.6406 578,1058.4063 Q577.75,1058.1719 577.75,1057.7813 Q577.75,1057.4063 578,1057.1719 Q578.2656,1056.9375 578.8906,1056.9375 L586.5156,1056.9375 L586.5156,1059.5313 Q586.5156,1060.1406 586.2813,1060.4063 Q586.0625,1060.6563 585.6719,1060.6563 Q585.2969,1060.6563 585.0625,1060.4063 Q584.8281,1060.1406 584.8281,1059.5313 L584.8281,1058.6406 L580.8594,1058.6406 L580.8594,1061.0938 L582.3438,1061.0938 Q582.3438,1060.4375 582.4688,1060.25 Q582.7344,1059.8438 583.2031,1059.8438 Q583.5781,1059.8438 583.8125,1060.1094 Q584.0469,1060.3594 584.0469,1060.9688 L584.0469,1062.9375 Q584.0469,1063.4844 583.9219,1063.6719 Q583.6563,1064.0625 583.2031,1064.0625 Q582.7344,1064.0625 582.4688,1063.6563 Q582.3438,1063.4688 582.3438,1062.7969 L580.8594,1062.7969 Z " fill="#000000"/><text fill="#000000" font-family="sans-serif" font-size="14" lengthAdjust="spacing" textLength="96" x="596" y="1067.7285">StatementType</text><line style="stroke:#181818;stroke-width:0.5;" x1="568" x2="694" y1="1078" y2="1078"/><text fill="#000000" font-family="sans-serif" font-size="14" lengthAdjust="spacing" textLength="63" x="573" y="1096.5332">ClozeTest</text><text fill="#000000" font-family="sans-serif" font-size="14" lengthAdjust="spacing" textLength="59" x="573" y="1114.1426">Definition</text><text fill="#000000" font-family="sans-serif" font-size="14" lengthAdjust="spacing" textLength="84" x="573" y="1131.752">RelationType</text><text fill="#000000" font-family="sans-serif" font-size="14" lengthAdjust="spacing" textLength="108" x="573" y="1149.3613">JustifyApplication</text><line style="stroke:#181818;stroke-width:0.5;" x1="568" x2="694" y1="1156.4375" y2="1156.4375"/></g><!--class Justification--><g id="elem_Justification"><rect fill="#F1F1F1" height="48" id="Justification" rx="2.5" ry="2.5" style="stroke:#181818;stroke-width:0.5;" width="105" x="545.5" y="1242"/><ellipse cx="560.5" cy="1258" fill="#ADD1B2" rx="11" ry="11" style="stroke:#181818;stroke-width:1.0;"/><path d="M563.2656,1253.875 Q563.4219,1253.6563 563.6094,1253.5469 Q563.7969,1253.4375 564.0156,1253.4375 Q564.3906,1253.4375 564.625,1253.7031 Q564.8594,1253.9531 564.8594,1254.5625 L564.8594,1256.0156 Q564.8594,1256.625 564.625,1256.8906 Q564.3906,1257.1563 564.0156,1257.1563 Q563.6719,1257.1563 563.4688,1256.9531 Q563.2656,1256.7656 563.1563,1256.25 Q563.1094,1255.8906 562.9219,1255.7031 Q562.5938,1255.3281 561.9844,1255.1094 Q561.375,1254.8906 560.75,1254.8906 Q559.9844,1254.8906 559.3438,1255.2188 Q558.7188,1255.5469 558.2188,1256.2969 Q557.7344,1257.0469 557.7344,1258.0781 L557.7344,1259.1719 Q557.7344,1260.4063 558.625,1261.2344 Q559.5156,1262.0469 561.1094,1262.0469 Q562.0469,1262.0469 562.7031,1261.7969 Q563.0938,1261.6406 563.5156,1261.2031 Q563.7813,1260.9375 563.9219,1260.8594 Q564.0781,1260.7813 564.2813,1260.7813 Q564.6094,1260.7813 564.8594,1261.0469 Q565.125,1261.2969 565.125,1261.6406 Q565.125,1261.9844 564.7813,1262.3906 Q564.2813,1262.9688 563.4844,1263.2969 Q562.4063,1263.75 561.1094,1263.75 Q559.5938,1263.75 558.3906,1263.125 Q557.4063,1262.625 556.7188,1261.5625 Q556.0313,1260.4844 556.0313,1259.2031 L556.0313,1258.0469 Q556.0313,1256.7188 556.6406,1255.5781 Q557.2656,1254.4219 558.3594,1253.8125 Q559.4531,1253.1875 560.6875,1253.1875 Q561.4219,1253.1875 562.0625,1253.3594 Q562.7188,1253.5156 563.2656,1253.875 Z " fill="#000000"/><text fill="#000000" font-family="sans-serif" font-size="14" lengthAdjust="spacing" textLength="73" x="574.5" y="1263.7285">Justification</text><line style="stroke:#181818;stroke-width:0.5;" x1="546.5" x2="649.5" y1="1274" y2="1274"/><line style="stroke:#181818;stroke-width:0.5;" x1="546.5" x2="649.5" y1="1282" y2="1282"/></g><!--class Application--><g id="elem_Application"><rect fill="#F1F1F1" height="48" id="Application" rx="2.5" ry="2.5" style="stroke:#181818;stroke-width:0.5;" width="101" x="928.5" y="1242"/><ellipse cx="943.5" cy="1258" fill="#ADD1B2" rx="11" ry="11" style="stroke:#181818;stroke-width:1.0;"/><path d="M946.2656,1253.875 Q946.4219,1253.6563 946.6094,1253.5469 Q946.7969,1253.4375 947.0156,1253.4375 Q947.3906,1253.4375 947.625,1253.7031 Q947.8594,1253.9531 947.8594,1254.5625 L947.8594,1256.0156 Q947.8594,1256.625 947.625,1256.8906 Q947.3906,1257.1563 947.0156,1257.1563 Q946.6719,1257.1563 946.4688,1256.9531 Q946.2656,1256.7656 946.1563,1256.25 Q946.1094,1255.8906 945.9219,1255.7031 Q945.5938,1255.3281 944.9844,1255.1094 Q944.375,1254.8906 943.75,1254.8906 Q942.9844,1254.8906 942.3438,1255.2188 Q941.7188,1255.5469 941.2188,1256.2969 Q940.7344,1257.0469 940.7344,1258.0781 L940.7344,1259.1719 Q940.7344,1260.4063 941.625,1261.2344 Q942.5156,1262.0469 944.1094,1262.0469 Q945.0469,1262.0469 945.7031,1261.7969 Q946.0938,1261.6406 946.5156,1261.2031 Q946.7813,1260.9375 946.9219,1260.8594 Q947.0781,1260.7813 947.2813,1260.7813 Q947.6094,1260.7813 947.8594,1261.0469 Q948.125,1261.2969 948.125,1261.6406 Q948.125,1261.9844 947.7813,1262.3906 Q947.2813,1262.9688 946.4844,1263.2969 Q945.4063,1263.75 944.1094,1263.75 Q942.5938,1263.75 941.3906,1263.125 Q940.4063,1262.625 939.7188,1261.5625 Q939.0313,1260.4844 939.0313,1259.2031 L939.0313,1258.0469 Q939.0313,1256.7188 939.6406,1255.5781 Q940.2656,1254.4219 941.3594,1253.8125 Q942.4531,1253.1875 943.6875,1253.1875 Q944.4219,1253.1875 945.0625,1253.3594 Q945.7188,1253.5156 946.2656,1253.875 Z " fill="#000000"/><text fill="#000000" font-family="sans-serif" font-size="14" lengthAdjust="spacing" textLength="69" x="957.5" y="1263.7285">Application</text><line style="stroke:#181818;stroke-width:0.5;" x1="929.5" x2="1028.5" y1="1274" y2="1274"/><line style="stroke:#181818;stroke-width:0.5;" x1="929.5" x2="1028.5" y1="1282" y2="1282"/></g><!--class CompositeTopic--><g id="elem_CompositeTopic"><rect fill="#F1F1F1" height="48" id="CompositeTopic" rx="2.5" ry="2.5" style="stroke:#181818;stroke-width:0.5;" width="134" x="132" y="697"/><ellipse cx="147" cy="713" fill="#ADD1B2" rx="11" ry="11" style="stroke:#181818;stroke-width:1.0;"/><path d="M149.7656,708.875 Q149.9219,708.6563 150.1094,708.5469 Q150.2969,708.4375 150.5156,708.4375 Q150.8906,708.4375 151.125,708.7031 Q151.3594,708.9531 151.3594,709.5625 L151.3594,711.0156 Q151.3594,711.625 151.125,711.8906 Q150.8906,712.1563 150.5156,712.1563 Q150.1719,712.1563 149.9688,711.9531 Q149.7656,711.7656 149.6563,711.25 Q149.6094,710.8906 149.4219,710.7031 Q149.0938,710.3281 148.4844,710.1094 Q147.875,709.8906 147.25,709.8906 Q146.4844,709.8906 145.8438,710.2188 Q145.2188,710.5469 144.7188,711.2969 Q144.2344,712.0469 144.2344,713.0781 L144.2344,714.1719 Q144.2344,715.4063 145.125,716.2344 Q146.0156,717.0469 147.6094,717.0469 Q148.5469,717.0469 149.2031,716.7969 Q149.5938,716.6406 150.0156,716.2031 Q150.2813,715.9375 150.4219,715.8594 Q150.5781,715.7813 150.7813,715.7813 Q151.1094,715.7813 151.3594,716.0469 Q151.625,716.2969 151.625,716.6406 Q151.625,716.9844 151.2813,717.3906 Q150.7813,717.9688 149.9844,718.2969 Q148.9063,718.75 147.6094,718.75 Q146.0938,718.75 144.8906,718.125 Q143.9063,717.625 143.2188,716.5625 Q142.5313,715.4844 142.5313,714.2031 L142.5313,713.0469 Q142.5313,711.7188 143.1406,710.5781 Q143.7656,709.4219 144.8594,708.8125 Q145.9531,708.1875 147.1875,708.1875 Q147.9219,708.1875 148.5625,708.3594 Q149.2188,708.5156 149.7656,708.875 Z " fill="#000000"/><text fill="#000000" font-family="sans-serif" font-size="14" lengthAdjust="spacing" textLength="102" x="161" y="718.7285">CompositeTopic</text><line style="stroke:#181818;stroke-width:0.5;" x1="133" x2="265" y1="729" y2="729"/><line style="stroke:#181818;stroke-width:0.5;" x1="133" x2="265" y1="737" y2="737"/></g><!--class SimpleTopic--><g id="elem_SimpleTopic"><rect fill="#F1F1F1" height="48" id="SimpleTopic" rx="2.5" ry="2.5" style="stroke:#181818;stroke-width:0.5;" width="109" x="301.5" y="697"/><ellipse cx="316.5" cy="713" fill="#ADD1B2" rx="11" ry="11" style="stroke:#181818;stroke-width:1.0;"/><path d="M319.2656,708.875 Q319.4219,708.6563 319.6094,708.5469 Q319.7969,708.4375 320.0156,708.4375 Q320.3906,708.4375 320.625,708.7031 Q320.8594,708.9531 320.8594,709.5625 L320.8594,711.0156 Q320.8594,711.625 320.625,711.8906 Q320.3906,712.1563 320.0156,712.1563 Q319.6719,712.1563 319.4688,711.9531 Q319.2656,711.7656 319.1563,711.25 Q319.1094,710.8906 318.9219,710.7031 Q318.5938,710.3281 317.9844,710.1094 Q317.375,709.8906 316.75,709.8906 Q315.9844,709.8906 315.3438,710.2188 Q314.7188,710.5469 314.2188,711.2969 Q313.7344,712.0469 313.7344,713.0781 L313.7344,714.1719 Q313.7344,715.4063 314.625,716.2344 Q315.5156,717.0469 317.1094,717.0469 Q318.0469,717.0469 318.7031,716.7969 Q319.0938,716.6406 319.5156,716.2031 Q319.7813,715.9375 319.9219,715.8594 Q320.0781,715.7813 320.2813,715.7813 Q320.6094,715.7813 320.8594,716.0469 Q321.125,716.2969 321.125,716.6406 Q321.125,716.9844 320.7813,717.3906 Q320.2813,717.9688 319.4844,718.2969 Q318.4063,718.75 317.1094,718.75 Q315.5938,718.75 314.3906,718.125 Q313.4063,717.625 312.7188,716.5625 Q312.0313,715.4844 312.0313,714.2031 L312.0313,713.0469 Q312.0313,711.7188 312.6406,710.5781 Q313.2656,709.4219 314.3594,708.8125 Q315.4531,708.1875 316.6875,708.1875 Q317.4219,708.1875 318.0625,708.3594 Q318.7188,708.5156 319.2656,708.875 Z " fill="#000000"/><text fill="#000000" font-family="sans-serif" font-size="14" lengthAdjust="spacing" textLength="77" x="330.5" y="718.7285">SimpleTopic</text><line style="stroke:#181818;stroke-width:0.5;" x1="302.5" x2="409.5" y1="729" y2="729"/><line style="stroke:#181818;stroke-width:0.5;" x1="302.5" x2="409.5" y1="737" y2="737"/></g><!--class Concept--><g id="elem_Concept"><rect fill="#F1F1F1" height="48" id="Concept" rx="2.5" ry="2.5" style="stroke:#181818;stroke-width:0.5;" width="85" x="385.5" y="876"/><ellipse cx="400.5" cy="892" fill="#ADD1B2" rx="11" ry="11" style="stroke:#181818;stroke-width:1.0;"/><path d="M403.2656,887.875 Q403.4219,887.6563 403.6094,887.5469 Q403.7969,887.4375 404.0156,887.4375 Q404.3906,887.4375 404.625,887.7031 Q404.8594,887.9531 404.8594,888.5625 L404.8594,890.0156 Q404.8594,890.625 404.625,890.8906 Q404.3906,891.1563 404.0156,891.1563 Q403.6719,891.1563 403.4688,890.9531 Q403.2656,890.7656 403.1563,890.25 Q403.1094,889.8906 402.9219,889.7031 Q402.5938,889.3281 401.9844,889.1094 Q401.375,888.8906 400.75,888.8906 Q399.9844,888.8906 399.3438,889.2188 Q398.7188,889.5469 398.2188,890.2969 Q397.7344,891.0469 397.7344,892.0781 L397.7344,893.1719 Q397.7344,894.4063 398.625,895.2344 Q399.5156,896.0469 401.1094,896.0469 Q402.0469,896.0469 402.7031,895.7969 Q403.0938,895.6406 403.5156,895.2031 Q403.7813,894.9375 403.9219,894.8594 Q404.0781,894.7813 404.2813,894.7813 Q404.6094,894.7813 404.8594,895.0469 Q405.125,895.2969 405.125,895.6406 Q405.125,895.9844 404.7813,896.3906 Q404.2813,896.9688 403.4844,897.2969 Q402.4063,897.75 401.1094,897.75 Q399.5938,897.75 398.3906,897.125 Q397.4063,896.625 396.7188,895.5625 Q396.0313,894.4844 396.0313,893.2031 L396.0313,892.0469 Q396.0313,890.7188 396.6406,889.5781 Q397.2656,888.4219 398.3594,887.8125 Q399.4531,887.1875 400.6875,887.1875 Q401.4219,887.1875 402.0625,887.3594 Q402.7188,887.5156 403.2656,887.875 Z " fill="#000000"/><text fill="#000000" font-family="sans-serif" font-size="14" lengthAdjust="spacing" textLength="53" x="414.5" y="897.7285">Concept</text><line style="stroke:#181818;stroke-width:0.5;" x1="386.5" x2="469.5" y1="908" y2="908"/><line style="stroke:#181818;stroke-width:0.5;" x1="386.5" x2="469.5" y1="916" y2="916"/></g><!--class Document--><g id="elem_Document"><rect fill="#F1F1F1" height="48" id="Document" rx="2.5" ry="2.5" style="stroke:#181818;stroke-width:0.5;" width="96" x="131" y="876"/><ellipse cx="146" cy="892" fill="#ADD1B2" rx="11" ry="11" style="stroke:#181818;stroke-width:1.0;"/><path d="M148.7656,887.875 Q148.9219,887.6563 149.1094,887.5469 Q149.2969,887.4375 149.5156,887.4375 Q149.8906,887.4375 150.125,887.7031 Q150.3594,887.9531 150.3594,888.5625 L150.3594,890.0156 Q150.3594,890.625 150.125,890.8906 Q149.8906,891.1563 149.5156,891.1563 Q149.1719,891.1563 148.9688,890.9531 Q148.7656,890.7656 148.6563,890.25 Q148.6094,889.8906 148.4219,889.7031 Q148.0938,889.3281 147.4844,889.1094 Q146.875,888.8906 146.25,888.8906 Q145.4844,888.8906 144.8438,889.2188 Q144.2188,889.5469 143.7188,890.2969 Q143.2344,891.0469 143.2344,892.0781 L143.2344,893.1719 Q143.2344,894.4063 144.125,895.2344 Q145.0156,896.0469 146.6094,896.0469 Q147.5469,896.0469 148.2031,895.7969 Q148.5938,895.6406 149.0156,895.2031 Q149.2813,894.9375 149.4219,894.8594 Q149.5781,894.7813 149.7813,894.7813 Q150.1094,894.7813 150.3594,895.0469 Q150.625,895.2969 150.625,895.6406 Q150.625,895.9844 150.2813,896.3906 Q149.7813,896.9688 148.9844,897.2969 Q147.9063,897.75 146.6094,897.75 Q145.0938,897.75 143.8906,897.125 Q142.9063,896.625 142.2188,895.5625 Q141.5313,894.4844 141.5313,893.2031 L141.5313,892.0469 Q141.5313,890.7188 142.1406,889.5781 Q142.7656,888.4219 143.8594,887.8125 Q144.9531,887.1875 146.1875,887.1875 Q146.9219,887.1875 147.5625,887.3594 Q148.2188,887.5156 148.7656,887.875 Z " fill="#000000"/><text fill="#000000" font-family="sans-serif" font-size="14" lengthAdjust="spacing" textLength="64" x="160" y="897.7285">Document</text><line style="stroke:#181818;stroke-width:0.5;" x1="132" x2="226" y1="908" y2="908"/><line style="stroke:#181818;stroke-width:0.5;" x1="132" x2="226" y1="916" y2="916"/></g><!--class Relation--><g id="elem_Relation"><rect fill="#F1F1F1" height="48" id="Relation" rx="2.5" ry="2.5" style="stroke:#181818;stroke-width:0.5;" width="84" x="517" y="697"/><ellipse cx="532" cy="713" fill="#ADD1B2" rx="11" ry="11" style="stroke:#181818;stroke-width:1.0;"/><path d="M534.7656,708.875 Q534.9219,708.6563 535.1094,708.5469 Q535.2969,708.4375 535.5156,708.4375 Q535.8906,708.4375 536.125,708.7031 Q536.3594,708.9531 536.3594,709.5625 L536.3594,711.0156 Q536.3594,711.625 536.125,711.8906 Q535.8906,712.1563 535.5156,712.1563 Q535.1719,712.1563 534.9688,711.9531 Q534.7656,711.7656 534.6563,711.25 Q534.6094,710.8906 534.4219,710.7031 Q534.0938,710.3281 533.4844,710.1094 Q532.875,709.8906 532.25,709.8906 Q531.4844,709.8906 530.8438,710.2188 Q530.2188,710.5469 529.7188,711.2969 Q529.2344,712.0469 529.2344,713.0781 L529.2344,714.1719 Q529.2344,715.4063 530.125,716.2344 Q531.0156,717.0469 532.6094,717.0469 Q533.5469,717.0469 534.2031,716.7969 Q534.5938,716.6406 535.0156,716.2031 Q535.2813,715.9375 535.4219,715.8594 Q535.5781,715.7813 535.7813,715.7813 Q536.1094,715.7813 536.3594,716.0469 Q536.625,716.2969 536.625,716.6406 Q536.625,716.9844 536.2813,717.3906 Q535.7813,717.9688 534.9844,718.2969 Q533.9063,718.75 532.6094,718.75 Q531.0938,718.75 529.8906,718.125 Q528.9063,717.625 528.2188,716.5625 Q527.5313,715.4844 527.5313,714.2031 L527.5313,713.0469 Q527.5313,711.7188 528.1406,710.5781 Q528.7656,709.4219 529.8594,708.8125 Q530.9531,708.1875 532.1875,708.1875 Q532.9219,708.1875 533.5625,708.3594 Q534.2188,708.5156 534.7656,708.875 Z " fill="#000000"/><text fill="#000000" font-family="sans-serif" font-size="14" lengthAdjust="spacing" textLength="52" x="546" y="718.7285">Relation</text><line style="stroke:#181818;stroke-width:0.5;" x1="518" x2="600" y1="729" y2="729"/><line style="stroke:#181818;stroke-width:0.5;" x1="518" x2="600" y1="737" y2="737"/></g><!--class VideoWithAudio--><g id="elem_VideoWithAudio"><rect fill="#F1F1F1" height="48" id="VideoWithAudio" rx="2.5" ry="2.5" style="stroke:#181818;stroke-width:0.5;" width="132" x="273" y="1081"/><ellipse cx="288" cy="1097" fill="#ADD1B2" rx="11" ry="11" style="stroke:#181818;stroke-width:1.0;"/><path d="M290.7656,1092.875 Q290.9219,1092.6563 291.1094,1092.5469 Q291.2969,1092.4375 291.5156,1092.4375 Q291.8906,1092.4375 292.125,1092.7031 Q292.3594,1092.9531 292.3594,1093.5625 L292.3594,1095.0156 Q292.3594,1095.625 292.125,1095.8906 Q291.8906,1096.1563 291.5156,1096.1563 Q291.1719,1096.1563 290.9688,1095.9531 Q290.7656,1095.7656 290.6563,1095.25 Q290.6094,1094.8906 290.4219,1094.7031 Q290.0938,1094.3281 289.4844,1094.1094 Q288.875,1093.8906 288.25,1093.8906 Q287.4844,1093.8906 286.8438,1094.2188 Q286.2188,1094.5469 285.7188,1095.2969 Q285.2344,1096.0469 285.2344,1097.0781 L285.2344,1098.1719 Q285.2344,1099.4063 286.125,1100.2344 Q287.0156,1101.0469 288.6094,1101.0469 Q289.5469,1101.0469 290.2031,1100.7969 Q290.5938,1100.6406 291.0156,1100.2031 Q291.2813,1099.9375 291.4219,1099.8594 Q291.5781,1099.7813 291.7813,1099.7813 Q292.1094,1099.7813 292.3594,1100.0469 Q292.625,1100.2969 292.625,1100.6406 Q292.625,1100.9844 292.2813,1101.3906 Q291.7813,1101.9688 290.9844,1102.2969 Q289.9063,1102.75 288.6094,1102.75 Q287.0938,1102.75 285.8906,1102.125 Q284.9063,1101.625 284.2188,1100.5625 Q283.5313,1099.4844 283.5313,1098.2031 L283.5313,1097.0469 Q283.5313,1095.7188 284.1406,1094.5781 Q284.7656,1093.4219 285.8594,1092.8125 Q286.9531,1092.1875 288.1875,1092.1875 Q288.9219,1092.1875 289.5625,1092.3594 Q290.2188,1092.5156 290.7656,1092.875 Z " fill="#000000"/><text fill="#000000" font-family="sans-serif" font-size="14" lengthAdjust="spacing" textLength="100" x="302" y="1102.7285">VideoWithAudio</text><line style="stroke:#181818;stroke-width:0.5;" x1="274" x2="404" y1="1113" y2="1113"/><line style="stroke:#181818;stroke-width:0.5;" x1="274" x2="404" y1="1121" y2="1121"/></g><!--class Definition--><g id="elem_Definition"><rect codeLine="76" fill="#F1F1F1" height="65.6094" id="Definition" rx="2.5" ry="2.5" style="stroke:#181818;stroke-width:0.5;" width="91" x="440.5" y="1072"/><ellipse cx="455.5" cy="1088" fill="#ADD1B2" rx="11" ry="11" style="stroke:#181818;stroke-width:1.0;"/><path d="M458.2656,1083.875 Q458.4219,1083.6563 458.6094,1083.5469 Q458.7969,1083.4375 459.0156,1083.4375 Q459.3906,1083.4375 459.625,1083.7031 Q459.8594,1083.9531 459.8594,1084.5625 L459.8594,1086.0156 Q459.8594,1086.625 459.625,1086.8906 Q459.3906,1087.1563 459.0156,1087.1563 Q458.6719,1087.1563 458.4688,1086.9531 Q458.2656,1086.7656 458.1563,1086.25 Q458.1094,1085.8906 457.9219,1085.7031 Q457.5938,1085.3281 456.9844,1085.1094 Q456.375,1084.8906 455.75,1084.8906 Q454.9844,1084.8906 454.3438,1085.2188 Q453.7188,1085.5469 453.2188,1086.2969 Q452.7344,1087.0469 452.7344,1088.0781 L452.7344,1089.1719 Q452.7344,1090.4063 453.625,1091.2344 Q454.5156,1092.0469 456.1094,1092.0469 Q457.0469,1092.0469 457.7031,1091.7969 Q458.0938,1091.6406 458.5156,1091.2031 Q458.7813,1090.9375 458.9219,1090.8594 Q459.0781,1090.7813 459.2813,1090.7813 Q459.6094,1090.7813 459.8594,1091.0469 Q460.125,1091.2969 460.125,1091.6406 Q460.125,1091.9844 459.7813,1092.3906 Q459.2813,1092.9688 458.4844,1093.2969 Q457.4063,1093.75 456.1094,1093.75 Q454.5938,1093.75 453.3906,1093.125 Q452.4063,1092.625 451.7188,1091.5625 Q451.0313,1090.4844 451.0313,1089.2031 L451.0313,1088.0469 Q451.0313,1086.7188 451.6406,1085.5781 Q452.2656,1084.4219 453.3594,1083.8125 Q454.4531,1083.1875 455.6875,1083.1875 Q456.4219,1083.1875 457.0625,1083.3594 Q457.7188,1083.5156 458.2656,1083.875 Z " fill="#000000"/><text fill="#000000" font-family="sans-serif" font-size="14" lengthAdjust="spacing" textLength="59" x="469.5" y="1093.7285">Definition</text><line style="stroke:#181818;stroke-width:0.5;" x1="441.5" x2="530.5" y1="1104" y2="1104"/><rect fill="none" height="6" style="stroke:#C82930;stroke-width:1.0;" width="6" x="448.5" y="1115.3047"/><text fill="#000000" font-family="sans-serif" font-size="14" lengthAdjust="spacing" textLength="57" x="460.5" y="1122.5332">isCorrect</text><line style="stroke:#181818;stroke-width:0.5;" x1="441.5" x2="530.5" y1="1129.6094" y2="1129.6094"/></g><!--class RelationType--><g id="elem_RelationType"><rect codeLine="68" fill="#F1F1F1" height="136.0469" id="RelationType" rx="2.5" ry="2.5" style="stroke:#181818;stroke-width:0.5;" width="116" x="506" y="832"/><ellipse cx="521" cy="848" fill="#EB937F" rx="11" ry="11" style="stroke:#181818;stroke-width:1.0;"/><path d="M519.8594,848.7969 L519.8594,851.2969 L524.1875,851.2969 L524.1875,850.375 Q524.1875,849.7656 524.4219,849.5 Q524.6719,849.2344 525.0469,849.2344 Q525.4219,849.2344 525.6563,849.5 Q525.8906,849.7656 525.8906,850.375 L525.8906,853 L517.8906,853 Q517.2656,853 517,852.7656 Q516.75,852.5313 516.75,852.1406 Q516.75,851.7656 517.0156,851.5313 Q517.2813,851.2969 517.8906,851.2969 L518.1563,851.2969 L518.1563,844.6406 L517.8906,844.6406 Q517.2656,844.6406 517,844.4063 Q516.75,844.1719 516.75,843.7813 Q516.75,843.4063 517,843.1719 Q517.2656,842.9375 517.8906,842.9375 L525.5156,842.9375 L525.5156,845.5313 Q525.5156,846.1406 525.2813,846.4063 Q525.0625,846.6563 524.6719,846.6563 Q524.2969,846.6563 524.0625,846.4063 Q523.8281,846.1406 523.8281,845.5313 L523.8281,844.6406 L519.8594,844.6406 L519.8594,847.0938 L521.3438,847.0938 Q521.3438,846.4375 521.4688,846.25 Q521.7344,845.8438 522.2031,845.8438 Q522.5781,845.8438 522.8125,846.1094 Q523.0469,846.3594 523.0469,846.9688 L523.0469,848.9375 Q523.0469,849.4844 522.9219,849.6719 Q522.6563,850.0625 522.2031,850.0625 Q521.7344,850.0625 521.4688,849.6563 Q521.3438,849.4688 521.3438,848.7969 L519.8594,848.7969 Z " fill="#000000"/><text fill="#000000" font-family="sans-serif" font-size="14" lengthAdjust="spacing" textLength="84" x="535" y="853.7285">RelationType</text><line style="stroke:#181818;stroke-width:0.5;" x1="507" x2="621" y1="864" y2="864"/><text fill="#000000" font-family="sans-serif" font-size="14" lengthAdjust="spacing" textLength="24" x="512" y="882.5332">Use</text><text fill="#000000" font-family="sans-serif" font-size="14" lengthAdjust="spacing" textLength="72" x="512" y="900.1426">Association</text><text fill="#000000" font-family="sans-serif" font-size="14" lengthAdjust="spacing" textLength="78" x="512" y="917.752">Composition</text><text fill="#000000" font-family="sans-serif" font-size="14" lengthAdjust="spacing" textLength="70" x="512" y="935.3613">Inheritance</text><text fill="#000000" font-family="sans-serif" font-size="14" lengthAdjust="spacing" textLength="77" x="512" y="952.9707">Aggregation</text><line style="stroke:#181818;stroke-width:0.5;" x1="507" x2="621" y1="960.0469" y2="960.0469"/></g><!--class Media--><g id="elem_Media"><rect codeLine="87" fill="#F1F1F1" height="48" id="Media" rx="2.5" ry="2.5" style="stroke:#181818;stroke-width:0.5;" width="71" x="143.5" y="1081"/><ellipse cx="158.5" cy="1097" fill="#A9DCDF" rx="11" ry="11" style="stroke:#181818;stroke-width:1.0;"/><path d="M160.6875,1098.7656 L156.5469,1098.7656 L156.125,1099.7969 L156.5469,1099.7969 Q157.1563,1099.7969 157.4219,1100.0313 Q157.6875,1100.2656 157.6875,1100.6563 Q157.6875,1101.0313 157.4219,1101.2656 Q157.1563,1101.5 156.5469,1101.5 L154.25,1101.5 Q153.6406,1101.5 153.3906,1101.2656 Q153.125,1101.0313 153.125,1100.6406 Q153.125,1100.2656 153.4063,1100.0313 Q153.6719,1099.7813 154.2969,1099.7969 L156.9688,1093.1406 L155.8594,1093.1406 Q155.25,1093.1406 154.9844,1092.9063 Q154.7188,1092.6719 154.7188,1092.2813 Q154.7188,1091.9063 154.9844,1091.6719 Q155.25,1091.4375 155.8594,1091.4375 L159.5313,1091.4375 L162.9219,1099.7969 Q163.5156,1099.7969 163.7031,1099.9375 Q164.0938,1100.2031 164.0938,1100.6563 Q164.0938,1101.0313 163.8281,1101.2656 Q163.5781,1101.5 162.9688,1101.5 L160.6719,1101.5 Q160.0625,1101.5 159.7969,1101.2656 Q159.5313,1101.0313 159.5313,1100.6406 Q159.5313,1100.2656 159.7969,1100.0313 Q160.0625,1099.7969 160.6719,1099.7969 L161.0938,1099.7969 L160.6875,1098.7656 Z M159.9688,1097.0625 L158.6094,1093.6875 L157.2344,1097.0625 L159.9688,1097.0625 Z " fill="#000000"/><text fill="#000000" font-family="sans-serif" font-size="14" font-style="italic" lengthAdjust="spacing" textLength="39" x="172.5" y="1102.7285">Media</text><line style="stroke:#181818;stroke-width:0.5;" x1="144.5" x2="213.5" y1="1113" y2="1113"/><line style="stroke:#181818;stroke-width:0.5;" x1="144.5" x2="213.5" y1="1121" y2="1121"/></g><!--class Audio--><g id="elem_Audio"><rect fill="#F1F1F1" height="48" id="Audio" rx="2.5" ry="2.5" style="stroke:#181818;stroke-width:0.5;" width="68" x="112" y="1242"/><ellipse cx="127" cy="1258" fill="#ADD1B2" rx="11" ry="11" style="stroke:#181818;stroke-width:1.0;"/><path d="M129.7656,1253.875 Q129.9219,1253.6563 130.1094,1253.5469 Q130.2969,1253.4375 130.5156,1253.4375 Q130.8906,1253.4375 131.125,1253.7031 Q131.3594,1253.9531 131.3594,1254.5625 L131.3594,1256.0156 Q131.3594,1256.625 131.125,1256.8906 Q130.8906,1257.1563 130.5156,1257.1563 Q130.1719,1257.1563 129.9688,1256.9531 Q129.7656,1256.7656 129.6563,1256.25 Q129.6094,1255.8906 129.4219,1255.7031 Q129.0938,1255.3281 128.4844,1255.1094 Q127.875,1254.8906 127.25,1254.8906 Q126.4844,1254.8906 125.8438,1255.2188 Q125.2188,1255.5469 124.7188,1256.2969 Q124.2344,1257.0469 124.2344,1258.0781 L124.2344,1259.1719 Q124.2344,1260.4063 125.125,1261.2344 Q126.0156,1262.0469 127.6094,1262.0469 Q128.5469,1262.0469 129.2031,1261.7969 Q129.5938,1261.6406 130.0156,1261.2031 Q130.2813,1260.9375 130.4219,1260.8594 Q130.5781,1260.7813 130.7813,1260.7813 Q131.1094,1260.7813 131.3594,1261.0469 Q131.625,1261.2969 131.625,1261.6406 Q131.625,1261.9844 131.2813,1262.3906 Q130.7813,1262.9688 129.9844,1263.2969 Q128.9063,1263.75 127.6094,1263.75 Q126.0938,1263.75 124.8906,1263.125 Q123.9063,1262.625 123.2188,1261.5625 Q122.5313,1260.4844 122.5313,1259.2031 L122.5313,1258.0469 Q122.5313,1256.7188 123.1406,1255.5781 Q123.7656,1254.4219 124.8594,1253.8125 Q125.9531,1253.1875 127.1875,1253.1875 Q127.9219,1253.1875 128.5625,1253.3594 Q129.2188,1253.5156 129.7656,1253.875 Z " fill="#000000"/><text fill="#000000" font-family="sans-serif" font-size="14" lengthAdjust="spacing" textLength="36" x="141" y="1263.7285">Audio</text><line style="stroke:#181818;stroke-width:0.5;" x1="113" x2="179" y1="1274" y2="1274"/><line style="stroke:#181818;stroke-width:0.5;" x1="113" x2="179" y1="1282" y2="1282"/></g><!--class Video--><g id="elem_Video"><rect fill="#F1F1F1" height="48" id="Video" rx="2.5" ry="2.5" style="stroke:#181818;stroke-width:0.5;" width="68" x="382" y="1242"/><ellipse cx="397" cy="1258" fill="#ADD1B2" rx="11" ry="11" style="stroke:#181818;stroke-width:1.0;"/><path d="M399.7656,1253.875 Q399.9219,1253.6563 400.1094,1253.5469 Q400.2969,1253.4375 400.5156,1253.4375 Q400.8906,1253.4375 401.125,1253.7031 Q401.3594,1253.9531 401.3594,1254.5625 L401.3594,1256.0156 Q401.3594,1256.625 401.125,1256.8906 Q400.8906,1257.1563 400.5156,1257.1563 Q400.1719,1257.1563 399.9688,1256.9531 Q399.7656,1256.7656 399.6563,1256.25 Q399.6094,1255.8906 399.4219,1255.7031 Q399.0938,1255.3281 398.4844,1255.1094 Q397.875,1254.8906 397.25,1254.8906 Q396.4844,1254.8906 395.8438,1255.2188 Q395.2188,1255.5469 394.7188,1256.2969 Q394.2344,1257.0469 394.2344,1258.0781 L394.2344,1259.1719 Q394.2344,1260.4063 395.125,1261.2344 Q396.0156,1262.0469 397.6094,1262.0469 Q398.5469,1262.0469 399.2031,1261.7969 Q399.5938,1261.6406 400.0156,1261.2031 Q400.2813,1260.9375 400.4219,1260.8594 Q400.5781,1260.7813 400.7813,1260.7813 Q401.1094,1260.7813 401.3594,1261.0469 Q401.625,1261.2969 401.625,1261.6406 Q401.625,1261.9844 401.2813,1262.3906 Q400.7813,1262.9688 399.9844,1263.2969 Q398.9063,1263.75 397.6094,1263.75 Q396.0938,1263.75 394.8906,1263.125 Q393.9063,1262.625 393.2188,1261.5625 Q392.5313,1260.4844 392.5313,1259.2031 L392.5313,1258.0469 Q392.5313,1256.7188 393.1406,1255.5781 Q393.7656,1254.4219 394.8594,1253.8125 Q395.9531,1253.1875 397.1875,1253.1875 Q397.9219,1253.1875 398.5625,1253.3594 Q399.2188,1253.5156 399.7656,1253.875 Z " fill="#000000"/><text fill="#000000" font-family="sans-serif" font-size="14" lengthAdjust="spacing" textLength="36" x="411" y="1263.7285">Video</text><line style="stroke:#181818;stroke-width:0.5;" x1="383" x2="449" y1="1274" y2="1274"/><line style="stroke:#181818;stroke-width:0.5;" x1="383" x2="449" y1="1282" y2="1282"/></g><!--class Image--><g id="elem_Image"><rect fill="#F1F1F1" height="48" id="Image" rx="2.5" ry="2.5" style="stroke:#181818;stroke-width:0.5;" width="70" x="7" y="1242"/><ellipse cx="22" cy="1258" fill="#ADD1B2" rx="11" ry="11" style="stroke:#181818;stroke-width:1.0;"/><path d="M24.7656,1253.875 Q24.9219,1253.6563 25.1094,1253.5469 Q25.2969,1253.4375 25.5156,1253.4375 Q25.8906,1253.4375 26.125,1253.7031 Q26.3594,1253.9531 26.3594,1254.5625 L26.3594,1256.0156 Q26.3594,1256.625 26.125,1256.8906 Q25.8906,1257.1563 25.5156,1257.1563 Q25.1719,1257.1563 24.9688,1256.9531 Q24.7656,1256.7656 24.6563,1256.25 Q24.6094,1255.8906 24.4219,1255.7031 Q24.0938,1255.3281 23.4844,1255.1094 Q22.875,1254.8906 22.25,1254.8906 Q21.4844,1254.8906 20.8438,1255.2188 Q20.2188,1255.5469 19.7188,1256.2969 Q19.2344,1257.0469 19.2344,1258.0781 L19.2344,1259.1719 Q19.2344,1260.4063 20.125,1261.2344 Q21.0156,1262.0469 22.6094,1262.0469 Q23.5469,1262.0469 24.2031,1261.7969 Q24.5938,1261.6406 25.0156,1261.2031 Q25.2813,1260.9375 25.4219,1260.8594 Q25.5781,1260.7813 25.7813,1260.7813 Q26.1094,1260.7813 26.3594,1261.0469 Q26.625,1261.2969 26.625,1261.6406 Q26.625,1261.9844 26.2813,1262.3906 Q25.7813,1262.9688 24.9844,1263.2969 Q23.9063,1263.75 22.6094,1263.75 Q21.0938,1263.75 19.8906,1263.125 Q18.9063,1262.625 18.2188,1261.5625 Q17.5313,1260.4844 17.5313,1259.2031 L17.5313,1258.0469 Q17.5313,1256.7188 18.1406,1255.5781 Q18.7656,1254.4219 19.8594,1253.8125 Q20.9531,1253.1875 22.1875,1253.1875 Q22.9219,1253.1875 23.5625,1253.3594 Q24.2188,1253.5156 24.7656,1253.875 Z " fill="#000000"/><text fill="#000000" font-family="sans-serif" font-size="14" lengthAdjust="spacing" textLength="38" x="36" y="1263.7285">Image</text><line style="stroke:#181818;stroke-width:0.5;" x1="8" x2="76" y1="1274" y2="1274"/><line style="stroke:#181818;stroke-width:0.5;" x1="8" x2="76" y1="1282" y2="1282"/></g><!--class Text--><g id="elem_Text"><rect fill="#F1F1F1" height="48" id="Text" rx="2.5" ry="2.5" style="stroke:#181818;stroke-width:0.5;" width="59" x="287.5" y="1242"/><ellipse cx="302.5" cy="1258" fill="#ADD1B2" rx="11" ry="11" style="stroke:#181818;stroke-width:1.0;"/><path d="M305.2656,1253.875 Q305.4219,1253.6563 305.6094,1253.5469 Q305.7969,1253.4375 306.0156,1253.4375 Q306.3906,1253.4375 306.625,1253.7031 Q306.8594,1253.9531 306.8594,1254.5625 L306.8594,1256.0156 Q306.8594,1256.625 306.625,1256.8906 Q306.3906,1257.1563 306.0156,1257.1563 Q305.6719,1257.1563 305.4688,1256.9531 Q305.2656,1256.7656 305.1563,1256.25 Q305.1094,1255.8906 304.9219,1255.7031 Q304.5938,1255.3281 303.9844,1255.1094 Q303.375,1254.8906 302.75,1254.8906 Q301.9844,1254.8906 301.3438,1255.2188 Q300.7188,1255.5469 300.2188,1256.2969 Q299.7344,1257.0469 299.7344,1258.0781 L299.7344,1259.1719 Q299.7344,1260.4063 300.625,1261.2344 Q301.5156,1262.0469 303.1094,1262.0469 Q304.0469,1262.0469 304.7031,1261.7969 Q305.0938,1261.6406 305.5156,1261.2031 Q305.7813,1260.9375 305.9219,1260.8594 Q306.0781,1260.7813 306.2813,1260.7813 Q306.6094,1260.7813 306.8594,1261.0469 Q307.125,1261.2969 307.125,1261.6406 Q307.125,1261.9844 306.7813,1262.3906 Q306.2813,1262.9688 305.4844,1263.2969 Q304.4063,1263.75 303.1094,1263.75 Q301.5938,1263.75 300.3906,1263.125 Q299.4063,1262.625 298.7188,1261.5625 Q298.0313,1260.4844 298.0313,1259.2031 L298.0313,1258.0469 Q298.0313,1256.7188 298.6406,1255.5781 Q299.2656,1254.4219 300.3594,1253.8125 Q301.4531,1253.1875 302.6875,1253.1875 Q303.4219,1253.1875 304.0625,1253.3594 Q304.7188,1253.5156 305.2656,1253.875 Z " fill="#000000"/><text fill="#000000" font-family="sans-serif" font-size="14" lengthAdjust="spacing" textLength="27" x="316.5" y="1263.7285">Text</text><line style="stroke:#181818;stroke-width:0.5;" x1="288.5" x2="345.5" y1="1274" y2="1274"/><line style="stroke:#181818;stroke-width:0.5;" x1="288.5" x2="345.5" y1="1282" y2="1282"/></g><!--link Itinerary to Topic--><g id="link_Itinerary_Topic"><path codeLine="6" d="M495.2629,460.3749 C489.7729,469.7849 490.24,469.9 486,480 C479.59,495.28 475.9349,507.1441 472.2749,522.0041 " fill="none" id="Itinerary-Topic" style="stroke:#181818;stroke-width:1.0;"/><polygon fill="none" points="501.31,450.01,494.8314,453.1768,495.2629,460.3749,501.7414,457.2082,501.31,450.01" style="stroke:#181818;stroke-width:1.0;"/><polygon fill="#181818" points="470.84,527.83,476.8763,520.0478,472.0358,522.9751,469.1084,518.1346,470.84,527.83" style="stroke:#181818;stroke-width:1.0;"/><text fill="#000000" font-family="sans-serif" font-size="13" lengthAdjust="spacing" textLength="8" x="463.4258" y="516.9103">+</text></g><!--link Itinerary to Topic--><g id="link_Itinerary_Topic"><path codeLine="7" d="M504.3035,461.3295 C494.8135,484.5695 488.8587,499.1455 479.3787,522.3555 " fill="none" id="Itinerary-Topic-1" style="stroke:#181818;stroke-width:1.0;"/><polygon fill="#181818" points="508.84,450.22,502.8686,454.2626,504.3035,461.3295,510.2749,457.2869,508.84,450.22" style="stroke:#181818;stroke-width:1.0;"/><polygon fill="#181818" points="477.11,527.91,484.2161,521.0907,479.0006,523.2812,476.8101,518.0657,477.11,527.91" style="stroke:#181818;stroke-width:1.0;"/><text fill="#000000" font-family="sans-serif" font-size="13" lengthAdjust="spacing" textLength="116" x="498" y="494.4951">[!itinerary.isCustom]</text></g><!--link EducationPlatform to Teacher--><g id="link_EducationPlatform_Teacher"><path codeLine="10" d="M764,67.22 C764,85.16 764,91.89 764,109.83 " fill="none" id="EducationPlatform-Teacher" style="stroke:#181818;stroke-width:1.0;"/><polygon fill="#181818" points="764,55.22,760,61.22,764,67.22,768,61.22,764,55.22" style="stroke:#181818;stroke-width:1.0;"/><polygon fill="#181818" points="764,115.83,768,106.83,764,110.83,760,106.83,764,115.83" style="stroke:#181818;stroke-width:1.0;"/><text fill="#000000" font-family="sans-serif" font-size="13" lengthAdjust="spacing" textLength="8" x="754.975" y="105.1266">+</text></g><!--link EducationPlatform to Student--><g id="link_EducationPlatform_Student"><path codeLine="11" d="M827.4124,59.926 C872.3324,79.706 919.6586,100.5425 960.8186,118.6625 " fill="none" id="EducationPlatform-Student" style="stroke:#181818;stroke-width:1.0;"/><polygon fill="#181818" points="816.43,55.09,820.3092,61.1688,827.4124,59.926,823.5332,53.8472,816.43,55.09" style="stroke:#181818;stroke-width:1.0;"/><polygon fill="#181818" points="966.31,121.08,959.6845,113.7928,961.7338,119.0654,956.4612,121.1147,966.31,121.08" style="stroke:#181818;stroke-width:1.0;"/><text fill="#000000" font-family="sans-serif" font-size="13" lengthAdjust="spacing" textLength="5" x="953.6168" y="113.8113">*</text></g><!--link EducationPlatform to Topic--><g id="link_EducationPlatform_Topic"><path codeLine="12" d="M678.3934,37.9792 C564.3634,47.6992 370,73.35 370,139 C370,139 370,139 370,418 C370,463.09 399.0715,500.6537 426.0415,527.0437 " fill="none" id="EducationPlatform-Topic" style="stroke:#181818;stroke-width:1.0;"/><polygon fill="#181818" points="690.35,36.96,684.0319,33.484,678.3934,37.9792,684.7114,41.4551,690.35,36.96" style="stroke:#181818;stroke-width:1.0;"/><polygon fill="#181818" points="430.33,531.24,426.6948,522.0866,426.7562,527.7431,421.0997,527.8046,430.33,531.24" style="stroke:#181818;stroke-width:1.0;"/><text fill="#000000" font-family="sans-serif" font-size="13" lengthAdjust="spacing" textLength="8" x="414.5606" y="521.0237">+</text></g><!--link EducationPlatform to Itinerary--><g id="link_EducationPlatform_Itinerary"><path codeLine="13" d="M678.6833,47.4909 C599.7133,65.5909 489.86,104.35 434,194 C395.08,256.46 448.5087,334.4973 487.3387,379.2673 " fill="none" id="EducationPlatform-Itinerary" style="stroke:#181818;stroke-width:1.0;"/><polygon fill="#181818" points="690.38,44.81,683.638,42.2515,678.6833,47.4909,685.4253,50.0493,690.38,44.81" style="stroke:#181818;stroke-width:1.0;"/><polygon fill="#181818" points="491.27,383.8,488.3949,374.3802,487.9939,380.0228,482.3513,379.6219,491.27,383.8" style="stroke:#181818;stroke-width:1.0;"/><text fill="#000000" font-family="sans-serif" font-size="13" lengthAdjust="spacing" textLength="257" x="435" y="208.4951">[itineraries-&gt;select(i | !i.isCustom)-&gt;size()=1]</text><text fill="#000000" font-family="sans-serif" font-size="13" lengthAdjust="spacing" textLength="8" x="476.4325" y="373.2569">+</text></g><!--link EducationPlatform to Chat--><g id="link_EducationPlatform_Chat"><path codeLine="14" d="M849.4554,45.2995 C928.4854,58.9295 1034.95,82.28 1065,116 C1112.59,169.39 1104.4538,256.5997 1096.8938,299.8197 " fill="none" id="EducationPlatform-Chat" style="stroke:#181818;stroke-width:1.0;"/><polygon fill="#181818" points="837.63,43.26,842.8629,48.2215,849.4554,45.2995,844.2225,40.3379,837.63,43.26" style="stroke:#181818;stroke-width:1.0;"/><polygon fill="#181818" points="1095.86,305.73,1101.3509,297.5538,1096.7215,300.8048,1093.4706,296.1754,1095.86,305.73" style="stroke:#181818;stroke-width:1.0;"/></g><!--reverse link Exercise to Domain--><g id="link_Exercise_Domain"><path codeLine="19" d="M771,766.05 C771,801.22 771,844.79 771,875.92 " fill="none" id="Exercise-backto-Domain" style="stroke:#181818;stroke-width:1.0;"/><polygon fill="#181818" points="771,754.05,767,760.05,771,766.05,775,760.05,771,754.05" style="stroke:#181818;stroke-width:1.0;"/></g><!--reverse link Domain to Answer--><g id="link_Domain_Answer"><path codeLine="21" d="M771.1696,936.2899 C771.3496,972.5299 771.64,1030.53 771.84,1071.65 " fill="none" id="Domain-backto-Answer" style="stroke:#181818;stroke-width:1.0;"/><polygon fill="#181818" points="771.11,924.29,767.1399,930.3098,771.1696,936.2899,775.1398,930.2701,771.11,924.29" style="stroke:#181818;stroke-width:1.0;"/><text fill="#000000" font-family="sans-serif" font-size="13" lengthAdjust="spacing" textLength="8" x="763.021" y="1061.0774">+</text></g><!--reverse link Domain to StatementType--><g id="link_Domain_StatementType"><path codeLine="22" d="M749.2632,934.0675 C733.8832,957.3875 715.89,984.39 694,1016 C687.26,1025.73 680.02,1036 672.94,1045.96 " fill="none" id="Domain-backto-StatementType" style="stroke:#181818;stroke-width:1.0;"/><polygon fill="#181818" points="755.87,924.05,749.2274,926.8565,749.2632,934.0675,755.9058,931.261,755.87,924.05" style="stroke:#181818;stroke-width:1.0;"/></g><!--reverse link Answer to Justification--><g id="link_Answer_Justification"><path codeLine="34" d="M731.6713,1146.4213 C722.9613,1154.9813 721.99,1155.74 713,1164 C697.91,1177.86 693.44,1180.53 678,1194 C659.81,1209.87 639.46,1227.93 623.84,1241.86 " fill="none" id="Answer-backto-Justification" style="stroke:#181818;stroke-width:1.0;"/><polygon fill="none" points="740.23,1138.01,733.1469,1139.3627,731.6713,1146.4213,738.7544,1145.0685,740.23,1138.01" style="stroke:#181818;stroke-width:1.0;"/><text fill="#000000" font-family="sans-serif" font-size="13" lengthAdjust="spacing" textLength="108" x="679" y="1208.4951">[!answer.isCorrect]</text><text fill="#000000" font-family="sans-serif" font-size="13" lengthAdjust="spacing" textLength="22" x="605.6428" y="1231.1643">0..1</text></g><!--reverse link Answer to Application--><g id="link_Answer_Application"><path codeLine="35" d="M794.2812,1154.2589 C806.0112,1177.5689 816.59,1192.25 841,1212 C866.34,1232.5 900.5,1245.7 928.49,1253.81 " fill="none" id="Answer-backto-Application" style="stroke:#181818;stroke-width:1.0;"/><polygon fill="none" points="786.19,1138.18,788.9216,1156.956,799.6409,1151.5619,786.19,1138.18" style="stroke:#181818;stroke-width:1.0;"/></g><!--link Teacher to Application--><g id="link_Teacher_Application"><path codeLine="37" d="M788.43,164.07 C808.97,186.05 835,221.17 835,258 C835,258 835,258 835,562 C835,665.21 867,688.79 867,792 C867,792 867,792 867,1106 C867,1162.89 910.944,1209.8993 944.114,1238.0293 " fill="none" id="Teacher-to-Application" style="stroke:#181818;stroke-width:1.0;stroke-dasharray:7.0,7.0;"/><polygon fill="#181818" points="948.69,1241.91,944.4131,1233.0382,944.8766,1238.6761,939.2388,1239.1396,948.69,1241.91" style="stroke:#181818;stroke-width:1.0;"/><text fill="#000000" font-family="sans-serif" font-size="13" lengthAdjust="spacing" textLength="35" x="914.5" y="638.4951">review</text><text fill="#000000" font-family="sans-serif" font-size="13" lengthAdjust="spacing" textLength="170" x="851" y="654.8467">[application.isCorrect == null]</text></g><!--link Teacher to Topic--><g id="link_Teacher_Topic"><path codeLine="38" d="M762.57,164.01 C760.34,191.33 754.88,237.99 742,276 C706.06,382.02 706.77,423.74 623,498 C586.97,529.94 538.4791,545.0173 503.5791,552.7173 " fill="none" id="Teacher-to-Topic" style="stroke:#181818;stroke-width:1.0;stroke-dasharray:7.0,7.0;"/><polygon fill="#181818" points="497.72,554.01,507.3704,555.977,502.6026,552.9328,505.6468,548.1649,497.72,554.01" style="stroke:#181818;stroke-width:1.0;"/><text fill="#000000" font-family="sans-serif" font-size="13" lengthAdjust="spacing" textLength="21" x="732" y="335.4951">edit</text></g><!--link Teacher to Itinerary--><g id="link_Teacher_Itinerary"><path codeLine="39" d="M748.15,164.17 C736.61,179.53 719.77,199.16 701,212 C669.31,233.67 649.21,217.08 620,242 C574.9,280.48 548.3597,339.5473 534.3597,378.2773 " fill="none" id="Teacher-to-Itinerary" style="stroke:#181818;stroke-width:1.0;stroke-dasharray:7.0,7.0;"/><polygon fill="#181818" points="532.32,383.92,539.1413,376.8158,534.0197,379.2178,531.6178,374.0962,532.32,383.92" style="stroke:#181818;stroke-width:1.0;"/><text fill="#000000" font-family="sans-serif" font-size="13" lengthAdjust="spacing" textLength="21" x="666.5" y="256.4951">edit</text><text fill="#000000" font-family="sans-serif" font-size="13" lengthAdjust="spacing" textLength="116" x="621" y="272.8467">[!itinerary.isCustom]</text></g><!--reverse link Chat to Exercise--><g id="link_Chat_Exercise"><path codeLine="41" d="M1072.4954,364.8584 C1067.8454,373.9284 1068.39,373.89 1065,384 C1025.56,501.6 1097,567.67 1012,658 C985.13,686.55 875.22,705.78 813.52,714.56 " fill="none" id="Chat-backto-Exercise" style="stroke:#181818;stroke-width:1.0;"/><polygon fill="none" points="1077.97,354.18,1071.6732,357.6943,1072.4954,364.8584,1078.7922,361.3441,1077.97,354.18" style="stroke:#181818;stroke-width:1.0;"/><text fill="#000000" font-family="sans-serif" font-size="13" lengthAdjust="spacing" textLength="8" x="821.5156" y="709.637">+</text></g><!--link Chat to Application--><g id="link_Chat_Application"><path codeLine="42" d="M1089.04,354.06 C1082.22,434.87 1060,705.07 1060,792 C1060,792 1060,792 1060,1106 C1060,1159.13 1027.4443,1207.782 1003.4443,1237.182 " fill="none" id="Chat-to-Application" style="stroke:#181818;stroke-width:1.0;stroke-dasharray:7.0,7.0;"/><polygon fill="#181818" points="999.65,1241.83,1008.44,1237.3876,1002.8119,1237.9567,1002.2427,1232.3285,999.65,1241.83" style="stroke:#181818;stroke-width:1.0;"/><text fill="#000000" font-family="sans-serif" font-size="13" lengthAdjust="spacing" textLength="47" x="1064" y="726.4951">contrast</text></g><!--link Student to Itinerary--><g id="link_Student_Itinerary"><path codeLine="44" d="M991.06,164.15 C959.25,208.44 883.33,305.11 795,354 C720.58,395.19 626.3195,408.5445 570.3295,413.1845 " fill="none" id="Student-to-Itinerary" style="stroke:#181818;stroke-width:1.0;stroke-dasharray:7.0,7.0;"/><polygon fill="#181818" points="564.35,413.68,573.6496,416.923,569.3329,413.2671,572.9889,408.9504,564.35,413.68" style="stroke:#181818;stroke-width:1.0;"/><text fill="#000000" font-family="sans-serif" font-size="13" lengthAdjust="spacing" textLength="21" x="970" y="256.4951">edit</text><text fill="#000000" font-family="sans-serif" font-size="13" lengthAdjust="spacing" textLength="113" x="926" y="272.8467">[itinerary.isCustom]</text></g><!--link Student to Application--><g id="link_Student_Application"><path codeLine="45" d="M1058.2492,167.7963 C1104.1792,192.9063 1162,229.34 1162,258 C1162,258 1162,258 1162,1106 C1162,1176.29 1089.6175,1220.1265 1035.4775,1243.7965 " fill="none" id="Student-Application" style="stroke:#181818;stroke-width:1.0;"/><polygon fill="none" points="1047.72,162.04,1051.0658,168.4279,1058.2492,167.7963,1054.9034,161.4084,1047.72,162.04" style="stroke:#181818;stroke-width:1.0;"/><polygon fill="#181818" points="1029.98,1246.2,1039.8287,1246.2597,1034.5613,1244.1971,1036.624,1238.9297,1029.98,1246.2" style="stroke:#181818;stroke-width:1.0;"/><text fill="#000000" font-family="sans-serif" font-size="13" lengthAdjust="spacing" textLength="14" x="1163" y="646.4951">do</text><text fill="#000000" font-family="sans-serif" font-size="13" lengthAdjust="spacing" textLength="8" x="1037.3679" y="1239.9831">+</text></g><!--link Student to Chat--><g id="link_Student_Chat"><path codeLine="46" d="M1017.3,164.05 C1033.42,200.13 1061.9917,264.0823 1078.1717,300.2823 " fill="none" id="Student-to-Chat" style="stroke:#181818;stroke-width:1.0;stroke-dasharray:7.0,7.0;"/><polygon fill="#181818" points="1080.62,305.76,1080.5993,295.9112,1078.5797,301.1952,1073.2957,299.1756,1080.62,305.76" style="stroke:#181818;stroke-width:1.0;"/><text fill="#000000" font-family="sans-serif" font-size="13" lengthAdjust="spacing" textLength="21" x="1039" y="208.4951">ask</text></g><!--reverse link Topic to CompositeTopic--><g id="link_Topic_CompositeTopic"><path codeLine="51" d="M414.5198,585.7082 C361.9598,613.5182 278.49,664.07 228.52,696.83 " fill="none" id="Topic-backto-CompositeTopic" style="stroke:#181818;stroke-width:1.0;stroke-dasharray:7.0,7.0;"/><polygon fill="none" points="430.43,577.29,411.7138,580.4048,417.3259,591.0116,430.43,577.29" style="stroke:#181818;stroke-width:1.0;"/></g><!--link CompositeTopic to Topic--><g id="link_CompositeTopic_Topic"><path codeLine="59" d="M258.4203,691.0239 C311.5803,662.0939 378.8335,621.8163 425.2735,591.5463 " fill="none" id="CompositeTopic-Topic" style="stroke:#181818;stroke-width:1.0;"/><polygon fill="none" points="247.88,696.76,255.0622,697.4054,258.4203,691.0239,251.2381,690.3785,247.88,696.76" style="stroke:#181818;stroke-width:1.0;"/><polygon fill="#181818" points="430.3,588.27,420.576,589.8335,426.1112,591.0003,424.9445,596.5355,430.3,588.27" style="stroke:#181818;stroke-width:1.0;"/><text fill="#000000" font-family="sans-serif" font-size="13" lengthAdjust="spacing" textLength="8" x="414.5244" y="589.8161">+</text></g><!--reverse link Topic to SimpleTopic--><g id="link_Topic_SimpleTopic"><path codeLine="52" d="M431.7263,609.2128 C410.8763,639.7328 390.28,669.85 371.79,696.9 " fill="none" id="Topic-backto-SimpleTopic" style="stroke:#181818;stroke-width:1.0;stroke-dasharray:7.0,7.0;"/><polygon fill="none" points="441.88,594.35,426.7721,605.8283,436.6806,612.5974,441.88,594.35" style="stroke:#181818;stroke-width:1.0;"/></g><!--link Topic to Concept--><g id="link_Topic_Concept"><path codeLine="53" d="M459.3058,605.9422 C452.0958,673.4622 437.3774,811.214 431.0974,869.994 " fill="none" id="Topic-Concept" style="stroke:#181818;stroke-width:1.0;"/><polygon fill="none" points="460.58,594.01,455.9655,599.5514,459.3058,605.9422,463.9203,600.4008,460.58,594.01" style="stroke:#181818;stroke-width:1.0;"/><polygon fill="#181818" points="430.46,875.96,435.3935,867.4359,430.9912,870.9883,427.4387,866.586,430.46,875.96" style="stroke:#181818;stroke-width:1.0;"/><text fill="#000000" font-family="sans-serif" font-size="13" lengthAdjust="spacing" textLength="5" x="425.4498" y="865.2899">*</text></g><!--link Topic to Document--><g id="link_Topic_Document"><path codeLine="54" d="M418.3987,562.787 C345.9787,565.547 187.81,582.99 114,688 C72.23,747.43 124.2587,829.7366 156.0087,870.9566 " fill="none" id="Topic-Document" style="stroke:#181818;stroke-width:1.0;"/><polygon fill="#181818" points="430.39,562.33,424.242,558.5614,418.3987,562.787,424.5467,566.5556,430.39,562.33" style="stroke:#181818;stroke-width:1.0;"/><polygon fill="#181818" points="159.67,875.71,157.3469,866.139,156.6189,871.7488,151.0091,871.0208,159.67,875.71" style="stroke:#181818;stroke-width:1.0;"/></g><!--link Topic to Relation--><g id="link_Topic_Relation"><path codeLine="55" d="M489.6334,604.6343 C507.9834,635.1543 525.7588,664.7076 542.0188,691.7576 " fill="none" id="Topic-Relation" style="stroke:#181818;stroke-width:1.0;"/><polygon fill="#181818" points="483.45,594.35,483.1136,601.5533,489.6334,604.6343,489.9698,597.431,483.45,594.35" style="stroke:#181818;stroke-width:1.0;"/><polygon fill="#181818" points="545.11,696.9,543.9015,687.1256,542.534,692.6146,537.045,691.2471,545.11,696.9" style="stroke:#181818;stroke-width:1.0;"/><text fill="#000000" font-family="sans-serif" font-size="13" lengthAdjust="spacing" textLength="5" x="535.9101" y="686.2145">*</text></g><!--link Topic to VideoWithAudio--><g id="link_Topic_VideoWithAudio"><path codeLine="56" d="M508.2267,585.3224 C544.6167,605.9724 590.66,638.09 619,688 C691.38,815.44 749.7,905.87 653,1016 C618.99,1054.73 471.11,1027.5 423,1046 C401.99,1054.08 385.8539,1064.6853 370.1939,1077.0853 " fill="none" id="Topic-VideoWithAudio" style="stroke:#181818;stroke-width:1.0;"/><polygon fill="none" points="497.79,579.4,501.0342,585.8401,508.2267,585.3224,504.9825,578.8823,497.79,579.4" style="stroke:#181818;stroke-width:1.0;"/><polygon fill="#181818" points="365.49,1080.81,375.029,1078.3589,369.4099,1077.7061,370.0627,1072.087,365.49,1080.81" style="stroke:#181818;stroke-width:1.0;"/><text fill="#000000" font-family="sans-serif" font-size="13" lengthAdjust="spacing" textLength="8" x="363.2531" y="1070.1015">+</text></g><!--link Topic to Exercise--><g id="link_Topic_Exercise"><path codeLine="57" d="M509.4998,564.7317 C558.2298,568.7317 637.74,580.88 701,624 C724.52,640.03 740.0479,661.4678 752.1079,682.6178 " fill="none" id="Topic-Exercise" style="stroke:#181818;stroke-width:1.0;"/><polygon fill="none" points="497.54,563.75,503.1926,568.2275,509.4998,564.7317,503.8471,560.2543,497.54,563.75" style="stroke:#181818;stroke-width:1.0;"/><polygon fill="#181818" points="755.08,687.83,754.0967,678.0304,752.6033,683.4865,747.1471,681.9931,755.08,687.83" style="stroke:#181818;stroke-width:1.0;"/><text fill="#000000" font-family="sans-serif" font-size="13" lengthAdjust="spacing" textLength="8" x="742.9715" y="676.9103">+</text></g><!--link Concept to Definition--><g id="link_Concept_Definition"><path codeLine="61" d="M437.9483,935.8278 C448.3083,972.0678 463.3615,1024.7609 475.1115,1065.8809 " fill="none" id="Concept-Definition" style="stroke:#181818;stroke-width:1.0;"/><polygon fill="#181818" points="434.65,924.29,432.4532,931.1583,437.9483,935.8278,440.1451,928.9595,434.65,924.29" style="stroke:#181818;stroke-width:1.0;"/><polygon fill="#181818" points="476.76,1071.65,478.1333,1061.8974,475.3862,1066.8424,470.4412,1064.0954,476.76,1071.65" style="stroke:#181818;stroke-width:1.0;"/><text fill="#000000" font-family="sans-serif" font-size="13" lengthAdjust="spacing" textLength="191" x="462" y="1012.4951">[definitions-&gt;exits(d | d.isCorrect]</text><text fill="#000000" font-family="sans-serif" font-size="13" lengthAdjust="spacing" textLength="8" x="466.1534" y="1061.0774">+</text></g><!--link Concept to VideoWithAudio--><g id="link_Concept_VideoWithAudio"><path codeLine="62" d="M412.9703,935.2796 C395.8003,974.4296 368.5897,1036.5152 351.4997,1075.4852 " fill="none" id="Concept-VideoWithAudio" style="stroke:#181818;stroke-width:1.0;"/><polygon fill="none" points="417.79,924.29,411.717,928.1782,412.9703,935.2796,419.0433,931.3913,417.79,924.29" style="stroke:#181818;stroke-width:1.0;"/><polygon fill="#181818" points="349.09,1080.98,356.3678,1074.3442,351.0981,1076.401,349.0414,1071.1313,349.09,1080.98" style="stroke:#181818;stroke-width:1.0;"/><text fill="#000000" font-family="sans-serif" font-size="13" lengthAdjust="spacing" textLength="5" x="346.0349" y="1070.315">*</text></g><!--link Relation to Concept--><g id="link_Relation_Concept"><path codeLine="64" d="M524.33,745.13 C510.24,755.76 494.58,769.28 483,784 C460.7,812.36 446.5351,845.5857 437.7051,870.0757 " fill="none" id="Relation-to-Concept" style="stroke:#181818;stroke-width:1.0;"/><polygon fill="#181818" points="435.67,875.72,442.4855,868.6102,437.3659,871.0164,434.9598,865.8968,435.67,875.72" style="stroke:#181818;stroke-width:1.0;"/><text fill="#000000" font-family="sans-serif" font-size="13" lengthAdjust="spacing" textLength="31" x="484" y="798.4951">origin</text></g><!--link Relation to Concept--><g id="link_Relation_Concept"><path codeLine="65" d="M550.29,745.31 C543.45,761.98 532.93,784.47 520,802 C508.43,817.69 501.63,818.06 488,832 C474.14,846.18 463.2074,858.2613 451.7374,871.3913 " fill="none" id="Relation-to-Concept-1" style="stroke:#181818;stroke-width:1.0;"/><polygon fill="#181818" points="447.79,875.91,456.7235,871.7636,451.0795,872.1445,450.6986,866.5004,447.79,875.91" style="stroke:#181818;stroke-width:1.0;"/><text fill="#000000" font-family="sans-serif" font-size="13" lengthAdjust="spacing" textLength="33" x="532" y="798.4951">target</text></g><!--link Relation to RelationType--><g id="link_Relation_RelationType"><path codeLine="66" d="M582.925,755.1684 C590.215,766.2984 591.28,770.18 595,784 C599.17,799.47 599.3471,810.2802 595.6471,825.9702 " fill="none" id="Relation-RelationType" style="stroke:#181818;stroke-width:1.0;"/><polygon fill="#181818" points="576.35,745.13,576.2914,752.3409,582.925,755.1684,582.9836,747.9575,576.35,745.13" style="stroke:#181818;stroke-width:1.0;"/><polygon fill="#181818" points="594.27,831.81,600.2289,823.9684,595.4176,826.9435,592.4425,822.1322,594.27,831.81" style="stroke:#181818;stroke-width:1.0;"/></g><!--link Definition to Justification--><g id="link_Definition_Justification"><path codeLine="79" d="M480.0844,1150.3042 C478.3444,1172.7942 480.61,1190.52 495,1212 C506.81,1229.63 520.8569,1239.3623 539.7869,1247.4923 " fill="none" id="Definition-Justification" style="stroke:#181818;stroke-width:1.0;"/><polygon fill="none" points="481.01,1138.34,476.5591,1144.0136,480.0844,1150.3042,484.5353,1144.6307,481.01,1138.34" style="stroke:#181818;stroke-width:1.0;"/><polygon fill="#181818" points="545.3,1249.86,538.6089,1242.633,540.7058,1247.8869,535.4519,1249.9838,545.3,1249.86" style="stroke:#181818;stroke-width:1.0;"/><text fill="#000000" font-family="sans-serif" font-size="13" lengthAdjust="spacing" textLength="118" x="496" y="1208.4951">[!definition.isCorrect]</text><text fill="#000000" font-family="sans-serif" font-size="13" lengthAdjust="spacing" textLength="8" x="529.3266" y="1243.9851">+</text></g><!--link Document to VideoWithAudio--><g id="link_Document_VideoWithAudio"><path codeLine="81" d="M204.7801,933.713 C235.6501,972.863 286.4255,1037.298 317.1455,1076.268 " fill="none" id="Document-VideoWithAudio" style="stroke:#181818;stroke-width:1.0;"/><polygon fill="none" points="197.35,924.29,197.924,931.4782,204.7801,933.713,204.2061,926.5248,197.35,924.29" style="stroke:#181818;stroke-width:1.0;"/><polygon fill="#181818" points="320.86,1080.98,318.4296,1071.4357,317.7646,1077.0533,312.147,1076.3883,320.86,1080.98" style="stroke:#181818;stroke-width:1.0;"/><text fill="#000000" font-family="sans-serif" font-size="13" lengthAdjust="spacing" textLength="5" x="310.571" y="1070.315">*</text></g><!--link Document to Media--><g id="link_Document_Media"><path codeLine="82" d="M179,936.29 C179,975.44 179,1036.01 179,1074.98 " fill="none" id="Document-Media" style="stroke:#181818;stroke-width:1.0;"/><polygon fill="none" points="179,924.29,175,930.29,179,936.29,183,930.29,179,924.29" style="stroke:#181818;stroke-width:1.0;"/><polygon fill="#181818" points="179,1080.98,183,1071.98,179,1075.98,175,1071.98,179,1080.98" style="stroke:#181818;stroke-width:1.0;"/><text fill="#000000" font-family="sans-serif" font-size="13" lengthAdjust="spacing" textLength="5" x="173.3594" y="1070.315">*</text></g><!--link VideoWithAudio to Audio--><g id="link_VideoWithAudio_Audio"><path codeLine="84" d="M301.6779,1136.7498 C265.0779,1166.8998 215.3409,1207.875 178.7309,1238.035 " fill="none" id="VideoWithAudio-Audio" style="stroke:#181818;stroke-width:1.0;"/><polygon fill="#181818" points="310.94,1129.12,303.7657,1129.8476,301.6779,1136.7498,308.8522,1136.0223,310.94,1129.12" style="stroke:#181818;stroke-width:1.0;"/><polygon fill="#181818" points="174.1,1241.85,183.5897,1239.2147,177.9591,1238.6708,178.503,1233.0402,174.1,1241.85" style="stroke:#181818;stroke-width:1.0;"/></g><!--link VideoWithAudio to Video--><g id="link_VideoWithAudio_Video"><path codeLine="85" d="M355.43,1139.9203 C370.03,1170.0703 387.5642,1206.2902 402.1742,1236.4502 " fill="none" id="VideoWithAudio-Video" style="stroke:#181818;stroke-width:1.0;"/><polygon fill="#181818" points="350.2,1129.12,349.2149,1136.2635,355.43,1139.9203,356.4151,1132.7768,350.2,1129.12" style="stroke:#181818;stroke-width:1.0;"/><polygon fill="#181818" points="404.79,1241.85,404.4662,1232.0065,402.6102,1237.3502,397.2665,1235.4941,404.79,1241.85" style="stroke:#181818;stroke-width:1.0;"/></g><!--reverse link Media to Image--><g id="link_Media_Image"><path codeLine="88" d="M147.33,1142.7559 C121.35,1172.9059 87.93,1211.69 61.95,1241.85 " fill="none" id="Media-backto-Image" style="stroke:#181818;stroke-width:1.0;"/><polygon fill="none" points="159.08,1129.12,142.7847,1138.8393,151.8753,1146.6726,159.08,1129.12" style="stroke:#181818;stroke-width:1.0;"/></g><!--reverse link Media to Text--><g id="link_Media_Text"><path codeLine="89" d="M199.2371,1144.9875 C211.3971,1167.6275 223.39,1186.48 247,1212 C258.8,1224.76 273.97,1236.66 287.17,1245.94 " fill="none" id="Media-backto-Text" style="stroke:#181818;stroke-width:1.0;"/><polygon fill="none" points="190.72,1129.13,193.9513,1147.8265,204.5229,1142.1484,190.72,1129.13" style="stroke:#181818;stroke-width:1.0;"/></g><!--reverse link Media to Audio--><g id="link_Media_Audio"><path codeLine="90" d="M170.5407,1146.7441 C164.2807,1176.8941 157.06,1211.69 150.8,1241.85 " fill="none" id="Media-backto-Audio" style="stroke:#181818;stroke-width:1.0;"/><polygon fill="none" points="174.2,1129.12,164.666,1145.5244,176.4154,1147.9639,174.2,1129.12" style="stroke:#181818;stroke-width:1.0;"/></g><!--reverse link Media to Video--><g id="link_Media_Video"><path codeLine="91" d="M222.3323,1140.2887 C236.2923,1151.1587 239.18,1153.03 255,1164 C297.71,1193.6 348.81,1225.01 381.81,1244.8 " fill="none" id="Media-backto-Video" style="stroke:#181818;stroke-width:1.0;"/><polygon fill="none" points="208.13,1129.23,218.6461,1145.0228,226.0185,1135.5546,208.13,1129.23" style="stroke:#181818;stroke-width:1.0;"/></g><!--reverse link Audio to Text--><g id="link_Audio_Text"><path codeLine="93" d="M186.19,1266 C217.58,1266 257.6,1266 287.43,1266 " fill="none" id="Audio-backto-Text" style="stroke:#181818;stroke-width:1.0;"/><polygon fill="#181818" points="180.19,1266,189.19,1270,185.19,1266,189.19,1262,180.19,1266" style="stroke:#181818;stroke-width:1.0;"/><text fill="#000000" font-family="sans-serif" font-size="13" lengthAdjust="spacing" textLength="71" x="198.25" y="1259.4951">transcription</text><text fill="#000000" font-family="sans-serif" font-size="13" lengthAdjust="spacing" textLength="22" x="187.957" y="1280.9003">0..1</text></g><!--SRC=[VLJBRjim4BppApQ-r4vWeRaQSG33oS45YXQDsnvI7rXfxH2LI86a4kVrxrsIeaGbTdoHERlSvmppaXi3AoiaQguVuPa1_QOWpB8nLbNibR7UggRJInYTZM2jQf53OZbr5e_ERaz4XBCOPiC-7O8pwswOwQKHJpYUpC_XZ-IoW0XlXJPsFCbKNgxC-h76RzlnKbMrCiAYppRPC7PTD3ctGidl9RTRfQjGZQyJUNw7-gZBwGXkR5EWj1z6SPa-SkZcC8FRsAL0rnUMcDknW1Su4LtRaxxXpR6mopjk6SlzUgxtg7DXC2pd3EvH6xf0kuaMTmUkLCM5P2nyFUIAMqZpG2D8q1lBBLRKj1ifOoYRQeY5HCjIFU4QZVMdAzmAALoX_lW3Ir-r3-60BzIQs3ukwheKeI77dT10A27XbjAQva8EmUA81QFFMNO-QkEq8MYU9zoxPDsjJRnqyKAtqdoiNJTasMLgc876Uu4Fn2wuvJtUnuJv76HJbfj1YC1dm4BO12T3iczdfBY7IS_S5aDpj8Yuh82-gp5NqcfEqsOj9O_cEfGgtkaaEeXTg2He8DSCkFd76FzhA2jDm3VRhKWMkAVr19rVl6GP37MNMcv4LPS3M4LnBPNCiROjx8bzfVB6yIp5d6iar204zV5B5AX-2tktQ0gXtbgxcR9XVM-UAcVsbVIQxVbC92kw0uaMzyAQSK6QBLBMnGXTSsygOx43yFeDtZDGMkn8bOUDbkiTsjxegnj8AwWpXTet-gS9kbiOetB1Es76ESJpIX9jXUMKCVZlTXfthK0XAhIV1XoIQM9sxRlvlTDfFyDqQYpk- -ZStZjy9Q9pneP-OJRXoY6Bnn8- -o3m_Ch27_zOh2g-mnHOuzwcvn0lHTgmpX6c9Mwjgp6yLDwPTgZfXSgrgFr8_mC0]--></g></svg>