<?xml version="1.0" encoding="us-ascii" standalone="no"?><svg xmlns="http://www.w3.org/2000/svg" xmlns:xlink="http://www.w3.org/1999/xlink" contentStyleType="text/css" height="1264px" preserveAspectRatio="none" style="width:1360px;height:1264px;background:#FFFFFF;" version="1.1" viewBox="0 0 1360 1264" width="1360px" zoomAndPan="magnify"><defs/><g><!--class Itinerary--><g id="elem_Itinerary"><rect codeLine="2" fill="#F1F1F1" height="65.6094" id="Itinerary" rx="2.5" ry="2.5" style="stroke:#181818;stroke-width:0.5;" width="84" x="504" y="368"/><ellipse cx="519.45" cy="384" fill="#ADD1B2" rx="11" ry="11" style="stroke:#181818;stroke-width:1.0;"/><path d="M522.2156,379.875 Q522.3719,379.6563 522.5594,379.5469 Q522.7469,379.4375 522.9656,379.4375 Q523.3406,379.4375 523.575,379.7031 Q523.8094,379.9531 523.8094,380.5625 L523.8094,382.0156 Q523.8094,382.625 523.575,382.8906 Q523.3406,383.1563 522.9656,383.1563 Q522.6219,383.1563 522.4188,382.9531 Q522.2156,382.7656 522.1063,382.25 Q522.0594,381.8906 521.8719,381.7031 Q521.5438,381.3281 520.9344,381.1094 Q520.325,380.8906 519.7,380.8906 Q518.9344,380.8906 518.2938,381.2188 Q517.6688,381.5469 517.1688,382.2969 Q516.6844,383.0469 516.6844,384.0781 L516.6844,385.1719 Q516.6844,386.4063 517.575,387.2344 Q518.4656,388.0469 520.0594,388.0469 Q520.9969,388.0469 521.6531,387.7969 Q522.0438,387.6406 522.4656,387.2031 Q522.7313,386.9375 522.8719,386.8594 Q523.0281,386.7813 523.2313,386.7813 Q523.5594,386.7813 523.8094,387.0469 Q524.075,387.2969 524.075,387.6406 Q524.075,387.9844 523.7313,388.3906 Q523.2313,388.9688 522.4344,389.2969 Q521.3563,389.75 520.0594,389.75 Q518.5438,389.75 517.3406,389.125 Q516.3563,388.625 515.6688,387.5625 Q514.9813,386.4844 514.9813,385.2031 L514.9813,384.0469 Q514.9813,382.7188 515.5906,381.5781 Q516.2156,380.4219 517.3094,379.8125 Q518.4031,379.1875 519.6375,379.1875 Q520.3719,379.1875 521.0125,379.3594 Q521.6688,379.5156 522.2156,379.875 Z " fill="#000000"/><text fill="#000000" font-family="sans-serif" font-size="14" lengthAdjust="spacing" textLength="51" x="533.55" y="389.7285">Itinerary</text><line style="stroke:#181818;stroke-width:0.5;" x1="505" x2="587" y1="400" y2="400"/><rect fill="none" height="6" style="stroke:#C82930;stroke-width:1.0;" width="6" x="512" y="411.3047"/><text fill="#000000" font-family="sans-serif" font-size="14" lengthAdjust="spacing" textLength="58" x="524" y="418.5332">isCustom</text><line style="stroke:#181818;stroke-width:0.5;" x1="505" x2="587" y1="425.6094" y2="425.6094"/></g><!--class EducationPlatform--><g id="elem_EducationPlatform"><rect fill="#F1F1F1" height="48" id="EducationPlatform" rx="2.5" ry="2.5" style="stroke:#181818;stroke-width:0.5;" width="147" x="465.5" y="7"/><ellipse cx="480.5" cy="23" fill="#ADD1B2" rx="11" ry="11" style="stroke:#181818;stroke-width:1.0;"/><path d="M483.2656,18.875 Q483.4219,18.6563 483.6094,18.5469 Q483.7969,18.4375 484.0156,18.4375 Q484.3906,18.4375 484.625,18.7031 Q484.8594,18.9531 484.8594,19.5625 L484.8594,21.0156 Q484.8594,21.625 484.625,21.8906 Q484.3906,22.1563 484.0156,22.1563 Q483.6719,22.1563 483.4688,21.9531 Q483.2656,21.7656 483.1563,21.25 Q483.1094,20.8906 482.9219,20.7031 Q482.5938,20.3281 481.9844,20.1094 Q481.375,19.8906 480.75,19.8906 Q479.9844,19.8906 479.3438,20.2188 Q478.7188,20.5469 478.2188,21.2969 Q477.7344,22.0469 477.7344,23.0781 L477.7344,24.1719 Q477.7344,25.4063 478.625,26.2344 Q479.5156,27.0469 481.1094,27.0469 Q482.0469,27.0469 482.7031,26.7969 Q483.0938,26.6406 483.5156,26.2031 Q483.7813,25.9375 483.9219,25.8594 Q484.0781,25.7813 484.2813,25.7813 Q484.6094,25.7813 484.8594,26.0469 Q485.125,26.2969 485.125,26.6406 Q485.125,26.9844 484.7813,27.3906 Q484.2813,27.9688 483.4844,28.2969 Q482.4063,28.75 481.1094,28.75 Q479.5938,28.75 478.3906,28.125 Q477.4063,27.625 476.7188,26.5625 Q476.0313,25.4844 476.0313,24.2031 L476.0313,23.0469 Q476.0313,21.7188 476.6406,20.5781 Q477.2656,19.4219 478.3594,18.8125 Q479.4531,18.1875 480.6875,18.1875 Q481.4219,18.1875 482.0625,18.3594 Q482.7188,18.5156 483.2656,18.875 Z " fill="#000000"/><text fill="#000000" font-family="sans-serif" font-size="14" lengthAdjust="spacing" textLength="115" x="494.5" y="28.7285">EducationPlatform</text><line style="stroke:#181818;stroke-width:0.5;" x1="466.5" x2="611.5" y1="39" y2="39"/><line style="stroke:#181818;stroke-width:0.5;" x1="466.5" x2="611.5" y1="47" y2="47"/></g><!--class Teacher--><g id="elem_Teacher"><rect fill="#F1F1F1" height="48" id="Teacher" rx="2.5" ry="2.5" style="stroke:#181818;stroke-width:0.5;" width="85" x="496.5" y="116"/><ellipse cx="511.5" cy="132" fill="#ADD1B2" rx="11" ry="11" style="stroke:#181818;stroke-width:1.0;"/><path d="M514.2656,127.875 Q514.4219,127.6563 514.6094,127.5469 Q514.7969,127.4375 515.0156,127.4375 Q515.3906,127.4375 515.625,127.7031 Q515.8594,127.9531 515.8594,128.5625 L515.8594,130.0156 Q515.8594,130.625 515.625,130.8906 Q515.3906,131.1563 515.0156,131.1563 Q514.6719,131.1563 514.4688,130.9531 Q514.2656,130.7656 514.1563,130.25 Q514.1094,129.8906 513.9219,129.7031 Q513.5938,129.3281 512.9844,129.1094 Q512.375,128.8906 511.75,128.8906 Q510.9844,128.8906 510.3438,129.2188 Q509.7188,129.5469 509.2188,130.2969 Q508.7344,131.0469 508.7344,132.0781 L508.7344,133.1719 Q508.7344,134.4063 509.625,135.2344 Q510.5156,136.0469 512.1094,136.0469 Q513.0469,136.0469 513.7031,135.7969 Q514.0938,135.6406 514.5156,135.2031 Q514.7813,134.9375 514.9219,134.8594 Q515.0781,134.7813 515.2813,134.7813 Q515.6094,134.7813 515.8594,135.0469 Q516.125,135.2969 516.125,135.6406 Q516.125,135.9844 515.7813,136.3906 Q515.2813,136.9688 514.4844,137.2969 Q513.4063,137.75 512.1094,137.75 Q510.5938,137.75 509.3906,137.125 Q508.4063,136.625 507.7188,135.5625 Q507.0313,134.4844 507.0313,133.2031 L507.0313,132.0469 Q507.0313,130.7188 507.6406,129.5781 Q508.2656,128.4219 509.3594,127.8125 Q510.4531,127.1875 511.6875,127.1875 Q512.4219,127.1875 513.0625,127.3594 Q513.7188,127.5156 514.2656,127.875 Z " fill="#000000"/><text fill="#000000" font-family="sans-serif" font-size="14" lengthAdjust="spacing" textLength="53" x="525.5" y="137.7285">Teacher</text><line style="stroke:#181818;stroke-width:0.5;" x1="497.5" x2="580.5" y1="148" y2="148"/><line style="stroke:#181818;stroke-width:0.5;" x1="497.5" x2="580.5" y1="156" y2="156"/></g><!--class Student--><g id="elem_Student"><rect fill="#F1F1F1" height="48" id="Student" rx="2.5" ry="2.5" style="stroke:#181818;stroke-width:0.5;" width="81" x="841.5" y="116"/><ellipse cx="856.5" cy="132" fill="#ADD1B2" rx="11" ry="11" style="stroke:#181818;stroke-width:1.0;"/><path d="M859.2656,127.875 Q859.4219,127.6563 859.6094,127.5469 Q859.7969,127.4375 860.0156,127.4375 Q860.3906,127.4375 860.625,127.7031 Q860.8594,127.9531 860.8594,128.5625 L860.8594,130.0156 Q860.8594,130.625 860.625,130.8906 Q860.3906,131.1563 860.0156,131.1563 Q859.6719,131.1563 859.4688,130.9531 Q859.2656,130.7656 859.1563,130.25 Q859.1094,129.8906 858.9219,129.7031 Q858.5938,129.3281 857.9844,129.1094 Q857.375,128.8906 856.75,128.8906 Q855.9844,128.8906 855.3438,129.2188 Q854.7188,129.5469 854.2188,130.2969 Q853.7344,131.0469 853.7344,132.0781 L853.7344,133.1719 Q853.7344,134.4063 854.625,135.2344 Q855.5156,136.0469 857.1094,136.0469 Q858.0469,136.0469 858.7031,135.7969 Q859.0938,135.6406 859.5156,135.2031 Q859.7813,134.9375 859.9219,134.8594 Q860.0781,134.7813 860.2813,134.7813 Q860.6094,134.7813 860.8594,135.0469 Q861.125,135.2969 861.125,135.6406 Q861.125,135.9844 860.7813,136.3906 Q860.2813,136.9688 859.4844,137.2969 Q858.4063,137.75 857.1094,137.75 Q855.5938,137.75 854.3906,137.125 Q853.4063,136.625 852.7188,135.5625 Q852.0313,134.4844 852.0313,133.2031 L852.0313,132.0469 Q852.0313,130.7188 852.6406,129.5781 Q853.2656,128.4219 854.3594,127.8125 Q855.4531,127.1875 856.6875,127.1875 Q857.4219,127.1875 858.0625,127.3594 Q858.7188,127.5156 859.2656,127.875 Z " fill="#000000"/><text fill="#000000" font-family="sans-serif" font-size="14" lengthAdjust="spacing" textLength="49" x="870.5" y="137.7285">Student</text><line style="stroke:#181818;stroke-width:0.5;" x1="842.5" x2="921.5" y1="148" y2="148"/><line style="stroke:#181818;stroke-width:0.5;" x1="842.5" x2="921.5" y1="156" y2="156"/></g><!--class Topic--><g id="elem_Topic"><rect codeLine="46" fill="#F1F1F1" height="65.6094" id="Topic" rx="2.5" ry="2.5" style="stroke:#181818;stroke-width:0.5;" width="67" x="322.5" y="528"/><ellipse cx="337.5" cy="544" fill="#A9DCDF" rx="11" ry="11" style="stroke:#181818;stroke-width:1.0;"/><path d="M339.6875,545.7656 L335.5469,545.7656 L335.125,546.7969 L335.5469,546.7969 Q336.1563,546.7969 336.4219,547.0313 Q336.6875,547.2656 336.6875,547.6563 Q336.6875,548.0313 336.4219,548.2656 Q336.1563,548.5 335.5469,548.5 L333.25,548.5 Q332.6406,548.5 332.3906,548.2656 Q332.125,548.0313 332.125,547.6406 Q332.125,547.2656 332.4063,547.0313 Q332.6719,546.7813 333.2969,546.7969 L335.9688,540.1406 L334.8594,540.1406 Q334.25,540.1406 333.9844,539.9063 Q333.7188,539.6719 333.7188,539.2813 Q333.7188,538.9063 333.9844,538.6719 Q334.25,538.4375 334.8594,538.4375 L338.5313,538.4375 L341.9219,546.7969 Q342.5156,546.7969 342.7031,546.9375 Q343.0938,547.2031 343.0938,547.6563 Q343.0938,548.0313 342.8281,548.2656 Q342.5781,548.5 341.9688,548.5 L339.6719,548.5 Q339.0625,548.5 338.7969,548.2656 Q338.5313,548.0313 338.5313,547.6406 Q338.5313,547.2656 338.7969,547.0313 Q339.0625,546.7969 339.6719,546.7969 L340.0938,546.7969 L339.6875,545.7656 Z M338.9688,544.0625 L337.6094,540.6875 L336.2344,544.0625 L338.9688,544.0625 Z " fill="#000000"/><text fill="#000000" font-family="sans-serif" font-size="14" font-style="italic" lengthAdjust="spacing" textLength="35" x="351.5" y="549.7285">Topic</text><line style="stroke:#181818;stroke-width:0.5;" x1="323.5" x2="388.5" y1="560" y2="560"/><rect fill="none" height="6" style="stroke:#C82930;stroke-width:1.0;" width="6" x="330.5" y="571.3047"/><text fill="#000000" font-family="sans-serif" font-size="14" lengthAdjust="spacing" textLength="33" x="342.5" y="578.5332">index</text><line style="stroke:#181818;stroke-width:0.5;" x1="323.5" x2="388.5" y1="585.6094" y2="585.6094"/></g><!--class Chat--><g id="elem_Chat"><rect fill="#F1F1F1" height="48" id="Chat" rx="2.5" ry="2.5" style="stroke:#181818;stroke-width:0.5;" width="62" x="1031" y="242"/><ellipse cx="1046" cy="258" fill="#ADD1B2" rx="11" ry="11" style="stroke:#181818;stroke-width:1.0;"/><path d="M1048.7656,253.875 Q1048.9219,253.6563 1049.1094,253.5469 Q1049.2969,253.4375 1049.5156,253.4375 Q1049.8906,253.4375 1050.125,253.7031 Q1050.3594,253.9531 1050.3594,254.5625 L1050.3594,256.0156 Q1050.3594,256.625 1050.125,256.8906 Q1049.8906,257.1563 1049.5156,257.1563 Q1049.1719,257.1563 1048.9688,256.9531 Q1048.7656,256.7656 1048.6563,256.25 Q1048.6094,255.8906 1048.4219,255.7031 Q1048.0938,255.3281 1047.4844,255.1094 Q1046.875,254.8906 1046.25,254.8906 Q1045.4844,254.8906 1044.8438,255.2188 Q1044.2188,255.5469 1043.7188,256.2969 Q1043.2344,257.0469 1043.2344,258.0781 L1043.2344,259.1719 Q1043.2344,260.4063 1044.125,261.2344 Q1045.0156,262.0469 1046.6094,262.0469 Q1047.5469,262.0469 1048.2031,261.7969 Q1048.5938,261.6406 1049.0156,261.2031 Q1049.2813,260.9375 1049.4219,260.8594 Q1049.5781,260.7813 1049.7813,260.7813 Q1050.1094,260.7813 1050.3594,261.0469 Q1050.625,261.2969 1050.625,261.6406 Q1050.625,261.9844 1050.2813,262.3906 Q1049.7813,262.9688 1048.9844,263.2969 Q1047.9063,263.75 1046.6094,263.75 Q1045.0938,263.75 1043.8906,263.125 Q1042.9063,262.625 1042.2188,261.5625 Q1041.5313,260.4844 1041.5313,259.2031 L1041.5313,258.0469 Q1041.5313,256.7188 1042.1406,255.5781 Q1042.7656,254.4219 1043.8594,253.8125 Q1044.9531,253.1875 1046.1875,253.1875 Q1046.9219,253.1875 1047.5625,253.3594 Q1048.2188,253.5156 1048.7656,253.875 Z " fill="#000000"/><text fill="#000000" font-family="sans-serif" font-size="14" lengthAdjust="spacing" textLength="30" x="1060" y="263.7285">Chat</text><line style="stroke:#181818;stroke-width:0.5;" x1="1032" x2="1092" y1="274" y2="274"/><line style="stroke:#181818;stroke-width:0.5;" x1="1032" x2="1092" y1="282" y2="282"/></g><!--class Exercise--><g id="elem_Exercise"><rect codeLine="14" fill="#F1F1F1" height="65.6094" id="Exercise" rx="2.5" ry="2.5" style="stroke:#181818;stroke-width:0.5;" width="85" x="1116.5" y="368"/><ellipse cx="1131.5" cy="384" fill="#ADD1B2" rx="11" ry="11" style="stroke:#181818;stroke-width:1.0;"/><path d="M1134.2656,379.875 Q1134.4219,379.6563 1134.6094,379.5469 Q1134.7969,379.4375 1135.0156,379.4375 Q1135.3906,379.4375 1135.625,379.7031 Q1135.8594,379.9531 1135.8594,380.5625 L1135.8594,382.0156 Q1135.8594,382.625 1135.625,382.8906 Q1135.3906,383.1563 1135.0156,383.1563 Q1134.6719,383.1563 1134.4688,382.9531 Q1134.2656,382.7656 1134.1563,382.25 Q1134.1094,381.8906 1133.9219,381.7031 Q1133.5938,381.3281 1132.9844,381.1094 Q1132.375,380.8906 1131.75,380.8906 Q1130.9844,380.8906 1130.3438,381.2188 Q1129.7188,381.5469 1129.2188,382.2969 Q1128.7344,383.0469 1128.7344,384.0781 L1128.7344,385.1719 Q1128.7344,386.4063 1129.625,387.2344 Q1130.5156,388.0469 1132.1094,388.0469 Q1133.0469,388.0469 1133.7031,387.7969 Q1134.0938,387.6406 1134.5156,387.2031 Q1134.7813,386.9375 1134.9219,386.8594 Q1135.0781,386.7813 1135.2813,386.7813 Q1135.6094,386.7813 1135.8594,387.0469 Q1136.125,387.2969 1136.125,387.6406 Q1136.125,387.9844 1135.7813,388.3906 Q1135.2813,388.9688 1134.4844,389.2969 Q1133.4063,389.75 1132.1094,389.75 Q1130.5938,389.75 1129.3906,389.125 Q1128.4063,388.625 1127.7188,387.5625 Q1127.0313,386.4844 1127.0313,385.2031 L1127.0313,384.0469 Q1127.0313,382.7188 1127.6406,381.5781 Q1128.2656,380.4219 1129.3594,379.8125 Q1130.4531,379.1875 1131.6875,379.1875 Q1132.4219,379.1875 1133.0625,379.3594 Q1133.7188,379.5156 1134.2656,379.875 Z " fill="#000000"/><text fill="#000000" font-family="sans-serif" font-size="14" lengthAdjust="spacing" textLength="53" x="1145.5" y="389.7285">Exercise</text><line style="stroke:#181818;stroke-width:0.5;" x1="1117.5" x2="1200.5" y1="400" y2="400"/><ellipse cx="1127.5" cy="414.3047" fill="none" rx="3" ry="3" style="stroke:#038048;stroke-width:1.0;"/><text fill="#000000" font-family="sans-serif" font-size="14" lengthAdjust="spacing" textLength="46" x="1136.5" y="418.5332">version</text><line style="stroke:#181818;stroke-width:0.5;" x1="1117.5" x2="1200.5" y1="425.6094" y2="425.6094"/></g><!--class Domain--><g id="elem_Domain"><rect fill="#F1F1F1" height="48" id="Domain" rx="2.5" ry="2.5" style="stroke:#181818;stroke-width:0.5;" width="80" x="1145" y="537"/><ellipse cx="1160" cy="553" fill="#ADD1B2" rx="11" ry="11" style="stroke:#181818;stroke-width:1.0;"/><path d="M1162.7656,548.875 Q1162.9219,548.6563 1163.1094,548.5469 Q1163.2969,548.4375 1163.5156,548.4375 Q1163.8906,548.4375 1164.125,548.7031 Q1164.3594,548.9531 1164.3594,549.5625 L1164.3594,551.0156 Q1164.3594,551.625 1164.125,551.8906 Q1163.8906,552.1563 1163.5156,552.1563 Q1163.1719,552.1563 1162.9688,551.9531 Q1162.7656,551.7656 1162.6563,551.25 Q1162.6094,550.8906 1162.4219,550.7031 Q1162.0938,550.3281 1161.4844,550.1094 Q1160.875,549.8906 1160.25,549.8906 Q1159.4844,549.8906 1158.8438,550.2188 Q1158.2188,550.5469 1157.7188,551.2969 Q1157.2344,552.0469 1157.2344,553.0781 L1157.2344,554.1719 Q1157.2344,555.4063 1158.125,556.2344 Q1159.0156,557.0469 1160.6094,557.0469 Q1161.5469,557.0469 1162.2031,556.7969 Q1162.5938,556.6406 1163.0156,556.2031 Q1163.2813,555.9375 1163.4219,555.8594 Q1163.5781,555.7813 1163.7813,555.7813 Q1164.1094,555.7813 1164.3594,556.0469 Q1164.625,556.2969 1164.625,556.6406 Q1164.625,556.9844 1164.2813,557.3906 Q1163.7813,557.9688 1162.9844,558.2969 Q1161.9063,558.75 1160.6094,558.75 Q1159.0938,558.75 1157.8906,558.125 Q1156.9063,557.625 1156.2188,556.5625 Q1155.5313,555.4844 1155.5313,554.2031 L1155.5313,553.0469 Q1155.5313,551.7188 1156.1406,550.5781 Q1156.7656,549.4219 1157.8594,548.8125 Q1158.9531,548.1875 1160.1875,548.1875 Q1160.9219,548.1875 1161.5625,548.3594 Q1162.2188,548.5156 1162.7656,548.875 Z " fill="#000000"/><text fill="#000000" font-family="sans-serif" font-size="14" lengthAdjust="spacing" textLength="48" x="1174" y="558.7285">Domain</text><line style="stroke:#181818;stroke-width:0.5;" x1="1146" x2="1224" y1="569" y2="569"/><line style="stroke:#181818;stroke-width:0.5;" x1="1146" x2="1224" y1="577" y2="577"/></g><!--class Answer--><g id="elem_Answer"><rect codeLine="29" fill="#F1F1F1" height="65.6094" id="Answer" rx="2.5" ry="2.5" style="stroke:#181818;stroke-width:0.5;" width="83" x="1270.5" y="681"/><ellipse cx="1287.75" cy="697" fill="#ADD1B2" rx="11" ry="11" style="stroke:#181818;stroke-width:1.0;"/><path d="M1290.5156,692.875 Q1290.6719,692.6563 1290.8594,692.5469 Q1291.0469,692.4375 1291.2656,692.4375 Q1291.6406,692.4375 1291.875,692.7031 Q1292.1094,692.9531 1292.1094,693.5625 L1292.1094,695.0156 Q1292.1094,695.625 1291.875,695.8906 Q1291.6406,696.1563 1291.2656,696.1563 Q1290.9219,696.1563 1290.7188,695.9531 Q1290.5156,695.7656 1290.4063,695.25 Q1290.3594,694.8906 1290.1719,694.7031 Q1289.8438,694.3281 1289.2344,694.1094 Q1288.625,693.8906 1288,693.8906 Q1287.2344,693.8906 1286.5938,694.2188 Q1285.9688,694.5469 1285.4688,695.2969 Q1284.9844,696.0469 1284.9844,697.0781 L1284.9844,698.1719 Q1284.9844,699.4063 1285.875,700.2344 Q1286.7656,701.0469 1288.3594,701.0469 Q1289.2969,701.0469 1289.9531,700.7969 Q1290.3438,700.6406 1290.7656,700.2031 Q1291.0313,699.9375 1291.1719,699.8594 Q1291.3281,699.7813 1291.5313,699.7813 Q1291.8594,699.7813 1292.1094,700.0469 Q1292.375,700.2969 1292.375,700.6406 Q1292.375,700.9844 1292.0313,701.3906 Q1291.5313,701.9688 1290.7344,702.2969 Q1289.6563,702.75 1288.3594,702.75 Q1286.8438,702.75 1285.6406,702.125 Q1284.6563,701.625 1283.9688,700.5625 Q1283.2813,699.4844 1283.2813,698.2031 L1283.2813,697.0469 Q1283.2813,695.7188 1283.8906,694.5781 Q1284.5156,693.4219 1285.6094,692.8125 Q1286.7031,692.1875 1287.9375,692.1875 Q1288.6719,692.1875 1289.3125,692.3594 Q1289.9688,692.5156 1290.5156,692.875 Z " fill="#000000"/><text fill="#000000" font-family="sans-serif" font-size="14" lengthAdjust="spacing" textLength="46" x="1302.25" y="702.7285">Answer</text><line style="stroke:#181818;stroke-width:0.5;" x1="1271.5" x2="1352.5" y1="713" y2="713"/><rect fill="none" height="6" style="stroke:#C82930;stroke-width:1.0;" width="6" x="1278.5" y="724.3047"/><text fill="#000000" font-family="sans-serif" font-size="14" lengthAdjust="spacing" textLength="57" x="1290.5" y="731.5332">isCorrect</text><line style="stroke:#181818;stroke-width:0.5;" x1="1271.5" x2="1352.5" y1="738.6094" y2="738.6094"/></g><!--class StatementType--><g id="elem_StatementType"><rect codeLine="22" fill="#F1F1F1" height="118.4375" id="StatementType" rx="2.5" ry="2.5" style="stroke:#181818;stroke-width:0.5;" width="128" x="1107" y="655"/><ellipse cx="1122" cy="671" fill="#EB937F" rx="11" ry="11" style="stroke:#181818;stroke-width:1.0;"/><path d="M1120.8594,671.7969 L1120.8594,674.2969 L1125.1875,674.2969 L1125.1875,673.375 Q1125.1875,672.7656 1125.4219,672.5 Q1125.6719,672.2344 1126.0469,672.2344 Q1126.4219,672.2344 1126.6563,672.5 Q1126.8906,672.7656 1126.8906,673.375 L1126.8906,676 L1118.8906,676 Q1118.2656,676 1118,675.7656 Q1117.75,675.5313 1117.75,675.1406 Q1117.75,674.7656 1118.0156,674.5313 Q1118.2813,674.2969 1118.8906,674.2969 L1119.1563,674.2969 L1119.1563,667.6406 L1118.8906,667.6406 Q1118.2656,667.6406 1118,667.4063 Q1117.75,667.1719 1117.75,666.7813 Q1117.75,666.4063 1118,666.1719 Q1118.2656,665.9375 1118.8906,665.9375 L1126.5156,665.9375 L1126.5156,668.5313 Q1126.5156,669.1406 1126.2813,669.4063 Q1126.0625,669.6563 1125.6719,669.6563 Q1125.2969,669.6563 1125.0625,669.4063 Q1124.8281,669.1406 1124.8281,668.5313 L1124.8281,667.6406 L1120.8594,667.6406 L1120.8594,670.0938 L1122.3438,670.0938 Q1122.3438,669.4375 1122.4688,669.25 Q1122.7344,668.8438 1123.2031,668.8438 Q1123.5781,668.8438 1123.8125,669.1094 Q1124.0469,669.3594 1124.0469,669.9688 L1124.0469,671.9375 Q1124.0469,672.4844 1123.9219,672.6719 Q1123.6563,673.0625 1123.2031,673.0625 Q1122.7344,673.0625 1122.4688,672.6563 Q1122.3438,672.4688 1122.3438,671.7969 L1120.8594,671.7969 Z " fill="#000000"/><text fill="#000000" font-family="sans-serif" font-size="14" lengthAdjust="spacing" textLength="96" x="1136" y="676.7285">StatementType</text><line style="stroke:#181818;stroke-width:0.5;" x1="1108" x2="1234" y1="687" y2="687"/><text fill="#000000" font-family="sans-serif" font-size="14" lengthAdjust="spacing" textLength="63" x="1113" y="705.5332">ClozeTest</text><text fill="#000000" font-family="sans-serif" font-size="14" lengthAdjust="spacing" textLength="59" x="1113" y="723.1426">Definition</text><text fill="#000000" font-family="sans-serif" font-size="14" lengthAdjust="spacing" textLength="84" x="1113" y="740.752">RelationType</text><text fill="#000000" font-family="sans-serif" font-size="14" lengthAdjust="spacing" textLength="108" x="1113" y="758.3613">JustifyApplication</text><line style="stroke:#181818;stroke-width:0.5;" x1="1108" x2="1234" y1="765.4375" y2="765.4375"/></g><!--class Justification--><g id="elem_Justification"><rect fill="#F1F1F1" height="48" id="Justification" rx="2.5" ry="2.5" style="stroke:#181818;stroke-width:0.5;" width="105" x="838.5" y="1209"/><ellipse cx="853.5" cy="1225" fill="#ADD1B2" rx="11" ry="11" style="stroke:#181818;stroke-width:1.0;"/><path d="M856.2656,1220.875 Q856.4219,1220.6563 856.6094,1220.5469 Q856.7969,1220.4375 857.0156,1220.4375 Q857.3906,1220.4375 857.625,1220.7031 Q857.8594,1220.9531 857.8594,1221.5625 L857.8594,1223.0156 Q857.8594,1223.625 857.625,1223.8906 Q857.3906,1224.1563 857.0156,1224.1563 Q856.6719,1224.1563 856.4688,1223.9531 Q856.2656,1223.7656 856.1563,1223.25 Q856.1094,1222.8906 855.9219,1222.7031 Q855.5938,1222.3281 854.9844,1222.1094 Q854.375,1221.8906 853.75,1221.8906 Q852.9844,1221.8906 852.3438,1222.2188 Q851.7188,1222.5469 851.2188,1223.2969 Q850.7344,1224.0469 850.7344,1225.0781 L850.7344,1226.1719 Q850.7344,1227.4063 851.625,1228.2344 Q852.5156,1229.0469 854.1094,1229.0469 Q855.0469,1229.0469 855.7031,1228.7969 Q856.0938,1228.6406 856.5156,1228.2031 Q856.7813,1227.9375 856.9219,1227.8594 Q857.0781,1227.7813 857.2813,1227.7813 Q857.6094,1227.7813 857.8594,1228.0469 Q858.125,1228.2969 858.125,1228.6406 Q858.125,1228.9844 857.7813,1229.3906 Q857.2813,1229.9688 856.4844,1230.2969 Q855.4063,1230.75 854.1094,1230.75 Q852.5938,1230.75 851.3906,1230.125 Q850.4063,1229.625 849.7188,1228.5625 Q849.0313,1227.4844 849.0313,1226.2031 L849.0313,1225.0469 Q849.0313,1223.7188 849.6406,1222.5781 Q850.2656,1221.4219 851.3594,1220.8125 Q852.4531,1220.1875 853.6875,1220.1875 Q854.4219,1220.1875 855.0625,1220.3594 Q855.7188,1220.5156 856.2656,1220.875 Z " fill="#000000"/><text fill="#000000" font-family="sans-serif" font-size="14" lengthAdjust="spacing" textLength="73" x="867.5" y="1230.7285">Justification</text><line style="stroke:#181818;stroke-width:0.5;" x1="839.5" x2="942.5" y1="1241" y2="1241"/><line style="stroke:#181818;stroke-width:0.5;" x1="839.5" x2="942.5" y1="1249" y2="1249"/></g><!--class Application--><g id="elem_Application"><rect fill="#F1F1F1" height="48" id="Application" rx="2.5" ry="2.5" style="stroke:#181818;stroke-width:0.5;" width="101" x="956.5" y="895"/><ellipse cx="971.5" cy="911" fill="#ADD1B2" rx="11" ry="11" style="stroke:#181818;stroke-width:1.0;"/><path d="M974.2656,906.875 Q974.4219,906.6563 974.6094,906.5469 Q974.7969,906.4375 975.0156,906.4375 Q975.3906,906.4375 975.625,906.7031 Q975.8594,906.9531 975.8594,907.5625 L975.8594,909.0156 Q975.8594,909.625 975.625,909.8906 Q975.3906,910.1563 975.0156,910.1563 Q974.6719,910.1563 974.4688,909.9531 Q974.2656,909.7656 974.1563,909.25 Q974.1094,908.8906 973.9219,908.7031 Q973.5938,908.3281 972.9844,908.1094 Q972.375,907.8906 971.75,907.8906 Q970.9844,907.8906 970.3438,908.2188 Q969.7188,908.5469 969.2188,909.2969 Q968.7344,910.0469 968.7344,911.0781 L968.7344,912.1719 Q968.7344,913.4063 969.625,914.2344 Q970.5156,915.0469 972.1094,915.0469 Q973.0469,915.0469 973.7031,914.7969 Q974.0938,914.6406 974.5156,914.2031 Q974.7813,913.9375 974.9219,913.8594 Q975.0781,913.7813 975.2813,913.7813 Q975.6094,913.7813 975.8594,914.0469 Q976.125,914.2969 976.125,914.6406 Q976.125,914.9844 975.7813,915.3906 Q975.2813,915.9688 974.4844,916.2969 Q973.4063,916.75 972.1094,916.75 Q970.5938,916.75 969.3906,916.125 Q968.4063,915.625 967.7188,914.5625 Q967.0313,913.4844 967.0313,912.2031 L967.0313,911.0469 Q967.0313,909.7188 967.6406,908.5781 Q968.2656,907.4219 969.3594,906.8125 Q970.4531,906.1875 971.6875,906.1875 Q972.4219,906.1875 973.0625,906.3594 Q973.7188,906.5156 974.2656,906.875 Z " fill="#000000"/><text fill="#000000" font-family="sans-serif" font-size="14" lengthAdjust="spacing" textLength="69" x="985.5" y="916.7285">Application</text><line style="stroke:#181818;stroke-width:0.5;" x1="957.5" x2="1056.5" y1="927" y2="927"/><line style="stroke:#181818;stroke-width:0.5;" x1="957.5" x2="1056.5" y1="935" y2="935"/></g><!--class CompositeTopic--><g id="elem_CompositeTopic"><rect fill="#F1F1F1" height="48" id="CompositeTopic" rx="2.5" ry="2.5" style="stroke:#181818;stroke-width:0.5;" width="134" x="7" y="690"/><ellipse cx="22" cy="706" fill="#ADD1B2" rx="11" ry="11" style="stroke:#181818;stroke-width:1.0;"/><path d="M24.7656,701.875 Q24.9219,701.6563 25.1094,701.5469 Q25.2969,701.4375 25.5156,701.4375 Q25.8906,701.4375 26.125,701.7031 Q26.3594,701.9531 26.3594,702.5625 L26.3594,704.0156 Q26.3594,704.625 26.125,704.8906 Q25.8906,705.1563 25.5156,705.1563 Q25.1719,705.1563 24.9688,704.9531 Q24.7656,704.7656 24.6563,704.25 Q24.6094,703.8906 24.4219,703.7031 Q24.0938,703.3281 23.4844,703.1094 Q22.875,702.8906 22.25,702.8906 Q21.4844,702.8906 20.8438,703.2188 Q20.2188,703.5469 19.7188,704.2969 Q19.2344,705.0469 19.2344,706.0781 L19.2344,707.1719 Q19.2344,708.4063 20.125,709.2344 Q21.0156,710.0469 22.6094,710.0469 Q23.5469,710.0469 24.2031,709.7969 Q24.5938,709.6406 25.0156,709.2031 Q25.2813,708.9375 25.4219,708.8594 Q25.5781,708.7813 25.7813,708.7813 Q26.1094,708.7813 26.3594,709.0469 Q26.625,709.2969 26.625,709.6406 Q26.625,709.9844 26.2813,710.3906 Q25.7813,710.9688 24.9844,711.2969 Q23.9063,711.75 22.6094,711.75 Q21.0938,711.75 19.8906,711.125 Q18.9063,710.625 18.2188,709.5625 Q17.5313,708.4844 17.5313,707.2031 L17.5313,706.0469 Q17.5313,704.7188 18.1406,703.5781 Q18.7656,702.4219 19.8594,701.8125 Q20.9531,701.1875 22.1875,701.1875 Q22.9219,701.1875 23.5625,701.3594 Q24.2188,701.5156 24.7656,701.875 Z " fill="#000000"/><text fill="#000000" font-family="sans-serif" font-size="14" lengthAdjust="spacing" textLength="102" x="36" y="711.7285">CompositeTopic</text><line style="stroke:#181818;stroke-width:0.5;" x1="8" x2="140" y1="722" y2="722"/><line style="stroke:#181818;stroke-width:0.5;" x1="8" x2="140" y1="730" y2="730"/></g><!--class SimpleTopic--><g id="elem_SimpleTopic"><rect fill="#F1F1F1" height="48" id="SimpleTopic" rx="2.5" ry="2.5" style="stroke:#181818;stroke-width:0.5;" width="109" x="247.5" y="690"/><ellipse cx="262.5" cy="706" fill="#ADD1B2" rx="11" ry="11" style="stroke:#181818;stroke-width:1.0;"/><path d="M265.2656,701.875 Q265.4219,701.6563 265.6094,701.5469 Q265.7969,701.4375 266.0156,701.4375 Q266.3906,701.4375 266.625,701.7031 Q266.8594,701.9531 266.8594,702.5625 L266.8594,704.0156 Q266.8594,704.625 266.625,704.8906 Q266.3906,705.1563 266.0156,705.1563 Q265.6719,705.1563 265.4688,704.9531 Q265.2656,704.7656 265.1563,704.25 Q265.1094,703.8906 264.9219,703.7031 Q264.5938,703.3281 263.9844,703.1094 Q263.375,702.8906 262.75,702.8906 Q261.9844,702.8906 261.3438,703.2188 Q260.7188,703.5469 260.2188,704.2969 Q259.7344,705.0469 259.7344,706.0781 L259.7344,707.1719 Q259.7344,708.4063 260.625,709.2344 Q261.5156,710.0469 263.1094,710.0469 Q264.0469,710.0469 264.7031,709.7969 Q265.0938,709.6406 265.5156,709.2031 Q265.7813,708.9375 265.9219,708.8594 Q266.0781,708.7813 266.2813,708.7813 Q266.6094,708.7813 266.8594,709.0469 Q267.125,709.2969 267.125,709.6406 Q267.125,709.9844 266.7813,710.3906 Q266.2813,710.9688 265.4844,711.2969 Q264.4063,711.75 263.1094,711.75 Q261.5938,711.75 260.3906,711.125 Q259.4063,710.625 258.7188,709.5625 Q258.0313,708.4844 258.0313,707.2031 L258.0313,706.0469 Q258.0313,704.7188 258.6406,703.5781 Q259.2656,702.4219 260.3594,701.8125 Q261.4531,701.1875 262.6875,701.1875 Q263.4219,701.1875 264.0625,701.3594 Q264.7188,701.5156 265.2656,701.875 Z " fill="#000000"/><text fill="#000000" font-family="sans-serif" font-size="14" lengthAdjust="spacing" textLength="77" x="276.5" y="711.7285">SimpleTopic</text><line style="stroke:#181818;stroke-width:0.5;" x1="248.5" x2="355.5" y1="722" y2="722"/><line style="stroke:#181818;stroke-width:0.5;" x1="248.5" x2="355.5" y1="730" y2="730"/></g><!--class Concept--><g id="elem_Concept"><rect fill="#F1F1F1" height="48" id="Concept" rx="2.5" ry="2.5" style="stroke:#181818;stroke-width:0.5;" width="85" x="543.5" y="895"/><ellipse cx="558.5" cy="911" fill="#ADD1B2" rx="11" ry="11" style="stroke:#181818;stroke-width:1.0;"/><path d="M561.2656,906.875 Q561.4219,906.6563 561.6094,906.5469 Q561.7969,906.4375 562.0156,906.4375 Q562.3906,906.4375 562.625,906.7031 Q562.8594,906.9531 562.8594,907.5625 L562.8594,909.0156 Q562.8594,909.625 562.625,909.8906 Q562.3906,910.1563 562.0156,910.1563 Q561.6719,910.1563 561.4688,909.9531 Q561.2656,909.7656 561.1563,909.25 Q561.1094,908.8906 560.9219,908.7031 Q560.5938,908.3281 559.9844,908.1094 Q559.375,907.8906 558.75,907.8906 Q557.9844,907.8906 557.3438,908.2188 Q556.7188,908.5469 556.2188,909.2969 Q555.7344,910.0469 555.7344,911.0781 L555.7344,912.1719 Q555.7344,913.4063 556.625,914.2344 Q557.5156,915.0469 559.1094,915.0469 Q560.0469,915.0469 560.7031,914.7969 Q561.0938,914.6406 561.5156,914.2031 Q561.7813,913.9375 561.9219,913.8594 Q562.0781,913.7813 562.2813,913.7813 Q562.6094,913.7813 562.8594,914.0469 Q563.125,914.2969 563.125,914.6406 Q563.125,914.9844 562.7813,915.3906 Q562.2813,915.9688 561.4844,916.2969 Q560.4063,916.75 559.1094,916.75 Q557.5938,916.75 556.3906,916.125 Q555.4063,915.625 554.7188,914.5625 Q554.0313,913.4844 554.0313,912.2031 L554.0313,911.0469 Q554.0313,909.7188 554.6406,908.5781 Q555.2656,907.4219 556.3594,906.8125 Q557.4531,906.1875 558.6875,906.1875 Q559.4219,906.1875 560.0625,906.3594 Q560.7188,906.5156 561.2656,906.875 Z " fill="#000000"/><text fill="#000000" font-family="sans-serif" font-size="14" lengthAdjust="spacing" textLength="53" x="572.5" y="916.7285">Concept</text><line style="stroke:#181818;stroke-width:0.5;" x1="544.5" x2="627.5" y1="927" y2="927"/><line style="stroke:#181818;stroke-width:0.5;" x1="544.5" x2="627.5" y1="935" y2="935"/></g><!--class Document--><g id="elem_Document"><rect fill="#F1F1F1" height="48" id="Document" rx="2.5" ry="2.5" style="stroke:#181818;stroke-width:0.5;" width="96" x="261" y="895"/><ellipse cx="276" cy="911" fill="#ADD1B2" rx="11" ry="11" style="stroke:#181818;stroke-width:1.0;"/><path d="M278.7656,906.875 Q278.9219,906.6563 279.1094,906.5469 Q279.2969,906.4375 279.5156,906.4375 Q279.8906,906.4375 280.125,906.7031 Q280.3594,906.9531 280.3594,907.5625 L280.3594,909.0156 Q280.3594,909.625 280.125,909.8906 Q279.8906,910.1563 279.5156,910.1563 Q279.1719,910.1563 278.9688,909.9531 Q278.7656,909.7656 278.6563,909.25 Q278.6094,908.8906 278.4219,908.7031 Q278.0938,908.3281 277.4844,908.1094 Q276.875,907.8906 276.25,907.8906 Q275.4844,907.8906 274.8438,908.2188 Q274.2188,908.5469 273.7188,909.2969 Q273.2344,910.0469 273.2344,911.0781 L273.2344,912.1719 Q273.2344,913.4063 274.125,914.2344 Q275.0156,915.0469 276.6094,915.0469 Q277.5469,915.0469 278.2031,914.7969 Q278.5938,914.6406 279.0156,914.2031 Q279.2813,913.9375 279.4219,913.8594 Q279.5781,913.7813 279.7813,913.7813 Q280.1094,913.7813 280.3594,914.0469 Q280.625,914.2969 280.625,914.6406 Q280.625,914.9844 280.2813,915.3906 Q279.7813,915.9688 278.9844,916.2969 Q277.9063,916.75 276.6094,916.75 Q275.0938,916.75 273.8906,916.125 Q272.9063,915.625 272.2188,914.5625 Q271.5313,913.4844 271.5313,912.2031 L271.5313,911.0469 Q271.5313,909.7188 272.1406,908.5781 Q272.7656,907.4219 273.8594,906.8125 Q274.9531,906.1875 276.1875,906.1875 Q276.9219,906.1875 277.5625,906.3594 Q278.2188,906.5156 278.7656,906.875 Z " fill="#000000"/><text fill="#000000" font-family="sans-serif" font-size="14" lengthAdjust="spacing" textLength="64" x="290" y="916.7285">Document</text><line style="stroke:#181818;stroke-width:0.5;" x1="262" x2="356" y1="927" y2="927"/><line style="stroke:#181818;stroke-width:0.5;" x1="262" x2="356" y1="935" y2="935"/></g><!--class Relation--><g id="elem_Relation"><rect fill="#F1F1F1" height="48" id="Relation" rx="2.5" ry="2.5" style="stroke:#181818;stroke-width:0.5;" width="84" x="465" y="690"/><ellipse cx="480" cy="706" fill="#ADD1B2" rx="11" ry="11" style="stroke:#181818;stroke-width:1.0;"/><path d="M482.7656,701.875 Q482.9219,701.6563 483.1094,701.5469 Q483.2969,701.4375 483.5156,701.4375 Q483.8906,701.4375 484.125,701.7031 Q484.3594,701.9531 484.3594,702.5625 L484.3594,704.0156 Q484.3594,704.625 484.125,704.8906 Q483.8906,705.1563 483.5156,705.1563 Q483.1719,705.1563 482.9688,704.9531 Q482.7656,704.7656 482.6563,704.25 Q482.6094,703.8906 482.4219,703.7031 Q482.0938,703.3281 481.4844,703.1094 Q480.875,702.8906 480.25,702.8906 Q479.4844,702.8906 478.8438,703.2188 Q478.2188,703.5469 477.7188,704.2969 Q477.2344,705.0469 477.2344,706.0781 L477.2344,707.1719 Q477.2344,708.4063 478.125,709.2344 Q479.0156,710.0469 480.6094,710.0469 Q481.5469,710.0469 482.2031,709.7969 Q482.5938,709.6406 483.0156,709.2031 Q483.2813,708.9375 483.4219,708.8594 Q483.5781,708.7813 483.7813,708.7813 Q484.1094,708.7813 484.3594,709.0469 Q484.625,709.2969 484.625,709.6406 Q484.625,709.9844 484.2813,710.3906 Q483.7813,710.9688 482.9844,711.2969 Q481.9063,711.75 480.6094,711.75 Q479.0938,711.75 477.8906,711.125 Q476.9063,710.625 476.2188,709.5625 Q475.5313,708.4844 475.5313,707.2031 L475.5313,706.0469 Q475.5313,704.7188 476.1406,703.5781 Q476.7656,702.4219 477.8594,701.8125 Q478.9531,701.1875 480.1875,701.1875 Q480.9219,701.1875 481.5625,701.3594 Q482.2188,701.5156 482.7656,701.875 Z " fill="#000000"/><text fill="#000000" font-family="sans-serif" font-size="14" lengthAdjust="spacing" textLength="52" x="494" y="711.7285">Relation</text><line style="stroke:#181818;stroke-width:0.5;" x1="466" x2="548" y1="722" y2="722"/><line style="stroke:#181818;stroke-width:0.5;" x1="466" x2="548" y1="730" y2="730"/></g><!--class VideoWithAudio--><g id="elem_VideoWithAudio"><rect fill="#F1F1F1" height="48" id="VideoWithAudio" rx="2.5" ry="2.5" style="stroke:#181818;stroke-width:0.5;" width="132" x="188" y="1074"/><ellipse cx="203" cy="1090" fill="#ADD1B2" rx="11" ry="11" style="stroke:#181818;stroke-width:1.0;"/><path d="M205.7656,1085.875 Q205.9219,1085.6563 206.1094,1085.5469 Q206.2969,1085.4375 206.5156,1085.4375 Q206.8906,1085.4375 207.125,1085.7031 Q207.3594,1085.9531 207.3594,1086.5625 L207.3594,1088.0156 Q207.3594,1088.625 207.125,1088.8906 Q206.8906,1089.1563 206.5156,1089.1563 Q206.1719,1089.1563 205.9688,1088.9531 Q205.7656,1088.7656 205.6563,1088.25 Q205.6094,1087.8906 205.4219,1087.7031 Q205.0938,1087.3281 204.4844,1087.1094 Q203.875,1086.8906 203.25,1086.8906 Q202.4844,1086.8906 201.8438,1087.2188 Q201.2188,1087.5469 200.7188,1088.2969 Q200.2344,1089.0469 200.2344,1090.0781 L200.2344,1091.1719 Q200.2344,1092.4063 201.125,1093.2344 Q202.0156,1094.0469 203.6094,1094.0469 Q204.5469,1094.0469 205.2031,1093.7969 Q205.5938,1093.6406 206.0156,1093.2031 Q206.2813,1092.9375 206.4219,1092.8594 Q206.5781,1092.7813 206.7813,1092.7813 Q207.1094,1092.7813 207.3594,1093.0469 Q207.625,1093.2969 207.625,1093.6406 Q207.625,1093.9844 207.2813,1094.3906 Q206.7813,1094.9688 205.9844,1095.2969 Q204.9063,1095.75 203.6094,1095.75 Q202.0938,1095.75 200.8906,1095.125 Q199.9063,1094.625 199.2188,1093.5625 Q198.5313,1092.4844 198.5313,1091.2031 L198.5313,1090.0469 Q198.5313,1088.7188 199.1406,1087.5781 Q199.7656,1086.4219 200.8594,1085.8125 Q201.9531,1085.1875 203.1875,1085.1875 Q203.9219,1085.1875 204.5625,1085.3594 Q205.2188,1085.5156 205.7656,1085.875 Z " fill="#000000"/><text fill="#000000" font-family="sans-serif" font-size="14" lengthAdjust="spacing" textLength="100" x="217" y="1095.7285">VideoWithAudio</text><line style="stroke:#181818;stroke-width:0.5;" x1="189" x2="319" y1="1106" y2="1106"/><line style="stroke:#181818;stroke-width:0.5;" x1="189" x2="319" y1="1114" y2="1114"/></g><!--class Definition--><g id="elem_Definition"><rect codeLine="73" fill="#F1F1F1" height="65.6094" id="Definition" rx="2.5" ry="2.5" style="stroke:#181818;stroke-width:0.5;" width="91" x="760.5" y="1065"/><ellipse cx="775.5" cy="1081" fill="#ADD1B2" rx="11" ry="11" style="stroke:#181818;stroke-width:1.0;"/><path d="M778.2656,1076.875 Q778.4219,1076.6563 778.6094,1076.5469 Q778.7969,1076.4375 779.0156,1076.4375 Q779.3906,1076.4375 779.625,1076.7031 Q779.8594,1076.9531 779.8594,1077.5625 L779.8594,1079.0156 Q779.8594,1079.625 779.625,1079.8906 Q779.3906,1080.1563 779.0156,1080.1563 Q778.6719,1080.1563 778.4688,1079.9531 Q778.2656,1079.7656 778.1563,1079.25 Q778.1094,1078.8906 777.9219,1078.7031 Q777.5938,1078.3281 776.9844,1078.1094 Q776.375,1077.8906 775.75,1077.8906 Q774.9844,1077.8906 774.3438,1078.2188 Q773.7188,1078.5469 773.2188,1079.2969 Q772.7344,1080.0469 772.7344,1081.0781 L772.7344,1082.1719 Q772.7344,1083.4063 773.625,1084.2344 Q774.5156,1085.0469 776.1094,1085.0469 Q777.0469,1085.0469 777.7031,1084.7969 Q778.0938,1084.6406 778.5156,1084.2031 Q778.7813,1083.9375 778.9219,1083.8594 Q779.0781,1083.7813 779.2813,1083.7813 Q779.6094,1083.7813 779.8594,1084.0469 Q780.125,1084.2969 780.125,1084.6406 Q780.125,1084.9844 779.7813,1085.3906 Q779.2813,1085.9688 778.4844,1086.2969 Q777.4063,1086.75 776.1094,1086.75 Q774.5938,1086.75 773.3906,1086.125 Q772.4063,1085.625 771.7188,1084.5625 Q771.0313,1083.4844 771.0313,1082.2031 L771.0313,1081.0469 Q771.0313,1079.7188 771.6406,1078.5781 Q772.2656,1077.4219 773.3594,1076.8125 Q774.4531,1076.1875 775.6875,1076.1875 Q776.4219,1076.1875 777.0625,1076.3594 Q777.7188,1076.5156 778.2656,1076.875 Z " fill="#000000"/><text fill="#000000" font-family="sans-serif" font-size="14" lengthAdjust="spacing" textLength="59" x="789.5" y="1086.7285">Definition</text><line style="stroke:#181818;stroke-width:0.5;" x1="761.5" x2="850.5" y1="1097" y2="1097"/><rect fill="none" height="6" style="stroke:#C82930;stroke-width:1.0;" width="6" x="768.5" y="1108.3047"/><text fill="#000000" font-family="sans-serif" font-size="14" lengthAdjust="spacing" textLength="57" x="780.5" y="1115.5332">isCorrect</text><line style="stroke:#181818;stroke-width:0.5;" x1="761.5" x2="850.5" y1="1122.6094" y2="1122.6094"/></g><!--class RelationType--><g id="elem_RelationType"><rect codeLine="65" fill="#F1F1F1" height="136.0469" id="RelationType" rx="2.5" ry="2.5" style="stroke:#181818;stroke-width:0.5;" width="116" x="392" y="851"/><ellipse cx="407" cy="867" fill="#EB937F" rx="11" ry="11" style="stroke:#181818;stroke-width:1.0;"/><path d="M405.8594,867.7969 L405.8594,870.2969 L410.1875,870.2969 L410.1875,869.375 Q410.1875,868.7656 410.4219,868.5 Q410.6719,868.2344 411.0469,868.2344 Q411.4219,868.2344 411.6563,868.5 Q411.8906,868.7656 411.8906,869.375 L411.8906,872 L403.8906,872 Q403.2656,872 403,871.7656 Q402.75,871.5313 402.75,871.1406 Q402.75,870.7656 403.0156,870.5313 Q403.2813,870.2969 403.8906,870.2969 L404.1563,870.2969 L404.1563,863.6406 L403.8906,863.6406 Q403.2656,863.6406 403,863.4063 Q402.75,863.1719 402.75,862.7813 Q402.75,862.4063 403,862.1719 Q403.2656,861.9375 403.8906,861.9375 L411.5156,861.9375 L411.5156,864.5313 Q411.5156,865.1406 411.2813,865.4063 Q411.0625,865.6563 410.6719,865.6563 Q410.2969,865.6563 410.0625,865.4063 Q409.8281,865.1406 409.8281,864.5313 L409.8281,863.6406 L405.8594,863.6406 L405.8594,866.0938 L407.3438,866.0938 Q407.3438,865.4375 407.4688,865.25 Q407.7344,864.8438 408.2031,864.8438 Q408.5781,864.8438 408.8125,865.1094 Q409.0469,865.3594 409.0469,865.9688 L409.0469,867.9375 Q409.0469,868.4844 408.9219,868.6719 Q408.6563,869.0625 408.2031,869.0625 Q407.7344,869.0625 407.4688,868.6563 Q407.3438,868.4688 407.3438,867.7969 L405.8594,867.7969 Z " fill="#000000"/><text fill="#000000" font-family="sans-serif" font-size="14" lengthAdjust="spacing" textLength="84" x="421" y="872.7285">RelationType</text><line style="stroke:#181818;stroke-width:0.5;" x1="393" x2="507" y1="883" y2="883"/><text fill="#000000" font-family="sans-serif" font-size="14" lengthAdjust="spacing" textLength="24" x="398" y="901.5332">Use</text><text fill="#000000" font-family="sans-serif" font-size="14" lengthAdjust="spacing" textLength="72" x="398" y="919.1426">Association</text><text fill="#000000" font-family="sans-serif" font-size="14" lengthAdjust="spacing" textLength="78" x="398" y="936.752">Composition</text><text fill="#000000" font-family="sans-serif" font-size="14" lengthAdjust="spacing" textLength="70" x="398" y="954.3613">Inheritance</text><text fill="#000000" font-family="sans-serif" font-size="14" lengthAdjust="spacing" textLength="77" x="398" y="971.9707">Aggregation</text><line style="stroke:#181818;stroke-width:0.5;" x1="393" x2="507" y1="979.0469" y2="979.0469"/></g><!--class Media--><g id="elem_Media"><rect codeLine="84" fill="#F1F1F1" height="48" id="Media" rx="2.5" ry="2.5" style="stroke:#181818;stroke-width:0.5;" width="71" x="355.5" y="1074"/><ellipse cx="370.5" cy="1090" fill="#A9DCDF" rx="11" ry="11" style="stroke:#181818;stroke-width:1.0;"/><path d="M372.6875,1091.7656 L368.5469,1091.7656 L368.125,1092.7969 L368.5469,1092.7969 Q369.1563,1092.7969 369.4219,1093.0313 Q369.6875,1093.2656 369.6875,1093.6563 Q369.6875,1094.0313 369.4219,1094.2656 Q369.1563,1094.5 368.5469,1094.5 L366.25,1094.5 Q365.6406,1094.5 365.3906,1094.2656 Q365.125,1094.0313 365.125,1093.6406 Q365.125,1093.2656 365.4063,1093.0313 Q365.6719,1092.7813 366.2969,1092.7969 L368.9688,1086.1406 L367.8594,1086.1406 Q367.25,1086.1406 366.9844,1085.9063 Q366.7188,1085.6719 366.7188,1085.2813 Q366.7188,1084.9063 366.9844,1084.6719 Q367.25,1084.4375 367.8594,1084.4375 L371.5313,1084.4375 L374.9219,1092.7969 Q375.5156,1092.7969 375.7031,1092.9375 Q376.0938,1093.2031 376.0938,1093.6563 Q376.0938,1094.0313 375.8281,1094.2656 Q375.5781,1094.5 374.9688,1094.5 L372.6719,1094.5 Q372.0625,1094.5 371.7969,1094.2656 Q371.5313,1094.0313 371.5313,1093.6406 Q371.5313,1093.2656 371.7969,1093.0313 Q372.0625,1092.7969 372.6719,1092.7969 L373.0938,1092.7969 L372.6875,1091.7656 Z M371.9688,1090.0625 L370.6094,1086.6875 L369.2344,1090.0625 L371.9688,1090.0625 Z " fill="#000000"/><text fill="#000000" font-family="sans-serif" font-size="14" font-style="italic" lengthAdjust="spacing" textLength="39" x="384.5" y="1095.7285">Media</text><line style="stroke:#181818;stroke-width:0.5;" x1="356.5" x2="425.5" y1="1106" y2="1106"/><line style="stroke:#181818;stroke-width:0.5;" x1="356.5" x2="425.5" y1="1114" y2="1114"/></g><!--class Audio--><g id="elem_Audio"><rect fill="#F1F1F1" height="48" id="Audio" rx="2.5" ry="2.5" style="stroke:#181818;stroke-width:0.5;" width="68" x="240" y="1209"/><ellipse cx="255" cy="1225" fill="#ADD1B2" rx="11" ry="11" style="stroke:#181818;stroke-width:1.0;"/><path d="M257.7656,1220.875 Q257.9219,1220.6563 258.1094,1220.5469 Q258.2969,1220.4375 258.5156,1220.4375 Q258.8906,1220.4375 259.125,1220.7031 Q259.3594,1220.9531 259.3594,1221.5625 L259.3594,1223.0156 Q259.3594,1223.625 259.125,1223.8906 Q258.8906,1224.1563 258.5156,1224.1563 Q258.1719,1224.1563 257.9688,1223.9531 Q257.7656,1223.7656 257.6563,1223.25 Q257.6094,1222.8906 257.4219,1222.7031 Q257.0938,1222.3281 256.4844,1222.1094 Q255.875,1221.8906 255.25,1221.8906 Q254.4844,1221.8906 253.8438,1222.2188 Q253.2188,1222.5469 252.7188,1223.2969 Q252.2344,1224.0469 252.2344,1225.0781 L252.2344,1226.1719 Q252.2344,1227.4063 253.125,1228.2344 Q254.0156,1229.0469 255.6094,1229.0469 Q256.5469,1229.0469 257.2031,1228.7969 Q257.5938,1228.6406 258.0156,1228.2031 Q258.2813,1227.9375 258.4219,1227.8594 Q258.5781,1227.7813 258.7813,1227.7813 Q259.1094,1227.7813 259.3594,1228.0469 Q259.625,1228.2969 259.625,1228.6406 Q259.625,1228.9844 259.2813,1229.3906 Q258.7813,1229.9688 257.9844,1230.2969 Q256.9063,1230.75 255.6094,1230.75 Q254.0938,1230.75 252.8906,1230.125 Q251.9063,1229.625 251.2188,1228.5625 Q250.5313,1227.4844 250.5313,1226.2031 L250.5313,1225.0469 Q250.5313,1223.7188 251.1406,1222.5781 Q251.7656,1221.4219 252.8594,1220.8125 Q253.9531,1220.1875 255.1875,1220.1875 Q255.9219,1220.1875 256.5625,1220.3594 Q257.2188,1220.5156 257.7656,1220.875 Z " fill="#000000"/><text fill="#000000" font-family="sans-serif" font-size="14" lengthAdjust="spacing" textLength="36" x="269" y="1230.7285">Audio</text><line style="stroke:#181818;stroke-width:0.5;" x1="241" x2="307" y1="1241" y2="1241"/><line style="stroke:#181818;stroke-width:0.5;" x1="241" x2="307" y1="1249" y2="1249"/></g><!--class Video--><g id="elem_Video"><rect fill="#F1F1F1" height="48" id="Video" rx="2.5" ry="2.5" style="stroke:#181818;stroke-width:0.5;" width="68" x="343" y="1209"/><ellipse cx="358" cy="1225" fill="#ADD1B2" rx="11" ry="11" style="stroke:#181818;stroke-width:1.0;"/><path d="M360.7656,1220.875 Q360.9219,1220.6563 361.1094,1220.5469 Q361.2969,1220.4375 361.5156,1220.4375 Q361.8906,1220.4375 362.125,1220.7031 Q362.3594,1220.9531 362.3594,1221.5625 L362.3594,1223.0156 Q362.3594,1223.625 362.125,1223.8906 Q361.8906,1224.1563 361.5156,1224.1563 Q361.1719,1224.1563 360.9688,1223.9531 Q360.7656,1223.7656 360.6563,1223.25 Q360.6094,1222.8906 360.4219,1222.7031 Q360.0938,1222.3281 359.4844,1222.1094 Q358.875,1221.8906 358.25,1221.8906 Q357.4844,1221.8906 356.8438,1222.2188 Q356.2188,1222.5469 355.7188,1223.2969 Q355.2344,1224.0469 355.2344,1225.0781 L355.2344,1226.1719 Q355.2344,1227.4063 356.125,1228.2344 Q357.0156,1229.0469 358.6094,1229.0469 Q359.5469,1229.0469 360.2031,1228.7969 Q360.5938,1228.6406 361.0156,1228.2031 Q361.2813,1227.9375 361.4219,1227.8594 Q361.5781,1227.7813 361.7813,1227.7813 Q362.1094,1227.7813 362.3594,1228.0469 Q362.625,1228.2969 362.625,1228.6406 Q362.625,1228.9844 362.2813,1229.3906 Q361.7813,1229.9688 360.9844,1230.2969 Q359.9063,1230.75 358.6094,1230.75 Q357.0938,1230.75 355.8906,1230.125 Q354.9063,1229.625 354.2188,1228.5625 Q353.5313,1227.4844 353.5313,1226.2031 L353.5313,1225.0469 Q353.5313,1223.7188 354.1406,1222.5781 Q354.7656,1221.4219 355.8594,1220.8125 Q356.9531,1220.1875 358.1875,1220.1875 Q358.9219,1220.1875 359.5625,1220.3594 Q360.2188,1220.5156 360.7656,1220.875 Z " fill="#000000"/><text fill="#000000" font-family="sans-serif" font-size="14" lengthAdjust="spacing" textLength="36" x="372" y="1230.7285">Video</text><line style="stroke:#181818;stroke-width:0.5;" x1="344" x2="410" y1="1241" y2="1241"/><line style="stroke:#181818;stroke-width:0.5;" x1="344" x2="410" y1="1249" y2="1249"/></g><!--class Image--><g id="elem_Image"><rect fill="#F1F1F1" height="48" id="Image" rx="2.5" ry="2.5" style="stroke:#181818;stroke-width:0.5;" width="70" x="555" y="1209"/><ellipse cx="570" cy="1225" fill="#ADD1B2" rx="11" ry="11" style="stroke:#181818;stroke-width:1.0;"/><path d="M572.7656,1220.875 Q572.9219,1220.6563 573.1094,1220.5469 Q573.2969,1220.4375 573.5156,1220.4375 Q573.8906,1220.4375 574.125,1220.7031 Q574.3594,1220.9531 574.3594,1221.5625 L574.3594,1223.0156 Q574.3594,1223.625 574.125,1223.8906 Q573.8906,1224.1563 573.5156,1224.1563 Q573.1719,1224.1563 572.9688,1223.9531 Q572.7656,1223.7656 572.6563,1223.25 Q572.6094,1222.8906 572.4219,1222.7031 Q572.0938,1222.3281 571.4844,1222.1094 Q570.875,1221.8906 570.25,1221.8906 Q569.4844,1221.8906 568.8438,1222.2188 Q568.2188,1222.5469 567.7188,1223.2969 Q567.2344,1224.0469 567.2344,1225.0781 L567.2344,1226.1719 Q567.2344,1227.4063 568.125,1228.2344 Q569.0156,1229.0469 570.6094,1229.0469 Q571.5469,1229.0469 572.2031,1228.7969 Q572.5938,1228.6406 573.0156,1228.2031 Q573.2813,1227.9375 573.4219,1227.8594 Q573.5781,1227.7813 573.7813,1227.7813 Q574.1094,1227.7813 574.3594,1228.0469 Q574.625,1228.2969 574.625,1228.6406 Q574.625,1228.9844 574.2813,1229.3906 Q573.7813,1229.9688 572.9844,1230.2969 Q571.9063,1230.75 570.6094,1230.75 Q569.0938,1230.75 567.8906,1230.125 Q566.9063,1229.625 566.2188,1228.5625 Q565.5313,1227.4844 565.5313,1226.2031 L565.5313,1225.0469 Q565.5313,1223.7188 566.1406,1222.5781 Q566.7656,1221.4219 567.8594,1220.8125 Q568.9531,1220.1875 570.1875,1220.1875 Q570.9219,1220.1875 571.5625,1220.3594 Q572.2188,1220.5156 572.7656,1220.875 Z " fill="#000000"/><text fill="#000000" font-family="sans-serif" font-size="14" lengthAdjust="spacing" textLength="38" x="584" y="1230.7285">Image</text><line style="stroke:#181818;stroke-width:0.5;" x1="556" x2="624" y1="1241" y2="1241"/><line style="stroke:#181818;stroke-width:0.5;" x1="556" x2="624" y1="1249" y2="1249"/></g><!--class Text--><g id="elem_Text"><rect fill="#F1F1F1" height="48" id="Text" rx="2.5" ry="2.5" style="stroke:#181818;stroke-width:0.5;" width="59" x="460.5" y="1209"/><ellipse cx="475.5" cy="1225" fill="#ADD1B2" rx="11" ry="11" style="stroke:#181818;stroke-width:1.0;"/><path d="M478.2656,1220.875 Q478.4219,1220.6563 478.6094,1220.5469 Q478.7969,1220.4375 479.0156,1220.4375 Q479.3906,1220.4375 479.625,1220.7031 Q479.8594,1220.9531 479.8594,1221.5625 L479.8594,1223.0156 Q479.8594,1223.625 479.625,1223.8906 Q479.3906,1224.1563 479.0156,1224.1563 Q478.6719,1224.1563 478.4688,1223.9531 Q478.2656,1223.7656 478.1563,1223.25 Q478.1094,1222.8906 477.9219,1222.7031 Q477.5938,1222.3281 476.9844,1222.1094 Q476.375,1221.8906 475.75,1221.8906 Q474.9844,1221.8906 474.3438,1222.2188 Q473.7188,1222.5469 473.2188,1223.2969 Q472.7344,1224.0469 472.7344,1225.0781 L472.7344,1226.1719 Q472.7344,1227.4063 473.625,1228.2344 Q474.5156,1229.0469 476.1094,1229.0469 Q477.0469,1229.0469 477.7031,1228.7969 Q478.0938,1228.6406 478.5156,1228.2031 Q478.7813,1227.9375 478.9219,1227.8594 Q479.0781,1227.7813 479.2813,1227.7813 Q479.6094,1227.7813 479.8594,1228.0469 Q480.125,1228.2969 480.125,1228.6406 Q480.125,1228.9844 479.7813,1229.3906 Q479.2813,1229.9688 478.4844,1230.2969 Q477.4063,1230.75 476.1094,1230.75 Q474.5938,1230.75 473.3906,1230.125 Q472.4063,1229.625 471.7188,1228.5625 Q471.0313,1227.4844 471.0313,1226.2031 L471.0313,1225.0469 Q471.0313,1223.7188 471.6406,1222.5781 Q472.2656,1221.4219 473.3594,1220.8125 Q474.4531,1220.1875 475.6875,1220.1875 Q476.4219,1220.1875 477.0625,1220.3594 Q477.7188,1220.5156 478.2656,1220.875 Z " fill="#000000"/><text fill="#000000" font-family="sans-serif" font-size="14" lengthAdjust="spacing" textLength="27" x="489.5" y="1230.7285">Text</text><line style="stroke:#181818;stroke-width:0.5;" x1="461.5" x2="518.5" y1="1241" y2="1241"/><line style="stroke:#181818;stroke-width:0.5;" x1="461.5" x2="518.5" y1="1249" y2="1249"/></g><!--link EducationPlatform to Teacher--><g id="link_EducationPlatform_Teacher"><path codeLine="6" d="M539,67.22 C539,85.16 539,91.89 539,109.83 " fill="none" id="EducationPlatform-Teacher" style="stroke:#181818;stroke-width:1.0;"/><polygon fill="#181818" points="539,55.22,535,61.22,539,67.22,543,61.22,539,55.22" style="stroke:#181818;stroke-width:1.0;"/><polygon fill="#181818" points="539,115.83,543,106.83,539,110.83,535,106.83,539,115.83" style="stroke:#181818;stroke-width:1.0;"/><text fill="#000000" font-family="sans-serif" font-size="13" lengthAdjust="spacing" textLength="8" x="529.975" y="105.1266">+</text></g><!--link EducationPlatform to Student--><g id="link_EducationPlatform_Student"><path codeLine="7" d="M624.0355,58.5237 C693.9155,80.3237 779.2322,106.9432 835.5222,124.5032 " fill="none" id="EducationPlatform-Student" style="stroke:#181818;stroke-width:1.0;"/><polygon fill="#181818" points="612.58,54.95,617.1165,60.5554,624.0355,58.5237,619.499,52.9183,612.58,54.95" style="stroke:#181818;stroke-width:1.0;"/><polygon fill="#181818" points="841.25,126.29,833.8496,119.7913,836.4769,124.801,831.4671,127.4283,841.25,126.29" style="stroke:#181818;stroke-width:1.0;"/><text fill="#000000" font-family="sans-serif" font-size="13" lengthAdjust="spacing" textLength="5" x="828.5461" y="119.9493">*</text></g><!--link EducationPlatform to Topic--><g id="link_EducationPlatform_Topic"><path codeLine="8" d="M453.3934,37.9792 C339.3634,47.6992 145,73.35 145,139 C145,139 145,139 145,402 C145,489.41 256.6844,532.6794 316.3344,549.8594 " fill="none" id="EducationPlatform-Topic" style="stroke:#181818;stroke-width:1.0;"/><polygon fill="#181818" points="465.35,36.96,459.0319,33.484,453.3934,37.9792,459.7114,41.4551,465.35,36.96" style="stroke:#181818;stroke-width:1.0;"/><polygon fill="#181818" points="322.1,551.52,314.5586,545.1854,317.2953,550.1362,312.3445,552.8729,322.1,551.52" style="stroke:#181818;stroke-width:1.0;"/><text fill="#000000" font-family="sans-serif" font-size="13" lengthAdjust="spacing" textLength="8" x="306.2831" y="545.4864">+</text></g><!--link EducationPlatform to Itinerary--><g id="link_EducationPlatform_Itinerary"><path codeLine="9" d="M453.55,43.3617 C340.73,61.3717 155.65,106.67 213,212 C273.55,323.22 422.9183,371.659 498.0983,389.849 " fill="none" id="EducationPlatform-Itinerary" style="stroke:#181818;stroke-width:1.0;"/><polygon fill="#181818" points="465.4,41.47,458.8445,38.4658,453.55,43.3617,460.1056,46.3658,465.4,41.47" style="stroke:#181818;stroke-width:1.0;"/><polygon fill="#181818" points="503.93,391.26,496.1231,385.2557,499.0702,390.0842,494.2417,393.0313,503.93,391.26" style="stroke:#181818;stroke-width:1.0;"/><text fill="#000000" font-family="sans-serif" font-size="13" lengthAdjust="spacing" textLength="257" x="214" y="208.4951">[itineraries-&gt;select(i | !i.isCustom)-&gt;size()=1]</text><text fill="#000000" font-family="sans-serif" font-size="13" lengthAdjust="spacing" textLength="8" x="488.0117" y="385.7698">+</text></g><!--link EducationPlatform to Chat--><g id="link_EducationPlatform_Chat"><path codeLine="10" d="M624.7831,38.357 C707.7831,46.467 832.98,65.7 940,116 C990.38,139.68 1006.01,148.44 1038,194 C1048.02,208.27 1052.7225,221.2174 1056.2625,235.8874 " fill="none" id="EducationPlatform-Chat" style="stroke:#181818;stroke-width:1.0;"/><polygon fill="#181818" points="612.84,37.19,618.4226,41.7545,624.7831,38.357,619.2006,33.7924,612.84,37.19" style="stroke:#181818;stroke-width:1.0;"/><polygon fill="#181818" points="1057.67,241.72,1059.4472,232.0328,1056.4971,236.8595,1051.6704,233.9094,1057.67,241.72" style="stroke:#181818;stroke-width:1.0;"/></g><!--link Itinerary to Topic--><g id="link_Itinerary_Topic"><path codeLine="12" d="M521.8705,444.6381 C509.5205,464.8381 497.85,480.06 477,498 C450.97,520.4 421.0003,535.1153 395.1803,545.5853 " fill="none" id="Itinerary-Topic" style="stroke:#181818;stroke-width:1.0;"/><polygon fill="none" points="528.13,434.4,521.5876,437.4326,521.8705,444.6381,528.413,441.6055,528.13,434.4" style="stroke:#181818;stroke-width:1.0;"/><polygon fill="#181818" points="389.62,547.84,399.4635,548.1648,394.2535,545.9611,396.4573,540.7511,389.62,547.84" style="stroke:#181818;stroke-width:1.0;"/><text fill="#000000" font-family="sans-serif" font-size="13" lengthAdjust="spacing" textLength="8" x="397.3791" y="541.0474">+</text></g><!--reverse link Exercise to Domain--><g id="link_Exercise_Domain"><path codeLine="17" d="M1166.2714,446.1903 C1171.3014,476.7103 1176.75,509.85 1181.2,536.9 " fill="none" id="Exercise-backto-Domain" style="stroke:#181818;stroke-width:1.0;"/><polygon fill="#181818" points="1164.32,434.35,1161.3489,440.9206,1166.2714,446.1903,1169.2425,439.6197,1164.32,434.35" style="stroke:#181818;stroke-width:1.0;"/></g><!--reverse link Domain to Answer--><g id="link_Domain_Answer"><path codeLine="19" d="M1212.2928,594.4447 C1233.7928,620.0147 1260.75,652.06 1284.87,680.74 " fill="none" id="Domain-backto-Answer" style="stroke:#181818;stroke-width:1.0;"/><polygon fill="#181818" points="1204.57,585.26,1205.3698,592.4266,1212.2928,594.4447,1211.493,587.2781,1204.57,585.26" style="stroke:#181818;stroke-width:1.0;"/><text fill="#000000" font-family="sans-serif" font-size="13" lengthAdjust="spacing" textLength="8" x="1270.7413" y="670.1851">+</text></g><!--reverse link Domain to StatementType--><g id="link_Domain_StatementType"><path codeLine="20" d="M1181.7373,597.2092 C1180.0273,615.7392 1178.64,630.56 1176.4,654.81 " fill="none" id="Domain-backto-StatementType" style="stroke:#181818;stroke-width:1.0;"/><polygon fill="#181818" points="1182.84,585.26,1178.3056,590.867,1181.7373,597.2092,1186.2717,591.6022,1182.84,585.26" style="stroke:#181818;stroke-width:1.0;"/></g><!--reverse link Answer to Justification--><g id="link_Answer_Justification"><path codeLine="32" d="M1290.2672,757.6732 C1248.1772,838.4932 1133.61,1043.29 984,1179 C971.34,1190.49 955.76,1200.56 941.01,1208.76 " fill="none" id="Answer-backto-Justification" style="stroke:#181818;stroke-width:1.0;"/><polygon fill="none" points="1295.81,747.03,1289.4909,750.504,1290.2672,757.6732,1296.5863,754.1992,1295.81,747.03" style="stroke:#181818;stroke-width:1.0;"/><text fill="#000000" font-family="sans-serif" font-size="13" lengthAdjust="spacing" textLength="108" x="1127" y="1031.4951">[!answer.isCorrect]</text><text fill="#000000" font-family="sans-serif" font-size="13" lengthAdjust="spacing" textLength="22" x="929.0063" y="1198.0387">0..1</text></g><!--reverse link Answer to Application--><g id="link_Answer_Application"><path codeLine="33" d="M1272.9172,759.9816 C1263.5472,769.5516 1264.93,766.38 1253,773 C1203.03,800.7 1178.2,775.72 1128,803 C1085.22,826.25 1046.48,868.51 1024.9,894.82 " fill="none" id="Answer-backto-Application" style="stroke:#181818;stroke-width:1.0;"/><polygon fill="none" points="1285.51,747.12,1268.63,755.784,1277.2044,764.1792,1285.51,747.12" style="stroke:#181818;stroke-width:1.0;"/></g><!--link Teacher to Application--><g id="link_Teacher_Application"><path codeLine="35" d="M581.71,151.78 C632.36,167.43 710,201.74 710,265 C710,265 710,265 710,715 C710,832.89 865.6171,885.8839 950.4471,906.3339 " fill="none" id="Teacher-to-Application" style="stroke:#181818;stroke-width:1.0;stroke-dasharray:7.0,7.0;"/><polygon fill="#181818" points="956.28,907.74,948.4681,901.7422,951.4192,906.5682,946.5932,909.5194,956.28,907.74" style="stroke:#181818;stroke-width:1.0;"/><text fill="#000000" font-family="sans-serif" font-size="13" lengthAdjust="spacing" textLength="35" x="778.5" y="478.4951">review</text><text fill="#000000" font-family="sans-serif" font-size="13" lengthAdjust="spacing" textLength="170" x="715" y="494.8467">[application.isCorrect == null]</text></g><!--link Teacher to Topic--><g id="link_Teacher_Topic"><path codeLine="36" d="M528.9,164.12 C498.14,234.55 407.9615,441.0216 372.4615,522.3016 " fill="none" id="Teacher-to-Topic" style="stroke:#181818;stroke-width:1.0;stroke-dasharray:7.0,7.0;"/><polygon fill="#181818" points="370.06,527.8,377.3279,521.1534,372.0613,523.218,369.9966,517.9513,370.06,527.8" style="stroke:#181818;stroke-width:1.0;"/><text fill="#000000" font-family="sans-serif" font-size="13" lengthAdjust="spacing" textLength="21" x="461" y="334.4951">edit</text></g><!--link Teacher to Itinerary--><g id="link_Teacher_Itinerary"><path codeLine="37" d="M539.63,164.44 C540.89,210.89 543.528,308.6822 544.958,361.6122 " fill="none" id="Teacher-to-Itinerary" style="stroke:#181818;stroke-width:1.0;stroke-dasharray:7.0,7.0;"/><polygon fill="#181818" points="545.12,367.61,548.8755,358.5053,544.985,362.6118,540.8784,358.7213,545.12,367.61" style="stroke:#181818;stroke-width:1.0;"/><text fill="#000000" font-family="sans-serif" font-size="13" lengthAdjust="spacing" textLength="21" x="588.5" y="263.4951">edit</text><text fill="#000000" font-family="sans-serif" font-size="13" lengthAdjust="spacing" textLength="116" x="543" y="279.8467">[!itinerary.isCustom]</text></g><!--reverse link Chat to Exercise--><g id="link_Chat_Exercise"><path codeLine="39" d="M1085.9712,299.8652 C1101.6012,321.2952 1117.92,343.67 1135.4,367.63 " fill="none" id="Chat-backto-Exercise" style="stroke:#181818;stroke-width:1.0;"/><polygon fill="none" points="1078.9,290.17,1079.2039,297.3747,1085.9712,299.8652,1085.6674,292.6605,1078.9,290.17" style="stroke:#181818;stroke-width:1.0;"/></g><!--link Chat to Application--><g id="link_Chat_Application"><path codeLine="40" d="M1059.77,290.04 C1057.4,316.54 1054,361.37 1054,400 C1054,400 1054,400 1054,715 C1054,781.74 1031.6536,852.086 1018.0136,889.326 " fill="none" id="Chat-to-Application" style="stroke:#181818;stroke-width:1.0;stroke-dasharray:7.0,7.0;"/><polygon fill="#181818" points="1015.95,894.96,1022.8013,887.8848,1017.6696,890.265,1015.2894,885.1333,1015.95,894.96" style="stroke:#181818;stroke-width:1.0;"/><text fill="#000000" font-family="sans-serif" font-size="13" lengthAdjust="spacing" textLength="54" x="1055" y="566.4951">constrast</text></g><!--link Student to Itinerary--><g id="link_Student_Itinerary"><path codeLine="42" d="M851.89,164.21 C791.64,210.65 660.9521,311.397 592.3121,364.307 " fill="none" id="Student-to-Itinerary" style="stroke:#181818;stroke-width:1.0;stroke-dasharray:7.0,7.0;"/><polygon fill="#181818" points="587.56,367.97,597.1301,365.6435,591.5201,364.9175,592.2461,359.3074,587.56,367.97" style="stroke:#181818;stroke-width:1.0;"/><text fill="#000000" font-family="sans-serif" font-size="13" lengthAdjust="spacing" textLength="21" x="792" y="263.4951">edit</text><text fill="#000000" font-family="sans-serif" font-size="13" lengthAdjust="spacing" textLength="113" x="748" y="279.8467">[itinerary.isCustom]</text></g><!--link Student to Application--><g id="link_Student_Application"><path codeLine="43" d="M919.1939,172.6179 C943.5639,195.4679 966,224.44 966,265 C966,265 966,265 966,715 C966,781.34 985.4804,851.7826 997.3704,889.1426 " fill="none" id="Student-Application" style="stroke:#181818;stroke-width:1.0;"/><polygon fill="none" points="910.44,164.41,912.081,171.4319,919.1939,172.6179,917.5529,165.596,910.44,164.41" style="stroke:#181818;stroke-width:1.0;"/><polygon fill="#181818" points="999.19,894.86,1000.2722,885.0708,997.6737,890.0955,992.649,887.4969,999.19,894.86" style="stroke:#181818;stroke-width:1.0;"/><text fill="#000000" font-family="sans-serif" font-size="13" lengthAdjust="spacing" textLength="14" x="967" y="486.4951">do</text><text fill="#000000" font-family="sans-serif" font-size="13" lengthAdjust="spacing" textLength="8" x="988.1637" y="884.1643">+</text></g><!--link Student to Chat--><g id="link_Student_Chat"><path codeLine="44" d="M922.57,158.75 C942.15,168.08 965.55,180.4 985,194 C1005.12,208.06 1021.1989,222.7859 1035.9089,237.5759 " fill="none" id="Student-to-Chat" style="stroke:#181818;stroke-width:1.0;stroke-dasharray:7.0,7.0;"/><polygon fill="#181818" points="1040.14,241.83,1036.6294,232.6281,1036.6141,238.2849,1030.9572,238.2696,1040.14,241.83" style="stroke:#181818;stroke-width:1.0;"/><text fill="#000000" font-family="sans-serif" font-size="13" lengthAdjust="spacing" textLength="21" x="1008" y="208.4951">ask</text></g><!--reverse link Topic to CompositeTopic--><g id="link_Topic_CompositeTopic"><path codeLine="49" d="M304.5607,569.2523 C261.3207,576.6923 205.44,591.49 151,624 C121.48,641.63 93.67,669.98 79.7,689.93 " fill="none" id="Topic-backto-CompositeTopic" style="stroke:#181818;stroke-width:1.0;stroke-dasharray:7.0,7.0;"/><polygon fill="none" points="322.3,566.2,303.5433,563.3392,305.5781,575.1654,322.3,566.2" style="stroke:#181818;stroke-width:1.0;"/></g><!--link CompositeTopic to Topic--><g id="link_CompositeTopic_Topic"><path codeLine="56" d="M116.0151,681.7555 C137.4551,661.8055 156.48,641.63 186,624 C229.97,597.75 280.6337,582.5621 316.6137,573.1921 " fill="none" id="CompositeTopic-Topic" style="stroke:#181818;stroke-width:1.0;"/><polygon fill="none" points="107.23,689.93,114.3474,688.7711,116.0151,681.7555,108.8977,682.9144,107.23,689.93" style="stroke:#181818;stroke-width:1.0;"/><polygon fill="#181818" points="322.42,571.68,312.7024,570.0773,317.5814,572.9401,314.7186,577.819,322.42,571.68" style="stroke:#181818;stroke-width:1.0;"/><text fill="#000000" font-family="sans-serif" font-size="13" lengthAdjust="spacing" textLength="8" x="306.6691" y="569.8044">+</text></g><!--reverse link Topic to SimpleTopic--><g id="link_Topic_SimpleTopic"><path codeLine="50" d="M338.4896,610.9691 C328.2096,639.7191 319.43,664.26 310.27,689.88 " fill="none" id="Topic-backto-SimpleTopic" style="stroke:#181818;stroke-width:1.0;stroke-dasharray:7.0,7.0;"/><polygon fill="none" points="344.55,594.02,332.8399,608.949,344.1393,612.9892,344.55,594.02" style="stroke:#181818;stroke-width:1.0;"/></g><!--link Topic to Concept--><g id="link_Topic_Concept"><path codeLine="51" d="M401.6969,568.934 C449.2769,577.574 523.17,598.31 567,655 C622.45,726.71 604.8323,838.9721 593.3923,888.8121 " fill="none" id="Topic-Concept" style="stroke:#181818;stroke-width:1.0;"/><polygon fill="none" points="389.89,566.79,395.0788,571.7976,401.6969,568.934,396.5081,563.9264,389.89,566.79" style="stroke:#181818;stroke-width:1.0;"/><polygon fill="#181818" points="592.05,894.66,597.9621,886.783,593.1686,889.7867,590.1648,884.9932,592.05,894.66" style="stroke:#181818;stroke-width:1.0;"/><text fill="#000000" font-family="sans-serif" font-size="13" lengthAdjust="spacing" textLength="5" x="587.9153" y="884.3151">*</text></g><!--link Topic to Document--><g id="link_Topic_Document"><path codeLine="52" d="M367.2974,605.8636 C377.0674,647.5636 387.34,710.62 374,773 C364.25,818.59 342.0362,861.9816 326.0362,889.7416 " fill="none" id="Topic-Document" style="stroke:#181818;stroke-width:1.0;"/><polygon fill="#181818" points="364.56,594.18,362.0342,600.9343,367.2974,605.8636,369.8232,599.1093,364.56,594.18" style="stroke:#181818;stroke-width:1.0;"/><polygon fill="#181818" points="323.04,894.94,330.9998,889.1399,325.5368,890.608,324.0687,885.145,323.04,894.94" style="stroke:#181818;stroke-width:1.0;"/></g><!--link Topic to Relation--><g id="link_Topic_Relation"><path codeLine="53" d="M399.4143,592.497 C414.2743,603.467 421.86,610.06 436,624 C456.83,644.54 473.7915,666.22 487.3515,684.95 " fill="none" id="Topic-Relation" style="stroke:#181818;stroke-width:1.0;"/><polygon fill="#181818" points="389.76,585.37,392.2115,592.1516,399.4143,592.497,396.9628,585.7154,389.76,585.37" style="stroke:#181818;stroke-width:1.0;"/><polygon fill="#181818" points="490.87,689.81,488.8322,680.1743,487.9379,685.76,482.3522,684.8656,490.87,689.81" style="stroke:#181818;stroke-width:1.0;"/><text fill="#000000" font-family="sans-serif" font-size="13" lengthAdjust="spacing" textLength="5" x="481.0961" y="679.1015">*</text></g><!--link Topic to VideoWithAudio--><g id="link_Topic_VideoWithAudio"><path codeLine="54" d="M311.5788,581.2382 C281.1888,595.9482 249.17,617.02 230,655 C157.1,799.41 218.271,999.5371 243.051,1068.1171 " fill="none" id="Topic-VideoWithAudio" style="stroke:#181818;stroke-width:1.0;"/><polygon fill="none" points="322.38,576.01,315.2367,575.0237,311.5788,581.2382,318.7221,582.2245,322.38,576.01" style="stroke:#181818;stroke-width:1.0;"/><polygon fill="#181818" points="245.09,1073.76,245.7935,1063.9363,243.3909,1069.0576,238.2696,1066.6549,245.09,1073.76" style="stroke:#181818;stroke-width:1.0;"/><text fill="#000000" font-family="sans-serif" font-size="13" lengthAdjust="spacing" textLength="8" x="233.7818" y="1063.0387">+</text></g><!--link Concept to Definition--><g id="link_Concept_Definition"><path codeLine="58" d="M624.1099,950.662 C662.7799,981.772 717.6851,1025.9489 761.3751,1061.0989 " fill="none" id="Concept-Definition" style="stroke:#181818;stroke-width:1.0;"/><polygon fill="#181818" points="614.76,943.14,616.9276,950.0176,624.1099,950.662,621.9423,943.7844,614.76,943.14" style="stroke:#181818;stroke-width:1.0;"/><polygon fill="#181818" points="766.05,1064.86,761.5451,1056.1018,762.1543,1061.7258,756.5303,1062.335,766.05,1064.86" style="stroke:#181818;stroke-width:1.0;"/><text fill="#000000" font-family="sans-serif" font-size="13" lengthAdjust="spacing" textLength="191" x="729" y="1031.4951">[definitions-&gt;exits(d | d.isCorrect]</text><text fill="#000000" font-family="sans-serif" font-size="13" lengthAdjust="spacing" textLength="8" x="748.9853" y="1053.9465">+</text></g><!--link Concept to VideoWithAudio--><g id="link_Concept_VideoWithAudio"><path codeLine="59" d="M562.1673,952.7458 C551.1573,966.9158 542.99,975.06 526,987 C516.78,993.48 395.8649,1041.387 318.6749,1071.697 " fill="none" id="Concept-VideoWithAudio" style="stroke:#181818;stroke-width:1.0;"/><polygon fill="none" points="569.53,943.27,562.6901,945.5537,562.1673,952.7458,569.0073,950.4621,569.53,943.27" style="stroke:#181818;stroke-width:1.0;"/><polygon fill="#181818" points="313.09,1073.89,322.9293,1074.3238,317.7441,1072.0625,320.0053,1066.8773,313.09,1073.89" style="stroke:#181818;stroke-width:1.0;"/><text fill="#000000" font-family="sans-serif" font-size="13" lengthAdjust="spacing" textLength="5" x="322.5912" y="1063.202">*</text></g><!--link Relation to Concept--><g id="link_Relation_Concept"><path codeLine="61" d="M501.91,738.11 C498.13,760.12 495.15,793.83 505,821 C508.14,829.66 538.0566,864.2431 560.9966,890.0831 " fill="none" id="Relation-to-Concept" style="stroke:#181818;stroke-width:1.0;"/><polygon fill="#181818" points="564.98,894.57,561.9962,885.184,561.6605,890.8309,556.0136,890.4952,564.98,894.57" style="stroke:#181818;stroke-width:1.0;"/><text fill="#000000" font-family="sans-serif" font-size="13" lengthAdjust="spacing" textLength="31" x="506" y="817.4951">origin</text></g><!--link Relation to Concept--><g id="link_Relation_Concept"><path codeLine="62" d="M516.29,738.13 C523.4,755.86 533.39,780.94 542,803 C554.35,834.66 566.2127,865.7498 575.0327,889.0098 " fill="none" id="Relation-to-Concept-1" style="stroke:#181818;stroke-width:1.0;"/><polygon fill="#181818" points="577.16,894.62,577.7091,884.7865,575.3872,889.9448,570.2288,887.6229,577.16,894.62" style="stroke:#181818;stroke-width:1.0;"/><text fill="#000000" font-family="sans-serif" font-size="13" lengthAdjust="spacing" textLength="33" x="549" y="817.4951">target</text></g><!--link Relation to RelationType--><g id="link_Relation_RelationType"><path codeLine="63" d="M491.59,749.0994 C483.91,766.6094 478.58,780.43 472,803 C467.53,818.32 464.8995,829.1731 461.7795,845.0131 " fill="none" id="Relation-RelationType" style="stroke:#181818;stroke-width:1.0;"/><polygon fill="#181818" points="496.41,738.11,490.3368,741.998,491.59,749.0994,497.6631,745.2114,496.41,738.11" style="stroke:#181818;stroke-width:1.0;"/><polygon fill="#181818" points="460.62,850.9,466.2839,842.8427,461.5863,845.9943,458.4347,841.2966,460.62,850.9" style="stroke:#181818;stroke-width:1.0;"/></g><!--link Definition to Justification--><g id="link_Definition_Justification"><path codeLine="76" d="M833.0435,1141.3105 C848.3735,1165.2905 859.2486,1182.3145 872.9786,1203.7945 " fill="none" id="Definition-Justification" style="stroke:#181818;stroke-width:1.0;"/><polygon fill="none" points="826.58,1131.2,826.4416,1138.4098,833.0435,1141.3105,833.1819,1134.1008,826.58,1131.2" style="stroke:#181818;stroke-width:1.0;"/><polygon fill="#181818" points="876.21,1208.85,874.7331,1199.1125,873.5171,1204.6371,867.9925,1203.4211,876.21,1208.85" style="stroke:#181818;stroke-width:1.0;"/><text fill="#000000" font-family="sans-serif" font-size="13" lengthAdjust="spacing" textLength="118" x="857" y="1175.4951">[!definition.isCorrect]</text><text fill="#000000" font-family="sans-serif" font-size="13" lengthAdjust="spacing" textLength="8" x="863.3951" y="1198.1517">+</text></g><!--link Document to VideoWithAudio--><g id="link_Document_VideoWithAudio"><path codeLine="78" d="M298.2492,954.5995 C287.7092,988.5195 273.5104,1034.2002 262.9704,1068.1202 " fill="none" id="Document-VideoWithAudio" style="stroke:#181818;stroke-width:1.0;"/><polygon fill="none" points="301.81,943.14,296.2097,947.6828,298.2492,954.5995,303.8494,950.0567,301.81,943.14" style="stroke:#181818;stroke-width:1.0;"/><polygon fill="#181818" points="261.19,1073.85,267.6805,1066.4423,262.6737,1069.0752,260.0408,1064.0684,261.19,1073.85" style="stroke:#181818;stroke-width:1.0;"/><text fill="#000000" font-family="sans-serif" font-size="13" lengthAdjust="spacing" textLength="5" x="257.3918" y="1063.1517">*</text></g><!--link Document to Media--><g id="link_Document_Media"><path codeLine="79" d="M324.7658,954.0276 C340.4858,987.9476 362.0371,1034.4862 377.7571,1068.4062 " fill="none" id="Document-Media" style="stroke:#181818;stroke-width:1.0;"/><polygon fill="none" points="319.72,943.14,318.6137,950.2657,324.7658,954.0276,325.8721,946.9019,319.72,943.14" style="stroke:#181818;stroke-width:1.0;"/><polygon fill="#181818" points="380.28,1073.85,380.1249,1064.0024,378.1776,1069.3135,372.8665,1067.3662,380.28,1073.85" style="stroke:#181818;stroke-width:1.0;"/><text fill="#000000" font-family="sans-serif" font-size="13" lengthAdjust="spacing" textLength="5" x="371.8924" y="1063.1517">*</text></g><!--link VideoWithAudio to Audio--><g id="link_VideoWithAudio_Audio"><path codeLine="81" d="M257.189,1134.1249 C258.729,1150.1349 259.96,1159.95 263,1179 C264.57,1188.84 265.4754,1193.7426 267.4554,1203.0026 " fill="none" id="VideoWithAudio-Audio" style="stroke:#181818;stroke-width:1.0;"/><polygon fill="#181818" points="256.04,1122.18,252.6329,1128.5354,257.189,1134.1249,260.5961,1127.7694,256.04,1122.18" style="stroke:#181818;stroke-width:1.0;"/><polygon fill="#181818" points="268.71,1208.87,270.7397,1199.2326,267.6645,1203.9805,262.9166,1200.9053,268.71,1208.87" style="stroke:#181818;stroke-width:1.0;"/></g><!--link VideoWithAudio to Video--><g id="link_VideoWithAudio_Video"><path codeLine="82" d="M283.5684,1130.9793 C306.0084,1155.2393 328.8363,1179.9149 351.3363,1204.2449 " fill="none" id="VideoWithAudio-Video" style="stroke:#181818;stroke-width:1.0;"/><polygon fill="#181818" points="275.42,1122.17,276.5578,1129.2908,283.5684,1130.9793,282.4306,1123.8585,275.42,1122.17" style="stroke:#181818;stroke-width:1.0;"/><polygon fill="#181818" points="355.41,1208.65,352.2361,1199.3266,352.0152,1204.9791,346.3627,1204.7582,355.41,1208.65" style="stroke:#181818;stroke-width:1.0;"/></g><!--reverse link Media to Image--><g id="link_Media_Image"><path codeLine="85" d="M442.301,1128.0457 C462.631,1139.7757 472.81,1146.15 495,1161 C517.59,1176.11 542.14,1194.52 560.63,1208.8 " fill="none" id="Media-backto-Image" style="stroke:#181818;stroke-width:1.0;"/><polygon fill="none" points="426.71,1119.05,439.3024,1133.2427,445.2995,1122.8487,426.71,1119.05" style="stroke:#181818;stroke-width:1.0;"/></g><!--reverse link Media to Text--><g id="link_Media_Text"><path codeLine="86" d="M440.5424,1133.2451 C454.1924,1143.7151 454.69,1146.12 465,1161 C474.97,1175.39 481.36,1194.17 485.17,1208.8 " fill="none" id="Media-backto-Text" style="stroke:#181818;stroke-width:1.0;"/><polygon fill="none" points="426.26,1122.29,436.8907,1138.0059,444.1941,1128.4843,426.26,1122.29" style="stroke:#181818;stroke-width:1.0;"/></g><!--reverse link Media to Audio--><g id="link_Media_Audio"><path codeLine="87" d="M358.7315,1135.6853 C337.3915,1159.9453 315.94,1184.32 294.54,1208.65 " fill="none" id="Media-backto-Audio" style="stroke:#181818;stroke-width:1.0;"/><polygon fill="none" points="370.62,1122.17,354.2264,1131.7224,363.2366,1139.6481,370.62,1122.17" style="stroke:#181818;stroke-width:1.0;"/></g><!--reverse link Media to Video--><g id="link_Media_Video"><path codeLine="88" d="M386.6784,1140.0714 C384.1284,1164.3314 382.02,1184.32 379.46,1208.65 " fill="none" id="Media-backto-Video" style="stroke:#181818;stroke-width:1.0;"/><polygon fill="none" points="388.56,1122.17,380.7112,1139.4442,392.6455,1140.6986,388.56,1122.17" style="stroke:#181818;stroke-width:1.0;"/></g><!--reverse link Audio to Text--><g id="link_Audio_Text"><path codeLine="90" d="M312.4191,1205.6577 C334.0891,1191.5577 358.57,1178.39 387.5,1171 C418.94,1162.97 433.07,1153.67 460.5,1171 C473.6,1179.28 481,1195.13 485.12,1208.74 " fill="none" id="Audio-backto-Text" style="stroke:#181818;stroke-width:1.0;"/><polygon fill="#181818" points="307.39,1208.93,317.1152,1207.3743,311.5809,1206.2031,312.7522,1200.6688,307.39,1208.93" style="stroke:#181818;stroke-width:1.0;"/><text fill="#000000" font-family="sans-serif" font-size="13" lengthAdjust="spacing" textLength="71" x="388.5" y="1175.4951">transcription</text><text fill="#000000" font-family="sans-serif" font-size="13" lengthAdjust="spacing" textLength="22" x="291.1274" y="1198.2522">0..1</text></g><!--SRC=[VLHDRzim3BthLx0vzGCnrckm5WZI7ZfWmB1csw7BGREPb9Xj6PBS9ltuxwCaovQNfBd48gb7yl5HUIcDWJjBDMgfT_0gW7zJ8BDeZLMLU1VYjcXpQKdLtqffrqfNS3wTNiFaOW9BbFaZwgCXvnEujss1jVqGHJMKVnJGrpU31-g-2Stqsc29kJqbU8CJocBHP-oW5pmzkxfS7ODTF4ehnD2u6XSZSa_CxHPrJWO3BHVmXDem5BCIFGuDRbGbgHOY_7kJWvhNvfd9IQptLbgic8xbha4Xi6whiIqaMfJg1PTeh3_Tu9fgSYtuutSiVJyUmXc-SDEqtisRfgJGgfjQQ22Ka4nLQSsCSK3mkBvXyYdBBYSTJWV1J9z87vBrjrRnqkStlfNc4vqG8CkkKySCD3uHFiFl6XxaO1ymuUeAwhOiLoC8FuGPO44siRCZKO9pCkx3ILJ4hXV0IWWtNzzS75ImxDMNgzfOBPbgqIdrQA93UUATNZuZy48be45pCv3chn3oZylAxVjE-_dK1MvvDjx8B6SPB5JLA4CMWouJpprLJJaogxXp2rNdsDZExFL-e_BMYIorkT2efX44z_6J2bI_o3xEsu8KypcgOszTkep3oWwYPIKL_O5t5hTapMd1Arkaqee8VHF_Ln0h1R- -8Ne6IjE6L- -mqqgzGJiuVNMZ_Gahc9gw9_272SirDqRb9FljYpp4yrtDsYGhEME8tsmqRhejXBY60njmQ1SJjslVyRUtZ0E7AMiYplKeR_i1NrdGKeXnNE0cN3dayRP4jnu4Njz5-F0lmbqbDvWQbhYrwJdWfPOErWN2jCIrTJM6vyW7ymmrFqEvfiPJ-Wy0]--></g></svg>