<?xml version="1.0" encoding="us-ascii" standalone="no"?><svg xmlns="http://www.w3.org/2000/svg" xmlns:xlink="http://www.w3.org/1999/xlink" contentStyleType="text/css" height="1264px" preserveAspectRatio="none" style="width:1363px;height:1264px;background:#FFFFFF;" version="1.1" viewBox="0 0 1363 1264" width="1363px" zoomAndPan="magnify"><defs/><g><!--class Itinerary--><g id="elem_Itinerary"><rect codeLine="2" fill="#F1F1F1" height="65.6094" id="Itinerary" rx="2.5" ry="2.5" style="stroke:#181818;stroke-width:0.5;" width="84" x="507" y="368"/><ellipse cx="522.45" cy="384" fill="#ADD1B2" rx="11" ry="11" style="stroke:#181818;stroke-width:1.0;"/><path d="M525.2156,379.875 Q525.3719,379.6563 525.5594,379.5469 Q525.7469,379.4375 525.9656,379.4375 Q526.3406,379.4375 526.575,379.7031 Q526.8094,379.9531 526.8094,380.5625 L526.8094,382.0156 Q526.8094,382.625 526.575,382.8906 Q526.3406,383.1563 525.9656,383.1563 Q525.6219,383.1563 525.4188,382.9531 Q525.2156,382.7656 525.1063,382.25 Q525.0594,381.8906 524.8719,381.7031 Q524.5438,381.3281 523.9344,381.1094 Q523.325,380.8906 522.7,380.8906 Q521.9344,380.8906 521.2938,381.2188 Q520.6688,381.5469 520.1688,382.2969 Q519.6844,383.0469 519.6844,384.0781 L519.6844,385.1719 Q519.6844,386.4063 520.575,387.2344 Q521.4656,388.0469 523.0594,388.0469 Q523.9969,388.0469 524.6531,387.7969 Q525.0438,387.6406 525.4656,387.2031 Q525.7313,386.9375 525.8719,386.8594 Q526.0281,386.7813 526.2313,386.7813 Q526.5594,386.7813 526.8094,387.0469 Q527.075,387.2969 527.075,387.6406 Q527.075,387.9844 526.7313,388.3906 Q526.2313,388.9688 525.4344,389.2969 Q524.3563,389.75 523.0594,389.75 Q521.5438,389.75 520.3406,389.125 Q519.3563,388.625 518.6688,387.5625 Q517.9813,386.4844 517.9813,385.2031 L517.9813,384.0469 Q517.9813,382.7188 518.5906,381.5781 Q519.2156,380.4219 520.3094,379.8125 Q521.4031,379.1875 522.6375,379.1875 Q523.3719,379.1875 524.0125,379.3594 Q524.6688,379.5156 525.2156,379.875 Z " fill="#000000"/><text fill="#000000" font-family="sans-serif" font-size="14" lengthAdjust="spacing" textLength="51" x="536.55" y="389.7285">Itinerary</text><line style="stroke:#181818;stroke-width:0.5;" x1="508" x2="590" y1="400" y2="400"/><rect fill="none" height="6" style="stroke:#C82930;stroke-width:1.0;" width="6" x="515" y="411.3047"/><text fill="#000000" font-family="sans-serif" font-size="14" lengthAdjust="spacing" textLength="58" x="527" y="418.5332">isCustom</text><line style="stroke:#181818;stroke-width:0.5;" x1="508" x2="590" y1="425.6094" y2="425.6094"/></g><!--class EducationPlatform--><g id="elem_EducationPlatform"><rect fill="#F1F1F1" height="48" id="EducationPlatform" rx="2.5" ry="2.5" style="stroke:#181818;stroke-width:0.5;" width="147" x="468.5" y="7"/><ellipse cx="483.5" cy="23" fill="#ADD1B2" rx="11" ry="11" style="stroke:#181818;stroke-width:1.0;"/><path d="M486.2656,18.875 Q486.4219,18.6563 486.6094,18.5469 Q486.7969,18.4375 487.0156,18.4375 Q487.3906,18.4375 487.625,18.7031 Q487.8594,18.9531 487.8594,19.5625 L487.8594,21.0156 Q487.8594,21.625 487.625,21.8906 Q487.3906,22.1563 487.0156,22.1563 Q486.6719,22.1563 486.4688,21.9531 Q486.2656,21.7656 486.1563,21.25 Q486.1094,20.8906 485.9219,20.7031 Q485.5938,20.3281 484.9844,20.1094 Q484.375,19.8906 483.75,19.8906 Q482.9844,19.8906 482.3438,20.2188 Q481.7188,20.5469 481.2188,21.2969 Q480.7344,22.0469 480.7344,23.0781 L480.7344,24.1719 Q480.7344,25.4063 481.625,26.2344 Q482.5156,27.0469 484.1094,27.0469 Q485.0469,27.0469 485.7031,26.7969 Q486.0938,26.6406 486.5156,26.2031 Q486.7813,25.9375 486.9219,25.8594 Q487.0781,25.7813 487.2813,25.7813 Q487.6094,25.7813 487.8594,26.0469 Q488.125,26.2969 488.125,26.6406 Q488.125,26.9844 487.7813,27.3906 Q487.2813,27.9688 486.4844,28.2969 Q485.4063,28.75 484.1094,28.75 Q482.5938,28.75 481.3906,28.125 Q480.4063,27.625 479.7188,26.5625 Q479.0313,25.4844 479.0313,24.2031 L479.0313,23.0469 Q479.0313,21.7188 479.6406,20.5781 Q480.2656,19.4219 481.3594,18.8125 Q482.4531,18.1875 483.6875,18.1875 Q484.4219,18.1875 485.0625,18.3594 Q485.7188,18.5156 486.2656,18.875 Z " fill="#000000"/><text fill="#000000" font-family="sans-serif" font-size="14" lengthAdjust="spacing" textLength="115" x="497.5" y="28.7285">EducationPlatform</text><line style="stroke:#181818;stroke-width:0.5;" x1="469.5" x2="614.5" y1="39" y2="39"/><line style="stroke:#181818;stroke-width:0.5;" x1="469.5" x2="614.5" y1="47" y2="47"/></g><!--class Teacher--><g id="elem_Teacher"><rect fill="#F1F1F1" height="48" id="Teacher" rx="2.5" ry="2.5" style="stroke:#181818;stroke-width:0.5;" width="85" x="499.5" y="116"/><ellipse cx="514.5" cy="132" fill="#ADD1B2" rx="11" ry="11" style="stroke:#181818;stroke-width:1.0;"/><path d="M517.2656,127.875 Q517.4219,127.6563 517.6094,127.5469 Q517.7969,127.4375 518.0156,127.4375 Q518.3906,127.4375 518.625,127.7031 Q518.8594,127.9531 518.8594,128.5625 L518.8594,130.0156 Q518.8594,130.625 518.625,130.8906 Q518.3906,131.1563 518.0156,131.1563 Q517.6719,131.1563 517.4688,130.9531 Q517.2656,130.7656 517.1563,130.25 Q517.1094,129.8906 516.9219,129.7031 Q516.5938,129.3281 515.9844,129.1094 Q515.375,128.8906 514.75,128.8906 Q513.9844,128.8906 513.3438,129.2188 Q512.7188,129.5469 512.2188,130.2969 Q511.7344,131.0469 511.7344,132.0781 L511.7344,133.1719 Q511.7344,134.4063 512.625,135.2344 Q513.5156,136.0469 515.1094,136.0469 Q516.0469,136.0469 516.7031,135.7969 Q517.0938,135.6406 517.5156,135.2031 Q517.7813,134.9375 517.9219,134.8594 Q518.0781,134.7813 518.2813,134.7813 Q518.6094,134.7813 518.8594,135.0469 Q519.125,135.2969 519.125,135.6406 Q519.125,135.9844 518.7813,136.3906 Q518.2813,136.9688 517.4844,137.2969 Q516.4063,137.75 515.1094,137.75 Q513.5938,137.75 512.3906,137.125 Q511.4063,136.625 510.7188,135.5625 Q510.0313,134.4844 510.0313,133.2031 L510.0313,132.0469 Q510.0313,130.7188 510.6406,129.5781 Q511.2656,128.4219 512.3594,127.8125 Q513.4531,127.1875 514.6875,127.1875 Q515.4219,127.1875 516.0625,127.3594 Q516.7188,127.5156 517.2656,127.875 Z " fill="#000000"/><text fill="#000000" font-family="sans-serif" font-size="14" lengthAdjust="spacing" textLength="53" x="528.5" y="137.7285">Teacher</text><line style="stroke:#181818;stroke-width:0.5;" x1="500.5" x2="583.5" y1="148" y2="148"/><line style="stroke:#181818;stroke-width:0.5;" x1="500.5" x2="583.5" y1="156" y2="156"/></g><!--class Student--><g id="elem_Student"><rect fill="#F1F1F1" height="48" id="Student" rx="2.5" ry="2.5" style="stroke:#181818;stroke-width:0.5;" width="81" x="843.5" y="116"/><ellipse cx="858.5" cy="132" fill="#ADD1B2" rx="11" ry="11" style="stroke:#181818;stroke-width:1.0;"/><path d="M861.2656,127.875 Q861.4219,127.6563 861.6094,127.5469 Q861.7969,127.4375 862.0156,127.4375 Q862.3906,127.4375 862.625,127.7031 Q862.8594,127.9531 862.8594,128.5625 L862.8594,130.0156 Q862.8594,130.625 862.625,130.8906 Q862.3906,131.1563 862.0156,131.1563 Q861.6719,131.1563 861.4688,130.9531 Q861.2656,130.7656 861.1563,130.25 Q861.1094,129.8906 860.9219,129.7031 Q860.5938,129.3281 859.9844,129.1094 Q859.375,128.8906 858.75,128.8906 Q857.9844,128.8906 857.3438,129.2188 Q856.7188,129.5469 856.2188,130.2969 Q855.7344,131.0469 855.7344,132.0781 L855.7344,133.1719 Q855.7344,134.4063 856.625,135.2344 Q857.5156,136.0469 859.1094,136.0469 Q860.0469,136.0469 860.7031,135.7969 Q861.0938,135.6406 861.5156,135.2031 Q861.7813,134.9375 861.9219,134.8594 Q862.0781,134.7813 862.2813,134.7813 Q862.6094,134.7813 862.8594,135.0469 Q863.125,135.2969 863.125,135.6406 Q863.125,135.9844 862.7813,136.3906 Q862.2813,136.9688 861.4844,137.2969 Q860.4063,137.75 859.1094,137.75 Q857.5938,137.75 856.3906,137.125 Q855.4063,136.625 854.7188,135.5625 Q854.0313,134.4844 854.0313,133.2031 L854.0313,132.0469 Q854.0313,130.7188 854.6406,129.5781 Q855.2656,128.4219 856.3594,127.8125 Q857.4531,127.1875 858.6875,127.1875 Q859.4219,127.1875 860.0625,127.3594 Q860.7188,127.5156 861.2656,127.875 Z " fill="#000000"/><text fill="#000000" font-family="sans-serif" font-size="14" lengthAdjust="spacing" textLength="49" x="872.5" y="137.7285">Student</text><line style="stroke:#181818;stroke-width:0.5;" x1="844.5" x2="923.5" y1="148" y2="148"/><line style="stroke:#181818;stroke-width:0.5;" x1="844.5" x2="923.5" y1="156" y2="156"/></g><!--class Topic--><g id="elem_Topic"><rect codeLine="47" fill="#F1F1F1" height="65.6094" id="Topic" rx="2.5" ry="2.5" style="stroke:#181818;stroke-width:0.5;" width="67" x="327.5" y="528"/><ellipse cx="342.5" cy="544" fill="#A9DCDF" rx="11" ry="11" style="stroke:#181818;stroke-width:1.0;"/><path d="M344.6875,545.7656 L340.5469,545.7656 L340.125,546.7969 L340.5469,546.7969 Q341.1563,546.7969 341.4219,547.0313 Q341.6875,547.2656 341.6875,547.6563 Q341.6875,548.0313 341.4219,548.2656 Q341.1563,548.5 340.5469,548.5 L338.25,548.5 Q337.6406,548.5 337.3906,548.2656 Q337.125,548.0313 337.125,547.6406 Q337.125,547.2656 337.4063,547.0313 Q337.6719,546.7813 338.2969,546.7969 L340.9688,540.1406 L339.8594,540.1406 Q339.25,540.1406 338.9844,539.9063 Q338.7188,539.6719 338.7188,539.2813 Q338.7188,538.9063 338.9844,538.6719 Q339.25,538.4375 339.8594,538.4375 L343.5313,538.4375 L346.9219,546.7969 Q347.5156,546.7969 347.7031,546.9375 Q348.0938,547.2031 348.0938,547.6563 Q348.0938,548.0313 347.8281,548.2656 Q347.5781,548.5 346.9688,548.5 L344.6719,548.5 Q344.0625,548.5 343.7969,548.2656 Q343.5313,548.0313 343.5313,547.6406 Q343.5313,547.2656 343.7969,547.0313 Q344.0625,546.7969 344.6719,546.7969 L345.0938,546.7969 L344.6875,545.7656 Z M343.9688,544.0625 L342.6094,540.6875 L341.2344,544.0625 L343.9688,544.0625 Z " fill="#000000"/><text fill="#000000" font-family="sans-serif" font-size="14" font-style="italic" lengthAdjust="spacing" textLength="35" x="356.5" y="549.7285">Topic</text><line style="stroke:#181818;stroke-width:0.5;" x1="328.5" x2="393.5" y1="560" y2="560"/><rect fill="none" height="6" style="stroke:#C82930;stroke-width:1.0;" width="6" x="335.5" y="571.3047"/><text fill="#000000" font-family="sans-serif" font-size="14" lengthAdjust="spacing" textLength="33" x="347.5" y="578.5332">index</text><line style="stroke:#181818;stroke-width:0.5;" x1="328.5" x2="393.5" y1="585.6094" y2="585.6094"/></g><!--class Chat--><g id="elem_Chat"><rect fill="#F1F1F1" height="48" id="Chat" rx="2.5" ry="2.5" style="stroke:#181818;stroke-width:0.5;" width="62" x="1034" y="242"/><ellipse cx="1049" cy="258" fill="#ADD1B2" rx="11" ry="11" style="stroke:#181818;stroke-width:1.0;"/><path d="M1051.7656,253.875 Q1051.9219,253.6563 1052.1094,253.5469 Q1052.2969,253.4375 1052.5156,253.4375 Q1052.8906,253.4375 1053.125,253.7031 Q1053.3594,253.9531 1053.3594,254.5625 L1053.3594,256.0156 Q1053.3594,256.625 1053.125,256.8906 Q1052.8906,257.1563 1052.5156,257.1563 Q1052.1719,257.1563 1051.9688,256.9531 Q1051.7656,256.7656 1051.6563,256.25 Q1051.6094,255.8906 1051.4219,255.7031 Q1051.0938,255.3281 1050.4844,255.1094 Q1049.875,254.8906 1049.25,254.8906 Q1048.4844,254.8906 1047.8438,255.2188 Q1047.2188,255.5469 1046.7188,256.2969 Q1046.2344,257.0469 1046.2344,258.0781 L1046.2344,259.1719 Q1046.2344,260.4063 1047.125,261.2344 Q1048.0156,262.0469 1049.6094,262.0469 Q1050.5469,262.0469 1051.2031,261.7969 Q1051.5938,261.6406 1052.0156,261.2031 Q1052.2813,260.9375 1052.4219,260.8594 Q1052.5781,260.7813 1052.7813,260.7813 Q1053.1094,260.7813 1053.3594,261.0469 Q1053.625,261.2969 1053.625,261.6406 Q1053.625,261.9844 1053.2813,262.3906 Q1052.7813,262.9688 1051.9844,263.2969 Q1050.9063,263.75 1049.6094,263.75 Q1048.0938,263.75 1046.8906,263.125 Q1045.9063,262.625 1045.2188,261.5625 Q1044.5313,260.4844 1044.5313,259.2031 L1044.5313,258.0469 Q1044.5313,256.7188 1045.1406,255.5781 Q1045.7656,254.4219 1046.8594,253.8125 Q1047.9531,253.1875 1049.1875,253.1875 Q1049.9219,253.1875 1050.5625,253.3594 Q1051.2188,253.5156 1051.7656,253.875 Z " fill="#000000"/><text fill="#000000" font-family="sans-serif" font-size="14" lengthAdjust="spacing" textLength="30" x="1063" y="263.7285">Chat</text><line style="stroke:#181818;stroke-width:0.5;" x1="1035" x2="1095" y1="274" y2="274"/><line style="stroke:#181818;stroke-width:0.5;" x1="1035" x2="1095" y1="282" y2="282"/></g><!--class Exercise--><g id="elem_Exercise"><rect codeLine="14" fill="#F1F1F1" height="65.6094" id="Exercise" rx="2.5" ry="2.5" style="stroke:#181818;stroke-width:0.5;" width="85" x="1119.5" y="368"/><ellipse cx="1134.5" cy="384" fill="#ADD1B2" rx="11" ry="11" style="stroke:#181818;stroke-width:1.0;"/><path d="M1137.2656,379.875 Q1137.4219,379.6563 1137.6094,379.5469 Q1137.7969,379.4375 1138.0156,379.4375 Q1138.3906,379.4375 1138.625,379.7031 Q1138.8594,379.9531 1138.8594,380.5625 L1138.8594,382.0156 Q1138.8594,382.625 1138.625,382.8906 Q1138.3906,383.1563 1138.0156,383.1563 Q1137.6719,383.1563 1137.4688,382.9531 Q1137.2656,382.7656 1137.1563,382.25 Q1137.1094,381.8906 1136.9219,381.7031 Q1136.5938,381.3281 1135.9844,381.1094 Q1135.375,380.8906 1134.75,380.8906 Q1133.9844,380.8906 1133.3438,381.2188 Q1132.7188,381.5469 1132.2188,382.2969 Q1131.7344,383.0469 1131.7344,384.0781 L1131.7344,385.1719 Q1131.7344,386.4063 1132.625,387.2344 Q1133.5156,388.0469 1135.1094,388.0469 Q1136.0469,388.0469 1136.7031,387.7969 Q1137.0938,387.6406 1137.5156,387.2031 Q1137.7813,386.9375 1137.9219,386.8594 Q1138.0781,386.7813 1138.2813,386.7813 Q1138.6094,386.7813 1138.8594,387.0469 Q1139.125,387.2969 1139.125,387.6406 Q1139.125,387.9844 1138.7813,388.3906 Q1138.2813,388.9688 1137.4844,389.2969 Q1136.4063,389.75 1135.1094,389.75 Q1133.5938,389.75 1132.3906,389.125 Q1131.4063,388.625 1130.7188,387.5625 Q1130.0313,386.4844 1130.0313,385.2031 L1130.0313,384.0469 Q1130.0313,382.7188 1130.6406,381.5781 Q1131.2656,380.4219 1132.3594,379.8125 Q1133.4531,379.1875 1134.6875,379.1875 Q1135.4219,379.1875 1136.0625,379.3594 Q1136.7188,379.5156 1137.2656,379.875 Z " fill="#000000"/><text fill="#000000" font-family="sans-serif" font-size="14" lengthAdjust="spacing" textLength="53" x="1148.5" y="389.7285">Exercise</text><line style="stroke:#181818;stroke-width:0.5;" x1="1120.5" x2="1203.5" y1="400" y2="400"/><ellipse cx="1130.5" cy="414.3047" fill="none" rx="3" ry="3" style="stroke:#038048;stroke-width:1.0;"/><text fill="#000000" font-family="sans-serif" font-size="14" lengthAdjust="spacing" textLength="46" x="1139.5" y="418.5332">version</text><line style="stroke:#181818;stroke-width:0.5;" x1="1120.5" x2="1203.5" y1="425.6094" y2="425.6094"/></g><!--class Domain--><g id="elem_Domain"><rect fill="#F1F1F1" height="48" id="Domain" rx="2.5" ry="2.5" style="stroke:#181818;stroke-width:0.5;" width="80" x="1148" y="537"/><ellipse cx="1163" cy="553" fill="#ADD1B2" rx="11" ry="11" style="stroke:#181818;stroke-width:1.0;"/><path d="M1165.7656,548.875 Q1165.9219,548.6563 1166.1094,548.5469 Q1166.2969,548.4375 1166.5156,548.4375 Q1166.8906,548.4375 1167.125,548.7031 Q1167.3594,548.9531 1167.3594,549.5625 L1167.3594,551.0156 Q1167.3594,551.625 1167.125,551.8906 Q1166.8906,552.1563 1166.5156,552.1563 Q1166.1719,552.1563 1165.9688,551.9531 Q1165.7656,551.7656 1165.6563,551.25 Q1165.6094,550.8906 1165.4219,550.7031 Q1165.0938,550.3281 1164.4844,550.1094 Q1163.875,549.8906 1163.25,549.8906 Q1162.4844,549.8906 1161.8438,550.2188 Q1161.2188,550.5469 1160.7188,551.2969 Q1160.2344,552.0469 1160.2344,553.0781 L1160.2344,554.1719 Q1160.2344,555.4063 1161.125,556.2344 Q1162.0156,557.0469 1163.6094,557.0469 Q1164.5469,557.0469 1165.2031,556.7969 Q1165.5938,556.6406 1166.0156,556.2031 Q1166.2813,555.9375 1166.4219,555.8594 Q1166.5781,555.7813 1166.7813,555.7813 Q1167.1094,555.7813 1167.3594,556.0469 Q1167.625,556.2969 1167.625,556.6406 Q1167.625,556.9844 1167.2813,557.3906 Q1166.7813,557.9688 1165.9844,558.2969 Q1164.9063,558.75 1163.6094,558.75 Q1162.0938,558.75 1160.8906,558.125 Q1159.9063,557.625 1159.2188,556.5625 Q1158.5313,555.4844 1158.5313,554.2031 L1158.5313,553.0469 Q1158.5313,551.7188 1159.1406,550.5781 Q1159.7656,549.4219 1160.8594,548.8125 Q1161.9531,548.1875 1163.1875,548.1875 Q1163.9219,548.1875 1164.5625,548.3594 Q1165.2188,548.5156 1165.7656,548.875 Z " fill="#000000"/><text fill="#000000" font-family="sans-serif" font-size="14" lengthAdjust="spacing" textLength="48" x="1177" y="558.7285">Domain</text><line style="stroke:#181818;stroke-width:0.5;" x1="1149" x2="1227" y1="569" y2="569"/><line style="stroke:#181818;stroke-width:0.5;" x1="1149" x2="1227" y1="577" y2="577"/></g><!--class Answer--><g id="elem_Answer"><rect codeLine="29" fill="#F1F1F1" height="65.6094" id="Answer" rx="2.5" ry="2.5" style="stroke:#181818;stroke-width:0.5;" width="83" x="1273.5" y="681"/><ellipse cx="1290.75" cy="697" fill="#ADD1B2" rx="11" ry="11" style="stroke:#181818;stroke-width:1.0;"/><path d="M1293.5156,692.875 Q1293.6719,692.6563 1293.8594,692.5469 Q1294.0469,692.4375 1294.2656,692.4375 Q1294.6406,692.4375 1294.875,692.7031 Q1295.1094,692.9531 1295.1094,693.5625 L1295.1094,695.0156 Q1295.1094,695.625 1294.875,695.8906 Q1294.6406,696.1563 1294.2656,696.1563 Q1293.9219,696.1563 1293.7188,695.9531 Q1293.5156,695.7656 1293.4063,695.25 Q1293.3594,694.8906 1293.1719,694.7031 Q1292.8438,694.3281 1292.2344,694.1094 Q1291.625,693.8906 1291,693.8906 Q1290.2344,693.8906 1289.5938,694.2188 Q1288.9688,694.5469 1288.4688,695.2969 Q1287.9844,696.0469 1287.9844,697.0781 L1287.9844,698.1719 Q1287.9844,699.4063 1288.875,700.2344 Q1289.7656,701.0469 1291.3594,701.0469 Q1292.2969,701.0469 1292.9531,700.7969 Q1293.3438,700.6406 1293.7656,700.2031 Q1294.0313,699.9375 1294.1719,699.8594 Q1294.3281,699.7813 1294.5313,699.7813 Q1294.8594,699.7813 1295.1094,700.0469 Q1295.375,700.2969 1295.375,700.6406 Q1295.375,700.9844 1295.0313,701.3906 Q1294.5313,701.9688 1293.7344,702.2969 Q1292.6563,702.75 1291.3594,702.75 Q1289.8438,702.75 1288.6406,702.125 Q1287.6563,701.625 1286.9688,700.5625 Q1286.2813,699.4844 1286.2813,698.2031 L1286.2813,697.0469 Q1286.2813,695.7188 1286.8906,694.5781 Q1287.5156,693.4219 1288.6094,692.8125 Q1289.7031,692.1875 1290.9375,692.1875 Q1291.6719,692.1875 1292.3125,692.3594 Q1292.9688,692.5156 1293.5156,692.875 Z " fill="#000000"/><text fill="#000000" font-family="sans-serif" font-size="14" lengthAdjust="spacing" textLength="46" x="1305.25" y="702.7285">Answer</text><line style="stroke:#181818;stroke-width:0.5;" x1="1274.5" x2="1355.5" y1="713" y2="713"/><rect fill="none" height="6" style="stroke:#C82930;stroke-width:1.0;" width="6" x="1281.5" y="724.3047"/><text fill="#000000" font-family="sans-serif" font-size="14" lengthAdjust="spacing" textLength="57" x="1293.5" y="731.5332">isCorrect</text><line style="stroke:#181818;stroke-width:0.5;" x1="1274.5" x2="1355.5" y1="738.6094" y2="738.6094"/></g><!--class StatementType--><g id="elem_StatementType"><rect codeLine="22" fill="#F1F1F1" height="118.4375" id="StatementType" rx="2.5" ry="2.5" style="stroke:#181818;stroke-width:0.5;" width="128" x="1110" y="655"/><ellipse cx="1125" cy="671" fill="#EB937F" rx="11" ry="11" style="stroke:#181818;stroke-width:1.0;"/><path d="M1123.8594,671.7969 L1123.8594,674.2969 L1128.1875,674.2969 L1128.1875,673.375 Q1128.1875,672.7656 1128.4219,672.5 Q1128.6719,672.2344 1129.0469,672.2344 Q1129.4219,672.2344 1129.6563,672.5 Q1129.8906,672.7656 1129.8906,673.375 L1129.8906,676 L1121.8906,676 Q1121.2656,676 1121,675.7656 Q1120.75,675.5313 1120.75,675.1406 Q1120.75,674.7656 1121.0156,674.5313 Q1121.2813,674.2969 1121.8906,674.2969 L1122.1563,674.2969 L1122.1563,667.6406 L1121.8906,667.6406 Q1121.2656,667.6406 1121,667.4063 Q1120.75,667.1719 1120.75,666.7813 Q1120.75,666.4063 1121,666.1719 Q1121.2656,665.9375 1121.8906,665.9375 L1129.5156,665.9375 L1129.5156,668.5313 Q1129.5156,669.1406 1129.2813,669.4063 Q1129.0625,669.6563 1128.6719,669.6563 Q1128.2969,669.6563 1128.0625,669.4063 Q1127.8281,669.1406 1127.8281,668.5313 L1127.8281,667.6406 L1123.8594,667.6406 L1123.8594,670.0938 L1125.3438,670.0938 Q1125.3438,669.4375 1125.4688,669.25 Q1125.7344,668.8438 1126.2031,668.8438 Q1126.5781,668.8438 1126.8125,669.1094 Q1127.0469,669.3594 1127.0469,669.9688 L1127.0469,671.9375 Q1127.0469,672.4844 1126.9219,672.6719 Q1126.6563,673.0625 1126.2031,673.0625 Q1125.7344,673.0625 1125.4688,672.6563 Q1125.3438,672.4688 1125.3438,671.7969 L1123.8594,671.7969 Z " fill="#000000"/><text fill="#000000" font-family="sans-serif" font-size="14" lengthAdjust="spacing" textLength="96" x="1139" y="676.7285">StatementType</text><line style="stroke:#181818;stroke-width:0.5;" x1="1111" x2="1237" y1="687" y2="687"/><text fill="#000000" font-family="sans-serif" font-size="14" lengthAdjust="spacing" textLength="63" x="1116" y="705.5332">ClozeTest</text><text fill="#000000" font-family="sans-serif" font-size="14" lengthAdjust="spacing" textLength="59" x="1116" y="723.1426">Definition</text><text fill="#000000" font-family="sans-serif" font-size="14" lengthAdjust="spacing" textLength="84" x="1116" y="740.752">RelationType</text><text fill="#000000" font-family="sans-serif" font-size="14" lengthAdjust="spacing" textLength="108" x="1116" y="758.3613">JustifyApplication</text><line style="stroke:#181818;stroke-width:0.5;" x1="1111" x2="1237" y1="765.4375" y2="765.4375"/></g><!--class Justification--><g id="elem_Justification"><rect fill="#F1F1F1" height="48" id="Justification" rx="2.5" ry="2.5" style="stroke:#181818;stroke-width:0.5;" width="105" x="839.5" y="1209"/><ellipse cx="854.5" cy="1225" fill="#ADD1B2" rx="11" ry="11" style="stroke:#181818;stroke-width:1.0;"/><path d="M857.2656,1220.875 Q857.4219,1220.6563 857.6094,1220.5469 Q857.7969,1220.4375 858.0156,1220.4375 Q858.3906,1220.4375 858.625,1220.7031 Q858.8594,1220.9531 858.8594,1221.5625 L858.8594,1223.0156 Q858.8594,1223.625 858.625,1223.8906 Q858.3906,1224.1563 858.0156,1224.1563 Q857.6719,1224.1563 857.4688,1223.9531 Q857.2656,1223.7656 857.1563,1223.25 Q857.1094,1222.8906 856.9219,1222.7031 Q856.5938,1222.3281 855.9844,1222.1094 Q855.375,1221.8906 854.75,1221.8906 Q853.9844,1221.8906 853.3438,1222.2188 Q852.7188,1222.5469 852.2188,1223.2969 Q851.7344,1224.0469 851.7344,1225.0781 L851.7344,1226.1719 Q851.7344,1227.4063 852.625,1228.2344 Q853.5156,1229.0469 855.1094,1229.0469 Q856.0469,1229.0469 856.7031,1228.7969 Q857.0938,1228.6406 857.5156,1228.2031 Q857.7813,1227.9375 857.9219,1227.8594 Q858.0781,1227.7813 858.2813,1227.7813 Q858.6094,1227.7813 858.8594,1228.0469 Q859.125,1228.2969 859.125,1228.6406 Q859.125,1228.9844 858.7813,1229.3906 Q858.2813,1229.9688 857.4844,1230.2969 Q856.4063,1230.75 855.1094,1230.75 Q853.5938,1230.75 852.3906,1230.125 Q851.4063,1229.625 850.7188,1228.5625 Q850.0313,1227.4844 850.0313,1226.2031 L850.0313,1225.0469 Q850.0313,1223.7188 850.6406,1222.5781 Q851.2656,1221.4219 852.3594,1220.8125 Q853.4531,1220.1875 854.6875,1220.1875 Q855.4219,1220.1875 856.0625,1220.3594 Q856.7188,1220.5156 857.2656,1220.875 Z " fill="#000000"/><text fill="#000000" font-family="sans-serif" font-size="14" lengthAdjust="spacing" textLength="73" x="868.5" y="1230.7285">Justification</text><line style="stroke:#181818;stroke-width:0.5;" x1="840.5" x2="943.5" y1="1241" y2="1241"/><line style="stroke:#181818;stroke-width:0.5;" x1="840.5" x2="943.5" y1="1249" y2="1249"/></g><!--class Application--><g id="elem_Application"><rect fill="#F1F1F1" height="48" id="Application" rx="2.5" ry="2.5" style="stroke:#181818;stroke-width:0.5;" width="101" x="959.5" y="895"/><ellipse cx="974.5" cy="911" fill="#ADD1B2" rx="11" ry="11" style="stroke:#181818;stroke-width:1.0;"/><path d="M977.2656,906.875 Q977.4219,906.6563 977.6094,906.5469 Q977.7969,906.4375 978.0156,906.4375 Q978.3906,906.4375 978.625,906.7031 Q978.8594,906.9531 978.8594,907.5625 L978.8594,909.0156 Q978.8594,909.625 978.625,909.8906 Q978.3906,910.1563 978.0156,910.1563 Q977.6719,910.1563 977.4688,909.9531 Q977.2656,909.7656 977.1563,909.25 Q977.1094,908.8906 976.9219,908.7031 Q976.5938,908.3281 975.9844,908.1094 Q975.375,907.8906 974.75,907.8906 Q973.9844,907.8906 973.3438,908.2188 Q972.7188,908.5469 972.2188,909.2969 Q971.7344,910.0469 971.7344,911.0781 L971.7344,912.1719 Q971.7344,913.4063 972.625,914.2344 Q973.5156,915.0469 975.1094,915.0469 Q976.0469,915.0469 976.7031,914.7969 Q977.0938,914.6406 977.5156,914.2031 Q977.7813,913.9375 977.9219,913.8594 Q978.0781,913.7813 978.2813,913.7813 Q978.6094,913.7813 978.8594,914.0469 Q979.125,914.2969 979.125,914.6406 Q979.125,914.9844 978.7813,915.3906 Q978.2813,915.9688 977.4844,916.2969 Q976.4063,916.75 975.1094,916.75 Q973.5938,916.75 972.3906,916.125 Q971.4063,915.625 970.7188,914.5625 Q970.0313,913.4844 970.0313,912.2031 L970.0313,911.0469 Q970.0313,909.7188 970.6406,908.5781 Q971.2656,907.4219 972.3594,906.8125 Q973.4531,906.1875 974.6875,906.1875 Q975.4219,906.1875 976.0625,906.3594 Q976.7188,906.5156 977.2656,906.875 Z " fill="#000000"/><text fill="#000000" font-family="sans-serif" font-size="14" lengthAdjust="spacing" textLength="69" x="988.5" y="916.7285">Application</text><line style="stroke:#181818;stroke-width:0.5;" x1="960.5" x2="1059.5" y1="927" y2="927"/><line style="stroke:#181818;stroke-width:0.5;" x1="960.5" x2="1059.5" y1="935" y2="935"/></g><!--class CompositeTopic--><g id="elem_CompositeTopic"><rect fill="#F1F1F1" height="48" id="CompositeTopic" rx="2.5" ry="2.5" style="stroke:#181818;stroke-width:0.5;" width="134" x="7" y="690"/><ellipse cx="22" cy="706" fill="#ADD1B2" rx="11" ry="11" style="stroke:#181818;stroke-width:1.0;"/><path d="M24.7656,701.875 Q24.9219,701.6563 25.1094,701.5469 Q25.2969,701.4375 25.5156,701.4375 Q25.8906,701.4375 26.125,701.7031 Q26.3594,701.9531 26.3594,702.5625 L26.3594,704.0156 Q26.3594,704.625 26.125,704.8906 Q25.8906,705.1563 25.5156,705.1563 Q25.1719,705.1563 24.9688,704.9531 Q24.7656,704.7656 24.6563,704.25 Q24.6094,703.8906 24.4219,703.7031 Q24.0938,703.3281 23.4844,703.1094 Q22.875,702.8906 22.25,702.8906 Q21.4844,702.8906 20.8438,703.2188 Q20.2188,703.5469 19.7188,704.2969 Q19.2344,705.0469 19.2344,706.0781 L19.2344,707.1719 Q19.2344,708.4063 20.125,709.2344 Q21.0156,710.0469 22.6094,710.0469 Q23.5469,710.0469 24.2031,709.7969 Q24.5938,709.6406 25.0156,709.2031 Q25.2813,708.9375 25.4219,708.8594 Q25.5781,708.7813 25.7813,708.7813 Q26.1094,708.7813 26.3594,709.0469 Q26.625,709.2969 26.625,709.6406 Q26.625,709.9844 26.2813,710.3906 Q25.7813,710.9688 24.9844,711.2969 Q23.9063,711.75 22.6094,711.75 Q21.0938,711.75 19.8906,711.125 Q18.9063,710.625 18.2188,709.5625 Q17.5313,708.4844 17.5313,707.2031 L17.5313,706.0469 Q17.5313,704.7188 18.1406,703.5781 Q18.7656,702.4219 19.8594,701.8125 Q20.9531,701.1875 22.1875,701.1875 Q22.9219,701.1875 23.5625,701.3594 Q24.2188,701.5156 24.7656,701.875 Z " fill="#000000"/><text fill="#000000" font-family="sans-serif" font-size="14" lengthAdjust="spacing" textLength="102" x="36" y="711.7285">CompositeTopic</text><line style="stroke:#181818;stroke-width:0.5;" x1="8" x2="140" y1="722" y2="722"/><line style="stroke:#181818;stroke-width:0.5;" x1="8" x2="140" y1="730" y2="730"/></g><!--class SimpleTopic--><g id="elem_SimpleTopic"><rect fill="#F1F1F1" height="48" id="SimpleTopic" rx="2.5" ry="2.5" style="stroke:#181818;stroke-width:0.5;" width="109" x="247.5" y="690"/><ellipse cx="262.5" cy="706" fill="#ADD1B2" rx="11" ry="11" style="stroke:#181818;stroke-width:1.0;"/><path d="M265.2656,701.875 Q265.4219,701.6563 265.6094,701.5469 Q265.7969,701.4375 266.0156,701.4375 Q266.3906,701.4375 266.625,701.7031 Q266.8594,701.9531 266.8594,702.5625 L266.8594,704.0156 Q266.8594,704.625 266.625,704.8906 Q266.3906,705.1563 266.0156,705.1563 Q265.6719,705.1563 265.4688,704.9531 Q265.2656,704.7656 265.1563,704.25 Q265.1094,703.8906 264.9219,703.7031 Q264.5938,703.3281 263.9844,703.1094 Q263.375,702.8906 262.75,702.8906 Q261.9844,702.8906 261.3438,703.2188 Q260.7188,703.5469 260.2188,704.2969 Q259.7344,705.0469 259.7344,706.0781 L259.7344,707.1719 Q259.7344,708.4063 260.625,709.2344 Q261.5156,710.0469 263.1094,710.0469 Q264.0469,710.0469 264.7031,709.7969 Q265.0938,709.6406 265.5156,709.2031 Q265.7813,708.9375 265.9219,708.8594 Q266.0781,708.7813 266.2813,708.7813 Q266.6094,708.7813 266.8594,709.0469 Q267.125,709.2969 267.125,709.6406 Q267.125,709.9844 266.7813,710.3906 Q266.2813,710.9688 265.4844,711.2969 Q264.4063,711.75 263.1094,711.75 Q261.5938,711.75 260.3906,711.125 Q259.4063,710.625 258.7188,709.5625 Q258.0313,708.4844 258.0313,707.2031 L258.0313,706.0469 Q258.0313,704.7188 258.6406,703.5781 Q259.2656,702.4219 260.3594,701.8125 Q261.4531,701.1875 262.6875,701.1875 Q263.4219,701.1875 264.0625,701.3594 Q264.7188,701.5156 265.2656,701.875 Z " fill="#000000"/><text fill="#000000" font-family="sans-serif" font-size="14" lengthAdjust="spacing" textLength="77" x="276.5" y="711.7285">SimpleTopic</text><line style="stroke:#181818;stroke-width:0.5;" x1="248.5" x2="355.5" y1="722" y2="722"/><line style="stroke:#181818;stroke-width:0.5;" x1="248.5" x2="355.5" y1="730" y2="730"/></g><!--class Concept--><g id="elem_Concept"><rect fill="#F1F1F1" height="48" id="Concept" rx="2.5" ry="2.5" style="stroke:#181818;stroke-width:0.5;" width="85" x="543.5" y="895"/><ellipse cx="558.5" cy="911" fill="#ADD1B2" rx="11" ry="11" style="stroke:#181818;stroke-width:1.0;"/><path d="M561.2656,906.875 Q561.4219,906.6563 561.6094,906.5469 Q561.7969,906.4375 562.0156,906.4375 Q562.3906,906.4375 562.625,906.7031 Q562.8594,906.9531 562.8594,907.5625 L562.8594,909.0156 Q562.8594,909.625 562.625,909.8906 Q562.3906,910.1563 562.0156,910.1563 Q561.6719,910.1563 561.4688,909.9531 Q561.2656,909.7656 561.1563,909.25 Q561.1094,908.8906 560.9219,908.7031 Q560.5938,908.3281 559.9844,908.1094 Q559.375,907.8906 558.75,907.8906 Q557.9844,907.8906 557.3438,908.2188 Q556.7188,908.5469 556.2188,909.2969 Q555.7344,910.0469 555.7344,911.0781 L555.7344,912.1719 Q555.7344,913.4063 556.625,914.2344 Q557.5156,915.0469 559.1094,915.0469 Q560.0469,915.0469 560.7031,914.7969 Q561.0938,914.6406 561.5156,914.2031 Q561.7813,913.9375 561.9219,913.8594 Q562.0781,913.7813 562.2813,913.7813 Q562.6094,913.7813 562.8594,914.0469 Q563.125,914.2969 563.125,914.6406 Q563.125,914.9844 562.7813,915.3906 Q562.2813,915.9688 561.4844,916.2969 Q560.4063,916.75 559.1094,916.75 Q557.5938,916.75 556.3906,916.125 Q555.4063,915.625 554.7188,914.5625 Q554.0313,913.4844 554.0313,912.2031 L554.0313,911.0469 Q554.0313,909.7188 554.6406,908.5781 Q555.2656,907.4219 556.3594,906.8125 Q557.4531,906.1875 558.6875,906.1875 Q559.4219,906.1875 560.0625,906.3594 Q560.7188,906.5156 561.2656,906.875 Z " fill="#000000"/><text fill="#000000" font-family="sans-serif" font-size="14" lengthAdjust="spacing" textLength="53" x="572.5" y="916.7285">Concept</text><line style="stroke:#181818;stroke-width:0.5;" x1="544.5" x2="627.5" y1="927" y2="927"/><line style="stroke:#181818;stroke-width:0.5;" x1="544.5" x2="627.5" y1="935" y2="935"/></g><!--class Document--><g id="elem_Document"><rect fill="#F1F1F1" height="48" id="Document" rx="2.5" ry="2.5" style="stroke:#181818;stroke-width:0.5;" width="96" x="261" y="895"/><ellipse cx="276" cy="911" fill="#ADD1B2" rx="11" ry="11" style="stroke:#181818;stroke-width:1.0;"/><path d="M278.7656,906.875 Q278.9219,906.6563 279.1094,906.5469 Q279.2969,906.4375 279.5156,906.4375 Q279.8906,906.4375 280.125,906.7031 Q280.3594,906.9531 280.3594,907.5625 L280.3594,909.0156 Q280.3594,909.625 280.125,909.8906 Q279.8906,910.1563 279.5156,910.1563 Q279.1719,910.1563 278.9688,909.9531 Q278.7656,909.7656 278.6563,909.25 Q278.6094,908.8906 278.4219,908.7031 Q278.0938,908.3281 277.4844,908.1094 Q276.875,907.8906 276.25,907.8906 Q275.4844,907.8906 274.8438,908.2188 Q274.2188,908.5469 273.7188,909.2969 Q273.2344,910.0469 273.2344,911.0781 L273.2344,912.1719 Q273.2344,913.4063 274.125,914.2344 Q275.0156,915.0469 276.6094,915.0469 Q277.5469,915.0469 278.2031,914.7969 Q278.5938,914.6406 279.0156,914.2031 Q279.2813,913.9375 279.4219,913.8594 Q279.5781,913.7813 279.7813,913.7813 Q280.1094,913.7813 280.3594,914.0469 Q280.625,914.2969 280.625,914.6406 Q280.625,914.9844 280.2813,915.3906 Q279.7813,915.9688 278.9844,916.2969 Q277.9063,916.75 276.6094,916.75 Q275.0938,916.75 273.8906,916.125 Q272.9063,915.625 272.2188,914.5625 Q271.5313,913.4844 271.5313,912.2031 L271.5313,911.0469 Q271.5313,909.7188 272.1406,908.5781 Q272.7656,907.4219 273.8594,906.8125 Q274.9531,906.1875 276.1875,906.1875 Q276.9219,906.1875 277.5625,906.3594 Q278.2188,906.5156 278.7656,906.875 Z " fill="#000000"/><text fill="#000000" font-family="sans-serif" font-size="14" lengthAdjust="spacing" textLength="64" x="290" y="916.7285">Document</text><line style="stroke:#181818;stroke-width:0.5;" x1="262" x2="356" y1="927" y2="927"/><line style="stroke:#181818;stroke-width:0.5;" x1="262" x2="356" y1="935" y2="935"/></g><!--class Relation--><g id="elem_Relation"><rect fill="#F1F1F1" height="48" id="Relation" rx="2.5" ry="2.5" style="stroke:#181818;stroke-width:0.5;" width="84" x="465" y="690"/><ellipse cx="480" cy="706" fill="#ADD1B2" rx="11" ry="11" style="stroke:#181818;stroke-width:1.0;"/><path d="M482.7656,701.875 Q482.9219,701.6563 483.1094,701.5469 Q483.2969,701.4375 483.5156,701.4375 Q483.8906,701.4375 484.125,701.7031 Q484.3594,701.9531 484.3594,702.5625 L484.3594,704.0156 Q484.3594,704.625 484.125,704.8906 Q483.8906,705.1563 483.5156,705.1563 Q483.1719,705.1563 482.9688,704.9531 Q482.7656,704.7656 482.6563,704.25 Q482.6094,703.8906 482.4219,703.7031 Q482.0938,703.3281 481.4844,703.1094 Q480.875,702.8906 480.25,702.8906 Q479.4844,702.8906 478.8438,703.2188 Q478.2188,703.5469 477.7188,704.2969 Q477.2344,705.0469 477.2344,706.0781 L477.2344,707.1719 Q477.2344,708.4063 478.125,709.2344 Q479.0156,710.0469 480.6094,710.0469 Q481.5469,710.0469 482.2031,709.7969 Q482.5938,709.6406 483.0156,709.2031 Q483.2813,708.9375 483.4219,708.8594 Q483.5781,708.7813 483.7813,708.7813 Q484.1094,708.7813 484.3594,709.0469 Q484.625,709.2969 484.625,709.6406 Q484.625,709.9844 484.2813,710.3906 Q483.7813,710.9688 482.9844,711.2969 Q481.9063,711.75 480.6094,711.75 Q479.0938,711.75 477.8906,711.125 Q476.9063,710.625 476.2188,709.5625 Q475.5313,708.4844 475.5313,707.2031 L475.5313,706.0469 Q475.5313,704.7188 476.1406,703.5781 Q476.7656,702.4219 477.8594,701.8125 Q478.9531,701.1875 480.1875,701.1875 Q480.9219,701.1875 481.5625,701.3594 Q482.2188,701.5156 482.7656,701.875 Z " fill="#000000"/><text fill="#000000" font-family="sans-serif" font-size="14" lengthAdjust="spacing" textLength="52" x="494" y="711.7285">Relation</text><line style="stroke:#181818;stroke-width:0.5;" x1="466" x2="548" y1="722" y2="722"/><line style="stroke:#181818;stroke-width:0.5;" x1="466" x2="548" y1="730" y2="730"/></g><!--class VideoWithAudio--><g id="elem_VideoWithAudio"><rect fill="#F1F1F1" height="48" id="VideoWithAudio" rx="2.5" ry="2.5" style="stroke:#181818;stroke-width:0.5;" width="132" x="188" y="1074"/><ellipse cx="203" cy="1090" fill="#ADD1B2" rx="11" ry="11" style="stroke:#181818;stroke-width:1.0;"/><path d="M205.7656,1085.875 Q205.9219,1085.6563 206.1094,1085.5469 Q206.2969,1085.4375 206.5156,1085.4375 Q206.8906,1085.4375 207.125,1085.7031 Q207.3594,1085.9531 207.3594,1086.5625 L207.3594,1088.0156 Q207.3594,1088.625 207.125,1088.8906 Q206.8906,1089.1563 206.5156,1089.1563 Q206.1719,1089.1563 205.9688,1088.9531 Q205.7656,1088.7656 205.6563,1088.25 Q205.6094,1087.8906 205.4219,1087.7031 Q205.0938,1087.3281 204.4844,1087.1094 Q203.875,1086.8906 203.25,1086.8906 Q202.4844,1086.8906 201.8438,1087.2188 Q201.2188,1087.5469 200.7188,1088.2969 Q200.2344,1089.0469 200.2344,1090.0781 L200.2344,1091.1719 Q200.2344,1092.4063 201.125,1093.2344 Q202.0156,1094.0469 203.6094,1094.0469 Q204.5469,1094.0469 205.2031,1093.7969 Q205.5938,1093.6406 206.0156,1093.2031 Q206.2813,1092.9375 206.4219,1092.8594 Q206.5781,1092.7813 206.7813,1092.7813 Q207.1094,1092.7813 207.3594,1093.0469 Q207.625,1093.2969 207.625,1093.6406 Q207.625,1093.9844 207.2813,1094.3906 Q206.7813,1094.9688 205.9844,1095.2969 Q204.9063,1095.75 203.6094,1095.75 Q202.0938,1095.75 200.8906,1095.125 Q199.9063,1094.625 199.2188,1093.5625 Q198.5313,1092.4844 198.5313,1091.2031 L198.5313,1090.0469 Q198.5313,1088.7188 199.1406,1087.5781 Q199.7656,1086.4219 200.8594,1085.8125 Q201.9531,1085.1875 203.1875,1085.1875 Q203.9219,1085.1875 204.5625,1085.3594 Q205.2188,1085.5156 205.7656,1085.875 Z " fill="#000000"/><text fill="#000000" font-family="sans-serif" font-size="14" lengthAdjust="spacing" textLength="100" x="217" y="1095.7285">VideoWithAudio</text><line style="stroke:#181818;stroke-width:0.5;" x1="189" x2="319" y1="1106" y2="1106"/><line style="stroke:#181818;stroke-width:0.5;" x1="189" x2="319" y1="1114" y2="1114"/></g><!--class Definition--><g id="elem_Definition"><rect codeLine="74" fill="#F1F1F1" height="65.6094" id="Definition" rx="2.5" ry="2.5" style="stroke:#181818;stroke-width:0.5;" width="91" x="761.5" y="1065"/><ellipse cx="776.5" cy="1081" fill="#ADD1B2" rx="11" ry="11" style="stroke:#181818;stroke-width:1.0;"/><path d="M779.2656,1076.875 Q779.4219,1076.6563 779.6094,1076.5469 Q779.7969,1076.4375 780.0156,1076.4375 Q780.3906,1076.4375 780.625,1076.7031 Q780.8594,1076.9531 780.8594,1077.5625 L780.8594,1079.0156 Q780.8594,1079.625 780.625,1079.8906 Q780.3906,1080.1563 780.0156,1080.1563 Q779.6719,1080.1563 779.4688,1079.9531 Q779.2656,1079.7656 779.1563,1079.25 Q779.1094,1078.8906 778.9219,1078.7031 Q778.5938,1078.3281 777.9844,1078.1094 Q777.375,1077.8906 776.75,1077.8906 Q775.9844,1077.8906 775.3438,1078.2188 Q774.7188,1078.5469 774.2188,1079.2969 Q773.7344,1080.0469 773.7344,1081.0781 L773.7344,1082.1719 Q773.7344,1083.4063 774.625,1084.2344 Q775.5156,1085.0469 777.1094,1085.0469 Q778.0469,1085.0469 778.7031,1084.7969 Q779.0938,1084.6406 779.5156,1084.2031 Q779.7813,1083.9375 779.9219,1083.8594 Q780.0781,1083.7813 780.2813,1083.7813 Q780.6094,1083.7813 780.8594,1084.0469 Q781.125,1084.2969 781.125,1084.6406 Q781.125,1084.9844 780.7813,1085.3906 Q780.2813,1085.9688 779.4844,1086.2969 Q778.4063,1086.75 777.1094,1086.75 Q775.5938,1086.75 774.3906,1086.125 Q773.4063,1085.625 772.7188,1084.5625 Q772.0313,1083.4844 772.0313,1082.2031 L772.0313,1081.0469 Q772.0313,1079.7188 772.6406,1078.5781 Q773.2656,1077.4219 774.3594,1076.8125 Q775.4531,1076.1875 776.6875,1076.1875 Q777.4219,1076.1875 778.0625,1076.3594 Q778.7188,1076.5156 779.2656,1076.875 Z " fill="#000000"/><text fill="#000000" font-family="sans-serif" font-size="14" lengthAdjust="spacing" textLength="59" x="790.5" y="1086.7285">Definition</text><line style="stroke:#181818;stroke-width:0.5;" x1="762.5" x2="851.5" y1="1097" y2="1097"/><rect fill="none" height="6" style="stroke:#C82930;stroke-width:1.0;" width="6" x="769.5" y="1108.3047"/><text fill="#000000" font-family="sans-serif" font-size="14" lengthAdjust="spacing" textLength="57" x="781.5" y="1115.5332">isCorrect</text><line style="stroke:#181818;stroke-width:0.5;" x1="762.5" x2="851.5" y1="1122.6094" y2="1122.6094"/></g><!--class RelationType--><g id="elem_RelationType"><rect codeLine="66" fill="#F1F1F1" height="136.0469" id="RelationType" rx="2.5" ry="2.5" style="stroke:#181818;stroke-width:0.5;" width="116" x="392" y="851"/><ellipse cx="407" cy="867" fill="#EB937F" rx="11" ry="11" style="stroke:#181818;stroke-width:1.0;"/><path d="M405.8594,867.7969 L405.8594,870.2969 L410.1875,870.2969 L410.1875,869.375 Q410.1875,868.7656 410.4219,868.5 Q410.6719,868.2344 411.0469,868.2344 Q411.4219,868.2344 411.6563,868.5 Q411.8906,868.7656 411.8906,869.375 L411.8906,872 L403.8906,872 Q403.2656,872 403,871.7656 Q402.75,871.5313 402.75,871.1406 Q402.75,870.7656 403.0156,870.5313 Q403.2813,870.2969 403.8906,870.2969 L404.1563,870.2969 L404.1563,863.6406 L403.8906,863.6406 Q403.2656,863.6406 403,863.4063 Q402.75,863.1719 402.75,862.7813 Q402.75,862.4063 403,862.1719 Q403.2656,861.9375 403.8906,861.9375 L411.5156,861.9375 L411.5156,864.5313 Q411.5156,865.1406 411.2813,865.4063 Q411.0625,865.6563 410.6719,865.6563 Q410.2969,865.6563 410.0625,865.4063 Q409.8281,865.1406 409.8281,864.5313 L409.8281,863.6406 L405.8594,863.6406 L405.8594,866.0938 L407.3438,866.0938 Q407.3438,865.4375 407.4688,865.25 Q407.7344,864.8438 408.2031,864.8438 Q408.5781,864.8438 408.8125,865.1094 Q409.0469,865.3594 409.0469,865.9688 L409.0469,867.9375 Q409.0469,868.4844 408.9219,868.6719 Q408.6563,869.0625 408.2031,869.0625 Q407.7344,869.0625 407.4688,868.6563 Q407.3438,868.4688 407.3438,867.7969 L405.8594,867.7969 Z " fill="#000000"/><text fill="#000000" font-family="sans-serif" font-size="14" lengthAdjust="spacing" textLength="84" x="421" y="872.7285">RelationType</text><line style="stroke:#181818;stroke-width:0.5;" x1="393" x2="507" y1="883" y2="883"/><text fill="#000000" font-family="sans-serif" font-size="14" lengthAdjust="spacing" textLength="24" x="398" y="901.5332">Use</text><text fill="#000000" font-family="sans-serif" font-size="14" lengthAdjust="spacing" textLength="72" x="398" y="919.1426">Association</text><text fill="#000000" font-family="sans-serif" font-size="14" lengthAdjust="spacing" textLength="78" x="398" y="936.752">Composition</text><text fill="#000000" font-family="sans-serif" font-size="14" lengthAdjust="spacing" textLength="70" x="398" y="954.3613">Inheritance</text><text fill="#000000" font-family="sans-serif" font-size="14" lengthAdjust="spacing" textLength="77" x="398" y="971.9707">Aggregation</text><line style="stroke:#181818;stroke-width:0.5;" x1="393" x2="507" y1="979.0469" y2="979.0469"/></g><!--class Media--><g id="elem_Media"><rect codeLine="85" fill="#F1F1F1" height="48" id="Media" rx="2.5" ry="2.5" style="stroke:#181818;stroke-width:0.5;" width="71" x="355.5" y="1074"/><ellipse cx="370.5" cy="1090" fill="#A9DCDF" rx="11" ry="11" style="stroke:#181818;stroke-width:1.0;"/><path d="M372.6875,1091.7656 L368.5469,1091.7656 L368.125,1092.7969 L368.5469,1092.7969 Q369.1563,1092.7969 369.4219,1093.0313 Q369.6875,1093.2656 369.6875,1093.6563 Q369.6875,1094.0313 369.4219,1094.2656 Q369.1563,1094.5 368.5469,1094.5 L366.25,1094.5 Q365.6406,1094.5 365.3906,1094.2656 Q365.125,1094.0313 365.125,1093.6406 Q365.125,1093.2656 365.4063,1093.0313 Q365.6719,1092.7813 366.2969,1092.7969 L368.9688,1086.1406 L367.8594,1086.1406 Q367.25,1086.1406 366.9844,1085.9063 Q366.7188,1085.6719 366.7188,1085.2813 Q366.7188,1084.9063 366.9844,1084.6719 Q367.25,1084.4375 367.8594,1084.4375 L371.5313,1084.4375 L374.9219,1092.7969 Q375.5156,1092.7969 375.7031,1092.9375 Q376.0938,1093.2031 376.0938,1093.6563 Q376.0938,1094.0313 375.8281,1094.2656 Q375.5781,1094.5 374.9688,1094.5 L372.6719,1094.5 Q372.0625,1094.5 371.7969,1094.2656 Q371.5313,1094.0313 371.5313,1093.6406 Q371.5313,1093.2656 371.7969,1093.0313 Q372.0625,1092.7969 372.6719,1092.7969 L373.0938,1092.7969 L372.6875,1091.7656 Z M371.9688,1090.0625 L370.6094,1086.6875 L369.2344,1090.0625 L371.9688,1090.0625 Z " fill="#000000"/><text fill="#000000" font-family="sans-serif" font-size="14" font-style="italic" lengthAdjust="spacing" textLength="39" x="384.5" y="1095.7285">Media</text><line style="stroke:#181818;stroke-width:0.5;" x1="356.5" x2="425.5" y1="1106" y2="1106"/><line style="stroke:#181818;stroke-width:0.5;" x1="356.5" x2="425.5" y1="1114" y2="1114"/></g><!--class Audio--><g id="elem_Audio"><rect fill="#F1F1F1" height="48" id="Audio" rx="2.5" ry="2.5" style="stroke:#181818;stroke-width:0.5;" width="68" x="240" y="1209"/><ellipse cx="255" cy="1225" fill="#ADD1B2" rx="11" ry="11" style="stroke:#181818;stroke-width:1.0;"/><path d="M257.7656,1220.875 Q257.9219,1220.6563 258.1094,1220.5469 Q258.2969,1220.4375 258.5156,1220.4375 Q258.8906,1220.4375 259.125,1220.7031 Q259.3594,1220.9531 259.3594,1221.5625 L259.3594,1223.0156 Q259.3594,1223.625 259.125,1223.8906 Q258.8906,1224.1563 258.5156,1224.1563 Q258.1719,1224.1563 257.9688,1223.9531 Q257.7656,1223.7656 257.6563,1223.25 Q257.6094,1222.8906 257.4219,1222.7031 Q257.0938,1222.3281 256.4844,1222.1094 Q255.875,1221.8906 255.25,1221.8906 Q254.4844,1221.8906 253.8438,1222.2188 Q253.2188,1222.5469 252.7188,1223.2969 Q252.2344,1224.0469 252.2344,1225.0781 L252.2344,1226.1719 Q252.2344,1227.4063 253.125,1228.2344 Q254.0156,1229.0469 255.6094,1229.0469 Q256.5469,1229.0469 257.2031,1228.7969 Q257.5938,1228.6406 258.0156,1228.2031 Q258.2813,1227.9375 258.4219,1227.8594 Q258.5781,1227.7813 258.7813,1227.7813 Q259.1094,1227.7813 259.3594,1228.0469 Q259.625,1228.2969 259.625,1228.6406 Q259.625,1228.9844 259.2813,1229.3906 Q258.7813,1229.9688 257.9844,1230.2969 Q256.9063,1230.75 255.6094,1230.75 Q254.0938,1230.75 252.8906,1230.125 Q251.9063,1229.625 251.2188,1228.5625 Q250.5313,1227.4844 250.5313,1226.2031 L250.5313,1225.0469 Q250.5313,1223.7188 251.1406,1222.5781 Q251.7656,1221.4219 252.8594,1220.8125 Q253.9531,1220.1875 255.1875,1220.1875 Q255.9219,1220.1875 256.5625,1220.3594 Q257.2188,1220.5156 257.7656,1220.875 Z " fill="#000000"/><text fill="#000000" font-family="sans-serif" font-size="14" lengthAdjust="spacing" textLength="36" x="269" y="1230.7285">Audio</text><line style="stroke:#181818;stroke-width:0.5;" x1="241" x2="307" y1="1241" y2="1241"/><line style="stroke:#181818;stroke-width:0.5;" x1="241" x2="307" y1="1249" y2="1249"/></g><!--class Video--><g id="elem_Video"><rect fill="#F1F1F1" height="48" id="Video" rx="2.5" ry="2.5" style="stroke:#181818;stroke-width:0.5;" width="68" x="343" y="1209"/><ellipse cx="358" cy="1225" fill="#ADD1B2" rx="11" ry="11" style="stroke:#181818;stroke-width:1.0;"/><path d="M360.7656,1220.875 Q360.9219,1220.6563 361.1094,1220.5469 Q361.2969,1220.4375 361.5156,1220.4375 Q361.8906,1220.4375 362.125,1220.7031 Q362.3594,1220.9531 362.3594,1221.5625 L362.3594,1223.0156 Q362.3594,1223.625 362.125,1223.8906 Q361.8906,1224.1563 361.5156,1224.1563 Q361.1719,1224.1563 360.9688,1223.9531 Q360.7656,1223.7656 360.6563,1223.25 Q360.6094,1222.8906 360.4219,1222.7031 Q360.0938,1222.3281 359.4844,1222.1094 Q358.875,1221.8906 358.25,1221.8906 Q357.4844,1221.8906 356.8438,1222.2188 Q356.2188,1222.5469 355.7188,1223.2969 Q355.2344,1224.0469 355.2344,1225.0781 L355.2344,1226.1719 Q355.2344,1227.4063 356.125,1228.2344 Q357.0156,1229.0469 358.6094,1229.0469 Q359.5469,1229.0469 360.2031,1228.7969 Q360.5938,1228.6406 361.0156,1228.2031 Q361.2813,1227.9375 361.4219,1227.8594 Q361.5781,1227.7813 361.7813,1227.7813 Q362.1094,1227.7813 362.3594,1228.0469 Q362.625,1228.2969 362.625,1228.6406 Q362.625,1228.9844 362.2813,1229.3906 Q361.7813,1229.9688 360.9844,1230.2969 Q359.9063,1230.75 358.6094,1230.75 Q357.0938,1230.75 355.8906,1230.125 Q354.9063,1229.625 354.2188,1228.5625 Q353.5313,1227.4844 353.5313,1226.2031 L353.5313,1225.0469 Q353.5313,1223.7188 354.1406,1222.5781 Q354.7656,1221.4219 355.8594,1220.8125 Q356.9531,1220.1875 358.1875,1220.1875 Q358.9219,1220.1875 359.5625,1220.3594 Q360.2188,1220.5156 360.7656,1220.875 Z " fill="#000000"/><text fill="#000000" font-family="sans-serif" font-size="14" lengthAdjust="spacing" textLength="36" x="372" y="1230.7285">Video</text><line style="stroke:#181818;stroke-width:0.5;" x1="344" x2="410" y1="1241" y2="1241"/><line style="stroke:#181818;stroke-width:0.5;" x1="344" x2="410" y1="1249" y2="1249"/></g><!--class Image--><g id="elem_Image"><rect fill="#F1F1F1" height="48" id="Image" rx="2.5" ry="2.5" style="stroke:#181818;stroke-width:0.5;" width="70" x="555" y="1209"/><ellipse cx="570" cy="1225" fill="#ADD1B2" rx="11" ry="11" style="stroke:#181818;stroke-width:1.0;"/><path d="M572.7656,1220.875 Q572.9219,1220.6563 573.1094,1220.5469 Q573.2969,1220.4375 573.5156,1220.4375 Q573.8906,1220.4375 574.125,1220.7031 Q574.3594,1220.9531 574.3594,1221.5625 L574.3594,1223.0156 Q574.3594,1223.625 574.125,1223.8906 Q573.8906,1224.1563 573.5156,1224.1563 Q573.1719,1224.1563 572.9688,1223.9531 Q572.7656,1223.7656 572.6563,1223.25 Q572.6094,1222.8906 572.4219,1222.7031 Q572.0938,1222.3281 571.4844,1222.1094 Q570.875,1221.8906 570.25,1221.8906 Q569.4844,1221.8906 568.8438,1222.2188 Q568.2188,1222.5469 567.7188,1223.2969 Q567.2344,1224.0469 567.2344,1225.0781 L567.2344,1226.1719 Q567.2344,1227.4063 568.125,1228.2344 Q569.0156,1229.0469 570.6094,1229.0469 Q571.5469,1229.0469 572.2031,1228.7969 Q572.5938,1228.6406 573.0156,1228.2031 Q573.2813,1227.9375 573.4219,1227.8594 Q573.5781,1227.7813 573.7813,1227.7813 Q574.1094,1227.7813 574.3594,1228.0469 Q574.625,1228.2969 574.625,1228.6406 Q574.625,1228.9844 574.2813,1229.3906 Q573.7813,1229.9688 572.9844,1230.2969 Q571.9063,1230.75 570.6094,1230.75 Q569.0938,1230.75 567.8906,1230.125 Q566.9063,1229.625 566.2188,1228.5625 Q565.5313,1227.4844 565.5313,1226.2031 L565.5313,1225.0469 Q565.5313,1223.7188 566.1406,1222.5781 Q566.7656,1221.4219 567.8594,1220.8125 Q568.9531,1220.1875 570.1875,1220.1875 Q570.9219,1220.1875 571.5625,1220.3594 Q572.2188,1220.5156 572.7656,1220.875 Z " fill="#000000"/><text fill="#000000" font-family="sans-serif" font-size="14" lengthAdjust="spacing" textLength="38" x="584" y="1230.7285">Image</text><line style="stroke:#181818;stroke-width:0.5;" x1="556" x2="624" y1="1241" y2="1241"/><line style="stroke:#181818;stroke-width:0.5;" x1="556" x2="624" y1="1249" y2="1249"/></g><!--class Text--><g id="elem_Text"><rect fill="#F1F1F1" height="48" id="Text" rx="2.5" ry="2.5" style="stroke:#181818;stroke-width:0.5;" width="59" x="460.5" y="1209"/><ellipse cx="475.5" cy="1225" fill="#ADD1B2" rx="11" ry="11" style="stroke:#181818;stroke-width:1.0;"/><path d="M478.2656,1220.875 Q478.4219,1220.6563 478.6094,1220.5469 Q478.7969,1220.4375 479.0156,1220.4375 Q479.3906,1220.4375 479.625,1220.7031 Q479.8594,1220.9531 479.8594,1221.5625 L479.8594,1223.0156 Q479.8594,1223.625 479.625,1223.8906 Q479.3906,1224.1563 479.0156,1224.1563 Q478.6719,1224.1563 478.4688,1223.9531 Q478.2656,1223.7656 478.1563,1223.25 Q478.1094,1222.8906 477.9219,1222.7031 Q477.5938,1222.3281 476.9844,1222.1094 Q476.375,1221.8906 475.75,1221.8906 Q474.9844,1221.8906 474.3438,1222.2188 Q473.7188,1222.5469 473.2188,1223.2969 Q472.7344,1224.0469 472.7344,1225.0781 L472.7344,1226.1719 Q472.7344,1227.4063 473.625,1228.2344 Q474.5156,1229.0469 476.1094,1229.0469 Q477.0469,1229.0469 477.7031,1228.7969 Q478.0938,1228.6406 478.5156,1228.2031 Q478.7813,1227.9375 478.9219,1227.8594 Q479.0781,1227.7813 479.2813,1227.7813 Q479.6094,1227.7813 479.8594,1228.0469 Q480.125,1228.2969 480.125,1228.6406 Q480.125,1228.9844 479.7813,1229.3906 Q479.2813,1229.9688 478.4844,1230.2969 Q477.4063,1230.75 476.1094,1230.75 Q474.5938,1230.75 473.3906,1230.125 Q472.4063,1229.625 471.7188,1228.5625 Q471.0313,1227.4844 471.0313,1226.2031 L471.0313,1225.0469 Q471.0313,1223.7188 471.6406,1222.5781 Q472.2656,1221.4219 473.3594,1220.8125 Q474.4531,1220.1875 475.6875,1220.1875 Q476.4219,1220.1875 477.0625,1220.3594 Q477.7188,1220.5156 478.2656,1220.875 Z " fill="#000000"/><text fill="#000000" font-family="sans-serif" font-size="14" lengthAdjust="spacing" textLength="27" x="489.5" y="1230.7285">Text</text><line style="stroke:#181818;stroke-width:0.5;" x1="461.5" x2="518.5" y1="1241" y2="1241"/><line style="stroke:#181818;stroke-width:0.5;" x1="461.5" x2="518.5" y1="1249" y2="1249"/></g><!--link EducationPlatform to Teacher--><g id="link_EducationPlatform_Teacher"><path codeLine="6" d="M542,67.22 C542,85.16 542,91.89 542,109.83 " fill="none" id="EducationPlatform-Teacher" style="stroke:#181818;stroke-width:1.0;"/><polygon fill="#181818" points="542,55.22,538,61.22,542,67.22,546,61.22,542,55.22" style="stroke:#181818;stroke-width:1.0;"/><polygon fill="#181818" points="542,115.83,546,106.83,542,110.83,538,106.83,542,115.83" style="stroke:#181818;stroke-width:1.0;"/><text fill="#000000" font-family="sans-serif" font-size="13" lengthAdjust="spacing" textLength="8" x="532.975" y="105.1266">+</text></g><!--link EducationPlatform to Student--><g id="link_EducationPlatform_Student"><path codeLine="7" d="M627.2426,58.6731 C696.9526,80.4831 781.7538,107.0082 837.7438,124.5282 " fill="none" id="EducationPlatform-Student" style="stroke:#181818;stroke-width:1.0;"/><polygon fill="#181818" points="615.79,55.09,620.3219,60.6991,627.2426,58.6731,622.7107,53.064,615.79,55.09" style="stroke:#181818;stroke-width:1.0;"/><polygon fill="#181818" points="843.47,126.32,836.0752,119.8148,838.6982,124.8268,833.6862,127.4498,843.47,126.32" style="stroke:#181818;stroke-width:1.0;"/><text fill="#000000" font-family="sans-serif" font-size="13" lengthAdjust="spacing" textLength="8" x="827.5381" y="119.9847">+</text></g><!--link EducationPlatform to Topic--><g id="link_EducationPlatform_Topic"><path codeLine="8" d="M456.3709,37.7245 C389.0909,46.0545 312,68.87 312,139 C312,139 312,139 312,402 C312,447.23 328.0617,491.1503 342.3317,522.4603 " fill="none" id="EducationPlatform-Topic" style="stroke:#181818;stroke-width:1.0;"/><polygon fill="#181818" points="468.28,36.25,461.834,33.0175,456.3709,37.7245,462.817,40.9569,468.28,36.25" style="stroke:#181818;stroke-width:1.0;"/><polygon fill="#181818" points="344.82,527.92,344.7273,518.0716,342.7464,523.3703,337.4477,521.3894,344.82,527.92" style="stroke:#181818;stroke-width:1.0;"/><text fill="#000000" font-family="sans-serif" font-size="13" lengthAdjust="spacing" textLength="8" x="332.6579" y="517.0189">+</text></g><!--link EducationPlatform to Itinerary--><g id="link_EducationPlatform_Itinerary"><path codeLine="9" d="M508.8092,63.6497 C455.5592,116.5797 348.06,240.72 411,338 C432.05,370.53 468.8016,384.81 501.1416,392.22 " fill="none" id="EducationPlatform-Itinerary" style="stroke:#181818;stroke-width:1.0;"/><polygon fill="#181818" points="517.32,55.19,510.2447,56.5829,508.8092,63.6497,515.8845,62.2568,517.32,55.19" style="stroke:#181818;stroke-width:1.0;"/><polygon fill="#181818" points="506.99,393.56,499.1107,387.651,502.1163,392.4433,497.324,395.4489,506.99,393.56" style="stroke:#181818;stroke-width:1.0;"/><text fill="#000000" font-family="sans-serif" font-size="13" lengthAdjust="spacing" textLength="8" x="491.082" y="388.4651">+</text></g><!--link EducationPlatform to Chat--><g id="link_EducationPlatform_Chat"><path codeLine="10" d="M627.551,38.5089 C710.311,46.7489 835.12,66.06 942,116 C992.75,139.71 1008.69,148.24 1041,194 C1051.06,208.24 1055.7563,221.1965 1059.2863,235.8665 " fill="none" id="EducationPlatform-Chat" style="stroke:#181818;stroke-width:1.0;"/><polygon fill="#181818" points="615.61,37.32,621.1842,41.8948,627.551,38.5089,621.9768,33.9341,615.61,37.32" style="stroke:#181818;stroke-width:1.0;"/><polygon fill="#181818" points="1060.69,241.7,1062.4735,232.014,1059.5203,236.8388,1054.6955,233.8856,1060.69,241.7" style="stroke:#181818;stroke-width:1.0;"/></g><!--link Itinerary to Topic--><g id="link_Itinerary_Topic"><path codeLine="12" d="M524.8164,444.5895 C512.4464,464.7595 500.79,479.99 480,498 C454.56,520.04 425.4591,534.6539 400.1191,545.2039 " fill="none" id="Itinerary-Topic" style="stroke:#181818;stroke-width:1.0;"/><polygon fill="none" points="531.09,434.36,524.5434,437.3835,524.8164,444.5895,531.363,441.5659,531.09,434.36" style="stroke:#181818;stroke-width:1.0;"/><polygon fill="#181818" points="394.58,547.51,404.4261,547.7435,399.1959,545.5882,401.3512,540.3581,394.58,547.51" style="stroke:#181818;stroke-width:1.0;"/><text fill="#000000" font-family="sans-serif" font-size="13" lengthAdjust="spacing" textLength="8" x="402.3309" y="540.6493">+</text></g><!--reverse link Exercise to Domain--><g id="link_Exercise_Domain"><path codeLine="17" d="M1169.2714,446.1903 C1174.3014,476.7103 1179.75,509.85 1184.2,536.9 " fill="none" id="Exercise-backto-Domain" style="stroke:#181818;stroke-width:1.0;"/><polygon fill="#181818" points="1167.32,434.35,1164.3489,440.9206,1169.2714,446.1903,1172.2425,439.6197,1167.32,434.35" style="stroke:#181818;stroke-width:1.0;"/></g><!--reverse link Domain to Answer--><g id="link_Domain_Answer"><path codeLine="19" d="M1215.2928,594.4447 C1236.7928,620.0147 1263.75,652.06 1287.87,680.74 " fill="none" id="Domain-backto-Answer" style="stroke:#181818;stroke-width:1.0;"/><polygon fill="#181818" points="1207.57,585.26,1208.3698,592.4266,1215.2928,594.4447,1214.493,587.2781,1207.57,585.26" style="stroke:#181818;stroke-width:1.0;"/><text fill="#000000" font-family="sans-serif" font-size="13" lengthAdjust="spacing" textLength="8" x="1273.7413" y="670.1851">+</text></g><!--reverse link Domain to StatementType--><g id="link_Domain_StatementType"><path codeLine="20" d="M1184.7373,597.2092 C1183.0273,615.7392 1181.64,630.56 1179.4,654.81 " fill="none" id="Domain-backto-StatementType" style="stroke:#181818;stroke-width:1.0;"/><polygon fill="#181818" points="1185.84,585.26,1181.3056,590.867,1184.7373,597.2092,1189.2717,591.6022,1185.84,585.26" style="stroke:#181818;stroke-width:1.0;"/></g><!--reverse link Answer to Justification--><g id="link_Answer_Justification"><path codeLine="32" d="M1293.0868,757.6421 C1250.6168,838.4421 1135.11,1043.23 985,1179 C972.32,1190.47 956.74,1200.54 941.99,1208.74 " fill="none" id="Answer-backto-Justification" style="stroke:#181818;stroke-width:1.0;"/><polygon fill="none" points="1298.67,747.02,1292.3377,750.47,1293.0868,757.6421,1299.4191,754.1921,1298.67,747.02" style="stroke:#181818;stroke-width:1.0;"/><text fill="#000000" font-family="sans-serif" font-size="13" lengthAdjust="spacing" textLength="108" x="1129" y="1031.4951">[!answer.isCorrect]</text><text fill="#000000" font-family="sans-serif" font-size="13" lengthAdjust="spacing" textLength="22" x="929.9812" y="1198.0135">0..1</text></g><!--reverse link Answer to Application--><g id="link_Answer_Application"><path codeLine="33" d="M1275.9172,759.9816 C1266.5472,769.5516 1267.93,766.38 1256,773 C1206.03,800.7 1181.2,775.72 1131,803 C1088.22,826.25 1049.48,868.51 1027.9,894.82 " fill="none" id="Answer-backto-Application" style="stroke:#181818;stroke-width:1.0;"/><polygon fill="none" points="1288.51,747.12,1271.63,755.784,1280.2044,764.1792,1288.51,747.12" style="stroke:#181818;stroke-width:1.0;"/></g><!--link Teacher to Application--><g id="link_Teacher_Application"><path codeLine="35" d="M584.83,152.29 C634.6,168.31 710,202.83 710,265 C710,265 710,265 710,715 C710,834.01 868.1088,886.6288 953.6088,906.6988 " fill="none" id="Teacher-to-Application" style="stroke:#181818;stroke-width:1.0;stroke-dasharray:7.0,7.0;"/><polygon fill="#181818" points="959.45,908.07,951.6023,902.1191,954.5823,906.9274,949.7741,909.9074,959.45,908.07" style="stroke:#181818;stroke-width:1.0;"/><text fill="#000000" font-family="sans-serif" font-size="13" lengthAdjust="spacing" textLength="35" x="778.5" y="478.4951">review</text><text fill="#000000" font-family="sans-serif" font-size="13" lengthAdjust="spacing" textLength="170" x="715" y="494.8467">[application.isCorrect == null]</text></g><!--link Teacher to Topic--><g id="link_Teacher_Topic"><path codeLine="36" d="M532.01,164.12 C501.59,234.55 412.3993,441.0119 377.2893,522.2919 " fill="none" id="Teacher-to-Topic" style="stroke:#181818;stroke-width:1.0;stroke-dasharray:7.0,7.0;"/><polygon fill="#181818" points="374.91,527.8,382.151,521.1241,376.8927,523.2099,374.8069,517.9517,374.91,527.8" style="stroke:#181818;stroke-width:1.0;"/><text fill="#000000" font-family="sans-serif" font-size="13" lengthAdjust="spacing" textLength="21" x="464" y="334.4951">edit</text></g><!--reverse link Chat to Exercise--><g id="link_Chat_Exercise"><path codeLine="38" d="M1088.9712,299.8652 C1104.6012,321.2952 1120.92,343.67 1138.4,367.63 " fill="none" id="Chat-backto-Exercise" style="stroke:#181818;stroke-width:1.0;"/><polygon fill="none" points="1081.9,290.17,1082.2039,297.3747,1088.9712,299.8652,1088.6674,292.6605,1081.9,290.17" style="stroke:#181818;stroke-width:1.0;"/></g><!--link Chat to Application--><g id="link_Chat_Application"><path codeLine="39" d="M1062.77,290.04 C1060.4,316.54 1057,361.37 1057,400 C1057,400 1057,400 1057,715 C1057,781.74 1034.6536,852.086 1021.0136,889.326 " fill="none" id="Chat-to-Application" style="stroke:#181818;stroke-width:1.0;stroke-dasharray:7.0,7.0;"/><polygon fill="#181818" points="1018.95,894.96,1025.8013,887.8848,1020.6696,890.265,1018.2894,885.1333,1018.95,894.96" style="stroke:#181818;stroke-width:1.0;"/><text fill="#000000" font-family="sans-serif" font-size="13" lengthAdjust="spacing" textLength="54" x="1058" y="566.4951">constrast</text></g><!--link Teacher to Itinerary--><g id="link_Teacher_Itinerary"><path codeLine="41" d="M542.63,164.44 C543.89,210.89 546.528,308.6822 547.958,361.6122 " fill="none" id="Teacher-to-Itinerary" style="stroke:#181818;stroke-width:1.0;stroke-dasharray:7.0,7.0;"/><polygon fill="#181818" points="548.12,367.61,551.8755,358.5053,547.985,362.6118,543.8784,358.7213,548.12,367.61" style="stroke:#181818;stroke-width:1.0;"/><text fill="#000000" font-family="sans-serif" font-size="13" lengthAdjust="spacing" textLength="21" x="590" y="263.4951">edit</text><text fill="#000000" font-family="sans-serif" font-size="13" lengthAdjust="spacing" textLength="113" x="546" y="279.8467">[itinerary.isCustom]</text></g><!--link Student to Itinerary--><g id="link_Student_Itinerary"><path codeLine="43" d="M853.98,164.21 C793.91,210.65 663.6169,311.3902 595.1769,364.3002 " fill="none" id="Student-to-Itinerary" style="stroke:#181818;stroke-width:1.0;stroke-dasharray:7.0,7.0;"/><polygon fill="#181818" points="590.43,367.97,599.9968,365.63,594.3857,364.9119,595.1038,359.3008,590.43,367.97" style="stroke:#181818;stroke-width:1.0;"/><text fill="#000000" font-family="sans-serif" font-size="13" lengthAdjust="spacing" textLength="21" x="795.5" y="263.4951">edit</text><text fill="#000000" font-family="sans-serif" font-size="13" lengthAdjust="spacing" textLength="116" x="750" y="279.8467">[!itinerary.isCustom]</text></g><!--link Student to Application--><g id="link_Student_Application"><path codeLine="44" d="M921.5911,172.4865 C946.2511,195.2865 969,224.28 969,265 C969,265 969,265 969,715 C969,781.34 988.4804,851.7826 1000.3704,889.1426 " fill="none" id="Student-Application" style="stroke:#181818;stroke-width:1.0;"/><polygon fill="none" points="912.78,164.34,914.47,171.3503,921.5911,172.4865,919.901,165.4762,912.78,164.34" style="stroke:#181818;stroke-width:1.0;"/><polygon fill="#181818" points="1002.19,894.86,1003.2722,885.0708,1000.6737,890.0955,995.649,887.4969,1002.19,894.86" style="stroke:#181818;stroke-width:1.0;"/><text fill="#000000" font-family="sans-serif" font-size="13" lengthAdjust="spacing" textLength="14" x="970" y="486.4951">do</text><text fill="#000000" font-family="sans-serif" font-size="13" lengthAdjust="spacing" textLength="8" x="991.1637" y="884.1643">+</text></g><!--link Student to Chat--><g id="link_Student_Chat"><path codeLine="45" d="M924.72,158.57 C944.54,167.91 968.29,180.28 988,194 C1008.15,208.02 1024.2332,222.7416 1038.9332,237.5516 " fill="none" id="Student-to-Chat" style="stroke:#181818;stroke-width:1.0;stroke-dasharray:7.0,7.0;"/><polygon fill="#181818" points="1043.16,241.81,1039.6588,232.6045,1039.6377,238.2613,1033.9809,238.2402,1043.16,241.81" style="stroke:#181818;stroke-width:1.0;"/><text fill="#000000" font-family="sans-serif" font-size="13" lengthAdjust="spacing" textLength="21" x="1011" y="208.4951">ask</text></g><!--reverse link Topic to CompositeTopic--><g id="link_Topic_CompositeTopic"><path codeLine="50" d="M309.6337,568.8412 C265.5137,576.0212 207.18,590.75 151,624 C121.41,641.51 93.61,669.88 79.66,689.88 " fill="none" id="Topic-backto-CompositeTopic" style="stroke:#181818;stroke-width:1.0;stroke-dasharray:7.0,7.0;"/><polygon fill="none" points="327.4,565.95,308.67,562.9192,310.5975,574.7633,327.4,565.95" style="stroke:#181818;stroke-width:1.0;"/></g><!--link CompositeTopic to Topic--><g id="link_CompositeTopic_Topic"><path codeLine="57" d="M115.961,681.6904 C137.381,661.6904 156.41,641.51 186,624 C231.58,597.02 284.4464,581.7741 321.4264,572.6041 " fill="none" id="CompositeTopic-Topic" style="stroke:#181818;stroke-width:1.0;"/><polygon fill="none" points="107.19,689.88,114.3054,688.7089,115.961,681.6904,108.8457,682.8615,107.19,689.88" style="stroke:#181818;stroke-width:1.0;"/><polygon fill="#181818" points="327.25,571.16,317.5518,569.4437,322.397,572.3634,319.4773,577.2086,327.25,571.16" style="stroke:#181818;stroke-width:1.0;"/><text fill="#000000" font-family="sans-serif" font-size="13" lengthAdjust="spacing" textLength="8" x="311.4641" y="569.1772">+</text></g><!--reverse link Topic to SimpleTopic--><g id="link_Topic_SimpleTopic"><path codeLine="51" d="M341.9409,610.7863 C330.7109,639.5363 321.04,664.26 311.03,689.88 " fill="none" id="Topic-backto-SimpleTopic" style="stroke:#181818;stroke-width:1.0;stroke-dasharray:7.0,7.0;"/><polygon fill="none" points="348.49,594.02,336.3522,608.6033,347.5297,612.9693,348.49,594.02" style="stroke:#181818;stroke-width:1.0;"/></g><!--link Topic to Concept--><g id="link_Topic_Concept"><path codeLine="52" d="M406.6702,569.4863 C453.3002,578.5363 524.52,599.56 567,655 C622.13,726.95 604.6729,839.0799 593.3329,888.8499 " fill="none" id="Topic-Concept" style="stroke:#181818;stroke-width:1.0;"/><polygon fill="none" points="394.89,567.2,400.018,572.2699,406.6702,569.4863,401.5422,564.4164,394.89,567.2" style="stroke:#181818;stroke-width:1.0;"/><polygon fill="#181818" points="592,894.7,597.8994,886.8135,593.1108,889.8249,590.0993,885.0363,592,894.7" style="stroke:#181818;stroke-width:1.0;"/><text fill="#000000" font-family="sans-serif" font-size="13" lengthAdjust="spacing" textLength="5" x="587.8969" y="883.9633">*</text></g><!--link Topic to Document--><g id="link_Topic_Document"><path codeLine="53" d="M370.6655,605.9905 C378.9455,647.7205 387.32,710.73 374,773 C364.25,818.59 342.0362,861.9816 326.0362,889.7416 " fill="none" id="Topic-Document" style="stroke:#181818;stroke-width:1.0;"/><polygon fill="#181818" points="368.33,594.22,365.5742,600.8838,370.6655,605.9905,373.4213,599.3268,368.33,594.22" style="stroke:#181818;stroke-width:1.0;"/><polygon fill="#181818" points="323.04,894.94,330.9998,889.1399,325.5368,890.608,324.0687,885.145,323.04,894.94" style="stroke:#181818;stroke-width:1.0;"/></g><!--link Topic to Relation--><g id="link_Topic_Relation"><path codeLine="54" d="M404.1418,594.9546 C417.5218,605.6546 423.33,611.11 436,624 C456.5,644.86 473.4817,666.5117 487.1517,685.1517 " fill="none" id="Topic-Relation" style="stroke:#181818;stroke-width:1.0;"/><polygon fill="#181818" points="394.77,587.46,396.9577,594.3312,404.1418,594.9546,401.9541,588.0834,394.77,587.46" style="stroke:#181818;stroke-width:1.0;"/><polygon fill="#181818" points="490.7,689.99,488.6031,680.3669,487.7431,685.958,482.152,685.098,490.7,689.99" style="stroke:#181818;stroke-width:1.0;"/><text fill="#000000" font-family="sans-serif" font-size="13" lengthAdjust="spacing" textLength="5" x="480.8825" y="679.3276">*</text></g><!--link Topic to VideoWithAudio--><g id="link_Topic_VideoWithAudio"><path codeLine="55" d="M316.3695,580.0521 C284.7395,594.3821 250.29,615.72 230,655 C155.77,798.73 217.7811,999.3043 242.9011,1068.0643 " fill="none" id="Topic-VideoWithAudio" style="stroke:#181818;stroke-width:1.0;"/><polygon fill="none" points="327.3,575.1,320.184,573.9325,316.3695,580.0521,323.4854,581.2196,327.3,575.1" style="stroke:#181818;stroke-width:1.0;"/><polygon fill="#181818" points="244.96,1073.7,245.6288,1063.8739,243.2443,1069.0036,238.1146,1066.619,244.96,1073.7" style="stroke:#181818;stroke-width:1.0;"/><text fill="#000000" font-family="sans-serif" font-size="13" lengthAdjust="spacing" textLength="8" x="233.6185" y="1062.9633">+</text></g><!--link Concept to Definition--><g id="link_Concept_Definition"><path codeLine="59" d="M624.2569,950.6408 C663.1069,981.7508 718.2968,1025.9594 762.1868,1061.1094 " fill="none" id="Concept-Definition" style="stroke:#181818;stroke-width:1.0;"/><polygon fill="#181818" points="614.89,943.14,617.0732,950.0127,624.2569,950.6408,622.0737,943.7681,614.89,943.14" style="stroke:#181818;stroke-width:1.0;"/><polygon fill="#181818" points="766.87,1064.86,762.3456,1056.1119,762.9673,1061.7345,757.3447,1062.3562,766.87,1064.86" style="stroke:#181818;stroke-width:1.0;"/><text fill="#000000" font-family="sans-serif" font-size="13" lengthAdjust="spacing" textLength="191" x="730" y="1031.4951">[definitions-&gt;exits(d | d.isCorrect]</text><text fill="#000000" font-family="sans-serif" font-size="13" lengthAdjust="spacing" textLength="8" x="749.7682" y="1053.9465">+</text></g><!--link Concept to VideoWithAudio--><g id="link_Concept_VideoWithAudio"><path codeLine="60" d="M562.1673,952.7458 C551.1573,966.9158 542.99,975.06 526,987 C516.78,993.48 395.8649,1041.387 318.6749,1071.697 " fill="none" id="Concept-VideoWithAudio" style="stroke:#181818;stroke-width:1.0;"/><polygon fill="none" points="569.53,943.27,562.6901,945.5537,562.1673,952.7458,569.0073,950.4621,569.53,943.27" style="stroke:#181818;stroke-width:1.0;"/><polygon fill="#181818" points="313.09,1073.89,322.9293,1074.3238,317.7441,1072.0625,320.0053,1066.8773,313.09,1073.89" style="stroke:#181818;stroke-width:1.0;"/><text fill="#000000" font-family="sans-serif" font-size="13" lengthAdjust="spacing" textLength="5" x="322.5912" y="1063.202">*</text></g><!--link Relation to Concept--><g id="link_Relation_Concept"><path codeLine="62" d="M501.91,738.11 C498.13,760.12 495.15,793.83 505,821 C508.14,829.66 538.0566,864.2431 560.9966,890.0831 " fill="none" id="Relation-to-Concept" style="stroke:#181818;stroke-width:1.0;"/><polygon fill="#181818" points="564.98,894.57,561.9962,885.184,561.6605,890.8309,556.0136,890.4952,564.98,894.57" style="stroke:#181818;stroke-width:1.0;"/><text fill="#000000" font-family="sans-serif" font-size="13" lengthAdjust="spacing" textLength="31" x="506" y="817.4951">origin</text></g><!--link Relation to Concept--><g id="link_Relation_Concept"><path codeLine="63" d="M516.29,738.13 C523.4,755.86 533.39,780.94 542,803 C554.35,834.66 566.2127,865.7498 575.0327,889.0098 " fill="none" id="Relation-to-Concept-1" style="stroke:#181818;stroke-width:1.0;"/><polygon fill="#181818" points="577.16,894.62,577.7091,884.7865,575.3872,889.9448,570.2288,887.6229,577.16,894.62" style="stroke:#181818;stroke-width:1.0;"/><text fill="#000000" font-family="sans-serif" font-size="13" lengthAdjust="spacing" textLength="33" x="549" y="817.4951">target</text></g><!--link Relation to RelationType--><g id="link_Relation_RelationType"><path codeLine="64" d="M491.59,749.0994 C483.91,766.6094 478.58,780.43 472,803 C467.53,818.32 464.8995,829.1731 461.7795,845.0131 " fill="none" id="Relation-RelationType" style="stroke:#181818;stroke-width:1.0;"/><polygon fill="#181818" points="496.41,738.11,490.3368,741.998,491.59,749.0994,497.6631,745.2114,496.41,738.11" style="stroke:#181818;stroke-width:1.0;"/><polygon fill="#181818" points="460.62,850.9,466.2839,842.8427,461.5863,845.9943,458.4347,841.2966,460.62,850.9" style="stroke:#181818;stroke-width:1.0;"/></g><!--link Definition to Justification--><g id="link_Definition_Justification"><path codeLine="77" d="M834.0435,1141.3105 C849.3735,1165.2905 860.2486,1182.3145 873.9786,1203.7945 " fill="none" id="Definition-Justification" style="stroke:#181818;stroke-width:1.0;"/><polygon fill="none" points="827.58,1131.2,827.4416,1138.4098,834.0435,1141.3105,834.1819,1134.1008,827.58,1131.2" style="stroke:#181818;stroke-width:1.0;"/><polygon fill="#181818" points="877.21,1208.85,875.7331,1199.1125,874.5171,1204.6371,868.9925,1203.4211,877.21,1208.85" style="stroke:#181818;stroke-width:1.0;"/><text fill="#000000" font-family="sans-serif" font-size="13" lengthAdjust="spacing" textLength="118" x="858" y="1175.4951">[!definition.isCorrect]</text><text fill="#000000" font-family="sans-serif" font-size="13" lengthAdjust="spacing" textLength="8" x="864.3951" y="1198.1517">+</text></g><!--link Document to VideoWithAudio--><g id="link_Document_VideoWithAudio"><path codeLine="79" d="M298.2492,954.5995 C287.7092,988.5195 273.5104,1034.2002 262.9704,1068.1202 " fill="none" id="Document-VideoWithAudio" style="stroke:#181818;stroke-width:1.0;"/><polygon fill="none" points="301.81,943.14,296.2097,947.6828,298.2492,954.5995,303.8494,950.0567,301.81,943.14" style="stroke:#181818;stroke-width:1.0;"/><polygon fill="#181818" points="261.19,1073.85,267.6805,1066.4423,262.6737,1069.0752,260.0408,1064.0684,261.19,1073.85" style="stroke:#181818;stroke-width:1.0;"/><text fill="#000000" font-family="sans-serif" font-size="13" lengthAdjust="spacing" textLength="5" x="257.3918" y="1063.1517">*</text></g><!--link Document to Media--><g id="link_Document_Media"><path codeLine="80" d="M324.7658,954.0276 C340.4858,987.9476 362.0371,1034.4862 377.7571,1068.4062 " fill="none" id="Document-Media" style="stroke:#181818;stroke-width:1.0;"/><polygon fill="none" points="319.72,943.14,318.6137,950.2657,324.7658,954.0276,325.8721,946.9019,319.72,943.14" style="stroke:#181818;stroke-width:1.0;"/><polygon fill="#181818" points="380.28,1073.85,380.1249,1064.0024,378.1776,1069.3135,372.8665,1067.3662,380.28,1073.85" style="stroke:#181818;stroke-width:1.0;"/><text fill="#000000" font-family="sans-serif" font-size="13" lengthAdjust="spacing" textLength="5" x="371.8924" y="1063.1517">*</text></g><!--link VideoWithAudio to Audio--><g id="link_VideoWithAudio_Audio"><path codeLine="82" d="M257.189,1134.1249 C258.729,1150.1349 259.96,1159.95 263,1179 C264.57,1188.84 265.4754,1193.7426 267.4554,1203.0026 " fill="none" id="VideoWithAudio-Audio" style="stroke:#181818;stroke-width:1.0;"/><polygon fill="#181818" points="256.04,1122.18,252.6329,1128.5354,257.189,1134.1249,260.5961,1127.7694,256.04,1122.18" style="stroke:#181818;stroke-width:1.0;"/><polygon fill="#181818" points="268.71,1208.87,270.7397,1199.2326,267.6645,1203.9805,262.9166,1200.9053,268.71,1208.87" style="stroke:#181818;stroke-width:1.0;"/></g><!--link VideoWithAudio to Video--><g id="link_VideoWithAudio_Video"><path codeLine="83" d="M283.5684,1130.9793 C306.0084,1155.2393 328.8363,1179.9149 351.3363,1204.2449 " fill="none" id="VideoWithAudio-Video" style="stroke:#181818;stroke-width:1.0;"/><polygon fill="#181818" points="275.42,1122.17,276.5578,1129.2908,283.5684,1130.9793,282.4306,1123.8585,275.42,1122.17" style="stroke:#181818;stroke-width:1.0;"/><polygon fill="#181818" points="355.41,1208.65,352.2361,1199.3266,352.0152,1204.9791,346.3627,1204.7582,355.41,1208.65" style="stroke:#181818;stroke-width:1.0;"/></g><!--reverse link Media to Image--><g id="link_Media_Image"><path codeLine="86" d="M442.301,1128.0457 C462.631,1139.7757 472.81,1146.15 495,1161 C517.59,1176.11 542.14,1194.52 560.63,1208.8 " fill="none" id="Media-backto-Image" style="stroke:#181818;stroke-width:1.0;"/><polygon fill="none" points="426.71,1119.05,439.3024,1133.2427,445.2995,1122.8487,426.71,1119.05" style="stroke:#181818;stroke-width:1.0;"/></g><!--reverse link Media to Text--><g id="link_Media_Text"><path codeLine="87" d="M440.5424,1133.2451 C454.1924,1143.7151 454.69,1146.12 465,1161 C474.97,1175.39 481.36,1194.17 485.17,1208.8 " fill="none" id="Media-backto-Text" style="stroke:#181818;stroke-width:1.0;"/><polygon fill="none" points="426.26,1122.29,436.8907,1138.0059,444.1941,1128.4843,426.26,1122.29" style="stroke:#181818;stroke-width:1.0;"/></g><!--reverse link Media to Audio--><g id="link_Media_Audio"><path codeLine="88" d="M358.7315,1135.6853 C337.3915,1159.9453 315.94,1184.32 294.54,1208.65 " fill="none" id="Media-backto-Audio" style="stroke:#181818;stroke-width:1.0;"/><polygon fill="none" points="370.62,1122.17,354.2264,1131.7224,363.2366,1139.6481,370.62,1122.17" style="stroke:#181818;stroke-width:1.0;"/></g><!--reverse link Media to Video--><g id="link_Media_Video"><path codeLine="89" d="M386.6784,1140.0714 C384.1284,1164.3314 382.02,1184.32 379.46,1208.65 " fill="none" id="Media-backto-Video" style="stroke:#181818;stroke-width:1.0;"/><polygon fill="none" points="388.56,1122.17,380.7112,1139.4442,392.6455,1140.6986,388.56,1122.17" style="stroke:#181818;stroke-width:1.0;"/></g><!--reverse link Audio to Text--><g id="link_Audio_Text"><path codeLine="91" d="M312.4191,1205.6577 C334.0891,1191.5577 358.57,1178.39 387.5,1171 C418.94,1162.97 433.07,1153.67 460.5,1171 C473.6,1179.28 481,1195.13 485.12,1208.74 " fill="none" id="Audio-backto-Text" style="stroke:#181818;stroke-width:1.0;"/><polygon fill="#181818" points="307.39,1208.93,317.1152,1207.3743,311.5809,1206.2031,312.7522,1200.6688,307.39,1208.93" style="stroke:#181818;stroke-width:1.0;"/><text fill="#000000" font-family="sans-serif" font-size="13" lengthAdjust="spacing" textLength="71" x="388.5" y="1175.4951">transcription</text><text fill="#000000" font-family="sans-serif" font-size="13" lengthAdjust="spacing" textLength="22" x="291.1274" y="1198.2522">0..1</text></g><!--SRC=[VLHDRzim3BthLx0v3IrYRDTWBH0aFMJ0W679jaEMWsepYJ1RCYIvJTRslu-IB5jUFd9nz4W-yV53UScDWOKL4ZNNHtXbGByn23DhZ5KLUsViiMXoReMItqfkjqfNS3iUFy3eRWGhvFaUzJMNfMqAbFOgYwf5VisXo- -IqspFBMEz33MaPhcN-NX0dGk3GUGTFACsH4KQeyMnmLnLN4Z6mjT3ZcegpGj9JT2bvHOh4hSwriWOogOQOk6YMQd-uWgDzQSvReKKJe8_ViVIw_4K3lX2THVRuxIkIn6akXu40I65f4TAQymjEGIBqmsZZrdsQTJoj1GJMDzmxv9rKPiOzFcDejBxMDjMoBA7r301ZSy2N-2tX3NlyPuJxkz1DcMv6L3u9am02q5DSgtoUSQQ1-Jagbn9OpMdgYLSvDGrEH1IBciHeIoExOQnTkuk1jsSYuf1tVmCKYfKmXg6RWBS_66CFxbSIR-NsZL85dYWvdYGofnbC5DLhOom60OpiIn5LPS3E2HnEw8WcMDjMzWF_5pbZPko57EkSPm65AJZfoXG_H9sFsqAeQWBWpnEzgMziT_0Vcffb8hkOCOFU13MV2ZW3OfqjY939-B_36AcuFStU4z0QR6ZtJjlj5plqFP6dzrWWS8Efb3xelqmORkcngXSy6xzOXtYUI5fq8JbT6Fmt-qqxjerXBY7VJNWt38cPYVVrUza6_iQfbLZiQyNwtRgy9KccZCsz0kr2I7dB1vBvjQJmEix2t_yax2e-0vJO8K7cvu3NugqjCuHnYLkhSinl4VUcNgewHtAjQXzIVy1]--></g></svg>