<?xml version="1.0" encoding="us-ascii" standalone="no"?><svg xmlns="http://www.w3.org/2000/svg" xmlns:xlink="http://www.w3.org/1999/xlink" contentStyleType="text/css" height="1264px" preserveAspectRatio="none" style="width:1359px;height:1264px;background:#FFFFFF;" version="1.1" viewBox="0 0 1359 1264" width="1359px" zoomAndPan="magnify"><defs/><g><!--class Itinerary--><g id="elem_Itinerary"><rect codeLine="2" fill="#F1F1F1" height="65.6094" id="Itinerary" rx="2.5" ry="2.5" style="stroke:#181818;stroke-width:0.5;" width="84" x="372" y="368"/><ellipse cx="387.45" cy="384" fill="#ADD1B2" rx="11" ry="11" style="stroke:#181818;stroke-width:1.0;"/><path d="M390.2156,379.875 Q390.3719,379.6563 390.5594,379.5469 Q390.7469,379.4375 390.9656,379.4375 Q391.3406,379.4375 391.575,379.7031 Q391.8094,379.9531 391.8094,380.5625 L391.8094,382.0156 Q391.8094,382.625 391.575,382.8906 Q391.3406,383.1563 390.9656,383.1563 Q390.6219,383.1563 390.4188,382.9531 Q390.2156,382.7656 390.1063,382.25 Q390.0594,381.8906 389.8719,381.7031 Q389.5438,381.3281 388.9344,381.1094 Q388.325,380.8906 387.7,380.8906 Q386.9344,380.8906 386.2938,381.2188 Q385.6688,381.5469 385.1688,382.2969 Q384.6844,383.0469 384.6844,384.0781 L384.6844,385.1719 Q384.6844,386.4063 385.575,387.2344 Q386.4656,388.0469 388.0594,388.0469 Q388.9969,388.0469 389.6531,387.7969 Q390.0438,387.6406 390.4656,387.2031 Q390.7313,386.9375 390.8719,386.8594 Q391.0281,386.7813 391.2313,386.7813 Q391.5594,386.7813 391.8094,387.0469 Q392.075,387.2969 392.075,387.6406 Q392.075,387.9844 391.7313,388.3906 Q391.2313,388.9688 390.4344,389.2969 Q389.3563,389.75 388.0594,389.75 Q386.5438,389.75 385.3406,389.125 Q384.3563,388.625 383.6688,387.5625 Q382.9813,386.4844 382.9813,385.2031 L382.9813,384.0469 Q382.9813,382.7188 383.5906,381.5781 Q384.2156,380.4219 385.3094,379.8125 Q386.4031,379.1875 387.6375,379.1875 Q388.3719,379.1875 389.0125,379.3594 Q389.6688,379.5156 390.2156,379.875 Z " fill="#000000"/><text fill="#000000" font-family="sans-serif" font-size="14" lengthAdjust="spacing" textLength="51" x="401.55" y="389.7285">Itinerary</text><line style="stroke:#181818;stroke-width:0.5;" x1="373" x2="455" y1="400" y2="400"/><rect fill="none" height="6" style="stroke:#C82930;stroke-width:1.0;" width="6" x="380" y="411.3047"/><text fill="#000000" font-family="sans-serif" font-size="14" lengthAdjust="spacing" textLength="58" x="392" y="418.5332">isCustom</text><line style="stroke:#181818;stroke-width:0.5;" x1="373" x2="455" y1="425.6094" y2="425.6094"/></g><!--class Topic--><g id="elem_Topic"><rect codeLine="48" fill="#F1F1F1" height="65.6094" id="Topic" rx="2.5" ry="2.5" style="stroke:#181818;stroke-width:0.5;" width="67" x="322.5" y="528"/><ellipse cx="337.5" cy="544" fill="#A9DCDF" rx="11" ry="11" style="stroke:#181818;stroke-width:1.0;"/><path d="M339.6875,545.7656 L335.5469,545.7656 L335.125,546.7969 L335.5469,546.7969 Q336.1563,546.7969 336.4219,547.0313 Q336.6875,547.2656 336.6875,547.6563 Q336.6875,548.0313 336.4219,548.2656 Q336.1563,548.5 335.5469,548.5 L333.25,548.5 Q332.6406,548.5 332.3906,548.2656 Q332.125,548.0313 332.125,547.6406 Q332.125,547.2656 332.4063,547.0313 Q332.6719,546.7813 333.2969,546.7969 L335.9688,540.1406 L334.8594,540.1406 Q334.25,540.1406 333.9844,539.9063 Q333.7188,539.6719 333.7188,539.2813 Q333.7188,538.9063 333.9844,538.6719 Q334.25,538.4375 334.8594,538.4375 L338.5313,538.4375 L341.9219,546.7969 Q342.5156,546.7969 342.7031,546.9375 Q343.0938,547.2031 343.0938,547.6563 Q343.0938,548.0313 342.8281,548.2656 Q342.5781,548.5 341.9688,548.5 L339.6719,548.5 Q339.0625,548.5 338.7969,548.2656 Q338.5313,548.0313 338.5313,547.6406 Q338.5313,547.2656 338.7969,547.0313 Q339.0625,546.7969 339.6719,546.7969 L340.0938,546.7969 L339.6875,545.7656 Z M338.9688,544.0625 L337.6094,540.6875 L336.2344,544.0625 L338.9688,544.0625 Z " fill="#000000"/><text fill="#000000" font-family="sans-serif" font-size="14" font-style="italic" lengthAdjust="spacing" textLength="35" x="351.5" y="549.7285">Topic</text><line style="stroke:#181818;stroke-width:0.5;" x1="323.5" x2="388.5" y1="560" y2="560"/><rect fill="none" height="6" style="stroke:#C82930;stroke-width:1.0;" width="6" x="330.5" y="571.3047"/><text fill="#000000" font-family="sans-serif" font-size="14" lengthAdjust="spacing" textLength="33" x="342.5" y="578.5332">index</text><line style="stroke:#181818;stroke-width:0.5;" x1="323.5" x2="388.5" y1="585.6094" y2="585.6094"/></g><!--class EducationPlatform--><g id="elem_EducationPlatform"><rect fill="#F1F1F1" height="48" id="EducationPlatform" rx="2.5" ry="2.5" style="stroke:#181818;stroke-width:0.5;" width="147" x="564.5" y="7"/><ellipse cx="579.5" cy="23" fill="#ADD1B2" rx="11" ry="11" style="stroke:#181818;stroke-width:1.0;"/><path d="M582.2656,18.875 Q582.4219,18.6563 582.6094,18.5469 Q582.7969,18.4375 583.0156,18.4375 Q583.3906,18.4375 583.625,18.7031 Q583.8594,18.9531 583.8594,19.5625 L583.8594,21.0156 Q583.8594,21.625 583.625,21.8906 Q583.3906,22.1563 583.0156,22.1563 Q582.6719,22.1563 582.4688,21.9531 Q582.2656,21.7656 582.1563,21.25 Q582.1094,20.8906 581.9219,20.7031 Q581.5938,20.3281 580.9844,20.1094 Q580.375,19.8906 579.75,19.8906 Q578.9844,19.8906 578.3438,20.2188 Q577.7188,20.5469 577.2188,21.2969 Q576.7344,22.0469 576.7344,23.0781 L576.7344,24.1719 Q576.7344,25.4063 577.625,26.2344 Q578.5156,27.0469 580.1094,27.0469 Q581.0469,27.0469 581.7031,26.7969 Q582.0938,26.6406 582.5156,26.2031 Q582.7813,25.9375 582.9219,25.8594 Q583.0781,25.7813 583.2813,25.7813 Q583.6094,25.7813 583.8594,26.0469 Q584.125,26.2969 584.125,26.6406 Q584.125,26.9844 583.7813,27.3906 Q583.2813,27.9688 582.4844,28.2969 Q581.4063,28.75 580.1094,28.75 Q578.5938,28.75 577.3906,28.125 Q576.4063,27.625 575.7188,26.5625 Q575.0313,25.4844 575.0313,24.2031 L575.0313,23.0469 Q575.0313,21.7188 575.6406,20.5781 Q576.2656,19.4219 577.3594,18.8125 Q578.4531,18.1875 579.6875,18.1875 Q580.4219,18.1875 581.0625,18.3594 Q581.7188,18.5156 582.2656,18.875 Z " fill="#000000"/><text fill="#000000" font-family="sans-serif" font-size="14" lengthAdjust="spacing" textLength="115" x="593.5" y="28.7285">EducationPlatform</text><line style="stroke:#181818;stroke-width:0.5;" x1="565.5" x2="710.5" y1="39" y2="39"/><line style="stroke:#181818;stroke-width:0.5;" x1="565.5" x2="710.5" y1="47" y2="47"/></g><!--class Teacher--><g id="elem_Teacher"><rect fill="#F1F1F1" height="48" id="Teacher" rx="2.5" ry="2.5" style="stroke:#181818;stroke-width:0.5;" width="85" x="595.5" y="116"/><ellipse cx="610.5" cy="132" fill="#ADD1B2" rx="11" ry="11" style="stroke:#181818;stroke-width:1.0;"/><path d="M613.2656,127.875 Q613.4219,127.6563 613.6094,127.5469 Q613.7969,127.4375 614.0156,127.4375 Q614.3906,127.4375 614.625,127.7031 Q614.8594,127.9531 614.8594,128.5625 L614.8594,130.0156 Q614.8594,130.625 614.625,130.8906 Q614.3906,131.1563 614.0156,131.1563 Q613.6719,131.1563 613.4688,130.9531 Q613.2656,130.7656 613.1563,130.25 Q613.1094,129.8906 612.9219,129.7031 Q612.5938,129.3281 611.9844,129.1094 Q611.375,128.8906 610.75,128.8906 Q609.9844,128.8906 609.3438,129.2188 Q608.7188,129.5469 608.2188,130.2969 Q607.7344,131.0469 607.7344,132.0781 L607.7344,133.1719 Q607.7344,134.4063 608.625,135.2344 Q609.5156,136.0469 611.1094,136.0469 Q612.0469,136.0469 612.7031,135.7969 Q613.0938,135.6406 613.5156,135.2031 Q613.7813,134.9375 613.9219,134.8594 Q614.0781,134.7813 614.2813,134.7813 Q614.6094,134.7813 614.8594,135.0469 Q615.125,135.2969 615.125,135.6406 Q615.125,135.9844 614.7813,136.3906 Q614.2813,136.9688 613.4844,137.2969 Q612.4063,137.75 611.1094,137.75 Q609.5938,137.75 608.3906,137.125 Q607.4063,136.625 606.7188,135.5625 Q606.0313,134.4844 606.0313,133.2031 L606.0313,132.0469 Q606.0313,130.7188 606.6406,129.5781 Q607.2656,128.4219 608.3594,127.8125 Q609.4531,127.1875 610.6875,127.1875 Q611.4219,127.1875 612.0625,127.3594 Q612.7188,127.5156 613.2656,127.875 Z " fill="#000000"/><text fill="#000000" font-family="sans-serif" font-size="14" lengthAdjust="spacing" textLength="53" x="624.5" y="137.7285">Teacher</text><line style="stroke:#181818;stroke-width:0.5;" x1="596.5" x2="679.5" y1="148" y2="148"/><line style="stroke:#181818;stroke-width:0.5;" x1="596.5" x2="679.5" y1="156" y2="156"/></g><!--class Student--><g id="elem_Student"><rect fill="#F1F1F1" height="48" id="Student" rx="2.5" ry="2.5" style="stroke:#181818;stroke-width:0.5;" width="81" x="840.5" y="116"/><ellipse cx="855.5" cy="132" fill="#ADD1B2" rx="11" ry="11" style="stroke:#181818;stroke-width:1.0;"/><path d="M858.2656,127.875 Q858.4219,127.6563 858.6094,127.5469 Q858.7969,127.4375 859.0156,127.4375 Q859.3906,127.4375 859.625,127.7031 Q859.8594,127.9531 859.8594,128.5625 L859.8594,130.0156 Q859.8594,130.625 859.625,130.8906 Q859.3906,131.1563 859.0156,131.1563 Q858.6719,131.1563 858.4688,130.9531 Q858.2656,130.7656 858.1563,130.25 Q858.1094,129.8906 857.9219,129.7031 Q857.5938,129.3281 856.9844,129.1094 Q856.375,128.8906 855.75,128.8906 Q854.9844,128.8906 854.3438,129.2188 Q853.7188,129.5469 853.2188,130.2969 Q852.7344,131.0469 852.7344,132.0781 L852.7344,133.1719 Q852.7344,134.4063 853.625,135.2344 Q854.5156,136.0469 856.1094,136.0469 Q857.0469,136.0469 857.7031,135.7969 Q858.0938,135.6406 858.5156,135.2031 Q858.7813,134.9375 858.9219,134.8594 Q859.0781,134.7813 859.2813,134.7813 Q859.6094,134.7813 859.8594,135.0469 Q860.125,135.2969 860.125,135.6406 Q860.125,135.9844 859.7813,136.3906 Q859.2813,136.9688 858.4844,137.2969 Q857.4063,137.75 856.1094,137.75 Q854.5938,137.75 853.3906,137.125 Q852.4063,136.625 851.7188,135.5625 Q851.0313,134.4844 851.0313,133.2031 L851.0313,132.0469 Q851.0313,130.7188 851.6406,129.5781 Q852.2656,128.4219 853.3594,127.8125 Q854.4531,127.1875 855.6875,127.1875 Q856.4219,127.1875 857.0625,127.3594 Q857.7188,127.5156 858.2656,127.875 Z " fill="#000000"/><text fill="#000000" font-family="sans-serif" font-size="14" lengthAdjust="spacing" textLength="49" x="869.5" y="137.7285">Student</text><line style="stroke:#181818;stroke-width:0.5;" x1="841.5" x2="920.5" y1="148" y2="148"/><line style="stroke:#181818;stroke-width:0.5;" x1="841.5" x2="920.5" y1="156" y2="156"/></g><!--class Chat--><g id="elem_Chat"><rect fill="#F1F1F1" height="48" id="Chat" rx="2.5" ry="2.5" style="stroke:#181818;stroke-width:0.5;" width="62" x="1030" y="242"/><ellipse cx="1045" cy="258" fill="#ADD1B2" rx="11" ry="11" style="stroke:#181818;stroke-width:1.0;"/><path d="M1047.7656,253.875 Q1047.9219,253.6563 1048.1094,253.5469 Q1048.2969,253.4375 1048.5156,253.4375 Q1048.8906,253.4375 1049.125,253.7031 Q1049.3594,253.9531 1049.3594,254.5625 L1049.3594,256.0156 Q1049.3594,256.625 1049.125,256.8906 Q1048.8906,257.1563 1048.5156,257.1563 Q1048.1719,257.1563 1047.9688,256.9531 Q1047.7656,256.7656 1047.6563,256.25 Q1047.6094,255.8906 1047.4219,255.7031 Q1047.0938,255.3281 1046.4844,255.1094 Q1045.875,254.8906 1045.25,254.8906 Q1044.4844,254.8906 1043.8438,255.2188 Q1043.2188,255.5469 1042.7188,256.2969 Q1042.2344,257.0469 1042.2344,258.0781 L1042.2344,259.1719 Q1042.2344,260.4063 1043.125,261.2344 Q1044.0156,262.0469 1045.6094,262.0469 Q1046.5469,262.0469 1047.2031,261.7969 Q1047.5938,261.6406 1048.0156,261.2031 Q1048.2813,260.9375 1048.4219,260.8594 Q1048.5781,260.7813 1048.7813,260.7813 Q1049.1094,260.7813 1049.3594,261.0469 Q1049.625,261.2969 1049.625,261.6406 Q1049.625,261.9844 1049.2813,262.3906 Q1048.7813,262.9688 1047.9844,263.2969 Q1046.9063,263.75 1045.6094,263.75 Q1044.0938,263.75 1042.8906,263.125 Q1041.9063,262.625 1041.2188,261.5625 Q1040.5313,260.4844 1040.5313,259.2031 L1040.5313,258.0469 Q1040.5313,256.7188 1041.1406,255.5781 Q1041.7656,254.4219 1042.8594,253.8125 Q1043.9531,253.1875 1045.1875,253.1875 Q1045.9219,253.1875 1046.5625,253.3594 Q1047.2188,253.5156 1047.7656,253.875 Z " fill="#000000"/><text fill="#000000" font-family="sans-serif" font-size="14" lengthAdjust="spacing" textLength="30" x="1059" y="263.7285">Chat</text><line style="stroke:#181818;stroke-width:0.5;" x1="1031" x2="1091" y1="274" y2="274"/><line style="stroke:#181818;stroke-width:0.5;" x1="1031" x2="1091" y1="282" y2="282"/></g><!--class Exercise--><g id="elem_Exercise"><rect codeLine="16" fill="#F1F1F1" height="65.6094" id="Exercise" rx="2.5" ry="2.5" style="stroke:#181818;stroke-width:0.5;" width="85" x="1123.5" y="368"/><ellipse cx="1138.5" cy="384" fill="#ADD1B2" rx="11" ry="11" style="stroke:#181818;stroke-width:1.0;"/><path d="M1141.2656,379.875 Q1141.4219,379.6563 1141.6094,379.5469 Q1141.7969,379.4375 1142.0156,379.4375 Q1142.3906,379.4375 1142.625,379.7031 Q1142.8594,379.9531 1142.8594,380.5625 L1142.8594,382.0156 Q1142.8594,382.625 1142.625,382.8906 Q1142.3906,383.1563 1142.0156,383.1563 Q1141.6719,383.1563 1141.4688,382.9531 Q1141.2656,382.7656 1141.1563,382.25 Q1141.1094,381.8906 1140.9219,381.7031 Q1140.5938,381.3281 1139.9844,381.1094 Q1139.375,380.8906 1138.75,380.8906 Q1137.9844,380.8906 1137.3438,381.2188 Q1136.7188,381.5469 1136.2188,382.2969 Q1135.7344,383.0469 1135.7344,384.0781 L1135.7344,385.1719 Q1135.7344,386.4063 1136.625,387.2344 Q1137.5156,388.0469 1139.1094,388.0469 Q1140.0469,388.0469 1140.7031,387.7969 Q1141.0938,387.6406 1141.5156,387.2031 Q1141.7813,386.9375 1141.9219,386.8594 Q1142.0781,386.7813 1142.2813,386.7813 Q1142.6094,386.7813 1142.8594,387.0469 Q1143.125,387.2969 1143.125,387.6406 Q1143.125,387.9844 1142.7813,388.3906 Q1142.2813,388.9688 1141.4844,389.2969 Q1140.4063,389.75 1139.1094,389.75 Q1137.5938,389.75 1136.3906,389.125 Q1135.4063,388.625 1134.7188,387.5625 Q1134.0313,386.4844 1134.0313,385.2031 L1134.0313,384.0469 Q1134.0313,382.7188 1134.6406,381.5781 Q1135.2656,380.4219 1136.3594,379.8125 Q1137.4531,379.1875 1138.6875,379.1875 Q1139.4219,379.1875 1140.0625,379.3594 Q1140.7188,379.5156 1141.2656,379.875 Z " fill="#000000"/><text fill="#000000" font-family="sans-serif" font-size="14" lengthAdjust="spacing" textLength="53" x="1152.5" y="389.7285">Exercise</text><line style="stroke:#181818;stroke-width:0.5;" x1="1124.5" x2="1207.5" y1="400" y2="400"/><ellipse cx="1134.5" cy="414.3047" fill="none" rx="3" ry="3" style="stroke:#038048;stroke-width:1.0;"/><text fill="#000000" font-family="sans-serif" font-size="14" lengthAdjust="spacing" textLength="46" x="1143.5" y="418.5332">version</text><line style="stroke:#181818;stroke-width:0.5;" x1="1124.5" x2="1207.5" y1="425.6094" y2="425.6094"/></g><!--class Domain--><g id="elem_Domain"><rect fill="#F1F1F1" height="48" id="Domain" rx="2.5" ry="2.5" style="stroke:#181818;stroke-width:0.5;" width="80" x="1144" y="537"/><ellipse cx="1159" cy="553" fill="#ADD1B2" rx="11" ry="11" style="stroke:#181818;stroke-width:1.0;"/><path d="M1161.7656,548.875 Q1161.9219,548.6563 1162.1094,548.5469 Q1162.2969,548.4375 1162.5156,548.4375 Q1162.8906,548.4375 1163.125,548.7031 Q1163.3594,548.9531 1163.3594,549.5625 L1163.3594,551.0156 Q1163.3594,551.625 1163.125,551.8906 Q1162.8906,552.1563 1162.5156,552.1563 Q1162.1719,552.1563 1161.9688,551.9531 Q1161.7656,551.7656 1161.6563,551.25 Q1161.6094,550.8906 1161.4219,550.7031 Q1161.0938,550.3281 1160.4844,550.1094 Q1159.875,549.8906 1159.25,549.8906 Q1158.4844,549.8906 1157.8438,550.2188 Q1157.2188,550.5469 1156.7188,551.2969 Q1156.2344,552.0469 1156.2344,553.0781 L1156.2344,554.1719 Q1156.2344,555.4063 1157.125,556.2344 Q1158.0156,557.0469 1159.6094,557.0469 Q1160.5469,557.0469 1161.2031,556.7969 Q1161.5938,556.6406 1162.0156,556.2031 Q1162.2813,555.9375 1162.4219,555.8594 Q1162.5781,555.7813 1162.7813,555.7813 Q1163.1094,555.7813 1163.3594,556.0469 Q1163.625,556.2969 1163.625,556.6406 Q1163.625,556.9844 1163.2813,557.3906 Q1162.7813,557.9688 1161.9844,558.2969 Q1160.9063,558.75 1159.6094,558.75 Q1158.0938,558.75 1156.8906,558.125 Q1155.9063,557.625 1155.2188,556.5625 Q1154.5313,555.4844 1154.5313,554.2031 L1154.5313,553.0469 Q1154.5313,551.7188 1155.1406,550.5781 Q1155.7656,549.4219 1156.8594,548.8125 Q1157.9531,548.1875 1159.1875,548.1875 Q1159.9219,548.1875 1160.5625,548.3594 Q1161.2188,548.5156 1161.7656,548.875 Z " fill="#000000"/><text fill="#000000" font-family="sans-serif" font-size="14" lengthAdjust="spacing" textLength="48" x="1173" y="558.7285">Domain</text><line style="stroke:#181818;stroke-width:0.5;" x1="1145" x2="1223" y1="569" y2="569"/><line style="stroke:#181818;stroke-width:0.5;" x1="1145" x2="1223" y1="577" y2="577"/></g><!--class Answer--><g id="elem_Answer"><rect codeLine="31" fill="#F1F1F1" height="65.6094" id="Answer" rx="2.5" ry="2.5" style="stroke:#181818;stroke-width:0.5;" width="83" x="1269.5" y="681"/><ellipse cx="1286.75" cy="697" fill="#ADD1B2" rx="11" ry="11" style="stroke:#181818;stroke-width:1.0;"/><path d="M1289.5156,692.875 Q1289.6719,692.6563 1289.8594,692.5469 Q1290.0469,692.4375 1290.2656,692.4375 Q1290.6406,692.4375 1290.875,692.7031 Q1291.1094,692.9531 1291.1094,693.5625 L1291.1094,695.0156 Q1291.1094,695.625 1290.875,695.8906 Q1290.6406,696.1563 1290.2656,696.1563 Q1289.9219,696.1563 1289.7188,695.9531 Q1289.5156,695.7656 1289.4063,695.25 Q1289.3594,694.8906 1289.1719,694.7031 Q1288.8438,694.3281 1288.2344,694.1094 Q1287.625,693.8906 1287,693.8906 Q1286.2344,693.8906 1285.5938,694.2188 Q1284.9688,694.5469 1284.4688,695.2969 Q1283.9844,696.0469 1283.9844,697.0781 L1283.9844,698.1719 Q1283.9844,699.4063 1284.875,700.2344 Q1285.7656,701.0469 1287.3594,701.0469 Q1288.2969,701.0469 1288.9531,700.7969 Q1289.3438,700.6406 1289.7656,700.2031 Q1290.0313,699.9375 1290.1719,699.8594 Q1290.3281,699.7813 1290.5313,699.7813 Q1290.8594,699.7813 1291.1094,700.0469 Q1291.375,700.2969 1291.375,700.6406 Q1291.375,700.9844 1291.0313,701.3906 Q1290.5313,701.9688 1289.7344,702.2969 Q1288.6563,702.75 1287.3594,702.75 Q1285.8438,702.75 1284.6406,702.125 Q1283.6563,701.625 1282.9688,700.5625 Q1282.2813,699.4844 1282.2813,698.2031 L1282.2813,697.0469 Q1282.2813,695.7188 1282.8906,694.5781 Q1283.5156,693.4219 1284.6094,692.8125 Q1285.7031,692.1875 1286.9375,692.1875 Q1287.6719,692.1875 1288.3125,692.3594 Q1288.9688,692.5156 1289.5156,692.875 Z " fill="#000000"/><text fill="#000000" font-family="sans-serif" font-size="14" lengthAdjust="spacing" textLength="46" x="1301.25" y="702.7285">Answer</text><line style="stroke:#181818;stroke-width:0.5;" x1="1270.5" x2="1351.5" y1="713" y2="713"/><rect fill="none" height="6" style="stroke:#C82930;stroke-width:1.0;" width="6" x="1277.5" y="724.3047"/><text fill="#000000" font-family="sans-serif" font-size="14" lengthAdjust="spacing" textLength="57" x="1289.5" y="731.5332">isCorrect</text><line style="stroke:#181818;stroke-width:0.5;" x1="1270.5" x2="1351.5" y1="738.6094" y2="738.6094"/></g><!--class StatementType--><g id="elem_StatementType"><rect codeLine="24" fill="#F1F1F1" height="118.4375" id="StatementType" rx="2.5" ry="2.5" style="stroke:#181818;stroke-width:0.5;" width="128" x="1106" y="655"/><ellipse cx="1121" cy="671" fill="#EB937F" rx="11" ry="11" style="stroke:#181818;stroke-width:1.0;"/><path d="M1119.8594,671.7969 L1119.8594,674.2969 L1124.1875,674.2969 L1124.1875,673.375 Q1124.1875,672.7656 1124.4219,672.5 Q1124.6719,672.2344 1125.0469,672.2344 Q1125.4219,672.2344 1125.6563,672.5 Q1125.8906,672.7656 1125.8906,673.375 L1125.8906,676 L1117.8906,676 Q1117.2656,676 1117,675.7656 Q1116.75,675.5313 1116.75,675.1406 Q1116.75,674.7656 1117.0156,674.5313 Q1117.2813,674.2969 1117.8906,674.2969 L1118.1563,674.2969 L1118.1563,667.6406 L1117.8906,667.6406 Q1117.2656,667.6406 1117,667.4063 Q1116.75,667.1719 1116.75,666.7813 Q1116.75,666.4063 1117,666.1719 Q1117.2656,665.9375 1117.8906,665.9375 L1125.5156,665.9375 L1125.5156,668.5313 Q1125.5156,669.1406 1125.2813,669.4063 Q1125.0625,669.6563 1124.6719,669.6563 Q1124.2969,669.6563 1124.0625,669.4063 Q1123.8281,669.1406 1123.8281,668.5313 L1123.8281,667.6406 L1119.8594,667.6406 L1119.8594,670.0938 L1121.3438,670.0938 Q1121.3438,669.4375 1121.4688,669.25 Q1121.7344,668.8438 1122.2031,668.8438 Q1122.5781,668.8438 1122.8125,669.1094 Q1123.0469,669.3594 1123.0469,669.9688 L1123.0469,671.9375 Q1123.0469,672.4844 1122.9219,672.6719 Q1122.6563,673.0625 1122.2031,673.0625 Q1121.7344,673.0625 1121.4688,672.6563 Q1121.3438,672.4688 1121.3438,671.7969 L1119.8594,671.7969 Z " fill="#000000"/><text fill="#000000" font-family="sans-serif" font-size="14" lengthAdjust="spacing" textLength="96" x="1135" y="676.7285">StatementType</text><line style="stroke:#181818;stroke-width:0.5;" x1="1107" x2="1233" y1="687" y2="687"/><text fill="#000000" font-family="sans-serif" font-size="14" lengthAdjust="spacing" textLength="63" x="1112" y="705.5332">ClozeTest</text><text fill="#000000" font-family="sans-serif" font-size="14" lengthAdjust="spacing" textLength="59" x="1112" y="723.1426">Definition</text><text fill="#000000" font-family="sans-serif" font-size="14" lengthAdjust="spacing" textLength="84" x="1112" y="740.752">RelationType</text><text fill="#000000" font-family="sans-serif" font-size="14" lengthAdjust="spacing" textLength="108" x="1112" y="758.3613">JustifyApplication</text><line style="stroke:#181818;stroke-width:0.5;" x1="1107" x2="1233" y1="765.4375" y2="765.4375"/></g><!--class Justification--><g id="elem_Justification"><rect fill="#F1F1F1" height="48" id="Justification" rx="2.5" ry="2.5" style="stroke:#181818;stroke-width:0.5;" width="105" x="837.5" y="1209"/><ellipse cx="852.5" cy="1225" fill="#ADD1B2" rx="11" ry="11" style="stroke:#181818;stroke-width:1.0;"/><path d="M855.2656,1220.875 Q855.4219,1220.6563 855.6094,1220.5469 Q855.7969,1220.4375 856.0156,1220.4375 Q856.3906,1220.4375 856.625,1220.7031 Q856.8594,1220.9531 856.8594,1221.5625 L856.8594,1223.0156 Q856.8594,1223.625 856.625,1223.8906 Q856.3906,1224.1563 856.0156,1224.1563 Q855.6719,1224.1563 855.4688,1223.9531 Q855.2656,1223.7656 855.1563,1223.25 Q855.1094,1222.8906 854.9219,1222.7031 Q854.5938,1222.3281 853.9844,1222.1094 Q853.375,1221.8906 852.75,1221.8906 Q851.9844,1221.8906 851.3438,1222.2188 Q850.7188,1222.5469 850.2188,1223.2969 Q849.7344,1224.0469 849.7344,1225.0781 L849.7344,1226.1719 Q849.7344,1227.4063 850.625,1228.2344 Q851.5156,1229.0469 853.1094,1229.0469 Q854.0469,1229.0469 854.7031,1228.7969 Q855.0938,1228.6406 855.5156,1228.2031 Q855.7813,1227.9375 855.9219,1227.8594 Q856.0781,1227.7813 856.2813,1227.7813 Q856.6094,1227.7813 856.8594,1228.0469 Q857.125,1228.2969 857.125,1228.6406 Q857.125,1228.9844 856.7813,1229.3906 Q856.2813,1229.9688 855.4844,1230.2969 Q854.4063,1230.75 853.1094,1230.75 Q851.5938,1230.75 850.3906,1230.125 Q849.4063,1229.625 848.7188,1228.5625 Q848.0313,1227.4844 848.0313,1226.2031 L848.0313,1225.0469 Q848.0313,1223.7188 848.6406,1222.5781 Q849.2656,1221.4219 850.3594,1220.8125 Q851.4531,1220.1875 852.6875,1220.1875 Q853.4219,1220.1875 854.0625,1220.3594 Q854.7188,1220.5156 855.2656,1220.875 Z " fill="#000000"/><text fill="#000000" font-family="sans-serif" font-size="14" lengthAdjust="spacing" textLength="73" x="866.5" y="1230.7285">Justification</text><line style="stroke:#181818;stroke-width:0.5;" x1="838.5" x2="941.5" y1="1241" y2="1241"/><line style="stroke:#181818;stroke-width:0.5;" x1="838.5" x2="941.5" y1="1249" y2="1249"/></g><!--class Application--><g id="elem_Application"><rect fill="#F1F1F1" height="48" id="Application" rx="2.5" ry="2.5" style="stroke:#181818;stroke-width:0.5;" width="101" x="955.5" y="895"/><ellipse cx="970.5" cy="911" fill="#ADD1B2" rx="11" ry="11" style="stroke:#181818;stroke-width:1.0;"/><path d="M973.2656,906.875 Q973.4219,906.6563 973.6094,906.5469 Q973.7969,906.4375 974.0156,906.4375 Q974.3906,906.4375 974.625,906.7031 Q974.8594,906.9531 974.8594,907.5625 L974.8594,909.0156 Q974.8594,909.625 974.625,909.8906 Q974.3906,910.1563 974.0156,910.1563 Q973.6719,910.1563 973.4688,909.9531 Q973.2656,909.7656 973.1563,909.25 Q973.1094,908.8906 972.9219,908.7031 Q972.5938,908.3281 971.9844,908.1094 Q971.375,907.8906 970.75,907.8906 Q969.9844,907.8906 969.3438,908.2188 Q968.7188,908.5469 968.2188,909.2969 Q967.7344,910.0469 967.7344,911.0781 L967.7344,912.1719 Q967.7344,913.4063 968.625,914.2344 Q969.5156,915.0469 971.1094,915.0469 Q972.0469,915.0469 972.7031,914.7969 Q973.0938,914.6406 973.5156,914.2031 Q973.7813,913.9375 973.9219,913.8594 Q974.0781,913.7813 974.2813,913.7813 Q974.6094,913.7813 974.8594,914.0469 Q975.125,914.2969 975.125,914.6406 Q975.125,914.9844 974.7813,915.3906 Q974.2813,915.9688 973.4844,916.2969 Q972.4063,916.75 971.1094,916.75 Q969.5938,916.75 968.3906,916.125 Q967.4063,915.625 966.7188,914.5625 Q966.0313,913.4844 966.0313,912.2031 L966.0313,911.0469 Q966.0313,909.7188 966.6406,908.5781 Q967.2656,907.4219 968.3594,906.8125 Q969.4531,906.1875 970.6875,906.1875 Q971.4219,906.1875 972.0625,906.3594 Q972.7188,906.5156 973.2656,906.875 Z " fill="#000000"/><text fill="#000000" font-family="sans-serif" font-size="14" lengthAdjust="spacing" textLength="69" x="984.5" y="916.7285">Application</text><line style="stroke:#181818;stroke-width:0.5;" x1="956.5" x2="1055.5" y1="927" y2="927"/><line style="stroke:#181818;stroke-width:0.5;" x1="956.5" x2="1055.5" y1="935" y2="935"/></g><!--class CompositeTopic--><g id="elem_CompositeTopic"><rect fill="#F1F1F1" height="48" id="CompositeTopic" rx="2.5" ry="2.5" style="stroke:#181818;stroke-width:0.5;" width="134" x="7" y="690"/><ellipse cx="22" cy="706" fill="#ADD1B2" rx="11" ry="11" style="stroke:#181818;stroke-width:1.0;"/><path d="M24.7656,701.875 Q24.9219,701.6563 25.1094,701.5469 Q25.2969,701.4375 25.5156,701.4375 Q25.8906,701.4375 26.125,701.7031 Q26.3594,701.9531 26.3594,702.5625 L26.3594,704.0156 Q26.3594,704.625 26.125,704.8906 Q25.8906,705.1563 25.5156,705.1563 Q25.1719,705.1563 24.9688,704.9531 Q24.7656,704.7656 24.6563,704.25 Q24.6094,703.8906 24.4219,703.7031 Q24.0938,703.3281 23.4844,703.1094 Q22.875,702.8906 22.25,702.8906 Q21.4844,702.8906 20.8438,703.2188 Q20.2188,703.5469 19.7188,704.2969 Q19.2344,705.0469 19.2344,706.0781 L19.2344,707.1719 Q19.2344,708.4063 20.125,709.2344 Q21.0156,710.0469 22.6094,710.0469 Q23.5469,710.0469 24.2031,709.7969 Q24.5938,709.6406 25.0156,709.2031 Q25.2813,708.9375 25.4219,708.8594 Q25.5781,708.7813 25.7813,708.7813 Q26.1094,708.7813 26.3594,709.0469 Q26.625,709.2969 26.625,709.6406 Q26.625,709.9844 26.2813,710.3906 Q25.7813,710.9688 24.9844,711.2969 Q23.9063,711.75 22.6094,711.75 Q21.0938,711.75 19.8906,711.125 Q18.9063,710.625 18.2188,709.5625 Q17.5313,708.4844 17.5313,707.2031 L17.5313,706.0469 Q17.5313,704.7188 18.1406,703.5781 Q18.7656,702.4219 19.8594,701.8125 Q20.9531,701.1875 22.1875,701.1875 Q22.9219,701.1875 23.5625,701.3594 Q24.2188,701.5156 24.7656,701.875 Z " fill="#000000"/><text fill="#000000" font-family="sans-serif" font-size="14" lengthAdjust="spacing" textLength="102" x="36" y="711.7285">CompositeTopic</text><line style="stroke:#181818;stroke-width:0.5;" x1="8" x2="140" y1="722" y2="722"/><line style="stroke:#181818;stroke-width:0.5;" x1="8" x2="140" y1="730" y2="730"/></g><!--class SimpleTopic--><g id="elem_SimpleTopic"><rect fill="#F1F1F1" height="48" id="SimpleTopic" rx="2.5" ry="2.5" style="stroke:#181818;stroke-width:0.5;" width="109" x="247.5" y="690"/><ellipse cx="262.5" cy="706" fill="#ADD1B2" rx="11" ry="11" style="stroke:#181818;stroke-width:1.0;"/><path d="M265.2656,701.875 Q265.4219,701.6563 265.6094,701.5469 Q265.7969,701.4375 266.0156,701.4375 Q266.3906,701.4375 266.625,701.7031 Q266.8594,701.9531 266.8594,702.5625 L266.8594,704.0156 Q266.8594,704.625 266.625,704.8906 Q266.3906,705.1563 266.0156,705.1563 Q265.6719,705.1563 265.4688,704.9531 Q265.2656,704.7656 265.1563,704.25 Q265.1094,703.8906 264.9219,703.7031 Q264.5938,703.3281 263.9844,703.1094 Q263.375,702.8906 262.75,702.8906 Q261.9844,702.8906 261.3438,703.2188 Q260.7188,703.5469 260.2188,704.2969 Q259.7344,705.0469 259.7344,706.0781 L259.7344,707.1719 Q259.7344,708.4063 260.625,709.2344 Q261.5156,710.0469 263.1094,710.0469 Q264.0469,710.0469 264.7031,709.7969 Q265.0938,709.6406 265.5156,709.2031 Q265.7813,708.9375 265.9219,708.8594 Q266.0781,708.7813 266.2813,708.7813 Q266.6094,708.7813 266.8594,709.0469 Q267.125,709.2969 267.125,709.6406 Q267.125,709.9844 266.7813,710.3906 Q266.2813,710.9688 265.4844,711.2969 Q264.4063,711.75 263.1094,711.75 Q261.5938,711.75 260.3906,711.125 Q259.4063,710.625 258.7188,709.5625 Q258.0313,708.4844 258.0313,707.2031 L258.0313,706.0469 Q258.0313,704.7188 258.6406,703.5781 Q259.2656,702.4219 260.3594,701.8125 Q261.4531,701.1875 262.6875,701.1875 Q263.4219,701.1875 264.0625,701.3594 Q264.7188,701.5156 265.2656,701.875 Z " fill="#000000"/><text fill="#000000" font-family="sans-serif" font-size="14" lengthAdjust="spacing" textLength="77" x="276.5" y="711.7285">SimpleTopic</text><line style="stroke:#181818;stroke-width:0.5;" x1="248.5" x2="355.5" y1="722" y2="722"/><line style="stroke:#181818;stroke-width:0.5;" x1="248.5" x2="355.5" y1="730" y2="730"/></g><!--class Concept--><g id="elem_Concept"><rect fill="#F1F1F1" height="48" id="Concept" rx="2.5" ry="2.5" style="stroke:#181818;stroke-width:0.5;" width="85" x="542.5" y="895"/><ellipse cx="557.5" cy="911" fill="#ADD1B2" rx="11" ry="11" style="stroke:#181818;stroke-width:1.0;"/><path d="M560.2656,906.875 Q560.4219,906.6563 560.6094,906.5469 Q560.7969,906.4375 561.0156,906.4375 Q561.3906,906.4375 561.625,906.7031 Q561.8594,906.9531 561.8594,907.5625 L561.8594,909.0156 Q561.8594,909.625 561.625,909.8906 Q561.3906,910.1563 561.0156,910.1563 Q560.6719,910.1563 560.4688,909.9531 Q560.2656,909.7656 560.1563,909.25 Q560.1094,908.8906 559.9219,908.7031 Q559.5938,908.3281 558.9844,908.1094 Q558.375,907.8906 557.75,907.8906 Q556.9844,907.8906 556.3438,908.2188 Q555.7188,908.5469 555.2188,909.2969 Q554.7344,910.0469 554.7344,911.0781 L554.7344,912.1719 Q554.7344,913.4063 555.625,914.2344 Q556.5156,915.0469 558.1094,915.0469 Q559.0469,915.0469 559.7031,914.7969 Q560.0938,914.6406 560.5156,914.2031 Q560.7813,913.9375 560.9219,913.8594 Q561.0781,913.7813 561.2813,913.7813 Q561.6094,913.7813 561.8594,914.0469 Q562.125,914.2969 562.125,914.6406 Q562.125,914.9844 561.7813,915.3906 Q561.2813,915.9688 560.4844,916.2969 Q559.4063,916.75 558.1094,916.75 Q556.5938,916.75 555.3906,916.125 Q554.4063,915.625 553.7188,914.5625 Q553.0313,913.4844 553.0313,912.2031 L553.0313,911.0469 Q553.0313,909.7188 553.6406,908.5781 Q554.2656,907.4219 555.3594,906.8125 Q556.4531,906.1875 557.6875,906.1875 Q558.4219,906.1875 559.0625,906.3594 Q559.7188,906.5156 560.2656,906.875 Z " fill="#000000"/><text fill="#000000" font-family="sans-serif" font-size="14" lengthAdjust="spacing" textLength="53" x="571.5" y="916.7285">Concept</text><line style="stroke:#181818;stroke-width:0.5;" x1="543.5" x2="626.5" y1="927" y2="927"/><line style="stroke:#181818;stroke-width:0.5;" x1="543.5" x2="626.5" y1="935" y2="935"/></g><!--class Document--><g id="elem_Document"><rect fill="#F1F1F1" height="48" id="Document" rx="2.5" ry="2.5" style="stroke:#181818;stroke-width:0.5;" width="96" x="260" y="895"/><ellipse cx="275" cy="911" fill="#ADD1B2" rx="11" ry="11" style="stroke:#181818;stroke-width:1.0;"/><path d="M277.7656,906.875 Q277.9219,906.6563 278.1094,906.5469 Q278.2969,906.4375 278.5156,906.4375 Q278.8906,906.4375 279.125,906.7031 Q279.3594,906.9531 279.3594,907.5625 L279.3594,909.0156 Q279.3594,909.625 279.125,909.8906 Q278.8906,910.1563 278.5156,910.1563 Q278.1719,910.1563 277.9688,909.9531 Q277.7656,909.7656 277.6563,909.25 Q277.6094,908.8906 277.4219,908.7031 Q277.0938,908.3281 276.4844,908.1094 Q275.875,907.8906 275.25,907.8906 Q274.4844,907.8906 273.8438,908.2188 Q273.2188,908.5469 272.7188,909.2969 Q272.2344,910.0469 272.2344,911.0781 L272.2344,912.1719 Q272.2344,913.4063 273.125,914.2344 Q274.0156,915.0469 275.6094,915.0469 Q276.5469,915.0469 277.2031,914.7969 Q277.5938,914.6406 278.0156,914.2031 Q278.2813,913.9375 278.4219,913.8594 Q278.5781,913.7813 278.7813,913.7813 Q279.1094,913.7813 279.3594,914.0469 Q279.625,914.2969 279.625,914.6406 Q279.625,914.9844 279.2813,915.3906 Q278.7813,915.9688 277.9844,916.2969 Q276.9063,916.75 275.6094,916.75 Q274.0938,916.75 272.8906,916.125 Q271.9063,915.625 271.2188,914.5625 Q270.5313,913.4844 270.5313,912.2031 L270.5313,911.0469 Q270.5313,909.7188 271.1406,908.5781 Q271.7656,907.4219 272.8594,906.8125 Q273.9531,906.1875 275.1875,906.1875 Q275.9219,906.1875 276.5625,906.3594 Q277.2188,906.5156 277.7656,906.875 Z " fill="#000000"/><text fill="#000000" font-family="sans-serif" font-size="14" lengthAdjust="spacing" textLength="64" x="289" y="916.7285">Document</text><line style="stroke:#181818;stroke-width:0.5;" x1="261" x2="355" y1="927" y2="927"/><line style="stroke:#181818;stroke-width:0.5;" x1="261" x2="355" y1="935" y2="935"/></g><!--class Relation--><g id="elem_Relation"><rect fill="#F1F1F1" height="48" id="Relation" rx="2.5" ry="2.5" style="stroke:#181818;stroke-width:0.5;" width="84" x="464" y="690"/><ellipse cx="479" cy="706" fill="#ADD1B2" rx="11" ry="11" style="stroke:#181818;stroke-width:1.0;"/><path d="M481.7656,701.875 Q481.9219,701.6563 482.1094,701.5469 Q482.2969,701.4375 482.5156,701.4375 Q482.8906,701.4375 483.125,701.7031 Q483.3594,701.9531 483.3594,702.5625 L483.3594,704.0156 Q483.3594,704.625 483.125,704.8906 Q482.8906,705.1563 482.5156,705.1563 Q482.1719,705.1563 481.9688,704.9531 Q481.7656,704.7656 481.6563,704.25 Q481.6094,703.8906 481.4219,703.7031 Q481.0938,703.3281 480.4844,703.1094 Q479.875,702.8906 479.25,702.8906 Q478.4844,702.8906 477.8438,703.2188 Q477.2188,703.5469 476.7188,704.2969 Q476.2344,705.0469 476.2344,706.0781 L476.2344,707.1719 Q476.2344,708.4063 477.125,709.2344 Q478.0156,710.0469 479.6094,710.0469 Q480.5469,710.0469 481.2031,709.7969 Q481.5938,709.6406 482.0156,709.2031 Q482.2813,708.9375 482.4219,708.8594 Q482.5781,708.7813 482.7813,708.7813 Q483.1094,708.7813 483.3594,709.0469 Q483.625,709.2969 483.625,709.6406 Q483.625,709.9844 483.2813,710.3906 Q482.7813,710.9688 481.9844,711.2969 Q480.9063,711.75 479.6094,711.75 Q478.0938,711.75 476.8906,711.125 Q475.9063,710.625 475.2188,709.5625 Q474.5313,708.4844 474.5313,707.2031 L474.5313,706.0469 Q474.5313,704.7188 475.1406,703.5781 Q475.7656,702.4219 476.8594,701.8125 Q477.9531,701.1875 479.1875,701.1875 Q479.9219,701.1875 480.5625,701.3594 Q481.2188,701.5156 481.7656,701.875 Z " fill="#000000"/><text fill="#000000" font-family="sans-serif" font-size="14" lengthAdjust="spacing" textLength="52" x="493" y="711.7285">Relation</text><line style="stroke:#181818;stroke-width:0.5;" x1="465" x2="547" y1="722" y2="722"/><line style="stroke:#181818;stroke-width:0.5;" x1="465" x2="547" y1="730" y2="730"/></g><!--class VideoWithAudio--><g id="elem_VideoWithAudio"><rect fill="#F1F1F1" height="48" id="VideoWithAudio" rx="2.5" ry="2.5" style="stroke:#181818;stroke-width:0.5;" width="132" x="187" y="1074"/><ellipse cx="202" cy="1090" fill="#ADD1B2" rx="11" ry="11" style="stroke:#181818;stroke-width:1.0;"/><path d="M204.7656,1085.875 Q204.9219,1085.6563 205.1094,1085.5469 Q205.2969,1085.4375 205.5156,1085.4375 Q205.8906,1085.4375 206.125,1085.7031 Q206.3594,1085.9531 206.3594,1086.5625 L206.3594,1088.0156 Q206.3594,1088.625 206.125,1088.8906 Q205.8906,1089.1563 205.5156,1089.1563 Q205.1719,1089.1563 204.9688,1088.9531 Q204.7656,1088.7656 204.6563,1088.25 Q204.6094,1087.8906 204.4219,1087.7031 Q204.0938,1087.3281 203.4844,1087.1094 Q202.875,1086.8906 202.25,1086.8906 Q201.4844,1086.8906 200.8438,1087.2188 Q200.2188,1087.5469 199.7188,1088.2969 Q199.2344,1089.0469 199.2344,1090.0781 L199.2344,1091.1719 Q199.2344,1092.4063 200.125,1093.2344 Q201.0156,1094.0469 202.6094,1094.0469 Q203.5469,1094.0469 204.2031,1093.7969 Q204.5938,1093.6406 205.0156,1093.2031 Q205.2813,1092.9375 205.4219,1092.8594 Q205.5781,1092.7813 205.7813,1092.7813 Q206.1094,1092.7813 206.3594,1093.0469 Q206.625,1093.2969 206.625,1093.6406 Q206.625,1093.9844 206.2813,1094.3906 Q205.7813,1094.9688 204.9844,1095.2969 Q203.9063,1095.75 202.6094,1095.75 Q201.0938,1095.75 199.8906,1095.125 Q198.9063,1094.625 198.2188,1093.5625 Q197.5313,1092.4844 197.5313,1091.2031 L197.5313,1090.0469 Q197.5313,1088.7188 198.1406,1087.5781 Q198.7656,1086.4219 199.8594,1085.8125 Q200.9531,1085.1875 202.1875,1085.1875 Q202.9219,1085.1875 203.5625,1085.3594 Q204.2188,1085.5156 204.7656,1085.875 Z " fill="#000000"/><text fill="#000000" font-family="sans-serif" font-size="14" lengthAdjust="spacing" textLength="100" x="216" y="1095.7285">VideoWithAudio</text><line style="stroke:#181818;stroke-width:0.5;" x1="188" x2="318" y1="1106" y2="1106"/><line style="stroke:#181818;stroke-width:0.5;" x1="188" x2="318" y1="1114" y2="1114"/></g><!--class Definition--><g id="elem_Definition"><rect codeLine="75" fill="#F1F1F1" height="65.6094" id="Definition" rx="2.5" ry="2.5" style="stroke:#181818;stroke-width:0.5;" width="91" x="759.5" y="1065"/><ellipse cx="774.5" cy="1081" fill="#ADD1B2" rx="11" ry="11" style="stroke:#181818;stroke-width:1.0;"/><path d="M777.2656,1076.875 Q777.4219,1076.6563 777.6094,1076.5469 Q777.7969,1076.4375 778.0156,1076.4375 Q778.3906,1076.4375 778.625,1076.7031 Q778.8594,1076.9531 778.8594,1077.5625 L778.8594,1079.0156 Q778.8594,1079.625 778.625,1079.8906 Q778.3906,1080.1563 778.0156,1080.1563 Q777.6719,1080.1563 777.4688,1079.9531 Q777.2656,1079.7656 777.1563,1079.25 Q777.1094,1078.8906 776.9219,1078.7031 Q776.5938,1078.3281 775.9844,1078.1094 Q775.375,1077.8906 774.75,1077.8906 Q773.9844,1077.8906 773.3438,1078.2188 Q772.7188,1078.5469 772.2188,1079.2969 Q771.7344,1080.0469 771.7344,1081.0781 L771.7344,1082.1719 Q771.7344,1083.4063 772.625,1084.2344 Q773.5156,1085.0469 775.1094,1085.0469 Q776.0469,1085.0469 776.7031,1084.7969 Q777.0938,1084.6406 777.5156,1084.2031 Q777.7813,1083.9375 777.9219,1083.8594 Q778.0781,1083.7813 778.2813,1083.7813 Q778.6094,1083.7813 778.8594,1084.0469 Q779.125,1084.2969 779.125,1084.6406 Q779.125,1084.9844 778.7813,1085.3906 Q778.2813,1085.9688 777.4844,1086.2969 Q776.4063,1086.75 775.1094,1086.75 Q773.5938,1086.75 772.3906,1086.125 Q771.4063,1085.625 770.7188,1084.5625 Q770.0313,1083.4844 770.0313,1082.2031 L770.0313,1081.0469 Q770.0313,1079.7188 770.6406,1078.5781 Q771.2656,1077.4219 772.3594,1076.8125 Q773.4531,1076.1875 774.6875,1076.1875 Q775.4219,1076.1875 776.0625,1076.3594 Q776.7188,1076.5156 777.2656,1076.875 Z " fill="#000000"/><text fill="#000000" font-family="sans-serif" font-size="14" lengthAdjust="spacing" textLength="59" x="788.5" y="1086.7285">Definition</text><line style="stroke:#181818;stroke-width:0.5;" x1="760.5" x2="849.5" y1="1097" y2="1097"/><rect fill="none" height="6" style="stroke:#C82930;stroke-width:1.0;" width="6" x="767.5" y="1108.3047"/><text fill="#000000" font-family="sans-serif" font-size="14" lengthAdjust="spacing" textLength="57" x="779.5" y="1115.5332">isCorrect</text><line style="stroke:#181818;stroke-width:0.5;" x1="760.5" x2="849.5" y1="1122.6094" y2="1122.6094"/></g><!--class RelationType--><g id="elem_RelationType"><rect codeLine="67" fill="#F1F1F1" height="136.0469" id="RelationType" rx="2.5" ry="2.5" style="stroke:#181818;stroke-width:0.5;" width="116" x="391" y="851"/><ellipse cx="406" cy="867" fill="#EB937F" rx="11" ry="11" style="stroke:#181818;stroke-width:1.0;"/><path d="M404.8594,867.7969 L404.8594,870.2969 L409.1875,870.2969 L409.1875,869.375 Q409.1875,868.7656 409.4219,868.5 Q409.6719,868.2344 410.0469,868.2344 Q410.4219,868.2344 410.6563,868.5 Q410.8906,868.7656 410.8906,869.375 L410.8906,872 L402.8906,872 Q402.2656,872 402,871.7656 Q401.75,871.5313 401.75,871.1406 Q401.75,870.7656 402.0156,870.5313 Q402.2813,870.2969 402.8906,870.2969 L403.1563,870.2969 L403.1563,863.6406 L402.8906,863.6406 Q402.2656,863.6406 402,863.4063 Q401.75,863.1719 401.75,862.7813 Q401.75,862.4063 402,862.1719 Q402.2656,861.9375 402.8906,861.9375 L410.5156,861.9375 L410.5156,864.5313 Q410.5156,865.1406 410.2813,865.4063 Q410.0625,865.6563 409.6719,865.6563 Q409.2969,865.6563 409.0625,865.4063 Q408.8281,865.1406 408.8281,864.5313 L408.8281,863.6406 L404.8594,863.6406 L404.8594,866.0938 L406.3438,866.0938 Q406.3438,865.4375 406.4688,865.25 Q406.7344,864.8438 407.2031,864.8438 Q407.5781,864.8438 407.8125,865.1094 Q408.0469,865.3594 408.0469,865.9688 L408.0469,867.9375 Q408.0469,868.4844 407.9219,868.6719 Q407.6563,869.0625 407.2031,869.0625 Q406.7344,869.0625 406.4688,868.6563 Q406.3438,868.4688 406.3438,867.7969 L404.8594,867.7969 Z " fill="#000000"/><text fill="#000000" font-family="sans-serif" font-size="14" lengthAdjust="spacing" textLength="84" x="420" y="872.7285">RelationType</text><line style="stroke:#181818;stroke-width:0.5;" x1="392" x2="506" y1="883" y2="883"/><text fill="#000000" font-family="sans-serif" font-size="14" lengthAdjust="spacing" textLength="24" x="397" y="901.5332">Use</text><text fill="#000000" font-family="sans-serif" font-size="14" lengthAdjust="spacing" textLength="72" x="397" y="919.1426">Association</text><text fill="#000000" font-family="sans-serif" font-size="14" lengthAdjust="spacing" textLength="78" x="397" y="936.752">Composition</text><text fill="#000000" font-family="sans-serif" font-size="14" lengthAdjust="spacing" textLength="70" x="397" y="954.3613">Inheritance</text><text fill="#000000" font-family="sans-serif" font-size="14" lengthAdjust="spacing" textLength="77" x="397" y="971.9707">Aggregation</text><line style="stroke:#181818;stroke-width:0.5;" x1="392" x2="506" y1="979.0469" y2="979.0469"/></g><!--class Media--><g id="elem_Media"><rect codeLine="86" fill="#F1F1F1" height="48" id="Media" rx="2.5" ry="2.5" style="stroke:#181818;stroke-width:0.5;" width="71" x="354.5" y="1074"/><ellipse cx="369.5" cy="1090" fill="#A9DCDF" rx="11" ry="11" style="stroke:#181818;stroke-width:1.0;"/><path d="M371.6875,1091.7656 L367.5469,1091.7656 L367.125,1092.7969 L367.5469,1092.7969 Q368.1563,1092.7969 368.4219,1093.0313 Q368.6875,1093.2656 368.6875,1093.6563 Q368.6875,1094.0313 368.4219,1094.2656 Q368.1563,1094.5 367.5469,1094.5 L365.25,1094.5 Q364.6406,1094.5 364.3906,1094.2656 Q364.125,1094.0313 364.125,1093.6406 Q364.125,1093.2656 364.4063,1093.0313 Q364.6719,1092.7813 365.2969,1092.7969 L367.9688,1086.1406 L366.8594,1086.1406 Q366.25,1086.1406 365.9844,1085.9063 Q365.7188,1085.6719 365.7188,1085.2813 Q365.7188,1084.9063 365.9844,1084.6719 Q366.25,1084.4375 366.8594,1084.4375 L370.5313,1084.4375 L373.9219,1092.7969 Q374.5156,1092.7969 374.7031,1092.9375 Q375.0938,1093.2031 375.0938,1093.6563 Q375.0938,1094.0313 374.8281,1094.2656 Q374.5781,1094.5 373.9688,1094.5 L371.6719,1094.5 Q371.0625,1094.5 370.7969,1094.2656 Q370.5313,1094.0313 370.5313,1093.6406 Q370.5313,1093.2656 370.7969,1093.0313 Q371.0625,1092.7969 371.6719,1092.7969 L372.0938,1092.7969 L371.6875,1091.7656 Z M370.9688,1090.0625 L369.6094,1086.6875 L368.2344,1090.0625 L370.9688,1090.0625 Z " fill="#000000"/><text fill="#000000" font-family="sans-serif" font-size="14" font-style="italic" lengthAdjust="spacing" textLength="39" x="383.5" y="1095.7285">Media</text><line style="stroke:#181818;stroke-width:0.5;" x1="355.5" x2="424.5" y1="1106" y2="1106"/><line style="stroke:#181818;stroke-width:0.5;" x1="355.5" x2="424.5" y1="1114" y2="1114"/></g><!--class Audio--><g id="elem_Audio"><rect fill="#F1F1F1" height="48" id="Audio" rx="2.5" ry="2.5" style="stroke:#181818;stroke-width:0.5;" width="68" x="239" y="1209"/><ellipse cx="254" cy="1225" fill="#ADD1B2" rx="11" ry="11" style="stroke:#181818;stroke-width:1.0;"/><path d="M256.7656,1220.875 Q256.9219,1220.6563 257.1094,1220.5469 Q257.2969,1220.4375 257.5156,1220.4375 Q257.8906,1220.4375 258.125,1220.7031 Q258.3594,1220.9531 258.3594,1221.5625 L258.3594,1223.0156 Q258.3594,1223.625 258.125,1223.8906 Q257.8906,1224.1563 257.5156,1224.1563 Q257.1719,1224.1563 256.9688,1223.9531 Q256.7656,1223.7656 256.6563,1223.25 Q256.6094,1222.8906 256.4219,1222.7031 Q256.0938,1222.3281 255.4844,1222.1094 Q254.875,1221.8906 254.25,1221.8906 Q253.4844,1221.8906 252.8438,1222.2188 Q252.2188,1222.5469 251.7188,1223.2969 Q251.2344,1224.0469 251.2344,1225.0781 L251.2344,1226.1719 Q251.2344,1227.4063 252.125,1228.2344 Q253.0156,1229.0469 254.6094,1229.0469 Q255.5469,1229.0469 256.2031,1228.7969 Q256.5938,1228.6406 257.0156,1228.2031 Q257.2813,1227.9375 257.4219,1227.8594 Q257.5781,1227.7813 257.7813,1227.7813 Q258.1094,1227.7813 258.3594,1228.0469 Q258.625,1228.2969 258.625,1228.6406 Q258.625,1228.9844 258.2813,1229.3906 Q257.7813,1229.9688 256.9844,1230.2969 Q255.9063,1230.75 254.6094,1230.75 Q253.0938,1230.75 251.8906,1230.125 Q250.9063,1229.625 250.2188,1228.5625 Q249.5313,1227.4844 249.5313,1226.2031 L249.5313,1225.0469 Q249.5313,1223.7188 250.1406,1222.5781 Q250.7656,1221.4219 251.8594,1220.8125 Q252.9531,1220.1875 254.1875,1220.1875 Q254.9219,1220.1875 255.5625,1220.3594 Q256.2188,1220.5156 256.7656,1220.875 Z " fill="#000000"/><text fill="#000000" font-family="sans-serif" font-size="14" lengthAdjust="spacing" textLength="36" x="268" y="1230.7285">Audio</text><line style="stroke:#181818;stroke-width:0.5;" x1="240" x2="306" y1="1241" y2="1241"/><line style="stroke:#181818;stroke-width:0.5;" x1="240" x2="306" y1="1249" y2="1249"/></g><!--class Video--><g id="elem_Video"><rect fill="#F1F1F1" height="48" id="Video" rx="2.5" ry="2.5" style="stroke:#181818;stroke-width:0.5;" width="68" x="342" y="1209"/><ellipse cx="357" cy="1225" fill="#ADD1B2" rx="11" ry="11" style="stroke:#181818;stroke-width:1.0;"/><path d="M359.7656,1220.875 Q359.9219,1220.6563 360.1094,1220.5469 Q360.2969,1220.4375 360.5156,1220.4375 Q360.8906,1220.4375 361.125,1220.7031 Q361.3594,1220.9531 361.3594,1221.5625 L361.3594,1223.0156 Q361.3594,1223.625 361.125,1223.8906 Q360.8906,1224.1563 360.5156,1224.1563 Q360.1719,1224.1563 359.9688,1223.9531 Q359.7656,1223.7656 359.6563,1223.25 Q359.6094,1222.8906 359.4219,1222.7031 Q359.0938,1222.3281 358.4844,1222.1094 Q357.875,1221.8906 357.25,1221.8906 Q356.4844,1221.8906 355.8438,1222.2188 Q355.2188,1222.5469 354.7188,1223.2969 Q354.2344,1224.0469 354.2344,1225.0781 L354.2344,1226.1719 Q354.2344,1227.4063 355.125,1228.2344 Q356.0156,1229.0469 357.6094,1229.0469 Q358.5469,1229.0469 359.2031,1228.7969 Q359.5938,1228.6406 360.0156,1228.2031 Q360.2813,1227.9375 360.4219,1227.8594 Q360.5781,1227.7813 360.7813,1227.7813 Q361.1094,1227.7813 361.3594,1228.0469 Q361.625,1228.2969 361.625,1228.6406 Q361.625,1228.9844 361.2813,1229.3906 Q360.7813,1229.9688 359.9844,1230.2969 Q358.9063,1230.75 357.6094,1230.75 Q356.0938,1230.75 354.8906,1230.125 Q353.9063,1229.625 353.2188,1228.5625 Q352.5313,1227.4844 352.5313,1226.2031 L352.5313,1225.0469 Q352.5313,1223.7188 353.1406,1222.5781 Q353.7656,1221.4219 354.8594,1220.8125 Q355.9531,1220.1875 357.1875,1220.1875 Q357.9219,1220.1875 358.5625,1220.3594 Q359.2188,1220.5156 359.7656,1220.875 Z " fill="#000000"/><text fill="#000000" font-family="sans-serif" font-size="14" lengthAdjust="spacing" textLength="36" x="371" y="1230.7285">Video</text><line style="stroke:#181818;stroke-width:0.5;" x1="343" x2="409" y1="1241" y2="1241"/><line style="stroke:#181818;stroke-width:0.5;" x1="343" x2="409" y1="1249" y2="1249"/></g><!--class Image--><g id="elem_Image"><rect fill="#F1F1F1" height="48" id="Image" rx="2.5" ry="2.5" style="stroke:#181818;stroke-width:0.5;" width="70" x="554" y="1209"/><ellipse cx="569" cy="1225" fill="#ADD1B2" rx="11" ry="11" style="stroke:#181818;stroke-width:1.0;"/><path d="M571.7656,1220.875 Q571.9219,1220.6563 572.1094,1220.5469 Q572.2969,1220.4375 572.5156,1220.4375 Q572.8906,1220.4375 573.125,1220.7031 Q573.3594,1220.9531 573.3594,1221.5625 L573.3594,1223.0156 Q573.3594,1223.625 573.125,1223.8906 Q572.8906,1224.1563 572.5156,1224.1563 Q572.1719,1224.1563 571.9688,1223.9531 Q571.7656,1223.7656 571.6563,1223.25 Q571.6094,1222.8906 571.4219,1222.7031 Q571.0938,1222.3281 570.4844,1222.1094 Q569.875,1221.8906 569.25,1221.8906 Q568.4844,1221.8906 567.8438,1222.2188 Q567.2188,1222.5469 566.7188,1223.2969 Q566.2344,1224.0469 566.2344,1225.0781 L566.2344,1226.1719 Q566.2344,1227.4063 567.125,1228.2344 Q568.0156,1229.0469 569.6094,1229.0469 Q570.5469,1229.0469 571.2031,1228.7969 Q571.5938,1228.6406 572.0156,1228.2031 Q572.2813,1227.9375 572.4219,1227.8594 Q572.5781,1227.7813 572.7813,1227.7813 Q573.1094,1227.7813 573.3594,1228.0469 Q573.625,1228.2969 573.625,1228.6406 Q573.625,1228.9844 573.2813,1229.3906 Q572.7813,1229.9688 571.9844,1230.2969 Q570.9063,1230.75 569.6094,1230.75 Q568.0938,1230.75 566.8906,1230.125 Q565.9063,1229.625 565.2188,1228.5625 Q564.5313,1227.4844 564.5313,1226.2031 L564.5313,1225.0469 Q564.5313,1223.7188 565.1406,1222.5781 Q565.7656,1221.4219 566.8594,1220.8125 Q567.9531,1220.1875 569.1875,1220.1875 Q569.9219,1220.1875 570.5625,1220.3594 Q571.2188,1220.5156 571.7656,1220.875 Z " fill="#000000"/><text fill="#000000" font-family="sans-serif" font-size="14" lengthAdjust="spacing" textLength="38" x="583" y="1230.7285">Image</text><line style="stroke:#181818;stroke-width:0.5;" x1="555" x2="623" y1="1241" y2="1241"/><line style="stroke:#181818;stroke-width:0.5;" x1="555" x2="623" y1="1249" y2="1249"/></g><!--class Text--><g id="elem_Text"><rect fill="#F1F1F1" height="48" id="Text" rx="2.5" ry="2.5" style="stroke:#181818;stroke-width:0.5;" width="59" x="459.5" y="1209"/><ellipse cx="474.5" cy="1225" fill="#ADD1B2" rx="11" ry="11" style="stroke:#181818;stroke-width:1.0;"/><path d="M477.2656,1220.875 Q477.4219,1220.6563 477.6094,1220.5469 Q477.7969,1220.4375 478.0156,1220.4375 Q478.3906,1220.4375 478.625,1220.7031 Q478.8594,1220.9531 478.8594,1221.5625 L478.8594,1223.0156 Q478.8594,1223.625 478.625,1223.8906 Q478.3906,1224.1563 478.0156,1224.1563 Q477.6719,1224.1563 477.4688,1223.9531 Q477.2656,1223.7656 477.1563,1223.25 Q477.1094,1222.8906 476.9219,1222.7031 Q476.5938,1222.3281 475.9844,1222.1094 Q475.375,1221.8906 474.75,1221.8906 Q473.9844,1221.8906 473.3438,1222.2188 Q472.7188,1222.5469 472.2188,1223.2969 Q471.7344,1224.0469 471.7344,1225.0781 L471.7344,1226.1719 Q471.7344,1227.4063 472.625,1228.2344 Q473.5156,1229.0469 475.1094,1229.0469 Q476.0469,1229.0469 476.7031,1228.7969 Q477.0938,1228.6406 477.5156,1228.2031 Q477.7813,1227.9375 477.9219,1227.8594 Q478.0781,1227.7813 478.2813,1227.7813 Q478.6094,1227.7813 478.8594,1228.0469 Q479.125,1228.2969 479.125,1228.6406 Q479.125,1228.9844 478.7813,1229.3906 Q478.2813,1229.9688 477.4844,1230.2969 Q476.4063,1230.75 475.1094,1230.75 Q473.5938,1230.75 472.3906,1230.125 Q471.4063,1229.625 470.7188,1228.5625 Q470.0313,1227.4844 470.0313,1226.2031 L470.0313,1225.0469 Q470.0313,1223.7188 470.6406,1222.5781 Q471.2656,1221.4219 472.3594,1220.8125 Q473.4531,1220.1875 474.6875,1220.1875 Q475.4219,1220.1875 476.0625,1220.3594 Q476.7188,1220.5156 477.2656,1220.875 Z " fill="#000000"/><text fill="#000000" font-family="sans-serif" font-size="14" lengthAdjust="spacing" textLength="27" x="488.5" y="1230.7285">Text</text><line style="stroke:#181818;stroke-width:0.5;" x1="460.5" x2="517.5" y1="1241" y2="1241"/><line style="stroke:#181818;stroke-width:0.5;" x1="460.5" x2="517.5" y1="1249" y2="1249"/></g><!--link Itinerary to Topic--><g id="link_Itinerary_Topic"><path codeLine="6" d="M386.7956,444.5766 C381.3556,453.9066 381.97,453.93 378,464 C369.91,484.52 365.4626,502.8385 361.9826,521.8085 " fill="none" id="Itinerary-Topic" style="stroke:#181818;stroke-width:1.0;"/><polygon fill="none" points="392.84,434.21,386.3623,437.3785,386.7956,444.5766,393.2733,441.4081,392.84,434.21" style="stroke:#181818;stroke-width:1.0;"/><polygon fill="#181818" points="360.9,527.71,366.4583,519.5795,361.8022,522.7921,358.5896,518.136,360.9,527.71" style="stroke:#181818;stroke-width:1.0;"/><text fill="#000000" font-family="sans-serif" font-size="13" lengthAdjust="spacing" textLength="8" x="353.0772" y="517.1492">+</text></g><!--link Itinerary to Topic--><g id="link_Itinerary_Topic"><path codeLine="7" d="M397.986,445.6155 C387.946,472.9755 379.8375,495.0575 369.8275,522.3275 " fill="none" id="Itinerary-Topic-1" style="stroke:#181818;stroke-width:1.0;"/><polygon fill="#181818" points="402.12,434.35,396.2979,438.6047,397.986,445.6155,403.8082,441.3607,402.12,434.35" style="stroke:#181818;stroke-width:1.0;"/><polygon fill="#181818" points="367.76,527.96,374.6163,520.8896,369.4829,523.2662,367.1063,518.1329,367.76,527.96" style="stroke:#181818;stroke-width:1.0;"/><text fill="#000000" font-family="sans-serif" font-size="13" lengthAdjust="spacing" textLength="116" x="391" y="486.4951">[!itinerary.isCustom]</text></g><!--link EducationPlatform to Teacher--><g id="link_EducationPlatform_Teacher"><path codeLine="10" d="M638,67.22 C638,85.16 638,91.89 638,109.83 " fill="none" id="EducationPlatform-Teacher" style="stroke:#181818;stroke-width:1.0;"/><polygon fill="#181818" points="638,55.22,634,61.22,638,67.22,642,61.22,638,55.22" style="stroke:#181818;stroke-width:1.0;"/><polygon fill="#181818" points="638,115.83,642,106.83,638,110.83,634,106.83,638,115.83" style="stroke:#181818;stroke-width:1.0;"/><text fill="#000000" font-family="sans-serif" font-size="13" lengthAdjust="spacing" textLength="8" x="628.975" y="105.1266">+</text></g><!--link EducationPlatform to Student--><g id="link_EducationPlatform_Student"><path codeLine="11" d="M701.4124,59.926 C746.3324,79.706 793.6586,100.5425 834.8186,118.6625 " fill="none" id="EducationPlatform-Student" style="stroke:#181818;stroke-width:1.0;"/><polygon fill="#181818" points="690.43,55.09,694.3092,61.1688,701.4124,59.926,697.5332,53.8472,690.43,55.09" style="stroke:#181818;stroke-width:1.0;"/><polygon fill="#181818" points="840.31,121.08,833.6845,113.7928,835.7338,119.0654,830.4612,121.1147,840.31,121.08" style="stroke:#181818;stroke-width:1.0;"/><text fill="#000000" font-family="sans-serif" font-size="13" lengthAdjust="spacing" textLength="5" x="827.6168" y="113.8113">*</text></g><!--link EducationPlatform to Topic--><g id="link_EducationPlatform_Topic"><path codeLine="12" d="M552.3934,37.9792 C438.3634,47.6992 244,73.35 244,139 C244,139 244,139 244,402 C244,456.81 284.8642,501.9539 317.8542,530.3739 " fill="none" id="EducationPlatform-Topic" style="stroke:#181818;stroke-width:1.0;"/><polygon fill="#181818" points="564.35,36.96,558.0319,33.484,552.3934,37.9792,558.7114,41.4551,564.35,36.96" style="stroke:#181818;stroke-width:1.0;"/><polygon fill="#181818" points="322.4,534.29,318.192,525.3853,318.6118,531.0266,312.9706,531.4464,322.4,534.29" style="stroke:#181818;stroke-width:1.0;"/><text fill="#000000" font-family="sans-serif" font-size="13" lengthAdjust="spacing" textLength="8" x="306.645" y="524.7027">+</text></g><!--link EducationPlatform to Itinerary--><g id="link_EducationPlatform_Itinerary"><path codeLine="13" d="M552.6833,47.4909 C473.7133,65.5909 363.86,104.35 308,194 C271.2,253.06 328.1936,322.2442 371.8336,363.5742 " fill="none" id="EducationPlatform-Itinerary" style="stroke:#181818;stroke-width:1.0;"/><polygon fill="#181818" points="564.38,44.81,557.638,42.2515,552.6833,47.4909,559.4253,50.0493,564.38,44.81" style="stroke:#181818;stroke-width:1.0;"/><polygon fill="#181818" points="376.19,367.7,372.406,358.6071,372.5597,364.2619,366.9049,364.4156,376.19,367.7" style="stroke:#181818;stroke-width:1.0;"/><text fill="#000000" font-family="sans-serif" font-size="13" lengthAdjust="spacing" textLength="257" x="309" y="208.4951">[itineraries-&gt;select(i | !i.isCustom)-&gt;size()=1]</text><text fill="#000000" font-family="sans-serif" font-size="13" lengthAdjust="spacing" textLength="8" x="359.9587" y="357.1372">+</text></g><!--link EducationPlatform to Chat--><g id="link_EducationPlatform_Chat"><path codeLine="14" d="M723.33,46.2874 C786.21,58.4974 866.04,78.74 939,116 C988.58,141.32 1005.01,148.44 1037,194 C1047.02,208.27 1051.7225,221.2174 1055.2625,235.8874 " fill="none" id="EducationPlatform-Chat" style="stroke:#181818;stroke-width:1.0;"/><polygon fill="#181818" points="711.55,44,716.6775,49.0704,723.33,46.2874,718.2025,41.2171,711.55,44" style="stroke:#181818;stroke-width:1.0;"/><polygon fill="#181818" points="1056.67,241.72,1058.4472,232.0328,1055.4971,236.8595,1050.6704,233.9094,1056.67,241.72" style="stroke:#181818;stroke-width:1.0;"/></g><!--reverse link Exercise to Domain--><g id="link_Exercise_Domain"><path codeLine="19" d="M1171.0456,446.2732 C1174.5156,476.7932 1178.29,509.85 1181.37,536.9 " fill="none" id="Exercise-backto-Domain" style="stroke:#181818;stroke-width:1.0;"/><polygon fill="#181818" points="1169.69,434.35,1166.3934,440.7635,1171.0456,446.2732,1174.3422,439.8597,1169.69,434.35" style="stroke:#181818;stroke-width:1.0;"/></g><!--reverse link Domain to Answer--><g id="link_Domain_Answer"><path codeLine="21" d="M1211.2928,594.4447 C1232.7928,620.0147 1259.75,652.06 1283.87,680.74 " fill="none" id="Domain-backto-Answer" style="stroke:#181818;stroke-width:1.0;"/><polygon fill="#181818" points="1203.57,585.26,1204.3698,592.4266,1211.2928,594.4447,1210.493,587.2781,1203.57,585.26" style="stroke:#181818;stroke-width:1.0;"/><text fill="#000000" font-family="sans-serif" font-size="13" lengthAdjust="spacing" textLength="8" x="1269.7413" y="670.1851">+</text></g><!--reverse link Domain to StatementType--><g id="link_Domain_StatementType"><path codeLine="22" d="M1180.7373,597.2092 C1179.0273,615.7392 1177.64,630.56 1175.4,654.81 " fill="none" id="Domain-backto-StatementType" style="stroke:#181818;stroke-width:1.0;"/><polygon fill="#181818" points="1181.84,585.26,1177.3056,590.867,1180.7373,597.2092,1185.2717,591.6022,1181.84,585.26" style="stroke:#181818;stroke-width:1.0;"/></g><!--reverse link Answer to Justification--><g id="link_Answer_Justification"><path codeLine="34" d="M1289.2672,757.6732 C1247.1772,838.4932 1132.61,1043.29 983,1179 C970.34,1190.49 954.76,1200.56 940.01,1208.76 " fill="none" id="Answer-backto-Justification" style="stroke:#181818;stroke-width:1.0;"/><polygon fill="none" points="1294.81,747.03,1288.4909,750.504,1289.2672,757.6732,1295.5863,754.1992,1294.81,747.03" style="stroke:#181818;stroke-width:1.0;"/><text fill="#000000" font-family="sans-serif" font-size="13" lengthAdjust="spacing" textLength="108" x="1126" y="1031.4951">[!answer.isCorrect]</text><text fill="#000000" font-family="sans-serif" font-size="13" lengthAdjust="spacing" textLength="22" x="928.0063" y="1198.0387">0..1</text></g><!--reverse link Answer to Application--><g id="link_Answer_Application"><path codeLine="35" d="M1271.9172,759.9816 C1262.5472,769.5516 1263.93,766.38 1252,773 C1202.03,800.7 1177.2,775.72 1127,803 C1084.22,826.25 1045.48,868.51 1023.9,894.82 " fill="none" id="Answer-backto-Application" style="stroke:#181818;stroke-width:1.0;"/><polygon fill="none" points="1284.51,747.12,1267.63,755.784,1276.2044,764.1792,1284.51,747.12" style="stroke:#181818;stroke-width:1.0;"/></g><!--link Teacher to Application--><g id="link_Teacher_Application"><path codeLine="37" d="M661.25,164.37 C681.95,187.76 709,225.81 709,265 C709,265 709,265 709,715 C709,832.89 864.6171,885.8839 949.4471,906.3339 " fill="none" id="Teacher-to-Application" style="stroke:#181818;stroke-width:1.0;stroke-dasharray:7.0,7.0;"/><polygon fill="#181818" points="955.28,907.74,947.4681,901.7422,950.4192,906.5682,945.5932,909.5194,955.28,907.74" style="stroke:#181818;stroke-width:1.0;"/><text fill="#000000" font-family="sans-serif" font-size="13" lengthAdjust="spacing" textLength="35" x="777.5" y="478.4951">review</text><text fill="#000000" font-family="sans-serif" font-size="13" lengthAdjust="spacing" textLength="170" x="714" y="494.8467">[application.isCorrect == null]</text></g><!--link Teacher to Topic--><g id="link_Teacher_Topic"><path codeLine="38" d="M637.29,164.19 C634.05,227.64 616.04,405.52 516,498 C480.23,531.06 430.7646,545.9595 395.4346,553.2995 " fill="none" id="Teacher-to-Topic" style="stroke:#181818;stroke-width:1.0;stroke-dasharray:7.0,7.0;"/><polygon fill="#181818" points="389.56,554.52,399.1855,556.6057,394.4555,553.5029,397.5582,548.7729,389.56,554.52" style="stroke:#181818;stroke-width:1.0;"/><text fill="#000000" font-family="sans-serif" font-size="13" lengthAdjust="spacing" textLength="21" x="613" y="334.4951">edit</text></g><!--link Teacher to Itinerary--><g id="link_Teacher_Itinerary"><path codeLine="39" d="M622.15,164.17 C610.61,179.53 593.77,199.16 575,212 C543.31,233.67 522.65,216.44 494,242 C455.91,275.98 435.358,326.5895 424.368,362.0095 " fill="none" id="Teacher-to-Itinerary" style="stroke:#181818;stroke-width:1.0;stroke-dasharray:7.0,7.0;"/><polygon fill="#181818" points="422.59,367.74,429.0774,360.3296,424.0717,362.9646,421.4367,357.9589,422.59,367.74" style="stroke:#181818;stroke-width:1.0;"/><text fill="#000000" font-family="sans-serif" font-size="13" lengthAdjust="spacing" textLength="21" x="540.5" y="263.4951">edit</text><text fill="#000000" font-family="sans-serif" font-size="13" lengthAdjust="spacing" textLength="116" x="495" y="279.8467">[!itinerary.isCustom]</text></g><!--reverse link Chat to Exercise--><g id="link_Chat_Exercise"><path codeLine="41" d="M1086.7262,299.5883 C1103.6462,321.0183 1121.53,343.67 1140.45,367.63 " fill="none" id="Chat-backto-Exercise" style="stroke:#181818;stroke-width:1.0;"/><polygon fill="none" points="1079.29,290.17,1079.8687,297.3578,1086.7262,299.5883,1086.1475,292.4004,1079.29,290.17" style="stroke:#181818;stroke-width:1.0;"/><text fill="#000000" font-family="sans-serif" font-size="13" lengthAdjust="spacing" textLength="8" x="1126.6323" y="357.0535">+</text></g><!--link Chat to Application--><g id="link_Chat_Application"><path codeLine="42" d="M1058.77,290.04 C1056.4,316.54 1053,361.37 1053,400 C1053,400 1053,400 1053,715 C1053,781.74 1030.6536,852.086 1017.0136,889.326 " fill="none" id="Chat-to-Application" style="stroke:#181818;stroke-width:1.0;stroke-dasharray:7.0,7.0;"/><polygon fill="#181818" points="1014.95,894.96,1021.8013,887.8848,1016.6696,890.265,1014.2894,885.1333,1014.95,894.96" style="stroke:#181818;stroke-width:1.0;"/><text fill="#000000" font-family="sans-serif" font-size="13" lengthAdjust="spacing" textLength="54" x="1054" y="566.4951">constrast</text></g><!--link Student to Itinerary--><g id="link_Student_Itinerary"><path codeLine="44" d="M863.02,164.18 C829.53,205.71 753.29,292.65 669,338 C599.99,375.13 514.5613,389.6692 462.0213,395.6692 " fill="none" id="Student-to-Itinerary" style="stroke:#181818;stroke-width:1.0;stroke-dasharray:7.0,7.0;"/><polygon fill="#181818" points="456.06,396.35,465.4557,399.303,461.0277,395.7827,464.548,391.3547,456.06,396.35" style="stroke:#181818;stroke-width:1.0;"/><text fill="#000000" font-family="sans-serif" font-size="13" lengthAdjust="spacing" textLength="21" x="837" y="263.4951">edit</text><text fill="#000000" font-family="sans-serif" font-size="13" lengthAdjust="spacing" textLength="113" x="793" y="279.8467">[itinerary.isCustom]</text></g><!--link Student to Application--><g id="link_Student_Application"><path codeLine="45" d="M918.1939,172.6179 C942.5639,195.4679 965,224.44 965,265 C965,265 965,265 965,715 C965,781.34 984.4804,851.7826 996.3704,889.1426 " fill="none" id="Student-Application" style="stroke:#181818;stroke-width:1.0;"/><polygon fill="none" points="909.44,164.41,911.081,171.4319,918.1939,172.6179,916.5529,165.596,909.44,164.41" style="stroke:#181818;stroke-width:1.0;"/><polygon fill="#181818" points="998.19,894.86,999.2722,885.0708,996.6737,890.0955,991.649,887.4969,998.19,894.86" style="stroke:#181818;stroke-width:1.0;"/><text fill="#000000" font-family="sans-serif" font-size="13" lengthAdjust="spacing" textLength="14" x="966" y="486.4951">do</text><text fill="#000000" font-family="sans-serif" font-size="13" lengthAdjust="spacing" textLength="8" x="987.1637" y="884.1643">+</text></g><!--link Student to Chat--><g id="link_Student_Chat"><path codeLine="46" d="M921.57,158.75 C941.15,168.08 964.55,180.4 984,194 C1004.12,208.06 1020.1989,222.7859 1034.9089,237.5759 " fill="none" id="Student-to-Chat" style="stroke:#181818;stroke-width:1.0;stroke-dasharray:7.0,7.0;"/><polygon fill="#181818" points="1039.14,241.83,1035.6294,232.6281,1035.6141,238.2849,1029.9572,238.2696,1039.14,241.83" style="stroke:#181818;stroke-width:1.0;"/><text fill="#000000" font-family="sans-serif" font-size="13" lengthAdjust="spacing" textLength="21" x="1007" y="208.4951">ask</text></g><!--reverse link Topic to CompositeTopic--><g id="link_Topic_CompositeTopic"><path codeLine="51" d="M304.5607,569.2523 C261.3207,576.6923 205.44,591.49 151,624 C121.48,641.63 93.67,669.98 79.7,689.93 " fill="none" id="Topic-backto-CompositeTopic" style="stroke:#181818;stroke-width:1.0;stroke-dasharray:7.0,7.0;"/><polygon fill="none" points="322.3,566.2,303.5433,563.3392,305.5781,575.1654,322.3,566.2" style="stroke:#181818;stroke-width:1.0;"/></g><!--link CompositeTopic to Topic--><g id="link_CompositeTopic_Topic"><path codeLine="58" d="M116.0151,681.7555 C137.4551,661.8055 156.48,641.63 186,624 C229.97,597.75 280.6337,582.5621 316.6137,573.1921 " fill="none" id="CompositeTopic-Topic" style="stroke:#181818;stroke-width:1.0;"/><polygon fill="none" points="107.23,689.93,114.3474,688.7711,116.0151,681.7555,108.8977,682.9144,107.23,689.93" style="stroke:#181818;stroke-width:1.0;"/><polygon fill="#181818" points="322.42,571.68,312.7024,570.0773,317.5814,572.9401,314.7186,577.819,322.42,571.68" style="stroke:#181818;stroke-width:1.0;"/><text fill="#000000" font-family="sans-serif" font-size="13" lengthAdjust="spacing" textLength="8" x="306.6691" y="569.8044">+</text></g><!--reverse link Topic to SimpleTopic--><g id="link_Topic_SimpleTopic"><path codeLine="52" d="M338.4896,610.9691 C328.2096,639.7191 319.43,664.26 310.27,689.88 " fill="none" id="Topic-backto-SimpleTopic" style="stroke:#181818;stroke-width:1.0;stroke-dasharray:7.0,7.0;"/><polygon fill="none" points="344.55,594.02,332.8399,608.949,344.1393,612.9892,344.55,594.02" style="stroke:#181818;stroke-width:1.0;"/></g><!--link Topic to Concept--><g id="link_Topic_Concept"><path codeLine="53" d="M401.5326,569.0077 C448.9026,577.7077 522.39,598.5 566,655 C621.38,726.75 603.8003,838.9916 592.3803,888.8216 " fill="none" id="Topic-Concept" style="stroke:#181818;stroke-width:1.0;"/><polygon fill="none" points="389.73,566.84,394.9087,571.858,401.5326,569.0077,396.3539,563.9896,389.73,566.84" style="stroke:#181818;stroke-width:1.0;"/><polygon fill="#181818" points="591.04,894.67,596.9494,886.791,592.1569,889.7964,589.1516,885.0039,591.04,894.67" style="stroke:#181818;stroke-width:1.0;"/><text fill="#000000" font-family="sans-serif" font-size="13" lengthAdjust="spacing" textLength="5" x="586.9029" y="884.3275">*</text></g><!--link Topic to Document--><g id="link_Topic_Document"><path codeLine="54" d="M367.3727,605.87 C377.2027,647.58 387.52,710.66 374,773 C364.09,818.68 341.5336,862.0634 325.2836,889.7934 " fill="none" id="Topic-Document" style="stroke:#181818;stroke-width:1.0;"/><polygon fill="#181818" points="364.62,594.19,362.103,600.9476,367.3727,605.87,369.8897,599.1124,364.62,594.19" style="stroke:#181818;stroke-width:1.0;"/><polygon fill="#181818" points="322.25,894.97,330.2514,889.2274,324.778,890.6561,323.3492,885.1827,322.25,894.97" style="stroke:#181818;stroke-width:1.0;"/></g><!--link Topic to Relation--><g id="link_Topic_Relation"><path codeLine="55" d="M399.4674,592.4528 C414.3274,603.4128 421.91,610.01 436,624 C456.65,644.5 473.3417,666.1511 486.6817,684.9011 " fill="none" id="Topic-Relation" style="stroke:#181818;stroke-width:1.0;"/><polygon fill="#181818" points="389.81,585.33,392.2644,592.1105,399.4674,592.4528,397.013,585.6723,389.81,585.33" style="stroke:#181818;stroke-width:1.0;"/><polygon fill="#181818" points="490.16,689.79,488.2018,680.1378,487.2614,685.7159,481.6833,684.7755,490.16,689.79" style="stroke:#181818;stroke-width:1.0;"/><text fill="#000000" font-family="sans-serif" font-size="13" lengthAdjust="spacing" textLength="5" x="480.4604" y="679.0763">*</text></g><!--link Topic to VideoWithAudio--><g id="link_Topic_VideoWithAudio"><path codeLine="56" d="M311.5788,581.2382 C281.1888,595.9482 249.17,617.02 230,655 C157.11,799.39 217.6195,999.5204 242.1495,1068.1104 " fill="none" id="Topic-VideoWithAudio" style="stroke:#181818;stroke-width:1.0;"/><polygon fill="none" points="322.38,576.01,315.2367,575.0237,311.5788,581.2382,318.7221,582.2245,322.38,576.01" style="stroke:#181818;stroke-width:1.0;"/><polygon fill="#181818" points="244.17,1073.76,244.9057,1063.9387,242.4863,1069.052,237.3729,1066.6326,244.17,1073.76" style="stroke:#181818;stroke-width:1.0;"/><text fill="#000000" font-family="sans-serif" font-size="13" lengthAdjust="spacing" textLength="8" x="232.8823" y="1063.0387">+</text></g><!--link Concept to Definition--><g id="link_Concept_Definition"><path codeLine="60" d="M623.1099,950.662 C661.7799,981.772 716.6851,1025.9489 760.3751,1061.0989 " fill="none" id="Concept-Definition" style="stroke:#181818;stroke-width:1.0;"/><polygon fill="#181818" points="613.76,943.14,615.9276,950.0176,623.1099,950.662,620.9423,943.7844,613.76,943.14" style="stroke:#181818;stroke-width:1.0;"/><polygon fill="#181818" points="765.05,1064.86,760.5451,1056.1018,761.1543,1061.7258,755.5303,1062.335,765.05,1064.86" style="stroke:#181818;stroke-width:1.0;"/><text fill="#000000" font-family="sans-serif" font-size="13" lengthAdjust="spacing" textLength="191" x="728" y="1031.4951">[definitions-&gt;exits(d | d.isCorrect]</text><text fill="#000000" font-family="sans-serif" font-size="13" lengthAdjust="spacing" textLength="8" x="747.9853" y="1053.9465">+</text></g><!--link Concept to VideoWithAudio--><g id="link_Concept_VideoWithAudio"><path codeLine="61" d="M561.1673,952.7458 C550.1573,966.9158 541.99,975.06 525,987 C515.78,993.48 394.8649,1041.387 317.6749,1071.697 " fill="none" id="Concept-VideoWithAudio" style="stroke:#181818;stroke-width:1.0;"/><polygon fill="none" points="568.53,943.27,561.6901,945.5537,561.1673,952.7458,568.0073,950.4621,568.53,943.27" style="stroke:#181818;stroke-width:1.0;"/><polygon fill="#181818" points="312.09,1073.89,321.9293,1074.3238,316.7441,1072.0625,319.0053,1066.8773,312.09,1073.89" style="stroke:#181818;stroke-width:1.0;"/><text fill="#000000" font-family="sans-serif" font-size="13" lengthAdjust="spacing" textLength="5" x="321.5912" y="1063.202">*</text></g><!--link Relation to Concept--><g id="link_Relation_Concept"><path codeLine="63" d="M500.91,738.11 C497.13,760.12 494.15,793.83 504,821 C507.14,829.66 537.0566,864.2431 559.9966,890.0831 " fill="none" id="Relation-to-Concept" style="stroke:#181818;stroke-width:1.0;"/><polygon fill="#181818" points="563.98,894.57,560.9962,885.184,560.6605,890.8309,555.0136,890.4952,563.98,894.57" style="stroke:#181818;stroke-width:1.0;"/><text fill="#000000" font-family="sans-serif" font-size="13" lengthAdjust="spacing" textLength="31" x="505" y="817.4951">origin</text></g><!--link Relation to Concept--><g id="link_Relation_Concept"><path codeLine="64" d="M515.29,738.13 C522.4,755.86 532.39,780.94 541,803 C553.35,834.66 565.2127,865.7498 574.0327,889.0098 " fill="none" id="Relation-to-Concept-1" style="stroke:#181818;stroke-width:1.0;"/><polygon fill="#181818" points="576.16,894.62,576.7091,884.7865,574.3872,889.9448,569.2288,887.6229,576.16,894.62" style="stroke:#181818;stroke-width:1.0;"/><text fill="#000000" font-family="sans-serif" font-size="13" lengthAdjust="spacing" textLength="33" x="548" y="817.4951">target</text></g><!--link Relation to RelationType--><g id="link_Relation_RelationType"><path codeLine="65" d="M490.59,749.0994 C482.91,766.6094 477.58,780.43 471,803 C466.53,818.32 463.8995,829.1731 460.7795,845.0131 " fill="none" id="Relation-RelationType" style="stroke:#181818;stroke-width:1.0;"/><polygon fill="#181818" points="495.41,738.11,489.3368,741.998,490.59,749.0994,496.6631,745.2114,495.41,738.11" style="stroke:#181818;stroke-width:1.0;"/><polygon fill="#181818" points="459.62,850.9,465.2839,842.8427,460.5863,845.9943,457.4347,841.2966,459.62,850.9" style="stroke:#181818;stroke-width:1.0;"/></g><!--link Definition to Justification--><g id="link_Definition_Justification"><path codeLine="78" d="M832.0435,1141.3105 C847.3735,1165.2905 858.2486,1182.3145 871.9786,1203.7945 " fill="none" id="Definition-Justification" style="stroke:#181818;stroke-width:1.0;"/><polygon fill="none" points="825.58,1131.2,825.4416,1138.4098,832.0435,1141.3105,832.1819,1134.1008,825.58,1131.2" style="stroke:#181818;stroke-width:1.0;"/><polygon fill="#181818" points="875.21,1208.85,873.7331,1199.1125,872.5171,1204.6371,866.9925,1203.4211,875.21,1208.85" style="stroke:#181818;stroke-width:1.0;"/><text fill="#000000" font-family="sans-serif" font-size="13" lengthAdjust="spacing" textLength="118" x="856" y="1175.4951">[!definition.isCorrect]</text><text fill="#000000" font-family="sans-serif" font-size="13" lengthAdjust="spacing" textLength="8" x="862.3951" y="1198.1517">+</text></g><!--link Document to VideoWithAudio--><g id="link_Document_VideoWithAudio"><path codeLine="80" d="M297.2492,954.5995 C286.7092,988.5195 272.5104,1034.2002 261.9704,1068.1202 " fill="none" id="Document-VideoWithAudio" style="stroke:#181818;stroke-width:1.0;"/><polygon fill="none" points="300.81,943.14,295.2097,947.6828,297.2492,954.5995,302.8494,950.0567,300.81,943.14" style="stroke:#181818;stroke-width:1.0;"/><polygon fill="#181818" points="260.19,1073.85,266.6805,1066.4423,261.6737,1069.0752,259.0408,1064.0684,260.19,1073.85" style="stroke:#181818;stroke-width:1.0;"/><text fill="#000000" font-family="sans-serif" font-size="13" lengthAdjust="spacing" textLength="5" x="256.3918" y="1063.1517">*</text></g><!--link Document to Media--><g id="link_Document_Media"><path codeLine="81" d="M323.7658,954.0276 C339.4858,987.9476 361.0371,1034.4862 376.7571,1068.4062 " fill="none" id="Document-Media" style="stroke:#181818;stroke-width:1.0;"/><polygon fill="none" points="318.72,943.14,317.6137,950.2657,323.7658,954.0276,324.8721,946.9019,318.72,943.14" style="stroke:#181818;stroke-width:1.0;"/><polygon fill="#181818" points="379.28,1073.85,379.1249,1064.0024,377.1776,1069.3135,371.8665,1067.3662,379.28,1073.85" style="stroke:#181818;stroke-width:1.0;"/><text fill="#000000" font-family="sans-serif" font-size="13" lengthAdjust="spacing" textLength="5" x="370.8924" y="1063.1517">*</text></g><!--link VideoWithAudio to Audio--><g id="link_VideoWithAudio_Audio"><path codeLine="83" d="M256.189,1134.1249 C257.729,1150.1349 258.96,1159.95 262,1179 C263.57,1188.84 264.4754,1193.7426 266.4554,1203.0026 " fill="none" id="VideoWithAudio-Audio" style="stroke:#181818;stroke-width:1.0;"/><polygon fill="#181818" points="255.04,1122.18,251.6329,1128.5354,256.189,1134.1249,259.5961,1127.7694,255.04,1122.18" style="stroke:#181818;stroke-width:1.0;"/><polygon fill="#181818" points="267.71,1208.87,269.7397,1199.2326,266.6645,1203.9805,261.9166,1200.9053,267.71,1208.87" style="stroke:#181818;stroke-width:1.0;"/></g><!--link VideoWithAudio to Video--><g id="link_VideoWithAudio_Video"><path codeLine="84" d="M282.5684,1130.9793 C305.0084,1155.2393 327.8363,1179.9149 350.3363,1204.2449 " fill="none" id="VideoWithAudio-Video" style="stroke:#181818;stroke-width:1.0;"/><polygon fill="#181818" points="274.42,1122.17,275.5578,1129.2908,282.5684,1130.9793,281.4306,1123.8585,274.42,1122.17" style="stroke:#181818;stroke-width:1.0;"/><polygon fill="#181818" points="354.41,1208.65,351.2361,1199.3266,351.0152,1204.9791,345.3627,1204.7582,354.41,1208.65" style="stroke:#181818;stroke-width:1.0;"/></g><!--reverse link Media to Image--><g id="link_Media_Image"><path codeLine="87" d="M441.301,1128.0457 C461.631,1139.7757 471.81,1146.15 494,1161 C516.59,1176.11 541.14,1194.52 559.63,1208.8 " fill="none" id="Media-backto-Image" style="stroke:#181818;stroke-width:1.0;"/><polygon fill="none" points="425.71,1119.05,438.3024,1133.2427,444.2995,1122.8487,425.71,1119.05" style="stroke:#181818;stroke-width:1.0;"/></g><!--reverse link Media to Text--><g id="link_Media_Text"><path codeLine="88" d="M439.5424,1133.2451 C453.1924,1143.7151 453.69,1146.12 464,1161 C473.97,1175.39 480.36,1194.17 484.17,1208.8 " fill="none" id="Media-backto-Text" style="stroke:#181818;stroke-width:1.0;"/><polygon fill="none" points="425.26,1122.29,435.8907,1138.0059,443.1941,1128.4843,425.26,1122.29" style="stroke:#181818;stroke-width:1.0;"/></g><!--reverse link Media to Audio--><g id="link_Media_Audio"><path codeLine="89" d="M357.7315,1135.6853 C336.3915,1159.9453 314.94,1184.32 293.54,1208.65 " fill="none" id="Media-backto-Audio" style="stroke:#181818;stroke-width:1.0;"/><polygon fill="none" points="369.62,1122.17,353.2264,1131.7224,362.2366,1139.6481,369.62,1122.17" style="stroke:#181818;stroke-width:1.0;"/></g><!--reverse link Media to Video--><g id="link_Media_Video"><path codeLine="90" d="M385.6784,1140.0714 C383.1284,1164.3314 381.02,1184.32 378.46,1208.65 " fill="none" id="Media-backto-Video" style="stroke:#181818;stroke-width:1.0;"/><polygon fill="none" points="387.56,1122.17,379.7112,1139.4442,391.6455,1140.6986,387.56,1122.17" style="stroke:#181818;stroke-width:1.0;"/></g><!--reverse link Audio to Text--><g id="link_Audio_Text"><path codeLine="92" d="M311.4191,1205.6577 C333.0891,1191.5577 357.57,1178.39 386.5,1171 C417.94,1162.97 432.07,1153.67 459.5,1171 C472.6,1179.28 480,1195.13 484.12,1208.74 " fill="none" id="Audio-backto-Text" style="stroke:#181818;stroke-width:1.0;"/><polygon fill="#181818" points="306.39,1208.93,316.1152,1207.3743,310.5809,1206.2031,311.7522,1200.6688,306.39,1208.93" style="stroke:#181818;stroke-width:1.0;"/><text fill="#000000" font-family="sans-serif" font-size="13" lengthAdjust="spacing" textLength="71" x="387.5" y="1175.4951">transcription</text><text fill="#000000" font-family="sans-serif" font-size="13" lengthAdjust="spacing" textLength="22" x="290.1274" y="1198.2522">0..1</text></g><!--SRC=[VLJBRjim4BppApQ-r4vWeRaQSG33oS45YXQDsnvI7rXfxH2LI86a4kVrxrsIeaGbTdoHERlSvmppaXi3AoiaQguVuPa1_QOWpB8nLbNibR7UggRJInYTZM2jQf53OZbr5e_ERaz4XBCOPiC-7O8pwswOwQKHJpYUpC_XZ-IoW0XlXJPsFCbKNgxC-h76RzlnKbMrCiAYppRPC7PTD3ctGidl9RTRfQjGZQyJUNw7-gZBwGXkR5EWj1z6SPa-SkZcC8FRsAL0rnUMcDknW1Su4LtRaxxXpR6mopjk6SlzUgxtg7DXC2pd3EvH6xf0kuaMTmUkLCM5P2nyFUIAMqZpG2D8q1lBBLRKj1ifOoYRQeY5HCjIFU4QZVMdAzmAALoX_lW3Ir-r3-60BzIQs3ukwheKeI77dT10A27XbjAQva8EmUA81QFFMNO-QkEq8MYU9zoxPDsjJRnqyKAtqdoiNJTasMLgc876Uu4Fn2wuvJtUnuJv76HJbfj1YC1dm4BO12T3iczdfBY7IS_S5aDpj8Yuh82-gp5NqbZDQToivUJHP8TonJkTHWV12vK43UoQ0JV_6ED_NLOQWU-ssv4iS4_x2KA_UCao60eljTo8gYu7i8hgMYgPOsrRs3FxIkMD8rgAETV8g448wkENA53z5lPkqHH2qKm7TRnvavpPP-p5sHENs5Hq1r8dxeKruuB4MQJqYX6w9jvM42i5BzJWFGEbnOxaTzXekTwXxOs-ke66WWnJg7sCVveWi8KnAXUyKs2SGpol9F5JM4uPW_zkft7NAX6Y5Fjfm24z9cRNlflVEq7sCqodnk9UZyxjlSDN8ZHdREWNPXEk7B9uBE6j3mBFhopyyQ_2gk8xJ84rxcrw3l5If0th765QujQw6iEJv9rfXvgUeboBse_qFm00]--></g></svg>