<?xml version="1.0" encoding="us-ascii" standalone="no"?><svg xmlns="http://www.w3.org/2000/svg" xmlns:xlink="http://www.w3.org/1999/xlink" contentStyleType="text/css" height="818px" preserveAspectRatio="none" style="width:920px;height:818px;background:#FFFFFF;" version="1.1" viewBox="0 0 920 818" width="920px" zoomAndPan="magnify"><defs/><g><!--class Course--><g id="elem_Course"><rect codeLine="1" fill="#F1F1F1" height="48" id="Course" rx="2.5" ry="2.5" style="stroke:#181818;stroke-width:0.5;" width="78" x="252" y="223"/><ellipse cx="267" cy="239" fill="#ADD1B2" rx="11" ry="11" style="stroke:#181818;stroke-width:1.0;"/><path d="M269.7656,234.875 Q269.9219,234.6563 270.1094,234.5469 Q270.2969,234.4375 270.5156,234.4375 Q270.8906,234.4375 271.125,234.7031 Q271.3594,234.9531 271.3594,235.5625 L271.3594,237.0156 Q271.3594,237.625 271.125,237.8906 Q270.8906,238.1563 270.5156,238.1563 Q270.1719,238.1563 269.9688,237.9531 Q269.7656,237.7656 269.6563,237.25 Q269.6094,236.8906 269.4219,236.7031 Q269.0938,236.3281 268.4844,236.1094 Q267.875,235.8906 267.25,235.8906 Q266.4844,235.8906 265.8438,236.2188 Q265.2188,236.5469 264.7188,237.2969 Q264.2344,238.0469 264.2344,239.0781 L264.2344,240.1719 Q264.2344,241.4063 265.125,242.2344 Q266.0156,243.0469 267.6094,243.0469 Q268.5469,243.0469 269.2031,242.7969 Q269.5938,242.6406 270.0156,242.2031 Q270.2813,241.9375 270.4219,241.8594 Q270.5781,241.7813 270.7813,241.7813 Q271.1094,241.7813 271.3594,242.0469 Q271.625,242.2969 271.625,242.6406 Q271.625,242.9844 271.2813,243.3906 Q270.7813,243.9688 269.9844,244.2969 Q268.9063,244.75 267.6094,244.75 Q266.0938,244.75 264.8906,244.125 Q263.9063,243.625 263.2188,242.5625 Q262.5313,241.4844 262.5313,240.2031 L262.5313,239.0469 Q262.5313,237.7188 263.1406,236.5781 Q263.7656,235.4219 264.8594,234.8125 Q265.9531,234.1875 267.1875,234.1875 Q267.9219,234.1875 268.5625,234.3594 Q269.2188,234.5156 269.7656,234.875 Z " fill="#000000"/><text fill="#000000" font-family="sans-serif" font-size="14" lengthAdjust="spacing" textLength="46" x="281" y="244.7285">Course</text><line style="stroke:#181818;stroke-width:0.5;" x1="253" x2="329" y1="255" y2="255"/><line style="stroke:#181818;stroke-width:0.5;" x1="253" x2="329" y1="263" y2="263"/></g><!--class Unit--><g id="elem_Unit"><rect codeLine="2" fill="#F1F1F1" height="48" id="Unit" rx="2.5" ry="2.5" style="stroke:#181818;stroke-width:0.5;" width="56" x="180" y="547"/><ellipse cx="195" cy="563" fill="#ADD1B2" rx="11" ry="11" style="stroke:#181818;stroke-width:1.0;"/><path d="M197.7656,558.875 Q197.9219,558.6563 198.1094,558.5469 Q198.2969,558.4375 198.5156,558.4375 Q198.8906,558.4375 199.125,558.7031 Q199.3594,558.9531 199.3594,559.5625 L199.3594,561.0156 Q199.3594,561.625 199.125,561.8906 Q198.8906,562.1563 198.5156,562.1563 Q198.1719,562.1563 197.9688,561.9531 Q197.7656,561.7656 197.6563,561.25 Q197.6094,560.8906 197.4219,560.7031 Q197.0938,560.3281 196.4844,560.1094 Q195.875,559.8906 195.25,559.8906 Q194.4844,559.8906 193.8438,560.2188 Q193.2188,560.5469 192.7188,561.2969 Q192.2344,562.0469 192.2344,563.0781 L192.2344,564.1719 Q192.2344,565.4063 193.125,566.2344 Q194.0156,567.0469 195.6094,567.0469 Q196.5469,567.0469 197.2031,566.7969 Q197.5938,566.6406 198.0156,566.2031 Q198.2813,565.9375 198.4219,565.8594 Q198.5781,565.7813 198.7813,565.7813 Q199.1094,565.7813 199.3594,566.0469 Q199.625,566.2969 199.625,566.6406 Q199.625,566.9844 199.2813,567.3906 Q198.7813,567.9688 197.9844,568.2969 Q196.9063,568.75 195.6094,568.75 Q194.0938,568.75 192.8906,568.125 Q191.9063,567.625 191.2188,566.5625 Q190.5313,565.4844 190.5313,564.2031 L190.5313,563.0469 Q190.5313,561.7188 191.1406,560.5781 Q191.7656,559.4219 192.8594,558.8125 Q193.9531,558.1875 195.1875,558.1875 Q195.9219,558.1875 196.5625,558.3594 Q197.2188,558.5156 197.7656,558.875 Z " fill="#000000"/><text fill="#000000" font-family="sans-serif" font-size="14" lengthAdjust="spacing" textLength="24" x="209" y="568.7285">Unit</text><line style="stroke:#181818;stroke-width:0.5;" x1="181" x2="235" y1="579" y2="579"/><line style="stroke:#181818;stroke-width:0.5;" x1="181" x2="235" y1="587" y2="587"/></g><!--class Topic--><g id="elem_Topic"><rect codeLine="3" fill="#F1F1F1" height="48" id="Topic" rx="2.5" ry="2.5" style="stroke:#181818;stroke-width:0.5;" width="67" x="170.5" y="439"/><ellipse cx="185.5" cy="455" fill="#ADD1B2" rx="11" ry="11" style="stroke:#181818;stroke-width:1.0;"/><path d="M188.2656,450.875 Q188.4219,450.6563 188.6094,450.5469 Q188.7969,450.4375 189.0156,450.4375 Q189.3906,450.4375 189.625,450.7031 Q189.8594,450.9531 189.8594,451.5625 L189.8594,453.0156 Q189.8594,453.625 189.625,453.8906 Q189.3906,454.1563 189.0156,454.1563 Q188.6719,454.1563 188.4688,453.9531 Q188.2656,453.7656 188.1563,453.25 Q188.1094,452.8906 187.9219,452.7031 Q187.5938,452.3281 186.9844,452.1094 Q186.375,451.8906 185.75,451.8906 Q184.9844,451.8906 184.3438,452.2188 Q183.7188,452.5469 183.2188,453.2969 Q182.7344,454.0469 182.7344,455.0781 L182.7344,456.1719 Q182.7344,457.4063 183.625,458.2344 Q184.5156,459.0469 186.1094,459.0469 Q187.0469,459.0469 187.7031,458.7969 Q188.0938,458.6406 188.5156,458.2031 Q188.7813,457.9375 188.9219,457.8594 Q189.0781,457.7813 189.2813,457.7813 Q189.6094,457.7813 189.8594,458.0469 Q190.125,458.2969 190.125,458.6406 Q190.125,458.9844 189.7813,459.3906 Q189.2813,459.9688 188.4844,460.2969 Q187.4063,460.75 186.1094,460.75 Q184.5938,460.75 183.3906,460.125 Q182.4063,459.625 181.7188,458.5625 Q181.0313,457.4844 181.0313,456.2031 L181.0313,455.0469 Q181.0313,453.7188 181.6406,452.5781 Q182.2656,451.4219 183.3594,450.8125 Q184.4531,450.1875 185.6875,450.1875 Q186.4219,450.1875 187.0625,450.3594 Q187.7188,450.5156 188.2656,450.875 Z " fill="#000000"/><text fill="#000000" font-family="sans-serif" font-size="14" lengthAdjust="spacing" textLength="35" x="199.5" y="460.7285">Topic</text><line style="stroke:#181818;stroke-width:0.5;" x1="171.5" x2="236.5" y1="471" y2="471"/><line style="stroke:#181818;stroke-width:0.5;" x1="171.5" x2="236.5" y1="479" y2="479"/></g><!--class Multimedia--><g id="elem_Multimedia"><rect codeLine="4" fill="#F1F1F1" height="48" id="Multimedia" rx="2.5" ry="2.5" style="stroke:#181818;stroke-width:0.5;" width="99" x="158.5" y="655"/><ellipse cx="173.5" cy="671" fill="#ADD1B2" rx="11" ry="11" style="stroke:#181818;stroke-width:1.0;"/><path d="M176.2656,666.875 Q176.4219,666.6563 176.6094,666.5469 Q176.7969,666.4375 177.0156,666.4375 Q177.3906,666.4375 177.625,666.7031 Q177.8594,666.9531 177.8594,667.5625 L177.8594,669.0156 Q177.8594,669.625 177.625,669.8906 Q177.3906,670.1563 177.0156,670.1563 Q176.6719,670.1563 176.4688,669.9531 Q176.2656,669.7656 176.1563,669.25 Q176.1094,668.8906 175.9219,668.7031 Q175.5938,668.3281 174.9844,668.1094 Q174.375,667.8906 173.75,667.8906 Q172.9844,667.8906 172.3438,668.2188 Q171.7188,668.5469 171.2188,669.2969 Q170.7344,670.0469 170.7344,671.0781 L170.7344,672.1719 Q170.7344,673.4063 171.625,674.2344 Q172.5156,675.0469 174.1094,675.0469 Q175.0469,675.0469 175.7031,674.7969 Q176.0938,674.6406 176.5156,674.2031 Q176.7813,673.9375 176.9219,673.8594 Q177.0781,673.7813 177.2813,673.7813 Q177.6094,673.7813 177.8594,674.0469 Q178.125,674.2969 178.125,674.6406 Q178.125,674.9844 177.7813,675.3906 Q177.2813,675.9688 176.4844,676.2969 Q175.4063,676.75 174.1094,676.75 Q172.5938,676.75 171.3906,676.125 Q170.4063,675.625 169.7188,674.5625 Q169.0313,673.4844 169.0313,672.2031 L169.0313,671.0469 Q169.0313,669.7188 169.6406,668.5781 Q170.2656,667.4219 171.3594,666.8125 Q172.4531,666.1875 173.6875,666.1875 Q174.4219,666.1875 175.0625,666.3594 Q175.7188,666.5156 176.2656,666.875 Z " fill="#000000"/><text fill="#000000" font-family="sans-serif" font-size="14" lengthAdjust="spacing" textLength="67" x="187.5" y="676.7285">Multimedia</text><line style="stroke:#181818;stroke-width:0.5;" x1="159.5" x2="256.5" y1="687" y2="687"/><line style="stroke:#181818;stroke-width:0.5;" x1="159.5" x2="256.5" y1="695" y2="695"/></g><!--class Syllabus--><g id="elem_Syllabus"><rect fill="#F1F1F1" height="48" id="Syllabus" rx="2.5" ry="2.5" style="stroke:#181818;stroke-width:0.5;" width="85" x="161.5" y="331"/><ellipse cx="176.5" cy="347" fill="#ADD1B2" rx="11" ry="11" style="stroke:#181818;stroke-width:1.0;"/><path d="M179.2656,342.875 Q179.4219,342.6563 179.6094,342.5469 Q179.7969,342.4375 180.0156,342.4375 Q180.3906,342.4375 180.625,342.7031 Q180.8594,342.9531 180.8594,343.5625 L180.8594,345.0156 Q180.8594,345.625 180.625,345.8906 Q180.3906,346.1563 180.0156,346.1563 Q179.6719,346.1563 179.4688,345.9531 Q179.2656,345.7656 179.1563,345.25 Q179.1094,344.8906 178.9219,344.7031 Q178.5938,344.3281 177.9844,344.1094 Q177.375,343.8906 176.75,343.8906 Q175.9844,343.8906 175.3438,344.2188 Q174.7188,344.5469 174.2188,345.2969 Q173.7344,346.0469 173.7344,347.0781 L173.7344,348.1719 Q173.7344,349.4063 174.625,350.2344 Q175.5156,351.0469 177.1094,351.0469 Q178.0469,351.0469 178.7031,350.7969 Q179.0938,350.6406 179.5156,350.2031 Q179.7813,349.9375 179.9219,349.8594 Q180.0781,349.7813 180.2813,349.7813 Q180.6094,349.7813 180.8594,350.0469 Q181.125,350.2969 181.125,350.6406 Q181.125,350.9844 180.7813,351.3906 Q180.2813,351.9688 179.4844,352.2969 Q178.4063,352.75 177.1094,352.75 Q175.5938,352.75 174.3906,352.125 Q173.4063,351.625 172.7188,350.5625 Q172.0313,349.4844 172.0313,348.2031 L172.0313,347.0469 Q172.0313,345.7188 172.6406,344.5781 Q173.2656,343.4219 174.3594,342.8125 Q175.4531,342.1875 176.6875,342.1875 Q177.4219,342.1875 178.0625,342.3594 Q178.7188,342.5156 179.2656,342.875 Z " fill="#000000"/><text fill="#000000" font-family="sans-serif" font-size="14" lengthAdjust="spacing" textLength="53" x="190.5" y="352.7285">Syllabus</text><line style="stroke:#181818;stroke-width:0.5;" x1="162.5" x2="245.5" y1="363" y2="363"/><line style="stroke:#181818;stroke-width:0.5;" x1="162.5" x2="245.5" y1="371" y2="371"/></g><!--class DefinitionDomain--><g id="elem_DefinitionDomain"><rect fill="#F1F1F1" height="48" id="DefinitionDomain" rx="2.5" ry="2.5" style="stroke:#181818;stroke-width:0.5;" width="139" x="272.5" y="439"/><ellipse cx="287.5" cy="455" fill="#ADD1B2" rx="11" ry="11" style="stroke:#181818;stroke-width:1.0;"/><path d="M290.2656,450.875 Q290.4219,450.6563 290.6094,450.5469 Q290.7969,450.4375 291.0156,450.4375 Q291.3906,450.4375 291.625,450.7031 Q291.8594,450.9531 291.8594,451.5625 L291.8594,453.0156 Q291.8594,453.625 291.625,453.8906 Q291.3906,454.1563 291.0156,454.1563 Q290.6719,454.1563 290.4688,453.9531 Q290.2656,453.7656 290.1563,453.25 Q290.1094,452.8906 289.9219,452.7031 Q289.5938,452.3281 288.9844,452.1094 Q288.375,451.8906 287.75,451.8906 Q286.9844,451.8906 286.3438,452.2188 Q285.7188,452.5469 285.2188,453.2969 Q284.7344,454.0469 284.7344,455.0781 L284.7344,456.1719 Q284.7344,457.4063 285.625,458.2344 Q286.5156,459.0469 288.1094,459.0469 Q289.0469,459.0469 289.7031,458.7969 Q290.0938,458.6406 290.5156,458.2031 Q290.7813,457.9375 290.9219,457.8594 Q291.0781,457.7813 291.2813,457.7813 Q291.6094,457.7813 291.8594,458.0469 Q292.125,458.2969 292.125,458.6406 Q292.125,458.9844 291.7813,459.3906 Q291.2813,459.9688 290.4844,460.2969 Q289.4063,460.75 288.1094,460.75 Q286.5938,460.75 285.3906,460.125 Q284.4063,459.625 283.7188,458.5625 Q283.0313,457.4844 283.0313,456.2031 L283.0313,455.0469 Q283.0313,453.7188 283.6406,452.5781 Q284.2656,451.4219 285.3594,450.8125 Q286.4531,450.1875 287.6875,450.1875 Q288.4219,450.1875 289.0625,450.3594 Q289.7188,450.5156 290.2656,450.875 Z " fill="#000000"/><text fill="#000000" font-family="sans-serif" font-size="14" lengthAdjust="spacing" textLength="107" x="301.5" y="460.7285">DefinitionDomain</text><line style="stroke:#181818;stroke-width:0.5;" x1="273.5" x2="410.5" y1="471" y2="471"/><line style="stroke:#181818;stroke-width:0.5;" x1="273.5" x2="410.5" y1="479" y2="479"/></g><!--class Definition--><g id="elem_Definition"><rect fill="#F1F1F1" height="48" id="Definition" rx="2.5" ry="2.5" style="stroke:#181818;stroke-width:0.5;" width="91" x="294.5" y="655"/><ellipse cx="309.5" cy="671" fill="#ADD1B2" rx="11" ry="11" style="stroke:#181818;stroke-width:1.0;"/><path d="M312.2656,666.875 Q312.4219,666.6563 312.6094,666.5469 Q312.7969,666.4375 313.0156,666.4375 Q313.3906,666.4375 313.625,666.7031 Q313.8594,666.9531 313.8594,667.5625 L313.8594,669.0156 Q313.8594,669.625 313.625,669.8906 Q313.3906,670.1563 313.0156,670.1563 Q312.6719,670.1563 312.4688,669.9531 Q312.2656,669.7656 312.1563,669.25 Q312.1094,668.8906 311.9219,668.7031 Q311.5938,668.3281 310.9844,668.1094 Q310.375,667.8906 309.75,667.8906 Q308.9844,667.8906 308.3438,668.2188 Q307.7188,668.5469 307.2188,669.2969 Q306.7344,670.0469 306.7344,671.0781 L306.7344,672.1719 Q306.7344,673.4063 307.625,674.2344 Q308.5156,675.0469 310.1094,675.0469 Q311.0469,675.0469 311.7031,674.7969 Q312.0938,674.6406 312.5156,674.2031 Q312.7813,673.9375 312.9219,673.8594 Q313.0781,673.7813 313.2813,673.7813 Q313.6094,673.7813 313.8594,674.0469 Q314.125,674.2969 314.125,674.6406 Q314.125,674.9844 313.7813,675.3906 Q313.2813,675.9688 312.4844,676.2969 Q311.4063,676.75 310.1094,676.75 Q308.5938,676.75 307.3906,676.125 Q306.4063,675.625 305.7188,674.5625 Q305.0313,673.4844 305.0313,672.2031 L305.0313,671.0469 Q305.0313,669.7188 305.6406,668.5781 Q306.2656,667.4219 307.3594,666.8125 Q308.4531,666.1875 309.6875,666.1875 Q310.4219,666.1875 311.0625,666.3594 Q311.7188,666.5156 312.2656,666.875 Z " fill="#000000"/><text fill="#000000" font-family="sans-serif" font-size="14" lengthAdjust="spacing" textLength="59" x="323.5" y="676.7285">Definition</text><line style="stroke:#181818;stroke-width:0.5;" x1="295.5" x2="384.5" y1="687" y2="687"/><line style="stroke:#181818;stroke-width:0.5;" x1="295.5" x2="384.5" y1="695" y2="695"/></g><!--class Video--><g id="elem_Video"><rect fill="#F1F1F1" height="48" id="Video" rx="2.5" ry="2.5" style="stroke:#181818;stroke-width:0.5;" width="68" x="7" y="763"/><ellipse cx="22" cy="779" fill="#ADD1B2" rx="11" ry="11" style="stroke:#181818;stroke-width:1.0;"/><path d="M24.7656,774.875 Q24.9219,774.6563 25.1094,774.5469 Q25.2969,774.4375 25.5156,774.4375 Q25.8906,774.4375 26.125,774.7031 Q26.3594,774.9531 26.3594,775.5625 L26.3594,777.0156 Q26.3594,777.625 26.125,777.8906 Q25.8906,778.1563 25.5156,778.1563 Q25.1719,778.1563 24.9688,777.9531 Q24.7656,777.7656 24.6563,777.25 Q24.6094,776.8906 24.4219,776.7031 Q24.0938,776.3281 23.4844,776.1094 Q22.875,775.8906 22.25,775.8906 Q21.4844,775.8906 20.8438,776.2188 Q20.2188,776.5469 19.7188,777.2969 Q19.2344,778.0469 19.2344,779.0781 L19.2344,780.1719 Q19.2344,781.4063 20.125,782.2344 Q21.0156,783.0469 22.6094,783.0469 Q23.5469,783.0469 24.2031,782.7969 Q24.5938,782.6406 25.0156,782.2031 Q25.2813,781.9375 25.4219,781.8594 Q25.5781,781.7813 25.7813,781.7813 Q26.1094,781.7813 26.3594,782.0469 Q26.625,782.2969 26.625,782.6406 Q26.625,782.9844 26.2813,783.3906 Q25.7813,783.9688 24.9844,784.2969 Q23.9063,784.75 22.6094,784.75 Q21.0938,784.75 19.8906,784.125 Q18.9063,783.625 18.2188,782.5625 Q17.5313,781.4844 17.5313,780.2031 L17.5313,779.0469 Q17.5313,777.7188 18.1406,776.5781 Q18.7656,775.4219 19.8594,774.8125 Q20.9531,774.1875 22.1875,774.1875 Q22.9219,774.1875 23.5625,774.3594 Q24.2188,774.5156 24.7656,774.875 Z " fill="#000000"/><text fill="#000000" font-family="sans-serif" font-size="14" lengthAdjust="spacing" textLength="36" x="36" y="784.7285">Video</text><line style="stroke:#181818;stroke-width:0.5;" x1="8" x2="74" y1="795" y2="795"/><line style="stroke:#181818;stroke-width:0.5;" x1="8" x2="74" y1="803" y2="803"/></g><!--class Podcast--><g id="elem_Podcast"><rect fill="#F1F1F1" height="48" id="Podcast" rx="2.5" ry="2.5" style="stroke:#181818;stroke-width:0.5;" width="83" x="110.5" y="763"/><ellipse cx="125.5" cy="779" fill="#ADD1B2" rx="11" ry="11" style="stroke:#181818;stroke-width:1.0;"/><path d="M128.2656,774.875 Q128.4219,774.6563 128.6094,774.5469 Q128.7969,774.4375 129.0156,774.4375 Q129.3906,774.4375 129.625,774.7031 Q129.8594,774.9531 129.8594,775.5625 L129.8594,777.0156 Q129.8594,777.625 129.625,777.8906 Q129.3906,778.1563 129.0156,778.1563 Q128.6719,778.1563 128.4688,777.9531 Q128.2656,777.7656 128.1563,777.25 Q128.1094,776.8906 127.9219,776.7031 Q127.5938,776.3281 126.9844,776.1094 Q126.375,775.8906 125.75,775.8906 Q124.9844,775.8906 124.3438,776.2188 Q123.7188,776.5469 123.2188,777.2969 Q122.7344,778.0469 122.7344,779.0781 L122.7344,780.1719 Q122.7344,781.4063 123.625,782.2344 Q124.5156,783.0469 126.1094,783.0469 Q127.0469,783.0469 127.7031,782.7969 Q128.0938,782.6406 128.5156,782.2031 Q128.7813,781.9375 128.9219,781.8594 Q129.0781,781.7813 129.2813,781.7813 Q129.6094,781.7813 129.8594,782.0469 Q130.125,782.2969 130.125,782.6406 Q130.125,782.9844 129.7813,783.3906 Q129.2813,783.9688 128.4844,784.2969 Q127.4063,784.75 126.1094,784.75 Q124.5938,784.75 123.3906,784.125 Q122.4063,783.625 121.7188,782.5625 Q121.0313,781.4844 121.0313,780.2031 L121.0313,779.0469 Q121.0313,777.7188 121.6406,776.5781 Q122.2656,775.4219 123.3594,774.8125 Q124.4531,774.1875 125.6875,774.1875 Q126.4219,774.1875 127.0625,774.3594 Q127.7188,774.5156 128.2656,774.875 Z " fill="#000000"/><text fill="#000000" font-family="sans-serif" font-size="14" lengthAdjust="spacing" textLength="51" x="139.5" y="784.7285">Podcast</text><line style="stroke:#181818;stroke-width:0.5;" x1="111.5" x2="192.5" y1="795" y2="795"/><line style="stroke:#181818;stroke-width:0.5;" x1="111.5" x2="192.5" y1="803" y2="803"/></g><!--class Image--><g id="elem_Image"><rect fill="#F1F1F1" height="48" id="Image" rx="2.5" ry="2.5" style="stroke:#181818;stroke-width:0.5;" width="70" x="229" y="763"/><ellipse cx="244" cy="779" fill="#ADD1B2" rx="11" ry="11" style="stroke:#181818;stroke-width:1.0;"/><path d="M246.7656,774.875 Q246.9219,774.6563 247.1094,774.5469 Q247.2969,774.4375 247.5156,774.4375 Q247.8906,774.4375 248.125,774.7031 Q248.3594,774.9531 248.3594,775.5625 L248.3594,777.0156 Q248.3594,777.625 248.125,777.8906 Q247.8906,778.1563 247.5156,778.1563 Q247.1719,778.1563 246.9688,777.9531 Q246.7656,777.7656 246.6563,777.25 Q246.6094,776.8906 246.4219,776.7031 Q246.0938,776.3281 245.4844,776.1094 Q244.875,775.8906 244.25,775.8906 Q243.4844,775.8906 242.8438,776.2188 Q242.2188,776.5469 241.7188,777.2969 Q241.2344,778.0469 241.2344,779.0781 L241.2344,780.1719 Q241.2344,781.4063 242.125,782.2344 Q243.0156,783.0469 244.6094,783.0469 Q245.5469,783.0469 246.2031,782.7969 Q246.5938,782.6406 247.0156,782.2031 Q247.2813,781.9375 247.4219,781.8594 Q247.5781,781.7813 247.7813,781.7813 Q248.1094,781.7813 248.3594,782.0469 Q248.625,782.2969 248.625,782.6406 Q248.625,782.9844 248.2813,783.3906 Q247.7813,783.9688 246.9844,784.2969 Q245.9063,784.75 244.6094,784.75 Q243.0938,784.75 241.8906,784.125 Q240.9063,783.625 240.2188,782.5625 Q239.5313,781.4844 239.5313,780.2031 L239.5313,779.0469 Q239.5313,777.7188 240.1406,776.5781 Q240.7656,775.4219 241.8594,774.8125 Q242.9531,774.1875 244.1875,774.1875 Q244.9219,774.1875 245.5625,774.3594 Q246.2188,774.5156 246.7656,774.875 Z " fill="#000000"/><text fill="#000000" font-family="sans-serif" font-size="14" lengthAdjust="spacing" textLength="38" x="258" y="784.7285">Image</text><line style="stroke:#181818;stroke-width:0.5;" x1="230" x2="298" y1="795" y2="795"/><line style="stroke:#181818;stroke-width:0.5;" x1="230" x2="298" y1="803" y2="803"/></g><!--class Document--><g id="elem_Document"><rect fill="#F1F1F1" height="48" id="Document" rx="2.5" ry="2.5" style="stroke:#181818;stroke-width:0.5;" width="96" x="334" y="763"/><ellipse cx="349" cy="779" fill="#ADD1B2" rx="11" ry="11" style="stroke:#181818;stroke-width:1.0;"/><path d="M351.7656,774.875 Q351.9219,774.6563 352.1094,774.5469 Q352.2969,774.4375 352.5156,774.4375 Q352.8906,774.4375 353.125,774.7031 Q353.3594,774.9531 353.3594,775.5625 L353.3594,777.0156 Q353.3594,777.625 353.125,777.8906 Q352.8906,778.1563 352.5156,778.1563 Q352.1719,778.1563 351.9688,777.9531 Q351.7656,777.7656 351.6563,777.25 Q351.6094,776.8906 351.4219,776.7031 Q351.0938,776.3281 350.4844,776.1094 Q349.875,775.8906 349.25,775.8906 Q348.4844,775.8906 347.8438,776.2188 Q347.2188,776.5469 346.7188,777.2969 Q346.2344,778.0469 346.2344,779.0781 L346.2344,780.1719 Q346.2344,781.4063 347.125,782.2344 Q348.0156,783.0469 349.6094,783.0469 Q350.5469,783.0469 351.2031,782.7969 Q351.5938,782.6406 352.0156,782.2031 Q352.2813,781.9375 352.4219,781.8594 Q352.5781,781.7813 352.7813,781.7813 Q353.1094,781.7813 353.3594,782.0469 Q353.625,782.2969 353.625,782.6406 Q353.625,782.9844 353.2813,783.3906 Q352.7813,783.9688 351.9844,784.2969 Q350.9063,784.75 349.6094,784.75 Q348.0938,784.75 346.8906,784.125 Q345.9063,783.625 345.2188,782.5625 Q344.5313,781.4844 344.5313,780.2031 L344.5313,779.0469 Q344.5313,777.7188 345.1406,776.5781 Q345.7656,775.4219 346.8594,774.8125 Q347.9531,774.1875 349.1875,774.1875 Q349.9219,774.1875 350.5625,774.3594 Q351.2188,774.5156 351.7656,774.875 Z " fill="#000000"/><text fill="#000000" font-family="sans-serif" font-size="14" lengthAdjust="spacing" textLength="64" x="363" y="784.7285">Document</text><line style="stroke:#181818;stroke-width:0.5;" x1="335" x2="429" y1="795" y2="795"/><line style="stroke:#181818;stroke-width:0.5;" x1="335" x2="429" y1="803" y2="803"/></g><!--class LearningResource--><g id="elem_LearningResource"><rect codeLine="3" fill="#F1F1F1" height="48" id="LearningResource" rx="2.5" ry="2.5" style="stroke:#181818;stroke-width:0.5;" width="149" x="444.5" y="115"/><ellipse cx="459.5" cy="131" fill="#ADD1B2" rx="11" ry="11" style="stroke:#181818;stroke-width:1.0;"/><path d="M462.2656,126.875 Q462.4219,126.6563 462.6094,126.5469 Q462.7969,126.4375 463.0156,126.4375 Q463.3906,126.4375 463.625,126.7031 Q463.8594,126.9531 463.8594,127.5625 L463.8594,129.0156 Q463.8594,129.625 463.625,129.8906 Q463.3906,130.1563 463.0156,130.1563 Q462.6719,130.1563 462.4688,129.9531 Q462.2656,129.7656 462.1563,129.25 Q462.1094,128.8906 461.9219,128.7031 Q461.5938,128.3281 460.9844,128.1094 Q460.375,127.8906 459.75,127.8906 Q458.9844,127.8906 458.3438,128.2188 Q457.7188,128.5469 457.2188,129.2969 Q456.7344,130.0469 456.7344,131.0781 L456.7344,132.1719 Q456.7344,133.4063 457.625,134.2344 Q458.5156,135.0469 460.1094,135.0469 Q461.0469,135.0469 461.7031,134.7969 Q462.0938,134.6406 462.5156,134.2031 Q462.7813,133.9375 462.9219,133.8594 Q463.0781,133.7813 463.2813,133.7813 Q463.6094,133.7813 463.8594,134.0469 Q464.125,134.2969 464.125,134.6406 Q464.125,134.9844 463.7813,135.3906 Q463.2813,135.9688 462.4844,136.2969 Q461.4063,136.75 460.1094,136.75 Q458.5938,136.75 457.3906,136.125 Q456.4063,135.625 455.7188,134.5625 Q455.0313,133.4844 455.0313,132.2031 L455.0313,131.0469 Q455.0313,129.7188 455.6406,128.5781 Q456.2656,127.4219 457.3594,126.8125 Q458.4531,126.1875 459.6875,126.1875 Q460.4219,126.1875 461.0625,126.3594 Q461.7188,126.5156 462.2656,126.875 Z " fill="#000000"/><text fill="#000000" font-family="sans-serif" font-size="14" lengthAdjust="spacing" textLength="117" x="473.5" y="136.7285">LearningResource</text><line style="stroke:#181818;stroke-width:0.5;" x1="445.5" x2="592.5" y1="147" y2="147"/><line style="stroke:#181818;stroke-width:0.5;" x1="445.5" x2="592.5" y1="155" y2="155"/></g><!--class Exercise--><g id="elem_Exercise"><rect codeLine="4" fill="#F1F1F1" height="48" id="Exercise" rx="2.5" ry="2.5" style="stroke:#181818;stroke-width:0.5;" width="85" x="365.5" y="223"/><ellipse cx="380.5" cy="239" fill="#ADD1B2" rx="11" ry="11" style="stroke:#181818;stroke-width:1.0;"/><path d="M383.2656,234.875 Q383.4219,234.6563 383.6094,234.5469 Q383.7969,234.4375 384.0156,234.4375 Q384.3906,234.4375 384.625,234.7031 Q384.8594,234.9531 384.8594,235.5625 L384.8594,237.0156 Q384.8594,237.625 384.625,237.8906 Q384.3906,238.1563 384.0156,238.1563 Q383.6719,238.1563 383.4688,237.9531 Q383.2656,237.7656 383.1563,237.25 Q383.1094,236.8906 382.9219,236.7031 Q382.5938,236.3281 381.9844,236.1094 Q381.375,235.8906 380.75,235.8906 Q379.9844,235.8906 379.3438,236.2188 Q378.7188,236.5469 378.2188,237.2969 Q377.7344,238.0469 377.7344,239.0781 L377.7344,240.1719 Q377.7344,241.4063 378.625,242.2344 Q379.5156,243.0469 381.1094,243.0469 Q382.0469,243.0469 382.7031,242.7969 Q383.0938,242.6406 383.5156,242.2031 Q383.7813,241.9375 383.9219,241.8594 Q384.0781,241.7813 384.2813,241.7813 Q384.6094,241.7813 384.8594,242.0469 Q385.125,242.2969 385.125,242.6406 Q385.125,242.9844 384.7813,243.3906 Q384.2813,243.9688 383.4844,244.2969 Q382.4063,244.75 381.1094,244.75 Q379.5938,244.75 378.3906,244.125 Q377.4063,243.625 376.7188,242.5625 Q376.0313,241.4844 376.0313,240.2031 L376.0313,239.0469 Q376.0313,237.7188 376.6406,236.5781 Q377.2656,235.4219 378.3594,234.8125 Q379.4531,234.1875 380.6875,234.1875 Q381.4219,234.1875 382.0625,234.3594 Q382.7188,234.5156 383.2656,234.875 Z " fill="#000000"/><text fill="#000000" font-family="sans-serif" font-size="14" lengthAdjust="spacing" textLength="53" x="394.5" y="244.7285">Exercise</text><line style="stroke:#181818;stroke-width:0.5;" x1="366.5" x2="449.5" y1="255" y2="255"/><line style="stroke:#181818;stroke-width:0.5;" x1="366.5" x2="449.5" y1="263" y2="263"/></g><!--class CardTest--><g id="elem_CardTest"><rect codeLine="5" fill="#F1F1F1" height="48" id="CardTest" rx="2.5" ry="2.5" style="stroke:#181818;stroke-width:0.5;" width="91" x="353.5" y="331"/><ellipse cx="368.5" cy="347" fill="#ADD1B2" rx="11" ry="11" style="stroke:#181818;stroke-width:1.0;"/><path d="M371.2656,342.875 Q371.4219,342.6563 371.6094,342.5469 Q371.7969,342.4375 372.0156,342.4375 Q372.3906,342.4375 372.625,342.7031 Q372.8594,342.9531 372.8594,343.5625 L372.8594,345.0156 Q372.8594,345.625 372.625,345.8906 Q372.3906,346.1563 372.0156,346.1563 Q371.6719,346.1563 371.4688,345.9531 Q371.2656,345.7656 371.1563,345.25 Q371.1094,344.8906 370.9219,344.7031 Q370.5938,344.3281 369.9844,344.1094 Q369.375,343.8906 368.75,343.8906 Q367.9844,343.8906 367.3438,344.2188 Q366.7188,344.5469 366.2188,345.2969 Q365.7344,346.0469 365.7344,347.0781 L365.7344,348.1719 Q365.7344,349.4063 366.625,350.2344 Q367.5156,351.0469 369.1094,351.0469 Q370.0469,351.0469 370.7031,350.7969 Q371.0938,350.6406 371.5156,350.2031 Q371.7813,349.9375 371.9219,349.8594 Q372.0781,349.7813 372.2813,349.7813 Q372.6094,349.7813 372.8594,350.0469 Q373.125,350.2969 373.125,350.6406 Q373.125,350.9844 372.7813,351.3906 Q372.2813,351.9688 371.4844,352.2969 Q370.4063,352.75 369.1094,352.75 Q367.5938,352.75 366.3906,352.125 Q365.4063,351.625 364.7188,350.5625 Q364.0313,349.4844 364.0313,348.2031 L364.0313,347.0469 Q364.0313,345.7188 364.6406,344.5781 Q365.2656,343.4219 366.3594,342.8125 Q367.4531,342.1875 368.6875,342.1875 Q369.4219,342.1875 370.0625,342.3594 Q370.7188,342.5156 371.2656,342.875 Z " fill="#000000"/><text fill="#000000" font-family="sans-serif" font-size="14" lengthAdjust="spacing" textLength="59" x="382.5" y="352.7285">CardTest</text><line style="stroke:#181818;stroke-width:0.5;" x1="354.5" x2="443.5" y1="363" y2="363"/><line style="stroke:#181818;stroke-width:0.5;" x1="354.5" x2="443.5" y1="371" y2="371"/></g><!--class NormalTest--><g id="elem_NormalTest"><rect codeLine="6" fill="#F1F1F1" height="48" id="NormalTest" rx="2.5" ry="2.5" style="stroke:#181818;stroke-width:0.5;" width="104" x="480" y="331"/><ellipse cx="495" cy="347" fill="#ADD1B2" rx="11" ry="11" style="stroke:#181818;stroke-width:1.0;"/><path d="M497.7656,342.875 Q497.9219,342.6563 498.1094,342.5469 Q498.2969,342.4375 498.5156,342.4375 Q498.8906,342.4375 499.125,342.7031 Q499.3594,342.9531 499.3594,343.5625 L499.3594,345.0156 Q499.3594,345.625 499.125,345.8906 Q498.8906,346.1563 498.5156,346.1563 Q498.1719,346.1563 497.9688,345.9531 Q497.7656,345.7656 497.6563,345.25 Q497.6094,344.8906 497.4219,344.7031 Q497.0938,344.3281 496.4844,344.1094 Q495.875,343.8906 495.25,343.8906 Q494.4844,343.8906 493.8438,344.2188 Q493.2188,344.5469 492.7188,345.2969 Q492.2344,346.0469 492.2344,347.0781 L492.2344,348.1719 Q492.2344,349.4063 493.125,350.2344 Q494.0156,351.0469 495.6094,351.0469 Q496.5469,351.0469 497.2031,350.7969 Q497.5938,350.6406 498.0156,350.2031 Q498.2813,349.9375 498.4219,349.8594 Q498.5781,349.7813 498.7813,349.7813 Q499.1094,349.7813 499.3594,350.0469 Q499.625,350.2969 499.625,350.6406 Q499.625,350.9844 499.2813,351.3906 Q498.7813,351.9688 497.9844,352.2969 Q496.9063,352.75 495.6094,352.75 Q494.0938,352.75 492.8906,352.125 Q491.9063,351.625 491.2188,350.5625 Q490.5313,349.4844 490.5313,348.2031 L490.5313,347.0469 Q490.5313,345.7188 491.1406,344.5781 Q491.7656,343.4219 492.8594,342.8125 Q493.9531,342.1875 495.1875,342.1875 Q495.9219,342.1875 496.5625,342.3594 Q497.2188,342.5156 497.7656,342.875 Z " fill="#000000"/><text fill="#000000" font-family="sans-serif" font-size="14" lengthAdjust="spacing" textLength="72" x="509" y="352.7285">NormalTest</text><line style="stroke:#181818;stroke-width:0.5;" x1="481" x2="583" y1="363" y2="363"/><line style="stroke:#181818;stroke-width:0.5;" x1="481" x2="583" y1="371" y2="371"/></g><!--class Exam--><g id="elem_Exam"><rect codeLine="7" fill="#F1F1F1" height="48" id="Exam" rx="2.5" ry="2.5" style="stroke:#181818;stroke-width:0.5;" width="66" x="486" y="223"/><ellipse cx="501" cy="239" fill="#ADD1B2" rx="11" ry="11" style="stroke:#181818;stroke-width:1.0;"/><path d="M503.7656,234.875 Q503.9219,234.6563 504.1094,234.5469 Q504.2969,234.4375 504.5156,234.4375 Q504.8906,234.4375 505.125,234.7031 Q505.3594,234.9531 505.3594,235.5625 L505.3594,237.0156 Q505.3594,237.625 505.125,237.8906 Q504.8906,238.1563 504.5156,238.1563 Q504.1719,238.1563 503.9688,237.9531 Q503.7656,237.7656 503.6563,237.25 Q503.6094,236.8906 503.4219,236.7031 Q503.0938,236.3281 502.4844,236.1094 Q501.875,235.8906 501.25,235.8906 Q500.4844,235.8906 499.8438,236.2188 Q499.2188,236.5469 498.7188,237.2969 Q498.2344,238.0469 498.2344,239.0781 L498.2344,240.1719 Q498.2344,241.4063 499.125,242.2344 Q500.0156,243.0469 501.6094,243.0469 Q502.5469,243.0469 503.2031,242.7969 Q503.5938,242.6406 504.0156,242.2031 Q504.2813,241.9375 504.4219,241.8594 Q504.5781,241.7813 504.7813,241.7813 Q505.1094,241.7813 505.3594,242.0469 Q505.625,242.2969 505.625,242.6406 Q505.625,242.9844 505.2813,243.3906 Q504.7813,243.9688 503.9844,244.2969 Q502.9063,244.75 501.6094,244.75 Q500.0938,244.75 498.8906,244.125 Q497.9063,243.625 497.2188,242.5625 Q496.5313,241.4844 496.5313,240.2031 L496.5313,239.0469 Q496.5313,237.7188 497.1406,236.5781 Q497.7656,235.4219 498.8594,234.8125 Q499.9531,234.1875 501.1875,234.1875 Q501.9219,234.1875 502.5625,234.3594 Q503.2188,234.5156 503.7656,234.875 Z " fill="#000000"/><text fill="#000000" font-family="sans-serif" font-size="14" lengthAdjust="spacing" textLength="34" x="515" y="244.7285">Exam</text><line style="stroke:#181818;stroke-width:0.5;" x1="487" x2="551" y1="255" y2="255"/><line style="stroke:#181818;stroke-width:0.5;" x1="487" x2="551" y1="263" y2="263"/></g><!--class Calendar--><g id="elem_Calendar"><rect fill="#F1F1F1" height="48" id="Calendar" rx="2.5" ry="2.5" style="stroke:#181818;stroke-width:0.5;" width="90" x="587" y="223"/><ellipse cx="602" cy="239" fill="#ADD1B2" rx="11" ry="11" style="stroke:#181818;stroke-width:1.0;"/><path d="M604.7656,234.875 Q604.9219,234.6563 605.1094,234.5469 Q605.2969,234.4375 605.5156,234.4375 Q605.8906,234.4375 606.125,234.7031 Q606.3594,234.9531 606.3594,235.5625 L606.3594,237.0156 Q606.3594,237.625 606.125,237.8906 Q605.8906,238.1563 605.5156,238.1563 Q605.1719,238.1563 604.9688,237.9531 Q604.7656,237.7656 604.6563,237.25 Q604.6094,236.8906 604.4219,236.7031 Q604.0938,236.3281 603.4844,236.1094 Q602.875,235.8906 602.25,235.8906 Q601.4844,235.8906 600.8438,236.2188 Q600.2188,236.5469 599.7188,237.2969 Q599.2344,238.0469 599.2344,239.0781 L599.2344,240.1719 Q599.2344,241.4063 600.125,242.2344 Q601.0156,243.0469 602.6094,243.0469 Q603.5469,243.0469 604.2031,242.7969 Q604.5938,242.6406 605.0156,242.2031 Q605.2813,241.9375 605.4219,241.8594 Q605.5781,241.7813 605.7813,241.7813 Q606.1094,241.7813 606.3594,242.0469 Q606.625,242.2969 606.625,242.6406 Q606.625,242.9844 606.2813,243.3906 Q605.7813,243.9688 604.9844,244.2969 Q603.9063,244.75 602.6094,244.75 Q601.0938,244.75 599.8906,244.125 Q598.9063,243.625 598.2188,242.5625 Q597.5313,241.4844 597.5313,240.2031 L597.5313,239.0469 Q597.5313,237.7188 598.1406,236.5781 Q598.7656,235.4219 599.8594,234.8125 Q600.9531,234.1875 602.1875,234.1875 Q602.9219,234.1875 603.5625,234.3594 Q604.2188,234.5156 604.7656,234.875 Z " fill="#000000"/><text fill="#000000" font-family="sans-serif" font-size="14" lengthAdjust="spacing" textLength="58" x="616" y="244.7285">Calendar</text><line style="stroke:#181818;stroke-width:0.5;" x1="588" x2="676" y1="255" y2="255"/><line style="stroke:#181818;stroke-width:0.5;" x1="588" x2="676" y1="263" y2="263"/></g><!--class EducationPlatform--><g id="elem_EducationPlatform"><rect codeLine="3" fill="#F1F1F1" height="48" id="EducationPlatform" rx="2.5" ry="2.5" style="stroke:#181818;stroke-width:0.5;" width="147" x="563.5" y="7"/><ellipse cx="578.5" cy="23" fill="#ADD1B2" rx="11" ry="11" style="stroke:#181818;stroke-width:1.0;"/><path d="M581.2656,18.875 Q581.4219,18.6563 581.6094,18.5469 Q581.7969,18.4375 582.0156,18.4375 Q582.3906,18.4375 582.625,18.7031 Q582.8594,18.9531 582.8594,19.5625 L582.8594,21.0156 Q582.8594,21.625 582.625,21.8906 Q582.3906,22.1563 582.0156,22.1563 Q581.6719,22.1563 581.4688,21.9531 Q581.2656,21.7656 581.1563,21.25 Q581.1094,20.8906 580.9219,20.7031 Q580.5938,20.3281 579.9844,20.1094 Q579.375,19.8906 578.75,19.8906 Q577.9844,19.8906 577.3438,20.2188 Q576.7188,20.5469 576.2188,21.2969 Q575.7344,22.0469 575.7344,23.0781 L575.7344,24.1719 Q575.7344,25.4063 576.625,26.2344 Q577.5156,27.0469 579.1094,27.0469 Q580.0469,27.0469 580.7031,26.7969 Q581.0938,26.6406 581.5156,26.2031 Q581.7813,25.9375 581.9219,25.8594 Q582.0781,25.7813 582.2813,25.7813 Q582.6094,25.7813 582.8594,26.0469 Q583.125,26.2969 583.125,26.6406 Q583.125,26.9844 582.7813,27.3906 Q582.2813,27.9688 581.4844,28.2969 Q580.4063,28.75 579.1094,28.75 Q577.5938,28.75 576.3906,28.125 Q575.4063,27.625 574.7188,26.5625 Q574.0313,25.4844 574.0313,24.2031 L574.0313,23.0469 Q574.0313,21.7188 574.6406,20.5781 Q575.2656,19.4219 576.3594,18.8125 Q577.4531,18.1875 578.6875,18.1875 Q579.4219,18.1875 580.0625,18.3594 Q580.7188,18.5156 581.2656,18.875 Z " fill="#000000"/><text fill="#000000" font-family="sans-serif" font-size="14" lengthAdjust="spacing" textLength="115" x="592.5" y="28.7285">EducationPlatform</text><line style="stroke:#181818;stroke-width:0.5;" x1="564.5" x2="709.5" y1="39" y2="39"/><line style="stroke:#181818;stroke-width:0.5;" x1="564.5" x2="709.5" y1="47" y2="47"/></g><!--class User--><g id="elem_User"><rect codeLine="4" fill="#F1F1F1" height="48" id="User" rx="2.5" ry="2.5" style="stroke:#181818;stroke-width:0.5;" width="62" x="724" y="115"/><ellipse cx="739" cy="131" fill="#A9DCDF" rx="11" ry="11" style="stroke:#181818;stroke-width:1.0;"/><path d="M741.1875,132.7656 L737.0469,132.7656 L736.625,133.7969 L737.0469,133.7969 Q737.6563,133.7969 737.9219,134.0313 Q738.1875,134.2656 738.1875,134.6563 Q738.1875,135.0313 737.9219,135.2656 Q737.6563,135.5 737.0469,135.5 L734.75,135.5 Q734.1406,135.5 733.8906,135.2656 Q733.625,135.0313 733.625,134.6406 Q733.625,134.2656 733.9063,134.0313 Q734.1719,133.7813 734.7969,133.7969 L737.4688,127.1406 L736.3594,127.1406 Q735.75,127.1406 735.4844,126.9063 Q735.2188,126.6719 735.2188,126.2813 Q735.2188,125.9063 735.4844,125.6719 Q735.75,125.4375 736.3594,125.4375 L740.0313,125.4375 L743.4219,133.7969 Q744.0156,133.7969 744.2031,133.9375 Q744.5938,134.2031 744.5938,134.6563 Q744.5938,135.0313 744.3281,135.2656 Q744.0781,135.5 743.4688,135.5 L741.1719,135.5 Q740.5625,135.5 740.2969,135.2656 Q740.0313,135.0313 740.0313,134.6406 Q740.0313,134.2656 740.2969,134.0313 Q740.5625,133.7969 741.1719,133.7969 L741.5938,133.7969 L741.1875,132.7656 Z M740.4688,131.0625 L739.1094,127.6875 L737.7344,131.0625 L740.4688,131.0625 Z " fill="#000000"/><text fill="#000000" font-family="sans-serif" font-size="14" font-style="italic" lengthAdjust="spacing" textLength="30" x="753" y="136.7285">User</text><line style="stroke:#181818;stroke-width:0.5;" x1="725" x2="785" y1="147" y2="147"/><line style="stroke:#181818;stroke-width:0.5;" x1="725" x2="785" y1="155" y2="155"/></g><!--class Teacher--><g id="elem_Teacher"><rect codeLine="5" fill="#F1F1F1" height="48" id="Teacher" rx="2.5" ry="2.5" style="stroke:#181818;stroke-width:0.5;" width="85" x="712.5" y="223"/><ellipse cx="727.5" cy="239" fill="#ADD1B2" rx="11" ry="11" style="stroke:#181818;stroke-width:1.0;"/><path d="M730.2656,234.875 Q730.4219,234.6563 730.6094,234.5469 Q730.7969,234.4375 731.0156,234.4375 Q731.3906,234.4375 731.625,234.7031 Q731.8594,234.9531 731.8594,235.5625 L731.8594,237.0156 Q731.8594,237.625 731.625,237.8906 Q731.3906,238.1563 731.0156,238.1563 Q730.6719,238.1563 730.4688,237.9531 Q730.2656,237.7656 730.1563,237.25 Q730.1094,236.8906 729.9219,236.7031 Q729.5938,236.3281 728.9844,236.1094 Q728.375,235.8906 727.75,235.8906 Q726.9844,235.8906 726.3438,236.2188 Q725.7188,236.5469 725.2188,237.2969 Q724.7344,238.0469 724.7344,239.0781 L724.7344,240.1719 Q724.7344,241.4063 725.625,242.2344 Q726.5156,243.0469 728.1094,243.0469 Q729.0469,243.0469 729.7031,242.7969 Q730.0938,242.6406 730.5156,242.2031 Q730.7813,241.9375 730.9219,241.8594 Q731.0781,241.7813 731.2813,241.7813 Q731.6094,241.7813 731.8594,242.0469 Q732.125,242.2969 732.125,242.6406 Q732.125,242.9844 731.7813,243.3906 Q731.2813,243.9688 730.4844,244.2969 Q729.4063,244.75 728.1094,244.75 Q726.5938,244.75 725.3906,244.125 Q724.4063,243.625 723.7188,242.5625 Q723.0313,241.4844 723.0313,240.2031 L723.0313,239.0469 Q723.0313,237.7188 723.6406,236.5781 Q724.2656,235.4219 725.3594,234.8125 Q726.4531,234.1875 727.6875,234.1875 Q728.4219,234.1875 729.0625,234.3594 Q729.7188,234.5156 730.2656,234.875 Z " fill="#000000"/><text fill="#000000" font-family="sans-serif" font-size="14" lengthAdjust="spacing" textLength="53" x="741.5" y="244.7285">Teacher</text><line style="stroke:#181818;stroke-width:0.5;" x1="713.5" x2="796.5" y1="255" y2="255"/><line style="stroke:#181818;stroke-width:0.5;" x1="713.5" x2="796.5" y1="263" y2="263"/></g><!--class Student--><g id="elem_Student"><rect codeLine="6" fill="#F1F1F1" height="48" id="Student" rx="2.5" ry="2.5" style="stroke:#181818;stroke-width:0.5;" width="81" x="832.5" y="223"/><ellipse cx="847.5" cy="239" fill="#ADD1B2" rx="11" ry="11" style="stroke:#181818;stroke-width:1.0;"/><path d="M850.2656,234.875 Q850.4219,234.6563 850.6094,234.5469 Q850.7969,234.4375 851.0156,234.4375 Q851.3906,234.4375 851.625,234.7031 Q851.8594,234.9531 851.8594,235.5625 L851.8594,237.0156 Q851.8594,237.625 851.625,237.8906 Q851.3906,238.1563 851.0156,238.1563 Q850.6719,238.1563 850.4688,237.9531 Q850.2656,237.7656 850.1563,237.25 Q850.1094,236.8906 849.9219,236.7031 Q849.5938,236.3281 848.9844,236.1094 Q848.375,235.8906 847.75,235.8906 Q846.9844,235.8906 846.3438,236.2188 Q845.7188,236.5469 845.2188,237.2969 Q844.7344,238.0469 844.7344,239.0781 L844.7344,240.1719 Q844.7344,241.4063 845.625,242.2344 Q846.5156,243.0469 848.1094,243.0469 Q849.0469,243.0469 849.7031,242.7969 Q850.0938,242.6406 850.5156,242.2031 Q850.7813,241.9375 850.9219,241.8594 Q851.0781,241.7813 851.2813,241.7813 Q851.6094,241.7813 851.8594,242.0469 Q852.125,242.2969 852.125,242.6406 Q852.125,242.9844 851.7813,243.3906 Q851.2813,243.9688 850.4844,244.2969 Q849.4063,244.75 848.1094,244.75 Q846.5938,244.75 845.3906,244.125 Q844.4063,243.625 843.7188,242.5625 Q843.0313,241.4844 843.0313,240.2031 L843.0313,239.0469 Q843.0313,237.7188 843.6406,236.5781 Q844.2656,235.4219 845.3594,234.8125 Q846.4531,234.1875 847.6875,234.1875 Q848.4219,234.1875 849.0625,234.3594 Q849.7188,234.5156 850.2656,234.875 Z " fill="#000000"/><text fill="#000000" font-family="sans-serif" font-size="14" lengthAdjust="spacing" textLength="49" x="861.5" y="244.7285">Student</text><line style="stroke:#181818;stroke-width:0.5;" x1="833.5" x2="912.5" y1="255" y2="255"/><line style="stroke:#181818;stroke-width:0.5;" x1="833.5" x2="912.5" y1="263" y2="263"/></g><!--link Course to Syllabus--><g id="link_Course_Syllabus"><path codeLine="6" d="M264.5083,280.2769 C250.0183,297.9369 241.5065,308.3021 226.9465,326.0421 " fill="none" id="Course-Syllabus" style="stroke:#181818;stroke-width:1.0;"/><polygon fill="#181818" points="272.12,271,265.2218,273.1012,264.5083,280.2769,271.4065,278.1757,272.12,271" style="stroke:#181818;stroke-width:1.0;"/><polygon fill="#181818" points="223.14,330.68,231.9418,326.2608,226.3121,326.8151,225.7579,321.1854,223.14,330.68" style="stroke:#181818;stroke-width:1.0;"/><text fill="#000000" font-family="sans-serif" font-size="13" lengthAdjust="spacing" textLength="7" x="219.9523" y="320.34">n</text></g><!--link Course to DefinitionDomain--><g id="link_Course_DefinitionDomain"><path codeLine="7" d="M299.3348,282.9824 C309.1548,324.1424 325.2596,391.7433 335.0596,432.8833 " fill="none" id="Course-DefinitionDomain" style="stroke:#181818;stroke-width:1.0;"/><polygon fill="#181818" points="296.55,271.31,294.0516,278.0745,299.3348,282.9824,301.8332,276.2179,296.55,271.31" style="stroke:#181818;stroke-width:1.0;"/><polygon fill="#181818" points="336.45,438.72,338.2556,429.0381,335.2914,433.8561,330.4733,430.8919,336.45,438.72" style="stroke:#181818;stroke-width:1.0;"/></g><!--link Syllabus to Topic--><g id="link_Syllabus_Topic"><path codeLine="8" d="M204,391 C204,408.66 204,414.94 204,432.68 " fill="none" id="Syllabus-Topic" style="stroke:#181818;stroke-width:1.0;"/><polygon fill="#181818" points="204,379,200,385,204,391,208,385,204,379" style="stroke:#181818;stroke-width:1.0;"/><polygon fill="#181818" points="204,438.68,208,429.68,204,433.68,200,429.68,204,438.68" style="stroke:#181818;stroke-width:1.0;"/><text fill="#000000" font-family="sans-serif" font-size="13" lengthAdjust="spacing" textLength="7" x="196.1469" y="428.34">n</text></g><!--link Topic to Unit--><g id="link_Topic_Unit"><path codeLine="9" d="M205.3182,498.9916 C205.9782,516.6516 206.2236,522.9443 206.8936,540.6843 " fill="none" id="Topic-Unit" style="stroke:#181818;stroke-width:1.0;"/><polygon fill="none" points="204.87,487,201.0969,493.1452,205.3182,498.9916,209.0913,492.8464,204.87,487" style="stroke:#181818;stroke-width:1.0;"/><polygon fill="#181818" points="207.12,546.68,210.7775,537.5354,206.9313,541.6836,202.7832,537.8374,207.12,546.68" style="stroke:#181818;stroke-width:1.0;"/></g><!--link Unit to Definition--><g id="link_Unit_Definition"><path codeLine="11" d="M245.6772,602.2528 C267.7972,620.0128 284.3714,633.3336 306.5914,651.1736 " fill="none" id="Unit-Definition" style="stroke:#181818;stroke-width:1.0;"/><polygon fill="none" points="236.32,594.74,238.4943,601.6155,245.6772,602.2528,243.5029,595.3774,236.32,594.74" style="stroke:#181818;stroke-width:1.0;"/><polygon fill="#181818" points="311.27,654.93,306.7563,646.1763,307.3711,651.7997,301.7478,652.4145,311.27,654.93" style="stroke:#181818;stroke-width:1.0;"/><text fill="#000000" font-family="sans-serif" font-size="13" lengthAdjust="spacing" textLength="7" x="296.0111" y="644.2522">n</text></g><!--link Unit to Multimedia--><g id="link_Unit_Multimedia"><path codeLine="12" d="M208,607 C208,624.66 208,630.94 208,648.68 " fill="none" id="Unit-Multimedia" style="stroke:#181818;stroke-width:1.0;"/><polygon fill="none" points="208,595,204,601,208,607,212,601,208,595" style="stroke:#181818;stroke-width:1.0;"/><polygon fill="#181818" points="208,654.68,212,645.68,208,649.68,204,645.68,208,654.68" style="stroke:#181818;stroke-width:1.0;"/><text fill="#000000" font-family="sans-serif" font-size="13" lengthAdjust="spacing" textLength="7" x="200.1469" y="644.34">n</text></g><!--link DefinitionDomain to Definition--><g id="link_DefinitionDomain_Definition"><path codeLine="14" d="M341.6692,499.3095 C341.2892,540.4695 340.6554,607.5803 340.2754,648.7203 " fill="none" id="DefinitionDomain-Definition" style="stroke:#181818;stroke-width:1.0;"/><polygon fill="none" points="341.78,487.31,337.7248,493.2728,341.6692,499.3095,345.7244,493.3467,341.78,487.31" style="stroke:#181818;stroke-width:1.0;"/><polygon fill="#181818" points="340.22,654.72,344.303,645.7573,340.2662,649.7202,336.3033,645.6834,340.22,654.72" style="stroke:#181818;stroke-width:1.0;"/></g><!--reverse link Multimedia to Video--><g id="link_Multimedia_Video"><path codeLine="16" d="M156.5643,712.6483 C127.8843,730.8583 103.3,746.45 75.17,764.31 " fill="none" id="Multimedia-backto-Video" style="stroke:#181818;stroke-width:1.0;"/><polygon fill="none" points="171.76,703,153.3482,707.5831,159.7804,717.7136,171.76,703" style="stroke:#181818;stroke-width:1.0;"/></g><!--reverse link Multimedia to Podcast--><g id="link_Multimedia_Podcast"><path codeLine="17" d="M187.4417,718.9154 C178.1117,736.5754 173.69,744.94 164.32,762.68 " fill="none" id="Multimedia-backto-Podcast" style="stroke:#181818;stroke-width:1.0;"/><polygon fill="none" points="195.85,703,182.1366,716.1126,192.7468,721.7182,195.85,703" style="stroke:#181818;stroke-width:1.0;"/></g><!--reverse link Multimedia to Image--><g id="link_Multimedia_Image"><path codeLine="18" d="M228.5583,718.9154 C237.8883,736.5754 242.31,744.94 251.68,762.68 " fill="none" id="Multimedia-backto-Image" style="stroke:#181818;stroke-width:1.0;"/><polygon fill="none" points="220.15,703,223.2532,721.7182,233.8634,716.1126,220.15,703" style="stroke:#181818;stroke-width:1.0;"/></g><!--reverse link Multimedia to Document--><g id="link_Multimedia_Document"><path codeLine="19" d="M261.1311,712.3664 C290.2111,730.0864 314.88,745.11 344.02,762.86 " fill="none" id="Multimedia-backto-Document" style="stroke:#181818;stroke-width:1.0;"/><polygon fill="none" points="245.76,703,258.0089,717.4901,264.2532,707.2427,245.76,703" style="stroke:#181818;stroke-width:1.0;"/></g><!--link LearningResource to Course--><g id="link_LearningResource_Course"><path codeLine="9" d="M458.6481,168.0581 C416.8681,187.4781 374.1706,207.3302 335.6106,225.2602 " fill="none" id="LearningResource-Course" style="stroke:#181818;stroke-width:1.0;"/><polygon fill="none" points="469.53,163,462.403,161.9017,458.6481,168.0581,465.7751,169.1563,469.53,163" style="stroke:#181818;stroke-width:1.0;"/><polygon fill="#181818" points="330.17,227.79,340.0174,227.6223,334.7038,225.6818,336.6443,220.3682,330.17,227.79" style="stroke:#181818;stroke-width:1.0;"/><text fill="#000000" font-family="sans-serif" font-size="13" lengthAdjust="spacing" textLength="7" x="338.0373" y="220.3007">n</text></g><!--link LearningResource to Exercise--><g id="link_LearningResource_Exercise"><path codeLine="10" d="M486.2322,171.2883 C467.7422,188.9483 455.3396,200.7966 436.7596,218.5366 " fill="none" id="LearningResource-Exercise" style="stroke:#181818;stroke-width:1.0;"/><polygon fill="none" points="494.91,163,487.8083,164.2515,486.2322,171.2883,493.3339,170.0367,494.91,163" style="stroke:#181818;stroke-width:1.0;"/><polygon fill="#181818" points="432.42,222.68,441.6917,219.358,436.0363,219.2272,436.1671,213.5718,432.42,222.68" style="stroke:#181818;stroke-width:1.0;"/><text fill="#000000" font-family="sans-serif" font-size="13" lengthAdjust="spacing" textLength="7" x="430.5193" y="212.34">n</text></g><!--link LearningResource to Exam--><g id="link_LearningResource_Exam"><path codeLine="11" d="M519,175 C519,192.66 519,198.94 519,216.68 " fill="none" id="LearningResource-Exam" style="stroke:#181818;stroke-width:1.0;"/><polygon fill="none" points="519,163,515,169,519,175,523,169,519,163" style="stroke:#181818;stroke-width:1.0;"/><polygon fill="#181818" points="519,222.68,523,213.68,519,217.68,515,213.68,519,222.68" style="stroke:#181818;stroke-width:1.0;"/><text fill="#000000" font-family="sans-serif" font-size="13" lengthAdjust="spacing" textLength="7" x="511.1469" y="212.34">n</text></g><!--link LearningResource to Calendar--><g id="link_LearningResource_Calendar"><path codeLine="13" d="M552.2707,171.2113 C571.0907,188.8713 583.8541,200.8349 602.7641,218.5749 " fill="none" id="LearningResource-Calendar" style="stroke:#181818;stroke-width:1.0;"/><polygon fill="#181818" points="543.52,163,545.1582,170.0225,552.2707,171.2113,550.6324,164.1888,543.52,163" style="stroke:#181818;stroke-width:1.0;"/><polygon fill="#181818" points="607.14,222.68,603.313,213.6051,603.4935,219.2591,597.8395,219.4396,607.14,222.68" style="stroke:#181818;stroke-width:1.0;"/></g><!--reverse link Exercise to CardTest--><g id="link_Exercise_CardTest"><path codeLine="15" d="M405.0344,282.9569 C403.5344,300.6169 402.49,312.94 400.98,330.68 " fill="none" id="Exercise-backto-CardTest" style="stroke:#181818;stroke-width:1.0;"/><polygon fill="none" points="406.05,271,401.5566,276.6399,405.0344,282.9569,409.5279,277.317,406.05,271" style="stroke:#181818;stroke-width:1.0;"/><text fill="#000000" font-family="sans-serif" font-size="13" lengthAdjust="spacing" textLength="7" x="393.6095" y="320.34">n</text></g><!--link CardTest to DefinitionDomain--><g id="link_CardTest_DefinitionDomain"><path codeLine="16" d="M386.63,379 C377.14,396.66 366.9218,415.6556 357.3818,433.3956 " fill="none" id="CardTest-to-DefinitionDomain" style="stroke:#181818;stroke-width:1.0;stroke-dasharray:7.0,7.0;"/><polygon fill="#181818" points="354.54,438.68,362.3255,432.648,356.9081,434.2764,355.2797,428.859,354.54,438.68" style="stroke:#181818;stroke-width:1.0;"/><text fill="#000000" font-family="sans-serif" font-size="13" lengthAdjust="spacing" textLength="7" x="349.7435" y="428.34">n</text></g><!--link Exercise to NormalTest--><g id="link_Exercise_NormalTest"><path codeLine="18" d="M444.0298,278.7993 C464.6798,296.4593 479.4095,309.041 500.1595,326.781 " fill="none" id="Exercise-NormalTest" style="stroke:#181818;stroke-width:1.0;"/><polygon fill="none" points="434.91,271,436.8701,277.9396,444.0298,278.7993,442.0697,271.8597,434.91,271" style="stroke:#181818;stroke-width:1.0;"/><polygon fill="#181818" points="504.72,330.68,500.4786,321.7912,500.9196,327.4309,495.2799,327.8719,504.72,330.68" style="stroke:#181818;stroke-width:1.0;"/><text fill="#000000" font-family="sans-serif" font-size="13" lengthAdjust="spacing" textLength="7" x="490.2174" y="320.34">n</text></g><!--link EducationPlatform to User--><g id="link_EducationPlatform_User"><path codeLine="8" d="M671.5272,63.019 C691.1872,80.679 704.8263,92.9306 724.5763,110.6706 " fill="none" id="EducationPlatform-User" style="stroke:#181818;stroke-width:1.0;"/><polygon fill="#181818" points="662.6,55,664.3906,61.9853,671.5272,63.019,669.7366,56.0338,662.6,55" style="stroke:#181818;stroke-width:1.0;"/><polygon fill="#181818" points="729.04,114.68,725.0174,105.6901,725.3203,111.3388,719.6715,111.6417,729.04,114.68" style="stroke:#181818;stroke-width:1.0;"/><text fill="#000000" font-family="sans-serif" font-size="13" lengthAdjust="spacing" textLength="7" x="714.8591" y="104.34">n</text></g><!--link EducationPlatform to LearningResource--><g id="link_EducationPlatform_LearningResource"><path codeLine="9" d="M602.4728,63.019 C582.8128,80.679 569.1737,92.9306 549.4237,110.6706 " fill="none" id="EducationPlatform-LearningResource" style="stroke:#181818;stroke-width:1.0;"/><polygon fill="none" points="611.4,55,604.2634,56.0338,602.4728,63.019,609.6094,61.9853,611.4,55" style="stroke:#181818;stroke-width:1.0;"/><polygon fill="#181818" points="544.96,114.68,554.3285,111.6417,548.6797,111.3388,548.9826,105.6901,544.96,114.68" style="stroke:#181818;stroke-width:1.0;"/></g><!--reverse link User to Teacher--><g id="link_User_Teacher"><path codeLine="11" d="M755,181 C755,198.66 755,204.94 755,222.68 " fill="none" id="User-backto-Teacher" style="stroke:#181818;stroke-width:1.0;"/><polygon fill="none" points="755,163,749,181,761,181,755,163" style="stroke:#181818;stroke-width:1.0;"/></g><!--reverse link User to Student--><g id="link_User_Student"><path codeLine="12" d="M793.9908,175.0286 C813.6508,192.6886 827.29,204.94 847.04,222.68 " fill="none" id="User-backto-Student" style="stroke:#181818;stroke-width:1.0;"/><polygon fill="none" points="780.6,163,789.9813,179.4922,798.0003,170.565,780.6,163" style="stroke:#181818;stroke-width:1.0;"/></g><!--SRC=[PKux3i8m3Drz2jCHAPm0iR4n8A07S5q3aL87nSx6uQ4g58cEx_zMKJdLNl0WL3JgxIIMQs7PFEgG03YH6UxxokGnwp6HNtCPW3hpGkpOcfIFwoB4zncT_Lsh3h08upg47JRQJE6bdaVz_n30wCRjCuHvwSTyrru0]--></g></svg>