<?xml version="1.0" encoding="us-ascii" standalone="no"?><svg xmlns="http://www.w3.org/2000/svg" xmlns:xlink="http://www.w3.org/1999/xlink" contentStyleType="text/css" height="1654px" preserveAspectRatio="none" style="width:1654px;height:1654px;background:#FFFFFF;" version="1.1" viewBox="0 0 1654 1654" width="1654px" zoomAndPan="magnify"><defs/><g><!--cluster content--><g id="cluster_content"><path d="M232.5,721 L294.5,721 A3.75,3.75 0 0 1 297,723.5 L304,743.2969 L769.5,743.2969 A2.5,2.5 0 0 1 772,745.7969 L772,1296 A2.5,2.5 0 0 1 769.5,1298.5 L232.5,1298.5 A2.5,2.5 0 0 1 230,1296 L230,723.5 A2.5,2.5 0 0 1 232.5,721 " fill="#90EE90" style="stroke:#000000;stroke-width:1.5;"/><line style="stroke:#000000;stroke-width:1.5;" x1="230" x2="304" y1="743.2969" y2="743.2969"/><text fill="#000000" font-family="sans-serif" font-size="14" font-weight="bold" lengthAdjust="spacing" textLength="61" x="234" y="735.9951">content</text></g><!--cluster question_battery--><g id="cluster_question_battery"><path d="M985.5,433 L1119.5,433 A3.75,3.75 0 0 1 1122,435.5 L1129,455.2969 L1456.5,455.2969 A2.5,2.5 0 0 1 1459,457.7969 L1459,959 A2.5,2.5 0 0 1 1456.5,961.5 L985.5,961.5 A2.5,2.5 0 0 1 983,959 L983,435.5 A2.5,2.5 0 0 1 985.5,433 " fill="#FFFF00" style="stroke:#000000;stroke-width:1.5;"/><line style="stroke:#000000;stroke-width:1.5;" x1="983" x2="1129" y1="455.2969" y2="455.2969"/><text fill="#000000" font-family="sans-serif" font-size="14" font-weight="bold" lengthAdjust="spacing" textLength="133" x="987" y="447.9951">question_battery</text></g><!--cluster corpus--><g id="cluster_corpus"><path d="M1350.5,1025 L1406.5,1025 A3.75,3.75 0 0 1 1409,1027.5 L1416,1047.2969 L1644.5,1047.2969 A2.5,2.5 0 0 1 1647,1049.7969 L1647,1645 A2.5,2.5 0 0 1 1644.5,1647.5 L1350.5,1647.5 A2.5,2.5 0 0 1 1348,1645 L1348,1027.5 A2.5,2.5 0 0 1 1350.5,1025 " fill="#ADD8E6" style="stroke:#000000;stroke-width:1.5;"/><line style="stroke:#000000;stroke-width:1.5;" x1="1348" x2="1416" y1="1047.2969" y2="1047.2969"/><text fill="#000000" font-family="sans-serif" font-size="14" font-weight="bold" lengthAdjust="spacing" textLength="55" x="1352" y="1039.9951">corpus</text></g><!--class Topic--><g id="elem_Topic"><rect codeLine="60" fill="#F1F1F1" height="48" id="Topic" rx="2.5" ry="2.5" style="stroke:#181818;stroke-width:0.5;" width="70" x="391" y="897.5"/><ellipse cx="406" cy="913.5" fill="#A9DCDF" rx="11" ry="11" style="stroke:#181818;stroke-width:1.0;"/><path d="M406.1094,908.8438 L404.9531,913.9219 L407.2813,913.9219 L406.1094,908.8438 Z M404.625,906.6094 L407.6094,906.6094 L410.9688,919 L408.5156,919 L407.75,915.9375 L404.4688,915.9375 L403.7188,919 L401.2813,919 L404.625,906.6094 Z " fill="#000000"/><text fill="#000000" font-family="sans-serif" font-size="14" font-style="italic" lengthAdjust="spacing" textLength="38" x="420" y="918.3467">Topic</text><line style="stroke:#181818;stroke-width:0.5;" x1="392" x2="460" y1="929.5" y2="929.5"/><line style="stroke:#181818;stroke-width:0.5;" x1="392" x2="460" y1="937.5" y2="937.5"/></g><!--class Itinerary--><g id="elem_Itinerary"><rect codeLine="55" fill="#F1F1F1" height="48" id="Itinerary" rx="2.5" ry="2.5" style="stroke:#181818;stroke-width:0.5;" width="86" x="246" y="756"/><ellipse cx="261" cy="772" fill="#ADD1B2" rx="11" ry="11" style="stroke:#181818;stroke-width:1.0;"/><path d="M263.9688,777.6406 Q263.3906,777.9375 262.75,778.0781 Q262.1094,778.2344 261.4063,778.2344 Q258.9063,778.2344 257.5781,776.5938 Q256.2656,774.9375 256.2656,771.8125 Q256.2656,768.6875 257.5781,767.0313 Q258.9063,765.375 261.4063,765.375 Q262.1094,765.375 262.75,765.5313 Q263.4063,765.6875 263.9688,765.9844 L263.9688,768.7031 Q263.3438,768.125 262.75,767.8594 Q262.1563,767.5781 261.5313,767.5781 Q260.1875,767.5781 259.5,768.6563 Q258.8125,769.7188 258.8125,771.8125 Q258.8125,773.9063 259.5,774.9844 Q260.1875,776.0469 261.5313,776.0469 Q262.1563,776.0469 262.75,775.7813 Q263.3438,775.5 263.9688,774.9219 L263.9688,777.6406 Z " fill="#000000"/><text fill="#000000" font-family="sans-serif" font-size="14" lengthAdjust="spacing" textLength="54" x="275" y="776.8467">Itinerary</text><line style="stroke:#181818;stroke-width:0.5;" x1="247" x2="331" y1="788" y2="788"/><line style="stroke:#181818;stroke-width:0.5;" x1="247" x2="331" y1="796" y2="796"/></g><!--class CompositeTopic--><g id="elem_CompositeTopic"><rect codeLine="86" fill="#F1F1F1" height="64.2969" id="CompositeTopic" rx="2.5" ry="2.5" style="stroke:#181818;stroke-width:0.5;" width="145" x="246.5" y="1052"/><ellipse cx="261.5" cy="1068" fill="#ADD1B2" rx="11" ry="11" style="stroke:#181818;stroke-width:1.0;"/><path d="M264.4688,1073.6406 Q263.8906,1073.9375 263.25,1074.0781 Q262.6094,1074.2344 261.9063,1074.2344 Q259.4063,1074.2344 258.0781,1072.5938 Q256.7656,1070.9375 256.7656,1067.8125 Q256.7656,1064.6875 258.0781,1063.0313 Q259.4063,1061.375 261.9063,1061.375 Q262.6094,1061.375 263.25,1061.5313 Q263.9063,1061.6875 264.4688,1061.9844 L264.4688,1064.7031 Q263.8438,1064.125 263.25,1063.8594 Q262.6563,1063.5781 262.0313,1063.5781 Q260.6875,1063.5781 260,1064.6563 Q259.3125,1065.7188 259.3125,1067.8125 Q259.3125,1069.9063 260,1070.9844 Q260.6875,1072.0469 262.0313,1072.0469 Q262.6563,1072.0469 263.25,1071.7813 Q263.8438,1071.5 264.4688,1070.9219 L264.4688,1073.6406 Z " fill="#000000"/><text fill="#000000" font-family="sans-serif" font-size="14" lengthAdjust="spacing" textLength="113" x="275.5" y="1072.8467">CompositeTopic</text><line style="stroke:#181818;stroke-width:0.5;" x1="247.5" x2="390.5" y1="1084" y2="1084"/><rect fill="none" height="6" style="stroke:#C82930;stroke-width:1.0;" width="6" x="254.5" y="1094.6484"/><text fill="#000000" font-family="sans-serif" font-size="14" lengthAdjust="spacing" textLength="95" x="266.5" y="1100.9951">topic[] : Topic</text><line style="stroke:#181818;stroke-width:0.5;" x1="247.5" x2="390.5" y1="1108.2969" y2="1108.2969"/></g><!--class SimpleTopic--><g id="elem_SimpleTopic"><rect codeLine="82" fill="#F1F1F1" height="48" id="SimpleTopic" rx="2.5" ry="2.5" style="stroke:#181818;stroke-width:0.5;" width="116" x="640" y="1060"/><ellipse cx="655" cy="1076" fill="#ADD1B2" rx="11" ry="11" style="stroke:#181818;stroke-width:1.0;"/><path d="M657.9688,1081.6406 Q657.3906,1081.9375 656.75,1082.0781 Q656.1094,1082.2344 655.4063,1082.2344 Q652.9063,1082.2344 651.5781,1080.5938 Q650.2656,1078.9375 650.2656,1075.8125 Q650.2656,1072.6875 651.5781,1071.0313 Q652.9063,1069.375 655.4063,1069.375 Q656.1094,1069.375 656.75,1069.5313 Q657.4063,1069.6875 657.9688,1069.9844 L657.9688,1072.7031 Q657.3438,1072.125 656.75,1071.8594 Q656.1563,1071.5781 655.5313,1071.5781 Q654.1875,1071.5781 653.5,1072.6563 Q652.8125,1073.7188 652.8125,1075.8125 Q652.8125,1077.9063 653.5,1078.9844 Q654.1875,1080.0469 655.5313,1080.0469 Q656.1563,1080.0469 656.75,1079.7813 Q657.3438,1079.5 657.9688,1078.9219 L657.9688,1081.6406 Z " fill="#000000"/><text fill="#000000" font-family="sans-serif" font-size="14" lengthAdjust="spacing" textLength="84" x="669" y="1080.8467">SimpleTopic</text><line style="stroke:#181818;stroke-width:0.5;" x1="641" x2="755" y1="1092" y2="1092"/><line style="stroke:#181818;stroke-width:0.5;" x1="641" x2="755" y1="1100" y2="1100"/></g><!--class Document--><g id="elem_Document"><rect codeLine="70" fill="#F1F1F1" height="80.5938" id="Document" rx="2.5" ry="2.5" style="stroke:#181818;stroke-width:0.5;" width="178" x="427" y="1043.5"/><ellipse cx="475.25" cy="1059.5" fill="#ADD1B2" rx="11" ry="11" style="stroke:#181818;stroke-width:1.0;"/><path d="M478.2188,1065.1406 Q477.6406,1065.4375 477,1065.5781 Q476.3594,1065.7344 475.6563,1065.7344 Q473.1563,1065.7344 471.8281,1064.0938 Q470.5156,1062.4375 470.5156,1059.3125 Q470.5156,1056.1875 471.8281,1054.5313 Q473.1563,1052.875 475.6563,1052.875 Q476.3594,1052.875 477,1053.0313 Q477.6563,1053.1875 478.2188,1053.4844 L478.2188,1056.2031 Q477.5938,1055.625 477,1055.3594 Q476.4063,1055.0781 475.7813,1055.0781 Q474.4375,1055.0781 473.75,1056.1563 Q473.0625,1057.2188 473.0625,1059.3125 Q473.0625,1061.4063 473.75,1062.4844 Q474.4375,1063.5469 475.7813,1063.5469 Q476.4063,1063.5469 477,1063.2813 Q477.5938,1063 478.2188,1062.4219 L478.2188,1065.1406 Z " fill="#000000"/><text fill="#000000" font-family="sans-serif" font-size="14" lengthAdjust="spacing" textLength="73" x="495.75" y="1064.3467">Document</text><line style="stroke:#181818;stroke-width:0.5;" x1="428" x2="604" y1="1075.5" y2="1075.5"/><rect fill="none" height="6" style="stroke:#C82930;stroke-width:1.0;" width="6" x="435" y="1086.1484"/><text fill="#000000" font-family="sans-serif" font-size="14" lengthAdjust="spacing" textLength="152" x="447" y="1092.4951">TYPE: DocumentType</text><rect fill="none" height="6" style="stroke:#C82930;stroke-width:1.0;" width="6" x="435" y="1102.4453"/><text fill="#000000" font-family="sans-serif" font-size="14" lengthAdjust="spacing" textLength="77" x="447" y="1108.792">date : Date</text><line style="stroke:#181818;stroke-width:0.5;" x1="428" x2="604" y1="1116.0938" y2="1116.0938"/></g><!--class DocumentType--><g id="elem_DocumentType"><rect codeLine="76" fill="#F1F1F1" height="96.8906" id="DocumentType" rx="2.5" ry="2.5" style="stroke:#181818;stroke-width:0.5;" width="184" x="424" y="1185.5"/><ellipse cx="459.25" cy="1201.5" fill="#EB937F" rx="11" ry="11" style="stroke:#181818;stroke-width:1.0;"/><path d="M463.3594,1207.5 L455.6406,1207.5 L455.6406,1195.1094 L463.3594,1195.1094 L463.3594,1197.2656 L458.0938,1197.2656 L458.0938,1199.9375 L462.8594,1199.9375 L462.8594,1202.0938 L458.0938,1202.0938 L458.0938,1205.3438 L463.3594,1205.3438 L463.3594,1207.5 Z " fill="#000000"/><text fill="#000000" font-family="sans-serif" font-size="14" lengthAdjust="spacing" textLength="107" x="477.75" y="1206.3467">DocumentType</text><line style="stroke:#181818;stroke-width:0.5;" x1="425" x2="607" y1="1217.5" y2="1217.5"/><text fill="#000000" font-family="sans-serif" font-size="14" lengthAdjust="spacing" textLength="172" x="430" y="1234.4951">TextWithImagesAndURLs</text><text fill="#000000" font-family="sans-serif" font-size="14" lengthAdjust="spacing" textLength="39" x="430" y="1250.792">Video</text><text fill="#000000" font-family="sans-serif" font-size="14" lengthAdjust="spacing" textLength="39" x="430" y="1267.0889">Audio</text><line style="stroke:#181818;stroke-width:0.5;" x1="425" x2="607" y1="1274.3906" y2="1274.3906"/></g><!--class Question--><g id="elem_Question"><rect codeLine="138" fill="#F1F1F1" height="64.2969" id="Question" rx="2.5" ry="2.5" style="stroke:#181818;stroke-width:0.5;" width="136" x="1116" y="468"/><ellipse cx="1149.45" cy="484" fill="#ADD1B2" rx="11" ry="11" style="stroke:#181818;stroke-width:1.0;"/><path d="M1152.4188,489.6406 Q1151.8406,489.9375 1151.2,490.0781 Q1150.5594,490.2344 1149.8563,490.2344 Q1147.3563,490.2344 1146.0281,488.5938 Q1144.7156,486.9375 1144.7156,483.8125 Q1144.7156,480.6875 1146.0281,479.0313 Q1147.3563,477.375 1149.8563,477.375 Q1150.5594,477.375 1151.2,477.5313 Q1151.8563,477.6875 1152.4188,477.9844 L1152.4188,480.7031 Q1151.7938,480.125 1151.2,479.8594 Q1150.6063,479.5781 1149.9813,479.5781 Q1148.6375,479.5781 1147.95,480.6563 Q1147.2625,481.7188 1147.2625,483.8125 Q1147.2625,485.9063 1147.95,486.9844 Q1148.6375,488.0469 1149.9813,488.0469 Q1150.6063,488.0469 1151.2,487.7813 Q1151.7938,487.5 1152.4188,486.9219 L1152.4188,489.6406 Z " fill="#000000"/><text fill="#000000" font-family="sans-serif" font-size="14" lengthAdjust="spacing" textLength="63" x="1167.55" y="488.8467">Question</text><line style="stroke:#181818;stroke-width:0.5;" x1="1117" x2="1251" y1="500" y2="500"/><text fill="#000000" font-family="sans-serif" font-size="14" lengthAdjust="spacing" textLength="124" x="1122" y="516.9951">statement : String</text><line style="stroke:#181818;stroke-width:0.5;" x1="1117" x2="1251" y1="524.2969" y2="524.2969"/></g><!--class MultipleChoice--><g id="elem_MultipleChoice"><rect codeLine="151" fill="#F1F1F1" height="48" id="MultipleChoice" rx="2.5" ry="2.5" style="stroke:#181818;stroke-width:0.5;" width="133" x="999.5" y="609.5"/><ellipse cx="1014.5" cy="625.5" fill="#ADD1B2" rx="11" ry="11" style="stroke:#181818;stroke-width:1.0;"/><path d="M1017.4688,631.1406 Q1016.8906,631.4375 1016.25,631.5781 Q1015.6094,631.7344 1014.9063,631.7344 Q1012.4063,631.7344 1011.0781,630.0938 Q1009.7656,628.4375 1009.7656,625.3125 Q1009.7656,622.1875 1011.0781,620.5313 Q1012.4063,618.875 1014.9063,618.875 Q1015.6094,618.875 1016.25,619.0313 Q1016.9063,619.1875 1017.4688,619.4844 L1017.4688,622.2031 Q1016.8438,621.625 1016.25,621.3594 Q1015.6563,621.0781 1015.0313,621.0781 Q1013.6875,621.0781 1013,622.1563 Q1012.3125,623.2188 1012.3125,625.3125 Q1012.3125,627.4063 1013,628.4844 Q1013.6875,629.5469 1015.0313,629.5469 Q1015.6563,629.5469 1016.25,629.2813 Q1016.8438,629 1017.4688,628.4219 L1017.4688,631.1406 Z " fill="#000000"/><text fill="#000000" font-family="sans-serif" font-size="14" lengthAdjust="spacing" textLength="101" x="1028.5" y="630.3467">MultipleChoice</text><line style="stroke:#181818;stroke-width:0.5;" x1="1000.5" x2="1131.5" y1="641.5" y2="641.5"/><line style="stroke:#181818;stroke-width:0.5;" x1="1000.5" x2="1131.5" y1="649.5" y2="649.5"/></g><!--class Cloze--><g id="elem_Cloze"><rect codeLine="146" fill="#F1F1F1" height="80.5938" id="Cloze" rx="2.5" ry="2.5" style="stroke:#181818;stroke-width:0.5;" width="170" x="1168" y="593"/><ellipse cx="1229.25" cy="609" fill="#ADD1B2" rx="11" ry="11" style="stroke:#181818;stroke-width:1.0;"/><path d="M1232.2188,614.6406 Q1231.6406,614.9375 1231,615.0781 Q1230.3594,615.2344 1229.6563,615.2344 Q1227.1563,615.2344 1225.8281,613.5938 Q1224.5156,611.9375 1224.5156,608.8125 Q1224.5156,605.6875 1225.8281,604.0313 Q1227.1563,602.375 1229.6563,602.375 Q1230.3594,602.375 1231,602.5313 Q1231.6563,602.6875 1232.2188,602.9844 L1232.2188,605.7031 Q1231.5938,605.125 1231,604.8594 Q1230.4063,604.5781 1229.7813,604.5781 Q1228.4375,604.5781 1227.75,605.6563 Q1227.0625,606.7188 1227.0625,608.8125 Q1227.0625,610.9063 1227.75,611.9844 Q1228.4375,613.0469 1229.7813,613.0469 Q1230.4063,613.0469 1231,612.7813 Q1231.5938,612.5 1232.2188,611.9219 L1232.2188,614.6406 Z " fill="#000000"/><text fill="#000000" font-family="sans-serif" font-size="14" lengthAdjust="spacing" textLength="39" x="1249.75" y="613.8467">Cloze</text><line style="stroke:#181818;stroke-width:0.5;" x1="1169" x2="1337" y1="625" y2="625"/><rect fill="none" height="6" style="stroke:#C82930;stroke-width:1.0;" width="6" x="1176" y="635.6484"/><text fill="#000000" font-family="sans-serif" font-size="14" lengthAdjust="spacing" textLength="105" x="1188" y="641.9951">blankCount: int</text><rect fill="none" height="6" style="stroke:#C82930;stroke-width:1.0;" width="6" x="1176" y="651.9453"/><text fill="#000000" font-family="sans-serif" font-size="14" lengthAdjust="spacing" textLength="144" x="1188" y="658.292">blankWords[] : String</text><line style="stroke:#181818;stroke-width:0.5;" x1="1169" x2="1337" y1="665.5938" y2="665.5938"/></g><!--class Open--><g id="elem_Open"><rect fill="#F1F1F1" height="48" id="Open" rx="2.5" ry="2.5" style="stroke:#181818;stroke-width:0.5;" width="70" x="1373" y="609.5"/><ellipse cx="1388" cy="625.5" fill="#ADD1B2" rx="11" ry="11" style="stroke:#181818;stroke-width:1.0;"/><path d="M1390.9688,631.1406 Q1390.3906,631.4375 1389.75,631.5781 Q1389.1094,631.7344 1388.4063,631.7344 Q1385.9063,631.7344 1384.5781,630.0938 Q1383.2656,628.4375 1383.2656,625.3125 Q1383.2656,622.1875 1384.5781,620.5313 Q1385.9063,618.875 1388.4063,618.875 Q1389.1094,618.875 1389.75,619.0313 Q1390.4063,619.1875 1390.9688,619.4844 L1390.9688,622.2031 Q1390.3438,621.625 1389.75,621.3594 Q1389.1563,621.0781 1388.5313,621.0781 Q1387.1875,621.0781 1386.5,622.1563 Q1385.8125,623.2188 1385.8125,625.3125 Q1385.8125,627.4063 1386.5,628.4844 Q1387.1875,629.5469 1388.5313,629.5469 Q1389.1563,629.5469 1389.75,629.2813 Q1390.3438,629 1390.9688,628.4219 L1390.9688,631.1406 Z " fill="#000000"/><text fill="#000000" font-family="sans-serif" font-size="14" lengthAdjust="spacing" textLength="38" x="1402" y="630.3467">Open</text><line style="stroke:#181818;stroke-width:0.5;" x1="1374" x2="1442" y1="641.5" y2="641.5"/><line style="stroke:#181818;stroke-width:0.5;" x1="1374" x2="1442" y1="649.5" y2="649.5"/></g><!--class Option--><g id="elem_Option"><rect codeLine="157" fill="#F1F1F1" height="48" id="Option" rx="2.5" ry="2.5" style="stroke:#181818;stroke-width:0.5;" width="78" x="1050" y="756"/><ellipse cx="1065" cy="772" fill="#A9DCDF" rx="11" ry="11" style="stroke:#181818;stroke-width:1.0;"/><path d="M1065.1094,767.3438 L1063.9531,772.4219 L1066.2813,772.4219 L1065.1094,767.3438 Z M1063.625,765.1094 L1066.6094,765.1094 L1069.9688,777.5 L1067.5156,777.5 L1066.75,774.4375 L1063.4688,774.4375 L1062.7188,777.5 L1060.2813,777.5 L1063.625,765.1094 Z " fill="#000000"/><text fill="#000000" font-family="sans-serif" font-size="14" font-style="italic" lengthAdjust="spacing" textLength="46" x="1079" y="776.8467">Option</text><line style="stroke:#181818;stroke-width:0.5;" x1="1051" x2="1127" y1="788" y2="788"/><line style="stroke:#181818;stroke-width:0.5;" x1="1051" x2="1127" y1="796" y2="796"/></g><!--class Correct--><g id="elem_Correct"><rect codeLine="161" fill="#F1F1F1" height="48" id="Correct" rx="2.5" ry="2.5" style="stroke:#181818;stroke-width:0.5;" width="83" x="999.5" y="897.5"/><ellipse cx="1014.5" cy="913.5" fill="#ADD1B2" rx="11" ry="11" style="stroke:#181818;stroke-width:1.0;"/><path d="M1017.4688,919.1406 Q1016.8906,919.4375 1016.25,919.5781 Q1015.6094,919.7344 1014.9063,919.7344 Q1012.4063,919.7344 1011.0781,918.0938 Q1009.7656,916.4375 1009.7656,913.3125 Q1009.7656,910.1875 1011.0781,908.5313 Q1012.4063,906.875 1014.9063,906.875 Q1015.6094,906.875 1016.25,907.0313 Q1016.9063,907.1875 1017.4688,907.4844 L1017.4688,910.2031 Q1016.8438,909.625 1016.25,909.3594 Q1015.6563,909.0781 1015.0313,909.0781 Q1013.6875,909.0781 1013,910.1563 Q1012.3125,911.2188 1012.3125,913.3125 Q1012.3125,915.4063 1013,916.4844 Q1013.6875,917.5469 1015.0313,917.5469 Q1015.6563,917.5469 1016.25,917.2813 Q1016.8438,917 1017.4688,916.4219 L1017.4688,919.1406 Z " fill="#000000"/><text fill="#000000" font-family="sans-serif" font-size="14" lengthAdjust="spacing" textLength="51" x="1028.5" y="918.3467">Correct</text><line style="stroke:#181818;stroke-width:0.5;" x1="1000.5" x2="1081.5" y1="929.5" y2="929.5"/><line style="stroke:#181818;stroke-width:0.5;" x1="1000.5" x2="1081.5" y1="937.5" y2="937.5"/></g><!--class Incorrect--><g id="elem_Incorrect"><rect codeLine="163" fill="#F1F1F1" height="48" id="Incorrect" rx="2.5" ry="2.5" style="stroke:#181818;stroke-width:0.5;" width="93" x="1117.5" y="897.5"/><ellipse cx="1132.5" cy="913.5" fill="#ADD1B2" rx="11" ry="11" style="stroke:#181818;stroke-width:1.0;"/><path d="M1135.4688,919.1406 Q1134.8906,919.4375 1134.25,919.5781 Q1133.6094,919.7344 1132.9063,919.7344 Q1130.4063,919.7344 1129.0781,918.0938 Q1127.7656,916.4375 1127.7656,913.3125 Q1127.7656,910.1875 1129.0781,908.5313 Q1130.4063,906.875 1132.9063,906.875 Q1133.6094,906.875 1134.25,907.0313 Q1134.9063,907.1875 1135.4688,907.4844 L1135.4688,910.2031 Q1134.8438,909.625 1134.25,909.3594 Q1133.6563,909.0781 1133.0313,909.0781 Q1131.6875,909.0781 1131,910.1563 Q1130.3125,911.2188 1130.3125,913.3125 Q1130.3125,915.4063 1131,916.4844 Q1131.6875,917.5469 1133.0313,917.5469 Q1133.6563,917.5469 1134.25,917.2813 Q1134.8438,917 1135.4688,916.4219 L1135.4688,919.1406 Z " fill="#000000"/><text fill="#000000" font-family="sans-serif" font-size="14" lengthAdjust="spacing" textLength="61" x="1146.5" y="918.3467">Incorrect</text><line style="stroke:#181818;stroke-width:0.5;" x1="1118.5" x2="1209.5" y1="929.5" y2="929.5"/><line style="stroke:#181818;stroke-width:0.5;" x1="1118.5" x2="1209.5" y1="937.5" y2="937.5"/></g><!--class Corpus--><g id="elem_Corpus"><rect codeLine="93" fill="#F1F1F1" height="48" id="Corpus" rx="2.5" ry="2.5" style="stroke:#181818;stroke-width:0.5;" width="82" x="1549" y="1060"/><ellipse cx="1564" cy="1076" fill="#ADD1B2" rx="11" ry="11" style="stroke:#181818;stroke-width:1.0;"/><path d="M1566.9688,1081.6406 Q1566.3906,1081.9375 1565.75,1082.0781 Q1565.1094,1082.2344 1564.4063,1082.2344 Q1561.9063,1082.2344 1560.5781,1080.5938 Q1559.2656,1078.9375 1559.2656,1075.8125 Q1559.2656,1072.6875 1560.5781,1071.0313 Q1561.9063,1069.375 1564.4063,1069.375 Q1565.1094,1069.375 1565.75,1069.5313 Q1566.4063,1069.6875 1566.9688,1069.9844 L1566.9688,1072.7031 Q1566.3438,1072.125 1565.75,1071.8594 Q1565.1563,1071.5781 1564.5313,1071.5781 Q1563.1875,1071.5781 1562.5,1072.6563 Q1561.8125,1073.7188 1561.8125,1075.8125 Q1561.8125,1077.9063 1562.5,1078.9844 Q1563.1875,1080.0469 1564.5313,1080.0469 Q1565.1563,1080.0469 1565.75,1079.7813 Q1566.3438,1079.5 1566.9688,1078.9219 L1566.9688,1081.6406 Z " fill="#000000"/><text fill="#000000" font-family="sans-serif" font-size="14" lengthAdjust="spacing" textLength="50" x="1578" y="1080.8467">Corpus</text><line style="stroke:#181818;stroke-width:0.5;" x1="1550" x2="1630" y1="1092" y2="1092"/><line style="stroke:#181818;stroke-width:0.5;" x1="1550" x2="1630" y1="1100" y2="1100"/></g><!--class Concept--><g id="elem_Concept"><rect codeLine="97" fill="#F1F1F1" height="64.2969" id="Concept" rx="2.5" ry="2.5" style="stroke:#181818;stroke-width:0.5;" width="118" x="1439" y="1202"/><ellipse cx="1466.15" cy="1218" fill="#ADD1B2" rx="11" ry="11" style="stroke:#181818;stroke-width:1.0;"/><path d="M1469.1188,1223.6406 Q1468.5406,1223.9375 1467.9,1224.0781 Q1467.2594,1224.2344 1466.5563,1224.2344 Q1464.0563,1224.2344 1462.7281,1222.5938 Q1461.4156,1220.9375 1461.4156,1217.8125 Q1461.4156,1214.6875 1462.7281,1213.0313 Q1464.0563,1211.375 1466.5563,1211.375 Q1467.2594,1211.375 1467.9,1211.5313 Q1468.5563,1211.6875 1469.1188,1211.9844 L1469.1188,1214.7031 Q1468.4938,1214.125 1467.9,1213.8594 Q1467.3063,1213.5781 1466.6813,1213.5781 Q1465.3375,1213.5781 1464.65,1214.6563 Q1463.9625,1215.7188 1463.9625,1217.8125 Q1463.9625,1219.9063 1464.65,1220.9844 Q1465.3375,1222.0469 1466.6813,1222.0469 Q1467.3063,1222.0469 1467.9,1221.7813 Q1468.4938,1221.5 1469.1188,1220.9219 L1469.1188,1223.6406 Z " fill="#000000"/><text fill="#000000" font-family="sans-serif" font-size="14" lengthAdjust="spacing" textLength="59" x="1482.85" y="1222.8467">Concept</text><line style="stroke:#181818;stroke-width:0.5;" x1="1440" x2="1556" y1="1234" y2="1234"/><rect fill="none" height="6" style="stroke:#C82930;stroke-width:1.0;" width="6" x="1447" y="1244.6484"/><text fill="#000000" font-family="sans-serif" font-size="14" lengthAdjust="spacing" textLength="92" x="1459" y="1250.9951">name : String</text><line style="stroke:#181818;stroke-width:0.5;" x1="1440" x2="1556" y1="1258.2969" y2="1258.2969"/></g><!--class Definition--><g id="elem_Definition"><rect codeLine="103" fill="#F1F1F1" height="64.2969" id="Definition" rx="2.5" ry="2.5" style="stroke:#181818;stroke-width:0.5;" width="144" x="1364" y="1361.5"/><ellipse cx="1400.15" cy="1377.5" fill="#ADD1B2" rx="11" ry="11" style="stroke:#181818;stroke-width:1.0;"/><path d="M1403.1188,1383.1406 Q1402.5406,1383.4375 1401.9,1383.5781 Q1401.2594,1383.7344 1400.5563,1383.7344 Q1398.0563,1383.7344 1396.7281,1382.0938 Q1395.4156,1380.4375 1395.4156,1377.3125 Q1395.4156,1374.1875 1396.7281,1372.5313 Q1398.0563,1370.875 1400.5563,1370.875 Q1401.2594,1370.875 1401.9,1371.0313 Q1402.5563,1371.1875 1403.1188,1371.4844 L1403.1188,1374.2031 Q1402.4938,1373.625 1401.9,1373.3594 Q1401.3063,1373.0781 1400.6813,1373.0781 Q1399.3375,1373.0781 1398.65,1374.1563 Q1397.9625,1375.2188 1397.9625,1377.3125 Q1397.9625,1379.4063 1398.65,1380.4844 Q1399.3375,1381.5469 1400.6813,1381.5469 Q1401.3063,1381.5469 1401.9,1381.2813 Q1402.4938,1381 1403.1188,1380.4219 L1403.1188,1383.1406 Z " fill="#000000"/><text fill="#000000" font-family="sans-serif" font-size="14" lengthAdjust="spacing" textLength="65" x="1418.85" y="1382.3467">Definition</text><line style="stroke:#181818;stroke-width:0.5;" x1="1365" x2="1507" y1="1393.5" y2="1393.5"/><rect fill="none" height="6" style="stroke:#C82930;stroke-width:1.0;" width="6" x="1372" y="1404.1484"/><text fill="#000000" font-family="sans-serif" font-size="14" lengthAdjust="spacing" textLength="118" x="1384" y="1410.4951">correct : boolean</text><line style="stroke:#181818;stroke-width:0.5;" x1="1365" x2="1507" y1="1417.7969" y2="1417.7969"/></g><!--class Relation--><g id="elem_Relation"><rect codeLine="108" fill="#F1F1F1" height="48" id="Relation" rx="2.5" ry="2.5" style="stroke:#181818;stroke-width:0.5;" width="88" x="1543" y="1369.5"/><ellipse cx="1558" cy="1385.5" fill="#ADD1B2" rx="11" ry="11" style="stroke:#181818;stroke-width:1.0;"/><path d="M1560.9688,1391.1406 Q1560.3906,1391.4375 1559.75,1391.5781 Q1559.1094,1391.7344 1558.4063,1391.7344 Q1555.9063,1391.7344 1554.5781,1390.0938 Q1553.2656,1388.4375 1553.2656,1385.3125 Q1553.2656,1382.1875 1554.5781,1380.5313 Q1555.9063,1378.875 1558.4063,1378.875 Q1559.1094,1378.875 1559.75,1379.0313 Q1560.4063,1379.1875 1560.9688,1379.4844 L1560.9688,1382.2031 Q1560.3438,1381.625 1559.75,1381.3594 Q1559.1563,1381.0781 1558.5313,1381.0781 Q1557.1875,1381.0781 1556.5,1382.1563 Q1555.8125,1383.2188 1555.8125,1385.3125 Q1555.8125,1387.4063 1556.5,1388.4844 Q1557.1875,1389.5469 1558.5313,1389.5469 Q1559.1563,1389.5469 1559.75,1389.2813 Q1560.3438,1389 1560.9688,1388.4219 L1560.9688,1391.1406 Z " fill="#000000"/><text fill="#000000" font-family="sans-serif" font-size="14" lengthAdjust="spacing" textLength="56" x="1572" y="1390.3467">Relation</text><line style="stroke:#181818;stroke-width:0.5;" x1="1544" x2="1630" y1="1401.5" y2="1401.5"/><line style="stroke:#181818;stroke-width:0.5;" x1="1544" x2="1630" y1="1409.5" y2="1409.5"/></g><!--class RelationType--><g id="elem_RelationType"><rect codeLine="113" fill="#F1F1F1" height="129.4844" id="RelationType" rx="2.5" ry="2.5" style="stroke:#181818;stroke-width:0.5;" width="122" x="1509" y="1502.5"/><ellipse cx="1524" cy="1518.5" fill="#EB937F" rx="11" ry="11" style="stroke:#181818;stroke-width:1.0;"/><path d="M1528.1094,1524.5 L1520.3906,1524.5 L1520.3906,1512.1094 L1528.1094,1512.1094 L1528.1094,1514.2656 L1522.8438,1514.2656 L1522.8438,1516.9375 L1527.6094,1516.9375 L1527.6094,1519.0938 L1522.8438,1519.0938 L1522.8438,1522.3438 L1528.1094,1522.3438 L1528.1094,1524.5 Z " fill="#000000"/><text fill="#000000" font-family="sans-serif" font-size="14" lengthAdjust="spacing" textLength="90" x="1538" y="1523.3467">RelationType</text><line style="stroke:#181818;stroke-width:0.5;" x1="1510" x2="1630" y1="1534.5" y2="1534.5"/><text fill="#000000" font-family="sans-serif" font-size="14" lengthAdjust="spacing" textLength="27" x="1515" y="1551.4951">Use</text><text fill="#000000" font-family="sans-serif" font-size="14" lengthAdjust="spacing" textLength="79" x="1515" y="1567.792">Association</text><text fill="#000000" font-family="sans-serif" font-size="14" lengthAdjust="spacing" textLength="87" x="1515" y="1584.0889">Composition</text><text fill="#000000" font-family="sans-serif" font-size="14" lengthAdjust="spacing" textLength="77" x="1515" y="1600.3857">Inheritance</text><text fill="#000000" font-family="sans-serif" font-size="14" lengthAdjust="spacing" textLength="84" x="1515" y="1616.6826">Aggregation</text><line style="stroke:#181818;stroke-width:0.5;" x1="1510" x2="1630" y1="1623.9844" y2="1623.9844"/></g><!--class EducationPlatform--><g id="elem_EducationPlatform"><rect fill="#F1F1F1" height="48" id="EducationPlatform" rx="2.5" ry="2.5" style="stroke:#181818;stroke-width:0.5;" width="157" x="623.5" y="7"/><ellipse cx="638.5" cy="23" fill="#ADD1B2" rx="11" ry="11" style="stroke:#181818;stroke-width:1.0;"/><path d="M641.4688,28.6406 Q640.8906,28.9375 640.25,29.0781 Q639.6094,29.2344 638.9063,29.2344 Q636.4063,29.2344 635.0781,27.5938 Q633.7656,25.9375 633.7656,22.8125 Q633.7656,19.6875 635.0781,18.0313 Q636.4063,16.375 638.9063,16.375 Q639.6094,16.375 640.25,16.5313 Q640.9063,16.6875 641.4688,16.9844 L641.4688,19.7031 Q640.8438,19.125 640.25,18.8594 Q639.6563,18.5781 639.0313,18.5781 Q637.6875,18.5781 637,19.6563 Q636.3125,20.7188 636.3125,22.8125 Q636.3125,24.9063 637,25.9844 Q637.6875,27.0469 639.0313,27.0469 Q639.6563,27.0469 640.25,26.7813 Q640.8438,26.5 641.4688,25.9219 L641.4688,28.6406 Z " fill="#000000"/><text fill="#000000" font-family="sans-serif" font-size="14" lengthAdjust="spacing" textLength="125" x="652.5" y="27.8467">EducationPlatform</text><line style="stroke:#181818;stroke-width:0.5;" x1="624.5" x2="779.5" y1="39" y2="39"/><line style="stroke:#181818;stroke-width:0.5;" x1="624.5" x2="779.5" y1="47" y2="47"/></g><!--class User--><g id="elem_User"><rect codeLine="28" fill="#F1F1F1" height="64.2969" id="User" rx="2.5" ry="2.5" style="stroke:#181818;stroke-width:0.5;" width="118" x="578" y="306"/><ellipse cx="617.75" cy="322" fill="#A9DCDF" rx="11" ry="11" style="stroke:#181818;stroke-width:1.0;"/><path d="M617.8594,317.3438 L616.7031,322.4219 L619.0313,322.4219 L617.8594,317.3438 Z M616.375,315.1094 L619.3594,315.1094 L622.7188,327.5 L620.2656,327.5 L619.5,324.4375 L616.2188,324.4375 L615.4688,327.5 L613.0313,327.5 L616.375,315.1094 Z " fill="#000000"/><text fill="#000000" font-family="sans-serif" font-size="14" font-style="italic" lengthAdjust="spacing" textLength="31" x="637.25" y="326.8467">User</text><line style="stroke:#181818;stroke-width:0.5;" x1="579" x2="695" y1="338" y2="338"/><rect fill="none" height="6" style="stroke:#C82930;stroke-width:1.0;" width="6" x="586" y="348.6484"/><text fill="#000000" font-family="sans-serif" font-size="14" lengthAdjust="spacing" textLength="92" x="598" y="354.9951">name : String</text><line style="stroke:#181818;stroke-width:0.5;" x1="579" x2="695" y1="362.2969" y2="362.2969"/></g><!--class Domain--><g id="elem_Domain"><rect codeLine="123" fill="#F1F1F1" height="80.5938" id="Domain" rx="2.5" ry="2.5" style="stroke:#181818;stroke-width:0.5;" width="152" x="788" y="881"/><ellipse cx="833.25" cy="897" fill="#ADD1B2" rx="11" ry="11" style="stroke:#181818;stroke-width:1.0;"/><path d="M836.2188,902.6406 Q835.6406,902.9375 835,903.0781 Q834.3594,903.2344 833.6563,903.2344 Q831.1563,903.2344 829.8281,901.5938 Q828.5156,899.9375 828.5156,896.8125 Q828.5156,893.6875 829.8281,892.0313 Q831.1563,890.375 833.6563,890.375 Q834.3594,890.375 835,890.5313 Q835.6563,890.6875 836.2188,890.9844 L836.2188,893.7031 Q835.5938,893.125 835,892.8594 Q834.4063,892.5781 833.7813,892.5781 Q832.4375,892.5781 831.75,893.6563 Q831.0625,894.7188 831.0625,896.8125 Q831.0625,898.9063 831.75,899.9844 Q832.4375,901.0469 833.7813,901.0469 Q834.4063,901.0469 835,900.7813 Q835.5938,900.5 836.2188,899.9219 L836.2188,902.6406 Z " fill="#000000"/><text fill="#000000" font-family="sans-serif" font-size="14" lengthAdjust="spacing" textLength="53" x="853.75" y="901.8467">Domain</text><line style="stroke:#181818;stroke-width:0.5;" x1="789" x2="939" y1="913" y2="913"/><rect fill="none" height="6" style="stroke:#C82930;stroke-width:1.0;" width="6" x="796" y="923.6484"/><text fill="#000000" font-family="sans-serif" font-size="14" lengthAdjust="spacing" textLength="115" x="808" y="929.9951">version : Version</text><rect fill="none" height="6" style="stroke:#C82930;stroke-width:1.0;" width="6" x="796" y="939.9453"/><text fill="#000000" font-family="sans-serif" font-size="14" lengthAdjust="spacing" textLength="126" x="808" y="946.292">description: String</text><line style="stroke:#181818;stroke-width:0.5;" x1="789" x2="939" y1="953.5938" y2="953.5938"/></g><!--class Solution--><g id="elem_Solution"><rect codeLine="11" fill="#F1F1F1" height="129.4844" id="Solution" rx="2.5" ry="2.5" style="stroke:#181818;stroke-width:0.5;" width="172" x="791" y="116"/><ellipse cx="844.75" cy="132" fill="#A9DCDF" rx="11" ry="11" style="stroke:#181818;stroke-width:1.0;"/><path d="M844.8594,127.3438 L843.7031,132.4219 L846.0313,132.4219 L844.8594,127.3438 Z M843.375,125.1094 L846.3594,125.1094 L849.7188,137.5 L847.2656,137.5 L846.5,134.4375 L843.2188,134.4375 L842.4688,137.5 L840.0313,137.5 L843.375,125.1094 Z " fill="#000000"/><text fill="#000000" font-family="sans-serif" font-size="14" font-style="italic" lengthAdjust="spacing" textLength="56" x="865.25" y="136.8467">Solution</text><line style="stroke:#181818;stroke-width:0.5;" x1="792" x2="962" y1="148" y2="148"/><rect fill="none" height="6" style="stroke:#C82930;stroke-width:1.0;" width="6" x="799" y="158.6484"/><text fill="#000000" font-family="sans-serif" font-size="14" lengthAdjust="spacing" textLength="118" x="811" y="164.9951">correct : boolean</text><rect fill="none" height="6" style="stroke:#C82930;stroke-width:1.0;" width="6" x="799" y="174.9453"/><text fill="#000000" font-family="sans-serif" font-size="14" lengthAdjust="spacing" textLength="136" x="811" y="181.292">evaluated : boolean</text><rect fill="none" height="6" style="stroke:#C82930;stroke-width:1.0;" width="6" x="799" y="191.2422"/><text fill="#000000" font-family="sans-serif" font-size="14" lengthAdjust="spacing" textLength="132" x="811" y="197.5889">createdDate : Date</text><rect fill="none" height="6" style="stroke:#C82930;stroke-width:1.0;" width="6" x="799" y="207.5391"/><text fill="#000000" font-family="sans-serif" font-size="14" lengthAdjust="spacing" textLength="146" x="811" y="213.8857">evaluatedDate : Date</text><rect fill="none" height="6" style="stroke:#C82930;stroke-width:1.0;" width="6" x="799" y="223.8359"/><text fill="#000000" font-family="sans-serif" font-size="14" lengthAdjust="spacing" textLength="88" x="811" y="230.1826">owner : User</text><line style="stroke:#181818;stroke-width:0.5;" x1="792" x2="962" y1="237.4844" y2="237.4844"/></g><!--class Application--><g id="elem_Application"><rect codeLine="131" fill="#F1F1F1" height="48" id="Application" rx="2.5" ry="2.5" style="stroke:#181818;stroke-width:0.5;" width="107" x="859.5" y="756"/><ellipse cx="874.5" cy="772" fill="#ADD1B2" rx="11" ry="11" style="stroke:#181818;stroke-width:1.0;"/><path d="M877.4688,777.6406 Q876.8906,777.9375 876.25,778.0781 Q875.6094,778.2344 874.9063,778.2344 Q872.4063,778.2344 871.0781,776.5938 Q869.7656,774.9375 869.7656,771.8125 Q869.7656,768.6875 871.0781,767.0313 Q872.4063,765.375 874.9063,765.375 Q875.6094,765.375 876.25,765.5313 Q876.9063,765.6875 877.4688,765.9844 L877.4688,768.7031 Q876.8438,768.125 876.25,767.8594 Q875.6563,767.5781 875.0313,767.5781 Q873.6875,767.5781 873,768.6563 Q872.3125,769.7188 872.3125,771.8125 Q872.3125,773.9063 873,774.9844 Q873.6875,776.0469 875.0313,776.0469 Q875.6563,776.0469 876.25,775.7813 Q876.8438,775.5 877.4688,774.9219 L877.4688,777.6406 Z " fill="#000000"/><text fill="#000000" font-family="sans-serif" font-size="14" lengthAdjust="spacing" textLength="75" x="888.5" y="776.8467">Application</text><line style="stroke:#181818;stroke-width:0.5;" x1="860.5" x2="965.5" y1="788" y2="788"/><line style="stroke:#181818;stroke-width:0.5;" x1="860.5" x2="965.5" y1="796" y2="796"/></g><!--class Answer--><g id="elem_Answer"><rect codeLine="23" fill="#F1F1F1" height="64.2969" id="Answer" rx="2.5" ry="2.5" style="stroke:#181818;stroke-width:0.5;" width="133" x="962.5" y="306"/><ellipse cx="1000" cy="322" fill="#ADD1B2" rx="11" ry="11" style="stroke:#181818;stroke-width:1.0;"/><path d="M1002.9688,327.6406 Q1002.3906,327.9375 1001.75,328.0781 Q1001.1094,328.2344 1000.4063,328.2344 Q997.9063,328.2344 996.5781,326.5938 Q995.2656,324.9375 995.2656,321.8125 Q995.2656,318.6875 996.5781,317.0313 Q997.9063,315.375 1000.4063,315.375 Q1001.1094,315.375 1001.75,315.5313 Q1002.4063,315.6875 1002.9688,315.9844 L1002.9688,318.7031 Q1002.3438,318.125 1001.75,317.8594 Q1001.1563,317.5781 1000.5313,317.5781 Q999.1875,317.5781 998.5,318.6563 Q997.8125,319.7188 997.8125,321.8125 Q997.8125,323.9063 998.5,324.9844 Q999.1875,326.0469 1000.5313,326.0469 Q1001.1563,326.0469 1001.75,325.7813 Q1002.3438,325.5 1002.9688,324.9219 L1002.9688,327.6406 Z " fill="#000000"/><text fill="#000000" font-family="sans-serif" font-size="14" lengthAdjust="spacing" textLength="51" x="1019" y="326.8467">Answer</text><line style="stroke:#181818;stroke-width:0.5;" x1="963.5" x2="1094.5" y1="338" y2="338"/><rect fill="none" height="6" style="stroke:#C82930;stroke-width:1.0;" width="6" x="970.5" y="348.6484"/><text fill="#000000" font-family="sans-serif" font-size="14" lengthAdjust="spacing" textLength="107" x="982.5" y="354.9951">content : String</text><line style="stroke:#181818;stroke-width:0.5;" x1="963.5" x2="1094.5" y1="362.2969" y2="362.2969"/></g><!--class Justification--><g id="elem_Justification"><rect codeLine="49" fill="#F1F1F1" height="64.2969" id="Justification" rx="2.5" ry="2.5" style="stroke:#181818;stroke-width:0.5;" width="133" x="60.5" y="1535"/><ellipse cx="86.3" cy="1551" fill="#ADD1B2" rx="11" ry="11" style="stroke:#181818;stroke-width:1.0;"/><path d="M89.2688,1556.6406 Q88.6906,1556.9375 88.05,1557.0781 Q87.4094,1557.2344 86.7063,1557.2344 Q84.2063,1557.2344 82.8781,1555.5938 Q81.5656,1553.9375 81.5656,1550.8125 Q81.5656,1547.6875 82.8781,1546.0313 Q84.2063,1544.375 86.7063,1544.375 Q87.4094,1544.375 88.05,1544.5313 Q88.7063,1544.6875 89.2688,1544.9844 L89.2688,1547.7031 Q88.6438,1547.125 88.05,1546.8594 Q87.4563,1546.5781 86.8313,1546.5781 Q85.4875,1546.5781 84.8,1547.6563 Q84.1125,1548.7188 84.1125,1550.8125 Q84.1125,1552.9063 84.8,1553.9844 Q85.4875,1555.0469 86.8313,1555.0469 Q87.4563,1555.0469 88.05,1554.7813 Q88.6438,1554.5 89.2688,1553.9219 L89.2688,1556.6406 Z " fill="#000000"/><text fill="#000000" font-family="sans-serif" font-size="14" lengthAdjust="spacing" textLength="77" x="102.7" y="1555.8467">Justification</text><line style="stroke:#181818;stroke-width:0.5;" x1="61.5" x2="192.5" y1="1567" y2="1567"/><rect fill="none" height="6" style="stroke:#C82930;stroke-width:1.0;" width="6" x="68.5" y="1577.6484"/><text fill="#000000" font-family="sans-serif" font-size="14" lengthAdjust="spacing" textLength="107" x="80.5" y="1583.9951">content : String</text><line style="stroke:#181818;stroke-width:0.5;" x1="61.5" x2="192.5" y1="1591.2969" y2="1591.2969"/></g><!--class Teacher--><g id="elem_Teacher"><rect codeLine="34" fill="#F1F1F1" height="48" id="Teacher" rx="2.5" ry="2.5" style="stroke:#181818;stroke-width:0.5;" width="89" x="592.5" y="476"/><ellipse cx="607.5" cy="492" fill="#ADD1B2" rx="11" ry="11" style="stroke:#181818;stroke-width:1.0;"/><path d="M610.4688,497.6406 Q609.8906,497.9375 609.25,498.0781 Q608.6094,498.2344 607.9063,498.2344 Q605.4063,498.2344 604.0781,496.5938 Q602.7656,494.9375 602.7656,491.8125 Q602.7656,488.6875 604.0781,487.0313 Q605.4063,485.375 607.9063,485.375 Q608.6094,485.375 609.25,485.5313 Q609.9063,485.6875 610.4688,485.9844 L610.4688,488.7031 Q609.8438,488.125 609.25,487.8594 Q608.6563,487.5781 608.0313,487.5781 Q606.6875,487.5781 606,488.6563 Q605.3125,489.7188 605.3125,491.8125 Q605.3125,493.9063 606,494.9844 Q606.6875,496.0469 608.0313,496.0469 Q608.6563,496.0469 609.25,495.7813 Q609.8438,495.5 610.4688,494.9219 L610.4688,497.6406 Z " fill="#000000"/><text fill="#000000" font-family="sans-serif" font-size="14" lengthAdjust="spacing" textLength="57" x="621.5" y="496.8467">Teacher</text><line style="stroke:#181818;stroke-width:0.5;" x1="593.5" x2="680.5" y1="508" y2="508"/><line style="stroke:#181818;stroke-width:0.5;" x1="593.5" x2="680.5" y1="516" y2="516"/></g><!--class Student--><g id="elem_Student"><rect codeLine="38" fill="#F1F1F1" height="48" id="Student" rx="2.5" ry="2.5" style="stroke:#181818;stroke-width:0.5;" width="87" x="470.5" y="476"/><ellipse cx="485.5" cy="492" fill="#ADD1B2" rx="11" ry="11" style="stroke:#181818;stroke-width:1.0;"/><path d="M488.4688,497.6406 Q487.8906,497.9375 487.25,498.0781 Q486.6094,498.2344 485.9063,498.2344 Q483.4063,498.2344 482.0781,496.5938 Q480.7656,494.9375 480.7656,491.8125 Q480.7656,488.6875 482.0781,487.0313 Q483.4063,485.375 485.9063,485.375 Q486.6094,485.375 487.25,485.5313 Q487.9063,485.6875 488.4688,485.9844 L488.4688,488.7031 Q487.8438,488.125 487.25,487.8594 Q486.6563,487.5781 486.0313,487.5781 Q484.6875,487.5781 484,488.6563 Q483.3125,489.7188 483.3125,491.8125 Q483.3125,493.9063 484,494.9844 Q484.6875,496.0469 486.0313,496.0469 Q486.6563,496.0469 487.25,495.7813 Q487.8438,495.5 488.4688,494.9219 L488.4688,497.6406 Z " fill="#000000"/><text fill="#000000" font-family="sans-serif" font-size="14" lengthAdjust="spacing" textLength="55" x="499.5" y="496.8467">Student</text><line style="stroke:#181818;stroke-width:0.5;" x1="471.5" x2="556.5" y1="508" y2="508"/><line style="stroke:#181818;stroke-width:0.5;" x1="471.5" x2="556.5" y1="516" y2="516"/></g><!--class Progress--><g id="elem_Progress"><rect codeLine="43" fill="#F1F1F1" height="80.5938" id="Progress" rx="2.5" ry="2.5" style="stroke:#181818;stroke-width:0.5;" width="240" x="169" y="593"/><ellipse cx="253.75" cy="609" fill="#ADD1B2" rx="11" ry="11" style="stroke:#181818;stroke-width:1.0;"/><path d="M256.7188,614.6406 Q256.1406,614.9375 255.5,615.0781 Q254.8594,615.2344 254.1563,615.2344 Q251.6563,615.2344 250.3281,613.5938 Q249.0156,611.9375 249.0156,608.8125 Q249.0156,605.6875 250.3281,604.0313 Q251.6563,602.375 254.1563,602.375 Q254.8594,602.375 255.5,602.5313 Q256.1563,602.6875 256.7188,602.9844 L256.7188,605.7031 Q256.0938,605.125 255.5,604.8594 Q254.9063,604.5781 254.2813,604.5781 Q252.9375,604.5781 252.25,605.6563 Q251.5625,606.7188 251.5625,608.8125 Q251.5625,610.9063 252.25,611.9844 Q252.9375,613.0469 254.2813,613.0469 Q254.9063,613.0469 255.5,612.7813 Q256.0938,612.5 256.7188,611.9219 L256.7188,614.6406 Z " fill="#000000"/><text fill="#000000" font-family="sans-serif" font-size="14" lengthAdjust="spacing" textLength="62" x="274.25" y="613.8467">Progress</text><line style="stroke:#181818;stroke-width:0.5;" x1="170" x2="408" y1="625" y2="625"/><rect fill="none" height="6" style="stroke:#C82930;stroke-width:1.0;" width="6" x="177" y="635.6484"/><text fill="#000000" font-family="sans-serif" font-size="14" lengthAdjust="spacing" textLength="132" x="189" y="641.9951">elapsedTime: Time</text><rect fill="none" height="6" style="stroke:#C82930;stroke-width:1.0;" width="6" x="177" y="651.9453"/><text fill="#000000" font-family="sans-serif" font-size="14" lengthAdjust="spacing" textLength="214" x="189" y="658.292">percentageCompleted: Integer</text><line style="stroke:#181818;stroke-width:0.5;" x1="170" x2="408" y1="665.5938" y2="665.5938"/></g><!--link EducationPlatform to User--><g id="link_EducationPlatform_User"><path codeLine="2" d="M694.5598,66.9067 C683.0098,121.1267 657.9606,238.6618 644.8906,299.9918 " fill="none" id="EducationPlatform-User" style="stroke:#008000;stroke-width:1.0;"/><polygon fill="#008000" points="697.06,55.17,691.8977,60.2049,694.5598,66.9067,699.7221,61.8717,697.06,55.17" style="stroke:#008000;stroke-width:1.0;"/><polygon fill="#008000" points="643.64,305.86,649.428,297.8914,644.6821,300.9698,641.6037,296.2239,643.64,305.86" style="stroke:#008000;stroke-width:1.0;"/><text fill="#000000" font-family="sans-serif" font-size="13" lengthAdjust="spacing" textLength="11" x="632.8751" y="294.7342">+</text></g><!--link EducationPlatform to Topic--><g id="link_EducationPlatform_Topic"><path codeLine="3" d="M611.5014,41.0113 C527.1414,53.6013 417,86.18 417,179.5 C417,179.5 417,179.5 417,409.5 C417,491.18 424.78,511.35 427,593 C427.98,628.99 427.07,638 427,674 C426.83,756.17 426.3816,847.7401 426.1516,891.3901 " fill="none" id="EducationPlatform-Topic" style="stroke:#008000;stroke-width:1.0;"/><polygon fill="#008000" points="623.37,39.24,616.8453,36.1695,611.5014,41.0113,618.0261,44.0818,623.37,39.24" style="stroke:#008000;stroke-width:1.0;"/><polygon fill="#008000" points="426.12,897.39,430.1674,888.4112,426.1463,892.3901,422.1675,888.369,426.12,897.39" style="stroke:#008000;stroke-width:1.0;"/></g><!--link EducationPlatform to Itinerary--><g id="link_EducationPlatform_Itinerary"><path codeLine="4" d="M611.2501,31.7168 C467.6101,32.2768 181.44,39.09 90,85 C39.78,110.21 6,123.31 6,179.5 C6,179.5 6,179.5 6,634.5 C6,740.83 160.456,768.4016 239.736,775.8116 " fill="none" id="EducationPlatform-Itinerary" style="stroke:#008000;stroke-width:1.0;"/><polygon fill="#008000" points="623.25,31.67,617.2345,27.6934,611.2501,31.7168,617.2656,35.6934,623.25,31.67" style="stroke:#008000;stroke-width:1.0;"/><polygon fill="#008000" points="245.71,776.37,237.1213,771.5498,240.7317,775.9047,236.3768,779.5151,245.71,776.37" style="stroke:#008000;stroke-width:1.0;"/><text fill="#000000" font-family="sans-serif" font-size="13" lengthAdjust="spacing" textLength="68" x="7" y="413.0669">predefined</text></g><!--link EducationPlatform to Itinerary--><g id="link_EducationPlatform_Itinerary"><path codeLine="5" d="M611.2893,36.09 C451.4793,45.16 116,76.1 116,179.5 C116,179.5 116,179.5 116,634.5 C116,702.01 188.9718,741.9401 240.2118,762.2401 " fill="none" id="EducationPlatform-Itinerary-1" style="stroke:#008000;stroke-width:1.0;"/><polygon fill="none" points="623.27,35.41,617.053,31.7564,611.2893,36.09,617.5063,39.7436,623.27,35.41" style="stroke:#008000;stroke-width:1.0;"/><polygon fill="#008000" points="245.79,764.45,238.896,757.4163,241.1415,762.6084,235.9494,764.8539,245.79,764.45" style="stroke:#008000;stroke-width:1.0;"/><text fill="#000000" font-family="sans-serif" font-size="13" lengthAdjust="spacing" textLength="48" x="117" y="413.0669">custom</text><text fill="#000000" font-family="sans-serif" font-size="13" lengthAdjust="spacing" textLength="7" x="231.0537" y="757.7102">*</text></g><!--link EducationPlatform to Question--><g id="link_EducationPlatform_Question"><path codeLine="6" d="M792.534,43.4777 C852.124,53.7977 921.75,72.98 981,116 C1104.47,205.65 1158.3146,387.6921 1175.9446,461.9821 " fill="none" id="EducationPlatform-Question" style="stroke:#008000;stroke-width:1.0;"/><polygon fill="#008000" points="780.71,41.43,785.9394,46.3952,792.534,43.4777,787.3046,38.5125,780.71,41.43" style="stroke:#008000;stroke-width:1.0;"/><polygon fill="#008000" points="1177.33,467.82,1179.1438,458.1396,1176.1755,462.9551,1171.36,459.9868,1177.33,467.82" style="stroke:#008000;stroke-width:1.0;"/><text fill="#000000" font-family="sans-serif" font-size="13" lengthAdjust="spacing" textLength="7" x="1168.2324" y="456.686">*</text></g><!--link EducationPlatform to Domain--><g id="link_EducationPlatform_Domain"><path codeLine="7" d="M713.6691,66.5827 C737.9391,139.9427 806,362.51 806,562 C806,562 806,562 806,781 C806,816.67 819.403,848.595 834.753,875.575 " fill="none" id="EducationPlatform-Domain" style="stroke:#008000;stroke-width:1.0;"/><polygon fill="#008000" points="709.9,55.19,707.987,62.1427,713.6691,66.5827,715.5821,59.63,709.9,55.19" style="stroke:#008000;stroke-width:1.0;"/><polygon fill="#008000" points="837.72,880.79,836.7461,870.9894,835.2475,876.4441,829.7927,874.9455,837.72,880.79" style="stroke:#008000;stroke-width:1.0;"/><text fill="#000000" font-family="sans-serif" font-size="13" lengthAdjust="spacing" textLength="7" x="825.7877" y="869.9168">*</text></g><!--link EducationPlatform to Solution--><g id="link_EducationPlatform_Solution"><path codeLine="8" d="M738.5175,62.7814 C757.9375,79.1414 771.2526,90.3728 796.9226,112.0128 " fill="none" id="EducationPlatform-Solution" style="stroke:#008000;stroke-width:1.0;"/><polygon fill="#008000" points="729.34,55.05,731.3516,61.9748,738.5175,62.7814,736.5059,55.8565,729.34,55.05" style="stroke:#008000;stroke-width:1.0;"/><polygon fill="#008000" points="801.51,115.88,797.207,107.0209,797.6871,112.6573,792.0507,113.1374,801.51,115.88" style="stroke:#008000;stroke-width:1.0;"/><text fill="#000000" font-family="sans-serif" font-size="13" lengthAdjust="spacing" textLength="7" x="785.8705" y="105.0395">*</text></g><!--link EducationPlatform to Corpus--><g id="link_EducationPlatform_Corpus"><path codeLine="9" d="M792.482,37.8096 C1007.502,52.5296 1578,99.01 1578,179.5 C1578,179.5 1578,179.5 1578,922.5 C1578,971.54 1582.9606,1022.8086 1586.5106,1053.9586 " fill="none" id="EducationPlatform-Corpus" style="stroke:#008000;stroke-width:1.0;"/><polygon fill="#008000" points="780.51,36.99,786.2228,41.3905,792.482,37.8096,786.7692,33.4091,780.51,36.99" style="stroke:#008000;stroke-width:1.0;"/><polygon fill="#008000" points="1587.19,1059.92,1590.1452,1050.525,1586.6238,1054.9522,1582.1966,1051.4308,1587.19,1059.92" style="stroke:#008000;stroke-width:1.0;"/></g><!--reverse link Solution to Application--><g id="link_Solution_Application"><path codeLine="18" d="M895.2819,262.7394 C900.6419,290.7594 902,306.51 902,337 C902,337 902,337 902,634.5 C902,677.4 906.88,727.25 910.14,755.77 " fill="none" id="Solution-backto-Application" style="stroke:#181818;stroke-width:1.0;"/><polygon fill="none" points="891.9,245.06,889.3888,263.8667,901.1751,261.6121,891.9,245.06" style="stroke:#181818;stroke-width:1.0;"/></g><!--reverse link Solution to Answer--><g id="link_Solution_Answer"><path codeLine="19" d="M951.8459,258.0683 C972.3459,279.0283 981.63,288.54 998.66,305.96 " fill="none" id="Solution-backto-Answer" style="stroke:#181818;stroke-width:1.0;"/><polygon fill="none" points="939.26,245.2,947.5565,262.2637,956.1354,253.873,939.26,245.2" style="stroke:#181818;stroke-width:1.0;"/></g><!--link Solution to User--><g id="link_Solution_User"><path codeLine="20" d="M790.69,237.42 C755.08,260.49 720.1959,283.0982 689.9659,302.6782 " fill="none" id="Solution-to-User" style="stroke:#181818;stroke-width:1.0;"/><polygon fill="#181818" points="684.93,305.94,694.6584,304.4046,689.1266,303.2218,690.3094,297.69,684.93,305.94" style="stroke:#181818;stroke-width:1.0;"/></g><!--link Solution to Justification--><g id="link_Solution_Justification"><path codeLine="21" d="M854.1568,256.7014 C828.6568,333.0114 780.7,449.38 699,532 C603.11,628.97 555.64,628.74 427,674 C342.8,703.62 308.29,670.13 230,713 C134.13,765.49 98,811.2 98,920.5 C98,920.5 98,920.5 98,1394.5 C98,1444.17 108.5112,1495 117.0712,1529.15 " fill="none" id="Solution-Justification" style="stroke:#181818;stroke-width:1.0;"/><polygon fill="#181818" points="857.96,245.32,852.2646,249.7429,854.1568,256.7014,859.8522,252.2784,857.96,245.32" style="stroke:#181818;stroke-width:1.0;"/><polygon fill="#181818" points="118.53,1534.97,120.2217,1525.2675,117.3143,1530.12,112.4618,1527.2126,118.53,1534.97" style="stroke:#181818;stroke-width:1.0;"/><text fill="#000000" font-family="sans-serif" font-size="13" lengthAdjust="spacing" textLength="114" x="111" y="847.0669">[!solution.correct]</text><text fill="#000000" font-family="sans-serif" font-size="13" lengthAdjust="spacing" textLength="7" x="109.0612" y="1523.8669">*</text></g><!--link Answer to Question--><g id="link_Answer_Question"><path codeLine="26" d="M1059.25,370.23 C1086.56,398.42 1122.366,435.3698 1149.646,463.5398 " fill="none" id="Answer-to-Question" style="stroke:#181818;stroke-width:1.0;"/><polygon fill="#181818" points="1153.82,467.85,1150.4324,458.6021,1150.3417,464.2582,1144.6855,464.1674,1153.82,467.85" style="stroke:#181818;stroke-width:1.0;"/></g><!--reverse link User to Teacher--><g id="link_User_Teacher"><path codeLine="31" d="M637,388.23 C637,419.15 637,447.79 637,475.64 " fill="none" id="User-backto-Teacher" style="stroke:#181818;stroke-width:1.0;"/><polygon fill="none" points="637,370.23,631,388.23,643,388.23,637,370.23" style="stroke:#181818;stroke-width:1.0;"/></g><!--reverse link User to Student--><g id="link_User_Student"><path codeLine="32" d="M602.0194,384.5005 C578.2494,415.4205 553.37,447.79 531.96,475.64 " fill="none" id="User-backto-Student" style="stroke:#181818;stroke-width:1.0;"/><polygon fill="none" points="612.99,370.23,597.2626,380.8436,606.7763,388.1573,612.99,370.23" style="stroke:#181818;stroke-width:1.0;"/></g><!--link Student to Progress--><g id="link_Student_Progress"><path codeLine="41" d="M464.1888,530.1136 C431.6688,549.1136 400.3505,567.423 361.8605,589.913 " fill="none" id="Student-Progress" style="stroke:#181818;stroke-width:1.0;"/><polygon fill="none" points="474.55,524.06,467.3515,523.6331,464.1888,530.1136,471.3873,530.5405,474.55,524.06" style="stroke:#181818;stroke-width:1.0;"/><polygon fill="#181818" points="356.68,592.94,366.4687,591.8532,360.9971,590.4175,362.4327,584.9459,356.68,592.94" style="stroke:#181818;stroke-width:1.0;"/><text fill="#000000" font-family="sans-serif" font-size="13" lengthAdjust="spacing" textLength="7" x="360.7109" y="581.7929">*</text></g><!--link Progress to Itinerary--><g id="link_Progress_Itinerary"><path codeLine="47" d="M289,674.37 C289,700.6 289,728.01 289,749.93 " fill="none" id="Progress-to-Itinerary" style="stroke:#181818;stroke-width:1.0;"/><polygon fill="#181818" points="289,755.93,293,746.93,289,750.93,285,746.93,289,755.93" style="stroke:#181818;stroke-width:1.0;"/></g><!--link Itinerary to Topic--><g id="link_Itinerary_Topic"><path codeLine="58" d="M320.0304,812.5995 C345.4204,838.4395 373.7464,867.2886 399.1364,893.1486 " fill="none" id="Itinerary-Topic" style="stroke:#181818;stroke-width:1.0;"/><polygon fill="none" points="311.62,804.04,312.972,811.1232,320.0304,812.5995,318.6784,805.5163,311.62,804.04" style="stroke:#181818;stroke-width:1.0;"/><polygon fill="#181818" points="403.34,897.43,399.8889,888.2056,399.837,893.8622,394.1804,893.8103,403.34,897.43" style="stroke:#181818;stroke-width:1.0;"/><text fill="#000000" font-family="sans-serif" font-size="13" lengthAdjust="spacing" textLength="11" x="385.124" y="886.4241">+</text></g><!--reverse link Topic to CompositeTopic--><g id="link_Topic_CompositeTopic"><path codeLine="62" d="M389.738,959.7763 C366.858,987.7663 346.55,1020.87 329.4,1051.92 " fill="none" id="Topic-backto-CompositeTopic" style="stroke:#181818;stroke-width:1.0;"/><polygon fill="none" points="401.13,945.84,385.0925,955.979,394.3834,963.5737,401.13,945.84" style="stroke:#181818;stroke-width:1.0;"/></g><!--link CompositeTopic to Topic--><g id="link_CompositeTopic_Topic"><path codeLine="88" d="M358.0758,1042.4936 C382.5358,1011.4436 403.3854,979.1808 417.5854,951.1908 " fill="none" id="CompositeTopic-Topic" style="stroke:#181818;stroke-width:1.0;"/><polygon fill="none" points="350.65,1051.92,357.505,1049.682,358.0758,1042.4936,351.2207,1044.7315,350.65,1051.92" style="stroke:#181818;stroke-width:1.0;"/><polygon fill="#181818" points="420.3,945.84,412.6609,952.0565,418.0378,950.299,419.7953,955.6759,420.3,945.84" style="stroke:#181818;stroke-width:1.0;"/><text fill="#000000" font-family="sans-serif" font-size="13" lengthAdjust="spacing" textLength="11" x="406.57" y="965.6841">+</text></g><!--reverse link Topic to SimpleTopic--><g id="link_Topic_SimpleTopic"><path codeLine="63" d="M478.0572,942.6985 C518.7372,959.0085 570.01,981.94 623,1017 C641.81,1029.44 660.85,1046.27 675.05,1059.81 " fill="none" id="Topic-backto-SimpleTopic" style="stroke:#181818;stroke-width:1.0;"/><polygon fill="none" points="461.35,936,475.8244,948.2675,480.29,937.1294,461.35,936" style="stroke:#181818;stroke-width:1.0;"/></g><!--link Topic to Document--><g id="link_Topic_Document"><path codeLine="64" d="M444.9584,956.3072 C459.2884,981.8672 473.715,1007.5969 490.905,1038.2469 " fill="none" id="Topic-Document" style="stroke:#181818;stroke-width:1.0;"/><polygon fill="#181818" points="439.09,945.84,438.5351,953.0297,444.9584,956.3072,445.5132,949.1175,439.09,945.84" style="stroke:#181818;stroke-width:1.0;"/><polygon fill="#181818" points="493.84,1043.48,492.9263,1033.6736,491.3942,1039.119,485.9487,1037.587,493.84,1043.48" style="stroke:#181818;stroke-width:1.0;"/><text fill="#000000" font-family="sans-serif" font-size="13" lengthAdjust="spacing" textLength="7" x="482.4297" y="1032.3398">*</text></g><!--link Document to DocumentType--><g id="link_Document_DocumentType"><path codeLine="74" d="M516,1124.66 C516,1143.33 516,1159.74 516,1179.32 " fill="none" id="Document-to-DocumentType" style="stroke:#181818;stroke-width:1.0;"/><polygon fill="#181818" points="516,1185.32,520,1176.32,516,1180.32,512,1176.32,516,1185.32" style="stroke:#181818;stroke-width:1.0;"/></g><!--link SimpleTopic to Concept--><g id="link_SimpleTopic_Concept"><path codeLine="84" d="M767.9797,1097.9435 C915.3997,1125.2235 1284.7101,1193.5383 1433.0601,1220.9883 " fill="none" id="SimpleTopic-Concept" style="stroke:#181818;stroke-width:1.0;"/><polygon fill="none" points="756.18,1095.76,761.352,1100.785,767.9797,1097.9435,762.8077,1092.9185,756.18,1095.76" style="stroke:#181818;stroke-width:1.0;"/><polygon fill="#181818" points="1438.96,1222.08,1430.838,1216.5092,1434.0435,1221.1703,1429.3824,1224.3757,1438.96,1222.08" style="stroke:#181818;stroke-width:1.0;"/><text fill="#000000" font-family="sans-serif" font-size="13" lengthAdjust="spacing" textLength="11" x="1420.0942" y="1216.7701">+</text></g><!--reverse link Corpus to Concept--><g id="link_Corpus_Concept"><path codeLine="95" d="M1569.288,1118.3134 C1553.628,1143.5234 1534.81,1173.79 1517.4,1201.79 " fill="none" id="Corpus-backto-Concept" style="stroke:#181818;stroke-width:1.0;"/><polygon fill="#181818" points="1575.62,1108.12,1569.0562,1111.1061,1569.288,1118.3134,1575.8518,1115.3274,1575.62,1108.12" style="stroke:#181818;stroke-width:1.0;"/><text fill="#000000" font-family="sans-serif" font-size="13" lengthAdjust="spacing" textLength="11" x="1509.1366" y="1191.0228">+</text></g><!--link Concept to Definition--><g id="link_Concept_Definition"><path codeLine="100" d="M1475.0223,1276.7044 C1467.4123,1291.1344 1464.38,1298.08 1458,1314.5 C1452.14,1329.58 1448.6237,1341.0441 1444.8537,1355.5041 " fill="none" id="Concept-Definition" style="stroke:#181818;stroke-width:1.0;"/><polygon fill="#181818" points="1480.62,1266.09,1474.283,1269.5313,1475.0223,1276.7044,1481.3593,1273.2631,1480.62,1266.09" style="stroke:#181818;stroke-width:1.0;"/><polygon fill="#181818" points="1443.34,1361.31,1449.4812,1353.6103,1444.6014,1356.4717,1441.74,1351.592,1443.34,1361.31" style="stroke:#181818;stroke-width:1.0;"/><text fill="#000000" font-family="sans-serif" font-size="13" lengthAdjust="spacing" textLength="11" x="1432.7022" y="1350.5468">+</text></g><!--link Concept to Relation--><g id="link_Concept_Relation"><path codeLine="101" d="M1493.2037,1278.3909 C1492.0837,1298.2309 1494.17,1311.77 1505,1331.5 C1513.62,1347.21 1523.2209,1356.672 1537.7209,1366.422 " fill="none" id="Concept-Relation" style="stroke:#181818;stroke-width:1.0;"/><polygon fill="#181818" points="1493.88,1266.41,1489.5482,1272.175,1493.2037,1278.3909,1497.5355,1272.6259,1493.88,1266.41" style="stroke:#181818;stroke-width:1.0;"/><polygon fill="#181818" points="1542.7,1369.77,1537.4634,1361.4287,1538.5508,1366.98,1532.9994,1368.0674,1542.7,1369.77" style="stroke:#181818;stroke-width:1.0;"/><text fill="#000000" font-family="sans-serif" font-size="13" lengthAdjust="spacing" textLength="35" x="1506" y="1327.5669">origin</text><text fill="#000000" font-family="sans-serif" font-size="13" lengthAdjust="spacing" textLength="7" x="1528.0819" y="1361.8702">*</text></g><!--link Relation to Concept--><g id="link_Relation_Concept"><path codeLine="110" d="M1575.33,1369.44 C1567.31,1353.81 1556.3,1332.76 1546,1314.5 C1536.89,1298.35 1529.4138,1285.7866 1520.4838,1271.2066 " fill="none" id="Relation-to-Concept" style="stroke:#181818;stroke-width:1.0;"/><polygon fill="#181818" points="1517.35,1266.09,1518.6397,1275.8541,1519.9615,1270.3538,1525.4618,1271.6756,1517.35,1266.09" style="stroke:#181818;stroke-width:1.0;"/><text fill="#000000" font-family="sans-serif" font-size="13" lengthAdjust="spacing" textLength="39" x="1556" y="1327.5669">target</text></g><!--link Definition to Justification--><g id="link_Definition_Justification"><path codeLine="106" d="M1351.8617,1405.5193 C1121.2617,1435.7393 422.7192,1527.2606 199.8292,1556.4606 " fill="none" id="Definition-Justification" style="stroke:#181818;stroke-width:1.0;"/><polygon fill="#181818" points="1363.76,1403.96,1357.2911,1400.7735,1351.8617,1405.5193,1358.3306,1408.7057,1363.76,1403.96" style="stroke:#181818;stroke-width:1.0;"/><polygon fill="#181818" points="193.88,1557.24,203.3233,1560.037,198.8376,1556.5905,202.2842,1552.1048,193.88,1557.24" style="stroke:#181818;stroke-width:1.0;"/><text fill="#000000" font-family="sans-serif" font-size="13" lengthAdjust="spacing" textLength="122" x="938" y="1468.5669">[!definition.correct]</text><text fill="#000000" font-family="sans-serif" font-size="13" lengthAdjust="spacing" textLength="7" x="201.5778" y="1552.4101">*</text></g><!--link Relation to RelationType--><g id="link_Relation_RelationType"><path codeLine="111" d="M1583.5252,1429.5714 C1581.3752,1451.2414 1579.8426,1466.7293 1576.9026,1496.3493 " fill="none" id="Relation-RelationType" style="stroke:#181818;stroke-width:1.0;"/><polygon fill="#181818" points="1584.71,1417.63,1580.1372,1423.2058,1583.5252,1429.5714,1588.0981,1423.9956,1584.71,1417.63" style="stroke:#181818;stroke-width:1.0;"/><polygon fill="#181818" points="1576.31,1502.32,1581.1794,1493.7591,1576.8039,1497.3444,1573.2185,1492.9689,1576.31,1502.32" style="stroke:#181818;stroke-width:1.0;"/></g><!--link Domain to SimpleTopic--><g id="link_Domain_SimpleTopic"><path codeLine="127" d="M822.97,962.17 C791.28,992.81 752.844,1029.9799 726.454,1055.4899 " fill="none" id="Domain-to-SimpleTopic" style="stroke:#181818;stroke-width:1.0;"/><polygon fill="#181818" points="722.14,1059.66,731.391,1056.2808,725.735,1056.1849,725.8309,1050.5289,722.14,1059.66" style="stroke:#181818;stroke-width:1.0;"/><text fill="#000000" font-family="sans-serif" font-size="13" lengthAdjust="spacing" textLength="11" x="715.6835" y="1048.9821">+</text></g><!--link Domain to Domain--><g id="link_Domain_Domain"><path codeLine="128" d="M951.9889,907.5271 C971.9289,908.3871 975,912.7 975,921.5 C975,930.3 965.9344,934.8715 945.9944,935.7315 " fill="none" id="Domain-Domain" style="stroke:#181818;stroke-width:1.0;"/><polygon fill="#181818" points="940,907.01,945.8221,911.2648,951.9889,907.5271,946.1668,903.2723,940,907.01" style="stroke:#181818;stroke-width:1.0;"/><polygon fill="#181818" points="940,935.99,949.164,939.5985,944.9954,935.7746,948.8193,931.6059,940,935.99" style="stroke:#181818;stroke-width:1.0;"/><text fill="#000000" font-family="sans-serif" font-size="13" lengthAdjust="spacing" textLength="7" x="948.1984" y="933.8055">*</text></g><!--link Domain to Document--><g id="link_Domain_Document"><path codeLine="129" d="M778.8419,966.9807 C772.8819,969.6407 777.86,967.26 772,969.5 C735.5,983.47 724.15,979.87 687,992 C657.97,1001.48 650.33,1003.37 623,1017 C607.37,1024.79 596.1883,1031.0291 581.1483,1040.2291 " fill="none" id="Domain-Document" style="stroke:#181818;stroke-width:1.0;"/><polygon fill="none" points="789.8,962.09,782.6907,960.8826,778.8419,966.9807,785.9512,968.1881,789.8,962.09" style="stroke:#181818;stroke-width:1.0;"/><polygon fill="#181818" points="576.03,1043.36,585.7948,1042.0759,580.2953,1040.7509,581.6202,1035.2514,576.03,1043.36" style="stroke:#181818;stroke-width:1.0;"/><text fill="#000000" font-family="sans-serif" font-size="13" lengthAdjust="spacing" textLength="79" x="688" y="1005.0669">requirement</text><text fill="#000000" font-family="sans-serif" font-size="13" lengthAdjust="spacing" textLength="11" x="574.0615" y="1032.4983">+</text></g><!--link Application to Domain--><g id="link_Application_Domain"><path codeLine="134" d="M904.91,804.04 C897.6,824.85 888.6681,850.279 879.9481,875.109 " fill="none" id="Application-to-Domain" style="stroke:#181818;stroke-width:1.0;"/><polygon fill="#181818" points="877.96,880.77,884.7162,873.6038,879.6167,876.0525,877.1681,870.953,877.96,880.77" style="stroke:#181818;stroke-width:1.0;"/><text fill="#000000" font-family="sans-serif" font-size="13" lengthAdjust="spacing" textLength="7" x="872.6924" y="869.8934">*</text></g><!--reverse link Question to MultipleChoice--><g id="link_Question_MultipleChoice"><path codeLine="141" d="M1144.0174,545.5561 C1122.7474,569.2561 1105.99,587.94 1086.75,609.38 " fill="none" id="Question-backto-MultipleChoice" style="stroke:#181818;stroke-width:1.0;"/><polygon fill="none" points="1156.04,532.16,1139.552,541.5486,1148.4828,549.5637,1156.04,532.16" style="stroke:#181818;stroke-width:1.0;"/></g><!--reverse link Question to Cloze--><g id="link_Question_Cloze"><path codeLine="142" d="M1208.7156,548.0979 C1218.2056,566.1779 1221.88,573.19 1232.05,592.58 " fill="none" id="Question-backto-Cloze" style="stroke:#181818;stroke-width:1.0;"/><polygon fill="none" points="1200.35,532.16,1203.403,550.8864,1214.0283,545.3093,1200.35,532.16" style="stroke:#181818;stroke-width:1.0;"/></g><!--reverse link Question to Open--><g id="link_Question_Open"><path codeLine="143" d="M1263.905,540.2779 C1296.905,557.1079 1321.37,570.78 1356,593 C1363.73,597.96 1371.77,603.73 1379.16,609.31 " fill="none" id="Question-backto-Open" style="stroke:#181818;stroke-width:1.0;"/><polygon fill="none" points="1247.87,532.1,1261.1791,545.6229,1266.631,534.9329,1247.87,532.1" style="stroke:#181818;stroke-width:1.0;"/></g><!--link Question to Concept--><g id="link_Question_Concept"><path codeLine="144" d="M1252.08,500.99 C1343.89,504.98 1496,527.43 1496,632.5 C1496,632.5 1496,632.5 1496,1085 C1496,1125.34 1496.6338,1165.8711 1497.2138,1195.8211 " fill="none" id="Question-to-Concept" style="stroke:#181818;stroke-width:1.0;"/><polygon fill="#181818" points="1497.33,1201.82,1501.155,1192.7442,1497.2332,1196.8209,1493.1565,1192.8991,1497.33,1201.82" style="stroke:#181818;stroke-width:1.0;"/><text fill="#000000" font-family="sans-serif" font-size="13" lengthAdjust="spacing" textLength="11" x="1485.0574" y="1190.686">+</text></g><!--reverse link MultipleChoice to Option--><g id="link_MultipleChoice_Option"><path codeLine="153" d="M1071.5858,669.5709 C1075.8758,696.5309 1081.03,728.9 1085.31,755.84 " fill="none" id="MultipleChoice-backto-Option" style="stroke:#181818;stroke-width:1.0;"/><polygon fill="#181818" points="1069.7,657.72,1066.6926,664.274,1071.5858,669.5709,1074.5932,663.0169,1069.7,657.72" style="stroke:#181818;stroke-width:1.0;"/><text fill="#000000" font-family="sans-serif" font-size="13" lengthAdjust="spacing" textLength="24" x="1057.2894" y="744.811">2..n</text></g><!--reverse link MultipleChoice to Correct--><g id="link_MultipleChoice_Correct"><path codeLine="154" d="M1047.9917,668.5072 C1040.4317,683.7272 1036.92,693.58 1033,713 C1019.71,778.91 1030.03,858.91 1036.61,897.5 " fill="none" id="MultipleChoice-backto-Correct" style="stroke:#181818;stroke-width:1.0;"/><polygon fill="#181818" points="1053.33,657.76,1047.0784,661.3542,1047.9917,668.5072,1054.2433,664.913,1053.33,657.76" style="stroke:#181818;stroke-width:1.0;"/></g><!--reverse link MultipleChoice to Incorrect--><g id="link_MultipleChoice_Incorrect"><path codeLine="155" d="M1108.1592,665.0822 C1125.3092,679.0322 1135.54,690.82 1146,713 C1175,774.48 1171.11,857.57 1167,897.37 " fill="none" id="MultipleChoice-backto-Incorrect" style="stroke:#181818;stroke-width:1.0;"/><polygon fill="#181818" points="1098.85,657.51,1100.9805,664.3992,1108.1592,665.0822,1106.0287,658.193,1098.85,657.51" style="stroke:#181818;stroke-width:1.0;"/><text fill="#000000" font-family="sans-serif" font-size="13" lengthAdjust="spacing" textLength="24" x="1140.6938" y="886.3487">1..n</text></g><!--reverse link Option to Incorrect--><g id="link_Option_Incorrect"><path codeLine="158" d="M1109.9072,819.892 C1123.8072,845.732 1137.69,871.57 1151.6,897.43 " fill="none" id="Option-backto-Incorrect" style="stroke:#181818;stroke-width:1.0;"/><polygon fill="none" points="1101.38,804.04,1104.6232,822.7344,1115.1912,817.0496,1101.38,804.04" style="stroke:#181818;stroke-width:1.0;"/></g><!--reverse link Option to Correct--><g id="link_Option_Correct"><path codeLine="159" d="M1075.2141,821.0608 C1066.3241,846.9008 1057.84,871.57 1048.94,897.43 " fill="none" id="Option-backto-Correct" style="stroke:#181818;stroke-width:1.0;"/><polygon fill="none" points="1081.07,804.04,1069.5405,819.1089,1080.8878,823.0128,1081.07,804.04" style="stroke:#181818;stroke-width:1.0;"/></g><!--SRC=[ZLPBRzGm4BxdLvZjhIWhmJ52IDMsXqKWIhi5eQf2tcIQMYHsQZijfUn_P_o87-bIkeVTv9kPRvuUxqaprbGpmKyxgg-5xCbXUNdGIW1-LRudYzSBSg505YVFwzM2Q-1wkH43gr-glDQCWwJoWLHaaD30DRutUwn55jBXOYz3FIej-l_vDjQt8oYZyMDBjGRviFpYWPSO7ukUiXTfdejkV0bhBUGmgkNA_XG5tIejQQs3FNai27vAeoW11HNP2j41vHw7EzgDL4FpH59BCFWnVg7C_CnDdeh4FPOK8TlsNH6YUFUdB0av6eQEkMnceYEkxj4YW2McPZa2SbZwodp0Lh5hJrDTlb9UO-apl2gAkgDAUSwOl-qwndQk9UCjHkSKhA_Gn5X1utuovhI7rDB8NE0ReFKDnXcHSpqsw6YAmYiu9ZJriDTwB4oLt3DEQldUP7Wg1VPNgKbtUW-zX8uE2feDww4YvjlZ0yWQYMWBAz4F7M2BAhB6l5lRZS1JxZj7axUilkIPyXK3hN-Yho0xw5Xxe-reObx6pZ76WsRPh6HdlwD4b7vXk2LWfQ4L5djCx2pWocqo5OffS8OpwJapTPYBmYmTYthiRRDYj3cXBu0hWZR8vHKM8JBkKjk9BxFQV3yzgO9eyp108cncHyZb5tXCe9cb5GCV-mnE_6tWb_x6zCswnzQe8zvSd7rKGVgLDI32sz7OCF4qYwHeQT4JEBOhx1zUm_1C7LEYMOLdhSy6ov3xkTfs8ppc3gmqPxOGzjSIxetAGcb_yiETabbLP6jmhVaOZyqzm-ogsA-3KtM6vzCUdee8oLfS-Ec8189iIFQlPpyDqUIVMx09EiaUZ5v3I6cr0cX8fqmgegbiGUSQ8Ry9cGrZ2YTvuLQCmwQKg1aDfKid8SNM7DSbqnJ3YROjRfKsskwAk4dTdUgSbkGEf7Ab_-gU7Do0gYKRRB7Y1lEcq_oboyABaarXRsuF9-FljcWui1MHS3io2Nro1oJtdWdJN3qH8JCNOVhd_pJ8mGDqdRZF3i5qSSMQcu_Ik4_wR5_7jaycRaD-6ZlDCEtLZM2-uhd2gXE_z-6V1-0vF1Lbtx4p9276acmxod-knCXrHHZNCy4t8HjbzsmMVCANHvqETIun3LoyNIxv0kCDu_DKnsmESsZ-HV76KgovFrkp-ocXTe-kGb5zBbcbD66RpQ74tQxu2m00]--></g></svg>
