<?xml version="1.0" encoding="UTF-8" standalone="no"?><svg xmlns="http://www.w3.org/2000/svg" xmlns:xlink="http://www.w3.org/1999/xlink" contentStyleType="text/css" height="1325px" preserveAspectRatio="none" style="width:966px;height:1325px;background:#FFFFFF;" version="1.1" viewBox="0 0 966 1325" width="966px" zoomAndPan="magnify"><defs/><g><!--class Topic--><g id="elem_Topic"><rect codeLine="1" fill="#F1F1F1" height="97.4648" id="Topic" rx="2.5" ry="2.5" style="stroke:#181818;stroke-width:0.5;" width="174" x="128.31" y="508"/><ellipse cx="192.06" cy="524" fill="#B4A7E5" rx="11" ry="11" style="stroke:#181818;stroke-width:1.0;"/><path d="M188.4877,520.2651 L188.4877,518.1069 L195.8671,518.1069 L195.8671,520.2651 L193.4018,520.2651 L193.4018,528.3418 L195.8671,528.3418 L195.8671,530.5 L188.4877,530.5 L188.4877,528.3418 L190.9531,528.3418 L190.9531,520.2651 Z " fill="#000000"/><text fill="#000000" font-family="sans-serif" font-size="14" font-style="italic" lengthAdjust="spacing" textLength="38" x="212.56" y="529.291">Topic</text><line style="stroke:#181818;stroke-width:0.5;" x1="129.31" x2="301.31" y1="540" y2="540"/><line style="stroke:#181818;stroke-width:0.5;" x1="129.31" x2="301.31" y1="548" y2="548"/><ellipse cx="139.31" cy="561.7441" fill="#84BE84" rx="3" ry="3" style="stroke:#038048;stroke-width:1.0;"/><text fill="#000000" font-family="sans-serif" font-size="14" lengthAdjust="spacing" textLength="148" x="148.31" y="565.5352">getTableOfContents()</text><ellipse cx="139.31" cy="578.2324" fill="#84BE84" rx="3" ry="3" style="stroke:#038048;stroke-width:1.0;"/><text fill="#000000" font-family="sans-serif" font-size="14" lengthAdjust="spacing" textLength="36" x="148.31" y="582.0234">Edit()</text><ellipse cx="139.31" cy="594.7207" fill="#84BE84" rx="3" ry="3" style="stroke:#038048;stroke-width:1.0;"/><text fill="#000000" font-family="sans-serif" font-size="14" lengthAdjust="spacing" textLength="44" x="148.31" y="598.5117">Read()</text></g><!--class UnitaryTopic--><g id="elem_UnitaryTopic"><rect codeLine="8" fill="#F1F1F1" height="64.4883" id="UnitaryTopic" rx="2.5" ry="2.5" style="stroke:#181818;stroke-width:0.5;" width="142" x="333.31" y="682.46"/><ellipse cx="358.66" cy="698.46" fill="#ADD1B2" rx="11" ry="11" style="stroke:#181818;stroke-width:1.0;"/><path d="M361.1331,704.6031 Q360.5521,704.9019 359.9129,705.0513 Q359.2738,705.2007 358.5682,705.2007 Q356.0614,705.2007 354.7415,703.5489 Q353.4217,701.897 353.4217,698.7759 Q353.4217,695.6465 354.7415,693.9947 Q356.0614,692.3428 358.5682,692.3428 Q359.2738,692.3428 359.9212,692.4922 Q360.5687,692.6416 361.1331,692.9405 L361.1331,695.6631 Q360.5023,695.0821 359.9088,694.8123 Q359.3153,694.5425 358.6844,694.5425 Q357.3397,694.5425 356.6549,695.6092 Q355.9701,696.6758 355.9701,698.7759 Q355.9701,700.8677 356.6549,701.9344 Q357.3397,703.001 358.6844,703.001 Q359.3153,703.001 359.9088,702.7312 Q360.5023,702.4615 361.1331,701.8804 Z " fill="#000000"/><text fill="#000000" font-family="sans-serif" font-size="14" lengthAdjust="spacing" textLength="87" x="374.96" y="703.751">UnitaryTopic</text><line style="stroke:#181818;stroke-width:0.5;" x1="334.31" x2="474.31" y1="714.46" y2="714.46"/><rect fill="none" height="6" style="stroke:#C82930;stroke-width:1.0;" width="6" x="341.31" y="725.2041"/><text fill="#000000" font-family="sans-serif" font-size="14" lengthAdjust="spacing" textLength="116" x="353.31" y="731.9952">TableOfContents</text><line style="stroke:#181818;stroke-width:0.5;" x1="334.31" x2="474.31" y1="738.9483" y2="738.9483"/></g><!--class CompositeTopic--><g id="elem_CompositeTopic"><rect codeLine="13" fill="#F1F1F1" height="64.4883" id="CompositeTopic" rx="2.5" ry="2.5" style="stroke:#181818;stroke-width:0.5;" width="162" x="134.31" y="682.46"/><ellipse cx="157.41" cy="698.46" fill="#ADD1B2" rx="11" ry="11" style="stroke:#181818;stroke-width:1.0;"/><path d="M159.8831,704.6031 Q159.3021,704.9019 158.6629,705.0513 Q158.0238,705.2007 157.3182,705.2007 Q154.8114,705.2007 153.4915,703.5489 Q152.1717,701.897 152.1717,698.7759 Q152.1717,695.6465 153.4915,693.9947 Q154.8114,692.3428 157.3182,692.3428 Q158.0238,692.3428 158.6712,692.4922 Q159.3187,692.6416 159.8831,692.9405 L159.8831,695.6631 Q159.2523,695.0821 158.6588,694.8123 Q158.0653,694.5425 157.4344,694.5425 Q156.0897,694.5425 155.4049,695.6092 Q154.7201,696.6758 154.7201,698.7759 Q154.7201,700.8677 155.4049,701.9344 Q156.0897,703.001 157.4344,703.001 Q158.0653,703.001 158.6588,702.7312 Q159.2523,702.4615 159.8831,701.8804 Z " fill="#000000"/><text fill="#000000" font-family="sans-serif" font-size="14" lengthAdjust="spacing" textLength="112" x="173.21" y="703.751">CompositeTopic</text><line style="stroke:#181818;stroke-width:0.5;" x1="135.31" x2="295.31" y1="714.46" y2="714.46"/><rect fill="none" height="6" style="stroke:#C82930;stroke-width:1.0;" width="6" x="142.31" y="725.2041"/><text fill="#000000" font-family="sans-serif" font-size="14" lengthAdjust="spacing" textLength="136" x="154.31" y="731.9952">topics : List&lt;Topic&gt;</text><line style="stroke:#181818;stroke-width:0.5;" x1="135.31" x2="295.31" y1="738.9483" y2="738.9483"/></g><!--class EducationPlatform--><g id="elem_EducationPlatform"><rect fill="#F1F1F1" height="48" id="EducationPlatform" rx="2.5" ry="2.5" style="stroke:#181818;stroke-width:0.5;" width="158" x="242.31" y="7"/><ellipse cx="257.31" cy="23" fill="#ADD1B2" rx="11" ry="11" style="stroke:#181818;stroke-width:1.0;"/><path d="M259.7831,29.1431 Q259.2021,29.4419 258.5629,29.5913 Q257.9238,29.7407 257.2182,29.7407 Q254.7114,29.7407 253.3915,28.0889 Q252.0717,26.437 252.0717,23.3159 Q252.0717,20.1865 253.3915,18.5347 Q254.7114,16.8828 257.2182,16.8828 Q257.9238,16.8828 258.5712,17.0322 Q259.2187,17.1816 259.7831,17.4805 L259.7831,20.2031 Q259.1523,19.6221 258.5588,19.3523 Q257.9653,19.0825 257.3344,19.0825 Q255.9897,19.0825 255.3049,20.1492 Q254.6201,21.2158 254.6201,23.3159 Q254.6201,25.4077 255.3049,26.4744 Q255.9897,27.541 257.3344,27.541 Q257.9653,27.541 258.5588,27.2712 Q259.1523,27.0015 259.7831,26.4204 Z " fill="#000000"/><text fill="#000000" font-family="sans-serif" font-size="14" lengthAdjust="spacing" textLength="126" x="271.31" y="28.291">EducationPlatform</text><line style="stroke:#181818;stroke-width:0.5;" x1="243.31" x2="399.31" y1="39" y2="39"/><line style="stroke:#181818;stroke-width:0.5;" x1="243.31" x2="399.31" y1="47" y2="47"/></g><!--class Teacher--><g id="elem_Teacher"><rect fill="#F1F1F1" height="48" id="Teacher" rx="2.5" ry="2.5" style="stroke:#181818;stroke-width:0.5;" width="87" x="58.81" y="254"/><ellipse cx="73.81" cy="270" fill="#ADD1B2" rx="11" ry="11" style="stroke:#181818;stroke-width:1.0;"/><path d="M76.2831,276.1431 Q75.7021,276.4419 75.0629,276.5913 Q74.4238,276.7407 73.7182,276.7407 Q71.2114,276.7407 69.8915,275.0889 Q68.5717,273.437 68.5717,270.3159 Q68.5717,267.1865 69.8915,265.5347 Q71.2114,263.8828 73.7182,263.8828 Q74.4238,263.8828 75.0712,264.0322 Q75.7187,264.1816 76.2831,264.4805 L76.2831,267.2031 Q75.6523,266.6221 75.0588,266.3523 Q74.4653,266.0825 73.8344,266.0825 Q72.4897,266.0825 71.8049,267.1492 Q71.1201,268.2158 71.1201,270.3159 Q71.1201,272.4077 71.8049,273.4744 Q72.4897,274.541 73.8344,274.541 Q74.4653,274.541 75.0588,274.2712 Q75.6523,274.0015 76.2831,273.4204 Z " fill="#000000"/><text fill="#000000" font-family="sans-serif" font-size="14" lengthAdjust="spacing" textLength="55" x="87.81" y="275.291">Teacher</text><line style="stroke:#181818;stroke-width:0.5;" x1="59.81" x2="144.81" y1="286" y2="286"/><line style="stroke:#181818;stroke-width:0.5;" x1="59.81" x2="144.81" y1="294" y2="294"/></g><!--class Student--><g id="elem_Student"><rect fill="#F1F1F1" height="48" id="Student" rx="2.5" ry="2.5" style="stroke:#181818;stroke-width:0.5;" width="85" x="172.81" y="136"/><ellipse cx="187.81" cy="152" fill="#ADD1B2" rx="11" ry="11" style="stroke:#181818;stroke-width:1.0;"/><path d="M190.2831,158.1431 Q189.7021,158.4419 189.0629,158.5913 Q188.4238,158.7407 187.7182,158.7407 Q185.2114,158.7407 183.8915,157.0889 Q182.5717,155.437 182.5717,152.3159 Q182.5717,149.1865 183.8915,147.5347 Q185.2114,145.8828 187.7182,145.8828 Q188.4238,145.8828 189.0712,146.0322 Q189.7187,146.1816 190.2831,146.4805 L190.2831,149.2031 Q189.6523,148.6221 189.0588,148.3523 Q188.4653,148.0825 187.8344,148.0825 Q186.4897,148.0825 185.8049,149.1492 Q185.1201,150.2158 185.1201,152.3159 Q185.1201,154.4077 185.8049,155.4744 Q186.4897,156.541 187.8344,156.541 Q188.4653,156.541 189.0588,156.2712 Q189.6523,156.0015 190.2831,155.4204 Z " fill="#000000"/><text fill="#000000" font-family="sans-serif" font-size="14" lengthAdjust="spacing" textLength="53" x="201.81" y="157.291">Student</text><line style="stroke:#181818;stroke-width:0.5;" x1="173.81" x2="256.81" y1="168" y2="168"/><line style="stroke:#181818;stroke-width:0.5;" x1="173.81" x2="256.81" y1="176" y2="176"/></g><!--class Itinerary--><g id="elem_Itinerary"><rect fill="#F1F1F1" height="48" id="Itinerary" rx="2.5" ry="2.5" style="stroke:#181818;stroke-width:0.5;" width="89" x="340.81" y="136"/><ellipse cx="355.81" cy="152" fill="#ADD1B2" rx="11" ry="11" style="stroke:#181818;stroke-width:1.0;"/><path d="M358.2831,158.1431 Q357.7021,158.4419 357.0629,158.5913 Q356.4238,158.7407 355.7182,158.7407 Q353.2114,158.7407 351.8915,157.0889 Q350.5717,155.437 350.5717,152.3159 Q350.5717,149.1865 351.8915,147.5347 Q353.2114,145.8828 355.7182,145.8828 Q356.4238,145.8828 357.0712,146.0322 Q357.7187,146.1816 358.2831,146.4805 L358.2831,149.2031 Q357.6523,148.6221 357.0588,148.3523 Q356.4653,148.0825 355.8344,148.0825 Q354.4897,148.0825 353.8049,149.1492 Q353.1201,150.2158 353.1201,152.3159 Q353.1201,154.4077 353.8049,155.4744 Q354.4897,156.541 355.8344,156.541 Q356.4653,156.541 357.0588,156.2712 Q357.6523,156.0015 358.2831,155.4204 Z " fill="#000000"/><text fill="#000000" font-family="sans-serif" font-size="14" lengthAdjust="spacing" textLength="57" x="369.81" y="157.291">Itinerary</text><line style="stroke:#181818;stroke-width:0.5;" x1="341.81" x2="428.81" y1="168" y2="168"/><line style="stroke:#181818;stroke-width:0.5;" x1="341.81" x2="428.81" y1="176" y2="176"/></g><!--class Exercise--><g id="elem_Exercise"><rect fill="#F1F1F1" height="48" id="Exercise" rx="2.5" ry="2.5" style="stroke:#181818;stroke-width:0.5;" width="89" x="488.81" y="136"/><ellipse cx="503.81" cy="152" fill="#ADD1B2" rx="11" ry="11" style="stroke:#181818;stroke-width:1.0;"/><path d="M506.2831,158.1431 Q505.7021,158.4419 505.0629,158.5913 Q504.4238,158.7407 503.7182,158.7407 Q501.2114,158.7407 499.8915,157.0889 Q498.5717,155.437 498.5717,152.3159 Q498.5717,149.1865 499.8915,147.5347 Q501.2114,145.8828 503.7182,145.8828 Q504.4238,145.8828 505.0712,146.0322 Q505.7187,146.1816 506.2831,146.4805 L506.2831,149.2031 Q505.6523,148.6221 505.0588,148.3523 Q504.4653,148.0825 503.8344,148.0825 Q502.4897,148.0825 501.8049,149.1492 Q501.1201,150.2158 501.1201,152.3159 Q501.1201,154.4077 501.8049,155.4744 Q502.4897,156.541 503.8344,156.541 Q504.4653,156.541 505.0588,156.2712 Q505.6523,156.0015 506.2831,155.4204 Z " fill="#000000"/><text fill="#000000" font-family="sans-serif" font-size="14" lengthAdjust="spacing" textLength="57" x="517.81" y="157.291">Exercise</text><line style="stroke:#181818;stroke-width:0.5;" x1="489.81" x2="576.81" y1="168" y2="168"/><line style="stroke:#181818;stroke-width:0.5;" x1="489.81" x2="576.81" y1="176" y2="176"/></g><!--class Asker--><g id="elem_Asker"><rect fill="#F1F1F1" height="48" id="Asker" rx="2.5" ry="2.5" style="stroke:#181818;stroke-width:0.5;" width="71" x="612.81" y="136"/><ellipse cx="627.81" cy="152" fill="#ADD1B2" rx="11" ry="11" style="stroke:#181818;stroke-width:1.0;"/><path d="M630.2831,158.1431 Q629.7021,158.4419 629.0629,158.5913 Q628.4238,158.7407 627.7182,158.7407 Q625.2114,158.7407 623.8915,157.0889 Q622.5717,155.437 622.5717,152.3159 Q622.5717,149.1865 623.8915,147.5347 Q625.2114,145.8828 627.7182,145.8828 Q628.4238,145.8828 629.0712,146.0322 Q629.7187,146.1816 630.2831,146.4805 L630.2831,149.2031 Q629.6523,148.6221 629.0588,148.3523 Q628.4653,148.0825 627.8344,148.0825 Q626.4897,148.0825 625.8049,149.1492 Q625.1201,150.2158 625.1201,152.3159 Q625.1201,154.4077 625.8049,155.4744 Q626.4897,156.541 627.8344,156.541 Q628.4653,156.541 629.0588,156.2712 Q629.6523,156.0015 630.2831,155.4204 Z " fill="#000000"/><text fill="#000000" font-family="sans-serif" font-size="14" lengthAdjust="spacing" textLength="39" x="641.81" y="157.291">Asker</text><line style="stroke:#181818;stroke-width:0.5;" x1="613.81" x2="682.81" y1="168" y2="168"/><line style="stroke:#181818;stroke-width:0.5;" x1="613.81" x2="682.81" y1="176" y2="176"/></g><!--class DomainProblem--><g id="elem_DomainProblem"><rect fill="#F1F1F1" height="48" id="DomainProblem" rx="2.5" ry="2.5" style="stroke:#181818;stroke-width:0.5;" width="142" x="496.31" y="430"/><ellipse cx="511.31" cy="446" fill="#ADD1B2" rx="11" ry="11" style="stroke:#181818;stroke-width:1.0;"/><path d="M513.7831,452.1431 Q513.2021,452.4419 512.5629,452.5913 Q511.9238,452.7407 511.2182,452.7407 Q508.7114,452.7407 507.3915,451.0889 Q506.0717,449.437 506.0717,446.3159 Q506.0717,443.1865 507.3915,441.5347 Q508.7114,439.8828 511.2182,439.8828 Q511.9238,439.8828 512.5712,440.0322 Q513.2187,440.1816 513.7831,440.4805 L513.7831,443.2031 Q513.1523,442.6221 512.5588,442.3523 Q511.9653,442.0825 511.3344,442.0825 Q509.9897,442.0825 509.3049,443.1492 Q508.6201,444.2158 508.6201,446.3159 Q508.6201,448.4077 509.3049,449.4744 Q509.9897,450.541 511.3344,450.541 Q511.9653,450.541 512.5588,450.2712 Q513.1523,450.0015 513.7831,449.4204 Z " fill="#000000"/><text fill="#000000" font-family="sans-serif" font-size="14" lengthAdjust="spacing" textLength="110" x="525.31" y="451.291">DomainProblem</text><line style="stroke:#181818;stroke-width:0.5;" x1="497.31" x2="637.31" y1="462" y2="462"/><line style="stroke:#181818;stroke-width:0.5;" x1="497.31" x2="637.31" y1="470" y2="470"/></g><!--class Concept--><g id="elem_Concept"><rect fill="#F1F1F1" height="48" id="Concept" rx="2.5" ry="2.5" style="stroke:#181818;stroke-width:0.5;" width="89" x="519.81" y="827.95"/><ellipse cx="534.81" cy="843.95" fill="#ADD1B2" rx="11" ry="11" style="stroke:#181818;stroke-width:1.0;"/><path d="M537.2831,850.0931 Q536.7021,850.3919 536.0629,850.5413 Q535.4238,850.6907 534.7182,850.6907 Q532.2114,850.6907 530.8915,849.0389 Q529.5717,847.387 529.5717,844.2659 Q529.5717,841.1365 530.8915,839.4847 Q532.2114,837.8328 534.7182,837.8328 Q535.4238,837.8328 536.0712,837.9822 Q536.7187,838.1316 537.2831,838.4305 L537.2831,841.1531 Q536.6523,840.5721 536.0588,840.3023 Q535.4653,840.0325 534.8344,840.0325 Q533.4897,840.0325 532.8049,841.0992 Q532.1201,842.1658 532.1201,844.2659 Q532.1201,846.3577 532.8049,847.4244 Q533.4897,848.491 534.8344,848.491 Q535.4653,848.491 536.0588,848.2212 Q536.6523,847.9515 537.2831,847.3704 Z " fill="#000000"/><text fill="#000000" font-family="sans-serif" font-size="14" lengthAdjust="spacing" textLength="57" x="548.81" y="849.241">Concept</text><line style="stroke:#181818;stroke-width:0.5;" x1="520.81" x2="607.81" y1="859.95" y2="859.95"/><line style="stroke:#181818;stroke-width:0.5;" x1="520.81" x2="607.81" y1="867.95" y2="867.95"/></g><!--class Custom--><g id="elem_Custom"><rect fill="#F1F1F1" height="48" id="Custom" rx="2.5" ry="2.5" style="stroke:#181818;stroke-width:0.5;" width="85" x="288.81" y="352"/><ellipse cx="303.81" cy="368" fill="#ADD1B2" rx="11" ry="11" style="stroke:#181818;stroke-width:1.0;"/><path d="M306.2831,374.1431 Q305.7021,374.4419 305.0629,374.5913 Q304.4238,374.7407 303.7182,374.7407 Q301.2114,374.7407 299.8915,373.0889 Q298.5717,371.437 298.5717,368.3159 Q298.5717,365.1865 299.8915,363.5347 Q301.2114,361.8828 303.7182,361.8828 Q304.4238,361.8828 305.0712,362.0322 Q305.7187,362.1816 306.2831,362.4805 L306.2831,365.2031 Q305.6523,364.6221 305.0588,364.3523 Q304.4653,364.0825 303.8344,364.0825 Q302.4897,364.0825 301.8049,365.1492 Q301.1201,366.2158 301.1201,368.3159 Q301.1201,370.4077 301.8049,371.4744 Q302.4897,372.541 303.8344,372.541 Q304.4653,372.541 305.0588,372.2712 Q305.6523,372.0015 306.2831,371.4204 Z " fill="#000000"/><text fill="#000000" font-family="sans-serif" font-size="14" lengthAdjust="spacing" textLength="53" x="317.81" y="373.291">Custom</text><line style="stroke:#181818;stroke-width:0.5;" x1="289.81" x2="372.81" y1="384" y2="384"/><line style="stroke:#181818;stroke-width:0.5;" x1="289.81" x2="372.81" y1="392" y2="392"/></g><!--class Predefined--><g id="elem_Predefined"><rect fill="#F1F1F1" height="48" id="Predefined" rx="2.5" ry="2.5" style="stroke:#181818;stroke-width:0.5;" width="106" x="409.31" y="352"/><ellipse cx="424.31" cy="368" fill="#ADD1B2" rx="11" ry="11" style="stroke:#181818;stroke-width:1.0;"/><path d="M426.7831,374.1431 Q426.2021,374.4419 425.5629,374.5913 Q424.9238,374.7407 424.2182,374.7407 Q421.7114,374.7407 420.3915,373.0889 Q419.0717,371.437 419.0717,368.3159 Q419.0717,365.1865 420.3915,363.5347 Q421.7114,361.8828 424.2182,361.8828 Q424.9238,361.8828 425.5712,362.0322 Q426.2187,362.1816 426.7831,362.4805 L426.7831,365.2031 Q426.1523,364.6221 425.5588,364.3523 Q424.9653,364.0825 424.3344,364.0825 Q422.9897,364.0825 422.3049,365.1492 Q421.6201,366.2158 421.6201,368.3159 Q421.6201,370.4077 422.3049,371.4744 Q422.9897,372.541 424.3344,372.541 Q424.9653,372.541 425.5588,372.2712 Q426.1523,372.0015 426.7831,371.4204 Z " fill="#000000"/><text fill="#000000" font-family="sans-serif" font-size="14" lengthAdjust="spacing" textLength="74" x="438.31" y="373.291">Predefined</text><line style="stroke:#181818;stroke-width:0.5;" x1="410.31" x2="514.31" y1="384" y2="384"/><line style="stroke:#181818;stroke-width:0.5;" x1="410.31" x2="514.31" y1="392" y2="392"/></g><!--class Multimedia--><g id="elem_Multimedia"><rect fill="#F1F1F1" height="48" id="Multimedia" rx="2.5" ry="2.5" style="stroke:#181818;stroke-width:0.5;" width="108" x="350.31" y="827.95"/><ellipse cx="365.31" cy="843.95" fill="#ADD1B2" rx="11" ry="11" style="stroke:#181818;stroke-width:1.0;"/><path d="M367.7831,850.0931 Q367.2021,850.3919 366.5629,850.5413 Q365.9238,850.6907 365.2182,850.6907 Q362.7114,850.6907 361.3915,849.0389 Q360.0717,847.387 360.0717,844.2659 Q360.0717,841.1365 361.3915,839.4847 Q362.7114,837.8328 365.2182,837.8328 Q365.9238,837.8328 366.5712,837.9822 Q367.2187,838.1316 367.7831,838.4305 L367.7831,841.1531 Q367.1523,840.5721 366.5588,840.3023 Q365.9653,840.0325 365.3344,840.0325 Q363.9897,840.0325 363.3049,841.0992 Q362.6201,842.1658 362.6201,844.2659 Q362.6201,846.3577 363.3049,847.4244 Q363.9897,848.491 365.3344,848.491 Q365.9653,848.491 366.5588,848.2212 Q367.1523,847.9515 367.7831,847.3704 Z " fill="#000000"/><text fill="#000000" font-family="sans-serif" font-size="14" lengthAdjust="spacing" textLength="76" x="379.31" y="849.241">Multimedia</text><line style="stroke:#181818;stroke-width:0.5;" x1="351.31" x2="457.31" y1="859.95" y2="859.95"/><line style="stroke:#181818;stroke-width:0.5;" x1="351.31" x2="457.31" y1="867.95" y2="867.95"/></g><!--class Definition--><g id="elem_Definition"><rect fill="#F1F1F1" height="48" id="Definition" rx="2.5" ry="2.5" style="stroke:#181818;stroke-width:0.5;" width="99" x="640.81" y="976.95"/><ellipse cx="655.81" cy="992.95" fill="#ADD1B2" rx="11" ry="11" style="stroke:#181818;stroke-width:1.0;"/><path d="M658.2831,999.0931 Q657.7021,999.3919 657.0629,999.5413 Q656.4238,999.6907 655.7182,999.6907 Q653.2114,999.6907 651.8915,998.0389 Q650.5717,996.387 650.5717,993.2659 Q650.5717,990.1365 651.8915,988.4847 Q653.2114,986.8328 655.7182,986.8328 Q656.4238,986.8328 657.0712,986.9822 Q657.7187,987.1316 658.2831,987.4305 L658.2831,990.1531 Q657.6523,989.5721 657.0588,989.3023 Q656.4653,989.0325 655.8344,989.0325 Q654.4897,989.0325 653.8049,990.0992 Q653.1201,991.1658 653.1201,993.2659 Q653.1201,995.3577 653.8049,996.4244 Q654.4897,997.491 655.8344,997.491 Q656.4653,997.491 657.0588,997.2212 Q657.6523,996.9515 658.2831,996.3704 Z " fill="#000000"/><text fill="#000000" font-family="sans-serif" font-size="14" lengthAdjust="spacing" textLength="67" x="669.81" y="998.241">Definition</text><line style="stroke:#181818;stroke-width:0.5;" x1="641.81" x2="738.81" y1="1008.95" y2="1008.95"/><line style="stroke:#181818;stroke-width:0.5;" x1="641.81" x2="738.81" y1="1016.95" y2="1016.95"/></g><!--class Relation--><g id="elem_Relation"><rect fill="#F1F1F1" height="48" id="Relation" rx="2.5" ry="2.5" style="stroke:#181818;stroke-width:0.5;" width="88" x="561.31" y="1141.95"/><ellipse cx="576.31" cy="1157.95" fill="#ADD1B2" rx="11" ry="11" style="stroke:#181818;stroke-width:1.0;"/><path d="M578.7831,1164.0931 Q578.2021,1164.3919 577.5629,1164.5413 Q576.9238,1164.6907 576.2182,1164.6907 Q573.7114,1164.6907 572.3915,1163.0389 Q571.0717,1161.387 571.0717,1158.2659 Q571.0717,1155.1365 572.3915,1153.4847 Q573.7114,1151.8328 576.2182,1151.8328 Q576.9238,1151.8328 577.5712,1151.9822 Q578.2187,1152.1316 578.7831,1152.4305 L578.7831,1155.1531 Q578.1523,1154.5721 577.5588,1154.3023 Q576.9653,1154.0325 576.3344,1154.0325 Q574.9897,1154.0325 574.3049,1155.0992 Q573.6201,1156.1658 573.6201,1158.2659 Q573.6201,1160.3577 574.3049,1161.4244 Q574.9897,1162.491 576.3344,1162.491 Q576.9653,1162.491 577.5588,1162.2212 Q578.1523,1161.9515 578.7831,1161.3704 Z " fill="#000000"/><text fill="#000000" font-family="sans-serif" font-size="14" lengthAdjust="spacing" textLength="56" x="590.31" y="1163.241">Relation</text><line style="stroke:#181818;stroke-width:0.5;" x1="562.31" x2="648.31" y1="1173.95" y2="1173.95"/><line style="stroke:#181818;stroke-width:0.5;" x1="562.31" x2="648.31" y1="1181.95" y2="1181.95"/></g><!--class Use--><g id="elem_Use"><rect fill="#F1F1F1" height="48" id="Use" rx="2.5" ry="2.5" style="stroke:#181818;stroke-width:0.5;" width="57" x="312.81" y="1270.95"/><ellipse cx="327.81" cy="1286.95" fill="#ADD1B2" rx="11" ry="11" style="stroke:#181818;stroke-width:1.0;"/><path d="M330.2831,1293.0931 Q329.7021,1293.3919 329.0629,1293.5413 Q328.4238,1293.6907 327.7182,1293.6907 Q325.2114,1293.6907 323.8915,1292.0389 Q322.5717,1290.387 322.5717,1287.2659 Q322.5717,1284.1365 323.8915,1282.4847 Q325.2114,1280.8328 327.7182,1280.8328 Q328.4238,1280.8328 329.0712,1280.9822 Q329.7187,1281.1316 330.2831,1281.4305 L330.2831,1284.1531 Q329.6523,1283.5721 329.0588,1283.3023 Q328.4653,1283.0325 327.8344,1283.0325 Q326.4897,1283.0325 325.8049,1284.0992 Q325.1201,1285.1658 325.1201,1287.2659 Q325.1201,1289.3577 325.8049,1290.4244 Q326.4897,1291.491 327.8344,1291.491 Q328.4653,1291.491 329.0588,1291.2212 Q329.6523,1290.9515 330.2831,1290.3704 Z " fill="#000000"/><text fill="#000000" font-family="sans-serif" font-size="14" lengthAdjust="spacing" textLength="25" x="341.81" y="1292.241">Use</text><line style="stroke:#181818;stroke-width:0.5;" x1="313.81" x2="368.81" y1="1302.95" y2="1302.95"/><line style="stroke:#181818;stroke-width:0.5;" x1="313.81" x2="368.81" y1="1310.95" y2="1310.95"/></g><!--class Association--><g id="elem_Association"><rect fill="#F1F1F1" height="48" id="Association" rx="2.5" ry="2.5" style="stroke:#181818;stroke-width:0.5;" width="111" x="404.81" y="1270.95"/><ellipse cx="419.81" cy="1286.95" fill="#ADD1B2" rx="11" ry="11" style="stroke:#181818;stroke-width:1.0;"/><path d="M422.2831,1293.0931 Q421.7021,1293.3919 421.0629,1293.5413 Q420.4238,1293.6907 419.7182,1293.6907 Q417.2114,1293.6907 415.8915,1292.0389 Q414.5717,1290.387 414.5717,1287.2659 Q414.5717,1284.1365 415.8915,1282.4847 Q417.2114,1280.8328 419.7182,1280.8328 Q420.4238,1280.8328 421.0712,1280.9822 Q421.7187,1281.1316 422.2831,1281.4305 L422.2831,1284.1531 Q421.6523,1283.5721 421.0588,1283.3023 Q420.4653,1283.0325 419.8344,1283.0325 Q418.4897,1283.0325 417.8049,1284.0992 Q417.1201,1285.1658 417.1201,1287.2659 Q417.1201,1289.3577 417.8049,1290.4244 Q418.4897,1291.491 419.8344,1291.491 Q420.4653,1291.491 421.0588,1291.2212 Q421.6523,1290.9515 422.2831,1290.3704 Z " fill="#000000"/><text fill="#000000" font-family="sans-serif" font-size="14" lengthAdjust="spacing" textLength="79" x="433.81" y="1292.241">Association</text><line style="stroke:#181818;stroke-width:0.5;" x1="405.81" x2="514.81" y1="1302.95" y2="1302.95"/><line style="stroke:#181818;stroke-width:0.5;" x1="405.81" x2="514.81" y1="1310.95" y2="1310.95"/></g><!--class Agregation--><g id="elem_Agregation"><rect fill="#F1F1F1" height="48" id="Agregation" rx="2.5" ry="2.5" style="stroke:#181818;stroke-width:0.5;" width="109" x="550.81" y="1270.95"/><ellipse cx="565.81" cy="1286.95" fill="#ADD1B2" rx="11" ry="11" style="stroke:#181818;stroke-width:1.0;"/><path d="M568.2831,1293.0931 Q567.7021,1293.3919 567.0629,1293.5413 Q566.4238,1293.6907 565.7182,1293.6907 Q563.2114,1293.6907 561.8915,1292.0389 Q560.5717,1290.387 560.5717,1287.2659 Q560.5717,1284.1365 561.8915,1282.4847 Q563.2114,1280.8328 565.7182,1280.8328 Q566.4238,1280.8328 567.0712,1280.9822 Q567.7187,1281.1316 568.2831,1281.4305 L568.2831,1284.1531 Q567.6523,1283.5721 567.0588,1283.3023 Q566.4653,1283.0325 565.8344,1283.0325 Q564.4897,1283.0325 563.8049,1284.0992 Q563.1201,1285.1658 563.1201,1287.2659 Q563.1201,1289.3577 563.8049,1290.4244 Q564.4897,1291.491 565.8344,1291.491 Q566.4653,1291.491 567.0588,1291.2212 Q567.6523,1290.9515 568.2831,1290.3704 Z " fill="#000000"/><text fill="#000000" font-family="sans-serif" font-size="14" lengthAdjust="spacing" textLength="77" x="579.81" y="1292.241">Agregation</text><line style="stroke:#181818;stroke-width:0.5;" x1="551.81" x2="658.81" y1="1302.95" y2="1302.95"/><line style="stroke:#181818;stroke-width:0.5;" x1="551.81" x2="658.81" y1="1310.95" y2="1310.95"/></g><!--class Composition--><g id="elem_Composition"><rect fill="#F1F1F1" height="48" id="Composition" rx="2.5" ry="2.5" style="stroke:#181818;stroke-width:0.5;" width="120" x="695.31" y="1270.95"/><ellipse cx="710.31" cy="1286.95" fill="#ADD1B2" rx="11" ry="11" style="stroke:#181818;stroke-width:1.0;"/><path d="M712.7831,1293.0931 Q712.2021,1293.3919 711.5629,1293.5413 Q710.9238,1293.6907 710.2182,1293.6907 Q707.7114,1293.6907 706.3915,1292.0389 Q705.0717,1290.387 705.0717,1287.2659 Q705.0717,1284.1365 706.3915,1282.4847 Q707.7114,1280.8328 710.2182,1280.8328 Q710.9238,1280.8328 711.5712,1280.9822 Q712.2187,1281.1316 712.7831,1281.4305 L712.7831,1284.1531 Q712.1523,1283.5721 711.5588,1283.3023 Q710.9653,1283.0325 710.3344,1283.0325 Q708.9897,1283.0325 708.3049,1284.0992 Q707.6201,1285.1658 707.6201,1287.2659 Q707.6201,1289.3577 708.3049,1290.4244 Q708.9897,1291.491 710.3344,1291.491 Q710.9653,1291.491 711.5588,1291.2212 Q712.1523,1290.9515 712.7831,1290.3704 Z " fill="#000000"/><text fill="#000000" font-family="sans-serif" font-size="14" lengthAdjust="spacing" textLength="88" x="724.31" y="1292.241">Composition</text><line style="stroke:#181818;stroke-width:0.5;" x1="696.31" x2="814.31" y1="1302.95" y2="1302.95"/><line style="stroke:#181818;stroke-width:0.5;" x1="696.31" x2="814.31" y1="1310.95" y2="1310.95"/></g><!--class Inheritance--><g id="elem_Inheritance"><rect fill="#F1F1F1" height="48" id="Inheritance" rx="2.5" ry="2.5" style="stroke:#181818;stroke-width:0.5;" width="109" x="850.81" y="1270.95"/><ellipse cx="865.81" cy="1286.95" fill="#ADD1B2" rx="11" ry="11" style="stroke:#181818;stroke-width:1.0;"/><path d="M868.2831,1293.0931 Q867.7021,1293.3919 867.0629,1293.5413 Q866.4238,1293.6907 865.7182,1293.6907 Q863.2114,1293.6907 861.8915,1292.0389 Q860.5717,1290.387 860.5717,1287.2659 Q860.5717,1284.1365 861.8915,1282.4847 Q863.2114,1280.8328 865.7182,1280.8328 Q866.4238,1280.8328 867.0712,1280.9822 Q867.7187,1281.1316 868.2831,1281.4305 L868.2831,1284.1531 Q867.6523,1283.5721 867.0588,1283.3023 Q866.4653,1283.0325 865.8344,1283.0325 Q864.4897,1283.0325 863.8049,1284.0992 Q863.1201,1285.1658 863.1201,1287.2659 Q863.1201,1289.3577 863.8049,1290.4244 Q864.4897,1291.491 865.8344,1291.491 Q866.4653,1291.491 867.0588,1291.2212 Q867.6523,1290.9515 868.2831,1290.3704 Z " fill="#000000"/><text fill="#000000" font-family="sans-serif" font-size="14" lengthAdjust="spacing" textLength="77" x="879.81" y="1292.241">Inheritance</text><line style="stroke:#181818;stroke-width:0.5;" x1="851.81" x2="958.81" y1="1302.95" y2="1302.95"/><line style="stroke:#181818;stroke-width:0.5;" x1="851.81" x2="958.81" y1="1310.95" y2="1310.95"/></g><!--class Podcast--><g id="elem_Podcast"><rect fill="#F1F1F1" height="48" id="Podcast" rx="2.5" ry="2.5" style="stroke:#181818;stroke-width:0.5;" width="85" x="248.81" y="976.95"/><ellipse cx="263.81" cy="992.95" fill="#ADD1B2" rx="11" ry="11" style="stroke:#181818;stroke-width:1.0;"/><path d="M266.2831,999.0931 Q265.7021,999.3919 265.0629,999.5413 Q264.4238,999.6907 263.7182,999.6907 Q261.2114,999.6907 259.8915,998.0389 Q258.5717,996.387 258.5717,993.2659 Q258.5717,990.1365 259.8915,988.4847 Q261.2114,986.8328 263.7182,986.8328 Q264.4238,986.8328 265.0712,986.9822 Q265.7187,987.1316 266.2831,987.4305 L266.2831,990.1531 Q265.6523,989.5721 265.0588,989.3023 Q264.4653,989.0325 263.8344,989.0325 Q262.4897,989.0325 261.8049,990.0992 Q261.1201,991.1658 261.1201,993.2659 Q261.1201,995.3577 261.8049,996.4244 Q262.4897,997.491 263.8344,997.491 Q264.4653,997.491 265.0588,997.2212 Q265.6523,996.9515 266.2831,996.3704 Z " fill="#000000"/><text fill="#000000" font-family="sans-serif" font-size="14" lengthAdjust="spacing" textLength="53" x="277.81" y="998.241">Podcast</text><line style="stroke:#181818;stroke-width:0.5;" x1="249.81" x2="332.81" y1="1008.95" y2="1008.95"/><line style="stroke:#181818;stroke-width:0.5;" x1="249.81" x2="332.81" y1="1016.95" y2="1016.95"/></g><!--class Video--><g id="elem_Video"><rect fill="#F1F1F1" height="48" id="Video" rx="2.5" ry="2.5" style="stroke:#181818;stroke-width:0.5;" width="71" x="368.81" y="976.95"/><ellipse cx="383.81" cy="992.95" fill="#ADD1B2" rx="11" ry="11" style="stroke:#181818;stroke-width:1.0;"/><path d="M386.2831,999.0931 Q385.7021,999.3919 385.0629,999.5413 Q384.4238,999.6907 383.7182,999.6907 Q381.2114,999.6907 379.8915,998.0389 Q378.5717,996.387 378.5717,993.2659 Q378.5717,990.1365 379.8915,988.4847 Q381.2114,986.8328 383.7182,986.8328 Q384.4238,986.8328 385.0712,986.9822 Q385.7187,987.1316 386.2831,987.4305 L386.2831,990.1531 Q385.6523,989.5721 385.0588,989.3023 Q384.4653,989.0325 383.8344,989.0325 Q382.4897,989.0325 381.8049,990.0992 Q381.1201,991.1658 381.1201,993.2659 Q381.1201,995.3577 381.8049,996.4244 Q382.4897,997.491 383.8344,997.491 Q384.4653,997.491 385.0588,997.2212 Q385.6523,996.9515 386.2831,996.3704 Z " fill="#000000"/><text fill="#000000" font-family="sans-serif" font-size="14" lengthAdjust="spacing" textLength="39" x="397.81" y="998.241">Video</text><line style="stroke:#181818;stroke-width:0.5;" x1="369.81" x2="438.81" y1="1008.95" y2="1008.95"/><line style="stroke:#181818;stroke-width:0.5;" x1="369.81" x2="438.81" y1="1016.95" y2="1016.95"/></g><!--class Document--><g id="elem_Document"><rect fill="#F1F1F1" height="48" id="Document" rx="2.5" ry="2.5" style="stroke:#181818;stroke-width:0.5;" width="102" x="353.31" y="1141.95"/><ellipse cx="368.31" cy="1157.95" fill="#ADD1B2" rx="11" ry="11" style="stroke:#181818;stroke-width:1.0;"/><path d="M370.7831,1164.0931 Q370.2021,1164.3919 369.5629,1164.5413 Q368.9238,1164.6907 368.2182,1164.6907 Q365.7114,1164.6907 364.3915,1163.0389 Q363.0717,1161.387 363.0717,1158.2659 Q363.0717,1155.1365 364.3915,1153.4847 Q365.7114,1151.8328 368.2182,1151.8328 Q368.9238,1151.8328 369.5712,1151.9822 Q370.2187,1152.1316 370.7831,1152.4305 L370.7831,1155.1531 Q370.1523,1154.5721 369.5588,1154.3023 Q368.9653,1154.0325 368.3344,1154.0325 Q366.9897,1154.0325 366.3049,1155.0992 Q365.6201,1156.1658 365.6201,1158.2659 Q365.6201,1160.3577 366.3049,1161.4244 Q366.9897,1162.491 368.3344,1162.491 Q368.9653,1162.491 369.5588,1162.2212 Q370.1523,1161.9515 370.7831,1161.3704 Z " fill="#000000"/><text fill="#000000" font-family="sans-serif" font-size="14" lengthAdjust="spacing" textLength="70" x="382.31" y="1163.241">Document</text><line style="stroke:#181818;stroke-width:0.5;" x1="354.31" x2="454.31" y1="1173.95" y2="1173.95"/><line style="stroke:#181818;stroke-width:0.5;" x1="354.31" x2="454.31" y1="1181.95" y2="1181.95"/></g><!--link EducationPlatform to Teacher--><g id="link_EducationPlatform_Teacher"><path codeLine="17" d="M229.1671,52.7987 C229.1671,52.7987 155.43,85.33 131.31,116 C103.63,151.2 99.04,204.11 99.61,239.56 " fill="none" id="EducationPlatform-Teacher" style="stroke:#181818;stroke-width:1.0;"/><polygon fill="#181818" points="240.55,49,233.5923,47.1051,229.1671,52.7987,236.1248,54.6936,240.55,49" style="stroke:#181818;stroke-width:1.0;"/><polygon fill="#181818" points="100.08,252.53,103.7508,243.3908,99.8986,247.5333,95.7561,243.681,100.08,252.53" style="stroke:#181818;stroke-width:1.0;"/><line style="stroke:#181818;stroke-width:1.0;" x1="99.8986" x2="99.605" y1="247.5333" y2="239.535"/><text fill="#000000" font-family="sans-serif" font-size="13" lengthAdjust="spacing" textLength="10" x="88.2004" y="243.1952">+</text></g><!--link EducationPlatform to Student--><g id="link_EducationPlatform_Student"><path codeLine="18" d="M293.2139,65.6654 C293.2139,65.6654 258.67,107.05 243.45,125.27 " fill="none" id="EducationPlatform-Student" style="stroke:#181818;stroke-width:1.0;"/><polygon fill="#181818" points="300.9,56.45,293.9851,58.4957,293.2139,65.6654,300.1288,63.6197,300.9,56.45" style="stroke:#181818;stroke-width:1.0;"/><polygon fill="#181818" points="235.24,135.12,244.0794,130.7767,238.4452,131.2825,237.9394,125.6483,235.24,135.12" style="stroke:#181818;stroke-width:1.0;"/><line style="stroke:#181818;stroke-width:1.0;" x1="238.4452" x2="243.57" y1="131.2825" y2="125.135"/><text fill="#000000" font-family="sans-serif" font-size="13" lengthAdjust="spacing" textLength="10" x="228.1963" y="125.1114">+</text></g><!--link EducationPlatform to Topic--><g id="link_EducationPlatform_Topic"><path codeLine="19" d="M228.786,47.4008 C228.786,47.4008 129.56,80.21 93.31,116 C51.43,157.33 47.02,176.78 33.31,234 C6,347.97 58.61,387.69 133.31,478 C138.8,484.64 144.83,491.3 151.05,497.77 " fill="none" id="EducationPlatform-Topic" style="stroke:#181818;stroke-width:1.0;"/><polygon fill="#181818" points="240.44,44.54,233.6594,42.0857,228.786,47.4008,235.5666,49.8551,240.44,44.54" style="stroke:#181818;stroke-width:1.0;"/><polygon fill="#181818" points="159.85,506.67,156.3645,497.4585,156.3337,503.1153,150.677,503.0845,159.85,506.67" style="stroke:#181818;stroke-width:1.0;"/><line style="stroke:#181818;stroke-width:1.0;" x1="156.3337" x2="150.705" y1="503.1153" y2="497.42"/></g><!--link EducationPlatform to Itinerary--><g id="link_EducationPlatform_Itinerary"><path codeLine="20" d="M339.1334,67.3546 C339.1334,67.3546 358.74,106.27 367.45,123.57 " fill="none" id="EducationPlatform-Itinerary" style="stroke:#181818;stroke-width:1.0;"/><polygon fill="none" points="333.73,56.64,332.8602,63.7985,339.1334,67.3546,340.0033,60.1962,333.73,56.64" style="stroke:#181818;stroke-width:1.0;"/><polygon fill="#181818" points="373.18,134.93,372.7086,125.0924,370.933,130.4634,365.562,128.6877,373.18,134.93" style="stroke:#181818;stroke-width:1.0;"/><line style="stroke:#181818;stroke-width:1.0;" x1="370.933" x2="367.325" y1="130.4634" y2="123.315"/><text fill="#000000" font-family="sans-serif" font-size="13" lengthAdjust="spacing" textLength="10" x="359.2334" y="125.1114">+</text></g><!--link EducationPlatform to Exercise--><g id="link_EducationPlatform_Exercise"><path codeLine="21" d="M377.4778,61.7922 C377.4778,61.7922 441.13,97.14 471.31,116 C477.11,119.62 483.13,123.56 489.03,127.53 " fill="none" id="EducationPlatform-Exercise" style="stroke:#181818;stroke-width:1.0;"/><polygon fill="none" points="366.93,56.07,370.2965,62.447,377.4778,61.7922,374.1113,55.4152,366.93,56.07" style="stroke:#181818;stroke-width:1.0;"/><polygon fill="#181818" points="499.63,134.78,494.4622,126.3959,495.5039,131.956,489.9438,132.9977,499.63,134.78" style="stroke:#181818;stroke-width:1.0;"/><line style="stroke:#181818;stroke-width:1.0;" x1="495.5039" x2="488.9" y1="131.956" y2="127.445"/></g><!--link EducationPlatform to Asker--><g id="link_EducationPlatform_Asker"><path codeLine="22" d="M413.7669,50.948 C413.7669,50.948 538.55,85.76 595.31,116 C601.05,119.06 606.77,122.78 612.21,126.75 " fill="none" id="EducationPlatform-Asker" style="stroke:#181818;stroke-width:1.0;"/><polygon fill="none" points="402.1,48.14,406.9974,53.4329,413.7669,50.948,408.8694,45.655,402.1,48.14" style="stroke:#181818;stroke-width:1.0;"/><polygon fill="#181818" points="622.38,134.71,617.7626,126.0106,618.4442,131.6262,612.8286,132.3079,622.38,134.71" style="stroke:#181818;stroke-width:1.0;"/><line style="stroke:#181818;stroke-width:1.0;" x1="618.4442" x2="612.145" y1="131.6262" y2="126.7"/></g><!--link Exercise to DomainProblem--><g id="link_Exercise_DomainProblem"><path codeLine="24" d="M537.5945,197.8199 C537.5945,197.8199 556.42,359.5 562.94,415.48 " fill="none" id="Exercise-DomainProblem" style="stroke:#181818;stroke-width:1.0;"/><polygon fill="none" points="536.21,185.9,532.929,192.3214,537.5945,197.8199,540.8755,191.3984,536.21,185.9" style="stroke:#181818;stroke-width:1.0;"/><polygon fill="#181818" points="564.44,428.39,567.3749,418.9886,563.8631,423.4234,559.4283,419.9116,564.44,428.39" style="stroke:#181818;stroke-width:1.0;"/><line style="stroke:#181818;stroke-width:1.0;" x1="563.8631" x2="562.94" y1="423.4234" y2="415.475"/></g><!--link DomainProblem to Concept--><g id="link_DomainProblem_Concept"><path codeLine="25" d="M567.0409,491.7997 C567.0409,491.7997 565.16,738.03 564.59,813.49 " fill="none" id="DomainProblem-Concept" style="stroke:#181818;stroke-width:1.0;"/><polygon fill="none" points="567.12,479.8,563.0805,485.7735,567.0409,491.7997,571.0804,485.8262,567.12,479.8" style="stroke:#181818;stroke-width:1.0;"/><polygon fill="#181818" points="564.5,826.18,568.5691,817.211,564.5385,821.1801,560.5693,817.1495,564.5,826.18" style="stroke:#181818;stroke-width:1.0;"/><line style="stroke:#181818;stroke-width:1.0;" x1="564.5385" x2="564.59" y1="821.1801" y2="813.175"/><text fill="#000000" font-family="sans-serif" font-size="13" lengthAdjust="spacing" textLength="52" x="566.93" y="649.0284">solution</text></g><!--link Teacher to Topic--><g id="link_Teacher_Topic"><path codeLine="27" d="M104.88,301.89 C108.16,326.67 114.95,367.06 127.31,400 C140.71,435.72 161.52,473.02 179.53,502.16 " fill="none" id="Teacher-to-Topic" style="stroke:#181818;stroke-width:1.0;stroke-dasharray:7.0,7.0;"/><polygon fill="#181818" points="182.06,506.22,180.6968,496.4659,179.4164,501.976,173.9064,500.6957,182.06,506.22" style="stroke:#181818;stroke-width:1.0;"/><text fill="#000000" font-family="sans-serif" font-size="13" lengthAdjust="spacing" textLength="37" x="128.31" y="381.0684">Editor</text></g><!--link Student to Topic--><g id="link_Student_Topic"><path codeLine="28" d="M215.31,183.93 C215.31,245.17 215.31,413.84 215.31,501.4 " fill="none" id="Student-to-Topic" style="stroke:#181818;stroke-width:1.0;stroke-dasharray:7.0,7.0;"/><polygon fill="#181818" points="215.31,506.3,219.31,497.3,215.31,501.3,211.31,497.3,215.31,506.3" style="stroke:#181818;stroke-width:1.0;"/><text fill="#000000" font-family="sans-serif" font-size="13" lengthAdjust="spacing" textLength="42" x="216.31" y="381.0684">Reader</text></g><!--reverse link Topic to CompositeTopic--><g id="link_Topic_CompositeTopic"><path codeLine="30" d="M202.26,627.03 C201.93,646.33 202.69,666.35 204.54,682.28 " fill="none" id="Topic-backto-CompositeTopic" style="stroke:#181818;stroke-width:1.0;stroke-dasharray:7.0,7.0;"/><polygon fill="none" points="195.25,627.03,203.02,607.31,209.24,627.57,195.25,627.03" style="stroke:#181818;stroke-width:1.0;"/></g><!--link CompositeTopic to Topic--><g id="link_CompositeTopic_Topic"><path codeLine="32" d="M227.3005,668.8287 C227.3005,668.8287 228.69,636.21 228.2,620.22 " fill="none" id="CompositeTopic-Topic" style="stroke:#181818;stroke-width:1.0;"/><polygon fill="none" points="226.22,680.78,230.744,675.1645,227.3005,668.8287,222.7765,674.4442,226.22,680.78" style="stroke:#181818;stroke-width:1.0;"/><polygon fill="#181818" points="227.6,607.31,224.0197,616.485,227.8308,612.3047,232.0111,616.1158,227.6,607.31" style="stroke:#181818;stroke-width:1.0;"/><line style="stroke:#181818;stroke-width:1.0;" x1="227.8308" x2="228.205" y1="612.3047" y2="620.3"/><text fill="#000000" font-family="sans-serif" font-size="13" lengthAdjust="spacing" textLength="10" x="218.5002" y="625.9905">+</text></g><!--reverse link Topic to UnitaryTopic--><g id="link_Topic_UnitaryTopic"><path codeLine="31" d="M289.85,619.25 C315.9,640.75 344.07,663.99 365.95,682.05 " fill="none" id="Topic-backto-UnitaryTopic" style="stroke:#181818;stroke-width:1.0;stroke-dasharray:7.0,7.0;"/><polygon fill="none" points="285.69,624.89,274.72,606.76,294.6,614.09,285.69,624.89" style="stroke:#181818;stroke-width:1.0;"/></g><!--reverse link Itinerary to Custom--><g id="link_Itinerary_Custom"><path codeLine="34" d="M374.33,204.49 C363.11,248.95 346.11,316.34 337.21,351.61 " fill="none" id="Itinerary-backto-Custom" style="stroke:#181818;stroke-width:1.0;"/><polygon fill="none" points="367.48,203.05,379.16,185.37,381.05,206.47,367.48,203.05" style="stroke:#181818;stroke-width:1.0;"/></g><!--reverse link Itinerary to Predefined--><g id="link_Itinerary_Predefined"><path codeLine="35" d="M400.74,203.88 C416.73,248.33 441.15,316.18 453.89,351.61 " fill="none" id="Itinerary-backto-Predefined" style="stroke:#181818;stroke-width:1.0;"/><polygon fill="none" points="394.25,206.51,394.06,185.32,407.42,201.77,394.25,206.51" style="stroke:#181818;stroke-width:1.0;"/></g><!--link Custom to Topic--><g id="link_Custom_Topic"><path codeLine="37" d="M308.795,411.7009 C308.795,411.7009 272.13,468.18 254.17,495.85 " fill="none" id="Custom-Topic" style="stroke:#181818;stroke-width:1.0;"/><polygon fill="none" points="315.32,401.63,308.7005,404.4905,308.795,411.7009,315.4145,408.8405,315.32,401.63" style="stroke:#181818;stroke-width:1.0;"/><polygon fill="#181818" points="247.22,506.55,255.474,501.1767,249.9413,502.3554,248.7626,496.8227,247.22,506.55" style="stroke:#181818;stroke-width:1.0;"/><line style="stroke:#181818;stroke-width:1.0;" x1="249.9413" x2="254.305" y1="502.3554" y2="495.645"/><text fill="#000000" font-family="sans-serif" font-size="13" lengthAdjust="spacing" textLength="6" x="244.5257" y="497.1256">*</text></g><!--link Predefined to Topic--><g id="link_Predefined_Topic"><path codeLine="38" d="M419.0726,408.2908 C419.0726,408.2908 334.69,469.34 293.45,499.19 " fill="none" id="Predefined-Topic" style="stroke:#181818;stroke-width:1.0;"/><polygon fill="none" points="428.79,401.25,421.5844,401.5313,419.0726,408.2908,426.2783,408.0095,428.79,401.25" style="stroke:#181818;stroke-width:1.0;"/><polygon fill="#181818" points="282.99,506.75,292.6281,504.7233,287.0434,503.8225,287.9442,498.2379,282.99,506.75" style="stroke:#181818;stroke-width:1.0;"/><line style="stroke:#181818;stroke-width:1.0;" x1="287.0434" x2="293.525" y1="503.8225" y2="499.13"/><text fill="#000000" font-family="sans-serif" font-size="13" lengthAdjust="spacing" textLength="6" x="284.6941" y="497.2719">*</text></g><!--link UnitaryTopic to Concept--><g id="link_UnitaryTopic_Concept"><path codeLine="41" d="M452.1476,756.133 C452.1476,756.133 503.74,799.75 525.65,818.27 " fill="none" id="UnitaryTopic-Concept" style="stroke:#181818;stroke-width:1.0;"/><polygon fill="none" points="442.98,748.39,444.9828,755.3174,452.1476,756.133,450.1448,749.2056,442.98,748.39" style="stroke:#181818;stroke-width:1.0;"/><polygon fill="#181818" points="535.38,826.5,531.0927,817.6333,531.5629,823.2705,525.9256,823.7407,535.38,826.5" style="stroke:#181818;stroke-width:1.0;"/><line style="stroke:#181818;stroke-width:1.0;" x1="531.5629" x2="525.45" y1="823.2705" y2="818.105"/><text fill="#000000" font-family="sans-serif" font-size="13" lengthAdjust="spacing" textLength="10" x="518.5399" y="817.2811">+</text></g><!--link UnitaryTopic to Multimedia--><g id="link_UnitaryTopic_Multimedia"><path codeLine="42" d="M404.31,760.93 C404.31,760.93 404.31,797.88 404.31,813.96 " fill="none" id="UnitaryTopic-Multimedia" style="stroke:#181818;stroke-width:1.0;"/><polygon fill="none" points="404.31,748.93,400.31,754.93,404.31,760.93,408.31,754.93,404.31,748.93" style="stroke:#181818;stroke-width:1.0;"/><polygon fill="#181818" points="404.31,826.8,408.31,817.8,404.31,821.8,400.31,817.8,404.31,826.8" style="stroke:#181818;stroke-width:1.0;"/><line style="stroke:#181818;stroke-width:1.0;" x1="404.31" x2="404.31" y1="821.8" y2="813.8"/><text fill="#000000" font-family="sans-serif" font-size="13" lengthAdjust="spacing" textLength="10" x="392.9038" y="817.1639">+</text></g><!--link Concept to Definition--><g id="link_Concept_Definition"><path codeLine="43" d="M593.0673,886.5029 C593.0673,886.5029 641.12,942.56 661.47,966.3 " fill="none" id="Concept-Definition" style="stroke:#181818;stroke-width:1.0;"/><polygon fill="#181818" points="585.26,877.39,586.126,884.5489,593.0673,886.5029,592.2013,879.344,585.26,877.39" style="stroke:#181818;stroke-width:1.0;"/><polygon fill="#181818" points="669.87,976.1,667.0522,966.6629,666.6169,972.3029,660.9769,971.8677,669.87,976.1" style="stroke:#181818;stroke-width:1.0;"/><line style="stroke:#181818;stroke-width:1.0;" x1="666.6169" x2="661.405" y1="972.3029" y2="966.23"/><text fill="#000000" font-family="sans-serif" font-size="13" lengthAdjust="spacing" textLength="10" x="653.9706" y="966.087">+</text></g><!--link Definition to Relation--><g id="link_Definition_Relation"><path codeLine="44" d="M672.2397,1036.5993 C672.2397,1036.5993 638.07,1102.13 623.82,1129.45 " fill="none" id="Definition-Relation" style="stroke:#181818;stroke-width:1.0;"/><polygon fill="#181818" points="677.79,1025.96,671.4684,1029.4295,672.2397,1036.5993,678.5612,1033.1297,677.79,1025.96" style="stroke:#181818;stroke-width:1.0;"/><polygon fill="#181818" points="618,1140.61,625.7092,1134.4807,620.3126,1136.177,618.6163,1130.7804,618,1140.61" style="stroke:#181818;stroke-width:1.0;"/><line style="stroke:#181818;stroke-width:1.0;" x1="620.3126" x2="624.015" y1="1136.177" y2="1129.085"/><text fill="#000000" font-family="sans-serif" font-size="13" lengthAdjust="spacing" textLength="6" x="613.7161" y="1131.0945">*</text></g><!--reverse link Relation to Use--><g id="link_Relation_Use"><path codeLine="45" d="M541.91,1196.82 C498.33,1217.44 439.19,1245.61 387.31,1270.95 C381.69,1273.69 375.71,1276.66 369.98,1279.51 " fill="none" id="Relation-backto-Use" style="stroke:#181818;stroke-width:1.0;"/><polygon fill="none" points="538.91,1190.49,559.98,1188.27,544.89,1203.15,538.91,1190.49" style="stroke:#181818;stroke-width:1.0;"/></g><!--reverse link Relation to Association--><g id="link_Relation_Association"><path codeLine="46" d="M563.09,1203.93 C538.47,1225.49 508.16,1252.04 486.86,1270.69 " fill="none" id="Relation-backto-Association" style="stroke:#181818;stroke-width:1.0;"/><polygon fill="none" points="558.25,1198.86,577.91,1190.95,567.48,1209.39,558.25,1198.86" style="stroke:#181818;stroke-width:1.0;"/></g><!--reverse link Relation to Agregation--><g id="link_Relation_Agregation"><path codeLine="47" d="M605.31,1211.25 C605.31,1231.27 605.31,1254.1 605.31,1270.69 " fill="none" id="Relation-backto-Agregation" style="stroke:#181818;stroke-width:1.0;"/><polygon fill="none" points="598.31,1211.46,605.31,1191.46,612.31,1211.46,598.31,1211.46" style="stroke:#181818;stroke-width:1.0;"/></g><!--reverse link Relation to Composition--><g id="link_Relation_Composition"><path codeLine="48" d="M648.56,1203.57 C674.01,1225.12 705.44,1251.73 727.58,1270.48 " fill="none" id="Relation-backto-Composition" style="stroke:#181818;stroke-width:1.0;"/><polygon fill="none" points="644.37,1209.19,633.63,1190.93,653.41,1198.51,644.37,1209.19" style="stroke:#181818;stroke-width:1.0;"/></g><!--reverse link Relation to Inheritance--><g id="link_Relation_Inheritance"><path codeLine="49" d="M669.06,1193.94 C722.96,1216.76 799.37,1249.1 850.55,1270.77 " fill="none" id="Relation-backto-Inheritance" style="stroke:#181818;stroke-width:1.0;"/><polygon fill="none" points="666.33,1200.39,650.65,1186.14,671.79,1187.49,666.33,1200.39" style="stroke:#181818;stroke-width:1.0;"/></g><!--link Relation to Concept--><g id="link_Relation_Concept"><path codeLine="51" d="M602.3,1142.08 C595,1086.49 576.32,944.37 568.19,882.49 " fill="none" id="Relation-to-Concept" style="stroke:#181818;stroke-width:1.0;"/><polygon fill="#181818" points="567.59,877.9,564.8074,887.3476,568.2471,882.8566,572.738,886.2963,567.59,877.9" style="stroke:#181818;stroke-width:1.0;"/></g><!--reverse link Multimedia to Podcast--><g id="link_Multimedia_Podcast"><path codeLine="54" d="M373.78,892.66 C353.12,919.54 326.53,954.13 309.21,976.66 " fill="none" id="Multimedia-backto-Podcast" style="stroke:#181818;stroke-width:1.0;"/><polygon fill="none" points="367.99,888.71,385.73,877.12,379.09,897.24,367.99,888.71" style="stroke:#181818;stroke-width:1.0;"/></g><!--reverse link Multimedia to Video--><g id="link_Multimedia_Video"><path codeLine="55" d="M404.31,897.36 C404.31,923.47 404.31,955.42 404.31,976.66 " fill="none" id="Multimedia-backto-Video" style="stroke:#181818;stroke-width:1.0;"/><polygon fill="none" points="397.31,897.43,404.31,877.43,411.31,897.43,397.31,897.43" style="stroke:#181818;stroke-width:1.0;"/></g><!--link Podcast to Document--><g id="link_Podcast_Document"><path codeLine="57" d="M304.3066,1037.8816 C304.3066,1037.8816 321.05,1075.6 332.31,1091.95 C342.07,1106.12 354.72,1120 366.7,1131.79 " fill="none" id="Podcast-Document" style="stroke:#181818;stroke-width:1.0;"/><polygon fill="none" points="299.9,1026.72,298.3828,1033.7697,304.3066,1037.8816,305.8238,1030.8319,299.9,1026.72" style="stroke:#181818;stroke-width:1.0;"/><polygon fill="#181818" points="375.86,1140.52,372.1041,1131.4154,372.2404,1137.0706,366.5851,1137.2068,375.86,1140.52" style="stroke:#181818;stroke-width:1.0;"/><line style="stroke:#181818;stroke-width:1.0;" x1="372.2404" x2="366.45" y1="1137.0706" y2="1131.555"/><text fill="#000000" font-family="sans-serif" font-size="13" lengthAdjust="spacing" textLength="61" x="333.31" y="1088.5184">transcript</text></g><!--link Video to Document--><g id="link_Video_Document"><path codeLine="58" d="M403.7086,1038.7988 C403.7086,1038.7988 403.39,1063.41 403.31,1074.95 C403.19,1092.12 403.36,1111.13 403.59,1127.24 " fill="none" id="Video-Document" style="stroke:#181818;stroke-width:1.0;"/><polygon fill="none" points="403.88,1026.8,399.7947,1032.7423,403.7086,1038.7988,407.7939,1032.8565,403.88,1026.8" style="stroke:#181818;stroke-width:1.0;"/><polygon fill="#181818" points="403.79,1140.13,407.6509,1131.0695,403.713,1135.1306,399.6519,1131.1927,403.79,1140.13" style="stroke:#181818;stroke-width:1.0;"/><line style="stroke:#181818;stroke-width:1.0;" x1="403.713" x2="403.585" y1="1135.1306" y2="1127.13"/><text fill="#000000" font-family="sans-serif" font-size="13" lengthAdjust="spacing" textLength="61" x="404.31" y="1088.5184">transcript</text></g><!--reverse link Multimedia to Document--><g id="link_Multimedia_Document"><path codeLine="60" d="M431.37,894.01 C459.59,942.26 496.35,1024.31 470.31,1091.95 C462.88,1111.24 447.73,1128.61 433.81,1141.55 " fill="none" id="Multimedia-backto-Document" style="stroke:#181818;stroke-width:1.0;"/><polygon fill="none" points="425.49,897.83,420.98,877.12,437.42,890.49,425.49,897.83" style="stroke:#181818;stroke-width:1.0;"/></g><!--SRC=[VPB1Ri8m38RlVeg8qmOg3u0G4W8EI9k66EoU9OP5QnkKkDAcRUy-fqrf2vIUQlzVxFXtJ4xe3bAXsDcJKJyW-1k98z9ElgVuSbXO9dBo3uzHMcb3vs2BKdFm1m0gbTwBVMv8kkzMiKHSL8A0L_J2PYVh3M67fn1uCH5FnjEqb6OY75hfGaaoDj-aaWxMPMAO93Cn60t43gNwG7SFUQL2S_y-fEnpGxJr-JMP71qFrmUjlj0fux5Fd_jFlY7KM9LSsaoQVECiUvH19we0jatXYTWERzCYL0M8quhnEDwRrR0Nwo1EoL9B2siAhQju-ZiUNrZVLjehX2xMc56fSFQ4ZoQ9M1IUR7QPtJZKUE2K1gY8M6TOrsc8ImMWVPscVtIbHtqkKZ8PQYEXjk_y39QXaIbzR7wZp6stc9QhW_gdcc7FQ-rcvjvRPMwnywF3uosXDlDQMUUyJfw4xmgDr5e_6z4C5MsrMabFL_atez42HBb-PQh8mhEO278ozyePhbcIzu2hsZNs3m00]--></g></svg>