<?xml version="1.0" encoding="UTF-8" standalone="no"?><svg xmlns="http://www.w3.org/2000/svg" xmlns:xlink="http://www.w3.org/1999/xlink" contentStyleType="text/css" height="1546px" preserveAspectRatio="none" style="width:1000px;height:1546px;background:#FFFFFF;" version="1.1" viewBox="0 0 1000 1546" width="1000px" zoomAndPan="magnify"><defs/><g><!--class EducationPlatform--><g id="elem_EducationPlatform"><rect codeLine="1" fill="#F1F1F1" height="48" id="EducationPlatform" rx="2.5" ry="2.5" style="stroke:#181818;stroke-width:0.5;" width="158" x="546.5" y="7"/><ellipse cx="561.5" cy="23" fill="#ADD1B2" rx="11" ry="11" style="stroke:#181818;stroke-width:1.0;"/><path d="M563.9731,29.1431 Q563.3921,29.4419 562.7529,29.5913 Q562.1138,29.7407 561.4082,29.7407 Q558.9014,29.7407 557.5815,28.0889 Q556.2617,26.437 556.2617,23.3159 Q556.2617,20.1865 557.5815,18.5347 Q558.9014,16.8828 561.4082,16.8828 Q562.1138,16.8828 562.7612,17.0322 Q563.4087,17.1816 563.9731,17.4805 L563.9731,20.2031 Q563.3423,19.6221 562.7488,19.3523 Q562.1553,19.0825 561.5244,19.0825 Q560.1797,19.0825 559.4949,20.1492 Q558.8101,21.2158 558.8101,23.3159 Q558.8101,25.4077 559.4949,26.4744 Q560.1797,27.541 561.5244,27.541 Q562.1553,27.541 562.7488,27.2712 Q563.3423,27.0015 563.9731,26.4204 Z " fill="#000000"/><text fill="#000000" font-family="sans-serif" font-size="14" lengthAdjust="spacing" textLength="126" x="575.5" y="28.291">EducationPlatform</text><line style="stroke:#181818;stroke-width:0.5;" x1="547.5" x2="703.5" y1="39" y2="39"/><line style="stroke:#181818;stroke-width:0.5;" x1="547.5" x2="703.5" y1="47" y2="47"/></g><!--class Syllabus--><g id="elem_Syllabus"><rect codeLine="2" fill="#F1F1F1" height="48" id="Syllabus" rx="2.5" ry="2.5" style="stroke:#181818;stroke-width:0.5;" width="88" x="450.5" y="411"/><ellipse cx="465.5" cy="427" fill="#ADD1B2" rx="11" ry="11" style="stroke:#181818;stroke-width:1.0;"/><path d="M467.9731,433.1431 Q467.3921,433.4419 466.7529,433.5913 Q466.1138,433.7407 465.4082,433.7407 Q462.9014,433.7407 461.5815,432.0889 Q460.2617,430.437 460.2617,427.3159 Q460.2617,424.1865 461.5815,422.5347 Q462.9014,420.8828 465.4082,420.8828 Q466.1138,420.8828 466.7612,421.0322 Q467.4087,421.1816 467.9731,421.4805 L467.9731,424.2031 Q467.3423,423.6221 466.7488,423.3523 Q466.1553,423.0825 465.5244,423.0825 Q464.1797,423.0825 463.4949,424.1492 Q462.8101,425.2158 462.8101,427.3159 Q462.8101,429.4077 463.4949,430.4744 Q464.1797,431.541 465.5244,431.541 Q466.1553,431.541 466.7488,431.2712 Q467.3423,431.0015 467.9731,430.4204 Z " fill="#000000"/><text fill="#000000" font-family="sans-serif" font-size="14" lengthAdjust="spacing" textLength="56" x="479.5" y="432.291">Syllabus</text><line style="stroke:#181818;stroke-width:0.5;" x1="451.5" x2="537.5" y1="443" y2="443"/><line style="stroke:#181818;stroke-width:0.5;" x1="451.5" x2="537.5" y1="451" y2="451"/></g><!--class Index--><g id="elem_Index"><rect codeLine="3" fill="#F1F1F1" height="48" id="Index" rx="2.5" ry="2.5" style="stroke:#181818;stroke-width:0.5;" width="71" x="459" y="815"/><ellipse cx="474" cy="831" fill="#ADD1B2" rx="11" ry="11" style="stroke:#181818;stroke-width:1.0;"/><path d="M476.4731,837.1431 Q475.8921,837.4419 475.2529,837.5913 Q474.6138,837.7407 473.9082,837.7407 Q471.4014,837.7407 470.0815,836.0889 Q468.7617,834.437 468.7617,831.3159 Q468.7617,828.1865 470.0815,826.5347 Q471.4014,824.8828 473.9082,824.8828 Q474.6138,824.8828 475.2612,825.0322 Q475.9087,825.1816 476.4731,825.4805 L476.4731,828.2031 Q475.8423,827.6221 475.2488,827.3523 Q474.6553,827.0825 474.0244,827.0825 Q472.6797,827.0825 471.9949,828.1492 Q471.3101,829.2158 471.3101,831.3159 Q471.3101,833.4077 471.9949,834.4744 Q472.6797,835.541 474.0244,835.541 Q474.6553,835.541 475.2488,835.2712 Q475.8423,835.0015 476.4731,834.4204 Z " fill="#000000"/><text fill="#000000" font-family="sans-serif" font-size="14" lengthAdjust="spacing" textLength="39" x="488" y="836.291">Index</text><line style="stroke:#181818;stroke-width:0.5;" x1="460" x2="529" y1="847" y2="847"/><line style="stroke:#181818;stroke-width:0.5;" x1="460" x2="529" y1="855" y2="855"/></g><!--class Course--><g id="elem_Course"><rect codeLine="4" fill="#F1F1F1" height="48" id="Course" rx="2.5" ry="2.5" style="stroke:#181818;stroke-width:0.5;" width="81" x="454" y="283"/><ellipse cx="469" cy="299" fill="#ADD1B2" rx="11" ry="11" style="stroke:#181818;stroke-width:1.0;"/><path d="M471.4731,305.1431 Q470.8921,305.4419 470.2529,305.5913 Q469.6138,305.7407 468.9082,305.7407 Q466.4014,305.7407 465.0815,304.0889 Q463.7617,302.437 463.7617,299.3159 Q463.7617,296.1865 465.0815,294.5347 Q466.4014,292.8828 468.9082,292.8828 Q469.6138,292.8828 470.2612,293.0322 Q470.9087,293.1816 471.4731,293.4805 L471.4731,296.2031 Q470.8423,295.6221 470.2488,295.3523 Q469.6553,295.0825 469.0244,295.0825 Q467.6797,295.0825 466.9949,296.1492 Q466.3101,297.2158 466.3101,299.3159 Q466.3101,301.4077 466.9949,302.4744 Q467.6797,303.541 469.0244,303.541 Q469.6553,303.541 470.2488,303.2712 Q470.8423,303.0015 471.4731,302.4204 Z " fill="#000000"/><text fill="#000000" font-family="sans-serif" font-size="14" lengthAdjust="spacing" textLength="49" x="483" y="304.291">Course</text><line style="stroke:#181818;stroke-width:0.5;" x1="455" x2="534" y1="315" y2="315"/><line style="stroke:#181818;stroke-width:0.5;" x1="455" x2="534" y1="323" y2="323"/></g><!--class Section--><g id="elem_Section"><rect codeLine="6" fill="#F1F1F1" height="48" id="Section" rx="2.5" ry="2.5" style="stroke:#181818;stroke-width:0.5;" width="82" x="453.5" y="943"/><ellipse cx="468.5" cy="959" fill="#ADD1B2" rx="11" ry="11" style="stroke:#181818;stroke-width:1.0;"/><path d="M470.9731,965.1431 Q470.3921,965.4419 469.7529,965.5913 Q469.1138,965.7407 468.4082,965.7407 Q465.9014,965.7407 464.5815,964.0889 Q463.2617,962.437 463.2617,959.3159 Q463.2617,956.1865 464.5815,954.5347 Q465.9014,952.8828 468.4082,952.8828 Q469.1138,952.8828 469.7612,953.0322 Q470.4087,953.1816 470.9731,953.4805 L470.9731,956.2031 Q470.3423,955.6221 469.7488,955.3523 Q469.1553,955.0825 468.5244,955.0825 Q467.1797,955.0825 466.4949,956.1492 Q465.8101,957.2158 465.8101,959.3159 Q465.8101,961.4077 466.4949,962.4744 Q467.1797,963.541 468.5244,963.541 Q469.1553,963.541 469.7488,963.2712 Q470.3423,963.0015 470.9731,962.4204 Z " fill="#000000"/><text fill="#000000" font-family="sans-serif" font-size="14" lengthAdjust="spacing" textLength="50" x="482.5" y="964.291">Section</text><line style="stroke:#181818;stroke-width:0.5;" x1="454.5" x2="534.5" y1="975" y2="975"/><line style="stroke:#181818;stroke-width:0.5;" x1="454.5" x2="534.5" y1="983" y2="983"/></g><!--class Topic--><g id="elem_Topic"><rect codeLine="7" fill="#F1F1F1" height="48" id="Topic" rx="2.5" ry="2.5" style="stroke:#181818;stroke-width:0.5;" width="70" x="459.5" y="539"/><ellipse cx="474.5" cy="555" fill="#ADD1B2" rx="11" ry="11" style="stroke:#181818;stroke-width:1.0;"/><path d="M476.9731,561.1431 Q476.3921,561.4419 475.7529,561.5913 Q475.1138,561.7407 474.4082,561.7407 Q471.9014,561.7407 470.5815,560.0889 Q469.2617,558.437 469.2617,555.3159 Q469.2617,552.1865 470.5815,550.5347 Q471.9014,548.8828 474.4082,548.8828 Q475.1138,548.8828 475.7612,549.0322 Q476.4087,549.1816 476.9731,549.4805 L476.9731,552.2031 Q476.3423,551.6221 475.7488,551.3523 Q475.1553,551.0825 474.5244,551.0825 Q473.1797,551.0825 472.4949,552.1492 Q471.8101,553.2158 471.8101,555.3159 Q471.8101,557.4077 472.4949,558.4744 Q473.1797,559.541 474.5244,559.541 Q475.1553,559.541 475.7488,559.2712 Q476.3423,559.0015 476.9731,558.4204 Z " fill="#000000"/><text fill="#000000" font-family="sans-serif" font-size="14" lengthAdjust="spacing" textLength="38" x="488.5" y="560.291">Topic</text><line style="stroke:#181818;stroke-width:0.5;" x1="460.5" x2="528.5" y1="571" y2="571"/><line style="stroke:#181818;stroke-width:0.5;" x1="460.5" x2="528.5" y1="579" y2="579"/></g><!--class Unit--><g id="elem_Unit"><rect codeLine="8" fill="#F1F1F1" height="48" id="Unit" rx="2.5" ry="2.5" style="stroke:#181818;stroke-width:0.5;" width="60" x="464.5" y="687"/><ellipse cx="479.5" cy="703" fill="#ADD1B2" rx="11" ry="11" style="stroke:#181818;stroke-width:1.0;"/><path d="M481.9731,709.1431 Q481.3921,709.4419 480.7529,709.5913 Q480.1138,709.7407 479.4082,709.7407 Q476.9014,709.7407 475.5815,708.0889 Q474.2617,706.437 474.2617,703.3159 Q474.2617,700.1865 475.5815,698.5347 Q476.9014,696.8828 479.4082,696.8828 Q480.1138,696.8828 480.7612,697.0322 Q481.4087,697.1816 481.9731,697.4805 L481.9731,700.2031 Q481.3423,699.6221 480.7488,699.3523 Q480.1553,699.0825 479.5244,699.0825 Q478.1797,699.0825 477.4949,700.1492 Q476.8101,701.2158 476.8101,703.3159 Q476.8101,705.4077 477.4949,706.4744 Q478.1797,707.541 479.5244,707.541 Q480.1553,707.541 480.7488,707.2712 Q481.3423,707.0015 481.9731,706.4204 Z " fill="#000000"/><text fill="#000000" font-family="sans-serif" font-size="14" lengthAdjust="spacing" textLength="28" x="493.5" y="708.291">Unit</text><line style="stroke:#181818;stroke-width:0.5;" x1="465.5" x2="523.5" y1="719" y2="719"/><line style="stroke:#181818;stroke-width:0.5;" x1="465.5" x2="523.5" y1="727" y2="727"/></g><!--class Multimedia--><g id="elem_Multimedia"><rect codeLine="10" fill="#F1F1F1" height="48" id="Multimedia" rx="2.5" ry="2.5" style="stroke:#181818;stroke-width:0.5;" width="108" x="665.5" y="1247"/><ellipse cx="680.5" cy="1263" fill="#ADD1B2" rx="11" ry="11" style="stroke:#181818;stroke-width:1.0;"/><path d="M682.9731,1269.1431 Q682.3921,1269.4419 681.7529,1269.5913 Q681.1138,1269.7407 680.4082,1269.7407 Q677.9014,1269.7407 676.5815,1268.0889 Q675.2617,1266.437 675.2617,1263.3159 Q675.2617,1260.1865 676.5815,1258.5347 Q677.9014,1256.8828 680.4082,1256.8828 Q681.1138,1256.8828 681.7612,1257.0322 Q682.4087,1257.1816 682.9731,1257.4805 L682.9731,1260.2031 Q682.3423,1259.6221 681.7488,1259.3523 Q681.1553,1259.0825 680.5244,1259.0825 Q679.1797,1259.0825 678.4949,1260.1492 Q677.8101,1261.2158 677.8101,1263.3159 Q677.8101,1265.4077 678.4949,1266.4744 Q679.1797,1267.541 680.5244,1267.541 Q681.1553,1267.541 681.7488,1267.2712 Q682.3423,1267.0015 682.9731,1266.4204 Z " fill="#000000"/><text fill="#000000" font-family="sans-serif" font-size="14" lengthAdjust="spacing" textLength="76" x="694.5" y="1268.291">Multimedia</text><line style="stroke:#181818;stroke-width:0.5;" x1="666.5" x2="772.5" y1="1279" y2="1279"/><line style="stroke:#181818;stroke-width:0.5;" x1="666.5" x2="772.5" y1="1287" y2="1287"/></g><!--class Podcast--><g id="elem_Podcast"><rect codeLine="11" fill="#F1F1F1" height="48" id="Podcast" rx="2.5" ry="2.5" style="stroke:#181818;stroke-width:0.5;" width="85" x="564" y="1383"/><ellipse cx="579" cy="1399" fill="#ADD1B2" rx="11" ry="11" style="stroke:#181818;stroke-width:1.0;"/><path d="M581.4731,1405.1431 Q580.8921,1405.4419 580.2529,1405.5913 Q579.6138,1405.7407 578.9082,1405.7407 Q576.4014,1405.7407 575.0815,1404.0889 Q573.7617,1402.437 573.7617,1399.3159 Q573.7617,1396.1865 575.0815,1394.5347 Q576.4014,1392.8828 578.9082,1392.8828 Q579.6138,1392.8828 580.2612,1393.0322 Q580.9087,1393.1816 581.4731,1393.4805 L581.4731,1396.2031 Q580.8423,1395.6221 580.2488,1395.3523 Q579.6553,1395.0825 579.0244,1395.0825 Q577.6797,1395.0825 576.9949,1396.1492 Q576.3101,1397.2158 576.3101,1399.3159 Q576.3101,1401.4077 576.9949,1402.4744 Q577.6797,1403.541 579.0244,1403.541 Q579.6553,1403.541 580.2488,1403.2712 Q580.8423,1403.0015 581.4731,1402.4204 Z " fill="#000000"/><text fill="#000000" font-family="sans-serif" font-size="14" lengthAdjust="spacing" textLength="53" x="593" y="1404.291">Podcast</text><line style="stroke:#181818;stroke-width:0.5;" x1="565" x2="648" y1="1415" y2="1415"/><line style="stroke:#181818;stroke-width:0.5;" x1="565" x2="648" y1="1423" y2="1423"/></g><!--class Transcription--><g id="elem_Transcription"><rect codeLine="12" fill="#F1F1F1" height="48" id="Transcription" rx="2.5" ry="2.5" style="stroke:#181818;stroke-width:0.5;" width="124" x="688.5" y="1491"/><ellipse cx="703.5" cy="1507" fill="#ADD1B2" rx="11" ry="11" style="stroke:#181818;stroke-width:1.0;"/><path d="M705.9731,1513.1431 Q705.3921,1513.4419 704.7529,1513.5913 Q704.1138,1513.7407 703.4082,1513.7407 Q700.9014,1513.7407 699.5815,1512.0889 Q698.2617,1510.437 698.2617,1507.3159 Q698.2617,1504.1865 699.5815,1502.5347 Q700.9014,1500.8828 703.4082,1500.8828 Q704.1138,1500.8828 704.7612,1501.0322 Q705.4087,1501.1816 705.9731,1501.4805 L705.9731,1504.2031 Q705.3423,1503.6221 704.7488,1503.3523 Q704.1553,1503.0825 703.5244,1503.0825 Q702.1797,1503.0825 701.4949,1504.1492 Q700.8101,1505.2158 700.8101,1507.3159 Q700.8101,1509.4077 701.4949,1510.4744 Q702.1797,1511.541 703.5244,1511.541 Q704.1553,1511.541 704.7488,1511.2712 Q705.3423,1511.0015 705.9731,1510.4204 Z " fill="#000000"/><text fill="#000000" font-family="sans-serif" font-size="14" lengthAdjust="spacing" textLength="92" x="717.5" y="1512.291">Transcription</text><line style="stroke:#181818;stroke-width:0.5;" x1="689.5" x2="811.5" y1="1523" y2="1523"/><line style="stroke:#181818;stroke-width:0.5;" x1="689.5" x2="811.5" y1="1531" y2="1531"/></g><!--class Link--><g id="elem_Link"><rect codeLine="18" fill="#F1F1F1" height="48" id="Link" rx="2.5" ry="2.5" style="stroke:#181818;stroke-width:0.5;" width="60" x="329.5" y="1383"/><ellipse cx="344.5" cy="1399" fill="#ADD1B2" rx="11" ry="11" style="stroke:#181818;stroke-width:1.0;"/><path d="M346.9731,1405.1431 Q346.3921,1405.4419 345.7529,1405.5913 Q345.1138,1405.7407 344.4082,1405.7407 Q341.9014,1405.7407 340.5815,1404.0889 Q339.2617,1402.437 339.2617,1399.3159 Q339.2617,1396.1865 340.5815,1394.5347 Q341.9014,1392.8828 344.4082,1392.8828 Q345.1138,1392.8828 345.7612,1393.0322 Q346.4087,1393.1816 346.9731,1393.4805 L346.9731,1396.2031 Q346.3423,1395.6221 345.7488,1395.3523 Q345.1553,1395.0825 344.5244,1395.0825 Q343.1797,1395.0825 342.4949,1396.1492 Q341.8101,1397.2158 341.8101,1399.3159 Q341.8101,1401.4077 342.4949,1402.4744 Q343.1797,1403.541 344.5244,1403.541 Q345.1553,1403.541 345.7488,1403.2712 Q346.3423,1403.0015 346.9731,1402.4204 Z " fill="#000000"/><text fill="#000000" font-family="sans-serif" font-size="14" lengthAdjust="spacing" textLength="28" x="358.5" y="1404.291">Link</text><line style="stroke:#181818;stroke-width:0.5;" x1="330.5" x2="388.5" y1="1415" y2="1415"/><line style="stroke:#181818;stroke-width:0.5;" x1="330.5" x2="388.5" y1="1423" y2="1423"/></g><!--class Definition--><g id="elem_Definition"><rect codeLine="19" fill="#F1F1F1" height="64.4883" id="Definition" rx="2.5" ry="2.5" style="stroke:#181818;stroke-width:0.5;" width="115" x="437" y="1239"/><ellipse cx="459.2" cy="1255" fill="#ADD1B2" rx="11" ry="11" style="stroke:#181818;stroke-width:1.0;"/><path d="M461.6731,1261.1431 Q461.0921,1261.4419 460.4529,1261.5913 Q459.8138,1261.7407 459.1082,1261.7407 Q456.6014,1261.7407 455.2815,1260.0889 Q453.9617,1258.437 453.9617,1255.3159 Q453.9617,1252.1865 455.2815,1250.5347 Q456.6014,1248.8828 459.1082,1248.8828 Q459.8138,1248.8828 460.4612,1249.0322 Q461.1087,1249.1816 461.6731,1249.4805 L461.6731,1252.2031 Q461.0423,1251.6221 460.4488,1251.3523 Q459.8553,1251.0825 459.2244,1251.0825 Q457.8797,1251.0825 457.1949,1252.1492 Q456.5101,1253.2158 456.5101,1255.3159 Q456.5101,1257.4077 457.1949,1258.4744 Q457.8797,1259.541 459.2244,1259.541 Q459.8553,1259.541 460.4488,1259.2712 Q461.0423,1259.0015 461.6731,1258.4204 Z " fill="#000000"/><text fill="#000000" font-family="sans-serif" font-size="14" lengthAdjust="spacing" textLength="67" x="474.8" y="1260.291">Definition</text><line style="stroke:#181818;stroke-width:0.5;" x1="438" x2="551" y1="1271" y2="1271"/><rect fill="none" height="6" style="stroke:#C82930;stroke-width:1.0;" width="6" x="445" y="1281.7441"/><text fill="#000000" font-family="sans-serif" font-size="14" lengthAdjust="spacing" textLength="89" x="457" y="1288.5352">boolean fake</text><line style="stroke:#181818;stroke-width:0.5;" x1="438" x2="551" y1="1295.4883" y2="1295.4883"/></g><!--class Concept--><g id="elem_Concept"><rect codeLine="22" fill="#F1F1F1" height="48" id="Concept" rx="2.5" ry="2.5" style="stroke:#181818;stroke-width:0.5;" width="89" x="450" y="1091"/><ellipse cx="465" cy="1107" fill="#ADD1B2" rx="11" ry="11" style="stroke:#181818;stroke-width:1.0;"/><path d="M467.4731,1113.1431 Q466.8921,1113.4419 466.2529,1113.5913 Q465.6138,1113.7407 464.9082,1113.7407 Q462.4014,1113.7407 461.0815,1112.0889 Q459.7617,1110.437 459.7617,1107.3159 Q459.7617,1104.1865 461.0815,1102.5347 Q462.4014,1100.8828 464.9082,1100.8828 Q465.6138,1100.8828 466.2612,1101.0322 Q466.9087,1101.1816 467.4731,1101.4805 L467.4731,1104.2031 Q466.8423,1103.6221 466.2488,1103.3523 Q465.6553,1103.0825 465.0244,1103.0825 Q463.6797,1103.0825 462.9949,1104.1492 Q462.3101,1105.2158 462.3101,1107.3159 Q462.3101,1109.4077 462.9949,1110.4744 Q463.6797,1111.541 465.0244,1111.541 Q465.6553,1111.541 466.2488,1111.2712 Q466.8423,1111.0015 467.4731,1110.4204 Z " fill="#000000"/><text fill="#000000" font-family="sans-serif" font-size="14" lengthAdjust="spacing" textLength="57" x="479" y="1112.291">Concept</text><line style="stroke:#181818;stroke-width:0.5;" x1="451" x2="538" y1="1123" y2="1123"/><line style="stroke:#181818;stroke-width:0.5;" x1="451" x2="538" y1="1131" y2="1131"/></g><!--class Teacher--><g id="elem_Teacher"><rect codeLine="23" fill="#F1F1F1" height="48" id="Teacher" rx="2.5" ry="2.5" style="stroke:#181818;stroke-width:0.5;" width="87" x="413" y="135"/><ellipse cx="428" cy="151" fill="#ADD1B2" rx="11" ry="11" style="stroke:#181818;stroke-width:1.0;"/><path d="M430.4731,157.1431 Q429.8921,157.4419 429.2529,157.5913 Q428.6138,157.7407 427.9082,157.7407 Q425.4014,157.7407 424.0815,156.0889 Q422.7617,154.437 422.7617,151.3159 Q422.7617,148.1865 424.0815,146.5347 Q425.4014,144.8828 427.9082,144.8828 Q428.6138,144.8828 429.2612,145.0322 Q429.9087,145.1816 430.4731,145.4805 L430.4731,148.2031 Q429.8423,147.6221 429.2488,147.3523 Q428.6553,147.0825 428.0244,147.0825 Q426.6797,147.0825 425.9949,148.1492 Q425.3101,149.2158 425.3101,151.3159 Q425.3101,153.4077 425.9949,154.4744 Q426.6797,155.541 428.0244,155.541 Q428.6553,155.541 429.2488,155.2712 Q429.8423,155.0015 430.4731,154.4204 Z " fill="#000000"/><text fill="#000000" font-family="sans-serif" font-size="14" lengthAdjust="spacing" textLength="55" x="442" y="156.291">Teacher</text><line style="stroke:#181818;stroke-width:0.5;" x1="414" x2="499" y1="167" y2="167"/><line style="stroke:#181818;stroke-width:0.5;" x1="414" x2="499" y1="175" y2="175"/></g><!--class Student--><g id="elem_Student"><rect codeLine="24" fill="#F1F1F1" height="48" id="Student" rx="2.5" ry="2.5" style="stroke:#181818;stroke-width:0.5;" width="85" x="583" y="135"/><ellipse cx="598" cy="151" fill="#ADD1B2" rx="11" ry="11" style="stroke:#181818;stroke-width:1.0;"/><path d="M600.4731,157.1431 Q599.8921,157.4419 599.2529,157.5913 Q598.6138,157.7407 597.9082,157.7407 Q595.4014,157.7407 594.0815,156.0889 Q592.7617,154.437 592.7617,151.3159 Q592.7617,148.1865 594.0815,146.5347 Q595.4014,144.8828 597.9082,144.8828 Q598.6138,144.8828 599.2612,145.0322 Q599.9087,145.1816 600.4731,145.4805 L600.4731,148.2031 Q599.8423,147.6221 599.2488,147.3523 Q598.6553,147.0825 598.0244,147.0825 Q596.6797,147.0825 595.9949,148.1492 Q595.3101,149.2158 595.3101,151.3159 Q595.3101,153.4077 595.9949,154.4744 Q596.6797,155.541 598.0244,155.541 Q598.6553,155.541 599.2488,155.2712 Q599.8423,155.0015 600.4731,154.4204 Z " fill="#000000"/><text fill="#000000" font-family="sans-serif" font-size="14" lengthAdjust="spacing" textLength="53" x="612" y="156.291">Student</text><line style="stroke:#181818;stroke-width:0.5;" x1="584" x2="667" y1="167" y2="167"/><line style="stroke:#181818;stroke-width:0.5;" x1="584" x2="667" y1="175" y2="175"/></g><!--class Itinerary--><g id="elem_Itinerary"><rect codeLine="27" fill="#F1F1F1" height="48" id="Itinerary" rx="2.5" ry="2.5" style="stroke:#181818;stroke-width:0.5;" width="89" x="751" y="135"/><ellipse cx="766" cy="151" fill="#ADD1B2" rx="11" ry="11" style="stroke:#181818;stroke-width:1.0;"/><path d="M768.4731,157.1431 Q767.8921,157.4419 767.2529,157.5913 Q766.6138,157.7407 765.9082,157.7407 Q763.4014,157.7407 762.0815,156.0889 Q760.7617,154.437 760.7617,151.3159 Q760.7617,148.1865 762.0815,146.5347 Q763.4014,144.8828 765.9082,144.8828 Q766.6138,144.8828 767.2612,145.0322 Q767.9087,145.1816 768.4731,145.4805 L768.4731,148.2031 Q767.8423,147.6221 767.2488,147.3523 Q766.6553,147.0825 766.0244,147.0825 Q764.6797,147.0825 763.9949,148.1492 Q763.3101,149.2158 763.3101,151.3159 Q763.3101,153.4077 763.9949,154.4744 Q764.6797,155.541 766.0244,155.541 Q766.6553,155.541 767.2488,155.2712 Q767.8423,155.0015 768.4731,154.4204 Z " fill="#000000"/><text fill="#000000" font-family="sans-serif" font-size="14" lengthAdjust="spacing" textLength="57" x="780" y="156.291">Itinerary</text><line style="stroke:#181818;stroke-width:0.5;" x1="752" x2="839" y1="167" y2="167"/><line style="stroke:#181818;stroke-width:0.5;" x1="752" x2="839" y1="175" y2="175"/></g><!--class Custom--><g id="elem_Custom"><rect codeLine="28" fill="#F1F1F1" height="48" id="Custom" rx="2.5" ry="2.5" style="stroke:#181818;stroke-width:0.5;" width="85" x="693" y="283"/><ellipse cx="708" cy="299" fill="#ADD1B2" rx="11" ry="11" style="stroke:#181818;stroke-width:1.0;"/><path d="M710.4731,305.1431 Q709.8921,305.4419 709.2529,305.5913 Q708.6138,305.7407 707.9082,305.7407 Q705.4014,305.7407 704.0815,304.0889 Q702.7617,302.437 702.7617,299.3159 Q702.7617,296.1865 704.0815,294.5347 Q705.4014,292.8828 707.9082,292.8828 Q708.6138,292.8828 709.2612,293.0322 Q709.9087,293.1816 710.4731,293.4805 L710.4731,296.2031 Q709.8423,295.6221 709.2488,295.3523 Q708.6553,295.0825 708.0244,295.0825 Q706.6797,295.0825 705.9949,296.1492 Q705.3101,297.2158 705.3101,299.3159 Q705.3101,301.4077 705.9949,302.4744 Q706.6797,303.541 708.0244,303.541 Q708.6553,303.541 709.2488,303.2712 Q709.8423,303.0015 710.4731,302.4204 Z " fill="#000000"/><text fill="#000000" font-family="sans-serif" font-size="14" lengthAdjust="spacing" textLength="53" x="722" y="304.291">Custom</text><line style="stroke:#181818;stroke-width:0.5;" x1="694" x2="777" y1="315" y2="315"/><line style="stroke:#181818;stroke-width:0.5;" x1="694" x2="777" y1="323" y2="323"/></g><!--class Defined--><g id="elem_Defined"><rect codeLine="29" fill="#F1F1F1" height="48" id="Defined" rx="2.5" ry="2.5" style="stroke:#181818;stroke-width:0.5;" width="85" x="813" y="283"/><ellipse cx="828" cy="299" fill="#ADD1B2" rx="11" ry="11" style="stroke:#181818;stroke-width:1.0;"/><path d="M830.4731,305.1431 Q829.8921,305.4419 829.2529,305.5913 Q828.6138,305.7407 827.9082,305.7407 Q825.4014,305.7407 824.0815,304.0889 Q822.7617,302.437 822.7617,299.3159 Q822.7617,296.1865 824.0815,294.5347 Q825.4014,292.8828 827.9082,292.8828 Q828.6138,292.8828 829.2612,293.0322 Q829.9087,293.1816 830.4731,293.4805 L830.4731,296.2031 Q829.8423,295.6221 829.2488,295.3523 Q828.6553,295.0825 828.0244,295.0825 Q826.6797,295.0825 825.9949,296.1492 Q825.3101,297.2158 825.3101,299.3159 Q825.3101,301.4077 825.9949,302.4744 Q826.6797,303.541 828.0244,303.541 Q828.6553,303.541 829.2488,303.2712 Q829.8423,303.0015 830.4731,302.4204 Z " fill="#000000"/><text fill="#000000" font-family="sans-serif" font-size="14" lengthAdjust="spacing" textLength="53" x="842" y="304.291">Defined</text><line style="stroke:#181818;stroke-width:0.5;" x1="814" x2="897" y1="315" y2="315"/><line style="stroke:#181818;stroke-width:0.5;" x1="814" x2="897" y1="323" y2="323"/></g><!--class Tools--><g id="elem_Tools"><rect fill="#F1F1F1" height="48" id="Tools" rx="2.5" ry="2.5" style="stroke:#181818;stroke-width:0.5;" width="70" x="923.5" y="135"/><ellipse cx="938.5" cy="151" fill="#ADD1B2" rx="11" ry="11" style="stroke:#181818;stroke-width:1.0;"/><path d="M940.9731,157.1431 Q940.3921,157.4419 939.7529,157.5913 Q939.1138,157.7407 938.4082,157.7407 Q935.9014,157.7407 934.5815,156.0889 Q933.2617,154.437 933.2617,151.3159 Q933.2617,148.1865 934.5815,146.5347 Q935.9014,144.8828 938.4082,144.8828 Q939.1138,144.8828 939.7612,145.0322 Q940.4087,145.1816 940.9731,145.4805 L940.9731,148.2031 Q940.3423,147.6221 939.7488,147.3523 Q939.1553,147.0825 938.5244,147.0825 Q937.1797,147.0825 936.4949,148.1492 Q935.8101,149.2158 935.8101,151.3159 Q935.8101,153.4077 936.4949,154.4744 Q937.1797,155.541 938.5244,155.541 Q939.1553,155.541 939.7488,155.2712 Q940.3423,155.0015 940.9731,154.4204 Z " fill="#000000"/><text fill="#000000" font-family="sans-serif" font-size="14" lengthAdjust="spacing" textLength="38" x="952.5" y="156.291">Tools</text><line style="stroke:#181818;stroke-width:0.5;" x1="924.5" x2="992.5" y1="167" y2="167"/><line style="stroke:#181818;stroke-width:0.5;" x1="924.5" x2="992.5" y1="175" y2="175"/></g><!--class Use--><g id="elem_Use"><rect fill="#F1F1F1" height="48" id="Use" rx="2.5" ry="2.5" style="stroke:#181818;stroke-width:0.5;" width="57" x="7" y="1491"/><ellipse cx="22" cy="1507" fill="#ADD1B2" rx="11" ry="11" style="stroke:#181818;stroke-width:1.0;"/><path d="M24.4731,1513.1431 Q23.8921,1513.4419 23.2529,1513.5913 Q22.6138,1513.7407 21.9082,1513.7407 Q19.4014,1513.7407 18.0815,1512.0889 Q16.7617,1510.437 16.7617,1507.3159 Q16.7617,1504.1865 18.0815,1502.5347 Q19.4014,1500.8828 21.9082,1500.8828 Q22.6138,1500.8828 23.2612,1501.0322 Q23.9087,1501.1816 24.4731,1501.4805 L24.4731,1504.2031 Q23.8423,1503.6221 23.2488,1503.3523 Q22.6553,1503.0825 22.0244,1503.0825 Q20.6797,1503.0825 19.9949,1504.1492 Q19.3101,1505.2158 19.3101,1507.3159 Q19.3101,1509.4077 19.9949,1510.4744 Q20.6797,1511.541 22.0244,1511.541 Q22.6553,1511.541 23.2488,1511.2712 Q23.8423,1511.0015 24.4731,1510.4204 Z " fill="#000000"/><text fill="#000000" font-family="sans-serif" font-size="14" lengthAdjust="spacing" textLength="25" x="36" y="1512.291">Use</text><line style="stroke:#181818;stroke-width:0.5;" x1="8" x2="63" y1="1523" y2="1523"/><line style="stroke:#181818;stroke-width:0.5;" x1="8" x2="63" y1="1531" y2="1531"/></g><!--class Association--><g id="elem_Association"><rect fill="#F1F1F1" height="48" id="Association" rx="2.5" ry="2.5" style="stroke:#181818;stroke-width:0.5;" width="111" x="99" y="1491"/><ellipse cx="114" cy="1507" fill="#ADD1B2" rx="11" ry="11" style="stroke:#181818;stroke-width:1.0;"/><path d="M116.4731,1513.1431 Q115.8921,1513.4419 115.2529,1513.5913 Q114.6138,1513.7407 113.9082,1513.7407 Q111.4014,1513.7407 110.0815,1512.0889 Q108.7617,1510.437 108.7617,1507.3159 Q108.7617,1504.1865 110.0815,1502.5347 Q111.4014,1500.8828 113.9082,1500.8828 Q114.6138,1500.8828 115.2612,1501.0322 Q115.9087,1501.1816 116.4731,1501.4805 L116.4731,1504.2031 Q115.8423,1503.6221 115.2488,1503.3523 Q114.6553,1503.0825 114.0244,1503.0825 Q112.6797,1503.0825 111.9949,1504.1492 Q111.3101,1505.2158 111.3101,1507.3159 Q111.3101,1509.4077 111.9949,1510.4744 Q112.6797,1511.541 114.0244,1511.541 Q114.6553,1511.541 115.2488,1511.2712 Q115.8423,1511.0015 116.4731,1510.4204 Z " fill="#000000"/><text fill="#000000" font-family="sans-serif" font-size="14" lengthAdjust="spacing" textLength="79" x="128" y="1512.291">Association</text><line style="stroke:#181818;stroke-width:0.5;" x1="100" x2="209" y1="1523" y2="1523"/><line style="stroke:#181818;stroke-width:0.5;" x1="100" x2="209" y1="1531" y2="1531"/></g><!--class Agregation--><g id="elem_Agregation"><rect fill="#F1F1F1" height="48" id="Agregation" rx="2.5" ry="2.5" style="stroke:#181818;stroke-width:0.5;" width="109" x="245" y="1491"/><ellipse cx="260" cy="1507" fill="#ADD1B2" rx="11" ry="11" style="stroke:#181818;stroke-width:1.0;"/><path d="M262.4731,1513.1431 Q261.8921,1513.4419 261.2529,1513.5913 Q260.6138,1513.7407 259.9082,1513.7407 Q257.4014,1513.7407 256.0815,1512.0889 Q254.7617,1510.437 254.7617,1507.3159 Q254.7617,1504.1865 256.0815,1502.5347 Q257.4014,1500.8828 259.9082,1500.8828 Q260.6138,1500.8828 261.2612,1501.0322 Q261.9087,1501.1816 262.4731,1501.4805 L262.4731,1504.2031 Q261.8423,1503.6221 261.2488,1503.3523 Q260.6553,1503.0825 260.0244,1503.0825 Q258.6797,1503.0825 257.9949,1504.1492 Q257.3101,1505.2158 257.3101,1507.3159 Q257.3101,1509.4077 257.9949,1510.4744 Q258.6797,1511.541 260.0244,1511.541 Q260.6553,1511.541 261.2488,1511.2712 Q261.8423,1511.0015 262.4731,1510.4204 Z " fill="#000000"/><text fill="#000000" font-family="sans-serif" font-size="14" lengthAdjust="spacing" textLength="77" x="274" y="1512.291">Agregation</text><line style="stroke:#181818;stroke-width:0.5;" x1="246" x2="353" y1="1523" y2="1523"/><line style="stroke:#181818;stroke-width:0.5;" x1="246" x2="353" y1="1531" y2="1531"/></g><!--class Composition--><g id="elem_Composition"><rect fill="#F1F1F1" height="48" id="Composition" rx="2.5" ry="2.5" style="stroke:#181818;stroke-width:0.5;" width="120" x="389.5" y="1491"/><ellipse cx="404.5" cy="1507" fill="#ADD1B2" rx="11" ry="11" style="stroke:#181818;stroke-width:1.0;"/><path d="M406.9731,1513.1431 Q406.3921,1513.4419 405.7529,1513.5913 Q405.1138,1513.7407 404.4082,1513.7407 Q401.9014,1513.7407 400.5815,1512.0889 Q399.2617,1510.437 399.2617,1507.3159 Q399.2617,1504.1865 400.5815,1502.5347 Q401.9014,1500.8828 404.4082,1500.8828 Q405.1138,1500.8828 405.7612,1501.0322 Q406.4087,1501.1816 406.9731,1501.4805 L406.9731,1504.2031 Q406.3423,1503.6221 405.7488,1503.3523 Q405.1553,1503.0825 404.5244,1503.0825 Q403.1797,1503.0825 402.4949,1504.1492 Q401.8101,1505.2158 401.8101,1507.3159 Q401.8101,1509.4077 402.4949,1510.4744 Q403.1797,1511.541 404.5244,1511.541 Q405.1553,1511.541 405.7488,1511.2712 Q406.3423,1511.0015 406.9731,1510.4204 Z " fill="#000000"/><text fill="#000000" font-family="sans-serif" font-size="14" lengthAdjust="spacing" textLength="88" x="418.5" y="1512.291">Composition</text><line style="stroke:#181818;stroke-width:0.5;" x1="390.5" x2="508.5" y1="1523" y2="1523"/><line style="stroke:#181818;stroke-width:0.5;" x1="390.5" x2="508.5" y1="1531" y2="1531"/></g><!--class Inheritance--><g id="elem_Inheritance"><rect fill="#F1F1F1" height="48" id="Inheritance" rx="2.5" ry="2.5" style="stroke:#181818;stroke-width:0.5;" width="109" x="545" y="1491"/><ellipse cx="560" cy="1507" fill="#ADD1B2" rx="11" ry="11" style="stroke:#181818;stroke-width:1.0;"/><path d="M562.4731,1513.1431 Q561.8921,1513.4419 561.2529,1513.5913 Q560.6138,1513.7407 559.9082,1513.7407 Q557.4014,1513.7407 556.0815,1512.0889 Q554.7617,1510.437 554.7617,1507.3159 Q554.7617,1504.1865 556.0815,1502.5347 Q557.4014,1500.8828 559.9082,1500.8828 Q560.6138,1500.8828 561.2612,1501.0322 Q561.9087,1501.1816 562.4731,1501.4805 L562.4731,1504.2031 Q561.8423,1503.6221 561.2488,1503.3523 Q560.6553,1503.0825 560.0244,1503.0825 Q558.6797,1503.0825 557.9949,1504.1492 Q557.3101,1505.2158 557.3101,1507.3159 Q557.3101,1509.4077 557.9949,1510.4744 Q558.6797,1511.541 560.0244,1511.541 Q560.6553,1511.541 561.2488,1511.2712 Q561.8423,1511.0015 562.4731,1510.4204 Z " fill="#000000"/><text fill="#000000" font-family="sans-serif" font-size="14" lengthAdjust="spacing" textLength="77" x="574" y="1512.291">Inheritance</text><line style="stroke:#181818;stroke-width:0.5;" x1="546" x2="653" y1="1523" y2="1523"/><line style="stroke:#181818;stroke-width:0.5;" x1="546" x2="653" y1="1531" y2="1531"/></g><!--class Video--><g id="elem_Video"><rect fill="#F1F1F1" height="48" id="Video" rx="2.5" ry="2.5" style="stroke:#181818;stroke-width:0.5;" width="71" x="684" y="1383"/><ellipse cx="699" cy="1399" fill="#ADD1B2" rx="11" ry="11" style="stroke:#181818;stroke-width:1.0;"/><path d="M701.4731,1405.1431 Q700.8921,1405.4419 700.2529,1405.5913 Q699.6138,1405.7407 698.9082,1405.7407 Q696.4014,1405.7407 695.0815,1404.0889 Q693.7617,1402.437 693.7617,1399.3159 Q693.7617,1396.1865 695.0815,1394.5347 Q696.4014,1392.8828 698.9082,1392.8828 Q699.6138,1392.8828 700.2612,1393.0322 Q700.9087,1393.1816 701.4731,1393.4805 L701.4731,1396.2031 Q700.8423,1395.6221 700.2488,1395.3523 Q699.6553,1395.0825 699.0244,1395.0825 Q697.6797,1395.0825 696.9949,1396.1492 Q696.3101,1397.2158 696.3101,1399.3159 Q696.3101,1401.4077 696.9949,1402.4744 Q697.6797,1403.541 699.0244,1403.541 Q699.6553,1403.541 700.2488,1403.2712 Q700.8423,1403.0015 701.4731,1402.4204 Z " fill="#000000"/><text fill="#000000" font-family="sans-serif" font-size="14" lengthAdjust="spacing" textLength="39" x="713" y="1404.291">Video</text><line style="stroke:#181818;stroke-width:0.5;" x1="685" x2="754" y1="1415" y2="1415"/><line style="stroke:#181818;stroke-width:0.5;" x1="685" x2="754" y1="1423" y2="1423"/></g><!--class Images--><g id="elem_Images"><rect fill="#F1F1F1" height="48" id="Images" rx="2.5" ry="2.5" style="stroke:#181818;stroke-width:0.5;" width="81" x="790" y="1383"/><ellipse cx="805" cy="1399" fill="#ADD1B2" rx="11" ry="11" style="stroke:#181818;stroke-width:1.0;"/><path d="M807.4731,1405.1431 Q806.8921,1405.4419 806.2529,1405.5913 Q805.6138,1405.7407 804.9082,1405.7407 Q802.4014,1405.7407 801.0815,1404.0889 Q799.7617,1402.437 799.7617,1399.3159 Q799.7617,1396.1865 801.0815,1394.5347 Q802.4014,1392.8828 804.9082,1392.8828 Q805.6138,1392.8828 806.2612,1393.0322 Q806.9087,1393.1816 807.4731,1393.4805 L807.4731,1396.2031 Q806.8423,1395.6221 806.2488,1395.3523 Q805.6553,1395.0825 805.0244,1395.0825 Q803.6797,1395.0825 802.9949,1396.1492 Q802.3101,1397.2158 802.3101,1399.3159 Q802.3101,1401.4077 802.9949,1402.4744 Q803.6797,1403.541 805.0244,1403.541 Q805.6553,1403.541 806.2488,1403.2712 Q806.8423,1403.0015 807.4731,1402.4204 Z " fill="#000000"/><text fill="#000000" font-family="sans-serif" font-size="14" lengthAdjust="spacing" textLength="49" x="819" y="1404.291">Images</text><line style="stroke:#181818;stroke-width:0.5;" x1="791" x2="870" y1="1415" y2="1415"/><line style="stroke:#181818;stroke-width:0.5;" x1="791" x2="870" y1="1423" y2="1423"/></g><!--class Text--><g id="elem_Text"><rect fill="#F1F1F1" height="48" id="Text" rx="2.5" ry="2.5" style="stroke:#181818;stroke-width:0.5;" width="63" x="906" y="1383"/><ellipse cx="921" cy="1399" fill="#ADD1B2" rx="11" ry="11" style="stroke:#181818;stroke-width:1.0;"/><path d="M923.4731,1405.1431 Q922.8921,1405.4419 922.2529,1405.5913 Q921.6138,1405.7407 920.9082,1405.7407 Q918.4014,1405.7407 917.0815,1404.0889 Q915.7617,1402.437 915.7617,1399.3159 Q915.7617,1396.1865 917.0815,1394.5347 Q918.4014,1392.8828 920.9082,1392.8828 Q921.6138,1392.8828 922.2612,1393.0322 Q922.9087,1393.1816 923.4731,1393.4805 L923.4731,1396.2031 Q922.8423,1395.6221 922.2488,1395.3523 Q921.6553,1395.0825 921.0244,1395.0825 Q919.6797,1395.0825 918.9949,1396.1492 Q918.3101,1397.2158 918.3101,1399.3159 Q918.3101,1401.4077 918.9949,1402.4744 Q919.6797,1403.541 921.0244,1403.541 Q921.6553,1403.541 922.2488,1403.2712 Q922.8423,1403.0015 923.4731,1402.4204 Z " fill="#000000"/><text fill="#000000" font-family="sans-serif" font-size="14" lengthAdjust="spacing" textLength="31" x="935" y="1404.291">Text</text><line style="stroke:#181818;stroke-width:0.5;" x1="907" x2="968" y1="1415" y2="1415"/><line style="stroke:#181818;stroke-width:0.5;" x1="907" x2="968" y1="1423" y2="1423"/></g><!--link EducationPlatform to Teacher--><g id="link_EducationPlatform_Teacher"><path codeLine="31" d="M583.2779,63.4804 C583.2779,63.4804 524.41,107.37 498.76,126.49 " fill="none" id="EducationPlatform-Teacher" style="stroke:#181818;stroke-width:1.0;"/><polygon fill="#181818" points="592.9,56.31,585.6988,56.6879,583.2779,63.4804,590.4791,63.1026,592.9,56.31" style="stroke:#181818;stroke-width:1.0;"/><polygon fill="#181818" points="488.37,134.24,497.9767,132.0695,492.3792,131.2523,493.1964,125.6548,488.37,134.24" style="stroke:#181818;stroke-width:1.0;"/><line style="stroke:#181818;stroke-width:1.0;" x1="492.3792" x2="498.79" y1="131.2523" y2="126.47"/><text fill="#000000" font-family="sans-serif" font-size="13" lengthAdjust="spacing" textLength="8" x="486.3122" y="124.3348">n</text></g><!--link EducationPlatform to Student--><g id="link_EducationPlatform_Student"><path codeLine="32" d="M625.5,68.92 C625.5,68.92 625.5,104.74 625.5,120.77 " fill="none" id="EducationPlatform-Student" style="stroke:#181818;stroke-width:1.0;"/><polygon fill="#181818" points="625.5,56.92,621.5,62.92,625.5,68.92,629.5,62.92,625.5,56.92" style="stroke:#181818;stroke-width:1.0;"/><polygon fill="#181818" points="625.5,133.63,629.5,124.63,625.5,128.63,621.5,124.63,625.5,133.63" style="stroke:#181818;stroke-width:1.0;"/><line style="stroke:#181818;stroke-width:1.0;" x1="625.5" x2="625.5" y1="128.63" y2="120.63"/><text fill="#000000" font-family="sans-serif" font-size="13" lengthAdjust="spacing" textLength="8" x="616.425" y="124.3348">n</text></g><!--link EducationPlatform to Course--><g id="link_EducationPlatform_Course"><path codeLine="33" d="M532.8245,36.223 C532.8245,36.223 407.97,64.71 371.5,115 C348.54,146.66 354.95,167.56 371.5,203 C386.15,234.37 415.57,259.56 441.97,277.18 " fill="none" id="EducationPlatform-Course" style="stroke:#181818;stroke-width:1.0;"/><polygon fill="#181818" points="544.73,34.72,538.2762,31.503,532.8245,36.223,539.2783,39.44,544.73,34.72" style="stroke:#181818;stroke-width:1.0;"/><polygon fill="#181818" points="452.94,284.16,447.489,275.9571,448.7199,281.4785,443.1986,282.7093,452.94,284.16" style="stroke:#181818;stroke-width:1.0;"/><line style="stroke:#181818;stroke-width:1.0;" x1="448.7199" x2="441.97" y1="281.4785" y2="277.18"/><text fill="#000000" font-family="sans-serif" font-size="13" lengthAdjust="spacing" textLength="8" x="438.044" y="277.1224">n</text></g><!--link EducationPlatform to Itinerary--><g id="link_EducationPlatform_Itinerary"><path codeLine="34" d="M667.9294,63.4571 C667.9294,63.4571 727.49,107.59 753.34,126.75 " fill="none" id="EducationPlatform-Itinerary" style="stroke:#181818;stroke-width:1.0;"/><polygon fill="none" points="658.29,56.31,660.7273,63.0967,667.9294,63.4571,665.4921,56.6704,658.29,56.31" style="stroke:#181818;stroke-width:1.0;"/><polygon fill="#181818" points="763.45,134.24,758.5952,125.6708,759.4309,131.2656,753.8362,132.1013,763.45,134.24" style="stroke:#181818;stroke-width:1.0;"/><line style="stroke:#181818;stroke-width:1.0;" x1="759.4309" x2="753.005" y1="131.2656" y2="126.505"/><text fill="#000000" font-family="sans-serif" font-size="13" lengthAdjust="spacing" textLength="8" x="747.3094" y="124.3348">n</text></g><!--link EducationPlatform to Tools--><g id="link_EducationPlatform_Tools"><path codeLine="35" d="M717.8051,57.1667 C717.8051,57.1667 828.96,92.08 881.5,115 C891.24,119.25 901.37,124.36 910.95,129.55 " fill="none" id="EducationPlatform-Tools" style="stroke:#181818;stroke-width:1.0;"/><polygon fill="none" points="706.29,53.79,710.922,59.3167,717.8051,57.1667,713.1731,51.64,706.29,53.79" style="stroke:#181818;stroke-width:1.0;"/><polygon fill="#181818" points="922.27,135.86,916.3595,127.9818,917.9036,133.4239,912.4616,134.968,922.27,135.86" style="stroke:#181818;stroke-width:1.0;"/><line style="stroke:#181818;stroke-width:1.0;" x1="917.9036" x2="910.915" y1="133.4239" y2="129.53"/><text fill="#000000" font-family="sans-serif" font-size="13" lengthAdjust="spacing" textLength="8" x="907.5648" y="128.0335">n</text></g><!--link Itinerary to Course--><g id="link_Itinerary_Course"><path codeLine="38" d="M739.2869,188.2866 C739.2869,188.2866 718.88,198.41 709.5,203 C654.42,229.96 591.07,260.22 547.48,280.92 " fill="none" id="Itinerary-Course" style="stroke:#181818;stroke-width:1.0;"/><polygon fill="none" points="750.02,182.92,742.8646,182.0256,739.2869,188.2866,746.4423,189.181,750.02,182.92" style="stroke:#181818;stroke-width:1.0;"/><polygon fill="#181818" points="535.99,286.38,545.8359,286.1406,540.5084,284.2389,542.4101,278.9113,535.99,286.38" style="stroke:#181818;stroke-width:1.0;"/><line style="stroke:#181818;stroke-width:1.0;" x1="540.5084" x2="547.73" y1="284.2389" y2="280.805"/></g><!--reverse link Itinerary to Custom--><g id="link_Itinerary_Custom"><path codeLine="40" d="M778.02,202.54 C767.25,228.75 753.85,261.35 745.01,282.87 " fill="none" id="Itinerary-backto-Custom" style="stroke:#181818;stroke-width:1.0;"/><polygon fill="none" points="771.47,200.05,785.55,184.21,784.42,205.37,771.47,200.05" style="stroke:#181818;stroke-width:1.0;"/></g><!--reverse link Itinerary to Defined--><g id="link_Itinerary_Defined"><path codeLine="41" d="M812.98,202.54 C823.75,228.75 837.15,261.35 845.99,282.87 " fill="none" id="Itinerary-backto-Defined" style="stroke:#181818;stroke-width:1.0;"/><polygon fill="none" points="806.58,205.37,805.45,184.21,819.53,200.05,806.58,205.37" style="stroke:#181818;stroke-width:1.0;"/></g><!--link Course to Syllabus--><g id="link_Course_Syllabus"><path codeLine="43" d="M494.5,344.33 C494.5,344.33 494.5,380.27 494.5,396.43 " fill="none" id="Course-Syllabus" style="stroke:#181818;stroke-width:1.0;"/><polygon fill="#181818" points="494.5,332.33,490.5,338.33,494.5,344.33,498.5,338.33,494.5,332.33" style="stroke:#181818;stroke-width:1.0;"/><polygon fill="#181818" points="494.5,409.41,498.5,400.41,494.5,404.41,490.5,400.41,494.5,409.41" style="stroke:#181818;stroke-width:1.0;"/><line style="stroke:#181818;stroke-width:1.0;" x1="494.5" x2="494.5" y1="404.41" y2="396.41"/></g><!--link Syllabus to Topic--><g id="link_Syllabus_Topic"><path codeLine="44" d="M494.5,472.92 C494.5,472.92 494.5,508.74 494.5,524.77 " fill="none" id="Syllabus-Topic" style="stroke:#181818;stroke-width:1.0;"/><polygon fill="#181818" points="494.5,460.92,490.5,466.92,494.5,472.92,498.5,466.92,494.5,460.92" style="stroke:#181818;stroke-width:1.0;"/><polygon fill="#181818" points="494.5,537.63,498.5,528.63,494.5,532.63,490.5,528.63,494.5,537.63" style="stroke:#181818;stroke-width:1.0;"/><line style="stroke:#181818;stroke-width:1.0;" x1="494.5" x2="494.5" y1="532.63" y2="524.63"/><text fill="#000000" font-family="sans-serif" font-size="13" lengthAdjust="spacing" textLength="8" x="485.425" y="528.3348">n</text></g><!--link Topic to Unit--><g id="link_Topic_Unit"><path codeLine="45" d="M494.5,600.33 C494.5,600.33 494.5,650.93 494.5,672.88 " fill="none" id="Topic-Unit" style="stroke:#181818;stroke-width:1.0;"/><polygon fill="#181818" points="494.5,588.33,490.5,594.33,494.5,600.33,498.5,594.33,494.5,588.33" style="stroke:#181818;stroke-width:1.0;"/><polygon fill="#181818" points="494.5,685.83,498.5,676.83,494.5,680.83,490.5,676.83,494.5,685.83" style="stroke:#181818;stroke-width:1.0;"/><line style="stroke:#181818;stroke-width:1.0;" x1="494.5" x2="494.5" y1="680.83" y2="672.83"/><text fill="#000000" font-family="sans-serif" font-size="13" lengthAdjust="spacing" textLength="8" x="485.375" y="676.2011">n</text></g><!--link Unit to Index--><g id="link_Unit_Index"><path codeLine="46" d="M494.5,748.33 C494.5,748.33 494.5,784.27 494.5,800.43 " fill="none" id="Unit-Index" style="stroke:#181818;stroke-width:1.0;"/><polygon fill="#181818" points="494.5,736.33,490.5,742.33,494.5,748.33,498.5,742.33,494.5,736.33" style="stroke:#181818;stroke-width:1.0;"/><polygon fill="#181818" points="494.5,813.41,498.5,804.41,494.5,808.41,490.5,804.41,494.5,813.41" style="stroke:#181818;stroke-width:1.0;"/><line style="stroke:#181818;stroke-width:1.0;" x1="494.5" x2="494.5" y1="808.41" y2="800.41"/></g><!--link Index to Section--><g id="link_Index_Section"><path codeLine="47" d="M494.5,876.92 C494.5,876.92 494.5,912.74 494.5,928.77 " fill="none" id="Index-Section" style="stroke:#181818;stroke-width:1.0;"/><polygon fill="none" points="494.5,864.92,490.5,870.92,494.5,876.92,498.5,870.92,494.5,864.92" style="stroke:#181818;stroke-width:1.0;"/><polygon fill="#181818" points="494.5,941.63,498.5,932.63,494.5,936.63,490.5,932.63,494.5,941.63" style="stroke:#181818;stroke-width:1.0;"/><line style="stroke:#181818;stroke-width:1.0;" x1="494.5" x2="494.5" y1="936.63" y2="928.63"/><text fill="#000000" font-family="sans-serif" font-size="13" lengthAdjust="spacing" textLength="8" x="485.425" y="932.3348">n</text></g><!--link Section to Concept--><g id="link_Section_Concept"><path codeLine="49" d="M494.5,1004.33 C494.5,1004.33 494.5,1054.93 494.5,1076.88 " fill="none" id="Section-Concept" style="stroke:#181818;stroke-width:1.0;"/><polygon fill="#181818" points="494.5,992.33,490.5,998.33,494.5,1004.33,498.5,998.33,494.5,992.33" style="stroke:#181818;stroke-width:1.0;"/><polygon fill="#181818" points="494.5,1089.83,498.5,1080.83,494.5,1084.83,490.5,1080.83,494.5,1089.83" style="stroke:#181818;stroke-width:1.0;"/><line style="stroke:#181818;stroke-width:1.0;" x1="494.5" x2="494.5" y1="1084.83" y2="1076.83"/><text fill="#000000" font-family="sans-serif" font-size="13" lengthAdjust="spacing" textLength="8" x="485.375" y="1080.2011">n</text></g><!--link Concept to Multimedia--><g id="link_Concept_Multimedia"><path codeLine="50" d="M538.8527,1146.3576 C538.8527,1146.3576 635.17,1212.28 674.35,1239.09 " fill="none" id="Concept-Multimedia" style="stroke:#181818;stroke-width:1.0;"/><polygon fill="#181818" points="528.95,1139.58,531.6422,1146.2697,538.8527,1146.3576,536.1606,1139.6679,528.95,1139.58" style="stroke:#181818;stroke-width:1.0;"/><polygon fill="#181818" points="684.92,1246.33,679.7522,1237.9459,680.7939,1243.506,675.2338,1244.5477,684.92,1246.33" style="stroke:#181818;stroke-width:1.0;"/><line style="stroke:#181818;stroke-width:1.0;" x1="680.7939" x2="674.19" y1="1243.506" y2="1238.985"/><text fill="#000000" font-family="sans-serif" font-size="13" lengthAdjust="spacing" textLength="8" x="668.1249" y="1236.3728">n</text></g><!--link Concept to Definition--><g id="link_Concept_Definition"><path codeLine="51" d="M494.5,1152.24 C494.5,1152.24 494.5,1202.11 494.5,1224.95 " fill="none" id="Concept-Definition" style="stroke:#181818;stroke-width:1.0;"/><polygon fill="#181818" points="494.5,1140.24,490.5,1146.24,494.5,1152.24,498.5,1146.24,494.5,1140.24" style="stroke:#181818;stroke-width:1.0;"/><polygon fill="#181818" points="494.5,1237.69,498.5,1228.69,494.5,1232.69,490.5,1228.69,494.5,1237.69" style="stroke:#181818;stroke-width:1.0;"/><line style="stroke:#181818;stroke-width:1.0;" x1="494.5" x2="494.5" y1="1232.69" y2="1224.69"/><text fill="#000000" font-family="sans-serif" font-size="13" lengthAdjust="spacing" textLength="8" x="485.625" y="1228.152">n</text></g><!--link Definition to Link--><g id="link_Definition_Link"><path codeLine="52" d="M453.9318,1312.2623 C453.9318,1312.2623 411.53,1354.35 393.33,1372.42 " fill="none" id="Definition-Link" style="stroke:#181818;stroke-width:1.0;"/><polygon fill="#181818" points="462.45,1303.81,455.3735,1305.1967,453.9318,1312.2623,461.0083,1310.8755,462.45,1303.81" style="stroke:#181818;stroke-width:1.0;"/><polygon fill="#181818" points="384.25,1381.44,393.4561,1377.9402,387.7992,1377.9182,387.8212,1372.2614,384.25,1381.44" style="stroke:#181818;stroke-width:1.0;"/><line style="stroke:#181818;stroke-width:1.0;" x1="387.7992" x2="393.475" y1="1377.9182" y2="1372.28"/></g><!--reverse link Link to Use--><g id="link_Link_Use"><path codeLine="53" d="M308.55,1420.37 C252.11,1434.72 158.85,1460.38 81.5,1491 C75.85,1493.23 69.96,1495.9 64.35,1498.62 " fill="none" id="Link-backto-Use" style="stroke:#181818;stroke-width:1.0;"/><polygon fill="none" points="306.73,1413.61,327.83,1415.55,310.13,1427.19,306.73,1413.61" style="stroke:#181818;stroke-width:1.0;"/></g><!--reverse link Link to Association--><g id="link_Link_Association"><path codeLine="54" d="M310.36,1433.41 C276.71,1450.81 232.43,1473.71 199.67,1490.65 " fill="none" id="Link-backto-Association" style="stroke:#181818;stroke-width:1.0;"/><polygon fill="none" points="306.93,1427.3,327.91,1424.34,313.36,1439.74,306.93,1427.3" style="stroke:#181818;stroke-width:1.0;"/></g><!--reverse link Link to Agregation--><g id="link_Link_Agregation"><path codeLine="55" d="M335.83,1449.82 C327.93,1463.77 319.43,1478.79 312.64,1490.79 " fill="none" id="Link-backto-Agregation" style="stroke:#181818;stroke-width:1.0;"/><polygon fill="none" points="329.64,1446.54,345.59,1432.58,341.83,1453.43,329.64,1446.54" style="stroke:#181818;stroke-width:1.0;"/></g><!--reverse link Link to Composition--><g id="link_Link_Composition"><path codeLine="56" d="M392.98,1447.43 C405.37,1462.03 419.02,1478.1 429.8,1490.79 " fill="none" id="Link-backto-Composition" style="stroke:#181818;stroke-width:1.0;"/><polygon fill="none" points="387.84,1452.19,380.23,1432.42,398.51,1443.13,387.84,1452.19" style="stroke:#181818;stroke-width:1.0;"/></g><!--reverse link Link to Inheritance--><g id="link_Link_Inheritance"><path codeLine="57" d="M409.5,1430.09 C449.59,1447.79 505.71,1472.57 546.55,1490.61 " fill="none" id="Link-backto-Inheritance" style="stroke:#181818;stroke-width:1.0;"/><polygon fill="none" points="406.75,1436.52,391.28,1422.04,412.4,1423.71,406.75,1436.52" style="stroke:#181818;stroke-width:1.0;"/></g><!--link Link to Concept--><g id="link_Link_Concept"><path codeLine="65" d="M359.8,1382.76 C361.16,1345.99 367.52,1273.02 395.5,1219 C410.98,1189.11 437.88,1161.96 459.73,1143.04 " fill="none" id="Link-to-Concept" style="stroke:#181818;stroke-width:1.0;stroke-dasharray:7.0,7.0;"/><polygon fill="#181818" points="463.45,1139.88,454.0023,1142.6621,459.6407,1143.1187,459.1841,1148.7571,463.45,1139.88" style="stroke:#181818;stroke-width:1.0;"/></g><!--reverse link Multimedia to Podcast--><g id="link_Multimedia_Podcast"><path codeLine="68" d="M686.74,1310.85 C667.12,1334.11 642.83,1362.92 626.14,1382.71 " fill="none" id="Multimedia-backto-Podcast" style="stroke:#181818;stroke-width:1.0;"/><polygon fill="none" points="681.11,1306.66,699.36,1295.89,691.81,1315.69,681.11,1306.66" style="stroke:#181818;stroke-width:1.0;"/></g><!--reverse link Multimedia to Video--><g id="link_Multimedia_Video"><path codeLine="69" d="M719.5,1316.04 C719.5,1338.28 719.5,1364.37 719.5,1382.71 " fill="none" id="Multimedia-backto-Video" style="stroke:#181818;stroke-width:1.0;"/><polygon fill="none" points="712.5,1316.24,719.5,1296.24,726.5,1316.24,712.5,1316.24" style="stroke:#181818;stroke-width:1.0;"/></g><!--link Video to Transcription--><g id="link_Video_Transcription"><path codeLine="70" d="M730.1067,1444.2251 C730.1067,1444.2251 736.65,1466.63 739.67,1476.96 " fill="none" id="Video-Transcription" style="stroke:#181818;stroke-width:1.0;"/><polygon fill="none" points="726.73,1432.71,724.58,1439.5931,730.1067,1444.2251,732.2567,1437.342,726.73,1432.71" style="stroke:#181818;stroke-width:1.0;"/><polygon fill="#181818" points="743.29,1489.34,744.5989,1479.5785,741.8845,1484.5416,736.9214,1481.8273,743.29,1489.34" style="stroke:#181818;stroke-width:1.0;"/><line style="stroke:#181818;stroke-width:1.0;" x1="741.8845" x2="739.64" y1="1484.5416" y2="1476.86"/></g><!--reverse link Multimedia to Images--><g id="link_Multimedia_Images"><path codeLine="71" d="M751.96,1311.19 C771.19,1334.4 794.9,1363.02 811.2,1382.71 " fill="none" id="Multimedia-backto-Images" style="stroke:#181818;stroke-width:1.0;"/><polygon fill="none" points="746.66,1315.76,739.3,1295.9,757.44,1306.83,746.66,1315.76" style="stroke:#181818;stroke-width:1.0;"/></g><!--reverse link Multimedia to Text--><g id="link_Multimedia_Text"><path codeLine="72" d="M774.69,1305.93 C816.11,1331.38 871.35,1365.34 905.66,1386.43 " fill="none" id="Multimedia-backto-Text" style="stroke:#181818;stroke-width:1.0;"/><polygon fill="none" points="771.14,1311.96,757.77,1295.52,778.47,1300.03,771.14,1311.96" style="stroke:#181818;stroke-width:1.0;"/></g><!--SRC=[VLFTQiCW5BxtAQGtXK7s1AEmjRqeR51OstjhJZDfea4Dj6nxzndrg4kWkJWvvpl_F_AM6KEtzS2P5KhkMsOlIdU4U_ppthRiF9WexcGDjyYlrQ0Da6MKHefEmCTGKJgeNl387wMmwB5HVEX0MbROVWoj5HtKWaLWhshEZCLGcad3jUYzIupprYf-HM5x0yq5XvoaOoAPhfc5HkaxoYVG9YT_5_8QsGrSX2lLwRu9TLzrLge59kc5NO7yfWb83dqg3XZ_0eqpi4FjcYC49sU51CtqdQBpOApgodnG4pBR0tsggXLTo4MA_y04apumYLkRMoYqI9K-CZguUHZNN6xBgsBq0dxvgIhiTOAcfeDNg34T73B50FmXUPf1Vr4Z2L0uK4zpiNYF93BbDC86upyhYaESwV9naCm6jJ-XaOGEZsuMMNerHd4Hphr06mtD55ohhbT6JD2TTFiNbhbwtEYNBZfzVbwb9fP50XgsWOgK0zSK5KMUq01gGjOoEY5v9g4SV9jJ_2HgKCJJaEx_ivsQxphMW9d11xZPFm00]--></g></svg>