<?xml version="1.0" encoding="us-ascii" standalone="no"?><svg xmlns="http://www.w3.org/2000/svg" xmlns:xlink="http://www.w3.org/1999/xlink" contentStyleType="text/css" height="1188px" preserveAspectRatio="none" style="width:1973px;height:1188px;background:#FFFFFF;" version="1.1" viewBox="0 0 1973 1188" width="1973px" zoomAndPan="magnify"><defs/><g><!--class ServicesContract--><g id="elem_ServicesContract"><rect codeLine="1" fill="#F1F1F1" height="48" id="ServicesContract" rx="2.5" ry="2.5" style="stroke:#181818;stroke-width:0.5;" width="140" x="7" y="782.5"/><ellipse cx="22" cy="798.5" fill="#ADD1B2" rx="11" ry="11" style="stroke:#181818;stroke-width:1.0;"/><path d="M24.7656,794.375 Q24.9219,794.1563 25.1094,794.0469 Q25.2969,793.9375 25.5156,793.9375 Q25.8906,793.9375 26.125,794.2031 Q26.3594,794.4531 26.3594,795.0625 L26.3594,796.5156 Q26.3594,797.125 26.125,797.3906 Q25.8906,797.6563 25.5156,797.6563 Q25.1719,797.6563 24.9688,797.4531 Q24.7656,797.2656 24.6563,796.75 Q24.6094,796.3906 24.4219,796.2031 Q24.0938,795.8281 23.4844,795.6094 Q22.875,795.3906 22.25,795.3906 Q21.4844,795.3906 20.8438,795.7188 Q20.2188,796.0469 19.7188,796.7969 Q19.2344,797.5469 19.2344,798.5781 L19.2344,799.6719 Q19.2344,800.9063 20.125,801.7344 Q21.0156,802.5469 22.6094,802.5469 Q23.5469,802.5469 24.2031,802.2969 Q24.5938,802.1406 25.0156,801.7031 Q25.2813,801.4375 25.4219,801.3594 Q25.5781,801.2813 25.7813,801.2813 Q26.1094,801.2813 26.3594,801.5469 Q26.625,801.7969 26.625,802.1406 Q26.625,802.4844 26.2813,802.8906 Q25.7813,803.4688 24.9844,803.7969 Q23.9063,804.25 22.6094,804.25 Q21.0938,804.25 19.8906,803.625 Q18.9063,803.125 18.2188,802.0625 Q17.5313,800.9844 17.5313,799.7031 L17.5313,798.5469 Q17.5313,797.2188 18.1406,796.0781 Q18.7656,794.9219 19.8594,794.3125 Q20.9531,793.6875 22.1875,793.6875 Q22.9219,793.6875 23.5625,793.8594 Q24.2188,794.0156 24.7656,794.375 Z " fill="#000000"/><text fill="#000000" font-family="sans-serif" font-size="14" lengthAdjust="spacing" textLength="108" x="36" y="804.2285">ServicesContract</text><line style="stroke:#181818;stroke-width:0.5;" x1="8" x2="146" y1="814.5" y2="814.5"/><line style="stroke:#181818;stroke-width:0.5;" x1="8" x2="146" y1="822.5" y2="822.5"/></g><!--class Menu--><g id="elem_Menu"><rect codeLine="31" fill="#F1F1F1" height="224.0938" id="Menu" rx="2.5" ry="2.5" style="stroke:#181818;stroke-width:0.5;" width="241" x="1483.5" y="7"/><ellipse cx="1581.75" cy="23" fill="#A9DCDF" rx="11" ry="11" style="stroke:#181818;stroke-width:1.0;"/><path d="M1583.9375,24.7656 L1579.7969,24.7656 L1579.375,25.7969 L1579.7969,25.7969 Q1580.4063,25.7969 1580.6719,26.0313 Q1580.9375,26.2656 1580.9375,26.6563 Q1580.9375,27.0313 1580.6719,27.2656 Q1580.4063,27.5 1579.7969,27.5 L1577.5,27.5 Q1576.8906,27.5 1576.6406,27.2656 Q1576.375,27.0313 1576.375,26.6406 Q1576.375,26.2656 1576.6563,26.0313 Q1576.9219,25.7813 1577.5469,25.7969 L1580.2188,19.1406 L1579.1094,19.1406 Q1578.5,19.1406 1578.2344,18.9063 Q1577.9688,18.6719 1577.9688,18.2813 Q1577.9688,17.9063 1578.2344,17.6719 Q1578.5,17.4375 1579.1094,17.4375 L1582.7813,17.4375 L1586.1719,25.7969 Q1586.7656,25.7969 1586.9531,25.9375 Q1587.3438,26.2031 1587.3438,26.6563 Q1587.3438,27.0313 1587.0781,27.2656 Q1586.8281,27.5 1586.2188,27.5 L1583.9219,27.5 Q1583.3125,27.5 1583.0469,27.2656 Q1582.7813,27.0313 1582.7813,26.6406 Q1582.7813,26.2656 1583.0469,26.0313 Q1583.3125,25.7969 1583.9219,25.7969 L1584.3438,25.7969 L1583.9375,24.7656 Z M1583.2188,23.0625 L1581.8594,19.6875 L1580.4844,23.0625 L1583.2188,23.0625 Z " fill="#000000"/><text fill="#000000" font-family="sans-serif" font-size="14" font-style="italic" lengthAdjust="spacing" textLength="36" x="1602.25" y="28.7285">Menu</text><line style="stroke:#181818;stroke-width:0.5;" x1="1484.5" x2="1723.5" y1="39" y2="39"/><rect fill="none" height="6" style="stroke:#C82930;stroke-width:1.0;" width="6" x="1491.5" y="50.3047"/><text fill="#000000" font-family="sans-serif" font-size="14" lengthAdjust="spacing" textLength="63" x="1503.5" y="57.5332">String title</text><line style="stroke:#181818;stroke-width:0.5;" x1="1484.5" x2="1723.5" y1="64.6094" y2="64.6094"/><ellipse cx="1494.5" cy="78.9141" fill="#84BE84" rx="3" ry="3" style="stroke:#038048;stroke-width:1.0;"/><text fill="#000000" font-family="sans-serif" font-size="14" lengthAdjust="spacing" textLength="57" x="1503.5" y="83.1426">interact()</text><polygon fill="#FFFF44" points="1494.5,91.5234,1498.5,95.5234,1494.5,99.5234,1490.5,95.5234" style="stroke:#B38D22;stroke-width:1.0;"/><text fill="#000000" font-family="sans-serif" font-size="14" font-style="italic" lengthAdjust="spacing" textLength="83" x="1503.5" y="100.752">addOptions()</text><polygon fill="#FFFF44" points="1494.5,109.1328,1498.5,113.1328,1494.5,117.1328,1490.5,113.1328" style="stroke:#B38D22;stroke-width:1.0;"/><text fill="#000000" font-family="sans-serif" font-size="14" lengthAdjust="spacing" textLength="65" x="1503.5" y="118.3613">interact_()</text><polygon fill="#FFFF44" points="1494.5,126.7422,1498.5,130.7422,1494.5,134.7422,1490.5,130.7422" style="stroke:#B38D22;stroke-width:1.0;"/><text fill="#000000" font-family="sans-serif" font-size="14" lengthAdjust="spacing" textLength="76" x="1503.5" y="135.9707">showTitles()</text><rect fill="#F24D5C" height="6" style="stroke:#C82930;stroke-width:1.0;" width="6" x="1491.5" y="146.3516"/><text fill="#000000" font-family="sans-serif" font-size="14" lengthAdjust="spacing" textLength="69" x="1503.5" y="153.5801">showTitle()</text><polygon fill="#FFFF44" points="1494.5,161.9609,1498.5,165.9609,1494.5,169.9609,1490.5,165.9609" style="stroke:#B38D22;stroke-width:1.0;"/><text fill="#000000" font-family="sans-serif" font-size="14" lengthAdjust="spacing" textLength="138" x="1503.5" y="171.1895">execChoosedOption()</text><polygon fill="#FFFF44" points="1494.5,179.5703,1498.5,183.5703,1494.5,187.5703,1490.5,183.5703" style="stroke:#B38D22;stroke-width:1.0;"/><text fill="#000000" font-family="sans-serif" font-size="14" lengthAdjust="spacing" textLength="119" x="1503.5" y="188.7988">add(Option option)</text><polygon fill="#FFFF44" points="1494.5,197.1797,1498.5,201.1797,1494.5,205.1797,1490.5,201.1797" style="stroke:#B38D22;stroke-width:1.0;"/><text fill="#000000" font-family="sans-serif" font-size="14" lengthAdjust="spacing" textLength="106" x="1503.5" y="206.4082">removeOptions()</text><polygon fill="#FFFF44" points="1494.5,214.7891,1498.5,218.7891,1494.5,222.7891,1490.5,218.7891" style="stroke:#B38D22;stroke-width:1.0;"/><text fill="#000000" font-family="sans-serif" font-size="14" lengthAdjust="spacing" textLength="215" x="1503.5" y="224.0176">boolean hasOption(Option option)</text></g><!--class IterativeMenu--><g id="elem_IterativeMenu"><rect codeLine="50" fill="#F1F1F1" height="65.6094" id="IterativeMenu" rx="2.5" ry="2.5" style="stroke:#181818;stroke-width:0.5;" width="118" x="901" y="478"/><ellipse cx="916" cy="494" fill="#A9DCDF" rx="11" ry="11" style="stroke:#181818;stroke-width:1.0;"/><path d="M918.1875,495.7656 L914.0469,495.7656 L913.625,496.7969 L914.0469,496.7969 Q914.6563,496.7969 914.9219,497.0313 Q915.1875,497.2656 915.1875,497.6563 Q915.1875,498.0313 914.9219,498.2656 Q914.6563,498.5 914.0469,498.5 L911.75,498.5 Q911.1406,498.5 910.8906,498.2656 Q910.625,498.0313 910.625,497.6406 Q910.625,497.2656 910.9063,497.0313 Q911.1719,496.7813 911.7969,496.7969 L914.4688,490.1406 L913.3594,490.1406 Q912.75,490.1406 912.4844,489.9063 Q912.2188,489.6719 912.2188,489.2813 Q912.2188,488.9063 912.4844,488.6719 Q912.75,488.4375 913.3594,488.4375 L917.0313,488.4375 L920.4219,496.7969 Q921.0156,496.7969 921.2031,496.9375 Q921.5938,497.2031 921.5938,497.6563 Q921.5938,498.0313 921.3281,498.2656 Q921.0781,498.5 920.4688,498.5 L918.1719,498.5 Q917.5625,498.5 917.2969,498.2656 Q917.0313,498.0313 917.0313,497.6406 Q917.0313,497.2656 917.2969,497.0313 Q917.5625,496.7969 918.1719,496.7969 L918.5938,496.7969 L918.1875,495.7656 Z M917.4688,494.0625 L916.1094,490.6875 L914.7344,494.0625 L917.4688,494.0625 Z " fill="#000000"/><text fill="#000000" font-family="sans-serif" font-size="14" font-style="italic" lengthAdjust="spacing" textLength="86" x="930" y="499.7285">IterativeMenu</text><line style="stroke:#181818;stroke-width:0.5;" x1="902" x2="1018" y1="510" y2="510"/><line style="stroke:#181818;stroke-width:0.5;" x1="902" x2="1018" y1="518" y2="518"/><ellipse cx="912" cy="532.3047" fill="#84BE84" rx="3" ry="3" style="stroke:#038048;stroke-width:1.0;"/><text fill="#000000" font-family="sans-serif" font-size="14" lengthAdjust="spacing" textLength="57" x="921" y="536.5332">interact()</text></g><!--class QuitMenu--><g id="elem_QuitMenu"><rect codeLine="44" fill="#F1F1F1" height="100.8281" id="QuitMenu" rx="2.5" ry="2.5" style="stroke:#181818;stroke-width:0.5;" width="224" x="1410" y="291"/><ellipse cx="1486.75" cy="307" fill="#A9DCDF" rx="11" ry="11" style="stroke:#181818;stroke-width:1.0;"/><path d="M1488.9375,308.7656 L1484.7969,308.7656 L1484.375,309.7969 L1484.7969,309.7969 Q1485.4063,309.7969 1485.6719,310.0313 Q1485.9375,310.2656 1485.9375,310.6563 Q1485.9375,311.0313 1485.6719,311.2656 Q1485.4063,311.5 1484.7969,311.5 L1482.5,311.5 Q1481.8906,311.5 1481.6406,311.2656 Q1481.375,311.0313 1481.375,310.6406 Q1481.375,310.2656 1481.6563,310.0313 Q1481.9219,309.7813 1482.5469,309.7969 L1485.2188,303.1406 L1484.1094,303.1406 Q1483.5,303.1406 1483.2344,302.9063 Q1482.9688,302.6719 1482.9688,302.2813 Q1482.9688,301.9063 1483.2344,301.6719 Q1483.5,301.4375 1484.1094,301.4375 L1487.7813,301.4375 L1491.1719,309.7969 Q1491.7656,309.7969 1491.9531,309.9375 Q1492.3438,310.2031 1492.3438,310.6563 Q1492.3438,311.0313 1492.0781,311.2656 Q1491.8281,311.5 1491.2188,311.5 L1488.9219,311.5 Q1488.3125,311.5 1488.0469,311.2656 Q1487.7813,311.0313 1487.7813,310.6406 Q1487.7813,310.2656 1488.0469,310.0313 Q1488.3125,309.7969 1488.9219,309.7969 L1489.3438,309.7969 L1488.9375,308.7656 Z M1488.2188,307.0625 L1486.8594,303.6875 L1485.4844,307.0625 L1488.2188,307.0625 Z " fill="#000000"/><text fill="#000000" font-family="sans-serif" font-size="14" font-style="italic" lengthAdjust="spacing" textLength="62" x="1507.25" y="312.7285">QuitMenu</text><line style="stroke:#181818;stroke-width:0.5;" x1="1411" x2="1633" y1="323" y2="323"/><line style="stroke:#181818;stroke-width:0.5;" x1="1411" x2="1633" y1="331" y2="331"/><polygon fill="#FFFF44" points="1421,340.3047,1425,344.3047,1421,348.3047,1417,344.3047" style="stroke:#B38D22;stroke-width:1.0;"/><text fill="#000000" font-family="sans-serif" font-size="14" lengthAdjust="spacing" textLength="76" x="1430" y="349.5332">showTitles()</text><polygon fill="#FFFF44" points="1421,357.9141,1425,361.9141,1421,365.9141,1417,361.9141" style="stroke:#B38D22;stroke-width:1.0;"/><text fill="#000000" font-family="sans-serif" font-size="14" lengthAdjust="spacing" textLength="99" x="1430" y="367.1426">addquitOption()</text><polygon fill="#FFFF44" points="1421,375.5234,1425,379.5234,1421,383.5234,1417,379.5234" style="stroke:#B38D22;stroke-width:1.0;"/><text fill="#000000" font-family="sans-serif" font-size="14" lengthAdjust="spacing" textLength="198" x="1430" y="384.752">boolean isExecutedquitOption()</text></g><!--class ServicesContractMenu--><g id="elem_ServicesContractMenu"><rect codeLine="5" fill="#F1F1F1" height="48" id="ServicesContractMenu" rx="2.5" ry="2.5" style="stroke:#181818;stroke-width:0.5;" width="175" x="402.5" y="639"/><ellipse cx="417.5" cy="655" fill="#ADD1B2" rx="11" ry="11" style="stroke:#181818;stroke-width:1.0;"/><path d="M420.2656,650.875 Q420.4219,650.6563 420.6094,650.5469 Q420.7969,650.4375 421.0156,650.4375 Q421.3906,650.4375 421.625,650.7031 Q421.8594,650.9531 421.8594,651.5625 L421.8594,653.0156 Q421.8594,653.625 421.625,653.8906 Q421.3906,654.1563 421.0156,654.1563 Q420.6719,654.1563 420.4688,653.9531 Q420.2656,653.7656 420.1563,653.25 Q420.1094,652.8906 419.9219,652.7031 Q419.5938,652.3281 418.9844,652.1094 Q418.375,651.8906 417.75,651.8906 Q416.9844,651.8906 416.3438,652.2188 Q415.7188,652.5469 415.2188,653.2969 Q414.7344,654.0469 414.7344,655.0781 L414.7344,656.1719 Q414.7344,657.4063 415.625,658.2344 Q416.5156,659.0469 418.1094,659.0469 Q419.0469,659.0469 419.7031,658.7969 Q420.0938,658.6406 420.5156,658.2031 Q420.7813,657.9375 420.9219,657.8594 Q421.0781,657.7813 421.2813,657.7813 Q421.6094,657.7813 421.8594,658.0469 Q422.125,658.2969 422.125,658.6406 Q422.125,658.9844 421.7813,659.3906 Q421.2813,659.9688 420.4844,660.2969 Q419.4063,660.75 418.1094,660.75 Q416.5938,660.75 415.3906,660.125 Q414.4063,659.625 413.7188,658.5625 Q413.0313,657.4844 413.0313,656.2031 L413.0313,655.0469 Q413.0313,653.7188 413.6406,652.5781 Q414.2656,651.4219 415.3594,650.8125 Q416.4531,650.1875 417.6875,650.1875 Q418.4219,650.1875 419.0625,650.3594 Q419.7188,650.5156 420.2656,650.875 Z " fill="#000000"/><text fill="#000000" font-family="sans-serif" font-size="14" lengthAdjust="spacing" textLength="143" x="431.5" y="660.7285">ServicesContractMenu</text><line style="stroke:#181818;stroke-width:0.5;" x1="403.5" x2="576.5" y1="671" y2="671"/><line style="stroke:#181818;stroke-width:0.5;" x1="403.5" x2="576.5" y1="679" y2="679"/></g><!--class Option--><g id="elem_Option"><rect codeLine="55" fill="#F1F1F1" height="118.4375" id="Option" rx="2.5" ry="2.5" style="stroke:#181818;stroke-width:0.5;" width="147" x="1613.5" y="452"/><ellipse cx="1661.75" cy="468" fill="#A9DCDF" rx="11" ry="11" style="stroke:#181818;stroke-width:1.0;"/><path d="M1663.9375,469.7656 L1659.7969,469.7656 L1659.375,470.7969 L1659.7969,470.7969 Q1660.4063,470.7969 1660.6719,471.0313 Q1660.9375,471.2656 1660.9375,471.6563 Q1660.9375,472.0313 1660.6719,472.2656 Q1660.4063,472.5 1659.7969,472.5 L1657.5,472.5 Q1656.8906,472.5 1656.6406,472.2656 Q1656.375,472.0313 1656.375,471.6406 Q1656.375,471.2656 1656.6563,471.0313 Q1656.9219,470.7813 1657.5469,470.7969 L1660.2188,464.1406 L1659.1094,464.1406 Q1658.5,464.1406 1658.2344,463.9063 Q1657.9688,463.6719 1657.9688,463.2813 Q1657.9688,462.9063 1658.2344,462.6719 Q1658.5,462.4375 1659.1094,462.4375 L1662.7813,462.4375 L1666.1719,470.7969 Q1666.7656,470.7969 1666.9531,470.9375 Q1667.3438,471.2031 1667.3438,471.6563 Q1667.3438,472.0313 1667.0781,472.2656 Q1666.8281,472.5 1666.2188,472.5 L1663.9219,472.5 Q1663.3125,472.5 1663.0469,472.2656 Q1662.7813,472.0313 1662.7813,471.6406 Q1662.7813,471.2656 1663.0469,471.0313 Q1663.3125,470.7969 1663.9219,470.7969 L1664.3438,470.7969 L1663.9375,469.7656 Z M1663.2188,468.0625 L1661.8594,464.6875 L1660.4844,468.0625 L1663.2188,468.0625 Z " fill="#000000"/><text fill="#000000" font-family="sans-serif" font-size="14" font-style="italic" lengthAdjust="spacing" textLength="42" x="1682.25" y="473.7285">Option</text><line style="stroke:#181818;stroke-width:0.5;" x1="1614.5" x2="1759.5" y1="484" y2="484"/><ellipse cx="1624.5" cy="498.3047" fill="none" rx="3" ry="3" style="stroke:#038048;stroke-width:1.0;"/><text fill="#000000" font-family="sans-serif" font-size="14" lengthAdjust="spacing" textLength="22" x="1633.5" y="502.5332">title</text><line style="stroke:#181818;stroke-width:0.5;" x1="1614.5" x2="1759.5" y1="509.6094" y2="509.6094"/><ellipse cx="1624.5" cy="523.9141" fill="#84BE84" rx="3" ry="3" style="stroke:#038048;stroke-width:1.0;"/><text fill="#000000" font-family="sans-serif" font-size="14" font-style="italic" lengthAdjust="spacing" textLength="57" x="1633.5" y="528.1426">interact()</text><ellipse cx="1624.5" cy="541.5234" fill="#84BE84" rx="3" ry="3" style="stroke:#038048;stroke-width:1.0;"/><text fill="#000000" font-family="sans-serif" font-size="14" lengthAdjust="spacing" textLength="121" x="1633.5" y="545.752">showTitle(int index)</text><polygon fill="#FFFF44" points="1624.5,554.1328,1628.5,558.1328,1624.5,562.1328,1620.5,558.1328" style="stroke:#B38D22;stroke-width:1.0;"/><text fill="#000000" font-family="sans-serif" font-size="14" lengthAdjust="spacing" textLength="98" x="1633.5" y="563.3613">String getTitle()</text></g><!--class ServicesContractOption--><g id="elem_ServicesContractOption"><rect codeLine="68" fill="#F1F1F1" height="65.6094" id="ServicesContractOption" rx="2.5" ry="2.5" style="stroke:#181818;stroke-width:0.5;" width="244" x="930" y="630"/><ellipse cx="973.35" cy="646" fill="#A9DCDF" rx="11" ry="11" style="stroke:#181818;stroke-width:1.0;"/><path d="M975.5375,647.7656 L971.3969,647.7656 L970.975,648.7969 L971.3969,648.7969 Q972.0063,648.7969 972.2719,649.0313 Q972.5375,649.2656 972.5375,649.6563 Q972.5375,650.0313 972.2719,650.2656 Q972.0063,650.5 971.3969,650.5 L969.1,650.5 Q968.4906,650.5 968.2406,650.2656 Q967.975,650.0313 967.975,649.6406 Q967.975,649.2656 968.2563,649.0313 Q968.5219,648.7813 969.1469,648.7969 L971.8188,642.1406 L970.7094,642.1406 Q970.1,642.1406 969.8344,641.9063 Q969.5688,641.6719 969.5688,641.2813 Q969.5688,640.9063 969.8344,640.6719 Q970.1,640.4375 970.7094,640.4375 L974.3813,640.4375 L977.7719,648.7969 Q978.3656,648.7969 978.5531,648.9375 Q978.9438,649.2031 978.9438,649.6563 Q978.9438,650.0313 978.6781,650.2656 Q978.4281,650.5 977.8188,650.5 L975.5219,650.5 Q974.9125,650.5 974.6469,650.2656 Q974.3813,650.0313 974.3813,649.6406 Q974.3813,649.2656 974.6469,649.0313 Q974.9125,648.7969 975.5219,648.7969 L975.9438,648.7969 L975.5375,647.7656 Z M974.8188,646.0625 L973.4594,642.6875 L972.0844,646.0625 L974.8188,646.0625 Z " fill="#000000"/><text fill="#000000" font-family="sans-serif" font-size="14" font-style="italic" lengthAdjust="spacing" textLength="149" x="993.65" y="651.7285">ServicesContractOption</text><line style="stroke:#181818;stroke-width:0.5;" x1="931" x2="1173" y1="662" y2="662"/><polygon fill="none" points="941,671.3047,945,675.3047,941,679.3047,937,675.3047" style="stroke:#B38D22;stroke-width:1.0;"/><text fill="#000000" font-family="sans-serif" font-size="14" lengthAdjust="spacing" textLength="218" x="950" y="680.5332">ServicesContract servicesContract</text><line style="stroke:#181818;stroke-width:0.5;" x1="931" x2="1173" y1="687.6094" y2="687.6094"/></g><!--class CancelServicesContractOption--><g id="elem_CancelServicesContractOption"><rect codeLine="72" fill="#F1F1F1" height="65.6094" id="CancelServicesContractOption" rx="2.5" ry="2.5" style="stroke:#181818;stroke-width:0.5;" width="226" x="1034" y="773.5"/><ellipse cx="1049" cy="789.5" fill="#ADD1B2" rx="11" ry="11" style="stroke:#181818;stroke-width:1.0;"/><path d="M1051.7656,785.375 Q1051.9219,785.1563 1052.1094,785.0469 Q1052.2969,784.9375 1052.5156,784.9375 Q1052.8906,784.9375 1053.125,785.2031 Q1053.3594,785.4531 1053.3594,786.0625 L1053.3594,787.5156 Q1053.3594,788.125 1053.125,788.3906 Q1052.8906,788.6563 1052.5156,788.6563 Q1052.1719,788.6563 1051.9688,788.4531 Q1051.7656,788.2656 1051.6563,787.75 Q1051.6094,787.3906 1051.4219,787.2031 Q1051.0938,786.8281 1050.4844,786.6094 Q1049.875,786.3906 1049.25,786.3906 Q1048.4844,786.3906 1047.8438,786.7188 Q1047.2188,787.0469 1046.7188,787.7969 Q1046.2344,788.5469 1046.2344,789.5781 L1046.2344,790.6719 Q1046.2344,791.9063 1047.125,792.7344 Q1048.0156,793.5469 1049.6094,793.5469 Q1050.5469,793.5469 1051.2031,793.2969 Q1051.5938,793.1406 1052.0156,792.7031 Q1052.2813,792.4375 1052.4219,792.3594 Q1052.5781,792.2813 1052.7813,792.2813 Q1053.1094,792.2813 1053.3594,792.5469 Q1053.625,792.7969 1053.625,793.1406 Q1053.625,793.4844 1053.2813,793.8906 Q1052.7813,794.4688 1051.9844,794.7969 Q1050.9063,795.25 1049.6094,795.25 Q1048.0938,795.25 1046.8906,794.625 Q1045.9063,794.125 1045.2188,793.0625 Q1044.5313,791.9844 1044.5313,790.7031 L1044.5313,789.5469 Q1044.5313,788.2188 1045.1406,787.0781 Q1045.7656,785.9219 1046.8594,785.3125 Q1047.9531,784.6875 1049.1875,784.6875 Q1049.9219,784.6875 1050.5625,784.8594 Q1051.2188,785.0156 1051.7656,785.375 Z " fill="#000000"/><text fill="#000000" font-family="sans-serif" font-size="14" lengthAdjust="spacing" textLength="194" x="1063" y="795.2285">CancelServicesContractOption</text><line style="stroke:#181818;stroke-width:0.5;" x1="1035" x2="1259" y1="805.5" y2="805.5"/><line style="stroke:#181818;stroke-width:0.5;" x1="1035" x2="1259" y1="813.5" y2="813.5"/><ellipse cx="1045" cy="827.8047" fill="#84BE84" rx="3" ry="3" style="stroke:#038048;stroke-width:1.0;"/><text fill="#000000" font-family="sans-serif" font-size="14" lengthAdjust="spacing" textLength="57" x="1054" y="832.0332">interact()</text></g><!--class CostServicesContractOption--><g id="elem_CostServicesContractOption"><rect codeLine="77" fill="#F1F1F1" height="65.6094" id="CostServicesContractOption" rx="2.5" ry="2.5" style="stroke:#181818;stroke-width:0.5;" width="211" x="182.5" y="773.5"/><ellipse cx="197.5" cy="789.5" fill="#ADD1B2" rx="11" ry="11" style="stroke:#181818;stroke-width:1.0;"/><path d="M200.2656,785.375 Q200.4219,785.1563 200.6094,785.0469 Q200.7969,784.9375 201.0156,784.9375 Q201.3906,784.9375 201.625,785.2031 Q201.8594,785.4531 201.8594,786.0625 L201.8594,787.5156 Q201.8594,788.125 201.625,788.3906 Q201.3906,788.6563 201.0156,788.6563 Q200.6719,788.6563 200.4688,788.4531 Q200.2656,788.2656 200.1563,787.75 Q200.1094,787.3906 199.9219,787.2031 Q199.5938,786.8281 198.9844,786.6094 Q198.375,786.3906 197.75,786.3906 Q196.9844,786.3906 196.3438,786.7188 Q195.7188,787.0469 195.2188,787.7969 Q194.7344,788.5469 194.7344,789.5781 L194.7344,790.6719 Q194.7344,791.9063 195.625,792.7344 Q196.5156,793.5469 198.1094,793.5469 Q199.0469,793.5469 199.7031,793.2969 Q200.0938,793.1406 200.5156,792.7031 Q200.7813,792.4375 200.9219,792.3594 Q201.0781,792.2813 201.2813,792.2813 Q201.6094,792.2813 201.8594,792.5469 Q202.125,792.7969 202.125,793.1406 Q202.125,793.4844 201.7813,793.8906 Q201.2813,794.4688 200.4844,794.7969 Q199.4063,795.25 198.1094,795.25 Q196.5938,795.25 195.3906,794.625 Q194.4063,794.125 193.7188,793.0625 Q193.0313,791.9844 193.0313,790.7031 L193.0313,789.5469 Q193.0313,788.2188 193.6406,787.0781 Q194.2656,785.9219 195.3594,785.3125 Q196.4531,784.6875 197.6875,784.6875 Q198.4219,784.6875 199.0625,784.8594 Q199.7188,785.0156 200.2656,785.375 Z " fill="#000000"/><text fill="#000000" font-family="sans-serif" font-size="14" lengthAdjust="spacing" textLength="179" x="211.5" y="795.2285">CostServicesContractOption</text><line style="stroke:#181818;stroke-width:0.5;" x1="183.5" x2="392.5" y1="805.5" y2="805.5"/><line style="stroke:#181818;stroke-width:0.5;" x1="183.5" x2="392.5" y1="813.5" y2="813.5"/><ellipse cx="193.5" cy="827.8047" fill="#84BE84" rx="3" ry="3" style="stroke:#038048;stroke-width:1.0;"/><text fill="#000000" font-family="sans-serif" font-size="14" lengthAdjust="spacing" textLength="57" x="202.5" y="832.0332">interact()</text></g><!--class EnlargeServicesContractOption--><g id="elem_EnlargeServicesContractOption"><rect codeLine="82" fill="#F1F1F1" height="65.6094" id="EnlargeServicesContractOption" rx="2.5" ry="2.5" style="stroke:#181818;stroke-width:0.5;" width="231" x="1295.5" y="773.5"/><ellipse cx="1310.5" cy="789.5" fill="#ADD1B2" rx="11" ry="11" style="stroke:#181818;stroke-width:1.0;"/><path d="M1313.2656,785.375 Q1313.4219,785.1563 1313.6094,785.0469 Q1313.7969,784.9375 1314.0156,784.9375 Q1314.3906,784.9375 1314.625,785.2031 Q1314.8594,785.4531 1314.8594,786.0625 L1314.8594,787.5156 Q1314.8594,788.125 1314.625,788.3906 Q1314.3906,788.6563 1314.0156,788.6563 Q1313.6719,788.6563 1313.4688,788.4531 Q1313.2656,788.2656 1313.1563,787.75 Q1313.1094,787.3906 1312.9219,787.2031 Q1312.5938,786.8281 1311.9844,786.6094 Q1311.375,786.3906 1310.75,786.3906 Q1309.9844,786.3906 1309.3438,786.7188 Q1308.7188,787.0469 1308.2188,787.7969 Q1307.7344,788.5469 1307.7344,789.5781 L1307.7344,790.6719 Q1307.7344,791.9063 1308.625,792.7344 Q1309.5156,793.5469 1311.1094,793.5469 Q1312.0469,793.5469 1312.7031,793.2969 Q1313.0938,793.1406 1313.5156,792.7031 Q1313.7813,792.4375 1313.9219,792.3594 Q1314.0781,792.2813 1314.2813,792.2813 Q1314.6094,792.2813 1314.8594,792.5469 Q1315.125,792.7969 1315.125,793.1406 Q1315.125,793.4844 1314.7813,793.8906 Q1314.2813,794.4688 1313.4844,794.7969 Q1312.4063,795.25 1311.1094,795.25 Q1309.5938,795.25 1308.3906,794.625 Q1307.4063,794.125 1306.7188,793.0625 Q1306.0313,791.9844 1306.0313,790.7031 L1306.0313,789.5469 Q1306.0313,788.2188 1306.6406,787.0781 Q1307.2656,785.9219 1308.3594,785.3125 Q1309.4531,784.6875 1310.6875,784.6875 Q1311.4219,784.6875 1312.0625,784.8594 Q1312.7188,785.0156 1313.2656,785.375 Z " fill="#000000"/><text fill="#000000" font-family="sans-serif" font-size="14" lengthAdjust="spacing" textLength="199" x="1324.5" y="795.2285">EnlargeServicesContractOption</text><line style="stroke:#181818;stroke-width:0.5;" x1="1296.5" x2="1525.5" y1="805.5" y2="805.5"/><line style="stroke:#181818;stroke-width:0.5;" x1="1296.5" x2="1525.5" y1="813.5" y2="813.5"/><ellipse cx="1306.5" cy="827.8047" fill="#84BE84" rx="3" ry="3" style="stroke:#038048;stroke-width:1.0;"/><text fill="#000000" font-family="sans-serif" font-size="14" lengthAdjust="spacing" textLength="57" x="1315.5" y="832.0332">interact()</text></g><!--class ListServicesContractOption--><g id="elem_ListServicesContractOption"><rect codeLine="87" fill="#F1F1F1" height="65.6094" id="ListServicesContractOption" rx="2.5" ry="2.5" style="stroke:#181818;stroke-width:0.5;" width="204" x="429" y="773.5"/><ellipse cx="444" cy="789.5" fill="#ADD1B2" rx="11" ry="11" style="stroke:#181818;stroke-width:1.0;"/><path d="M446.7656,785.375 Q446.9219,785.1563 447.1094,785.0469 Q447.2969,784.9375 447.5156,784.9375 Q447.8906,784.9375 448.125,785.2031 Q448.3594,785.4531 448.3594,786.0625 L448.3594,787.5156 Q448.3594,788.125 448.125,788.3906 Q447.8906,788.6563 447.5156,788.6563 Q447.1719,788.6563 446.9688,788.4531 Q446.7656,788.2656 446.6563,787.75 Q446.6094,787.3906 446.4219,787.2031 Q446.0938,786.8281 445.4844,786.6094 Q444.875,786.3906 444.25,786.3906 Q443.4844,786.3906 442.8438,786.7188 Q442.2188,787.0469 441.7188,787.7969 Q441.2344,788.5469 441.2344,789.5781 L441.2344,790.6719 Q441.2344,791.9063 442.125,792.7344 Q443.0156,793.5469 444.6094,793.5469 Q445.5469,793.5469 446.2031,793.2969 Q446.5938,793.1406 447.0156,792.7031 Q447.2813,792.4375 447.4219,792.3594 Q447.5781,792.2813 447.7813,792.2813 Q448.1094,792.2813 448.3594,792.5469 Q448.625,792.7969 448.625,793.1406 Q448.625,793.4844 448.2813,793.8906 Q447.7813,794.4688 446.9844,794.7969 Q445.9063,795.25 444.6094,795.25 Q443.0938,795.25 441.8906,794.625 Q440.9063,794.125 440.2188,793.0625 Q439.5313,791.9844 439.5313,790.7031 L439.5313,789.5469 Q439.5313,788.2188 440.1406,787.0781 Q440.7656,785.9219 441.8594,785.3125 Q442.9531,784.6875 444.1875,784.6875 Q444.9219,784.6875 445.5625,784.8594 Q446.2188,785.0156 446.7656,785.375 Z " fill="#000000"/><text fill="#000000" font-family="sans-serif" font-size="14" lengthAdjust="spacing" textLength="172" x="458" y="795.2285">ListServicesContractOption</text><line style="stroke:#181818;stroke-width:0.5;" x1="430" x2="632" y1="805.5" y2="805.5"/><line style="stroke:#181818;stroke-width:0.5;" x1="430" x2="632" y1="813.5" y2="813.5"/><ellipse cx="440" cy="827.8047" fill="#84BE84" rx="3" ry="3" style="stroke:#038048;stroke-width:1.0;"/><text fill="#000000" font-family="sans-serif" font-size="14" lengthAdjust="spacing" textLength="57" x="449" y="832.0332">interact()</text></g><!--class PrintServicesContractOption--><g id="elem_PrintServicesContractOption"><rect codeLine="91" fill="#F1F1F1" height="65.6094" id="PrintServicesContractOption" rx="2.5" ry="2.5" style="stroke:#181818;stroke-width:0.5;" width="211" x="668.5" y="773.5"/><ellipse cx="683.5" cy="789.5" fill="#ADD1B2" rx="11" ry="11" style="stroke:#181818;stroke-width:1.0;"/><path d="M686.2656,785.375 Q686.4219,785.1563 686.6094,785.0469 Q686.7969,784.9375 687.0156,784.9375 Q687.3906,784.9375 687.625,785.2031 Q687.8594,785.4531 687.8594,786.0625 L687.8594,787.5156 Q687.8594,788.125 687.625,788.3906 Q687.3906,788.6563 687.0156,788.6563 Q686.6719,788.6563 686.4688,788.4531 Q686.2656,788.2656 686.1563,787.75 Q686.1094,787.3906 685.9219,787.2031 Q685.5938,786.8281 684.9844,786.6094 Q684.375,786.3906 683.75,786.3906 Q682.9844,786.3906 682.3438,786.7188 Q681.7188,787.0469 681.2188,787.7969 Q680.7344,788.5469 680.7344,789.5781 L680.7344,790.6719 Q680.7344,791.9063 681.625,792.7344 Q682.5156,793.5469 684.1094,793.5469 Q685.0469,793.5469 685.7031,793.2969 Q686.0938,793.1406 686.5156,792.7031 Q686.7813,792.4375 686.9219,792.3594 Q687.0781,792.2813 687.2813,792.2813 Q687.6094,792.2813 687.8594,792.5469 Q688.125,792.7969 688.125,793.1406 Q688.125,793.4844 687.7813,793.8906 Q687.2813,794.4688 686.4844,794.7969 Q685.4063,795.25 684.1094,795.25 Q682.5938,795.25 681.3906,794.625 Q680.4063,794.125 679.7188,793.0625 Q679.0313,791.9844 679.0313,790.7031 L679.0313,789.5469 Q679.0313,788.2188 679.6406,787.0781 Q680.2656,785.9219 681.3594,785.3125 Q682.4531,784.6875 683.6875,784.6875 Q684.4219,784.6875 685.0625,784.8594 Q685.7188,785.0156 686.2656,785.375 Z " fill="#000000"/><text fill="#000000" font-family="sans-serif" font-size="14" lengthAdjust="spacing" textLength="179" x="697.5" y="795.2285">PrintServicesContractOption</text><line style="stroke:#181818;stroke-width:0.5;" x1="669.5" x2="878.5" y1="805.5" y2="805.5"/><line style="stroke:#181818;stroke-width:0.5;" x1="669.5" x2="878.5" y1="813.5" y2="813.5"/><ellipse cx="679.5" cy="827.8047" fill="#84BE84" rx="3" ry="3" style="stroke:#038048;stroke-width:1.0;"/><text fill="#000000" font-family="sans-serif" font-size="14" lengthAdjust="spacing" textLength="57" x="688.5" y="832.0332">interact()</text></g><!--class QuitOption--><g id="elem_QuitOption"><rect codeLine="62" fill="#F1F1F1" height="100.8281" id="QuitOption" rx="2.5" ry="2.5" style="stroke:#181818;stroke-width:0.5;" width="159" x="1807.5" y="756"/><ellipse cx="1849.05" cy="772" fill="#A9DCDF" rx="11" ry="11" style="stroke:#181818;stroke-width:1.0;"/><path d="M1851.2375,773.7656 L1847.0969,773.7656 L1846.675,774.7969 L1847.0969,774.7969 Q1847.7063,774.7969 1847.9719,775.0313 Q1848.2375,775.2656 1848.2375,775.6563 Q1848.2375,776.0313 1847.9719,776.2656 Q1847.7063,776.5 1847.0969,776.5 L1844.8,776.5 Q1844.1906,776.5 1843.9406,776.2656 Q1843.675,776.0313 1843.675,775.6406 Q1843.675,775.2656 1843.9563,775.0313 Q1844.2219,774.7813 1844.8469,774.7969 L1847.5188,768.1406 L1846.4094,768.1406 Q1845.8,768.1406 1845.5344,767.9063 Q1845.2688,767.6719 1845.2688,767.2813 Q1845.2688,766.9063 1845.5344,766.6719 Q1845.8,766.4375 1846.4094,766.4375 L1850.0813,766.4375 L1853.4719,774.7969 Q1854.0656,774.7969 1854.2531,774.9375 Q1854.6438,775.2031 1854.6438,775.6563 Q1854.6438,776.0313 1854.3781,776.2656 Q1854.1281,776.5 1853.5188,776.5 L1851.2219,776.5 Q1850.6125,776.5 1850.3469,776.2656 Q1850.0813,776.0313 1850.0813,775.6406 Q1850.0813,775.2656 1850.3469,775.0313 Q1850.6125,774.7969 1851.2219,774.7969 L1851.6438,774.7969 L1851.2375,773.7656 Z M1850.5188,772.0625 L1849.1594,768.6875 L1847.7844,772.0625 L1850.5188,772.0625 Z " fill="#000000"/><text fill="#000000" font-family="sans-serif" font-size="14" font-style="italic" lengthAdjust="spacing" textLength="68" x="1868.95" y="777.7285">QuitOption</text><line style="stroke:#181818;stroke-width:0.5;" x1="1808.5" x2="1965.5" y1="788" y2="788"/><ellipse cx="1818.5" cy="802.3047" fill="none" rx="3" ry="3" style="stroke:#038048;stroke-width:1.0;"/><text fill="#000000" font-family="sans-serif" font-size="14" lengthAdjust="spacing" textLength="112" x="1827.5" y="806.5332">boolean executed</text><line style="stroke:#181818;stroke-width:0.5;" x1="1808.5" x2="1965.5" y1="813.6094" y2="813.6094"/><ellipse cx="1818.5" cy="827.9141" fill="#84BE84" rx="3" ry="3" style="stroke:#038048;stroke-width:1.0;"/><text fill="#000000" font-family="sans-serif" font-size="14" lengthAdjust="spacing" textLength="57" x="1827.5" y="832.1426">interact()</text><ellipse cx="1818.5" cy="845.5234" fill="#84BE84" rx="3" ry="3" style="stroke:#038048;stroke-width:1.0;"/><text fill="#000000" font-family="sans-serif" font-size="14" lengthAdjust="spacing" textLength="133" x="1827.5" y="849.752">boolean isExecuted()</text></g><!--class ShiftServicesContractOption--><g id="elem_ShiftServicesContractOption"><rect codeLine="95" fill="#F1F1F1" height="65.6094" id="ShiftServicesContractOption" rx="2.5" ry="2.5" style="stroke:#181818;stroke-width:0.5;" width="210" x="1562" y="773.5"/><ellipse cx="1577" cy="789.5" fill="#ADD1B2" rx="11" ry="11" style="stroke:#181818;stroke-width:1.0;"/><path d="M1579.7656,785.375 Q1579.9219,785.1563 1580.1094,785.0469 Q1580.2969,784.9375 1580.5156,784.9375 Q1580.8906,784.9375 1581.125,785.2031 Q1581.3594,785.4531 1581.3594,786.0625 L1581.3594,787.5156 Q1581.3594,788.125 1581.125,788.3906 Q1580.8906,788.6563 1580.5156,788.6563 Q1580.1719,788.6563 1579.9688,788.4531 Q1579.7656,788.2656 1579.6563,787.75 Q1579.6094,787.3906 1579.4219,787.2031 Q1579.0938,786.8281 1578.4844,786.6094 Q1577.875,786.3906 1577.25,786.3906 Q1576.4844,786.3906 1575.8438,786.7188 Q1575.2188,787.0469 1574.7188,787.7969 Q1574.2344,788.5469 1574.2344,789.5781 L1574.2344,790.6719 Q1574.2344,791.9063 1575.125,792.7344 Q1576.0156,793.5469 1577.6094,793.5469 Q1578.5469,793.5469 1579.2031,793.2969 Q1579.5938,793.1406 1580.0156,792.7031 Q1580.2813,792.4375 1580.4219,792.3594 Q1580.5781,792.2813 1580.7813,792.2813 Q1581.1094,792.2813 1581.3594,792.5469 Q1581.625,792.7969 1581.625,793.1406 Q1581.625,793.4844 1581.2813,793.8906 Q1580.7813,794.4688 1579.9844,794.7969 Q1578.9063,795.25 1577.6094,795.25 Q1576.0938,795.25 1574.8906,794.625 Q1573.9063,794.125 1573.2188,793.0625 Q1572.5313,791.9844 1572.5313,790.7031 L1572.5313,789.5469 Q1572.5313,788.2188 1573.1406,787.0781 Q1573.7656,785.9219 1574.8594,785.3125 Q1575.9531,784.6875 1577.1875,784.6875 Q1577.9219,784.6875 1578.5625,784.8594 Q1579.2188,785.0156 1579.7656,785.375 Z " fill="#000000"/><text fill="#000000" font-family="sans-serif" font-size="14" lengthAdjust="spacing" textLength="178" x="1591" y="795.2285">ShiftServicesContractOption</text><line style="stroke:#181818;stroke-width:0.5;" x1="1563" x2="1771" y1="805.5" y2="805.5"/><line style="stroke:#181818;stroke-width:0.5;" x1="1563" x2="1771" y1="813.5" y2="813.5"/><ellipse cx="1573" cy="827.8047" fill="#84BE84" rx="3" ry="3" style="stroke:#038048;stroke-width:1.0;"/><text fill="#000000" font-family="sans-serif" font-size="14" lengthAdjust="spacing" textLength="57" x="1582" y="832.0332">interact()</text></g><!--class Date--><g id="elem_Date"><rect codeLine="15" fill="#F1F1F1" height="48" id="Date" rx="2.5" ry="2.5" style="stroke:#181818;stroke-width:0.5;" width="62" x="1116" y="917"/><ellipse cx="1131" cy="933" fill="#ADD1B2" rx="11" ry="11" style="stroke:#181818;stroke-width:1.0;"/><path d="M1133.7656,928.875 Q1133.9219,928.6563 1134.1094,928.5469 Q1134.2969,928.4375 1134.5156,928.4375 Q1134.8906,928.4375 1135.125,928.7031 Q1135.3594,928.9531 1135.3594,929.5625 L1135.3594,931.0156 Q1135.3594,931.625 1135.125,931.8906 Q1134.8906,932.1563 1134.5156,932.1563 Q1134.1719,932.1563 1133.9688,931.9531 Q1133.7656,931.7656 1133.6563,931.25 Q1133.6094,930.8906 1133.4219,930.7031 Q1133.0938,930.3281 1132.4844,930.1094 Q1131.875,929.8906 1131.25,929.8906 Q1130.4844,929.8906 1129.8438,930.2188 Q1129.2188,930.5469 1128.7188,931.2969 Q1128.2344,932.0469 1128.2344,933.0781 L1128.2344,934.1719 Q1128.2344,935.4063 1129.125,936.2344 Q1130.0156,937.0469 1131.6094,937.0469 Q1132.5469,937.0469 1133.2031,936.7969 Q1133.5938,936.6406 1134.0156,936.2031 Q1134.2813,935.9375 1134.4219,935.8594 Q1134.5781,935.7813 1134.7813,935.7813 Q1135.1094,935.7813 1135.3594,936.0469 Q1135.625,936.2969 1135.625,936.6406 Q1135.625,936.9844 1135.2813,937.3906 Q1134.7813,937.9688 1133.9844,938.2969 Q1132.9063,938.75 1131.6094,938.75 Q1130.0938,938.75 1128.8906,938.125 Q1127.9063,937.625 1127.2188,936.5625 Q1126.5313,935.4844 1126.5313,934.2031 L1126.5313,933.0469 Q1126.5313,931.7188 1127.1406,930.5781 Q1127.7656,929.4219 1128.8594,928.8125 Q1129.9531,928.1875 1131.1875,928.1875 Q1131.9219,928.1875 1132.5625,928.3594 Q1133.2188,928.5156 1133.7656,928.875 Z " fill="#000000"/><text fill="#000000" font-family="sans-serif" font-size="14" lengthAdjust="spacing" textLength="30" x="1145" y="938.7285">Date</text><line style="stroke:#181818;stroke-width:0.5;" x1="1117" x2="1177" y1="949" y2="949"/><line style="stroke:#181818;stroke-width:0.5;" x1="1117" x2="1177" y1="957" y2="957"/></g><!--class Month--><g id="elem_Month"><rect codeLine="16" fill="#F1F1F1" height="48" id="Month" rx="2.5" ry="2.5" style="stroke:#181818;stroke-width:0.5;" width="71" x="1005.5" y="1025"/><ellipse cx="1020.5" cy="1041" fill="#ADD1B2" rx="11" ry="11" style="stroke:#181818;stroke-width:1.0;"/><path d="M1023.2656,1036.875 Q1023.4219,1036.6563 1023.6094,1036.5469 Q1023.7969,1036.4375 1024.0156,1036.4375 Q1024.3906,1036.4375 1024.625,1036.7031 Q1024.8594,1036.9531 1024.8594,1037.5625 L1024.8594,1039.0156 Q1024.8594,1039.625 1024.625,1039.8906 Q1024.3906,1040.1563 1024.0156,1040.1563 Q1023.6719,1040.1563 1023.4688,1039.9531 Q1023.2656,1039.7656 1023.1563,1039.25 Q1023.1094,1038.8906 1022.9219,1038.7031 Q1022.5938,1038.3281 1021.9844,1038.1094 Q1021.375,1037.8906 1020.75,1037.8906 Q1019.9844,1037.8906 1019.3438,1038.2188 Q1018.7188,1038.5469 1018.2188,1039.2969 Q1017.7344,1040.0469 1017.7344,1041.0781 L1017.7344,1042.1719 Q1017.7344,1043.4063 1018.625,1044.2344 Q1019.5156,1045.0469 1021.1094,1045.0469 Q1022.0469,1045.0469 1022.7031,1044.7969 Q1023.0938,1044.6406 1023.5156,1044.2031 Q1023.7813,1043.9375 1023.9219,1043.8594 Q1024.0781,1043.7813 1024.2813,1043.7813 Q1024.6094,1043.7813 1024.8594,1044.0469 Q1025.125,1044.2969 1025.125,1044.6406 Q1025.125,1044.9844 1024.7813,1045.3906 Q1024.2813,1045.9688 1023.4844,1046.2969 Q1022.4063,1046.75 1021.1094,1046.75 Q1019.5938,1046.75 1018.3906,1046.125 Q1017.4063,1045.625 1016.7188,1044.5625 Q1016.0313,1043.4844 1016.0313,1042.2031 L1016.0313,1041.0469 Q1016.0313,1039.7188 1016.6406,1038.5781 Q1017.2656,1037.4219 1018.3594,1036.8125 Q1019.4531,1036.1875 1020.6875,1036.1875 Q1021.4219,1036.1875 1022.0625,1036.3594 Q1022.7188,1036.5156 1023.2656,1036.875 Z " fill="#000000"/><text fill="#000000" font-family="sans-serif" font-size="14" lengthAdjust="spacing" textLength="39" x="1034.5" y="1046.7285">Month</text><line style="stroke:#181818;stroke-width:0.5;" x1="1006.5" x2="1075.5" y1="1057" y2="1057"/><line style="stroke:#181818;stroke-width:0.5;" x1="1006.5" x2="1075.5" y1="1065" y2="1065"/></g><!--class Format--><g id="elem_Format"><rect codeLine="17" fill="#F1F1F1" height="48" id="Format" rx="2.5" ry="2.5" style="stroke:#181818;stroke-width:0.5;" width="77" x="1108.5" y="1133"/><ellipse cx="1123.5" cy="1149" fill="#ADD1B2" rx="11" ry="11" style="stroke:#181818;stroke-width:1.0;"/><path d="M1126.2656,1144.875 Q1126.4219,1144.6563 1126.6094,1144.5469 Q1126.7969,1144.4375 1127.0156,1144.4375 Q1127.3906,1144.4375 1127.625,1144.7031 Q1127.8594,1144.9531 1127.8594,1145.5625 L1127.8594,1147.0156 Q1127.8594,1147.625 1127.625,1147.8906 Q1127.3906,1148.1563 1127.0156,1148.1563 Q1126.6719,1148.1563 1126.4688,1147.9531 Q1126.2656,1147.7656 1126.1563,1147.25 Q1126.1094,1146.8906 1125.9219,1146.7031 Q1125.5938,1146.3281 1124.9844,1146.1094 Q1124.375,1145.8906 1123.75,1145.8906 Q1122.9844,1145.8906 1122.3438,1146.2188 Q1121.7188,1146.5469 1121.2188,1147.2969 Q1120.7344,1148.0469 1120.7344,1149.0781 L1120.7344,1150.1719 Q1120.7344,1151.4063 1121.625,1152.2344 Q1122.5156,1153.0469 1124.1094,1153.0469 Q1125.0469,1153.0469 1125.7031,1152.7969 Q1126.0938,1152.6406 1126.5156,1152.2031 Q1126.7813,1151.9375 1126.9219,1151.8594 Q1127.0781,1151.7813 1127.2813,1151.7813 Q1127.6094,1151.7813 1127.8594,1152.0469 Q1128.125,1152.2969 1128.125,1152.6406 Q1128.125,1152.9844 1127.7813,1153.3906 Q1127.2813,1153.9688 1126.4844,1154.2969 Q1125.4063,1154.75 1124.1094,1154.75 Q1122.5938,1154.75 1121.3906,1154.125 Q1120.4063,1153.625 1119.7188,1152.5625 Q1119.0313,1151.4844 1119.0313,1150.2031 L1119.0313,1149.0469 Q1119.0313,1147.7188 1119.6406,1146.5781 Q1120.2656,1145.4219 1121.3594,1144.8125 Q1122.4531,1144.1875 1123.6875,1144.1875 Q1124.4219,1144.1875 1125.0625,1144.3594 Q1125.7188,1144.5156 1126.2656,1144.875 Z " fill="#000000"/><text fill="#000000" font-family="sans-serif" font-size="14" lengthAdjust="spacing" textLength="45" x="1137.5" y="1154.7285">Format</text><line style="stroke:#181818;stroke-width:0.5;" x1="1109.5" x2="1184.5" y1="1165" y2="1165"/><line style="stroke:#181818;stroke-width:0.5;" x1="1109.5" x2="1184.5" y1="1173" y2="1173"/></g><!--class Console--><g id="elem_Console"><rect codeLine="18" fill="#F1F1F1" height="48" id="Console" rx="2.5" ry="2.5" style="stroke:#181818;stroke-width:0.5;" width="84" x="915" y="782.5"/><ellipse cx="930" cy="798.5" fill="#ADD1B2" rx="11" ry="11" style="stroke:#181818;stroke-width:1.0;"/><path d="M932.7656,794.375 Q932.9219,794.1563 933.1094,794.0469 Q933.2969,793.9375 933.5156,793.9375 Q933.8906,793.9375 934.125,794.2031 Q934.3594,794.4531 934.3594,795.0625 L934.3594,796.5156 Q934.3594,797.125 934.125,797.3906 Q933.8906,797.6563 933.5156,797.6563 Q933.1719,797.6563 932.9688,797.4531 Q932.7656,797.2656 932.6563,796.75 Q932.6094,796.3906 932.4219,796.2031 Q932.0938,795.8281 931.4844,795.6094 Q930.875,795.3906 930.25,795.3906 Q929.4844,795.3906 928.8438,795.7188 Q928.2188,796.0469 927.7188,796.7969 Q927.2344,797.5469 927.2344,798.5781 L927.2344,799.6719 Q927.2344,800.9063 928.125,801.7344 Q929.0156,802.5469 930.6094,802.5469 Q931.5469,802.5469 932.2031,802.2969 Q932.5938,802.1406 933.0156,801.7031 Q933.2813,801.4375 933.4219,801.3594 Q933.5781,801.2813 933.7813,801.2813 Q934.1094,801.2813 934.3594,801.5469 Q934.625,801.7969 934.625,802.1406 Q934.625,802.4844 934.2813,802.8906 Q933.7813,803.4688 932.9844,803.7969 Q931.9063,804.25 930.6094,804.25 Q929.0938,804.25 927.8906,803.625 Q926.9063,803.125 926.2188,802.0625 Q925.5313,800.9844 925.5313,799.7031 L925.5313,798.5469 Q925.5313,797.2188 926.1406,796.0781 Q926.7656,794.9219 927.8594,794.3125 Q928.9531,793.6875 930.1875,793.6875 Q930.9219,793.6875 931.5625,793.8594 Q932.2188,794.0156 932.7656,794.375 Z " fill="#000000"/><text fill="#000000" font-family="sans-serif" font-size="14" lengthAdjust="spacing" textLength="52" x="944" y="804.2285">Console</text><line style="stroke:#181818;stroke-width:0.5;" x1="916" x2="998" y1="814.5" y2="814.5"/><line style="stroke:#181818;stroke-width:0.5;" x1="916" x2="998" y1="822.5" y2="822.5"/></g><!--class Interval--><g id="elem_Interval"><rect fill="#F1F1F1" height="48" id="Interval" rx="2.5" ry="2.5" style="stroke:#181818;stroke-width:0.5;" width="78" x="130" y="917"/><ellipse cx="145" cy="933" fill="#ADD1B2" rx="11" ry="11" style="stroke:#181818;stroke-width:1.0;"/><path d="M147.7656,928.875 Q147.9219,928.6563 148.1094,928.5469 Q148.2969,928.4375 148.5156,928.4375 Q148.8906,928.4375 149.125,928.7031 Q149.3594,928.9531 149.3594,929.5625 L149.3594,931.0156 Q149.3594,931.625 149.125,931.8906 Q148.8906,932.1563 148.5156,932.1563 Q148.1719,932.1563 147.9688,931.9531 Q147.7656,931.7656 147.6563,931.25 Q147.6094,930.8906 147.4219,930.7031 Q147.0938,930.3281 146.4844,930.1094 Q145.875,929.8906 145.25,929.8906 Q144.4844,929.8906 143.8438,930.2188 Q143.2188,930.5469 142.7188,931.2969 Q142.2344,932.0469 142.2344,933.0781 L142.2344,934.1719 Q142.2344,935.4063 143.125,936.2344 Q144.0156,937.0469 145.6094,937.0469 Q146.5469,937.0469 147.2031,936.7969 Q147.5938,936.6406 148.0156,936.2031 Q148.2813,935.9375 148.4219,935.8594 Q148.5781,935.7813 148.7813,935.7813 Q149.1094,935.7813 149.3594,936.0469 Q149.625,936.2969 149.625,936.6406 Q149.625,936.9844 149.2813,937.3906 Q148.7813,937.9688 147.9844,938.2969 Q146.9063,938.75 145.6094,938.75 Q144.0938,938.75 142.8906,938.125 Q141.9063,937.625 141.2188,936.5625 Q140.5313,935.4844 140.5313,934.2031 L140.5313,933.0469 Q140.5313,931.7188 141.1406,930.5781 Q141.7656,929.4219 142.8594,928.8125 Q143.9531,928.1875 145.1875,928.1875 Q145.9219,928.1875 146.5625,928.3594 Q147.2188,928.5156 147.7656,928.875 Z " fill="#000000"/><text fill="#000000" font-family="sans-serif" font-size="14" lengthAdjust="spacing" textLength="46" x="159" y="938.7285">Interval</text><line style="stroke:#181818;stroke-width:0.5;" x1="131" x2="207" y1="949" y2="949"/><line style="stroke:#181818;stroke-width:0.5;" x1="131" x2="207" y1="957" y2="957"/></g><!--reverse link Option to ServicesContractOption--><g id="link_Option_ServicesContractOption"><path codeLine="20" d="M1595.7118,533.5668 C1488.0218,558.9968 1304.02,602.47 1174.04,633.17 " fill="none" id="Option-backto-ServicesContractOption" style="stroke:#181818;stroke-width:1.0;"/><polygon fill="none" points="1613.23,529.43,1594.3329,527.7274,1597.0907,539.4062,1613.23,529.43" style="stroke:#181818;stroke-width:1.0;"/></g><!--reverse link ServicesContractOption to CancelServicesContractOption--><g id="link_ServicesContractOption_CancelServicesContractOption"><path codeLine="22" d="M1083.5911,711.0558 C1099.0211,734.0458 1109.71,749.95 1125.2,773.03 " fill="none" id="ServicesContractOption-backto-CancelServicesContractOption" style="stroke:#181818;stroke-width:1.0;"/><polygon fill="none" points="1073.56,696.11,1078.6091,714.3995,1088.573,707.7121,1073.56,696.11" style="stroke:#181818;stroke-width:1.0;"/></g><!--reverse link ServicesContractOption to CostServicesContractOption--><g id="link_ServicesContractOption_CostServicesContractOption"><path codeLine="23" d="M911.8181,674.3347 C781.5181,685.7047 587.97,708.43 411,756 C393.88,760.6 375.94,766.91 359.21,773.49 " fill="none" id="ServicesContractOption-backto-CostServicesContractOption" style="stroke:#181818;stroke-width:1.0;"/><polygon fill="none" points="929.75,672.77,911.2966,668.3575,912.3397,680.312,929.75,672.77" style="stroke:#181818;stroke-width:1.0;"/></g><!--reverse link ServicesContractOption to EnlargeServicesContractOption--><g id="link_ServicesContractOption_EnlargeServicesContractOption"><path codeLine="24" d="M1150.2058,702.7113 C1208.8558,725.8313 1270.9,750.28 1329.55,773.4 " fill="none" id="ServicesContractOption-backto-EnlargeServicesContractOption" style="stroke:#181818;stroke-width:1.0;"/><polygon fill="none" points="1133.46,696.11,1148.0054,708.2932,1152.4063,697.1293,1133.46,696.11" style="stroke:#181818;stroke-width:1.0;"/></g><!--reverse link ServicesContractOption to ListServicesContractOption--><g id="link_ServicesContractOption_ListServicesContractOption"><path codeLine="25" d="M912.3035,690.0796 C832.1135,706.2096 743.05,726.68 651,756 C635.32,760.99 618.83,767.16 603.26,773.43 " fill="none" id="ServicesContractOption-backto-ListServicesContractOption" style="stroke:#181818;stroke-width:1.0;"/><polygon fill="none" points="929.95,686.53,911.1203,684.1974,913.4866,695.9617,929.95,686.53" style="stroke:#181818;stroke-width:1.0;"/></g><!--reverse link ServicesContractOption to PrintServicesContractOption--><g id="link_ServicesContractOption_PrintServicesContractOption"><path codeLine="26" d="M972.8773,704.2729 C927.5373,727.3429 882.7,750.17 837.31,773.27 " fill="none" id="ServicesContractOption-backto-PrintServicesContractOption" style="stroke:#181818;stroke-width:1.0;"/><polygon fill="none" points="988.92,696.11,970.1564,698.9253,975.5983,709.6204,988.92,696.11" style="stroke:#181818;stroke-width:1.0;"/></g><!--reverse link ServicesContractOption to QuitOption--><g id="link_ServicesContractOption_QuitOption"><path codeLine="27" d="M1192.1965,667.0259 C1340.8065,672.7759 1579.86,691.47 1790,756 C1795.78,757.78 1801.64,759.88 1807.45,762.21 " fill="none" id="ServicesContractOption-backto-QuitOption" style="stroke:#181818;stroke-width:1.0;"/><polygon fill="none" points="1174.21,666.33,1191.9646,673.0214,1192.4285,661.0304,1174.21,666.33" style="stroke:#181818;stroke-width:1.0;"/></g><!--reverse link ServicesContractOption to ShiftServicesContractOption--><g id="link_ServicesContractOption_ShiftServicesContractOption"><path codeLine="28" d="M1191.9385,682.5885 C1292.4585,697.3685 1420.22,719.91 1544,756 C1560.46,760.8 1577.76,767 1594.01,773.38 " fill="none" id="ServicesContractOption-backto-ShiftServicesContractOption" style="stroke:#181818;stroke-width:1.0;"/><polygon fill="none" points="1174.13,679.97,1191.0657,688.5247,1192.8114,676.6523,1174.13,679.97" style="stroke:#181818;stroke-width:1.0;"/></g><!--link QuitMenu to QuitOption--><g id="link_QuitMenu_QuitOption"><path codeLine="100" d="M1529.7,392.3 C1539.1,441.01 1558.58,515.59 1596,570 C1651.34,650.46 1736.9015,714.3733 1802.3215,756.1033 " fill="none" id="QuitMenu-to-QuitOption" style="stroke:#181818;stroke-width:1.0;"/><polygon fill="#181818" points="1807.38,759.33,1801.9434,751.1176,1803.1646,756.6411,1797.6411,757.8623,1807.38,759.33" style="stroke:#181818;stroke-width:1.0;"/></g><!--reverse link Menu to QuitMenu--><g id="link_Menu_QuitMenu"><path codeLine="102" d="M1556.3674,248.0917 C1548.5674,269.0717 1547.05,273.13 1540.42,290.97 " fill="none" id="Menu-backto-QuitMenu" style="stroke:#181818;stroke-width:1.0;"/><polygon fill="none" points="1562.64,231.22,1550.7435,246.0008,1561.9913,250.1826,1562.64,231.22" style="stroke:#181818;stroke-width:1.0;"/></g><!--reverse link QuitMenu to IterativeMenu--><g id="link_QuitMenu_IterativeMenu"><path codeLine="103" d="M1392.7101,381.0321 C1275.0301,416.1121 1111.72,464.78 1019.17,492.36 " fill="none" id="QuitMenu-backto-IterativeMenu" style="stroke:#181818;stroke-width:1.0;"/><polygon fill="none" points="1409.96,375.89,1390.9961,375.2822,1394.4242,386.7821,1409.96,375.89" style="stroke:#181818;stroke-width:1.0;"/></g><!--reverse link IterativeMenu to ServicesContractMenu--><g id="link_IterativeMenu_ServicesContractMenu"><path codeLine="104" d="M883.8022,536.3228 C797.7622,563.7828 655.22,609.27 562.27,638.94 " fill="none" id="IterativeMenu-backto-ServicesContractMenu" style="stroke:#181818;stroke-width:1.0;"/><polygon fill="none" points="900.95,530.85,881.9779,530.6069,885.6264,542.0387,900.95,530.85" style="stroke:#181818;stroke-width:1.0;"/></g><!--reverse link Option to QuitOption--><g id="link_Option_QuitOption"><path codeLine="105" d="M1736.8868,585.2143 C1773.7968,639.3743 1818.03,704.29 1852.98,755.57 " fill="none" id="Option-backto-QuitOption" style="stroke:#181818;stroke-width:1.0;"/><polygon fill="none" points="1726.75,570.34,1731.9287,588.5932,1741.8449,581.8354,1726.75,570.34" style="stroke:#181818;stroke-width:1.0;"/></g><!--reverse link Menu to Option--><g id="link_Menu_Option"><path codeLine="107" d="M1640.3607,242.8771 C1645.6907,262.6671 1647.74,271.57 1652,291 C1663.85,344.97 1673.41,407.25 1679.53,451.56 " fill="none" id="Menu-backto-Option" style="stroke:#181818;stroke-width:1.0;"/><polygon fill="none" points="1637.24,231.29,1634.938,238.1238,1640.3607,242.8771,1642.6627,236.0433,1637.24,231.29" style="stroke:#181818;stroke-width:1.0;"/><text fill="#000000" font-family="sans-serif" font-size="13" lengthAdjust="spacing" textLength="5" x="1673.3772" y="441.2524">*</text></g><!--link ServicesContractMenu to ServicesContract--><g id="link_ServicesContractMenu_ServicesContract"><path codeLine="108" d="M402.23,682.88 C335.73,698.6 242.83,723.63 165,756 C147.52,763.27 134.3026,770.1795 118.8726,779.2495 " fill="none" id="ServicesContractMenu-to-ServicesContract" style="stroke:#181818;stroke-width:1.0;"/><polygon fill="#181818" points="113.7,782.29,123.4858,781.1776,118.0105,779.7562,119.4318,774.2809,113.7,782.29" style="stroke:#181818;stroke-width:1.0;"/></g><!--link ServicesContractOption to ServicesContract--><g id="link_ServicesContractOption_ServicesContract"><path codeLine="109" d="M929.78,673.9 C703.58,692.62 236.14,733.38 165,756 C145.96,762.06 131.5241,769.3759 115.7141,779.1459 " fill="none" id="ServicesContractOption-to-ServicesContract" style="stroke:#181818;stroke-width:1.0;"/><polygon fill="#181818" points="110.61,782.3,120.3688,780.9715,114.8634,779.6716,116.1633,774.1661,110.61,782.3" style="stroke:#181818;stroke-width:1.0;"/></g><!--link ServicesContractOption to Console--><g id="link_ServicesContractOption_Console"><path codeLine="111" d="M1030.44,696.11 C1012.82,722.36 991.6548,753.8788 975.8948,777.3488 " fill="none" id="ServicesContractOption-to-Console" style="stroke:#181818;stroke-width:1.0;stroke-dasharray:7.0,7.0;"/><polygon fill="#181818" points="972.55,782.33,980.888,777.0881,975.3374,778.179,974.2465,772.6284,972.55,782.33" style="stroke:#181818;stroke-width:1.0;"/></g><!--link ServicesContract to Interval--><g id="link_ServicesContract_Interval"><path codeLine="113" d="M99.8735,840.4373 C116.6535,864.6073 132.5981,887.5715 149.4281,911.8115 " fill="none" id="ServicesContract-Interval" style="stroke:#181818;stroke-width:1.0;"/><polygon fill="#181818" points="93.03,830.58,93.1659,837.7898,99.8735,840.4373,99.7375,833.2275,93.03,830.58" style="stroke:#181818;stroke-width:1.0;"/><polygon fill="#181818" points="152.85,916.74,151.0028,907.0659,149.9984,912.6329,144.4314,911.6285,152.85,916.74" style="stroke:#181818;stroke-width:1.0;"/></g><!--link Date to Month--><g id="link_Date_Month"><path codeLine="115" d="M1124,965 C1106.34,982.66 1086.3026,1002.6974 1068.5626,1020.4374 " fill="none" id="Date-to-Month" style="stroke:#181818;stroke-width:1.0;stroke-dasharray:7.0,7.0;"/><polygon fill="#181818" points="1064.32,1024.68,1073.5124,1021.1445,1067.8555,1021.1445,1067.8555,1015.4876,1064.32,1024.68" style="stroke:#181818;stroke-width:1.0;"/></g><!--link ServicesContract to Month--><g id="link_ServicesContract_Month"><path codeLine="116" d="M74.5,830.65 C72.16,865.59 73.59,931.27 112,965 C180.29,1024.97 837.2515,1043.4542 999.3715,1047.1242 " fill="none" id="ServicesContract-to-Month" style="stroke:#181818;stroke-width:1.0;stroke-dasharray:7.0,7.0;"/><polygon fill="#181818" points="1005.37,1047.26,996.4628,1043.0573,1000.3713,1047.1468,996.2818,1051.0553,1005.37,1047.26" style="stroke:#181818;stroke-width:1.0;"/></g><!--link ServicesContract to Date--><g id="link_ServicesContract_Date"><path codeLine="118" d="M110.14,830.61 C126.02,840.48 145.73,851.07 165,857 C349.18,913.64 963.5126,934.6946 1109.8726,938.9746 " fill="none" id="ServicesContract-to-Date" style="stroke:#181818;stroke-width:1.0;stroke-dasharray:7.0,7.0;"/><polygon fill="#181818" points="1115.87,939.15,1106.9908,934.8886,1110.8721,939.0038,1106.7569,942.8852,1115.87,939.15" style="stroke:#181818;stroke-width:1.0;"/></g><!--link CancelServicesContractOption to Date--><g id="link_CancelServicesContractOption_Date"><path codeLine="119" d="M1147,839.57 C1147,863.47 1147,889.53 1147,910.94 " fill="none" id="CancelServicesContractOption-to-Date" style="stroke:#181818;stroke-width:1.0;stroke-dasharray:7.0,7.0;"/><polygon fill="#181818" points="1147,916.94,1151,907.94,1147,911.94,1143,907.94,1147,916.94" style="stroke:#181818;stroke-width:1.0;"/></g><!--link EnlargeServicesContractOption to Date--><g id="link_EnlargeServicesContractOption_Date"><path codeLine="120" d="M1347.09,839.57 C1293.53,866.46 1224.7327,900.9889 1183.3827,921.7389 " fill="none" id="EnlargeServicesContractOption-to-Date" style="stroke:#181818;stroke-width:1.0;stroke-dasharray:7.0,7.0;"/><polygon fill="#181818" points="1178.02,924.43,1187.858,923.9685,1182.4889,922.1874,1184.27,916.8183,1178.02,924.43" style="stroke:#181818;stroke-width:1.0;"/></g><!--link ShiftServicesContractOption to Date--><g id="link_ShiftServicesContractOption_Date"><path codeLine="121" d="M1593.28,839.62 C1577.22,845.92 1560.19,852.09 1544,857 C1410.41,897.5 1251.5705,924.1394 1184.0305,934.5094 " fill="none" id="ShiftServicesContractOption-to-Date" style="stroke:#181818;stroke-width:1.0;stroke-dasharray:7.0,7.0;"/><polygon fill="#181818" points="1178.1,935.42,1187.6028,938.0078,1183.0421,934.6612,1186.3887,930.1005,1178.1,935.42" style="stroke:#181818;stroke-width:1.0;"/></g><!--link Format to Date--><g id="link_Format_Date"><path codeLine="122" d="M1155.8,1132.72 C1162.07,1091.58 1162.9736,1012.4016 1156.7036,971.2416 " fill="none" id="Format-to-Date" style="stroke:#181818;stroke-width:1.0;stroke-dasharray:7.0,7.0;"/><polygon fill="#181818" points="1155.8,965.31,1153.201,974.8097,1156.553,970.253,1161.1097,973.605,1155.8,965.31" style="stroke:#181818;stroke-width:1.0;"/></g><!--link Date to Format--><g id="link_Date_Format"><path codeLine="124" d="M1138.69,965.31 C1132.77,1006.47 1131.9154,1085.6412 1137.8354,1126.7812 " fill="none" id="Date-to-Format" style="stroke:#181818;stroke-width:1.0;stroke-dasharray:7.0,7.0;"/><polygon fill="#181818" points="1138.69,1132.72,1141.3673,1123.242,1137.9778,1127.771,1133.4489,1124.3815,1138.69,1132.72" style="stroke:#181818;stroke-width:1.0;"/></g><!--link Month to Format--><g id="link_Month_Format"><path codeLine="125" d="M1064,1073 C1081.66,1090.66 1101.6974,1110.6974 1119.4374,1128.4374 " fill="none" id="Month-to-Format" style="stroke:#181818;stroke-width:1.0;stroke-dasharray:7.0,7.0;"/><polygon fill="#181818" points="1123.68,1132.68,1120.1445,1123.4876,1120.1445,1129.1445,1114.4876,1129.1445,1123.68,1132.68" style="stroke:#181818;stroke-width:1.0;"/></g><!--SRC=[ZLLDJyCm3BtdLqHm0QRo2z0k0wH9J83WZa9draXT0qqsaCR-EucRVgM9novhxFSSvyMnyr9epL-WtiiSz49LfXQvOU9TumVFqR-2QXVQbWPgOUGUOixddJHepwFnOvJ7JoDL5Lf3faSrpeMeSYXfYDA61DnLfQWtG68Uv8aWJxMiQ8GJP6HuAUG7JRaL1lpdoleB_tslwgqmtV4ghKfWh67oczyiIsd6ulQ6Gqf94jC2KpHQTef9N0P58ww8ayJ-vcWSSQ6SiTYBuWV6BS_Op3RSI6FlaSzibk1m5vUCdnzQrf6BzRe9fj7JmjvmfGlr_Ue2e3FhbkY47yWNXL8QV0IqsdWNFZk5VyvOmrRjORZFkxBb9IfU2Et90Ud8Kc_V7I_8pEtwrUavsa3gEvldpi0OC0q_wZjkZw5anwdIFby7R3KUo3gKUzRhPitMjOOVbwA_eGsOLjJueGSxjQS2VwRWOcVJKqUZ9ih92Hkwk0vxk0ttZpPfOuKAdkoSIGxzgfCquabFEQSxRef3jTn8RbqTPzbysByP6hlUWBEimw9vF1h71HljqEXXyQxZzrDPTdPrnXEThijpCiaJ9HJ5fi3Nr_D-qamAxyh5MZhfzg9ap8qjP3H3QmBlNN4VZZsgP7iKMMuzZEhC7QWPg_swFuSVk9Zpq82_Fm00]--></g></svg>