<?xml version="1.0" encoding="us-ascii" standalone="no"?><svg xmlns="http://www.w3.org/2000/svg" xmlns:xlink="http://www.w3.org/1999/xlink" contentStyleType="text/css" height="1674px" preserveAspectRatio="none" style="width:1432px;height:1674px;background:#FFFFFF;" version="1.1" viewBox="0 0 1432 1674" width="1432px" zoomAndPan="magnify"><defs/><g><!--cluster content--><g id="cluster_content"><path d="M8.5,736 L63.5,736 A3.75,3.75 0 0 1 66,738.5 L73,759.6094 L515.5,759.6094 A2.5,2.5 0 0 1 518,762.1094 L518,1305 A2.5,2.5 0 0 1 515.5,1307.5 L8.5,1307.5 A2.5,2.5 0 0 1 6,1305 L6,738.5 A2.5,2.5 0 0 1 8.5,736 " fill="#90EE90" style="stroke:#000000;stroke-width:1.5;"/><line style="stroke:#000000;stroke-width:1.5;" x1="6" x2="73" y1="759.6094" y2="759.6094"/><text fill="#000000" font-family="sans-serif" font-size="14" font-weight="bold" lengthAdjust="spacing" textLength="54" x="10" y="752.5332">content</text></g><!--cluster question_battery--><g id="cluster_question_battery"><path d="M791.5,443 L911.5,443 A3.75,3.75 0 0 1 914,445.5 L921,466.6094 L1238.5,466.6094 A2.5,2.5 0 0 1 1241,469.1094 L1241,977 A2.5,2.5 0 0 1 1238.5,979.5 L791.5,979.5 A2.5,2.5 0 0 1 789,977 L789,445.5 A2.5,2.5 0 0 1 791.5,443 " fill="#FFFF00" style="stroke:#000000;stroke-width:1.5;"/><line style="stroke:#000000;stroke-width:1.5;" x1="789" x2="921" y1="466.6094" y2="466.6094"/><text fill="#000000" font-family="sans-serif" font-size="14" font-weight="bold" lengthAdjust="spacing" textLength="119" x="793" y="459.5332">question_battery</text></g><!--cluster corpus--><g id="cluster_corpus"><path d="M1142.5,1028 L1192.5,1028 A3.75,3.75 0 0 1 1195,1030.5 L1202,1051.6094 L1422.5,1051.6094 A2.5,2.5 0 0 1 1425,1054.1094 L1425,1665 A2.5,2.5 0 0 1 1422.5,1667.5 L1142.5,1667.5 A2.5,2.5 0 0 1 1140,1665 L1140,1030.5 A2.5,2.5 0 0 1 1142.5,1028 " fill="#ADD8E6" style="stroke:#000000;stroke-width:1.5;"/><line style="stroke:#000000;stroke-width:1.5;" x1="1140" x2="1202" y1="1051.6094" y2="1051.6094"/><text fill="#000000" font-family="sans-serif" font-size="14" font-weight="bold" lengthAdjust="spacing" textLength="49" x="1144" y="1044.5332">corpus</text></g><!--class Topic--><g id="elem_Topic"><rect codeLine="59" fill="#F1F1F1" height="48" id="Topic" rx="2.5" ry="2.5" style="stroke:#181818;stroke-width:0.5;" width="67" x="256.5" y="915.5"/><ellipse cx="271.5" cy="931.5" fill="#A9DCDF" rx="11" ry="11" style="stroke:#181818;stroke-width:1.0;"/><path d="M273.6875,933.2656 L269.5469,933.2656 L269.125,934.2969 L269.5469,934.2969 Q270.1563,934.2969 270.4219,934.5313 Q270.6875,934.7656 270.6875,935.1563 Q270.6875,935.5313 270.4219,935.7656 Q270.1563,936 269.5469,936 L267.25,936 Q266.6406,936 266.3906,935.7656 Q266.125,935.5313 266.125,935.1406 Q266.125,934.7656 266.4063,934.5313 Q266.6719,934.2813 267.2969,934.2969 L269.9688,927.6406 L268.8594,927.6406 Q268.25,927.6406 267.9844,927.4063 Q267.7188,927.1719 267.7188,926.7813 Q267.7188,926.4063 267.9844,926.1719 Q268.25,925.9375 268.8594,925.9375 L272.5313,925.9375 L275.9219,934.2969 Q276.5156,934.2969 276.7031,934.4375 Q277.0938,934.7031 277.0938,935.1563 Q277.0938,935.5313 276.8281,935.7656 Q276.5781,936 275.9688,936 L273.6719,936 Q273.0625,936 272.7969,935.7656 Q272.5313,935.5313 272.5313,935.1406 Q272.5313,934.7656 272.7969,934.5313 Q273.0625,934.2969 273.6719,934.2969 L274.0938,934.2969 L273.6875,933.2656 Z M272.9688,931.5625 L271.6094,928.1875 L270.2344,931.5625 L272.9688,931.5625 Z " fill="#000000"/><text fill="#000000" font-family="sans-serif" font-size="14" font-style="italic" lengthAdjust="spacing" textLength="35" x="285.5" y="937.2285">Topic</text><line style="stroke:#181818;stroke-width:0.5;" x1="257.5" x2="322.5" y1="947.5" y2="947.5"/><line style="stroke:#181818;stroke-width:0.5;" x1="257.5" x2="322.5" y1="955.5" y2="955.5"/></g><!--class Itinerary--><g id="elem_Itinerary"><rect codeLine="54" fill="#F1F1F1" height="48" id="Itinerary" rx="2.5" ry="2.5" style="stroke:#181818;stroke-width:0.5;" width="83" x="250.5" y="772"/><ellipse cx="265.5" cy="788" fill="#ADD1B2" rx="11" ry="11" style="stroke:#181818;stroke-width:1.0;"/><path d="M268.2656,783.875 Q268.4219,783.6563 268.6094,783.5469 Q268.7969,783.4375 269.0156,783.4375 Q269.3906,783.4375 269.625,783.7031 Q269.8594,783.9531 269.8594,784.5625 L269.8594,786.0156 Q269.8594,786.625 269.625,786.8906 Q269.3906,787.1563 269.0156,787.1563 Q268.6719,787.1563 268.4688,786.9531 Q268.2656,786.7656 268.1563,786.25 Q268.1094,785.8906 267.9219,785.7031 Q267.5938,785.3281 266.9844,785.1094 Q266.375,784.8906 265.75,784.8906 Q264.9844,784.8906 264.3438,785.2188 Q263.7188,785.5469 263.2188,786.2969 Q262.7344,787.0469 262.7344,788.0781 L262.7344,789.1719 Q262.7344,790.4063 263.625,791.2344 Q264.5156,792.0469 266.1094,792.0469 Q267.0469,792.0469 267.7031,791.7969 Q268.0938,791.6406 268.5156,791.2031 Q268.7813,790.9375 268.9219,790.8594 Q269.0781,790.7813 269.2813,790.7813 Q269.6094,790.7813 269.8594,791.0469 Q270.125,791.2969 270.125,791.6406 Q270.125,791.9844 269.7813,792.3906 Q269.2813,792.9688 268.4844,793.2969 Q267.4063,793.75 266.1094,793.75 Q264.5938,793.75 263.3906,793.125 Q262.4063,792.625 261.7188,791.5625 Q261.0313,790.4844 261.0313,789.2031 L261.0313,788.0469 Q261.0313,786.7188 261.6406,785.5781 Q262.2656,784.4219 263.3594,783.8125 Q264.4531,783.1875 265.6875,783.1875 Q266.4219,783.1875 267.0625,783.3594 Q267.7188,783.5156 268.2656,783.875 Z " fill="#000000"/><text fill="#000000" font-family="sans-serif" font-size="14" lengthAdjust="spacing" textLength="51" x="279.5" y="793.7285">Itinerary</text><line style="stroke:#181818;stroke-width:0.5;" x1="251.5" x2="332.5" y1="804" y2="804"/><line style="stroke:#181818;stroke-width:0.5;" x1="251.5" x2="332.5" y1="812" y2="812"/></g><!--class CompositeTopic--><g id="elem_CompositeTopic"><rect codeLine="85" fill="#F1F1F1" height="65.6094" id="CompositeTopic" rx="2.5" ry="2.5" style="stroke:#181818;stroke-width:0.5;" width="134" x="223" y="1055"/><ellipse cx="238" cy="1071" fill="#ADD1B2" rx="11" ry="11" style="stroke:#181818;stroke-width:1.0;"/><path d="M240.7656,1066.875 Q240.9219,1066.6563 241.1094,1066.5469 Q241.2969,1066.4375 241.5156,1066.4375 Q241.8906,1066.4375 242.125,1066.7031 Q242.3594,1066.9531 242.3594,1067.5625 L242.3594,1069.0156 Q242.3594,1069.625 242.125,1069.8906 Q241.8906,1070.1563 241.5156,1070.1563 Q241.1719,1070.1563 240.9688,1069.9531 Q240.7656,1069.7656 240.6563,1069.25 Q240.6094,1068.8906 240.4219,1068.7031 Q240.0938,1068.3281 239.4844,1068.1094 Q238.875,1067.8906 238.25,1067.8906 Q237.4844,1067.8906 236.8438,1068.2188 Q236.2188,1068.5469 235.7188,1069.2969 Q235.2344,1070.0469 235.2344,1071.0781 L235.2344,1072.1719 Q235.2344,1073.4063 236.125,1074.2344 Q237.0156,1075.0469 238.6094,1075.0469 Q239.5469,1075.0469 240.2031,1074.7969 Q240.5938,1074.6406 241.0156,1074.2031 Q241.2813,1073.9375 241.4219,1073.8594 Q241.5781,1073.7813 241.7813,1073.7813 Q242.1094,1073.7813 242.3594,1074.0469 Q242.625,1074.2969 242.625,1074.6406 Q242.625,1074.9844 242.2813,1075.3906 Q241.7813,1075.9688 240.9844,1076.2969 Q239.9063,1076.75 238.6094,1076.75 Q237.0938,1076.75 235.8906,1076.125 Q234.9063,1075.625 234.2188,1074.5625 Q233.5313,1073.4844 233.5313,1072.2031 L233.5313,1071.0469 Q233.5313,1069.7188 234.1406,1068.5781 Q234.7656,1067.4219 235.8594,1066.8125 Q236.9531,1066.1875 238.1875,1066.1875 Q238.9219,1066.1875 239.5625,1066.3594 Q240.2188,1066.5156 240.7656,1066.875 Z " fill="#000000"/><text fill="#000000" font-family="sans-serif" font-size="14" lengthAdjust="spacing" textLength="102" x="252" y="1076.7285">CompositeTopic</text><line style="stroke:#181818;stroke-width:0.5;" x1="224" x2="356" y1="1087" y2="1087"/><rect fill="none" height="6" style="stroke:#C82930;stroke-width:1.0;" width="6" x="231" y="1098.3047"/><text fill="#000000" font-family="sans-serif" font-size="14" lengthAdjust="spacing" textLength="85" x="243" y="1105.5332">topic[] : Topic</text><line style="stroke:#181818;stroke-width:0.5;" x1="224" x2="356" y1="1112.6094" y2="1112.6094"/></g><!--class SimpleTopic--><g id="elem_SimpleTopic"><rect codeLine="81" fill="#F1F1F1" height="48" id="SimpleTopic" rx="2.5" ry="2.5" style="stroke:#181818;stroke-width:0.5;" width="109" x="392.5" y="1064"/><ellipse cx="407.5" cy="1080" fill="#ADD1B2" rx="11" ry="11" style="stroke:#181818;stroke-width:1.0;"/><path d="M410.2656,1075.875 Q410.4219,1075.6563 410.6094,1075.5469 Q410.7969,1075.4375 411.0156,1075.4375 Q411.3906,1075.4375 411.625,1075.7031 Q411.8594,1075.9531 411.8594,1076.5625 L411.8594,1078.0156 Q411.8594,1078.625 411.625,1078.8906 Q411.3906,1079.1563 411.0156,1079.1563 Q410.6719,1079.1563 410.4688,1078.9531 Q410.2656,1078.7656 410.1563,1078.25 Q410.1094,1077.8906 409.9219,1077.7031 Q409.5938,1077.3281 408.9844,1077.1094 Q408.375,1076.8906 407.75,1076.8906 Q406.9844,1076.8906 406.3438,1077.2188 Q405.7188,1077.5469 405.2188,1078.2969 Q404.7344,1079.0469 404.7344,1080.0781 L404.7344,1081.1719 Q404.7344,1082.4063 405.625,1083.2344 Q406.5156,1084.0469 408.1094,1084.0469 Q409.0469,1084.0469 409.7031,1083.7969 Q410.0938,1083.6406 410.5156,1083.2031 Q410.7813,1082.9375 410.9219,1082.8594 Q411.0781,1082.7813 411.2813,1082.7813 Q411.6094,1082.7813 411.8594,1083.0469 Q412.125,1083.2969 412.125,1083.6406 Q412.125,1083.9844 411.7813,1084.3906 Q411.2813,1084.9688 410.4844,1085.2969 Q409.4063,1085.75 408.1094,1085.75 Q406.5938,1085.75 405.3906,1085.125 Q404.4063,1084.625 403.7188,1083.5625 Q403.0313,1082.4844 403.0313,1081.2031 L403.0313,1080.0469 Q403.0313,1078.7188 403.6406,1077.5781 Q404.2656,1076.4219 405.3594,1075.8125 Q406.4531,1075.1875 407.6875,1075.1875 Q408.4219,1075.1875 409.0625,1075.3594 Q409.7188,1075.5156 410.2656,1075.875 Z " fill="#000000"/><text fill="#000000" font-family="sans-serif" font-size="14" lengthAdjust="spacing" textLength="77" x="421.5" y="1085.7285">SimpleTopic</text><line style="stroke:#181818;stroke-width:0.5;" x1="393.5" x2="500.5" y1="1096" y2="1096"/><line style="stroke:#181818;stroke-width:0.5;" x1="393.5" x2="500.5" y1="1104" y2="1104"/></g><!--class Document--><g id="elem_Document"><rect codeLine="69" fill="#F1F1F1" height="83.2188" id="Document" rx="2.5" ry="2.5" style="stroke:#181818;stroke-width:0.5;" width="166" x="22" y="1046.5"/><ellipse cx="68.75" cy="1062.5" fill="#ADD1B2" rx="11" ry="11" style="stroke:#181818;stroke-width:1.0;"/><path d="M71.5156,1058.375 Q71.6719,1058.1563 71.8594,1058.0469 Q72.0469,1057.9375 72.2656,1057.9375 Q72.6406,1057.9375 72.875,1058.2031 Q73.1094,1058.4531 73.1094,1059.0625 L73.1094,1060.5156 Q73.1094,1061.125 72.875,1061.3906 Q72.6406,1061.6563 72.2656,1061.6563 Q71.9219,1061.6563 71.7188,1061.4531 Q71.5156,1061.2656 71.4063,1060.75 Q71.3594,1060.3906 71.1719,1060.2031 Q70.8438,1059.8281 70.2344,1059.6094 Q69.625,1059.3906 69,1059.3906 Q68.2344,1059.3906 67.5938,1059.7188 Q66.9688,1060.0469 66.4688,1060.7969 Q65.9844,1061.5469 65.9844,1062.5781 L65.9844,1063.6719 Q65.9844,1064.9063 66.875,1065.7344 Q67.7656,1066.5469 69.3594,1066.5469 Q70.2969,1066.5469 70.9531,1066.2969 Q71.3438,1066.1406 71.7656,1065.7031 Q72.0313,1065.4375 72.1719,1065.3594 Q72.3281,1065.2813 72.5313,1065.2813 Q72.8594,1065.2813 73.1094,1065.5469 Q73.375,1065.7969 73.375,1066.1406 Q73.375,1066.4844 73.0313,1066.8906 Q72.5313,1067.4688 71.7344,1067.7969 Q70.6563,1068.25 69.3594,1068.25 Q67.8438,1068.25 66.6406,1067.625 Q65.6563,1067.125 64.9688,1066.0625 Q64.2813,1064.9844 64.2813,1063.7031 L64.2813,1062.5469 Q64.2813,1061.2188 64.8906,1060.0781 Q65.5156,1058.9219 66.6094,1058.3125 Q67.7031,1057.6875 68.9375,1057.6875 Q69.6719,1057.6875 70.3125,1057.8594 Q70.9688,1058.0156 71.5156,1058.375 Z " fill="#000000"/><text fill="#000000" font-family="sans-serif" font-size="14" lengthAdjust="spacing" textLength="64" x="89.25" y="1068.2285">Document</text><line style="stroke:#181818;stroke-width:0.5;" x1="23" x2="187" y1="1078.5" y2="1078.5"/><rect fill="none" height="6" style="stroke:#C82930;stroke-width:1.0;" width="6" x="30" y="1089.8047"/><text fill="#000000" font-family="sans-serif" font-size="14" lengthAdjust="spacing" textLength="140" x="42" y="1097.0332">TYPE: DocumentType</text><rect fill="none" height="6" style="stroke:#C82930;stroke-width:1.0;" width="6" x="30" y="1107.4141"/><text fill="#000000" font-family="sans-serif" font-size="14" lengthAdjust="spacing" textLength="70" x="42" y="1114.6426">date : Date</text><line style="stroke:#181818;stroke-width:0.5;" x1="23" x2="187" y1="1121.7188" y2="1121.7188"/></g><!--class DocumentType--><g id="elem_DocumentType"><rect codeLine="75" fill="#F1F1F1" height="100.8281" id="DocumentType" rx="2.5" ry="2.5" style="stroke:#181818;stroke-width:0.5;" width="171" x="22.5" y="1190.5"/><ellipse cx="56.85" cy="1206.5" fill="#EB937F" rx="11" ry="11" style="stroke:#181818;stroke-width:1.0;"/><path d="M55.7094,1207.2969 L55.7094,1209.7969 L60.0375,1209.7969 L60.0375,1208.875 Q60.0375,1208.2656 60.2719,1208 Q60.5219,1207.7344 60.8969,1207.7344 Q61.2719,1207.7344 61.5063,1208 Q61.7406,1208.2656 61.7406,1208.875 L61.7406,1211.5 L53.7406,1211.5 Q53.1156,1211.5 52.85,1211.2656 Q52.6,1211.0313 52.6,1210.6406 Q52.6,1210.2656 52.8656,1210.0313 Q53.1313,1209.7969 53.7406,1209.7969 L54.0063,1209.7969 L54.0063,1203.1406 L53.7406,1203.1406 Q53.1156,1203.1406 52.85,1202.9063 Q52.6,1202.6719 52.6,1202.2813 Q52.6,1201.9063 52.85,1201.6719 Q53.1156,1201.4375 53.7406,1201.4375 L61.3656,1201.4375 L61.3656,1204.0313 Q61.3656,1204.6406 61.1313,1204.9063 Q60.9125,1205.1563 60.5219,1205.1563 Q60.1469,1205.1563 59.9125,1204.9063 Q59.6781,1204.6406 59.6781,1204.0313 L59.6781,1203.1406 L55.7094,1203.1406 L55.7094,1205.5938 L57.1938,1205.5938 Q57.1938,1204.9375 57.3188,1204.75 Q57.5844,1204.3438 58.0531,1204.3438 Q58.4281,1204.3438 58.6625,1204.6094 Q58.8969,1204.8594 58.8969,1205.4688 L58.8969,1207.4375 Q58.8969,1207.9844 58.7719,1208.1719 Q58.5063,1208.5625 58.0531,1208.5625 Q57.5844,1208.5625 57.3188,1208.1563 Q57.1938,1207.9688 57.1938,1207.2969 L55.7094,1207.2969 Z " fill="#000000"/><text fill="#000000" font-family="sans-serif" font-size="14" lengthAdjust="spacing" textLength="96" x="75.15" y="1212.2285">DocumentType</text><line style="stroke:#181818;stroke-width:0.5;" x1="23.5" x2="192.5" y1="1222.5" y2="1222.5"/><text fill="#000000" font-family="sans-serif" font-size="14" lengthAdjust="spacing" textLength="159" x="28.5" y="1241.0332">TextWithImagesAndURLs</text><text fill="#000000" font-family="sans-serif" font-size="14" lengthAdjust="spacing" textLength="36" x="28.5" y="1258.6426">Video</text><text fill="#000000" font-family="sans-serif" font-size="14" lengthAdjust="spacing" textLength="36" x="28.5" y="1276.252">Audio</text><line style="stroke:#181818;stroke-width:0.5;" x1="23.5" x2="192.5" y1="1283.3281" y2="1283.3281"/></g><!--class Question--><g id="elem_Question"><rect codeLine="136" fill="#F1F1F1" height="65.6094" id="Question" rx="2.5" ry="2.5" style="stroke:#181818;stroke-width:0.5;" width="123" x="910.5" y="479"/><ellipse cx="940.8" cy="495" fill="#ADD1B2" rx="11" ry="11" style="stroke:#181818;stroke-width:1.0;"/><path d="M943.5656,490.875 Q943.7219,490.6563 943.9094,490.5469 Q944.0969,490.4375 944.3156,490.4375 Q944.6906,490.4375 944.925,490.7031 Q945.1594,490.9531 945.1594,491.5625 L945.1594,493.0156 Q945.1594,493.625 944.925,493.8906 Q944.6906,494.1563 944.3156,494.1563 Q943.9719,494.1563 943.7688,493.9531 Q943.5656,493.7656 943.4563,493.25 Q943.4094,492.8906 943.2219,492.7031 Q942.8938,492.3281 942.2844,492.1094 Q941.675,491.8906 941.05,491.8906 Q940.2844,491.8906 939.6438,492.2188 Q939.0188,492.5469 938.5188,493.2969 Q938.0344,494.0469 938.0344,495.0781 L938.0344,496.1719 Q938.0344,497.4063 938.925,498.2344 Q939.8156,499.0469 941.4094,499.0469 Q942.3469,499.0469 943.0031,498.7969 Q943.3938,498.6406 943.8156,498.2031 Q944.0813,497.9375 944.2219,497.8594 Q944.3781,497.7813 944.5813,497.7813 Q944.9094,497.7813 945.1594,498.0469 Q945.425,498.2969 945.425,498.6406 Q945.425,498.9844 945.0813,499.3906 Q944.5813,499.9688 943.7844,500.2969 Q942.7063,500.75 941.4094,500.75 Q939.8938,500.75 938.6906,500.125 Q937.7063,499.625 937.0188,498.5625 Q936.3313,497.4844 936.3313,496.2031 L936.3313,495.0469 Q936.3313,493.7188 936.9406,492.5781 Q937.5656,491.4219 938.6594,490.8125 Q939.7531,490.1875 940.9875,490.1875 Q941.7219,490.1875 942.3625,490.3594 Q943.0188,490.5156 943.5656,490.875 Z " fill="#000000"/><text fill="#000000" font-family="sans-serif" font-size="14" lengthAdjust="spacing" textLength="57" x="958.2" y="500.7285">Question</text><line style="stroke:#181818;stroke-width:0.5;" x1="911.5" x2="1032.5" y1="511" y2="511"/><text fill="#000000" font-family="sans-serif" font-size="14" lengthAdjust="spacing" textLength="111" x="916.5" y="529.5332">statement : String</text><line style="stroke:#181818;stroke-width:0.5;" x1="911.5" x2="1032.5" y1="536.6094" y2="536.6094"/></g><!--class MultipleChoice--><g id="elem_MultipleChoice"><rect codeLine="149" fill="#F1F1F1" height="48" id="MultipleChoice" rx="2.5" ry="2.5" style="stroke:#181818;stroke-width:0.5;" width="124" x="805" y="623.5"/><ellipse cx="820" cy="639.5" fill="#ADD1B2" rx="11" ry="11" style="stroke:#181818;stroke-width:1.0;"/><path d="M822.7656,635.375 Q822.9219,635.1563 823.1094,635.0469 Q823.2969,634.9375 823.5156,634.9375 Q823.8906,634.9375 824.125,635.2031 Q824.3594,635.4531 824.3594,636.0625 L824.3594,637.5156 Q824.3594,638.125 824.125,638.3906 Q823.8906,638.6563 823.5156,638.6563 Q823.1719,638.6563 822.9688,638.4531 Q822.7656,638.2656 822.6563,637.75 Q822.6094,637.3906 822.4219,637.2031 Q822.0938,636.8281 821.4844,636.6094 Q820.875,636.3906 820.25,636.3906 Q819.4844,636.3906 818.8438,636.7188 Q818.2188,637.0469 817.7188,637.7969 Q817.2344,638.5469 817.2344,639.5781 L817.2344,640.6719 Q817.2344,641.9063 818.125,642.7344 Q819.0156,643.5469 820.6094,643.5469 Q821.5469,643.5469 822.2031,643.2969 Q822.5938,643.1406 823.0156,642.7031 Q823.2813,642.4375 823.4219,642.3594 Q823.5781,642.2813 823.7813,642.2813 Q824.1094,642.2813 824.3594,642.5469 Q824.625,642.7969 824.625,643.1406 Q824.625,643.4844 824.2813,643.8906 Q823.7813,644.4688 822.9844,644.7969 Q821.9063,645.25 820.6094,645.25 Q819.0938,645.25 817.8906,644.625 Q816.9063,644.125 816.2188,643.0625 Q815.5313,641.9844 815.5313,640.7031 L815.5313,639.5469 Q815.5313,638.2188 816.1406,637.0781 Q816.7656,635.9219 817.8594,635.3125 Q818.9531,634.6875 820.1875,634.6875 Q820.9219,634.6875 821.5625,634.8594 Q822.2188,635.0156 822.7656,635.375 Z " fill="#000000"/><text fill="#000000" font-family="sans-serif" font-size="14" lengthAdjust="spacing" textLength="92" x="834" y="645.2285">MultipleChoice</text><line style="stroke:#181818;stroke-width:0.5;" x1="806" x2="928" y1="655.5" y2="655.5"/><line style="stroke:#181818;stroke-width:0.5;" x1="806" x2="928" y1="663.5" y2="663.5"/></g><!--class Cloze--><g id="elem_Cloze"><rect codeLine="144" fill="#F1F1F1" height="83.2188" id="Cloze" rx="2.5" ry="2.5" style="stroke:#181818;stroke-width:0.5;" width="158" x="964" y="606"/><ellipse cx="1021.25" cy="622" fill="#ADD1B2" rx="11" ry="11" style="stroke:#181818;stroke-width:1.0;"/><path d="M1024.0156,617.875 Q1024.1719,617.6563 1024.3594,617.5469 Q1024.5469,617.4375 1024.7656,617.4375 Q1025.1406,617.4375 1025.375,617.7031 Q1025.6094,617.9531 1025.6094,618.5625 L1025.6094,620.0156 Q1025.6094,620.625 1025.375,620.8906 Q1025.1406,621.1563 1024.7656,621.1563 Q1024.4219,621.1563 1024.2188,620.9531 Q1024.0156,620.7656 1023.9063,620.25 Q1023.8594,619.8906 1023.6719,619.7031 Q1023.3438,619.3281 1022.7344,619.1094 Q1022.125,618.8906 1021.5,618.8906 Q1020.7344,618.8906 1020.0938,619.2188 Q1019.4688,619.5469 1018.9688,620.2969 Q1018.4844,621.0469 1018.4844,622.0781 L1018.4844,623.1719 Q1018.4844,624.4063 1019.375,625.2344 Q1020.2656,626.0469 1021.8594,626.0469 Q1022.7969,626.0469 1023.4531,625.7969 Q1023.8438,625.6406 1024.2656,625.2031 Q1024.5313,624.9375 1024.6719,624.8594 Q1024.8281,624.7813 1025.0313,624.7813 Q1025.3594,624.7813 1025.6094,625.0469 Q1025.875,625.2969 1025.875,625.6406 Q1025.875,625.9844 1025.5313,626.3906 Q1025.0313,626.9688 1024.2344,627.2969 Q1023.1563,627.75 1021.8594,627.75 Q1020.3438,627.75 1019.1406,627.125 Q1018.1563,626.625 1017.4688,625.5625 Q1016.7813,624.4844 1016.7813,623.2031 L1016.7813,622.0469 Q1016.7813,620.7188 1017.3906,619.5781 Q1018.0156,618.4219 1019.1094,617.8125 Q1020.2031,617.1875 1021.4375,617.1875 Q1022.1719,617.1875 1022.8125,617.3594 Q1023.4688,617.5156 1024.0156,617.875 Z " fill="#000000"/><text fill="#000000" font-family="sans-serif" font-size="14" lengthAdjust="spacing" textLength="35" x="1041.75" y="627.7285">Cloze</text><line style="stroke:#181818;stroke-width:0.5;" x1="965" x2="1121" y1="638" y2="638"/><rect fill="none" height="6" style="stroke:#C82930;stroke-width:1.0;" width="6" x="972" y="649.3047"/><text fill="#000000" font-family="sans-serif" font-size="14" lengthAdjust="spacing" textLength="95" x="984" y="656.5332">blankCount: int</text><rect fill="none" height="6" style="stroke:#C82930;stroke-width:1.0;" width="6" x="972" y="666.9141"/><text fill="#000000" font-family="sans-serif" font-size="14" lengthAdjust="spacing" textLength="132" x="984" y="674.1426">blankWords[] : String</text><line style="stroke:#181818;stroke-width:0.5;" x1="965" x2="1121" y1="681.2188" y2="681.2188"/></g><!--class Open--><g id="elem_Open"><rect fill="#F1F1F1" height="48" id="Open" rx="2.5" ry="2.5" style="stroke:#181818;stroke-width:0.5;" width="67" x="1157.5" y="623.5"/><ellipse cx="1172.5" cy="639.5" fill="#ADD1B2" rx="11" ry="11" style="stroke:#181818;stroke-width:1.0;"/><path d="M1175.2656,635.375 Q1175.4219,635.1563 1175.6094,635.0469 Q1175.7969,634.9375 1176.0156,634.9375 Q1176.3906,634.9375 1176.625,635.2031 Q1176.8594,635.4531 1176.8594,636.0625 L1176.8594,637.5156 Q1176.8594,638.125 1176.625,638.3906 Q1176.3906,638.6563 1176.0156,638.6563 Q1175.6719,638.6563 1175.4688,638.4531 Q1175.2656,638.2656 1175.1563,637.75 Q1175.1094,637.3906 1174.9219,637.2031 Q1174.5938,636.8281 1173.9844,636.6094 Q1173.375,636.3906 1172.75,636.3906 Q1171.9844,636.3906 1171.3438,636.7188 Q1170.7188,637.0469 1170.2188,637.7969 Q1169.7344,638.5469 1169.7344,639.5781 L1169.7344,640.6719 Q1169.7344,641.9063 1170.625,642.7344 Q1171.5156,643.5469 1173.1094,643.5469 Q1174.0469,643.5469 1174.7031,643.2969 Q1175.0938,643.1406 1175.5156,642.7031 Q1175.7813,642.4375 1175.9219,642.3594 Q1176.0781,642.2813 1176.2813,642.2813 Q1176.6094,642.2813 1176.8594,642.5469 Q1177.125,642.7969 1177.125,643.1406 Q1177.125,643.4844 1176.7813,643.8906 Q1176.2813,644.4688 1175.4844,644.7969 Q1174.4063,645.25 1173.1094,645.25 Q1171.5938,645.25 1170.3906,644.625 Q1169.4063,644.125 1168.7188,643.0625 Q1168.0313,641.9844 1168.0313,640.7031 L1168.0313,639.5469 Q1168.0313,638.2188 1168.6406,637.0781 Q1169.2656,635.9219 1170.3594,635.3125 Q1171.4531,634.6875 1172.6875,634.6875 Q1173.4219,634.6875 1174.0625,634.8594 Q1174.7188,635.0156 1175.2656,635.375 Z " fill="#000000"/><text fill="#000000" font-family="sans-serif" font-size="14" lengthAdjust="spacing" textLength="35" x="1186.5" y="645.2285">Open</text><line style="stroke:#181818;stroke-width:0.5;" x1="1158.5" x2="1223.5" y1="655.5" y2="655.5"/><line style="stroke:#181818;stroke-width:0.5;" x1="1158.5" x2="1223.5" y1="663.5" y2="663.5"/></g><!--class Option--><g id="elem_Option"><rect codeLine="155" fill="#F1F1F1" height="48" id="Option" rx="2.5" ry="2.5" style="stroke:#181818;stroke-width:0.5;" width="74" x="860" y="772"/><ellipse cx="875" cy="788" fill="#A9DCDF" rx="11" ry="11" style="stroke:#181818;stroke-width:1.0;"/><path d="M877.1875,789.7656 L873.0469,789.7656 L872.625,790.7969 L873.0469,790.7969 Q873.6563,790.7969 873.9219,791.0313 Q874.1875,791.2656 874.1875,791.6563 Q874.1875,792.0313 873.9219,792.2656 Q873.6563,792.5 873.0469,792.5 L870.75,792.5 Q870.1406,792.5 869.8906,792.2656 Q869.625,792.0313 869.625,791.6406 Q869.625,791.2656 869.9063,791.0313 Q870.1719,790.7813 870.7969,790.7969 L873.4688,784.1406 L872.3594,784.1406 Q871.75,784.1406 871.4844,783.9063 Q871.2188,783.6719 871.2188,783.2813 Q871.2188,782.9063 871.4844,782.6719 Q871.75,782.4375 872.3594,782.4375 L876.0313,782.4375 L879.4219,790.7969 Q880.0156,790.7969 880.2031,790.9375 Q880.5938,791.2031 880.5938,791.6563 Q880.5938,792.0313 880.3281,792.2656 Q880.0781,792.5 879.4688,792.5 L877.1719,792.5 Q876.5625,792.5 876.2969,792.2656 Q876.0313,792.0313 876.0313,791.6406 Q876.0313,791.2656 876.2969,791.0313 Q876.5625,790.7969 877.1719,790.7969 L877.5938,790.7969 L877.1875,789.7656 Z M876.4688,788.0625 L875.1094,784.6875 L873.7344,788.0625 L876.4688,788.0625 Z " fill="#000000"/><text fill="#000000" font-family="sans-serif" font-size="14" font-style="italic" lengthAdjust="spacing" textLength="42" x="889" y="793.7285">Option</text><line style="stroke:#181818;stroke-width:0.5;" x1="861" x2="933" y1="804" y2="804"/><line style="stroke:#181818;stroke-width:0.5;" x1="861" x2="933" y1="812" y2="812"/></g><!--class Correct--><g id="elem_Correct"><rect codeLine="159" fill="#F1F1F1" height="48" id="Correct" rx="2.5" ry="2.5" style="stroke:#181818;stroke-width:0.5;" width="79" x="930.5" y="915.5"/><ellipse cx="945.5" cy="931.5" fill="#ADD1B2" rx="11" ry="11" style="stroke:#181818;stroke-width:1.0;"/><path d="M948.2656,927.375 Q948.4219,927.1563 948.6094,927.0469 Q948.7969,926.9375 949.0156,926.9375 Q949.3906,926.9375 949.625,927.2031 Q949.8594,927.4531 949.8594,928.0625 L949.8594,929.5156 Q949.8594,930.125 949.625,930.3906 Q949.3906,930.6563 949.0156,930.6563 Q948.6719,930.6563 948.4688,930.4531 Q948.2656,930.2656 948.1563,929.75 Q948.1094,929.3906 947.9219,929.2031 Q947.5938,928.8281 946.9844,928.6094 Q946.375,928.3906 945.75,928.3906 Q944.9844,928.3906 944.3438,928.7188 Q943.7188,929.0469 943.2188,929.7969 Q942.7344,930.5469 942.7344,931.5781 L942.7344,932.6719 Q942.7344,933.9063 943.625,934.7344 Q944.5156,935.5469 946.1094,935.5469 Q947.0469,935.5469 947.7031,935.2969 Q948.0938,935.1406 948.5156,934.7031 Q948.7813,934.4375 948.9219,934.3594 Q949.0781,934.2813 949.2813,934.2813 Q949.6094,934.2813 949.8594,934.5469 Q950.125,934.7969 950.125,935.1406 Q950.125,935.4844 949.7813,935.8906 Q949.2813,936.4688 948.4844,936.7969 Q947.4063,937.25 946.1094,937.25 Q944.5938,937.25 943.3906,936.625 Q942.4063,936.125 941.7188,935.0625 Q941.0313,933.9844 941.0313,932.7031 L941.0313,931.5469 Q941.0313,930.2188 941.6406,929.0781 Q942.2656,927.9219 943.3594,927.3125 Q944.4531,926.6875 945.6875,926.6875 Q946.4219,926.6875 947.0625,926.8594 Q947.7188,927.0156 948.2656,927.375 Z " fill="#000000"/><text fill="#000000" font-family="sans-serif" font-size="14" lengthAdjust="spacing" textLength="47" x="959.5" y="937.2285">Correct</text><line style="stroke:#181818;stroke-width:0.5;" x1="931.5" x2="1008.5" y1="947.5" y2="947.5"/><line style="stroke:#181818;stroke-width:0.5;" x1="931.5" x2="1008.5" y1="955.5" y2="955.5"/></g><!--class Incorrect--><g id="elem_Incorrect"><rect codeLine="161" fill="#F1F1F1" height="48" id="Incorrect" rx="2.5" ry="2.5" style="stroke:#181818;stroke-width:0.5;" width="87" x="808.5" y="915.5"/><ellipse cx="823.5" cy="931.5" fill="#ADD1B2" rx="11" ry="11" style="stroke:#181818;stroke-width:1.0;"/><path d="M826.2656,927.375 Q826.4219,927.1563 826.6094,927.0469 Q826.7969,926.9375 827.0156,926.9375 Q827.3906,926.9375 827.625,927.2031 Q827.8594,927.4531 827.8594,928.0625 L827.8594,929.5156 Q827.8594,930.125 827.625,930.3906 Q827.3906,930.6563 827.0156,930.6563 Q826.6719,930.6563 826.4688,930.4531 Q826.2656,930.2656 826.1563,929.75 Q826.1094,929.3906 825.9219,929.2031 Q825.5938,928.8281 824.9844,928.6094 Q824.375,928.3906 823.75,928.3906 Q822.9844,928.3906 822.3438,928.7188 Q821.7188,929.0469 821.2188,929.7969 Q820.7344,930.5469 820.7344,931.5781 L820.7344,932.6719 Q820.7344,933.9063 821.625,934.7344 Q822.5156,935.5469 824.1094,935.5469 Q825.0469,935.5469 825.7031,935.2969 Q826.0938,935.1406 826.5156,934.7031 Q826.7813,934.4375 826.9219,934.3594 Q827.0781,934.2813 827.2813,934.2813 Q827.6094,934.2813 827.8594,934.5469 Q828.125,934.7969 828.125,935.1406 Q828.125,935.4844 827.7813,935.8906 Q827.2813,936.4688 826.4844,936.7969 Q825.4063,937.25 824.1094,937.25 Q822.5938,937.25 821.3906,936.625 Q820.4063,936.125 819.7188,935.0625 Q819.0313,933.9844 819.0313,932.7031 L819.0313,931.5469 Q819.0313,930.2188 819.6406,929.0781 Q820.2656,927.9219 821.3594,927.3125 Q822.4531,926.6875 823.6875,926.6875 Q824.4219,926.6875 825.0625,926.8594 Q825.7188,927.0156 826.2656,927.375 Z " fill="#000000"/><text fill="#000000" font-family="sans-serif" font-size="14" lengthAdjust="spacing" textLength="55" x="837.5" y="937.2285">Incorrect</text><line style="stroke:#181818;stroke-width:0.5;" x1="809.5" x2="894.5" y1="947.5" y2="947.5"/><line style="stroke:#181818;stroke-width:0.5;" x1="809.5" x2="894.5" y1="955.5" y2="955.5"/></g><!--class Corpus--><g id="elem_Corpus"><rect codeLine="92" fill="#F1F1F1" height="48" id="Corpus" rx="2.5" ry="2.5" style="stroke:#181818;stroke-width:0.5;" width="78" x="1331" y="1064"/><ellipse cx="1346" cy="1080" fill="#ADD1B2" rx="11" ry="11" style="stroke:#181818;stroke-width:1.0;"/><path d="M1348.7656,1075.875 Q1348.9219,1075.6563 1349.1094,1075.5469 Q1349.2969,1075.4375 1349.5156,1075.4375 Q1349.8906,1075.4375 1350.125,1075.7031 Q1350.3594,1075.9531 1350.3594,1076.5625 L1350.3594,1078.0156 Q1350.3594,1078.625 1350.125,1078.8906 Q1349.8906,1079.1563 1349.5156,1079.1563 Q1349.1719,1079.1563 1348.9688,1078.9531 Q1348.7656,1078.7656 1348.6563,1078.25 Q1348.6094,1077.8906 1348.4219,1077.7031 Q1348.0938,1077.3281 1347.4844,1077.1094 Q1346.875,1076.8906 1346.25,1076.8906 Q1345.4844,1076.8906 1344.8438,1077.2188 Q1344.2188,1077.5469 1343.7188,1078.2969 Q1343.2344,1079.0469 1343.2344,1080.0781 L1343.2344,1081.1719 Q1343.2344,1082.4063 1344.125,1083.2344 Q1345.0156,1084.0469 1346.6094,1084.0469 Q1347.5469,1084.0469 1348.2031,1083.7969 Q1348.5938,1083.6406 1349.0156,1083.2031 Q1349.2813,1082.9375 1349.4219,1082.8594 Q1349.5781,1082.7813 1349.7813,1082.7813 Q1350.1094,1082.7813 1350.3594,1083.0469 Q1350.625,1083.2969 1350.625,1083.6406 Q1350.625,1083.9844 1350.2813,1084.3906 Q1349.7813,1084.9688 1348.9844,1085.2969 Q1347.9063,1085.75 1346.6094,1085.75 Q1345.0938,1085.75 1343.8906,1085.125 Q1342.9063,1084.625 1342.2188,1083.5625 Q1341.5313,1082.4844 1341.5313,1081.2031 L1341.5313,1080.0469 Q1341.5313,1078.7188 1342.1406,1077.5781 Q1342.7656,1076.4219 1343.8594,1075.8125 Q1344.9531,1075.1875 1346.1875,1075.1875 Q1346.9219,1075.1875 1347.5625,1075.3594 Q1348.2188,1075.5156 1348.7656,1075.875 Z " fill="#000000"/><text fill="#000000" font-family="sans-serif" font-size="14" lengthAdjust="spacing" textLength="46" x="1360" y="1085.7285">Corpus</text><line style="stroke:#181818;stroke-width:0.5;" x1="1332" x2="1408" y1="1096" y2="1096"/><line style="stroke:#181818;stroke-width:0.5;" x1="1332" x2="1408" y1="1104" y2="1104"/></g><!--class Concept--><g id="elem_Concept"><rect codeLine="96" fill="#F1F1F1" height="65.6094" id="Concept" rx="2.5" ry="2.5" style="stroke:#181818;stroke-width:0.5;" width="110" x="1225" y="1208"/><ellipse cx="1251.25" cy="1224" fill="#ADD1B2" rx="11" ry="11" style="stroke:#181818;stroke-width:1.0;"/><path d="M1254.0156,1219.875 Q1254.1719,1219.6563 1254.3594,1219.5469 Q1254.5469,1219.4375 1254.7656,1219.4375 Q1255.1406,1219.4375 1255.375,1219.7031 Q1255.6094,1219.9531 1255.6094,1220.5625 L1255.6094,1222.0156 Q1255.6094,1222.625 1255.375,1222.8906 Q1255.1406,1223.1563 1254.7656,1223.1563 Q1254.4219,1223.1563 1254.2188,1222.9531 Q1254.0156,1222.7656 1253.9063,1222.25 Q1253.8594,1221.8906 1253.6719,1221.7031 Q1253.3438,1221.3281 1252.7344,1221.1094 Q1252.125,1220.8906 1251.5,1220.8906 Q1250.7344,1220.8906 1250.0938,1221.2188 Q1249.4688,1221.5469 1248.9688,1222.2969 Q1248.4844,1223.0469 1248.4844,1224.0781 L1248.4844,1225.1719 Q1248.4844,1226.4063 1249.375,1227.2344 Q1250.2656,1228.0469 1251.8594,1228.0469 Q1252.7969,1228.0469 1253.4531,1227.7969 Q1253.8438,1227.6406 1254.2656,1227.2031 Q1254.5313,1226.9375 1254.6719,1226.8594 Q1254.8281,1226.7813 1255.0313,1226.7813 Q1255.3594,1226.7813 1255.6094,1227.0469 Q1255.875,1227.2969 1255.875,1227.6406 Q1255.875,1227.9844 1255.5313,1228.3906 Q1255.0313,1228.9688 1254.2344,1229.2969 Q1253.1563,1229.75 1251.8594,1229.75 Q1250.3438,1229.75 1249.1406,1229.125 Q1248.1563,1228.625 1247.4688,1227.5625 Q1246.7813,1226.4844 1246.7813,1225.2031 L1246.7813,1224.0469 Q1246.7813,1222.7188 1247.3906,1221.5781 Q1248.0156,1220.4219 1249.1094,1219.8125 Q1250.2031,1219.1875 1251.4375,1219.1875 Q1252.1719,1219.1875 1252.8125,1219.3594 Q1253.4688,1219.5156 1254.0156,1219.875 Z " fill="#000000"/><text fill="#000000" font-family="sans-serif" font-size="14" lengthAdjust="spacing" textLength="53" x="1267.75" y="1229.7285">Concept</text><line style="stroke:#181818;stroke-width:0.5;" x1="1226" x2="1334" y1="1240" y2="1240"/><rect fill="none" height="6" style="stroke:#C82930;stroke-width:1.0;" width="6" x="1233" y="1251.3047"/><text fill="#000000" font-family="sans-serif" font-size="14" lengthAdjust="spacing" textLength="84" x="1245" y="1258.5332">name : String</text><line style="stroke:#181818;stroke-width:0.5;" x1="1226" x2="1334" y1="1265.6094" y2="1265.6094"/></g><!--class Definition--><g id="elem_Definition"><rect codeLine="102" fill="#F1F1F1" height="65.6094" id="Definition" rx="2.5" ry="2.5" style="stroke:#181818;stroke-width:0.5;" width="133" x="1156.5" y="1371.5"/><ellipse cx="1190.4" cy="1387.5" fill="#ADD1B2" rx="11" ry="11" style="stroke:#181818;stroke-width:1.0;"/><path d="M1193.1656,1383.375 Q1193.3219,1383.1563 1193.5094,1383.0469 Q1193.6969,1382.9375 1193.9156,1382.9375 Q1194.2906,1382.9375 1194.525,1383.2031 Q1194.7594,1383.4531 1194.7594,1384.0625 L1194.7594,1385.5156 Q1194.7594,1386.125 1194.525,1386.3906 Q1194.2906,1386.6563 1193.9156,1386.6563 Q1193.5719,1386.6563 1193.3688,1386.4531 Q1193.1656,1386.2656 1193.0563,1385.75 Q1193.0094,1385.3906 1192.8219,1385.2031 Q1192.4938,1384.8281 1191.8844,1384.6094 Q1191.275,1384.3906 1190.65,1384.3906 Q1189.8844,1384.3906 1189.2438,1384.7188 Q1188.6188,1385.0469 1188.1188,1385.7969 Q1187.6344,1386.5469 1187.6344,1387.5781 L1187.6344,1388.6719 Q1187.6344,1389.9063 1188.525,1390.7344 Q1189.4156,1391.5469 1191.0094,1391.5469 Q1191.9469,1391.5469 1192.6031,1391.2969 Q1192.9938,1391.1406 1193.4156,1390.7031 Q1193.6813,1390.4375 1193.8219,1390.3594 Q1193.9781,1390.2813 1194.1813,1390.2813 Q1194.5094,1390.2813 1194.7594,1390.5469 Q1195.025,1390.7969 1195.025,1391.1406 Q1195.025,1391.4844 1194.6813,1391.8906 Q1194.1813,1392.4688 1193.3844,1392.7969 Q1192.3063,1393.25 1191.0094,1393.25 Q1189.4938,1393.25 1188.2906,1392.625 Q1187.3063,1392.125 1186.6188,1391.0625 Q1185.9313,1389.9844 1185.9313,1388.7031 L1185.9313,1387.5469 Q1185.9313,1386.2188 1186.5406,1385.0781 Q1187.1656,1383.9219 1188.2594,1383.3125 Q1189.3531,1382.6875 1190.5875,1382.6875 Q1191.3219,1382.6875 1191.9625,1382.8594 Q1192.6188,1383.0156 1193.1656,1383.375 Z " fill="#000000"/><text fill="#000000" font-family="sans-serif" font-size="14" lengthAdjust="spacing" textLength="59" x="1208.6" y="1393.2285">Definition</text><line style="stroke:#181818;stroke-width:0.5;" x1="1157.5" x2="1288.5" y1="1403.5" y2="1403.5"/><rect fill="none" height="6" style="stroke:#C82930;stroke-width:1.0;" width="6" x="1164.5" y="1414.8047"/><text fill="#000000" font-family="sans-serif" font-size="14" lengthAdjust="spacing" textLength="107" x="1176.5" y="1422.0332">correct : boolean</text><line style="stroke:#181818;stroke-width:0.5;" x1="1157.5" x2="1288.5" y1="1429.1094" y2="1429.1094"/></g><!--class Relation--><g id="elem_Relation"><rect codeLine="107" fill="#F1F1F1" height="48" id="Relation" rx="2.5" ry="2.5" style="stroke:#181818;stroke-width:0.5;" width="84" x="1325" y="1380.5"/><ellipse cx="1340" cy="1396.5" fill="#ADD1B2" rx="11" ry="11" style="stroke:#181818;stroke-width:1.0;"/><path d="M1342.7656,1392.375 Q1342.9219,1392.1563 1343.1094,1392.0469 Q1343.2969,1391.9375 1343.5156,1391.9375 Q1343.8906,1391.9375 1344.125,1392.2031 Q1344.3594,1392.4531 1344.3594,1393.0625 L1344.3594,1394.5156 Q1344.3594,1395.125 1344.125,1395.3906 Q1343.8906,1395.6563 1343.5156,1395.6563 Q1343.1719,1395.6563 1342.9688,1395.4531 Q1342.7656,1395.2656 1342.6563,1394.75 Q1342.6094,1394.3906 1342.4219,1394.2031 Q1342.0938,1393.8281 1341.4844,1393.6094 Q1340.875,1393.3906 1340.25,1393.3906 Q1339.4844,1393.3906 1338.8438,1393.7188 Q1338.2188,1394.0469 1337.7188,1394.7969 Q1337.2344,1395.5469 1337.2344,1396.5781 L1337.2344,1397.6719 Q1337.2344,1398.9063 1338.125,1399.7344 Q1339.0156,1400.5469 1340.6094,1400.5469 Q1341.5469,1400.5469 1342.2031,1400.2969 Q1342.5938,1400.1406 1343.0156,1399.7031 Q1343.2813,1399.4375 1343.4219,1399.3594 Q1343.5781,1399.2813 1343.7813,1399.2813 Q1344.1094,1399.2813 1344.3594,1399.5469 Q1344.625,1399.7969 1344.625,1400.1406 Q1344.625,1400.4844 1344.2813,1400.8906 Q1343.7813,1401.4688 1342.9844,1401.7969 Q1341.9063,1402.25 1340.6094,1402.25 Q1339.0938,1402.25 1337.8906,1401.625 Q1336.9063,1401.125 1336.2188,1400.0625 Q1335.5313,1398.9844 1335.5313,1397.7031 L1335.5313,1396.5469 Q1335.5313,1395.2188 1336.1406,1394.0781 Q1336.7656,1392.9219 1337.8594,1392.3125 Q1338.9531,1391.6875 1340.1875,1391.6875 Q1340.9219,1391.6875 1341.5625,1391.8594 Q1342.2188,1392.0156 1342.7656,1392.375 Z " fill="#000000"/><text fill="#000000" font-family="sans-serif" font-size="14" lengthAdjust="spacing" textLength="52" x="1354" y="1402.2285">Relation</text><line style="stroke:#181818;stroke-width:0.5;" x1="1326" x2="1408" y1="1412.5" y2="1412.5"/><line style="stroke:#181818;stroke-width:0.5;" x1="1326" x2="1408" y1="1420.5" y2="1420.5"/></g><!--class RelationType--><g id="elem_RelationType"><rect codeLine="112" fill="#F1F1F1" height="136.0469" id="RelationType" rx="2.5" ry="2.5" style="stroke:#181818;stroke-width:0.5;" width="116" x="1293" y="1515.5"/><ellipse cx="1308" cy="1531.5" fill="#EB937F" rx="11" ry="11" style="stroke:#181818;stroke-width:1.0;"/><path d="M1306.8594,1532.2969 L1306.8594,1534.7969 L1311.1875,1534.7969 L1311.1875,1533.875 Q1311.1875,1533.2656 1311.4219,1533 Q1311.6719,1532.7344 1312.0469,1532.7344 Q1312.4219,1532.7344 1312.6563,1533 Q1312.8906,1533.2656 1312.8906,1533.875 L1312.8906,1536.5 L1304.8906,1536.5 Q1304.2656,1536.5 1304,1536.2656 Q1303.75,1536.0313 1303.75,1535.6406 Q1303.75,1535.2656 1304.0156,1535.0313 Q1304.2813,1534.7969 1304.8906,1534.7969 L1305.1563,1534.7969 L1305.1563,1528.1406 L1304.8906,1528.1406 Q1304.2656,1528.1406 1304,1527.9063 Q1303.75,1527.6719 1303.75,1527.2813 Q1303.75,1526.9063 1304,1526.6719 Q1304.2656,1526.4375 1304.8906,1526.4375 L1312.5156,1526.4375 L1312.5156,1529.0313 Q1312.5156,1529.6406 1312.2813,1529.9063 Q1312.0625,1530.1563 1311.6719,1530.1563 Q1311.2969,1530.1563 1311.0625,1529.9063 Q1310.8281,1529.6406 1310.8281,1529.0313 L1310.8281,1528.1406 L1306.8594,1528.1406 L1306.8594,1530.5938 L1308.3438,1530.5938 Q1308.3438,1529.9375 1308.4688,1529.75 Q1308.7344,1529.3438 1309.2031,1529.3438 Q1309.5781,1529.3438 1309.8125,1529.6094 Q1310.0469,1529.8594 1310.0469,1530.4688 L1310.0469,1532.4375 Q1310.0469,1532.9844 1309.9219,1533.1719 Q1309.6563,1533.5625 1309.2031,1533.5625 Q1308.7344,1533.5625 1308.4688,1533.1563 Q1308.3438,1532.9688 1308.3438,1532.2969 L1306.8594,1532.2969 Z " fill="#000000"/><text fill="#000000" font-family="sans-serif" font-size="14" lengthAdjust="spacing" textLength="84" x="1322" y="1537.2285">RelationType</text><line style="stroke:#181818;stroke-width:0.5;" x1="1294" x2="1408" y1="1547.5" y2="1547.5"/><text fill="#000000" font-family="sans-serif" font-size="14" lengthAdjust="spacing" textLength="24" x="1299" y="1566.0332">Use</text><text fill="#000000" font-family="sans-serif" font-size="14" lengthAdjust="spacing" textLength="72" x="1299" y="1583.6426">Association</text><text fill="#000000" font-family="sans-serif" font-size="14" lengthAdjust="spacing" textLength="78" x="1299" y="1601.252">Composition</text><text fill="#000000" font-family="sans-serif" font-size="14" lengthAdjust="spacing" textLength="70" x="1299" y="1618.8613">Inheritance</text><text fill="#000000" font-family="sans-serif" font-size="14" lengthAdjust="spacing" textLength="77" x="1299" y="1636.4707">Aggregation</text><line style="stroke:#181818;stroke-width:0.5;" x1="1294" x2="1408" y1="1643.5469" y2="1643.5469"/></g><!--class EducationPlatform--><g id="elem_EducationPlatform"><rect fill="#F1F1F1" height="48" id="EducationPlatform" rx="2.5" ry="2.5" style="stroke:#181818;stroke-width:0.5;" width="147" x="415.5" y="7"/><ellipse cx="430.5" cy="23" fill="#ADD1B2" rx="11" ry="11" style="stroke:#181818;stroke-width:1.0;"/><path d="M433.2656,18.875 Q433.4219,18.6563 433.6094,18.5469 Q433.7969,18.4375 434.0156,18.4375 Q434.3906,18.4375 434.625,18.7031 Q434.8594,18.9531 434.8594,19.5625 L434.8594,21.0156 Q434.8594,21.625 434.625,21.8906 Q434.3906,22.1563 434.0156,22.1563 Q433.6719,22.1563 433.4688,21.9531 Q433.2656,21.7656 433.1563,21.25 Q433.1094,20.8906 432.9219,20.7031 Q432.5938,20.3281 431.9844,20.1094 Q431.375,19.8906 430.75,19.8906 Q429.9844,19.8906 429.3438,20.2188 Q428.7188,20.5469 428.2188,21.2969 Q427.7344,22.0469 427.7344,23.0781 L427.7344,24.1719 Q427.7344,25.4063 428.625,26.2344 Q429.5156,27.0469 431.1094,27.0469 Q432.0469,27.0469 432.7031,26.7969 Q433.0938,26.6406 433.5156,26.2031 Q433.7813,25.9375 433.9219,25.8594 Q434.0781,25.7813 434.2813,25.7813 Q434.6094,25.7813 434.8594,26.0469 Q435.125,26.2969 435.125,26.6406 Q435.125,26.9844 434.7813,27.3906 Q434.2813,27.9688 433.4844,28.2969 Q432.4063,28.75 431.1094,28.75 Q429.5938,28.75 428.3906,28.125 Q427.4063,27.625 426.7188,26.5625 Q426.0313,25.4844 426.0313,24.2031 L426.0313,23.0469 Q426.0313,21.7188 426.6406,20.5781 Q427.2656,19.4219 428.3594,18.8125 Q429.4531,18.1875 430.6875,18.1875 Q431.4219,18.1875 432.0625,18.3594 Q432.7188,18.5156 433.2656,18.875 Z " fill="#000000"/><text fill="#000000" font-family="sans-serif" font-size="14" lengthAdjust="spacing" textLength="115" x="444.5" y="28.7285">EducationPlatform</text><line style="stroke:#181818;stroke-width:0.5;" x1="416.5" x2="561.5" y1="39" y2="39"/><line style="stroke:#181818;stroke-width:0.5;" x1="416.5" x2="561.5" y1="47" y2="47"/></g><!--class User--><g id="elem_User"><rect codeLine="27" fill="#F1F1F1" height="65.6094" id="User" rx="2.5" ry="2.5" style="stroke:#181818;stroke-width:0.5;" width="110" x="441" y="313"/><ellipse cx="477.6" cy="329" fill="#A9DCDF" rx="11" ry="11" style="stroke:#181818;stroke-width:1.0;"/><path d="M479.7875,330.7656 L475.6469,330.7656 L475.225,331.7969 L475.6469,331.7969 Q476.2563,331.7969 476.5219,332.0313 Q476.7875,332.2656 476.7875,332.6563 Q476.7875,333.0313 476.5219,333.2656 Q476.2563,333.5 475.6469,333.5 L473.35,333.5 Q472.7406,333.5 472.4906,333.2656 Q472.225,333.0313 472.225,332.6406 Q472.225,332.2656 472.5063,332.0313 Q472.7719,331.7813 473.3969,331.7969 L476.0688,325.1406 L474.9594,325.1406 Q474.35,325.1406 474.0844,324.9063 Q473.8188,324.6719 473.8188,324.2813 Q473.8188,323.9063 474.0844,323.6719 Q474.35,323.4375 474.9594,323.4375 L478.6313,323.4375 L482.0219,331.7969 Q482.6156,331.7969 482.8031,331.9375 Q483.1938,332.2031 483.1938,332.6563 Q483.1938,333.0313 482.9281,333.2656 Q482.6781,333.5 482.0688,333.5 L479.7719,333.5 Q479.1625,333.5 478.8969,333.2656 Q478.6313,333.0313 478.6313,332.6406 Q478.6313,332.2656 478.8969,332.0313 Q479.1625,331.7969 479.7719,331.7969 L480.1938,331.7969 L479.7875,330.7656 Z M479.0688,329.0625 L477.7094,325.6875 L476.3344,329.0625 L479.0688,329.0625 Z " fill="#000000"/><text fill="#000000" font-family="sans-serif" font-size="14" font-style="italic" lengthAdjust="spacing" textLength="30" x="496.4" y="334.7285">User</text><line style="stroke:#181818;stroke-width:0.5;" x1="442" x2="550" y1="345" y2="345"/><rect fill="none" height="6" style="stroke:#C82930;stroke-width:1.0;" width="6" x="449" y="356.3047"/><text fill="#000000" font-family="sans-serif" font-size="14" lengthAdjust="spacing" textLength="84" x="461" y="363.5332">name : String</text><line style="stroke:#181818;stroke-width:0.5;" x1="442" x2="550" y1="370.6094" y2="370.6094"/></g><!--class Solution--><g id="elem_Solution"><rect codeLine="10" fill="#F1F1F1" height="136.0469" id="Solution" rx="2.5" ry="2.5" style="stroke:#181818;stroke-width:0.5;" width="160" x="542" y="116"/><ellipse cx="592.25" cy="132" fill="#A9DCDF" rx="11" ry="11" style="stroke:#181818;stroke-width:1.0;"/><path d="M594.4375,133.7656 L590.2969,133.7656 L589.875,134.7969 L590.2969,134.7969 Q590.9063,134.7969 591.1719,135.0313 Q591.4375,135.2656 591.4375,135.6563 Q591.4375,136.0313 591.1719,136.2656 Q590.9063,136.5 590.2969,136.5 L588,136.5 Q587.3906,136.5 587.1406,136.2656 Q586.875,136.0313 586.875,135.6406 Q586.875,135.2656 587.1563,135.0313 Q587.4219,134.7813 588.0469,134.7969 L590.7188,128.1406 L589.6094,128.1406 Q589,128.1406 588.7344,127.9063 Q588.4688,127.6719 588.4688,127.2813 Q588.4688,126.9063 588.7344,126.6719 Q589,126.4375 589.6094,126.4375 L593.2813,126.4375 L596.6719,134.7969 Q597.2656,134.7969 597.4531,134.9375 Q597.8438,135.2031 597.8438,135.6563 Q597.8438,136.0313 597.5781,136.2656 Q597.3281,136.5 596.7188,136.5 L594.4219,136.5 Q593.8125,136.5 593.5469,136.2656 Q593.2813,136.0313 593.2813,135.6406 Q593.2813,135.2656 593.5469,135.0313 Q593.8125,134.7969 594.4219,134.7969 L594.8438,134.7969 L594.4375,133.7656 Z M593.7188,132.0625 L592.3594,128.6875 L590.9844,132.0625 L593.7188,132.0625 Z " fill="#000000"/><text fill="#000000" font-family="sans-serif" font-size="14" font-style="italic" lengthAdjust="spacing" textLength="51" x="612.75" y="137.7285">Solution</text><line style="stroke:#181818;stroke-width:0.5;" x1="543" x2="701" y1="148" y2="148"/><rect fill="none" height="6" style="stroke:#C82930;stroke-width:1.0;" width="6" x="550" y="159.3047"/><text fill="#000000" font-family="sans-serif" font-size="14" lengthAdjust="spacing" textLength="107" x="562" y="166.5332">correct : boolean</text><rect fill="none" height="6" style="stroke:#C82930;stroke-width:1.0;" width="6" x="550" y="176.9141"/><text fill="#000000" font-family="sans-serif" font-size="14" lengthAdjust="spacing" textLength="125" x="562" y="184.1426">evaluated : boolean</text><rect fill="none" height="6" style="stroke:#C82930;stroke-width:1.0;" width="6" x="550" y="194.5234"/><text fill="#000000" font-family="sans-serif" font-size="14" lengthAdjust="spacing" textLength="120" x="562" y="201.752">createdDate : Date</text><rect fill="none" height="6" style="stroke:#C82930;stroke-width:1.0;" width="6" x="550" y="212.1328"/><text fill="#000000" font-family="sans-serif" font-size="14" lengthAdjust="spacing" textLength="134" x="562" y="219.3613">evaluatedDate : Date</text><rect fill="none" height="6" style="stroke:#C82930;stroke-width:1.0;" width="6" x="550" y="229.7422"/><text fill="#000000" font-family="sans-serif" font-size="14" lengthAdjust="spacing" textLength="79" x="562" y="236.9707">owner : User</text><line style="stroke:#181818;stroke-width:0.5;" x1="543" x2="701" y1="244.0469" y2="244.0469"/></g><!--class Application--><g id="elem_Application"><rect codeLine="129" fill="#F1F1F1" height="48" id="Application" rx="2.5" ry="2.5" style="stroke:#181818;stroke-width:0.5;" width="101" x="639.5" y="772"/><ellipse cx="654.5" cy="788" fill="#ADD1B2" rx="11" ry="11" style="stroke:#181818;stroke-width:1.0;"/><path d="M657.2656,783.875 Q657.4219,783.6563 657.6094,783.5469 Q657.7969,783.4375 658.0156,783.4375 Q658.3906,783.4375 658.625,783.7031 Q658.8594,783.9531 658.8594,784.5625 L658.8594,786.0156 Q658.8594,786.625 658.625,786.8906 Q658.3906,787.1563 658.0156,787.1563 Q657.6719,787.1563 657.4688,786.9531 Q657.2656,786.7656 657.1563,786.25 Q657.1094,785.8906 656.9219,785.7031 Q656.5938,785.3281 655.9844,785.1094 Q655.375,784.8906 654.75,784.8906 Q653.9844,784.8906 653.3438,785.2188 Q652.7188,785.5469 652.2188,786.2969 Q651.7344,787.0469 651.7344,788.0781 L651.7344,789.1719 Q651.7344,790.4063 652.625,791.2344 Q653.5156,792.0469 655.1094,792.0469 Q656.0469,792.0469 656.7031,791.7969 Q657.0938,791.6406 657.5156,791.2031 Q657.7813,790.9375 657.9219,790.8594 Q658.0781,790.7813 658.2813,790.7813 Q658.6094,790.7813 658.8594,791.0469 Q659.125,791.2969 659.125,791.6406 Q659.125,791.9844 658.7813,792.3906 Q658.2813,792.9688 657.4844,793.2969 Q656.4063,793.75 655.1094,793.75 Q653.5938,793.75 652.3906,793.125 Q651.4063,792.625 650.7188,791.5625 Q650.0313,790.4844 650.0313,789.2031 L650.0313,788.0469 Q650.0313,786.7188 650.6406,785.5781 Q651.2656,784.4219 652.3594,783.8125 Q653.4531,783.1875 654.6875,783.1875 Q655.4219,783.1875 656.0625,783.3594 Q656.7188,783.5156 657.2656,783.875 Z " fill="#000000"/><text fill="#000000" font-family="sans-serif" font-size="14" lengthAdjust="spacing" textLength="69" x="668.5" y="793.7285">Application</text><line style="stroke:#181818;stroke-width:0.5;" x1="640.5" x2="739.5" y1="804" y2="804"/><line style="stroke:#181818;stroke-width:0.5;" x1="640.5" x2="739.5" y1="812" y2="812"/></g><!--class Answer--><g id="elem_Answer"><rect codeLine="22" fill="#F1F1F1" height="65.6094" id="Answer" rx="2.5" ry="2.5" style="stroke:#181818;stroke-width:0.5;" width="122" x="749" y="313"/><ellipse cx="783.8" cy="329" fill="#ADD1B2" rx="11" ry="11" style="stroke:#181818;stroke-width:1.0;"/><path d="M786.5656,324.875 Q786.7219,324.6563 786.9094,324.5469 Q787.0969,324.4375 787.3156,324.4375 Q787.6906,324.4375 787.925,324.7031 Q788.1594,324.9531 788.1594,325.5625 L788.1594,327.0156 Q788.1594,327.625 787.925,327.8906 Q787.6906,328.1563 787.3156,328.1563 Q786.9719,328.1563 786.7688,327.9531 Q786.5656,327.7656 786.4563,327.25 Q786.4094,326.8906 786.2219,326.7031 Q785.8938,326.3281 785.2844,326.1094 Q784.675,325.8906 784.05,325.8906 Q783.2844,325.8906 782.6438,326.2188 Q782.0188,326.5469 781.5188,327.2969 Q781.0344,328.0469 781.0344,329.0781 L781.0344,330.1719 Q781.0344,331.4063 781.925,332.2344 Q782.8156,333.0469 784.4094,333.0469 Q785.3469,333.0469 786.0031,332.7969 Q786.3938,332.6406 786.8156,332.2031 Q787.0813,331.9375 787.2219,331.8594 Q787.3781,331.7813 787.5813,331.7813 Q787.9094,331.7813 788.1594,332.0469 Q788.425,332.2969 788.425,332.6406 Q788.425,332.9844 788.0813,333.3906 Q787.5813,333.9688 786.7844,334.2969 Q785.7063,334.75 784.4094,334.75 Q782.8938,334.75 781.6906,334.125 Q780.7063,333.625 780.0188,332.5625 Q779.3313,331.4844 779.3313,330.2031 L779.3313,329.0469 Q779.3313,327.7188 779.9406,326.5781 Q780.5656,325.4219 781.6594,324.8125 Q782.7531,324.1875 783.9875,324.1875 Q784.7219,324.1875 785.3625,324.3594 Q786.0188,324.5156 786.5656,324.875 Z " fill="#000000"/><text fill="#000000" font-family="sans-serif" font-size="14" lengthAdjust="spacing" textLength="46" x="802.2" y="334.7285">Answer</text><line style="stroke:#181818;stroke-width:0.5;" x1="750" x2="870" y1="345" y2="345"/><rect fill="none" height="6" style="stroke:#C82930;stroke-width:1.0;" width="6" x="757" y="356.3047"/><text fill="#000000" font-family="sans-serif" font-size="14" lengthAdjust="spacing" textLength="96" x="769" y="363.5332">content : String</text><line style="stroke:#181818;stroke-width:0.5;" x1="750" x2="870" y1="370.6094" y2="370.6094"/></g><!--class Justification--><g id="elem_Justification"><rect codeLine="48" fill="#F1F1F1" height="65.6094" id="Justification" rx="2.5" ry="2.5" style="stroke:#181818;stroke-width:0.5;" width="122" x="681" y="1550.5"/><ellipse cx="703.65" cy="1566.5" fill="#ADD1B2" rx="11" ry="11" style="stroke:#181818;stroke-width:1.0;"/><path d="M706.4156,1562.375 Q706.5719,1562.1563 706.7594,1562.0469 Q706.9469,1561.9375 707.1656,1561.9375 Q707.5406,1561.9375 707.775,1562.2031 Q708.0094,1562.4531 708.0094,1563.0625 L708.0094,1564.5156 Q708.0094,1565.125 707.775,1565.3906 Q707.5406,1565.6563 707.1656,1565.6563 Q706.8219,1565.6563 706.6188,1565.4531 Q706.4156,1565.2656 706.3063,1564.75 Q706.2594,1564.3906 706.0719,1564.2031 Q705.7438,1563.8281 705.1344,1563.6094 Q704.525,1563.3906 703.9,1563.3906 Q703.1344,1563.3906 702.4938,1563.7188 Q701.8688,1564.0469 701.3688,1564.7969 Q700.8844,1565.5469 700.8844,1566.5781 L700.8844,1567.6719 Q700.8844,1568.9063 701.775,1569.7344 Q702.6656,1570.5469 704.2594,1570.5469 Q705.1969,1570.5469 705.8531,1570.2969 Q706.2438,1570.1406 706.6656,1569.7031 Q706.9313,1569.4375 707.0719,1569.3594 Q707.2281,1569.2813 707.4313,1569.2813 Q707.7594,1569.2813 708.0094,1569.5469 Q708.275,1569.7969 708.275,1570.1406 Q708.275,1570.4844 707.9313,1570.8906 Q707.4313,1571.4688 706.6344,1571.7969 Q705.5563,1572.25 704.2594,1572.25 Q702.7438,1572.25 701.5406,1571.625 Q700.5563,1571.125 699.8688,1570.0625 Q699.1813,1568.9844 699.1813,1567.7031 L699.1813,1566.5469 Q699.1813,1565.2188 699.7906,1564.0781 Q700.4156,1562.9219 701.5094,1562.3125 Q702.6031,1561.6875 703.8375,1561.6875 Q704.5719,1561.6875 705.2125,1561.8594 Q705.8688,1562.0156 706.4156,1562.375 Z " fill="#000000"/><text fill="#000000" font-family="sans-serif" font-size="14" lengthAdjust="spacing" textLength="73" x="719.35" y="1572.2285">Justification</text><line style="stroke:#181818;stroke-width:0.5;" x1="682" x2="802" y1="1582.5" y2="1582.5"/><rect fill="none" height="6" style="stroke:#C82930;stroke-width:1.0;" width="6" x="689" y="1593.8047"/><text fill="#000000" font-family="sans-serif" font-size="14" lengthAdjust="spacing" textLength="96" x="701" y="1601.0332">content : String</text><line style="stroke:#181818;stroke-width:0.5;" x1="682" x2="802" y1="1608.1094" y2="1608.1094"/></g><!--class Teacher--><g id="elem_Teacher"><rect codeLine="33" fill="#F1F1F1" height="48" id="Teacher" rx="2.5" ry="2.5" style="stroke:#181818;stroke-width:0.5;" width="85" x="477.5" y="488"/><ellipse cx="492.5" cy="504" fill="#ADD1B2" rx="11" ry="11" style="stroke:#181818;stroke-width:1.0;"/><path d="M495.2656,499.875 Q495.4219,499.6563 495.6094,499.5469 Q495.7969,499.4375 496.0156,499.4375 Q496.3906,499.4375 496.625,499.7031 Q496.8594,499.9531 496.8594,500.5625 L496.8594,502.0156 Q496.8594,502.625 496.625,502.8906 Q496.3906,503.1563 496.0156,503.1563 Q495.6719,503.1563 495.4688,502.9531 Q495.2656,502.7656 495.1563,502.25 Q495.1094,501.8906 494.9219,501.7031 Q494.5938,501.3281 493.9844,501.1094 Q493.375,500.8906 492.75,500.8906 Q491.9844,500.8906 491.3438,501.2188 Q490.7188,501.5469 490.2188,502.2969 Q489.7344,503.0469 489.7344,504.0781 L489.7344,505.1719 Q489.7344,506.4063 490.625,507.2344 Q491.5156,508.0469 493.1094,508.0469 Q494.0469,508.0469 494.7031,507.7969 Q495.0938,507.6406 495.5156,507.2031 Q495.7813,506.9375 495.9219,506.8594 Q496.0781,506.7813 496.2813,506.7813 Q496.6094,506.7813 496.8594,507.0469 Q497.125,507.2969 497.125,507.6406 Q497.125,507.9844 496.7813,508.3906 Q496.2813,508.9688 495.4844,509.2969 Q494.4063,509.75 493.1094,509.75 Q491.5938,509.75 490.3906,509.125 Q489.4063,508.625 488.7188,507.5625 Q488.0313,506.4844 488.0313,505.2031 L488.0313,504.0469 Q488.0313,502.7188 488.6406,501.5781 Q489.2656,500.4219 490.3594,499.8125 Q491.4531,499.1875 492.6875,499.1875 Q493.4219,499.1875 494.0625,499.3594 Q494.7188,499.5156 495.2656,499.875 Z " fill="#000000"/><text fill="#000000" font-family="sans-serif" font-size="14" lengthAdjust="spacing" textLength="53" x="506.5" y="509.7285">Teacher</text><line style="stroke:#181818;stroke-width:0.5;" x1="478.5" x2="561.5" y1="520" y2="520"/><line style="stroke:#181818;stroke-width:0.5;" x1="478.5" x2="561.5" y1="528" y2="528"/></g><!--class Student--><g id="elem_Student"><rect codeLine="37" fill="#F1F1F1" height="48" id="Student" rx="2.5" ry="2.5" style="stroke:#181818;stroke-width:0.5;" width="81" x="361.5" y="488"/><ellipse cx="376.5" cy="504" fill="#ADD1B2" rx="11" ry="11" style="stroke:#181818;stroke-width:1.0;"/><path d="M379.2656,499.875 Q379.4219,499.6563 379.6094,499.5469 Q379.7969,499.4375 380.0156,499.4375 Q380.3906,499.4375 380.625,499.7031 Q380.8594,499.9531 380.8594,500.5625 L380.8594,502.0156 Q380.8594,502.625 380.625,502.8906 Q380.3906,503.1563 380.0156,503.1563 Q379.6719,503.1563 379.4688,502.9531 Q379.2656,502.7656 379.1563,502.25 Q379.1094,501.8906 378.9219,501.7031 Q378.5938,501.3281 377.9844,501.1094 Q377.375,500.8906 376.75,500.8906 Q375.9844,500.8906 375.3438,501.2188 Q374.7188,501.5469 374.2188,502.2969 Q373.7344,503.0469 373.7344,504.0781 L373.7344,505.1719 Q373.7344,506.4063 374.625,507.2344 Q375.5156,508.0469 377.1094,508.0469 Q378.0469,508.0469 378.7031,507.7969 Q379.0938,507.6406 379.5156,507.2031 Q379.7813,506.9375 379.9219,506.8594 Q380.0781,506.7813 380.2813,506.7813 Q380.6094,506.7813 380.8594,507.0469 Q381.125,507.2969 381.125,507.6406 Q381.125,507.9844 380.7813,508.3906 Q380.2813,508.9688 379.4844,509.2969 Q378.4063,509.75 377.1094,509.75 Q375.5938,509.75 374.3906,509.125 Q373.4063,508.625 372.7188,507.5625 Q372.0313,506.4844 372.0313,505.2031 L372.0313,504.0469 Q372.0313,502.7188 372.6406,501.5781 Q373.2656,500.4219 374.3594,499.8125 Q375.4531,499.1875 376.6875,499.1875 Q377.4219,499.1875 378.0625,499.3594 Q378.7188,499.5156 379.2656,499.875 Z " fill="#000000"/><text fill="#000000" font-family="sans-serif" font-size="14" lengthAdjust="spacing" textLength="49" x="390.5" y="509.7285">Student</text><line style="stroke:#181818;stroke-width:0.5;" x1="362.5" x2="441.5" y1="520" y2="520"/><line style="stroke:#181818;stroke-width:0.5;" x1="362.5" x2="441.5" y1="528" y2="528"/></g><!--class Progress--><g id="elem_Progress"><rect codeLine="42" fill="#F1F1F1" height="83.2188" id="Progress" rx="2.5" ry="2.5" style="stroke:#181818;stroke-width:0.5;" width="218" x="345" y="606"/><ellipse cx="421.25" cy="622" fill="#ADD1B2" rx="11" ry="11" style="stroke:#181818;stroke-width:1.0;"/><path d="M424.0156,617.875 Q424.1719,617.6563 424.3594,617.5469 Q424.5469,617.4375 424.7656,617.4375 Q425.1406,617.4375 425.375,617.7031 Q425.6094,617.9531 425.6094,618.5625 L425.6094,620.0156 Q425.6094,620.625 425.375,620.8906 Q425.1406,621.1563 424.7656,621.1563 Q424.4219,621.1563 424.2188,620.9531 Q424.0156,620.7656 423.9063,620.25 Q423.8594,619.8906 423.6719,619.7031 Q423.3438,619.3281 422.7344,619.1094 Q422.125,618.8906 421.5,618.8906 Q420.7344,618.8906 420.0938,619.2188 Q419.4688,619.5469 418.9688,620.2969 Q418.4844,621.0469 418.4844,622.0781 L418.4844,623.1719 Q418.4844,624.4063 419.375,625.2344 Q420.2656,626.0469 421.8594,626.0469 Q422.7969,626.0469 423.4531,625.7969 Q423.8438,625.6406 424.2656,625.2031 Q424.5313,624.9375 424.6719,624.8594 Q424.8281,624.7813 425.0313,624.7813 Q425.3594,624.7813 425.6094,625.0469 Q425.875,625.2969 425.875,625.6406 Q425.875,625.9844 425.5313,626.3906 Q425.0313,626.9688 424.2344,627.2969 Q423.1563,627.75 421.8594,627.75 Q420.3438,627.75 419.1406,627.125 Q418.1563,626.625 417.4688,625.5625 Q416.7813,624.4844 416.7813,623.2031 L416.7813,622.0469 Q416.7813,620.7188 417.3906,619.5781 Q418.0156,618.4219 419.1094,617.8125 Q420.2031,617.1875 421.4375,617.1875 Q422.1719,617.1875 422.8125,617.3594 Q423.4688,617.5156 424.0156,617.875 Z " fill="#000000"/><text fill="#000000" font-family="sans-serif" font-size="14" lengthAdjust="spacing" textLength="57" x="441.75" y="627.7285">Progress</text><line style="stroke:#181818;stroke-width:0.5;" x1="346" x2="562" y1="638" y2="638"/><rect fill="none" height="6" style="stroke:#C82930;stroke-width:1.0;" width="6" x="353" y="649.3047"/><text fill="#000000" font-family="sans-serif" font-size="14" lengthAdjust="spacing" textLength="120" x="365" y="656.5332">elapsedTime: Time</text><rect fill="none" height="6" style="stroke:#C82930;stroke-width:1.0;" width="6" x="353" y="666.9141"/><text fill="#000000" font-family="sans-serif" font-size="14" lengthAdjust="spacing" textLength="192" x="365" y="674.1426">percentageCompleted: Integer</text><line style="stroke:#181818;stroke-width:0.5;" x1="346" x2="562" y1="681.2188" y2="681.2188"/></g><!--class Domain--><g id="elem_Domain"><rect codeLine="122" fill="#F1F1F1" height="83.2188" id="Domain" rx="2.5" ry="2.5" style="stroke:#181818;stroke-width:0.5;" width="140" x="615" y="898"/><ellipse cx="657" cy="914" fill="#ADD1B2" rx="11" ry="11" style="stroke:#181818;stroke-width:1.0;"/><path d="M659.7656,909.875 Q659.9219,909.6563 660.1094,909.5469 Q660.2969,909.4375 660.5156,909.4375 Q660.8906,909.4375 661.125,909.7031 Q661.3594,909.9531 661.3594,910.5625 L661.3594,912.0156 Q661.3594,912.625 661.125,912.8906 Q660.8906,913.1563 660.5156,913.1563 Q660.1719,913.1563 659.9688,912.9531 Q659.7656,912.7656 659.6563,912.25 Q659.6094,911.8906 659.4219,911.7031 Q659.0938,911.3281 658.4844,911.1094 Q657.875,910.8906 657.25,910.8906 Q656.4844,910.8906 655.8438,911.2188 Q655.2188,911.5469 654.7188,912.2969 Q654.2344,913.0469 654.2344,914.0781 L654.2344,915.1719 Q654.2344,916.4063 655.125,917.2344 Q656.0156,918.0469 657.6094,918.0469 Q658.5469,918.0469 659.2031,917.7969 Q659.5938,917.6406 660.0156,917.2031 Q660.2813,916.9375 660.4219,916.8594 Q660.5781,916.7813 660.7813,916.7813 Q661.1094,916.7813 661.3594,917.0469 Q661.625,917.2969 661.625,917.6406 Q661.625,917.9844 661.2813,918.3906 Q660.7813,918.9688 659.9844,919.2969 Q658.9063,919.75 657.6094,919.75 Q656.0938,919.75 654.8906,919.125 Q653.9063,918.625 653.2188,917.5625 Q652.5313,916.4844 652.5313,915.2031 L652.5313,914.0469 Q652.5313,912.7188 653.1406,911.5781 Q653.7656,910.4219 654.8594,909.8125 Q655.9531,909.1875 657.1875,909.1875 Q657.9219,909.1875 658.5625,909.3594 Q659.2188,909.5156 659.7656,909.875 Z " fill="#000000"/><text fill="#000000" font-family="sans-serif" font-size="14" lengthAdjust="spacing" textLength="48" x="677" y="919.7285">Domain</text><line style="stroke:#181818;stroke-width:0.5;" x1="616" x2="754" y1="930" y2="930"/><rect fill="none" height="6" style="stroke:#C82930;stroke-width:1.0;" width="6" x="623" y="941.3047"/><text fill="#000000" font-family="sans-serif" font-size="14" lengthAdjust="spacing" textLength="106" x="635" y="948.5332">version : Version</text><rect fill="none" height="6" style="stroke:#C82930;stroke-width:1.0;" width="6" x="623" y="958.9141"/><text fill="#000000" font-family="sans-serif" font-size="14" lengthAdjust="spacing" textLength="114" x="635" y="966.1426">description: String</text><line style="stroke:#181818;stroke-width:0.5;" x1="616" x2="754" y1="973.2188" y2="973.2188"/></g><!--link EducationPlatform to User--><g id="link_EducationPlatform_User"><path codeLine="2" d="M489.7802,67.017 C491.0202,122.077 493.7255,243.5115 495.1455,306.8315 " fill="none" id="EducationPlatform-User" style="stroke:#008000;stroke-width:1.0;"/><polygon fill="#008000" points="489.51,55.02,485.6461,61.1085,489.7802,67.017,493.6441,60.9284,489.51,55.02" style="stroke:#008000;stroke-width:1.0;"/><polygon fill="#008000" points="495.28,312.83,499.0772,303.7426,495.1679,307.8313,491.0792,303.9219,495.28,312.83" style="stroke:#008000;stroke-width:1.0;"/><text fill="#000000" font-family="sans-serif" font-size="13" lengthAdjust="spacing" textLength="8" x="486.3065" y="301.9103">+</text></g><!--link EducationPlatform to Topic--><g id="link_EducationPlatform_Topic"><path codeLine="3" d="M403.4642,34.2216 C303.7642,40.5616 150,67.67 150,183 C150,183 150,183 150,797 C150,857.3 209.7405,898.3455 251.1605,920.1455 " fill="none" id="EducationPlatform-Topic" style="stroke:#008000;stroke-width:1.0;"/><polygon fill="#008000" points="415.44,33.46,409.1982,29.8488,403.4642,34.2216,409.7059,37.8327,415.44,33.46" style="stroke:#008000;stroke-width:1.0;"/><polygon fill="#008000" points="256.47,922.94,250.3687,915.2086,252.0454,920.6113,246.6428,922.288,256.47,922.94" style="stroke:#008000;stroke-width:1.0;"/></g><!--link EducationPlatform to Itinerary--><g id="link_EducationPlatform_Itinerary"><path codeLine="4" d="M403.6156,43.732 C324.2756,58.612 221,93.41 221,183 C221,183 221,183 221,648.5 C221,695.98 247.9413,739.4692 268.9613,767.0292 " fill="none" id="EducationPlatform-Itinerary" style="stroke:#008000;stroke-width:1.0;"/><polygon fill="#008000" points="415.41,41.52,408.7755,38.6945,403.6156,43.732,410.2502,46.5575,415.41,41.52" style="stroke:#008000;stroke-width:1.0;"/><polygon fill="#008000" points="272.6,771.8,270.3225,762.2181,269.5678,767.8244,263.9615,767.0696,272.6,771.8" style="stroke:#008000;stroke-width:1.0;"/><text fill="#000000" font-family="sans-serif" font-size="13" lengthAdjust="spacing" textLength="59" x="222" y="423.4951">predefined</text></g><!--link EducationPlatform to Itinerary--><g id="link_EducationPlatform_Itinerary"><path codeLine="5" d="M474.0298,66.1168 C447.5898,126.9968 381.07,286.38 344,435 C312.83,559.99 298.7989,708.3991 294.1889,765.9691 " fill="none" id="EducationPlatform-Itinerary-1" style="stroke:#008000;stroke-width:1.0;"/><polygon fill="none" points="478.81,55.11,472.751,59.02,474.0298,66.1168,480.0888,62.2068,478.81,55.11" style="stroke:#008000;stroke-width:1.0;"/><polygon fill="#008000" points="293.71,771.95,298.4156,763.298,294.1091,766.966,290.4412,762.6594,293.71,771.95" style="stroke:#008000;stroke-width:1.0;"/><text fill="#000000" font-family="sans-serif" font-size="13" lengthAdjust="spacing" textLength="43" x="351" y="423.4951">custom</text><text fill="#000000" font-family="sans-serif" font-size="13" lengthAdjust="spacing" textLength="5" x="288.5076" y="761.2773">*</text></g><!--link EducationPlatform to Question--><g id="link_EducationPlatform_Question"><path codeLine="6" d="M574.3252,51.6046 C622.0952,64.6646 672.45,83.1 720,116 C814.87,181.64 828.41,214.83 889,313 C922.67,367.55 946.6895,432.4823 960.0495,472.9623 " fill="none" id="EducationPlatform-Question" style="stroke:#008000;stroke-width:1.0;"/><polygon fill="#008000" points="562.75,48.44,567.4827,53.8807,574.3252,51.6046,569.5925,46.1639,562.75,48.44" style="stroke:#008000;stroke-width:1.0;"/><polygon fill="#008000" points="961.93,478.66,962.9078,468.8598,960.3629,473.9119,955.3108,471.3671,961.93,478.66" style="stroke:#008000;stroke-width:1.0;"/><text fill="#000000" font-family="sans-serif" font-size="13" lengthAdjust="spacing" textLength="5" x="954.4553" y="468.0894">*</text></g><!--link EducationPlatform to Solution--><g id="link_EducationPlatform_Solution"><path codeLine="7" d="M517.4194,64.2669 C531.7694,80.5669 539.8443,89.7274 558.9743,111.4474 " fill="none" id="EducationPlatform-Solution" style="stroke:#008000;stroke-width:1.0;"/><polygon fill="#008000" points="509.49,55.26,510.4524,62.4066,517.4194,64.2669,516.457,57.1203,509.49,55.26" style="stroke:#008000;stroke-width:1.0;"/><polygon fill="#008000" points="562.94,115.95,559.9932,106.5523,559.6353,112.1978,553.9897,111.8399,562.94,115.95" style="stroke:#008000;stroke-width:1.0;"/><text fill="#000000" font-family="sans-serif" font-size="13" lengthAdjust="spacing" textLength="5" x="551.2069" y="105.1438">*</text></g><!--link EducationPlatform to Corpus--><g id="link_EducationPlatform_Corpus"><path codeLine="8" d="M574.7681,37.9251 C784.8381,53.2851 1359,102.47 1359,183 C1359,183 1359,183 1359,940.5 C1359,984.24 1363.2656,1029.168 1366.5256,1057.988 " fill="none" id="EducationPlatform-Corpus" style="stroke:#008000;stroke-width:1.0;"/><polygon fill="#008000" points="562.8,37.05,568.4923,41.4769,574.7681,37.9251,569.0757,33.4982,562.8,37.05" style="stroke:#008000;stroke-width:1.0;"/><polygon fill="#008000" points="1367.2,1063.95,1370.1631,1054.5574,1366.638,1058.9817,1362.2138,1055.4566,1367.2,1063.95" style="stroke:#008000;stroke-width:1.0;"/></g><!--reverse link Solution to Application--><g id="link_Solution_Application"><path codeLine="17" d="M671.0501,268.4474 C684.3901,296.1474 688,313 688,345 C688,345 688,345 688,648.5 C688,692.12 688.9,743.05 689.49,771.91 " fill="none" id="Solution-backto-Application" style="stroke:#181818;stroke-width:1.0;"/><polygon fill="none" points="663.24,252.23,665.6443,271.0507,676.4559,265.844,663.24,252.23" style="stroke:#181818;stroke-width:1.0;"/></g><!--reverse link Solution to Answer--><g id="link_Solution_Answer"><path codeLine="18" d="M714.6172,263.8267 C739.3372,284.8667 751.78,295.45 772.28,312.9 " fill="none" id="Solution-backto-Answer" style="stroke:#181818;stroke-width:1.0;"/><polygon fill="none" points="700.91,252.16,710.7283,268.3958,718.5061,259.2576,700.91,252.16" style="stroke:#181818;stroke-width:1.0;"/></g><!--link Solution to User--><g id="link_Solution_User"><path codeLine="19" d="M568.93,252.39 C552.38,273.4 538.6117,290.8859 524.9117,308.2859 " fill="none" id="Solution-to-User" style="stroke:#181818;stroke-width:1.0;"/><polygon fill="#181818" points="521.2,313,529.9103,308.4033,524.2931,309.0715,523.6248,303.4543,521.2,313" style="stroke:#181818;stroke-width:1.0;"/></g><!--link Solution to Justification--><g id="link_Solution_Justification"><path codeLine="20" d="M617.8255,264.3085 C616.5755,292.8785 616,314.56 616,345 C616,345 616,345 616,576 C616,770.82 562,816.18 562,1011 C562,1011 562,1011 562,1405.5 C562,1473.76 623.3962,1521.5462 675.5762,1550.7962 " fill="none" id="Solution-Justification" style="stroke:#181818;stroke-width:1.0;"/><polygon fill="#181818" points="618.35,252.32,614.0916,258.1394,617.8255,264.3085,622.0839,258.4891,618.35,252.32" style="stroke:#181818;stroke-width:1.0;"/><polygon fill="#181818" points="680.81,1553.73,674.9152,1545.84,676.4485,1551.2851,671.0034,1552.8184,680.81,1553.73" style="stroke:#181818;stroke-width:1.0;"/><text fill="#000000" font-family="sans-serif" font-size="13" lengthAdjust="spacing" textLength="100" x="577" y="864.4951">[!solution.correct]</text><text fill="#000000" font-family="sans-serif" font-size="13" lengthAdjust="spacing" textLength="5" x="668.0478" y="1546.6671">*</text></g><!--link Answer to Question--><g id="link_Answer_Question"><path codeLine="25" d="M841.62,379.01 C870.07,407.81 907.4533,445.6616 935.9633,474.5216 " fill="none" id="Answer-to-Question" style="stroke:#181818;stroke-width:1.0;"/><polygon fill="#181818" points="940.18,478.79,936.7006,469.5762,936.6661,475.233,931.0094,475.1985,940.18,478.79" style="stroke:#181818;stroke-width:1.0;"/></g><!--reverse link User to Teacher--><g id="link_User_Teacher"><path codeLine="30" d="M503.2872,396.8202 C507.9672,428.7902 512.44,459.35 516.61,487.8 " fill="none" id="User-backto-Teacher" style="stroke:#181818;stroke-width:1.0;"/><polygon fill="none" points="500.68,379.01,497.3505,397.6892,509.2239,395.9511,500.68,379.01" style="stroke:#181818;stroke-width:1.0;"/></g><!--reverse link User to Student--><g id="link_User_Student"><path codeLine="31" d="M468.7006,394.6275 C450.3806,426.5975 431.6,459.35 415.3,487.8 " fill="none" id="User-backto-Student" style="stroke:#181818;stroke-width:1.0;"/><polygon fill="none" points="477.65,379.01,463.4947,391.6444,473.9064,397.6107,477.65,379.01" style="stroke:#181818;stroke-width:1.0;"/></g><!--link Student to Progress--><g id="link_Student_Progress"><path codeLine="40" d="M415.4161,547.4314 C422.8961,566.6314 427.1528,577.5689 436.0428,600.3989 " fill="none" id="Student-Progress" style="stroke:#181818;stroke-width:1.0;"/><polygon fill="none" points="411.06,536.25,409.5109,543.2927,415.4161,547.4314,416.9652,540.3887,411.06,536.25" style="stroke:#181818;stroke-width:1.0;"/><polygon fill="#181818" points="438.22,605.99,438.6816,596.152,436.4057,601.3308,431.2269,599.0548,438.22,605.99" style="stroke:#181818;stroke-width:1.0;"/><text fill="#000000" font-family="sans-serif" font-size="13" lengthAdjust="spacing" textLength="5" x="430.1924" y="595.296">*</text></g><!--link Progress to Itinerary--><g id="link_Progress_Itinerary"><path codeLine="46" d="M408.87,689.31 C379.48,715.89 346.6302,745.5957 322.1802,767.7057 " fill="none" id="Progress-to-Itinerary" style="stroke:#181818;stroke-width:1.0;"/><polygon fill="#181818" points="317.73,771.73,327.0883,768.6603,321.4385,768.3764,321.7225,762.7267,317.73,771.73" style="stroke:#181818;stroke-width:1.0;"/></g><!--link Itinerary to Topic--><g id="link_Itinerary_Topic"><path codeLine="57" d="M291.5013,832.0488 C291.1313,858.3588 290.7844,883.1506 290.4144,909.4606 " fill="none" id="Itinerary-Topic" style="stroke:#181818;stroke-width:1.0;"/><polygon fill="none" points="291.67,820.05,287.586,825.9932,291.5013,832.0488,295.5852,826.1057,291.67,820.05" style="stroke:#181818;stroke-width:1.0;"/><polygon fill="#181818" points="290.33,915.46,294.4562,906.5171,290.4003,910.4605,286.457,906.4046,290.33,915.46" style="stroke:#181818;stroke-width:1.0;"/><text fill="#000000" font-family="sans-serif" font-size="13" lengthAdjust="spacing" textLength="8" x="281.3896" y="904.7899">+</text></g><!--reverse link Topic to CompositeTopic--><g id="link_Topic_CompositeTopic"><path codeLine="61" d="M277.6714,981.5035 C273.9114,1006.1135 276.25,1027.36 279.24,1054.91 " fill="none" id="Topic-backto-CompositeTopic" style="stroke:#181818;stroke-width:1.0;"/><polygon fill="none" points="280.39,963.71,271.7403,980.5973,283.6026,982.4097,280.39,963.71" style="stroke:#181818;stroke-width:1.0;"/></g><!--link CompositeTopic to Topic--><g id="link_CompositeTopic_Topic"><path codeLine="87" d="M302.7617,1042.9887 C305.9317,1015.4387 305.1179,994.243 301.1379,969.633 " fill="none" id="CompositeTopic-Topic" style="stroke:#181818;stroke-width:1.0;"/><polygon fill="none" points="301.39,1054.91,306.0496,1049.4066,302.7617,1042.9887,298.1021,1048.4921,301.39,1054.91" style="stroke:#181818;stroke-width:1.0;"/><polygon fill="#181818" points="300.18,963.71,297.6681,973.2332,300.9782,968.6459,305.5655,971.956,300.18,963.71" style="stroke:#181818;stroke-width:1.0;"/><text fill="#000000" font-family="sans-serif" font-size="13" lengthAdjust="spacing" textLength="8" x="293.6864" y="985.0992">+</text></g><!--reverse link Topic to SimpleTopic--><g id="link_Topic_SimpleTopic"><path codeLine="62" d="M328.0369,975.994 C357.4269,1003.434 392.89,1036.51 422.24,1063.9 " fill="none" id="Topic-backto-SimpleTopic" style="stroke:#181818;stroke-width:1.0;"/><polygon fill="none" points="314.88,963.71,323.9423,980.3796,332.1316,971.6083,314.88,963.71" style="stroke:#181818;stroke-width:1.0;"/></g><!--link Topic to Document--><g id="link_Topic_Document"><path codeLine="63" d="M251.2827,971.16 C223.2627,993.35 194.5336,1016.0949 160.8836,1042.7449 " fill="none" id="Topic-Document" style="stroke:#181818;stroke-width:1.0;"/><polygon fill="#181818" points="260.69,963.71,253.503,964.2992,251.2827,971.16,258.4697,970.5708,260.69,963.71" style="stroke:#181818;stroke-width:1.0;"/><polygon fill="#181818" points="156.18,1046.47,165.7188,1044.018,160.0996,1043.3657,160.7519,1037.7466,156.18,1046.47" style="stroke:#181818;stroke-width:1.0;"/><text fill="#000000" font-family="sans-serif" font-size="13" lengthAdjust="spacing" textLength="5" x="159.2426" y="1035.7727">*</text></g><!--link Document to DocumentType--><g id="link_Document_DocumentType"><path codeLine="73" d="M105.81,1129.86 C106.18,1148.55 106.5109,1164.8612 106.9009,1184.5012 " fill="none" id="Document-to-DocumentType" style="stroke:#181818;stroke-width:1.0;"/><polygon fill="#181818" points="107.02,1190.5,110.8405,1181.4224,106.9207,1185.501,102.8421,1181.5812,107.02,1190.5" style="stroke:#181818;stroke-width:1.0;"/></g><!--link SimpleTopic to Concept--><g id="link_SimpleTopic_Concept"><path codeLine="83" d="M513.4676,1101.0501 C664.3076,1128.3901 1067.5562,1201.4897 1218.9662,1228.9397 " fill="none" id="SimpleTopic-Concept" style="stroke:#181818;stroke-width:1.0;"/><polygon fill="none" points="501.66,1098.91,506.8504,1103.9159,513.4676,1101.0501,508.2772,1096.0442,501.66,1098.91" style="stroke:#181818;stroke-width:1.0;"/><polygon fill="#181818" points="1224.87,1230.01,1216.7279,1224.4687,1219.9502,1229.1181,1215.3008,1232.3404,1224.87,1230.01" style="stroke:#181818;stroke-width:1.0;"/><text fill="#000000" font-family="sans-serif" font-size="13" lengthAdjust="spacing" textLength="8" x="1208.9244" y="1225.0032">+</text></g><!--reverse link Corpus to Concept--><g id="link_Corpus_Concept"><path codeLine="94" d="M1349.9893,1122.5698 C1334.7593,1148.1398 1316.32,1179.06 1299.23,1207.74 " fill="none" id="Corpus-backto-Concept" style="stroke:#181818;stroke-width:1.0;"/><polygon fill="#181818" points="1356.13,1112.26,1349.623,1115.368,1349.9893,1122.5698,1356.4962,1119.4618,1356.13,1112.26" style="stroke:#181818;stroke-width:1.0;"/><text fill="#000000" font-family="sans-serif" font-size="13" lengthAdjust="spacing" textLength="8" x="1294.2284" y="1197.1851">+</text></g><!--link Concept to Definition--><g id="link_Concept_Definition"><path codeLine="99" d="M1257.1098,1284.9112 C1249.6798,1299.6212 1246.81,1306.75 1241,1323.5 C1235.68,1338.83 1232.7144,1350.4881 1229.7444,1365.2381 " fill="none" id="Concept-Definition" style="stroke:#181818;stroke-width:1.0;"/><polygon fill="#181818" points="1262.52,1274.2,1256.2445,1277.7522,1257.1098,1284.9112,1263.3853,1281.359,1262.52,1274.2" style="stroke:#181818;stroke-width:1.0;"/><polygon fill="#181818" points="1228.56,1371.12,1234.2578,1363.0867,1229.547,1366.2184,1226.4153,1361.5075,1228.56,1371.12" style="stroke:#181818;stroke-width:1.0;"/><text fill="#000000" font-family="sans-serif" font-size="13" lengthAdjust="spacing" textLength="8" x="1220.8671" y="1360.5415">+</text></g><!--link Concept to Relation--><g id="link_Concept_Relation"><path codeLine="100" d="M1276.2882,1286.3139 C1275.6382,1306.7339 1277.97,1321.04 1289,1341.5 C1297.46,1357.18 1306.8628,1366.7853 1320.9028,1376.8453 " fill="none" id="Concept-Relation" style="stroke:#181818;stroke-width:1.0;"/><polygon fill="#181818" points="1276.67,1274.32,1272.4811,1280.1897,1276.2882,1286.3139,1280.4771,1280.4442,1276.67,1274.32" style="stroke:#181818;stroke-width:1.0;"/><polygon fill="#181818" points="1325.78,1380.34,1320.7939,1371.8465,1321.7156,1377.4278,1316.1344,1378.3495,1325.78,1380.34" style="stroke:#181818;stroke-width:1.0;"/><text fill="#000000" font-family="sans-serif" font-size="13" lengthAdjust="spacing" textLength="31" x="1290" y="1337.9951">origin</text><text fill="#000000" font-family="sans-serif" font-size="13" lengthAdjust="spacing" textLength="5" x="1311.7627" y="1371.2384">*</text></g><!--link Relation to Concept--><g id="link_Relation_Concept"><path codeLine="109" d="M1355.4,1380.27 C1347.32,1364.23 1336.21,1342.47 1326,1323.5 C1317.22,1307.19 1310.1093,1294.4538 1301.6293,1279.5638 " fill="none" id="Relation-to-Concept" style="stroke:#181818;stroke-width:1.0;"/><polygon fill="#181818" points="1298.66,1274.35,1299.6381,1284.1502,1301.1344,1278.6948,1306.5898,1280.1911,1298.66,1274.35" style="stroke:#181818;stroke-width:1.0;"/><text fill="#000000" font-family="sans-serif" font-size="13" lengthAdjust="spacing" textLength="33" x="1336" y="1337.9951">target</text></g><!--link Definition to Justification--><g id="link_Definition_Justification"><path codeLine="105" d="M1145.1081,1434.1637 C1051.4781,1468.6137 899.2209,1524.6479 808.7009,1557.9579 " fill="none" id="Definition-Justification" style="stroke:#181818;stroke-width:1.0;"/><polygon fill="#181818" points="1156.37,1430.02,1149.3578,1428.3379,1145.1081,1434.1637,1152.1203,1435.8458,1156.37,1430.02" style="stroke:#181818;stroke-width:1.0;"/><polygon fill="#181818" points="803.07,1560.03,812.8977,1560.6758,807.7624,1558.3033,810.1349,1553.168,803.07,1560.03" style="stroke:#181818;stroke-width:1.0;"/><text fill="#000000" font-family="sans-serif" font-size="13" lengthAdjust="spacing" textLength="106" x="1054" y="1481.9951">[!definition.correct]</text><text fill="#000000" font-family="sans-serif" font-size="13" lengthAdjust="spacing" textLength="5" x="810.8176" y="1553.7349">*</text></g><!--link Relation to RelationType--><g id="link_Relation_RelationType"><path codeLine="110" d="M1363.8299,1440.5913 C1361.8399,1462.6113 1360.3593,1478.9043 1357.5993,1509.4843 " fill="none" id="Relation-RelationType" style="stroke:#181818;stroke-width:1.0;"/><polygon fill="#181818" points="1364.91,1428.64,1360.3862,1434.2556,1363.8299,1440.5913,1368.3537,1434.9757,1364.91,1428.64" style="stroke:#181818;stroke-width:1.0;"/><polygon fill="#181818" points="1357.06,1515.46,1361.8528,1506.856,1357.5094,1510.4802,1353.8852,1506.1369,1357.06,1515.46" style="stroke:#181818;stroke-width:1.0;"/></g><!--link Domain to SimpleTopic--><g id="link_Domain_SimpleTopic"><path codeLine="126" d="M619.02,981.11 C575.69,1007.79 525.6696,1038.5748 489.6696,1060.7348 " fill="none" id="Domain-to-SimpleTopic" style="stroke:#181818;stroke-width:1.0;"/><polygon fill="#181818" points="484.56,1063.88,494.3212,1062.5685,488.818,1061.259,490.1275,1055.7558,484.56,1063.88" style="stroke:#181818;stroke-width:1.0;"/><text fill="#000000" font-family="sans-serif" font-size="13" lengthAdjust="spacing" textLength="8" x="485.1598" y="1053.1894">+</text></g><!--reverse link Domain to Domain--><g id="link_Domain_Domain"><path codeLine="127" d="M767.1646,926.4292 C786.8646,927.0192 790,931.13 790,939.5 C790,947.87 774.87,952.34 755.17,952.93 " fill="none" id="Domain-backto-Domain" style="stroke:#181818;stroke-width:1.0;"/><polygon fill="#181818" points="755.17,926.07,761.0476,930.2478,767.1646,926.4292,761.2871,922.2514,755.17,926.07" style="stroke:#181818;stroke-width:1.0;"/><text fill="#000000" font-family="sans-serif" font-size="13" lengthAdjust="spacing" textLength="5" x="763.1183" y="951.0263">*</text></g><!--link Application to Domain--><g id="link_Application_Domain"><path codeLine="132" d="M689.19,820.05 C688.44,841.04 687.5415,866.5137 686.6515,891.7437 " fill="none" id="Application-to-Domain" style="stroke:#181818;stroke-width:1.0;"/><polygon fill="#181818" points="686.44,897.74,690.7548,888.8866,686.6163,892.7431,682.7598,888.6046,686.44,897.74" style="stroke:#181818;stroke-width:1.0;"/><text fill="#000000" font-family="sans-serif" font-size="13" lengthAdjust="spacing" textLength="5" x="681.2644" y="887.0046">*</text></g><!--reverse link Question to MultipleChoice--><g id="link_Question_MultipleChoice"><path codeLine="139" d="M935.4527,559.4686 C916.5227,583.5386 902.24,601.7 885.27,623.27 " fill="none" id="Question-backto-MultipleChoice" style="stroke:#181818;stroke-width:1.0;"/><polygon fill="none" points="946.58,545.32,930.7365,555.7595,940.1689,563.1777,946.58,545.32" style="stroke:#181818;stroke-width:1.0;"/></g><!--reverse link Question to Cloze--><g id="link_Question_Cloze"><path codeLine="140" d="M997.6388,561.2139 C1007.3188,579.4239 1011.06,586.45 1021.39,605.87 " fill="none" id="Question-backto-Cloze" style="stroke:#181818;stroke-width:1.0;"/><polygon fill="none" points="989.19,545.32,992.3409,564.0302,1002.9368,558.3977,989.19,545.32" style="stroke:#181818;stroke-width:1.0;"/></g><!--reverse link Question to Open--><g id="link_Question_Open"><path codeLine="141" d="M1049.625,552.3901 C1082.025,569.4601 1106.03,583.33 1140,606 C1147.9,611.27 1156.11,617.44 1163.57,623.36 " fill="none" id="Question-backto-Open" style="stroke:#181818;stroke-width:1.0;"/><polygon fill="none" points="1033.7,544,1046.8283,557.6985,1052.4217,547.0818,1033.7,544" style="stroke:#181818;stroke-width:1.0;"/></g><!--link Question to Concept--><g id="link_Question_Concept"><path codeLine="142" d="M1033.56,513.55 C1122.91,517.98 1278,540.87 1278,646.5 C1278,646.5 1278,646.5 1278,1089 C1278,1130.03 1278.6361,1171.3311 1279.2161,1201.8911 " fill="none" id="Question-to-Concept" style="stroke:#181818;stroke-width:1.0;"/><polygon fill="#181818" points="1279.33,1207.89,1283.1585,1198.8157,1279.2351,1202.8909,1275.1599,1198.9675,1279.33,1207.89" style="stroke:#181818;stroke-width:1.0;"/><text fill="#000000" font-family="sans-serif" font-size="13" lengthAdjust="spacing" textLength="8" x="1270.3668" y="1196.9827">+</text></g><!--reverse link MultipleChoice to Option--><g id="link_MultipleChoice_Option"><path codeLine="151" d="M874.1577,683.466 C879.7777,710.906 886.66,744.51 892.27,771.9 " fill="none" id="MultipleChoice-backto-Option" style="stroke:#181818;stroke-width:1.0;"/><polygon fill="#181818" points="871.75,671.71,869.0352,678.3906,874.1577,683.466,876.8725,676.7854,871.75,671.71" style="stroke:#181818;stroke-width:1.0;"/><text fill="#000000" font-family="sans-serif" font-size="13" lengthAdjust="spacing" textLength="22" x="866.2392" y="761.2145">2..n</text></g><!--reverse link MultipleChoice to Correct--><g id="link_MultipleChoice_Correct"><path codeLine="152" d="M911.8265,679.136 C929.9365,693.126 940.97,705.28 952,728 C982.2,790.19 977.69,874.93 973.2,915.29 " fill="none" id="MultipleChoice-backto-Correct" style="stroke:#181818;stroke-width:1.0;"/><polygon fill="#181818" points="902.33,671.8,904.6329,678.6335,911.8265,679.136,909.5236,672.3025,902.33,671.8" style="stroke:#181818;stroke-width:1.0;"/></g><!--reverse link MultipleChoice to Incorrect--><g id="link_MultipleChoice_Incorrect"><path codeLine="153" d="M853.9969,683.0491 C848.4469,698.6891 845.86,708.6 843,728 C833.04,795.49 842.37,876.36 848.17,915.3 " fill="none" id="MultipleChoice-backto-Incorrect" style="stroke:#181818;stroke-width:1.0;"/><polygon fill="#181818" points="858.01,671.74,852.2338,676.0568,853.9969,683.0491,859.7731,678.7322,858.01,671.74" style="stroke:#181818;stroke-width:1.0;"/><text fill="#000000" font-family="sans-serif" font-size="13" lengthAdjust="spacing" textLength="22" x="822.3698" y="904.5889">1..n</text></g><!--reverse link Option to Incorrect--><g id="link_Option_Incorrect"><path codeLine="156" d="M884.2131,837.2029 C875.8431,863.5129 867.69,889.15 859.33,915.46 " fill="none" id="Option-backto-Incorrect" style="stroke:#181818;stroke-width:1.0;"/><polygon fill="none" points="889.67,820.05,878.4955,835.384,889.9308,839.0219,889.67,820.05" style="stroke:#181818;stroke-width:1.0;"/></g><!--reverse link Option to Correct--><g id="link_Option_Correct"><path codeLine="157" d="M917.1459,836.045 C930.7259,862.355 944.54,889.15 958.11,915.46 " fill="none" id="Option-backto-Correct" style="stroke:#181818;stroke-width:1.0;"/><polygon fill="none" points="908.89,820.05,911.8142,838.797,922.4776,833.2931,908.89,820.05" style="stroke:#181818;stroke-width:1.0;"/></g><!--SRC=[ZLPBRzGm4BxdLvZjhIWhmJ52bQfj3uj0b7OBGbM5lCaqjKZiO3ijfUn_P_o87-bIkeVTv9kPRvuUxsaprbGpmSywgc-4xCbXUNNGIW1-NHwHnUi5kLGWYzFdzMh1DN2zt8Y1rIzLNcl6GLBvG2eoI6ZW1j-RFTOY2-bmiPUX7fKM_Vzy6-kV8oYZyNrBjGRviFpiWPSONuXkV8bkBUGmgkNA_XG5tIejQQs3FNai27vAeoW11HNP2j41vHw7EzgDL4FpH59BCFW9Vg7C_CnDdeh4FHOA8TlCNH6YUFUdB0av7eQEkMncecEkxj4YW2McPZa2SbZwohp71h0RJrDTlL9UO-apl2wAkgDAUSwOl-qbndQX9UCjHkSKhA_GcbX1utuovhI7rDB8NE0ReFKjnXcH2pqsw6YAmYiu9ZJriDTwB4oLt3FENtbaCZoJ0lkhrAGxlOTUGaS71Ss6zL0Hy-tn0MIDHBI5bUY73h155LbZtgtjHk0fzvsEoLjMN_9C-Og1rZ_GLv0TTAozrNOqCIzZvnZZyR5iLhAptr4YIhy6tD6sqj0AYpqcTXPmvJQP2iKqECEPz8APEin5OPPEH3tsjbansfpG5y0LGHlawXgB41btgUt4brbjlfsTLa6qUHWW4JQp8-Jo2pmcqCpIYe6FVGOd_ZRmItzb-dRTOslKCMykpp-e8Ft26X3XxNXic7YQHLAqjEW97DiLzW-lONYcZYdHhCAprcU3PSZzN6sx4Hvp1rQQCri8-si9zqPbeRG_-U5EoQmgiZMurdoC9-RsO7PLxDV1gJh7ysaFJqM4P2tZsOW4Wcn8zgzdFmtHv9zRi0awoHwCNaD8QRK2Q4YdJ2gYgMn1vneXlmcP3MCA9tdXLep3ffIe6GsbIoSXnTOSroNJ5CE9jYrkbJRQxeguIKz4JvbFh2Ht89Kh_HVtvE06L2tPO8iLDvWtdUOlNHPUP2V9BWhp6cwMU8yPj-OgYGY9oyNPJDCy_pz03XwWwyHzDjJJHHHhQ3vAutxei_qRspYPk8ttSUmqmpHMjuBv2kOAgqxyteT_6e3dy5INVSV8a8GOIxBjAF-n4YFN5M5SpmHVXMoKtPjPy0bV7dKwfBd4D6JnThda2umtZCDJ7RC9p27u5yKRIx7c_gpCxfk4sZsw2aNrkMILqeJjD8SITxlYBm00]--></g></svg>